ISO-10303-21;
HEADER;
FILE_DESCRIPTION (( 'STEP AP214' ),
    '1' );
FILE_NAME ('11x5t5.step',
    '2023-08-15T03:00:59',
    ( '' ),
    ( '' ),
    'SwSTEP 2.0',
    'SolidWorks 2022',
    '' );
FILE_SCHEMA (( 'AUTOMOTIVE_DESIGN' ));
ENDSEC;

DATA;
#1 = EDGE_CURVE ( 'NONE', #267, #300, #161, .T. ) ;
#2 = AXIS2_PLACEMENT_3D ( 'NONE', #274, #148, #216 ) ;
#3 = ORIENTED_EDGE ( 'NONE', *, *, #340, .F. ) ;
#4 = AXIS2_PLACEMENT_3D ( 'NONE', #151, #90, #381 ) ;
#5 = AXIS2_PLACEMENT_3D ( 'NONE', #408, #213, #312 ) ;
#6 = FACE_OUTER_BOUND ( 'NONE', #206, .T. ) ;
#7 = FACE_OUTER_BOUND ( 'NONE', #277, .T. ) ;
#8 = EDGE_CURVE ( 'NONE', #120, #46, #127, .T. ) ;
#9 = FACE_OUTER_BOUND ( 'NONE', #44, .T. ) ;
#10 = TOROIDAL_SURFACE ( 'NONE', #167, 3.000000000000000000, 0.5000000000000000000 ) ;
#11 = ORIENTED_EDGE ( 'NONE', *, *, #256, .F. ) ;
#12 = EDGE_LOOP ( 'NONE', ( #302, #74 ) ) ;
#13 =( GEOMETRIC_REPRESENTATION_CONTEXT ( 3 ) GLOBAL_UNCERTAINTY_ASSIGNED_CONTEXT ( ( #273 ) ) GLOBAL_UNIT_ASSIGNED_CONTEXT ( ( #33, #99, #249 ) ) REPRESENTATION_CONTEXT ( 'NONE', 'WORKASPACE' ) );
#14 = CARTESIAN_POINT ( 'NONE',  ( 0.000000000000000000, 0.000000000000000000, 0.4999999999999995559 ) ) ;
#15 = ORIENTED_EDGE ( 'NONE', *, *, #49, .T. ) ;
#16 = DIRECTION ( 'NONE',  ( 0.000000000000000000, 0.000000000000000000, 1.000000000000000000 ) ) ;
#17 = VERTEX_POINT ( 'NONE', #386 ) ;
#18 = CYLINDRICAL_SURFACE ( 'NONE', #2, 5.500000000000000000 ) ;
#19 = CIRCLE ( 'NONE', #318, 3.000000000000000000 ) ;
#20 = ADVANCED_BREP_SHAPE_REPRESENTATION ( '11x5t5', ( #32, #155 ), #145 ) ;
#21 = DIRECTION ( 'NONE',  ( 0.000000000000000000, 0.000000000000000000, 1.000000000000000000 ) ) ;
#22 = ADVANCED_FACE ( 'NONE', ( #38, #289 ), #37, .T. ) ;
#23 = DIRECTION ( 'NONE',  ( 0.000000000000000000, 0.000000000000000000, 1.000000000000000000 ) ) ;
#24 = DIRECTION ( 'NONE',  ( -0.000000000000000000, -0.000000000000000000, -1.000000000000000000 ) ) ;
#25 = AXIS2_PLACEMENT_3D ( 'NONE', #313, #375, #348 ) ;
#26 = CARTESIAN_POINT ( 'NONE',  ( 2.500000000000000000, 3.061616997868383141E-16, 4.500000000000000888 ) ) ;
#27 = CARTESIAN_POINT ( 'NONE',  ( 5.500000000000000000, 6.735557395310442023E-16, 0.4999999999999995559 ) ) ;
#28 = SURFACE_STYLE_FILL_AREA ( #181 ) ;
#29 = CIRCLE ( 'NONE', #297, 0.5000000000000004441 ) ;
#30 = ORIENTED_EDGE ( 'NONE', *, *, #321, .F. ) ;
#31 = CARTESIAN_POINT ( 'NONE',  ( 3.000000000000000000, 0.000000000000000000, 0.4999999999999995559 ) ) ;
#32 = MANIFOLD_SOLID_BREP ( 'Ô²½Ç1', #264 ) ;
#33 =( LENGTH_UNIT ( ) NAMED_UNIT ( * ) SI_UNIT ( .MILLI., .METRE. ) );
#34 = CIRCLE ( 'NONE', #259, 5.500000000000000000 ) ;
#35 = ADVANCED_FACE ( 'NONE', ( #67 ), #344, .T. ) ;
#36 = PRODUCT_CONTEXT ( 'NONE', #128, 'mechanical' ) ;
#37 = PLANE ( 'NONE',  #361 ) ;
#38 = FACE_BOUND ( 'NONE', #12, .T. ) ;
#39 = PRODUCT ( '11x5t5', '11x5t5', '', ( #36 ) ) ;
#40 = AXIS2_PLACEMENT_3D ( 'NONE', #393, #329, #135 ) ;
#41 = DIRECTION ( 'NONE',  ( 1.000000000000000000, 0.000000000000000000, 0.000000000000000000 ) ) ;
#42 = ORIENTED_EDGE ( 'NONE', *, *, #49, .F. ) ;
#43 = LINE ( 'NONE', #196, #385 ) ;
#44 = EDGE_LOOP ( 'NONE', ( #355, #139, #204, #15 ) ) ;
#45 = DIRECTION ( 'NONE',  ( 1.000000000000000000, 0.000000000000000000, 0.000000000000000000 ) ) ;
#46 = VERTEX_POINT ( 'NONE', #225 ) ;
#47 = COLOUR_RGB ( '',0.8666666666666666963, 0.3215686274509803599, 0.3333333333333333148 ) ;
#48 = ORIENTED_EDGE ( 'NONE', *, *, #215, .F. ) ;
#49 = EDGE_CURVE ( 'NONE', #300, #267, #403, .T. ) ;
#50 = CYLINDRICAL_SURFACE ( 'NONE', #258, 2.500000000000000000 ) ;
#51 = CARTESIAN_POINT ( 'NONE',  ( 2.500000000000000000, 3.061616997868383141E-16, 5.000000000000000000 ) ) ;
#52 = MECHANICAL_DESIGN_GEOMETRIC_PRESENTATION_REPRESENTATION (  '', ( #422 ), #103 ) ;
#53 = DIRECTION ( 'NONE',  ( 1.224646799147353207E-16, 1.000000000000000000, -0.000000000000000000 ) ) ;
#54 = DIRECTION ( 'NONE',  ( 1.000000000000000000, 0.000000000000000000, 0.000000000000000000 ) ) ;
#55 = DIRECTION ( 'NONE',  ( -0.000000000000000000, -0.000000000000000000, -1.000000000000000000 ) ) ;
#56 = APPLICATION_PROTOCOL_DEFINITION ( 'draft international standard', 'automotive_design', 1998, #128 ) ;
#57 = DIRECTION ( 'NONE',  ( 1.000000000000000000, 0.000000000000000000, 0.000000000000000000 ) ) ;
#58 = TOROIDAL_SURFACE ( 'NONE', #291, 3.000000000000000000, 0.5000000000000000000 ) ;
#59 = AXIS2_PLACEMENT_3D ( 'NONE', #178, #109, #372 ) ;
#60 = SURFACE_SIDE_STYLE ('',( #354 ) ) ;
#61 =( NAMED_UNIT ( * ) SI_UNIT ( $, .STERADIAN. ) SOLID_ANGLE_UNIT ( ) );
#62 = EDGE_LOOP ( 'NONE', ( #396, #166, #190, #334 ) ) ;
#63 = ADVANCED_FACE ( 'NONE', ( #366 ), #217, .T. ) ;
#64 = AXIS2_PLACEMENT_3D ( 'NONE', #149, #138, #337 ) ;
#65 = AXIS2_PLACEMENT_3D ( 'NONE', #198, #132, #41 ) ;
#66 = FILL_AREA_STYLE_COLOUR ( '', #176 ) ;
#67 = FACE_OUTER_BOUND ( 'NONE', #374, .T. ) ;
#68 = ADVANCED_FACE ( 'NONE', ( #328, #6 ), #360, .F. ) ;
#69 =( LENGTH_UNIT ( ) NAMED_UNIT ( * ) SI_UNIT ( .MILLI., .METRE. ) );
#70 = AXIS2_PLACEMENT_3D ( 'NONE', #97, #159, #251 ) ;
#71 = CARTESIAN_POINT ( 'NONE',  ( 0.000000000000000000, 0.000000000000000000, 4.500000000000000888 ) ) ;
#72 = ORIENTED_EDGE ( 'NONE', *, *, #262, .F. ) ;
#73 = EDGE_CURVE ( 'NONE', #17, #384, #210, .T. ) ;
#74 = ORIENTED_EDGE ( 'NONE', *, *, #293, .T. ) ;
#75 = DIRECTION ( 'NONE',  ( -0.000000000000000000, -0.000000000000000000, -1.000000000000000000 ) ) ;
#76 = AXIS2_PLACEMENT_3D ( 'NONE', #78, #272, #350 ) ;
#77 = ORIENTED_EDGE ( 'NONE', *, *, #1, .T. ) ;
#78 = CARTESIAN_POINT ( 'NONE',  ( 0.000000000000000000, 0.000000000000000000, 5.000000000000000000 ) ) ;
#79 = ORIENTED_EDGE ( 'NONE', *, *, #356, .T. ) ;
#80 = CARTESIAN_POINT ( 'NONE',  ( 0.000000000000000000, 0.000000000000000000, 4.500000000000000888 ) ) ;
#81 = VERTEX_POINT ( 'NONE', #395 ) ;
#82 = FACE_OUTER_BOUND ( 'NONE', #111, .T. ) ;
#83 = ADVANCED_FACE ( 'NONE', ( #101 ), #299, .T. ) ;
#84 = CARTESIAN_POINT ( 'NONE',  ( 2.500000000000000000, 3.061616997868383141E-16, 0.4999999999999995559 ) ) ;
#85 = AXIS2_PLACEMENT_3D ( 'NONE', #14, #21, #112 ) ;
#86 = CARTESIAN_POINT ( 'NONE',  ( 0.000000000000000000, 0.000000000000000000, 0.000000000000000000 ) ) ;
#87 = FILL_AREA_STYLE_COLOUR ( '', #47 ) ;
#88 = CARTESIAN_POINT ( 'NONE',  ( 0.000000000000000000, 0.000000000000000000, 5.000000000000000000 ) ) ;
#89 = EDGE_CURVE ( 'NONE', #81, #402, #34, .T. ) ;
#90 = DIRECTION ( 'NONE',  ( 1.224646799147353207E-16, 1.000000000000000000, -0.000000000000000000 ) ) ;
#91 = PRESENTATION_LAYER_ASSIGNMENT (  '', '', ( #422 ) ) ;
#92 = ADVANCED_FACE ( 'NONE', ( #7 ), #227, .F. ) ;
#93 = ORIENTED_EDGE ( 'NONE', *, *, #8, .F. ) ;
#94 = FILL_AREA_STYLE ('',( #66 ) ) ;
#95 = MECHANICAL_DESIGN_GEOMETRIC_PRESENTATION_REPRESENTATION (  '', ( #294 ), #13 ) ;
#96 = CARTESIAN_POINT ( 'NONE',  ( 0.000000000000000000, 0.000000000000000000, 0.000000000000000000 ) ) ;
#97 = CARTESIAN_POINT ( 'NONE',  ( 0.000000000000000000, 0.000000000000000000, 0.4999999999999995559 ) ) ;
#98 = CIRCLE ( 'NONE', #333, 0.5000000000000000000 ) ;
#99 =( NAMED_UNIT ( * ) PLANE_ANGLE_UNIT ( ) SI_UNIT ( $, .RADIAN. ) );
#100 = CIRCLE ( 'NONE', #25, 0.5000000000000004441 ) ;
#101 = FACE_OUTER_BOUND ( 'NONE', #281, .T. ) ;
#102 = CARTESIAN_POINT ( 'NONE',  ( 0.000000000000000000, 0.000000000000000000, 5.000000000000000000 ) ) ;
#103 =( GEOMETRIC_REPRESENTATION_CONTEXT ( 3 ) GLOBAL_UNCERTAINTY_ASSIGNED_CONTEXT ( ( #317 ) ) GLOBAL_UNIT_ASSIGNED_CONTEXT ( ( #69, #162, #131 ) ) REPRESENTATION_CONTEXT ( 'NONE', 'WORKASPACE' ) );
#104 = ORIENTED_EDGE ( 'NONE', *, *, #330, .T. ) ;
#105 = ADVANCED_FACE ( 'NONE', ( #362 ), #142, .T. ) ;
#106 = ORIENTED_EDGE ( 'NONE', *, *, #399, .F. ) ;
#107 = CYLINDRICAL_SURFACE ( 'NONE', #186, 5.500000000000000000 ) ;
#108 = ORIENTED_EDGE ( 'NONE', *, *, #250, .F. ) ;
#109 = DIRECTION ( 'NONE',  ( 0.000000000000000000, 0.000000000000000000, 1.000000000000000000 ) ) ;
#110 = CIRCLE ( 'NONE', #76, 4.999999999999999112 ) ;
#111 = EDGE_LOOP ( 'NONE', ( #48, #106, #104, #160 ) ) ;
#112 = DIRECTION ( 'NONE',  ( 1.000000000000000000, 0.000000000000000000, 0.000000000000000000 ) ) ;
#113 = EDGE_CURVE ( 'NONE', #402, #267, #43, .T. ) ;
#114 = ORIENTED_EDGE ( 'NONE', *, *, #236, .F. ) ;
#115 = PRESENTATION_LAYER_ASSIGNMENT (  '', '', ( #294 ) ) ;
#116 = CARTESIAN_POINT ( 'NONE',  ( -3.000000000000000000, 3.673940397442059868E-16, 5.000000000000000888 ) ) ;
#117 = DIRECTION ( 'NONE',  ( 1.000000000000000000, 0.000000000000000000, 0.000000000000000000 ) ) ;
#118 = LINE ( 'NONE', #51, #137 ) ;
#119 = AXIS2_PLACEMENT_3D ( 'NONE', #86, #232, #307 ) ;
#120 = VERTEX_POINT ( 'NONE', #331 ) ;
#121 = CARTESIAN_POINT ( 'NONE',  ( 0.000000000000000000, 0.000000000000000000, 5.000000000000000000 ) ) ;
#122 = CARTESIAN_POINT ( 'NONE',  ( 0.000000000000000000, 0.000000000000000000, 0.4999999999999995559 ) ) ;
#123 = VERTEX_POINT ( 'NONE', #168 ) ;
#124 = DIRECTION ( 'NONE',  ( 0.000000000000000000, 0.000000000000000000, -1.000000000000000000 ) ) ;
#125 = FACE_OUTER_BOUND ( 'NONE', #62, .T. ) ;
#126 = VERTEX_POINT ( 'NONE', #296 ) ;
#127 = CIRCLE ( 'NONE', #285, 3.000000000000000000 ) ;
#128 = APPLICATION_CONTEXT ( 'automotive_design' ) ;
#129 = CIRCLE ( 'NONE', #5, 0.5000000000000000000 ) ;
#130 = CARTESIAN_POINT ( 'NONE',  ( 0.000000000000000000, 0.000000000000000000, 4.500000000000000888 ) ) ;
#131 =( NAMED_UNIT ( * ) SI_UNIT ( $, .STERADIAN. ) SOLID_ANGLE_UNIT ( ) );
#132 = DIRECTION ( 'NONE',  ( 0.000000000000000000, 0.000000000000000000, 1.000000000000000000 ) ) ;
#133 = VECTOR ( 'NONE', #400, 1000.000000000000000 ) ;
#134 = ORIENTED_EDGE ( 'NONE', *, *, #378, .F. ) ;
#135 = DIRECTION ( 'NONE',  ( 1.000000000000000000, 0.000000000000000000, 0.000000000000000000 ) ) ;
#136 = EDGE_LOOP ( 'NONE', ( #72, #248, #405, #194 ) ) ;
#137 = VECTOR ( 'NONE', #411, 1000.000000000000000 ) ;
#138 = DIRECTION ( 'NONE',  ( -0.000000000000000000, -0.000000000000000000, -1.000000000000000000 ) ) ;
#139 = ORIENTED_EDGE ( 'NONE', *, *, #236, .T. ) ;
#140 = ADVANCED_FACE ( 'NONE', ( #9 ), #107, .T. ) ;
#141 = CARTESIAN_POINT ( 'NONE',  ( 0.000000000000000000, 0.000000000000000000, 5.000000000000000000 ) ) ;
#142 = TOROIDAL_SURFACE ( 'NONE', #254, 3.000000000000000000, 0.5000000000000000000 ) ;
#143 = EDGE_LOOP ( 'NONE', ( #358, #156, #77, #3 ) ) ;
#144 = DIRECTION ( 'NONE',  ( -0.000000000000000000, -0.000000000000000000, -1.000000000000000000 ) ) ;
#145 =( GEOMETRIC_REPRESENTATION_CONTEXT ( 3 ) GLOBAL_UNCERTAINTY_ASSIGNED_CONTEXT ( ( #154 ) ) GLOBAL_UNIT_ASSIGNED_CONTEXT ( ( #177, #185, #61 ) ) REPRESENTATION_CONTEXT ( 'NONE', 'WORKASPACE' ) );
#146 = CARTESIAN_POINT ( 'NONE',  ( 0.000000000000000000, 0.000000000000000000, 5.000000000000000000 ) ) ;
#147 = ADVANCED_FACE ( 'NONE', ( #279 ), #50, .F. ) ;
#148 = DIRECTION ( 'NONE',  ( -0.000000000000000000, -0.000000000000000000, -1.000000000000000000 ) ) ;
#149 = CARTESIAN_POINT ( 'NONE',  ( 0.000000000000000000, 0.000000000000000000, 0.4999999999999995559 ) ) ;
#150 = VECTOR ( 'NONE', #308, 1000.000000000000000 ) ;
#151 = CARTESIAN_POINT ( 'NONE',  ( -4.999999999999999112, 6.123233995736765296E-16, 4.500000000000000888 ) ) ;
#152 = VERTEX_POINT ( 'NONE', #240 ) ;
#153 = DIRECTION ( 'NONE',  ( 0.000000000000000000, 0.000000000000000000, -1.000000000000000000 ) ) ;
#154 = UNCERTAINTY_MEASURE_WITH_UNIT (LENGTH_MEASURE( 1.000000000000000082E-05 ), #177, 'distance_accuracy_value', 'NONE');
#155 = AXIS2_PLACEMENT_3D ( 'NONE', #96, #158, #223 ) ;
#156 = ORIENTED_EDGE ( 'NONE', *, *, #113, .T. ) ;
#157 = DIRECTION ( 'NONE',  ( 1.000000000000000000, 0.000000000000000000, 0.000000000000000000 ) ) ;
#158 = DIRECTION ( 'NONE',  ( 0.000000000000000000, 0.000000000000000000, 1.000000000000000000 ) ) ;
#159 = DIRECTION ( 'NONE',  ( 0.000000000000000000, 0.000000000000000000, 1.000000000000000000 ) ) ;
#160 = ORIENTED_EDGE ( 'NONE', *, *, #172, .F. ) ;
#161 = CIRCLE ( 'NONE', #70, 5.500000000000000000 ) ;
#162 =( NAMED_UNIT ( * ) PLANE_ANGLE_UNIT ( ) SI_UNIT ( $, .RADIAN. ) );
#163 = EDGE_CURVE ( 'NONE', #17, #126, #413, .T. ) ;
#164 = DIRECTION ( 'NONE',  ( 0.000000000000000000, 0.000000000000000000, 1.000000000000000000 ) ) ;
#165 = DIRECTION ( 'NONE',  ( 0.000000000000000000, 0.000000000000000000, 1.000000000000000000 ) ) ;
#166 = ORIENTED_EDGE ( 'NONE', *, *, #262, .T. ) ;
#167 = AXIS2_PLACEMENT_3D ( 'NONE', #343, #205, #57 ) ;
#168 = CARTESIAN_POINT ( 'NONE',  ( 3.000000000000000000, 0.000000000000000000, 5.000000000000000888 ) ) ;
#169 = ORIENTED_EDGE ( 'NONE', *, *, #247, .F. ) ;
#170 = DIRECTION ( 'NONE',  ( 1.000000000000000000, 0.000000000000000000, 0.000000000000000000 ) ) ;
#171 = ORIENTED_EDGE ( 'NONE', *, *, #247, .T. ) ;
#172 = EDGE_CURVE ( 'NONE', #46, #120, #292, .T. ) ;
#173 = DIRECTION ( 'NONE',  ( 1.000000000000000000, 0.000000000000000000, 0.000000000000000000 ) ) ;
#174 = EDGE_LOOP ( 'NONE', ( #182, #389 ) ) ;
#175 = DIRECTION ( 'NONE',  ( 1.000000000000000000, 0.000000000000000000, 0.000000000000000000 ) ) ;
#176 = COLOUR_RGB ( '',0.8666666666666666963, 0.3215686274509803599, 0.3333333333333333148 ) ;
#177 =( LENGTH_UNIT ( ) NAMED_UNIT ( * ) SI_UNIT ( .MILLI., .METRE. ) );
#178 = CARTESIAN_POINT ( 'NONE',  ( 0.000000000000000000, 0.000000000000000000, 4.500000000000000888 ) ) ;
#179 = CARTESIAN_POINT ( 'NONE',  ( 4.999999999999999112, 0.000000000000000000, 0.4999999999999995559 ) ) ;
#180 = DIRECTION ( 'NONE',  ( 1.000000000000000000, 0.000000000000000000, 0.000000000000000000 ) ) ;
#181 = FILL_AREA_STYLE ('',( #87 ) ) ;
#182 = ORIENTED_EDGE ( 'NONE', *, *, #8, .T. ) ;
#183 = DIRECTION ( 'NONE',  ( 0.000000000000000000, 0.000000000000000000, -1.000000000000000000 ) ) ;
#184 = AXIS2_PLACEMENT_3D ( 'NONE', #303, #316, #153 ) ;
#185 =( NAMED_UNIT ( * ) PLANE_ANGLE_UNIT ( ) SI_UNIT ( $, .RADIAN. ) );
#186 = AXIS2_PLACEMENT_3D ( 'NONE', #230, #75, #380 ) ;
#187 = DIRECTION ( 'NONE',  ( 1.000000000000000000, 0.000000000000000000, -0.000000000000000000 ) ) ;
#188 = PRODUCT_DEFINITION ( 'Î´Öª', '', #373, #310 ) ;
#189 = ADVANCED_FACE ( 'NONE', ( #379 ), #192, .T. ) ;
#190 = ORIENTED_EDGE ( 'NONE', *, *, #229, .F. ) ;
#191 = CIRCLE ( 'NONE', #64, 2.500000000000000000 ) ;
#192 = TOROIDAL_SURFACE ( 'NONE', #85, 4.999999999999999112, 0.5000000000000000000 ) ;
#193 = EDGE_CURVE ( 'NONE', #368, #339, #244, .T. ) ;
#194 = ORIENTED_EDGE ( 'NONE', *, *, #73, .F. ) ;
#195 = ORIENTED_EDGE ( 'NONE', *, *, #256, .T. ) ;
#196 = CARTESIAN_POINT ( 'NONE',  ( 5.500000000000000000, 6.735557395310442023E-16, 5.000000000000000000 ) ) ;
#197 = AXIS2_PLACEMENT_3D ( 'NONE', #235, #16, #175 ) ;
#198 = CARTESIAN_POINT ( 'NONE',  ( 0.000000000000000000, 0.000000000000000000, 0.4999999999999995559 ) ) ;
#199 = DIRECTION ( 'NONE',  ( 1.000000000000000000, 0.000000000000000000, 0.000000000000000000 ) ) ;
#200 = ORIENTED_EDGE ( 'NONE', *, *, #387, .F. ) ;
#201 = ORIENTED_EDGE ( 'NONE', *, *, #1, .F. ) ;
#202 = CIRCLE ( 'NONE', #4, 0.5000000000000004441 ) ;
#203 = CARTESIAN_POINT ( 'NONE',  ( 0.000000000000000000, 0.000000000000000000, 4.500000000000000888 ) ) ;
#204 = ORIENTED_EDGE ( 'NONE', *, *, #340, .T. ) ;
#205 = DIRECTION ( 'NONE',  ( 0.000000000000000000, 0.000000000000000000, 1.000000000000000000 ) ) ;
#206 = EDGE_LOOP ( 'NONE', ( #171, #332 ) ) ;
#207 = CARTESIAN_POINT ( 'NONE',  ( -3.000000000000000000, 3.673940397442059868E-16, 4.500000000000000888 ) ) ;
#208 = DIRECTION ( 'NONE',  ( -0.000000000000000000, -0.000000000000000000, -1.000000000000000000 ) ) ;
#209 = EDGE_CURVE ( 'NONE', #123, #253, #19, .T. ) ;
#210 = CIRCLE ( 'NONE', #414, 2.500000000000000000 ) ;
#211 = DIRECTION ( 'NONE',  ( -0.000000000000000000, -0.000000000000000000, -1.000000000000000000 ) ) ;
#212 = ORIENTED_EDGE ( 'NONE', *, *, #215, .T. ) ;
#213 = DIRECTION ( 'NONE',  ( 1.224646799147353207E-16, 1.000000000000000000, -0.000000000000000000 ) ) ;
#214 = CARTESIAN_POINT ( 'NONE',  ( 0.000000000000000000, 0.000000000000000000, 0.4999999999999995559 ) ) ;
#215 = EDGE_CURVE ( 'NONE', #126, #46, #129, .T. ) ;
#216 = DIRECTION ( 'NONE',  ( -1.000000000000000000, 0.000000000000000000, 0.000000000000000000 ) ) ;
#217 = TOROIDAL_SURFACE ( 'NONE', #40, 4.999999999999999112, 0.5000000000000000000 ) ;
#218 = EDGE_LOOP ( 'NONE', ( #234, #114, #261, #11 ) ) ;
#219 = CIRCLE ( 'NONE', #357, 4.999999999999999112 ) ;
#220 = CARTESIAN_POINT ( 'NONE',  ( 0.000000000000000000, 0.000000000000000000, 5.000000000000000000 ) ) ;
#221 = DIRECTION ( 'NONE',  ( 1.000000000000000000, 0.000000000000000000, 0.000000000000000000 ) ) ;
#222 = PRODUCT_DEFINITION_SHAPE ( 'NONE', 'NONE',  #188 ) ;
#223 = DIRECTION ( 'NONE',  ( 1.000000000000000000, 0.000000000000000000, 0.000000000000000000 ) ) ;
#224 = DIRECTION ( 'NONE',  ( -0.000000000000000000, -0.000000000000000000, -1.000000000000000000 ) ) ;
#225 = CARTESIAN_POINT ( 'NONE',  ( -3.000000000000000000, 3.673940397442059868E-16, -2.168404344971008868E-16 ) ) ;
#226 = ORIENTED_EDGE ( 'NONE', *, *, #73, .T. ) ;
#227 = CYLINDRICAL_SURFACE ( 'NONE', #324, 2.500000000000000000 ) ;
#228 = ORIENTED_EDGE ( 'NONE', *, *, #420, .T. ) ;
#229 = EDGE_CURVE ( 'NONE', #384, #17, #233, .T. ) ;
#230 = CARTESIAN_POINT ( 'NONE',  ( 0.000000000000000000, 0.000000000000000000, 5.000000000000000000 ) ) ;
#231 = ORIENTED_EDGE ( 'NONE', *, *, #229, .T. ) ;
#232 = DIRECTION ( 'NONE',  ( -0.000000000000000000, -0.000000000000000000, -1.000000000000000000 ) ) ;
#233 = CIRCLE ( 'NONE', #59, 2.500000000000000000 ) ;
#234 = ORIENTED_EDGE ( 'NONE', *, *, #356, .F. ) ;
#235 = CARTESIAN_POINT ( 'NONE',  ( 0.000000000000000000, 0.000000000000000000, 0.000000000000000000 ) ) ;
#236 = EDGE_CURVE ( 'NONE', #402, #81, #412, .T. ) ;
#237 = EDGE_LOOP ( 'NONE', ( #326, #195 ) ) ;
#238 = AXIS2_PLACEMENT_3D ( 'NONE', #122, #208, #276 ) ;
#239 = LINE ( 'NONE', #241, #150 ) ;
#240 = CARTESIAN_POINT ( 'NONE',  ( 4.999999999999999112, 0.000000000000000000, 5.000000000000000000 ) ) ;
#241 = CARTESIAN_POINT ( 'NONE',  ( -5.500000000000000000, 0.000000000000000000, 5.000000000000000000 ) ) ;
#242 = AXIS2_PLACEMENT_3D ( 'NONE', #207, #53, #341 ) ;
#243 = DIRECTION ( 'NONE',  ( 0.000000000000000000, -1.000000000000000000, 0.000000000000000000 ) ) ;
#244 = CIRCLE ( 'NONE', #119, 4.999999999999999112 ) ;
#245 = FACE_OUTER_BOUND ( 'NONE', #349, .T. ) ;
#246 = DIRECTION ( 'NONE',  ( 1.000000000000000000, 0.000000000000000000, 0.000000000000000000 ) ) ;
#247 = EDGE_CURVE ( 'NONE', #339, #368, #219, .T. ) ;
#248 = ORIENTED_EDGE ( 'NONE', *, *, #209, .F. ) ;
#249 =( NAMED_UNIT ( * ) SI_UNIT ( $, .STERADIAN. ) SOLID_ANGLE_UNIT ( ) );
#250 = EDGE_CURVE ( 'NONE', #402, #152, #29, .T. ) ;
#251 = DIRECTION ( 'NONE',  ( 1.000000000000000000, 0.000000000000000000, 0.000000000000000000 ) ) ;
#252 = AXIS2_PLACEMENT_3D ( 'NONE', #80, #309, #117 ) ;
#253 = VERTEX_POINT ( 'NONE', #116 ) ;
#254 = AXIS2_PLACEMENT_3D ( 'NONE', #71, #165, #199 ) ;
#255 = PRESENTATION_STYLE_ASSIGNMENT (( #319 ) ) ;
#256 = EDGE_CURVE ( 'NONE', #371, #152, #110, .T. ) ;
#257 = DIRECTION ( 'NONE',  ( 0.000000000000000000, 0.000000000000000000, 1.000000000000000000 ) ) ;
#258 = AXIS2_PLACEMENT_3D ( 'NONE', #146, #211, #404 ) ;
#259 = AXIS2_PLACEMENT_3D ( 'NONE', #203, #224, #295 ) ;
#260 = DIRECTION ( 'NONE',  ( 1.000000000000000000, 0.000000000000000000, -0.000000000000000000 ) ) ;
#261 = ORIENTED_EDGE ( 'NONE', *, *, #250, .T. ) ;
#262 = EDGE_CURVE ( 'NONE', #253, #17, #315, .T. ) ;
#263 = CARTESIAN_POINT ( 'NONE',  ( 0.000000000000000000, 0.000000000000000000, 4.500000000000000888 ) ) ;
#264 = CLOSED_SHELL ( 'NONE', ( #83, #370, #189, #306, #147, #392, #22, #68, #140, #92, #346, #35, #105, #63 ) ) ;
#265 = ORIENTED_EDGE ( 'NONE', *, *, #420, .F. ) ;
#266 = DIRECTION ( 'NONE',  ( 0.000000000000000000, 0.000000000000000000, 1.000000000000000000 ) ) ;
#267 = VERTEX_POINT ( 'NONE', #27 ) ;
#268 = CARTESIAN_POINT ( 'NONE',  ( -2.500000000000000000, 0.000000000000000000, 5.000000000000000000 ) ) ;
#269 = AXIS2_PLACEMENT_3D ( 'NONE', #130, #390, #221 ) ;
#270 = EDGE_LOOP ( 'NONE', ( #290, #416, #201, #200 ) ) ;
#271 = SURFACE_SIDE_STYLE ('',( #28 ) ) ;
#272 = DIRECTION ( 'NONE',  ( 0.000000000000000000, 0.000000000000000000, 1.000000000000000000 ) ) ;
#273 = UNCERTAINTY_MEASURE_WITH_UNIT (LENGTH_MEASURE( 1.000000000000000082E-05 ), #33, 'distance_accuracy_value', 'NONE');
#274 = CARTESIAN_POINT ( 'NONE',  ( 0.000000000000000000, 0.000000000000000000, 5.000000000000000000 ) ) ;
#275 = DIRECTION ( 'NONE',  ( 1.000000000000000000, 0.000000000000000000, 0.000000000000000000 ) ) ;
#276 = DIRECTION ( 'NONE',  ( 1.000000000000000000, 0.000000000000000000, 0.000000000000000000 ) ) ;
#277 = EDGE_LOOP ( 'NONE', ( #265, #231, #421, #320 ) ) ;
#278 = CIRCLE ( 'NONE', #184, 0.5000000000000004441 ) ;
#279 = FACE_OUTER_BOUND ( 'NONE', #284, .T. ) ;
#280 = SURFACE_STYLE_USAGE ( .BOTH. , #271 ) ;
#281 = EDGE_LOOP ( 'NONE', ( #363, #79, #30, #108 ) ) ;
#282 = CARTESIAN_POINT ( 'NONE',  ( 4.999999999999999112, 0.000000000000000000, 0.000000000000000000 ) ) ;
#283 = DIRECTION ( 'NONE',  ( 0.000000000000000000, 0.000000000000000000, -1.000000000000000000 ) ) ;
#284 = EDGE_LOOP ( 'NONE', ( #226, #228, #314, #365 ) ) ;
#285 = AXIS2_PLACEMENT_3D ( 'NONE', #325, #382, #157 ) ;
#286 = DIRECTION ( 'NONE',  ( 0.000000000000000000, 0.000000000000000000, 1.000000000000000000 ) ) ;
#287 = EDGE_CURVE ( 'NONE', #126, #304, #191, .T. ) ;
#288 = SHAPE_DEFINITION_REPRESENTATION ( #222, #20 ) ;
#289 = FACE_OUTER_BOUND ( 'NONE', #237, .T. ) ;
#290 = ORIENTED_EDGE ( 'NONE', *, *, #193, .F. ) ;
#291 = AXIS2_PLACEMENT_3D ( 'NONE', #407, #23, #54 ) ;
#292 = CIRCLE ( 'NONE', #197, 3.000000000000000000 ) ;
#293 = EDGE_CURVE ( 'NONE', #253, #123, #377, .T. ) ;
#294 = STYLED_ITEM ( 'NONE', ( #415 ), #20 ) ;
#295 = DIRECTION ( 'NONE',  ( 1.000000000000000000, 0.000000000000000000, 0.000000000000000000 ) ) ;
#296 = CARTESIAN_POINT ( 'NONE',  ( -2.500000000000000000, 0.000000000000000000, 0.4999999999999995559 ) ) ;
#297 = AXIS2_PLACEMENT_3D ( 'NONE', #369, #243, #183 ) ;
#298 = ORIENTED_EDGE ( 'NONE', *, *, #330, .F. ) ;
#299 = TOROIDAL_SURFACE ( 'NONE', #269, 4.999999999999999112, 0.5000000000000000000 ) ;
#300 = VERTEX_POINT ( 'NONE', #376 ) ;
#301 = DIRECTION ( 'NONE',  ( 0.000000000000000000, 0.000000000000000000, 1.000000000000000000 ) ) ;
#302 = ORIENTED_EDGE ( 'NONE', *, *, #209, .T. ) ;
#303 = CARTESIAN_POINT ( 'NONE',  ( 3.000000000000000000, 0.000000000000000000, 4.500000000000000888 ) ) ;
#304 = VERTEX_POINT ( 'NONE', #84 ) ;
#305 = FACE_OUTER_BOUND ( 'NONE', #143, .T. ) ;
#306 = ADVANCED_FACE ( 'NONE', ( #245 ), #10, .T. ) ;
#307 = DIRECTION ( 'NONE',  ( 1.000000000000000000, 0.000000000000000000, 0.000000000000000000 ) ) ;
#308 = DIRECTION ( 'NONE',  ( -0.000000000000000000, -0.000000000000000000, -1.000000000000000000 ) ) ;
#309 = DIRECTION ( 'NONE',  ( -0.000000000000000000, -0.000000000000000000, -1.000000000000000000 ) ) ;
#310 = PRODUCT_DEFINITION_CONTEXT ( 'detailed design', #409, 'design' ) ;
#311 = CARTESIAN_POINT ( 'NONE',  ( -4.999999999999999112, 6.429395695523603167E-16, 5.000000000000000000 ) ) ;
#312 = DIRECTION ( 'NONE',  ( -1.000000000000000000, 1.224646799147353454E-16, 0.000000000000000000 ) ) ;
#313 = CARTESIAN_POINT ( 'NONE',  ( -4.999999999999999112, 6.123233995736765296E-16, 0.4999999999999995559 ) ) ;
#314 = ORIENTED_EDGE ( 'NONE', *, *, #399, .T. ) ;
#315 = CIRCLE ( 'NONE', #242, 0.5000000000000000000 ) ;
#316 = DIRECTION ( 'NONE',  ( 0.000000000000000000, -1.000000000000000000, 0.000000000000000000 ) ) ;
#317 = UNCERTAINTY_MEASURE_WITH_UNIT (LENGTH_MEASURE( 1.000000000000000082E-05 ), #69, 'distance_accuracy_value', 'NONE');
#318 = AXIS2_PLACEMENT_3D ( 'NONE', #141, #144, #275 ) ;
#319 = SURFACE_STYLE_USAGE ( .BOTH. , #60 ) ;
#320 = ORIENTED_EDGE ( 'NONE', *, *, #287, .T. ) ;
#321 = EDGE_CURVE ( 'NONE', #152, #371, #323, .T. ) ;
#322 = APPLICATION_PROTOCOL_DEFINITION ( 'draft international standard', 'automotive_design', 1998, #409 ) ;
#323 = CIRCLE ( 'NONE', #352, 4.999999999999999112 ) ;
#324 = AXIS2_PLACEMENT_3D ( 'NONE', #102, #359, #397 ) ;
#325 = CARTESIAN_POINT ( 'NONE',  ( 0.000000000000000000, 0.000000000000000000, 0.000000000000000000 ) ) ;
#326 = ORIENTED_EDGE ( 'NONE', *, *, #321, .T. ) ;
#327 = EDGE_CURVE ( 'NONE', #123, #384, #278, .T. ) ;
#328 = FACE_BOUND ( 'NONE', #174, .T. ) ;
#329 = DIRECTION ( 'NONE',  ( 0.000000000000000000, 0.000000000000000000, 1.000000000000000000 ) ) ;
#330 = EDGE_CURVE ( 'NONE', #304, #120, #98, .T. ) ;
#331 = CARTESIAN_POINT ( 'NONE',  ( 3.000000000000000000, 0.000000000000000000, -2.168404344971008868E-16 ) ) ;
#332 = ORIENTED_EDGE ( 'NONE', *, *, #193, .T. ) ;
#333 = AXIS2_PLACEMENT_3D ( 'NONE', #31, #417, #124 ) ;
#334 = ORIENTED_EDGE ( 'NONE', *, *, #327, .F. ) ;
#335 = CARTESIAN_POINT ( 'NONE',  ( 0.000000000000000000, 0.000000000000000000, 0.4999999999999995559 ) ) ;
#336 = ORIENTED_EDGE ( 'NONE', *, *, #287, .F. ) ;
#337 = DIRECTION ( 'NONE',  ( 1.000000000000000000, 0.000000000000000000, 0.000000000000000000 ) ) ;
#338 = CIRCLE ( 'NONE', #347, 0.5000000000000000000 ) ;
#339 = VERTEX_POINT ( 'NONE', #282 ) ;
#340 = EDGE_CURVE ( 'NONE', #81, #300, #239, .T. ) ;
#341 = DIRECTION ( 'NONE',  ( -1.000000000000000000, 1.224646799147353454E-16, 0.000000000000000000 ) ) ;
#342 = CARTESIAN_POINT ( 'NONE',  ( 5.500000000000000000, 6.735557395310442023E-16, 4.500000000000000888 ) ) ;
#343 = CARTESIAN_POINT ( 'NONE',  ( 0.000000000000000000, 0.000000000000000000, 0.4999999999999995559 ) ) ;
#344 = TOROIDAL_SURFACE ( 'NONE', #353, 4.999999999999999112, 0.5000000000000000000 ) ;
#345 = CARTESIAN_POINT ( 'NONE',  ( 0.000000000000000000, 0.000000000000000000, 0.000000000000000000 ) ) ;
#346 = ADVANCED_FACE ( 'NONE', ( #82 ), #388, .T. ) ;
#347 = AXIS2_PLACEMENT_3D ( 'NONE', #179, #383, #283 ) ;
#348 = DIRECTION ( 'NONE',  ( -1.000000000000000000, 1.224646799147351482E-16, 0.000000000000000000 ) ) ;
#349 = EDGE_LOOP ( 'NONE', ( #336, #212, #93, #298 ) ) ;
#350 = DIRECTION ( 'NONE',  ( 1.000000000000000000, 0.000000000000000000, 0.000000000000000000 ) ) ;
#351 = CARTESIAN_POINT ( 'NONE',  ( -4.999999999999999112, 6.429395695523603167E-16, 0.000000000000000000 ) ) ;
#352 = AXIS2_PLACEMENT_3D ( 'NONE', #88, #266, #173 ) ;
#353 = AXIS2_PLACEMENT_3D ( 'NONE', #335, #257, #170 ) ;
#354 = SURFACE_STYLE_FILL_AREA ( #94 ) ;
#355 = ORIENTED_EDGE ( 'NONE', *, *, #113, .F. ) ;
#356 = EDGE_CURVE ( 'NONE', #81, #371, #202, .T. ) ;
#357 = AXIS2_PLACEMENT_3D ( 'NONE', #345, #55, #180 ) ;
#358 = ORIENTED_EDGE ( 'NONE', *, *, #89, .T. ) ;
#359 = DIRECTION ( 'NONE',  ( -0.000000000000000000, -0.000000000000000000, -1.000000000000000000 ) ) ;
#360 = PLANE ( 'NONE',  #394 ) ;
#361 = AXIS2_PLACEMENT_3D ( 'NONE', #220, #286, #187 ) ;
#362 = FACE_OUTER_BOUND ( 'NONE', #136, .T. ) ;
#363 = ORIENTED_EDGE ( 'NONE', *, *, #89, .F. ) ;
#364 = DIRECTION ( 'NONE',  ( -0.000000000000000000, -0.000000000000000000, -1.000000000000000000 ) ) ;
#365 = ORIENTED_EDGE ( 'NONE', *, *, #163, .F. ) ;
#366 = FACE_OUTER_BOUND ( 'NONE', #218, .T. ) ;
#367 = AXIS2_PLACEMENT_3D ( 'NONE', #214, #419, #246 ) ;
#368 = VERTEX_POINT ( 'NONE', #351 ) ;
#369 = CARTESIAN_POINT ( 'NONE',  ( 4.999999999999999112, 0.000000000000000000, 4.500000000000000888 ) ) ;
#370 = ADVANCED_FACE ( 'NONE', ( #125 ), #58, .T. ) ;
#371 = VERTEX_POINT ( 'NONE', #311 ) ;
#372 = DIRECTION ( 'NONE',  ( 1.000000000000000000, 0.000000000000000000, 0.000000000000000000 ) ) ;
#373 = PRODUCT_DEFINITION_FORMATION_WITH_SPECIFIED_SOURCE ( 'ÈÎºÎ', '', #39, .NOT_KNOWN. ) ;
#374 = EDGE_LOOP ( 'NONE', ( #134, #169, #398, #42 ) ) ;
#375 = DIRECTION ( 'NONE',  ( 1.224646799147353207E-16, 1.000000000000000000, -0.000000000000000000 ) ) ;
#376 = CARTESIAN_POINT ( 'NONE',  ( -5.500000000000000000, 0.000000000000000000, 0.4999999999999995559 ) ) ;
#377 = CIRCLE ( 'NONE', #401, 3.000000000000000000 ) ;
#378 = EDGE_CURVE ( 'NONE', #368, #300, #100, .T. ) ;
#379 = FACE_OUTER_BOUND ( 'NONE', #270, .T. ) ;
#380 = DIRECTION ( 'NONE',  ( -1.000000000000000000, 0.000000000000000000, 0.000000000000000000 ) ) ;
#381 = DIRECTION ( 'NONE',  ( -1.000000000000000000, 1.224646799147351482E-16, 0.000000000000000000 ) ) ;
#382 = DIRECTION ( 'NONE',  ( 0.000000000000000000, 0.000000000000000000, 1.000000000000000000 ) ) ;
#383 = DIRECTION ( 'NONE',  ( 0.000000000000000000, -1.000000000000000000, 0.000000000000000000 ) ) ;
#384 = VERTEX_POINT ( 'NONE', #26 ) ;
#385 = VECTOR ( 'NONE', #364, 1000.000000000000000 ) ;
#386 = CARTESIAN_POINT ( 'NONE',  ( -2.500000000000000000, 0.000000000000000000, 4.500000000000000888 ) ) ;
#387 = EDGE_CURVE ( 'NONE', #339, #267, #338, .T. ) ;
#388 = TOROIDAL_SURFACE ( 'NONE', #367, 3.000000000000000000, 0.5000000000000000000 ) ;
#389 = ORIENTED_EDGE ( 'NONE', *, *, #172, .T. ) ;
#390 = DIRECTION ( 'NONE',  ( 0.000000000000000000, 0.000000000000000000, 1.000000000000000000 ) ) ;
#391 = CARTESIAN_POINT ( 'NONE',  ( 0.000000000000000000, 0.000000000000000000, 0.000000000000000000 ) ) ;
#392 = ADVANCED_FACE ( 'NONE', ( #305 ), #18, .T. ) ;
#393 = CARTESIAN_POINT ( 'NONE',  ( 0.000000000000000000, 0.000000000000000000, 4.500000000000000888 ) ) ;
#394 = AXIS2_PLACEMENT_3D ( 'NONE', #391, #164, #260 ) ;
#395 = CARTESIAN_POINT ( 'NONE',  ( -5.500000000000000000, 0.000000000000000000, 4.500000000000000888 ) ) ;
#396 = ORIENTED_EDGE ( 'NONE', *, *, #293, .F. ) ;
#397 = DIRECTION ( 'NONE',  ( -1.000000000000000000, 0.000000000000000000, 0.000000000000000000 ) ) ;
#398 = ORIENTED_EDGE ( 'NONE', *, *, #387, .T. ) ;
#399 = EDGE_CURVE ( 'NONE', #304, #126, #418, .T. ) ;
#400 = DIRECTION ( 'NONE',  ( -0.000000000000000000, -0.000000000000000000, -1.000000000000000000 ) ) ;
#401 = AXIS2_PLACEMENT_3D ( 'NONE', #121, #24, #406 ) ;
#402 = VERTEX_POINT ( 'NONE', #342 ) ;
#403 = CIRCLE ( 'NONE', #65, 5.500000000000000000 ) ;
#404 = DIRECTION ( 'NONE',  ( -1.000000000000000000, 0.000000000000000000, 0.000000000000000000 ) ) ;
#405 = ORIENTED_EDGE ( 'NONE', *, *, #327, .T. ) ;
#406 = DIRECTION ( 'NONE',  ( 1.000000000000000000, 0.000000000000000000, 0.000000000000000000 ) ) ;
#407 = CARTESIAN_POINT ( 'NONE',  ( 0.000000000000000000, 0.000000000000000000, 4.500000000000000888 ) ) ;
#408 = CARTESIAN_POINT ( 'NONE',  ( -3.000000000000000000, 3.673940397442059868E-16, 0.4999999999999995559 ) ) ;
#409 = APPLICATION_CONTEXT ( 'automotive_design' ) ;
#410 = PRODUCT_RELATED_PRODUCT_CATEGORY ( 'part', '', ( #39 ) ) ;
#411 = DIRECTION ( 'NONE',  ( -0.000000000000000000, -0.000000000000000000, -1.000000000000000000 ) ) ;
#412 = CIRCLE ( 'NONE', #252, 5.500000000000000000 ) ;
#413 = LINE ( 'NONE', #268, #133 ) ;
#414 = AXIS2_PLACEMENT_3D ( 'NONE', #263, #301, #45 ) ;
#415 = PRESENTATION_STYLE_ASSIGNMENT (( #280 ) ) ;
#416 = ORIENTED_EDGE ( 'NONE', *, *, #378, .T. ) ;
#417 = DIRECTION ( 'NONE',  ( 0.000000000000000000, -1.000000000000000000, 0.000000000000000000 ) ) ;
#418 = CIRCLE ( 'NONE', #238, 2.500000000000000000 ) ;
#419 = DIRECTION ( 'NONE',  ( 0.000000000000000000, 0.000000000000000000, 1.000000000000000000 ) ) ;
#420 = EDGE_CURVE ( 'NONE', #384, #304, #118, .T. ) ;
#421 = ORIENTED_EDGE ( 'NONE', *, *, #163, .T. ) ;
#422 = STYLED_ITEM ( 'NONE', ( #255 ), #32 ) ;
ENDSEC;
END-ISO-10303-21;
