ISO-10303-21;
HEADER;
FILE_DESCRIPTION (( 'STEP AP214' ),
    '1' );
FILE_NAME ('16»îÈû¸Ë.step',
    '2023-08-15T02:57:34',
    ( '' ),
    ( '' ),
    'SwSTEP 2.0',
    'SolidWorks 2022',
    '' );
FILE_SCHEMA (( 'AUTOMOTIVE_DESIGN' ));
ENDSEC;

DATA;
#1 = DIRECTION ( 'NONE',  ( 1.000000000000000000, 0.000000000000000000, 0.000000000000000000 ) ) ;
#2 = AXIS2_PLACEMENT_3D ( 'NONE', #379, #555, #898 ) ;
#3 = DIRECTION ( 'NONE',  ( 0.000000000000000000, 0.000000000000000000, -1.000000000000000000 ) ) ;
#4 = AXIS2_PLACEMENT_3D ( 'NONE', #192, #346, #3 ) ;
#5 = VERTEX_POINT ( 'NONE', #1051 ) ;
#6 = EDGE_CURVE ( 'NONE', #31, #444, #77, .T. ) ;
#7 = VERTEX_POINT ( 'NONE', #174 ) ;
#8 = AXIS2_PLACEMENT_3D ( 'NONE', #353, #599, #1112 ) ;
#9 = DIRECTION ( 'NONE',  ( 0.000000000000000000, 1.000000000000000000, 0.000000000000000000 ) ) ;
#10 = DIRECTION ( 'NONE',  ( 1.000000000000000000, 0.000000000000000000, 0.000000000000000000 ) ) ;
#11 = EDGE_CURVE ( 'NONE', #219, #838, #667, .T. ) ;
#12 = VERTEX_POINT ( 'NONE', #867 ) ;
#13 = CARTESIAN_POINT ( 'NONE',  ( -28.48153195597501508, -2.886751345948130876, -5.000000000000000000 ) ) ;
#14 = ADVANCED_FACE ( 'NONE', ( #881 ), #240, .T. ) ;
#15 = CYLINDRICAL_SURFACE ( 'NONE', #222, 2.999999999999997335 ) ;
#16 = LINE ( 'NONE', #962, #389 ) ;
#17 = B_SPLINE_CURVE_WITH_KNOTS ( 'NONE', 3,
 ( #82, #1042, #602, #164 ),
 .UNSPECIFIED., .F., .F.,
 ( 4, 4 ),
 ( 0.002886982286055799450, 0.005773733632003929736 ),
 .UNSPECIFIED. ) ;
#18 = EDGE_LOOP ( 'NONE', ( #522, #487 ) ) ;
#19 = ORIENTED_EDGE ( 'NONE', *, *, #91, .F. ) ;
#20 = CARTESIAN_POINT ( 'NONE',  ( -33.20000000000000284, 0.9639288072917602257, -4.999999999999998224 ) ) ;
#21 = COLOUR_RGB ( '',1.000000000000000000, 1.000000000000000000, 1.000000000000000000 ) ;
#22 = VECTOR ( 'NONE', #202, 1000.000000000000000 ) ;
#23 = VERTEX_POINT ( 'NONE', #925 ) ;
#24 = SURFACE_STYLE_FILL_AREA ( #788 ) ;
#25 = EDGE_CURVE ( 'NONE', #620, #670, #732, .T. ) ;
#26 = PRESENTATION_LAYER_ASSIGNMENT (  '', '', ( #654 ) ) ;
#27 = VECTOR ( 'NONE', #1092, 1000.000000000000000 ) ;
#28 = ADVANCED_FACE ( 'NONE', ( #525 ), #442, .F. ) ;
#29 = FACE_OUTER_BOUND ( 'NONE', #108, .T. ) ;
#30 = CARTESIAN_POINT ( 'NONE',  ( -33.20000000000000284, -2.533905558963067781E-15, 0.000000000000000000 ) ) ;
#31 = VERTEX_POINT ( 'NONE', #189 ) ;
#32 = DIRECTION ( 'NONE',  ( 0.000000000000000000, 1.000000000000000000, 0.000000000000000000 ) ) ;
#33 = VERTEX_POINT ( 'NONE', #613 ) ;
#34 = DIRECTION ( 'NONE',  ( 0.000000000000000000, 0.000000000000000000, -1.000000000000000000 ) ) ;
#35 = DIRECTION ( 'NONE',  ( 1.000000000000000000, 0.000000000000000000, 0.000000000000000000 ) ) ;
#36 = PLANE ( 'NONE',  #445 ) ;
#37 = VECTOR ( 'NONE', #261, 1000.000000000000000 ) ;
#38 = EDGE_CURVE ( 'NONE', #403, #5, #16, .T. ) ;
#39 = CARTESIAN_POINT ( 'NONE',  ( -33.20000000000000284, 4.330127018922195425, 2.500000000000002220 ) ) ;
#40 =( NAMED_UNIT ( * ) PLANE_ANGLE_UNIT ( ) SI_UNIT ( $, .RADIAN. ) );
#41 = DIRECTION ( 'NONE',  ( 0.000000000000000000, 0.000000000000000000, -1.000000000000000000 ) ) ;
#42 = EDGE_CURVE ( 'NONE', #708, #663, #350, .T. ) ;
#43 = CARTESIAN_POINT ( 'NONE',  ( -37.43999999999999062, 3.673940397442056417E-16, -2.999999999999997335 ) ) ;
#44 = VERTEX_POINT ( 'NONE', #323 ) ;
#45 = DIRECTION ( 'NONE',  ( 0.000000000000000000, 0.000000000000000000, 1.000000000000000000 ) ) ;
#46 = LINE ( 'NONE', #1084, #744 ) ;
#47 = EDGE_CURVE ( 'NONE', #444, #964, #241, .T. ) ;
#48 = ORIENTED_EDGE ( 'NONE', *, *, #435, .F. ) ;
#49 = FACE_OUTER_BOUND ( 'NONE', #603, .T. ) ;
#50 = ORIENTED_EDGE ( 'NONE', *, *, #1103, .T. ) ;
#51 = CARTESIAN_POINT ( 'NONE',  ( -28.19999999999999574, 4.330127018922195425, 2.500000000000001332 ) ) ;
#52 = CARTESIAN_POINT ( 'NONE',  ( -22.00000000000000000, 0.000000000000000000, 0.000000000000000000 ) ) ;
#53 = ORIENTED_EDGE ( 'NONE', *, *, #812, .F. ) ;
#54 = CIRCLE ( 'NONE', #78, 2.999999999999997335 ) ;
#55 = DIRECTION ( 'NONE',  ( 1.000000000000000000, 3.339945815856412403E-17, -0.000000000000000000 ) ) ;
#56 = ORIENTED_EDGE ( 'NONE', *, *, #493, .T. ) ;
#57 = AXIS2_PLACEMENT_3D ( 'NONE', #928, #587, #41 ) ;
#58 = APPLICATION_PROTOCOL_DEFINITION ( 'draft international standard', 'automotive_design', 1998, #141 ) ;
#59 = ADVANCED_FACE ( 'NONE', ( #122 ), #131, .F. ) ;
#60 = DIRECTION ( 'NONE',  ( -1.000000000000000000, -0.000000000000000000, -0.000000000000000000 ) ) ;
#61 = ADVANCED_FACE ( 'NONE', ( #216 ), #169, .T. ) ;
#62 = DIRECTION ( 'NONE',  ( -1.000000000000000000, -3.339945815856412403E-17, 0.000000000000000000 ) ) ;
#63 = AXIS2_PLACEMENT_3D ( 'NONE', #1053, #124, #277 ) ;
#64 = ORIENTED_EDGE ( 'NONE', *, *, #99, .T. ) ;
#65 = LINE ( 'NONE', #416, #282 ) ;
#66 = ORIENTED_EDGE ( 'NONE', *, *, #694, .T. ) ;
#67 = DIRECTION ( 'NONE',  ( 1.000000000000000000, 0.000000000000000000, 0.000000000000000000 ) ) ;
#68 = CARTESIAN_POINT ( 'NONE',  ( -33.20000000000000284, -2.533905558963067781E-15, 0.000000000000000000 ) ) ;
#69 = CARTESIAN_POINT ( 'NONE',  ( -28.19999999999999574, 0.9639288072920357830, 4.999999999999999112 ) ) ;
#70 = DIRECTION ( 'NONE',  ( 0.3420201433256692680, 0.9396926207859083169, 0.000000000000000000 ) ) ;
#71 = EDGE_LOOP ( 'NONE', ( #716, #723, #294 ) ) ;
#72 = CARTESIAN_POINT ( 'NONE',  ( -33.20000000000000284, 0.000000000000000000, 0.000000000000000000 ) ) ;
#73 = B_SPLINE_CURVE_WITH_KNOTS ( 'NONE', 3,
 ( #404, #236, #920, #481 ),
 .UNSPECIFIED., .F., .F.,
 ( 4, 4 ),
 ( 0.002886982286055805522, 0.005773733632003930603 ),
 .UNSPECIFIED. ) ;
#74 = CARTESIAN_POINT ( 'NONE',  ( -30.69999999999999574, -2.450406913566657561E-15, 0.000000000000000000 ) ) ;
#75 = AXIS2_PLACEMENT_3D ( 'NONE', #780, #969, #455 ) ;
#76 = ORIENTED_EDGE ( 'NONE', *, *, #303, .F. ) ;
#77 = B_SPLINE_CURVE_WITH_KNOTS ( 'NONE', 3,
 ( #607, #273, #702, #619 ),
 .UNSPECIFIED., .F., .F.,
 ( 4, 4 ),
 ( 0.002886982286055802052, 0.005773733632003926267 ),
 .UNSPECIFIED. ) ;
#78 = AXIS2_PLACEMENT_3D ( 'NONE', #606, #430, #181 ) ;
#79 = CARTESIAN_POINT ( 'NONE',  ( -28.19999999999999574, -2.366908268170247340E-15, 0.000000000000000000 ) ) ;
#80 = DIRECTION ( 'NONE',  ( 0.000000000000000000, 0.000000000000000000, -1.000000000000000000 ) ) ;
#81 = CIRCLE ( 'NONE', #878, 2.999999999999997335 ) ;
#82 = CARTESIAN_POINT ( 'NONE',  ( -33.20000000000000284, 4.330127018922195425, -2.500000000000001776 ) ) ;
#83 = VERTEX_POINT ( 'NONE', #562 ) ;
#84 = CARTESIAN_POINT ( 'NONE',  ( -33.20000000000000284, 0.000000000000000000, 2.999999999999997335 ) ) ;
#85 = FILL_AREA_STYLE ('',( #518 ) ) ;
#86 = CARTESIAN_POINT ( 'NONE',  ( -33.09358330463381748, 3.367876570272819503, 4.166666666666667851 ) ) ;
#87 = CARTESIAN_POINT ( 'NONE',  ( -28.19999999999999929, -5.773502691896257311, 1.066291330662765803E-17 ) ) ;
#88 = ORIENTED_EDGE ( 'NONE', *, *, #568, .F. ) ;
#89 = DIRECTION ( 'NONE',  ( 1.000000000000000000, 3.339945815856412403E-17, -0.000000000000000000 ) ) ;
#90 = PLANE ( 'NONE',  #833 ) ;
#91 = EDGE_CURVE ( 'NONE', #331, #890, #844, .T. ) ;
#92 = DIRECTION ( 'NONE',  ( 0.000000000000000000, -1.000000000000000000, 0.000000000000000000 ) ) ;
#93 = DIRECTION ( 'NONE',  ( 0.000000000000000000, 0.000000000000000000, -1.000000000000000000 ) ) ;
#94 = B_SPLINE_CURVE_WITH_KNOTS ( 'NONE', 3,
 ( #198, #622, #477, #215 ),
 .UNSPECIFIED., .F., .F.,
 ( 4, 4 ),
 ( 2.309401076754191683E-07, 0.002886982286055802486 ),
 .UNSPECIFIED. ) ;
#95 = EDGE_LOOP ( 'NONE', ( #313, #799 ) ) ;
#96 = DIRECTION ( 'NONE',  ( 0.000000000000000000, 1.000000000000000000, 0.000000000000000000 ) ) ;
#97 = CARTESIAN_POINT ( 'NONE',  ( -28.30693031146439864, 1.927323194563004494, 5.000000000000000000 ) ) ;
#98 = CONICAL_SURFACE ( 'NONE', #893, 11.86869354863655879, 1.221730476396031051 ) ;
#99 = EDGE_CURVE ( 'NONE', #31, #219, #532, .T. ) ;
#100 = ORIENTED_EDGE ( 'NONE', *, *, #6, .T. ) ;
#101 = EDGE_CURVE ( 'NONE', #83, #331, #885, .T. ) ;
#102 = ORIENTED_EDGE ( 'NONE', *, *, #211, .F. ) ;
#103 = CIRCLE ( 'NONE', #480, 2.999999999999997335 ) ;
#104 = AXIS2_PLACEMENT_3D ( 'NONE', #87, #664, #438 ) ;
#105 = CYLINDRICAL_SURFACE ( 'NONE', #1040, 2.999999999999997335 ) ;
#106 = DIRECTION ( 'NONE',  ( -1.000000000000000000, -3.339945815856412403E-17, 0.000000000000000000 ) ) ;
#107 =( GEOMETRIC_REPRESENTATION_CONTEXT ( 3 ) GLOBAL_UNCERTAINTY_ASSIGNED_CONTEXT ( ( #1009 ) ) GLOBAL_UNIT_ASSIGNED_CONTEXT ( ( #1047, #357, #963 ) ) REPRESENTATION_CONTEXT ( 'NONE', 'WORKASPACE' ) );
#108 = EDGE_LOOP ( 'NONE', ( #170, #825, #751 ) ) ;
#109 = CARTESIAN_POINT ( 'NONE',  ( 75.00000000000001421, 0.000000000000000000, 0.000000000000000000 ) ) ;
#110 = DIRECTION ( 'NONE',  ( 0.000000000000000000, 1.000000000000000000, 0.000000000000000000 ) ) ;
#111 = FILL_AREA_STYLE ('',( #559 ) ) ;
#112 = ORIENTED_EDGE ( 'NONE', *, *, #257, .T. ) ;
#113 = CARTESIAN_POINT ( 'NONE',  ( -33.09306968853559283, 1.927323194563004050, 5.000000000000000000 ) ) ;
#114 = ORIENTED_EDGE ( 'NONE', *, *, #335, .T. ) ;
#115 = CARTESIAN_POINT ( 'NONE',  ( -28.19999999999999574, -3.118065567538826362E-15, 4.999999999999999112 ) ) ;
#116 = COLOUR_RGB ( '',1.000000000000000000, 1.000000000000000000, 1.000000000000000000 ) ;
#117 = EDGE_LOOP ( 'NONE', ( #229, #836 ) ) ;
#118 = CARTESIAN_POINT ( 'NONE',  ( -33.20000000000000284, -2.533905558963067781E-15, 0.000000000000000000 ) ) ;
#119 = AXIS2_PLACEMENT_3D ( 'NONE', #976, #635, #557 ) ;
#120 = CARTESIAN_POINT ( 'NONE',  ( -16.00000000000000000, 8.673617379884035472E-16, 4.336808689942017736E-16 ) ) ;
#121 = ADVANCED_BREP_SHAPE_REPRESENTATION ( '16»îÈû¸Ë', ( #128, #787 ), #107 ) ;
#122 = FACE_OUTER_BOUND ( 'NONE', #515, .T. ) ;
#123 = ORIENTED_EDGE ( 'NONE', *, *, #134, .T. ) ;
#124 = DIRECTION ( 'NONE',  ( 0.000000000000000000, -2.253471898105739040E-16, 1.000000000000000000 ) ) ;
#125 = CARTESIAN_POINT ( 'NONE',  ( -28.48153195597500087, -2.886751345948140646, 4.999999999999999112 ) ) ;
#126 = PRESENTATION_STYLE_ASSIGNMENT (( #904 ) ) ;
#127 = ADVANCED_FACE ( 'NONE', ( #624 ), #474, .T. ) ;
#128 = MANIFOLD_SOLID_BREP ( 'µ¹½Ç1', #831 ) ;
#129 = CARTESIAN_POINT ( 'NONE',  ( -22.00000000000000000, 3.673940397442056417E-16, -2.999999999999997335 ) ) ;
#130 = CARTESIAN_POINT ( 'NONE',  ( -22.00000000000000000, 1.658312395177696352, -2.499999999999999556 ) ) ;
#131 = PLANE ( 'NONE',  #221 ) ;
#132 = EDGE_CURVE ( 'NONE', #417, #33, #753, .T. ) ;
#133 = AXIS2_PLACEMENT_3D ( 'NONE', #402, #736, #1089 ) ;
#134 = EDGE_CURVE ( 'NONE', #316, #620, #813, .T. ) ;
#135 = DIRECTION ( 'NONE',  ( 0.000000000000000000, 1.000000000000000000, 0.000000000000000000 ) ) ;
#136 = ORIENTED_EDGE ( 'NONE', *, *, #332, .F. ) ;
#137 = VECTOR ( 'NONE', #424, 1000.000000000000000 ) ;
#138 = CARTESIAN_POINT ( 'NONE',  ( -28.19999999999999574, -2.366908268170247340E-15, 0.000000000000000000 ) ) ;
#139 = AXIS2_PLACEMENT_3D ( 'NONE', #1011, #232, #837 ) ;
#140 = CARTESIAN_POINT ( 'NONE',  ( -32.91846804402499060, -2.886751345948141534, -4.999999999999999112 ) ) ;
#141 = APPLICATION_CONTEXT ( 'automotive_design' ) ;
#142 = CARTESIAN_POINT ( 'NONE',  ( -28.19999999999999929, -2.886751345948130432, -4.999999999999999112 ) ) ;
#143 = EDGE_LOOP ( 'NONE', ( #819, #542, #1038, #452 ) ) ;
#144 =( LENGTH_UNIT ( ) NAMED_UNIT ( * ) SI_UNIT ( .MILLI., .METRE. ) );
#145 = DIRECTION ( 'NONE',  ( 0.000000000000000000, -1.000000000000000000, 0.000000000000000000 ) ) ;
#146 = ORIENTED_EDGE ( 'NONE', *, *, #930, .F. ) ;
#147 = EDGE_CURVE ( 'NONE', #467, #1077, #371, .T. ) ;
#148 = PRODUCT_DEFINITION_CONTEXT ( 'detailed design', #870, 'design' ) ;
#149 = LINE ( 'NONE', #750, #27 ) ;
#150 = ORIENTED_EDGE ( 'NONE', *, *, #973, .F. ) ;
#151 = EDGE_CURVE ( 'NONE', #400, #862, #391, .T. ) ;
#152 = B_SPLINE_CURVE_WITH_KNOTS ( 'NONE', 3,
 ( #948, #612, #173, #777, #256, #1031 ),
 .UNSPECIFIED., .F., .F.,
 ( 4, 2, 4 ),
 ( 0.01547383287954935162, 0.01692395365886007960, 0.01837407443817080932 ),
 .UNSPECIFIED. ) ;
#153 = PRESENTATION_LAYER_ASSIGNMENT (  '', '', ( #634 ) ) ;
#154 = DIRECTION ( 'NONE',  ( 1.000000000000000000, 0.000000000000000000, 0.000000000000000000 ) ) ;
#155 = CIRCLE ( 'NONE', #781, 4.999999999999997335 ) ;
#156 = DIRECTION ( 'NONE',  ( 0.000000000000000000, 1.000000000000000000, 1.126735949052869520E-16 ) ) ;
#157 = ORIENTED_EDGE ( 'NONE', *, *, #299, .T. ) ;
#158 = FACE_OUTER_BOUND ( 'NONE', #578, .T. ) ;
#159 = DIRECTION ( 'NONE',  ( 0.000000000000000000, -0.4999999999999998335, -0.8660254037844387076 ) ) ;
#160 = CARTESIAN_POINT ( 'NONE',  ( -33.20000000000000284, 4.330127018922195425, -2.500000000000001776 ) ) ;
#161 = ORIENTED_EDGE ( 'NONE', *, *, #610, .T. ) ;
#162 = DIRECTION ( 'NONE',  ( 1.000000000000000000, 0.000000000000000000, 0.000000000000000000 ) ) ;
#163 =( NAMED_UNIT ( * ) SI_UNIT ( $, .STERADIAN. ) SOLID_ANGLE_UNIT ( ) );
#164 = CARTESIAN_POINT ( 'NONE',  ( -32.91846804402497639, 5.773502691896259087, 7.202968530505228178E-16 ) ) ;
#165 = ORIENTED_EDGE ( 'NONE', *, *, #101, .F. ) ;
#166 = CARTESIAN_POINT ( 'NONE',  ( -28.48153195597501153, -5.773502691896256422, -5.730250375531071721E-17 ) ) ;
#167 = SURFACE_STYLE_FILL_AREA ( #85 ) ;
#168 = CARTESIAN_POINT ( 'NONE',  ( -33.20000000000000284, -3.285062858331646804E-15, 4.999999999999999112 ) ) ;
#169 = CONICAL_SURFACE ( 'NONE', #495, 4.999999999999997335, 1.221730476396030163 ) ;
#170 = ORIENTED_EDGE ( 'NONE', *, *, #1102, .T. ) ;
#171 = CONICAL_SURFACE ( 'NONE', #929, 2.999999999999997335, 0.7853981633974498333 ) ;
#172 = CARTESIAN_POINT ( 'NONE',  ( -33.20000000000000284, -8.673617379884035472E-16, -4.999999999999998224 ) ) ;
#173 = CARTESIAN_POINT ( 'NONE',  ( -33.17429037585494456, -0.9620188787175952827, 4.999999999999999112 ) ) ;
#174 = CARTESIAN_POINT ( 'NONE',  ( -33.20000000000000284, -4.330127018922194537, 2.499999999999998224 ) ) ;
#175 = AXIS2_PLACEMENT_3D ( 'NONE', #1060, #627, #204 ) ;
#176 = AXIS2_PLACEMENT_3D ( 'NONE', #499, #55, #409 ) ;
#177 = CARTESIAN_POINT ( 'NONE',  ( -33.20000000000000284, 4.999999999999994671, 0.000000000000000000 ) ) ;
#178 = ORIENTED_EDGE ( 'NONE', *, *, #766, .T. ) ;
#179 = B_SPLINE_CURVE_WITH_KNOTS ( 'NONE', 3,
 ( #1079, #628, #1066, #891, #983, #115 ),
 .UNSPECIFIED., .F., .F.,
 ( 4, 2, 4 ),
 ( 0.005007494471404155649, 0.006462840675578866365, 0.007918186879753576213 ),
 .UNSPECIFIED. ) ;
#180 = CARTESIAN_POINT ( 'NONE',  ( -32.91846804402497639, -5.773502691896257311, 5.281701249156952622E-16 ) ) ;
#181 = DIRECTION ( 'NONE',  ( 0.000000000000000000, 0.000000000000000000, -1.000000000000000000 ) ) ;
#182 = DIRECTION ( 'NONE',  ( 0.000000000000000000, 1.000000000000000000, 0.000000000000000000 ) ) ;
#183 = FACE_OUTER_BOUND ( 'NONE', #941, .T. ) ;
#184 = ORIENTED_EDGE ( 'NONE', *, *, #347, .T. ) ;
#185 = ADVANCED_FACE ( 'NONE', ( #328 ), #494, .F. ) ;
#186 = DIRECTION ( 'NONE',  ( 1.000000000000000000, -0.000000000000000000, -0.000000000000000000 ) ) ;
#187 = ADVANCED_FACE ( 'NONE', ( #574 ), #98, .T. ) ;
#188 = SURFACE_SIDE_STYLE ('',( #167 ) ) ;
#189 = CARTESIAN_POINT ( 'NONE',  ( -28.19999999999999574, -4.330127018922194537, 2.499999999999997780 ) ) ;
#190 = ORIENTED_EDGE ( 'NONE', *, *, #332, .T. ) ;
#191 = AXIS2_PLACEMENT_3D ( 'NONE', #504, #617, #872 ) ;
#192 = CARTESIAN_POINT ( 'NONE',  ( -38.00000000000000000, 0.000000000000000000, 0.000000000000000000 ) ) ;
#193 = ORIENTED_EDGE ( 'NONE', *, *, #989, .T. ) ;
#194 = EDGE_LOOP ( 'NONE', ( #326, #339, #874 ) ) ;
#195 = AXIS2_PLACEMENT_3D ( 'NONE', #109, #293, #991 ) ;
#196 = EDGE_CURVE ( 'NONE', #1077, #692, #1036, .T. ) ;
#197 = CYLINDRICAL_SURFACE ( 'NONE', #971, 2.999999999999997335 ) ;
#198 = CARTESIAN_POINT ( 'NONE',  ( -28.48153195597501508, 2.886751345948131320, 5.000000000000000000 ) ) ;
#199 = CARTESIAN_POINT ( 'NONE',  ( -28.19999999999999574, 3.849001794597506798, -3.333333333333333037 ) ) ;
#200 = ORIENTED_EDGE ( 'NONE', *, *, #641, .F. ) ;
#201 = ORIENTED_EDGE ( 'NONE', *, *, #548, .F. ) ;
#202 = DIRECTION ( 'NONE',  ( -1.000000000000000000, -0.000000000000000000, -0.000000000000000000 ) ) ;
#203 = ORIENTED_EDGE ( 'NONE', *, *, #345, .T. ) ;
#204 = DIRECTION ( 'NONE',  ( 0.000000000000000000, 0.000000000000000000, -1.000000000000000000 ) ) ;
#205 = CARTESIAN_POINT ( 'NONE',  ( -22.00000000000000000, 8.673617379884035472E-16, 4.336808689942017736E-16 ) ) ;
#206 = CIRCLE ( 'NONE', #636, 2.999999999999997335 ) ;
#207 = CARTESIAN_POINT ( 'NONE',  ( -28.30641669536617755, 3.367876570272819059, -4.166666666666666075 ) ) ;
#208 = ORIENTED_EDGE ( 'NONE', *, *, #950, .T. ) ;
#209 = PRODUCT_DEFINITION_SHAPE ( 'NONE', 'NONE',  #381 ) ;
#210 = FACE_OUTER_BOUND ( 'NONE', #18, .T. ) ;
#211 = EDGE_CURVE ( 'NONE', #1020, #348, #220, .T. ) ;
#212 = CARTESIAN_POINT ( 'NONE',  ( -22.00000000000000000, 0.000000000000000000, 2.999999999999997335 ) ) ;
#213 = CARTESIAN_POINT ( 'NONE',  ( -32.91846804402497639, 5.773502691896259087, 7.202968530505228178E-16 ) ) ;
#214 = EDGE_CURVE ( 'NONE', #737, #44, #1001, .T. ) ;
#215 = CARTESIAN_POINT ( 'NONE',  ( -28.19999999999999574, 4.330127018922195425, 2.500000000000001332 ) ) ;
#216 = FACE_OUTER_BOUND ( 'NONE', #471, .T. ) ;
#217 = EDGE_CURVE ( 'NONE', #785, #838, #728, .T. ) ;
#218 = PLANE ( 'NONE',  #431 ) ;
#219 = VERTEX_POINT ( 'NONE', #690 ) ;
#220 = B_SPLINE_CURVE_WITH_KNOTS ( 'NONE', 3,
 ( #840, #69, #97, #441 ),
 .UNSPECIFIED., .F., .F.,
 ( 4, 4 ),
 ( 0.007918186879753576213, 0.01083602852486146781 ),
 .UNSPECIFIED. ) ;
#221 = AXIS2_PLACEMENT_3D ( 'NONE', #643, #1073, #979 ) ;
#222 = AXIS2_PLACEMENT_3D ( 'NONE', #238, #60, #1005 ) ;
#223 = CARTESIAN_POINT ( 'NONE',  ( -28.19999999999999929, 5.773502691896259087, 9.121829819089984448E-16 ) ) ;
#224 = EDGE_LOOP ( 'NONE', ( #366, #755, #492 ) ) ;
#225 = AXIS2_PLACEMENT_3D ( 'NONE', #516, #672, #858 ) ;
#226 = CARTESIAN_POINT ( 'NONE',  ( -22.00000000000000000, 0.000000000000000000, 0.000000000000000000 ) ) ;
#227 = VECTOR ( 'NONE', #727, 1000.000000000000000 ) ;
#228 = CARTESIAN_POINT ( 'NONE',  ( -30.69999999999999574, -2.450406913566657561E-15, 0.000000000000000000 ) ) ;
#229 = ORIENTED_EDGE ( 'NONE', *, *, #299, .F. ) ;
#230 = B_SPLINE_CURVE_WITH_KNOTS ( 'NONE', 3,
 ( #510, #608, #426, #521, #957, #952 ),
 .UNSPECIFIED., .F., .F.,
 ( 4, 2, 4 ),
 ( 0.01547383287945958835, 0.01692395365877007174, 0.01837407443808055860 ),
 .UNSPECIFIED. ) ;
#231 = EDGE_CURVE ( 'NONE', #348, #670, #354, .T. ) ;
#232 = DIRECTION ( 'NONE',  ( 1.000000000000000000, 3.339945815856412403E-17, -0.000000000000000000 ) ) ;
#233 = ORIENTED_EDGE ( 'NONE', *, *, #414, .T. ) ;
#234 = CARTESIAN_POINT ( 'NONE',  ( -33.20000000000000284, -2.533905558963067781E-15, 0.000000000000000000 ) ) ;
#235 = SURFACE_SIDE_STYLE ('',( #745 ) ) ;
#236 = CARTESIAN_POINT ( 'NONE',  ( -28.19999999999999574, -4.811252243246881832, -1.666666666666664964 ) ) ;
#237 = ORIENTED_EDGE ( 'NONE', *, *, #268, .T. ) ;
#238 = CARTESIAN_POINT ( 'NONE',  ( -22.00000000000000000, 0.000000000000000000, 0.000000000000000000 ) ) ;
#239 = FILL_AREA_STYLE_COLOUR ( '', #116 ) ;
#240 = CONICAL_SURFACE ( 'NONE', #312, 11.86869354863655879, 1.221730476396031051 ) ;
#241 = LINE ( 'NONE', #304, #704 ) ;
#242 = AXIS2_PLACEMENT_3D ( 'NONE', #436, #10, #80 ) ;
#243 = DIRECTION ( 'NONE',  ( 0.000000000000000000, 0.000000000000000000, -1.000000000000000000 ) ) ;
#244 = ORIENTED_EDGE ( 'NONE', *, *, #414, .F. ) ;
#245 = AXIS2_PLACEMENT_3D ( 'NONE', #666, #246, #1013 ) ;
#246 = DIRECTION ( 'NONE',  ( 1.000000000000000000, 0.000000000000000000, 0.000000000000000000 ) ) ;
#247 = EDGE_CURVE ( 'NONE', #862, #400, #314, .T. ) ;
#248 = CARTESIAN_POINT ( 'NONE',  ( -33.07703284009079425, -1.925295277955428874, -4.999999999999999112 ) ) ;
#249 = CIRCLE ( 'NONE', #1114, 2.999999999999997335 ) ;
#250 = CONICAL_SURFACE ( 'NONE', #880, 11.86869354863655879, 1.221730476396031051 ) ;
#251 = CARTESIAN_POINT ( 'NONE',  ( -22.00000000000000000, 0.000000000000000000, 2.999999999999997335 ) ) ;
#252 = ORIENTED_EDGE ( 'NONE', *, *, #684, .T. ) ;
#253 = CARTESIAN_POINT ( 'NONE',  ( -33.20000000000000284, 4.330127018922195425, 2.500000000000002220 ) ) ;
#254 = STYLED_ITEM ( 'NONE', ( #816 ), #121 ) ;
#255 = EDGE_CURVE ( 'NONE', #843, #679, #552, .T. ) ;
#256 = CARTESIAN_POINT ( 'NONE',  ( -33.00549319544275306, -2.408552069058190970, 4.999999999999999112 ) ) ;
#257 = EDGE_CURVE ( 'NONE', #219, #713, #272, .T. ) ;
#258 = PLANE ( 'NONE',  #625 ) ;
#259 = VERTEX_POINT ( 'NONE', #600 ) ;
#260 = CARTESIAN_POINT ( 'NONE',  ( -28.30693031146454786, 1.927323194563835607, -4.999999999999997335 ) ) ;
#261 = DIRECTION ( 'NONE',  ( -0.3420201433256683798, -0.9396926207859085389, 0.000000000000000000 ) ) ;
#262 = LINE ( 'NONE', #1032, #1115 ) ;
#263 = ORIENTED_EDGE ( 'NONE', *, *, #661, .F. ) ;
#264 = DIRECTION ( 'NONE',  ( 1.000000000000000000, 3.339945815856412403E-17, -0.000000000000000000 ) ) ;
#265 = ORIENTED_EDGE ( 'NONE', *, *, #132, .T. ) ;
#266 = CONICAL_SURFACE ( 'NONE', #671, 4.999999999999997335, 1.221730476396030163 ) ;
#267 = B_SPLINE_CURVE_WITH_KNOTS ( 'NONE', 3,
 ( #851, #260, #271, #359 ),
 .UNSPECIFIED., .F., .F.,
 ( 4, 4 ),
 ( 0.01256646775343760007, 0.01547383287945958835 ),
 .UNSPECIFIED. ) ;
#268 = EDGE_CURVE ( 'NONE', #1110, #964, #152, .T. ) ;
#269 = DIRECTION ( 'NONE',  ( 1.000000000000000000, 0.000000000000000000, 0.000000000000000000 ) ) ;
#270 = VERTEX_POINT ( 'NONE', #960 ) ;
#271 = CARTESIAN_POINT ( 'NONE',  ( -28.19999999999999574, 0.9639288072917591155, -4.999999999999998224 ) ) ;
#272 = LINE ( 'NONE', #448, #37 ) ;
#273 = CARTESIAN_POINT ( 'NONE',  ( -28.19999999999999574, -3.849001794597507242, 3.333333333333329485 ) ) ;
#274 = ORIENTED_EDGE ( 'NONE', *, *, #586, .F. ) ;
#275 = DIRECTION ( 'NONE',  ( 1.000000000000000000, 3.339945815856412403E-17, -0.000000000000000000 ) ) ;
#276 = EDGE_LOOP ( 'NONE', ( #977, #358, #572 ) ) ;
#277 = DIRECTION ( 'NONE',  ( 0.000000000000000000, -1.000000000000000000, -2.253471898105739040E-16 ) ) ;
#278 =( GEOMETRIC_REPRESENTATION_CONTEXT ( 3 ) GLOBAL_UNCERTAINTY_ASSIGNED_CONTEXT ( ( #283 ) ) GLOBAL_UNIT_ASSIGNED_CONTEXT ( ( #770, #784, #529 ) ) REPRESENTATION_CONTEXT ( 'NONE', 'WORKASPACE' ) );
#279 = LINE ( 'NONE', #715, #22 ) ;
#280 = CARTESIAN_POINT ( 'NONE',  ( -28.19999999999999929, 4.330127018922194537, -2.500000000000000888 ) ) ;
#281 = ORIENTED_EDGE ( 'NONE', *, *, #1021, .T. ) ;
#282 = VECTOR ( 'NONE', #300, 1000.000000000000000 ) ;
#283 = UNCERTAINTY_MEASURE_WITH_UNIT (LENGTH_MEASURE( 1.000000000000000082E-05 ), #770, 'distance_accuracy_value', 'NONE');
#284 = CARTESIAN_POINT ( 'NONE',  ( -33.20000000000000284, 0.9639288072920363382, 4.999999999999999112 ) ) ;
#285 = ORIENTED_EDGE ( 'NONE', *, *, #217, .T. ) ;
#286 = FACE_OUTER_BOUND ( 'NONE', #475, .T. ) ;
#287 = ORIENTED_EDGE ( 'NONE', *, *, #973, .T. ) ;
#288 = DIRECTION ( 'NONE',  ( 0.000000000000000000, 0.000000000000000000, -1.000000000000000000 ) ) ;
#289 = EDGE_LOOP ( 'NONE', ( #265, #462, #1122 ) ) ;
#290 = DIRECTION ( 'NONE',  ( 0.000000000000000000, 0.000000000000000000, -1.000000000000000000 ) ) ;
#291 = ORIENTED_EDGE ( 'NONE', *, *, #586, .T. ) ;
#292 = ADVANCED_FACE ( 'NONE', ( #360 ), #105, .T. ) ;
#293 = DIRECTION ( 'NONE',  ( 1.000000000000000000, 0.000000000000000000, 0.000000000000000000 ) ) ;
#294 = ORIENTED_EDGE ( 'NONE', *, *, #147, .F. ) ;
#295 = CARTESIAN_POINT ( 'NONE',  ( -33.20000000000000284, -2.533905558963067781E-15, 0.000000000000000000 ) ) ;
#296 = PRESENTATION_LAYER_ASSIGNMENT (  '', '', ( #796 ) ) ;
#297 = CARTESIAN_POINT ( 'NONE',  ( -28.48153195597501508, 5.773502691896259087, 4.772897990306385962E-16 ) ) ;
#298 = EDGE_CURVE ( 'NONE', #44, #737, #566, .T. ) ;
#299 = EDGE_CURVE ( 'NONE', #797, #804, #54, .T. ) ;
#300 = DIRECTION ( 'NONE',  ( -1.000000000000000000, -0.000000000000000000, -0.000000000000000000 ) ) ;
#301 = CONICAL_SURFACE ( 'NONE', #8, 11.86869354863655879, 1.221730476396031051 ) ;
#302 = FACE_OUTER_BOUND ( 'NONE', #927, .T. ) ;
#303 = EDGE_CURVE ( 'NONE', #23, #544, #206, .T. ) ;
#304 = CARTESIAN_POINT ( 'NONE',  ( -28.19999999999999929, -2.886751345948129543, 4.999999999999999112 ) ) ;
#305 = DIRECTION ( 'NONE',  ( -1.000000000000000000, -0.000000000000000000, -0.000000000000000000 ) ) ;
#306 = ORIENTED_EDGE ( 'NONE', *, *, #986, .T. ) ;
#307 =( NAMED_UNIT ( * ) PLANE_ANGLE_UNIT ( ) SI_UNIT ( $, .RADIAN. ) );
#308 = FACE_OUTER_BOUND ( 'NONE', #194, .T. ) ;
#309 = ORIENTED_EDGE ( 'NONE', *, *, #211, .T. ) ;
#310 = CARTESIAN_POINT ( 'NONE',  ( -28.48153195597501508, 5.773502691896259087, 4.772897990306385962E-16 ) ) ;
#311 = CARTESIAN_POINT ( 'NONE',  ( -33.00549319544273885, -2.408552069058245149, -4.999999999999999112 ) ) ;
#312 = AXIS2_PLACEMENT_3D ( 'NONE', #1058, #106, #92 ) ;
#313 = ORIENTED_EDGE ( 'NONE', *, *, #214, .T. ) ;
#314 = CIRCLE ( 'NONE', #242, 2.999999999999999112 ) ;
#315 = FACE_OUTER_BOUND ( 'NONE', #224, .T. ) ;
#316 = VERTEX_POINT ( 'NONE', #866 ) ;
#317 = DIRECTION ( 'NONE',  ( 1.000000000000000000, 3.339945815856412403E-17, -0.000000000000000000 ) ) ;
#318 = AXIS2_PLACEMENT_3D ( 'NONE', #223, #926, #655 ) ;
#319 = DIRECTION ( 'NONE',  ( 1.000000000000000000, 3.339945815856412403E-17, -0.000000000000000000 ) ) ;
#320 = ORIENTED_EDGE ( 'NONE', *, *, #38, .F. ) ;
#321 = FACE_OUTER_BOUND ( 'NONE', #405, .T. ) ;
#322 = CARTESIAN_POINT ( 'NONE',  ( -33.17429037585493745, -0.9620188787177799128, -4.999999999999998224 ) ) ;
#323 = CARTESIAN_POINT ( 'NONE',  ( -38.00000000000000000, 3.331039293680788910E-16, 2.439999999999983959 ) ) ;
#324 = DIRECTION ( 'NONE',  ( 0.000000000000000000, -1.000000000000000000, -1.126735949052869520E-16 ) ) ;
#325 = ADVANCED_FACE ( 'NONE', ( #334 ), #90, .T. ) ;
#326 = ORIENTED_EDGE ( 'NONE', *, *, #268, .F. ) ;
#327 = PLANE ( 'NONE',  #245 ) ;
#328 = FACE_OUTER_BOUND ( 'NONE', #919, .T. ) ;
#329 = AXIS2_PLACEMENT_3D ( 'NONE', #52, #659, #489 ) ;
#330 = CARTESIAN_POINT ( 'NONE',  ( -28.19999999999999929, 5.773502691896259087, 9.121829819089984448E-16 ) ) ;
#331 = VERTEX_POINT ( 'NONE', #906 ) ;
#332 = EDGE_CURVE ( 'NONE', #663, #843, #978, .T. ) ;
#333 = CARTESIAN_POINT ( 'NONE',  ( -33.20000000000000284, 3.673940397442056417E-16, -2.999999999999997335 ) ) ;
#334 = FACE_OUTER_BOUND ( 'NONE', #653, .T. ) ;
#335 = EDGE_CURVE ( 'NONE', #403, #546, #794, .T. ) ;
#336 = CIRCLE ( 'NONE', #356, 2.999999999999997335 ) ;
#337 = VECTOR ( 'NONE', #945, 1000.000000000000000 ) ;
#338 = DIRECTION ( 'NONE',  ( 0.7071067811865464625, 8.659560562354947649E-17, 0.7071067811865486830 ) ) ;
#339 = ORIENTED_EDGE ( 'NONE', *, *, #580, .T. ) ;
#340 = FACE_OUTER_BOUND ( 'NONE', #95, .T. ) ;
#341 = CARTESIAN_POINT ( 'NONE',  ( -28.19999999999999929, 2.886751345948131320, 5.000000000000000000 ) ) ;
#342 = LINE ( 'NONE', #1027, #1118 ) ;
#343 = ORIENTED_EDGE ( 'NONE', *, *, #568, .T. ) ;
#344 = CARTESIAN_POINT ( 'NONE',  ( -37.43999999999999062, 0.000000000000000000, 2.999999999999997335 ) ) ;
#345 = EDGE_CURVE ( 'NONE', #348, #12, #94, .T. ) ;
#346 = DIRECTION ( 'NONE',  ( -1.000000000000000000, -0.000000000000000000, -0.000000000000000000 ) ) ;
#347 = EDGE_CURVE ( 'NONE', #1003, #5, #279, .T. ) ;
#348 = VERTEX_POINT ( 'NONE', #543 ) ;
#349 = CARTESIAN_POINT ( 'NONE',  ( -16.00000000000000000, -1.658312395177695686, 2.500000000000000000 ) ) ;
#350 = CIRCLE ( 'NONE', #985, 2.999999999999997335 ) ;
#351 = ORIENTED_EDGE ( 'NONE', *, *, #196, .T. ) ;
#352 = VECTOR ( 'NONE', #710, 1000.000000000000000 ) ;
#353 = CARTESIAN_POINT ( 'NONE',  ( -30.69999999999999574, -2.450406913566657561E-15, 0.000000000000000000 ) ) ;
#354 = LINE ( 'NONE', #341, #1057 ) ;
#355 = CARTESIAN_POINT ( 'NONE',  ( -32.91846804402497639, 2.886751345948131764, 5.000000000000000000 ) ) ;
#356 = AXIS2_PLACEMENT_3D ( 'NONE', #808, #35, #288 ) ;
#357 =( NAMED_UNIT ( * ) PLANE_ANGLE_UNIT ( ) SI_UNIT ( $, .RADIAN. ) );
#358 = ORIENTED_EDGE ( 'NONE', *, *, #217, .F. ) ;
#359 = CARTESIAN_POINT ( 'NONE',  ( -28.19999999999999574, -8.645936694330896891E-16, -4.999999999999998224 ) ) ;
#360 = FACE_OUTER_BOUND ( 'NONE', #786, .T. ) ;
#361 = ORIENTED_EDGE ( 'NONE', *, *, #610, .F. ) ;
#362 = EDGE_LOOP ( 'NONE', ( #921, #449, #1006 ) ) ;
#363 = CARTESIAN_POINT ( 'NONE',  ( -28.19999999999999929, 0.000000000000000000, 2.999999999999997335 ) ) ;
#364 = FILL_AREA_STYLE_COLOUR ( '', #601 ) ;
#365 = DIRECTION ( 'NONE',  ( 0.000000000000000000, -1.000000000000000000, -1.126735949052869520E-16 ) ) ;
#366 = ORIENTED_EDGE ( 'NONE', *, *, #257, .F. ) ;
#367 = DIRECTION ( 'NONE',  ( -1.000000000000000000, -0.000000000000000000, -0.000000000000000000 ) ) ;
#368 = ORIENTED_EDGE ( 'NONE', *, *, #951, .T. ) ;
#369 = CARTESIAN_POINT ( 'NONE',  ( -28.19999999999999929, -5.773502691896257311, 1.066291330662765803E-17 ) ) ;
#370 = SURFACE_STYLE_FILL_AREA ( #111 ) ;
#371 = B_SPLINE_CURVE_WITH_KNOTS ( 'NONE', 3,
 ( #846, #567, #821, #140 ),
 .UNSPECIFIED., .F., .F.,
 ( 4, 4 ),
 ( 0.002886982286055802052, 0.005773733632003926267 ),
 .UNSPECIFIED. ) ;
#372 = AXIS2_PLACEMENT_3D ( 'NONE', #440, #764, #9 ) ;
#373 = B_SPLINE_CURVE_WITH_KNOTS ( 'NONE', 3,
 ( #388, #113, #284, #722 ),
 .UNSPECIFIED., .F., .F.,
 ( 4, 4 ),
 ( 0.01256646775352520881, 0.01547383287954935162 ),
 .UNSPECIFIED. ) ;
#374 = ORIENTED_EDGE ( 'NONE', *, *, #6, .F. ) ;
#375 = CONICAL_SURFACE ( 'NONE', #571, 4.999999999999997335, 1.221730476396030163 ) ;
#376 =( NAMED_UNIT ( * ) SI_UNIT ( $, .STERADIAN. ) SOLID_ANGLE_UNIT ( ) );
#377 = AXIS2_PLACEMENT_3D ( 'NONE', #678, #1019, #243 ) ;
#378 = CARTESIAN_POINT ( 'NONE',  ( -33.20000000000000284, -8.673617379884035472E-16, -4.999999999999998224 ) ) ;
#379 = CARTESIAN_POINT ( 'NONE',  ( -28.19999999999999574, -2.366908268170247340E-15, 0.000000000000000000 ) ) ;
#380 = ORIENTED_EDGE ( 'NONE', *, *, #386, .T. ) ;
#381 = PRODUCT_DEFINITION ( 'Î´Öª', '', #691, #148 ) ;
#382 = SURFACE_STYLE_USAGE ( .BOTH. , #966 ) ;
#383 = EDGE_LOOP ( 'NONE', ( #734, #1028, #718 ) ) ;
#384 = CARTESIAN_POINT ( 'NONE',  ( -33.20000000000000284, -4.330127018922194537, 2.499999999999998224 ) ) ;
#385 = PRODUCT ( '16»îÈû¸Ë', '16»îÈû¸Ë', '', ( #1078 ) ) ;
#386 = EDGE_CURVE ( 'NONE', #713, #970, #896, .T. ) ;
#387 = EDGE_CURVE ( 'NONE', #7, #970, #961, .T. ) ;
#388 = CARTESIAN_POINT ( 'NONE',  ( -32.91846804402497639, 2.886751345948131764, 5.000000000000000000 ) ) ;
#389 = VECTOR ( 'NONE', #365, 1000.000000000000000 ) ;
#390 = DIRECTION ( 'NONE',  ( 1.000000000000000000, 0.000000000000000000, 0.000000000000000000 ) ) ;
#391 = CIRCLE ( 'NONE', #133, 2.999999999999999112 ) ;
#392 = PRESENTATION_LAYER_ASSIGNMENT (  '', '', ( #875 ) ) ;
#393 = CARTESIAN_POINT ( 'NONE',  ( -32.91846804402497639, -2.886751345948129543, 4.999999999999999112 ) ) ;
#394 = AXIS2_PLACEMENT_3D ( 'NONE', #68, #752, #820 ) ;
#395 = SHAPE_DEFINITION_REPRESENTATION ( #209, #121 ) ;
#396 = DIRECTION ( 'NONE',  ( 0.000000000000000000, 1.000000000000000000, 0.000000000000000000 ) ) ;
#397 = DIRECTION ( 'NONE',  ( 1.000000000000000000, 3.339945815856412403E-17, -0.000000000000000000 ) ) ;
#398 = MECHANICAL_DESIGN_GEOMETRIC_PRESENTATION_REPRESENTATION (  '', ( #254 ), #1010 ) ;
#399 = DIRECTION ( 'NONE',  ( 0.000000000000000000, -3.004629197474316090E-16, 1.000000000000000000 ) ) ;
#400 = VERTEX_POINT ( 'NONE', #805 ) ;
#401 = DIRECTION ( 'NONE',  ( 1.000000000000000000, 0.000000000000000000, 0.000000000000000000 ) ) ;
#402 = CARTESIAN_POINT ( 'NONE',  ( 75.00000000000001421, 0.000000000000000000, 0.000000000000000000 ) ) ;
#403 = VERTEX_POINT ( 'NONE', #1072 ) ;
#404 = CARTESIAN_POINT ( 'NONE',  ( -28.19999999999999574, -4.330127018922196314, -2.499999999999998224 ) ) ;
#405 = EDGE_LOOP ( 'NONE', ( #1093, #112, #53 ) ) ;
#406 =( LENGTH_UNIT ( ) NAMED_UNIT ( * ) SI_UNIT ( .MILLI., .METRE. ) );
#407 = PRESENTATION_LAYER_ASSIGNMENT (  '', '', ( #683 ) ) ;
#408 = CONICAL_SURFACE ( 'NONE', #447, 11.86869354863655879, 1.221730476396031051 ) ;
#409 = DIRECTION ( 'NONE',  ( 0.000000000000000000, 1.000000000000000000, 0.000000000000000000 ) ) ;
#410 = ORIENTED_EDGE ( 'NONE', *, *, #347, .F. ) ;
#411 = AXIS2_PLACEMENT_3D ( 'NONE', #680, #162, #769 ) ;
#412 = DIRECTION ( 'NONE',  ( -1.000000000000000000, -0.000000000000000000, -0.000000000000000000 ) ) ;
#413 =( NAMED_UNIT ( * ) PLANE_ANGLE_UNIT ( ) SI_UNIT ( $, .RADIAN. ) );
#414 = EDGE_CURVE ( 'NONE', #620, #1110, #155, .T. ) ;
#415 = ORIENTED_EDGE ( 'NONE', *, *, #101, .T. ) ;
#416 = CARTESIAN_POINT ( 'NONE',  ( -28.19999999999999929, 2.886751345948132208, -4.999999999999997335 ) ) ;
#417 = VERTEX_POINT ( 'NONE', #460 ) ;
#418 = DIRECTION ( 'NONE',  ( -1.000000000000000000, -3.339945815856412403E-17, 0.000000000000000000 ) ) ;
#419 = FILL_AREA_STYLE ('',( #239 ) ) ;
#420 = ADVANCED_FACE ( 'NONE', ( #286 ), #171, .T. ) ;
#421 = CARTESIAN_POINT ( 'NONE',  ( -16.00000000000000000, 8.673617379884035472E-16, 4.336808689942017736E-16 ) ) ;
#422 = ORIENTED_EDGE ( 'NONE', *, *, #616, .T. ) ;
#423 = EDGE_CURVE ( 'NONE', #692, #1117, #697, .T. ) ;
#424 = DIRECTION ( 'NONE',  ( -0.000000000000000000, 1.000000000000000000, 2.253471898105739040E-16 ) ) ;
#425 = VECTOR ( 'NONE', #1108, 1000.000000000000000 ) ;
#426 = CARTESIAN_POINT ( 'NONE',  ( -28.22570962414504692, -0.9620188787177764711, -4.999999999999999112 ) ) ;
#427 = ORIENTED_EDGE ( 'NONE', *, *, #580, .F. ) ;
#428 = CARTESIAN_POINT ( 'NONE',  ( -28.19999999999999574, -4.330127018922194537, 2.499999999999997780 ) ) ;
#429 = MECHANICAL_DESIGN_GEOMETRIC_PRESENTATION_REPRESENTATION (  '', ( #654 ), #835 ) ;
#430 = DIRECTION ( 'NONE',  ( 1.000000000000000000, 0.000000000000000000, 0.000000000000000000 ) ) ;
#431 = AXIS2_PLACEMENT_3D ( 'NONE', #1085, #746, #156 ) ;
#432 = CARTESIAN_POINT ( 'NONE',  ( -33.20000000000000284, -3.849001794597506354, 3.333333333333331705 ) ) ;
#433 = ORIENTED_EDGE ( 'NONE', *, *, #967, .T. ) ;
#434 = CARTESIAN_POINT ( 'NONE',  ( -28.48153195597501153, -5.773502691896256422, -5.730250375531071721E-17 ) ) ;
#435 = EDGE_CURVE ( 'NONE', #444, #1020, #179, .T. ) ;
#436 = CARTESIAN_POINT ( 'NONE',  ( 75.00000000000001421, 0.000000000000000000, 0.000000000000000000 ) ) ;
#437 = ORIENTED_EDGE ( 'NONE', *, *, #132, .F. ) ;
#438 = DIRECTION ( 'NONE',  ( 0.000000000000000000, -0.4999999999999997224, 0.8660254037844388186 ) ) ;
#439 = ORIENTED_EDGE ( 'NONE', *, *, #989, .F. ) ;
#440 = CARTESIAN_POINT ( 'NONE',  ( -28.19999999999999574, -2.366908268170247340E-15, 0.000000000000000000 ) ) ;
#441 = CARTESIAN_POINT ( 'NONE',  ( -28.48153195597501508, 2.886751345948131320, 5.000000000000000000 ) ) ;
#442 = PLANE ( 'NONE',  #75 ) ;
#443 = FACE_OUTER_BOUND ( 'NONE', #556, .T. ) ;
#444 = VERTEX_POINT ( 'NONE', #125 ) ;
#445 = AXIS2_PLACEMENT_3D ( 'NONE', #120, #390, #724 ) ;
#446 = CARTESIAN_POINT ( 'NONE',  ( -33.09358330463381748, -5.292377467571570016, -0.8333333333333324822 ) ) ;
#447 = AXIS2_PLACEMENT_3D ( 'NONE', #827, #418, #145 ) ;
#448 = CARTESIAN_POINT ( 'NONE',  ( -30.69999999999999574, -11.86869354863656056, 0.000000000000000000 ) ) ;
#449 = ORIENTED_EDGE ( 'NONE', *, *, #974, .T. ) ;
#450 = AXIS2_PLACEMENT_3D ( 'NONE', #845, #700, #32 ) ;
#451 = EDGE_CURVE ( 'NONE', #708, #679, #558, .T. ) ;
#452 = ORIENTED_EDGE ( 'NONE', *, *, #694, .F. ) ;
#453 = FACE_OUTER_BOUND ( 'NONE', #935, .T. ) ;
#454 = CARTESIAN_POINT ( 'NONE',  ( -33.20000000000000284, -4.330127018922196314, -2.499999999999998224 ) ) ;
#455 = DIRECTION ( 'NONE',  ( 0.000000000000000000, 1.000000000000000000, 1.502314598737158538E-16 ) ) ;
#456 = ADVANCED_FACE ( 'NONE', ( #29 ), #36, .F. ) ;
#457 = ORIENTED_EDGE ( 'NONE', *, *, #641, .T. ) ;
#458 = DIRECTION ( 'NONE',  ( 0.7071067811865464625, 0.000000000000000000, -0.7071067811865486830 ) ) ;
#459 = ADVANCED_FACE ( 'NONE', ( #302 ), #463, .T. ) ;
#460 = CARTESIAN_POINT ( 'NONE',  ( -16.00000000000000000, -1.658312395177694798, -2.500000000000000444 ) ) ;
#461 = ORIENTED_EDGE ( 'NONE', *, *, #303, .T. ) ;
#462 = ORIENTED_EDGE ( 'NONE', *, *, #693, .F. ) ;
#463 = CONICAL_SURFACE ( 'NONE', #1091, 11.86869354863655879, 1.221730476396031051 ) ;
#464 = CARTESIAN_POINT ( 'NONE',  ( -32.91846804402497639, 2.886751345948132208, -4.999999999999997335 ) ) ;
#465 = AXIS2_PLACEMENT_3D ( 'NONE', #226, #401, #1100 ) ;
#466 = AXIS2_PLACEMENT_3D ( 'NONE', #138, #742, #485 ) ;
#467 = VERTEX_POINT ( 'NONE', #454 ) ;
#468 = CONICAL_SURFACE ( 'NONE', #857, 11.86869354863655879, 1.221730476396031051 ) ;
#469 = DIRECTION ( 'NONE',  ( 1.000000000000000000, 3.339945815856412403E-17, -0.000000000000000000 ) ) ;
#470 = ADVANCED_FACE ( 'NONE', ( #789 ), #15, .T. ) ;
#471 = EDGE_LOOP ( 'NONE', ( #790, #263, #598 ) ) ;
#472 = EDGE_CURVE ( 'NONE', #33, #544, #748, .T. ) ;
#473 = CARTESIAN_POINT ( 'NONE',  ( -33.09358330463381748, -5.292377467571569127, 0.8333333333333321491 ) ) ;
#474 = CYLINDRICAL_SURFACE ( 'NONE', #329, 2.999999999999997335 ) ;
#475 = EDGE_LOOP ( 'NONE', ( #1017, #768, #953, #1048 ) ) ;
#476 = FACE_OUTER_BOUND ( 'NONE', #1071, .T. ) ;
#477 = CARTESIAN_POINT ( 'NONE',  ( -28.19999999999999574, 3.849001794597507242, 3.333333333333334370 ) ) ;
#478 = CARTESIAN_POINT ( 'NONE',  ( -28.48153195597501508, 2.886751345948132208, -4.999999999999997335 ) ) ;
#479 = CARTESIAN_POINT ( 'NONE',  ( -28.19999999999999574, 4.811252243246882720, 1.666666666666667851 ) ) ;
#480 = AXIS2_PLACEMENT_3D ( 'NONE', #783, #1044, #604 ) ;
#481 = CARTESIAN_POINT ( 'NONE',  ( -28.48153195597501153, -5.773502691896256422, -5.730250375531071721E-17 ) ) ;
#482 = AXIS2_PLACEMENT_3D ( 'NONE', #118, #469, #135 ) ;
#483 = EDGE_LOOP ( 'NONE', ( #136, #793, #915, #66 ) ) ;
#484 = SURFACE_STYLE_FILL_AREA ( #1004 ) ;
#485 = DIRECTION ( 'NONE',  ( 0.000000000000000000, 1.000000000000000000, 0.000000000000000000 ) ) ;
#486 = LINE ( 'NONE', #824, #227 ) ;
#487 = ORIENTED_EDGE ( 'NONE', *, *, #247, .T. ) ;
#488 = DIRECTION ( 'NONE',  ( -1.000000000000000000, -0.000000000000000000, -0.000000000000000000 ) ) ;
#489 = DIRECTION ( 'NONE',  ( 0.000000000000000000, 0.000000000000000000, 1.000000000000000000 ) ) ;
#490 = ORIENTED_EDGE ( 'NONE', *, *, #726, .T. ) ;
#491 = DIRECTION ( 'NONE',  ( 1.000000000000000000, 3.339945815856412403E-17, -0.000000000000000000 ) ) ;
#492 = ORIENTED_EDGE ( 'NONE', *, *, #645, .F. ) ;
#493 = EDGE_CURVE ( 'NONE', #1124, #5, #652, .T. ) ;
#494 = PLANE ( 'NONE',  #705 ) ;
#495 = AXIS2_PLACEMENT_3D ( 'NONE', #30, #397, #984 ) ;
#496 = MECHANICAL_DESIGN_GEOMETRIC_PRESENTATION_REPRESENTATION (  '', ( #683 ), #278 ) ;
#497 = UNCERTAINTY_MEASURE_WITH_UNIT (LENGTH_MEASURE( 1.000000000000000082E-05 ), #144, 'distance_accuracy_value', 'NONE');
#498 = DIRECTION ( 'NONE',  ( 0.000000000000000000, 0.000000000000000000, -1.000000000000000000 ) ) ;
#499 = CARTESIAN_POINT ( 'NONE',  ( -33.20000000000000284, -2.533905558963067781E-15, 0.000000000000000000 ) ) ;
#500 = ORIENTED_EDGE ( 'NONE', *, *, #91, .T. ) ;
#501 = ADVANCED_FACE ( 'NONE', ( #321 ), #408, .T. ) ;
#502 = CIRCLE ( 'NONE', #411, 2.999999999999997335 ) ;
#503 = EDGE_CURVE ( 'NONE', #23, #804, #46, .T. ) ;
#504 = CARTESIAN_POINT ( 'NONE',  ( -38.00000000000000000, 0.000000000000000000, 0.000000000000000000 ) ) ;
#505 = EDGE_CURVE ( 'NONE', #270, #1003, #554, .T. ) ;
#506 = CARTESIAN_POINT ( 'NONE',  ( -37.43999999999999062, 3.673940397442056417E-16, 2.999999999999997335 ) ) ;
#507 = ORIENTED_EDGE ( 'NONE', *, *, #345, .F. ) ;
#508 = DIRECTION ( 'NONE',  ( 1.000000000000000000, 0.000000000000000000, 0.000000000000000000 ) ) ;
#509 = SURFACE_STYLE_USAGE ( .BOTH. , #235 ) ;
#510 = CARTESIAN_POINT ( 'NONE',  ( -28.19999999999999574, -8.645936694330896891E-16, -4.999999999999998224 ) ) ;
#511 = ORIENTED_EDGE ( 'NONE', *, *, #423, .T. ) ;
#512 = DIRECTION ( 'NONE',  ( 1.000000000000000000, 3.339945815856412403E-17, -0.000000000000000000 ) ) ;
#513 = PRESENTATION_STYLE_ASSIGNMENT (( #681 ) ) ;
#514 = VECTOR ( 'NONE', #810, 1000.000000000000000 ) ;
#515 = EDGE_LOOP ( 'NONE', ( #980, #774, #630, #992, #1043, #100 ) ) ;
#516 = CARTESIAN_POINT ( 'NONE',  ( -16.00000000000000000, 0.000000000000000000, 0.000000000000000000 ) ) ;
#517 = AXIS2_PLACEMENT_3D ( 'NONE', #1070, #1065, #717 ) ;
#518 = FILL_AREA_STYLE_COLOUR ( '', #968 ) ;
#519 = VECTOR ( 'NONE', #70, 999.9999999999998863 ) ;
#520 = DIRECTION ( 'NONE',  ( 1.000000000000000000, 3.339945815856412403E-17, -0.000000000000000000 ) ) ;
#521 = CARTESIAN_POINT ( 'NONE',  ( -28.32296715990920077, -1.925295277955421325, -4.999999999999997335 ) ) ;
#522 = ORIENTED_EDGE ( 'NONE', *, *, #151, .T. ) ;
#523 = CARTESIAN_POINT ( 'NONE',  ( -33.20000000000000284, -4.330127018922196314, -2.499999999999998224 ) ) ;
#524 = CARTESIAN_POINT ( 'NONE',  ( -22.00000000000000000, 0.000000000000000000, 0.000000000000000000 ) ) ;
#525 = FACE_OUTER_BOUND ( 'NONE', #590, .T. ) ;
#526 = PLANE ( 'NONE',  #995 ) ;
#527 = ORIENTED_EDGE ( 'NONE', *, *, #950, .F. ) ;
#528 = DIRECTION ( 'NONE',  ( 0.000000000000000000, 0.000000000000000000, -1.000000000000000000 ) ) ;
#529 =( NAMED_UNIT ( * ) SI_UNIT ( $, .STERADIAN. ) SOLID_ANGLE_UNIT ( ) );
#530 = EDGE_CURVE ( 'NONE', #838, #822, #1075, .T. ) ;
#531 = CARTESIAN_POINT ( 'NONE',  ( -33.20000000000000284, 4.330127018922195425, 2.500000000000002220 ) ) ;
#532 = CIRCLE ( 'NONE', #2, 4.999999999999997335 ) ;
#533 = ORIENTED_EDGE ( 'NONE', *, *, #1067, .T. ) ;
#534 =( LENGTH_UNIT ( ) NAMED_UNIT ( * ) SI_UNIT ( .MILLI., .METRE. ) );
#535 = DIRECTION ( 'NONE',  ( 1.000000000000000000, 0.000000000000000000, 0.000000000000000000 ) ) ;
#536 = ADVANCED_FACE ( 'NONE', ( #158 ), #709, .T. ) ;
#537 = CARTESIAN_POINT ( 'NONE',  ( -28.19999999999999574, -2.366908268170247340E-15, 0.000000000000000000 ) ) ;
#538 = AXIS2_PLACEMENT_3D ( 'NONE', #79, #89, #943 ) ;
#539 = ADVANCED_FACE ( 'NONE', ( #646, #1107 ), #327, .F. ) ;
#540 = ORIENTED_EDGE ( 'NONE', *, *, #25, .T. ) ;
#541 = CARTESIAN_POINT ( 'NONE',  ( -22.00000000000000000, 0.000000000000000000, 0.000000000000000000 ) ) ;
#542 = ORIENTED_EDGE ( 'NONE', *, *, #214, .F. ) ;
#543 = CARTESIAN_POINT ( 'NONE',  ( -28.48153195597501508, 2.886751345948131320, 5.000000000000000000 ) ) ;
#544 = VERTEX_POINT ( 'NONE', #130 ) ;
#545 = CARTESIAN_POINT ( 'NONE',  ( -28.19999999999999929, 3.673940397442056417E-16, -2.999999999999997335 ) ) ;
#546 = VERTEX_POINT ( 'NONE', #910 ) ;
#547 = DIRECTION ( 'NONE',  ( 1.000000000000000000, 3.339945815856412403E-17, -0.000000000000000000 ) ) ;
#548 = EDGE_CURVE ( 'NONE', #12, #83, #990, .T. ) ;
#549 = ORIENTED_EDGE ( 'NONE', *, *, #772, .T. ) ;
#550 = ADVANCED_FACE ( 'NONE', ( #735 ), #689, .T. ) ;
#551 = PLANE ( 'NONE',  #195 ) ;
#552 = CIRCLE ( 'NONE', #758, 2.999999999999997335 ) ;
#553 = DIRECTION ( 'NONE',  ( -1.000000000000000000, -0.000000000000000000, -0.000000000000000000 ) ) ;
#554 = CIRCLE ( 'NONE', #57, 2.999999999999997335 ) ;
#555 = DIRECTION ( 'NONE',  ( 1.000000000000000000, 3.339945815856412403E-17, -0.000000000000000000 ) ) ;
#556 = EDGE_LOOP ( 'NONE', ( #380, #698, #1069, #150, #285, #1046 ) ) ;
#557 = DIRECTION ( 'NONE',  ( 0.000000000000000000, 0.000000000000000000, -1.000000000000000000 ) ) ;
#558 = LINE ( 'NONE', #212, #514 ) ;
#559 = FILL_AREA_STYLE_COLOUR ( '', #21 ) ;
#560 = CARTESIAN_POINT ( 'NONE',  ( -33.09358330463381748, 5.292377467571570904, 0.8333333333333344806 ) ) ;
#561 = DIRECTION ( 'NONE',  ( 0.000000000000000000, -1.000000000000000000, 0.000000000000000000 ) ) ;
#562 = CARTESIAN_POINT ( 'NONE',  ( -28.48153195597501508, 5.773502691896259087, 4.772897990306385962E-16 ) ) ;
#563 = CARTESIAN_POINT ( 'NONE',  ( -32.91846804402497639, -5.773502691896257311, 5.281701249156952622E-16 ) ) ;
#564 = ORIENTED_EDGE ( 'NONE', *, *, #847, .F. ) ;
#565 = CARTESIAN_POINT ( 'NONE',  ( -28.19999999999999574, -2.366908268170247340E-15, 0.000000000000000000 ) ) ;
#566 = CIRCLE ( 'NONE', #4, 2.439999999999983959 ) ;
#567 = CARTESIAN_POINT ( 'NONE',  ( -33.20000000000000284, -3.849001794597508130, -3.333333333333330373 ) ) ;
#568 = EDGE_CURVE ( 'NONE', #822, #331, #954, .T. ) ;
#569 = CIRCLE ( 'NONE', #623, 4.999999999999997335 ) ;
#570 = DIRECTION ( 'NONE',  ( 0.000000000000000000, 1.000000000000000000, 0.000000000000000000 ) ) ;
#571 = AXIS2_PLACEMENT_3D ( 'NONE', #1098, #319, #570 ) ;
#572 = ORIENTED_EDGE ( 'NONE', *, *, #1021, .F. ) ;
#573 = DIRECTION ( 'NONE',  ( 0.000000000000000000, 1.000000000000000000, 0.000000000000000000 ) ) ;
#574 = FACE_OUTER_BOUND ( 'NONE', #1106, .T. ) ;
#575 = ORIENTED_EDGE ( 'NONE', *, *, #937, .F. ) ;
#576 = UNCERTAINTY_MEASURE_WITH_UNIT (LENGTH_MEASURE( 1.000000000000000082E-05 ), #534, 'distance_accuracy_value', 'NONE');
#577 = DIRECTION ( 'NONE',  ( -1.000000000000000000, -3.339945815856412403E-17, 0.000000000000000000 ) ) ;
#578 = EDGE_LOOP ( 'NONE', ( #657, #123, #527 ) ) ;
#579 = CARTESIAN_POINT ( 'NONE',  ( -22.00000000000000000, 1.658312395177695908, -2.499999999999999556 ) ) ;
#580 = EDGE_CURVE ( 'NONE', #1110, #7, #856, .T. ) ;
#581 = PRESENTATION_STYLE_ASSIGNMENT (( #509 ) ) ;
#582 = EDGE_CURVE ( 'NONE', #467, #692, #569, .T. ) ;
#583 = CARTESIAN_POINT ( 'NONE',  ( -33.20000000000000284, 0.000000000000000000, 0.000000000000000000 ) ) ;
#584 = PLANE ( 'NONE',  #318 ) ;
#585 = ORIENTED_EDGE ( 'NONE', *, *, #847, .T. ) ;
#586 = EDGE_CURVE ( 'NONE', #12, #1020, #1026, .T. ) ;
#587 = DIRECTION ( 'NONE',  ( 1.000000000000000000, 0.000000000000000000, 0.000000000000000000 ) ) ;
#588 = CARTESIAN_POINT ( 'NONE',  ( -33.20000000000000284, -2.533905558963067781E-15, 0.000000000000000000 ) ) ;
#589 = CARTESIAN_POINT ( 'NONE',  ( -32.91846804402497639, 2.886751345948132208, -4.999999999999997335 ) ) ;
#590 = EDGE_LOOP ( 'NONE', ( #1099, #549, #237, #747, #888, #309 ) ) ;
#591 = CIRCLE ( 'NONE', #482, 4.999999999999997335 ) ;
#592 = DIRECTION ( 'NONE',  ( 1.000000000000000000, 3.339945815856412403E-17, -0.000000000000000000 ) ) ;
#593 = CARTESIAN_POINT ( 'NONE',  ( -32.91846804402497639, -2.886751345948129543, 4.999999999999999112 ) ) ;
#594 = ORIENTED_EDGE ( 'NONE', *, *, #134, .F. ) ;
#595 = CARTESIAN_POINT ( 'NONE',  ( -22.00000000000000000, 5.773502691896259087, -2.499999999999998668 ) ) ;
#596 = DIRECTION ( 'NONE',  ( -1.000000000000000000, -0.000000000000000000, -0.000000000000000000 ) ) ;
#597 = DIRECTION ( 'NONE',  ( 0.000000000000000000, 0.000000000000000000, -1.000000000000000000 ) ) ;
#598 = ORIENTED_EDGE ( 'NONE', *, *, #387, .F. ) ;
#599 = DIRECTION ( 'NONE',  ( -1.000000000000000000, -3.339945815856412403E-17, 0.000000000000000000 ) ) ;
#600 = CARTESIAN_POINT ( 'NONE',  ( -33.20000000000000284, 4.330127018922195425, -2.500000000000001776 ) ) ;
#601 = COLOUR_RGB ( '',1.000000000000000000, 1.000000000000000000, 1.000000000000000000 ) ;
#602 = CARTESIAN_POINT ( 'NONE',  ( -33.09358330463381748, 5.292377467571570016, -0.8333333333333340365 ) ) ;
#603 = EDGE_LOOP ( 'NONE', ( #533, #208, #540, #815, #203, #771 ) ) ;
#604 = DIRECTION ( 'NONE',  ( 0.000000000000000000, 0.000000000000000000, -1.000000000000000000 ) ) ;
#605 = AXIS2_PLACEMENT_3D ( 'NONE', #871, #1, #676 ) ;
#606 = CARTESIAN_POINT ( 'NONE',  ( -28.19999999999999929, 0.000000000000000000, 0.000000000000000000 ) ) ;
#607 = CARTESIAN_POINT ( 'NONE',  ( -28.19999999999999574, -4.330127018922194537, 2.499999999999997780 ) ) ;
#608 = CARTESIAN_POINT ( 'NONE',  ( -28.19999999999999218, -0.4807835041835025192, -4.999999999999997335 ) ) ;
#609 = ORIENTED_EDGE ( 'NONE', *, *, #25, .F. ) ;
#610 = EDGE_CURVE ( 'NONE', #614, #23, #103, .T. ) ;
#611 = DIRECTION ( 'NONE',  ( 0.000000000000000000, 1.000000000000000000, 0.000000000000000000 ) ) ;
#612 = CARTESIAN_POINT ( 'NONE',  ( -33.20000000000000284, -0.4807835041833679046, 4.999999999999999112 ) ) ;
#613 = CARTESIAN_POINT ( 'NONE',  ( -16.00000000000000000, 1.658312395177696352, -2.499999999999999556 ) ) ;
#614 = VERTEX_POINT ( 'NONE', #756 ) ;
#615 = FILL_AREA_STYLE_COLOUR ( '', #932 ) ;
#616 = EDGE_CURVE ( 'NONE', #1020, #31, #1096, .T. ) ;
#617 = DIRECTION ( 'NONE',  ( -1.000000000000000000, -0.000000000000000000, -0.000000000000000000 ) ) ;
#618 = EDGE_CURVE ( 'NONE', #7, #467, #725, .T. ) ;
#619 = CARTESIAN_POINT ( 'NONE',  ( -28.48153195597500087, -2.886751345948140646, 4.999999999999999112 ) ) ;
#620 = VERTEX_POINT ( 'NONE', #253 ) ;
#621 =( GEOMETRIC_REPRESENTATION_CONTEXT ( 3 ) GLOBAL_UNCERTAINTY_ASSIGNED_CONTEXT ( ( #649 ) ) GLOBAL_UNIT_ASSIGNED_CONTEXT ( ( #832, #307, #1095 ) ) REPRESENTATION_CONTEXT ( 'NONE', 'WORKASPACE' ) );
#622 = CARTESIAN_POINT ( 'NONE',  ( -28.30641669536617755, 3.367876570272819059, 4.166666666666667851 ) ) ;
#623 = AXIS2_PLACEMENT_3D ( 'NONE', #658, #264, #96 ) ;
#624 = FACE_OUTER_BOUND ( 'NONE', #483, .T. ) ;
#625 = AXIS2_PLACEMENT_3D ( 'NONE', #421, #269, #597 ) ;
#626 = ORIENTED_EDGE ( 'NONE', *, *, #616, .F. ) ;
#627 = DIRECTION ( 'NONE',  ( 1.000000000000000000, 0.000000000000000000, 0.000000000000000000 ) ) ;
#628 = CARTESIAN_POINT ( 'NONE',  ( -28.39450680455723841, -2.408552069058194522, 4.999999999999999112 ) ) ;
#629 = EDGE_CURVE ( 'NONE', #890, #822, #267, .T. ) ;
#630 = ORIENTED_EDGE ( 'NONE', *, *, #387, .T. ) ;
#631 = CARTESIAN_POINT ( 'NONE',  ( -22.00000000000000000, 3.673940397442056417E-16, -2.999999999999997335 ) ) ;
#632 = DIRECTION ( 'NONE',  ( -1.000000000000000000, -0.000000000000000000, -0.000000000000000000 ) ) ;
#633 = VERTEX_POINT ( 'NONE', #775 ) ;
#634 = STYLED_ITEM ( 'NONE', ( #126 ), #127 ) ;
#635 = DIRECTION ( 'NONE',  ( 1.000000000000000000, -0.000000000000000000, -0.000000000000000000 ) ) ;
#636 = AXIS2_PLACEMENT_3D ( 'NONE', #524, #535, #879 ) ;
#637 = CARTESIAN_POINT ( 'NONE',  ( -37.43999999999999062, 0.000000000000000000, 0.000000000000000000 ) ) ;
#638 = CIRCLE ( 'NONE', #225, 2.999999999999997335 ) ;
#639 = VECTOR ( 'NONE', #338, 1000.000000000000000 ) ;
#640 = LINE ( 'NONE', #129, #1008 ) ;
#641 = EDGE_CURVE ( 'NONE', #614, #544, #959, .T. ) ;
#642 = CARTESIAN_POINT ( 'NONE',  ( -30.69999999999999574, -2.450406913566657561E-15, 0.000000000000000000 ) ) ;
#643 = CARTESIAN_POINT ( 'NONE',  ( -28.19999999999999929, -2.886751345948129543, 4.999999999999999112 ) ) ;
#644 = FACE_OUTER_BOUND ( 'NONE', #383, .T. ) ;
#645 = EDGE_CURVE ( 'NONE', #713, #31, #823, .T. ) ;
#646 = FACE_OUTER_BOUND ( 'NONE', #651, .T. ) ;
#647 = CARTESIAN_POINT ( 'NONE',  ( -16.00000000000000000, 5.773502691896259087, -2.499999999999998668 ) ) ;
#648 = ADVANCED_FACE ( 'NONE', ( #340 ), #1039, .F. ) ;
#649 = UNCERTAINTY_MEASURE_WITH_UNIT (LENGTH_MEASURE( 1.000000000000000082E-05 ), #832, 'distance_accuracy_value', 'NONE');
#650 = CARTESIAN_POINT ( 'NONE',  ( -30.69999999999999574, -2.450406913566657561E-15, 0.000000000000000000 ) ) ;
#651 = EDGE_LOOP ( 'NONE', ( #882, #933, #975, #427, #244, #594, #575 ) ) ;
#652 = CIRCLE ( 'NONE', #465, 2.999999999999997335 ) ;
#653 = EDGE_LOOP ( 'NONE', ( #161, #461, #200 ) ) ;
#654 = STYLED_ITEM ( 'NONE', ( #714 ), #778 ) ;
#655 = DIRECTION ( 'NONE',  ( 0.000000000000000000, 0.4999999999999998335, -0.8660254037844387076 ) ) ;
#656 = CONICAL_SURFACE ( 'NONE', #913, 4.999999999999997335, 1.221730476396030163 ) ;
#657 = ORIENTED_EDGE ( 'NONE', *, *, #974, .F. ) ;
#658 = CARTESIAN_POINT ( 'NONE',  ( -33.20000000000000284, -2.533905558963067781E-15, 0.000000000000000000 ) ) ;
#659 = DIRECTION ( 'NONE',  ( -1.000000000000000000, -0.000000000000000000, -0.000000000000000000 ) ) ;
#660 = ADVANCED_FACE ( 'NONE', ( #1034 ), #301, .T. ) ;
#661 = EDGE_CURVE ( 'NONE', #970, #467, #886, .T. ) ;
#662 = FACE_OUTER_BOUND ( 'NONE', #1052, .T. ) ;
#663 = VERTEX_POINT ( 'NONE', #333 ) ;
#664 = DIRECTION ( 'NONE',  ( -0.000000000000000000, 0.8660254037844388186, 0.4999999999999997224 ) ) ;
#665 = EDGE_LOOP ( 'NONE', ( #201, #982, #165 ) ) ;
#666 = CARTESIAN_POINT ( 'NONE',  ( -33.20000000000000284, -5.773502691896257311, 2.665728326656911426E-18 ) ) ;
#667 = CIRCLE ( 'NONE', #873, 4.999999999999997335 ) ;
#668 = CARTESIAN_POINT ( 'NONE',  ( -28.19999999999999929, 2.886751345948132208, -4.999999999999997335 ) ) ;
#669 = PLANE ( 'NONE',  #104 ) ;
#670 = VERTEX_POINT ( 'NONE', #864 ) ;
#671 = AXIS2_PLACEMENT_3D ( 'NONE', #1050, #275, #936 ) ;
#672 = DIRECTION ( 'NONE',  ( 1.000000000000000000, 0.000000000000000000, 0.000000000000000000 ) ) ;
#673 = CARTESIAN_POINT ( 'NONE',  ( -22.00000000000000000, 0.000000000000000000, 0.000000000000000000 ) ) ;
#674 = DIRECTION ( 'NONE',  ( -1.000000000000000000, -0.000000000000000000, -0.000000000000000000 ) ) ;
#675 = ORIENTED_EDGE ( 'NONE', *, *, #807, .F. ) ;
#676 = DIRECTION ( 'NONE',  ( 0.000000000000000000, 0.000000000000000000, -1.000000000000000000 ) ) ;
#677 = DIRECTION ( 'NONE',  ( 0.000000000000000000, 0.000000000000000000, -1.000000000000000000 ) ) ;
#678 = CARTESIAN_POINT ( 'NONE',  ( -28.19999999999999929, 0.000000000000000000, 0.000000000000000000 ) ) ;
#679 = VERTEX_POINT ( 'NONE', #344 ) ;
#680 = CARTESIAN_POINT ( 'NONE',  ( -16.00000000000000000, 0.000000000000000000, 0.000000000000000000 ) ) ;
#681 = SURFACE_STYLE_USAGE ( .BOTH. , #188 ) ;
#682 = EDGE_LOOP ( 'NONE', ( #802, #343, #490, #291, #422, #64, #1064 ) ) ;
#683 = STYLED_ITEM ( 'NONE', ( #513 ), #292 ) ;
#684 = EDGE_CURVE ( 'NONE', #663, #708, #81, .T. ) ;
#685 = AXIS2_PLACEMENT_3D ( 'NONE', #565, #592, #396 ) ;
#686 = FACE_OUTER_BOUND ( 'NONE', #289, .T. ) ;
#687 = ORIENTED_EDGE ( 'NONE', *, *, #693, .T. ) ;
#688 = CARTESIAN_POINT ( 'NONE',  ( -33.20000000000000284, -4.811252243246881832, -1.666666666666665408 ) ) ;
#689 = CONICAL_SURFACE ( 'NONE', #1061, 4.999999999999997335, 1.221730476396030163 ) ;
#690 = CARTESIAN_POINT ( 'NONE',  ( -28.19999999999999574, -5.000000000000000000, 0.000000000000000000 ) ) ;
#691 = PRODUCT_DEFINITION_FORMATION_WITH_SPECIFIED_SOURCE ( 'ÈÎºÎ', '', #385, .NOT_KNOWN. ) ;
#692 = VERTEX_POINT ( 'NONE', #172 ) ;
#693 = EDGE_CURVE ( 'NONE', #633, #33, #502, .T. ) ;
#694 = EDGE_CURVE ( 'NONE', #679, #843, #249, .T. ) ;
#695 = ORIENTED_EDGE ( 'NONE', *, *, #505, .T. ) ;
#696 = CARTESIAN_POINT ( 'NONE',  ( -37.43999999999999062, 0.000000000000000000, 0.000000000000000000 ) ) ;
#697 = B_SPLINE_CURVE_WITH_KNOTS ( 'NONE', 3,
 ( #378, #20, #1062, #464 ),
 .UNSPECIFIED., .F., .F.,
 ( 4, 4 ),
 ( 0.007918186880068022598, 0.01083602852517333813 ),
 .UNSPECIFIED. ) ;
#698 = ORIENTED_EDGE ( 'NONE', *, *, #661, .T. ) ;
#699 = EDGE_LOOP ( 'NONE', ( #828, #1033, #1012, #695, #184, #830, #585, #157, #883, #361, #193, #178 ) ) ;
#700 = DIRECTION ( 'NONE',  ( 1.000000000000000000, 3.339945815856412403E-17, -0.000000000000000000 ) ) ;
#701 = FILL_AREA_STYLE ('',( #364 ) ) ;
#702 = CARTESIAN_POINT ( 'NONE',  ( -28.30641669536617400, -3.367876570272819503, 4.166666666666662522 ) ) ;
#703 = EDGE_CURVE ( 'NONE', #546, #270, #638, .T. ) ;
#704 = VECTOR ( 'NONE', #632, 1000.000000000000000 ) ;
#705 = AXIS2_PLACEMENT_3D ( 'NONE', #668, #834, #159 ) ;
#706 = ORIENTED_EDGE ( 'NONE', *, *, #772, .F. ) ;
#707 = FACE_OUTER_BOUND ( 'NONE', #143, .T. ) ;
#708 = VERTEX_POINT ( 'NONE', #84 ) ;
#709 = CONICAL_SURFACE ( 'NONE', #394, 4.999999999999997335, 1.221730476396030163 ) ;
#710 = DIRECTION ( 'NONE',  ( 1.000000000000000000, 0.000000000000000000, 0.000000000000000000 ) ) ;
#711 = CONICAL_SURFACE ( 'NONE', #139, 4.999999999999997335, 1.221730476396030163 ) ;
#712 = PRESENTATION_LAYER_ASSIGNMENT (  '', '', ( #254 ) ) ;
#713 = VERTEX_POINT ( 'NONE', #434 ) ;
#714 = PRESENTATION_STYLE_ASSIGNMENT (( #382 ) ) ;
#715 = CARTESIAN_POINT ( 'NONE',  ( -22.00000000000000000, -1.658312395177695686, 2.500000000000000000 ) ) ;
#716 = ORIENTED_EDGE ( 'NONE', *, *, #582, .T. ) ;
#717 = DIRECTION ( 'NONE',  ( 0.000000000000000000, 0.000000000000000000, -1.000000000000000000 ) ) ;
#718 = ORIENTED_EDGE ( 'NONE', *, *, #423, .F. ) ;
#719 = CARTESIAN_POINT ( 'NONE',  ( -33.20000000000000284, -4.811252243246881832, 1.666666666666665186 ) ) ;
#720 = CARTESIAN_POINT ( 'NONE',  ( -28.19999999999999929, 4.330127018922194537, -2.500000000000000888 ) ) ;
#721 = ADVANCED_FACE ( 'NONE', ( #1123 ), #266, .T. ) ;
#722 = CARTESIAN_POINT ( 'NONE',  ( -33.20000000000000284, -3.285062858331646804E-15, 4.999999999999999112 ) ) ;
#723 = ORIENTED_EDGE ( 'NONE', *, *, #196, .F. ) ;
#724 = DIRECTION ( 'NONE',  ( 0.000000000000000000, 0.000000000000000000, -1.000000000000000000 ) ) ;
#725 = CIRCLE ( 'NONE', #897, 4.999999999999997335 ) ;
#726 = EDGE_CURVE ( 'NONE', #331, #12, #1007, .T. ) ;
#727 = DIRECTION ( 'NONE',  ( -1.000000000000000000, -0.000000000000000000, -0.000000000000000000 ) ) ;
#728 = B_SPLINE_CURVE_WITH_KNOTS ( 'NONE', 3,
 ( #1120, #765, #1035, #1045 ),
 .UNSPECIFIED., .F., .F.,
 ( 4, 4 ),
 ( 2.309401076744511949E-07, 0.002886982286055805522 ),
 .UNSPECIFIED. ) ;
#729 = DIRECTION ( 'NONE',  ( 1.000000000000000000, 3.339945815856412403E-17, -0.000000000000000000 ) ) ;
#730 = ADVANCED_FACE ( 'NONE', ( #210 ), #551, .T. ) ;
#731 = CARTESIAN_POINT ( 'NONE',  ( -28.19999999999999574, 4.811252243246881832, -1.666666666666666519 ) ) ;
#732 = B_SPLINE_CURVE_WITH_KNOTS ( 'NONE', 3,
 ( #531, #1018, #86, #355 ),
 .UNSPECIFIED., .F., .F.,
 ( 4, 4 ),
 ( 0.002886982286055805522, 0.005773733632003932338 ),
 .UNSPECIFIED. ) ;
#733 = FACE_OUTER_BOUND ( 'NONE', #849, .T. ) ;
#734 = ORIENTED_EDGE ( 'NONE', *, *, #811, .T. ) ;
#735 = FACE_OUTER_BOUND ( 'NONE', #956, .T. ) ;
#736 = DIRECTION ( 'NONE',  ( 1.000000000000000000, 0.000000000000000000, 0.000000000000000000 ) ) ;
#737 = VERTEX_POINT ( 'NONE', #803 ) ;
#738 = DIRECTION ( 'NONE',  ( 0.000000000000000000, -1.000000000000000000, -3.004629197474316090E-16 ) ) ;
#739 = ORIENTED_EDGE ( 'NONE', *, *, #247, .F. ) ;
#740 = FILL_AREA_STYLE_COLOUR ( '', #1082 ) ;
#741 = ADVANCED_FACE ( 'NONE', ( #707 ), #761, .T. ) ;
#742 = DIRECTION ( 'NONE',  ( 1.000000000000000000, 3.339945815856412403E-17, -0.000000000000000000 ) ) ;
#743 = ADVANCED_FACE ( 'NONE', ( #792, #889 ), #900, .T. ) ;
#744 = VECTOR ( 'NONE', #488, 1000.000000000000000 ) ;
#745 = SURFACE_STYLE_FILL_AREA ( #419 ) ;
#746 = DIRECTION ( 'NONE',  ( 0.000000000000000000, 1.126735949052869520E-16, -1.000000000000000000 ) ) ;
#747 = ORIENTED_EDGE ( 'NONE', *, *, #47, .F. ) ;
#748 = LINE ( 'NONE', #579, #853 ) ;
#749 = DIRECTION ( 'NONE',  ( 0.000000000000000000, -1.000000000000000000, 0.000000000000000000 ) ) ;
#750 = CARTESIAN_POINT ( 'NONE',  ( -22.00000000000000000, 0.000000000000000000, 2.999999999999997335 ) ) ;
#751 = ORIENTED_EDGE ( 'NONE', *, *, #703, .F. ) ;
#752 = DIRECTION ( 'NONE',  ( 1.000000000000000000, 3.339945815856412403E-17, -0.000000000000000000 ) ) ;
#753 = LINE ( 'NONE', #647, #425 ) ;
#754 = CARTESIAN_POINT ( 'NONE',  ( -28.19999999999999574, -3.118065567538826362E-15, 4.999999999999999112 ) ) ;
#755 = ORIENTED_EDGE ( 'NONE', *, *, #99, .F. ) ;
#756 = CARTESIAN_POINT ( 'NONE',  ( -22.00000000000000000, -1.658312395177694798, -2.500000000000000444 ) ) ;
#757 = DIRECTION ( 'NONE',  ( -1.000000000000000000, -0.000000000000000000, -0.000000000000000000 ) ) ;
#758 = AXIS2_PLACEMENT_3D ( 'NONE', #859, #944, #677 ) ;
#759 = DIRECTION ( 'NONE',  ( 1.000000000000000000, 0.000000000000000000, 0.000000000000000000 ) ) ;
#760 = ORIENTED_EDGE ( 'NONE', *, *, #684, .F. ) ;
#761 = CONICAL_SURFACE ( 'NONE', #119, 2.999999999999997335, 0.7853981633974498333 ) ;
#762 = ADVANCED_FACE ( 'NONE', ( #476 ), #798, .F. ) ;
#763 = CIRCLE ( 'NONE', #176, 4.999999999999997335 ) ;
#764 = DIRECTION ( 'NONE',  ( 1.000000000000000000, 3.339945815856412403E-17, -0.000000000000000000 ) ) ;
#765 = CARTESIAN_POINT ( 'NONE',  ( -28.30641669536617755, -3.367876570272819059, -4.166666666666666075 ) ) ;
#766 = EDGE_CURVE ( 'NONE', #417, #633, #336, .T. ) ;
#767 = CARTESIAN_POINT ( 'NONE',  ( -33.20000000000000284, -4.330127018922194537, 2.499999999999998224 ) ) ;
#768 = ORIENTED_EDGE ( 'NONE', *, *, #1068, .T. ) ;
#769 = DIRECTION ( 'NONE',  ( 0.000000000000000000, 0.000000000000000000, -1.000000000000000000 ) ) ;
#770 =( LENGTH_UNIT ( ) NAMED_UNIT ( * ) SI_UNIT ( .MILLI., .METRE. ) );
#771 = ORIENTED_EDGE ( 'NONE', *, *, #548, .T. ) ;
#772 = EDGE_CURVE ( 'NONE', #670, #1110, #373, .T. ) ;
#773 = CARTESIAN_POINT ( 'NONE',  ( -28.19999999999999929, -2.886751345948130432, -4.999999999999999112 ) ) ;
#774 = ORIENTED_EDGE ( 'NONE', *, *, #1025, .T. ) ;
#775 = CARTESIAN_POINT ( 'NONE',  ( -16.00000000000000000, 3.673940397442056417E-16, -2.999999999999997335 ) ) ;
#776 = EDGE_CURVE ( 'NONE', #737, #843, #1076, .T. ) ;
#777 = CARTESIAN_POINT ( 'NONE',  ( -33.07703284009080136, -1.925295277955304529, 4.999999999999997335 ) ) ;
#778 = ADVANCED_FACE ( 'NONE', ( #453 ), #197, .T. ) ;
#779 = MECHANICAL_DESIGN_GEOMETRIC_PRESENTATION_REPRESENTATION (  '', ( #634 ), #795 ) ;
#780 = CARTESIAN_POINT ( 'NONE',  ( -28.19999999999999929, 2.886751345948131320, 5.000000000000000000 ) ) ;
#781 = AXIS2_PLACEMENT_3D ( 'NONE', #295, #547, #110 ) ;
#782 = ORIENTED_EDGE ( 'NONE', *, *, #472, .T. ) ;
#783 = CARTESIAN_POINT ( 'NONE',  ( -22.00000000000000000, 0.000000000000000000, 0.000000000000000000 ) ) ;
#784 =( NAMED_UNIT ( * ) PLANE_ANGLE_UNIT ( ) SI_UNIT ( $, .RADIAN. ) );
#785 = VERTEX_POINT ( 'NONE', #13 ) ;
#786 = EDGE_LOOP ( 'NONE', ( #739, #368, #687, #782, #76, #1041, #50, #564, #675, #114, #791, #146 ) ) ;
#787 = AXIS2_PLACEMENT_3D ( 'NONE', #826, #45, #67 ) ;
#788 = FILL_AREA_STYLE ('',( #615 ) ) ;
#789 = FACE_OUTER_BOUND ( 'NONE', #699, .T. ) ;
#790 = ORIENTED_EDGE ( 'NONE', *, *, #618, .T. ) ;
#791 = ORIENTED_EDGE ( 'NONE', *, *, #703, .T. ) ;
#792 = FACE_OUTER_BOUND ( 'NONE', #682, .T. ) ;
#793 = ORIENTED_EDGE ( 'NONE', *, *, #42, .F. ) ;
#794 = LINE ( 'NONE', #903, #352 ) ;
#795 =( GEOMETRIC_REPRESENTATION_CONTEXT ( 3 ) GLOBAL_UNCERTAINTY_ASSIGNED_CONTEXT ( ( #1022 ) ) GLOBAL_UNIT_ASSIGNED_CONTEXT ( ( #1014, #911, #163 ) ) REPRESENTATION_CONTEXT ( 'NONE', 'WORKASPACE' ) );
#796 = STYLED_ITEM ( 'NONE', ( #581 ), #128 ) ;
#797 = VERTEX_POINT ( 'NONE', #363 ) ;
#798 = PLANE ( 'NONE',  #63 ) ;
#799 = ORIENTED_EDGE ( 'NONE', *, *, #298, .T. ) ;
#800 = DIRECTION ( 'NONE',  ( 1.000000000000000000, 0.000000000000000000, 0.000000000000000000 ) ) ;
#801 = AXIS2_PLACEMENT_3D ( 'NONE', #142, #399, #738 ) ;
#802 = ORIENTED_EDGE ( 'NONE', *, *, #530, .T. ) ;
#803 = CARTESIAN_POINT ( 'NONE',  ( -38.00000000000000000, 0.000000000000000000, -2.439999999999983959 ) ) ;
#804 = VERTEX_POINT ( 'NONE', #545 ) ;
#805 = CARTESIAN_POINT ( 'NONE',  ( 75.00000000000001421, 0.000000000000000000, 2.999999999999999556 ) ) ;
#806 = CARTESIAN_POINT ( 'NONE',  ( -28.30641669536617755, 5.292377467571570016, -0.8333333333333325932 ) ) ;
#807 = EDGE_CURVE ( 'NONE', #403, #1124, #1080, .T. ) ;
#808 = CARTESIAN_POINT ( 'NONE',  ( -16.00000000000000000, 0.000000000000000000, 0.000000000000000000 ) ) ;
#809 = ORIENTED_EDGE ( 'NONE', *, *, #451, .F. ) ;
#810 = DIRECTION ( 'NONE',  ( -1.000000000000000000, -0.000000000000000000, -0.000000000000000000 ) ) ;
#811 = EDGE_CURVE ( 'NONE', #692, #259, #591, .T. ) ;
#812 = EDGE_CURVE ( 'NONE', #838, #713, #73, .T. ) ;
#813 = CIRCLE ( 'NONE', #1074, 4.999999999999997335 ) ;
#814 = CARTESIAN_POINT ( 'NONE',  ( -32.91846804402497639, 5.773502691896259087, 7.202968530505228178E-16 ) ) ;
#815 = ORIENTED_EDGE ( 'NONE', *, *, #231, .F. ) ;
#816 = PRESENTATION_STYLE_ASSIGNMENT (( #1087 ) ) ;
#817 = CARTESIAN_POINT ( 'NONE',  ( -33.20000000000000284, -2.533905558963067781E-15, 0.000000000000000000 ) ) ;
#818 = PLANE ( 'NONE',  #801 ) ;
#819 = ORIENTED_EDGE ( 'NONE', *, *, #1068, .F. ) ;
#820 = DIRECTION ( 'NONE',  ( 0.000000000000000000, 1.000000000000000000, 0.000000000000000000 ) ) ;
#821 = CARTESIAN_POINT ( 'NONE',  ( -33.09358330463381748, -3.367876570272821279, -4.166666666666662522 ) ) ;
#822 = VERTEX_POINT ( 'NONE', #999 ) ;
#823 = B_SPLINE_CURVE_WITH_KNOTS ( 'NONE', 3,
 ( #166, #1119, #955, #428 ),
 .UNSPECIFIED., .F., .F.,
 ( 4, 4 ),
 ( 2.309401076759167208E-07, 0.002886982286055802052 ),
 .UNSPECIFIED. ) ;
#824 = CARTESIAN_POINT ( 'NONE',  ( -22.00000000000000000, 0.000000000000000000, 2.999999999999997335 ) ) ;
#825 = ORIENTED_EDGE ( 'NONE', *, *, #505, .F. ) ;
#826 = CARTESIAN_POINT ( 'NONE',  ( 0.000000000000000000, 0.000000000000000000, 0.000000000000000000 ) ) ;
#827 = CARTESIAN_POINT ( 'NONE',  ( -30.69999999999999574, -2.450406913566657561E-15, 0.000000000000000000 ) ) ;
#828 = ORIENTED_EDGE ( 'NONE', *, *, #951, .F. ) ;
#829 = DIRECTION ( 'NONE',  ( 0.000000000000000000, 1.000000000000000000, 0.000000000000000000 ) ) ;
#830 = ORIENTED_EDGE ( 'NONE', *, *, #493, .F. ) ;
#831 = CLOSED_SHELL ( 'NONE', ( #420, #778, #902, #501, #292, #470, #743, #730, #762, #325, #1016, #456, #1056, #850, #1049, #187, #14, #459, #660, #909, #28, #865, #185, #841, #1054, #59, #901, #550, #536, #863, #721, #61, #648, #127, #539, #741 ) ) ;
#832 =( LENGTH_UNIT ( ) NAMED_UNIT ( * ) SI_UNIT ( .MILLI., .METRE. ) );
#833 = AXIS2_PLACEMENT_3D ( 'NONE', #205, #800, #34 ) ;
#834 = DIRECTION ( 'NONE',  ( 0.000000000000000000, -0.8660254037844387076, 0.4999999999999998335 ) ) ;
#835 =( GEOMETRIC_REPRESENTATION_CONTEXT ( 3 ) GLOBAL_UNCERTAINTY_ASSIGNED_CONTEXT ( ( #576 ) ) GLOBAL_UNIT_ASSIGNED_CONTEXT ( ( #534, #877, #376 ) ) REPRESENTATION_CONTEXT ( 'NONE', 'WORKASPACE' ) );
#836 = ORIENTED_EDGE ( 'NONE', *, *, #1103, .F. ) ;
#837 = DIRECTION ( 'NONE',  ( 0.000000000000000000, 1.000000000000000000, 0.000000000000000000 ) ) ;
#838 = VERTEX_POINT ( 'NONE', #1002 ) ;
#839 = PRESENTATION_STYLE_ASSIGNMENT (( #923 ) ) ;
#840 = CARTESIAN_POINT ( 'NONE',  ( -28.19999999999999574, -3.118065567538826362E-15, 4.999999999999999112 ) ) ;
#841 = ADVANCED_FACE ( 'NONE', ( #662 ), #818, .F. ) ;
#842 = LINE ( 'NONE', #177, #519 ) ;
#843 = VERTEX_POINT ( 'NONE', #43 ) ;
#844 = B_SPLINE_CURVE_WITH_KNOTS ( 'NONE', 3,
 ( #280, #199, #207, #887 ),
 .UNSPECIFIED., .F., .F.,
 ( 4, 4 ),
 ( 0.002886982286055806389, 0.005773733632003931471 ),
 .UNSPECIFIED. ) ;
#845 = CARTESIAN_POINT ( 'NONE',  ( -28.19999999999999574, -2.366908268170247340E-15, 0.000000000000000000 ) ) ;
#846 = CARTESIAN_POINT ( 'NONE',  ( -33.20000000000000284, -4.330127018922196314, -2.499999999999998224 ) ) ;
#847 = EDGE_CURVE ( 'NONE', #1124, #797, #149, .T. ) ;
#848 = DIRECTION ( 'NONE',  ( 0.000000000000000000, -1.000000000000000000, 0.000000000000000000 ) ) ;
#849 = EDGE_LOOP ( 'NONE', ( #946, #855, #988, #410 ) ) ;
#850 = ADVANCED_FACE ( 'NONE', ( #733 ), #218, .F. ) ;
#851 = CARTESIAN_POINT ( 'NONE',  ( -28.48153195597501508, 2.886751345948132208, -4.999999999999997335 ) ) ;
#852 = VECTOR ( 'NONE', #972, 1000.000000000000000 ) ;
#853 = VECTOR ( 'NONE', #412, 1000.000000000000000 ) ;
#854 = DIRECTION ( 'NONE',  ( 1.000000000000000000, 0.000000000000000000, 0.000000000000000000 ) ) ;
#855 = ORIENTED_EDGE ( 'NONE', *, *, #335, .F. ) ;
#856 = CIRCLE ( 'NONE', #994, 4.999999999999997335 ) ;
#857 = AXIS2_PLACEMENT_3D ( 'NONE', #650, #577, #914 ) ;
#858 = DIRECTION ( 'NONE',  ( 0.000000000000000000, 0.000000000000000000, -1.000000000000000000 ) ) ;
#859 = CARTESIAN_POINT ( 'NONE',  ( -37.43999999999999062, 0.000000000000000000, 0.000000000000000000 ) ) ;
#860 = ORIENTED_EDGE ( 'NONE', *, *, #807, .T. ) ;
#861 = CARTESIAN_POINT ( 'NONE',  ( -33.09358330463381748, -3.367876570272817283, 4.166666666666666075 ) ) ;
#862 = VERTEX_POINT ( 'NONE', #996 ) ;
#863 = ADVANCED_FACE ( 'NONE', ( #644 ), #656, .T. ) ;
#864 = CARTESIAN_POINT ( 'NONE',  ( -32.91846804402497639, 2.886751345948131764, 5.000000000000000000 ) ) ;
#865 = ADVANCED_FACE ( 'NONE', ( #49 ), #584, .F. ) ;
#866 = CARTESIAN_POINT ( 'NONE',  ( -33.20000000000000284, 4.999999999999994671, 0.000000000000000000 ) ) ;
#867 = CARTESIAN_POINT ( 'NONE',  ( -28.19999999999999574, 4.330127018922195425, 2.500000000000001332 ) ) ;
#868 = FACE_OUTER_BOUND ( 'NONE', #876, .T. ) ;
#869 = ORIENTED_EDGE ( 'NONE', *, *, #629, .F. ) ;
#870 = APPLICATION_CONTEXT ( 'automotive_design' ) ;
#871 = CARTESIAN_POINT ( 'NONE',  ( -38.00000000000000000, 0.000000000000000000, 0.000000000000000000 ) ) ;
#872 = DIRECTION ( 'NONE',  ( 0.000000000000000000, 0.000000000000000000, -1.000000000000000000 ) ) ;
#873 = AXIS2_PLACEMENT_3D ( 'NONE', #537, #520, #182 ) ;
#874 = ORIENTED_EDGE ( 'NONE', *, *, #1025, .F. ) ;
#875 = STYLED_ITEM ( 'NONE', ( #839 ), #470 ) ;
#876 = EDGE_LOOP ( 'NONE', ( #860, #56, #320 ) ) ;
#877 =( NAMED_UNIT ( * ) PLANE_ANGLE_UNIT ( ) SI_UNIT ( $, .RADIAN. ) );
#878 = AXIS2_PLACEMENT_3D ( 'NONE', #72, #508, #947 ) ;
#879 = DIRECTION ( 'NONE',  ( 0.000000000000000000, 0.000000000000000000, -1.000000000000000000 ) ) ;
#880 = AXIS2_PLACEMENT_3D ( 'NONE', #74, #1121, #848 ) ;
#881 = FACE_OUTER_BOUND ( 'NONE', #665, .T. ) ;
#882 = ORIENTED_EDGE ( 'NONE', *, *, #811, .F. ) ;
#883 = ORIENTED_EDGE ( 'NONE', *, *, #503, .F. ) ;
#884 = CARTESIAN_POINT ( 'NONE',  ( -32.91846804402497639, -5.773502691896257311, 5.281701249156952622E-16 ) ) ;
#885 = B_SPLINE_CURVE_WITH_KNOTS ( 'NONE', 3,
 ( #297, #806, #731, #720 ),
 .UNSPECIFIED., .F., .F.,
 ( 4, 4 ),
 ( 2.309401076764435223E-07, 0.002886982286055806389 ),
 .UNSPECIFIED. ) ;
#886 = B_SPLINE_CURVE_WITH_KNOTS ( 'NONE', 3,
 ( #180, #446, #688, #523 ),
 .UNSPECIFIED., .F., .F.,
 ( 4, 4 ),
 ( 2.309401076757838160E-07, 0.002886982286055802052 ),
 .UNSPECIFIED. ) ;
#887 = CARTESIAN_POINT ( 'NONE',  ( -28.48153195597501508, 2.886751345948132208, -4.999999999999997335 ) ) ;
#888 = ORIENTED_EDGE ( 'NONE', *, *, #435, .T. ) ;
#889 = FACE_BOUND ( 'NONE', #117, .T. ) ;
#890 = VERTEX_POINT ( 'NONE', #478 ) ;
#891 = CARTESIAN_POINT ( 'NONE',  ( -28.22570962414504336, -0.9620188787175971701, 4.999999999999998224 ) ) ;
#892 = B_SPLINE_CURVE_WITH_KNOTS ( 'NONE', 3,
 ( #593, #861, #432, #767 ),
 .UNSPECIFIED., .F., .F.,
 ( 4, 4 ),
 ( 2.309401076754191683E-07, 0.002886982286055804654 ),
 .UNSPECIFIED. ) ;
#893 = AXIS2_PLACEMENT_3D ( 'NONE', #228, #62, #749 ) ;
#894 = VERTEX_POINT ( 'NONE', #814 ) ;
#895 = CARTESIAN_POINT ( 'NONE',  ( -37.43999999999999062, 0.000000000000000000, -2.999999999999997335 ) ) ;
#896 = LINE ( 'NONE', #369, #949 ) ;
#897 = AXIS2_PLACEMENT_3D ( 'NONE', #1030, #512, #611 ) ;
#898 = DIRECTION ( 'NONE',  ( 0.000000000000000000, 1.000000000000000000, 0.000000000000000000 ) ) ;
#899 = ORIENTED_EDGE ( 'NONE', *, *, #939, .T. ) ;
#900 = PLANE ( 'NONE',  #517 ) ;
#901 = ADVANCED_FACE ( 'NONE', ( #308 ), #375, .T. ) ;
#902 = ADVANCED_FACE ( 'NONE', ( #1083 ), #711, .T. ) ;
#903 = CARTESIAN_POINT ( 'NONE',  ( -22.00000000000000000, 1.658312395177695242, 2.500000000000000000 ) ) ;
#904 = SURFACE_STYLE_USAGE ( .BOTH. , #1063 ) ;
#905 = CARTESIAN_POINT ( 'NONE',  ( -33.20000000000000284, 4.811252243246882720, 1.666666666666668295 ) ) ;
#906 = CARTESIAN_POINT ( 'NONE',  ( -28.19999999999999929, 4.330127018922194537, -2.500000000000000888 ) ) ;
#907 = CARTESIAN_POINT ( 'NONE',  ( -32.91846804402497639, 2.886751345948132208, -4.999999999999997335 ) ) ;
#908 = ORIENTED_EDGE ( 'NONE', *, *, #939, .F. ) ;
#909 = ADVANCED_FACE ( 'NONE', ( #315 ), #468, .T. ) ;
#910 = CARTESIAN_POINT ( 'NONE',  ( -16.00000000000000000, 1.658312395177695242, 2.500000000000000000 ) ) ;
#911 =( NAMED_UNIT ( * ) PLANE_ANGLE_UNIT ( ) SI_UNIT ( $, .RADIAN. ) );
#912 = VECTOR ( 'NONE', #458, 1000.000000000000000 ) ;
#913 = AXIS2_PLACEMENT_3D ( 'NONE', #1015, #491, #829 ) ;
#914 = DIRECTION ( 'NONE',  ( 0.000000000000000000, -1.000000000000000000, 0.000000000000000000 ) ) ;
#915 = ORIENTED_EDGE ( 'NONE', *, *, #451, .T. ) ;
#916 = SURFACE_SIDE_STYLE ('',( #484 ) ) ;
#917 = CARTESIAN_POINT ( 'NONE',  ( -28.30641669536617755, 5.292377467571570904, 0.8333333333333343695 ) ) ;
#918 = DIRECTION ( 'NONE',  ( 0.000000000000000000, 1.000000000000000000, 0.000000000000000000 ) ) ;
#919 = EDGE_LOOP ( 'NONE', ( #899, #433, #306, #1104, #415, #500 ) ) ;
#920 = CARTESIAN_POINT ( 'NONE',  ( -28.30641669536617755, -5.292377467571570016, -0.8333333333333323711 ) ) ;
#921 = ORIENTED_EDGE ( 'NONE', *, *, #937, .T. ) ;
#922 =( NAMED_UNIT ( * ) SI_UNIT ( $, .STERADIAN. ) SOLID_ANGLE_UNIT ( ) );
#923 = SURFACE_STYLE_USAGE ( .BOTH. , #1024 ) ;
#924 =( NAMED_UNIT ( * ) SI_UNIT ( $, .STERADIAN. ) SOLID_ANGLE_UNIT ( ) );
#925 = CARTESIAN_POINT ( 'NONE',  ( -22.00000000000000000, 3.673940397442056417E-16, -2.999999999999997335 ) ) ;
#926 = DIRECTION ( 'NONE',  ( 0.000000000000000000, -0.8660254037844387076, -0.4999999999999998335 ) ) ;
#927 = EDGE_LOOP ( 'NONE', ( #19, #88, #869 ) ) ;
#928 = CARTESIAN_POINT ( 'NONE',  ( -16.00000000000000000, 0.000000000000000000, 0.000000000000000000 ) ) ;
#929 = AXIS2_PLACEMENT_3D ( 'NONE', #637, #993, #290 ) ;
#930 = EDGE_CURVE ( 'NONE', #400, #270, #486, .T. ) ;
#931 = CARTESIAN_POINT ( 'NONE',  ( -33.20000000000000284, -0.4807835041835030743, -4.999999999999999112 ) ) ;
#932 = COLOUR_RGB ( '',1.000000000000000000, 1.000000000000000000, 1.000000000000000000 ) ;
#933 = ORIENTED_EDGE ( 'NONE', *, *, #582, .F. ) ;
#934 = LINE ( 'NONE', #506, #639 ) ;
#935 = EDGE_LOOP ( 'NONE', ( #760, #190, #1059, #809 ) ) ;
#936 = DIRECTION ( 'NONE',  ( 0.000000000000000000, 1.000000000000000000, 0.000000000000000000 ) ) ;
#937 = EDGE_CURVE ( 'NONE', #259, #316, #763, .T. ) ;
#938 = CARTESIAN_POINT ( 'NONE',  ( -33.20000000000000284, -8.673617379884035472E-16, -4.999999999999998224 ) ) ;
#939 = EDGE_CURVE ( 'NONE', #890, #1117, #65, .T. ) ;
#940 = LINE ( 'NONE', #773, #1097 ) ;
#941 = EDGE_LOOP ( 'NONE', ( #102, #274, #507 ) ) ;
#942 = B_SPLINE_CURVE_WITH_KNOTS ( 'NONE', 3,
 ( #907, #1109, #1037, #160 ),
 .UNSPECIFIED., .F., .F.,
 ( 4, 4 ),
 ( 2.309401076754191683E-07, 0.002886982286055799450 ),
 .UNSPECIFIED. ) ;
#943 = DIRECTION ( 'NONE',  ( 0.000000000000000000, 1.000000000000000000, 0.000000000000000000 ) ) ;
#944 = DIRECTION ( 'NONE',  ( 1.000000000000000000, -0.000000000000000000, -0.000000000000000000 ) ) ;
#945 = DIRECTION ( 'NONE',  ( -1.000000000000000000, -0.000000000000000000, -0.000000000000000000 ) ) ;
#946 = ORIENTED_EDGE ( 'NONE', *, *, #1102, .F. ) ;
#947 = DIRECTION ( 'NONE',  ( 0.000000000000000000, 0.000000000000000000, -1.000000000000000000 ) ) ;
#948 = CARTESIAN_POINT ( 'NONE',  ( -33.20000000000000284, -3.285062858331646804E-15, 4.999999999999999112 ) ) ;
#949 = VECTOR ( 'NONE', #553, 1000.000000000000000 ) ;
#950 = EDGE_CURVE ( 'NONE', #894, #620, #998, .T. ) ;
#951 = EDGE_CURVE ( 'NONE', #862, #633, #640, .T. ) ;
#952 = CARTESIAN_POINT ( 'NONE',  ( -28.48153195597501508, -2.886751345948130876, -5.000000000000000000 ) ) ;
#953 = ORIENTED_EDGE ( 'NONE', *, *, #255, .F. ) ;
#954 = CIRCLE ( 'NONE', #466, 4.999999999999997335 ) ;
#955 = CARTESIAN_POINT ( 'NONE',  ( -28.19999999999999574, -4.811252243246880944, 1.666666666666665186 ) ) ;
#956 = EDGE_LOOP ( 'NONE', ( #233, #706, #609 ) ) ;
#957 = CARTESIAN_POINT ( 'NONE',  ( -28.39450680455724552, -2.408552069058236711, -4.999999999999999112 ) ) ;
#958 = ORIENTED_EDGE ( 'NONE', *, *, #42, .T. ) ;
#959 = LINE ( 'NONE', #595, #137 ) ;
#960 = CARTESIAN_POINT ( 'NONE',  ( -16.00000000000000000, 0.000000000000000000, 2.999999999999997335 ) ) ;
#961 = B_SPLINE_CURVE_WITH_KNOTS ( 'NONE', 3,
 ( #384, #719, #473, #884 ),
 .UNSPECIFIED., .F., .F.,
 ( 4, 4 ),
 ( 0.002886982286055804654, 0.005773733632003932338 ),
 .UNSPECIFIED. ) ;
#962 = CARTESIAN_POINT ( 'NONE',  ( -22.00000000000000000, 5.773502691896259087, 2.500000000000000888 ) ) ;
#963 =( NAMED_UNIT ( * ) SI_UNIT ( $, .STERADIAN. ) SOLID_ANGLE_UNIT ( ) );
#964 = VERTEX_POINT ( 'NONE', #393 ) ;
#965 = UNCERTAINTY_MEASURE_WITH_UNIT (LENGTH_MEASURE( 1.000000000000000082E-05 ), #406, 'distance_accuracy_value', 'NONE');
#966 = SURFACE_SIDE_STYLE ('',( #24 ) ) ;
#967 = EDGE_CURVE ( 'NONE', #1117, #259, #942, .T. ) ;
#968 = COLOUR_RGB ( '',1.000000000000000000, 1.000000000000000000, 1.000000000000000000 ) ;
#969 = DIRECTION ( 'NONE',  ( 0.000000000000000000, 1.502314598737158538E-16, -1.000000000000000000 ) ) ;
#970 = VERTEX_POINT ( 'NONE', #563 ) ;
#971 = AXIS2_PLACEMENT_3D ( 'NONE', #541, #367, #981 ) ;
#972 = DIRECTION ( 'NONE',  ( -1.000000000000000000, -0.000000000000000000, -0.000000000000000000 ) ) ;
#973 = EDGE_CURVE ( 'NONE', #785, #1077, #940, .T. ) ;
#974 = EDGE_CURVE ( 'NONE', #316, #894, #842, .T. ) ;
#975 = ORIENTED_EDGE ( 'NONE', *, *, #618, .F. ) ;
#976 = CARTESIAN_POINT ( 'NONE',  ( -37.43999999999999062, 0.000000000000000000, 0.000000000000000000 ) ) ;
#977 = ORIENTED_EDGE ( 'NONE', *, *, #530, .F. ) ;
#978 = LINE ( 'NONE', #631, #852 ) ;
#979 = DIRECTION ( 'NONE',  ( 0.000000000000000000, 0.4999999999999998335, 0.8660254037844387076 ) ) ;
#980 = ORIENTED_EDGE ( 'NONE', *, *, #47, .T. ) ;
#981 = DIRECTION ( 'NONE',  ( 0.000000000000000000, 0.000000000000000000, 1.000000000000000000 ) ) ;
#982 = ORIENTED_EDGE ( 'NONE', *, *, #726, .F. ) ;
#983 = CARTESIAN_POINT ( 'NONE',  ( -28.19999999999999929, -0.4807835041833691259, 4.999999999999997335 ) ) ;
#984 = DIRECTION ( 'NONE',  ( 0.000000000000000000, 1.000000000000000000, 0.000000000000000000 ) ) ;
#985 = AXIS2_PLACEMENT_3D ( 'NONE', #583, #154, #498 ) ;
#986 = EDGE_CURVE ( 'NONE', #259, #894, #17, .T. ) ;
#987 = MECHANICAL_DESIGN_GEOMETRIC_PRESENTATION_REPRESENTATION (  '', ( #796 ), #1111 ) ;
#988 = ORIENTED_EDGE ( 'NONE', *, *, #38, .T. ) ;
#989 = EDGE_CURVE ( 'NONE', #614, #417, #262, .T. ) ;
#990 = B_SPLINE_CURVE_WITH_KNOTS ( 'NONE', 3,
 ( #51, #479, #917, #310 ),
 .UNSPECIFIED., .F., .F.,
 ( 4, 4 ),
 ( 0.002886982286055802486, 0.005773733632003931471 ),
 .UNSPECIFIED. ) ;
#991 = DIRECTION ( 'NONE',  ( 0.000000000000000000, 0.000000000000000000, -1.000000000000000000 ) ) ;
#992 = ORIENTED_EDGE ( 'NONE', *, *, #386, .F. ) ;
#993 = DIRECTION ( 'NONE',  ( 1.000000000000000000, -0.000000000000000000, -0.000000000000000000 ) ) ;
#994 = AXIS2_PLACEMENT_3D ( 'NONE', #234, #317, #1088 ) ;
#995 = AXIS2_PLACEMENT_3D ( 'NONE', #1125, #759, #93 ) ;
#996 = CARTESIAN_POINT ( 'NONE',  ( 75.00000000000001421, 3.673940397442058882E-16, -2.999999999999999556 ) ) ;
#997 = DIRECTION ( 'NONE',  ( -1.000000000000000000, -3.339945815856412403E-17, 0.000000000000000000 ) ) ;
#998 = B_SPLINE_CURVE_WITH_KNOTS ( 'NONE', 3,
 ( #213, #560, #905, #39 ),
 .UNSPECIFIED., .F., .F.,
 ( 4, 4 ),
 ( 2.309401076758362791E-07, 0.002886982286055805522 ),
 .UNSPECIFIED. ) ;
#999 = CARTESIAN_POINT ( 'NONE',  ( -28.19999999999999574, -8.645936694330896891E-16, -4.999999999999998224 ) ) ;
#1000 = DIRECTION ( 'NONE',  ( 1.000000000000000000, 3.339945815856412403E-17, -0.000000000000000000 ) ) ;
#1001 = CIRCLE ( 'NONE', #191, 2.439999999999983959 ) ;
#1002 = CARTESIAN_POINT ( 'NONE',  ( -28.19999999999999574, -4.330127018922196314, -2.499999999999998224 ) ) ;
#1003 = VERTEX_POINT ( 'NONE', #349 ) ;
#1004 = FILL_AREA_STYLE ('',( #740 ) ) ;
#1005 = DIRECTION ( 'NONE',  ( 0.000000000000000000, 0.000000000000000000, 1.000000000000000000 ) ) ;
#1006 = ORIENTED_EDGE ( 'NONE', *, *, #986, .F. ) ;
#1007 = CIRCLE ( 'NONE', #450, 4.999999999999997335 ) ;
#1008 = VECTOR ( 'NONE', #305, 1000.000000000000000 ) ;
#1009 = UNCERTAINTY_MEASURE_WITH_UNIT (LENGTH_MEASURE( 1.000000000000000082E-05 ), #1047, 'distance_accuracy_value', 'NONE');
#1010 =( GEOMETRIC_REPRESENTATION_CONTEXT ( 3 ) GLOBAL_UNCERTAINTY_ASSIGNED_CONTEXT ( ( #497 ) ) GLOBAL_UNIT_ASSIGNED_CONTEXT ( ( #144, #40, #922 ) ) REPRESENTATION_CONTEXT ( 'NONE', 'WORKASPACE' ) );
#1011 = CARTESIAN_POINT ( 'NONE',  ( -33.20000000000000284, -2.533905558963067781E-15, 0.000000000000000000 ) ) ;
#1012 = ORIENTED_EDGE ( 'NONE', *, *, #930, .T. ) ;
#1013 = DIRECTION ( 'NONE',  ( 0.000000000000000000, 0.000000000000000000, -1.000000000000000000 ) ) ;
#1014 =( LENGTH_UNIT ( ) NAMED_UNIT ( * ) SI_UNIT ( .MILLI., .METRE. ) );
#1015 = CARTESIAN_POINT ( 'NONE',  ( -33.20000000000000284, -2.533905558963067781E-15, 0.000000000000000000 ) ) ;
#1016 = ADVANCED_FACE ( 'NONE', ( #686 ), #258, .F. ) ;
#1017 = ORIENTED_EDGE ( 'NONE', *, *, #298, .F. ) ;
#1018 = CARTESIAN_POINT ( 'NONE',  ( -33.20000000000000284, 3.849001794597507686, 3.333333333333334370 ) ) ;
#1019 = DIRECTION ( 'NONE',  ( 1.000000000000000000, 0.000000000000000000, 0.000000000000000000 ) ) ;
#1020 = VERTEX_POINT ( 'NONE', #754 ) ;
#1021 = EDGE_CURVE ( 'NONE', #822, #785, #230, .T. ) ;
#1022 = UNCERTAINTY_MEASURE_WITH_UNIT (LENGTH_MEASURE( 1.000000000000000082E-05 ), #1014, 'distance_accuracy_value', 'NONE');
#1023 = MECHANICAL_DESIGN_GEOMETRIC_PRESENTATION_REPRESENTATION (  '', ( #875 ), #621 ) ;
#1024 = SURFACE_SIDE_STYLE ('',( #1055 ) ) ;
#1025 = EDGE_CURVE ( 'NONE', #964, #7, #892, .T. ) ;
#1026 = CIRCLE ( 'NONE', #372, 4.999999999999997335 ) ;
#1027 = CARTESIAN_POINT ( 'NONE',  ( -16.00000000000000000, 5.773502691896259087, 2.500000000000000888 ) ) ;
#1028 = ORIENTED_EDGE ( 'NONE', *, *, #967, .F. ) ;
#1029 = CIRCLE ( 'NONE', #377, 2.999999999999997335 ) ;
#1030 = CARTESIAN_POINT ( 'NONE',  ( -33.20000000000000284, -2.533905558963067781E-15, 0.000000000000000000 ) ) ;
#1031 = CARTESIAN_POINT ( 'NONE',  ( -32.91846804402497639, -2.886751345948129543, 4.999999999999999112 ) ) ;
#1032 = CARTESIAN_POINT ( 'NONE',  ( -22.00000000000000000, -1.658312395177694798, -2.500000000000000444 ) ) ;
#1033 = ORIENTED_EDGE ( 'NONE', *, *, #151, .F. ) ;
#1034 = FACE_OUTER_BOUND ( 'NONE', #276, .T. ) ;
#1035 = CARTESIAN_POINT ( 'NONE',  ( -28.19999999999999574, -3.849001794597506798, -3.333333333333331705 ) ) ;
#1036 = B_SPLINE_CURVE_WITH_KNOTS ( 'NONE', 3,
 ( #1101, #311, #248, #322, #931, #938 ),
 .UNSPECIFIED., .F., .F.,
 ( 4, 2, 4 ),
 ( 0.005007494471719499754, 0.006462840675893761176, 0.007918186880068022598 ),
 .UNSPECIFIED. ) ;
#1037 = CARTESIAN_POINT ( 'NONE',  ( -33.20000000000000284, 3.849001794597506354, -3.333333333333333925 ) ) ;
#1038 = ORIENTED_EDGE ( 'NONE', *, *, #776, .T. ) ;
#1039 = PLANE ( 'NONE',  #605 ) ;
#1040 = AXIS2_PLACEMENT_3D ( 'NONE', #673, #757, #1113 ) ;
#1041 = ORIENTED_EDGE ( 'NONE', *, *, #503, .T. ) ;
#1042 = CARTESIAN_POINT ( 'NONE',  ( -33.20000000000000284, 4.811252243246880944, -1.666666666666668073 ) ) ;
#1043 = ORIENTED_EDGE ( 'NONE', *, *, #645, .T. ) ;
#1044 = DIRECTION ( 'NONE',  ( 1.000000000000000000, 0.000000000000000000, 0.000000000000000000 ) ) ;
#1045 = CARTESIAN_POINT ( 'NONE',  ( -28.19999999999999574, -4.330127018922196314, -2.499999999999998224 ) ) ;
#1046 = ORIENTED_EDGE ( 'NONE', *, *, #812, .T. ) ;
#1047 =( LENGTH_UNIT ( ) NAMED_UNIT ( * ) SI_UNIT ( .MILLI., .METRE. ) );
#1048 = ORIENTED_EDGE ( 'NONE', *, *, #776, .F. ) ;
#1049 = ADVANCED_FACE ( 'NONE', ( #183 ), #250, .T. ) ;
#1050 = CARTESIAN_POINT ( 'NONE',  ( -33.20000000000000284, -2.533905558963067781E-15, 0.000000000000000000 ) ) ;
#1051 = CARTESIAN_POINT ( 'NONE',  ( -22.00000000000000000, -1.658312395177695686, 2.500000000000000000 ) ) ;
#1052 = EDGE_LOOP ( 'NONE', ( #287, #351, #511, #908, #1090, #281 ) ) ;
#1053 = CARTESIAN_POINT ( 'NONE',  ( -16.00000000000000000, 5.773502691896259087, -2.499999999999998668 ) ) ;
#1054 = ADVANCED_FACE ( 'NONE', ( #443 ), #669, .F. ) ;
#1055 = SURFACE_STYLE_FILL_AREA ( #701 ) ;
#1056 = ADVANCED_FACE ( 'NONE', ( #868 ), #526, .T. ) ;
#1057 = VECTOR ( 'NONE', #596, 1000.000000000000000 ) ;
#1058 = CARTESIAN_POINT ( 'NONE',  ( -30.69999999999999574, -2.450406913566657561E-15, 0.000000000000000000 ) ) ;
#1059 = ORIENTED_EDGE ( 'NONE', *, *, #255, .T. ) ;
#1060 = CARTESIAN_POINT ( 'NONE',  ( -22.00000000000000000, 0.000000000000000000, 0.000000000000000000 ) ) ;
#1061 = AXIS2_PLACEMENT_3D ( 'NONE', #817, #729, #573 ) ;
#1062 = CARTESIAN_POINT ( 'NONE',  ( -33.09306968853544362, 1.927323194563838937, -4.999999999999997335 ) ) ;
#1063 = SURFACE_SIDE_STYLE ('',( #370 ) ) ;
#1064 = ORIENTED_EDGE ( 'NONE', *, *, #11, .T. ) ;
#1065 = DIRECTION ( 'NONE',  ( 1.000000000000000000, 0.000000000000000000, 0.000000000000000000 ) ) ;
#1066 = CARTESIAN_POINT ( 'NONE',  ( -28.32296715990919012, -1.925295277955308526, 5.000000000000000000 ) ) ;
#1067 = EDGE_CURVE ( 'NONE', #83, #894, #1116, .T. ) ;
#1068 = EDGE_CURVE ( 'NONE', #44, #679, #934, .T. ) ;
#1069 = ORIENTED_EDGE ( 'NONE', *, *, #147, .T. ) ;
#1070 = CARTESIAN_POINT ( 'NONE',  ( -28.19999999999999929, -5.773502691896257311, 2.665728326656911426E-18 ) ) ;
#1071 = EDGE_LOOP ( 'NONE', ( #437, #439, #457, #1086 ) ) ;
#1072 = CARTESIAN_POINT ( 'NONE',  ( -22.00000000000000000, 1.658312395177694798, 2.500000000000000444 ) ) ;
#1073 = DIRECTION ( 'NONE',  ( 0.000000000000000000, 0.8660254037844387076, -0.4999999999999998335 ) ) ;
#1074 = AXIS2_PLACEMENT_3D ( 'NONE', #588, #1000, #918 ) ;
#1075 = CIRCLE ( 'NONE', #685, 4.999999999999997335 ) ;
#1076 = LINE ( 'NONE', #895, #912 ) ;
#1077 = VERTEX_POINT ( 'NONE', #1105 ) ;
#1078 = PRODUCT_CONTEXT ( 'NONE', #141, 'mechanical' ) ;
#1079 = CARTESIAN_POINT ( 'NONE',  ( -28.48153195597500087, -2.886751345948140646, 4.999999999999999112 ) ) ;
#1080 = CIRCLE ( 'NONE', #175, 2.999999999999997335 ) ;
#1081 = PRODUCT_RELATED_PRODUCT_CATEGORY ( 'part', '', ( #385 ) ) ;
#1082 = COLOUR_RGB ( '',1.000000000000000000, 1.000000000000000000, 1.000000000000000000 ) ;
#1083 = FACE_OUTER_BOUND ( 'NONE', #362, .T. ) ;
#1084 = CARTESIAN_POINT ( 'NONE',  ( -22.00000000000000000, 3.673940397442056417E-16, -2.999999999999997335 ) ) ;
#1085 = CARTESIAN_POINT ( 'NONE',  ( -16.00000000000000000, 5.773502691896259087, 2.500000000000000888 ) ) ;
#1086 = ORIENTED_EDGE ( 'NONE', *, *, #472, .F. ) ;
#1087 = SURFACE_STYLE_USAGE ( .BOTH. , #916 ) ;
#1088 = DIRECTION ( 'NONE',  ( 0.000000000000000000, 1.000000000000000000, 0.000000000000000000 ) ) ;
#1089 = DIRECTION ( 'NONE',  ( 0.000000000000000000, 0.000000000000000000, -1.000000000000000000 ) ) ;
#1090 = ORIENTED_EDGE ( 'NONE', *, *, #629, .T. ) ;
#1091 = AXIS2_PLACEMENT_3D ( 'NONE', #642, #997, #561 ) ;
#1092 = DIRECTION ( 'NONE',  ( -1.000000000000000000, -0.000000000000000000, -0.000000000000000000 ) ) ;
#1093 = ORIENTED_EDGE ( 'NONE', *, *, #11, .F. ) ;
#1094 = APPLICATION_PROTOCOL_DEFINITION ( 'draft international standard', 'automotive_design', 1998, #870 ) ;
#1095 =( NAMED_UNIT ( * ) SI_UNIT ( $, .STERADIAN. ) SOLID_ANGLE_UNIT ( ) );
#1096 = CIRCLE ( 'NONE', #538, 4.999999999999997335 ) ;
#1097 = VECTOR ( 'NONE', #674, 1000.000000000000000 ) ;
#1098 = CARTESIAN_POINT ( 'NONE',  ( -33.20000000000000284, -2.533905558963067781E-15, 0.000000000000000000 ) ) ;
#1099 = ORIENTED_EDGE ( 'NONE', *, *, #231, .T. ) ;
#1100 = DIRECTION ( 'NONE',  ( 0.000000000000000000, 0.000000000000000000, -1.000000000000000000 ) ) ;
#1101 = CARTESIAN_POINT ( 'NONE',  ( -32.91846804402499060, -2.886751345948141534, -4.999999999999999112 ) ) ;
#1102 = EDGE_CURVE ( 'NONE', #546, #1003, #342, .T. ) ;
#1103 = EDGE_CURVE ( 'NONE', #804, #797, #1029, .T. ) ;
#1104 = ORIENTED_EDGE ( 'NONE', *, *, #1067, .F. ) ;
#1105 = CARTESIAN_POINT ( 'NONE',  ( -32.91846804402499060, -2.886751345948141534, -4.999999999999999112 ) ) ;
#1106 = EDGE_LOOP ( 'NONE', ( #626, #48, #374 ) ) ;
#1107 = FACE_BOUND ( 'NONE', #1126, .T. ) ;
#1108 = DIRECTION ( 'NONE',  ( -0.000000000000000000, 1.000000000000000000, 2.253471898105739040E-16 ) ) ;
#1109 = CARTESIAN_POINT ( 'NONE',  ( -33.09358330463381748, 3.367876570272819059, -4.166666666666666075 ) ) ;
#1110 = VERTEX_POINT ( 'NONE', #168 ) ;
#1111 =( GEOMETRIC_REPRESENTATION_CONTEXT ( 3 ) GLOBAL_UNCERTAINTY_ASSIGNED_CONTEXT ( ( #965 ) ) GLOBAL_UNIT_ASSIGNED_CONTEXT ( ( #406, #413, #924 ) ) REPRESENTATION_CONTEXT ( 'NONE', 'WORKASPACE' ) );
#1112 = DIRECTION ( 'NONE',  ( 0.000000000000000000, -1.000000000000000000, 0.000000000000000000 ) ) ;
#1113 = DIRECTION ( 'NONE',  ( 0.000000000000000000, 0.000000000000000000, 1.000000000000000000 ) ) ;
#1114 = AXIS2_PLACEMENT_3D ( 'NONE', #696, #186, #528 ) ;
#1115 = VECTOR ( 'NONE', #854, 1000.000000000000000 ) ;
#1116 = LINE ( 'NONE', #330, #337 ) ;
#1117 = VERTEX_POINT ( 'NONE', #589 ) ;
#1118 = VECTOR ( 'NONE', #324, 1000.000000000000000 ) ;
#1119 = CARTESIAN_POINT ( 'NONE',  ( -28.30641669536617400, -5.292377467571569127, 0.8333333333333328152 ) ) ;
#1120 = CARTESIAN_POINT ( 'NONE',  ( -28.48153195597501508, -2.886751345948130876, -5.000000000000000000 ) ) ;
#1121 = DIRECTION ( 'NONE',  ( -1.000000000000000000, -3.339945815856412403E-17, 0.000000000000000000 ) ) ;
#1122 = ORIENTED_EDGE ( 'NONE', *, *, #766, .F. ) ;
#1123 = FACE_OUTER_BOUND ( 'NONE', #71, .T. ) ;
#1124 = VERTEX_POINT ( 'NONE', #251 ) ;
#1125 = CARTESIAN_POINT ( 'NONE',  ( -22.00000000000000000, 8.673617379884035472E-16, 4.336808689942017736E-16 ) ) ;
#1126 = EDGE_LOOP ( 'NONE', ( #958, #252 ) ) ;
ENDSEC;
END-ISO-10303-21;
