ISO-10303-21;
HEADER;
FILE_DESCRIPTION (( 'STEP AP214' ),
    '1' );
FILE_NAME ('17x26t5.step',
    '2023-08-15T03:01:05',
    ( '' ),
    ( '' ),
    'SwSTEP 2.0',
    'SolidWorks 2022',
    '' );
FILE_SCHEMA (( 'AUTOMOTIVE_DESIGN' ));
ENDSEC;

DATA;
#1 = FILL_AREA_STYLE ('',( #196 ) ) ;
#2 = CARTESIAN_POINT ( 'NONE',  ( 0.000000000000000000, 0.000000000000000000, 5.000000000000000000 ) ) ;
#3 = ORIENTED_EDGE ( 'NONE', *, *, #377, .F. ) ;
#4 = AXIS2_PLACEMENT_3D ( 'NONE', #207, #391, #296 ) ;
#5 = ADVANCED_FACE ( 'NONE', ( #323 ), #221, .F. ) ;
#6 = ADVANCED_FACE ( 'NONE', ( #159 ), #38, .F. ) ;
#7 = EDGE_LOOP ( 'NONE', ( #112, #381, #136, #327 ) ) ;
#8 = ADVANCED_FACE ( 'NONE', ( #288, #101 ), #35, .F. ) ;
#9 = CYLINDRICAL_SURFACE ( 'NONE', #114, 13.00000000000000178 ) ;
#10 = ORIENTED_EDGE ( 'NONE', *, *, #219, .T. ) ;
#11 = DIRECTION ( 'NONE',  ( -0.000000000000000000, -0.000000000000000000, -1.000000000000000000 ) ) ;
#12 = ORIENTED_EDGE ( 'NONE', *, *, #144, .T. ) ;
#13 =( GEOMETRIC_REPRESENTATION_CONTEXT ( 3 ) GLOBAL_UNCERTAINTY_ASSIGNED_CONTEXT ( ( #104 ) ) GLOBAL_UNIT_ASSIGNED_CONTEXT ( ( #395, #43, #167 ) ) REPRESENTATION_CONTEXT ( 'NONE', 'WORKASPACE' ) );
#14 = SURFACE_STYLE_FILL_AREA ( #236 ) ;
#15 = EDGE_LOOP ( 'NONE', ( #387, #128, #70, #67 ) ) ;
#16 = CARTESIAN_POINT ( 'NONE',  ( 9.000000000000001776, 1.102182119232617911E-15, 0.000000000000000000 ) ) ;
#17 = PRODUCT_DEFINITION ( 'Î´Öª', '', #218, #23 ) ;
#18 = DIRECTION ( 'NONE',  ( -0.000000000000000000, -0.000000000000000000, -1.000000000000000000 ) ) ;
#19 = DIRECTION ( 'NONE',  ( -0.000000000000000000, -0.000000000000000000, -1.000000000000000000 ) ) ;
#20 = CIRCLE ( 'NONE', #55, 9.000000000000001776 ) ;
#21 = DIRECTION ( 'NONE',  ( 1.000000000000000000, 0.000000000000000000, 0.000000000000000000 ) ) ;
#22 = CARTESIAN_POINT ( 'NONE',  ( 8.500000000000001776, 0.000000000000000000, 4.500000000000000000 ) ) ;
#23 = PRODUCT_DEFINITION_CONTEXT ( 'detailed design', #51, 'design' ) ;
#24 = CARTESIAN_POINT ( 'NONE',  ( -8.500000000000001776, 0.000000000000000000, 0.5000000000000038858 ) ) ;
#25 = PRODUCT_DEFINITION_SHAPE ( 'NONE', 'NONE',  #17 ) ;
#26 = CONICAL_SURFACE ( 'NONE', #48, 8.500000000000001776, 0.7853981633974536081 ) ;
#27 = DIRECTION ( 'NONE',  ( 1.000000000000000000, 0.000000000000000000, 0.000000000000000000 ) ) ;
#28 = CARTESIAN_POINT ( 'NONE',  ( -9.000000000000007105, 1.102182119232618700E-15, 5.000000000000000000 ) ) ;
#29 = EDGE_CURVE ( 'NONE', #98, #316, #41, .T. ) ;
#30 = CARTESIAN_POINT ( 'NONE',  ( 9.000000000000007105, 0.000000000000000000, 5.000000000000000000 ) ) ;
#31 = EDGE_LOOP ( 'NONE', ( #33, #349 ) ) ;
#32 =( GEOMETRIC_REPRESENTATION_CONTEXT ( 3 ) GLOBAL_UNCERTAINTY_ASSIGNED_CONTEXT ( ( #283 ) ) GLOBAL_UNIT_ASSIGNED_CONTEXT ( ( #193, #251, #63 ) ) REPRESENTATION_CONTEXT ( 'NONE', 'WORKASPACE' ) );
#33 = ORIENTED_EDGE ( 'NONE', *, *, #188, .T. ) ;
#34 = DIRECTION ( 'NONE',  ( 1.000000000000000000, 0.000000000000000000, 0.000000000000000000 ) ) ;
#35 = PLANE ( 'NONE',  #332 ) ;
#36 = ORIENTED_EDGE ( 'NONE', *, *, #182, .T. ) ;
#37 = DIRECTION ( 'NONE',  ( 1.000000000000000000, 0.000000000000000000, 0.000000000000000000 ) ) ;
#38 = CYLINDRICAL_SURFACE ( 'NONE', #243, 8.500000000000001776 ) ;
#39 = ORIENTED_EDGE ( 'NONE', *, *, #153, .T. ) ;
#40 = AXIS2_PLACEMENT_3D ( 'NONE', #181, #245, #180 ) ;
#41 = LINE ( 'NONE', #162, #382 ) ;
#42 = ORIENTED_EDGE ( 'NONE', *, *, #233, .F. ) ;
#43 =( NAMED_UNIT ( * ) PLANE_ANGLE_UNIT ( ) SI_UNIT ( $, .RADIAN. ) );
#44 = ORIENTED_EDGE ( 'NONE', *, *, #255, .T. ) ;
#45 = CARTESIAN_POINT ( 'NONE',  ( 13.00000000000000178, 1.592040838891559293E-15, 4.500000000000003553 ) ) ;
#46 = VERTEX_POINT ( 'NONE', #187 ) ;
#47 = CLOSED_SHELL ( 'NONE', ( #50, #230, #287, #266, #6, #224, #338, #8, #68, #5, #92, #352, #373, #60 ) ) ;
#48 = AXIS2_PLACEMENT_3D ( 'NONE', #120, #343, #214 ) ;
#49 = DIRECTION ( 'NONE',  ( 0.7071067811865487940, 0.000000000000000000, 0.7071067811865463515 ) ) ;
#50 = ADVANCED_FACE ( 'NONE', ( #248 ), #80, .T. ) ;
#51 = APPLICATION_CONTEXT ( 'automotive_design' ) ;
#52 = LINE ( 'NONE', #258, #303 ) ;
#53 = PLANE ( 'NONE',  #272 ) ;
#54 = DIRECTION ( 'NONE',  ( 0.000000000000000000, 0.000000000000000000, 1.000000000000000000 ) ) ;
#55 = AXIS2_PLACEMENT_3D ( 'NONE', #400, #344, #213 ) ;
#56 = CARTESIAN_POINT ( 'NONE',  ( 0.000000000000000000, 0.000000000000000000, 5.000000000000000000 ) ) ;
#57 = DIRECTION ( 'NONE',  ( -0.000000000000000000, -0.000000000000000000, -1.000000000000000000 ) ) ;
#58 = DIRECTION ( 'NONE',  ( -0.000000000000000000, -0.000000000000000000, -1.000000000000000000 ) ) ;
#59 = VECTOR ( 'NONE', #11, 1000.000000000000000 ) ;
#60 = ADVANCED_FACE ( 'NONE', ( #130 ), #183, .T. ) ;
#61 = DIRECTION ( 'NONE',  ( -0.000000000000000000, -0.000000000000000000, 1.000000000000000000 ) ) ;
#62 = DIRECTION ( 'NONE',  ( -1.000000000000000000, 0.000000000000000000, 0.000000000000000000 ) ) ;
#63 =( NAMED_UNIT ( * ) SI_UNIT ( $, .STERADIAN. ) SOLID_ANGLE_UNIT ( ) );
#64 = STYLED_ITEM ( 'NONE', ( #398 ), #172 ) ;
#65 = CARTESIAN_POINT ( 'NONE',  ( 0.000000000000000000, 0.000000000000000000, 4.500000000000000000 ) ) ;
#66 = ORIENTED_EDGE ( 'NONE', *, *, #310, .T. ) ;
#67 = ORIENTED_EDGE ( 'NONE', *, *, #208, .F. ) ;
#68 = ADVANCED_FACE ( 'NONE', ( #203 ), #9, .T. ) ;
#69 = DIRECTION ( 'NONE',  ( 1.000000000000000000, 0.000000000000000000, -0.000000000000000000 ) ) ;
#70 = ORIENTED_EDGE ( 'NONE', *, *, #121, .F. ) ;
#71 = EDGE_CURVE ( 'NONE', #379, #316, #289, .T. ) ;
#72 = VERTEX_POINT ( 'NONE', #45 ) ;
#73 = DIRECTION ( 'NONE',  ( -0.000000000000000000, -0.000000000000000000, -1.000000000000000000 ) ) ;
#74 = COLOUR_RGB ( '',0.5215686274509804266, 0.2431372549019607809, 0.9137254901960784048 ) ;
#75 = ORIENTED_EDGE ( 'NONE', *, *, #71, .F. ) ;
#76 = DIRECTION ( 'NONE',  ( 0.7071067811865426878, 8.659560562354873694E-17, -0.7071067811865524577 ) ) ;
#77 = LINE ( 'NONE', #137, #126 ) ;
#78 = ORIENTED_EDGE ( 'NONE', *, *, #174, .T. ) ;
#79 = LINE ( 'NONE', #145, #115 ) ;
#80 = CONICAL_SURFACE ( 'NONE', #308, 12.50000000000001066, 0.7853981633974415066 ) ;
#81 = CIRCLE ( 'NONE', #227, 9.000000000000007105 ) ;
#82 = EDGE_CURVE ( 'NONE', #413, #345, #396, .T. ) ;
#83 = DIRECTION ( 'NONE',  ( 0.000000000000000000, 0.000000000000000000, 1.000000000000000000 ) ) ;
#84 = FILL_AREA_STYLE_COLOUR ( '', #410 ) ;
#85 = DIRECTION ( 'NONE',  ( 1.000000000000000000, 0.000000000000000000, 0.000000000000000000 ) ) ;
#86 = DIRECTION ( 'NONE',  ( -1.000000000000000000, 0.000000000000000000, 0.000000000000000000 ) ) ;
#87 = FACE_BOUND ( 'NONE', #259, .T. ) ;
#88 = AXIS2_PLACEMENT_3D ( 'NONE', #276, #58, #86 ) ;
#89 = UNCERTAINTY_MEASURE_WITH_UNIT (LENGTH_MEASURE( 1.000000000000000082E-05 ), #133, 'distance_accuracy_value', 'NONE');
#90 = CARTESIAN_POINT ( 'NONE',  ( -9.000000000000001776, 0.000000000000000000, 0.000000000000000000 ) ) ;
#91 = DIRECTION ( 'NONE',  ( -0.000000000000000000, -0.000000000000000000, -1.000000000000000000 ) ) ;
#92 = ADVANCED_FACE ( 'NONE', ( #205 ), #325, .F. ) ;
#93 = DIRECTION ( 'NONE',  ( 1.000000000000000000, 0.000000000000000000, 0.000000000000000000 ) ) ;
#94 = AXIS2_PLACEMENT_3D ( 'NONE', #150, #244, #274 ) ;
#95 = DIRECTION ( 'NONE',  ( 0.000000000000000000, 0.000000000000000000, -1.000000000000000000 ) ) ;
#96 = DIRECTION ( 'NONE',  ( -1.000000000000000000, 0.000000000000000000, 0.000000000000000000 ) ) ;
#97 = ORIENTED_EDGE ( 'NONE', *, *, #277, .T. ) ;
#98 = VERTEX_POINT ( 'NONE', #168 ) ;
#99 = VECTOR ( 'NONE', #76, 1000.000000000000000 ) ;
#100 = CARTESIAN_POINT ( 'NONE',  ( 12.49999999999999289, 0.000000000000000000, 0.000000000000000000 ) ) ;
#101 = FACE_OUTER_BOUND ( 'NONE', #359, .T. ) ;
#102 = ORIENTED_EDGE ( 'NONE', *, *, #273, .F. ) ;
#103 =( NAMED_UNIT ( * ) PLANE_ANGLE_UNIT ( ) SI_UNIT ( $, .RADIAN. ) );
#104 = UNCERTAINTY_MEASURE_WITH_UNIT (LENGTH_MEASURE( 1.000000000000000082E-05 ), #395, 'distance_accuracy_value', 'NONE');
#105 = ORIENTED_EDGE ( 'NONE', *, *, #107, .F. ) ;
#106 = ORIENTED_EDGE ( 'NONE', *, *, #209, .F. ) ;
#107 = EDGE_CURVE ( 'NONE', #72, #379, #331, .T. ) ;
#108 = DIRECTION ( 'NONE',  ( -0.000000000000000000, -0.000000000000000000, -1.000000000000000000 ) ) ;
#109 = ORIENTED_EDGE ( 'NONE', *, *, #121, .T. ) ;
#110 = CIRCLE ( 'NONE', #261, 12.50000000000001066 ) ;
#111 = DIRECTION ( 'NONE',  ( 0.000000000000000000, 0.000000000000000000, -1.000000000000000000 ) ) ;
#112 = ORIENTED_EDGE ( 'NONE', *, *, #29, .F. ) ;
#113 = EDGE_CURVE ( 'NONE', #358, #379, #77, .T. ) ;
#114 = AXIS2_PLACEMENT_3D ( 'NONE', #329, #393, #201 ) ;
#115 = VECTOR ( 'NONE', #142, 1000.000000000000000 ) ;
#116 = DIRECTION ( 'NONE',  ( 0.000000000000000000, 0.000000000000000000, 1.000000000000000000 ) ) ;
#117 = LINE ( 'NONE', #22, #268 ) ;
#118 = DIRECTION ( 'NONE',  ( 1.000000000000000000, 0.000000000000000000, 0.000000000000000000 ) ) ;
#119 = CIRCLE ( 'NONE', #94, 13.00000000000000178 ) ;
#120 = CARTESIAN_POINT ( 'NONE',  ( 0.000000000000000000, 0.000000000000000000, 4.500000000000000000 ) ) ;
#121 = EDGE_CURVE ( 'NONE', #134, #72, #147, .T. ) ;
#122 = DIRECTION ( 'NONE',  ( 1.000000000000000000, 0.000000000000000000, 0.000000000000000000 ) ) ;
#123 = AXIS2_PLACEMENT_3D ( 'NONE', #65, #186, #412 ) ;
#124 = CARTESIAN_POINT ( 'NONE',  ( 0.000000000000000000, 0.000000000000000000, 0.000000000000000000 ) ) ;
#125 = DIRECTION ( 'NONE',  ( -0.7071067811865487940, 8.659560562354948882E-17, 0.7071067811865463515 ) ) ;
#126 = VECTOR ( 'NONE', #49, 1000.000000000000000 ) ;
#127 = ORIENTED_EDGE ( 'NONE', *, *, #255, .F. ) ;
#128 = ORIENTED_EDGE ( 'NONE', *, *, #175, .T. ) ;
#129 = SURFACE_SIDE_STYLE ('',( #322 ) ) ;
#130 = FACE_OUTER_BOUND ( 'NONE', #294, .T. ) ;
#131 = EDGE_LOOP ( 'NONE', ( #392, #78, #156, #328 ) ) ;
#132 = CONICAL_SURFACE ( 'NONE', #309, 13.00000000000000178, 0.7853981633974500554 ) ;
#133 =( LENGTH_UNIT ( ) NAMED_UNIT ( * ) SI_UNIT ( .MILLI., .METRE. ) );
#134 = VERTEX_POINT ( 'NONE', #173 ) ;
#135 = EDGE_CURVE ( 'NONE', #279, #414, #152, .T. ) ;
#136 = ORIENTED_EDGE ( 'NONE', *, *, #113, .T. ) ;
#137 = CARTESIAN_POINT ( 'NONE',  ( 13.00000000000000178, 0.000000000000000000, 0.5000000000000056621 ) ) ;
#138 = ORIENTED_EDGE ( 'NONE', *, *, #174, .F. ) ;
#139 = DIRECTION ( 'NONE',  ( 1.000000000000000000, 0.000000000000000000, 0.000000000000000000 ) ) ;
#140 = VERTEX_POINT ( 'NONE', #16 ) ;
#141 = PRESENTATION_LAYER_ASSIGNMENT (  '', '', ( #64 ) ) ;
#142 = DIRECTION ( 'NONE',  ( 0.7071067811865439090, 8.659560562354888485E-17, -0.7071067811865512365 ) ) ;
#143 = ORIENTED_EDGE ( 'NONE', *, *, #208, .T. ) ;
#144 = EDGE_CURVE ( 'NONE', #414, #140, #79, .T. ) ;
#145 = CARTESIAN_POINT ( 'NONE',  ( 9.000000000000001776, 1.102182119232617911E-15, 0.000000000000000000 ) ) ;
#146 = CARTESIAN_POINT ( 'NONE',  ( 13.00000000000000178, 1.592040838891559293E-15, 5.000000000000000000 ) ) ;
#147 = CIRCLE ( 'NONE', #238, 13.00000000000000178 ) ;
#148 = DIRECTION ( 'NONE',  ( 0.000000000000000000, 0.000000000000000000, 1.000000000000000000 ) ) ;
#149 = CARTESIAN_POINT ( 'NONE',  ( 0.000000000000000000, 0.000000000000000000, 0.000000000000000000 ) ) ;
#150 = CARTESIAN_POINT ( 'NONE',  ( 0.000000000000000000, 0.000000000000000000, 0.5000000000000056621 ) ) ;
#151 = CARTESIAN_POINT ( 'NONE',  ( 0.000000000000000000, 0.000000000000000000, 5.000000000000000000 ) ) ;
#152 = CIRCLE ( 'NONE', #280, 8.500000000000001776 ) ;
#153 = EDGE_CURVE ( 'NONE', #134, #316, #52, .T. ) ;
#154 = LINE ( 'NONE', #367, #351 ) ;
#155 = DIRECTION ( 'NONE',  ( 0.000000000000000000, 0.000000000000000000, -1.000000000000000000 ) ) ;
#156 = ORIENTED_EDGE ( 'NONE', *, *, #161, .T. ) ;
#157 = MECHANICAL_DESIGN_GEOMETRIC_PRESENTATION_REPRESENTATION (  '', ( #64 ), #13 ) ;
#158 = APPLICATION_PROTOCOL_DEFINITION ( 'draft international standard', 'automotive_design', 1998, #347 ) ;
#159 = FACE_OUTER_BOUND ( 'NONE', #131, .T. ) ;
#160 = ORIENTED_EDGE ( 'NONE', *, *, #175, .F. ) ;
#161 = EDGE_CURVE ( 'NONE', #414, #279, #360, .T. ) ;
#162 = CARTESIAN_POINT ( 'NONE',  ( -13.00000000000000178, 1.592040838891559293E-15, 0.5000000000000056621 ) ) ;
#163 = AXIS2_PLACEMENT_3D ( 'NONE', #263, #234, #171 ) ;
#164 = AXIS2_PLACEMENT_3D ( 'NONE', #339, #57, #269 ) ;
#165 = EDGE_LOOP ( 'NONE', ( #138, #262, #10, #300 ) ) ;
#166 = DIRECTION ( 'NONE',  ( 1.000000000000000000, 0.000000000000000000, 0.000000000000000000 ) ) ;
#167 =( NAMED_UNIT ( * ) SI_UNIT ( $, .STERADIAN. ) SOLID_ANGLE_UNIT ( ) );
#168 = CARTESIAN_POINT ( 'NONE',  ( -12.49999999999999289, 1.561424668912874914E-15, 0.000000000000000000 ) ) ;
#169 = ORIENTED_EDGE ( 'NONE', *, *, #209, .T. ) ;
#170 = CONICAL_SURFACE ( 'NONE', #216, 13.00000000000000178, 0.7853981633974500554 ) ;
#171 = DIRECTION ( 'NONE',  ( 1.000000000000000000, 0.000000000000000000, 0.000000000000000000 ) ) ;
#172 = MANIFOLD_SOLID_BREP ( 'µ¹½Ç1', #47 ) ;
#173 = CARTESIAN_POINT ( 'NONE',  ( -13.00000000000000178, 0.000000000000000000, 4.500000000000003553 ) ) ;
#174 = EDGE_CURVE ( 'NONE', #320, #414, #240, .T. ) ;
#175 = EDGE_CURVE ( 'NONE', #46, #72, #364, .T. ) ;
#176 = LINE ( 'NONE', #90, #206 ) ;
#177 = AXIS2_PLACEMENT_3D ( 'NONE', #149, #302, #372 ) ;
#178 = AXIS2_PLACEMENT_3D ( 'NONE', #397, #83, #85 ) ;
#179 = DIRECTION ( 'NONE',  ( 0.7071067811865512365, 0.000000000000000000, 0.7071067811865439090 ) ) ;
#180 = DIRECTION ( 'NONE',  ( 1.000000000000000000, 0.000000000000000000, 0.000000000000000000 ) ) ;
#181 = CARTESIAN_POINT ( 'NONE',  ( 0.000000000000000000, 0.000000000000000000, 0.000000000000000000 ) ) ;
#182 = EDGE_CURVE ( 'NONE', #358, #98, #383, .T. ) ;
#183 = CONICAL_SURFACE ( 'NONE', #237, 12.50000000000001066, 0.7853981633974415066 ) ;
#184 = CIRCLE ( 'NONE', #40, 12.49999999999999289 ) ;
#185 = CARTESIAN_POINT ( 'NONE',  ( 0.000000000000000000, 0.000000000000000000, 4.500000000000000000 ) ) ;
#186 = DIRECTION ( 'NONE',  ( 0.000000000000000000, 0.000000000000000000, 1.000000000000000000 ) ) ;
#187 = CARTESIAN_POINT ( 'NONE',  ( 12.50000000000001066, 1.561424668912876097E-15, 5.000000000000000000 ) ) ;
#188 = EDGE_CURVE ( 'NONE', #324, #140, #20, .T. ) ;
#189 = AXIS2_PLACEMENT_3D ( 'NONE', #409, #73, #62 ) ;
#190 = EDGE_LOOP ( 'NONE', ( #109, #257, #297, #357 ) ) ;
#191 = AXIS2_PLACEMENT_3D ( 'NONE', #56, #116, #21 ) ;
#192 = AXIS2_PLACEMENT_3D ( 'NONE', #124, #356, #34 ) ;
#193 =( LENGTH_UNIT ( ) NAMED_UNIT ( * ) SI_UNIT ( .MILLI., .METRE. ) );
#194 = DIRECTION ( 'NONE',  ( 1.000000000000000000, 0.000000000000000000, -0.000000000000000000 ) ) ;
#195 = ORIENTED_EDGE ( 'NONE', *, *, #82, .F. ) ;
#196 = FILL_AREA_STYLE_COLOUR ( '', #74 ) ;
#197 = EDGE_LOOP ( 'NONE', ( #229, #389, #198, #3 ) ) ;
#198 = ORIENTED_EDGE ( 'NONE', *, *, #314, .T. ) ;
#199 = CIRCLE ( 'NONE', #247, 13.00000000000000178 ) ;
#200 = ORIENTED_EDGE ( 'NONE', *, *, #346, .T. ) ;
#201 = DIRECTION ( 'NONE',  ( -1.000000000000000000, 0.000000000000000000, 0.000000000000000000 ) ) ;
#202 = ORIENTED_EDGE ( 'NONE', *, *, #161, .F. ) ;
#203 = FACE_OUTER_BOUND ( 'NONE', #232, .T. ) ;
#204 = VERTEX_POINT ( 'NONE', #246 ) ;
#205 = FACE_OUTER_BOUND ( 'NONE', #197, .T. ) ;
#206 = VECTOR ( 'NONE', #405, 1000.000000000000000 ) ;
#207 = CARTESIAN_POINT ( 'NONE',  ( 0.000000000000000000, 0.000000000000000000, 0.000000000000000000 ) ) ;
#208 = EDGE_CURVE ( 'NONE', #204, #134, #154, .T. ) ;
#209 = EDGE_CURVE ( 'NONE', #204, #46, #110, .T. ) ;
#210 = PRODUCT_CONTEXT ( 'NONE', #347, 'mechanical' ) ;
#211 = DIRECTION ( 'NONE',  ( -0.000000000000000000, -0.000000000000000000, 1.000000000000000000 ) ) ;
#212 = FACE_OUTER_BOUND ( 'NONE', #406, .T. ) ;
#213 = DIRECTION ( 'NONE',  ( 1.000000000000000000, 0.000000000000000000, 0.000000000000000000 ) ) ;
#214 = DIRECTION ( 'NONE',  ( 1.000000000000000000, 0.000000000000000000, 0.000000000000000000 ) ) ;
#215 = AXIS2_PLACEMENT_3D ( 'NONE', #235, #267, #301 ) ;
#216 = AXIS2_PLACEMENT_3D ( 'NONE', #270, #211, #93 ) ;
#217 = DIRECTION ( 'NONE',  ( 1.000000000000000000, 0.000000000000000000, 0.000000000000000000 ) ) ;
#218 = PRODUCT_DEFINITION_FORMATION_WITH_SPECIFIED_SOURCE ( 'ÈÎºÎ', '', #403, .NOT_KNOWN. ) ;
#219 = EDGE_CURVE ( 'NONE', #385, #279, #371, .T. ) ;
#220 = DIRECTION ( 'NONE',  ( 0.000000000000000000, 0.000000000000000000, 1.000000000000000000 ) ) ;
#221 = CYLINDRICAL_SURFACE ( 'NONE', #189, 8.500000000000001776 ) ;
#222 = DIRECTION ( 'NONE',  ( -0.7071067811865512365, 8.659560562354979697E-17, 0.7071067811865439090 ) ) ;
#223 = DIRECTION ( 'NONE',  ( -1.000000000000000000, 0.000000000000000000, 0.000000000000000000 ) ) ;
#224 = ADVANCED_FACE ( 'NONE', ( #342 ), #305, .T. ) ;
#225 = CARTESIAN_POINT ( 'NONE',  ( -8.500000000000001776, 0.000000000000000000, 4.500000000000000000 ) ) ;
#226 = CARTESIAN_POINT ( 'NONE',  ( 0.000000000000000000, 0.000000000000000000, 5.000000000000000000 ) ) ;
#227 = AXIS2_PLACEMENT_3D ( 'NONE', #151, #91, #217 ) ;
#228 = CARTESIAN_POINT ( 'NONE',  ( 8.500000000000001776, 1.040949779275250337E-15, 0.5000000000000038858 ) ) ;
#229 = ORIENTED_EDGE ( 'NONE', *, *, #144, .F. ) ;
#230 = ADVANCED_FACE ( 'NONE', ( #401 ), #26, .F. ) ;
#231 = DIRECTION ( 'NONE',  ( -0.000000000000000000, -0.000000000000000000, -1.000000000000000000 ) ) ;
#232 = EDGE_LOOP ( 'NONE', ( #105, #394, #39, #386 ) ) ;
#233 = EDGE_CURVE ( 'NONE', #385, #320, #399, .T. ) ;
#234 = DIRECTION ( 'NONE',  ( -0.000000000000000000, -0.000000000000000000, 1.000000000000000000 ) ) ;
#235 = CARTESIAN_POINT ( 'NONE',  ( 0.000000000000000000, 0.000000000000000000, 5.000000000000000000 ) ) ;
#236 = FILL_AREA_STYLE ('',( #84 ) ) ;
#237 = AXIS2_PLACEMENT_3D ( 'NONE', #376, #284, #411 ) ;
#238 = AXIS2_PLACEMENT_3D ( 'NONE', #335, #111, #139 ) ;
#239 =( NAMED_UNIT ( * ) SI_UNIT ( $, .STERADIAN. ) SOLID_ANGLE_UNIT ( ) );
#240 = LINE ( 'NONE', #365, #375 ) ;
#241 = FACE_OUTER_BOUND ( 'NONE', #355, .T. ) ;
#242 = CARTESIAN_POINT ( 'NONE',  ( 0.000000000000000000, 0.000000000000000000, 5.000000000000000000 ) ) ;
#243 = AXIS2_PLACEMENT_3D ( 'NONE', #226, #326, #96 ) ;
#244 = DIRECTION ( 'NONE',  ( -0.000000000000000000, -0.000000000000000000, 1.000000000000000000 ) ) ;
#245 = DIRECTION ( 'NONE',  ( -0.000000000000000000, -0.000000000000000000, -1.000000000000000000 ) ) ;
#246 = CARTESIAN_POINT ( 'NONE',  ( -12.50000000000001066, 0.000000000000000000, 5.000000000000000000 ) ) ;
#247 = AXIS2_PLACEMENT_3D ( 'NONE', #253, #155, #37 ) ;
#248 = FACE_OUTER_BOUND ( 'NONE', #15, .T. ) ;
#249 = CARTESIAN_POINT ( 'NONE',  ( -8.500000000000001776, 1.040949779275250337E-15, 4.500000000000000000 ) ) ;
#250 = DIRECTION ( 'NONE',  ( 0.000000000000000000, 0.000000000000000000, 1.000000000000000000 ) ) ;
#251 =( NAMED_UNIT ( * ) PLANE_ANGLE_UNIT ( ) SI_UNIT ( $, .RADIAN. ) );
#252 = ORIENTED_EDGE ( 'NONE', *, *, #354, .F. ) ;
#253 = CARTESIAN_POINT ( 'NONE',  ( 0.000000000000000000, 0.000000000000000000, 4.500000000000003553 ) ) ;
#254 = EDGE_LOOP ( 'NONE', ( #202, #12, #350, #319 ) ) ;
#255 = EDGE_CURVE ( 'NONE', #98, #358, #184, .T. ) ;
#256 = ORIENTED_EDGE ( 'NONE', *, *, #346, .F. ) ;
#257 = ORIENTED_EDGE ( 'NONE', *, *, #107, .T. ) ;
#258 = CARTESIAN_POINT ( 'NONE',  ( -13.00000000000000178, 0.000000000000000000, 5.000000000000000000 ) ) ;
#259 = EDGE_LOOP ( 'NONE', ( #295, #330 ) ) ;
#260 = DIRECTION ( 'NONE',  ( 1.000000000000000000, 0.000000000000000000, 0.000000000000000000 ) ) ;
#261 = AXIS2_PLACEMENT_3D ( 'NONE', #242, #54, #118 ) ;
#262 = ORIENTED_EDGE ( 'NONE', *, *, #273, .T. ) ;
#263 = CARTESIAN_POINT ( 'NONE',  ( 0.000000000000000000, 0.000000000000000000, 0.5000000000000056621 ) ) ;
#264 = ORIENTED_EDGE ( 'NONE', *, *, #334, .F. ) ;
#265 = SURFACE_STYLE_USAGE ( .BOTH. , #361 ) ;
#266 = ADVANCED_FACE ( 'NONE', ( #307 ), #291, .F. ) ;
#267 = DIRECTION ( 'NONE',  ( -0.000000000000000000, -0.000000000000000000, -1.000000000000000000 ) ) ;
#268 = VECTOR ( 'NONE', #179, 999.9999999999998863 ) ;
#269 = DIRECTION ( 'NONE',  ( -1.000000000000000000, 0.000000000000000000, 0.000000000000000000 ) ) ;
#270 = CARTESIAN_POINT ( 'NONE',  ( 0.000000000000000000, 0.000000000000000000, 0.5000000000000056621 ) ) ;
#271 = CARTESIAN_POINT ( 'NONE',  ( -13.00000000000000178, 0.000000000000000000, 0.5000000000000056621 ) ) ;
#272 = AXIS2_PLACEMENT_3D ( 'NONE', #281, #220, #69 ) ;
#273 = EDGE_CURVE ( 'NONE', #320, #385, #299, .T. ) ;
#274 = DIRECTION ( 'NONE',  ( 1.000000000000000000, 0.000000000000000000, 0.000000000000000000 ) ) ;
#275 = ADVANCED_BREP_SHAPE_REPRESENTATION ( '17x26t5', ( #172, #178 ), #32 ) ;
#276 = CARTESIAN_POINT ( 'NONE',  ( 0.000000000000000000, 0.000000000000000000, 5.000000000000000000 ) ) ;
#277 = EDGE_CURVE ( 'NONE', #46, #204, #404, .T. ) ;
#278 = FACE_OUTER_BOUND ( 'NONE', #7, .T. ) ;
#279 = VERTEX_POINT ( 'NONE', #24 ) ;
#280 = AXIS2_PLACEMENT_3D ( 'NONE', #298, #18, #260 ) ;
#281 = CARTESIAN_POINT ( 'NONE',  ( 0.000000000000000000, 0.000000000000000000, 5.000000000000000000 ) ) ;
#282 = PRESENTATION_LAYER_ASSIGNMENT (  '', '', ( #293 ) ) ;
#283 = UNCERTAINTY_MEASURE_WITH_UNIT (LENGTH_MEASURE( 1.000000000000000082E-05 ), #193, 'distance_accuracy_value', 'NONE');
#284 = DIRECTION ( 'NONE',  ( 0.000000000000000000, 0.000000000000000000, -1.000000000000000000 ) ) ;
#285 = SURFACE_STYLE_USAGE ( .BOTH. , #129 ) ;
#286 = EDGE_LOOP ( 'NONE', ( #42, #200, #195, #321 ) ) ;
#287 = ADVANCED_FACE ( 'NONE', ( #241 ), #170, .T. ) ;
#288 = FACE_BOUND ( 'NONE', #31, .T. ) ;
#289 = CIRCLE ( 'NONE', #163, 13.00000000000000178 ) ;
#290 = PRESENTATION_STYLE_ASSIGNMENT (( #285 ) ) ;
#291 = CONICAL_SURFACE ( 'NONE', #164, 9.000000000000001776, 0.7853981633974431720 ) ;
#292 = EDGE_LOOP ( 'NONE', ( #256, #102, #66, #264 ) ) ;
#293 = STYLED_ITEM ( 'NONE', ( #290 ), #275 ) ;
#294 = EDGE_LOOP ( 'NONE', ( #160, #106, #143, #252 ) ) ;
#295 = ORIENTED_EDGE ( 'NONE', *, *, #82, .T. ) ;
#296 = DIRECTION ( 'NONE',  ( -1.000000000000000000, 0.000000000000000000, 0.000000000000000000 ) ) ;
#297 = ORIENTED_EDGE ( 'NONE', *, *, #71, .T. ) ;
#298 = CARTESIAN_POINT ( 'NONE',  ( 0.000000000000000000, 0.000000000000000000, 0.5000000000000038858 ) ) ;
#299 = CIRCLE ( 'NONE', #369, 8.500000000000001776 ) ;
#300 = ORIENTED_EDGE ( 'NONE', *, *, #135, .T. ) ;
#301 = DIRECTION ( 'NONE',  ( 1.000000000000000000, 0.000000000000000000, 0.000000000000000000 ) ) ;
#302 = DIRECTION ( 'NONE',  ( -0.000000000000000000, -0.000000000000000000, -1.000000000000000000 ) ) ;
#303 = VECTOR ( 'NONE', #108, 1000.000000000000000 ) ;
#304 = APPLICATION_PROTOCOL_DEFINITION ( 'draft international standard', 'automotive_design', 1998, #51 ) ;
#305 = CYLINDRICAL_SURFACE ( 'NONE', #88, 13.00000000000000178 ) ;
#306 = CARTESIAN_POINT ( 'NONE',  ( 0.000000000000000000, 0.000000000000000000, 4.500000000000000000 ) ) ;
#307 = FACE_OUTER_BOUND ( 'NONE', #254, .T. ) ;
#308 = AXIS2_PLACEMENT_3D ( 'NONE', #2, #95, #223 ) ;
#309 = AXIS2_PLACEMENT_3D ( 'NONE', #380, #61, #378 ) ;
#310 = EDGE_CURVE ( 'NONE', #320, #413, #117, .T. ) ;
#311 = AXIS2_PLACEMENT_3D ( 'NONE', #362, #231, #166 ) ;
#312 = EDGE_CURVE ( 'NONE', #316, #379, #119, .T. ) ;
#313 = DIRECTION ( 'NONE',  ( -0.7071067811865426878, 0.000000000000000000, -0.7071067811865524577 ) ) ;
#314 = EDGE_CURVE ( 'NONE', #279, #324, #176, .T. ) ;
#315 = CARTESIAN_POINT ( 'NONE',  ( 13.00000000000000178, 1.592040838891559293E-15, 0.5000000000000056621 ) ) ;
#316 = VERTEX_POINT ( 'NONE', #271 ) ;
#317 = AXIS2_PLACEMENT_3D ( 'NONE', #185, #148, #27 ) ;
#318 =( GEOMETRIC_REPRESENTATION_CONTEXT ( 3 ) GLOBAL_UNCERTAINTY_ASSIGNED_CONTEXT ( ( #89 ) ) GLOBAL_UNIT_ASSIGNED_CONTEXT ( ( #133, #103, #239 ) ) REPRESENTATION_CONTEXT ( 'NONE', 'WORKASPACE' ) );
#319 = ORIENTED_EDGE ( 'NONE', *, *, #314, .F. ) ;
#320 = VERTEX_POINT ( 'NONE', #402 ) ;
#321 = ORIENTED_EDGE ( 'NONE', *, *, #310, .F. ) ;
#322 = SURFACE_STYLE_FILL_AREA ( #1 ) ;
#323 = FACE_OUTER_BOUND ( 'NONE', #165, .T. ) ;
#324 = VERTEX_POINT ( 'NONE', #368 ) ;
#325 = CONICAL_SURFACE ( 'NONE', #4, 9.000000000000001776, 0.7853981633974431720 ) ;
#326 = DIRECTION ( 'NONE',  ( -0.000000000000000000, -0.000000000000000000, -1.000000000000000000 ) ) ;
#327 = ORIENTED_EDGE ( 'NONE', *, *, #312, .F. ) ;
#328 = ORIENTED_EDGE ( 'NONE', *, *, #219, .F. ) ;
#329 = CARTESIAN_POINT ( 'NONE',  ( 0.000000000000000000, 0.000000000000000000, 5.000000000000000000 ) ) ;
#330 = ORIENTED_EDGE ( 'NONE', *, *, #334, .T. ) ;
#331 = LINE ( 'NONE', #146, #59 ) ;
#332 = AXIS2_PLACEMENT_3D ( 'NONE', #384, #250, #194 ) ;
#333 = VECTOR ( 'NONE', #222, 999.9999999999998863 ) ;
#334 = EDGE_CURVE ( 'NONE', #345, #413, #81, .T. ) ;
#335 = CARTESIAN_POINT ( 'NONE',  ( 0.000000000000000000, 0.000000000000000000, 4.500000000000003553 ) ) ;
#336 = SHAPE_DEFINITION_REPRESENTATION ( #25, #275 ) ;
#337 = DIRECTION ( 'NONE',  ( -0.000000000000000000, -0.000000000000000000, -1.000000000000000000 ) ) ;
#338 = ADVANCED_FACE ( 'NONE', ( #87, #212 ), #53, .T. ) ;
#339 = CARTESIAN_POINT ( 'NONE',  ( 0.000000000000000000, 0.000000000000000000, 0.000000000000000000 ) ) ;
#340 = VECTOR ( 'NONE', #19, 1000.000000000000000 ) ;
#341 = MECHANICAL_DESIGN_GEOMETRIC_PRESENTATION_REPRESENTATION (  '', ( #293 ), #318 ) ;
#342 = FACE_OUTER_BOUND ( 'NONE', #190, .T. ) ;
#343 = DIRECTION ( 'NONE',  ( 0.000000000000000000, 0.000000000000000000, 1.000000000000000000 ) ) ;
#344 = DIRECTION ( 'NONE',  ( 0.000000000000000000, 0.000000000000000000, 1.000000000000000000 ) ) ;
#345 = VERTEX_POINT ( 'NONE', #28 ) ;
#346 = EDGE_CURVE ( 'NONE', #385, #345, #348, .T. ) ;
#347 = APPLICATION_CONTEXT ( 'automotive_design' ) ;
#348 = LINE ( 'NONE', #249, #333 ) ;
#349 = ORIENTED_EDGE ( 'NONE', *, *, #377, .T. ) ;
#350 = ORIENTED_EDGE ( 'NONE', *, *, #188, .F. ) ;
#351 = VECTOR ( 'NONE', #313, 1000.000000000000000 ) ;
#352 = ADVANCED_FACE ( 'NONE', ( #278 ), #132, .T. ) ;
#353 = ORIENTED_EDGE ( 'NONE', *, *, #29, .T. ) ;
#354 = EDGE_CURVE ( 'NONE', #72, #134, #199, .T. ) ;
#355 = EDGE_LOOP ( 'NONE', ( #127, #353, #75, #363 ) ) ;
#356 = DIRECTION ( 'NONE',  ( 0.000000000000000000, 0.000000000000000000, 1.000000000000000000 ) ) ;
#357 = ORIENTED_EDGE ( 'NONE', *, *, #153, .F. ) ;
#358 = VERTEX_POINT ( 'NONE', #100 ) ;
#359 = EDGE_LOOP ( 'NONE', ( #36, #44 ) ) ;
#360 = CIRCLE ( 'NONE', #311, 8.500000000000001776 ) ;
#361 = SURFACE_SIDE_STYLE ('',( #14 ) ) ;
#362 = CARTESIAN_POINT ( 'NONE',  ( 0.000000000000000000, 0.000000000000000000, 0.5000000000000038858 ) ) ;
#363 = ORIENTED_EDGE ( 'NONE', *, *, #113, .F. ) ;
#364 = LINE ( 'NONE', #388, #99 ) ;
#365 = CARTESIAN_POINT ( 'NONE',  ( 8.500000000000001776, 1.040949779275250337E-15, 5.000000000000000000 ) ) ;
#366 = PRODUCT_RELATED_PRODUCT_CATEGORY ( 'part', '', ( #403 ) ) ;
#367 = CARTESIAN_POINT ( 'NONE',  ( -12.50000000000001066, 0.000000000000000000, 5.000000000000000000 ) ) ;
#368 = CARTESIAN_POINT ( 'NONE',  ( -9.000000000000001776, 0.000000000000000000, 0.000000000000000000 ) ) ;
#369 = AXIS2_PLACEMENT_3D ( 'NONE', #306, #374, #122 ) ;
#370 = CIRCLE ( 'NONE', #192, 9.000000000000001776 ) ;
#371 = LINE ( 'NONE', #407, #340 ) ;
#372 = DIRECTION ( 'NONE',  ( 1.000000000000000000, 0.000000000000000000, 0.000000000000000000 ) ) ;
#373 = ADVANCED_FACE ( 'NONE', ( #408 ), #390, .F. ) ;
#374 = DIRECTION ( 'NONE',  ( 0.000000000000000000, 0.000000000000000000, 1.000000000000000000 ) ) ;
#375 = VECTOR ( 'NONE', #337, 1000.000000000000000 ) ;
#376 = CARTESIAN_POINT ( 'NONE',  ( 0.000000000000000000, 0.000000000000000000, 5.000000000000000000 ) ) ;
#377 = EDGE_CURVE ( 'NONE', #140, #324, #370, .T. ) ;
#378 = DIRECTION ( 'NONE',  ( 1.000000000000000000, 0.000000000000000000, 0.000000000000000000 ) ) ;
#379 = VERTEX_POINT ( 'NONE', #315 ) ;
#380 = CARTESIAN_POINT ( 'NONE',  ( 0.000000000000000000, 0.000000000000000000, 0.5000000000000056621 ) ) ;
#381 = ORIENTED_EDGE ( 'NONE', *, *, #182, .F. ) ;
#382 = VECTOR ( 'NONE', #125, 1000.000000000000000 ) ;
#383 = CIRCLE ( 'NONE', #177, 12.49999999999999289 ) ;
#384 = CARTESIAN_POINT ( 'NONE',  ( 0.000000000000000000, 0.000000000000000000, 0.000000000000000000 ) ) ;
#385 = VERTEX_POINT ( 'NONE', #225 ) ;
#386 = ORIENTED_EDGE ( 'NONE', *, *, #312, .T. ) ;
#387 = ORIENTED_EDGE ( 'NONE', *, *, #277, .F. ) ;
#388 = CARTESIAN_POINT ( 'NONE',  ( 12.50000000000001066, 1.530808498934192902E-15, 5.000000000000000000 ) ) ;
#389 = ORIENTED_EDGE ( 'NONE', *, *, #135, .F. ) ;
#390 = CONICAL_SURFACE ( 'NONE', #123, 8.500000000000001776, 0.7853981633974536081 ) ;
#391 = DIRECTION ( 'NONE',  ( -0.000000000000000000, -0.000000000000000000, -1.000000000000000000 ) ) ;
#392 = ORIENTED_EDGE ( 'NONE', *, *, #233, .T. ) ;
#393 = DIRECTION ( 'NONE',  ( -0.000000000000000000, -0.000000000000000000, -1.000000000000000000 ) ) ;
#394 = ORIENTED_EDGE ( 'NONE', *, *, #354, .T. ) ;
#395 =( LENGTH_UNIT ( ) NAMED_UNIT ( * ) SI_UNIT ( .MILLI., .METRE. ) );
#396 = CIRCLE ( 'NONE', #215, 9.000000000000007105 ) ;
#397 = CARTESIAN_POINT ( 'NONE',  ( 0.000000000000000000, 0.000000000000000000, 0.000000000000000000 ) ) ;
#398 = PRESENTATION_STYLE_ASSIGNMENT (( #265 ) ) ;
#399 = CIRCLE ( 'NONE', #317, 8.500000000000001776 ) ;
#400 = CARTESIAN_POINT ( 'NONE',  ( 0.000000000000000000, 0.000000000000000000, 0.000000000000000000 ) ) ;
#401 = FACE_OUTER_BOUND ( 'NONE', #286, .T. ) ;
#402 = CARTESIAN_POINT ( 'NONE',  ( 8.500000000000001776, 1.040949779275250337E-15, 4.500000000000000000 ) ) ;
#403 = PRODUCT ( '17x26t5', '17x26t5', '', ( #210 ) ) ;
#404 = CIRCLE ( 'NONE', #191, 12.50000000000001066 ) ;
#405 = DIRECTION ( 'NONE',  ( -0.7071067811865439090, 0.000000000000000000, -0.7071067811865512365 ) ) ;
#406 = EDGE_LOOP ( 'NONE', ( #169, #97 ) ) ;
#407 = CARTESIAN_POINT ( 'NONE',  ( -8.500000000000001776, 0.000000000000000000, 5.000000000000000000 ) ) ;
#408 = FACE_OUTER_BOUND ( 'NONE', #292, .T. ) ;
#409 = CARTESIAN_POINT ( 'NONE',  ( 0.000000000000000000, 0.000000000000000000, 5.000000000000000000 ) ) ;
#410 = COLOUR_RGB ( '',0.5215686274509804266, 0.2431372549019607809, 0.9137254901960784048 ) ;
#411 = DIRECTION ( 'NONE',  ( -1.000000000000000000, 0.000000000000000000, 0.000000000000000000 ) ) ;
#412 = DIRECTION ( 'NONE',  ( 1.000000000000000000, 0.000000000000000000, 0.000000000000000000 ) ) ;
#413 = VERTEX_POINT ( 'NONE', #30 ) ;
#414 = VERTEX_POINT ( 'NONE', #228 ) ;
ENDSEC;
END-ISO-10303-21;
