ISO-10303-21;
HEADER;
FILE_DESCRIPTION (( 'STEP AP214' ),
    '1' );
FILE_NAME ('_CT1-20-2020.step.step',
    '2023-08-15T02:57:22',
    ( '' ),
    ( '' ),
    'SwSTEP 2.0',
    'SolidWorks 2022',
    '' );
FILE_SCHEMA (( 'AUTOMOTIVE_DESIGN' ));
ENDSEC;

DATA;
#1 = DIRECTION ( 'NONE',  ( 0.000000000000000000, 1.000000000000000000, 0.000000000000000000 ) ) ;
#2 = VERTEX_POINT ( 'NONE', #1284 ) ;
#3 = DIRECTION ( 'NONE',  ( -0.8660254037844387076, 0.4999999999999998890, 0.000000000000000000 ) ) ;
#4 = ORIENTED_EDGE ( 'NONE', *, *, #506, .T. ) ;
#5 = VERTEX_POINT ( 'NONE', #551 ) ;
#6 = CARTESIAN_POINT ( 'NONE',  ( 1.000000000000000000, 14.57735026918960131, -9.000000000000000000 ) ) ;
#7 = ORIENTED_EDGE ( 'NONE', *, *, #422, .F. ) ;
#8 = DIRECTION ( 'NONE',  ( 0.000000000000000000, -1.000000000000000000, 0.000000000000000000 ) ) ;
#9 = EDGE_CURVE ( 'NONE', #368, #983, #854, .T. ) ;
#10 = FACE_OUTER_BOUND ( 'NONE', #643, .T. ) ;
#11 = ORIENTED_EDGE ( 'NONE', *, *, #879, .T. ) ;
#12 = ORIENTED_EDGE ( 'NONE', *, *, #497, .F. ) ;
#13 = PLANE ( 'NONE',  #1145 ) ;
#14 = AXIS2_PLACEMENT_3D ( 'NONE', #289, #189, #607 ) ;
#15 = ORIENTED_EDGE ( 'NONE', *, *, #422, .T. ) ;
#16 = DIRECTION ( 'NONE',  ( -0.8660254037844387076, 0.4999999999999998890, 0.000000000000000000 ) ) ;
#17 = AXIS2_PLACEMENT_3D ( 'NONE', #739, #747, #984 ) ;
#18 = CARTESIAN_POINT ( 'NONE',  ( -9.020126968509648790, 14.00000000000000000, 7.500000000000000000 ) ) ;
#19 = ADVANCED_FACE ( 'NONE', ( #31, #1172 ), #1086, .F. ) ;
#20 = ORIENTED_EDGE ( 'NONE', *, *, #444, .F. ) ;
#21 = ORIENTED_EDGE ( 'NONE', *, *, #453, .F. ) ;
#22 = PLANE ( 'NONE',  #1336 ) ;
#23 = DIRECTION ( 'NONE',  ( 1.000000000000000000, 0.000000000000000000, 0.000000000000000000 ) ) ;
#24 = CARTESIAN_POINT ( 'NONE',  ( -9.020126968509648790, 14.00000000000000000, -7.500000000000000000 ) ) ;
#25 = CARTESIAN_POINT ( 'NONE',  ( 10.00000000000000000, 0.000000000000000000, 10.00000000000000000 ) ) ;
#26 = ORIENTED_EDGE ( 'NONE', *, *, #806, .T. ) ;
#27 = ORIENTED_EDGE ( 'NONE', *, *, #253, .T. ) ;
#28 = EDGE_CURVE ( 'NONE', #33, #398, #1164, .T. ) ;
#29 = CARTESIAN_POINT ( 'NONE',  ( -3.024999999999999911, -1.250000000000000000, 3.024999999999999911 ) ) ;
#30 =( GEOMETRIC_REPRESENTATION_CONTEXT ( 3 ) GLOBAL_UNCERTAINTY_ASSIGNED_CONTEXT ( ( #474 ) ) GLOBAL_UNIT_ASSIGNED_CONTEXT ( ( #582, #73, #1232 ) ) REPRESENTATION_CONTEXT ( 'NONE', 'WORKASPACE' ) );
#31 = FACE_BOUND ( 'NONE', #92, .T. ) ;
#32 = PLANE ( 'NONE',  #164 ) ;
#33 = VERTEX_POINT ( 'NONE', #1194 ) ;
#34 = DIRECTION ( 'NONE',  ( -0.8660254037844387076, -0.4999999999999998890, 0.000000000000000000 ) ) ;
#35 = PRODUCT_DEFINITION ( '未知', '', #735, #258 ) ;
#36 = EDGE_CURVE ( 'NONE', #898, #365, #1092, .T. ) ;
#37 = FACE_OUTER_BOUND ( 'NONE', #1295, .T. ) ;
#38 = CARTESIAN_POINT ( 'NONE',  ( -1.000000000000000000, 14.57735026918960131, 9.000000000000000000 ) ) ;
#39 = VECTOR ( 'NONE', #247, 1000.000000000000000 ) ;
#40 = DIRECTION ( 'NONE',  ( 0.000000000000000000, 0.000000000000000000, -1.000000000000000000 ) ) ;
#41 = AXIS2_PLACEMENT_3D ( 'NONE', #1227, #184, #1139 ) ;
#42 = ORIENTED_EDGE ( 'NONE', *, *, #1096, .T. ) ;
#43 = CARTESIAN_POINT ( 'NONE',  ( -3.575000000000000178, 1.250000000000000000, 3.575000000000000178 ) ) ;
#44 = ORIENTED_EDGE ( 'NONE', *, *, #1027, .F. ) ;
#45 = CYLINDRICAL_SURFACE ( 'NONE', #1118, 2.500000000000000000 ) ;
#46 = FACE_OUTER_BOUND ( 'NONE', #1154, .T. ) ;
#47 = ORIENTED_EDGE ( 'NONE', *, *, #922, .T. ) ;
#48 = DIRECTION ( 'NONE',  ( 0.000000000000000000, 0.000000000000000000, -1.000000000000000000 ) ) ;
#49 = DIRECTION ( 'NONE',  ( 1.000000000000000000, 0.000000000000000000, 0.000000000000000000 ) ) ;
#50 = FACE_OUTER_BOUND ( 'NONE', #626, .T. ) ;
#51 = AXIS2_PLACEMENT_3D ( 'NONE', #229, #1291, #863 ) ;
#52 = LINE ( 'NONE', #491, #108 ) ;
#53 = EDGE_CURVE ( 'NONE', #248, #208, #235, .T. ) ;
#54 = EDGE_LOOP ( 'NONE', ( #1245, #866, #415, #867 ) ) ;
#55 = CARTESIAN_POINT ( 'NONE',  ( 1.000000000000000000, 14.57735026918960131, 8.000000000000000000 ) ) ;
#56 = VERTEX_POINT ( 'NONE', #985 ) ;
#57 = DIRECTION ( 'NONE',  ( 0.000000000000000000, 0.000000000000000000, 1.000000000000000000 ) ) ;
#58 = SURFACE_STYLE_USAGE ( .BOTH. , #1014 ) ;
#59 = FACE_OUTER_BOUND ( 'NONE', #974, .T. ) ;
#60 = VECTOR ( 'NONE', #535, 1000.000000000000000 ) ;
#61 = VERTEX_POINT ( 'NONE', #446 ) ;
#62 = VECTOR ( 'NONE', #183, 1000.000000000000114 ) ;
#63 = EDGE_CURVE ( 'NONE', #680, #436, #856, .T. ) ;
#64 = VECTOR ( 'NONE', #837, 1000.000000000000000 ) ;
#65 = LINE ( 'NONE', #579, #105 ) ;
#66 = CARTESIAN_POINT ( 'NONE',  ( 3.024999999999999911, -1.250000000000000000, -3.024999999999999911 ) ) ;
#67 = DIRECTION ( 'NONE',  ( 1.000000000000000000, 0.000000000000000000, 0.000000000000000000 ) ) ;
#68 = CARTESIAN_POINT ( 'NONE',  ( 2.500000000000000000, 14.00000000000000000, 9.000000000000000000 ) ) ;
#69 = FACE_OUTER_BOUND ( 'NONE', #998, .T. ) ;
#70 = ADVANCED_FACE ( 'NONE', ( #755 ), #228, .F. ) ;
#71 = EDGE_LOOP ( 'NONE', ( #865, #1045, #394, #673 ) ) ;
#72 = PLANE ( 'NONE',  #645 ) ;
#73 =( NAMED_UNIT ( * ) PLANE_ANGLE_UNIT ( ) SI_UNIT ( $, .RADIAN. ) );
#74 = FACE_OUTER_BOUND ( 'NONE', #956, .T. ) ;
#75 = DIRECTION ( 'NONE',  ( 0.000000000000000000, 0.000000000000000000, 1.000000000000000000 ) ) ;
#76 = ORIENTED_EDGE ( 'NONE', *, *, #122, .F. ) ;
#77 = FACE_BOUND ( 'NONE', #1042, .T. ) ;
#78 = EDGE_CURVE ( 'NONE', #56, #680, #138, .T. ) ;
#79 = DIRECTION ( 'NONE',  ( -1.000000000000000000, 0.000000000000000000, 0.000000000000000000 ) ) ;
#80 = ADVANCED_FACE ( 'NONE', ( #37 ), #340, .T. ) ;
#81 = DIRECTION ( 'NONE',  ( 1.000000000000000000, 0.000000000000000000, 0.000000000000000000 ) ) ;
#82 = VECTOR ( 'NONE', #145, 1000.000000000000000 ) ;
#83 = DIRECTION ( 'NONE',  ( -1.000000000000000000, 0.000000000000000000, 0.000000000000000000 ) ) ;
#84 = VECTOR ( 'NONE', #1335, 1000.000000000000000 ) ;
#85 = VERTEX_POINT ( 'NONE', #531 ) ;
#86 = CARTESIAN_POINT ( 'NONE',  ( 0.000000000000000000, 14.00000000000000000, 10.00000000000000000 ) ) ;
#87 = ORIENTED_EDGE ( 'NONE', *, *, #419, .F. ) ;
#88 = DIRECTION ( 'NONE',  ( 0.000000000000000000, 0.000000000000000000, -1.000000000000000000 ) ) ;
#89 = LINE ( 'NONE', #500, #84 ) ;
#90 = EDGE_LOOP ( 'NONE', ( #776, #103, #1166, #1224 ) ) ;
#91 = DIRECTION ( 'NONE',  ( 0.000000000000000000, 0.000000000000000000, -1.000000000000000000 ) ) ;
#92 = EDGE_LOOP ( 'NONE', ( #136, #336 ) ) ;
#93 = CARTESIAN_POINT ( 'NONE',  ( -2.500000000000000000, 14.00000000000000000, 9.000000000000000000 ) ) ;
#94 = EDGE_CURVE ( 'NONE', #368, #438, #1334, .T. ) ;
#95 = VECTOR ( 'NONE', #881, 1000.000000000000000 ) ;
#96 = EDGE_CURVE ( 'NONE', #344, #1115, #1305, .T. ) ;
#97 = PLANE ( 'NONE',  #281 ) ;
#98 = ORIENTED_EDGE ( 'NONE', *, *, #307, .F. ) ;
#99 = CARTESIAN_POINT ( 'NONE',  ( -3.575000000000000178, 1.250000000000000000, 3.575000000000000178 ) ) ;
#100 = VECTOR ( 'NONE', #677, 1000.000000000000000 ) ;
#101 = ORIENTED_EDGE ( 'NONE', *, *, #295, .F. ) ;
#102 = CARTESIAN_POINT ( 'NONE',  ( -10.00000000000000000, 2.799999999999999822, -10.00000000000000000 ) ) ;
#103 = ORIENTED_EDGE ( 'NONE', *, *, #564, .T. ) ;
#104 = AXIS2_PLACEMENT_3D ( 'NONE', #614, #727, #91 ) ;
#105 = VECTOR ( 'NONE', #458, 1000.000000000000000 ) ;
#106 = CARTESIAN_POINT ( 'NONE',  ( -9.020126968509648790, 14.00000000000000000, -7.500000000000000000 ) ) ;
#107 = PRESENTATION_STYLE_ASSIGNMENT (( #58 ) ) ;
#108 = VECTOR ( 'NONE', #695, 1000.000000000000000 ) ;
#109 = VERTEX_POINT ( 'NONE', #376 ) ;
#110 = DIRECTION ( 'NONE',  ( 1.000000000000000000, 0.000000000000000000, 0.000000000000000000 ) ) ;
#111 = ORIENTED_EDGE ( 'NONE', *, *, #905, .F. ) ;
#112 = EDGE_LOOP ( 'NONE', ( #719, #839 ) ) ;
#113 = LINE ( 'NONE', #227, #567 ) ;
#114 = EDGE_CURVE ( 'NONE', #1149, #936, #799, .T. ) ;
#115 = VERTEX_POINT ( 'NONE', #66 ) ;
#116 = CARTESIAN_POINT ( 'NONE',  ( -1.000000000000000000, 14.57735026918960131, 8.000000000000000000 ) ) ;
#117 = AXIS2_PLACEMENT_3D ( 'NONE', #131, #780, #544 ) ;
#118 = ORIENTED_EDGE ( 'NONE', *, *, #774, .T. ) ;
#119 = CARTESIAN_POINT ( 'NONE',  ( 2.500000000000000000, 14.00000000000000000, 10.00000000000000000 ) ) ;
#120 = VERTEX_POINT ( 'NONE', #921 ) ;
#121 = DIRECTION ( 'NONE',  ( 0.000000000000000000, 0.000000000000000000, 1.000000000000000000 ) ) ;
#122 = EDGE_CURVE ( 'NONE', #554, #255, #157, .T. ) ;
#123 = VECTOR ( 'NONE', #277, 1000.000000000000000 ) ;
#124 = DIRECTION ( 'NONE',  ( 1.000000000000000000, 0.000000000000000000, 0.000000000000000000 ) ) ;
#125 = ORIENTED_EDGE ( 'NONE', *, *, #584, .T. ) ;
#126 = ORIENTED_EDGE ( 'NONE', *, *, #506, .F. ) ;
#127 = VECTOR ( 'NONE', #348, 1000.000000000000000 ) ;
#128 = DIRECTION ( 'NONE',  ( 1.000000000000000000, 0.000000000000000000, 0.000000000000000000 ) ) ;
#129 = VECTOR ( 'NONE', #193, 1000.000000000000000 ) ;
#130 = EDGE_LOOP ( 'NONE', ( #624, #76, #126, #1011 ) ) ;
#131 = CARTESIAN_POINT ( 'NONE',  ( 0.000000000000000000, 14.00000000000000000, 10.00000000000000000 ) ) ;
#132 = VECTOR ( 'NONE', #1130, 1000.000000000000000 ) ;
#133 =( LENGTH_UNIT ( ) NAMED_UNIT ( * ) SI_UNIT ( .MILLI., .METRE. ) );
#134 = EDGE_CURVE ( 'NONE', #860, #248, #1325, .T. ) ;
#135 = ORIENTED_EDGE ( 'NONE', *, *, #524, .T. ) ;
#136 = ORIENTED_EDGE ( 'NONE', *, *, #28, .F. ) ;
#137 = CARTESIAN_POINT ( 'NONE',  ( -2.500000000000000000, 14.00000000000000000, 10.00000000000000000 ) ) ;
#138 = LINE ( 'NONE', #870, #562 ) ;
#139 = LINE ( 'NONE', #1078, #95 ) ;
#140 = ADVANCED_FACE ( 'NONE', ( #361 ), #1029, .F. ) ;
#141 = EDGE_LOOP ( 'NONE', ( #15, #1322, #1280, #26 ) ) ;
#142 = ADVANCED_FACE ( 'NONE', ( #387 ), #568, .F. ) ;
#143 = CARTESIAN_POINT ( 'NONE',  ( 3.575000000000000178, 1.250000000000000000, 3.575000000000000178 ) ) ;
#144 = VECTOR ( 'NONE', #439, 1000.000000000000000 ) ;
#145 = DIRECTION ( 'NONE',  ( 0.000000000000000000, 0.000000000000000000, -1.000000000000000000 ) ) ;
#146 = DIRECTION ( 'NONE',  ( 0.000000000000000000, -1.000000000000000000, 0.000000000000000000 ) ) ;
#147 = DIRECTION ( 'NONE',  ( -1.000000000000000000, 0.000000000000000000, 0.000000000000000000 ) ) ;
#148 = VECTOR ( 'NONE', #162, 1000.000000000000000 ) ;
#149 = ORIENTED_EDGE ( 'NONE', *, *, #1001, .T. ) ;
#150 = DIRECTION ( 'NONE',  ( 0.000000000000000000, 0.000000000000000000, 1.000000000000000000 ) ) ;
#151 = CARTESIAN_POINT ( 'NONE',  ( 2.500000000000000000, 14.00000000000000000, -9.000000000000000000 ) ) ;
#152 = DIRECTION ( 'NONE',  ( 0.000000000000000000, 0.000000000000000000, 1.000000000000000000 ) ) ;
#153 = VECTOR ( 'NONE', #1310, 1000.000000000000000 ) ;
#154 = DIRECTION ( 'NONE',  ( 0.8660254037844387076, 0.4999999999999998890, 0.000000000000000000 ) ) ;
#155 = ORIENTED_EDGE ( 'NONE', *, *, #1103, .F. ) ;
#156 = CARTESIAN_POINT ( 'NONE',  ( 0.000000000000000000, 14.00000000000000000, -9.000000000000000000 ) ) ;
#157 = LINE ( 'NONE', #916, #123 ) ;
#158 = EDGE_CURVE ( 'NONE', #768, #494, #575, .T. ) ;
#159 = VERTEX_POINT ( 'NONE', #804 ) ;
#160 = LINE ( 'NONE', #481, #173 ) ;
#161 = ORIENTED_EDGE ( 'NONE', *, *, #831, .F. ) ;
#162 = DIRECTION ( 'NONE',  ( 0.000000000000000000, 0.000000000000000000, -1.000000000000000000 ) ) ;
#163 = DIRECTION ( 'NONE',  ( 1.000000000000000000, 0.000000000000000000, 0.000000000000000000 ) ) ;
#164 = AXIS2_PLACEMENT_3D ( 'NONE', #1002, #991, #1093 ) ;
#165 = ADVANCED_FACE ( 'NONE', ( #1127 ), #999, .F. ) ;
#166 = DIRECTION ( 'NONE',  ( -0.08715574274765815199, 0.9961946980917455452, 0.000000000000000000 ) ) ;
#167 = ORIENTED_EDGE ( 'NONE', *, *, #1178, .T. ) ;
#168 = PRODUCT ( '_CT1-20-2020.step', '_CT1-20-2020.step', '', ( #714 ) ) ;
#169 = DIRECTION ( 'NONE',  ( 0.000000000000000000, 0.000000000000000000, 1.000000000000000000 ) ) ;
#170 = DIRECTION ( 'NONE',  ( 0.000000000000000000, 0.000000000000000000, 1.000000000000000000 ) ) ;
#171 = FACE_BOUND ( 'NONE', #608, .T. ) ;
#172 = CARTESIAN_POINT ( 'NONE',  ( 0.000000000000000000, 15.15470053837930209, 8.000000000000000000 ) ) ;
#173 = VECTOR ( 'NONE', #594, 1000.000000000000000 ) ;
#174 = ADVANCED_FACE ( 'NONE', ( #285 ), #45, .F. ) ;
#175 = CIRCLE ( 'NONE', #814, 9.020126968509648790 ) ;
#176 = DIRECTION ( 'NONE',  ( 0.000000000000000000, 0.000000000000000000, -1.000000000000000000 ) ) ;
#177 = DIRECTION ( 'NONE',  ( -1.000000000000000000, 0.000000000000000000, 0.000000000000000000 ) ) ;
#178 = LINE ( 'NONE', #68, #282 ) ;
#179 = EDGE_CURVE ( 'NONE', #120, #778, #1225, .T. ) ;
#180 = PLANE ( 'NONE',  #995 ) ;
#181 = EDGE_CURVE ( 'NONE', #61, #120, #369, .T. ) ;
#182 = ORIENTED_EDGE ( 'NONE', *, *, #546, .T. ) ;
#183 = DIRECTION ( 'NONE',  ( -0.08715574274765813811, -0.9961946980917455452, 0.000000000000000000 ) ) ;
#184 = DIRECTION ( 'NONE',  ( -1.000000000000000000, 0.000000000000000000, 0.000000000000000000 ) ) ;
#185 = VECTOR ( 'NONE', #236, 1000.000000000000114 ) ;
#186 = CARTESIAN_POINT ( 'NONE',  ( 0.000000000000000000, 14.00000000000000000, 9.000000000000000000 ) ) ;
#187 = VECTOR ( 'NONE', #170, 1000.000000000000000 ) ;
#188 = ORIENTED_EDGE ( 'NONE', *, *, #664, .T. ) ;
#189 = DIRECTION ( 'NONE',  ( -0.000000000000000000, 1.000000000000000000, 0.000000000000000000 ) ) ;
#190 = ORIENTED_EDGE ( 'NONE', *, *, #774, .F. ) ;
#191 = ORIENTED_EDGE ( 'NONE', *, *, #444, .T. ) ;
#192 = CARTESIAN_POINT ( 'NONE',  ( 3.575000000000000178, 1.250000000000000000, -3.575000000000000178 ) ) ;
#193 = DIRECTION ( 'NONE',  ( 0.000000000000000000, 0.000000000000000000, 1.000000000000000000 ) ) ;
#194 = VECTOR ( 'NONE', #176, 1000.000000000000000 ) ;
#195 = ORIENTED_EDGE ( 'NONE', *, *, #1160, .T. ) ;
#196 = CYLINDRICAL_SURFACE ( 'NONE', #104, 2.750000000000000000 ) ;
#197 = ADVANCED_FACE ( 'NONE', ( #1119 ), #793, .F. ) ;
#198 = ORIENTED_EDGE ( 'NONE', *, *, #522, .F. ) ;
#199 = CARTESIAN_POINT ( 'NONE',  ( 3.575000000000000178, 1.250000000000000000, -3.575000000000000178 ) ) ;
#200 = CARTESIAN_POINT ( 'NONE',  ( 10.00000000000000000, 0.000000000000000000, -10.00000000000000000 ) ) ;
#201 = EDGE_LOOP ( 'NONE', ( #613, #1287, #1205, #412 ) ) ;
#202 = DIRECTION ( 'NONE',  ( 0.000000000000000000, 1.000000000000000000, 0.000000000000000000 ) ) ;
#203 =( NAMED_UNIT ( * ) SI_UNIT ( $, .STERADIAN. ) SOLID_ANGLE_UNIT ( ) );
#204 = ORIENTED_EDGE ( 'NONE', *, *, #405, .T. ) ;
#205 = CARTESIAN_POINT ( 'NONE',  ( 0.000000000000000000, 14.00000000000000000, 7.500000000000000000 ) ) ;
#206 = VERTEX_POINT ( 'NONE', #910 ) ;
#207 = FACE_BOUND ( 'NONE', #435, .T. ) ;
#208 = VERTEX_POINT ( 'NONE', #265 ) ;
#209 = CARTESIAN_POINT ( 'NONE',  ( 0.000000000000000000, 12.84529946162069969, -9.000000000000000000 ) ) ;
#210 = ADVANCED_FACE ( 'NONE', ( #595 ), #72, .T. ) ;
#211 = VERTEX_POINT ( 'NONE', #1217 ) ;
#212 = VECTOR ( 'NONE', #861, 1000.000000000000000 ) ;
#213 = LINE ( 'NONE', #29, #876 ) ;
#214 = VECTOR ( 'NONE', #903, 1000.000000000000000 ) ;
#215 = VERTEX_POINT ( 'NONE', #488 ) ;
#216 = LINE ( 'NONE', #192, #390 ) ;
#217 = EDGE_CURVE ( 'NONE', #1115, #215, #900, .T. ) ;
#218 = VERTEX_POINT ( 'NONE', #99 ) ;
#219 = EDGE_CURVE ( 'NONE', #109, #1057, #1237, .T. ) ;
#220 = CARTESIAN_POINT ( 'NONE',  ( 0.000000000000000000, 15.15470053837930209, -9.000000000000000000 ) ) ;
#221 = ORIENTED_EDGE ( 'NONE', *, *, #1153, .T. ) ;
#222 = DIRECTION ( 'NONE',  ( 0.000000000000000000, 0.000000000000000000, -1.000000000000000000 ) ) ;
#223 = PLANE ( 'NONE',  #1229 ) ;
#224 = ORIENTED_EDGE ( 'NONE', *, *, #694, .T. ) ;
#225 = AXIS2_PLACEMENT_3D ( 'NONE', #1195, #152, #894 ) ;
#226 = ORIENTED_EDGE ( 'NONE', *, *, #396, .T. ) ;
#227 = CARTESIAN_POINT ( 'NONE',  ( 0.000000000000000000, 15.15470053837930209, 9.000000000000000000 ) ) ;
#228 = PLANE ( 'NONE',  #1358 ) ;
#229 = CARTESIAN_POINT ( 'NONE',  ( -10.00000000000000000, 2.799999999999999822, 10.00000000000000000 ) ) ;
#230 = AXIS2_PLACEMENT_3D ( 'NONE', #589, #468, #901 ) ;
#231 = CARTESIAN_POINT ( 'NONE',  ( -1.000000000000000000, 13.42264973081040047, -8.000000000000000000 ) ) ;
#232 = VERTEX_POINT ( 'NONE', #1339 ) ;
#233 = LINE ( 'NONE', #660, #60 ) ;
#234 = VECTOR ( 'NONE', #385, 1000.000000000000000 ) ;
#235 = LINE ( 'NONE', #1276, #992 ) ;
#236 = DIRECTION ( 'NONE',  ( -0.08715574274765813811, -0.9961946980917455452, 0.000000000000000000 ) ) ;
#237 = AXIS2_PLACEMENT_3D ( 'NONE', #843, #1167, #722 ) ;
#238 = ADVANCED_FACE ( 'NONE', ( #713 ), #1150, .F. ) ;
#239 = EDGE_CURVE ( 'NONE', #844, #958, #600, .T. ) ;
#240 = DIRECTION ( 'NONE',  ( 0.000000000000000000, -1.000000000000000000, 0.000000000000000000 ) ) ;
#241 = ORIENTED_EDGE ( 'NONE', *, *, #274, .F. ) ;
#242 = CARTESIAN_POINT ( 'NONE',  ( 3.024999999999999911, -1.250000000000000000, 3.024999999999999911 ) ) ;
#243 = DIRECTION ( 'NONE',  ( 0.000000000000000000, -1.000000000000000000, 0.000000000000000000 ) ) ;
#244 = CARTESIAN_POINT ( 'NONE',  ( 0.000000000000000000, 12.84529946162069969, -8.000000000000000000 ) ) ;
#245 = LINE ( 'NONE', #1210, #429 ) ;
#246 = ORIENTED_EDGE ( 'NONE', *, *, #497, .T. ) ;
#247 = DIRECTION ( 'NONE',  ( 0.000000000000000000, 0.000000000000000000, 1.000000000000000000 ) ) ;
#248 = VERTEX_POINT ( 'NONE', #297 ) ;
#249 = VERTEX_POINT ( 'NONE', #306 ) ;
#250 = FACE_OUTER_BOUND ( 'NONE', #1054, .T. ) ;
#251 = DIRECTION ( 'NONE',  ( 0.000000000000000000, 0.000000000000000000, -1.000000000000000000 ) ) ;
#252 = ORIENTED_EDGE ( 'NONE', *, *, #702, .F. ) ;
#253 = EDGE_CURVE ( 'NONE', #215, #1115, #1117, .T. ) ;
#254 = DIRECTION ( 'NONE',  ( 0.8660254037844387076, 0.4999999999999998890, 0.000000000000000000 ) ) ;
#255 = VERTEX_POINT ( 'NONE', #947 ) ;
#256 = AXIS2_PLACEMENT_3D ( 'NONE', #452, #1298, #1201 ) ;
#257 = DIRECTION ( 'NONE',  ( -0.08715574274765813811, 0.9961946980917455452, 0.000000000000000000 ) ) ;
#258 = PRODUCT_DEFINITION_CONTEXT ( 'detailed design', #829, 'design' ) ;
#259 = LINE ( 'NONE', #496, #666 ) ;
#260 = VECTOR ( 'NONE', #154, 1000.000000000000000 ) ;
#261 = CARTESIAN_POINT ( 'NONE',  ( 1.000000000000000000, 14.57735026918960131, -8.000000000000000000 ) ) ;
#262 = ORIENTED_EDGE ( 'NONE', *, *, #114, .T. ) ;
#263 = LINE ( 'NONE', #374, #39 ) ;
#264 = EDGE_CURVE ( 'NONE', #300, #994, #720, .T. ) ;
#265 = CARTESIAN_POINT ( 'NONE',  ( 1.000000000000000000, 13.42264973081040047, 9.000000000000000000 ) ) ;
#266 = DIRECTION ( 'NONE',  ( -0.08715574274765813811, 0.9961946980917455452, 0.000000000000000000 ) ) ;
#267 = DIRECTION ( 'NONE',  ( 0.000000000000000000, 1.000000000000000000, 0.000000000000000000 ) ) ;
#268 = ORIENTED_EDGE ( 'NONE', *, *, #383, .T. ) ;
#269 = CARTESIAN_POINT ( 'NONE',  ( -3.367778697655221012E-16, 2.799999999999999822, 2.750000000000000000 ) ) ;
#270 = ORIENTED_EDGE ( 'NONE', *, *, #708, .T. ) ;
#271 = DIRECTION ( 'NONE',  ( 0.000000000000000000, 1.000000000000000000, 0.000000000000000000 ) ) ;
#272 = CARTESIAN_POINT ( 'NONE',  ( 1.000000000000000000, 13.42264973081040047, 9.000000000000000000 ) ) ;
#273 = VECTOR ( 'NONE', #266, 1000.000000000000114 ) ;
#274 = EDGE_CURVE ( 'NONE', #994, #844, #1143, .T. ) ;
#275 = CARTESIAN_POINT ( 'NONE',  ( 0.000000000000000000, 14.00000000000000000, 9.000000000000000000 ) ) ;
#276 = CARTESIAN_POINT ( 'NONE',  ( -1.000000000000000000, 14.57735026918960131, -8.000000000000000000 ) ) ;
#277 = DIRECTION ( 'NONE',  ( 0.000000000000000000, 0.000000000000000000, -1.000000000000000000 ) ) ;
#278 = LINE ( 'NONE', #1009, #214 ) ;
#279 = ADVANCED_FACE ( 'NONE', ( #207, #820 ), #733, .F. ) ;
#280 = ADVANCED_FACE ( 'NONE', ( #1264 ), #196, .F. ) ;
#281 = AXIS2_PLACEMENT_3D ( 'NONE', #810, #750, #1074 ) ;
#282 = VECTOR ( 'NONE', #801, 1000.000000000000000 ) ;
#283 = DIRECTION ( 'NONE',  ( 0.000000000000000000, 1.000000000000000000, 0.000000000000000000 ) ) ;
#284 = EDGE_LOOP ( 'NONE', ( #226, #832, #479, #691 ) ) ;
#285 = FACE_OUTER_BOUND ( 'NONE', #1016, .T. ) ;
#286 = DIRECTION ( 'NONE',  ( 1.000000000000000000, 0.000000000000000000, 0.000000000000000000 ) ) ;
#287 = CARTESIAN_POINT ( 'NONE',  ( 1.000000000000000000, 14.57735026918960131, 9.000000000000000000 ) ) ;
#288 = ORIENTED_EDGE ( 'NONE', *, *, #564, .F. ) ;
#289 = CARTESIAN_POINT ( 'NONE',  ( 0.000000000000000000, 1.250000000000000000, 0.000000000000000000 ) ) ;
#290 = DIRECTION ( 'NONE',  ( 0.000000000000000000, 0.000000000000000000, 1.000000000000000000 ) ) ;
#291 = EDGE_LOOP ( 'NONE', ( #534, #655, #1254, #788 ) ) ;
#292 = VECTOR ( 'NONE', #1173, 1000.000000000000000 ) ;
#293 = DIRECTION ( 'NONE',  ( 0.000000000000000000, 0.000000000000000000, 1.000000000000000000 ) ) ;
#294 = CARTESIAN_POINT ( 'NONE',  ( -3.575000000000000178, 1.250000000000000000, -3.575000000000000178 ) ) ;
#295 = EDGE_CURVE ( 'NONE', #1246, #2, #942, .T. ) ;
#296 = ORIENTED_EDGE ( 'NONE', *, *, #396, .F. ) ;
#297 = CARTESIAN_POINT ( 'NONE',  ( 0.000000000000000000, 12.84529946162069969, 9.000000000000000000 ) ) ;
#298 = VERTEX_POINT ( 'NONE', #954 ) ;
#299 = DIRECTION ( 'NONE',  ( 1.000000000000000000, 0.000000000000000000, 0.000000000000000000 ) ) ;
#300 = VERTEX_POINT ( 'NONE', #1137 ) ;
#301 = CARTESIAN_POINT ( 'NONE',  ( 1.000000000000000000, 13.42264973081040047, 8.000000000000000000 ) ) ;
#302 = VECTOR ( 'NONE', #617, 1000.000000000000000 ) ;
#303 = CARTESIAN_POINT ( 'NONE',  ( 9.020126968509648790, 14.00000000000000000, 7.500000000000000000 ) ) ;
#304 = AXIS2_PLACEMENT_3D ( 'NONE', #828, #957, #313 ) ;
#305 = ORIENTED_EDGE ( 'NONE', *, *, #585, .T. ) ;
#306 = CARTESIAN_POINT ( 'NONE',  ( -1.000000000000000000, 14.57735026918960131, 8.000000000000000000 ) ) ;
#307 = EDGE_CURVE ( 'NONE', #2, #365, #495, .T. ) ;
#308 = ORIENTED_EDGE ( 'NONE', *, *, #321, .F. ) ;
#309 = CARTESIAN_POINT ( 'NONE',  ( 0.000000000000000000, 12.84529946162069969, -9.000000000000000000 ) ) ;
#310 = ORIENTED_EDGE ( 'NONE', *, *, #63, .T. ) ;
#311 = CARTESIAN_POINT ( 'NONE',  ( 0.000000000000000000, 12.84529946162069969, -8.000000000000000000 ) ) ;
#312 = ORIENTED_EDGE ( 'NONE', *, *, #381, .F. ) ;
#313 = DIRECTION ( 'NONE',  ( 1.000000000000000000, 0.000000000000000000, 0.000000000000000000 ) ) ;
#314 = ADVANCED_FACE ( 'NONE', ( #407 ), #834, .F. ) ;
#315 = ORIENTED_EDGE ( 'NONE', *, *, #513, .T. ) ;
#316 = CARTESIAN_POINT ( 'NONE',  ( 0.000000000000000000, 0.000000000000000000, -10.00000000000000000 ) ) ;
#317 = VECTOR ( 'NONE', #1046, 1000.000000000000000 ) ;
#318 = ORIENTED_EDGE ( 'NONE', *, *, #366, .F. ) ;
#319 = DIRECTION ( 'NONE',  ( 0.000000000000000000, 0.000000000000000000, 1.000000000000000000 ) ) ;
#320 = ADVANCED_FACE ( 'NONE', ( #77, #928 ), #393, .F. ) ;
#321 = EDGE_CURVE ( 'NONE', #438, #368, #951, .T. ) ;
#322 = ORIENTED_EDGE ( 'NONE', *, *, #1242, .T. ) ;
#323 = ORIENTED_EDGE ( 'NONE', *, *, #566, .F. ) ;
#324 = VECTOR ( 'NONE', #914, 1000.000000000000000 ) ;
#325 = LINE ( 'NONE', #556, #1188 ) ;
#326 = CARTESIAN_POINT ( 'NONE',  ( -2.500000000000000000, 14.00000000000000000, 9.000000000000000000 ) ) ;
#327 = FACE_OUTER_BOUND ( 'NONE', #615, .T. ) ;
#328 = DIRECTION ( 'NONE',  ( 0.000000000000000000, 0.000000000000000000, -1.000000000000000000 ) ) ;
#329 = VERTEX_POINT ( 'NONE', #1257 ) ;
#330 = ORIENTED_EDGE ( 'NONE', *, *, #1301, .F. ) ;
#331 = CARTESIAN_POINT ( 'NONE',  ( 1.084202172485499997E-16, 15.15470053837930209, 9.000000000000000000 ) ) ;
#332 = CARTESIAN_POINT ( 'NONE',  ( 0.000000000000000000, 14.00000000000000000, 7.500000000000000000 ) ) ;
#333 = CARTESIAN_POINT ( 'NONE',  ( -1.000000000000000000, 14.57735026918960131, -8.000000000000000000 ) ) ;
#334 = SURFACE_SIDE_STYLE ('',( #456 ) ) ;
#335 = STYLED_ITEM ( 'NONE', ( #107 ), #1140 ) ;
#336 = ORIENTED_EDGE ( 'NONE', *, *, #1065, .F. ) ;
#337 = PLANE ( 'NONE',  #17 ) ;
#338 = ADVANCED_FACE ( 'NONE', ( #935 ), #1347, .T. ) ;
#339 = EDGE_CURVE ( 'NONE', #680, #1256, #437, .T. ) ;
#340 = PLANE ( 'NONE',  #256 ) ;
#341 = DIRECTION ( 'NONE',  ( 1.000000000000000000, 0.000000000000000000, 0.000000000000000000 ) ) ;
#342 = VECTOR ( 'NONE', #1022, 1000.000000000000000 ) ;
#343 =( NAMED_UNIT ( * ) PLANE_ANGLE_UNIT ( ) SI_UNIT ( $, .RADIAN. ) );
#344 = VERTEX_POINT ( 'NONE', #1288 ) ;
#345 = ORIENTED_EDGE ( 'NONE', *, *, #179, .F. ) ;
#346 = CARTESIAN_POINT ( 'NONE',  ( 0.000000000000000000, 15.15470053837930209, 8.000000000000000000 ) ) ;
#347 = VECTOR ( 'NONE', #147, 1000.000000000000000 ) ;
#348 = DIRECTION ( 'NONE',  ( 0.000000000000000000, 0.000000000000000000, -1.000000000000000000 ) ) ;
#349 = LINE ( 'NONE', #1299, #825 ) ;
#350 = AXIS2_PLACEMENT_3D ( 'NONE', #1333, #1015, #1129 ) ;
#351 = DIRECTION ( 'NONE',  ( 0.000000000000000000, 0.000000000000000000, -1.000000000000000000 ) ) ;
#352 = VERTEX_POINT ( 'NONE', #331 ) ;
#353 = DIRECTION ( 'NONE',  ( 1.000000000000000000, 0.000000000000000000, 0.000000000000000000 ) ) ;
#354 = VERTEX_POINT ( 'NONE', #6 ) ;
#355 = CARTESIAN_POINT ( 'NONE',  ( 9.020126968509648790, 14.00000000000000000, 10.00000000000000000 ) ) ;
#356 = DIRECTION ( 'NONE',  ( 0.000000000000000000, 0.000000000000000000, 1.000000000000000000 ) ) ;
#357 = EDGE_CURVE ( 'NONE', #821, #746, #869, .T. ) ;
#358 = ORIENTED_EDGE ( 'NONE', *, *, #980, .T. ) ;
#359 = CARTESIAN_POINT ( 'NONE',  ( -10.00000000000000000, 2.799999999999999822, 7.500000000000000000 ) ) ;
#360 = AXIS2_PLACEMENT_3D ( 'NONE', #1363, #290, #299 ) ;
#361 = FACE_OUTER_BOUND ( 'NONE', #71, .T. ) ;
#362 = CARTESIAN_POINT ( 'NONE',  ( -9.020126968509648790, 14.00000000000000000, -7.500000000000000000 ) ) ;
#363 = VECTOR ( 'NONE', #960, 1000.000000000000000 ) ;
#364 = VECTOR ( 'NONE', #257, 1000.000000000000114 ) ;
#365 = VERTEX_POINT ( 'NONE', #1085 ) ;
#366 = EDGE_CURVE ( 'NONE', #711, #352, #852, .T. ) ;
#367 = DIRECTION ( 'NONE',  ( 0.000000000000000000, 0.000000000000000000, 1.000000000000000000 ) ) ;
#368 = VERTEX_POINT ( 'NONE', #137 ) ;
#369 = LINE ( 'NONE', #1319, #148 ) ;
#370 = SURFACE_STYLE_FILL_AREA ( #1312 ) ;
#371 = AXIS2_PLACEMENT_3D ( 'NONE', #18, #1196, #356 ) ;
#372 = CARTESIAN_POINT ( 'NONE',  ( -10.00000000000000000, 2.799999999999999822, 10.00000000000000000 ) ) ;
#373 = ORIENTED_EDGE ( 'NONE', *, *, #848, .T. ) ;
#374 = CARTESIAN_POINT ( 'NONE',  ( -3.024999999999999911, -1.250000000000000000, -3.024999999999999911 ) ) ;
#375 = EDGE_LOOP ( 'NONE', ( #345, #704, #1368, #373 ) ) ;
#376 = CARTESIAN_POINT ( 'NONE',  ( 0.000000000000000000, 12.84529946162069969, -8.000000000000000000 ) ) ;
#377 = CARTESIAN_POINT ( 'NONE',  ( 1.000000000000000000, 13.42264973081040047, -8.000000000000000000 ) ) ;
#378 = PLANE ( 'NONE',  #455 ) ;
#379 = CARTESIAN_POINT ( 'NONE',  ( -10.00000000000000000, 0.000000000000000000, 10.00000000000000000 ) ) ;
#380 = DIRECTION ( 'NONE',  ( 0.4999999999999998890, -0.8660254037844387076, 0.000000000000000000 ) ) ;
#381 = EDGE_CURVE ( 'NONE', #898, #1267, #1076, .T. ) ;
#382 = DIRECTION ( 'NONE',  ( 0.000000000000000000, 0.000000000000000000, 1.000000000000000000 ) ) ;
#383 = EDGE_CURVE ( 'NONE', #574, #115, #1282, .T. ) ;
#384 = DIRECTION ( 'NONE',  ( 0.000000000000000000, 0.000000000000000000, -1.000000000000000000 ) ) ;
#385 = DIRECTION ( 'NONE',  ( -0.8660254037844387076, 0.4999999999999998890, 0.000000000000000000 ) ) ;
#386 = VERTEX_POINT ( 'NONE', #754 ) ;
#387 = FACE_OUTER_BOUND ( 'NONE', #586, .T. ) ;
#388 = CARTESIAN_POINT ( 'NONE',  ( -10.00000000000000000, 2.799999999999999822, -7.500000000000000000 ) ) ;
#389 = VECTOR ( 'NONE', #877, 1000.000000000000000 ) ;
#390 = VECTOR ( 'NONE', #937, 1000.000000000000000 ) ;
#391 = CARTESIAN_POINT ( 'NONE',  ( 1.000000000000000000, 14.57735026918960131, 8.000000000000000000 ) ) ;
#392 = ORIENTED_EDGE ( 'NONE', *, *, #274, .T. ) ;
#393 = PLANE ( 'NONE',  #14 ) ;
#394 = ORIENTED_EDGE ( 'NONE', *, *, #980, .F. ) ;
#395 = FACE_OUTER_BOUND ( 'NONE', #1136, .T. ) ;
#396 = EDGE_CURVE ( 'NONE', #796, #574, #213, .T. ) ;
#397 = DIRECTION ( 'NONE',  ( 1.000000000000000000, 0.000000000000000000, 0.000000000000000000 ) ) ;
#398 = VERTEX_POINT ( 'NONE', #550 ) ;
#399 = CARTESIAN_POINT ( 'NONE',  ( 0.000000000000000000, 0.000000000000000000, -8.000000000000000000 ) ) ;
#400 = ORIENTED_EDGE ( 'NONE', *, *, #1027, .T. ) ;
#401 = AXIS2_PLACEMENT_3D ( 'NONE', #1128, #67, #1030 ) ;
#402 = DIRECTION ( 'NONE',  ( 0.000000000000000000, 0.000000000000000000, 1.000000000000000000 ) ) ;
#403 = FACE_OUTER_BOUND ( 'NONE', #789, .T. ) ;
#404 = VECTOR ( 'NONE', #845, 1000.000000000000000 ) ;
#405 = EDGE_CURVE ( 'NONE', #159, #1100, #325, .T. ) ;
#406 = ORIENTED_EDGE ( 'NONE', *, *, #685, .T. ) ;
#407 = FACE_OUTER_BOUND ( 'NONE', #543, .T. ) ;
#408 = ORIENTED_EDGE ( 'NONE', *, *, #513, .F. ) ;
#409 = CARTESIAN_POINT ( 'NONE',  ( 10.00000000000000000, 2.799999999999999822, 10.00000000000000000 ) ) ;
#410 = AXIS2_PLACEMENT_3D ( 'NONE', #332, #1072, #1098 ) ;
#411 = AXIS2_PLACEMENT_3D ( 'NONE', #1031, #1036, #81 ) ;
#412 = ORIENTED_EDGE ( 'NONE', *, *, #868, .T. ) ;
#413 = CARTESIAN_POINT ( 'NONE',  ( 1.000000000000000000, 14.57735026918960131, -8.000000000000000000 ) ) ;
#414 = ADVANCED_FACE ( 'NONE', ( #445 ), #337, .F. ) ;
#415 = ORIENTED_EDGE ( 'NONE', *, *, #1187, .F. ) ;
#416 = CARTESIAN_POINT ( 'NONE',  ( 2.500000000000000000, 14.00000000000000000, -9.000000000000000000 ) ) ;
#417 = ORIENTED_EDGE ( 'NONE', *, *, #1105, .T. ) ;
#418 = CARTESIAN_POINT ( 'NONE',  ( 0.000000000000000000, 14.00000000000000000, -9.000000000000000000 ) ) ;
#419 = EDGE_CURVE ( 'NONE', #255, #354, #1171, .T. ) ;
#420 = ORIENTED_EDGE ( 'NONE', *, *, #1103, .T. ) ;
#421 = LINE ( 'NONE', #1060, #64 ) ;
#422 = EDGE_CURVE ( 'NONE', #115, #1100, #542, .T. ) ;
#423 = ORIENTED_EDGE ( 'NONE', *, *, #896, .T. ) ;
#424 = DIRECTION ( 'NONE',  ( 0.000000000000000000, 0.000000000000000000, -1.000000000000000000 ) ) ;
#425 = ORIENTED_EDGE ( 'NONE', *, *, #546, .F. ) ;
#426 = LINE ( 'NONE', #409, #1364 ) ;
#427 = DIRECTION ( 'NONE',  ( -0.4999999999999998890, 0.8660254037844387076, 0.000000000000000000 ) ) ;
#428 = ORIENTED_EDGE ( 'NONE', *, *, #658, .F. ) ;
#429 = VECTOR ( 'NONE', #663, 1000.000000000000000 ) ;
#430 = LINE ( 'NONE', #654, #591 ) ;
#431 = DIRECTION ( 'NONE',  ( -0.000000000000000000, 1.000000000000000000, 0.000000000000000000 ) ) ;
#432 = LINE ( 'NONE', #569, #442 ) ;
#433 = LINE ( 'NONE', #864, #1020 ) ;
#434 = EDGE_CURVE ( 'NONE', #352, #85, #113, .T. ) ;
#435 = EDGE_LOOP ( 'NONE', ( #549, #42 ) ) ;
#436 = VERTEX_POINT ( 'NONE', #770 ) ;
#437 = LINE ( 'NONE', #761, #363 ) ;
#438 = VERTEX_POINT ( 'NONE', #119 ) ;
#439 = DIRECTION ( 'NONE',  ( 0.000000000000000000, 1.000000000000000000, 0.000000000000000000 ) ) ;
#440 = CARTESIAN_POINT ( 'NONE',  ( -3.024999999999999911, -1.250000000000000000, 3.024999999999999911 ) ) ;
#441 = ORIENTED_EDGE ( 'NONE', *, *, #1359, .F. ) ;
#442 = VECTOR ( 'NONE', #461, 1000.000000000000000 ) ;
#443 = ORIENTED_EDGE ( 'NONE', *, *, #1063, .T. ) ;
#444 = EDGE_CURVE ( 'NONE', #988, #588, #233, .T. ) ;
#445 = FACE_OUTER_BOUND ( 'NONE', #201, .T. ) ;
#446 = CARTESIAN_POINT ( 'NONE',  ( 3.575000000000000178, 0.000000000000000000, 3.575000000000000178 ) ) ;
#447 = CARTESIAN_POINT ( 'NONE',  ( 0.000000000000000000, 12.84529946162069969, -8.000000000000000000 ) ) ;
#448 = LINE ( 'NONE', #672, #520 ) ;
#449 = ORIENTED_EDGE ( 'NONE', *, *, #28, .T. ) ;
#450 = LINE ( 'NONE', #989, #1250 ) ;
#451 = MECHANICAL_DESIGN_GEOMETRIC_PRESENTATION_REPRESENTATION (  '', ( #1080 ), #792 ) ;
#452 = CARTESIAN_POINT ( 'NONE',  ( 0.000000000000000000, 0.000000000000000000, 8.000000000000000000 ) ) ;
#453 = EDGE_CURVE ( 'NONE', #206, #1057, #450, .T. ) ;
#454 = DIRECTION ( 'NONE',  ( -0.4999999999999998890, -0.8660254037844387076, 0.000000000000000000 ) ) ;
#455 = AXIS2_PLACEMENT_3D ( 'NONE', #275, #319, #512 ) ;
#456 = SURFACE_STYLE_FILL_AREA ( #553 ) ;
#457 = ORIENTED_EDGE ( 'NONE', *, *, #773, .F. ) ;
#458 = DIRECTION ( 'NONE',  ( 1.000000000000000000, 0.000000000000000000, 0.000000000000000000 ) ) ;
#459 = ORIENTED_EDGE ( 'NONE', *, *, #798, .T. ) ;
#460 = DIRECTION ( 'NONE',  ( 0.000000000000000000, 0.000000000000000000, -1.000000000000000000 ) ) ;
#461 = DIRECTION ( 'NONE',  ( 0.000000000000000000, -1.000000000000000000, 0.000000000000000000 ) ) ;
#462 = ADVANCED_FACE ( 'NONE', ( #969 ), #22, .F. ) ;
#463 = EDGE_CURVE ( 'NONE', #436, #836, #430, .T. ) ;
#464 =( NAMED_UNIT ( * ) SI_UNIT ( $, .STERADIAN. ) SOLID_ANGLE_UNIT ( ) );
#465 = ORIENTED_EDGE ( 'NONE', *, *, #1025, .F. ) ;
#466 = AXIS2_PLACEMENT_3D ( 'NONE', #1186, #121, #341 ) ;
#467 = DIRECTION ( 'NONE',  ( 1.000000000000000000, 0.000000000000000000, 0.000000000000000000 ) ) ;
#468 = DIRECTION ( 'NONE',  ( -1.000000000000000000, 0.000000000000000000, 0.000000000000000000 ) ) ;
#469 = DIRECTION ( 'NONE',  ( 1.000000000000000000, 0.000000000000000000, 0.000000000000000000 ) ) ;
#470 = CARTESIAN_POINT ( 'NONE',  ( 1.000000000000000000, 14.57735026918960131, -8.000000000000000000 ) ) ;
#471 = ORIENTED_EDGE ( 'NONE', *, *, #955, .F. ) ;
#472 = CARTESIAN_POINT ( 'NONE',  ( 10.00000000000000000, 0.000000000000000000, -10.00000000000000000 ) ) ;
#473 = DIRECTION ( 'NONE',  ( -1.000000000000000000, 0.000000000000000000, 0.000000000000000000 ) ) ;
#474 = UNCERTAINTY_MEASURE_WITH_UNIT (LENGTH_MEASURE( 1.000000000000000082E-05 ), #582, 'distance_accuracy_value', 'NONE');
#475 = DIRECTION ( 'NONE',  ( 0.000000000000000000, 0.000000000000000000, -1.000000000000000000 ) ) ;
#476 = VECTOR ( 'NONE', #251, 1000.000000000000000 ) ;
#477 = AXIS2_PLACEMENT_3D ( 'NONE', #1068, #532, #1357 ) ;
#478 = FACE_OUTER_BOUND ( 'NONE', #1352, .T. ) ;
#479 = ORIENTED_EDGE ( 'NONE', *, *, #664, .F. ) ;
#480 = EDGE_CURVE ( 'NONE', #1262, #1104, #632, .T. ) ;
#481 = CARTESIAN_POINT ( 'NONE',  ( 0.000000000000000000, 12.84529946162069969, 8.000000000000000000 ) ) ;
#482 = ADVANCED_FACE ( 'NONE', ( #530 ), #13, .T. ) ;
#483 = CARTESIAN_POINT ( 'NONE',  ( -1.000000000000000000, 13.42264973081040047, 8.000000000000000000 ) ) ;
#484 = PLANE ( 'NONE',  #578 ) ;
#485 = DIRECTION ( 'NONE',  ( 0.000000000000000000, 0.000000000000000000, -1.000000000000000000 ) ) ;
#486 = LINE ( 'NONE', #892, #907 ) ;
#487 = ORIENTED_EDGE ( 'NONE', *, *, #63, .F. ) ;
#488 = CARTESIAN_POINT ( 'NONE',  ( -2.500000000000000000, 14.00000000000000000, -9.000000000000000000 ) ) ;
#489 = DIRECTION ( 'NONE',  ( 1.000000000000000000, 0.000000000000000000, 0.000000000000000000 ) ) ;
#490 = VECTOR ( 'NONE', #489, 1000.000000000000000 ) ;
#491 = CARTESIAN_POINT ( 'NONE',  ( -1.000000000000000000, 13.42264973081040047, 8.000000000000000000 ) ) ;
#492 = AXIS2_PLACEMENT_3D ( 'NONE', #86, #1039, #502 ) ;
#493 = FACE_OUTER_BOUND ( 'NONE', #1064, .T. ) ;
#494 = VERTEX_POINT ( 'NONE', #899 ) ;
#495 = LINE ( 'NONE', #1353, #62 ) ;
#496 = CARTESIAN_POINT ( 'NONE',  ( 1.000000000000000000, 13.42264973081040047, -8.000000000000000000 ) ) ;
#497 = EDGE_CURVE ( 'NONE', #994, #988, #777, .T. ) ;
#498 = PLANE ( 'NONE',  #1062 ) ;
#499 = VECTOR ( 'NONE', #997, 1000.000000000000000 ) ;
#500 = CARTESIAN_POINT ( 'NONE',  ( 1.000000000000000000, 14.57735026918960131, -8.000000000000000000 ) ) ;
#501 = EDGE_LOOP ( 'NONE', ( #721, #98, #111, #934, #738, #20 ) ) ;
#502 = DIRECTION ( 'NONE',  ( 1.000000000000000000, 0.000000000000000000, 0.000000000000000000 ) ) ;
#503 = ORIENTED_EDGE ( 'NONE', *, *, #790, .T. ) ;
#504 = ORIENTED_EDGE ( 'NONE', *, *, #1065, .T. ) ;
#505 = CYLINDRICAL_SURFACE ( 'NONE', #1082, 9.020126968509648790 ) ;
#506 = EDGE_CURVE ( 'NONE', #948, #554, #1019, .T. ) ;
#507 = LINE ( 'NONE', #200, #859 ) ;
#508 = ORIENTED_EDGE ( 'NONE', *, *, #463, .F. ) ;
#509 = DIRECTION ( 'NONE',  ( 1.000000000000000000, 0.000000000000000000, 0.000000000000000000 ) ) ;
#510 = ORIENTED_EDGE ( 'NONE', *, *, #383, .F. ) ;
#511 = CIRCLE ( 'NONE', #225, 2.500000000000000000 ) ;
#512 = DIRECTION ( 'NONE',  ( 1.000000000000000000, 0.000000000000000000, 0.000000000000000000 ) ) ;
#513 = EDGE_CURVE ( 'NONE', #5, #898, #1216, .T. ) ;
#514 = ORIENTED_EDGE ( 'NONE', *, *, #339, .F. ) ;
#515 = DIRECTION ( 'NONE',  ( 1.000000000000000000, 0.000000000000000000, 0.000000000000000000 ) ) ;
#516 = SHAPE_DEFINITION_REPRESENTATION ( #875, #1140 ) ;
#517 = VECTOR ( 'NONE', #1177, 1000.000000000000000 ) ;
#518 = ORIENTED_EDGE ( 'NONE', *, *, #463, .T. ) ;
#519 = DIRECTION ( 'NONE',  ( 0.000000000000000000, -1.000000000000000000, 0.000000000000000000 ) ) ;
#520 = VECTOR ( 'NONE', #545, 1000.000000000000000 ) ;
#521 = VECTOR ( 'NONE', #267, 1000.000000000000000 ) ;
#522 = EDGE_CURVE ( 'NONE', #1100, #796, #263, .T. ) ;
#523 = EDGE_LOOP ( 'NONE', ( #190, #487, #726, #665 ) ) ;
#524 = EDGE_CURVE ( 'NONE', #398, #1170, #668, .T. ) ;
#525 = DIRECTION ( 'NONE',  ( 0.000000000000000000, 0.000000000000000000, -1.000000000000000000 ) ) ;
#526 = ORIENTED_EDGE ( 'NONE', *, *, #868, .F. ) ;
#527 = CARTESIAN_POINT ( 'NONE',  ( -1.000000000000000000, 14.57735026918960131, 8.000000000000000000 ) ) ;
#528 = ORIENTED_EDGE ( 'NONE', *, *, #745, .F. ) ;
#529 = ORIENTED_EDGE ( 'NONE', *, *, #9, .F. ) ;
#530 = FACE_OUTER_BOUND ( 'NONE', #375, .T. ) ;
#531 = CARTESIAN_POINT ( 'NONE',  ( -1.000000000000000000, 14.57735026918960131, 9.000000000000000000 ) ) ;
#532 = DIRECTION ( 'NONE',  ( 0.000000000000000000, 0.000000000000000000, 1.000000000000000000 ) ) ;
#533 = CARTESIAN_POINT ( 'NONE',  ( 0.000000000000000000, 15.15470053837930209, 8.000000000000000000 ) ) ;
#534 = ORIENTED_EDGE ( 'NONE', *, *, #419, .T. ) ;
#535 = DIRECTION ( 'NONE',  ( 1.000000000000000000, 0.000000000000000000, 0.000000000000000000 ) ) ;
#536 = ORIENTED_EDGE ( 'NONE', *, *, #381, .T. ) ;
#537 = LINE ( 'NONE', #377, #1010 ) ;
#538 = EDGE_CURVE ( 'NONE', #572, #711, #587, .T. ) ;
#539 = PLANE ( 'NONE',  #950 ) ;
#540 = ORIENTED_EDGE ( 'NONE', *, *, #480, .T. ) ;
#541 = VECTOR ( 'NONE', #1203, 1000.000000000000114 ) ;
#542 = LINE ( 'NONE', #1165, #389 ) ;
#543 = EDGE_LOOP ( 'NONE', ( #1341, #504, #1198, #417 ) ) ;
#544 = DIRECTION ( 'NONE',  ( 1.000000000000000000, 0.000000000000000000, 0.000000000000000000 ) ) ;
#545 = DIRECTION ( 'NONE',  ( 0.000000000000000000, -1.000000000000000000, 0.000000000000000000 ) ) ;
#546 = EDGE_CURVE ( 'NONE', #1262, #61, #486, .T. ) ;
#547 = ORIENTED_EDGE ( 'NONE', *, *, #585, .F. ) ;
#548 = VERTEX_POINT ( 'NONE', #696 ) ;
#549 = ORIENTED_EDGE ( 'NONE', *, *, #1361, .T. ) ;
#550 = CARTESIAN_POINT ( 'NONE',  ( -3.367778697655221012E-16, -1.250000000000000000, 2.750000000000000000 ) ) ;
#551 = CARTESIAN_POINT ( 'NONE',  ( -10.00000000000000000, 2.799999999999999822, 7.500000000000000000 ) ) ;
#552 = LINE ( 'NONE', #772, #144 ) ;
#553 = FILL_AREA_STYLE ('',( #1108 ) ) ;
#554 = VERTEX_POINT ( 'NONE', #783 ) ;
#555 = EDGE_CURVE ( 'NONE', #572, #1059, #690, .T. ) ;
#556 = CARTESIAN_POINT ( 'NONE',  ( -3.024999999999999911, 1.250000000000000000, -3.024999999999999911 ) ) ;
#557 = AXIS2_PLACEMENT_3D ( 'NONE', #785, #49, #271 ) ;
#558 = CARTESIAN_POINT ( 'NONE',  ( 0.000000000000000000, 15.15470053837930209, 8.000000000000000000 ) ) ;
#559 = PLANE ( 'NONE',  #897 ) ;
#560 = LINE ( 'NONE', #261, #767 ) ;
#561 = ORIENTED_EDGE ( 'NONE', *, *, #217, .T. ) ;
#562 = VECTOR ( 'NONE', #646, 1000.000000000000114 ) ;
#563 = CARTESIAN_POINT ( 'NONE',  ( 3.024999999999999911, -1.250000000000000000, 3.024999999999999911 ) ) ;
#564 = EDGE_CURVE ( 'NONE', #953, #61, #65, .T. ) ;
#565 = ORIENTED_EDGE ( 'NONE', *, *, #1135, .F. ) ;
#566 = EDGE_CURVE ( 'NONE', #298, #218, #919, .T. ) ;
#567 = VECTOR ( 'NONE', #34, 1000.000000000000000 ) ;
#568 = PLANE ( 'NONE',  #669 ) ;
#569 = CARTESIAN_POINT ( 'NONE',  ( 1.000000000000000000, 14.57735026918960131, -9.000000000000000000 ) ) ;
#570 = VECTOR ( 'NONE', #402, 1000.000000000000000 ) ;
#571 = LINE ( 'NONE', #1286, #541 ) ;
#572 = VERTEX_POINT ( 'NONE', #55 ) ;
#573 = DIRECTION ( 'NONE',  ( -1.000000000000000000, 0.000000000000000000, 0.000000000000000000 ) ) ;
#574 = VERTEX_POINT ( 'NONE', #563 ) ;
#575 = LINE ( 'NONE', #1006, #364 ) ;
#576 = CARTESIAN_POINT ( 'NONE',  ( 1.000000000000000000, 13.42264973081040047, 8.000000000000000000 ) ) ;
#577 = ORIENTED_EDGE ( 'NONE', *, *, #1008, .T. ) ;
#578 = AXIS2_PLACEMENT_3D ( 'NONE', #794, #917, #469 ) ;
#579 = CARTESIAN_POINT ( 'NONE',  ( -3.575000000000000178, 0.000000000000000000, 3.575000000000000178 ) ) ;
#580 = ORIENTED_EDGE ( 'NONE', *, *, #181, .F. ) ;
#581 = DIRECTION ( 'NONE',  ( 0.000000000000000000, 0.000000000000000000, -1.000000000000000000 ) ) ;
#582 =( LENGTH_UNIT ( ) NAMED_UNIT ( * ) SI_UNIT ( .MILLI., .METRE. ) );
#583 = CARTESIAN_POINT ( 'NONE',  ( -1.000000000000000000, 14.57735026918960131, -8.000000000000000000 ) ) ;
#584 = EDGE_CURVE ( 'NONE', #936, #824, #160, .T. ) ;
#585 = EDGE_CURVE ( 'NONE', #218, #953, #803, .T. ) ;
#586 = EDGE_LOOP ( 'NONE', ( #842, #883, #642, #459 ) ) ;
#587 = LINE ( 'NONE', #1026, #324 ) ;
#588 = VERTEX_POINT ( 'NONE', #472 ) ;
#589 = CARTESIAN_POINT ( 'NONE',  ( 10.00000000000000000, 0.000000000000000000, 10.00000000000000000 ) ) ;
#590 = DIRECTION ( 'NONE',  ( 0.000000000000000000, 1.000000000000000000, 0.000000000000000000 ) ) ;
#591 = VECTOR ( 'NONE', #1091, 1000.000000000000000 ) ;
#592 = VECTOR ( 'NONE', #1349, 1000.000000000000000 ) ;
#593 = CARTESIAN_POINT ( 'NONE',  ( 10.00000000000000000, 2.799999999999999822, -7.500000000000000000 ) ) ;
#594 = DIRECTION ( 'NONE',  ( 0.8660254037844387076, 0.4999999999999998890, 0.000000000000000000 ) ) ;
#595 = FACE_OUTER_BOUND ( 'NONE', #1163, .T. ) ;
#596 = FACE_BOUND ( 'NONE', #975, .T. ) ;
#597 = DIRECTION ( 'NONE',  ( 0.000000000000000000, 1.000000000000000000, 0.000000000000000000 ) ) ;
#598 = ADVANCED_FACE ( 'NONE', ( #1223 ), #1124, .T. ) ;
#599 = ORIENTED_EDGE ( 'NONE', *, *, #434, .T. ) ;
#600 = LINE ( 'NONE', #1053, #1207 ) ;
#601 = APPLICATION_PROTOCOL_DEFINITION ( 'draft international standard', 'automotive_design', 1998, #682 ) ;
#602 = AXIS2_PLACEMENT_3D ( 'NONE', #639, #978, #871 ) ;
#603 = CARTESIAN_POINT ( 'NONE',  ( 10.00000000000000000, 2.799999999999999822, 10.00000000000000000 ) ) ;
#604 = AXIS2_PLACEMENT_3D ( 'NONE', #399, #826, #1183 ) ;
#605 = LINE ( 'NONE', #1050, #676 ) ;
#606 = ORIENTED_EDGE ( 'NONE', *, *, #1206, .T. ) ;
#607 = DIRECTION ( 'NONE',  ( 1.000000000000000000, 0.000000000000000000, 0.000000000000000000 ) ) ;
#608 = EDGE_LOOP ( 'NONE', ( #308, #1028 ) ) ;
#609 = EDGE_CURVE ( 'NONE', #5, #56, #1303, .T. ) ;
#610 = ORIENTED_EDGE ( 'NONE', *, *, #1123, .T. ) ;
#611 = LINE ( 'NONE', #301, #592 ) ;
#612 = CARTESIAN_POINT ( 'NONE',  ( 10.00000000000000000, 2.799999999999999822, -10.00000000000000000 ) ) ;
#613 = ORIENTED_EDGE ( 'NONE', *, *, #134, .T. ) ;
#614 = CARTESIAN_POINT ( 'NONE',  ( 0.000000000000000000, 2.799999999999999822, 0.000000000000000000 ) ) ;
#615 = EDGE_LOOP ( 'NONE', ( #659, #536, #406, #221 ) ) ;
#616 = CARTESIAN_POINT ( 'NONE',  ( 0.000000000000000000, -1.250000000000000000, 0.000000000000000000 ) ) ;
#617 = DIRECTION ( 'NONE',  ( 1.000000000000000000, 0.000000000000000000, 0.000000000000000000 ) ) ;
#618 = EDGE_LOOP ( 'NONE', ( #224, #318, #620, #1318 ) ) ;
#619 = DIRECTION ( 'NONE',  ( 0.000000000000000000, 0.000000000000000000, 1.000000000000000000 ) ) ;
#620 = ORIENTED_EDGE ( 'NONE', *, *, #538, .F. ) ;
#621 = CARTESIAN_POINT ( 'NONE',  ( 0.000000000000000000, 15.15470053837930209, -8.000000000000000000 ) ) ;
#622 = ADVANCED_FACE ( 'NONE', ( #69 ), #1208, .F. ) ;
#623 = ADVANCED_FACE ( 'NONE', ( #791 ), #1212, .F. ) ;
#624 = ORIENTED_EDGE ( 'NONE', *, *, #773, .T. ) ;
#625 = DIRECTION ( 'NONE',  ( 1.000000000000000000, 0.000000000000000000, 0.000000000000000000 ) ) ;
#626 = EDGE_LOOP ( 'NONE', ( #1329, #1211, #920, #1176, #683, #392 ) ) ;
#627 = CARTESIAN_POINT ( 'NONE',  ( -10.00000000000000000, 0.000000000000000000, 10.00000000000000000 ) ) ;
#628 = CIRCLE ( 'NONE', #1101, 2.500000000000000000 ) ;
#629 = ORIENTED_EDGE ( 'NONE', *, *, #1359, .T. ) ;
#630 = VECTOR ( 'NONE', #1255, 1000.000000000000000 ) ;
#631 = ORIENTED_EDGE ( 'NONE', *, *, #896, .F. ) ;
#632 = LINE ( 'NONE', #143, #212 ) ;
#633 = ORIENTED_EDGE ( 'NONE', *, *, #1301, .T. ) ;
#634 = DIRECTION ( 'NONE',  ( 0.000000000000000000, 0.000000000000000000, 1.000000000000000000 ) ) ;
#635 = ORIENTED_EDGE ( 'NONE', *, *, #658, .T. ) ;
#636 = DIRECTION ( 'NONE',  ( 0.000000000000000000, -1.000000000000000000, 0.000000000000000000 ) ) ;
#637 = ADVANCED_FACE ( 'NONE', ( #1317 ), #539, .F. ) ;
#638 = CARTESIAN_POINT ( 'NONE',  ( 0.000000000000000000, -1.250000000000000000, 0.000000000000000000 ) ) ;
#639 = CARTESIAN_POINT ( 'NONE',  ( 0.000000000000000000, 2.799999999999999822, 0.000000000000000000 ) ) ;
#640 =( GEOMETRIC_REPRESENTATION_CONTEXT ( 3 ) GLOBAL_UNCERTAINTY_ASSIGNED_CONTEXT ( ( #1185 ) ) GLOBAL_UNIT_ASSIGNED_CONTEXT ( ( #1238, #1354, #203 ) ) REPRESENTATION_CONTEXT ( 'NONE', 'WORKASPACE' ) );
#641 = DIRECTION ( 'NONE',  ( 0.4999999999999998890, 0.8660254037844387076, 0.000000000000000000 ) ) ;
#642 = ORIENTED_EDGE ( 'NONE', *, *, #584, .F. ) ;
#643 = EDGE_LOOP ( 'NONE', ( #191, #729, #241, #246 ) ) ;
#644 = DIRECTION ( 'NONE',  ( 0.000000000000000000, 0.000000000000000000, 1.000000000000000000 ) ) ;
#645 = AXIS2_PLACEMENT_3D ( 'NONE', #1112, #684, #581 ) ;
#646 = DIRECTION ( 'NONE',  ( -0.08715574274765813811, 0.9961946980917455452, 0.000000000000000000 ) ) ;
#647 = DIRECTION ( 'NONE',  ( -1.000000000000000000, 0.000000000000000000, 0.000000000000000000 ) ) ;
#648 = ADVANCED_FACE ( 'NONE', ( #403 ), #223, .F. ) ;
#649 = LINE ( 'NONE', #873, #260 ) ;
#650 = EDGE_LOOP ( 'NONE', ( #288, #547, #1131, #182 ) ) ;
#651 = VECTOR ( 'NONE', #150, 1000.000000000000000 ) ;
#652 = ORIENTED_EDGE ( 'NONE', *, *, #321, .T. ) ;
#653 = VECTOR ( 'NONE', #8, 1000.000000000000000 ) ;
#654 = CARTESIAN_POINT ( 'NONE',  ( -9.020126968509648790, 14.00000000000000000, 7.500000000000000000 ) ) ;
#655 = ORIENTED_EDGE ( 'NONE', *, *, #817, .F. ) ;
#656 = PLANE ( 'NONE',  #51 ) ;
#657 = FACE_OUTER_BOUND ( 'NONE', #284, .T. ) ;
#658 = EDGE_CURVE ( 'NONE', #548, #983, #628, .T. ) ;
#659 = ORIENTED_EDGE ( 'NONE', *, *, #1187, .T. ) ;
#660 = CARTESIAN_POINT ( 'NONE',  ( -10.00000000000000000, 0.000000000000000000, -10.00000000000000000 ) ) ;
#661 = ORIENTED_EDGE ( 'NONE', *, *, #905, .T. ) ;
#662 = LINE ( 'NONE', #362, #185 ) ;
#663 = DIRECTION ( 'NONE',  ( 0.000000000000000000, -1.000000000000000000, 0.000000000000000000 ) ) ;
#664 = EDGE_CURVE ( 'NONE', #211, #1259, #1248, .T. ) ;
#665 = ORIENTED_EDGE ( 'NONE', *, *, #609, .F. ) ;
#666 = VECTOR ( 'NONE', #475, 1000.000000000000000 ) ;
#667 = ADVANCED_FACE ( 'NONE', ( #1272 ), #933, .F. ) ;
#668 = LINE ( 'NONE', #269, #813 ) ;
#669 = AXIS2_PLACEMENT_3D ( 'NONE', #1209, #380, #697 ) ;
#670 = DIRECTION ( 'NONE',  ( -0.4999999999999998890, 0.8660254037844387076, 0.000000000000000000 ) ) ;
#671 = FACE_OUTER_BOUND ( 'NONE', #1075, .T. ) ;
#672 = CARTESIAN_POINT ( 'NONE',  ( -3.024999999999999911, 1.250000000000000000, 3.024999999999999911 ) ) ;
#673 = ORIENTED_EDGE ( 'NONE', *, *, #1079, .T. ) ;
#674 = CARTESIAN_POINT ( 'NONE',  ( 1.000000000000000000, 14.57735026918960131, 8.000000000000000000 ) ) ;
#675 = ORIENTED_EDGE ( 'NONE', *, *, #9, .T. ) ;
#676 = VECTOR ( 'NONE', #725, 1000.000000000000114 ) ;
#677 = DIRECTION ( 'NONE',  ( 0.8660254037844387076, -0.4999999999999998890, 0.000000000000000000 ) ) ;
#678 = CARTESIAN_POINT ( 'NONE',  ( 0.000000000000000000, 0.000000000000000000, 10.00000000000000000 ) ) ;
#679 = CARTESIAN_POINT ( 'NONE',  ( 10.00000000000000000, 2.799999999999999822, 10.00000000000000000 ) ) ;
#680 = VERTEX_POINT ( 'NONE', #303 ) ;
#681 = CARTESIAN_POINT ( 'NONE',  ( -3.575000000000000178, 1.250000000000000000, -3.575000000000000178 ) ) ;
#682 = APPLICATION_CONTEXT ( 'automotive_design' ) ;
#683 = ORIENTED_EDGE ( 'NONE', *, *, #264, .T. ) ;
#684 = DIRECTION ( 'NONE',  ( 0.9961946980917455452, 0.08715574274765815199, 0.000000000000000000 ) ) ;
#685 = EDGE_CURVE ( 'NONE', #1267, #232, #605, .T. ) ;
#686 = CARTESIAN_POINT ( 'NONE',  ( 10.00000000000000000, 2.799999999999999822, 10.00000000000000000 ) ) ;
#687 = CARTESIAN_POINT ( 'NONE',  ( -1.000000000000000000, 13.42264973081040047, 9.000000000000000000 ) ) ;
#688 = ORIENTED_EDGE ( 'NONE', *, *, #922, .F. ) ;
#689 = CIRCLE ( 'NONE', #941, 2.500000000000000000 ) ;
#690 = LINE ( 'NONE', #674, #651 ) ;
#691 = ORIENTED_EDGE ( 'NONE', *, *, #833, .T. ) ;
#692 = CARTESIAN_POINT ( 'NONE',  ( 0.000000000000000000, 14.00000000000000000, 9.000000000000000000 ) ) ;
#693 = LINE ( 'NONE', #805, #490 ) ;
#694 = EDGE_CURVE ( 'NONE', #1059, #352, #1148, .T. ) ;
#695 = DIRECTION ( 'NONE',  ( 0.000000000000000000, 0.000000000000000000, 1.000000000000000000 ) ) ;
#696 = CARTESIAN_POINT ( 'NONE',  ( 2.500000000000000000, 14.00000000000000000, 9.000000000000000000 ) ) ;
#697 = DIRECTION ( 'NONE',  ( 0.000000000000000000, 0.000000000000000000, -1.000000000000000000 ) ) ;
#698 = CYLINDRICAL_SURFACE ( 'NONE', #872, 9.020126968509648790 ) ;
#699 = AXIS2_PLACEMENT_3D ( 'NONE', #818, #1235, #709 ) ;
#700 = AXIS2_PLACEMENT_3D ( 'NONE', #1048, #949, #110 ) ;
#701 = LINE ( 'NONE', #372, #1253 ) ;
#702 = EDGE_CURVE ( 'NONE', #946, #386, #89, .T. ) ;
#703 = LINE ( 'NONE', #939, #132 ) ;
#704 = ORIENTED_EDGE ( 'NONE', *, *, #1063, .F. ) ;
#705 = DIRECTION ( 'NONE',  ( 1.000000000000000000, 0.000000000000000000, 0.000000000000000000 ) ) ;
#706 = LINE ( 'NONE', #686, #273 ) ;
#707 = PLANE ( 'NONE',  #952 ) ;
#708 = EDGE_CURVE ( 'NONE', #588, #768, #507, .T. ) ;
#709 = DIRECTION ( 'NONE',  ( 0.000000000000000000, 0.000000000000000000, -1.000000000000000000 ) ) ;
#710 = ADVANCED_FACE ( 'NONE', ( #1241 ), #97, .F. ) ;
#711 = VERTEX_POINT ( 'NONE', #533 ) ;
#712 = CIRCLE ( 'NONE', #117, 9.020126968509648790 ) ;
#713 = FACE_OUTER_BOUND ( 'NONE', #1179, .T. ) ;
#714 = PRODUCT_CONTEXT ( 'NONE', #682, 'mechanical' ) ;
#715 = EDGE_LOOP ( 'NONE', ( #528, #977, #851, #305 ) ) ;
#716 = LINE ( 'NONE', #576, #521 ) ;
#717 = AXIS2_PLACEMENT_3D ( 'NONE', #692, #460, #1213 ) ;
#718 = CARTESIAN_POINT ( 'NONE',  ( -2.500000000000000000, 14.00000000000000000, -9.000000000000000000 ) ) ;
#719 = ORIENTED_EDGE ( 'NONE', *, *, #1105, .F. ) ;
#720 = LINE ( 'NONE', #1251, #404 ) ;
#721 = ORIENTED_EDGE ( 'NONE', *, *, #1056, .F. ) ;
#722 = DIRECTION ( 'NONE',  ( 1.000000000000000000, 0.000000000000000000, 0.000000000000000000 ) ) ;
#723 = AXIS2_PLACEMENT_3D ( 'NONE', #43, #1102, #906 ) ;
#724 = AXIS2_PLACEMENT_3D ( 'NONE', #1345, #857, #124 ) ;
#725 = DIRECTION ( 'NONE',  ( -0.08715574274765813811, 0.9961946980917455452, 0.000000000000000000 ) ) ;
#726 = ORIENTED_EDGE ( 'NONE', *, *, #78, .F. ) ;
#727 = DIRECTION ( 'NONE',  ( 0.000000000000000000, 1.000000000000000000, 0.000000000000000000 ) ) ;
#728 = ADVANCED_FACE ( 'NONE', ( #965, #10 ), #1141, .F. ) ;
#729 = ORIENTED_EDGE ( 'NONE', *, *, #790, .F. ) ;
#730 = DIRECTION ( 'NONE',  ( 0.8660254037844387076, -0.4999999999999998890, 0.000000000000000000 ) ) ;
#731 = ADVANCED_FACE ( 'NONE', ( #1228 ), #180, .T. ) ;
#732 = ORIENTED_EDGE ( 'NONE', *, *, #945, .F. ) ;
#733 = PLANE ( 'NONE',  #1355 ) ;
#734 = EDGE_LOOP ( 'NONE', ( #913, #514, #310, #518 ) ) ;
#735 = PRODUCT_DEFINITION_FORMATION_WITH_SPECIFIED_SOURCE ( '任何', '', #168, .NOT_KNOWN. ) ;
#736 = PLANE ( 'NONE',  #477 ) ;
#737 = VECTOR ( 'NONE', #177, 1000.000000000000000 ) ;
#738 = ORIENTED_EDGE ( 'NONE', *, *, #708, .F. ) ;
#739 = CARTESIAN_POINT ( 'NONE',  ( -1.000000000000000000, 13.42264973081040047, 8.000000000000000000 ) ) ;
#740 = ORIENTED_EDGE ( 'NONE', *, *, #219, .F. ) ;
#741 = FACE_OUTER_BOUND ( 'NONE', #141, .T. ) ;
#742 = CLOSED_SHELL ( 'NONE', ( #622, #623, #280, #1300, #165, #1197, #753, #314, #19, #1122, #938, #858, #1281, #1017, #1344, #462, #923, #1343, #1041, #197, #982, #648, #414, #142, #140, #667, #70, #80, #174, #961, #238, #878, #1252, #1261, #637, #710, #338, #731, #598, #964, #482, #728, #320, #279, #210, #807 ) ) ;
#743 = VECTOR ( 'NONE', #525, 1000.000000000000000 ) ;
#744 = VECTOR ( 'NONE', #1116, 1000.000000000000000 ) ;
#745 = EDGE_CURVE ( 'NONE', #778, #953, #703, .T. ) ;
#746 = VERTEX_POINT ( 'NONE', #1032 ) ;
#747 = DIRECTION ( 'NONE',  ( -0.4999999999999998890, -0.8660254037844387076, 0.000000000000000000 ) ) ;
#748 = DIRECTION ( 'NONE',  ( 0.8660254037844387076, 0.4999999999999998890, 0.000000000000000000 ) ) ;
#749 = FACE_OUTER_BOUND ( 'NONE', #734, .T. ) ;
#750 = DIRECTION ( 'NONE',  ( 0.4999999999999998890, 0.8660254037844387076, 0.000000000000000000 ) ) ;
#751 = ORIENTED_EDGE ( 'NONE', *, *, #1144, .F. ) ;
#752 = ORIENTED_EDGE ( 'NONE', *, *, #94, .T. ) ;
#753 = ADVANCED_FACE ( 'NONE', ( #823, #493 ), #926, .F. ) ;
#754 = CARTESIAN_POINT ( 'NONE',  ( 1.000000000000000000, 13.42264973081040047, -8.000000000000000000 ) ) ;
#755 = FACE_OUTER_BOUND ( 'NONE', #1230, .T. ) ;
#756 = LINE ( 'NONE', #38, #1071 ) ;
#757 = AXIS2_PLACEMENT_3D ( 'NONE', #678, #382, #1113 ) ;
#758 = SURFACE_STYLE_USAGE ( .BOTH. , #334 ) ;
#759 = ORIENTED_EDGE ( 'NONE', *, *, #217, .F. ) ;
#760 = AXIS2_PLACEMENT_3D ( 'NONE', #418, #619, #515 ) ;
#761 = CARTESIAN_POINT ( 'NONE',  ( 9.020126968509648790, 14.00000000000000000, 7.500000000000000000 ) ) ;
#762 = ORIENTED_EDGE ( 'NONE', *, *, #915, .T. ) ;
#763 = EDGE_CURVE ( 'NONE', #1274, #215, #1037, .T. ) ;
#764 = CARTESIAN_POINT ( 'NONE',  ( 0.000000000000000000, 2.799999999999999822, -2.750000000000000000 ) ) ;
#765 = LINE ( 'NONE', #1189, #1292 ) ;
#766 = ORIENTED_EDGE ( 'NONE', *, *, #134, .F. ) ;
#767 = VECTOR ( 'NONE', #890, 1000.000000000000000 ) ;
#768 = VERTEX_POINT ( 'NONE', #612 ) ;
#769 = VECTOR ( 'NONE', #384, 1000.000000000000000 ) ;
#770 = CARTESIAN_POINT ( 'NONE',  ( -9.020126968509648790, 14.00000000000000000, 7.500000000000000000 ) ) ;
#771 = DIRECTION ( 'NONE',  ( 0.000000000000000000, 0.000000000000000000, 1.000000000000000000 ) ) ;
#772 = CARTESIAN_POINT ( 'NONE',  ( -1.000000000000000000, 13.42264973081040047, -9.000000000000000000 ) ) ;
#773 = EDGE_CURVE ( 'NONE', #1151, #255, #649, .T. ) ;
#774 = EDGE_CURVE ( 'NONE', #436, #5, #571, .T. ) ;
#775 = DIRECTION ( 'NONE',  ( 0.000000000000000000, -1.000000000000000000, 0.000000000000000000 ) ) ;
#776 = ORIENTED_EDGE ( 'NONE', *, *, #745, .T. ) ;
#777 = LINE ( 'NONE', #379, #744 ) ;
#778 = VERTEX_POINT ( 'NONE', #993 ) ;
#779 = ORIENTED_EDGE ( 'NONE', *, *, #366, .T. ) ;
#780 = DIRECTION ( 'NONE',  ( 0.000000000000000000, 0.000000000000000000, 1.000000000000000000 ) ) ;
#781 = LINE ( 'NONE', #1088, #347 ) ;
#782 = ORIENTED_EDGE ( 'NONE', *, *, #1258, .F. ) ;
#783 = CARTESIAN_POINT ( 'NONE',  ( 0.000000000000000000, 15.15470053837930209, -8.000000000000000000 ) ) ;
#784 = ORIENTED_EDGE ( 'NONE', *, *, #1144, .T. ) ;
#785 = CARTESIAN_POINT ( 'NONE',  ( 1.000000000000000000, 13.42264973081040047, 8.000000000000000000 ) ) ;
#786 = DIRECTION ( 'NONE',  ( 0.000000000000000000, 0.000000000000000000, -1.000000000000000000 ) ) ;
#787 = LINE ( 'NONE', #679, #476 ) ;
#788 = ORIENTED_EDGE ( 'NONE', *, *, #122, .T. ) ;
#789 = EDGE_LOOP ( 'NONE', ( #784, #526, #1249, #1236 ) ) ;
#790 = EDGE_CURVE ( 'NONE', #844, #588, #895, .T. ) ;
#791 = FACE_OUTER_BOUND ( 'NONE', #887, .T. ) ;
#792 =( GEOMETRIC_REPRESENTATION_CONTEXT ( 3 ) GLOBAL_UNCERTAINTY_ASSIGNED_CONTEXT ( ( #1000 ) ) GLOBAL_UNIT_ASSIGNED_CONTEXT ( ( #133, #343, #464 ) ) REPRESENTATION_CONTEXT ( 'NONE', 'WORKASPACE' ) );
#793 = CYLINDRICAL_SURFACE ( 'NONE', #717, 2.500000000000000000 ) ;
#794 = CARTESIAN_POINT ( 'NONE',  ( 0.000000000000000000, 14.00000000000000000, 7.500000000000000000 ) ) ;
#795 = PLANE ( 'NONE',  #41 ) ;
#796 = VERTEX_POINT ( 'NONE', #440 ) ;
#797 = CARTESIAN_POINT ( 'NONE',  ( 3.575000000000000178, 1.250000000000000000, -3.575000000000000178 ) ) ;
#798 = EDGE_CURVE ( 'NONE', #936, #248, #433, .T. ) ;
#799 = LINE ( 'NONE', #483, #100 ) ;
#800 = DIRECTION ( 'NONE',  ( -0.8660254037844387076, -0.4999999999999998890, 0.000000000000000000 ) ) ;
#801 = DIRECTION ( 'NONE',  ( 0.000000000000000000, 0.000000000000000000, -1.000000000000000000 ) ) ;
#802 = PRESENTATION_LAYER_ASSIGNMENT (  '', '', ( #335 ) ) ;
#803 = LINE ( 'NONE', #1323, #499 ) ;
#804 = CARTESIAN_POINT ( 'NONE',  ( -3.024999999999999911, 1.250000000000000000, -3.024999999999999911 ) ) ;
#805 = CARTESIAN_POINT ( 'NONE',  ( -3.575000000000000178, 1.250000000000000000, 3.575000000000000178 ) ) ;
#806 = EDGE_CURVE ( 'NONE', #1089, #115, #245, .T. ) ;
#807 = ADVANCED_FACE ( 'NONE', ( #1278 ), #1081, .T. ) ;
#808 = FACE_OUTER_BOUND ( 'NONE', #927, .T. ) ;
#809 = MANIFOLD_SOLID_BREP ( '活动铰链[CT-20-2020].step<1>', #742 ) ;
#810 = CARTESIAN_POINT ( 'NONE',  ( 0.000000000000000000, 15.15470053837930209, -8.000000000000000000 ) ) ;
#811 = ORIENTED_EDGE ( 'NONE', *, *, #1220, .F. ) ;
#812 = DIRECTION ( 'NONE',  ( 0.000000000000000000, 0.000000000000000000, 1.000000000000000000 ) ) ;
#813 = VECTOR ( 'NONE', #1097, 1000.000000000000000 ) ;
#814 = AXIS2_PLACEMENT_3D ( 'NONE', #1024, #815, #286 ) ;
#815 = DIRECTION ( 'NONE',  ( 0.000000000000000000, 0.000000000000000000, 1.000000000000000000 ) ) ;
#816 = EDGE_CURVE ( 'NONE', #56, #1267, #787, .T. ) ;
#817 = EDGE_CURVE ( 'NONE', #946, #354, #560, .T. ) ;
#818 = CARTESIAN_POINT ( 'NONE',  ( 10.00000000000000000, 2.799999999999999822, 10.00000000000000000 ) ) ;
#819 = ORIENTED_EDGE ( 'NONE', *, *, #264, .F. ) ;
#820 = FACE_OUTER_BOUND ( 'NONE', #501, .T. ) ;
#821 = VERTEX_POINT ( 'NONE', #231 ) ;
#822 = CARTESIAN_POINT ( 'NONE',  ( 0.000000000000000000, 12.84529946162069969, 8.000000000000000000 ) ) ;
#823 = FACE_BOUND ( 'NONE', #112, .T. ) ;
#824 = VERTEX_POINT ( 'NONE', #972 ) ;
#825 = VECTOR ( 'NONE', #647, 1000.000000000000000 ) ;
#826 = DIRECTION ( 'NONE',  ( 0.000000000000000000, 0.000000000000000000, -1.000000000000000000 ) ) ;
#827 = ORIENTED_EDGE ( 'NONE', *, *, #817, .T. ) ;
#828 = CARTESIAN_POINT ( 'NONE',  ( 0.000000000000000000, 14.00000000000000000, -10.00000000000000000 ) ) ;
#829 = APPLICATION_CONTEXT ( 'automotive_design' ) ;
#830 = CARTESIAN_POINT ( 'NONE',  ( -1.000000000000000000, 14.57735026918960131, 8.000000000000000000 ) ) ;
#831 = EDGE_CURVE ( 'NONE', #1104, #298, #781, .T. ) ;
#832 = ORIENTED_EDGE ( 'NONE', *, *, #1218, .F. ) ;
#833 = EDGE_CURVE ( 'NONE', #211, #796, #448, .T. ) ;
#834 = CYLINDRICAL_SURFACE ( 'NONE', #908, 2.750000000000000000 ) ;
#835 = AXIS2_PLACEMENT_3D ( 'NONE', #638, #431, #23 ) ;
#836 = VERTEX_POINT ( 'NONE', #979 ) ;
#837 = DIRECTION ( 'NONE',  ( 0.000000000000000000, 1.000000000000000000, 0.000000000000000000 ) ) ;
#838 = VECTOR ( 'NONE', #1114, 1000.000000000000000 ) ;
#839 = ORIENTED_EDGE ( 'NONE', *, *, #1242, .F. ) ;
#840 = DIRECTION ( 'NONE',  ( 0.000000000000000000, 0.000000000000000000, -1.000000000000000000 ) ) ;
#841 = APPLICATION_PROTOCOL_DEFINITION ( 'draft international standard', 'automotive_design', 1998, #829 ) ;
#842 = ORIENTED_EDGE ( 'NONE', *, *, #53, .T. ) ;
#843 = CARTESIAN_POINT ( 'NONE',  ( 0.000000000000000000, 14.00000000000000000, -7.500000000000000000 ) ) ;
#844 = VERTEX_POINT ( 'NONE', #25 ) ;
#845 = DIRECTION ( 'NONE',  ( 0.000000000000000000, -1.000000000000000000, 0.000000000000000000 ) ) ;
#846 = ORIENTED_EDGE ( 'NONE', *, *, #1316, .F. ) ;
#847 = LINE ( 'NONE', #116, #570 ) ;
#848 = EDGE_CURVE ( 'NONE', #298, #778, #765, .T. ) ;
#849 = AXIS2_PLACEMENT_3D ( 'NONE', #413, #1132, #202 ) ;
#850 = ORIENTED_EDGE ( 'NONE', *, *, #239, .F. ) ;
#851 = ORIENTED_EDGE ( 'NONE', *, *, #566, .T. ) ;
#852 = LINE ( 'NONE', #346, #1162 ) ;
#853 = VECTOR ( 'NONE', #424, 1000.000000000000000 ) ;
#854 = LINE ( 'NONE', #326, #127 ) ;
#855 = DIRECTION ( 'NONE',  ( 0.000000000000000000, -1.000000000000000000, 0.000000000000000000 ) ) ;
#856 = CIRCLE ( 'NONE', #410, 9.020126968509648790 ) ;
#857 = DIRECTION ( 'NONE',  ( -0.000000000000000000, 1.000000000000000000, 0.000000000000000000 ) ) ;
#858 = ADVANCED_FACE ( 'NONE', ( #657 ), #882, .F. ) ;
#859 = VECTOR ( 'NONE', #597, 1000.000000000000000 ) ;
#860 = VERTEX_POINT ( 'NONE', #687 ) ;
#861 = DIRECTION ( 'NONE',  ( 0.000000000000000000, 0.000000000000000000, -1.000000000000000000 ) ) ;
#862 = ORIENTED_EDGE ( 'NONE', *, *, #1204, .F. ) ;
#863 = DIRECTION ( 'NONE',  ( 0.000000000000000000, 1.000000000000000000, 0.000000000000000000 ) ) ;
#864 = CARTESIAN_POINT ( 'NONE',  ( 0.000000000000000000, 12.84529946162069969, 8.000000000000000000 ) ) ;
#865 = ORIENTED_EDGE ( 'NONE', *, *, #1316, .T. ) ;
#866 = ORIENTED_EDGE ( 'NONE', *, *, #36, .F. ) ;
#867 = ORIENTED_EDGE ( 'NONE', *, *, #295, .T. ) ;
#868 = EDGE_CURVE ( 'NONE', #1149, #860, #52, .T. ) ;
#869 = LINE ( 'NONE', #1066, #853 ) ;
#870 = CARTESIAN_POINT ( 'NONE',  ( 10.00000000000000000, 2.799999999999999822, 7.500000000000000000 ) ) ;
#871 = DIRECTION ( 'NONE',  ( 1.000000000000000000, 0.000000000000000000, 0.000000000000000000 ) ) ;
#872 = AXIS2_PLACEMENT_3D ( 'NONE', #1023, #1331, #79 ) ;
#873 = CARTESIAN_POINT ( 'NONE',  ( -1.000000000000000000, 14.57735026918960131, -9.000000000000000000 ) ) ;
#874 = ORIENTED_EDGE ( 'NONE', *, *, #694, .F. ) ;
#875 = PRODUCT_DEFINITION_SHAPE ( 'NONE', 'NONE',  #35 ) ;
#876 = VECTOR ( 'NONE', #128, 1000.000000000000000 ) ;
#877 = DIRECTION ( 'NONE',  ( -1.000000000000000000, 0.000000000000000000, 0.000000000000000000 ) ) ;
#878 = ADVANCED_FACE ( 'NONE', ( #808 ), #925, .F. ) ;
#879 = EDGE_CURVE ( 'NONE', #711, #249, #1121, .T. ) ;
#880 = ORIENTED_EDGE ( 'NONE', *, *, #96, .T. ) ;
#881 = DIRECTION ( 'NONE',  ( 0.000000000000000000, -1.000000000000000000, 0.000000000000000000 ) ) ;
#882 = PLANE ( 'NONE',  #885 ) ;
#883 = ORIENTED_EDGE ( 'NONE', *, *, #1079, .F. ) ;
#884 = VECTOR ( 'NONE', #40, 1000.000000000000000 ) ;
#885 = AXIS2_PLACEMENT_3D ( 'NONE', #1293, #351, #775 ) ;
#886 = DIRECTION ( 'NONE',  ( 0.9961946980917455452, -0.08715574274765815199, 0.000000000000000000 ) ) ;
#887 = EDGE_LOOP ( 'NONE', ( #652, #675, #428, #931 ) ) ;
#888 = ORIENTED_EDGE ( 'NONE', *, *, #1290, .F. ) ;
#889 = DIRECTION ( 'NONE',  ( 0.000000000000000000, 0.000000000000000000, -1.000000000000000000 ) ) ;
#890 = DIRECTION ( 'NONE',  ( 0.000000000000000000, 0.000000000000000000, -1.000000000000000000 ) ) ;
#891 = EDGE_LOOP ( 'NONE', ( #270, #631, #1095, #1302, #850, #503 ) ) ;
#892 = CARTESIAN_POINT ( 'NONE',  ( 3.575000000000000178, 1.250000000000000000, 3.575000000000000178 ) ) ;
#893 = DIRECTION ( 'NONE',  ( 0.000000000000000000, 0.000000000000000000, 1.000000000000000000 ) ) ;
#894 = DIRECTION ( 'NONE',  ( 1.000000000000000000, 0.000000000000000000, 0.000000000000000000 ) ) ;
#895 = LINE ( 'NONE', #987, #884 ) ;
#896 = EDGE_CURVE ( 'NONE', #1267, #768, #918, .T. ) ;
#897 = AXIS2_PLACEMENT_3D ( 'NONE', #447, #454, #16 ) ;
#898 = VERTEX_POINT ( 'NONE', #388 ) ;
#899 = CARTESIAN_POINT ( 'NONE',  ( 9.020126968509648790, 14.00000000000000000, -10.00000000000000000 ) ) ;
#900 = CIRCLE ( 'NONE', #924, 2.500000000000000000 ) ;
#901 = DIRECTION ( 'NONE',  ( 0.000000000000000000, 0.000000000000000000, 1.000000000000000000 ) ) ;
#902 = CARTESIAN_POINT ( 'NONE',  ( 3.024999999999999911, 1.250000000000000000, 3.024999999999999911 ) ) ;
#903 = DIRECTION ( 'NONE',  ( 0.000000000000000000, 0.000000000000000000, -1.000000000000000000 ) ) ;
#904 = ORIENTED_EDGE ( 'NONE', *, *, #702, .T. ) ;
#905 = EDGE_CURVE ( 'NONE', #494, #2, #175, .T. ) ;
#906 = DIRECTION ( 'NONE',  ( 0.000000000000000000, -1.000000000000000000, 0.000000000000000000 ) ) ;
#907 = VECTOR ( 'NONE', #1012, 1000.000000000000000 ) ;
#908 = AXIS2_PLACEMENT_3D ( 'NONE', #1034, #1, #840 ) ;
#909 = CIRCLE ( 'NONE', #304, 2.500000000000000000 ) ;
#910 = CARTESIAN_POINT ( 'NONE',  ( 1.000000000000000000, 13.42264973081040047, -9.000000000000000000 ) ) ;
#911 = FACE_OUTER_BOUND ( 'NONE', #1239, .T. ) ;
#912 = FACE_BOUND ( 'NONE', #967, .T. ) ;
#913 = ORIENTED_EDGE ( 'NONE', *, *, #1234, .F. ) ;
#914 = DIRECTION ( 'NONE',  ( -0.8660254037844387076, 0.4999999999999998890, 0.000000000000000000 ) ) ;
#915 = EDGE_CURVE ( 'NONE', #438, #548, #178, .T. ) ;
#916 = CARTESIAN_POINT ( 'NONE',  ( 0.000000000000000000, 15.15470053837930209, -8.000000000000000000 ) ) ;
#917 = DIRECTION ( 'NONE',  ( 0.000000000000000000, 0.000000000000000000, 1.000000000000000000 ) ) ;
#918 = LINE ( 'NONE', #593, #769 ) ;
#919 = LINE ( 'NONE', #681, #1125 ) ;
#920 = ORIENTED_EDGE ( 'NONE', *, *, #1234, .T. ) ;
#921 = CARTESIAN_POINT ( 'NONE',  ( 3.575000000000000178, 0.000000000000000000, -3.575000000000000178 ) ) ;
#922 = EDGE_CURVE ( 'NONE', #300, #5, #701, .T. ) ;
#923 = ADVANCED_FACE ( 'NONE', ( #395 ), #707, .F. ) ;
#924 = AXIS2_PLACEMENT_3D ( 'NONE', #1330, #812, #625 ) ;
#925 = PLANE ( 'NONE',  #350 ) ;
#926 = PLANE ( 'NONE',  #699 ) ;
#927 = EDGE_LOOP ( 'NONE', ( #1314, #740, #1279, #633 ) ) ;
#928 = FACE_OUTER_BOUND ( 'NONE', #981, .T. ) ;
#929 = PLANE ( 'NONE',  #401 ) ;
#930 = AXIS2_PLACEMENT_3D ( 'NONE', #1005, #48, #467 ) ;
#931 = ORIENTED_EDGE ( 'NONE', *, *, #915, .F. ) ;
#932 = CARTESIAN_POINT ( 'NONE',  ( 3.575000000000000178, 1.250000000000000000, 3.575000000000000178 ) ) ;
#933 = PLANE ( 'NONE',  #1271 ) ;
#934 = ORIENTED_EDGE ( 'NONE', *, *, #158, .F. ) ;
#935 = FACE_OUTER_BOUND ( 'NONE', #1109, .T. ) ;
#936 = VERTEX_POINT ( 'NONE', #822 ) ;
#937 = DIRECTION ( 'NONE',  ( 0.000000000000000000, -1.000000000000000000, 0.000000000000000000 ) ) ;
#938 = ADVANCED_FACE ( 'NONE', ( #74 ), #795, .F. ) ;
#939 = CARTESIAN_POINT ( 'NONE',  ( -3.575000000000000178, 0.000000000000000000, -3.575000000000000178 ) ) ;
#940 = ORIENTED_EDGE ( 'NONE', *, *, #339, .T. ) ;
#941 = AXIS2_PLACEMENT_3D ( 'NONE', #1107, #1226, #163 ) ;
#942 = LINE ( 'NONE', #106, #743 ) ;
#943 = ORIENTED_EDGE ( 'NONE', *, *, #1332, .F. ) ;
#944 = LINE ( 'NONE', #102, #653 ) ;
#945 = EDGE_CURVE ( 'NONE', #836, #300, #1214, .T. ) ;
#946 = VERTEX_POINT ( 'NONE', #470 ) ;
#947 = CARTESIAN_POINT ( 'NONE',  ( -1.084202172485499997E-16, 15.15470053837930209, -9.000000000000000000 ) ) ;
#948 = VERTEX_POINT ( 'NONE', #583 ) ;
#949 = DIRECTION ( 'NONE',  ( 0.000000000000000000, 1.000000000000000000, 0.000000000000000000 ) ) ;
#950 = AXIS2_PLACEMENT_3D ( 'NONE', #1174, #427, #1351 ) ;
#951 = CIRCLE ( 'NONE', #492, 2.500000000000000000 ) ;
#952 = AXIS2_PLACEMENT_3D ( 'NONE', #1133, #1327, #166 ) ;
#953 = VERTEX_POINT ( 'NONE', #1233 ) ;
#954 = CARTESIAN_POINT ( 'NONE',  ( -3.575000000000000178, 1.250000000000000000, -3.575000000000000178 ) ) ;
#955 = EDGE_CURVE ( 'NONE', #232, #494, #278, .T. ) ;
#956 = EDGE_LOOP ( 'NONE', ( #268, #1157, #441, #1324 ) ) ;
#957 = DIRECTION ( 'NONE',  ( 0.000000000000000000, 0.000000000000000000, 1.000000000000000000 ) ) ;
#958 = VERTEX_POINT ( 'NONE', #603 ) ;
#959 = ORIENTED_EDGE ( 'NONE', *, *, #357, .F. ) ;
#960 = DIRECTION ( 'NONE',  ( 0.000000000000000000, 0.000000000000000000, 1.000000000000000000 ) ) ;
#961 = ADVANCED_FACE ( 'NONE', ( #596, #59 ), #1313, .F. ) ;
#962 = ORIENTED_EDGE ( 'NONE', *, *, #1273, .T. ) ;
#963 = CARTESIAN_POINT ( 'NONE',  ( 3.024999999999999911, 1.250000000000000000, -3.024999999999999911 ) ) ;
#964 = ADVANCED_FACE ( 'NONE', ( #478 ), #498, .T. ) ;
#965 = FACE_BOUND ( 'NONE', #90, .T. ) ;
#966 = AXIS2_PLACEMENT_3D ( 'NONE', #1106, #893, #705 ) ;
#967 = EDGE_LOOP ( 'NONE', ( #751, #1182, #874, #846, #1192, #766 ) ) ;
#968 = ORIENTED_EDGE ( 'NONE', *, *, #685, .F. ) ;
#969 = FACE_OUTER_BOUND ( 'NONE', #54, .T. ) ;
#970 = ORIENTED_EDGE ( 'NONE', *, *, #763, .F. ) ;
#971 = LINE ( 'NONE', #764, #1094 ) ;
#972 = CARTESIAN_POINT ( 'NONE',  ( 1.000000000000000000, 13.42264973081040047, 8.000000000000000000 ) ) ;
#973 = COLOUR_RGB ( '',0.6862745098039215730, 0.6862745098039215730, 0.6862745098039215730 ) ;
#974 = EDGE_LOOP ( 'NONE', ( #1084, #759 ) ) ;
#975 = EDGE_LOOP ( 'NONE', ( #21, #782, #87, #457, #811, #1161 ) ) ;
#976 = DIRECTION ( 'NONE',  ( -0.8660254037844387076, -0.4999999999999998890, 0.000000000000000000 ) ) ;
#977 = ORIENTED_EDGE ( 'NONE', *, *, #848, .F. ) ;
#978 = DIRECTION ( 'NONE',  ( 0.000000000000000000, 1.000000000000000000, 0.000000000000000000 ) ) ;
#979 = CARTESIAN_POINT ( 'NONE',  ( -9.020126968509648790, 14.00000000000000000, 10.00000000000000000 ) ) ;
#980 = EDGE_CURVE ( 'NONE', #824, #572, #716, .T. ) ;
#981 = EDGE_LOOP ( 'NONE', ( #323, #161, #1004, #943 ) ) ;
#982 = ADVANCED_FACE ( 'NONE', ( #912, #1321 ), #378, .T. ) ;
#983 = VERTEX_POINT ( 'NONE', #93 ) ;
#984 = DIRECTION ( 'NONE',  ( -0.8660254037844387076, 0.4999999999999998890, 0.000000000000000000 ) ) ;
#985 = CARTESIAN_POINT ( 'NONE',  ( 10.00000000000000000, 2.799999999999999822, 7.500000000000000000 ) ) ;
#986 = CARTESIAN_POINT ( 'NONE',  ( -3.367778697655221012E-16, 2.799999999999999822, 2.750000000000000000 ) ) ;
#987 = CARTESIAN_POINT ( 'NONE',  ( 10.00000000000000000, 0.000000000000000000, 10.00000000000000000 ) ) ;
#988 = VERTEX_POINT ( 'NONE', #1260 ) ;
#989 = CARTESIAN_POINT ( 'NONE',  ( 1.000000000000000000, 13.42264973081040047, -9.000000000000000000 ) ) ;
#990 = DIRECTION ( 'NONE',  ( 0.000000000000000000, 0.000000000000000000, 1.000000000000000000 ) ) ;
#991 = DIRECTION ( 'NONE',  ( -1.000000000000000000, 0.000000000000000000, 0.000000000000000000 ) ) ;
#992 = VECTOR ( 'NONE', #748, 1000.000000000000000 ) ;
#993 = CARTESIAN_POINT ( 'NONE',  ( -3.575000000000000178, 0.000000000000000000, -3.575000000000000178 ) ) ;
#994 = VERTEX_POINT ( 'NONE', #627 ) ;
#995 = AXIS2_PLACEMENT_3D ( 'NONE', #294, #397, #283 ) ;
#996 = VECTOR ( 'NONE', #3, 1000.000000000000000 ) ;
#997 = DIRECTION ( 'NONE',  ( 0.000000000000000000, -1.000000000000000000, 0.000000000000000000 ) ) ;
#998 = EDGE_LOOP ( 'NONE', ( #1067, #880, #561, #970 ) ) ;
#999 = PLANE ( 'NONE',  #230 ) ;
#1000 = UNCERTAINTY_MEASURE_WITH_UNIT (LENGTH_MEASURE( 1.000000000000000082E-05 ), #133, 'distance_accuracy_value', 'NONE');
#1001 = EDGE_CURVE ( 'NONE', #554, #946, #1266, .T. ) ;
#1002 = CARTESIAN_POINT ( 'NONE',  ( -1.000000000000000000, 13.42264973081040047, -8.000000000000000000 ) ) ;
#1003 = DIRECTION ( 'NONE',  ( 0.000000000000000000, 0.000000000000000000, 1.000000000000000000 ) ) ;
#1004 = ORIENTED_EDGE ( 'NONE', *, *, #480, .F. ) ;
#1005 = CARTESIAN_POINT ( 'NONE',  ( 0.000000000000000000, 14.00000000000000000, 9.000000000000000000 ) ) ;
#1006 = CARTESIAN_POINT ( 'NONE',  ( 10.00000000000000000, 2.799999999999999822, -10.00000000000000000 ) ) ;
#1007 = FILL_AREA_STYLE_COLOUR ( '', #1350 ) ;
#1008 = EDGE_CURVE ( 'NONE', #249, #1149, #1152, .T. ) ;
#1009 = CARTESIAN_POINT ( 'NONE',  ( 9.020126968509648790, 14.00000000000000000, -7.500000000000000000 ) ) ;
#1010 = VECTOR ( 'NONE', #800, 1000.000000000000000 ) ;
#1011 = ORIENTED_EDGE ( 'NONE', *, *, #1204, .T. ) ;
#1012 = DIRECTION ( 'NONE',  ( 0.000000000000000000, -1.000000000000000000, 0.000000000000000000 ) ) ;
#1013 = CARTESIAN_POINT ( 'NONE',  ( 3.575000000000000178, 0.000000000000000000, -3.575000000000000178 ) ) ;
#1014 = SURFACE_SIDE_STYLE ('',( #370 ) ) ;
#1015 = DIRECTION ( 'NONE',  ( 0.4999999999999998890, -0.8660254037844387076, 0.000000000000000000 ) ) ;
#1016 = EDGE_LOOP ( 'NONE', ( #1356, #1200, #1360, #27 ) ) ;
#1017 = ADVANCED_FACE ( 'NONE', ( #749 ), #505, .T. ) ;
#1018 = AXIS2_PLACEMENT_3D ( 'NONE', #1269, #243, #771 ) ;
#1019 = LINE ( 'NONE', #276, #1315 ) ;
#1020 = VECTOR ( 'NONE', #1003, 1000.000000000000000 ) ;
#1021 = VECTOR ( 'NONE', #855, 1000.000000000000000 ) ;
#1022 = DIRECTION ( 'NONE',  ( 0.8660254037844387076, -0.4999999999999998890, 0.000000000000000000 ) ) ;
#1023 = CARTESIAN_POINT ( 'NONE',  ( 0.000000000000000000, 14.00000000000000000, -7.500000000000000000 ) ) ;
#1024 = CARTESIAN_POINT ( 'NONE',  ( 0.000000000000000000, 14.00000000000000000, -10.00000000000000000 ) ) ;
#1025 = EDGE_CURVE ( 'NONE', #249, #85, #847, .T. ) ;
#1026 = CARTESIAN_POINT ( 'NONE',  ( 1.000000000000000000, 14.57735026918960131, 8.000000000000000000 ) ) ;
#1027 = EDGE_CURVE ( 'NONE', #159, #211, #1043, .T. ) ;
#1028 = ORIENTED_EDGE ( 'NONE', *, *, #94, .F. ) ;
#1029 = PLANE ( 'NONE',  #557 ) ;
#1030 = DIRECTION ( 'NONE',  ( 0.000000000000000000, 1.000000000000000000, 0.000000000000000000 ) ) ;
#1031 = CARTESIAN_POINT ( 'NONE',  ( 0.000000000000000000, 14.00000000000000000, -9.000000000000000000 ) ) ;
#1032 = CARTESIAN_POINT ( 'NONE',  ( -1.000000000000000000, 13.42264973081040047, -9.000000000000000000 ) ) ;
#1033 = ORIENTED_EDGE ( 'NONE', *, *, #1153, .F. ) ;
#1034 = CARTESIAN_POINT ( 'NONE',  ( 0.000000000000000000, 2.799999999999999822, 0.000000000000000000 ) ) ;
#1035 = FACE_OUTER_BOUND ( 'NONE', #1083, .T. ) ;
#1036 = DIRECTION ( 'NONE',  ( 0.000000000000000000, 0.000000000000000000, 1.000000000000000000 ) ) ;
#1037 = LINE ( 'NONE', #718, #129 ) ;
#1038 = ORIENTED_EDGE ( 'NONE', *, *, #1178, .F. ) ;
#1039 = DIRECTION ( 'NONE',  ( 0.000000000000000000, 0.000000000000000000, 1.000000000000000000 ) ) ;
#1040 = PRESENTATION_LAYER_ASSIGNMENT (  '', '', ( #1080 ) ) ;
#1041 = ADVANCED_FACE ( 'NONE', ( #327 ), #1055, .T. ) ;
#1042 = EDGE_LOOP ( 'NONE', ( #400, #188, #629, #606 ) ) ;
#1043 = LINE ( 'NONE', #1270, #630 ) ;
#1044 = DIRECTION ( 'NONE',  ( 1.000000000000000000, 0.000000000000000000, 0.000000000000000000 ) ) ;
#1045 = ORIENTED_EDGE ( 'NONE', *, *, #555, .F. ) ;
#1046 = DIRECTION ( 'NONE',  ( 0.000000000000000000, 0.000000000000000000, -1.000000000000000000 ) ) ;
#1047 = ORIENTED_EDGE ( 'NONE', *, *, #538, .T. ) ;
#1048 = CARTESIAN_POINT ( 'NONE',  ( 0.000000000000000000, 2.799999999999999822, 0.000000000000000000 ) ) ;
#1049 = EDGE_CURVE ( 'NONE', #1057, #746, #1147, .T. ) ;
#1050 = CARTESIAN_POINT ( 'NONE',  ( 10.00000000000000000, 2.799999999999999822, -7.500000000000000000 ) ) ;
#1051 = ORIENTED_EDGE ( 'NONE', *, *, #816, .T. ) ;
#1052 = VECTOR ( 'NONE', #222, 1000.000000000000000 ) ;
#1053 = CARTESIAN_POINT ( 'NONE',  ( 10.00000000000000000, 0.000000000000000000, 10.00000000000000000 ) ) ;
#1054 = EDGE_LOOP ( 'NONE', ( #1265, #959, #1069, #1090 ) ) ;
#1055 = PLANE ( 'NONE',  #237 ) ;
#1056 = EDGE_CURVE ( 'NONE', #365, #988, #944, .T. ) ;
#1057 = VERTEX_POINT ( 'NONE', #309 ) ;
#1058 = DIRECTION ( 'NONE',  ( 1.000000000000000000, 0.000000000000000000, 0.000000000000000000 ) ) ;
#1059 = VERTEX_POINT ( 'NONE', #1247 ) ;
#1060 = CARTESIAN_POINT ( 'NONE',  ( -1.000000000000000000, 13.42264973081040047, -8.000000000000000000 ) ) ;
#1061 = AXIS2_PLACEMENT_3D ( 'NONE', #156, #367, #573 ) ;
#1062 = AXIS2_PLACEMENT_3D ( 'NONE', #932, #1221, #293 ) ;
#1063 = EDGE_CURVE ( 'NONE', #1104, #120, #216, .T. ) ;
#1064 = EDGE_LOOP ( 'NONE', ( #1051, #312, #408, #1348 ) ) ;
#1065 = EDGE_CURVE ( 'NONE', #398, #33, #1169, .T. ) ;
#1066 = CARTESIAN_POINT ( 'NONE',  ( -1.000000000000000000, 13.42264973081040047, -8.000000000000000000 ) ) ;
#1067 = ORIENTED_EDGE ( 'NONE', *, *, #1096, .F. ) ;
#1068 = CARTESIAN_POINT ( 'NONE',  ( 3.024999999999999911, 1.250000000000000000, -3.024999999999999911 ) ) ;
#1069 = ORIENTED_EDGE ( 'NONE', *, *, #1160, .F. ) ;
#1070 = CARTESIAN_POINT ( 'NONE',  ( -10.00000000000000000, 2.799999999999999822, -7.500000000000000000 ) ) ;
#1071 = VECTOR ( 'NONE', #146, 1000.000000000000000 ) ;
#1072 = DIRECTION ( 'NONE',  ( 0.000000000000000000, 0.000000000000000000, 1.000000000000000000 ) ) ;
#1073 = CARTESIAN_POINT ( 'NONE',  ( 3.575000000000000178, 1.250000000000000000, 3.575000000000000178 ) ) ;
#1074 = DIRECTION ( 'NONE',  ( 0.000000000000000000, 0.000000000000000000, -1.000000000000000000 ) ) ;
#1075 = EDGE_LOOP ( 'NONE', ( #1297, #862, #155, #1175 ) ) ;
#1076 = LINE ( 'NONE', #1070, #517 ) ;
#1077 = ORIENTED_EDGE ( 'NONE', *, *, #78, .T. ) ;
#1078 = CARTESIAN_POINT ( 'NONE',  ( 3.024999999999999911, 1.250000000000000000, 3.024999999999999911 ) ) ;
#1079 = EDGE_CURVE ( 'NONE', #824, #208, #611, .T. ) ;
#1080 = STYLED_ITEM ( 'NONE', ( #1308 ), #809 ) ;
#1081 = PLANE ( 'NONE',  #371 ) ;
#1082 = AXIS2_PLACEMENT_3D ( 'NONE', #205, #88, #1158 ) ;
#1083 = EDGE_LOOP ( 'NONE', ( #661, #101, #1033, #1304 ) ) ;
#1084 = ORIENTED_EDGE ( 'NONE', *, *, #253, .F. ) ;
#1085 = CARTESIAN_POINT ( 'NONE',  ( -10.00000000000000000, 2.799999999999999822, -10.00000000000000000 ) ) ;
#1086 = PLANE ( 'NONE',  #835 ) ;
#1087 = LINE ( 'NONE', #333, #1052 ) ;
#1088 = CARTESIAN_POINT ( 'NONE',  ( 3.575000000000000178, 1.250000000000000000, -3.575000000000000178 ) ) ;
#1089 = VERTEX_POINT ( 'NONE', #963 ) ;
#1090 = ORIENTED_EDGE ( 'NONE', *, *, #219, .T. ) ;
#1091 = DIRECTION ( 'NONE',  ( 0.000000000000000000, 0.000000000000000000, 1.000000000000000000 ) ) ;
#1092 = LINE ( 'NONE', #1289, #82 ) ;
#1093 = DIRECTION ( 'NONE',  ( 0.000000000000000000, 0.000000000000000000, 1.000000000000000000 ) ) ;
#1094 = VECTOR ( 'NONE', #1099, 1000.000000000000000 ) ;
#1095 = ORIENTED_EDGE ( 'NONE', *, *, #816, .F. ) ;
#1096 = EDGE_CURVE ( 'NONE', #344, #1274, #909, .T. ) ;
#1097 = DIRECTION ( 'NONE',  ( 0.000000000000000000, 1.000000000000000000, 0.000000000000000000 ) ) ;
#1098 = DIRECTION ( 'NONE',  ( 1.000000000000000000, 0.000000000000000000, 0.000000000000000000 ) ) ;
#1099 = DIRECTION ( 'NONE',  ( 0.000000000000000000, 1.000000000000000000, 0.000000000000000000 ) ) ;
#1100 = VERTEX_POINT ( 'NONE', #1366 ) ;
#1101 = AXIS2_PLACEMENT_3D ( 'NONE', #186, #1328, #1044 ) ;
#1102 = DIRECTION ( 'NONE',  ( 0.000000000000000000, 0.000000000000000000, -1.000000000000000000 ) ) ;
#1103 = EDGE_CURVE ( 'NONE', #821, #948, #421, .T. ) ;
#1104 = VERTEX_POINT ( 'NONE', #199 ) ;
#1105 = EDGE_CURVE ( 'NONE', #329, #1170, #1294, .T. ) ;
#1106 = CARTESIAN_POINT ( 'NONE',  ( 0.000000000000000000, 14.00000000000000000, 10.00000000000000000 ) ) ;
#1107 = CARTESIAN_POINT ( 'NONE',  ( 0.000000000000000000, 14.00000000000000000, -10.00000000000000000 ) ) ;
#1108 = FILL_AREA_STYLE_COLOUR ( '', #973 ) ;
#1109 = EDGE_LOOP ( 'NONE', ( #904, #962, #195, #420, #4, #149 ) ) ;
#1110 = DIRECTION ( 'NONE',  ( 0.000000000000000000, 0.000000000000000000, 1.000000000000000000 ) ) ;
#1111 = EDGE_LOOP ( 'NONE', ( #449, #135, #322, #565 ) ) ;
#1112 = CARTESIAN_POINT ( 'NONE',  ( 10.00000000000000000, 2.799999999999999822, 7.500000000000000000 ) ) ;
#1113 = DIRECTION ( 'NONE',  ( 1.000000000000000000, 0.000000000000000000, 0.000000000000000000 ) ) ;
#1114 = DIRECTION ( 'NONE',  ( -0.8660254037844387076, -0.4999999999999998890, 0.000000000000000000 ) ) ;
#1115 = VERTEX_POINT ( 'NONE', #416 ) ;
#1116 = DIRECTION ( 'NONE',  ( 0.000000000000000000, 0.000000000000000000, -1.000000000000000000 ) ) ;
#1117 = CIRCLE ( 'NONE', #760, 2.500000000000000000 ) ;
#1118 = AXIS2_PLACEMENT_3D ( 'NONE', #1311, #57, #473 ) ;
#1119 = FACE_OUTER_BOUND ( 'NONE', #1337, .T. ) ;
#1120 = LINE ( 'NONE', #272, #1283 ) ;
#1121 = LINE ( 'NONE', #172, #838 ) ;
#1122 = ADVANCED_FACE ( 'NONE', ( #741 ), #736, .F. ) ;
#1123 = EDGE_CURVE ( 'NONE', #958, #56, #426, .T. ) ;
#1124 = PLANE ( 'NONE',  #723 ) ;
#1125 = VECTOR ( 'NONE', #1110, 1000.000000000000000 ) ;
#1126 = VECTOR ( 'NONE', #1240, 1000.000000000000114 ) ;
#1127 = FACE_OUTER_BOUND ( 'NONE', #891, .T. ) ;
#1128 = CARTESIAN_POINT ( 'NONE',  ( -3.024999999999999911, 1.250000000000000000, -3.024999999999999911 ) ) ;
#1129 = DIRECTION ( 'NONE',  ( 0.000000000000000000, 0.000000000000000000, -1.000000000000000000 ) ) ;
#1130 = DIRECTION ( 'NONE',  ( 0.000000000000000000, 0.000000000000000000, 1.000000000000000000 ) ) ;
#1131 = ORIENTED_EDGE ( 'NONE', *, *, #1332, .T. ) ;
#1132 = DIRECTION ( 'NONE',  ( 1.000000000000000000, 0.000000000000000000, 0.000000000000000000 ) ) ;
#1133 = CARTESIAN_POINT ( 'NONE',  ( 10.00000000000000000, 2.799999999999999822, -7.500000000000000000 ) ) ;
#1134 = CARTESIAN_POINT ( 'NONE',  ( -3.024999999999999911, 1.250000000000000000, 3.024999999999999911 ) ) ;
#1135 = EDGE_CURVE ( 'NONE', #33, #329, #971, .T. ) ;
#1136 = EDGE_LOOP ( 'NONE', ( #1215, #471, #968, #423 ) ) ;
#1137 = CARTESIAN_POINT ( 'NONE',  ( -10.00000000000000000, 2.799999999999999822, 10.00000000000000000 ) ) ;
#1138 = EDGE_LOOP ( 'NONE', ( #635, #167 ) ) ;
#1139 = DIRECTION ( 'NONE',  ( 0.000000000000000000, 0.000000000000000000, 1.000000000000000000 ) ) ;
#1140 = ADVANCED_BREP_SHAPE_REPRESENTATION ( '_CT1-20-2020.step', ( #809, #360 ), #30 ) ;
#1141 = PLANE ( 'NONE',  #724 ) ;
#1142 = ORIENTED_EDGE ( 'NONE', *, *, #36, .T. ) ;
#1143 = LINE ( 'NONE', #1156, #1181 ) ;
#1144 = EDGE_CURVE ( 'NONE', #85, #860, #756, .T. ) ;
#1145 = AXIS2_PLACEMENT_3D ( 'NONE', #797, #169, #353 ) ;
#1146 = ORIENTED_EDGE ( 'NONE', *, *, #522, .T. ) ;
#1147 = LINE ( 'NONE', #209, #996 ) ;
#1148 = LINE ( 'NONE', #287, #234 ) ;
#1149 = VERTEX_POINT ( 'NONE', #1180 ) ;
#1150 = PLANE ( 'NONE',  #849 ) ;
#1151 = VERTEX_POINT ( 'NONE', #1202 ) ;
#1152 = LINE ( 'NONE', #527, #1021 ) ;
#1153 = EDGE_CURVE ( 'NONE', #232, #1246, #1307, .T. ) ;
#1154 = EDGE_LOOP ( 'NONE', ( #1191, #12, #819, #47, #315, #1142 ) ) ;
#1155 = MECHANICAL_DESIGN_GEOMETRIC_PRESENTATION_REPRESENTATION (  '', ( #335 ), #640 ) ;
#1156 = CARTESIAN_POINT ( 'NONE',  ( -10.00000000000000000, 0.000000000000000000, 10.00000000000000000 ) ) ;
#1157 = ORIENTED_EDGE ( 'NONE', *, *, #806, .F. ) ;
#1158 = DIRECTION ( 'NONE',  ( 1.000000000000000000, 0.000000000000000000, 0.000000000000000000 ) ) ;
#1159 = PRODUCT_RELATED_PRODUCT_CATEGORY ( 'part', '', ( #168 ) ) ;
#1160 = EDGE_CURVE ( 'NONE', #109, #821, #1277, .T. ) ;
#1161 = ORIENTED_EDGE ( 'NONE', *, *, #1049, .F. ) ;
#1162 = VECTOR ( 'NONE', #644, 1000.000000000000000 ) ;
#1163 = EDGE_LOOP ( 'NONE', ( #888, #610, #1077, #940 ) ) ;
#1164 = CIRCLE ( 'NONE', #1018, 2.750000000000000000 ) ;
#1165 = CARTESIAN_POINT ( 'NONE',  ( 3.024999999999999911, -1.250000000000000000, -3.024999999999999911 ) ) ;
#1166 = ORIENTED_EDGE ( 'NONE', *, *, #181, .T. ) ;
#1167 = DIRECTION ( 'NONE',  ( 0.000000000000000000, 0.000000000000000000, 1.000000000000000000 ) ) ;
#1168 = VECTOR ( 'NONE', #1275, 1000.000000000000000 ) ;
#1169 = CIRCLE ( 'NONE', #1338, 2.750000000000000000 ) ;
#1170 = VERTEX_POINT ( 'NONE', #986 ) ;
#1171 = LINE ( 'NONE', #220, #1168 ) ;
#1172 = FACE_OUTER_BOUND ( 'NONE', #1309, .T. ) ;
#1173 = DIRECTION ( 'NONE',  ( -0.8660254037844387076, 0.4999999999999998890, 0.000000000000000000 ) ) ;
#1174 = CARTESIAN_POINT ( 'NONE',  ( -1.000000000000000000, 14.57735026918960131, -8.000000000000000000 ) ) ;
#1175 = ORIENTED_EDGE ( 'NONE', *, *, #357, .T. ) ;
#1176 = ORIENTED_EDGE ( 'NONE', *, *, #945, .T. ) ;
#1177 = DIRECTION ( 'NONE',  ( 1.000000000000000000, -4.336808689942019585E-17, 0.000000000000000000 ) ) ;
#1178 = EDGE_CURVE ( 'NONE', #983, #548, #511, .T. ) ;
#1179 = EDGE_LOOP ( 'NONE', ( #1184, #330, #252, #827 ) ) ;
#1180 = CARTESIAN_POINT ( 'NONE',  ( -1.000000000000000000, 13.42264973081040047, 8.000000000000000000 ) ) ;
#1181 = VECTOR ( 'NONE', #1058, 1000.000000000000000 ) ;
#1182 = ORIENTED_EDGE ( 'NONE', *, *, #434, .F. ) ;
#1183 = DIRECTION ( 'NONE',  ( 0.000000000000000000, -1.000000000000000000, 0.000000000000000000 ) ) ;
#1184 = ORIENTED_EDGE ( 'NONE', *, *, #1258, .T. ) ;
#1185 = UNCERTAINTY_MEASURE_WITH_UNIT (LENGTH_MEASURE( 1.000000000000000082E-05 ), #1238, 'distance_accuracy_value', 'NONE');
#1186 = CARTESIAN_POINT ( 'NONE',  ( 0.000000000000000000, 14.00000000000000000, -7.500000000000000000 ) ) ;
#1187 = EDGE_CURVE ( 'NONE', #1246, #898, #662, .T. ) ;
#1188 = VECTOR ( 'NONE', #636, 1000.000000000000000 ) ;
#1189 = CARTESIAN_POINT ( 'NONE',  ( -3.575000000000000178, 1.250000000000000000, -3.575000000000000178 ) ) ;
#1190 = VECTOR ( 'NONE', #730, 1000.000000000000000 ) ;
#1191 = ORIENTED_EDGE ( 'NONE', *, *, #1056, .T. ) ;
#1192 = ORIENTED_EDGE ( 'NONE', *, *, #53, .F. ) ;
#1193 = CARTESIAN_POINT ( 'NONE',  ( -9.020126968509648790, 14.00000000000000000, -7.500000000000000000 ) ) ;
#1194 = CARTESIAN_POINT ( 'NONE',  ( 0.000000000000000000, -1.250000000000000000, -2.750000000000000000 ) ) ;
#1195 = CARTESIAN_POINT ( 'NONE',  ( 0.000000000000000000, 14.00000000000000000, 9.000000000000000000 ) ) ;
#1196 = DIRECTION ( 'NONE',  ( -0.9961946980917455452, 0.08715574274765815199, 0.000000000000000000 ) ) ;
#1197 = ADVANCED_FACE ( 'NONE', ( #46 ), #656, .F. ) ;
#1198 = ORIENTED_EDGE ( 'NONE', *, *, #1135, .T. ) ;
#1199 = CARTESIAN_POINT ( 'NONE',  ( -10.00000000000000000, 2.799999999999999822, 10.00000000000000000 ) ) ;
#1200 = ORIENTED_EDGE ( 'NONE', *, *, #1361, .F. ) ;
#1201 = DIRECTION ( 'NONE',  ( 1.000000000000000000, 0.000000000000000000, 0.000000000000000000 ) ) ;
#1202 = CARTESIAN_POINT ( 'NONE',  ( -1.000000000000000000, 14.57735026918960131, -9.000000000000000000 ) ) ;
#1203 = DIRECTION ( 'NONE',  ( -0.08715574274765813811, -0.9961946980917455452, 0.000000000000000000 ) ) ;
#1204 = EDGE_CURVE ( 'NONE', #948, #1151, #1087, .T. ) ;
#1205 = ORIENTED_EDGE ( 'NONE', *, *, #114, .F. ) ;
#1206 = EDGE_CURVE ( 'NONE', #1089, #159, #349, .T. ) ;
#1207 = VECTOR ( 'NONE', #1244, 1000.000000000000000 ) ;
#1208 = CYLINDRICAL_SURFACE ( 'NONE', #1061, 2.500000000000000000 ) ;
#1209 = CARTESIAN_POINT ( 'NONE',  ( 0.000000000000000000, 12.84529946162069969, 8.000000000000000000 ) ) ;
#1210 = CARTESIAN_POINT ( 'NONE',  ( 3.024999999999999911, 1.250000000000000000, -3.024999999999999911 ) ) ;
#1211 = ORIENTED_EDGE ( 'NONE', *, *, #1290, .T. ) ;
#1212 = CYLINDRICAL_SURFACE ( 'NONE', #930, 2.500000000000000000 ) ;
#1213 = DIRECTION ( 'NONE',  ( 1.000000000000000000, 0.000000000000000000, 0.000000000000000000 ) ) ;
#1214 = LINE ( 'NONE', #1342, #1126 ) ;
#1215 = ORIENTED_EDGE ( 'NONE', *, *, #158, .T. ) ;
#1216 = LINE ( 'NONE', #1199, #194 ) ;
#1217 = CARTESIAN_POINT ( 'NONE',  ( -3.024999999999999911, 1.250000000000000000, 3.024999999999999911 ) ) ;
#1218 = EDGE_CURVE ( 'NONE', #1259, #574, #139, .T. ) ;
#1219 = PLANE ( 'NONE',  #757 ) ;
#1220 = EDGE_CURVE ( 'NONE', #746, #1151, #552, .T. ) ;
#1221 = DIRECTION ( 'NONE',  ( -1.000000000000000000, 0.000000000000000000, 0.000000000000000000 ) ) ;
#1222 = VECTOR ( 'NONE', #786, 1000.000000000000000 ) ;
#1223 = FACE_OUTER_BOUND ( 'NONE', #650, .T. ) ;
#1224 = ORIENTED_EDGE ( 'NONE', *, *, #179, .T. ) ;
#1225 = LINE ( 'NONE', #1013, #737 ) ;
#1226 = DIRECTION ( 'NONE',  ( 0.000000000000000000, 0.000000000000000000, 1.000000000000000000 ) ) ;
#1227 = CARTESIAN_POINT ( 'NONE',  ( 3.024999999999999911, 1.250000000000000000, 3.024999999999999911 ) ) ;
#1228 = FACE_OUTER_BOUND ( 'NONE', #715, .T. ) ;
#1229 = AXIS2_PLACEMENT_3D ( 'NONE', #830, #83, #75 ) ;
#1230 = EDGE_LOOP ( 'NONE', ( #599, #465, #1243, #779 ) ) ;
#1231 = CARTESIAN_POINT ( 'NONE',  ( -1.000000000000000000, 13.42264973081040047, 9.000000000000000000 ) ) ;
#1232 =( NAMED_UNIT ( * ) SI_UNIT ( $, .STERADIAN. ) SOLID_ANGLE_UNIT ( ) );
#1233 = CARTESIAN_POINT ( 'NONE',  ( -3.575000000000000178, 0.000000000000000000, 3.575000000000000178 ) ) ;
#1234 = EDGE_CURVE ( 'NONE', #1256, #836, #712, .T. ) ;
#1235 = DIRECTION ( 'NONE',  ( 0.000000000000000000, -1.000000000000000000, 0.000000000000000000 ) ) ;
#1236 = ORIENTED_EDGE ( 'NONE', *, *, #1025, .T. ) ;
#1237 = LINE ( 'NONE', #311, #317 ) ;
#1238 =( LENGTH_UNIT ( ) NAMED_UNIT ( * ) SI_UNIT ( .MILLI., .METRE. ) );
#1239 = EDGE_LOOP ( 'NONE', ( #1146, #1365, #44, #204 ) ) ;
#1240 = DIRECTION ( 'NONE',  ( -0.08715574274765813811, -0.9961946980917455452, 0.000000000000000000 ) ) ;
#1241 = FACE_OUTER_BOUND ( 'NONE', #291, .T. ) ;
#1242 = EDGE_CURVE ( 'NONE', #1170, #329, #1263, .T. ) ;
#1243 = ORIENTED_EDGE ( 'NONE', *, *, #879, .F. ) ;
#1244 = DIRECTION ( 'NONE',  ( 0.000000000000000000, 1.000000000000000000, 0.000000000000000000 ) ) ;
#1245 = ORIENTED_EDGE ( 'NONE', *, *, #307, .T. ) ;
#1246 = VERTEX_POINT ( 'NONE', #24 ) ;
#1247 = CARTESIAN_POINT ( 'NONE',  ( 1.000000000000000000, 14.57735026918960131, 9.000000000000000000 ) ) ;
#1248 = LINE ( 'NONE', #1134, #302 ) ;
#1249 = ORIENTED_EDGE ( 'NONE', *, *, #1008, .F. ) ;
#1250 = VECTOR ( 'NONE', #976, 1000.000000000000000 ) ;
#1251 = CARTESIAN_POINT ( 'NONE',  ( -10.00000000000000000, 2.799999999999999822, 10.00000000000000000 ) ) ;
#1252 = ADVANCED_FACE ( 'NONE', ( #250 ), #559, .F. ) ;
#1253 = VECTOR ( 'NONE', #485, 1000.000000000000000 ) ;
#1254 = ORIENTED_EDGE ( 'NONE', *, *, #1001, .F. ) ;
#1255 = DIRECTION ( 'NONE',  ( 0.000000000000000000, 0.000000000000000000, 1.000000000000000000 ) ) ;
#1256 = VERTEX_POINT ( 'NONE', #355 ) ;
#1257 = CARTESIAN_POINT ( 'NONE',  ( 0.000000000000000000, 2.799999999999999822, -2.750000000000000000 ) ) ;
#1258 = EDGE_CURVE ( 'NONE', #354, #206, #432, .T. ) ;
#1259 = VERTEX_POINT ( 'NONE', #1285 ) ;
#1260 = CARTESIAN_POINT ( 'NONE',  ( -10.00000000000000000, 0.000000000000000000, -10.00000000000000000 ) ) ;
#1261 = ADVANCED_FACE ( 'NONE', ( #671 ), #32, .F. ) ;
#1262 = VERTEX_POINT ( 'NONE', #1073 ) ;
#1263 = CIRCLE ( 'NONE', #602, 2.750000000000000000 ) ;
#1264 = FACE_OUTER_BOUND ( 'NONE', #1111, .T. ) ;
#1265 = ORIENTED_EDGE ( 'NONE', *, *, #1049, .T. ) ;
#1266 = LINE ( 'NONE', #621, #1190 ) ;
#1267 = VERTEX_POINT ( 'NONE', #1306 ) ;
#1268 = DIRECTION ( 'NONE',  ( 0.000000000000000000, 0.000000000000000000, -1.000000000000000000 ) ) ;
#1269 = CARTESIAN_POINT ( 'NONE',  ( 0.000000000000000000, -1.250000000000000000, 0.000000000000000000 ) ) ;
#1270 = CARTESIAN_POINT ( 'NONE',  ( -3.024999999999999911, 1.250000000000000000, -3.024999999999999911 ) ) ;
#1271 = AXIS2_PLACEMENT_3D ( 'NONE', #391, #641, #328 ) ;
#1272 = FACE_OUTER_BOUND ( 'NONE', #618, .T. ) ;
#1273 = EDGE_CURVE ( 'NONE', #386, #109, #537, .T. ) ;
#1274 = VERTEX_POINT ( 'NONE', #1320 ) ;
#1275 = DIRECTION ( 'NONE',  ( 0.8660254037844387076, -0.4999999999999998890, 0.000000000000000000 ) ) ;
#1276 = CARTESIAN_POINT ( 'NONE',  ( 0.000000000000000000, 12.84529946162069969, 9.000000000000000000 ) ) ;
#1277 = LINE ( 'NONE', #244, #292 ) ;
#1278 = FACE_OUTER_BOUND ( 'NONE', #1346, .T. ) ;
#1279 = ORIENTED_EDGE ( 'NONE', *, *, #1273, .F. ) ;
#1280 = ORIENTED_EDGE ( 'NONE', *, *, #1206, .F. ) ;
#1281 = ADVANCED_FACE ( 'NONE', ( #911 ), #929, .F. ) ;
#1282 = LINE ( 'NONE', #242, #1367 ) ;
#1283 = VECTOR ( 'NONE', #590, 1000.000000000000000 ) ;
#1284 = CARTESIAN_POINT ( 'NONE',  ( -9.020126968509648790, 14.00000000000000000, -10.00000000000000000 ) ) ;
#1285 = CARTESIAN_POINT ( 'NONE',  ( 3.024999999999999911, 1.250000000000000000, 3.024999999999999911 ) ) ;
#1286 = CARTESIAN_POINT ( 'NONE',  ( -9.020126968509648790, 14.00000000000000000, 7.500000000000000000 ) ) ;
#1287 = ORIENTED_EDGE ( 'NONE', *, *, #798, .F. ) ;
#1288 = CARTESIAN_POINT ( 'NONE',  ( 2.500000000000000000, 14.00000000000000000, -10.00000000000000000 ) ) ;
#1289 = CARTESIAN_POINT ( 'NONE',  ( -10.00000000000000000, 2.799999999999999822, -7.500000000000000000 ) ) ;
#1290 = EDGE_CURVE ( 'NONE', #958, #1256, #706, .T. ) ;
#1291 = DIRECTION ( 'NONE',  ( 1.000000000000000000, 0.000000000000000000, 0.000000000000000000 ) ) ;
#1292 = VECTOR ( 'NONE', #240, 1000.000000000000000 ) ;
#1293 = CARTESIAN_POINT ( 'NONE',  ( -3.024999999999999911, 1.250000000000000000, 3.024999999999999911 ) ) ;
#1294 = CIRCLE ( 'NONE', #700, 2.750000000000000000 ) ;
#1295 = EDGE_LOOP ( 'NONE', ( #577, #262, #125, #358, #1047, #11 ) ) ;
#1296 = DIRECTION ( 'NONE',  ( 0.000000000000000000, 0.000000000000000000, -1.000000000000000000 ) ) ;
#1297 = ORIENTED_EDGE ( 'NONE', *, *, #1220, .T. ) ;
#1298 = DIRECTION ( 'NONE',  ( 0.000000000000000000, 0.000000000000000000, 1.000000000000000000 ) ) ;
#1299 = CARTESIAN_POINT ( 'NONE',  ( 3.024999999999999911, 1.250000000000000000, -3.024999999999999911 ) ) ;
#1300 = ADVANCED_FACE ( 'NONE', ( #171, #50 ), #1219, .T. ) ;
#1301 = EDGE_CURVE ( 'NONE', #386, #206, #259, .T. ) ;
#1302 = ORIENTED_EDGE ( 'NONE', *, *, #1123, .F. ) ;
#1303 = LINE ( 'NONE', #359, #153 ) ;
#1304 = ORIENTED_EDGE ( 'NONE', *, *, #955, .T. ) ;
#1305 = LINE ( 'NONE', #151, #187 ) ;
#1306 = CARTESIAN_POINT ( 'NONE',  ( 10.00000000000000000, 2.799999999999999822, -7.500000000000000000 ) ) ;
#1307 = CIRCLE ( 'NONE', #466, 9.020126968509648790 ) ;
#1308 = PRESENTATION_STYLE_ASSIGNMENT (( #758 ) ) ;
#1309 = EDGE_LOOP ( 'NONE', ( #198, #7, #510, #296 ) ) ;
#1310 = DIRECTION ( 'NONE',  ( 1.000000000000000000, -4.336808689942019585E-17, 0.000000000000000000 ) ) ;
#1311 = CARTESIAN_POINT ( 'NONE',  ( 0.000000000000000000, 14.00000000000000000, -9.000000000000000000 ) ) ;
#1312 = FILL_AREA_STYLE ('',( #1007 ) ) ;
#1313 = PLANE ( 'NONE',  #411 ) ;
#1314 = ORIENTED_EDGE ( 'NONE', *, *, #453, .T. ) ;
#1315 = VECTOR ( 'NONE', #254, 1000.000000000000000 ) ;
#1316 = EDGE_CURVE ( 'NONE', #208, #1059, #1120, .T. ) ;
#1317 = FACE_OUTER_BOUND ( 'NONE', #130, .T. ) ;
#1318 = ORIENTED_EDGE ( 'NONE', *, *, #555, .T. ) ;
#1319 = CARTESIAN_POINT ( 'NONE',  ( 3.575000000000000178, 0.000000000000000000, 3.575000000000000178 ) ) ;
#1320 = CARTESIAN_POINT ( 'NONE',  ( -2.500000000000000000, 14.00000000000000000, -10.00000000000000000 ) ) ;
#1321 = FACE_OUTER_BOUND ( 'NONE', #1138, .T. ) ;
#1322 = ORIENTED_EDGE ( 'NONE', *, *, #405, .F. ) ;
#1323 = CARTESIAN_POINT ( 'NONE',  ( -3.575000000000000178, 1.250000000000000000, 3.575000000000000178 ) ) ;
#1324 = ORIENTED_EDGE ( 'NONE', *, *, #1218, .T. ) ;
#1325 = LINE ( 'NONE', #1231, #342 ) ;
#1326 = LINE ( 'NONE', #902, #1222 ) ;
#1327 = DIRECTION ( 'NONE',  ( -0.9961946980917455452, -0.08715574274765815199, 0.000000000000000000 ) ) ;
#1328 = DIRECTION ( 'NONE',  ( 0.000000000000000000, 0.000000000000000000, 1.000000000000000000 ) ) ;
#1329 = ORIENTED_EDGE ( 'NONE', *, *, #239, .T. ) ;
#1330 = CARTESIAN_POINT ( 'NONE',  ( 0.000000000000000000, 14.00000000000000000, -9.000000000000000000 ) ) ;
#1331 = DIRECTION ( 'NONE',  ( 0.000000000000000000, 0.000000000000000000, 1.000000000000000000 ) ) ;
#1332 = EDGE_CURVE ( 'NONE', #218, #1262, #693, .T. ) ;
#1333 = CARTESIAN_POINT ( 'NONE',  ( 1.000000000000000000, 13.42264973081040047, -8.000000000000000000 ) ) ;
#1334 = CIRCLE ( 'NONE', #966, 2.500000000000000000 ) ;
#1335 = DIRECTION ( 'NONE',  ( 0.000000000000000000, -1.000000000000000000, 0.000000000000000000 ) ) ;
#1336 = AXIS2_PLACEMENT_3D ( 'NONE', #1193, #886, #1296 ) ;
#1337 = EDGE_LOOP ( 'NONE', ( #529, #752, #762, #1038 ) ) ;
#1338 = AXIS2_PLACEMENT_3D ( 'NONE', #616, #519, #634 ) ;
#1339 = CARTESIAN_POINT ( 'NONE',  ( 9.020126968509648790, 14.00000000000000000, -7.500000000000000000 ) ) ;
#1340 = FACE_OUTER_BOUND ( 'NONE', #523, .T. ) ;
#1341 = ORIENTED_EDGE ( 'NONE', *, *, #524, .F. ) ;
#1342 = CARTESIAN_POINT ( 'NONE',  ( -9.020126968509648790, 14.00000000000000000, 10.00000000000000000 ) ) ;
#1343 = ADVANCED_FACE ( 'NONE', ( #1035 ), #698, .T. ) ;
#1344 = ADVANCED_FACE ( 'NONE', ( #1340 ), #484, .F. ) ;
#1345 = CARTESIAN_POINT ( 'NONE',  ( -10.00000000000000000, 0.000000000000000000, 10.00000000000000000 ) ) ;
#1346 = EDGE_LOOP ( 'NONE', ( #732, #508, #118, #688 ) ) ;
#1347 = PLANE ( 'NONE',  #604 ) ;
#1348 = ORIENTED_EDGE ( 'NONE', *, *, #609, .T. ) ;
#1349 = DIRECTION ( 'NONE',  ( 0.000000000000000000, 0.000000000000000000, 1.000000000000000000 ) ) ;
#1350 = COLOUR_RGB ( '',0.6862745098039215730, 0.6862745098039215730, 0.6862745098039215730 ) ;
#1351 = DIRECTION ( 'NONE',  ( 0.000000000000000000, 0.000000000000000000, 1.000000000000000000 ) ) ;
#1352 = EDGE_LOOP ( 'NONE', ( #580, #425, #540, #443 ) ) ;
#1353 = CARTESIAN_POINT ( 'NONE',  ( -9.020126968509648790, 14.00000000000000000, -10.00000000000000000 ) ) ;
#1354 =( NAMED_UNIT ( * ) PLANE_ANGLE_UNIT ( ) SI_UNIT ( $, .RADIAN. ) );
#1355 = AXIS2_PLACEMENT_3D ( 'NONE', #316, #1362, #509 ) ;
#1356 = ORIENTED_EDGE ( 'NONE', *, *, #96, .F. ) ;
#1357 = DIRECTION ( 'NONE',  ( 1.000000000000000000, 0.000000000000000000, 0.000000000000000000 ) ) ;
#1358 = AXIS2_PLACEMENT_3D ( 'NONE', #558, #670, #990 ) ;
#1359 = EDGE_CURVE ( 'NONE', #1259, #1089, #1326, .T. ) ;
#1360 = ORIENTED_EDGE ( 'NONE', *, *, #763, .T. ) ;
#1361 = EDGE_CURVE ( 'NONE', #1274, #344, #689, .T. ) ;
#1362 = DIRECTION ( 'NONE',  ( 0.000000000000000000, 0.000000000000000000, 1.000000000000000000 ) ) ;
#1363 = CARTESIAN_POINT ( 'NONE',  ( 0.000000000000000000, 0.000000000000000000, 0.000000000000000000 ) ) ;
#1364 = VECTOR ( 'NONE', #889, 1000.000000000000000 ) ;
#1365 = ORIENTED_EDGE ( 'NONE', *, *, #833, .F. ) ;
#1366 = CARTESIAN_POINT ( 'NONE',  ( -3.024999999999999911, -1.250000000000000000, -3.024999999999999911 ) ) ;
#1367 = VECTOR ( 'NONE', #1268, 1000.000000000000000 ) ;
#1368 = ORIENTED_EDGE ( 'NONE', *, *, #831, .T. ) ;
ENDSEC;
END-ISO-10303-21;
