ISO-10303-21;
HEADER;
FILE_DESCRIPTION (( 'STEP AP214' ),
    '1' );
FILE_NAME ('FA.step',
    '2023-08-15T02:57:47',
    ( '' ),
    ( '' ),
    'SwSTEP 2.0',
    'SolidWorks 2022',
    '' );
FILE_SCHEMA (( 'AUTOMOTIVE_DESIGN' ));
ENDSEC;

DATA;
#1 = ORIENTED_EDGE ( 'NONE', *, *, #72, .T. ) ;
#2 = MANIFOLD_SOLID_BREP ( '16', #383 ) ;
#3 = ORIENTED_EDGE ( 'NONE', *, *, #366, .T. ) ;
#4 = CARTESIAN_POINT ( 'NONE',  ( -8.000000000000000000, 9.797174393178825657E-16, 0.000000000000000000 ) ) ;
#5 = AXIS2_PLACEMENT_3D ( 'NONE', #295, #68, #21 ) ;
#6 = ORIENTED_EDGE ( 'NONE', *, *, #462, .F. ) ;
#7 = ADVANCED_FACE ( 'NONE', ( #65 ), #202, .T. ) ;
#8 = DIRECTION ( 'NONE',  ( 1.000000000000000000, 0.000000000000000000, 0.000000000000000000 ) ) ;
#9 = EDGE_LOOP ( 'NONE', ( #438, #143, #452, #79 ) ) ;
#10 = CARTESIAN_POINT ( 'NONE',  ( 13.00000000000000178, -25.99999999999998934, 0.000000000000000000 ) ) ;
#11 = ORIENTED_EDGE ( 'NONE', *, *, #243, .T. ) ;
#12 = EDGE_CURVE ( 'NONE', #117, #405, #355, .T. ) ;
#13 = EDGE_LOOP ( 'NONE', ( #230, #276, #6, #370 ) ) ;
#14 = FACE_BOUND ( 'NONE', #530, .T. ) ;
#15 = DIRECTION ( 'NONE',  ( 1.000000000000000000, 0.000000000000000000, 0.000000000000000000 ) ) ;
#16 = EDGE_CURVE ( 'NONE', #40, #349, #244, .T. ) ;
#17 = AXIS2_PLACEMENT_3D ( 'NONE', #152, #422, #201 ) ;
#18 = CARTESIAN_POINT ( 'NONE',  ( -10.39999999999999858, 23.40000000000001279, 3.000000000000000000 ) ) ;
#19 = FACE_BOUND ( 'NONE', #400, .T. ) ;
#20 = CARTESIAN_POINT ( 'NONE',  ( -12.99999999999999822, -25.99999999999998934, 0.000000000000000000 ) ) ;
#21 = DIRECTION ( 'NONE',  ( 1.000000000000000000, 0.000000000000000000, 0.000000000000000000 ) ) ;
#22 = FILL_AREA_STYLE ('',( #420 ) ) ;
#23 = LINE ( 'NONE', #343, #97 ) ;
#24 = FACE_OUTER_BOUND ( 'NONE', #328, .T. ) ;
#25 = AXIS2_PLACEMENT_3D ( 'NONE', #531, #281, #66 ) ;
#26 = ADVANCED_BREP_SHAPE_REPRESENTATION ( 'FA', ( #2, #319 ), #322 ) ;
#27 = CYLINDRICAL_SURFACE ( 'NONE', #5, 8.000000000000000000 ) ;
#28 =( GEOMETRIC_REPRESENTATION_CONTEXT ( 3 ) GLOBAL_UNCERTAINTY_ASSIGNED_CONTEXT ( ( #210 ) ) GLOBAL_UNIT_ASSIGNED_CONTEXT ( ( #464, #115, #495 ) ) REPRESENTATION_CONTEXT ( 'NONE', 'WORKASPACE' ) );
#29 = AXIS2_PLACEMENT_3D ( 'NONE', #138, #482, #228 ) ;
#30 = DIRECTION ( 'NONE',  ( 1.000000000000000000, 0.000000000000000000, 0.000000000000000000 ) ) ;
#31 = EDGE_LOOP ( 'NONE', ( #451, #346, #555, #255 ) ) ;
#32 = DIRECTION ( 'NONE',  ( -0.000000000000000000, -0.000000000000000000, 1.000000000000000000 ) ) ;
#33 = MECHANICAL_DESIGN_GEOMETRIC_PRESENTATION_REPRESENTATION (  '', ( #154 ), #380 ) ;
#34 = EDGE_CURVE ( 'NONE', #102, #490, #247, .T. ) ;
#35 = UNCERTAINTY_MEASURE_WITH_UNIT (LENGTH_MEASURE( 1.000000000000000082E-05 ), #363, 'distance_accuracy_value', 'NONE');
#36 = ORIENTED_EDGE ( 'NONE', *, *, #104, .T. ) ;
#37 = DIRECTION ( 'NONE',  ( -1.000000000000000000, 0.000000000000000000, 0.000000000000000000 ) ) ;
#38 = VECTOR ( 'NONE', #460, 1000.000000000000000 ) ;
#39 = CARTESIAN_POINT ( 'NONE',  ( 10.40000000000000036, 23.40000000000001279, 3.000000000000000000 ) ) ;
#40 = VERTEX_POINT ( 'NONE', #197 ) ;
#41 = CYLINDRICAL_SURFACE ( 'NONE', #260, 8.000000000000000000 ) ;
#42 =( NAMED_UNIT ( * ) PLANE_ANGLE_UNIT ( ) SI_UNIT ( $, .RADIAN. ) );
#43 = EDGE_LOOP ( 'NONE', ( #174, #431 ) ) ;
#44 = DIRECTION ( 'NONE',  ( -1.000000000000000000, -0.000000000000000000, -0.000000000000000000 ) ) ;
#45 = CARTESIAN_POINT ( 'NONE',  ( 2.750000000000000000, 20.00000000000000000, 0.000000000000000000 ) ) ;
#46 = PRESENTATION_LAYER_ASSIGNMENT (  '', '', ( #154 ) ) ;
#47 = VERTEX_POINT ( 'NONE', #294 ) ;
#48 = DIRECTION ( 'NONE',  ( 1.000000000000000000, 0.000000000000000000, 0.000000000000000000 ) ) ;
#49 = CIRCLE ( 'NONE', #313, 2.749999999999999112 ) ;
#50 = EDGE_LOOP ( 'NONE', ( #308, #1, #189, #481 ) ) ;
#51 = DIRECTION ( 'NONE',  ( 0.000000000000000000, 0.000000000000000000, 1.000000000000000000 ) ) ;
#52 = EDGE_LOOP ( 'NONE', ( #211, #36, #330, #217 ) ) ;
#53 = LINE ( 'NONE', #148, #205 ) ;
#54 = EDGE_CURVE ( 'NONE', #47, #414, #287, .T. ) ;
#55 = ORIENTED_EDGE ( 'NONE', *, *, #226, .F. ) ;
#56 = FACE_OUTER_BOUND ( 'NONE', #325, .T. ) ;
#57 = CIRCLE ( 'NONE', #453, 2.600000000000000089 ) ;
#58 = CIRCLE ( 'NONE', #196, 2.749999999999999112 ) ;
#59 = ORIENTED_EDGE ( 'NONE', *, *, #133, .T. ) ;
#60 = CARTESIAN_POINT ( 'NONE',  ( -8.000000000000000000, 9.797174393178825657E-16, 3.000000000000000000 ) ) ;
#61 = ORIENTED_EDGE ( 'NONE', *, *, #63, .F. ) ;
#62 = FACE_BOUND ( 'NONE', #43, .T. ) ;
#63 = EDGE_CURVE ( 'NONE', #429, #124, #166, .T. ) ;
#64 = CARTESIAN_POINT ( 'NONE',  ( 0.000000000000000000, 0.000000000000000000, 0.000000000000000000 ) ) ;
#65 = FACE_OUTER_BOUND ( 'NONE', #31, .T. ) ;
#66 = DIRECTION ( 'NONE',  ( 1.000000000000000000, 0.000000000000000000, 0.000000000000000000 ) ) ;
#67 = AXIS2_PLACEMENT_3D ( 'NONE', #540, #378, #538 ) ;
#68 = DIRECTION ( 'NONE',  ( -0.000000000000000000, -0.000000000000000000, 1.000000000000000000 ) ) ;
#69 = DIRECTION ( 'NONE',  ( 1.000000000000000000, 0.000000000000000000, 0.000000000000000000 ) ) ;
#70 = CARTESIAN_POINT ( 'NONE',  ( -8.000000000000000000, 9.797174393178825657E-16, 0.000000000000000000 ) ) ;
#71 = CARTESIAN_POINT ( 'NONE',  ( -2.750000000000008438, -20.00000000000000000, 0.000000000000000000 ) ) ;
#72 = EDGE_CURVE ( 'NONE', #164, #429, #333, .T. ) ;
#73 = CARTESIAN_POINT ( 'NONE',  ( 10.40000000000000036, 23.40000000000001279, 3.000000000000000000 ) ) ;
#74 = CARTESIAN_POINT ( 'NONE',  ( 8.000000000000000000, 0.000000000000000000, 0.000000000000000000 ) ) ;
#75 = VECTOR ( 'NONE', #449, 1000.000000000000000 ) ;
#76 = CARTESIAN_POINT ( 'NONE',  ( 10.39999999999999325, 26.00000000000001066, 0.000000000000000000 ) ) ;
#77 = AXIS2_PLACEMENT_3D ( 'NONE', #478, #51, #93 ) ;
#78 = ADVANCED_FACE ( 'NONE', ( #423 ), #376, .F. ) ;
#79 = ORIENTED_EDGE ( 'NONE', *, *, #34, .F. ) ;
#80 = CARTESIAN_POINT ( 'NONE',  ( -2.749999999999998224, 20.00000000000000000, 3.000000000000000000 ) ) ;
#81 = ADVANCED_FACE ( 'NONE', ( #24 ), #206, .F. ) ;
#82 = ORIENTED_EDGE ( 'NONE', *, *, #72, .F. ) ;
#83 = FACE_OUTER_BOUND ( 'NONE', #562, .T. ) ;
#84 = ORIENTED_EDGE ( 'NONE', *, *, #104, .F. ) ;
#85 = CARTESIAN_POINT ( 'NONE',  ( -12.99999999999999822, 23.39999999999999858, 3.000000000000000000 ) ) ;
#86 = VECTOR ( 'NONE', #361, 1000.000000000000000 ) ;
#87 = PRODUCT_DEFINITION_SHAPE ( 'NONE', 'NONE',  #94 ) ;
#88 = EDGE_LOOP ( 'NONE', ( #11, #443, #435, #456 ) ) ;
#89 = PLANE ( 'NONE',  #505 ) ;
#90 = SURFACE_STYLE_FILL_AREA ( #275 ) ;
#91 = DIRECTION ( 'NONE',  ( -0.000000000000000000, -1.000000000000000000, -0.000000000000000000 ) ) ;
#92 = ORIENTED_EDGE ( 'NONE', *, *, #12, .F. ) ;
#93 = DIRECTION ( 'NONE',  ( 1.000000000000000000, 0.000000000000000000, 0.000000000000000000 ) ) ;
#94 = PRODUCT_DEFINITION ( 'Î´Öª', '', #147, #229 ) ;
#95 = ORIENTED_EDGE ( 'NONE', *, *, #243, .F. ) ;
#96 = DIRECTION ( 'NONE',  ( 1.000000000000000000, 0.000000000000000000, 0.000000000000000000 ) ) ;
#97 = VECTOR ( 'NONE', #465, 1000.000000000000000 ) ;
#98 = AXIS2_PLACEMENT_3D ( 'NONE', #18, #208, #110 ) ;
#99 = ORIENTED_EDGE ( 'NONE', *, *, #450, .F. ) ;
#100 = DIRECTION ( 'NONE',  ( -0.000000000000000000, -0.000000000000000000, 1.000000000000000000 ) ) ;
#101 = EDGE_CURVE ( 'NONE', #490, #351, #385, .T. ) ;
#102 = VERTEX_POINT ( 'NONE', #340 ) ;
#103 = LINE ( 'NONE', #369, #75 ) ;
#104 = EDGE_CURVE ( 'NONE', #317, #47, #501, .T. ) ;
#105 = ORIENTED_EDGE ( 'NONE', *, *, #372, .T. ) ;
#106 = CIRCLE ( 'NONE', #282, 2.749999999999998668 ) ;
#107 = CIRCLE ( 'NONE', #122, 2.749999999999998668 ) ;
#108 = ORIENTED_EDGE ( 'NONE', *, *, #389, .T. ) ;
#109 = FACE_OUTER_BOUND ( 'NONE', #477, .T. ) ;
#110 = DIRECTION ( 'NONE',  ( -1.000000000000000000, 0.000000000000000000, 0.000000000000000000 ) ) ;
#111 = LINE ( 'NONE', #324, #476 ) ;
#112 = DIRECTION ( 'NONE',  ( 0.000000000000000000, 0.000000000000000000, -1.000000000000000000 ) ) ;
#113 = LINE ( 'NONE', #70, #515 ) ;
#114 = AXIS2_PLACEMENT_3D ( 'NONE', #427, #547, #30 ) ;
#115 =( NAMED_UNIT ( * ) PLANE_ANGLE_UNIT ( ) SI_UNIT ( $, .RADIAN. ) );
#116 = CARTESIAN_POINT ( 'NONE',  ( -10.40000000000000036, 26.00000000000001066, 3.000000000000000000 ) ) ;
#117 = VERTEX_POINT ( 'NONE', #74 ) ;
#118 = CARTESIAN_POINT ( 'NONE',  ( 13.00000000000000178, -25.99999999999998934, 3.000000000000000000 ) ) ;
#119 = CARTESIAN_POINT ( 'NONE',  ( 13.00000000000000178, -23.39999999999999147, 3.000000000000000000 ) ) ;
#120 = EDGE_CURVE ( 'NONE', #232, #124, #506, .T. ) ;
#121 = CARTESIAN_POINT ( 'NONE',  ( -9.940433311138093458E-15, -20.00000000000000000, 0.000000000000000000 ) ) ;
#122 = AXIS2_PLACEMENT_3D ( 'NONE', #444, #556, #549 ) ;
#123 = DIRECTION ( 'NONE',  ( -0.000000000000000000, -0.000000000000000000, 1.000000000000000000 ) ) ;
#124 = VERTEX_POINT ( 'NONE', #220 ) ;
#125 = LINE ( 'NONE', #136, #358 ) ;
#126 = ORIENTED_EDGE ( 'NONE', *, *, #498, .F. ) ;
#127 = DIRECTION ( 'NONE',  ( -0.000000000000000000, -0.000000000000000000, -1.000000000000000000 ) ) ;
#128 = ORIENTED_EDGE ( 'NONE', *, *, #101, .F. ) ;
#129 = FACE_OUTER_BOUND ( 'NONE', #52, .T. ) ;
#130 = AXIS2_PLACEMENT_3D ( 'NONE', #245, #304, #341 ) ;
#131 = PRESENTATION_LAYER_ASSIGNMENT (  '', '', ( #293 ) ) ;
#132 = VECTOR ( 'NONE', #123, 1000.000000000000000 ) ;
#133 = EDGE_CURVE ( 'NONE', #362, #412, #259, .T. ) ;
#134 = LINE ( 'NONE', #314, #533 ) ;
#135 = ORIENTED_EDGE ( 'NONE', *, *, #512, .F. ) ;
#136 = CARTESIAN_POINT ( 'NONE',  ( -12.99999999999999822, 26.00000000000001066, 3.000000000000000000 ) ) ;
#137 = ORIENTED_EDGE ( 'NONE', *, *, #450, .T. ) ;
#138 = CARTESIAN_POINT ( 'NONE',  ( -12.99999999999999822, -25.99999999999998934, 3.000000000000000000 ) ) ;
#139 = ORIENTED_EDGE ( 'NONE', *, *, #553, .T. ) ;
#140 = ADVANCED_FACE ( 'NONE', ( #305 ), #434, .T. ) ;
#141 = CIRCLE ( 'NONE', #186, 8.000000000000000000 ) ;
#142 = VECTOR ( 'NONE', #458, 1000.000000000000000 ) ;
#143 = ORIENTED_EDGE ( 'NONE', *, *, #223, .F. ) ;
#144 = ORIENTED_EDGE ( 'NONE', *, *, #156, .F. ) ;
#145 = CARTESIAN_POINT ( 'NONE',  ( -9.940433311138093458E-15, -20.00000000000000000, 3.000000000000000000 ) ) ;
#146 = ORIENTED_EDGE ( 'NONE', *, *, #258, .T. ) ;
#147 = PRODUCT_DEFINITION_FORMATION_WITH_SPECIFIED_SOURCE ( 'ÈÎºÎ', '', #188, .NOT_KNOWN. ) ;
#148 = CARTESIAN_POINT ( 'NONE',  ( -10.39999999999999858, 26.00000000000001066, 3.000000000000000000 ) ) ;
#149 = DIRECTION ( 'NONE',  ( 1.000000000000000000, 0.000000000000000000, 0.000000000000000000 ) ) ;
#150 = LINE ( 'NONE', #485, #409 ) ;
#151 = DIRECTION ( 'NONE',  ( 0.000000000000000000, -1.000000000000000000, 0.000000000000000000 ) ) ;
#152 = CARTESIAN_POINT ( 'NONE',  ( -10.39999999999999858, -23.39999999999999147, 3.000000000000000000 ) ) ;
#153 = DIRECTION ( 'NONE',  ( -0.000000000000000000, -0.000000000000000000, 1.000000000000000000 ) ) ;
#154 = STYLED_ITEM ( 'NONE', ( #169 ), #26 ) ;
#155 = FACE_OUTER_BOUND ( 'NONE', #88, .T. ) ;
#156 = EDGE_CURVE ( 'NONE', #237, #514, #170, .T. ) ;
#157 = DIRECTION ( 'NONE',  ( -1.000000000000000000, -0.000000000000000000, -0.000000000000000000 ) ) ;
#158 =( NAMED_UNIT ( * ) PLANE_ANGLE_UNIT ( ) SI_UNIT ( $, .RADIAN. ) );
#159 = CARTESIAN_POINT ( 'NONE',  ( 13.00000000000000178, -25.99999999999998934, 0.000000000000000000 ) ) ;
#160 = DIRECTION ( 'NONE',  ( 0.000000000000000000, 1.000000000000000000, 0.000000000000000000 ) ) ;
#161 = EDGE_CURVE ( 'NONE', #321, #284, #437, .T. ) ;
#162 = CARTESIAN_POINT ( 'NONE',  ( 10.40000000000000213, -23.39999999999999147, 0.000000000000000000 ) ) ;
#163 = CYLINDRICAL_SURFACE ( 'NONE', #17, 2.600000000000000089 ) ;
#164 = VERTEX_POINT ( 'NONE', #516 ) ;
#165 = FACE_OUTER_BOUND ( 'NONE', #290, .T. ) ;
#166 = CIRCLE ( 'NONE', #67, 2.749999999999998668 ) ;
#167 = ORIENTED_EDGE ( 'NONE', *, *, #120, .T. ) ;
#168 = DIRECTION ( 'NONE',  ( 0.000000000000000000, 0.000000000000000000, -1.000000000000000000 ) ) ;
#169 = PRESENTATION_STYLE_ASSIGNMENT (( #399 ) ) ;
#170 = LINE ( 'NONE', #471, #542 ) ;
#171 = ORIENTED_EDGE ( 'NONE', *, *, #258, .F. ) ;
#172 = CARTESIAN_POINT ( 'NONE',  ( 10.40000000000000036, 23.40000000000001279, 0.000000000000000000 ) ) ;
#173 = EDGE_CURVE ( 'NONE', #253, #261, #134, .T. ) ;
#174 = ORIENTED_EDGE ( 'NONE', *, *, #200, .T. ) ;
#175 = DIRECTION ( 'NONE',  ( -1.000000000000000000, 0.000000000000000000, 0.000000000000000000 ) ) ;
#176 = CIRCLE ( 'NONE', #344, 2.600000000000000089 ) ;
#177 = CIRCLE ( 'NONE', #283, 2.600000000000000089 ) ;
#178 = SURFACE_SIDE_STYLE ('',( #90 ) ) ;
#179 = EDGE_CURVE ( 'NONE', #237, #362, #49, .T. ) ;
#180 = VERTEX_POINT ( 'NONE', #546 ) ;
#181 = PLANE ( 'NONE',  #29 ) ;
#182 = EDGE_CURVE ( 'NONE', #47, #395, #493, .T. ) ;
#183 = ORIENTED_EDGE ( 'NONE', *, *, #389, .F. ) ;
#184 = ORIENTED_EDGE ( 'NONE', *, *, #34, .T. ) ;
#185 = CARTESIAN_POINT ( 'NONE',  ( 13.00000000000000178, 23.39999999999999858, 0.000000000000000000 ) ) ;
#186 = AXIS2_PLACEMENT_3D ( 'NONE', #254, #419, #502 ) ;
#187 = VECTOR ( 'NONE', #157, 1000.000000000000000 ) ;
#188 = PRODUCT ( 'FA', 'FA', '', ( #239 ) ) ;
#189 = ORIENTED_EDGE ( 'NONE', *, *, #63, .T. ) ;
#190 = DIRECTION ( 'NONE',  ( 1.000000000000000000, 0.000000000000000000, -0.000000000000000000 ) ) ;
#191 = ORIENTED_EDGE ( 'NONE', *, *, #421, .T. ) ;
#192 = CARTESIAN_POINT ( 'NONE',  ( -12.99999999999999822, -23.39999999999999147, 0.000000000000000000 ) ) ;
#193 = APPLICATION_PROTOCOL_DEFINITION ( 'draft international standard', 'automotive_design', 1998, #535 ) ;
#194 = ORIENTED_EDGE ( 'NONE', *, *, #326, .T. ) ;
#195 = DIRECTION ( 'NONE',  ( 0.000000000000000000, 0.000000000000000000, 1.000000000000000000 ) ) ;
#196 = AXIS2_PLACEMENT_3D ( 'NONE', #394, #218, #432 ) ;
#197 = CARTESIAN_POINT ( 'NONE',  ( -12.99999999999999822, 23.39999999999999858, 0.000000000000000000 ) ) ;
#198 = FACE_BOUND ( 'NONE', #227, .T. ) ;
#199 = DIRECTION ( 'NONE',  ( 0.000000000000000000, 1.000000000000000000, 0.000000000000000000 ) ) ;
#200 = EDGE_CURVE ( 'NONE', #362, #237, #58, .T. ) ;
#201 = DIRECTION ( 'NONE',  ( -1.000000000000000000, 0.000000000000000000, 0.000000000000000000 ) ) ;
#202 = CYLINDRICAL_SURFACE ( 'NONE', #98, 2.600000000000000089 ) ;
#203 =( LENGTH_UNIT ( ) NAMED_UNIT ( * ) SI_UNIT ( .MILLI., .METRE. ) );
#204 = ADVANCED_FACE ( 'NONE', ( #129 ), #89, .F. ) ;
#205 = VECTOR ( 'NONE', #487, 1000.000000000000000 ) ;
#206 = CYLINDRICAL_SURFACE ( 'NONE', #263, 2.749999999999999112 ) ;
#207 = CIRCLE ( 'NONE', #77, 2.600000000000000089 ) ;
#208 = DIRECTION ( 'NONE',  ( 0.000000000000000000, 0.000000000000000000, -1.000000000000000000 ) ) ;
#209 = DIRECTION ( 'NONE',  ( 1.000000000000000000, 0.000000000000000000, 0.000000000000000000 ) ) ;
#210 = UNCERTAINTY_MEASURE_WITH_UNIT (LENGTH_MEASURE( 1.000000000000000082E-05 ), #464, 'distance_accuracy_value', 'NONE');
#211 = ORIENTED_EDGE ( 'NONE', *, *, #483, .F. ) ;
#212 = CARTESIAN_POINT ( 'NONE',  ( 7.347880794884133541E-16, 20.00000000000000000, 0.000000000000000000 ) ) ;
#213 = AXIS2_PLACEMENT_3D ( 'NONE', #238, #285, #8 ) ;
#214 = ORIENTED_EDGE ( 'NONE', *, *, #173, .F. ) ;
#215 = CARTESIAN_POINT ( 'NONE',  ( -2.749999999999998224, 20.00000000000000000, 0.000000000000000000 ) ) ;
#216 = DIRECTION ( 'NONE',  ( 0.000000000000000000, 0.000000000000000000, -1.000000000000000000 ) ) ;
#217 = ORIENTED_EDGE ( 'NONE', *, *, #223, .T. ) ;
#218 = DIRECTION ( 'NONE',  ( 0.000000000000000000, 0.000000000000000000, 1.000000000000000000 ) ) ;
#219 = EDGE_CURVE ( 'NONE', #40, #351, #384, .T. ) ;
#220 = CARTESIAN_POINT ( 'NONE',  ( 2.749999999999988454, -20.00000000000000000, 3.000000000000000000 ) ) ;
#221 = VERTEX_POINT ( 'NONE', #518 ) ;
#222 = FACE_OUTER_BOUND ( 'NONE', #50, .T. ) ;
#223 = EDGE_CURVE ( 'NONE', #414, #221, #318, .T. ) ;
#224 = ORIENTED_EDGE ( 'NONE', *, *, #182, .F. ) ;
#225 = APPLICATION_CONTEXT ( 'automotive_design' ) ;
#226 = EDGE_CURVE ( 'NONE', #102, #528, #125, .T. ) ;
#227 = EDGE_LOOP ( 'NONE', ( #280, #135 ) ) ;
#228 = DIRECTION ( 'NONE',  ( 0.000000000000000000, 0.000000000000000000, -1.000000000000000000 ) ) ;
#229 = PRODUCT_DEFINITION_CONTEXT ( 'detailed design', #535, 'design' ) ;
#230 = ORIENTED_EDGE ( 'NONE', *, *, #270, .F. ) ;
#231 = PLANE ( 'NONE',  #541 ) ;
#232 = VERTEX_POINT ( 'NONE', #312 ) ;
#233 = PLANE ( 'NONE',  #292 ) ;
#234 = CIRCLE ( 'NONE', #130, 2.600000000000000089 ) ;
#235 = VECTOR ( 'NONE', #298, 1000.000000000000000 ) ;
#236 = ORIENTED_EDGE ( 'NONE', *, *, #466, .T. ) ;
#237 = VERTEX_POINT ( 'NONE', #215 ) ;
#238 = CARTESIAN_POINT ( 'NONE',  ( -9.940433311138093458E-15, -20.00000000000000000, 0.000000000000000000 ) ) ;
#239 = PRODUCT_CONTEXT ( 'NONE', #225, 'mechanical' ) ;
#240 = SURFACE_SIDE_STYLE ('',( #418 ) ) ;
#241 = CARTESIAN_POINT ( 'NONE',  ( 10.39999999999999325, -25.99999999999998934, 0.000000000000000000 ) ) ;
#242 = AXIS2_PLACEMENT_3D ( 'NONE', #145, #494, #331 ) ;
#243 = EDGE_CURVE ( 'NONE', #284, #395, #436, .T. ) ;
#244 = LINE ( 'NONE', #20, #417 ) ;
#245 = CARTESIAN_POINT ( 'NONE',  ( -10.39999999999999858, -23.39999999999999147, 0.000000000000000000 ) ) ;
#246 = DIRECTION ( 'NONE',  ( 0.000000000000000000, -0.000000000000000000, 1.000000000000000000 ) ) ;
#247 = LINE ( 'NONE', #381, #323 ) ;
#248 = DIRECTION ( 'NONE',  ( 1.000000000000000000, 0.000000000000000000, 0.000000000000000000 ) ) ;
#249 = AXIS2_PLACEMENT_3D ( 'NONE', #388, #339, #246 ) ;
#250 = PRESENTATION_STYLE_ASSIGNMENT (( #338 ) ) ;
#251 = VECTOR ( 'NONE', #353, 1000.000000000000000 ) ;
#252 = FACE_OUTER_BOUND ( 'NONE', #303, .T. ) ;
#253 = VERTEX_POINT ( 'NONE', #85 ) ;
#254 = CARTESIAN_POINT ( 'NONE',  ( 0.000000000000000000, 0.000000000000000000, 3.000000000000000000 ) ) ;
#255 = ORIENTED_EDGE ( 'NONE', *, *, #359, .F. ) ;
#256 = CARTESIAN_POINT ( 'NONE',  ( -12.99999999999999822, -25.99999999999998934, 0.000000000000000000 ) ) ;
#257 = EDGE_CURVE ( 'NONE', #514, #412, #426, .T. ) ;
#258 = EDGE_CURVE ( 'NONE', #278, #317, #207, .T. ) ;
#259 = LINE ( 'NONE', #45, #132 ) ;
#260 = AXIS2_PLACEMENT_3D ( 'NONE', #473, #396, #352 ) ;
#261 = VERTEX_POINT ( 'NONE', #269 ) ;
#262 = CARTESIAN_POINT ( 'NONE',  ( -10.40000000000000036, -25.99999999999998934, 3.000000000000000000 ) ) ;
#263 = AXIS2_PLACEMENT_3D ( 'NONE', #543, #153, #69 ) ;
#264 = CARTESIAN_POINT ( 'NONE',  ( 2.749999999999988454, -20.00000000000000000, 0.000000000000000000 ) ) ;
#265 = ORIENTED_EDGE ( 'NONE', *, *, #511, .T. ) ;
#266 = FACE_OUTER_BOUND ( 'NONE', #364, .T. ) ;
#267 = CARTESIAN_POINT ( 'NONE',  ( 7.347880794884133541E-16, 20.00000000000000000, 0.000000000000000000 ) ) ;
#268 = ORIENTED_EDGE ( 'NONE', *, *, #133, .F. ) ;
#269 = CARTESIAN_POINT ( 'NONE',  ( -12.99999999999999822, -23.39999999999999147, 3.000000000000000000 ) ) ;
#270 = EDGE_CURVE ( 'NONE', #261, #321, #177, .T. ) ;
#271 = ORIENTED_EDGE ( 'NONE', *, *, #310, .T. ) ;
#272 = VECTOR ( 'NONE', #160, 1000.000000000000000 ) ;
#273 = CYLINDRICAL_SURFACE ( 'NONE', #445, 2.600000000000000089 ) ;
#274 = AXIS2_PLACEMENT_3D ( 'NONE', #475, #127, #48 ) ;
#275 = FILL_AREA_STYLE ('',( #407 ) ) ;
#276 = ORIENTED_EDGE ( 'NONE', *, *, #446, .F. ) ;
#277 = CARTESIAN_POINT ( 'NONE',  ( -10.40000000000000036, 26.00000000000001066, 0.000000000000000000 ) ) ;
#278 = VERTEX_POINT ( 'NONE', #309 ) ;
#279 = ADVANCED_FACE ( 'NONE', ( #266 ), #273, .T. ) ;
#280 = ORIENTED_EDGE ( 'NONE', *, *, #511, .F. ) ;
#281 = DIRECTION ( 'NONE',  ( 0.000000000000000000, 0.000000000000000000, 1.000000000000000000 ) ) ;
#282 = AXIS2_PLACEMENT_3D ( 'NONE', #371, #489, #288 ) ;
#283 = AXIS2_PLACEMENT_3D ( 'NONE', #401, #563, #96 ) ;
#284 = VERTEX_POINT ( 'NONE', #559 ) ;
#285 = DIRECTION ( 'NONE',  ( -0.000000000000000000, -0.000000000000000000, 1.000000000000000000 ) ) ;
#286 = SHAPE_DEFINITION_REPRESENTATION ( #87, #26 ) ;
#287 = LINE ( 'NONE', #159, #492 ) ;
#288 = DIRECTION ( 'NONE',  ( -1.000000000000000000, 0.000000000000000000, 0.000000000000000000 ) ) ;
#289 = ADVANCED_FACE ( 'NONE', ( #165 ), #181, .F. ) ;
#290 = EDGE_LOOP ( 'NONE', ( #360, #517, #214, #411 ) ) ;
#291 = PLANE ( 'NONE',  #249 ) ;
#292 = AXIS2_PLACEMENT_3D ( 'NONE', #10, #455, #190 ) ;
#293 = STYLED_ITEM ( 'NONE', ( #250 ), #2 ) ;
#294 = CARTESIAN_POINT ( 'NONE',  ( 13.00000000000000178, -23.39999999999999147, 0.000000000000000000 ) ) ;
#295 = CARTESIAN_POINT ( 'NONE',  ( 0.000000000000000000, 0.000000000000000000, 0.000000000000000000 ) ) ;
#296 = DIRECTION ( 'NONE',  ( 0.000000000000000000, 0.000000000000000000, 1.000000000000000000 ) ) ;
#297 = FACE_OUTER_BOUND ( 'NONE', #368, .T. ) ;
#298 = DIRECTION ( 'NONE',  ( 0.000000000000000000, 0.000000000000000000, -1.000000000000000000 ) ) ;
#299 = DIRECTION ( 'NONE',  ( 1.000000000000000000, 0.000000000000000000, 0.000000000000000000 ) ) ;
#300 = DIRECTION ( 'NONE',  ( -0.000000000000000000, -0.000000000000000000, -1.000000000000000000 ) ) ;
#301 = COLOUR_RGB ( '',1.000000000000000000, 1.000000000000000000, 1.000000000000000000 ) ;
#302 = AXIS2_PLACEMENT_3D ( 'NONE', #39, #216, #513 ) ;
#303 = EDGE_LOOP ( 'NONE', ( #82, #524, #167, #108 ) ) ;
#304 = DIRECTION ( 'NONE',  ( -0.000000000000000000, -0.000000000000000000, -1.000000000000000000 ) ) ;
#305 = FACE_OUTER_BOUND ( 'NONE', #9, .T. ) ;
#306 = EDGE_LOOP ( 'NONE', ( #403, #315 ) ) ;
#307 = DIRECTION ( 'NONE',  ( 1.000000000000000000, 1.601283208593975731E-14, 0.000000000000000000 ) ) ;
#308 = ORIENTED_EDGE ( 'NONE', *, *, #310, .F. ) ;
#309 = CARTESIAN_POINT ( 'NONE',  ( 10.39999999999999325, -25.99999999999998934, 3.000000000000000000 ) ) ;
#310 = EDGE_CURVE ( 'NONE', #164, #232, #107, .T. ) ;
#311 = ORIENTED_EDGE ( 'NONE', *, *, #257, .F. ) ;
#312 = CARTESIAN_POINT ( 'NONE',  ( 2.749999999999988454, -20.00000000000000000, 0.000000000000000000 ) ) ;
#313 = AXIS2_PLACEMENT_3D ( 'NONE', #267, #440, #387 ) ;
#314 = CARTESIAN_POINT ( 'NONE',  ( -12.99999999999999822, -25.99999999999998934, 3.000000000000000000 ) ) ;
#315 = ORIENTED_EDGE ( 'NONE', *, *, #498, .T. ) ;
#316 = CARTESIAN_POINT ( 'NONE',  ( 7.347880794884133541E-16, 20.00000000000000000, 3.000000000000000000 ) ) ;
#317 = VERTEX_POINT ( 'NONE', #347 ) ;
#318 = LINE ( 'NONE', #442, #375 ) ;
#319 = AXIS2_PLACEMENT_3D ( 'NONE', #64, #457, #15 ) ;
#320 =( NAMED_UNIT ( * ) SI_UNIT ( $, .STERADIAN. ) SOLID_ANGLE_UNIT ( ) );
#321 = VERTEX_POINT ( 'NONE', #262 ) ;
#322 =( GEOMETRIC_REPRESENTATION_CONTEXT ( 3 ) GLOBAL_UNCERTAINTY_ASSIGNED_CONTEXT ( ( #447 ) ) GLOBAL_UNIT_ASSIGNED_CONTEXT ( ( #203, #158, #544 ) ) REPRESENTATION_CONTEXT ( 'NONE', 'WORKASPACE' ) );
#323 = VECTOR ( 'NONE', #112, 1000.000000000000000 ) ;
#324 = CARTESIAN_POINT ( 'NONE',  ( -12.99999999999999822, -23.39999999999999147, 3.000000000000000000 ) ) ;
#325 = EDGE_LOOP ( 'NONE', ( #393, #488, #95, #408, #373, #472, #128, #194 ) ) ;
#326 = EDGE_CURVE ( 'NONE', #490, #414, #561, .T. ) ;
#327 = ADVANCED_FACE ( 'NONE', ( #83 ), #41, .F. ) ;
#328 = EDGE_LOOP ( 'NONE', ( #441, #486, #526, #268 ) ) ;
#329 = CARTESIAN_POINT ( 'NONE',  ( -10.39999999999999858, 23.40000000000001279, 3.000000000000000000 ) ) ;
#330 = ORIENTED_EDGE ( 'NONE', *, *, #54, .T. ) ;
#331 = DIRECTION ( 'NONE',  ( -1.000000000000000000, 0.000000000000000000, 0.000000000000000000 ) ) ;
#332 = AXIS2_PLACEMENT_3D ( 'NONE', #172, #508, #307 ) ;
#333 = LINE ( 'NONE', #71, #142 ) ;
#334 = ADVANCED_FACE ( 'NONE', ( #222 ), #398, .F. ) ;
#335 = PRODUCT_RELATED_PRODUCT_CATEGORY ( 'part', '', ( #188 ) ) ;
#336 = DIRECTION ( 'NONE',  ( -0.000000000000000000, -0.000000000000000000, 1.000000000000000000 ) ) ;
#337 = CYLINDRICAL_SURFACE ( 'NONE', #415, 2.749999999999999112 ) ;
#338 = SURFACE_STYLE_USAGE ( .BOTH. , #240 ) ;
#339 = DIRECTION ( 'NONE',  ( 0.000000000000000000, 1.000000000000000000, 0.000000000000000000 ) ) ;
#340 = CARTESIAN_POINT ( 'NONE',  ( 10.39999999999999325, 26.00000000000001066, 3.000000000000000000 ) ) ;
#341 = DIRECTION ( 'NONE',  ( 1.000000000000000000, 1.334402673828313043E-15, 0.000000000000000000 ) ) ;
#342 = CARTESIAN_POINT ( 'NONE',  ( -12.99999999999999822, 26.00000000000001066, 0.000000000000000000 ) ) ;
#343 = CARTESIAN_POINT ( 'NONE',  ( -12.99999999999999822, -25.99999999999998934, 3.000000000000000000 ) ) ;
#344 = AXIS2_PLACEMENT_3D ( 'NONE', #329, #534, #377 ) ;
#345 = AXIS2_PLACEMENT_3D ( 'NONE', #532, #296, #149 ) ;
#346 = ORIENTED_EDGE ( 'NONE', *, *, #386, .F. ) ;
#347 = CARTESIAN_POINT ( 'NONE',  ( 13.00000000000000178, -23.39999999999999147, 3.000000000000000000 ) ) ;
#348 = ADVANCED_FACE ( 'NONE', ( #459, #62, #413, #56 ), #233, .F. ) ;
#349 = VERTEX_POINT ( 'NONE', #192 ) ;
#350 = DIRECTION ( 'NONE',  ( -0.000000000000000000, -0.000000000000000000, 1.000000000000000000 ) ) ;
#351 = VERTEX_POINT ( 'NONE', #277 ) ;
#352 = DIRECTION ( 'NONE',  ( 1.000000000000000000, 0.000000000000000000, 0.000000000000000000 ) ) ;
#353 = DIRECTION ( 'NONE',  ( 0.000000000000000000, 0.000000000000000000, -1.000000000000000000 ) ) ;
#354 = CIRCLE ( 'NONE', #114, 8.000000000000000000 ) ;
#355 = CIRCLE ( 'NONE', #345, 8.000000000000000000 ) ;
#356 = ORIENTED_EDGE ( 'NONE', *, *, #200, .F. ) ;
#357 = DIRECTION ( 'NONE',  ( 0.000000000000000000, 0.000000000000000000, 1.000000000000000000 ) ) ;
#358 = VECTOR ( 'NONE', #44, 1000.000000000000000 ) ;
#359 = EDGE_CURVE ( 'NONE', #253, #40, #103, .T. ) ;
#360 = ORIENTED_EDGE ( 'NONE', *, *, #16, .T. ) ;
#361 = DIRECTION ( 'NONE',  ( 1.000000000000000000, 0.000000000000000000, 0.000000000000000000 ) ) ;
#362 = VERTEX_POINT ( 'NONE', #416 ) ;
#363 =( LENGTH_UNIT ( ) NAMED_UNIT ( * ) SI_UNIT ( .MILLI., .METRE. ) );
#364 = EDGE_LOOP ( 'NONE', ( #171, #448, #224, #84 ) ) ;
#365 = AXIS2_PLACEMENT_3D ( 'NONE', #121, #470, #209 ) ;
#366 = EDGE_CURVE ( 'NONE', #232, #164, #106, .T. ) ;
#367 = LINE ( 'NONE', #525, #38 ) ;
#368 = EDGE_LOOP ( 'NONE', ( #144, #356, #59, #105 ) ) ;
#369 = CARTESIAN_POINT ( 'NONE',  ( -12.99999999999999822, 23.40000000000001279, 3.000000000000000000 ) ) ;
#370 = ORIENTED_EDGE ( 'NONE', *, *, #161, .F. ) ;
#371 = CARTESIAN_POINT ( 'NONE',  ( -9.940433311138093458E-15, -20.00000000000000000, 0.000000000000000000 ) ) ;
#372 = EDGE_CURVE ( 'NONE', #412, #514, #425, .T. ) ;
#373 = ORIENTED_EDGE ( 'NONE', *, *, #16, .F. ) ;
#374 = CARTESIAN_POINT ( 'NONE',  ( 2.750000000000000000, 20.00000000000000000, 3.000000000000000000 ) ) ;
#375 = VECTOR ( 'NONE', #521, 1000.000000000000000 ) ;
#376 = PLANE ( 'NONE',  #523 ) ;
#377 = DIRECTION ( 'NONE',  ( 1.000000000000000000, 0.000000000000000000, 0.000000000000000000 ) ) ;
#378 = DIRECTION ( 'NONE',  ( 0.000000000000000000, 0.000000000000000000, 1.000000000000000000 ) ) ;
#379 = LINE ( 'NONE', #118, #272 ) ;
#380 =( GEOMETRIC_REPRESENTATION_CONTEXT ( 3 ) GLOBAL_UNCERTAINTY_ASSIGNED_CONTEXT ( ( #35 ) ) GLOBAL_UNIT_ASSIGNED_CONTEXT ( ( #363, #42, #320 ) ) REPRESENTATION_CONTEXT ( 'NONE', 'WORKASPACE' ) );
#381 = CARTESIAN_POINT ( 'NONE',  ( 10.40000000000000036, 26.00000000000001066, 3.000000000000000000 ) ) ;
#382 = CIRCLE ( 'NONE', #242, 2.749999999999998668 ) ;
#383 = CLOSED_SHELL ( 'NONE', ( #334, #81, #529, #519, #204, #78, #289, #404, #348, #327, #279, #545, #7, #140, #550, #461 ) ) ;
#384 = CIRCLE ( 'NONE', #274, 2.600000000000000089 ) ;
#385 = LINE ( 'NONE', #342, #187 ) ;
#386 = EDGE_CURVE ( 'NONE', #351, #528, #53, .T. ) ;
#387 = DIRECTION ( 'NONE',  ( 1.000000000000000000, 0.000000000000000000, 0.000000000000000000 ) ) ;
#388 = CARTESIAN_POINT ( 'NONE',  ( -12.99999999999999822, -25.99999999999998934, 3.000000000000000000 ) ) ;
#389 = EDGE_CURVE ( 'NONE', #124, #429, #382, .T. ) ;
#390 = ORIENTED_EDGE ( 'NONE', *, *, #173, .T. ) ;
#391 = DIRECTION ( 'NONE',  ( 0.000000000000000000, 0.000000000000000000, 1.000000000000000000 ) ) ;
#392 = COLOUR_RGB ( '',1.000000000000000000, 1.000000000000000000, 1.000000000000000000 ) ;
#393 = ORIENTED_EDGE ( 'NONE', *, *, #54, .F. ) ;
#394 = CARTESIAN_POINT ( 'NONE',  ( 7.347880794884133541E-16, 20.00000000000000000, 0.000000000000000000 ) ) ;
#395 = VERTEX_POINT ( 'NONE', #241 ) ;
#396 = DIRECTION ( 'NONE',  ( -0.000000000000000000, -0.000000000000000000, 1.000000000000000000 ) ) ;
#397 = VERTEX_POINT ( 'NONE', #60 ) ;
#398 = CYLINDRICAL_SURFACE ( 'NONE', #213, 2.749999999999998668 ) ;
#399 = SURFACE_STYLE_USAGE ( .BOTH. , #178 ) ;
#400 = EDGE_LOOP ( 'NONE', ( #474, #311 ) ) ;
#401 = CARTESIAN_POINT ( 'NONE',  ( -10.39999999999999858, -23.39999999999999147, 3.000000000000000000 ) ) ;
#402 = VECTOR ( 'NONE', #554, 1000.000000000000000 ) ;
#403 = ORIENTED_EDGE ( 'NONE', *, *, #12, .T. ) ;
#404 = ADVANCED_FACE ( 'NONE', ( #14, #19, #198, #109 ), #231, .T. ) ;
#405 = VERTEX_POINT ( 'NONE', #4 ) ;
#406 = CARTESIAN_POINT ( 'NONE',  ( 13.00000000000000178, -25.99999999999998934, 3.000000000000000000 ) ) ;
#407 = FILL_AREA_STYLE_COLOUR ( '', #392 ) ;
#408 = ORIENTED_EDGE ( 'NONE', *, *, #462, .T. ) ;
#409 = VECTOR ( 'NONE', #336, 1000.000000000000000 ) ;
#410 = EDGE_LOOP ( 'NONE', ( #126, #522, #558, #99 ) ) ;
#411 = ORIENTED_EDGE ( 'NONE', *, *, #359, .T. ) ;
#412 = VERTEX_POINT ( 'NONE', #374 ) ;
#413 = FACE_BOUND ( 'NONE', #306, .T. ) ;
#414 = VERTEX_POINT ( 'NONE', #185 ) ;
#415 = AXIS2_PLACEMENT_3D ( 'NONE', #212, #430, #496 ) ;
#416 = CARTESIAN_POINT ( 'NONE',  ( 2.750000000000000000, 20.00000000000000000, 0.000000000000000000 ) ) ;
#417 = VECTOR ( 'NONE', #499, 1000.000000000000000 ) ;
#418 = SURFACE_STYLE_FILL_AREA ( #22 ) ;
#419 = DIRECTION ( 'NONE',  ( 0.000000000000000000, 0.000000000000000000, 1.000000000000000000 ) ) ;
#420 = FILL_AREA_STYLE_COLOUR ( '', #301 ) ;
#421 = EDGE_CURVE ( 'NONE', #528, #253, #176, .T. ) ;
#422 = DIRECTION ( 'NONE',  ( 0.000000000000000000, 0.000000000000000000, -1.000000000000000000 ) ) ;
#423 = FACE_OUTER_BOUND ( 'NONE', #479, .T. ) ;
#424 = FACE_OUTER_BOUND ( 'NONE', #410, .T. ) ;
#425 = CIRCLE ( 'NONE', #25, 2.749999999999999112 ) ;
#426 = CIRCLE ( 'NONE', #454, 2.749999999999999112 ) ;
#427 = CARTESIAN_POINT ( 'NONE',  ( 0.000000000000000000, 0.000000000000000000, 0.000000000000000000 ) ) ;
#428 = EDGE_CURVE ( 'NONE', #395, #278, #150, .T. ) ;
#429 = VERTEX_POINT ( 'NONE', #537 ) ;
#430 = DIRECTION ( 'NONE',  ( -0.000000000000000000, -0.000000000000000000, 1.000000000000000000 ) ) ;
#431 = ORIENTED_EDGE ( 'NONE', *, *, #179, .T. ) ;
#432 = DIRECTION ( 'NONE',  ( 1.000000000000000000, 0.000000000000000000, 0.000000000000000000 ) ) ;
#433 = CIRCLE ( 'NONE', #491, 8.000000000000000000 ) ;
#434 = CYLINDRICAL_SURFACE ( 'NONE', #302, 2.600000000000000089 ) ;
#435 = ORIENTED_EDGE ( 'NONE', *, *, #553, .F. ) ;
#436 = LINE ( 'NONE', #256, #86 ) ;
#437 = LINE ( 'NONE', #557, #251 ) ;
#438 = ORIENTED_EDGE ( 'NONE', *, *, #466, .F. ) ;
#439 = CARTESIAN_POINT ( 'NONE',  ( 10.40000000000000213, -23.39999999999999147, 3.000000000000000000 ) ) ;
#440 = DIRECTION ( 'NONE',  ( 0.000000000000000000, 0.000000000000000000, 1.000000000000000000 ) ) ;
#441 = ORIENTED_EDGE ( 'NONE', *, *, #179, .F. ) ;
#442 = CARTESIAN_POINT ( 'NONE',  ( 13.00000000000000178, 23.40000000000001279, 3.000000000000000000 ) ) ;
#443 = ORIENTED_EDGE ( 'NONE', *, *, #428, .T. ) ;
#444 = CARTESIAN_POINT ( 'NONE',  ( -9.940433311138093458E-15, -20.00000000000000000, 0.000000000000000000 ) ) ;
#445 = AXIS2_PLACEMENT_3D ( 'NONE', #439, #168, #37 ) ;
#446 = EDGE_CURVE ( 'NONE', #349, #261, #111, .T. ) ;
#447 = UNCERTAINTY_MEASURE_WITH_UNIT (LENGTH_MEASURE( 1.000000000000000082E-05 ), #203, 'distance_accuracy_value', 'NONE');
#448 = ORIENTED_EDGE ( 'NONE', *, *, #428, .F. ) ;
#449 = DIRECTION ( 'NONE',  ( 0.000000000000000000, 0.000000000000000000, -1.000000000000000000 ) ) ;
#450 = EDGE_CURVE ( 'NONE', #117, #180, #367, .T. ) ;
#451 = ORIENTED_EDGE ( 'NONE', *, *, #421, .F. ) ;
#452 = ORIENTED_EDGE ( 'NONE', *, *, #326, .F. ) ;
#453 = AXIS2_PLACEMENT_3D ( 'NONE', #73, #463, #248 ) ;
#454 = AXIS2_PLACEMENT_3D ( 'NONE', #316, #480, #510 ) ;
#455 = DIRECTION ( 'NONE',  ( 0.000000000000000000, 0.000000000000000000, 1.000000000000000000 ) ) ;
#456 = ORIENTED_EDGE ( 'NONE', *, *, #161, .T. ) ;
#457 = DIRECTION ( 'NONE',  ( 0.000000000000000000, 0.000000000000000000, 1.000000000000000000 ) ) ;
#458 = DIRECTION ( 'NONE',  ( -0.000000000000000000, -0.000000000000000000, 1.000000000000000000 ) ) ;
#459 = FACE_BOUND ( 'NONE', #507, .T. ) ;
#460 = DIRECTION ( 'NONE',  ( -0.000000000000000000, -0.000000000000000000, 1.000000000000000000 ) ) ;
#461 = ADVANCED_FACE ( 'NONE', ( #252 ), #504, .F. ) ;
#462 = EDGE_CURVE ( 'NONE', #284, #349, #234, .T. ) ;
#463 = DIRECTION ( 'NONE',  ( 0.000000000000000000, 0.000000000000000000, 1.000000000000000000 ) ) ;
#464 =( LENGTH_UNIT ( ) NAMED_UNIT ( * ) SI_UNIT ( .MILLI., .METRE. ) );
#465 = DIRECTION ( 'NONE',  ( 1.000000000000000000, 0.000000000000000000, 0.000000000000000000 ) ) ;
#466 = EDGE_CURVE ( 'NONE', #221, #102, #57, .T. ) ;
#467 = AXIS2_PLACEMENT_3D ( 'NONE', #162, #300, #468 ) ;
#468 = DIRECTION ( 'NONE',  ( 1.000000000000000000, 0.000000000000000000, 0.000000000000000000 ) ) ;
#469 = ORIENTED_EDGE ( 'NONE', *, *, #226, .T. ) ;
#470 = DIRECTION ( 'NONE',  ( -0.000000000000000000, -0.000000000000000000, 1.000000000000000000 ) ) ;
#471 = CARTESIAN_POINT ( 'NONE',  ( -2.749999999999998224, 20.00000000000000000, 0.000000000000000000 ) ) ;
#472 = ORIENTED_EDGE ( 'NONE', *, *, #219, .T. ) ;
#473 = CARTESIAN_POINT ( 'NONE',  ( 0.000000000000000000, 0.000000000000000000, 0.000000000000000000 ) ) ;
#474 = ORIENTED_EDGE ( 'NONE', *, *, #372, .F. ) ;
#475 = CARTESIAN_POINT ( 'NONE',  ( -10.39999999999999858, 23.40000000000001279, 0.000000000000000000 ) ) ;
#476 = VECTOR ( 'NONE', #100, 1000.000000000000000 ) ;
#477 = EDGE_LOOP ( 'NONE', ( #139, #146, #551, #236, #469, #191, #390, #548 ) ) ;
#478 = CARTESIAN_POINT ( 'NONE',  ( 10.40000000000000213, -23.39999999999999147, 3.000000000000000000 ) ) ;
#479 = EDGE_LOOP ( 'NONE', ( #484, #509, #55, #184 ) ) ;
#480 = DIRECTION ( 'NONE',  ( 0.000000000000000000, 0.000000000000000000, 1.000000000000000000 ) ) ;
#481 = ORIENTED_EDGE ( 'NONE', *, *, #120, .F. ) ;
#482 = DIRECTION ( 'NONE',  ( 1.000000000000000000, 0.000000000000000000, 0.000000000000000000 ) ) ;
#483 = EDGE_CURVE ( 'NONE', #317, #221, #379, .T. ) ;
#484 = ORIENTED_EDGE ( 'NONE', *, *, #101, .T. ) ;
#485 = CARTESIAN_POINT ( 'NONE',  ( 10.40000000000000036, -25.99999999999998934, 3.000000000000000000 ) ) ;
#486 = ORIENTED_EDGE ( 'NONE', *, *, #156, .T. ) ;
#487 = DIRECTION ( 'NONE',  ( -0.000000000000000000, -0.000000000000000000, 1.000000000000000000 ) ) ;
#488 = ORIENTED_EDGE ( 'NONE', *, *, #182, .T. ) ;
#489 = DIRECTION ( 'NONE',  ( 0.000000000000000000, 0.000000000000000000, 1.000000000000000000 ) ) ;
#490 = VERTEX_POINT ( 'NONE', #76 ) ;
#491 = AXIS2_PLACEMENT_3D ( 'NONE', #539, #391, #299 ) ;
#492 = VECTOR ( 'NONE', #199, 1000.000000000000000 ) ;
#493 = CIRCLE ( 'NONE', #467, 2.600000000000000089 ) ;
#494 = DIRECTION ( 'NONE',  ( 0.000000000000000000, 0.000000000000000000, 1.000000000000000000 ) ) ;
#495 =( NAMED_UNIT ( * ) SI_UNIT ( $, .STERADIAN. ) SOLID_ANGLE_UNIT ( ) );
#496 = DIRECTION ( 'NONE',  ( 1.000000000000000000, 0.000000000000000000, 0.000000000000000000 ) ) ;
#497 = EDGE_CURVE ( 'NONE', #405, #397, #113, .T. ) ;
#498 = EDGE_CURVE ( 'NONE', #405, #117, #354, .T. ) ;
#499 = DIRECTION ( 'NONE',  ( -0.000000000000000000, -1.000000000000000000, -0.000000000000000000 ) ) ;
#500 = FACE_OUTER_BOUND ( 'NONE', #13, .T. ) ;
#501 = LINE ( 'NONE', #119, #235 ) ;
#502 = DIRECTION ( 'NONE',  ( 1.000000000000000000, 0.000000000000000000, 0.000000000000000000 ) ) ;
#503 = DIRECTION ( 'NONE',  ( 0.000000000000000000, -0.000000000000000000, -1.000000000000000000 ) ) ;
#504 = CYLINDRICAL_SURFACE ( 'NONE', #365, 2.749999999999998668 ) ;
#505 = AXIS2_PLACEMENT_3D ( 'NONE', #552, #175, #357 ) ;
#506 = LINE ( 'NONE', #264, #402 ) ;
#507 = EDGE_LOOP ( 'NONE', ( #3, #271 ) ) ;
#508 = DIRECTION ( 'NONE',  ( -0.000000000000000000, -0.000000000000000000, -1.000000000000000000 ) ) ;
#509 = ORIENTED_EDGE ( 'NONE', *, *, #386, .T. ) ;
#510 = DIRECTION ( 'NONE',  ( 1.000000000000000000, 0.000000000000000000, 0.000000000000000000 ) ) ;
#511 = EDGE_CURVE ( 'NONE', #180, #397, #141, .T. ) ;
#512 = EDGE_CURVE ( 'NONE', #397, #180, #433, .T. ) ;
#513 = DIRECTION ( 'NONE',  ( -1.000000000000000000, 0.000000000000000000, 0.000000000000000000 ) ) ;
#514 = VERTEX_POINT ( 'NONE', #80 ) ;
#515 = VECTOR ( 'NONE', #32, 1000.000000000000000 ) ;
#516 = CARTESIAN_POINT ( 'NONE',  ( -2.750000000000008438, -20.00000000000000000, 0.000000000000000000 ) ) ;
#517 = ORIENTED_EDGE ( 'NONE', *, *, #446, .T. ) ;
#518 = CARTESIAN_POINT ( 'NONE',  ( 13.00000000000000178, 23.39999999999999858, 3.000000000000000000 ) ) ;
#519 = ADVANCED_FACE ( 'NONE', ( #155 ), #291, .F. ) ;
#520 = ORIENTED_EDGE ( 'NONE', *, *, #497, .F. ) ;
#521 = DIRECTION ( 'NONE',  ( -0.000000000000000000, -0.000000000000000000, 1.000000000000000000 ) ) ;
#522 = ORIENTED_EDGE ( 'NONE', *, *, #497, .T. ) ;
#523 = AXIS2_PLACEMENT_3D ( 'NONE', #536, #151, #503 ) ;
#524 = ORIENTED_EDGE ( 'NONE', *, *, #366, .F. ) ;
#525 = CARTESIAN_POINT ( 'NONE',  ( 8.000000000000000000, 0.000000000000000000, 0.000000000000000000 ) ) ;
#526 = ORIENTED_EDGE ( 'NONE', *, *, #257, .T. ) ;
#527 = DIRECTION ( 'NONE',  ( 1.000000000000000000, 0.000000000000000000, -0.000000000000000000 ) ) ;
#528 = VERTEX_POINT ( 'NONE', #116 ) ;
#529 = ADVANCED_FACE ( 'NONE', ( #424 ), #27, .F. ) ;
#530 = EDGE_LOOP ( 'NONE', ( #183, #61 ) ) ;
#531 = CARTESIAN_POINT ( 'NONE',  ( 7.347880794884133541E-16, 20.00000000000000000, 3.000000000000000000 ) ) ;
#532 = CARTESIAN_POINT ( 'NONE',  ( 0.000000000000000000, 0.000000000000000000, 0.000000000000000000 ) ) ;
#533 = VECTOR ( 'NONE', #91, 1000.000000000000000 ) ;
#534 = DIRECTION ( 'NONE',  ( 0.000000000000000000, 0.000000000000000000, 1.000000000000000000 ) ) ;
#535 = APPLICATION_CONTEXT ( 'automotive_design' ) ;
#536 = CARTESIAN_POINT ( 'NONE',  ( -12.99999999999999822, 26.00000000000001066, 3.000000000000000000 ) ) ;
#537 = CARTESIAN_POINT ( 'NONE',  ( -2.750000000000008438, -20.00000000000000000, 3.000000000000000000 ) ) ;
#538 = DIRECTION ( 'NONE',  ( -1.000000000000000000, 0.000000000000000000, 0.000000000000000000 ) ) ;
#539 = CARTESIAN_POINT ( 'NONE',  ( 0.000000000000000000, 0.000000000000000000, 3.000000000000000000 ) ) ;
#540 = CARTESIAN_POINT ( 'NONE',  ( -9.940433311138093458E-15, -20.00000000000000000, 3.000000000000000000 ) ) ;
#541 = AXIS2_PLACEMENT_3D ( 'NONE', #406, #195, #527 ) ;
#542 = VECTOR ( 'NONE', #350, 1000.000000000000000 ) ;
#543 = CARTESIAN_POINT ( 'NONE',  ( 7.347880794884133541E-16, 20.00000000000000000, 0.000000000000000000 ) ) ;
#544 =( NAMED_UNIT ( * ) SI_UNIT ( $, .STERADIAN. ) SOLID_ANGLE_UNIT ( ) );
#545 = ADVANCED_FACE ( 'NONE', ( #500 ), #163, .T. ) ;
#546 = CARTESIAN_POINT ( 'NONE',  ( 8.000000000000000000, 0.000000000000000000, 3.000000000000000000 ) ) ;
#547 = DIRECTION ( 'NONE',  ( 0.000000000000000000, 0.000000000000000000, 1.000000000000000000 ) ) ;
#548 = ORIENTED_EDGE ( 'NONE', *, *, #270, .T. ) ;
#549 = DIRECTION ( 'NONE',  ( -1.000000000000000000, 0.000000000000000000, 0.000000000000000000 ) ) ;
#550 = ADVANCED_FACE ( 'NONE', ( #297 ), #337, .F. ) ;
#551 = ORIENTED_EDGE ( 'NONE', *, *, #483, .T. ) ;
#552 = CARTESIAN_POINT ( 'NONE',  ( 13.00000000000000178, -25.99999999999998934, 3.000000000000000000 ) ) ;
#553 = EDGE_CURVE ( 'NONE', #321, #278, #23, .T. ) ;
#554 = DIRECTION ( 'NONE',  ( -0.000000000000000000, -0.000000000000000000, 1.000000000000000000 ) ) ;
#555 = ORIENTED_EDGE ( 'NONE', *, *, #219, .F. ) ;
#556 = DIRECTION ( 'NONE',  ( 0.000000000000000000, 0.000000000000000000, 1.000000000000000000 ) ) ;
#557 = CARTESIAN_POINT ( 'NONE',  ( -10.39999999999999858, -25.99999999999998934, 3.000000000000000000 ) ) ;
#558 = ORIENTED_EDGE ( 'NONE', *, *, #512, .T. ) ;
#559 = CARTESIAN_POINT ( 'NONE',  ( -10.40000000000000036, -25.99999999999998934, 0.000000000000000000 ) ) ;
#560 = MECHANICAL_DESIGN_GEOMETRIC_PRESENTATION_REPRESENTATION (  '', ( #293 ), #28 ) ;
#561 = CIRCLE ( 'NONE', #332, 2.600000000000000089 ) ;
#562 = EDGE_LOOP ( 'NONE', ( #520, #92, #137, #265 ) ) ;
#563 = DIRECTION ( 'NONE',  ( 0.000000000000000000, 0.000000000000000000, 1.000000000000000000 ) ) ;
#564 = APPLICATION_PROTOCOL_DEFINITION ( 'draft international standard', 'automotive_design', 1998, #225 ) ;
ENDSEC;
END-ISO-10303-21;
