ISO-10303-21;
HEADER;
FILE_DESCRIPTION (( 'STEP AP214' ),
    '1' );
FILE_NAME ('GB╱T 70.2-2015[内六角平圆头螺钉M4×20].step',
    '2023-08-15T03:01:44',
    ( '' ),
    ( '' ),
    'SwSTEP 2.0',
    'SolidWorks 2022',
    '' );
FILE_SCHEMA (( 'AUTOMOTIVE_DESIGN' ));
ENDSEC;

DATA;
#1 = EDGE_LOOP ( 'NONE', ( #29, #57, #212, #143 ) ) ;
#2 = CARTESIAN_POINT ( 'NONE',  ( -20.90000000000000213, 0.7216878364870328300, -1.249999999999999112 ) ) ;
#3 = DIRECTION ( 'NONE',  ( 0.000000000000000000, 1.000000000000000000, 0.000000000000000000 ) ) ;
#4 = ADVANCED_FACE ( 'NONE', ( #441 ), #270, .F. ) ;
#5 = EDGE_LOOP ( 'NONE', ( #432, #218 ) ) ;
#6 = TOROIDAL_SURFACE ( 'NONE', #476, 2.199999999999997957, 0.1999999999999977074 ) ;
#7 = AXIS2_PLACEMENT_3D ( 'NONE', #360, #571, #584 ) ;
#8 = CARTESIAN_POINT ( 'NONE',  ( -20.83343568050245409, 0.4873330088410963712, -1.250000000000000222 ) ) ;
#9 = DIRECTION ( 'NONE',  ( 5.691969551695333484E-17, -1.000000000000000000, 0.000000000000000000 ) ) ;
#10 = SURFACE_SIDE_STYLE ('',( #586 ) ) ;
#11 = ORIENTED_EDGE ( 'NONE', *, *, #656, .T. ) ;
#12 = EDGE_CURVE ( 'NONE', #352, #188, #665, .T. ) ;
#13 = CIRCLE ( 'NONE', #654, 4.007472359323742239 ) ;
#14 = CARTESIAN_POINT ( 'NONE',  ( -20.90000000000000213, 1.443375672974064328, -3.128943976826325424E-17 ) ) ;
#15 = DIRECTION ( 'NONE',  ( -1.000000000000000000, -0.000000000000000000, -0.000000000000000000 ) ) ;
#16 = AXIS2_PLACEMENT_3D ( 'NONE', #97, #666, #725 ) ;
#17 = CONICAL_SURFACE ( 'NONE', #16, 2.000000000000000000, 1.047197551196597631 ) ;
#18 = CARTESIAN_POINT ( 'NONE',  ( -22.19999999999999929, 0.000000000000000000, 0.000000000000000000 ) ) ;
#19 = EDGE_LOOP ( 'NONE', ( #398, #703 ) ) ;
#20 = DIRECTION ( 'NONE',  ( 0.000000000000000000, 0.000000000000000000, 1.000000000000000000 ) ) ;
#21 = CARTESIAN_POINT ( 'NONE',  ( -20.90000000000000213, 0.000000000000000000, 1.443375672974064106 ) ) ;
#22 = VECTOR ( 'NONE', #112, 1000.000000000000000 ) ;
#23 = CARTESIAN_POINT ( 'NONE',  ( -20.82715765887601478, -0.4880459183963076208, -1.250000000000000222 ) ) ;
#24 = VECTOR ( 'NONE', #15, 1000.000000000000000 ) ;
#25 = CARTESIAN_POINT ( 'NONE',  ( -1021.830000000000041, -5.995863809075217092E-14, 0.000000000000000000 ) ) ;
#26 = ORIENTED_EDGE ( 'NONE', *, *, #489, .T. ) ;
#27 = EDGE_CURVE ( 'NONE', #357, #362, #264, .T. ) ;
#28 = FACE_OUTER_BOUND ( 'NONE', #19, .T. ) ;
#29 = ORIENTED_EDGE ( 'NONE', *, *, #603, .T. ) ;
#30 = VECTOR ( 'NONE', #253, 1000.000000000000114 ) ;
#31 = AXIS2_PLACEMENT_3D ( 'NONE', #177, #631, #351 ) ;
#32 = CARTESIAN_POINT ( 'NONE',  ( -20.82664516406750366, -1.325732799999564726, -0.2037634331402073951 ) ) ;
#33 = EDGE_CURVE ( 'NONE', #75, #685, #421, .T. ) ;
#34 = DIRECTION ( 'NONE',  ( 0.000000000000000000, 0.000000000000000000, 1.000000000000000000 ) ) ;
#35 = CARTESIAN_POINT ( 'NONE',  ( -22.16916666666573477, 0.8419691425682042096, -1.041666666666666741 ) ) ;
#36 = DIRECTION ( 'NONE',  ( -0.000000000000000000, 0.000000000000000000, -1.000000000000000000 ) ) ;
#37 = ADVANCED_FACE ( 'Bface2', ( #133 ), #649, .T. ) ;
#38 = DIRECTION ( 'NONE',  ( -1.000000000000000000, -0.000000000000000000, -0.000000000000000000 ) ) ;
#39 = CIRCLE ( 'NONE', #94, 1.443375672974063662 ) ;
#40 = VERTEX_POINT ( 'NONE', #287 ) ;
#41 = CARTESIAN_POINT ( 'NONE',  ( -20.00000000000000000, -0.7216878364870328300, -1.250000000000000222 ) ) ;
#42 = DIRECTION ( 'NONE',  ( -1.000000000000000000, -5.998083099822152164E-17, -0.000000000000000000 ) ) ;
#43 = AXIS2_PLACEMENT_3D ( 'NONE', #338, #119, #116 ) ;
#44 = ORIENTED_EDGE ( 'NONE', *, *, #549, .F. ) ;
#45 = DIRECTION ( 'NONE',  ( -1.000000000000000000, -5.998083099822152164E-17, -0.000000000000000000 ) ) ;
#46 = ORIENTED_EDGE ( 'NONE', *, *, #128, .T. ) ;
#47 = ADVANCED_FACE ( 'NONE', ( #723 ), #17, .T. ) ;
#48 = DIRECTION ( 'NONE',  ( 0.000000000000000000, 0.000000000000000000, -1.000000000000000000 ) ) ;
#49 = CARTESIAN_POINT ( 'NONE',  ( -20.90000000000000213, -1.443375672974065216, -5.870030462665943960E-16 ) ) ;
#50 = AXIS2_PLACEMENT_3D ( 'NONE', #663, #38, #331 ) ;
#51 = VERTEX_POINT ( 'NONE', #332 ) ;
#52 = AXIS2_PLACEMENT_3D ( 'NONE', #579, #406, #512 ) ;
#53 = ADVANCED_FACE ( 'NONE', ( #447 ), #507, .F. ) ;
#54 = DIRECTION ( 'NONE',  ( 0.000000000000000000, -0.8660254037844388186, 0.4999999999999996669 ) ) ;
#55 = DIRECTION ( 'NONE',  ( -1.000000000000000000, -0.000000000000000000, -0.000000000000000000 ) ) ;
#56 = CARTESIAN_POINT ( 'NONE',  ( -20.86374379380171717, 0.6053960008849370578, 1.249999999999999778 ) ) ;
#57 = ORIENTED_EDGE ( 'NONE', *, *, #350, .T. ) ;
#58 = CARTESIAN_POINT ( 'NONE',  ( -22.19999999999999929, -0.7216878364870304985, 1.250000000000000888 ) ) ;
#59 = ORIENTED_EDGE ( 'NONE', *, *, #139, .F. ) ;
#60 = CARTESIAN_POINT ( 'NONE',  ( -20.90000000000000213, -0.7216878364870332740, 1.249999999999999778 ) ) ;
#61 = PLANE ( 'NONE',  #341 ) ;
#62 = CARTESIAN_POINT ( 'NONE',  ( -20.77919874466209293, 0.9604055199136772858, -0.8365288436399078709 ) ) ;
#63 = ORIENTED_EDGE ( 'NONE', *, *, #301, .F. ) ;
#64 = CARTESIAN_POINT ( 'NONE',  ( -20.00000000000000000, 0.7216878364870323859, 1.249999999999999778 ) ) ;
#65 = FACE_OUTER_BOUND ( 'NONE', #178, .T. ) ;
#66 = B_SPLINE_CURVE_WITH_KNOTS ( 'NONE', 3,
 ( #161, #151, #384, #500, #606 ),
 .UNSPECIFIED., .F., .F.,
 ( 4, 1, 4 ),
 ( 2.309401076792091378E-07, 0.0007219187765947098672, 0.001443606613081740162 ),
 .UNSPECIFIED. ) ;
#67 = ORIENTED_EDGE ( 'NONE', *, *, #152, .T. ) ;
#68 = LINE ( 'NONE', #64, #560 ) ;
#69 = DIRECTION ( 'NONE',  ( -1.000000000000000000, -0.000000000000000000, -0.000000000000000000 ) ) ;
#70 = CARTESIAN_POINT ( 'NONE',  ( -20.90000000000000213, 1.443375672974064328, -3.128943976826325424E-17 ) ) ;
#71 = VERTEX_POINT ( 'NONE', #389 ) ;
#72 = DIRECTION ( 'NONE',  ( 0.000000000000000000, 0.000000000000000000, -1.000000000000000000 ) ) ;
#73 = ORIENTED_EDGE ( 'NONE', *, *, #291, .T. ) ;
#74 = DIRECTION ( 'NONE',  ( 0.000000000000000000, 0.8660254037844387076, -0.4999999999999998335 ) ) ;
#75 = VERTEX_POINT ( 'NONE', #278 ) ;
#76 = EDGE_CURVE ( 'NONE', #573, #357, #385, .T. ) ;
#77 = DIRECTION ( 'NONE',  ( 0.000000000000000000, 0.000000000000000000, 1.000000000000000000 ) ) ;
#78 = DIRECTION ( 'NONE',  ( 0.000000000000000000, 0.000000000000000000, 1.000000000000000000 ) ) ;
#79 = CARTESIAN_POINT ( 'NONE',  ( -20.77964865737705580, -0.9585729505925318916, -0.8397029468125255525 ) ) ;
#80 = EDGE_CURVE ( 'NONE', #357, #573, #204, .T. ) ;
#81 = APPLICATION_PROTOCOL_DEFINITION ( 'draft international standard', 'automotive_design', 1998, #168 ) ;
#82 = CONICAL_SURFACE ( 'NONE', #379, 3901.015332362347181, 1.319856261027563038 ) ;
#83 = FACE_BOUND ( 'NONE', #731, .T. ) ;
#84 = ORIENTED_EDGE ( 'NONE', *, *, #575, .T. ) ;
#85 = ORIENTED_EDGE ( 'NONE', *, *, #33, .T. ) ;
#86 = PLANE ( 'NONE',  #433 ) ;
#87 = VERTEX_POINT ( 'NONE', #563 ) ;
#88 = AXIS2_PLACEMENT_3D ( 'NONE', #733, #395, #102 ) ;
#89 = CARTESIAN_POINT ( 'NONE',  ( -20.90000000000000213, 1.443375672974064328, -3.128943976826325424E-17 ) ) ;
#90 = ORIENTED_EDGE ( 'NONE', *, *, #316, .T. ) ;
#91 = EDGE_CURVE ( 'NONE', #51, #573, #455, .T. ) ;
#92 = CARTESIAN_POINT ( 'NONE',  ( -22.15037000055573913, -0.2394511050528692342, -1.250000000000000222 ) ) ;
#93 = CARTESIAN_POINT ( 'NONE',  ( -22.19999999999999929, -0.7216878364870324969, -1.249999999999999778 ) ) ;
#94 = AXIS2_PLACEMENT_3D ( 'NONE', #689, #232, #117 ) ;
#95 = AXIS2_PLACEMENT_3D ( 'NONE', #241, #69, #516 ) ;
#96 = VERTEX_POINT ( 'NONE', #166 ) ;
#97 = CARTESIAN_POINT ( 'NONE',  ( -0.3500000000000000333, 0.000000000000000000, 0.000000000000000000 ) ) ;
#98 = CARTESIAN_POINT ( 'NONE',  ( -19.99999999999999645, 2.694222958124174541E-16, -2.199999999999997957 ) ) ;
#99 = ADVANCED_FACE ( 'NONE', ( #669 ), #131, .F. ) ;
#100 = AXIS2_PLACEMENT_3D ( 'NONE', #393, #504, #557 ) ;
#101 = AXIS2_PLACEMENT_3D ( 'NONE', #417, #470, #619 ) ;
#102 = DIRECTION ( 'NONE',  ( 5.691969551695333484E-17, -1.000000000000000000, 0.000000000000000000 ) ) ;
#103 =( NAMED_UNIT ( * ) SI_UNIT ( $, .STERADIAN. ) SOLID_ANGLE_UNIT ( ) );
#104 = ORIENTED_EDGE ( 'NONE', *, *, #76, .T. ) ;
#105 = DIRECTION ( 'NONE',  ( -1.000000000000000000, -0.000000000000000000, -0.000000000000000000 ) ) ;
#106 = FACE_OUTER_BOUND ( 'NONE', #169, .T. ) ;
#107 = CONICAL_SURFACE ( 'NONE', #536, 3901.015332362347181, 1.319856261027563038 ) ;
#108 = ORIENTED_EDGE ( 'NONE', *, *, #323, .F. ) ;
#109 = CONICAL_SURFACE ( 'NONE', #7, 3901.015332362347181, 1.319856261027563038 ) ;
#110 = PRODUCT ( 'GB╱T 70.2-2015[内六角平圆头螺钉M4×20]', 'GB╱T 70.2-2015[内六角平圆头螺钉M4×20]', '', ( #483 ) ) ;
#111 = DIRECTION ( 'NONE',  ( -0.000000000000000000, 0.000000000000000000, 1.000000000000000000 ) ) ;
#112 = DIRECTION ( 'NONE',  ( -1.000000000000000000, -0.000000000000000000, -0.000000000000000000 ) ) ;
#113 = DIRECTION ( 'NONE',  ( -1.000000000000000000, -0.000000000000000000, -0.000000000000000000 ) ) ;
#114 = ORIENTED_EDGE ( 'NONE', *, *, #695, .T. ) ;
#115 = EDGE_CURVE ( 'NONE', #213, #302, #452, .T. ) ;
#116 = DIRECTION ( 'NONE',  ( 0.000000000000000000, 0.000000000000000000, 1.000000000000000000 ) ) ;
#117 = DIRECTION ( 'NONE',  ( 0.000000000000000000, 0.000000000000000000, -1.000000000000000000 ) ) ;
#118 = ORIENTED_EDGE ( 'NONE', *, *, #588, .F. ) ;
#119 = DIRECTION ( 'NONE',  ( -1.000000000000000000, -0.000000000000000000, -0.000000000000000000 ) ) ;
#120 = CARTESIAN_POINT ( 'NONE',  ( -22.19999999999999929, 2.449293598294706414E-16, -2.000000000000000000 ) ) ;
#121 = CARTESIAN_POINT ( 'NONE',  ( -19.80000000000000426, 2.449293598294706414E-16, -2.000000000000000000 ) ) ;
#122 = PRESENTATION_STYLE_ASSIGNMENT (( #636 ) ) ;
#123 = EDGE_LOOP ( 'NONE', ( #182, #437 ) ) ;
#124 = COLOUR_RGB ( '',0.7960784313725489669, 0.8235294117647058432, 0.9372549019607843146 ) ;
#125 = CARTESIAN_POINT ( 'NONE',  ( -20.77919874466209293, -0.9604055199136780629, 0.8365288436399083150 ) ) ;
#126 = CARTESIAN_POINT ( 'NONE',  ( -20.00000000000000000, 1.443375672974064328, -3.128943976826325424E-17 ) ) ;
#127 = DIRECTION ( 'NONE',  ( 0.000000000000000000, 0.000000000000000000, 1.000000000000000000 ) ) ;
#128 = EDGE_CURVE ( 'NONE', #96, #518, #729, .T. ) ;
#129 = CARTESIAN_POINT ( 'NONE',  ( -22.19999999999999929, 0.000000000000000000, 0.000000000000000000 ) ) ;
#130 = FACE_OUTER_BOUND ( 'NONE', #163, .T. ) ;
#131 = CONICAL_SURFACE ( 'NONE', #88, 3901.015332362347181, 1.319856261027563038 ) ;
#132 = DIRECTION ( 'NONE',  ( 0.000000000000000000, 0.000000000000000000, 1.000000000000000000 ) ) ;
#133 = FACE_OUTER_BOUND ( 'NONE', #577, .T. ) ;
#134 = DIRECTION ( 'NONE',  ( 0.000000000000000000, 0.000000000000000000, 1.000000000000000000 ) ) ;
#135 = FACE_OUTER_BOUND ( 'NONE', #156, .T. ) ;
#136 = FILL_AREA_STYLE_COLOUR ( '', #328 ) ;
#137 = AXIS2_PLACEMENT_3D ( 'NONE', #192, #645, #172 ) ;
#138 = DIRECTION ( 'NONE',  ( -1.000000000000000000, -5.998083099822152164E-17, -0.000000000000000000 ) ) ;
#139 = EDGE_CURVE ( 'NONE', #518, #643, #620, .T. ) ;
#140 = AXIS2_PLACEMENT_3D ( 'NONE', #359, #459, #399 ) ;
#141 =( LENGTH_UNIT ( ) NAMED_UNIT ( * ) SI_UNIT ( .MILLI., .METRE. ) );
#142 = FILL_AREA_STYLE ('',( #209 ) ) ;
#143 = ORIENTED_EDGE ( 'NONE', *, *, #152, .F. ) ;
#144 = CIRCLE ( 'NONE', #158, 1.393782217350892916 ) ;
#145 = CIRCLE ( 'NONE', #461, 1.999999999999998668 ) ;
#146 = ORIENTED_EDGE ( 'NONE', *, *, #641, .T. ) ;
#147 = SURFACE_SIDE_STYLE ('',( #594 ) ) ;
#148 = EDGE_CURVE ( 'NONE', #274, #685, #375, .T. ) ;
#149 = EDGE_LOOP ( 'NONE', ( #473, #118, #496, #243 ) ) ;
#150 = ORIENTED_EDGE ( 'NONE', *, *, #191, .F. ) ;
#151 = CARTESIAN_POINT ( 'NONE',  ( -22.16916666666574542, -1.323094366892892060, -0.2083333333333360349 ) ) ;
#152 = EDGE_CURVE ( 'NONE', #193, #352, #528, .T. ) ;
#153 = ORIENTED_EDGE ( 'NONE', *, *, #575, .F. ) ;
#154 = DIRECTION ( 'NONE',  ( -0.000000000000000000, 0.8660254037844387076, 0.4999999999999998335 ) ) ;
#155 = CARTESIAN_POINT ( 'NONE',  ( -1021.830000000000041, -5.995863809075217092E-14, 0.000000000000000000 ) ) ;
#156 = EDGE_LOOP ( 'NONE', ( #408, #284, #569, #601 ) ) ;
#157 = CARTESIAN_POINT ( 'NONE',  ( -22.19999999999999929, 0.7216878364870321638, -1.250000000000000222 ) ) ;
#158 = AXIS2_PLACEMENT_3D ( 'NONE', #657, #651, #602 ) ;
#159 = ORIENTED_EDGE ( 'NONE', *, *, #27, .F. ) ;
#160 = DIRECTION ( 'NONE',  ( 0.000000000000000000, 0.000000000000000000, 1.000000000000000000 ) ) ;
#161 = CARTESIAN_POINT ( 'NONE',  ( -22.19999999999999929, -1.443375672974064328, -3.577867169202166210E-15 ) ) ;
#162 = CIRCLE ( 'NONE', #140, 1.393782217350892916 ) ;
#163 = EDGE_LOOP ( 'NONE', ( #277, #463, #592, #334, #11 ) ) ;
#164 = CIRCLE ( 'NONE', #585, 2.000000000000000000 ) ;
#165 = CARTESIAN_POINT ( 'NONE',  ( -20.82664516406750010, -0.8393307094615340969, 1.046236566859792383 ) ) ;
#166 = CARTESIAN_POINT ( 'NONE',  ( 0.000000000000000000, 2.078092264740989006E-16, -1.393782217350892916 ) ) ;
#167 = CARTESIAN_POINT ( 'NONE',  ( -18.72727272727272663, 0.000000000000000000, 0.000000000000000000 ) ) ;
#168 = APPLICATION_CONTEXT ( 'automotive_design' ) ;
#169 = EDGE_LOOP ( 'NONE', ( #343, #548, #369, #637 ) ) ;
#170 = CARTESIAN_POINT ( 'NONE',  ( -20.77942286340599765, 1.530808065902090522E-16, -1.250000000000000222 ) ) ;
#171 = AXIS2_PLACEMENT_3D ( 'NONE', #596, #203, #77 ) ;
#172 = DIRECTION ( 'NONE',  ( 0.000000000000000000, -1.224646799147351975E-16, 1.000000000000000000 ) ) ;
#173 = ORIENTED_EDGE ( 'NONE', *, *, #285, .T. ) ;
#174 = EDGE_CURVE ( 'NONE', #416, #71, #68, .T. ) ;
#175 = DIRECTION ( 'NONE',  ( -1.000000000000000000, -0.000000000000000000, -0.000000000000000000 ) ) ;
#176 = SURFACE_STYLE_FILL_AREA ( #297 ) ;
#177 = CARTESIAN_POINT ( 'NONE',  ( -1021.830000000000041, -5.995863809075217092E-14, 0.000000000000000000 ) ) ;
#178 = EDGE_LOOP ( 'NONE', ( #674, #289 ) ) ;
#179 = PLANE ( 'NONE',  #333 ) ;
#180 = PRESENTATION_STYLE_ASSIGNMENT (( #629 ) ) ;
#181 = FILL_AREA_STYLE_COLOUR ( '', #124 ) ;
#182 = ORIENTED_EDGE ( 'NONE', *, *, #607, .T. ) ;
#183 = CARTESIAN_POINT ( 'NONE',  ( -0.3500000000000000333, 0.000000000000000000, 0.000000000000000000 ) ) ;
#184 = EDGE_CURVE ( 'NONE', #87, #518, #589, .T. ) ;
#185 = CARTESIAN_POINT ( 'NONE',  ( 0.000000000000000000, 0.000000000000000000, 1.393782217350892916 ) ) ;
#186 = B_SPLINE_CURVE_WITH_KNOTS ( 'NONE', 3,
 ( #273, #562, #508, #217, #448, #222 ),
 .UNSPECIFIED., .F., .F.,
 ( 4, 2, 4 ),
 ( 0.002974540139219445344, 0.003699310320131249993, 0.004424080501043054642 ),
 .UNSPECIFIED. ) ;
#187 = CARTESIAN_POINT ( 'NONE',  ( -22.19999999999999929, 1.999999999999998668, 0.000000000000000000 ) ) ;
#188 = VERTEX_POINT ( 'NONE', #691 ) ;
#189 =( GEOMETRIC_REPRESENTATION_CONTEXT ( 3 ) GLOBAL_UNCERTAINTY_ASSIGNED_CONTEXT ( ( #382 ) ) GLOBAL_UNIT_ASSIGNED_CONTEXT ( ( #141, #376, #103 ) ) REPRESENTATION_CONTEXT ( 'NONE', 'WORKASPACE' ) );
#190 = CARTESIAN_POINT ( 'NONE',  ( -20.77942286340599765, 1.530808065902090522E-16, -1.250000000000000222 ) ) ;
#191 = EDGE_CURVE ( 'NONE', #485, #71, #396, .T. ) ;
#192 = CARTESIAN_POINT ( 'NONE',  ( -19.80000000000000071, 2.694222958124174541E-16, -2.199999999999997957 ) ) ;
#193 = VERTEX_POINT ( 'NONE', #628 ) ;
#194 = DIRECTION ( 'NONE',  ( -1.000000000000000000, -0.000000000000000000, -0.000000000000000000 ) ) ;
#195 = CARTESIAN_POINT ( 'NONE',  ( 0.000000000000000000, 0.000000000000000000, 0.000000000000000000 ) ) ;
#196 = ORIENTED_EDGE ( 'NONE', *, *, #235, .T. ) ;
#197 = B_SPLINE_CURVE_WITH_KNOTS ( 'NONE', 3,
 ( #2, #286, #8, #682, #570, #170 ),
 .UNSPECIFIED., .F., .F.,
 ( 4, 2, 4 ),
 ( 0.003836159553464221078, 0.004202463752521880778, 0.004568767951579540479 ),
 .UNSPECIFIED. ) ;
#198 = CARTESIAN_POINT ( 'NONE',  ( -22.19999999999999929, 0.7216878364870323859, 1.250000000000000000 ) ) ;
#199 = VERTEX_POINT ( 'NONE', #295 ) ;
#200 = CONICAL_SURFACE ( 'NONE', #31, 3901.015332362347181, 1.319856261027563038 ) ;
#201 = DIRECTION ( 'NONE',  ( 5.691969551695333484E-17, -1.000000000000000000, 0.000000000000000000 ) ) ;
#202 = VECTOR ( 'NONE', #105, 1000.000000000000000 ) ;
#203 = DIRECTION ( 'NONE',  ( -1.000000000000000000, -0.000000000000000000, -0.000000000000000000 ) ) ;
#204 = CIRCLE ( 'NONE', #100, 1.443375672974063662 ) ;
#205 = AXIS2_PLACEMENT_3D ( 'NONE', #590, #474, #252 ) ;
#206 = ORIENTED_EDGE ( 'NONE', *, *, #267, .F. ) ;
#207 =( NAMED_UNIT ( * ) SI_UNIT ( $, .STERADIAN. ) SOLID_ANGLE_UNIT ( ) );
#208 = EDGE_CURVE ( 'NONE', #541, #439, #403, .T. ) ;
#209 = FILL_AREA_STYLE_COLOUR ( '', #275 ) ;
#210 = ORIENTED_EDGE ( 'NONE', *, *, #148, .T. ) ;
#211 = MECHANICAL_DESIGN_GEOMETRIC_PRESENTATION_REPRESENTATION (  '', ( #434 ), #315 ) ;
#212 = ORIENTED_EDGE ( 'NONE', *, *, #12, .F. ) ;
#213 = VERTEX_POINT ( 'NONE', #633 ) ;
#214 = CARTESIAN_POINT ( 'NONE',  ( -19.99999999999999645, 2.199999999999997957, 0.000000000000000000 ) ) ;
#215 = ORIENTED_EDGE ( 'NONE', *, *, #388, .T. ) ;
#216 = CARTESIAN_POINT ( 'NONE',  ( -20.00000000000000000, 0.7216878364870323859, 1.249999999999999778 ) ) ;
#217 = CARTESIAN_POINT ( 'NONE',  ( -22.15037000055572847, -0.2394511050528680685, 1.249999999999999334 ) ) ;
#218 = ORIENTED_EDGE ( 'NONE', *, *, #267, .T. ) ;
#219 = EDGE_CURVE ( 'NONE', #302, #643, #308, .T. ) ;
#220 = B_SPLINE_CURVE_WITH_KNOTS ( 'NONE', 3,
 ( #324, #712, #79, #269, #32, #648 ),
 .UNSPECIFIED., .F., .F.,
 ( 4, 2, 4 ),
 ( 2.391904125708790558E-07, 0.0007300545202770516388, 0.001459869850141532399 ),
 .UNSPECIFIED. ) ;
#221 = SURFACE_SIDE_STYLE ('',( #503 ) ) ;
#222 = CARTESIAN_POINT ( 'NONE',  ( -22.19999999999999929, -0.7216878364870304985, 1.250000000000000888 ) ) ;
#223 = AXIS2_PLACEMENT_3D ( 'NONE', #371, #493, #487 ) ;
#224 = ORIENTED_EDGE ( 'NONE', *, *, #235, .F. ) ;
#225 = CARTESIAN_POINT ( 'NONE',  ( -0.3500000000000000333, 2.449293598294706414E-16, -2.000000000000000000 ) ) ;
#226 = DIRECTION ( 'NONE',  ( 0.000000000000000000, -1.000000000000000000, 0.000000000000000000 ) ) ;
#227 = ORIENTED_EDGE ( 'NONE', *, *, #549, .T. ) ;
#228 = CARTESIAN_POINT ( 'NONE',  ( -20.82715765887601478, -0.4880459183963075653, 1.249999999999999778 ) ) ;
#229 = DIRECTION ( 'NONE',  ( 0.000000000000000000, -0.4999999999999998335, 0.8660254037844387076 ) ) ;
#230 = DIRECTION ( 'NONE',  ( 0.000000000000000000, 0.000000000000000000, 1.000000000000000000 ) ) ;
#231 = EDGE_CURVE ( 'NONE', #416, #610, #513, .T. ) ;
#232 = DIRECTION ( 'NONE',  ( -1.000000000000000000, -0.000000000000000000, -0.000000000000000000 ) ) ;
#233 = ORIENTED_EDGE ( 'NONE', *, *, #184, .T. ) ;
#234 = CARTESIAN_POINT ( 'NONE',  ( -22.13169213213475572, -1.082531754730549967, 0.6249999999999995559 ) ) ;
#235 = EDGE_CURVE ( 'NONE', #541, #274, #525, .T. ) ;
#236 = PRESENTATION_LAYER_ASSIGNMENT (  '', '', ( #699 ) ) ;
#237 = CARTESIAN_POINT ( 'NONE',  ( -20.90000000000000213, 0.7216878364870323859, 1.249999999999999778 ) ) ;
#238 = ORIENTED_EDGE ( 'NONE', *, *, #683, .F. ) ;
#239 = AXIS2_PLACEMENT_3D ( 'NONE', #195, #78, #598 ) ;
#240 = CARTESIAN_POINT ( 'NONE',  ( -20.82664516406750366, 1.325732799999563838, 0.2037634331402067567 ) ) ;
#241 = CARTESIAN_POINT ( 'NONE',  ( -20.90000000000000213, 0.000000000000000000, 0.000000000000000000 ) ) ;
#242 =( LENGTH_UNIT ( ) NAMED_UNIT ( * ) SI_UNIT ( .MILLI., .METRE. ) );
#243 = ORIENTED_EDGE ( 'NONE', *, *, #219, .T. ) ;
#244 = CIRCLE ( 'NONE', #310, 3.800000000000000266 ) ;
#245 = ADVANCED_BREP_SHAPE_REPRESENTATION ( 'GB╱T 70.2-2015[内六角平圆头螺钉M4×20]', ( #526, #239 ), #650 ) ;
#246 = ADVANCED_FACE ( 'NONE', ( #531 ), #268, .T. ) ;
#247 = CARTESIAN_POINT ( 'NONE',  ( -0.3500000000000000333, 0.000000000000000000, 0.000000000000000000 ) ) ;
#248 = DIRECTION ( 'NONE',  ( -1.000000000000000000, -0.000000000000000000, -0.000000000000000000 ) ) ;
#249 =( NAMED_UNIT ( * ) PLANE_ANGLE_UNIT ( ) SI_UNIT ( $, .RADIAN. ) );
#250 = ORIENTED_EDGE ( 'NONE', *, *, #683, .T. ) ;
#251 = EDGE_CURVE ( 'NONE', #96, #652, #162, .T. ) ;
#252 = DIRECTION ( 'NONE',  ( 0.000000000000000000, 0.000000000000000000, 1.000000000000000000 ) ) ;
#253 = DIRECTION ( 'NONE',  ( -0.5291067161269946695, 0.000000000000000000, 0.8485552916276627444 ) ) ;
#254 = UNCERTAINTY_MEASURE_WITH_UNIT (LENGTH_MEASURE( 1.000000000000000082E-05 ), #520, 'distance_accuracy_value', 'NONE');
#255 = CIRCLE ( 'NONE', #355, 2.199999999999997957 ) ;
#256 = COLOUR_RGB ( '',0.7960784313725489669, 0.8235294117647058432, 0.9372549019607843146 ) ;
#257 = DIRECTION ( 'NONE',  ( -1.000000000000000000, -0.000000000000000000, -0.000000000000000000 ) ) ;
#258 = CARTESIAN_POINT ( 'NONE',  ( -22.19999999999999929, 1.443375672974064328, 1.517883041479706996E-15 ) ) ;
#259 = ORIENTED_EDGE ( 'NONE', *, *, #656, .F. ) ;
#260 = VECTOR ( 'NONE', #677, 1000.000000000000000 ) ;
#261 = CARTESIAN_POINT ( 'NONE',  ( -20.00000000000000000, 1.443375672974064328, -3.128943976826325424E-17 ) ) ;
#262 = ORIENTED_EDGE ( 'NONE', *, *, #174, .F. ) ;
#263 = DIRECTION ( 'NONE',  ( 1.000000000000000000, 0.000000000000000000, -0.000000000000000000 ) ) ;
#264 = B_SPLINE_CURVE_WITH_KNOTS ( 'NONE', 3,
 ( #698, #35, #272, #494, #716 ),
 .UNSPECIFIED., .F., .F.,
 ( 4, 1, 4 ),
 ( 2.309401076757153916E-07, 0.0007219187765947087830, 0.001443606613081741897 ),
 .UNSPECIFIED. ) ;
#265 = AXIS2_PLACEMENT_3D ( 'NONE', #609, #551, #717 ) ;
#266 = CARTESIAN_POINT ( 'NONE',  ( -0.3500000000000000333, 2.449293598294706414E-16, -2.000000000000000000 ) ) ;
#267 = EDGE_CURVE ( 'NONE', #362, #357, #467, .T. ) ;
#268 = CONICAL_SURFACE ( 'NONE', #492, 2.000000000000000000, 1.047197551196597631 ) ;
#269 = CARTESIAN_POINT ( 'NONE',  ( -20.77919874466209293, -1.204657989547420760, -0.4134711563600916850 ) ) ;
#270 = CONICAL_SURFACE ( 'NONE', #542, 1.443375672974064106, 1.013248818828627273 ) ;
#271 = PRODUCT_RELATED_PRODUCT_CATEGORY ( 'part', '', ( #110 ) ) ;
#272 = CARTESIAN_POINT ( 'NONE',  ( -22.13169213213475217, 1.082531754730548856, -0.6249999999999996669 ) ) ;
#273 = CARTESIAN_POINT ( 'NONE',  ( -22.19999999999999929, 0.7216878364870323859, 1.250000000000000000 ) ) ;
#274 = VERTEX_POINT ( 'NONE', #60 ) ;
#275 = COLOUR_RGB ( '',0.6470588235294117974, 0.6196078431372549211, 0.5882352941176470784 ) ;
#276 = FACE_BOUND ( 'NONE', #402, .T. ) ;
#277 = ORIENTED_EDGE ( 'NONE', *, *, #76, .F. ) ;
#278 = CARTESIAN_POINT ( 'NONE',  ( -20.00000000000000000, 0.000000000000000000, 0.000000000000000000 ) ) ;
#279 = ADVANCED_FACE ( 'NONE', ( #519 ), #179, .F. ) ;
#280 = EDGE_LOOP ( 'NONE', ( #555, #108 ) ) ;
#281 = LINE ( 'NONE', #670, #283 ) ;
#282 = CARTESIAN_POINT ( 'NONE',  ( -22.16927320067241780, 0.4819564059043950355, -1.250000000000000222 ) ) ;
#283 = VECTOR ( 'NONE', #621, 1000.000000000000114 ) ;
#284 = ORIENTED_EDGE ( 'NONE', *, *, #368, .T. ) ;
#285 = EDGE_CURVE ( 'NONE', #199, #40, #197, .T. ) ;
#286 = CARTESIAN_POINT ( 'NONE',  ( -20.86374379380171717, 0.6053960008849367247, -1.250000000000000000 ) ) ;
#287 = CARTESIAN_POINT ( 'NONE',  ( -20.77942286340599765, 1.530808065902090522E-16, -1.250000000000000222 ) ) ;
#288 = CARTESIAN_POINT ( 'NONE',  ( -20.00000000000000000, 0.7216878364870321638, -1.250000000000000222 ) ) ;
#289 = ORIENTED_EDGE ( 'NONE', *, *, #251, .F. ) ;
#290 = CARTESIAN_POINT ( 'NONE',  ( -22.16916666666573832, -0.8419691425682045427, 1.041666666666667851 ) ) ;
#291 = EDGE_CURVE ( 'NONE', #485, #439, #296, .T. ) ;
#292 = APPLICATION_PROTOCOL_DEFINITION ( 'draft international standard', 'automotive_design', 1998, #392 ) ;
#293 = DIRECTION ( 'NONE',  ( -1.000000000000000000, -0.000000000000000000, -0.000000000000000000 ) ) ;
#294 = EDGE_LOOP ( 'NONE', ( #104, #622 ) ) ;
#295 = CARTESIAN_POINT ( 'NONE',  ( -20.90000000000000213, 0.7216878364870328300, -1.249999999999999112 ) ) ;
#296 = B_SPLINE_CURVE_WITH_KNOTS ( 'NONE', 3,
 ( #58, #290, #234, #704, #427 ),
 .UNSPECIFIED., .F., .F.,
 ( 4, 1, 4 ),
 ( 2.309401076736709717E-07, 0.0007219187765947082409, 0.001443606613081742981 ),
 .UNSPECIFIED. ) ;
#297 = FILL_AREA_STYLE ('',( #460 ) ) ;
#298 = B_SPLINE_CURVE_WITH_KNOTS ( 'NONE', 3,
 ( #640, #418, #568, #734, #56, #305 ),
 .UNSPECIFIED., .F., .F.,
 ( 4, 2, 4 ),
 ( 0.001876385854435923869, 0.002242080329067764385, 0.002607774803699604901 ),
 .UNSPECIFIED. ) ;
#299 = AXIS2_PLACEMENT_3D ( 'NONE', #707, #480, #705 ) ;
#300 = DIRECTION ( 'NONE',  ( 0.000000000000000000, 1.000000000000000000, 1.224646799147353207E-16 ) ) ;
#301 = EDGE_CURVE ( 'NONE', #643, #302, #164, .T. ) ;
#302 = VERTEX_POINT ( 'NONE', #647 ) ;
#303 = CONICAL_SURFACE ( 'NONE', #95, 1.443375672974064106, 1.013248818828627273 ) ;
#304 = CARTESIAN_POINT ( 'NONE',  ( -20.90000000000000213, -0.7216878364870332740, 1.249999999999999778 ) ) ;
#305 = CARTESIAN_POINT ( 'NONE',  ( -20.90000000000000213, 0.7216878364870323859, 1.249999999999999778 ) ) ;
#306 = EDGE_LOOP ( 'NONE', ( #668, #114 ) ) ;
#307 = EDGE_CURVE ( 'NONE', #518, #87, #675, .T. ) ;
#308 = CIRCLE ( 'NONE', #43, 2.000000000000000000 ) ;
#309 = CARTESIAN_POINT ( 'NONE',  ( -20.90000000000000213, -1.443375672974065216, -5.870030462665943960E-16 ) ) ;
#310 = AXIS2_PLACEMENT_3D ( 'NONE', #535, #257, #132 ) ;
#311 = DIRECTION ( 'NONE',  ( -1.000000000000000000, -0.000000000000000000, -0.000000000000000000 ) ) ;
#312 = DIRECTION ( 'NONE',  ( -1.000000000000000000, 0.000000000000000000, -0.000000000000000000 ) ) ;
#313 = DIRECTION ( 'NONE',  ( 0.000000000000000000, 0.000000000000000000, 1.000000000000000000 ) ) ;
#314 = DIRECTION ( 'NONE',  ( -1.000000000000000000, -0.000000000000000000, -0.000000000000000000 ) ) ;
#315 =( GEOMETRIC_REPRESENTATION_CONTEXT ( 3 ) GLOBAL_UNCERTAINTY_ASSIGNED_CONTEXT ( ( #502 ) ) GLOBAL_UNIT_ASSIGNED_CONTEXT ( ( #545, #436, #207 ) ) REPRESENTATION_CONTEXT ( 'NONE', 'WORKASPACE' ) );
#316 = EDGE_CURVE ( 'NONE', #40, #51, #539, .T. ) ;
#317 = CARTESIAN_POINT ( 'NONE',  ( -22.19999999999999929, -0.7216878364870304985, 1.250000000000000888 ) ) ;
#318 = ORIENTED_EDGE ( 'NONE', *, *, #709, .T. ) ;
#319 = ADVANCED_FACE ( 'NONE', ( #130 ), #700, .F. ) ;
#320 = CARTESIAN_POINT ( 'NONE',  ( -22.19999999999999929, 5.192832784574860163E-33, 0.000000000000000000 ) ) ;
#321 = UNCERTAINTY_MEASURE_WITH_UNIT (LENGTH_MEASURE( 1.000000000000000082E-05 ), #242, 'distance_accuracy_value', 'NONE');
#322 = FACE_OUTER_BOUND ( 'NONE', #329, .T. ) ;
#323 = EDGE_CURVE ( 'NONE', #523, #193, #244, .T. ) ;
#324 = CARTESIAN_POINT ( 'NONE',  ( -20.90000000000000213, -0.7216878364870328300, -1.250000000000000222 ) ) ;
#325 = ORIENTED_EDGE ( 'NONE', *, *, #544, .F. ) ;
#326 = EDGE_LOOP ( 'NONE', ( #59, #604, #727, #63 ) ) ;
#327 = CARTESIAN_POINT ( 'NONE',  ( -22.19999999999999929, -1.443375672974064328, -3.577867169202166210E-15 ) ) ;
#328 = COLOUR_RGB ( '',0.7960784313725489669, 0.8235294117647058432, 0.9372549019607843146 ) ;
#329 = EDGE_LOOP ( 'NONE', ( #159, #259, #664, #250 ) ) ;
#330 = CARTESIAN_POINT ( 'NONE',  ( -22.15048909679995148, 0.2418642655271363573, -1.250000000000000000 ) ) ;
#331 = DIRECTION ( 'NONE',  ( 0.000000000000000000, 0.000000000000000000, 1.000000000000000000 ) ) ;
#332 = CARTESIAN_POINT ( 'NONE',  ( -20.90000000000000213, -0.7216878364870328300, -1.250000000000000222 ) ) ;
#333 = AXIS2_PLACEMENT_3D ( 'NONE', #454, #54, #450 ) ;
#334 = ORIENTED_EDGE ( 'NONE', *, *, #285, .F. ) ;
#335 = CARTESIAN_POINT ( 'NONE',  ( -19.80000000000000071, 0.000000000000000000, 2.199999999999997957 ) ) ;
#336 = DIRECTION ( 'NONE',  ( -1.000000000000000000, -0.000000000000000000, -0.000000000000000000 ) ) ;
#337 = EDGE_LOOP ( 'NONE', ( #227, #595 ) ) ;
#338 = CARTESIAN_POINT ( 'NONE',  ( -19.80000000000000426, 0.000000000000000000, 0.000000000000000000 ) ) ;
#339 = AXIS2_PLACEMENT_3D ( 'NONE', #214, #558, #444 ) ;
#340 = DIRECTION ( 'NONE',  ( -1.000000000000000000, 0.000000000000000000, -0.000000000000000000 ) ) ;
#341 = AXIS2_PLACEMENT_3D ( 'NONE', #471, #340, #697 ) ;
#342 = PRODUCT_DEFINITION_SHAPE ( 'NONE', 'NONE',  #659 ) ;
#343 = ORIENTED_EDGE ( 'NONE', *, *, #607, .F. ) ;
#344 = EDGE_CURVE ( 'NONE', #610, #199, #491, .T. ) ;
#345 = DIRECTION ( 'NONE',  ( 0.000000000000000000, -1.776356839400250465E-15, -1.000000000000000000 ) ) ;
#346 = FACE_OUTER_BOUND ( 'NONE', #294, .T. ) ;
#347 = DIRECTION ( 'NONE',  ( -1.000000000000000000, -0.000000000000000000, -0.000000000000000000 ) ) ;
#348 = ORIENTED_EDGE ( 'NONE', *, *, #219, .F. ) ;
#349 = CARTESIAN_POINT ( 'NONE',  ( -20.82677104533570756, 0.8391288272867697406, 1.046586237043625411 ) ) ;
#350 = EDGE_CURVE ( 'NONE', #523, #188, #13, .T. ) ;
#351 = DIRECTION ( 'NONE',  ( 5.691969551695333484E-17, -1.000000000000000000, 0.000000000000000000 ) ) ;
#352 = VERTEX_POINT ( 'NONE', #187 ) ;
#353 = CARTESIAN_POINT ( 'NONE',  ( -20.77919874466209293, 1.204657989547419428, 0.4134711563600912410 ) ) ;
#354 = CARTESIAN_POINT ( 'NONE',  ( -20.77942286340599765, -4.330215280939178002E-23, 1.249999999999999778 ) ) ;
#355 = AXIS2_PLACEMENT_3D ( 'NONE', #394, #442, #673 ) ;
#356 = DIRECTION ( 'NONE',  ( -0.5000000000000001110, 0.000000000000000000, 0.8660254037844385966 ) ) ;
#357 = VERTEX_POINT ( 'NONE', #420 ) ;
#358 = B_SPLINE_CURVE_WITH_KNOTS ( 'NONE', 3,
 ( #258, #484, #374, #715, #198 ),
 .UNSPECIFIED., .F., .F.,
 ( 4, 1, 4 ),
 ( 2.309401076771026463E-07, 0.0007219187765947085661, 0.001443606613081740162 ),
 .UNSPECIFIED. ) ;
#359 = CARTESIAN_POINT ( 'NONE',  ( 0.000000000000000000, 0.000000000000000000, 0.000000000000000000 ) ) ;
#360 = CARTESIAN_POINT ( 'NONE',  ( -1021.830000000000041, -5.995863809075217092E-14, 0.000000000000000000 ) ) ;
#361 = DIRECTION ( 'NONE',  ( -0.000000000000000000, 0.000000000000000000, -1.000000000000000000 ) ) ;
#362 = VERTEX_POINT ( 'NONE', #366 ) ;
#363 = VECTOR ( 'NONE', #175, 1000.000000000000000 ) ;
#364 = CARTESIAN_POINT ( 'NONE',  ( -19.80000000000000426, 0.000000000000000000, 0.000000000000000000 ) ) ;
#365 = AXIS2_PLACEMENT_3D ( 'NONE', #510, #111, #414 ) ;
#366 = CARTESIAN_POINT ( 'NONE',  ( -22.19999999999999929, 1.443375672974064328, 1.517883041479706996E-15 ) ) ;
#367 = ORIENTED_EDGE ( 'NONE', *, *, #534, .T. ) ;
#368 = EDGE_CURVE ( 'NONE', #605, #643, #713, .T. ) ;
#369 = ORIENTED_EDGE ( 'NONE', *, *, #489, .F. ) ;
#370 = AXIS2_PLACEMENT_3D ( 'NONE', #167, #36, #401 ) ;
#371 = CARTESIAN_POINT ( 'NONE',  ( -1021.830000000000041, -5.995863809075217092E-14, 0.000000000000000000 ) ) ;
#372 = AXIS2_PLACEMENT_3D ( 'NONE', #443, #55, #160 ) ;
#373 = ADVANCED_FACE ( 'NONE', ( #532 ), #200, .F. ) ;
#374 = CARTESIAN_POINT ( 'NONE',  ( -22.13169213213474862, 1.082531754730547968, 0.6250000000000005551 ) ) ;
#375 = B_SPLINE_CURVE_WITH_KNOTS ( 'NONE', 3,
 ( #304, #228, #465, #676 ),
 .UNSPECIFIED., .F., .F.,
 ( 4, 4 ),
 ( 0.001144596242895333299, 0.001876385854435923869 ),
 .UNSPECIFIED. ) ;
#376 =( NAMED_UNIT ( * ) PLANE_ANGLE_UNIT ( ) SI_UNIT ( $, .RADIAN. ) );
#377 = EDGE_CURVE ( 'NONE', #652, #87, #572, .T. ) ;
#378 = ORIENTED_EDGE ( 'NONE', *, *, #80, .F. ) ;
#379 = AXIS2_PLACEMENT_3D ( 'NONE', #25, #138, #201 ) ;
#380 = DIRECTION ( 'NONE',  ( 0.000000000000000000, 0.000000000000000000, 1.000000000000000000 ) ) ;
#381 = SURFACE_STYLE_USAGE ( .BOTH. , #147 ) ;
#382 = UNCERTAINTY_MEASURE_WITH_UNIT (LENGTH_MEASURE( 1.000000000000000082E-05 ), #141, 'distance_accuracy_value', 'NONE');
#383 = DIRECTION ( 'NONE',  ( -1.000000000000000000, -0.000000000000000000, -0.000000000000000000 ) ) ;
#384 = CARTESIAN_POINT ( 'NONE',  ( -22.13169213213474862, -1.082531754730548412, -0.6250000000000016653 ) ) ;
#385 = B_SPLINE_CURVE_WITH_KNOTS ( 'NONE', 3,
 ( #608, #561, #92, #330, #282, #157 ),
 .UNSPECIFIED., .F., .F.,
 ( 4, 2, 4 ),
 ( 0.001182686314803305019, 0.001908595411696185082, 0.002634504508589065146 ),
 .UNSPECIFIED. ) ;
#386 = AXIS2_PLACEMENT_3D ( 'NONE', #129, #383, #380 ) ;
#387 = ORIENTED_EDGE ( 'NONE', *, *, #231, .F. ) ;
#388 = EDGE_CURVE ( 'NONE', #605, #213, #701, .T. ) ;
#389 = CARTESIAN_POINT ( 'NONE',  ( -22.19999999999999929, 0.7216878364870323859, 1.250000000000000000 ) ) ;
#390 = ADVANCED_FACE ( 'Bface2', ( #580 ), #625, .T. ) ;
#391 = MECHANICAL_DESIGN_GEOMETRIC_PRESENTATION_REPRESENTATION (  '', ( #699 ), #488 ) ;
#392 = APPLICATION_CONTEXT ( 'automotive_design' ) ;
#393 = CARTESIAN_POINT ( 'NONE',  ( -22.19999999999999929, 2.219290746934189176E-17, -3.599228117386079962E-16 ) ) ;
#394 = CARTESIAN_POINT ( 'NONE',  ( -19.99999999999999645, 0.000000000000000000, 0.000000000000000000 ) ) ;
#395 = DIRECTION ( 'NONE',  ( -1.000000000000000000, -5.998083099822152164E-17, -0.000000000000000000 ) ) ;
#396 = CIRCLE ( 'NONE', #101, 1.443375672974063662 ) ;
#397 = ADVANCED_FACE ( 'NONE', ( #457 ), #411, .T. ) ;
#398 = ORIENTED_EDGE ( 'NONE', *, *, #12, .T. ) ;
#399 = DIRECTION ( 'NONE',  ( 0.000000000000000000, 0.000000000000000000, 1.000000000000000000 ) ) ;
#400 = DIRECTION ( 'NONE',  ( 0.000000000000000000, -1.000000000000000000, 0.000000000000000000 ) ) ;
#401 = DIRECTION ( 'NONE',  ( 0.000000000000000000, 1.000000000000000000, 0.000000000000000000 ) ) ;
#402 = EDGE_LOOP ( 'NONE', ( #446, #215 ) ) ;
#403 = LINE ( 'NONE', #732, #202 ) ;
#404 = SURFACE_STYLE_USAGE ( .BOTH. , #221 ) ;
#405 = TOROIDAL_SURFACE ( 'NONE', #171, 2.199999999999997957, 0.1999999999999977074 ) ;
#406 = DIRECTION ( 'NONE',  ( -1.000000000000000000, -0.000000000000000000, -0.000000000000000000 ) ) ;
#407 = CARTESIAN_POINT ( 'NONE',  ( -20.82664516406750366, 0.8393307094615334307, -1.046236566859792605 ) ) ;
#408 = ORIENTED_EDGE ( 'NONE', *, *, #388, .F. ) ;
#409 = DIRECTION ( 'NONE',  ( -1.000000000000000000, -0.000000000000000000, -0.000000000000000000 ) ) ;
#410 = SURFACE_SIDE_STYLE ('',( #176 ) ) ;
#411 = SPHERICAL_SURFACE ( 'NONE', #718, 4.007472359323742239 ) ;
#412 = ORIENTED_EDGE ( 'NONE', *, *, #139, .T. ) ;
#413 = ADVANCED_FACE ( 'NONE', ( #538 ), #6, .F. ) ;
#414 = DIRECTION ( 'NONE',  ( 1.000000000000000000, 0.000000000000000000, 0.000000000000000000 ) ) ;
#415 = CARTESIAN_POINT ( 'NONE',  ( -0.3500000000000000333, 0.000000000000000000, 2.000000000000000000 ) ) ;
#416 = VERTEX_POINT ( 'NONE', #237 ) ;
#417 = CARTESIAN_POINT ( 'NONE',  ( -22.19999999999999929, 2.219290746934189176E-17, -3.599228117386079962E-16 ) ) ;
#418 = CARTESIAN_POINT ( 'NONE',  ( -20.77942286340599765, 0.1219527981751487578, 1.249999999999999778 ) ) ;
#419 = MECHANICAL_DESIGN_GEOMETRIC_PRESENTATION_REPRESENTATION (  '', ( #639 ), #189 ) ;
#420 = CARTESIAN_POINT ( 'NONE',  ( -22.19999999999999929, 0.7216878364870321638, -1.250000000000000222 ) ) ;
#421 = LINE ( 'NONE', #21, #30 ) ;
#422 = CARTESIAN_POINT ( 'NONE',  ( -20.77942286340599765, -0.2440392103072534236, -1.250000000000000222 ) ) ;
#423 =( NAMED_UNIT ( * ) SI_UNIT ( $, .STERADIAN. ) SOLID_ANGLE_UNIT ( ) );
#424 = EDGE_CURVE ( 'NONE', #573, #439, #39, .T. ) ;
#425 = ORIENTED_EDGE ( 'NONE', *, *, #148, .F. ) ;
#426 = MECHANICAL_DESIGN_GEOMETRIC_PRESENTATION_REPRESENTATION (  '', ( #655 ), #630 ) ;
#427 = CARTESIAN_POINT ( 'NONE',  ( -22.19999999999999929, -1.443375672974064328, -3.577867169202166210E-15 ) ) ;
#428 = DIRECTION ( 'NONE',  ( 0.000000000000000000, 0.4999999999999998335, 0.8660254037844387076 ) ) ;
#429 = EDGE_LOOP ( 'NONE', ( #44, #262, #565, #425, #146 ) ) ;
#430 = ADVANCED_FACE ( 'NONE', ( #711 ), #658, .F. ) ;
#431 = CARTESIAN_POINT ( 'NONE',  ( -20.00000000000000000, -0.7216878364870332740, 1.249999999999999778 ) ) ;
#432 = ORIENTED_EDGE ( 'NONE', *, *, #27, .T. ) ;
#433 = AXIS2_PLACEMENT_3D ( 'NONE', #261, #74, #428 ) ;
#434 = STYLED_ITEM ( 'NONE', ( #180 ), #245 ) ;
#435 = CARTESIAN_POINT ( 'NONE',  ( -20.00000000000000000, -3.800000000000000266, -4.653657836759942730E-16 ) ) ;
#436 =( NAMED_UNIT ( * ) PLANE_ANGLE_UNIT ( ) SI_UNIT ( $, .RADIAN. ) );
#437 = ORIENTED_EDGE ( 'NONE', *, *, #424, .T. ) ;
#438 = FACE_OUTER_BOUND ( 'NONE', #5, .T. ) ;
#439 = VERTEX_POINT ( 'NONE', #327 ) ;
#440 = AXIS2_PLACEMENT_3D ( 'NONE', #320, #45, #226 ) ;
#441 = FACE_OUTER_BOUND ( 'NONE', #582, .T. ) ;
#442 = DIRECTION ( 'NONE',  ( -1.000000000000000000, -0.000000000000000000, -0.000000000000000000 ) ) ;
#443 = CARTESIAN_POINT ( 'NONE',  ( -22.19999999999999929, 0.000000000000000000, 0.000000000000000000 ) ) ;
#444 = DIRECTION ( 'NONE',  ( -0.000000000000000000, 0.000000000000000000, 1.000000000000000000 ) ) ;
#445 = ADVANCED_FACE ( 'NONE', ( #28, #83 ), #540, .F. ) ;
#446 = ORIENTED_EDGE ( 'NONE', *, *, #588, .T. ) ;
#447 = FACE_OUTER_BOUND ( 'NONE', #478, .T. ) ;
#448 = CARTESIAN_POINT ( 'NONE',  ( -22.16921124011832944, -0.4814729877613855846, 1.249999999999999778 ) ) ;
#449 = ORIENTED_EDGE ( 'NONE', *, *, #128, .F. ) ;
#450 = DIRECTION ( 'NONE',  ( 0.000000000000000000, -0.4999999999999996669, -0.8660254037844388186 ) ) ;
#451 = EDGE_CURVE ( 'NONE', #652, #96, #144, .T. ) ;
#452 = CIRCLE ( 'NONE', #482, 0.1999999999999979294 ) ;
#453 = ORIENTED_EDGE ( 'NONE', *, *, #291, .F. ) ;
#454 = CARTESIAN_POINT ( 'NONE',  ( -20.00000000000000000, -1.443375672974065216, -5.870030462665943960E-16 ) ) ;
#455 = LINE ( 'NONE', #41, #678 ) ;
#456 =( NAMED_UNIT ( * ) PLANE_ANGLE_UNIT ( ) SI_UNIT ( $, .RADIAN. ) );
#457 = FACE_OUTER_BOUND ( 'NONE', #600, .T. ) ;
#458 = ORIENTED_EDGE ( 'NONE', *, *, #33, .F. ) ;
#459 = DIRECTION ( 'NONE',  ( -1.000000000000000000, -0.000000000000000000, -0.000000000000000000 ) ) ;
#460 = FILL_AREA_STYLE_COLOUR ( '', #256 ) ;
#461 = AXIS2_PLACEMENT_3D ( 'NONE', #466, #311, #230 ) ;
#462 = CARTESIAN_POINT ( 'NONE',  ( -19.99999999999999645, 0.000000000000000000, 0.000000000000000000 ) ) ;
#463 = ORIENTED_EDGE ( 'NONE', *, *, #91, .F. ) ;
#464 = ADVANCED_FACE ( 'NONE', ( #322 ), #86, .F. ) ;
#465 = CARTESIAN_POINT ( 'NONE',  ( -20.77942286340599765, -0.2440392103072530072, 1.249999999999999778 ) ) ;
#466 = CARTESIAN_POINT ( 'NONE',  ( -22.19999999999999929, 0.000000000000000000, 0.000000000000000000 ) ) ;
#467 = CIRCLE ( 'NONE', #530, 1.443375672974063662 ) ;
#468 = ORIENTED_EDGE ( 'NONE', *, *, #728, .F. ) ;
#469 = CLOSED_SHELL ( 'NONE', ( #47, #4, #521, #559, #37, #390, #445, #397, #627, #413, #714, #495, #486, #373, #99, #634, #653, #464, #319, #581, #279, #430, #53, #246, #680 ) ) ;
#470 = DIRECTION ( 'NONE',  ( -1.000000000000000000, -0.000000000000000000, -0.000000000000000000 ) ) ;
#471 = CARTESIAN_POINT ( 'NONE',  ( -3.061616997868386099E-17, 2.000000000000000000, 0.000000000000000000 ) ) ;
#472 =( NAMED_UNIT ( * ) SI_UNIT ( $, .STERADIAN. ) SOLID_ANGLE_UNIT ( ) );
#473 = ORIENTED_EDGE ( 'NONE', *, *, #368, .F. ) ;
#474 = DIRECTION ( 'NONE',  ( -1.000000000000000000, -0.000000000000000000, -0.000000000000000000 ) ) ;
#475 = LINE ( 'NONE', #126, #24 ) ;
#476 = AXIS2_PLACEMENT_3D ( 'NONE', #684, #347, #522 ) ;
#477 = CARTESIAN_POINT ( 'NONE',  ( -20.77964865737705580, 1.206490558868565710, -0.4102970531874746696 ) ) ;
#478 = EDGE_LOOP ( 'NONE', ( #722, #238, #387, #529 ) ) ;
#479 = CARTESIAN_POINT ( 'NONE',  ( -20.00000000000000000, 0.7216878364870321638, -1.250000000000000222 ) ) ;
#480 = DIRECTION ( 'NONE',  ( 1.000000000000000000, 0.000000000000000000, 0.000000000000000000 ) ) ;
#481 = ORIENTED_EDGE ( 'NONE', *, *, #344, .T. ) ;
#482 = AXIS2_PLACEMENT_3D ( 'NONE', #335, #400, #48 ) ;
#483 = PRODUCT_CONTEXT ( 'NONE', #392, 'mechanical' ) ;
#484 = CARTESIAN_POINT ( 'NONE',  ( -22.16916666666573832, 1.323094366892892060, 0.2083333333333341753 ) ) ;
#485 = VERTEX_POINT ( 'NONE', #317 ) ;
#486 = ADVANCED_FACE ( 'NONE', ( #546 ), #82, .F. ) ;
#487 = DIRECTION ( 'NONE',  ( 5.691969551695333484E-17, -1.000000000000000000, 0.000000000000000000 ) ) ;
#488 =( GEOMETRIC_REPRESENTATION_CONTEXT ( 3 ) GLOBAL_UNCERTAINTY_ASSIGNED_CONTEXT ( ( #321 ) ) GLOBAL_UNIT_ASSIGNED_CONTEXT ( ( #242, #249, #472 ) ) REPRESENTATION_CONTEXT ( 'NONE', 'WORKASPACE' ) );
#489 = EDGE_CURVE ( 'NONE', #51, #541, #220, .T. ) ;
#490 = SHAPE_DEFINITION_REPRESENTATION ( #342, #245 ) ;
#491 = B_SPLINE_CURVE_WITH_KNOTS ( 'NONE', 3,
 ( #70, #576, #477, #62, #407, #642 ),
 .UNSPECIFIED., .F., .F.,
 ( 4, 2, 4 ),
 ( 2.391904125709706413E-07, 0.0007300545202770510967, 0.001459869850141531098 ),
 .UNSPECIFIED. ) ;
#492 = AXIS2_PLACEMENT_3D ( 'NONE', #183, #624, #638 ) ;
#493 = DIRECTION ( 'NONE',  ( -1.000000000000000000, -5.998083099822152164E-17, -0.000000000000000000 ) ) ;
#494 = CARTESIAN_POINT ( 'NONE',  ( -22.16916666666574187, 1.323094366892892948, -0.2083333333333323989 ) ) ;
#495 = ADVANCED_FACE ( 'NONE', ( #438 ), #506, .F. ) ;
#496 = ORIENTED_EDGE ( 'NONE', *, *, #115, .T. ) ;
#497 = AXIS2_PLACEMENT_3D ( 'NONE', #18, #113, #313 ) ;
#498 = PRODUCT_DEFINITION_FORMATION_WITH_SPECIFIED_SOURCE ( '任何', '', #110, .NOT_KNOWN. ) ;
#499 = FILL_AREA_STYLE ('',( #136 ) ) ;
#500 = CARTESIAN_POINT ( 'NONE',  ( -22.16916666666573832, -0.8419691425682047647, -1.041666666666667407 ) ) ;
#501 = EDGE_CURVE ( 'NONE', #362, #71, #358, .T. ) ;
#502 = UNCERTAINTY_MEASURE_WITH_UNIT (LENGTH_MEASURE( 1.000000000000000082E-05 ), #545, 'distance_accuracy_value', 'NONE');
#503 = SURFACE_STYLE_FILL_AREA ( #499 ) ;
#504 = DIRECTION ( 'NONE',  ( -1.000000000000000000, -0.000000000000000000, -0.000000000000000000 ) ) ;
#505 = ORIENTED_EDGE ( 'NONE', *, *, #424, .F. ) ;
#506 = CONICAL_SURFACE ( 'NONE', #223, 3901.015332362347181, 1.319856261027563038 ) ;
#507 = PLANE ( 'NONE',  #616 ) ;
#508 = CARTESIAN_POINT ( 'NONE',  ( -22.15048909679995859, 0.2418642655271370789, 1.249999999999999778 ) ) ;
#509 = EDGE_LOOP ( 'NONE', ( #73, #367 ) ) ;
#510 = CARTESIAN_POINT ( 'NONE',  ( -18.72727272727272663, 0.000000000000000000, 0.000000000000000000 ) ) ;
#511 =( NAMED_UNIT ( * ) PLANE_ANGLE_UNIT ( ) SI_UNIT ( $, .RADIAN. ) );
#512 = DIRECTION ( 'NONE',  ( 0.000000000000000000, 1.776356839400250465E-15, -1.000000000000000000 ) ) ;
#513 = B_SPLINE_CURVE_WITH_KNOTS ( 'NONE', 3,
 ( #524, #349, #574, #353, #240, #14 ),
 .UNSPECIFIED., .F., .F.,
 ( 4, 2, 4 ),
 ( 2.391904125708790558E-07, 0.0007300545202770515303, 0.001459869850141532182 ),
 .UNSPECIFIED. ) ;
#514 = ORIENTED_EDGE ( 'NONE', *, *, #208, .T. ) ;
#515 = CARTESIAN_POINT ( 'NONE',  ( -20.77964865737705580, -1.206490558868566820, 0.4102970531874744475 ) ) ;
#516 = DIRECTION ( 'NONE',  ( 0.000000000000000000, 0.000000000000000000, 1.000000000000000000 ) ) ;
#517 = CARTESIAN_POINT ( 'NONE',  ( -18.72727272727272663, 0.000000000000000000, 0.000000000000000000 ) ) ;
#518 = VERTEX_POINT ( 'NONE', #266 ) ;
#519 = FACE_OUTER_BOUND ( 'NONE', #552, .T. ) ;
#520 =( LENGTH_UNIT ( ) NAMED_UNIT ( * ) SI_UNIT ( .MILLI., .METRE. ) );
#521 = ADVANCED_FACE ( 'NONE', ( #135 ), #405, .F. ) ;
#522 = DIRECTION ( 'NONE',  ( 0.000000000000000000, 0.000000000000000000, 1.000000000000000000 ) ) ;
#523 = VERTEX_POINT ( 'NONE', #435 ) ;
#524 = CARTESIAN_POINT ( 'NONE',  ( -20.90000000000000213, 0.7216878364870323859, 1.249999999999999778 ) ) ;
#525 = B_SPLINE_CURVE_WITH_KNOTS ( 'NONE', 3,
 ( #309, #578, #515, #125, #165, #696 ),
 .UNSPECIFIED., .F., .F.,
 ( 4, 2, 4 ),
 ( 2.391904125710969021E-07, 0.0007300545202770521809, 0.001459869850141533049 ),
 .UNSPECIFIED. ) ;
#526 = MANIFOLD_SOLID_BREP ( '切除-旋转1', #469 ) ;
#527 = LINE ( 'NONE', #288, #686 ) ;
#528 = CIRCLE ( 'NONE', #365, 4.007472359323742239 ) ;
#529 = ORIENTED_EDGE ( 'NONE', *, *, #174, .T. ) ;
#530 = AXIS2_PLACEMENT_3D ( 'NONE', #567, #583, #345 ) ;
#531 = FACE_OUTER_BOUND ( 'NONE', #626, .T. ) ;
#532 = FACE_OUTER_BOUND ( 'NONE', #337, .T. ) ;
#533 = CARTESIAN_POINT ( 'NONE',  ( -20.90000000000000213, 0.000000000000000000, 0.000000000000000000 ) ) ;
#534 = EDGE_CURVE ( 'NONE', #439, #485, #599, .T. ) ;
#535 = CARTESIAN_POINT ( 'NONE',  ( -20.00000000000000000, 0.000000000000000000, 0.000000000000000000 ) ) ;
#536 = AXIS2_PLACEMENT_3D ( 'NONE', #155, #42, #9 ) ;
#537 = PRESENTATION_LAYER_ASSIGNMENT (  '', '', ( #434 ) ) ;
#538 = FACE_OUTER_BOUND ( 'NONE', #149, .T. ) ;
#539 = B_SPLINE_CURVE_WITH_KNOTS ( 'NONE', 3,
 ( #190, #422, #23, #644 ),
 .UNSPECIFIED., .F., .F.,
 ( 4, 4 ),
 ( 0.004568767951579540479, 0.005301777679998205019 ),
 .UNSPECIFIED. ) ;
#540 = PLANE ( 'NONE',  #299 ) ;
#541 = VERTEX_POINT ( 'NONE', #49 ) ;
#542 = AXIS2_PLACEMENT_3D ( 'NONE', #533, #314, #662 ) ;
#543 = PRESENTATION_STYLE_ASSIGNMENT (( #381 ) ) ;
#544 = EDGE_CURVE ( 'NONE', #87, #302, #679, .T. ) ;
#545 =( LENGTH_UNIT ( ) NAMED_UNIT ( * ) SI_UNIT ( .MILLI., .METRE. ) );
#546 = FACE_OUTER_BOUND ( 'NONE', #306, .T. ) ;
#547 = AXIS2_PLACEMENT_3D ( 'NONE', #431, #34, #263 ) ;
#548 = ORIENTED_EDGE ( 'NONE', *, *, #208, .F. ) ;
#549 = EDGE_CURVE ( 'NONE', #71, #485, #186, .T. ) ;
#550 = EDGE_LOOP ( 'NONE', ( #153, #85, #318, #671, #481, #173 ) ) ;
#551 = DIRECTION ( 'NONE',  ( 0.000000000000000000, -0.8660254037844385966, -0.5000000000000003331 ) ) ;
#552 = EDGE_LOOP ( 'NONE', ( #453, #646, #224, #514 ) ) ;
#553 =( LENGTH_UNIT ( ) NAMED_UNIT ( * ) SI_UNIT ( .MILLI., .METRE. ) );
#554 = PLANE ( 'NONE',  #265 ) ;
#555 = ORIENTED_EDGE ( 'NONE', *, *, #603, .F. ) ;
#556 = AXIS2_PLACEMENT_3D ( 'NONE', #462, #293, #127 ) ;
#557 = DIRECTION ( 'NONE',  ( 0.000000000000000000, 0.000000000000000000, -1.000000000000000000 ) ) ;
#558 = DIRECTION ( 'NONE',  ( -1.000000000000000000, 0.000000000000000000, -0.000000000000000000 ) ) ;
#559 = ADVANCED_FACE ( 'NONE', ( #730 ), #726, .T. ) ;
#560 = VECTOR ( 'NONE', #409, 1000.000000000000000 ) ;
#561 = CARTESIAN_POINT ( 'NONE',  ( -22.16921124011832944, -0.4814729877613868614, -1.250000000000000000 ) ) ;
#562 = CARTESIAN_POINT ( 'NONE',  ( -22.16927320067241780, 0.4819564059043954241, 1.249999999999999778 ) ) ;
#563 = CARTESIAN_POINT ( 'NONE',  ( -0.3500000000000000333, 0.000000000000000000, 2.000000000000000000 ) ) ;
#564 = CARTESIAN_POINT ( 'NONE',  ( -22.19999999999999929, 0.000000000000000000, 2.000000000000000000 ) ) ;
#565 = ORIENTED_EDGE ( 'NONE', *, *, #709, .F. ) ;
#566 = VECTOR ( 'NONE', #336, 1000.000000000000000 ) ;
#567 = CARTESIAN_POINT ( 'NONE',  ( -22.19999999999999929, 2.219290746934189176E-17, -3.599228117386079962E-16 ) ) ;
#568 = CARTESIAN_POINT ( 'NONE',  ( -20.79105228766683666, 0.2457778558553071202, 1.249999999999999778 ) ) ;
#569 = ORIENTED_EDGE ( 'NONE', *, *, #301, .T. ) ;
#570 = CARTESIAN_POINT ( 'NONE',  ( -20.77942286340599765, 0.1219527981751481333, -1.250000000000000222 ) ) ;
#571 = DIRECTION ( 'NONE',  ( -1.000000000000000000, -5.998083099822152164E-17, -0.000000000000000000 ) ) ;
#572 = LINE ( 'NONE', #415, #710 ) ;
#573 = VERTEX_POINT ( 'NONE', #93 ) ;
#574 = CARTESIAN_POINT ( 'NONE',  ( -20.77964865737705580, 0.9585729505925310034, 0.8397029468125249974 ) ) ;
#575 = EDGE_CURVE ( 'NONE', #75, #40, #281, .T. ) ;
#576 = CARTESIAN_POINT ( 'NONE',  ( -20.82677104533570756, 1.325934682174326973, -0.2034137629563742278 ) ) ;
#577 = EDGE_LOOP ( 'NONE', ( #233, #412, #348, #325 ) ) ;
#578 = CARTESIAN_POINT ( 'NONE',  ( -20.82677104533571111, -1.325934682174327861, 0.2034137629563737282 ) ) ;
#579 = CARTESIAN_POINT ( 'NONE',  ( -22.19999999999999929, 2.219290746934189176E-17, -3.599228117386079962E-16 ) ) ;
#580 = FACE_OUTER_BOUND ( 'NONE', #326, .T. ) ;
#581 = ADVANCED_FACE ( 'NONE', ( #106 ), #554, .F. ) ;
#582 = EDGE_LOOP ( 'NONE', ( #458, #84, #90, #26, #196, #210 ) ) ;
#583 = DIRECTION ( 'NONE',  ( -1.000000000000000000, -0.000000000000000000, -0.000000000000000000 ) ) ;
#584 = DIRECTION ( 'NONE',  ( 5.691969551695333484E-17, -1.000000000000000000, 0.000000000000000000 ) ) ;
#585 = AXIS2_PLACEMENT_3D ( 'NONE', #364, #194, #134 ) ;
#586 = SURFACE_STYLE_FILL_AREA ( #591 ) ;
#587 = ORIENTED_EDGE ( 'NONE', *, *, #534, .F. ) ;
#588 = EDGE_CURVE ( 'NONE', #213, #605, #255, .T. ) ;
#589 = CIRCLE ( 'NONE', #614, 2.000000000000000000 ) ;
#590 = CARTESIAN_POINT ( 'NONE',  ( -0.3500000000000000333, 0.000000000000000000, 0.000000000000000000 ) ) ;
#591 = FILL_AREA_STYLE ('',( #181 ) ) ;
#592 = ORIENTED_EDGE ( 'NONE', *, *, #316, .F. ) ;
#593 = PRODUCT_DEFINITION_CONTEXT ( 'detailed design', #168, 'design' ) ;
#594 = SURFACE_STYLE_FILL_AREA ( #142 ) ;
#595 = ORIENTED_EDGE ( 'NONE', *, *, #191, .T. ) ;
#596 = CARTESIAN_POINT ( 'NONE',  ( -19.80000000000000071, 0.000000000000000000, 0.000000000000000000 ) ) ;
#597 = PRESENTATION_LAYER_ASSIGNMENT (  '', '', ( #655 ) ) ;
#598 = DIRECTION ( 'NONE',  ( 1.000000000000000000, 0.000000000000000000, 0.000000000000000000 ) ) ;
#599 = CIRCLE ( 'NONE', #440, 1.443375672974064328 ) ;
#600 = EDGE_LOOP ( 'NONE', ( #613, #724, #67, #468 ) ) ;
#601 = ORIENTED_EDGE ( 'NONE', *, *, #115, .F. ) ;
#602 = DIRECTION ( 'NONE',  ( 0.000000000000000000, 0.000000000000000000, 1.000000000000000000 ) ) ;
#603 = EDGE_CURVE ( 'NONE', #193, #523, #660, .T. ) ;
#604 = ORIENTED_EDGE ( 'NONE', *, *, #307, .T. ) ;
#605 = VERTEX_POINT ( 'NONE', #98 ) ;
#606 = CARTESIAN_POINT ( 'NONE',  ( -22.19999999999999929, -0.7216878364870324969, -1.249999999999999778 ) ) ;
#607 = EDGE_CURVE ( 'NONE', #439, #573, #66, .T. ) ;
#608 = CARTESIAN_POINT ( 'NONE',  ( -22.19999999999999929, -0.7216878364870324969, -1.249999999999999778 ) ) ;
#609 = CARTESIAN_POINT ( 'NONE',  ( -20.00000000000000000, -0.7216878364870328300, -1.250000000000000222 ) ) ;
#610 = VERTEX_POINT ( 'NONE', #89 ) ;
#611 = CIRCLE ( 'NONE', #52, 1.443375672974063662 ) ;
#612 = FACE_OUTER_BOUND ( 'NONE', #280, .T. ) ;
#613 = ORIENTED_EDGE ( 'NONE', *, *, #350, .F. ) ;
#614 = AXIS2_PLACEMENT_3D ( 'NONE', #247, #687, #20 ) ;
#615 =( NAMED_UNIT ( * ) SI_UNIT ( $, .STERADIAN. ) SOLID_ANGLE_UNIT ( ) );
#616 = AXIS2_PLACEMENT_3D ( 'NONE', #216, #154, #229 ) ;
#617 = AXIS2_PLACEMENT_3D ( 'NONE', #479, #72, #312 ) ;
#618 = ORIENTED_EDGE ( 'NONE', *, *, #451, .T. ) ;
#619 = DIRECTION ( 'NONE',  ( 0.000000000000000000, 0.000000000000000000, -1.000000000000000000 ) ) ;
#620 = LINE ( 'NONE', #120, #363 ) ;
#621 = DIRECTION ( 'NONE',  ( -0.5291067161269946695, 1.039180521791366210E-16, -0.8485552916276627444 ) ) ;
#622 = ORIENTED_EDGE ( 'NONE', *, *, #80, .T. ) ;
#623 = PRESENTATION_LAYER_ASSIGNMENT (  '', '', ( #639 ) ) ;
#624 = DIRECTION ( 'NONE',  ( -1.000000000000000000, -0.000000000000000000, -0.000000000000000000 ) ) ;
#625 = CYLINDRICAL_SURFACE ( 'NONE', #497, 2.000000000000000000 ) ;
#626 = EDGE_LOOP ( 'NONE', ( #449, #706, #694, #632 ) ) ;
#627 = ADVANCED_FACE ( 'Bface1', ( #612, #276 ), #721, .F. ) ;
#628 = CARTESIAN_POINT ( 'NONE',  ( -20.00000000000000000, 3.800000000000000266, 0.000000000000000000 ) ) ;
#629 = SURFACE_STYLE_USAGE ( .BOTH. , #410 ) ;
#630 =( GEOMETRIC_REPRESENTATION_CONTEXT ( 3 ) GLOBAL_UNCERTAINTY_ASSIGNED_CONTEXT ( ( #661 ) ) GLOBAL_UNIT_ASSIGNED_CONTEXT ( ( #553, #511, #615 ) ) REPRESENTATION_CONTEXT ( 'NONE', 'WORKASPACE' ) );
#631 = DIRECTION ( 'NONE',  ( -1.000000000000000000, -5.998083099822152164E-17, -0.000000000000000000 ) ) ;
#632 = ORIENTED_EDGE ( 'NONE', *, *, #307, .F. ) ;
#633 = CARTESIAN_POINT ( 'NONE',  ( -19.99999999999999645, 0.000000000000000000, 2.199999999999997957 ) ) ;
#634 = ADVANCED_FACE ( 'NONE', ( #667 ), #107, .F. ) ;
#635 = CARTESIAN_POINT ( 'NONE',  ( -20.00000000000000000, -0.7216878364870332740, 1.249999999999999778 ) ) ;
#636 = SURFACE_STYLE_USAGE ( .BOTH. , #10 ) ;
#637 = ORIENTED_EDGE ( 'NONE', *, *, #91, .T. ) ;
#638 = DIRECTION ( 'NONE',  ( 0.000000000000000000, 0.000000000000000000, 1.000000000000000000 ) ) ;
#639 = STYLED_ITEM ( 'NONE', ( #543 ), #526 ) ;
#640 = CARTESIAN_POINT ( 'NONE',  ( -20.77942286340599765, -4.330215280939178002E-23, 1.249999999999999778 ) ) ;
#641 = EDGE_CURVE ( 'NONE', #274, #485, #692, .T. ) ;
#642 = CARTESIAN_POINT ( 'NONE',  ( -20.90000000000000213, 0.7216878364870328300, -1.249999999999999112 ) ) ;
#643 = VERTEX_POINT ( 'NONE', #121 ) ;
#644 = CARTESIAN_POINT ( 'NONE',  ( -20.90000000000000213, -0.7216878364870328300, -1.250000000000000222 ) ) ;
#645 = DIRECTION ( 'NONE',  ( -0.000000000000000000, 1.000000000000000000, 1.224646799147353207E-16 ) ) ;
#646 = ORIENTED_EDGE ( 'NONE', *, *, #641, .F. ) ;
#647 = CARTESIAN_POINT ( 'NONE',  ( -19.80000000000000426, 0.000000000000000000, 2.000000000000000000 ) ) ;
#648 = CARTESIAN_POINT ( 'NONE',  ( -20.90000000000000213, -1.443375672974065216, -5.870030462665943960E-16 ) ) ;
#649 = CYLINDRICAL_SURFACE ( 'NONE', #372, 2.000000000000000000 ) ;
#650 =( GEOMETRIC_REPRESENTATION_CONTEXT ( 3 ) GLOBAL_UNCERTAINTY_ASSIGNED_CONTEXT ( ( #254 ) ) GLOBAL_UNIT_ASSIGNED_CONTEXT ( ( #520, #456, #423 ) ) REPRESENTATION_CONTEXT ( 'NONE', 'WORKASPACE' ) );
#651 = DIRECTION ( 'NONE',  ( -1.000000000000000000, -0.000000000000000000, -0.000000000000000000 ) ) ;
#652 = VERTEX_POINT ( 'NONE', #185 ) ;
#653 = ADVANCED_FACE ( 'NONE', ( #688 ), #303, .F. ) ;
#654 = AXIS2_PLACEMENT_3D ( 'NONE', #702, #693, #300 ) ;
#655 = STYLED_ITEM ( 'NONE', ( #720 ), #37 ) ;
#656 = EDGE_CURVE ( 'NONE', #199, #357, #527, .T. ) ;
#657 = CARTESIAN_POINT ( 'NONE',  ( 0.000000000000000000, 0.000000000000000000, 0.000000000000000000 ) ) ;
#658 = PLANE ( 'NONE',  #547 ) ;
#659 = PRODUCT_DEFINITION ( '未知', '', #498, #593 ) ;
#660 = CIRCLE ( 'NONE', #50, 3.800000000000000266 ) ;
#661 = UNCERTAINTY_MEASURE_WITH_UNIT (LENGTH_MEASURE( 1.000000000000000082E-05 ), #553, 'distance_accuracy_value', 'NONE');
#662 = DIRECTION ( 'NONE',  ( 0.000000000000000000, 0.000000000000000000, 1.000000000000000000 ) ) ;
#663 = CARTESIAN_POINT ( 'NONE',  ( -20.00000000000000000, 0.000000000000000000, 0.000000000000000000 ) ) ;
#664 = ORIENTED_EDGE ( 'NONE', *, *, #344, .F. ) ;
#665 = CIRCLE ( 'NONE', #386, 1.999999999999998668 ) ;
#666 = DIRECTION ( 'NONE',  ( -1.000000000000000000, -0.000000000000000000, -0.000000000000000000 ) ) ;
#667 = FACE_OUTER_BOUND ( 'NONE', #123, .T. ) ;
#668 = ORIENTED_EDGE ( 'NONE', *, *, #501, .T. ) ;
#669 = FACE_OUTER_BOUND ( 'NONE', #509, .T. ) ;
#670 = CARTESIAN_POINT ( 'NONE',  ( -20.90000000000000213, 1.767625397874844201E-16, -1.443375672974064106 ) ) ;
#671 = ORIENTED_EDGE ( 'NONE', *, *, #231, .T. ) ;
#672 = DIRECTION ( 'NONE',  ( -1.000000000000000000, -0.000000000000000000, -0.000000000000000000 ) ) ;
#673 = DIRECTION ( 'NONE',  ( 0.000000000000000000, 0.000000000000000000, 1.000000000000000000 ) ) ;
#674 = ORIENTED_EDGE ( 'NONE', *, *, #451, .F. ) ;
#675 = CIRCLE ( 'NONE', #205, 2.000000000000000000 ) ;
#676 = CARTESIAN_POINT ( 'NONE',  ( -20.77942286340599765, -4.330215280939178002E-23, 1.249999999999999778 ) ) ;
#677 = DIRECTION ( 'NONE',  ( -0.5000000000000001110, 1.060575238724906792E-16, -0.8660254037844385966 ) ) ;
#678 = VECTOR ( 'NONE', #672, 1000.000000000000000 ) ;
#679 = LINE ( 'NONE', #564, #566 ) ;
#680 = ADVANCED_FACE ( 'Bface3', ( #65 ), #61, .F. ) ;
#681 = ORIENTED_EDGE ( 'NONE', *, *, #377, .F. ) ;
#682 = CARTESIAN_POINT ( 'NONE',  ( -20.79105228766682600, 0.2457778558553064541, -1.250000000000000000 ) ) ;
#683 = EDGE_CURVE ( 'NONE', #610, #362, #475, .T. ) ;
#684 = CARTESIAN_POINT ( 'NONE',  ( -19.80000000000000071, 0.000000000000000000, 0.000000000000000000 ) ) ;
#685 = VERTEX_POINT ( 'NONE', #354 ) ;
#686 = VECTOR ( 'NONE', #248, 1000.000000000000000 ) ;
#687 = DIRECTION ( 'NONE',  ( -1.000000000000000000, -0.000000000000000000, -0.000000000000000000 ) ) ;
#688 = FACE_OUTER_BOUND ( 'NONE', #550, .T. ) ;
#689 = CARTESIAN_POINT ( 'NONE',  ( -22.19999999999999929, 2.219290746934189176E-17, -3.599228117386079962E-16 ) ) ;
#690 = ORIENTED_EDGE ( 'NONE', *, *, #184, .F. ) ;
#691 = CARTESIAN_POINT ( 'NONE',  ( -22.19999999999999929, -1.999999999999998668, -3.551475717527323339E-16 ) ) ;
#692 = LINE ( 'NONE', #635, #22 ) ;
#693 = DIRECTION ( 'NONE',  ( 0.000000000000000000, 1.224646799147353207E-16, -1.000000000000000000 ) ) ;
#694 = ORIENTED_EDGE ( 'NONE', *, *, #377, .T. ) ;
#695 = EDGE_CURVE ( 'NONE', #71, #362, #611, .T. ) ;
#696 = CARTESIAN_POINT ( 'NONE',  ( -20.90000000000000213, -0.7216878364870332740, 1.249999999999999778 ) ) ;
#697 = DIRECTION ( 'NONE',  ( -0.000000000000000000, 0.000000000000000000, 1.000000000000000000 ) ) ;
#698 = CARTESIAN_POINT ( 'NONE',  ( -22.19999999999999929, 0.7216878364870321638, -1.250000000000000222 ) ) ;
#699 = STYLED_ITEM ( 'NONE', ( #122 ), #390 ) ;
#700 = PLANE ( 'NONE',  #617 ) ;
#701 = CIRCLE ( 'NONE', #556, 2.199999999999997957 ) ;
#702 = CARTESIAN_POINT ( 'NONE',  ( -18.72727272727272663, 0.000000000000000000, 0.000000000000000000 ) ) ;
#703 = ORIENTED_EDGE ( 'NONE', *, *, #728, .T. ) ;
#704 = CARTESIAN_POINT ( 'NONE',  ( -22.16916666666573477, -1.323094366892893836, 0.2083333333333313164 ) ) ;
#705 = DIRECTION ( 'NONE',  ( 0.000000000000000000, 0.000000000000000000, -1.000000000000000000 ) ) ;
#706 = ORIENTED_EDGE ( 'NONE', *, *, #251, .T. ) ;
#707 = CARTESIAN_POINT ( 'NONE',  ( -22.19999999999999929, 0.000000000000000000, 0.000000000000000000 ) ) ;
#708 = ORIENTED_EDGE ( 'NONE', *, *, #695, .F. ) ;
#709 = EDGE_CURVE ( 'NONE', #685, #416, #298, .T. ) ;
#710 = VECTOR ( 'NONE', #356, 1000.000000000000000 ) ;
#711 = FACE_OUTER_BOUND ( 'NONE', #429, .T. ) ;
#712 = CARTESIAN_POINT ( 'NONE',  ( -20.82677104533570756, -0.8391288272867705178, -1.046586237043626300 ) ) ;
#713 = CIRCLE ( 'NONE', #137, 0.1999999999999979294 ) ;
#714 = ADVANCED_FACE ( 'NONE', ( #346 ), #109, .F. ) ;
#715 = CARTESIAN_POINT ( 'NONE',  ( -22.16916666666574542, 0.8419691425682039876, 1.041666666666667629 ) ) ;
#716 = CARTESIAN_POINT ( 'NONE',  ( -22.19999999999999929, 1.443375672974064328, 1.517883041479706996E-15 ) ) ;
#717 = DIRECTION ( 'NONE',  ( 0.000000000000000000, 0.5000000000000002220, -0.8660254037844384856 ) ) ;
#718 = AXIS2_PLACEMENT_3D ( 'NONE', #517, #361, #3 ) ;
#719 = EDGE_LOOP ( 'NONE', ( #618, #46, #690, #681 ) ) ;
#720 = PRESENTATION_STYLE_ASSIGNMENT (( #404 ) ) ;
#721 = PLANE ( 'NONE',  #339 ) ;
#722 = ORIENTED_EDGE ( 'NONE', *, *, #501, .F. ) ;
#723 = FACE_OUTER_BOUND ( 'NONE', #719, .T. ) ;
#724 = ORIENTED_EDGE ( 'NONE', *, *, #323, .T. ) ;
#725 = DIRECTION ( 'NONE',  ( 0.000000000000000000, 0.000000000000000000, 1.000000000000000000 ) ) ;
#726 = SPHERICAL_SURFACE ( 'NONE', #370, 4.007472359323742239 ) ;
#727 = ORIENTED_EDGE ( 'NONE', *, *, #544, .T. ) ;
#728 = EDGE_CURVE ( 'NONE', #188, #352, #145, .T. ) ;
#729 = LINE ( 'NONE', #225, #260 ) ;
#730 = FACE_OUTER_BOUND ( 'NONE', #1, .T. ) ;
#731 = EDGE_LOOP ( 'NONE', ( #505, #378, #206, #708, #150, #587 ) ) ;
#732 = CARTESIAN_POINT ( 'NONE',  ( -20.00000000000000000, -1.443375672974065216, -5.870030462665943960E-16 ) ) ;
#733 = CARTESIAN_POINT ( 'NONE',  ( -1021.830000000000041, -5.995863809075217092E-14, 0.000000000000000000 ) ) ;
#734 = CARTESIAN_POINT ( 'NONE',  ( -20.83343568050244343, 0.4873330088410964822, 1.249999999999999334 ) ) ;
ENDSEC;
END-ISO-10303-21;
