ISO-10303-21;
HEADER;
FILE_DESCRIPTION (( 'STEP AP214' ),
    '1' );
FILE_NAME ('GB╱T 9074.1-2002[十字槽盘头螺钉（S3）和平垫圈组合件M3×8 10.9 S3 N].step',
    '2023-08-15T03:02:09',
    ( '' ),
    ( '' ),
    'SwSTEP 2.0',
    'SolidWorks 2022',
    '' );
FILE_SCHEMA (( 'AUTOMOTIVE_DESIGN' ));
ENDSEC;

DATA;
#1 = DIRECTION ( 'NONE',  ( 0.000000000000000000, 0.000000000000000000, 1.000000000000000000 ) ) ;
#2 = CARTESIAN_POINT ( 'NONE',  ( 1.750000000000000000, -0.2984582311920153663, -0.5995673809149002498 ) ) ;
#3 = ORIENTED_EDGE ( 'NONE', *, *, #20, .F. ) ;
#4 = DIRECTION ( 'NONE',  ( 0.000000000000000000, -0.7071067811865475727, 0.7071067811865474617 ) ) ;
#5 = CARTESIAN_POINT ( 'NONE',  ( 0.07431333771314231618, -0.8053158319546457333, -0.2984582311920159770 ) ) ;
#6 = PLANE ( 'NONE',  #861 ) ;
#7 = ORIENTED_EDGE ( 'NONE', *, *, #575, .T. ) ;
#8 = AXIS2_PLACEMENT_3D ( 'NONE', #25, #857, #758 ) ;
#9 = TOROIDAL_SURFACE ( 'NONE', #695, 2.699999999999999734, 0.1000000000000000056 ) ;
#10 = PLANE ( 'NONE',  #570 ) ;
#11 = CIRCLE ( 'NONE', #1209, 4.999364441949703419 ) ;
#12 = DIRECTION ( 'NONE',  ( -1.000000000000000000, -0.000000000000000000, -0.000000000000000000 ) ) ;
#13 = VERTEX_POINT ( 'NONE', #405 ) ;
#14 = AXIS2_PLACEMENT_3D ( 'NONE', #464, #369, #1203 ) ;
#15 =( GEOMETRIC_REPRESENTATION_CONTEXT ( 3 ) GLOBAL_UNCERTAINTY_ASSIGNED_CONTEXT ( ( #1057 ) ) GLOBAL_UNIT_ASSIGNED_CONTEXT ( ( #319, #875, #704 ) ) REPRESENTATION_CONTEXT ( 'NONE', 'WORKASPACE' ) );
#16 = ORIENTED_EDGE ( 'NONE', *, *, #21, .F. ) ;
#17 = VECTOR ( 'NONE', #410, 1000.000000000000000 ) ;
#18 = PLANE ( 'NONE',  #499 ) ;
#19 = LINE ( 'NONE', #946, #779 ) ;
#20 = EDGE_CURVE ( 'NONE', #924, #1086, #1112, .T. ) ;
#21 = EDGE_CURVE ( 'NONE', #372, #924, #784, .T. ) ;
#22 = EDGE_LOOP ( 'NONE', ( #238, #1119, #469 ) ) ;
#23 = SURFACE_STYLE_USAGE ( .BOTH. , #574 ) ;
#24 = CYLINDRICAL_SURFACE ( 'NONE', #1147, 2.799999999999999378 ) ;
#25 = CARTESIAN_POINT ( 'NONE',  ( 0.000000000000000000, 0.6998729815800832643, 0.000000000000000000 ) ) ;
#26 = ORIENTED_EDGE ( 'NONE', *, *, #83, .F. ) ;
#27 = EDGE_LOOP ( 'NONE', ( #902, #39, #835, #411 ) ) ;
#28 = FACE_OUTER_BOUND ( 'NONE', #1103, .T. ) ;
#29 = LINE ( 'NONE', #293, #1140 ) ;
#30 = CIRCLE ( 'NONE', #101, 4.921617994597914603 ) ;
#31 = DIRECTION ( 'NONE',  ( 0.000000000000000000, 0.000000000000000000, 1.000000000000000000 ) ) ;
#32 = DIRECTION ( 'NONE',  ( 0.000000000000000000, 0.000000000000000000, 1.000000000000000000 ) ) ;
#33 = ORIENTED_EDGE ( 'NONE', *, *, #487, .T. ) ;
#34 = CIRCLE ( 'NONE', #431, 1.066999999999999504 ) ;
#35 = FILL_AREA_STYLE_COLOUR ( '', #1108 ) ;
#36 = CARTESIAN_POINT ( 'NONE',  ( 2.399999999999999467, 0.000000000000000000, 0.000000000000000000 ) ) ;
#37 = ADVANCED_FACE ( 'NONE', ( #854 ), #386, .T. ) ;
#38 = CARTESIAN_POINT ( 'NONE',  ( 0.000000000000000000, -0.6998729815800832643, -1.714194413403527111E-16 ) ) ;
#39 = ORIENTED_EDGE ( 'NONE', *, *, #383, .F. ) ;
#40 = DIRECTION ( 'NONE',  ( -1.000000000000000000, 0.000000000000000000, -0.000000000000000000 ) ) ;
#41 = DIRECTION ( 'NONE',  ( 0.08798131281535118142, 0.7165502907562203427, 0.6919645723680247773 ) ) ;
#42 = DIRECTION ( 'NONE',  ( 0.08798131281535120918, 0.7165502907562203427, -0.6919645723680247773 ) ) ;
#43 = DIRECTION ( 'NONE',  ( 0.000000000000000000, 0.000000000000000000, 1.000000000000000000 ) ) ;
#44 = ORIENTED_EDGE ( 'NONE', *, *, #1205, .F. ) ;
#45 = DIRECTION ( 'NONE',  ( 0.9925461516413219831, -0.1218693434051475871, 0.000000000000000000 ) ) ;
#46 = APPLICATION_CONTEXT ( 'automotive_design' ) ;
#47 = CARTESIAN_POINT ( 'NONE',  ( 0.2122292933583076746, 0.7540079504585242010, -1.228301132161428999 ) ) ;
#48 = AXIS2_PLACEMENT_3D ( 'NONE', #555, #451, #177 ) ;
#49 = CARTESIAN_POINT ( 'NONE',  ( 0.8750000000000002220, -0.2984582311920155329, -0.7070038717049417221 ) ) ;
#50 = ORIENTED_EDGE ( 'NONE', *, *, #346, .F. ) ;
#51 = DIRECTION ( 'NONE',  ( -1.000000000000000000, -0.000000000000000000, -0.000000000000000000 ) ) ;
#52 = CIRCLE ( 'NONE', #1050, 0.3509999999999999787 ) ;
#53 = CARTESIAN_POINT ( 'NONE',  ( 0.04838825593254971608, 1.067261513540418427E-16, 0.6939316508225477076 ) ) ;
#54 = EDGE_CURVE ( 'NONE', #920, #694, #625, .T. ) ;
#55 = CYLINDRICAL_SURFACE ( 'NONE', #107, 1.298999999999999932 ) ;
#56 = AXIS2_PLACEMENT_3D ( 'NONE', #337, #621, #873 ) ;
#57 = EDGE_CURVE ( 'NONE', #113, #1009, #259, .T. ) ;
#58 = CARTESIAN_POINT ( 'NONE',  ( 1.750000000000000000, -0.5995673809148999167, 0.2984582311920159214 ) ) ;
#59 = ORIENTED_EDGE ( 'NONE', *, *, #968, .F. ) ;
#60 =( NAMED_UNIT ( * ) SI_UNIT ( $, .STERADIAN. ) SOLID_ANGLE_UNIT ( ) );
#61 = CARTESIAN_POINT ( 'NONE',  ( 0.000000000000000000, -0.8144403624949831944, -0.2984582311920159770 ) ) ;
#62 = UNCERTAINTY_MEASURE_WITH_UNIT (LENGTH_MEASURE( 1.000000000000000082E-05 ), #1133, 'distance_accuracy_value', 'NONE');
#63 = DIRECTION ( 'NONE',  ( -1.000000000000000000, -0.000000000000000000, -0.000000000000000000 ) ) ;
#64 = EDGE_CURVE ( 'NONE', #1129, #775, #996, .T. ) ;
#65 = DIRECTION ( 'NONE',  ( 0.000000000000000000, 0.9335804264972015210, -0.3583679495453008235 ) ) ;
#66 = CIRCLE ( 'NONE', #634, 2.755102040816326703 ) ;
#67 = VERTEX_POINT ( 'NONE', #153 ) ;
#68 = AXIS2_PLACEMENT_3D ( 'NONE', #455, #927, #273 ) ;
#69 = DIRECTION ( 'NONE',  ( -1.000000000000000000, -0.000000000000000000, -0.000000000000000000 ) ) ;
#70 = EDGE_CURVE ( 'NONE', #728, #217, #435, .T. ) ;
#71 = CARTESIAN_POINT ( 'NONE',  ( 0.04838825593254968138, 1.065143931172282676E-16, -0.6939316508225477076 ) ) ;
#72 = CARTESIAN_POINT ( 'NONE',  ( 82.15270800287211728, 0.000000000000000000, 0.000000000000000000 ) ) ;
#73 = AXIS2_PLACEMENT_3D ( 'NONE', #138, #616, #503 ) ;
#74 = ORIENTED_EDGE ( 'NONE', *, *, #245, .F. ) ;
#75 = ORIENTED_EDGE ( 'NONE', *, *, #538, .T. ) ;
#76 = EDGE_CURVE ( 'Bline2', #372, #1058, #279, .T. ) ;
#77 = ORIENTED_EDGE ( 'NONE', *, *, #122, .T. ) ;
#78 = CARTESIAN_POINT ( 'NONE',  ( 2.750999999999999002, 0.000000000000000000, 1.298999999999999932 ) ) ;
#79 = CARTESIAN_POINT ( 'NONE',  ( 4.606516183611335968, -0.5580532239357700597, -0.5580532239357701707 ) ) ;
#80 = ORIENTED_EDGE ( 'NONE', *, *, #955, .F. ) ;
#81 = DIRECTION ( 'NONE',  ( -1.000000000000000000, -0.000000000000000000, -0.000000000000000000 ) ) ;
#82 = ORIENTED_EDGE ( 'NONE', *, *, #192, .T. ) ;
#83 = EDGE_CURVE ( 'NONE', #1093, #1009, #128, .T. ) ;
#84 = CARTESIAN_POINT ( 'NONE',  ( 4.606516183611335968, -0.5580532239357700597, 0.5580532239357701707 ) ) ;
#85 = LINE ( 'NONE', #1100, #543 ) ;
#86 = UNCERTAINTY_MEASURE_WITH_UNIT (LENGTH_MEASURE( 1.000000000000000082E-05 ), #1132, 'distance_accuracy_value', 'NONE');
#87 = ORIENTED_EDGE ( 'NONE', *, *, #526, .T. ) ;
#88 = LINE ( 'NONE', #286, #732 ) ;
#89 = CIRCLE ( 'NONE', #275, 0.09999999999999982514 ) ;
#90 = DIRECTION ( 'NONE',  ( 0.000000000000000000, 0.000000000000000000, 1.000000000000000000 ) ) ;
#91 = EDGE_LOOP ( 'NONE', ( #310, #1011, #197, #1146 ) ) ;
#92 = DIRECTION ( 'NONE',  ( -0.000000000000000000, 1.000000000000000000, 1.224646799147353207E-16 ) ) ;
#93 = DIRECTION ( 'NONE',  ( -1.000000000000000000, -0.000000000000000000, -0.000000000000000000 ) ) ;
#94 = EDGE_CURVE ( 'NONE', #547, #826, #150, .T. ) ;
#95 = DIRECTION ( 'NONE',  ( 1.000000000000000000, 0.000000000000000000, 0.000000000000000000 ) ) ;
#96 = FACE_BOUND ( 'NONE', #909, .T. ) ;
#97 = LINE ( 'NONE', #780, #1206 ) ;
#98 = DIRECTION ( 'NONE',  ( 0.8926702611364458750, 0.2644449429956669539, -0.3649776390501311973 ) ) ;
#99 = ORIENTED_EDGE ( 'NONE', *, *, #171, .F. ) ;
#100 = EDGE_LOOP ( 'NONE', ( #272, #1208, #99, #132 ) ) ;
#101 = AXIS2_PLACEMENT_3D ( 'NONE', #691, #441, #1075 ) ;
#102 = AXIS2_PLACEMENT_3D ( 'NONE', #300, #490, #402 ) ;
#103 = DIRECTION ( 'NONE',  ( 0.000000000000000000, 1.000000000000000000, 0.000000000000000000 ) ) ;
#104 = CIRCLE ( 'NONE', #519, 0.1000000000000000472 ) ;
#105 = EDGE_CURVE ( 'NONE', #905, #13, #109, .T. ) ;
#106 = CARTESIAN_POINT ( 'NONE',  ( 82.15270800287211728, 0.000000000000000000, 1.499999999999989120 ) ) ;
#107 = AXIS2_PLACEMENT_3D ( 'NONE', #720, #93, #90 ) ;
#108 = ORIENTED_EDGE ( 'NONE', *, *, #64, .T. ) ;
#109 = CIRCLE ( 'NONE', #1092, 1.649999999999999911 ) ;
#110 = CARTESIAN_POINT ( 'NONE',  ( 1.750000000000000000, -5.421010862427522170E-17, 0.4849999999999998757 ) ) ;
#111 = DIRECTION ( 'NONE',  ( 0.08798131281535090387, 0.6919645723680254434, -0.7165502907562198986 ) ) ;
#112 = ADVANCED_FACE ( 'NONE', ( #510 ), #809, .T. ) ;
#113 = VERTEX_POINT ( 'NONE', #1004 ) ;
#114 = DIRECTION ( 'NONE',  ( -0.000000000000000000, -0.9335804264972015210, -0.3583679495453008235 ) ) ;
#115 = SURFACE_STYLE_FILL_AREA ( #1048 ) ;
#116 = DIRECTION ( 'NONE',  ( 0.000000000000000000, 0.000000000000000000, 1.000000000000000000 ) ) ;
#117 = ORIENTED_EDGE ( 'NONE', *, *, #879, .F. ) ;
#118 = CARTESIAN_POINT ( 'NONE',  ( 0.2122292933583078134, -0.7540079504585238679, 1.228301132161429665 ) ) ;
#119 = FACE_OUTER_BOUND ( 'NONE', #941, .T. ) ;
#120 = LINE ( 'NONE', #864, #291 ) ;
#121 = CIRCLE ( 'NONE', #68, 4.999364441949703419 ) ;
#122 = EDGE_CURVE ( 'NONE', #959, #1184, #1065, .T. ) ;
#123 = CARTESIAN_POINT ( 'NONE',  ( 1.750000000000000000, -0.4849999999999999867, -1.187907395172932446E-16 ) ) ;
#124 = PRESENTATION_LAYER_ASSIGNMENT (  '', '', ( #998 ) ) ;
#125 = DIRECTION ( 'NONE',  ( -1.000000000000000000, -0.000000000000000000, -0.000000000000000000 ) ) ;
#126 = ORIENTED_EDGE ( 'NONE', *, *, #943, .F. ) ;
#127 = MECHANICAL_DESIGN_GEOMETRIC_PRESENTATION_REPRESENTATION (  '', ( #522 ), #738 ) ;
#128 = LINE ( 'NONE', #605, #1214 ) ;
#129 = CIRCLE ( 'NONE', #982, 2.755102040816326703 ) ;
#130 = DIRECTION ( 'NONE',  ( 0.000000000000000000, 0.000000000000000000, -1.000000000000000000 ) ) ;
#131 = CARTESIAN_POINT ( 'NONE',  ( -3.442001378349206053, 0.000000000000000000, 0.000000000000000000 ) ) ;
#132 = ORIENTED_EDGE ( 'NONE', *, *, #582, .F. ) ;
#133 = DIRECTION ( 'NONE',  ( 0.000000000000000000, 0.000000000000000000, 1.000000000000000000 ) ) ;
#134 = LINE ( 'NONE', #994, #539 ) ;
#135 = DIRECTION ( 'NONE',  ( -0.000000000000000000, 0.3583679495452994357, -0.9335804264972020761 ) ) ;
#136 = CARTESIAN_POINT ( 'NONE',  ( 82.15270800287211728, 0.000000000000000000, 1.499999999999989120 ) ) ;
#137 = ORIENTED_EDGE ( 'NONE', *, *, #806, .T. ) ;
#138 = CARTESIAN_POINT ( 'NONE',  ( 3.228289321881351981, 0.000000000000000000, 0.000000000000000000 ) ) ;
#139 = FACE_OUTER_BOUND ( 'NONE', #22, .T. ) ;
#140 = AXIS2_PLACEMENT_3D ( 'NONE', #376, #922, #159 ) ;
#141 = EDGE_CURVE ( 'NONE', #1019, #1198, #1153, .T. ) ;
#142 = CARTESIAN_POINT ( 'NONE',  ( 3.400000000000000355, 0.000000000000000000, 0.000000000000000000 ) ) ;
#143 = AXIS2_PLACEMENT_3D ( 'NONE', #174, #81, #834 ) ;
#144 = CONICAL_SURFACE ( 'NONE', #839, 1.499999999999989120, 1.051888018552857407 ) ;
#145 = AXIS2_PLACEMENT_3D ( 'NONE', #712, #619, #1000 ) ;
#146 = ORIENTED_EDGE ( 'NONE', *, *, #889, .T. ) ;
#147 = DIRECTION ( 'NONE',  ( -1.000000000000000000, -0.000000000000000000, -0.000000000000000000 ) ) ;
#148 = AXIS2_PLACEMENT_3D ( 'NONE', #358, #378, #1213 ) ;
#149 = DIRECTION ( 'NONE',  ( 0.000000000000000000, 0.000000000000000000, -1.000000000000000000 ) ) ;
#150 = CIRCLE ( 'NONE', #73, 1.328289321881344742 ) ;
#151 = DIRECTION ( 'NONE',  ( 0.08798131281535090387, -0.6919645723680249993, 0.7165502907562201207 ) ) ;
#152 = ORIENTED_EDGE ( 'NONE', *, *, #711, .F. ) ;
#153 = CARTESIAN_POINT ( 'NONE',  ( 0.2122292944384882030, 0.7540079501385311689, 1.228301131719786277 ) ) ;
#154 = DIRECTION ( 'NONE',  ( -1.000000000000000000, -0.000000000000000000, -0.000000000000000000 ) ) ;
#155 = DIRECTION ( 'NONE',  ( 0.000000000000000000, -1.000000000000000000, 0.000000000000000000 ) ) ;
#156 = ORIENTED_EDGE ( 'NONE', *, *, #20, .T. ) ;
#157 = ORIENTED_EDGE ( 'NONE', *, *, #556, .T. ) ;
#158 = ADVANCED_FACE ( 'NONE', ( #689 ), #882, .T. ) ;
#159 = DIRECTION ( 'NONE',  ( 0.000000000000000000, 0.7193398003386520800, -0.6946583704589962549 ) ) ;
#160 = DIRECTION ( 'NONE',  ( 0.9925461516413219831, 0.1218693434051475871, -3.074630554004708841E-17 ) ) ;
#161 = CIRCLE ( 'NONE', #655, 0.1000000000000000472 ) ;
#162 = CIRCLE ( 'NONE', #934, 1.499999999999990230 ) ;
#163 = ORIENTED_EDGE ( 'NONE', *, *, #1159, .T. ) ;
#164 = EDGE_LOOP ( 'NONE', ( #391, #108, #1152, #7 ) ) ;
#165 = ORIENTED_EDGE ( 'NONE', *, *, #375, .T. ) ;
#166 = CARTESIAN_POINT ( 'NONE',  ( -3.442001378349206053, 0.000000000000000000, 1.499999999999999556 ) ) ;
#167 = AXIS2_PLACEMENT_3D ( 'NONE', #382, #295, #561 ) ;
#168 = AXIS2_PLACEMENT_3D ( 'NONE', #719, #92, #277 ) ;
#169 = CARTESIAN_POINT ( 'NONE',  ( 0.07431333771310642822, 0.2984582311920158104, 0.8053158319546499522 ) ) ;
#170 = DIRECTION ( 'NONE',  ( 0.1138834974989063470, 0.3560364475175780141, -0.9275066560604725563 ) ) ;
#171 = EDGE_CURVE ( 'NONE', #394, #775, #324, .T. ) ;
#172 = EDGE_LOOP ( 'NONE', ( #743, #705, #1207 ) ) ;
#173 = ORIENTED_EDGE ( 'NONE', *, *, #1183, .F. ) ;
#174 = CARTESIAN_POINT ( 'NONE',  ( 82.15270800287211728, 0.000000000000000000, 0.000000000000000000 ) ) ;
#175 = EDGE_LOOP ( 'NONE', ( #931, #269, #632, #1204 ) ) ;
#176 = DIRECTION ( 'NONE',  ( -1.000000000000000000, -0.000000000000000000, -0.000000000000000000 ) ) ;
#177 = DIRECTION ( 'NONE',  ( 0.000000000000000000, 0.000000000000000000, -1.000000000000000000 ) ) ;
#178 = PLANE ( 'NONE',  #14 ) ;
#179 = ADVANCED_FACE ( 'NONE', ( #423 ), #429, .F. ) ;
#180 = EDGE_CURVE ( 'NONE', #1191, #494, #958, .T. ) ;
#181 = EDGE_LOOP ( 'NONE', ( #117, #189, #531, #537, #1101, #628, #466, #453, #1045, #849, #713, #296, #454, #585 ) ) ;
#182 = ADVANCED_FACE ( 'NONE', ( #749 ), #1002, .F. ) ;
#183 = ORIENTED_EDGE ( 'NONE', *, *, #246, .F. ) ;
#184 = VERTEX_POINT ( 'NONE', #493 ) ;
#185 = EDGE_CURVE ( 'NONE', #852, #631, #1168, .T. ) ;
#186 = FACE_OUTER_BOUND ( 'NONE', #1114, .T. ) ;
#187 = CARTESIAN_POINT ( 'NONE',  ( 0.9109903399478264108, 3.306546357697853240E-16, 2.699999999999999734 ) ) ;
#188 = TOROIDAL_SURFACE ( 'NONE', #890, 1.399000000000000021, 0.1000000000000000056 ) ;
#189 = ORIENTED_EDGE ( 'NONE', *, *, #246, .T. ) ;
#190 = ORIENTED_EDGE ( 'NONE', *, *, #371, .T. ) ;
#191 = DIRECTION ( 'NONE',  ( -1.000000000000000000, -0.000000000000000000, -0.000000000000000000 ) ) ;
#192 = EDGE_CURVE ( 'NONE', #694, #629, #229, .T. ) ;
#193 = CARTESIAN_POINT ( 'NONE',  ( 1.750000000000000000, -0.2984582311920153663, 0.5995673809149002498 ) ) ;
#194 = AXIS2_PLACEMENT_3D ( 'NONE', #811, #1180, #340 ) ;
#195 = EDGE_CURVE ( 'NONE', #640, #803, #1063, .T. ) ;
#196 = VECTOR ( 'NONE', #318, 1000.000000000000114 ) ;
#197 = ORIENTED_EDGE ( 'NONE', *, *, #829, .T. ) ;
#198 = EDGE_LOOP ( 'NONE', ( #77, #163, #422, #1105 ) ) ;
#199 = FACE_OUTER_BOUND ( 'NONE', #274, .T. ) ;
#200 = DIRECTION ( 'NONE',  ( -1.000000000000000000, -0.000000000000000000, -0.000000000000000000 ) ) ;
#201 = LINE ( 'NONE', #877, #1034 ) ;
#202 = EDGE_CURVE ( 'NONE', #544, #640, #34, .T. ) ;
#203 = ORIENTED_EDGE ( 'NONE', *, *, #989, .F. ) ;
#204 = SURFACE_STYLE_FILL_AREA ( #764 ) ;
#205 = DIRECTION ( 'NONE',  ( -0.4461978145050308209, -0.6328141553137596187, -0.6328141553137597297 ) ) ;
#206 = LINE ( 'NONE', #401, #462 ) ;
#207 = EDGE_CURVE ( 'NONE', #1058, #1086, #702, .T. ) ;
#208 = ORIENTED_EDGE ( 'NONE', *, *, #975, .F. ) ;
#209 = AXIS2_PLACEMENT_3D ( 'NONE', #307, #200, #407 ) ;
#210 = CARTESIAN_POINT ( 'NONE',  ( 0.2122292944384881197, -0.7540079501385310579, -1.228301131719786277 ) ) ;
#211 = EDGE_CURVE ( 'NONE', #1071, #494, #1082, .T. ) ;
#212 = LINE ( 'NONE', #1060, #600 ) ;
#213 = CARTESIAN_POINT ( 'NONE',  ( 5.009078719685259529, -0.07394023823922619976, -0.02838299820198920270 ) ) ;
#214 =( GEOMETRIC_REPRESENTATION_CONTEXT ( 3 ) GLOBAL_UNCERTAINTY_ASSIGNED_CONTEXT ( ( #86 ) ) GLOBAL_UNIT_ASSIGNED_CONTEXT ( ( #1132, #590, #587 ) ) REPRESENTATION_CONTEXT ( 'NONE', 'WORKASPACE' ) );
#215 = UNCERTAINTY_MEASURE_WITH_UNIT (LENGTH_MEASURE( 1.000000000000000082E-05 ), #986, 'distance_accuracy_value', 'NONE');
#216 = ADVANCED_FACE ( 'NONE', ( #333 ), #415, .T. ) ;
#217 = VERTEX_POINT ( 'NONE', #1163 ) ;
#218 = AXIS2_PLACEMENT_3D ( 'NONE', #707, #328, #250 ) ;
#219 = LINE ( 'NONE', #110, #917 ) ;
#220 = DIRECTION ( 'NONE',  ( 0.000000000000000000, 1.224646799147353454E-16, 1.000000000000000000 ) ) ;
#221 = LINE ( 'NONE', #947, #360 ) ;
#222 = DIRECTION ( 'NONE',  ( 0.9925461516413219831, 0.1218693434051475871, 3.074630554004708841E-17 ) ) ;
#223 = EDGE_LOOP ( 'NONE', ( #874, #165, #523, #75 ) ) ;
#224 = CARTESIAN_POINT ( 'NONE',  ( 3.157578643762697812, 0.000000000000000000, 0.000000000000000000 ) ) ;
#225 = CARTESIAN_POINT ( 'NONE',  ( 0.8275411632120673877, -2.755102040816327147, -3.374026895610055907E-16 ) ) ;
#226 = FACE_OUTER_BOUND ( 'NONE', #916, .T. ) ;
#227 = AXIS2_PLACEMENT_3D ( 'NONE', #496, #297, #1043 ) ;
#228 = EDGE_CURVE ( 'NONE', #261, #1086, #900, .T. ) ;
#229 = LINE ( 'NONE', #242, #567 ) ;
#230 = ORIENTED_EDGE ( 'NONE', *, *, #21, .T. ) ;
#231 = TOROIDAL_SURFACE ( 'NONE', #209, 1.649999999999999911, 0.3509999999999999787 ) ;
#232 = EDGE_CURVE ( 'NONE', #622, #1198, #614, .T. ) ;
#233 = DIRECTION ( 'NONE',  ( 0.9925461516413219831, -2.152241387803296250E-16, -0.1218693434051473928 ) ) ;
#234 = AXIS2_PLACEMENT_3D ( 'NONE', #672, #1049, #116 ) ;
#235 = CARTESIAN_POINT ( 'NONE',  ( 1.750000000000000000, -0.5995673809148999167, -0.2984582311920159214 ) ) ;
#236 = VECTOR ( 'NONE', #940, 1000.000000000000227 ) ;
#237 = FACE_OUTER_BOUND ( 'NONE', #1178, .T. ) ;
#238 = ORIENTED_EDGE ( 'NONE', *, *, #171, .T. ) ;
#239 = PRESENTATION_LAYER_ASSIGNMENT (  '', '', ( #522 ) ) ;
#240 = CARTESIAN_POINT ( 'NONE',  ( 0.000000000000000000, 0.8144403624949831944, 0.2984582311920156994 ) ) ;
#241 = CARTESIAN_POINT ( 'NONE',  ( 3.228289321881351981, 1.731827732552307586E-16, 1.328289321881344520 ) ) ;
#242 = CARTESIAN_POINT ( 'NONE',  ( 0.000000000000000000, -0.2984582311920156439, 0.8144403624949831944 ) ) ;
#243 = ORIENTED_EDGE ( 'NONE', *, *, #686, .F. ) ;
#244 = CARTESIAN_POINT ( 'NONE',  ( 2.750999999999999002, 0.000000000000000000, 0.000000000000000000 ) ) ;
#245 = EDGE_CURVE ( 'NONE', #629, #728, #433, .T. ) ;
#246 = EDGE_CURVE ( 'NONE', #783, #488, #129, .T. ) ;
#247 = CARTESIAN_POINT ( 'NONE',  ( 0.07431333771310640046, -0.2984582311920156994, -0.8053158319546501742 ) ) ;
#248 = CARTESIAN_POINT ( 'NONE',  ( 0.9109903399478264108, 0.000000000000000000, 0.000000000000000000 ) ) ;
#249 = ADVANCED_FACE ( 'NONE', ( #500 ), #508, .F. ) ;
#250 = DIRECTION ( 'NONE',  ( 0.000000000000000000, 0.000000000000000000, -1.000000000000000000 ) ) ;
#251 = ORIENTED_EDGE ( 'NONE', *, *, #879, .T. ) ;
#252 = CARTESIAN_POINT ( 'NONE',  ( 5.009078719685259529, 0.02838299820198966414, 0.07394023823922721284 ) ) ;
#253 = PRODUCT_DEFINITION ( '未知', '', #347, #748 ) ;
#254 = DIRECTION ( 'NONE',  ( 0.000000000000000000, 0.6946583704589960329, 0.7193398003386524131 ) ) ;
#255 = DIRECTION ( 'NONE',  ( -1.000000000000000000, -0.000000000000000000, -0.000000000000000000 ) ) ;
#256 = EDGE_LOOP ( 'NONE', ( #1013, #573 ) ) ;
#257 = DIRECTION ( 'NONE',  ( -0.8926702611364460971, -0.3649776390501308088, 0.2644449429956671205 ) ) ;
#258 = DIRECTION ( 'NONE',  ( 0.000000000000000000, 0.9335804264972020761, -0.3583679495452994357 ) ) ;
#259 = CIRCLE ( 'NONE', #604, 1.298999999999999932 ) ;
#260 = ORIENTED_EDGE ( 'NONE', *, *, #538, .F. ) ;
#261 = VERTEX_POINT ( 'NONE', #1070 ) ;
#262 = ORIENTED_EDGE ( 'NONE', *, *, #556, .F. ) ;
#263 = ORIENTED_EDGE ( 'NONE', *, *, #459, .T. ) ;
#264 = CARTESIAN_POINT ( 'NONE',  ( 0.000000000000000000, -0.6998729815800832643, -1.714194413403527111E-16 ) ) ;
#265 = DIRECTION ( 'NONE',  ( 0.000000000000000000, -0.7071067811865475727, -0.7071067811865474617 ) ) ;
#266 = ADVANCED_FACE ( 'Bface2', ( #237 ), #602, .T. ) ;
#267 = CARTESIAN_POINT ( 'NONE',  ( 0.000000000000000000, 1.084202172485504434E-16, -0.6998729815800831533 ) ) ;
#268 = CIRCLE ( 'NONE', #516, 4.999364441949703419 ) ;
#269 = ORIENTED_EDGE ( 'NONE', *, *, #709, .T. ) ;
#270 = AXIS2_PLACEMENT_3D ( 'NONE', #725, #828, #913 ) ;
#271 = VECTOR ( 'NONE', #548, 1000.000000000000000 ) ;
#272 = ORIENTED_EDGE ( 'NONE', *, *, #141, .T. ) ;
#273 = DIRECTION ( 'NONE',  ( 0.000000000000000000, 0.9335804264972020761, -0.3583679495452993802 ) ) ;
#274 = EDGE_LOOP ( 'NONE', ( #750, #290, #990, #323 ) ) ;
#275 = AXIS2_PLACEMENT_3D ( 'NONE', #187, #1056, #220 ) ;
#276 = AXIS2_PLACEMENT_3D ( 'NONE', #1022, #457, #740 ) ;
#277 = DIRECTION ( 'NONE',  ( 0.000000000000000000, -1.224646799147352961E-16, 1.000000000000000000 ) ) ;
#278 = CARTESIAN_POINT ( 'NONE',  ( 3.228289321881351981, 0.000000000000000000, 0.000000000000000000 ) ) ;
#279 = CIRCLE ( 'NONE', #1149, 2.799999999999999822 ) ;
#280 = VERTEX_POINT ( 'NONE', #421 ) ;
#281 = CARTESIAN_POINT ( 'NONE',  ( 3.157578643762697812, 0.000000000000000000, 0.000000000000000000 ) ) ;
#282 = CARTESIAN_POINT ( 'NONE',  ( 0.07431333771314195535, -0.2984582311920156439, 0.8053158319546458443 ) ) ;
#283 = EDGE_CURVE ( 'NONE', #977, #827, #792, .T. ) ;
#284 = ORIENTED_EDGE ( 'NONE', *, *, #377, .F. ) ;
#285 = AXIS2_PLACEMENT_3D ( 'NONE', #855, #949, #103 ) ;
#286 = CARTESIAN_POINT ( 'NONE',  ( 1.750000000000000000, 0.4849999999999999867, 0.000000000000000000 ) ) ;
#287 = EDGE_CURVE ( 'NONE', #1003, #977, #121, .T. ) ;
#288 = DIRECTION ( 'NONE',  ( 0.000000000000000000, 0.000000000000000000, 1.000000000000000000 ) ) ;
#289 = CIRCLE ( 'NONE', #341, 4.999605077635992600 ) ;
#290 = ORIENTED_EDGE ( 'NONE', *, *, #232, .T. ) ;
#291 = VECTOR ( 'NONE', #98, 1000.000000000000114 ) ;
#292 = DIRECTION ( 'NONE',  ( 0.000000000000000000, -1.224646799147353207E-16, 1.000000000000000000 ) ) ;
#293 = CARTESIAN_POINT ( 'NONE',  ( 1.750000000000000000, -5.421010862427522170E-17, 0.4849999999999998757 ) ) ;
#294 = AXIS2_PLACEMENT_3D ( 'NONE', #824, #352, #1110 ) ;
#295 = DIRECTION ( 'NONE',  ( 0.08798131281535113979, -0.7165502907562204538, 0.6919645723680247773 ) ) ;
#296 = ORIENTED_EDGE ( 'NONE', *, *, #806, .F. ) ;
#297 = DIRECTION ( 'NONE',  ( -1.000000000000000000, 0.000000000000000000, -0.000000000000000000 ) ) ;
#298 = EDGE_CURVE ( 'NONE', #640, #544, #1087, .T. ) ;
#299 = DIRECTION ( 'NONE',  ( 0.8926702611364459861, -0.2644449429956672315, 0.3649776390501308643 ) ) ;
#300 = CARTESIAN_POINT ( 'NONE',  ( 3.157578643762697812, 0.000000000000000000, 0.000000000000000000 ) ) ;
#301 = EDGE_LOOP ( 'NONE', ( #963, #33, #866, #1216 ) ) ;
#302 = LINE ( 'NONE', #778, #491 ) ;
#303 = CARTESIAN_POINT ( 'NONE',  ( 5.000000000000000000, 0.000000000000000000, 0.000000000000000000 ) ) ;
#304 = EDGE_LOOP ( 'NONE', ( #825, #50, #648, #1036 ) ) ;
#305 = CARTESIAN_POINT ( 'NONE',  ( 3.157578643762697812, 0.000000000000000000, 1.298999999999999932 ) ) ;
#306 = AXIS2_PLACEMENT_3D ( 'NONE', #643, #176, #554 ) ;
#307 = CARTESIAN_POINT ( 'NONE',  ( 2.750999999999999002, 0.000000000000000000, 0.000000000000000000 ) ) ;
#308 = DIRECTION ( 'NONE',  ( 0.000000000000000000, -0.3583679495452993802, -0.9335804264972020761 ) ) ;
#309 = VECTOR ( 'NONE', #966, 1000.000000000000000 ) ;
#310 = ORIENTED_EDGE ( 'NONE', *, *, #1052, .T. ) ;
#311 = AXIS2_PLACEMENT_3D ( 'NONE', #1170, #403, #1134 ) ;
#312 = CARTESIAN_POINT ( 'NONE',  ( 0.000000000000000000, 0.6998729815800832643, 0.000000000000000000 ) ) ;
#313 = DIRECTION ( 'NONE',  ( 0.000000000000000000, 0.7193398003386517470, 0.6946583704589966990 ) ) ;
#314 = CARTESIAN_POINT ( 'NONE',  ( 0.2122292933583083130, -1.228301132161429221, -0.7540079504585245340 ) ) ;
#315 = DIRECTION ( 'NONE',  ( -1.000000000000000000, -0.000000000000000000, -0.000000000000000000 ) ) ;
#316 = ORIENTED_EDGE ( 'NONE', *, *, #105, .T. ) ;
#317 = ADVANCED_FACE ( 'NONE', ( #1192 ), #1020, .F. ) ;
#318 = DIRECTION ( 'NONE',  ( 0.9925461516413219831, -0.1218693434051475871, 0.000000000000000000 ) ) ;
#319 =( LENGTH_UNIT ( ) NAMED_UNIT ( * ) SI_UNIT ( .MILLI., .METRE. ) );
#320 = CARTESIAN_POINT ( 'NONE',  ( 82.15270800287211728, 1.836970198721023031E-16, -1.499999999999989120 ) ) ;
#321 = DIRECTION ( 'NONE',  ( 0.000000000000000000, -0.7193398003386520800, -0.6946583704589963659 ) ) ;
#322 = DIRECTION ( 'NONE',  ( 0.9925461516413219831, 1.844778332402824935E-16, 0.1218693434051474345 ) ) ;
#323 = ORIENTED_EDGE ( 'NONE', *, *, #459, .F. ) ;
#324 = LINE ( 'NONE', #240, #801 ) ;
#325 = CARTESIAN_POINT ( 'NONE',  ( 0.8275411632120673877, 0.000000000000000000, 0.000000000000000000 ) ) ;
#326 = CIRCLE ( 'NONE', #521, 4.921617994597914603 ) ;
#327 = EDGE_CURVE ( 'NONE', #803, #731, #774, .T. ) ;
#328 = DIRECTION ( 'NONE',  ( 0.000000000000000000, -1.000000000000000000, 0.000000000000000000 ) ) ;
#329 = ORIENTED_EDGE ( 'NONE', *, *, #283, .F. ) ;
#330 =( LENGTH_UNIT ( ) NAMED_UNIT ( * ) SI_UNIT ( .MILLI., .METRE. ) );
#331 = AXIS2_PLACEMENT_3D ( 'NONE', #777, #95, #495 ) ;
#332 = FACE_OUTER_BOUND ( 'NONE', #511, .T. ) ;
#333 = FACE_OUTER_BOUND ( 'NONE', #223, .T. ) ;
#334 = ORIENTED_EDGE ( 'NONE', *, *, #701, .T. ) ;
#335 = EDGE_CURVE ( 'NONE', #731, #803, #577, .T. ) ;
#336 = DIRECTION ( 'NONE',  ( -1.000000000000000000, -0.000000000000000000, -0.000000000000000000 ) ) ;
#337 = CARTESIAN_POINT ( 'NONE',  ( 1.750000000000000000, -0.2984582311920153663, -0.5995673809149002498 ) ) ;
#338 = DIRECTION ( 'NONE',  ( -0.8926702611364459861, -0.2644449429956668984, -0.3649776390501311418 ) ) ;
#339 = ORIENTED_EDGE ( 'NONE', *, *, #1205, .T. ) ;
#340 = DIRECTION ( 'NONE',  ( 1.000000000000000000, 0.000000000000000000, 0.000000000000000000 ) ) ;
#341 = AXIS2_PLACEMENT_3D ( 'NONE', #812, #884, #1090 ) ;
#342 = CARTESIAN_POINT ( 'NONE',  ( 5.009078719685259529, -0.02838299820198962944, 0.07394023823922721284 ) ) ;
#343 = ORIENTED_EDGE ( 'NONE', *, *, #1091, .F. ) ;
#344 = CIRCLE ( 'NONE', #168, 0.3509999999999999787 ) ;
#345 = ORIENTED_EDGE ( 'NONE', *, *, #381, .F. ) ;
#346 = EDGE_CURVE ( 'NONE', #13, #905, #1162, .T. ) ;
#347 = PRODUCT_DEFINITION_FORMATION_WITH_SPECIFIED_SOURCE ( '任何', '', #800, .NOT_KNOWN. ) ;
#348 = FACE_OUTER_BOUND ( 'NONE', #1122, .T. ) ;
#349 = AXIS2_PLACEMENT_3D ( 'NONE', #1088, #51, #1072 ) ;
#350 = FACE_OUTER_BOUND ( 'NONE', #1096, .T. ) ;
#351 = EDGE_CURVE ( 'NONE', #514, #1191, #893, .T. ) ;
#352 = DIRECTION ( 'NONE',  ( -1.000000000000000000, 0.000000000000000000, -0.000000000000000000 ) ) ;
#353 = ORIENTED_EDGE ( 'NONE', *, *, #335, .F. ) ;
#354 = ORIENTED_EDGE ( 'NONE', *, *, #908, .F. ) ;
#355 = ORIENTED_EDGE ( 'NONE', *, *, #975, .T. ) ;
#356 = CARTESIAN_POINT ( 'NONE',  ( 5.009078719685259529, 0.02838299820198966414, -0.07394023823922721284 ) ) ;
#357 = EDGE_CURVE ( 'NONE', #1003, #184, #201, .T. ) ;
#358 = CARTESIAN_POINT ( 'NONE',  ( 1.750000000000000000, 0.5995673809148999167, -0.2984582311920157549 ) ) ;
#359 = AXIS2_PLACEMENT_3D ( 'NONE', #700, #601, #149 ) ;
#360 = VECTOR ( 'NONE', #398, 1000.000000000000000 ) ;
#361 = ORIENTED_EDGE ( 'NONE', *, *, #709, .F. ) ;
#362 = CIRCLE ( 'NONE', #388, 4.921617994597914603 ) ;
#363 = CIRCLE ( 'NONE', #145, 4.999364441949703419 ) ;
#364 = EDGE_LOOP ( 'NONE', ( #146, #1120, #1017, #926 ) ) ;
#365 = ORIENTED_EDGE ( 'NONE', *, *, #207, .F. ) ;
#366 = AXIS2_PLACEMENT_3D ( 'NONE', #973, #1044, #680 ) ;
#367 = AXIS2_PLACEMENT_3D ( 'NONE', #624, #41, #698 ) ;
#368 = DIRECTION ( 'NONE',  ( 0.000000000000000000, 0.000000000000000000, 1.000000000000000000 ) ) ;
#369 = DIRECTION ( 'NONE',  ( 0.08798131281535084836, 0.6919645723680253324, 0.7165502907562198986 ) ) ;
#370 = VECTOR ( 'NONE', #594, 1000.000000000000114 ) ;
#371 = EDGE_CURVE ( 'NONE', #1185, #629, #120, .T. ) ;
#372 = VERTEX_POINT ( 'NONE', #414 ) ;
#373 = VERTEX_POINT ( 'NONE', #314 ) ;
#374 = CARTESIAN_POINT ( 'NONE',  ( 3.157578643762697812, 1.713280872007147164E-16, -1.399000000000000021 ) ) ;
#375 = EDGE_CURVE ( 'NONE', #373, #494, #221, .T. ) ;
#376 = CARTESIAN_POINT ( 'NONE',  ( 4.994471112842468585, 0.04348416629860508281, 0.04502917237211596230 ) ) ;
#377 = EDGE_CURVE ( 'NONE', #547, #563, #662, .T. ) ;
#378 = DIRECTION ( 'NONE',  ( -0.4461978145050308209, -0.6328141553137596187, 0.6328141553137597297 ) ) ;
#379 = ORIENTED_EDGE ( 'NONE', *, *, #989, .T. ) ;
#380 = FACE_OUTER_BOUND ( 'NONE', #181, .T. ) ;
#381 = EDGE_CURVE ( 'NONE', #731, #563, #869, .T. ) ;
#382 = CARTESIAN_POINT ( 'NONE',  ( 4.994471112842468585, 0.04502917237211653823, -0.04348416629860561711 ) ) ;
#383 = EDGE_CURVE ( 'NONE', #1093, #948, #636, .T. ) ;
#384 = AXIS2_PLACEMENT_3D ( 'NONE', #627, #1005, #534 ) ;
#385 = ORIENTED_EDGE ( 'NONE', *, *, #180, .F. ) ;
#386 = CYLINDRICAL_SURFACE ( 'NONE', #349, 1.499999999999999556 ) ;
#387 = DIRECTION ( 'NONE',  ( 0.000000000000000000, -0.3583679495452994357, 0.9335804264972020761 ) ) ;
#388 = AXIS2_PLACEMENT_3D ( 'NONE', #84, #1107, #265 ) ;
#389 = DIRECTION ( 'NONE',  ( 0.000000000000000000, 0.7071067811865479058, -0.7071067811865472397 ) ) ;
#390 = SURFACE_STYLE_FILL_AREA ( #759 ) ;
#391 = ORIENTED_EDGE ( 'NONE', *, *, #663, .T. ) ;
#392 = VECTOR ( 'NONE', #1059, 1000.000000000000227 ) ;
#393 = ORIENTED_EDGE ( 'NONE', *, *, #228, .T. ) ;
#394 = VERTEX_POINT ( 'NONE', #591 ) ;
#395 = DIRECTION ( 'NONE',  ( 0.7071067811865521247, 8.659560562354877391E-17, 0.7071067811865430208 ) ) ;
#396 = ADVANCED_FACE ( 'NONE', ( #1145 ), #482, .T. ) ;
#397 = DIRECTION ( 'NONE',  ( -0.000000000000000000, 0.000000000000000000, 1.000000000000000000 ) ) ;
#398 = DIRECTION ( 'NONE',  ( 0.8926702611364459861, 0.3649776390501309198, 0.2644449429956671205 ) ) ;
#399 = ORIENTED_EDGE ( 'NONE', *, *, #335, .T. ) ;
#400 = CARTESIAN_POINT ( 'NONE',  ( 0.8750000000000002220, 0.9573203475728210288, -0.5576685299944313945 ) ) ;
#401 = CARTESIAN_POINT ( 'NONE',  ( 82.15270800287211728, 1.836970198721016622E-16, -1.499999999999989120 ) ) ;
#402 = DIRECTION ( 'NONE',  ( 0.000000000000000000, 0.000000000000000000, 1.000000000000000000 ) ) ;
#403 = DIRECTION ( 'NONE',  ( 0.08798131281535116754, -0.7165502907562204538, -0.6919645723680247773 ) ) ;
#404 = ORIENTED_EDGE ( 'NONE', *, *, #1183, .T. ) ;
#405 = CARTESIAN_POINT ( 'NONE',  ( 2.399999999999999467, 0.000000000000000000, 1.649999999999999911 ) ) ;
#406 = DIRECTION ( 'NONE',  ( 0.1138834974989065690, 0.9275066560604725563, 0.3560364475175776255 ) ) ;
#407 = DIRECTION ( 'NONE',  ( 0.000000000000000000, 0.000000000000000000, 1.000000000000000000 ) ) ;
#408 = DIRECTION ( 'NONE',  ( 0.1138834974989065968, -0.9275066560604727783, -0.3560364475175772925 ) ) ;
#409 = EDGE_CURVE ( 'NONE', #615, #514, #541, .T. ) ;
#410 = DIRECTION ( 'NONE',  ( -1.000000000000000000, -0.000000000000000000, -0.000000000000000000 ) ) ;
#411 = ORIENTED_EDGE ( 'NONE', *, *, #94, .F. ) ;
#412 = ADVANCED_FACE ( 'NONE', ( #226 ), #9, .T. ) ;
#413 = CARTESIAN_POINT ( 'NONE',  ( -3.442001378349206053, 0.000000000000000000, 0.000000000000000000 ) ) ;
#414 = CARTESIAN_POINT ( 'NONE',  ( 2.399999999999999467, 0.000000000000000000, 2.799999999999999822 ) ) ;
#415 = PLANE ( 'NONE',  #56 ) ;
#416 = ORIENTED_EDGE ( 'NONE', *, *, #1181, .F. ) ;
#417 = DIRECTION ( 'NONE',  ( -0.000000000000000000, 0.000000000000000000, 1.000000000000000000 ) ) ;
#418 = EDGE_CURVE ( 'NONE', #450, #563, #162, .T. ) ;
#419 = DIRECTION ( 'NONE',  ( -1.000000000000000000, -0.000000000000000000, -0.000000000000000000 ) ) ;
#420 = ADVANCED_FACE ( 'NONE', ( #498 ), #520, .F. ) ;
#421 = CARTESIAN_POINT ( 'NONE',  ( 1.750000000000000000, -5.421010862427522170E-17, 0.4849999999999998757 ) ) ;
#422 = ORIENTED_EDGE ( 'NONE', *, *, #889, .F. ) ;
#423 = FACE_OUTER_BOUND ( 'NONE', #172, .T. ) ;
#424 = CIRCLE ( 'NONE', #910, 1.298999999999999932 ) ;
#425 = AXIS2_PLACEMENT_3D ( 'NONE', #1041, #486, #308 ) ;
#426 = DIRECTION ( 'NONE',  ( 0.000000000000000000, 0.7193398003386520800, -0.6946583704589963659 ) ) ;
#427 = DIRECTION ( 'NONE',  ( -0.4959324508974817802, 0.000000000000000000, 0.8683611023916356642 ) ) ;
#428 = ORIENTED_EDGE ( 'NONE', *, *, #829, .F. ) ;
#429 = PLANE ( 'NONE',  #311 ) ;
#430 =( NAMED_UNIT ( * ) PLANE_ANGLE_UNIT ( ) SI_UNIT ( $, .RADIAN. ) );
#431 = AXIS2_PLACEMENT_3D ( 'NONE', #693, #255, #32 ) ;
#432 = CARTESIAN_POINT ( 'NONE',  ( 0.000000000000000000, 1.084202172485504434E-16, 0.6998729815800831533 ) ) ;
#433 = LINE ( 'NONE', #58, #878 ) ;
#434 = ORIENTED_EDGE ( 'NONE', *, *, #371, .F. ) ;
#435 = LINE ( 'NONE', #533, #1037 ) ;
#436 = SURFACE_SIDE_STYLE ('',( #1080 ) ) ;
#437 = LINE ( 'NONE', #1167, #814 ) ;
#438 = DIRECTION ( 'NONE',  ( 0.000000000000000000, 0.000000000000000000, -1.000000000000000000 ) ) ;
#439 = EDGE_LOOP ( 'NONE', ( #761, #80, #44 ) ) ;
#440 = DIRECTION ( 'NONE',  ( 0.9925461516413219831, -1.844778332402824935E-16, -0.1218693434051472402 ) ) ;
#441 = DIRECTION ( 'NONE',  ( -0.4461978145050308209, 0.6328141553137593966, -0.6328141553137599518 ) ) ;
#442 = VECTOR ( 'NONE', #572, 999.9999999999998863 ) ;
#443 = CIRCLE ( 'NONE', #895, 4.999364441949703419 ) ;
#444 = ORIENTED_EDGE ( 'NONE', *, *, #831, .F. ) ;
#445 = ORIENTED_EDGE ( 'NONE', *, *, #195, .T. ) ;
#446 = CARTESIAN_POINT ( 'NONE',  ( 0.000000000000000000, 1.084202172485504434E-16, 0.6998729815800831533 ) ) ;
#447 = AXIS2_PLACEMENT_3D ( 'NONE', #891, #1085, #901 ) ;
#448 = DIRECTION ( 'NONE',  ( 0.000000000000000000, -0.7193398003386518580, 0.6946583704589964769 ) ) ;
#449 = ORIENTED_EDGE ( 'NONE', *, *, #626, .F. ) ;
#450 = VERTEX_POINT ( 'NONE', #1068 ) ;
#451 = DIRECTION ( 'NONE',  ( 1.000000000000000000, 0.000000000000000000, 0.000000000000000000 ) ) ;
#452 = PLANE ( 'NONE',  #1128 ) ;
#453 = ORIENTED_EDGE ( 'NONE', *, *, #480, .T. ) ;
#454 = ORIENTED_EDGE ( 'NONE', *, *, #844, .T. ) ;
#455 = CARTESIAN_POINT ( 'NONE',  ( 5.009078719685259529, -0.02838299820198962944, -0.07394023823922721284 ) ) ;
#456 = ORIENTED_EDGE ( 'NONE', *, *, #1052, .F. ) ;
#457 = DIRECTION ( 'NONE',  ( 1.000000000000000000, 0.000000000000000000, 0.000000000000000000 ) ) ;
#458 = DIRECTION ( 'NONE',  ( 1.000000000000000000, 0.000000000000000000, 0.000000000000000000 ) ) ;
#459 = EDGE_CURVE ( 'NONE', #1031, #1019, #363, .T. ) ;
#460 = ORIENTED_EDGE ( 'NONE', *, *, #836, .F. ) ;
#461 = CARTESIAN_POINT ( 'NONE',  ( 0.8750000000000002220, -0.5576685299944311724, -0.9573203475728214729 ) ) ;
#462 = VECTOR ( 'NONE', #685, 1000.000000000000000 ) ;
#463 = CARTESIAN_POINT ( 'NONE',  ( 0.04838825593254938995, 0.6939316508225478186, 0.000000000000000000 ) ) ;
#464 = CARTESIAN_POINT ( 'NONE',  ( 0.000000000000000000, -0.2984582311920156439, 0.8144403624949831944 ) ) ;
#465 = PRESENTATION_LAYER_ASSIGNMENT (  '', '', ( #682 ) ) ;
#466 = ORIENTED_EDGE ( 'NONE', *, *, #663, .F. ) ;
#467 = CARTESIAN_POINT ( 'NONE',  ( 1.750000000000000000, -0.4849999999999999867, -1.187907395172932446E-16 ) ) ;
#468 = CARTESIAN_POINT ( 'NONE',  ( 0.000000000000000000, 1.084202172485504434E-16, 0.6998729815800831533 ) ) ;
#469 = ORIENTED_EDGE ( 'NONE', *, *, #933, .F. ) ;
#470 = CARTESIAN_POINT ( 'NONE',  ( 1.750000000000000000, 0.5995673809148999167, 0.2984582311920157549 ) ) ;
#471 = DIRECTION ( 'NONE',  ( -1.000000000000000000, -0.000000000000000000, -0.000000000000000000 ) ) ;
#472 = CARTESIAN_POINT ( 'NONE',  ( 1.750000000000000000, 0.4849999999999999867, 0.000000000000000000 ) ) ;
#473 = DIRECTION ( 'NONE',  ( 1.000000000000000000, 0.000000000000000000, 0.000000000000000000 ) ) ;
#474 = CARTESIAN_POINT ( 'NONE',  ( -3.442001378349206053, 1.836970198721029441E-16, -1.499999999999999556 ) ) ;
#475 = ORIENTED_EDGE ( 'NONE', *, *, #701, .F. ) ;
#476 = CIRCLE ( 'NONE', #1032, 4.999605077635992600 ) ;
#477 = VERTEX_POINT ( 'NONE', #1076 ) ;
#478 = DIRECTION ( 'NONE',  ( 0.000000000000000000, 0.000000000000000000, -1.000000000000000000 ) ) ;
#479 = AXIS2_PLACEMENT_3D ( 'NONE', #72, #1117, #288 ) ;
#480 = EDGE_CURVE ( 'NONE', #67, #959, #1210, .T. ) ;
#481 = SURFACE_STYLE_USAGE ( .BOTH. , #766 ) ;
#482 = CYLINDRICAL_SURFACE ( 'NONE', #234, 1.499999999999999556 ) ;
#483 = VECTOR ( 'NONE', #427, 1000.000000000000000 ) ;
#484 = ORIENTED_EDGE ( 'NONE', *, *, #899, .F. ) ;
#485 = SPHERICAL_SURFACE ( 'NONE', #285, 5.000000000000000000 ) ;
#486 = DIRECTION ( 'NONE',  ( 0.1138834974989065829, -0.9275066560604726673, 0.3560364475175776255 ) ) ;
#487 = EDGE_CURVE ( 'NONE', #728, #1071, #988, .T. ) ;
#488 = VERTEX_POINT ( 'NONE', #692 ) ;
#489 = CARTESIAN_POINT ( 'NONE',  ( 0.8275411632120673877, 2.755102040816327147, 0.000000000000000000 ) ) ;
#490 = DIRECTION ( 'NONE',  ( -1.000000000000000000, -0.000000000000000000, -0.000000000000000000 ) ) ;
#491 = VECTOR ( 'NONE', #1038, 1000.000000000000227 ) ;
#492 = TOROIDAL_SURFACE ( 'NONE', #48, 2.699999999999999734, 0.1000000000000000056 ) ;
#493 = CARTESIAN_POINT ( 'NONE',  ( 1.750000000000000000, -5.421010862427522170E-17, -0.4849999999999998757 ) ) ;
#494 = VERTEX_POINT ( 'NONE', #235 ) ;
#495 = DIRECTION ( 'NONE',  ( 0.000000000000000000, 0.000000000000000000, -1.000000000000000000 ) ) ;
#496 = CARTESIAN_POINT ( 'NONE',  ( 2.399999999999999467, 2.799999999999999822, 0.000000000000000000 ) ) ;
#497 = EDGE_CURVE ( 'NONE', #775, #1184, #942, .T. ) ;
#498 = FACE_OUTER_BOUND ( 'NONE', #657, .T. ) ;
#499 = AXIS2_PLACEMENT_3D ( 'NONE', #960, #205, #1124 ) ;
#500 = FACE_OUTER_BOUND ( 'NONE', #301, .T. ) ;
#501 = ORIENTED_EDGE ( 'NONE', *, *, #1159, .F. ) ;
#502 = AXIS2_PLACEMENT_3D ( 'NONE', #597, #40, #417 ) ;
#503 = DIRECTION ( 'NONE',  ( 0.000000000000000000, 0.000000000000000000, -1.000000000000000000 ) ) ;
#504 = DIRECTION ( 'NONE',  ( 0.000000000000000000, 0.000000000000000000, 1.000000000000000000 ) ) ;
#505 = EDGE_CURVE ( 'NONE', #948, #547, #104, .T. ) ;
#506 = DIRECTION ( 'NONE',  ( 0.000000000000000000, 0.000000000000000000, 1.000000000000000000 ) ) ;
#507 = ADVANCED_FACE ( 'NONE', ( #1200 ), #564, .F. ) ;
#508 = PLANE ( 'NONE',  #921 ) ;
#509 = ORIENTED_EDGE ( 'NONE', *, *, #831, .T. ) ;
#510 = FACE_OUTER_BOUND ( 'NONE', #1027, .T. ) ;
#511 = EDGE_LOOP ( 'NONE', ( #881, #647, #329, #936 ) ) ;
#512 = DIRECTION ( 'NONE',  ( -1.000000000000000000, -0.000000000000000000, -0.000000000000000000 ) ) ;
#513 = DIRECTION ( 'NONE',  ( 0.000000000000000000, 0.000000000000000000, 1.000000000000000000 ) ) ;
#514 = VERTEX_POINT ( 'NONE', #1021 ) ;
#515 = CARTESIAN_POINT ( 'NONE',  ( 0.000000000000000000, 0.6998729815800832643, 0.000000000000000000 ) ) ;
#516 = AXIS2_PLACEMENT_3D ( 'NONE', #342, #1094, #1116 ) ;
#517 =( GEOMETRIC_REPRESENTATION_CONTEXT ( 3 ) GLOBAL_UNCERTAINTY_ASSIGNED_CONTEXT ( ( #62 ) ) GLOBAL_UNIT_ASSIGNED_CONTEXT ( ( #1133, #767, #967 ) ) REPRESENTATION_CONTEXT ( 'NONE', 'WORKASPACE' ) );
#518 = DIRECTION ( 'NONE',  ( 0.08798131281535091774, -0.6919645723680251104, -0.7165502907562201207 ) ) ;
#519 = AXIS2_PLACEMENT_3D ( 'NONE', #374, #1123, #292 ) ;
#520 = PLANE ( 'NONE',  #776 ) ;
#521 = AXIS2_PLACEMENT_3D ( 'NONE', #79, #851, #747 ) ;
#522 = STYLED_ITEM ( 'NONE', ( #883 ), #768 ) ;
#523 = ORIENTED_EDGE ( 'NONE', *, *, #752, .T. ) ;
#524 = DIRECTION ( 'NONE',  ( 0.000000000000000000, -0.9335804264972020761, 0.3583679495452997688 ) ) ;
#525 = CLOSED_SHELL ( 'NONE', ( #679, #969, #412, #799, #1115, #545, #1202, #112, #396, #37, #1195, #762, #1189, #266, #993, #972, #965, #1095, #1039, #690, #182, #1143, #660, #769, #810, #1172, #420, #1026, #596, #553, #1155, #179, #249, #317, #919, #216, #507, #578, #840, #915, #158 ) ) ;
#526 = EDGE_CURVE ( 'NONE', #803, #450, #1098, .T. ) ;
#527 = PLANE ( 'NONE',  #560 ) ;
#528 = EDGE_CURVE ( 'Bline2', #1058, #372, #841, .T. ) ;
#529 = UNCERTAINTY_MEASURE_WITH_UNIT (LENGTH_MEASURE( 1.000000000000000082E-05 ), #330, 'distance_accuracy_value', 'NONE');
#530 = EDGE_LOOP ( 'NONE', ( #688, #675, #385, #1135 ) ) ;
#531 = ORIENTED_EDGE ( 'NONE', *, *, #865, .T. ) ;
#532 = CONICAL_SURFACE ( 'NONE', #925, 1.499999999999990230, 0.7853981633974418397 ) ;
#533 = CARTESIAN_POINT ( 'NONE',  ( 0.8750000000000002220, -0.9573203475728212508, 0.5576685299944317276 ) ) ;
#534 = DIRECTION ( 'NONE',  ( 0.000000000000000000, 1.000000000000000000, 1.224646799147353207E-16 ) ) ;
#535 = ORIENTED_EDGE ( 'NONE', *, *, #528, .T. ) ;
#536 = ORIENTED_EDGE ( 'NONE', *, *, #57, .T. ) ;
#537 = ORIENTED_EDGE ( 'NONE', *, *, #723, .T. ) ;
#538 = EDGE_CURVE ( 'NONE', #631, #1157, #1141, .T. ) ;
#539 = VECTOR ( 'NONE', #65, 1000.000000000000114 ) ;
#540 = LINE ( 'NONE', #1014, #950 ) ;
#541 = CIRCLE ( 'NONE', #697, 4.999364441949703419 ) ;
#542 = LINE ( 'NONE', #727, #236 ) ;
#543 = VECTOR ( 'NONE', #160, 1000.000000000000114 ) ;
#544 = VERTEX_POINT ( 'NONE', #755 ) ;
#545 = ADVANCED_FACE ( 'Bface2', ( #28 ), #55, .T. ) ;
#546 = ORIENTED_EDGE ( 'NONE', *, *, #699, .T. ) ;
#547 = VERTEX_POINT ( 'NONE', #638 ) ;
#548 = DIRECTION ( 'NONE',  ( -1.000000000000000000, -0.000000000000000000, -0.000000000000000000 ) ) ;
#549 = DIRECTION ( 'NONE',  ( -1.000000000000000000, -0.000000000000000000, -0.000000000000000000 ) ) ;
#550 = VECTOR ( 'NONE', #978, 1000.000000000000114 ) ;
#551 = DIRECTION ( 'NONE',  ( 0.000000000000000000, -0.9335804264972018540, 0.3583679495452997132 ) ) ;
#552 = ORIENTED_EDGE ( 'NONE', *, *, #418, .F. ) ;
#553 = ADVANCED_FACE ( 'NONE', ( #842 ), #178, .F. ) ;
#554 = DIRECTION ( 'NONE',  ( 0.000000000000000000, 0.000000000000000000, 1.000000000000000000 ) ) ;
#555 = CARTESIAN_POINT ( 'NONE',  ( 0.9109903399478264108, 0.000000000000000000, 0.000000000000000000 ) ) ;
#556 = EDGE_CURVE ( 'NONE', #1191, #373, #818, .T. ) ;
#557 = CARTESIAN_POINT ( 'NONE',  ( 3.400000000000000355, 1.836970198721023771E-16, -1.499999999999990230 ) ) ;
#558 = ORIENTED_EDGE ( 'NONE', *, *, #180, .T. ) ;
#559 = DIRECTION ( 'NONE',  ( 0.9925461516413219831, -0.1218693434051474345, 0.000000000000000000 ) ) ;
#560 = AXIS2_PLACEMENT_3D ( 'NONE', #706, #817, #258 ) ;
#561 = DIRECTION ( 'NONE',  ( 0.000000000000000000, -0.6946583704589960329, -0.7193398003386524131 ) ) ;
#562 = ORIENTED_EDGE ( 'NONE', *, *, #1186, .T. ) ;
#563 = VERTEX_POINT ( 'NONE', #557 ) ;
#564 = PLANE ( 'NONE',  #676 ) ;
#565 = DIRECTION ( 'NONE',  ( 0.000000000000000000, 0.000000000000000000, 1.000000000000000000 ) ) ;
#566 = CARTESIAN_POINT ( 'NONE',  ( 5.009078719685259529, 0.07394023823922611649, -0.02838299820198920617 ) ) ;
#567 = VECTOR ( 'NONE', #782, 1000.000000000000114 ) ;
#568 = ORIENTED_EDGE ( 'NONE', *, *, #487, .F. ) ;
#569 = CARTESIAN_POINT ( 'NONE',  ( 1.750000000000000000, -0.5995673809148999167, 0.2984582311920159214 ) ) ;
#570 = AXIS2_PLACEMENT_3D ( 'NONE', #569, #945, #580 ) ;
#571 = CYLINDRICAL_SURFACE ( 'NONE', #593, 2.799999999999999378 ) ;
#572 = DIRECTION ( 'NONE',  ( 0.7071067811865521247, 0.000000000000000000, -0.7071067811865430208 ) ) ;
#573 = ORIENTED_EDGE ( 'NONE', *, *, #528, .F. ) ;
#574 = SURFACE_SIDE_STYLE ('',( #204 ) ) ;
#575 = EDGE_CURVE ( 'NONE', #1184, #67, #542, .T. ) ;
#576 = CIRCLE ( 'NONE', #359, 2.799999999999999378 ) ;
#577 = CIRCLE ( 'NONE', #734, 1.499999999999989120 ) ;
#578 = ADVANCED_FACE ( 'NONE', ( #1016 ), #452, .F. ) ;
#579 = ORIENTED_EDGE ( 'NONE', *, *, #1091, .T. ) ;
#580 = DIRECTION ( 'NONE',  ( 0.000000000000000000, 0.7071067811865479058, 0.7071067811865471286 ) ) ;
#581 = MECHANICAL_DESIGN_GEOMETRIC_PRESENTATION_REPRESENTATION (  '', ( #998 ), #214 ) ;
#582 = EDGE_CURVE ( 'NONE', #1019, #394, #443, .T. ) ;
#583 = FACE_OUTER_BOUND ( 'NONE', #100, .T. ) ;
#584 = CARTESIAN_POINT ( 'NONE',  ( 3.400000000000000355, 0.000000000000000000, -1.499999999999990230 ) ) ;
#585 = ORIENTED_EDGE ( 'NONE', *, *, #409, .T. ) ;
#586 = FACE_OUTER_BOUND ( 'NONE', #770, .T. ) ;
#587 =( NAMED_UNIT ( * ) SI_UNIT ( $, .STERADIAN. ) SOLID_ANGLE_UNIT ( ) );
#588 = ORIENTED_EDGE ( 'NONE', *, *, #418, .T. ) ;
#589 = DIRECTION ( 'NONE',  ( -1.000000000000000000, -0.000000000000000000, -0.000000000000000000 ) ) ;
#590 =( NAMED_UNIT ( * ) PLANE_ANGLE_UNIT ( ) SI_UNIT ( $, .RADIAN. ) );
#591 = CARTESIAN_POINT ( 'NONE',  ( 0.07431333771314230230, 0.8053158319546457333, 0.2984582311920156994 ) ) ;
#592 = DIRECTION ( 'NONE',  ( 0.000000000000000000, 0.000000000000000000, 1.000000000000000000 ) ) ;
#593 = AXIS2_PLACEMENT_3D ( 'NONE', #413, #1154, #31 ) ;
#594 = DIRECTION ( 'NONE',  ( -0.000000000000000000, -0.3583679495452997132, 0.9335804264972018540 ) ) ;
#595 = ORIENTED_EDGE ( 'NONE', *, *, #802, .F. ) ;
#596 = ADVANCED_FACE ( 'NONE', ( #1035 ), #6, .F. ) ;
#597 = CARTESIAN_POINT ( 'NONE',  ( 1.750000000000000000, 0.5849767922202905313, -0.2604484481362442372 ) ) ;
#598 = PRESENTATION_LAYER_ASSIGNMENT (  '', '', ( #859 ) ) ;
#599 = CARTESIAN_POINT ( 'NONE',  ( -3.442001378349206053, 0.000000000000000000, 0.000000000000000000 ) ) ;
#600 = VECTOR ( 'NONE', #389, 999.9999999999998863 ) ;
#601 = DIRECTION ( 'NONE',  ( 1.000000000000000000, 0.000000000000000000, 0.000000000000000000 ) ) ;
#602 = CYLINDRICAL_SURFACE ( 'NONE', #617, 1.298999999999999932 ) ;
#603 = ORIENTED_EDGE ( 'NONE', *, *, #711, .T. ) ;
#604 = AXIS2_PLACEMENT_3D ( 'NONE', #244, #1083, #985 ) ;
#605 = CARTESIAN_POINT ( 'NONE',  ( -3.442001378349206053, 0.000000000000000000, 1.298999999999999932 ) ) ;
#606 = CARTESIAN_POINT ( 'NONE',  ( 1.750000000000000000, 0.2984582311920154774, -0.5995673809149001388 ) ) ;
#607 = DIRECTION ( 'NONE',  ( 0.000000000000000000, -0.7193398003386520800, -0.6946583704589962549 ) ) ;
#608 = DIRECTION ( 'NONE',  ( 0.000000000000000000, 0.000000000000000000, -1.000000000000000000 ) ) ;
#609 = ORIENTED_EDGE ( 'NONE', *, *, #228, .F. ) ;
#610 = DIRECTION ( 'NONE',  ( -1.000000000000000000, -0.000000000000000000, -0.000000000000000000 ) ) ;
#611 = PRODUCT_DEFINITION_SHAPE ( 'NONE', 'NONE',  #253 ) ;
#612 = CARTESIAN_POINT ( 'NONE',  ( 3.157578643762697812, 0.000000000000000000, 1.399000000000000021 ) ) ;
#613 = DIRECTION ( 'NONE',  ( 1.000000000000000000, 0.000000000000000000, 0.000000000000000000 ) ) ;
#614 = LINE ( 'NONE', #983, #370 ) ;
#615 = VERTEX_POINT ( 'NONE', #935 ) ;
#616 = DIRECTION ( 'NONE',  ( 1.000000000000000000, 0.000000000000000000, 0.000000000000000000 ) ) ;
#617 = AXIS2_PLACEMENT_3D ( 'NONE', #131, #885, #43 ) ;
#618 = DIRECTION ( 'NONE',  ( 0.000000000000000000, 0.000000000000000000, -1.000000000000000000 ) ) ;
#619 = DIRECTION ( 'NONE',  ( 0.1138834974989065829, 0.9275066560604725563, 0.3560364475175776255 ) ) ;
#620 = AXIS2_PLACEMENT_3D ( 'NONE', #671, #111, #313 ) ;
#621 = DIRECTION ( 'NONE',  ( -0.4461978145050307654, 0.6328141553137592856, 0.6328141553137599518 ) ) ;
#622 = VERTEX_POINT ( 'NONE', #753 ) ;
#623 = DIRECTION ( 'NONE',  ( 0.000000000000000000, 1.000000000000000000, 0.000000000000000000 ) ) ;
#624 = CARTESIAN_POINT ( 'NONE',  ( 4.994471112842468585, -0.04502917237211658680, -0.04348416629860567262 ) ) ;
#625 = CIRCLE ( 'NONE', #938, 4.999364441949703419 ) ;
#626 = EDGE_CURVE ( 'NONE', #1157, #373, #1073, .T. ) ;
#627 = CARTESIAN_POINT ( 'NONE',  ( 5.000000000000000000, 0.000000000000000000, 0.000000000000000000 ) ) ;
#628 = ORIENTED_EDGE ( 'NONE', *, *, #933, .T. ) ;
#629 = VERTEX_POINT ( 'NONE', #193 ) ;
#630 = CARTESIAN_POINT ( 'NONE',  ( 0.07431333771314212189, 0.2984582311920157549, -0.8053158319546456223 ) ) ;
#631 = VERTEX_POINT ( 'NONE', #2 ) ;
#632 = ORIENTED_EDGE ( 'NONE', *, *, #327, .F. ) ;
#633 = DIRECTION ( 'NONE',  ( 0.000000000000000000, -0.3583679495452993802, -0.9335804264972020761 ) ) ;
#634 = AXIS2_PLACEMENT_3D ( 'NONE', #325, #336, #130 ) ;
#635 = CARTESIAN_POINT ( 'NONE',  ( 0.9109903399478264108, 3.429011037612588290E-16, -2.799999999999999378 ) ) ;
#636 = CIRCLE ( 'NONE', #102, 1.298999999999999932 ) ;
#637 = VECTOR ( 'NONE', #135, 1000.000000000000114 ) ;
#638 = CARTESIAN_POINT ( 'NONE',  ( 3.228289321881351981, 0.000000000000000000, -1.328289321881344742 ) ) ;
#639 = CIRCLE ( 'NONE', #979, 1.328289321881344742 ) ;
#640 = VERTEX_POINT ( 'NONE', #1194 ) ;
#641 = EDGE_LOOP ( 'NONE', ( #819, #1006 ) ) ;
#642 = ORIENTED_EDGE ( 'NONE', *, *, #83, .T. ) ;
#643 = CARTESIAN_POINT ( 'NONE',  ( 2.399999999999999467, 0.000000000000000000, 0.000000000000000000 ) ) ;
#644 =( GEOMETRIC_REPRESENTATION_CONTEXT ( 3 ) GLOBAL_UNCERTAINTY_ASSIGNED_CONTEXT ( ( #529 ) ) GLOBAL_UNIT_ASSIGNED_CONTEXT ( ( #330, #991, #60 ) ) REPRESENTATION_CONTEXT ( 'NONE', 'WORKASPACE' ) );
#645 = FACE_OUTER_BOUND ( 'NONE', #198, .T. ) ;
#646 = DIRECTION ( 'NONE',  ( 0.000000000000000000, 0.9335804264972018540, 0.3583679495452997132 ) ) ;
#647 = ORIENTED_EDGE ( 'NONE', *, *, #908, .T. ) ;
#648 = ORIENTED_EDGE ( 'NONE', *, *, #1104, .T. ) ;
#649 = ORIENTED_EDGE ( 'NONE', *, *, #327, .T. ) ;
#650 = DIRECTION ( 'NONE',  ( 0.08798131281535088999, 0.6919645723680253324, -0.7165502907562198986 ) ) ;
#651 = PLANE ( 'NONE',  #294 ) ;
#652 = ORIENTED_EDGE ( 'NONE', *, *, #70, .T. ) ;
#653 = ORIENTED_EDGE ( 'NONE', *, *, #943, .T. ) ;
#654 = CARTESIAN_POINT ( 'NONE',  ( 0.07431333771310691394, 0.8053158319546501742, -0.2984582311920156994 ) ) ;
#655 = AXIS2_PLACEMENT_3D ( 'NONE', #612, #155, #1173 ) ;
#656 = DIRECTION ( 'NONE',  ( 0.08798131281535087611, 0.6919645723680253324, 0.7165502907562200097 ) ) ;
#657 = EDGE_LOOP ( 'NONE', ( #793, #1142, #911 ) ) ;
#658 = DIRECTION ( 'NONE',  ( 0.000000000000000000, 0.7193398003386518580, 0.6946583704589965880 ) ) ;
#659 = DIRECTION ( 'NONE',  ( 0.000000000000000000, 0.000000000000000000, 1.000000000000000000 ) ) ;
#660 = ADVANCED_FACE ( 'NONE', ( #1126 ), #741, .T. ) ;
#661 = DIRECTION ( 'NONE',  ( 0.1138834974989063470, 0.3560364475175780141, 0.9275066560604725563 ) ) ;
#662 = LINE ( 'NONE', #584, #442 ) ;
#663 = EDGE_CURVE ( 'NONE', #67, #1129, #326, .T. ) ;
#664 = EDGE_CURVE ( 'NONE', #514, #1071, #85, .T. ) ;
#665 = ORIENTED_EDGE ( 'NONE', *, *, #497, .F. ) ;
#666 = FACE_OUTER_BOUND ( 'NONE', #256, .T. ) ;
#667 = CARTESIAN_POINT ( 'NONE',  ( 1.750000000000000000, 0.5995673809148999167, 0.2984582311920157549 ) ) ;
#668 = FILL_AREA_STYLE_COLOUR ( '', #1069 ) ;
#669 = ORIENTED_EDGE ( 'NONE', *, *, #94, .T. ) ;
#670 = DIRECTION ( 'NONE',  ( 0.000000000000000000, -1.000000000000000000, 0.000000000000000000 ) ) ;
#671 = CARTESIAN_POINT ( 'NONE',  ( 4.994471112842468585, -0.04348416629860526322, 0.04502917237211609414 ) ) ;
#672 = CARTESIAN_POINT ( 'NONE',  ( -3.442001378349206053, 0.000000000000000000, 0.000000000000000000 ) ) ;
#673 = CIRCLE ( 'NONE', #140, 4.999605077635991712 ) ;
#674 = CARTESIAN_POINT ( 'NONE',  ( 0.000000000000000000, -0.8144403624949831944, -0.2984582311920159770 ) ) ;
#675 = ORIENTED_EDGE ( 'NONE', *, *, #211, .T. ) ;
#676 = AXIS2_PLACEMENT_3D ( 'NONE', #744, #650, #658 ) ;
#677 = DIRECTION ( 'NONE',  ( 0.000000000000000000, 0.000000000000000000, -1.000000000000000000 ) ) ;
#678 = CIRCLE ( 'NONE', #366, 2.755102040816326703 ) ;
#679 = ADVANCED_FACE ( 'NONE', ( #1121 ), #1015, .T. ) ;
#680 = DIRECTION ( 'NONE',  ( 0.000000000000000000, 0.000000000000000000, -1.000000000000000000 ) ) ;
#681 = SURFACE_SIDE_STYLE ('',( #390 ) ) ;
#682 = STYLED_ITEM ( 'NONE', ( #1136 ), #37 ) ;
#683 = ORIENTED_EDGE ( 'NONE', *, *, #865, .F. ) ;
#684 = PLANE ( 'NONE',  #227 ) ;
#685 = DIRECTION ( 'NONE',  ( -0.4959324508974817802, 1.063435644547983638E-16, -0.8683611023916356642 ) ) ;
#686 = EDGE_CURVE ( 'NONE', #694, #1185, #843, .T. ) ;
#687 = CARTESIAN_POINT ( 'NONE',  ( 1.750000000000000000, -0.4849999999999999867, -1.187907395172932446E-16 ) ) ;
#688 = ORIENTED_EDGE ( 'NONE', *, *, #664, .T. ) ;
#689 = FACE_OUTER_BOUND ( 'NONE', #756, .T. ) ;
#690 = ADVANCED_FACE ( 'Bface3', ( #736 ), #651, .F. ) ;
#691 = CARTESIAN_POINT ( 'NONE',  ( 4.606516183611335968, 0.5580532239357697266, -0.5580532239357702817 ) ) ;
#692 = CARTESIAN_POINT ( 'NONE',  ( 0.8275411632120673877, 3.401518966611321359E-16, 2.755102040816326703 ) ) ;
#693 = CARTESIAN_POINT ( 'NONE',  ( 82.40000000000000568, 0.000000000000000000, 0.000000000000000000 ) ) ;
#694 = VERTEX_POINT ( 'NONE', #282 ) ;
#695 = AXIS2_PLACEMENT_3D ( 'NONE', #248, #613, #438 ) ;
#696 = CARTESIAN_POINT ( 'NONE',  ( 2.399999999999999467, 0.000000000000000000, 0.000000000000000000 ) ) ;
#697 = AXIS2_PLACEMENT_3D ( 'NONE', #213, #408, #1061 ) ;
#698 = DIRECTION ( 'NONE',  ( 0.000000000000000000, -0.6946583704589960329, 0.7193398003386524131 ) ) ;
#699 = EDGE_CURVE ( 'NONE', #826, #547, #639, .T. ) ;
#700 = CARTESIAN_POINT ( 'NONE',  ( 0.9109903399478264108, 0.000000000000000000, 0.000000000000000000 ) ) ;
#701 = EDGE_CURVE ( 'NONE', #488, #924, #89, .T. ) ;
#702 = LINE ( 'NONE', #807, #17 ) ;
#703 = ORIENTED_EDGE ( 'NONE', *, *, #287, .T. ) ;
#704 =( NAMED_UNIT ( * ) SI_UNIT ( $, .STERADIAN. ) SOLID_ANGLE_UNIT ( ) );
#705 = ORIENTED_EDGE ( 'NONE', *, *, #746, .F. ) ;
#706 = CARTESIAN_POINT ( 'NONE',  ( 0.000000000000000000, 1.084202172485504434E-16, -0.6998729815800831533 ) ) ;
#707 = CARTESIAN_POINT ( 'NONE',  ( 0.9109903399478264108, 0.000000000000000000, -2.699999999999999734 ) ) ;
#708 = CARTESIAN_POINT ( 'NONE',  ( 0.8750000000000001110, 0.9573203475728210288, 0.5576685299944313945 ) ) ;
#709 = EDGE_CURVE ( 'NONE', #544, #731, #206, .T. ) ;
#710 = CARTESIAN_POINT ( 'NONE',  ( 4.994471112842468585, -0.04502917237211678109, 0.04348416629860585997 ) ) ;
#711 = EDGE_CURVE ( 'NONE', #948, #113, #773, .T. ) ;
#712 = CARTESIAN_POINT ( 'NONE',  ( 5.009078719685259529, 0.07394023823922611649, 0.02838299820198920617 ) ) ;
#713 = ORIENTED_EDGE ( 'NONE', *, *, #686, .T. ) ;
#714 = AXIS2_PLACEMENT_3D ( 'NONE', #1028, #549, #368 ) ;
#715 = PRODUCT_RELATED_PRODUCT_CATEGORY ( 'part', '', ( #800 ) ) ;
#716 = CARTESIAN_POINT ( 'NONE',  ( 3.157578643762697812, 0.000000000000000000, 0.000000000000000000 ) ) ;
#717 = ORIENTED_EDGE ( 'NONE', *, *, #381, .T. ) ;
#718 = ORIENTED_EDGE ( 'NONE', *, *, #723, .F. ) ;
#719 = CARTESIAN_POINT ( 'NONE',  ( 2.750999999999999002, 2.020667218593132755E-16, -1.649999999999999911 ) ) ;
#720 = CARTESIAN_POINT ( 'NONE',  ( -3.442001378349206053, 0.000000000000000000, 0.000000000000000000 ) ) ;
#721 = ORIENTED_EDGE ( 'NONE', *, *, #76, .T. ) ;
#722 = DIRECTION ( 'NONE',  ( 0.1138834974989065829, -0.9275066560604725563, 0.3560364475175776255 ) ) ;
#723 = EDGE_CURVE ( 'NONE', #1169, #1019, #796, .T. ) ;
#724 = MANIFOLD_SOLID_BREP ( '切除-放样2', #525 ) ;
#725 = CARTESIAN_POINT ( 'NONE',  ( 3.400000000000000355, 0.000000000000000000, 0.000000000000000000 ) ) ;
#726 = EDGE_CURVE ( 'NONE', #1169, #261, #678, .T. ) ;
#727 = CARTESIAN_POINT ( 'NONE',  ( 0.8750000000000002220, 0.5576685299944312835, 0.9573203475728212508 ) ) ;
#728 = VERTEX_POINT ( 'NONE', #1150 ) ;
#729 = EDGE_CURVE ( 'NONE', #1157, #852, #1051, .T. ) ;
#730 = ORIENTED_EDGE ( 'NONE', *, *, #752, .F. ) ;
#731 = VERTEX_POINT ( 'NONE', #320 ) ;
#732 = VECTOR ( 'NONE', #929, 1000.000000000000114 ) ;
#733 = PLANE ( 'NONE',  #735 ) ;
#734 = AXIS2_PLACEMENT_3D ( 'NONE', #1174, #981, #513 ) ;
#735 = AXIS2_PLACEMENT_3D ( 'NONE', #446, #823, #1193 ) ;
#736 = FACE_OUTER_BOUND ( 'NONE', #641, .T. ) ;
#737 = EDGE_LOOP ( 'NONE', ( #82, #434, #243 ) ) ;
#738 =( GEOMETRIC_REPRESENTATION_CONTEXT ( 3 ) GLOBAL_UNCERTAINTY_ASSIGNED_CONTEXT ( ( #215 ) ) GLOBAL_UNIT_ASSIGNED_CONTEXT ( ( #986, #430, #1166 ) ) REPRESENTATION_CONTEXT ( 'NONE', 'WORKASPACE' ) );
#739 = ORIENTED_EDGE ( 'NONE', *, *, #346, .T. ) ;
#740 = DIRECTION ( 'NONE',  ( 0.000000000000000000, 0.000000000000000000, 1.000000000000000000 ) ) ;
#741 = PLANE ( 'NONE',  #148 ) ;
#742 = ORIENTED_EDGE ( 'NONE', *, *, #699, .F. ) ;
#743 = ORIENTED_EDGE ( 'NONE', *, *, #70, .F. ) ;
#744 = CARTESIAN_POINT ( 'NONE',  ( 0.000000000000000000, -0.8168788287968468120, -1.315073314230742696 ) ) ;
#745 = DIRECTION ( 'NONE',  ( 0.000000000000000000, 0.000000000000000000, 1.000000000000000000 ) ) ;
#746 = EDGE_CURVE ( 'NONE', #615, #728, #19, .T. ) ;
#747 = DIRECTION ( 'NONE',  ( 0.000000000000000000, 0.7071067811865476838, -0.7071067811865473507 ) ) ;
#748 = PRODUCT_DEFINITION_CONTEXT ( 'detailed design', #46, 'design' ) ;
#749 = FACE_OUTER_BOUND ( 'NONE', #439, .T. ) ;
#750 = ORIENTED_EDGE ( 'NONE', *, *, #955, .T. ) ;
#751 = LINE ( 'NONE', #400, #392 ) ;
#752 = EDGE_CURVE ( 'NONE', #494, #631, #212, .T. ) ;
#753 = CARTESIAN_POINT ( 'NONE',  ( 1.750000000000000000, 0.5995673809148999167, -0.2984582311920157549 ) ) ;
#754 = MECHANICAL_DESIGN_GEOMETRIC_PRESENTATION_REPRESENTATION (  '', ( #859 ), #517 ) ;
#755 = CARTESIAN_POINT ( 'NONE',  ( 82.40000000000000568, 1.571834166705621095E-16, -1.066999999999999504 ) ) ;
#756 = EDGE_LOOP ( 'NONE', ( #763, #428, #354, #1064, #730, #1030, #568, #74, #416, #501, #665, #59 ) ) ;
#757 = DIRECTION ( 'NONE',  ( 0.000000000000000000, -0.9335804264972012989, 0.3583679495453013231 ) ) ;
#758 = DIRECTION ( 'NONE',  ( 0.000000000000000000, 0.3583679495452994357, 0.9335804264972020761 ) ) ;
#759 = FILL_AREA_STYLE ('',( #668 ) ) ;
#760 = VECTOR ( 'NONE', #322, 1000.000000000000114 ) ;
#761 = ORIENTED_EDGE ( 'NONE', *, *, #1176, .F. ) ;
#762 = ADVANCED_FACE ( 'NONE', ( #951 ), #571, .T. ) ;
#763 = ORIENTED_EDGE ( 'NONE', *, *, #232, .F. ) ;
#764 = FILL_AREA_STYLE ('',( #1130 ) ) ;
#765 = CARTESIAN_POINT ( 'NONE',  ( 1.750000000000000000, 0.2984582311920154774, 0.5995673809149001388 ) ) ;
#766 = SURFACE_SIDE_STYLE ('',( #115 ) ) ;
#767 =( NAMED_UNIT ( * ) PLANE_ANGLE_UNIT ( ) SI_UNIT ( $, .RADIAN. ) );
#768 = ADVANCED_BREP_SHAPE_REPRESENTATION ( 'GB╱T 9074.1-2002[十字槽盘头螺钉（S3）和平垫圈组合件M3×8 10.9 S3 N]', ( #724, #194 ), #15 ) ;
#769 = ADVANCED_FACE ( 'NONE', ( #583 ), #876, .F. ) ;
#770 = EDGE_LOOP ( 'NONE', ( #669, #404, #588, #284 ) ) ;
#771 = CARTESIAN_POINT ( 'NONE',  ( -3.442001378349206053, 0.000000000000000000, 2.799999999999999378 ) ) ;
#772 = FACE_OUTER_BOUND ( 'NONE', #970, .T. ) ;
#773 = LINE ( 'NONE', #1040, #309 ) ;
#774 = CIRCLE ( 'NONE', #143, 1.499999999999989120 ) ;
#775 = VERTEX_POINT ( 'NONE', #667 ) ;
#776 = AXIS2_PLACEMENT_3D ( 'NONE', #898, #1175, #321 ) ;
#777 = CARTESIAN_POINT ( 'NONE',  ( 0.9109903399478264108, 0.000000000000000000, 0.000000000000000000 ) ) ;
#778 = CARTESIAN_POINT ( 'NONE',  ( 1.750000000000000000, -5.421010862427522170E-17, -0.4849999999999998757 ) ) ;
#779 = VECTOR ( 'NONE', #868, 1000.000000000000114 ) ;
#780 = CARTESIAN_POINT ( 'NONE',  ( 0.8750000000000001110, 0.5576685299944312835, -0.9573203475728212508 ) ) ;
#781 = MECHANICAL_DESIGN_GEOMETRIC_PRESENTATION_REPRESENTATION (  '', ( #682 ), #644 ) ;
#782 = DIRECTION ( 'NONE',  ( 0.9925461516413219831, 1.537315277002354605E-16, -0.1218693434051473928 ) ) ;
#783 = VERTEX_POINT ( 'NONE', #225 ) ;
#784 = LINE ( 'NONE', #771, #1077 ) ;
#785 = APPLICATION_PROTOCOL_DEFINITION ( 'draft international standard', 'automotive_design', 1998, #1197 ) ;
#786 = DIRECTION ( 'NONE',  ( 0.1138834974989065968, -0.9275066560604726673, -0.3560364475175772925 ) ) ;
#787 = EDGE_LOOP ( 'NONE', ( #475, #183, #126, #393, #3 ) ) ;
#788 = CARTESIAN_POINT ( 'NONE',  ( 0.8750000000000002220, 0.2984582311920156439, 0.7070038717049416110 ) ) ;
#789 = PRODUCT_CONTEXT ( 'NONE', #1197, 'mechanical' ) ;
#790 = DIRECTION ( 'NONE',  ( -0.000000000000000000, 0.7071067811865475727, 0.7071067811865474617 ) ) ;
#791 = AXIS2_PLACEMENT_3D ( 'NONE', #1182, #419, #618 ) ;
#792 = LINE ( 'NONE', #1078, #953 ) ;
#793 = ORIENTED_EDGE ( 'NONE', *, *, #575, .F. ) ;
#794 = CARTESIAN_POINT ( 'NONE',  ( 2.399999999999999467, 0.000000000000000000, 0.000000000000000000 ) ) ;
#795 = AXIS2_PLACEMENT_3D ( 'NONE', #1033, #837, #565 ) ;
#796 = CIRCLE ( 'NONE', #956, 5.000000000000000000 ) ;
#797 = FACE_OUTER_BOUND ( 'NONE', #892, .T. ) ;
#798 = CIRCLE ( 'NONE', #276, 1.298999999999999932 ) ;
#799 = ADVANCED_FACE ( 'NONE', ( #119 ), #231, .F. ) ;
#800 = PRODUCT ( 'GB╱T 9074.1-2002[十字槽盘头螺钉（S3）和平垫圈组合件M3×8 10.9 S3 N]', 'GB╱T 9074.1-2002[十字槽盘头螺钉（S3）和平垫圈组合件M3×8 10.9 S3 N]', '', ( #789 ) ) ;
#801 = VECTOR ( 'NONE', #45, 1000.000000000000114 ) ;
#802 = EDGE_CURVE ( 'NONE', #886, #827, #97, .T. ) ;
#803 = VERTEX_POINT ( 'NONE', #106 ) ;
#804 = DIRECTION ( 'NONE',  ( 0.1138834974989063331, 0.3560364475175780141, 0.9275066560604725563 ) ) ;
#805 = CARTESIAN_POINT ( 'NONE',  ( 0.9109903399478264108, 0.000000000000000000, 2.799999999999999378 ) ) ;
#806 = EDGE_CURVE ( 'NONE', #217, #1185, #30, .T. ) ;
#807 = CARTESIAN_POINT ( 'NONE',  ( -3.442001378349206053, 3.429011037612588290E-16, -2.799999999999999378 ) ) ;
#808 = ORIENTED_EDGE ( 'NONE', *, *, #357, .F. ) ;
#809 = SPHERICAL_SURFACE ( 'NONE', #846, 5.000000000000000000 ) ;
#810 = ADVANCED_FACE ( 'NONE', ( #139 ), #987, .F. ) ;
#811 = CARTESIAN_POINT ( 'NONE',  ( 0.000000000000000000, 0.000000000000000000, 0.000000000000000000 ) ) ;
#812 = CARTESIAN_POINT ( 'NONE',  ( 4.994471112842468585, 0.04502917237211651741, 0.04348416629860558935 ) ) ;
#813 = ORIENTED_EDGE ( 'NONE', *, *, #526, .F. ) ;
#814 = VECTOR ( 'NONE', #790, 1000.000000000000000 ) ;
#815 = EDGE_LOOP ( 'NONE', ( #260, #820, #845 ) ) ;
#816 = AXIS2_PLACEMENT_3D ( 'NONE', #264, #722, #633 ) ;
#817 = DIRECTION ( 'NONE',  ( 0.1138834974989063192, -0.3560364475175776255, -0.9275066560604725563 ) ) ;
#818 = CIRCLE ( 'NONE', #167, 4.999605077635991712 ) ;
#819 = ORIENTED_EDGE ( 'NONE', *, *, #298, .F. ) ;
#820 = ORIENTED_EDGE ( 'NONE', *, *, #185, .F. ) ;
#821 = DIRECTION ( 'NONE',  ( 0.000000000000000000, 0.000000000000000000, 1.000000000000000000 ) ) ;
#822 = VECTOR ( 'NONE', #880, 1000.000000000000114 ) ;
#823 = DIRECTION ( 'NONE',  ( 0.1138834974989063192, -0.3560364475175776255, 0.9275066560604725563 ) ) ;
#824 = CARTESIAN_POINT ( 'NONE',  ( 82.40000000000000568, 0.000000000000000000, 0.000000000000000000 ) ) ;
#825 = ORIENTED_EDGE ( 'NONE', *, *, #1055, .F. ) ;
#826 = VERTEX_POINT ( 'NONE', #241 ) ;
#827 = VERTEX_POINT ( 'NONE', #606 ) ;
#828 = DIRECTION ( 'NONE',  ( 1.000000000000000000, 0.000000000000000000, 0.000000000000000000 ) ) ;
#829 = EDGE_CURVE ( 'NONE', #827, #622, #437, .T. ) ;
#830 = CARTESIAN_POINT ( 'NONE',  ( 4.994471112842468585, -0.04348416629860495097, -0.04502917237211579576 ) ) ;
#831 = EDGE_CURVE ( 'NONE', #948, #1093, #424, .T. ) ;
#832 = EDGE_LOOP ( 'NONE', ( #1111, #562, #808, #1024 ) ) ;
#833 = ORIENTED_EDGE ( 'NONE', *, *, #283, .T. ) ;
#834 = DIRECTION ( 'NONE',  ( 0.000000000000000000, 0.000000000000000000, 1.000000000000000000 ) ) ;
#835 = ORIENTED_EDGE ( 'NONE', *, *, #836, .T. ) ;
#836 = EDGE_CURVE ( 'NONE', #1093, #826, #161, .T. ) ;
#837 = DIRECTION ( 'NONE',  ( -1.000000000000000000, -0.000000000000000000, -0.000000000000000000 ) ) ;
#838 = AXIS2_PLACEMENT_3D ( 'NONE', #1097, #69, #821 ) ;
#839 = AXIS2_PLACEMENT_3D ( 'NONE', #1099, #847, #1 ) ;
#840 = ADVANCED_FACE ( 'NONE', ( #332 ), #527, .F. ) ;
#841 = CIRCLE ( 'NONE', #306, 2.799999999999999822 ) ;
#842 = FACE_OUTER_BOUND ( 'NONE', #737, .T. ) ;
#843 = CIRCLE ( 'NONE', #1165, 4.999605077635992600 ) ;
#844 = EDGE_CURVE ( 'NONE', #217, #615, #289, .T. ) ;
#845 = ORIENTED_EDGE ( 'NONE', *, *, #729, .F. ) ;
#846 = AXIS2_PLACEMENT_3D ( 'NONE', #887, #1179, #623 ) ;
#847 = DIRECTION ( 'NONE',  ( -1.000000000000000000, -0.000000000000000000, -0.000000000000000000 ) ) ;
#848 = DIRECTION ( 'NONE',  ( 0.000000000000000000, -0.7071067811865477948, 0.7071067811865472397 ) ) ;
#849 = ORIENTED_EDGE ( 'NONE', *, *, #54, .T. ) ;
#850 = CARTESIAN_POINT ( 'NONE',  ( 2.399999999999999467, 3.429011037612589276E-16, -2.799999999999999822 ) ) ;
#851 = DIRECTION ( 'NONE',  ( -0.4461978145050307654, -0.6328141553137596187, -0.6328141553137597297 ) ) ;
#852 = VERTEX_POINT ( 'NONE', #247 ) ;
#853 = VECTOR ( 'NONE', #395, 999.9999999999998863 ) ;
#854 = FACE_OUTER_BOUND ( 'NONE', #1113, .T. ) ;
#855 = CARTESIAN_POINT ( 'NONE',  ( 5.000000000000000000, 0.000000000000000000, 0.000000000000000000 ) ) ;
#856 = AXIS2_PLACEMENT_3D ( 'NONE', #888, #518, #426 ) ;
#857 = DIRECTION ( 'NONE',  ( 0.1138834974989065690, 0.9275066560604725563, -0.3560364475175776255 ) ) ;
#858 = DIRECTION ( 'NONE',  ( -1.000000000000000000, -0.000000000000000000, -0.000000000000000000 ) ) ;
#859 = STYLED_ITEM ( 'NONE', ( #952 ), #396 ) ;
#860 = ORIENTED_EDGE ( 'NONE', *, *, #377, .T. ) ;
#861 = AXIS2_PLACEMENT_3D ( 'NONE', #468, #661, #551 ) ;
#862 = ORIENTED_EDGE ( 'NONE', *, *, #207, .T. ) ;
#863 = FACE_OUTER_BOUND ( 'NONE', #164, .T. ) ;
#864 = CARTESIAN_POINT ( 'NONE',  ( 0.8749999999999998890, -0.5576685299944311724, 0.9573203475728215839 ) ) ;
#865 = EDGE_CURVE ( 'NONE', #488, #1169, #66, .T. ) ;
#866 = ORIENTED_EDGE ( 'NONE', *, *, #664, .F. ) ;
#867 = FACE_OUTER_BOUND ( 'NONE', #870, .T. ) ;
#868 = DIRECTION ( 'NONE',  ( 0.9925461516413219831, 0.1218693434051474345, 0.000000000000000000 ) ) ;
#869 = LINE ( 'NONE', #474, #1125 ) ;
#870 = EDGE_LOOP ( 'NONE', ( #721, #862, #984, #16 ) ) ;
#871 = AXIS2_PLACEMENT_3D ( 'NONE', #896, #999, #1084 ) ;
#872 = AXIS2_PLACEMENT_3D ( 'NONE', #36, #858, #1139 ) ;
#873 = DIRECTION ( 'NONE',  ( 0.000000000000000000, -0.7071067811865479058, 0.7071067811865471286 ) ) ;
#874 = ORIENTED_EDGE ( 'NONE', *, *, #626, .T. ) ;
#875 =( NAMED_UNIT ( * ) PLANE_ANGLE_UNIT ( ) SI_UNIT ( $, .RADIAN. ) );
#876 = PLANE ( 'NONE',  #8 ) ;
#877 = CARTESIAN_POINT ( 'NONE',  ( 0.000000000000000000, 1.084202172485504434E-16, -0.6998729815800831533 ) ) ;
#878 = VECTOR ( 'NONE', #1177, 999.9999999999998863 ) ;
#879 = EDGE_CURVE ( 'NONE', #783, #514, #1102, .T. ) ;
#880 = DIRECTION ( 'NONE',  ( 0.000000000000000000, -0.3583679495452996577, -0.9335804264972018540 ) ) ;
#881 = ORIENTED_EDGE ( 'NONE', *, *, #357, .T. ) ;
#882 = PLANE ( 'NONE',  #502 ) ;
#883 = PRESENTATION_STYLE_ASSIGNMENT (( #1074 ) ) ;
#884 = DIRECTION ( 'NONE',  ( 0.08798131281535115367, -0.7165502907562204538, -0.6919645723680246663 ) ) ;
#885 = DIRECTION ( 'NONE',  ( -1.000000000000000000, -0.000000000000000000, -0.000000000000000000 ) ) ;
#886 = VERTEX_POINT ( 'NONE', #47 ) ;
#887 = CARTESIAN_POINT ( 'NONE',  ( 5.000000000000000000, 0.000000000000000000, 0.000000000000000000 ) ) ;
#888 = CARTESIAN_POINT ( 'NONE',  ( 0.000000000000000000, 0.2984582311920158659, -0.8144403624949829723 ) ) ;
#889 = EDGE_CURVE ( 'NONE', #920, #280, #1066, .T. ) ;
#890 = AXIS2_PLACEMENT_3D ( 'NONE', #281, #191, #745 ) ;
#891 = CARTESIAN_POINT ( 'NONE',  ( 0.000000000000000000, 1.315073314230742030, -0.8168788287968468120 ) ) ;
#892 = EDGE_LOOP ( 'NONE', ( #558, #1190, #262 ) ) ;
#893 = CIRCLE ( 'NONE', #425, 4.999364441949703419 ) ;
#894 = FILL_AREA_STYLE ('',( #1171 ) ) ;
#895 = AXIS2_PLACEMENT_3D ( 'NONE', #566, #1023, #914 ) ;
#896 = CARTESIAN_POINT ( 'NONE',  ( 0.000000000000000000, 0.8144403624949831944, 0.2984582311920157549 ) ) ;
#897 = CIRCLE ( 'NONE', #367, 4.999605077635992600 ) ;
#898 = CARTESIAN_POINT ( 'NONE',  ( 0.000000000000000000, 0.8168788287968471451, 1.315073314230742252 ) ) ;
#899 = EDGE_CURVE ( 'NONE', #1086, #924, #576, .T. ) ;
#900 = CIRCLE ( 'NONE', #218, 0.09999999999999982514 ) ;
#901 = DIRECTION ( 'NONE',  ( 0.000000000000000000, -0.6946583704589961439, 0.7193398003386521911 ) ) ;
#902 = ORIENTED_EDGE ( 'NONE', *, *, #505, .F. ) ;
#903 = SHAPE_DEFINITION_REPRESENTATION ( #611, #768 ) ;
#904 = FACE_OUTER_BOUND ( 'NONE', #918, .T. ) ;
#905 = VERTEX_POINT ( 'NONE', #907 ) ;
#906 = ORIENTED_EDGE ( 'NONE', *, *, #105, .F. ) ;
#907 = CARTESIAN_POINT ( 'NONE',  ( 2.399999999999999467, 2.020667218593132755E-16, -1.649999999999999911 ) ) ;
#908 = EDGE_CURVE ( 'NONE', #184, #827, #134, .T. ) ;
#909 = EDGE_LOOP ( 'NONE', ( #739, #316 ) ) ;
#910 = AXIS2_PLACEMENT_3D ( 'NONE', #716, #512, #506 ) ;
#911 = ORIENTED_EDGE ( 'NONE', *, *, #480, .F. ) ;
#912 = DIRECTION ( 'NONE',  ( 0.9925461516413219831, -2.152241387803296250E-16, 0.1218693434051473928 ) ) ;
#913 = DIRECTION ( 'NONE',  ( 0.000000000000000000, 0.000000000000000000, -1.000000000000000000 ) ) ;
#914 = DIRECTION ( 'NONE',  ( 0.000000000000000000, 0.3583679495452993802, 0.9335804264972020761 ) ) ;
#915 = ADVANCED_FACE ( 'NONE', ( #904 ), #1160, .F. ) ;
#916 = EDGE_LOOP ( 'NONE', ( #683, #334, #484, #609, #1215 ) ) ;
#917 = VECTOR ( 'NONE', #114, 1000.000000000000114 ) ;
#918 = EDGE_LOOP ( 'NONE', ( #833, #595, #208 ) ) ;
#919 = ADVANCED_FACE ( 'NONE', ( #797 ), #980, .F. ) ;
#920 = VERTEX_POINT ( 'NONE', #53 ) ;
#921 = AXIS2_PLACEMENT_3D ( 'NONE', #38, #786, #1156 ) ;
#922 = DIRECTION ( 'NONE',  ( 0.08798131281535090387, -0.6919645723680249993, -0.7165502907562202317 ) ) ;
#923 = DIRECTION ( 'NONE',  ( -0.4461978145050307654, 0.6328141553137592856, 0.6328141553137598407 ) ) ;
#924 = VERTEX_POINT ( 'NONE', #805 ) ;
#925 = AXIS2_PLACEMENT_3D ( 'NONE', #1054, #1046, #478 ) ;
#926 = ORIENTED_EDGE ( 'NONE', *, *, #54, .F. ) ;
#927 = DIRECTION ( 'NONE',  ( 0.1138834974989063192, -0.3560364475175776255, -0.9275066560604725563 ) ) ;
#928 = EDGE_LOOP ( 'NONE', ( #649, #717, #552, #813 ) ) ;
#929 = DIRECTION ( 'NONE',  ( 0.000000000000000000, 0.3583679495452997132, 0.9335804264972018540 ) ) ;
#930 = CARTESIAN_POINT ( 'NONE',  ( 4.606516183611335968, 0.5580532239357698376, 0.5580532239357703927 ) ) ;
#931 = ORIENTED_EDGE ( 'NONE', *, *, #298, .T. ) ;
#932 = FACE_OUTER_BOUND ( 'NONE', #787, .T. ) ;
#933 = EDGE_CURVE ( 'NONE', #394, #1129, #476, .T. ) ;
#934 = AXIS2_PLACEMENT_3D ( 'NONE', #142, #315, #592 ) ;
#935 = CARTESIAN_POINT ( 'NONE',  ( 0.07431333771310691394, -0.8053158319546499522, 0.2984582311920158659 ) ) ;
#936 = ORIENTED_EDGE ( 'NONE', *, *, #287, .F. ) ;
#937 = EDGE_LOOP ( 'NONE', ( #365, #535, #230, #156 ) ) ;
#938 = AXIS2_PLACEMENT_3D ( 'NONE', #252, #804, #524 ) ;
#939 = DIRECTION ( 'NONE',  ( 0.000000000000000000, 0.9335804264972020761, 0.3583679495452997688 ) ) ;
#940 = DIRECTION ( 'NONE',  ( -0.8926702611364459861, 0.2644449429956672315, 0.3649776390501307533 ) ) ;
#941 = EDGE_LOOP ( 'NONE', ( #906, #995, #343, #1079 ) ) ;
#942 = LINE ( 'NONE', #470, #954 ) ;
#943 = EDGE_CURVE ( 'NONE', #261, #783, #1161, .T. ) ;
#944 = EDGE_CURVE ( 'NONE', #959, #920, #268, .T. ) ;
#945 = DIRECTION ( 'NONE',  ( -0.4461978145050307099, 0.6328141553137592856, -0.6328141553137599518 ) ) ;
#946 = CARTESIAN_POINT ( 'NONE',  ( 0.8750000000000002220, -0.7070038717049416110, 0.2984582311920159770 ) ) ;
#947 = CARTESIAN_POINT ( 'NONE',  ( 0.8749999999999998890, -0.9573203475728212508, -0.5576685299944317276 ) ) ;
#948 = VERTEX_POINT ( 'NONE', #1008 ) ;
#949 = DIRECTION ( 'NONE',  ( -0.000000000000000000, 0.000000000000000000, -1.000000000000000000 ) ) ;
#950 = VECTOR ( 'NONE', #559, 1000.000000000000114 ) ;
#951 = FACE_OUTER_BOUND ( 'NONE', #937, .T. ) ;
#952 = PRESENTATION_STYLE_ASSIGNMENT (( #1151 ) ) ;
#953 = VECTOR ( 'NONE', #912, 1000.000000000000114 ) ;
#954 = VECTOR ( 'NONE', #4, 1000.000000000000000 ) ;
#955 = EDGE_CURVE ( 'NONE', #1031, #622, #540, .T. ) ;
#956 = AXIS2_PLACEMENT_3D ( 'NONE', #303, #397, #473 ) ;
#957 = TOROIDAL_SURFACE ( 'NONE', #1109, 1.399000000000000021, 0.1000000000000000056 ) ;
#958 = LINE ( 'NONE', #674, #1001 ) ;
#959 = VERTEX_POINT ( 'NONE', #169 ) ;
#960 = CARTESIAN_POINT ( 'NONE',  ( 1.750000000000000000, 0.2984582311920155329, 0.5995673809149001388 ) ) ;
#961 = COLOUR_RGB ( '',0.6470588235294117974, 0.6196078431372549211, 0.5882352941176470784 ) ;
#962 = ORIENTED_EDGE ( 'NONE', *, *, #202, .T. ) ;
#963 = ORIENTED_EDGE ( 'NONE', *, *, #746, .T. ) ;
#964 = FACE_OUTER_BOUND ( 'NONE', #27, .T. ) ;
#965 = ADVANCED_FACE ( 'NONE', ( #932 ), #492, .T. ) ;
#966 = DIRECTION ( 'NONE',  ( -1.000000000000000000, -0.000000000000000000, -0.000000000000000000 ) ) ;
#967 =( NAMED_UNIT ( * ) SI_UNIT ( $, .STERADIAN. ) SOLID_ANGLE_UNIT ( ) );
#968 = EDGE_CURVE ( 'NONE', #1198, #775, #88, .T. ) ;
#969 = ADVANCED_FACE ( 'NONE', ( #348 ), #188, .F. ) ;
#970 = EDGE_LOOP ( 'NONE', ( #137, #190, #1164, #652 ) ) ;
#971 = CARTESIAN_POINT ( 'NONE',  ( 3.400000000000000355, 1.836970198721017855E-16, 1.499999999999990230 ) ) ;
#972 = ADVANCED_FACE ( 'NONE', ( #1211 ), #1047, .F. ) ;
#973 = CARTESIAN_POINT ( 'NONE',  ( 0.8275411632120673877, 0.000000000000000000, 0.000000000000000000 ) ) ;
#974 = CONICAL_SURFACE ( 'NONE', #270, 1.499999999999990230, 0.7853981633974418397 ) ;
#975 = EDGE_CURVE ( 'NONE', #977, #886, #673, .T. ) ;
#976 = CARTESIAN_POINT ( 'NONE',  ( 0.8275411632120673877, 0.000000000000000000, 0.000000000000000000 ) ) ;
#977 = VERTEX_POINT ( 'NONE', #630 ) ;
#978 = DIRECTION ( 'NONE',  ( 0.8926702611364459861, -0.3649776390501308643, -0.2644449429956667874 ) ) ;
#979 = AXIS2_PLACEMENT_3D ( 'NONE', #278, #458, #1029 ) ;
#980 = PLANE ( 'NONE',  #1010 ) ;
#981 = DIRECTION ( 'NONE',  ( -1.000000000000000000, -0.000000000000000000, -0.000000000000000000 ) ) ;
#982 = AXIS2_PLACEMENT_3D ( 'NONE', #976, #125, #608 ) ;
#983 = CARTESIAN_POINT ( 'NONE',  ( 1.750000000000000000, 0.4849999999999999867, 0.000000000000000000 ) ) ;
#984 = ORIENTED_EDGE ( 'NONE', *, *, #899, .T. ) ;
#985 = DIRECTION ( 'NONE',  ( 0.000000000000000000, 0.000000000000000000, 1.000000000000000000 ) ) ;
#986 =( LENGTH_UNIT ( ) NAMED_UNIT ( * ) SI_UNIT ( .MILLI., .METRE. ) );
#987 = PLANE ( 'NONE',  #871 ) ;
#988 = LINE ( 'NONE', #123, #637 ) ;
#989 = EDGE_CURVE ( 'NONE', #563, #450, #1106, .T. ) ;
#990 = ORIENTED_EDGE ( 'NONE', *, *, #141, .F. ) ;
#991 =( NAMED_UNIT ( * ) PLANE_ANGLE_UNIT ( ) SI_UNIT ( $, .RADIAN. ) );
#992 = APPLICATION_PROTOCOL_DEFINITION ( 'draft international standard', 'automotive_design', 1998, #46 ) ;
#993 = ADVANCED_FACE ( 'NONE', ( #186 ), #974, .T. ) ;
#994 = CARTESIAN_POINT ( 'NONE',  ( 1.750000000000000000, -5.421010862427522170E-17, -0.4849999999999998757 ) ) ;
#995 = ORIENTED_EDGE ( 'NONE', *, *, #1055, .T. ) ;
#996 = LINE ( 'NONE', #708, #550 ) ;
#997 = VECTOR ( 'NONE', #338, 1000.000000000000000 ) ;
#998 = STYLED_ITEM ( 'NONE', ( #1138 ), #724 ) ;
#999 = DIRECTION ( 'NONE',  ( 0.08798131281535122306, 0.7165502907562202317, -0.6919645723680248883 ) ) ;
#1000 = DIRECTION ( 'NONE',  ( 0.000000000000000000, -0.3583679495452993802, 0.9335804264972020761 ) ) ;
#1001 = VECTOR ( 'NONE', #222, 1000.000000000000114 ) ;
#1002 = PLANE ( 'NONE',  #447 ) ;
#1003 = VERTEX_POINT ( 'NONE', #71 ) ;
#1004 = CARTESIAN_POINT ( 'NONE',  ( 2.750999999999999002, 1.590816192092411868E-16, -1.298999999999999932 ) ) ;
#1005 = DIRECTION ( 'NONE',  ( 0.000000000000000000, 1.224646799147353207E-16, -1.000000000000000000 ) ) ;
#1006 = ORIENTED_EDGE ( 'NONE', *, *, #202, .F. ) ;
#1007 = ORIENTED_EDGE ( 'NONE', *, *, #1012, .T. ) ;
#1008 = CARTESIAN_POINT ( 'NONE',  ( 3.157578643762697812, 1.590816192092411868E-16, -1.298999999999999932 ) ) ;
#1009 = VERTEX_POINT ( 'NONE', #78 ) ;
#1010 = AXIS2_PLACEMENT_3D ( 'NONE', #61, #1187, #1081 ) ;
#1011 = ORIENTED_EDGE ( 'NONE', *, *, #802, .T. ) ;
#1012 = EDGE_CURVE ( 'NONE', #852, #1003, #11, .T. ) ;
#1013 = ORIENTED_EDGE ( 'NONE', *, *, #76, .F. ) ;
#1014 = CARTESIAN_POINT ( 'NONE',  ( 0.8750000000000002220, 0.7070038717049416110, -0.2984582311920157549 ) ) ;
#1015 = CONICAL_SURFACE ( 'NONE', #479, 1.499999999999989120, 1.051888018552857407 ) ;
#1016 = FACE_OUTER_BOUND ( 'NONE', #832, .T. ) ;
#1017 = ORIENTED_EDGE ( 'NONE', *, *, #192, .F. ) ;
#1018 = VECTOR ( 'NONE', #440, 1000.000000000000114 ) ;
#1019 = VERTEX_POINT ( 'NONE', #463 ) ;
#1020 = PLANE ( 'NONE',  #816 ) ;
#1021 = CARTESIAN_POINT ( 'NONE',  ( 0.04838825593254940383, -0.6939316508225478186, -1.715241718189958187E-16 ) ) ;
#1022 = CARTESIAN_POINT ( 'NONE',  ( 2.750999999999999002, 0.000000000000000000, 0.000000000000000000 ) ) ;
#1023 = DIRECTION ( 'NONE',  ( 0.1138834974989065829, 0.9275066560604725563, -0.3560364475175776255 ) ) ;
#1024 = ORIENTED_EDGE ( 'NONE', *, *, #1012, .F. ) ;
#1025 = ORIENTED_EDGE ( 'NONE', *, *, #383, .T. ) ;
#1026 = ADVANCED_FACE ( 'NONE', ( #645 ), #733, .F. ) ;
#1027 = EDGE_LOOP ( 'NONE', ( #1042, #653, #251, #1196, #157, #449, #1053, #1007, #703, #355, #456, #339, #263, #718 ) ) ;
#1028 = CARTESIAN_POINT ( 'NONE',  ( 2.750999999999999002, 0.000000000000000000, 0.000000000000000000 ) ) ;
#1029 = DIRECTION ( 'NONE',  ( 0.000000000000000000, 0.000000000000000000, -1.000000000000000000 ) ) ;
#1030 = ORIENTED_EDGE ( 'NONE', *, *, #211, .F. ) ;
#1031 = VERTEX_POINT ( 'NONE', #654 ) ;
#1032 = AXIS2_PLACEMENT_3D ( 'NONE', #710, #42, #254 ) ;
#1033 = CARTESIAN_POINT ( 'NONE',  ( 3.400000000000000355, 0.000000000000000000, 0.000000000000000000 ) ) ;
#1034 = VECTOR ( 'NONE', #1127, 1000.000000000000114 ) ;
#1035 = FACE_OUTER_BOUND ( 'NONE', #364, .T. ) ;
#1036 = ORIENTED_EDGE ( 'NONE', *, *, #57, .F. ) ;
#1037 = VECTOR ( 'NONE', #257, 1000.000000000000114 ) ;
#1038 = DIRECTION ( 'NONE',  ( -0.000000000000000000, 0.9335804264972012989, 0.3583679495453013231 ) ) ;
#1039 = ADVANCED_FACE ( 'NONE', ( #350 ), #144, .T. ) ;
#1040 = CARTESIAN_POINT ( 'NONE',  ( -3.442001378349206053, 1.590816192092411868E-16, -1.298999999999999932 ) ) ;
#1041 = CARTESIAN_POINT ( 'NONE',  ( 5.009078719685259529, -0.07394023823922615812, 0.02838299820198922005 ) ) ;
#1042 = ORIENTED_EDGE ( 'NONE', *, *, #726, .T. ) ;
#1043 = DIRECTION ( 'NONE',  ( -0.000000000000000000, 0.000000000000000000, 1.000000000000000000 ) ) ;
#1044 = DIRECTION ( 'NONE',  ( -1.000000000000000000, -0.000000000000000000, -0.000000000000000000 ) ) ;
#1045 = ORIENTED_EDGE ( 'NONE', *, *, #944, .T. ) ;
#1046 = DIRECTION ( 'NONE',  ( 1.000000000000000000, 0.000000000000000000, 0.000000000000000000 ) ) ;
#1047 = TOROIDAL_SURFACE ( 'NONE', #714, 1.649999999999999911, 0.3509999999999999787 ) ;
#1048 = FILL_AREA_STYLE ('',( #35 ) ) ;
#1049 = DIRECTION ( 'NONE',  ( -1.000000000000000000, -0.000000000000000000, -0.000000000000000000 ) ) ;
#1050 = AXIS2_PLACEMENT_3D ( 'NONE', #1144, #670, #677 ) ;
#1051 = CIRCLE ( 'NONE', #620, 4.999605077635991712 ) ;
#1052 = EDGE_CURVE ( 'NONE', #477, #886, #362, .T. ) ;
#1053 = ORIENTED_EDGE ( 'NONE', *, *, #729, .T. ) ;
#1054 = CARTESIAN_POINT ( 'NONE',  ( 3.400000000000000355, 0.000000000000000000, 0.000000000000000000 ) ) ;
#1055 = EDGE_CURVE ( 'NONE', #905, #113, #344, .T. ) ;
#1056 = DIRECTION ( 'NONE',  ( 0.000000000000000000, 1.000000000000000000, -1.224646799147353207E-16 ) ) ;
#1057 = UNCERTAINTY_MEASURE_WITH_UNIT (LENGTH_MEASURE( 1.000000000000000082E-05 ), #319, 'distance_accuracy_value', 'NONE');
#1058 = VERTEX_POINT ( 'NONE', #850 ) ;
#1059 = DIRECTION ( 'NONE',  ( -0.8926702611364462081, 0.3649776390501308088, -0.2644449429956667319 ) ) ;
#1060 = CARTESIAN_POINT ( 'NONE',  ( 1.750000000000000000, -0.5995673809148999167, -0.2984582311920159214 ) ) ;
#1061 = DIRECTION ( 'NONE',  ( 0.000000000000000000, 0.3583679495452990471, -0.9335804264972021871 ) ) ;
#1062 = CARTESIAN_POINT ( 'NONE',  ( 4.994471112842468585, 0.04348416629860508281, -0.04502917237211594842 ) ) ;
#1063 = LINE ( 'NONE', #136, #483 ) ;
#1064 = ORIENTED_EDGE ( 'NONE', *, *, #1186, .F. ) ;
#1065 = LINE ( 'NONE', #788, #1018 ) ;
#1066 = LINE ( 'NONE', #432, #1067 ) ;
#1067 = VECTOR ( 'NONE', #233, 1000.000000000000114 ) ;
#1068 = CARTESIAN_POINT ( 'NONE',  ( 3.400000000000000355, 0.000000000000000000, 1.499999999999990230 ) ) ;
#1069 = COLOUR_RGB ( '',0.6470588235294117974, 0.6196078431372549211, 0.5882352941176470784 ) ;
#1070 = CARTESIAN_POINT ( 'NONE',  ( 0.8275411632120673877, 0.000000000000000000, -2.755102040816326703 ) ) ;
#1071 = VERTEX_POINT ( 'NONE', #467 ) ;
#1072 = DIRECTION ( 'NONE',  ( 0.000000000000000000, 0.000000000000000000, 1.000000000000000000 ) ) ;
#1073 = CIRCLE ( 'NONE', #1212, 4.921617994597914603 ) ;
#1074 = SURFACE_STYLE_USAGE ( .BOTH. , #436 ) ;
#1075 = DIRECTION ( 'NONE',  ( 0.000000000000000000, 0.7071067811865477948, 0.7071067811865471286 ) ) ;
#1076 = CARTESIAN_POINT ( 'NONE',  ( 0.2122292933583081187, 1.228301132161429221, -0.7540079504585240899 ) ) ;
#1077 = VECTOR ( 'NONE', #471, 1000.000000000000000 ) ;
#1078 = CARTESIAN_POINT ( 'NONE',  ( 0.000000000000000000, 0.2984582311920158104, -0.8144403624949830833 ) ) ;
#1079 = ORIENTED_EDGE ( 'NONE', *, *, #1104, .F. ) ;
#1080 = SURFACE_STYLE_FILL_AREA ( #894 ) ;
#1081 = DIRECTION ( 'NONE',  ( 0.000000000000000000, -0.6946583704589960329, -0.7193398003386524131 ) ) ;
#1082 = LINE ( 'NONE', #687, #822 ) ;
#1083 = DIRECTION ( 'NONE',  ( 1.000000000000000000, 0.000000000000000000, 0.000000000000000000 ) ) ;
#1084 = DIRECTION ( 'NONE',  ( 0.000000000000000000, 0.6946583704589961439, 0.7193398003386521911 ) ) ;
#1085 = DIRECTION ( 'NONE',  ( 0.08798131281535119530, 0.7165502907562202317, 0.6919645723680248883 ) ) ;
#1086 = VERTEX_POINT ( 'NONE', #635 ) ;
#1087 = CIRCLE ( 'NONE', #838, 1.066999999999999504 ) ;
#1088 = CARTESIAN_POINT ( 'NONE',  ( -3.442001378349206053, 0.000000000000000000, 0.000000000000000000 ) ) ;
#1089 = AXIS2_PLACEMENT_3D ( 'NONE', #1062, #151, #607 ) ;
#1090 = DIRECTION ( 'NONE',  ( 0.000000000000000000, 0.6946583704589959218, -0.7193398003386524131 ) ) ;
#1091 = EDGE_CURVE ( 'NONE', #1009, #113, #798, .T. ) ;
#1092 = AXIS2_PLACEMENT_3D ( 'NONE', #794, #63, #1158 ) ;
#1093 = VERTEX_POINT ( 'NONE', #305 ) ;
#1094 = DIRECTION ( 'NONE',  ( 0.1138834974989063192, -0.3560364475175776255, 0.9275066560604725563 ) ) ;
#1095 = ADVANCED_FACE ( 'NONE', ( #964 ), #957, .F. ) ;
#1096 = EDGE_LOOP ( 'NONE', ( #361, #962, #445, #353 ) ) ;
#1097 = CARTESIAN_POINT ( 'NONE',  ( 82.40000000000000568, 0.000000000000000000, 0.000000000000000000 ) ) ;
#1098 = LINE ( 'NONE', #166, #271 ) ;
#1099 = CARTESIAN_POINT ( 'NONE',  ( 82.15270800287211728, 0.000000000000000000, 0.000000000000000000 ) ) ;
#1100 = CARTESIAN_POINT ( 'NONE',  ( 0.000000000000000000, -0.6998729815800832643, -1.714194413403527111E-16 ) ) ;
#1101 = ORIENTED_EDGE ( 'NONE', *, *, #582, .T. ) ;
#1102 = CIRCLE ( 'NONE', #384, 5.000000000000000000 ) ;
#1103 = EDGE_LOOP ( 'NONE', ( #1025, #603, #536, #26 ) ) ;
#1104 = EDGE_CURVE ( 'NONE', #13, #1009, #52, .T. ) ;
#1105 = ORIENTED_EDGE ( 'NONE', *, *, #944, .F. ) ;
#1106 = CIRCLE ( 'NONE', #795, 1.499999999999990230 ) ;
#1107 = DIRECTION ( 'NONE',  ( -0.4461978145050307654, -0.6328141553137596187, 0.6328141553137597297 ) ) ;
#1108 = COLOUR_RGB ( '',0.6470588235294117974, 0.6196078431372549211, 0.5882352941176470784 ) ;
#1109 = AXIS2_PLACEMENT_3D ( 'NONE', #224, #589, #659 ) ;
#1110 = DIRECTION ( 'NONE',  ( -0.000000000000000000, 0.000000000000000000, 1.000000000000000000 ) ) ;
#1111 = ORIENTED_EDGE ( 'NONE', *, *, #185, .T. ) ;
#1112 = CIRCLE ( 'NONE', #331, 2.799999999999999378 ) ;
#1113 = EDGE_LOOP ( 'NONE', ( #345, #399, #87, #203 ) ) ;
#1114 = EDGE_LOOP ( 'NONE', ( #173, #546, #860, #379 ) ) ;
#1115 = ADVANCED_FACE ( 'NONE', ( #586 ), #532, .T. ) ;
#1116 = DIRECTION ( 'NONE',  ( 0.000000000000000000, -0.9335804264972020761, -0.3583679495452993802 ) ) ;
#1117 = DIRECTION ( 'NONE',  ( -1.000000000000000000, -0.000000000000000000, -0.000000000000000000 ) ) ;
#1118 = AXIS2_PLACEMENT_3D ( 'NONE', #312, #406, #387 ) ;
#1119 = ORIENTED_EDGE ( 'NONE', *, *, #64, .F. ) ;
#1120 = ORIENTED_EDGE ( 'NONE', *, *, #1181, .T. ) ;
#1121 = FACE_OUTER_BOUND ( 'NONE', #175, .T. ) ;
#1122 = EDGE_LOOP ( 'NONE', ( #444, #1199, #742, #460 ) ) ;
#1123 = DIRECTION ( 'NONE',  ( -0.000000000000000000, 1.000000000000000000, 1.224646799147353207E-16 ) ) ;
#1124 = DIRECTION ( 'NONE',  ( 0.000000000000000000, 0.7071067811865475727, -0.7071067811865474617 ) ) ;
#1125 = VECTOR ( 'NONE', #12, 1000.000000000000000 ) ;
#1126 = FACE_OUTER_BOUND ( 'NONE', #91, .T. ) ;
#1127 = DIRECTION ( 'NONE',  ( 0.9925461516413219831, 1.537315277002354605E-16, 0.1218693434051473928 ) ) ;
#1128 = AXIS2_PLACEMENT_3D ( 'NONE', #267, #170, #646 ) ;
#1129 = VERTEX_POINT ( 'NONE', #1131 ) ;
#1130 = FILL_AREA_STYLE_COLOUR ( '', #961 ) ;
#1131 = CARTESIAN_POINT ( 'NONE',  ( 0.2122292933583078134, 1.228301132161429221, 0.7540079504585240899 ) ) ;
#1132 =( LENGTH_UNIT ( ) NAMED_UNIT ( * ) SI_UNIT ( .MILLI., .METRE. ) );
#1133 =( LENGTH_UNIT ( ) NAMED_UNIT ( * ) SI_UNIT ( .MILLI., .METRE. ) );
#1134 = DIRECTION ( 'NONE',  ( 0.000000000000000000, 0.6946583704589960329, -0.7193398003386524131 ) ) ;
#1135 = ORIENTED_EDGE ( 'NONE', *, *, #351, .F. ) ;
#1136 = PRESENTATION_STYLE_ASSIGNMENT (( #23 ) ) ;
#1137 = LINE ( 'NONE', #971, #853 ) ;
#1138 = PRESENTATION_STYLE_ASSIGNMENT (( #481 ) ) ;
#1139 = DIRECTION ( 'NONE',  ( 0.000000000000000000, 0.000000000000000000, 1.000000000000000000 ) ) ;
#1140 = VECTOR ( 'NONE', #757, 1000.000000000000227 ) ;
#1141 = LINE ( 'NONE', #461, #997 ) ;
#1142 = ORIENTED_EDGE ( 'NONE', *, *, #122, .F. ) ;
#1143 = ADVANCED_FACE ( 'NONE', ( #199 ), #1148, .F. ) ;
#1144 = CARTESIAN_POINT ( 'NONE',  ( 2.750999999999999002, 0.000000000000000000, 1.649999999999999911 ) ) ;
#1145 = FACE_OUTER_BOUND ( 'NONE', #928, .T. ) ;
#1146 = ORIENTED_EDGE ( 'NONE', *, *, #1176, .T. ) ;
#1147 = AXIS2_PLACEMENT_3D ( 'NONE', #599, #154, #504 ) ;
#1148 = PLANE ( 'NONE',  #1118 ) ;
#1149 = AXIS2_PLACEMENT_3D ( 'NONE', #696, #610, #133 ) ;
#1150 = CARTESIAN_POINT ( 'NONE',  ( 1.750000000000000000, -0.5995673809148999167, 0.2984582311920159214 ) ) ;
#1151 = SURFACE_STYLE_USAGE ( .BOTH. , #681 ) ;
#1152 = ORIENTED_EDGE ( 'NONE', *, *, #497, .T. ) ;
#1153 = LINE ( 'NONE', #515, #196 ) ;
#1154 = DIRECTION ( 'NONE',  ( -1.000000000000000000, -0.000000000000000000, -0.000000000000000000 ) ) ;
#1155 = ADVANCED_FACE ( 'NONE', ( #772 ), #10, .T. ) ;
#1156 = DIRECTION ( 'NONE',  ( 0.000000000000000000, 0.3583679495452990471, -0.9335804264972021871 ) ) ;
#1157 = VERTEX_POINT ( 'NONE', #210 ) ;
#1158 = DIRECTION ( 'NONE',  ( 0.000000000000000000, 0.000000000000000000, 1.000000000000000000 ) ) ;
#1159 = EDGE_CURVE ( 'NONE', #1184, #280, #219, .T. ) ;
#1160 = PLANE ( 'NONE',  #856 ) ;
#1161 = CIRCLE ( 'NONE', #791, 2.755102040816326703 ) ;
#1162 = CIRCLE ( 'NONE', #872, 1.649999999999999911 ) ;
#1163 = CARTESIAN_POINT ( 'NONE',  ( 0.2122292944384884805, -1.228301131719785833, 0.7540079501385315019 ) ) ;
#1164 = ORIENTED_EDGE ( 'NONE', *, *, #245, .T. ) ;
#1165 = AXIS2_PLACEMENT_3D ( 'NONE', #830, #656, #448 ) ;
#1166 =( NAMED_UNIT ( * ) SI_UNIT ( $, .STERADIAN. ) SOLID_ANGLE_UNIT ( ) );
#1167 = CARTESIAN_POINT ( 'NONE',  ( 1.750000000000000000, 0.5995673809148999167, -0.2984582311920157549 ) ) ;
#1168 = LINE ( 'NONE', #49, #760 ) ;
#1169 = VERTEX_POINT ( 'NONE', #489 ) ;
#1170 = CARTESIAN_POINT ( 'NONE',  ( 0.000000000000000000, -1.315073314230742252, 0.8168788287968474782 ) ) ;
#1171 = FILL_AREA_STYLE_COLOUR ( '', #1188 ) ;
#1172 = ADVANCED_FACE ( 'NONE', ( #863 ), #18, .T. ) ;
#1173 = DIRECTION ( 'NONE',  ( 0.000000000000000000, 0.000000000000000000, -1.000000000000000000 ) ) ;
#1174 = CARTESIAN_POINT ( 'NONE',  ( 82.15270800287211728, 0.000000000000000000, 0.000000000000000000 ) ) ;
#1175 = DIRECTION ( 'NONE',  ( 0.08798131281535091774, -0.6919645723680251104, 0.7165502907562201207 ) ) ;
#1176 = EDGE_CURVE ( 'NONE', #622, #477, #751, .T. ) ;
#1177 = DIRECTION ( 'NONE',  ( -0.000000000000000000, -0.7071067811865479058, -0.7071067811865472397 ) ) ;
#1178 = EDGE_LOOP ( 'NONE', ( #152, #509, #642, #579 ) ) ;
#1179 = DIRECTION ( 'NONE',  ( -0.000000000000000000, 0.000000000000000000, -1.000000000000000000 ) ) ;
#1180 = DIRECTION ( 'NONE',  ( 0.000000000000000000, 0.000000000000000000, 1.000000000000000000 ) ) ;
#1181 = EDGE_CURVE ( 'NONE', #280, #629, #29, .T. ) ;
#1182 = CARTESIAN_POINT ( 'NONE',  ( 0.8275411632120673877, 0.000000000000000000, 0.000000000000000000 ) ) ;
#1183 = EDGE_CURVE ( 'NONE', #826, #450, #1137, .T. ) ;
#1184 = VERTEX_POINT ( 'NONE', #765 ) ;
#1185 = VERTEX_POINT ( 'NONE', #118 ) ;
#1186 = EDGE_CURVE ( 'NONE', #631, #184, #302, .T. ) ;
#1187 = DIRECTION ( 'NONE',  ( 0.08798131281535113979, -0.7165502907562204538, 0.6919645723680247773 ) ) ;
#1188 = COLOUR_RGB ( '',0.9921568627450980671, 0.5921568627450980449, 0.9607843137254902244 ) ;
#1189 = ADVANCED_FACE ( 'NONE', ( #96, #666 ), #684, .F. ) ;
#1190 = ORIENTED_EDGE ( 'NONE', *, *, #375, .F. ) ;
#1191 = VERTEX_POINT ( 'NONE', #5 ) ;
#1192 = FACE_OUTER_BOUND ( 'NONE', #530, .T. ) ;
#1193 = DIRECTION ( 'NONE',  ( 0.000000000000000000, -0.9335804264972020761, -0.3583679495452994357 ) ) ;
#1194 = CARTESIAN_POINT ( 'NONE',  ( 82.40000000000000568, 0.000000000000000000, 1.066999999999999504 ) ) ;
#1195 = ADVANCED_FACE ( 'NONE', ( #380 ), #485, .T. ) ;
#1196 = ORIENTED_EDGE ( 'NONE', *, *, #351, .T. ) ;
#1197 = APPLICATION_CONTEXT ( 'automotive_design' ) ;
#1198 = VERTEX_POINT ( 'NONE', #472 ) ;
#1199 = ORIENTED_EDGE ( 'NONE', *, *, #505, .T. ) ;
#1200 = FACE_OUTER_BOUND ( 'NONE', #815, .T. ) ;
#1201 = DIRECTION ( 'NONE',  ( 0.1138834974989063331, 0.3560364475175780141, -0.9275066560604725563 ) ) ;
#1202 = ADVANCED_FACE ( 'NONE', ( #867 ), #24, .T. ) ;
#1203 = DIRECTION ( 'NONE',  ( 0.000000000000000000, -0.7193398003386518580, 0.6946583704589965880 ) ) ;
#1204 = ORIENTED_EDGE ( 'NONE', *, *, #195, .F. ) ;
#1205 = EDGE_CURVE ( 'NONE', #477, #1031, #897, .T. ) ;
#1206 = VECTOR ( 'NONE', #299, 1000.000000000000000 ) ;
#1207 = ORIENTED_EDGE ( 'NONE', *, *, #844, .F. ) ;
#1208 = ORIENTED_EDGE ( 'NONE', *, *, #968, .T. ) ;
#1209 = AXIS2_PLACEMENT_3D ( 'NONE', #356, #1201, #939 ) ;
#1210 = CIRCLE ( 'NONE', #1089, 4.999605077635992600 ) ;
#1211 = FACE_OUTER_BOUND ( 'NONE', #304, .T. ) ;
#1212 = AXIS2_PLACEMENT_3D ( 'NONE', #930, #923, #848 ) ;
#1213 = DIRECTION ( 'NONE',  ( 0.000000000000000000, -0.7071067811865475727, -0.7071067811865474617 ) ) ;
#1214 = VECTOR ( 'NONE', #147, 1000.000000000000000 ) ;
#1215 = ORIENTED_EDGE ( 'NONE', *, *, #726, .F. ) ;
#1216 = ORIENTED_EDGE ( 'NONE', *, *, #409, .F. ) ;
ENDSEC;
END-ISO-10303-21;
