ISO-10303-21;
HEADER;
FILE_DESCRIPTION (( 'STEP AP214' ),
    '1' );
FILE_NAME ('GB╱T 70.2-2015[内六角平圆头螺钉M4×12].step',
    '2023-08-15T03:01:37',
    ( '' ),
    ( '' ),
    'SwSTEP 2.0',
    'SolidWorks 2022',
    '' );
FILE_SCHEMA (( 'AUTOMOTIVE_DESIGN' ));
ENDSEC;

DATA;
#1 = DIRECTION ( 'NONE',  ( -1.000000000000000000, -0.000000000000000000, -0.000000000000000000 ) ) ;
#2 = ORIENTED_EDGE ( 'NONE', *, *, #621, .T. ) ;
#3 = CARTESIAN_POINT ( 'NONE',  ( -0.3500000000000000333, 2.449293598294706414E-16, -2.000000000000000000 ) ) ;
#4 = EDGE_LOOP ( 'NONE', ( #194, #396, #677, #240, #623, #327 ) ) ;
#5 = PRESENTATION_LAYER_ASSIGNMENT (  '', '', ( #523 ) ) ;
#6 = DIRECTION ( 'NONE',  ( 0.000000000000000000, 0.000000000000000000, 1.000000000000000000 ) ) ;
#7 = DIRECTION ( 'NONE',  ( 0.000000000000000000, 0.000000000000000000, -1.000000000000000000 ) ) ;
#8 = DIRECTION ( 'NONE',  ( -1.000000000000000000, -0.000000000000000000, -0.000000000000000000 ) ) ;
#9 = ORIENTED_EDGE ( 'NONE', *, *, #313, .F. ) ;
#10 = EDGE_CURVE ( 'NONE', #717, #30, #510, .T. ) ;
#11 = SURFACE_STYLE_USAGE ( .BOTH. , #527 ) ;
#12 = DIRECTION ( 'NONE',  ( 0.000000000000000000, -0.8660254037844388186, 0.4999999999999996669 ) ) ;
#13 = VERTEX_POINT ( 'NONE', #201 ) ;
#14 = PRODUCT_DEFINITION_SHAPE ( 'NONE', 'NONE',  #445 ) ;
#15 = CONICAL_SURFACE ( 'NONE', #308, 1.443375672974064106, 1.013248818828625719 ) ;
#16 = CARTESIAN_POINT ( 'NONE',  ( -14.16916666666574010, -1.323094366892892060, -0.2083333333333356741 ) ) ;
#17 = PLANE ( 'NONE',  #441 ) ;
#18 = DIRECTION ( 'NONE',  ( -1.000000000000000000, -0.000000000000000000, -0.000000000000000000 ) ) ;
#19 = COLOUR_RGB ( '',0.7960784313725489669, 0.8235294117647058432, 0.9372549019607843146 ) ;
#20 = CARTESIAN_POINT ( 'NONE',  ( -12.82664516406750366, 0.8393307094615335417, -1.046236566859792605 ) ) ;
#21 = DIRECTION ( 'NONE',  ( 0.000000000000000000, 0.5000000000000002220, -0.8660254037844384856 ) ) ;
#22 = LINE ( 'NONE', #71, #320 ) ;
#23 = DIRECTION ( 'NONE',  ( -0.5000000000000001110, 1.060575238724906792E-16, -0.8660254037844385966 ) ) ;
#24 = CARTESIAN_POINT ( 'NONE',  ( -14.20000000000000107, -0.7216878364870324969, -1.249999999999999556 ) ) ;
#25 = CARTESIAN_POINT ( 'NONE',  ( -0.3500000000000000333, 0.000000000000000000, 2.000000000000000000 ) ) ;
#26 = PRESENTATION_LAYER_ASSIGNMENT (  '', '', ( #614 ) ) ;
#27 = AXIS2_PLACEMENT_3D ( 'NONE', #385, #652, #322 ) ;
#28 = DIRECTION ( 'NONE',  ( 0.000000000000000000, 0.000000000000000000, 1.000000000000000000 ) ) ;
#29 = EDGE_CURVE ( 'NONE', #342, #229, #562, .T. ) ;
#30 = VERTEX_POINT ( 'NONE', #142 ) ;
#31 = CARTESIAN_POINT ( 'NONE',  ( -14.13169213213474507, 1.082531754730547968, 0.6250000000000007772 ) ) ;
#32 = AXIS2_PLACEMENT_3D ( 'NONE', #648, #144, #378 ) ;
#33 = CARTESIAN_POINT ( 'NONE',  ( -14.16921124011832944, -0.4814729877613859732, 1.249999999999999778 ) ) ;
#34 =( NAMED_UNIT ( * ) SI_UNIT ( $, .STERADIAN. ) SOLID_ANGLE_UNIT ( ) );
#35 = CARTESIAN_POINT ( 'NONE',  ( -14.20000000000000107, 0.7216878364870323859, 1.250000000000000000 ) ) ;
#36 = B_SPLINE_CURVE_WITH_KNOTS ( 'NONE', 3,
 ( #619, #408, #184, #415 ),
 .UNSPECIFIED., .F., .F.,
 ( 4, 4 ),
 ( 0.001144596242895329829, 0.001876385854435920399 ),
 .UNSPECIFIED. ) ;
#37 = ORIENTED_EDGE ( 'NONE', *, *, #158, .F. ) ;
#38 = FACE_OUTER_BOUND ( 'NONE', #426, .T. ) ;
#39 = CIRCLE ( 'NONE', #343, 2.199999999999998845 ) ;
#40 = DIRECTION ( 'NONE',  ( -1.000000000000000000, 0.000000000000000000, -0.000000000000000000 ) ) ;
#41 = LINE ( 'NONE', #439, #722 ) ;
#42 = EDGE_LOOP ( 'NONE', ( #419, #579, #63, #296 ) ) ;
#43 = CARTESIAN_POINT ( 'NONE',  ( -14.20000000000000107, 0.000000000000000000, 1.999999999999999112 ) ) ;
#44 = SURFACE_STYLE_USAGE ( .BOTH. , #161 ) ;
#45 = AXIS2_PLACEMENT_3D ( 'NONE', #438, #48, #94 ) ;
#46 = EDGE_CURVE ( 'NONE', #649, #316, #582, .T. ) ;
#47 = SURFACE_STYLE_FILL_AREA ( #553 ) ;
#48 = DIRECTION ( 'NONE',  ( -1.000000000000000000, -0.000000000000000000, -0.000000000000000000 ) ) ;
#49 = CARTESIAN_POINT ( 'NONE',  ( -12.79105228766682956, 0.2457778558553066761, 1.249999999999999778 ) ) ;
#50 = SURFACE_SIDE_STYLE ('',( #675 ) ) ;
#51 = AXIS2_PLACEMENT_3D ( 'NONE', #310, #538, #374 ) ;
#52 = DIRECTION ( 'NONE',  ( 1.000000000000000000, 0.000000000000000000, 0.000000000000000000 ) ) ;
#53 = ORIENTED_EDGE ( 'NONE', *, *, #655, .T. ) ;
#54 = FACE_OUTER_BOUND ( 'NONE', #288, .T. ) ;
#55 = EDGE_CURVE ( 'NONE', #440, #139, #22, .T. ) ;
#56 = CARTESIAN_POINT ( 'NONE',  ( -14.20000000000000107, 2.219290746934189176E-17, -3.599228117386048901E-16 ) ) ;
#57 = ORIENTED_EDGE ( 'NONE', *, *, #29, .T. ) ;
#58 = CONICAL_SURFACE ( 'NONE', #265, 3901.015332362329445, 1.319856261027561928 ) ;
#59 = SHAPE_DEFINITION_REPRESENTATION ( #14, #74 ) ;
#60 = DIRECTION ( 'NONE',  ( -0.000000000000000000, 1.000000000000000000, 1.224646799147353207E-16 ) ) ;
#61 = VERTEX_POINT ( 'NONE', #25 ) ;
#62 = FACE_OUTER_BOUND ( 'NONE', #534, .T. ) ;
#63 = ORIENTED_EDGE ( 'NONE', *, *, #494, .T. ) ;
#64 = DIRECTION ( 'NONE',  ( -1.000000000000000000, -0.000000000000000000, -0.000000000000000000 ) ) ;
#65 = ADVANCED_FACE ( 'NONE', ( #255 ), #209, .F. ) ;
#66 = CARTESIAN_POINT ( 'NONE',  ( -12.77919874466209471, -1.204657989547420316, -0.4134711563600920181 ) ) ;
#67 = ORIENTED_EDGE ( 'NONE', *, *, #46, .F. ) ;
#68 = SURFACE_STYLE_FILL_AREA ( #575 ) ;
#69 = EDGE_CURVE ( 'NONE', #521, #13, #491, .T. ) ;
#70 = CARTESIAN_POINT ( 'NONE',  ( -14.20000000000000107, -1.443375672974064328, -3.035766082959413993E-15 ) ) ;
#71 = CARTESIAN_POINT ( 'NONE',  ( -12.00000000000000000, 0.7216878364870323859, 1.249999999999999778 ) ) ;
#72 = CARTESIAN_POINT ( 'NONE',  ( -0.3500000000000000333, 2.449293598294706414E-16, -2.000000000000000000 ) ) ;
#73 = DIRECTION ( 'NONE',  ( -1.000000000000000000, -0.000000000000000000, -0.000000000000000000 ) ) ;
#74 = ADVANCED_BREP_SHAPE_REPRESENTATION ( 'GB╱T 70.2-2015[内六角平圆头螺钉M4×12]', ( #264, #644 ), #179 ) ;
#75 = ORIENTED_EDGE ( 'NONE', *, *, #158, .T. ) ;
#76 = FACE_OUTER_BOUND ( 'NONE', #171, .T. ) ;
#77 = CARTESIAN_POINT ( 'NONE',  ( -1013.830000000000041, -5.995863809075189324E-14, 0.000000000000000000 ) ) ;
#78 = CARTESIAN_POINT ( 'NONE',  ( -12.77964865737705225, -1.206490558868566598, 0.4102970531874742810 ) ) ;
#79 = EDGE_CURVE ( 'NONE', #370, #613, #41, .T. ) ;
#80 = DIRECTION ( 'NONE',  ( 0.000000000000000000, 8.881784197001252323E-16, -1.000000000000000000 ) ) ;
#81 = CARTESIAN_POINT ( 'NONE',  ( -12.90000000000000213, 1.443375672974064328, -3.128943976826325424E-17 ) ) ;
#82 = ORIENTED_EDGE ( 'NONE', *, *, #339, .F. ) ;
#83 = CARTESIAN_POINT ( 'NONE',  ( -11.79999999999999893, 0.000000000000000000, 2.199999999999998845 ) ) ;
#84 = CARTESIAN_POINT ( 'NONE',  ( -12.77919874466209471, -0.9604055199136780629, 0.8365288436399078709 ) ) ;
#85 = CONICAL_SURFACE ( 'NONE', #272, 3901.015332362329445, 1.319856261027561928 ) ;
#86 = CARTESIAN_POINT ( 'NONE',  ( -14.16916666666574187, 1.323094366892892948, -0.2083333333333324544 ) ) ;
#87 = CARTESIAN_POINT ( 'NONE',  ( -14.15048909679995504, 0.2418642655271375785, 1.249999999999999778 ) ) ;
#88 = FILL_AREA_STYLE ('',( #384 ) ) ;
#89 = VECTOR ( 'NONE', #318, 1000.000000000000000 ) ;
#90 = SPHERICAL_SURFACE ( 'NONE', #472, 4.007472359323742239 ) ;
#91 = EDGE_CURVE ( 'NONE', #139, #727, #615, .T. ) ;
#92 = ORIENTED_EDGE ( 'NONE', *, *, #135, .T. ) ;
#93 = CARTESIAN_POINT ( 'NONE',  ( -14.16921124011832589, -0.4814729877613865838, -1.250000000000000000 ) ) ;
#94 = DIRECTION ( 'NONE',  ( 0.000000000000000000, 0.000000000000000000, 1.000000000000000000 ) ) ;
#95 = CARTESIAN_POINT ( 'NONE',  ( -11.99999999999999645, 0.000000000000000000, 0.000000000000000000 ) ) ;
#96 = ORIENTED_EDGE ( 'NONE', *, *, #494, .F. ) ;
#97 = CARTESIAN_POINT ( 'NONE',  ( -14.15048909679995681, 0.2418642655271367736, -1.250000000000000000 ) ) ;
#98 = APPLICATION_CONTEXT ( 'automotive_design' ) ;
#99 = CIRCLE ( 'NONE', #120, 1.393782217350892916 ) ;
#100 = CARTESIAN_POINT ( 'NONE',  ( -14.20000000000000107, 1.443375672974064328, 9.757819552369541878E-16 ) ) ;
#101 = CARTESIAN_POINT ( 'NONE',  ( -0.3500000000000000333, 0.000000000000000000, 0.000000000000000000 ) ) ;
#102 = ADVANCED_FACE ( 'NONE', ( #330 ), #15, .F. ) ;
#103 = FACE_OUTER_BOUND ( 'NONE', #186, .T. ) ;
#104 = AXIS2_PLACEMENT_3D ( 'NONE', #124, #12, #358 ) ;
#105 = ORIENTED_EDGE ( 'NONE', *, *, #112, .F. ) ;
#106 = CARTESIAN_POINT ( 'NONE',  ( -1013.830000000000041, -5.995863809075189324E-14, 0.000000000000000000 ) ) ;
#107 = ORIENTED_EDGE ( 'NONE', *, *, #188, .F. ) ;
#108 = DIRECTION ( 'NONE',  ( 0.000000000000000000, 0.000000000000000000, 1.000000000000000000 ) ) ;
#109 =( NAMED_UNIT ( * ) SI_UNIT ( $, .STERADIAN. ) SOLID_ANGLE_UNIT ( ) );
#110 = AXIS2_PLACEMENT_3D ( 'NONE', #145, #705, #429 ) ;
#111 = CARTESIAN_POINT ( 'NONE',  ( -12.00000000000000000, 0.7216878364870323859, 1.249999999999999778 ) ) ;
#112 = EDGE_CURVE ( 'NONE', #139, #283, #603, .T. ) ;
#113 = CARTESIAN_POINT ( 'NONE',  ( -0.3500000000000000333, 0.000000000000000000, 0.000000000000000000 ) ) ;
#114 = ORIENTED_EDGE ( 'NONE', *, *, #599, .T. ) ;
#115 = CIRCLE ( 'NONE', #502, 3.800000000000000266 ) ;
#116 =( NAMED_UNIT ( * ) SI_UNIT ( $, .STERADIAN. ) SOLID_ANGLE_UNIT ( ) );
#117 = CARTESIAN_POINT ( 'NONE',  ( -10.72727272727272840, 0.000000000000000000, 0.000000000000000000 ) ) ;
#118 = VERTEX_POINT ( 'NONE', #495 ) ;
#119 = CARTESIAN_POINT ( 'NONE',  ( -12.90000000000000213, -0.7216878364870328300, -1.250000000000000222 ) ) ;
#120 = AXIS2_PLACEMENT_3D ( 'NONE', #218, #159, #108 ) ;
#121 = ORIENTED_EDGE ( 'NONE', *, *, #621, .F. ) ;
#122 = ADVANCED_FACE ( 'NONE', ( #712 ), #436, .F. ) ;
#123 = CARTESIAN_POINT ( 'NONE',  ( -14.20000000000000107, 2.449293598294705428E-16, -1.999999999999999112 ) ) ;
#124 = CARTESIAN_POINT ( 'NONE',  ( -12.00000000000000000, -1.443375672974065216, -5.870030462665943960E-16 ) ) ;
#125 = VERTEX_POINT ( 'NONE', #95 ) ;
#126 = CONICAL_SURFACE ( 'NONE', #311, 3901.015332362329445, 1.319856261027561928 ) ;
#127 =( LENGTH_UNIT ( ) NAMED_UNIT ( * ) SI_UNIT ( .MILLI., .METRE. ) );
#128 = CARTESIAN_POINT ( 'NONE',  ( -12.83343568050244698, 0.4873330088410962047, -1.250000000000000222 ) ) ;
#129 = ORIENTED_EDGE ( 'NONE', *, *, #457, .T. ) ;
#130 = PRODUCT_RELATED_PRODUCT_CATEGORY ( 'part', '', ( #241 ) ) ;
#131 = PLANE ( 'NONE',  #425 ) ;
#132 = CARTESIAN_POINT ( 'NONE',  ( -12.00000000000000000, -1.443375672974065216, -5.870030462665943960E-16 ) ) ;
#133 = ADVANCED_FACE ( 'NONE', ( #602 ), #90, .T. ) ;
#134 = ORIENTED_EDGE ( 'NONE', *, *, #55, .F. ) ;
#135 = EDGE_CURVE ( 'NONE', #484, #283, #625, .T. ) ;
#136 = CIRCLE ( 'NONE', #552, 1.443375672974063884 ) ;
#137 = DIRECTION ( 'NONE',  ( -1.000000000000000000, -0.000000000000000000, -0.000000000000000000 ) ) ;
#138 = CARTESIAN_POINT ( 'NONE',  ( -12.79105228766683311, 0.2457778558553070092, -1.250000000000000000 ) ) ;
#139 = VERTEX_POINT ( 'NONE', #423 ) ;
#140 = AXIS2_PLACEMENT_3D ( 'NONE', #551, #40, #275 ) ;
#141 = DIRECTION ( 'NONE',  ( -1.000000000000000000, -0.000000000000000000, -0.000000000000000000 ) ) ;
#142 = CARTESIAN_POINT ( 'NONE',  ( -12.90000000000000213, -0.7216878364870332740, 1.249999999999999778 ) ) ;
#143 = EDGE_CURVE ( 'NONE', #386, #389, #594, .T. ) ;
#144 = DIRECTION ( 'NONE',  ( -0.000000000000000000, 0.000000000000000000, -1.000000000000000000 ) ) ;
#145 = CARTESIAN_POINT ( 'NONE',  ( -12.00000000000000178, 0.000000000000000000, 0.000000000000000000 ) ) ;
#146 = AXIS2_PLACEMENT_3D ( 'NONE', #341, #60, #291 ) ;
#147 = SPHERICAL_SURFACE ( 'NONE', #32, 4.007472359323742239 ) ;
#148 = CARTESIAN_POINT ( 'NONE',  ( -14.20000000000000107, 2.219290746934189176E-17, -3.599228117386048901E-16 ) ) ;
#149 = CYLINDRICAL_SURFACE ( 'NONE', #581, 1.999999999999999112 ) ;
#150 = FACE_OUTER_BOUND ( 'NONE', #549, .T. ) ;
#151 = PRESENTATION_LAYER_ASSIGNMENT (  '', '', ( #673 ) ) ;
#152 = DIRECTION ( 'NONE',  ( -1.000000000000000000, -0.000000000000000000, -0.000000000000000000 ) ) ;
#153 = EDGE_CURVE ( 'NONE', #727, #613, #570, .T. ) ;
#154 = CARTESIAN_POINT ( 'NONE',  ( -14.15037000055573557, -0.2394511050528685403, -1.250000000000000222 ) ) ;
#155 = UNCERTAINTY_MEASURE_WITH_UNIT (LENGTH_MEASURE( 1.000000000000000082E-05 ), #674, 'distance_accuracy_value', 'NONE');
#156 = CARTESIAN_POINT ( 'NONE',  ( -12.90000000000000213, -1.443375672974065216, -5.870030462665943960E-16 ) ) ;
#157 = ORIENTED_EDGE ( 'NONE', *, *, #559, .T. ) ;
#158 = EDGE_CURVE ( 'NONE', #283, #484, #202, .T. ) ;
#159 = DIRECTION ( 'NONE',  ( -1.000000000000000000, -0.000000000000000000, -0.000000000000000000 ) ) ;
#160 = STYLED_ITEM ( 'NONE', ( #473 ), #264 ) ;
#161 = SURFACE_SIDE_STYLE ('',( #601 ) ) ;
#162 = ORIENTED_EDGE ( 'NONE', *, *, #262, .T. ) ;
#163 = CARTESIAN_POINT ( 'NONE',  ( -14.20000000000000107, 0.7216878364870321638, -1.250000000000000222 ) ) ;
#164 = EDGE_CURVE ( 'NONE', #125, #455, #572, .T. ) ;
#165 = UNCERTAINTY_MEASURE_WITH_UNIT (LENGTH_MEASURE( 1.000000000000000082E-05 ), #398, 'distance_accuracy_value', 'NONE');
#166 = DIRECTION ( 'NONE',  ( -1.000000000000000000, -0.000000000000000000, -0.000000000000000000 ) ) ;
#167 = ORIENTED_EDGE ( 'NONE', *, *, #571, .T. ) ;
#168 = FACE_BOUND ( 'NONE', #446, .T. ) ;
#169 = EDGE_CURVE ( 'NONE', #484, #574, #710, .T. ) ;
#170 = DIRECTION ( 'NONE',  ( -0.5291067161269960017, 1.039180521791365101E-16, -0.8485552916276619673 ) ) ;
#171 = EDGE_LOOP ( 'NONE', ( #663, #683 ) ) ;
#172 = APPLICATION_PROTOCOL_DEFINITION ( 'draft international standard', 'automotive_design', 1998, #731 ) ;
#173 = CIRCLE ( 'NONE', #666, 4.007472359323742239 ) ;
#174 = CLOSED_SHELL ( 'NONE', ( #450, #102, #299, #133, #274, #690, #205, #658, #269, #432, #626, #478, #482, #293, #645, #122, #65, #401, #580, #500, #550, #535, #367, #544, #706 ) ) ;
#175 = DIRECTION ( 'NONE',  ( 0.000000000000000000, 0.4999999999999998335, 0.8660254037844387076 ) ) ;
#176 = EDGE_LOOP ( 'NONE', ( #331, #632, #526, #2, #411, #157 ) ) ;
#177 = DIRECTION ( 'NONE',  ( 0.000000000000000000, 0.000000000000000000, -1.000000000000000000 ) ) ;
#178 = ORIENTED_EDGE ( 'NONE', *, *, #69, .F. ) ;
#179 =( GEOMETRIC_REPRESENTATION_CONTEXT ( 3 ) GLOBAL_UNCERTAINTY_ASSIGNED_CONTEXT ( ( #210 ) ) GLOBAL_UNIT_ASSIGNED_CONTEXT ( ( #297, #286, #116 ) ) REPRESENTATION_CONTEXT ( 'NONE', 'WORKASPACE' ) );
#180 = EDGE_CURVE ( 'NONE', #617, #653, #561, .T. ) ;
#181 = FACE_OUTER_BOUND ( 'NONE', #723, .T. ) ;
#182 = ORIENTED_EDGE ( 'NONE', *, *, #216, .T. ) ;
#183 = CARTESIAN_POINT ( 'NONE',  ( -12.77919874466209471, 0.9604055199136772858, -0.8365288436399075378 ) ) ;
#184 = CARTESIAN_POINT ( 'NONE',  ( -12.77942286340599587, -0.2440392103072532015, 1.249999999999999778 ) ) ;
#185 = AXIS2_PLACEMENT_3D ( 'NONE', #417, #137, #698 ) ;
#186 = EDGE_LOOP ( 'NONE', ( #493, #114, #452, #462 ) ) ;
#187 = CARTESIAN_POINT ( 'NONE',  ( -12.86374379380171007, 0.6053960008849357255, -1.250000000000000000 ) ) ;
#188 = EDGE_CURVE ( 'NONE', #613, #574, #714, .T. ) ;
#189 = ORIENTED_EDGE ( 'NONE', *, *, #248, .T. ) ;
#190 = VECTOR ( 'NONE', #170, 1000.000000000000000 ) ;
#191 = CARTESIAN_POINT ( 'NONE',  ( -14.13169213213474507, -1.082531754730548856, -0.6250000000000016653 ) ) ;
#192 = EDGE_CURVE ( 'NONE', #629, #370, #377, .T. ) ;
#193 = LINE ( 'NONE', #132, #537 ) ;
#194 = ORIENTED_EDGE ( 'NONE', *, *, #164, .F. ) ;
#195 = CARTESIAN_POINT ( 'NONE',  ( -14.13169213213474507, -1.082531754730549078, 0.6249999999999997780 ) ) ;
#196 = DIRECTION ( 'NONE',  ( 0.000000000000000000, 0.000000000000000000, 1.000000000000000000 ) ) ;
#197 = ORIENTED_EDGE ( 'NONE', *, *, #143, .F. ) ;
#198 = CIRCLE ( 'NONE', #259, 2.000000000000000000 ) ;
#199 = CARTESIAN_POINT ( 'NONE',  ( -14.20000000000000107, 2.219290746934189176E-17, -3.599228117386048901E-16 ) ) ;
#200 = DIRECTION ( 'NONE',  ( 0.000000000000000000, 0.000000000000000000, -1.000000000000000000 ) ) ;
#201 = CARTESIAN_POINT ( 'NONE',  ( -12.90000000000000213, -0.7216878364870328300, -1.250000000000000222 ) ) ;
#202 = B_SPLINE_CURVE_WITH_KNOTS ( 'NONE', 3,
 ( #427, #695, #195, #353, #638 ),
 .UNSPECIFIED., .F., .F.,
 ( 4, 1, 4 ),
 ( 2.309401076739671950E-07, 0.0007219187765947080240, 0.001443606613081742113 ),
 .UNSPECIFIED. ) ;
#203 = LINE ( 'NONE', #257, #89 ) ;
#204 = ORIENTED_EDGE ( 'NONE', *, *, #317, .F. ) ;
#205 = ADVANCED_FACE ( 'NONE', ( #76, #361 ), #253, .F. ) ;
#206 = DIRECTION ( 'NONE',  ( -1.000000000000000000, -0.000000000000000000, -0.000000000000000000 ) ) ;
#207 = CARTESIAN_POINT ( 'NONE',  ( -12.90000000000000213, -0.7216878364870328300, -1.250000000000000222 ) ) ;
#208 = PRESENTATION_LAYER_ASSIGNMENT (  '', '', ( #160 ) ) ;
#209 = CONICAL_SURFACE ( 'NONE', #51, 1.443375672974064106, 1.013248818828625719 ) ;
#210 = UNCERTAINTY_MEASURE_WITH_UNIT (LENGTH_MEASURE( 1.000000000000000082E-05 ), #297, 'distance_accuracy_value', 'NONE');
#211 = DIRECTION ( 'NONE',  ( 0.000000000000000000, 0.000000000000000000, 1.000000000000000000 ) ) ;
#212 = CARTESIAN_POINT ( 'NONE',  ( -12.77942286340599587, -0.2440392103072525354, -1.250000000000000222 ) ) ;
#213 = ORIENTED_EDGE ( 'NONE', *, *, #646, .F. ) ;
#214 = SURFACE_STYLE_USAGE ( .BOTH. , #729 ) ;
#215 = CARTESIAN_POINT ( 'NONE',  ( 0.000000000000000000, 0.000000000000000000, 0.000000000000000000 ) ) ;
#216 = EDGE_CURVE ( 'NONE', #316, #653, #721, .T. ) ;
#217 = ORIENTED_EDGE ( 'NONE', *, *, #571, .F. ) ;
#218 = CARTESIAN_POINT ( 'NONE',  ( 0.000000000000000000, 0.000000000000000000, 0.000000000000000000 ) ) ;
#219 = CARTESIAN_POINT ( 'NONE',  ( -14.20000000000000107, 1.443375672974064328, 9.757819552369541878E-16 ) ) ;
#220 = FACE_OUTER_BOUND ( 'NONE', #304, .T. ) ;
#221 = TOROIDAL_SURFACE ( 'NONE', #592, 2.199999999999998845, 0.2000000000000009548 ) ;
#222 = AXIS2_PLACEMENT_3D ( 'NONE', #148, #595, #546 ) ;
#223 = LINE ( 'NONE', #498, #588 ) ;
#224 = B_SPLINE_CURVE_WITH_KNOTS ( 'NONE', 3,
 ( #119, #622, #350, #66, #525, #287 ),
 .UNSPECIFIED., .F., .F.,
 ( 4, 2, 4 ),
 ( 2.391904125716502264E-07, 0.0007300545202770521809, 0.001459869850141532832 ),
 .UNSPECIFIED. ) ;
#225 = ORIENTED_EDGE ( 'NONE', *, *, #380, .T. ) ;
#226 = CARTESIAN_POINT ( 'NONE',  ( -12.83343568050244521, 0.4873330088410962047, 1.249999999999999334 ) ) ;
#227 = CIRCLE ( 'NONE', #45, 1.999999999999997780 ) ;
#228 = DIRECTION ( 'NONE',  ( 0.000000000000000000, 1.776356839400250465E-15, -1.000000000000000000 ) ) ;
#229 = VERTEX_POINT ( 'NONE', #539 ) ;
#230 = PRESENTATION_STYLE_ASSIGNMENT (( #214 ) ) ;
#231 = FACE_OUTER_BOUND ( 'NONE', #501, .T. ) ;
#232 = ORIENTED_EDGE ( 'NONE', *, *, #169, .T. ) ;
#233 = CARTESIAN_POINT ( 'NONE',  ( -12.90000000000000213, 0.7216878364870323859, 1.249999999999999778 ) ) ;
#234 = ORIENTED_EDGE ( 'NONE', *, *, #466, .T. ) ;
#235 = PRODUCT_CONTEXT ( 'NONE', #98, 'mechanical' ) ;
#236 = CARTESIAN_POINT ( 'NONE',  ( -12.90000000000000213, 0.7216878364870328300, -1.249999999999999112 ) ) ;
#237 = ORIENTED_EDGE ( 'NONE', *, *, #46, .T. ) ;
#238 = DIRECTION ( 'NONE',  ( 1.000000000000000000, 0.000000000000000000, 0.000000000000000000 ) ) ;
#239 = DIRECTION ( 'NONE',  ( -1.000000000000000000, -0.000000000000000000, -0.000000000000000000 ) ) ;
#240 = ORIENTED_EDGE ( 'NONE', *, *, #412, .T. ) ;
#241 = PRODUCT ( 'GB╱T 70.2-2015[内六角平圆头螺钉M4×12]', 'GB╱T 70.2-2015[内六角平圆头螺钉M4×12]', '', ( #235 ) ) ;
#242 = DIRECTION ( 'NONE',  ( -1.000000000000000000, -0.000000000000000000, -0.000000000000000000 ) ) ;
#243 = CARTESIAN_POINT ( 'NONE',  ( -14.20000000000000107, 0.7216878364870321638, -1.250000000000000222 ) ) ;
#244 = B_SPLINE_CURVE_WITH_KNOTS ( 'NONE', 3,
 ( #664, #93, #154, #97, #328, #163 ),
 .UNSPECIFIED., .F., .F.,
 ( 4, 2, 4 ),
 ( 0.001182686314803312391, 0.001908595411696192238, 0.002634504508589072085 ),
 .UNSPECIFIED. ) ;
#245 = MECHANICAL_DESIGN_GEOMETRIC_PRESENTATION_REPRESENTATION (  '', ( #614 ), #487 ) ;
#246 = CARTESIAN_POINT ( 'NONE',  ( -12.82664516406750366, -0.8393307094615339858, 1.046236566859793049 ) ) ;
#247 = B_SPLINE_CURVE_WITH_KNOTS ( 'NONE', 3,
 ( #305, #250, #584, #699, #587, #486 ),
 .UNSPECIFIED., .F., .F.,
 ( 4, 2, 4 ),
 ( 2.391904125708790558E-07, 0.0007300545202770514219, 0.001459869850141531965 ),
 .UNSPECIFIED. ) ;
#248 = EDGE_CURVE ( 'NONE', #118, #346, #627, .T. ) ;
#249 = DIRECTION ( 'NONE',  ( 0.000000000000000000, 0.000000000000000000, -1.000000000000000000 ) ) ;
#250 = CARTESIAN_POINT ( 'NONE',  ( -12.82677104533570400, 0.8391288272867697406, 1.046586237043625411 ) ) ;
#251 = DIRECTION ( 'NONE',  ( -1.000000000000000000, -0.000000000000000000, -0.000000000000000000 ) ) ;
#252 = CONICAL_SURFACE ( 'NONE', #383, 3901.015332362329445, 1.319856261027561928 ) ;
#253 = PLANE ( 'NONE',  #260 ) ;
#254 = CARTESIAN_POINT ( 'NONE',  ( -12.00000000000000000, 0.7216878364870321638, -1.250000000000000222 ) ) ;
#255 = FACE_OUTER_BOUND ( 'NONE', #176, .T. ) ;
#256 = CARTESIAN_POINT ( 'NONE',  ( -14.20000000000000107, -0.7216878364870324969, -1.249999999999999556 ) ) ;
#257 = CARTESIAN_POINT ( 'NONE',  ( -0.3500000000000000333, 0.000000000000000000, 2.000000000000000000 ) ) ;
#258 = ORIENTED_EDGE ( 'NONE', *, *, #655, .F. ) ;
#259 = AXIS2_PLACEMENT_3D ( 'NONE', #101, #279, #451 ) ;
#260 = AXIS2_PLACEMENT_3D ( 'NONE', #356, #238, #249 ) ;
#261 = PLANE ( 'NONE',  #104 ) ;
#262 = EDGE_CURVE ( 'NONE', #346, #386, #691, .T. ) ;
#263 = ORIENTED_EDGE ( 'NONE', *, *, #79, .T. ) ;
#264 = MANIFOLD_SOLID_BREP ( '切除-旋转1', #174 ) ;
#265 = AXIS2_PLACEMENT_3D ( 'NONE', #567, #696, #477 ) ;
#266 = CARTESIAN_POINT ( 'NONE',  ( -14.13169213213474507, 1.082531754730548856, -0.6250000000000000000 ) ) ;
#267 = DIRECTION ( 'NONE',  ( 0.000000000000000000, 0.000000000000000000, 1.000000000000000000 ) ) ;
#268 = EDGE_LOOP ( 'NONE', ( #232, #640 ) ) ;
#269 = ADVANCED_FACE ( 'Bface1', ( #335, #168 ), #131, .F. ) ;
#270 = CARTESIAN_POINT ( 'NONE',  ( -12.90000000000000213, 0.000000000000000000, 0.000000000000000000 ) ) ;
#271 = EDGE_LOOP ( 'NONE', ( #431, #107, #693, #604, #679, #459 ) ) ;
#272 = AXIS2_PLACEMENT_3D ( 'NONE', #106, #387, #669 ) ;
#273 = EDGE_CURVE ( 'NONE', #556, #118, #99, .T. ) ;
#274 = ADVANCED_FACE ( 'Bface2', ( #38 ), #149, .T. ) ;
#275 = DIRECTION ( 'NONE',  ( -0.000000000000000000, 0.000000000000000000, 1.000000000000000000 ) ) ;
#276 = DIRECTION ( 'NONE',  ( 0.000000000000000000, 1.000000000000000000, 0.000000000000000000 ) ) ;
#277 = ORIENTED_EDGE ( 'NONE', *, *, #317, .T. ) ;
#278 = CARTESIAN_POINT ( 'NONE',  ( -12.77942286340599409, 0.1219527981751485218, 1.249999999999999778 ) ) ;
#279 = DIRECTION ( 'NONE',  ( -1.000000000000000000, -0.000000000000000000, -0.000000000000000000 ) ) ;
#280 = UNCERTAINTY_MEASURE_WITH_UNIT (LENGTH_MEASURE( 1.000000000000000082E-05 ), #325, 'distance_accuracy_value', 'NONE');
#281 = CARTESIAN_POINT ( 'NONE',  ( -12.00000000000000000, 3.800000000000000266, 0.000000000000000000 ) ) ;
#282 = EDGE_CURVE ( 'NONE', #61, #346, #198, .T. ) ;
#283 = VERTEX_POINT ( 'NONE', #505 ) ;
#284 =( NAMED_UNIT ( * ) SI_UNIT ( $, .STERADIAN. ) SOLID_ANGLE_UNIT ( ) );
#285 = AXIS2_PLACEMENT_3D ( 'NONE', #467, #687, #634 ) ;
#286 =( NAMED_UNIT ( * ) PLANE_ANGLE_UNIT ( ) SI_UNIT ( $, .RADIAN. ) );
#287 = CARTESIAN_POINT ( 'NONE',  ( -12.90000000000000213, -1.443375672974065216, -5.870030462665943960E-16 ) ) ;
#288 = EDGE_LOOP ( 'NONE', ( #518, #225, #393, #96 ) ) ;
#289 = AXIS2_PLACEMENT_3D ( 'NONE', #515, #732, #347 ) ;
#290 = CARTESIAN_POINT ( 'NONE',  ( -12.77942286340599587, -4.330491382256005356E-23, 1.249999999999999778 ) ) ;
#291 = DIRECTION ( 'NONE',  ( 0.000000000000000000, -1.224646799147352714E-16, 1.000000000000000000 ) ) ;
#292 = ORIENTED_EDGE ( 'NONE', *, *, #404, .F. ) ;
#293 = ADVANCED_FACE ( 'NONE', ( #220 ), #85, .F. ) ;
#294 = TOROIDAL_SURFACE ( 'NONE', #390, 2.199999999999998845, 0.2000000000000009548 ) ;
#295 = PLANE ( 'NONE',  #607 ) ;
#296 = ORIENTED_EDGE ( 'NONE', *, *, #701, .T. ) ;
#297 =( LENGTH_UNIT ( ) NAMED_UNIT ( * ) SI_UNIT ( .MILLI., .METRE. ) );
#298 = CARTESIAN_POINT ( 'NONE',  ( -12.82677104533570400, 1.325934682174326973, -0.2034137629563741723 ) ) ;
#299 = ADVANCED_FACE ( 'NONE', ( #54 ), #294, .F. ) ;
#300 = CARTESIAN_POINT ( 'NONE',  ( -11.79999999999999893, 2.449293598294704935E-16, -1.999999999999997780 ) ) ;
#301 = ORIENTED_EDGE ( 'NONE', *, *, #169, .F. ) ;
#302 = DIRECTION ( 'NONE',  ( -1.000000000000000000, -0.000000000000000000, -0.000000000000000000 ) ) ;
#303 = CARTESIAN_POINT ( 'NONE',  ( -12.00000000000000000, 0.000000000000000000, 0.000000000000000000 ) ) ;
#304 = EDGE_LOOP ( 'NONE', ( #541, #234 ) ) ;
#305 = CARTESIAN_POINT ( 'NONE',  ( -12.90000000000000213, 0.7216878364870323859, 1.249999999999999778 ) ) ;
#306 = AXIS2_PLACEMENT_3D ( 'NONE', #410, #573, #175 ) ;
#307 = ORIENTED_EDGE ( 'NONE', *, *, #701, .F. ) ;
#308 = AXIS2_PLACEMENT_3D ( 'NONE', #270, #152, #267 ) ;
#309 = DIRECTION ( 'NONE',  ( -1.000000000000000000, -5.998083099822123814E-17, -0.000000000000000000 ) ) ;
#310 = CARTESIAN_POINT ( 'NONE',  ( -12.90000000000000213, 0.000000000000000000, 0.000000000000000000 ) ) ;
#311 = AXIS2_PLACEMENT_3D ( 'NONE', #77, #309, #536 ) ;
#312 =( GEOMETRIC_REPRESENTATION_CONTEXT ( 3 ) GLOBAL_UNCERTAINTY_ASSIGNED_CONTEXT ( ( #165 ) ) GLOBAL_UNIT_ASSIGNED_CONTEXT ( ( #398, #340, #109 ) ) REPRESENTATION_CONTEXT ( 'NONE', 'WORKASPACE' ) );
#313 = EDGE_CURVE ( 'NONE', #574, #613, #244, .T. ) ;
#314 = CARTESIAN_POINT ( 'NONE',  ( -12.77964865737705225, 1.206490558868565710, -0.4102970531874744475 ) ) ;
#315 = CARTESIAN_POINT ( 'NONE',  ( -12.00000000000000000, -0.7216878364870328300, -1.250000000000000222 ) ) ;
#316 = VERTEX_POINT ( 'NONE', #394 ) ;
#317 = EDGE_CURVE ( 'NONE', #61, #389, #338, .T. ) ;
#318 = DIRECTION ( 'NONE',  ( -0.5000000000000001110, 0.000000000000000000, 0.8660254037844385966 ) ) ;
#319 = ORIENTED_EDGE ( 'NONE', *, *, #273, .F. ) ;
#320 = VECTOR ( 'NONE', #251, 1000.000000000000000 ) ;
#321 = DIRECTION ( 'NONE',  ( -1.000000000000000000, -0.000000000000000000, -0.000000000000000000 ) ) ;
#322 = DIRECTION ( 'NONE',  ( 5.691969551695359369E-17, -1.000000000000000000, 0.000000000000000000 ) ) ;
#323 = CIRCLE ( 'NONE', #659, 1.999999999999998668 ) ;
#324 = UNCERTAINTY_MEASURE_WITH_UNIT (LENGTH_MEASURE( 1.000000000000000082E-05 ), #127, 'distance_accuracy_value', 'NONE');
#325 =( LENGTH_UNIT ( ) NAMED_UNIT ( * ) SI_UNIT ( .MILLI., .METRE. ) );
#326 = CARTESIAN_POINT ( 'NONE',  ( -10.72727272727272840, 0.000000000000000000, 0.000000000000000000 ) ) ;
#327 = ORIENTED_EDGE ( 'NONE', *, *, #349, .T. ) ;
#328 = CARTESIAN_POINT ( 'NONE',  ( -14.16927320067241958, 0.4819564059043952020, -1.250000000000000222 ) ) ;
#329 = PLANE ( 'NONE',  #140 ) ;
#330 = FACE_OUTER_BOUND ( 'NONE', #4, .T. ) ;
#331 = ORIENTED_EDGE ( 'NONE', *, *, #470, .F. ) ;
#332 = COLOUR_RGB ( '',0.6470588235294117974, 0.6196078431372549211, 0.5882352941176470784 ) ;
#333 = DIRECTION ( 'NONE',  ( -1.000000000000000000, -0.000000000000000000, -0.000000000000000000 ) ) ;
#334 = FACE_OUTER_BOUND ( 'NONE', #585, .T. ) ;
#335 = FACE_OUTER_BOUND ( 'NONE', #668, .T. ) ;
#336 = COLOUR_RGB ( '',0.7960784313725489669, 0.8235294117647058432, 0.9372549019607843146 ) ;
#337 = ORIENTED_EDGE ( 'NONE', *, *, #10, .F. ) ;
#338 = LINE ( 'NONE', #43, #496 ) ;
#339 = EDGE_CURVE ( 'NONE', #455, #440, #514, .T. ) ;
#340 =( NAMED_UNIT ( * ) PLANE_ANGLE_UNIT ( ) SI_UNIT ( $, .RADIAN. ) );
#341 = CARTESIAN_POINT ( 'NONE',  ( -11.79999999999999893, 2.694222958124175527E-16, -2.199999999999998845 ) ) ;
#342 = VERTEX_POINT ( 'NONE', #464 ) ;
#343 = AXIS2_PLACEMENT_3D ( 'NONE', #511, #8, #520 ) ;
#344 = AXIS2_PLACEMENT_3D ( 'NONE', #703, #64, #481 ) ;
#345 = DIRECTION ( 'NONE',  ( 0.000000000000000000, 0.000000000000000000, 1.000000000000000000 ) ) ;
#346 = VERTEX_POINT ( 'NONE', #3 ) ;
#347 = DIRECTION ( 'NONE',  ( 5.691969551695359369E-17, -1.000000000000000000, 0.000000000000000000 ) ) ;
#348 = EDGE_LOOP ( 'NONE', ( #301, #217, #591, #709 ) ) ;
#349 = EDGE_CURVE ( 'NONE', #30, #455, #36, .T. ) ;
#350 = CARTESIAN_POINT ( 'NONE',  ( -12.77964865737705225, -0.9585729505925316696, -0.8397029468125257745 ) ) ;
#351 = ORIENTED_EDGE ( 'NONE', *, *, #273, .T. ) ;
#352 = VECTOR ( 'NONE', #583, 1000.000000000000000 ) ;
#353 = CARTESIAN_POINT ( 'NONE',  ( -14.16916666666574187, -1.323094366892894280, 0.2083333333333315940 ) ) ;
#354 = DIRECTION ( 'NONE',  ( -0.000000000000000000, 0.8660254037844387076, 0.4999999999999998335 ) ) ;
#355 = EDGE_LOOP ( 'NONE', ( #37, #405, #337, #167 ) ) ;
#356 = CARTESIAN_POINT ( 'NONE',  ( -14.20000000000000107, 0.000000000000000000, 0.000000000000000000 ) ) ;
#357 = EDGE_CURVE ( 'NONE', #574, #484, #471, .T. ) ;
#358 = DIRECTION ( 'NONE',  ( 0.000000000000000000, -0.4999999999999996669, -0.8660254037844388186 ) ) ;
#359 = ORIENTED_EDGE ( 'NONE', *, *, #713, .F. ) ;
#360 = AXIS2_PLACEMENT_3D ( 'NONE', #430, #141, #28 ) ;
#361 = FACE_BOUND ( 'NONE', #271, .T. ) ;
#362 = CARTESIAN_POINT ( 'NONE',  ( -12.77942286340599587, 0.1219527981751487716, -1.250000000000000222 ) ) ;
#363 = ORIENTED_EDGE ( 'NONE', *, *, #605, .F. ) ;
#364 = CARTESIAN_POINT ( 'NONE',  ( -14.20000000000000107, 2.219290746934189176E-17, -3.599228117386048901E-16 ) ) ;
#365 = CARTESIAN_POINT ( 'NONE',  ( -14.20000000000000107, 1.999999999999998668, 0.000000000000000000 ) ) ;
#366 = CARTESIAN_POINT ( 'NONE',  ( -12.82677104533570400, -1.325934682174327417, 0.2034137629563736172 ) ) ;
#367 = ADVANCED_FACE ( 'NONE', ( #628 ), #295, .F. ) ;
#368 = CARTESIAN_POINT ( 'NONE',  ( -12.90000000000000213, 0.7216878364870328300, -1.249999999999999112 ) ) ;
#369 = CARTESIAN_POINT ( 'NONE',  ( -12.77942286340599587, 1.530808065882368999E-16, -1.250000000000000222 ) ) ;
#370 = VERTEX_POINT ( 'NONE', #236 ) ;
#371 = AXIS2_PLACEMENT_3D ( 'NONE', #596, #715, #211 ) ;
#372 = EDGE_CURVE ( 'NONE', #346, #61, #680, .T. ) ;
#373 = FACE_OUTER_BOUND ( 'NONE', #490, .T. ) ;
#374 = DIRECTION ( 'NONE',  ( 0.000000000000000000, 0.000000000000000000, 1.000000000000000000 ) ) ;
#375 = CARTESIAN_POINT ( 'NONE',  ( -14.16916666666574010, 0.8419691425682042096, -1.041666666666666741 ) ) ;
#376 = CARTESIAN_POINT ( 'NONE',  ( -14.20000000000000107, 5.192832784574810899E-33, 0.000000000000000000 ) ) ;
#377 = B_SPLINE_CURVE_WITH_KNOTS ( 'NONE', 3,
 ( #654, #298, #314, #183, #20, #368 ),
 .UNSPECIFIED., .F., .F.,
 ( 4, 2, 4 ),
 ( 2.391904125709705354E-07, 0.0007300545202770512051, 0.001459869850141531315 ),
 .UNSPECIFIED. ) ;
#378 = DIRECTION ( 'NONE',  ( 0.000000000000000000, 1.000000000000000000, 0.000000000000000000 ) ) ;
#379 = CARTESIAN_POINT ( 'NONE',  ( -14.16927320067241958, 0.4819564059043958681, 1.249999999999999778 ) ) ;
#380 = EDGE_CURVE ( 'NONE', #229, #386, #508, .T. ) ;
#381 = B_SPLINE_CURVE_WITH_KNOTS ( 'NONE', 3,
 ( #388, #375, #266, #86, #219 ),
 .UNSPECIFIED., .F., .F.,
 ( 4, 1, 4 ),
 ( 2.309401076757153916E-07, 0.0007219187765947085661, 0.001443606613081741463 ),
 .UNSPECIFIED. ) ;
#382 = CARTESIAN_POINT ( 'NONE',  ( -14.20000000000000107, 0.000000000000000000, 0.000000000000000000 ) ) ;
#383 = AXIS2_PLACEMENT_3D ( 'NONE', #711, #545, #593 ) ;
#384 = FILL_AREA_STYLE_COLOUR ( '', #19 ) ;
#385 = CARTESIAN_POINT ( 'NONE',  ( -1013.830000000000041, -5.995863809075189324E-14, 0.000000000000000000 ) ) ;
#386 = VERTEX_POINT ( 'NONE', #300 ) ;
#387 = DIRECTION ( 'NONE',  ( -1.000000000000000000, -5.998083099822123814E-17, -0.000000000000000000 ) ) ;
#388 = CARTESIAN_POINT ( 'NONE',  ( -14.20000000000000107, 0.7216878364870321638, -1.250000000000000222 ) ) ;
#389 = VERTEX_POINT ( 'NONE', #688 ) ;
#390 = AXIS2_PLACEMENT_3D ( 'NONE', #600, #391, #718 ) ;
#391 = DIRECTION ( 'NONE',  ( -1.000000000000000000, -0.000000000000000000, -0.000000000000000000 ) ) ;
#392 =( NAMED_UNIT ( * ) PLANE_ANGLE_UNIT ( ) SI_UNIT ( $, .RADIAN. ) );
#393 = ORIENTED_EDGE ( 'NONE', *, *, #143, .T. ) ;
#394 = CARTESIAN_POINT ( 'NONE',  ( -12.00000000000000000, -3.800000000000000266, -4.653657836759942730E-16 ) ) ;
#395 = MECHANICAL_DESIGN_GEOMETRIC_PRESENTATION_REPRESENTATION (  '', ( #523 ), #312 ) ;
#396 = ORIENTED_EDGE ( 'NONE', *, *, #470, .T. ) ;
#397 = DIRECTION ( 'NONE',  ( -1.000000000000000000, 0.000000000000000000, -0.000000000000000000 ) ) ;
#398 =( LENGTH_UNIT ( ) NAMED_UNIT ( * ) SI_UNIT ( .MILLI., .METRE. ) );
#399 = DIRECTION ( 'NONE',  ( -1.000000000000000000, -0.000000000000000000, -0.000000000000000000 ) ) ;
#400 = ORIENTED_EDGE ( 'NONE', *, *, #670, .T. ) ;
#401 = ADVANCED_FACE ( 'NONE', ( #181 ), #558, .F. ) ;
#402 = VECTOR ( 'NONE', #23, 1000.000000000000000 ) ;
#403 = CARTESIAN_POINT ( 'NONE',  ( -12.90000000000000213, 0.7216878364870323859, 1.249999999999999778 ) ) ;
#404 = EDGE_CURVE ( 'NONE', #649, #617, #173, .T. ) ;
#405 = ORIENTED_EDGE ( 'NONE', *, *, #681, .F. ) ;
#406 = FILL_AREA_STYLE_COLOUR ( '', #336 ) ;
#407 = PRODUCT_DEFINITION_FORMATION_WITH_SPECIFIED_SOURCE ( '任何', '', #241, .NOT_KNOWN. ) ;
#408 = CARTESIAN_POINT ( 'NONE',  ( -12.82715765887601655, -0.4880459183963068992, 1.249999999999999778 ) ) ;
#409 = EDGE_LOOP ( 'NONE', ( #568, #589 ) ) ;
#410 = CARTESIAN_POINT ( 'NONE',  ( -12.00000000000000000, 1.443375672974064328, -3.128943976826325424E-17 ) ) ;
#411 = ORIENTED_EDGE ( 'NONE', *, *, #192, .T. ) ;
#412 = EDGE_CURVE ( 'NONE', #13, #717, #224, .T. ) ;
#413 = COLOUR_RGB ( '',0.7960784313725489669, 0.8235294117647058432, 0.9372549019607843146 ) ;
#414 = CARTESIAN_POINT ( 'NONE',  ( -14.20000000000000107, -1.443375672974064328, -3.035766082959413993E-15 ) ) ;
#415 = CARTESIAN_POINT ( 'NONE',  ( -12.77942286340599587, -4.330491382256005356E-23, 1.249999999999999778 ) ) ;
#416 = ORIENTED_EDGE ( 'NONE', *, *, #282, .T. ) ;
#417 = CARTESIAN_POINT ( 'NONE',  ( -14.20000000000000107, 0.000000000000000000, 0.000000000000000000 ) ) ;
#418 = DIRECTION ( 'NONE',  ( 0.000000000000000000, -0.8660254037844385966, -0.5000000000000003331 ) ) ;
#419 = ORIENTED_EDGE ( 'NONE', *, *, #380, .F. ) ;
#420 = DIRECTION ( 'NONE',  ( -1.000000000000000000, -0.000000000000000000, -0.000000000000000000 ) ) ;
#421 = FACE_OUTER_BOUND ( 'NONE', #504, .T. ) ;
#422 = ORIENTED_EDGE ( 'NONE', *, *, #153, .T. ) ;
#423 = CARTESIAN_POINT ( 'NONE',  ( -14.20000000000000107, 0.7216878364870323859, 1.250000000000000000 ) ) ;
#424 = FACE_OUTER_BOUND ( 'NONE', #409, .T. ) ;
#425 = AXIS2_PLACEMENT_3D ( 'NONE', #661, #397, #447 ) ;
#426 = EDGE_LOOP ( 'NONE', ( #416, #162, #307, #204 ) ) ;
#427 = CARTESIAN_POINT ( 'NONE',  ( -14.20000000000000107, -0.7216878364870309426, 1.250000000000000444 ) ) ;
#428 = PLANE ( 'NONE',  #598 ) ;
#429 = DIRECTION ( 'NONE',  ( 0.000000000000000000, 0.000000000000000000, 1.000000000000000000 ) ) ;
#430 = CARTESIAN_POINT ( 'NONE',  ( -0.3500000000000000333, 0.000000000000000000, 0.000000000000000000 ) ) ;
#431 = ORIENTED_EDGE ( 'NONE', *, *, #357, .F. ) ;
#432 = ADVANCED_FACE ( 'NONE', ( #458 ), #221, .F. ) ;
#433 = CARTESIAN_POINT ( 'NONE',  ( -14.16916666666574187, 0.8419691425682040986, 1.041666666666667407 ) ) ;
#434 = CARTESIAN_POINT ( 'NONE',  ( -14.20000000000000107, -0.7216878364870309426, 1.250000000000000444 ) ) ;
#435 =( GEOMETRIC_REPRESENTATION_CONTEXT ( 3 ) GLOBAL_UNCERTAINTY_ASSIGNED_CONTEXT ( ( #324 ) ) GLOBAL_UNIT_ASSIGNED_CONTEXT ( ( #127, #532, #284 ) ) REPRESENTATION_CONTEXT ( 'NONE', 'WORKASPACE' ) );
#436 = CONICAL_SURFACE ( 'NONE', #27, 3901.015332362329445, 1.319856261027561928 ) ;
#437 = ORIENTED_EDGE ( 'NONE', *, *, #522, .F. ) ;
#438 = CARTESIAN_POINT ( 'NONE',  ( -11.79999999999999893, 0.000000000000000000, 0.000000000000000000 ) ) ;
#439 = CARTESIAN_POINT ( 'NONE',  ( -12.00000000000000000, 0.7216878364870321638, -1.250000000000000222 ) ) ;
#440 = VERTEX_POINT ( 'NONE', #233 ) ;
#441 = AXIS2_PLACEMENT_3D ( 'NONE', #542, #631, #641 ) ;
#442 = DIRECTION ( 'NONE',  ( -1.000000000000000000, -0.000000000000000000, -0.000000000000000000 ) ) ;
#443 = CIRCLE ( 'NONE', #566, 1.393782217350892916 ) ;
#444 = DIRECTION ( 'NONE',  ( -1.000000000000000000, -0.000000000000000000, -0.000000000000000000 ) ) ;
#445 = PRODUCT_DEFINITION ( '未知', '', #407, #647 ) ;
#446 = EDGE_LOOP ( 'NONE', ( #57, #129 ) ) ;
#447 = DIRECTION ( 'NONE',  ( -0.000000000000000000, 0.000000000000000000, 1.000000000000000000 ) ) ;
#448 = FACE_OUTER_BOUND ( 'NONE', #700, .T. ) ;
#449 = VECTOR ( 'NONE', #302, 1000.000000000000000 ) ;
#450 = ADVANCED_FACE ( 'NONE', ( #62 ), #460, .T. ) ;
#451 = DIRECTION ( 'NONE',  ( 0.000000000000000000, 0.000000000000000000, 1.000000000000000000 ) ) ;
#452 = ORIENTED_EDGE ( 'NONE', *, *, #404, .T. ) ;
#453 = CARTESIAN_POINT ( 'NONE',  ( -12.86374379380171185, 0.6053960008849365027, 1.249999999999999778 ) ) ;
#454 = LINE ( 'NONE', #676, #190 ) ;
#455 = VERTEX_POINT ( 'NONE', #290 ) ;
#456 = CARTESIAN_POINT ( 'NONE',  ( 0.000000000000000000, 0.000000000000000000, 0.000000000000000000 ) ) ;
#457 = EDGE_CURVE ( 'NONE', #229, #342, #39, .T. ) ;
#458 = FACE_OUTER_BOUND ( 'NONE', #42, .T. ) ;
#459 = ORIENTED_EDGE ( 'NONE', *, *, #135, .F. ) ;
#460 = CONICAL_SURFACE ( 'NONE', #650, 2.000000000000000000, 1.047197551196597631 ) ;
#461 = DIRECTION ( 'NONE',  ( -1.000000000000000000, -0.000000000000000000, -0.000000000000000000 ) ) ;
#462 = ORIENTED_EDGE ( 'NONE', *, *, #734, .F. ) ;
#463 = SURFACE_STYLE_USAGE ( .BOTH. , #50 ) ;
#464 = CARTESIAN_POINT ( 'NONE',  ( -12.00000000000000000, 0.000000000000000000, 2.199999999999998845 ) ) ;
#465 = ORIENTED_EDGE ( 'NONE', *, *, #349, .F. ) ;
#466 = EDGE_CURVE ( 'NONE', #283, #139, #136, .T. ) ;
#467 = CARTESIAN_POINT ( 'NONE',  ( -10.72727272727272840, 0.000000000000000000, 0.000000000000000000 ) ) ;
#468 = DIRECTION ( 'NONE',  ( -1.000000000000000000, -0.000000000000000000, -0.000000000000000000 ) ) ;
#469 = ORIENTED_EDGE ( 'NONE', *, *, #713, .T. ) ;
#470 = EDGE_CURVE ( 'NONE', #125, #521, #454, .T. ) ;
#471 = CIRCLE ( 'NONE', #530, 1.443375672974063884 ) ;
#472 = AXIS2_PLACEMENT_3D ( 'NONE', #326, #548, #276 ) ;
#473 = PRESENTATION_STYLE_ASSIGNMENT (( #11 ) ) ;
#474 = FACE_OUTER_BOUND ( 'NONE', #355, .T. ) ;
#475 = CARTESIAN_POINT ( 'NONE',  ( -12.90000000000000213, -0.7216878364870332740, 1.249999999999999778 ) ) ;
#476 = DIRECTION ( 'NONE',  ( 0.000000000000000000, -1.000000000000000000, 0.000000000000000000 ) ) ;
#477 = DIRECTION ( 'NONE',  ( 5.691969551695359369E-17, -1.000000000000000000, 0.000000000000000000 ) ) ;
#478 = ADVANCED_FACE ( 'NONE', ( #612 ), #728, .F. ) ;
#479 = ORIENTED_EDGE ( 'NONE', *, *, #262, .F. ) ;
#480 = VECTOR ( 'NONE', #206, 1000.000000000000000 ) ;
#481 = DIRECTION ( 'NONE',  ( 0.000000000000000000, 0.000000000000000000, 1.000000000000000000 ) ) ;
#482 = ADVANCED_FACE ( 'NONE', ( #231 ), #58, .F. ) ;
#483 = DIRECTION ( 'NONE',  ( -1.000000000000000000, 0.000000000000000000, -0.000000000000000000 ) ) ;
#484 = VERTEX_POINT ( 'NONE', #70 ) ;
#485 = FILL_AREA_STYLE_COLOUR ( '', #332 ) ;
#486 = CARTESIAN_POINT ( 'NONE',  ( -12.90000000000000213, 1.443375672974064328, -3.128943976826325424E-17 ) ) ;
#487 =( GEOMETRIC_REPRESENTATION_CONTEXT ( 3 ) GLOBAL_UNCERTAINTY_ASSIGNED_CONTEXT ( ( #155 ) ) GLOBAL_UNIT_ASSIGNED_CONTEXT ( ( #674, #563, #606 ) ) REPRESENTATION_CONTEXT ( 'NONE', 'WORKASPACE' ) );
#488 = DIRECTION ( 'NONE',  ( 0.000000000000000000, 0.000000000000000000, 1.000000000000000000 ) ) ;
#489 = DIRECTION ( 'NONE',  ( 0.000000000000000000, -1.000000000000000000, 0.000000000000000000 ) ) ;
#490 = EDGE_LOOP ( 'NONE', ( #733, #469, #686, #560 ) ) ;
#491 = B_SPLINE_CURVE_WITH_KNOTS ( 'NONE', 3,
 ( #492, #212, #716, #207 ),
 .UNSPECIFIED., .F., .F.,
 ( 4, 4 ),
 ( 0.004568767951579537009, 0.005301777679998200682 ),
 .UNSPECIFIED. ) ;
#492 = CARTESIAN_POINT ( 'NONE',  ( -12.77942286340599587, 1.530808065882368999E-16, -1.250000000000000222 ) ) ;
#493 = ORIENTED_EDGE ( 'NONE', *, *, #216, .F. ) ;
#494 = EDGE_CURVE ( 'NONE', #342, #389, #708, .T. ) ;
#495 = CARTESIAN_POINT ( 'NONE',  ( 0.000000000000000000, 2.078092264740989006E-16, -1.393782217350892916 ) ) ;
#496 = VECTOR ( 'NONE', #333, 1000.000000000000000 ) ;
#497 = ORIENTED_EDGE ( 'NONE', *, *, #192, .F. ) ;
#498 = CARTESIAN_POINT ( 'NONE',  ( -12.00000000000000000, -0.7216878364870332740, 1.249999999999999778 ) ) ;
#499 = CARTESIAN_POINT ( 'NONE',  ( -14.15037000055573380, -0.2394511050528674578, 1.249999999999999334 ) ) ;
#500 = ADVANCED_FACE ( 'NONE', ( #635 ), #428, .F. ) ;
#501 = EDGE_LOOP ( 'NONE', ( #609, #672 ) ) ;
#502 = AXIS2_PLACEMENT_3D ( 'NONE', #303, #540, #196 ) ;
#503 = CARTESIAN_POINT ( 'NONE',  ( -14.20000000000000107, -1.999999999999998668, -3.551475717527323339E-16 ) ) ;
#504 = EDGE_LOOP ( 'NONE', ( #9, #363, #178, #543, #263 ) ) ;
#505 = CARTESIAN_POINT ( 'NONE',  ( -14.20000000000000107, -0.7216878364870309426, 1.250000000000000444 ) ) ;
#506 = CARTESIAN_POINT ( 'NONE',  ( -14.20000000000000107, 1.443375672974064328, 9.757819552369541878E-16 ) ) ;
#507 = EDGE_LOOP ( 'NONE', ( #105, #134, #82, #465, #636 ) ) ;
#508 = CIRCLE ( 'NONE', #146, 0.2000000000000009548 ) ;
#509 = AXIS2_PLACEMENT_3D ( 'NONE', #376, #597, #476 ) ;
#510 = B_SPLINE_CURVE_WITH_KNOTS ( 'NONE', 3,
 ( #643, #366, #78, #84, #246, #475 ),
 .UNSPECIFIED., .F., .F.,
 ( 4, 2, 4 ),
 ( 2.391904125715334417E-07, 0.0007300545202770522893, 0.001459869850141533049 ),
 .UNSPECIFIED. ) ;
#511 = CARTESIAN_POINT ( 'NONE',  ( -12.00000000000000178, 0.000000000000000000, 0.000000000000000000 ) ) ;
#512 = ORIENTED_EDGE ( 'NONE', *, *, #599, .F. ) ;
#513 = FILL_AREA_STYLE_COLOUR ( '', #413 ) ;
#514 = B_SPLINE_CURVE_WITH_KNOTS ( 'NONE', 3,
 ( #557, #278, #49, #226, #453, #403 ),
 .UNSPECIFIED., .F., .F.,
 ( 4, 2, 4 ),
 ( 0.001876385854435920399, 0.002242080329067761349, 0.002607774803699601865 ),
 .UNSPECIFIED. ) ;
#515 = CARTESIAN_POINT ( 'NONE',  ( -1013.830000000000041, -5.995863809075189324E-14, 0.000000000000000000 ) ) ;
#516 = ORIENTED_EDGE ( 'NONE', *, *, #282, .F. ) ;
#517 = CARTESIAN_POINT ( 'NONE',  ( -11.79999999999999893, 0.000000000000000000, 0.000000000000000000 ) ) ;
#518 = ORIENTED_EDGE ( 'NONE', *, *, #457, .F. ) ;
#519 = FILL_AREA_STYLE ('',( #406 ) ) ;
#520 = DIRECTION ( 'NONE',  ( 0.000000000000000000, 0.000000000000000000, 1.000000000000000000 ) ) ;
#521 = VERTEX_POINT ( 'NONE', #590 ) ;
#522 = EDGE_CURVE ( 'NONE', #556, #61, #203, .T. ) ;
#523 = STYLED_ITEM ( 'NONE', ( #725 ), #74 ) ;
#524 = CARTESIAN_POINT ( 'NONE',  ( -14.16916666666574187, -0.8419691425682048758, -1.041666666666667185 ) ) ;
#525 = CARTESIAN_POINT ( 'NONE',  ( -12.82664516406750366, -1.325732799999564504, -0.2037634331402072840 ) ) ;
#526 = ORIENTED_EDGE ( 'NONE', *, *, #339, .T. ) ;
#527 = SURFACE_SIDE_STYLE ('',( #68 ) ) ;
#528 = LINE ( 'NONE', #578, #694 ) ;
#529 = ORIENTED_EDGE ( 'NONE', *, *, #55, .T. ) ;
#530 = AXIS2_PLACEMENT_3D ( 'NONE', #56, #239, #177 ) ;
#531 = AXIS2_PLACEMENT_3D ( 'NONE', #577, #18, #488 ) ;
#532 =( NAMED_UNIT ( * ) PLANE_ANGLE_UNIT ( ) SI_UNIT ( $, .RADIAN. ) );
#533 = PLANE ( 'NONE',  #610 ) ;
#534 = EDGE_LOOP ( 'NONE', ( #351, #189, #516, #437 ) ) ;
#535 = ADVANCED_FACE ( 'NONE', ( #639 ), #17, .F. ) ;
#536 = DIRECTION ( 'NONE',  ( 5.691969551695359369E-17, -1.000000000000000000, 0.000000000000000000 ) ) ;
#537 = VECTOR ( 'NONE', #576, 1000.000000000000000 ) ;
#538 = DIRECTION ( 'NONE',  ( -1.000000000000000000, -0.000000000000000000, -0.000000000000000000 ) ) ;
#539 = CARTESIAN_POINT ( 'NONE',  ( -12.00000000000000000, 2.694222958124175527E-16, -2.199999999999998845 ) ) ;
#540 = DIRECTION ( 'NONE',  ( -1.000000000000000000, -0.000000000000000000, -0.000000000000000000 ) ) ;
#541 = ORIENTED_EDGE ( 'NONE', *, *, #112, .T. ) ;
#542 = CARTESIAN_POINT ( 'NONE',  ( -12.00000000000000000, -0.7216878364870332740, 1.249999999999999778 ) ) ;
#543 = ORIENTED_EDGE ( 'NONE', *, *, #559, .F. ) ;
#544 = ADVANCED_FACE ( 'NONE', ( #373 ), #630, .T. ) ;
#545 = DIRECTION ( 'NONE',  ( -1.000000000000000000, -5.998083099822123814E-17, -0.000000000000000000 ) ) ;
#546 = DIRECTION ( 'NONE',  ( 0.000000000000000000, 0.000000000000000000, -1.000000000000000000 ) ) ;
#547 =( GEOMETRIC_REPRESENTATION_CONTEXT ( 3 ) GLOBAL_UNCERTAINTY_ASSIGNED_CONTEXT ( ( #280 ) ) GLOBAL_UNIT_ASSIGNED_CONTEXT ( ( #325, #392, #34 ) ) REPRESENTATION_CONTEXT ( 'NONE', 'WORKASPACE' ) );
#548 = DIRECTION ( 'NONE',  ( -0.000000000000000000, 0.000000000000000000, -1.000000000000000000 ) ) ;
#549 = EDGE_LOOP ( 'NONE', ( #319, #359 ) ) ;
#550 = ADVANCED_FACE ( 'NONE', ( #474 ), #261, .F. ) ;
#551 = CARTESIAN_POINT ( 'NONE',  ( -3.061616997868386099E-17, 2.000000000000000000, 0.000000000000000000 ) ) ;
#552 = AXIS2_PLACEMENT_3D ( 'NONE', #726, #399, #228 ) ;
#553 = FILL_AREA_STYLE ('',( #513 ) ) ;
#554 = B_SPLINE_CURVE_WITH_KNOTS ( 'NONE', 3,
 ( #704, #187, #128, #138, #362, #369 ),
 .UNSPECIFIED., .F., .F.,
 ( 4, 2, 4 ),
 ( 0.003836159553464219343, 0.004202463752521878176, 0.004568767951579537009 ),
 .UNSPECIFIED. ) ;
#555 = CYLINDRICAL_SURFACE ( 'NONE', #371, 1.999999999999999112 ) ;
#556 = VERTEX_POINT ( 'NONE', #692 ) ;
#557 = CARTESIAN_POINT ( 'NONE',  ( -12.77942286340599587, -4.330491382256005356E-23, 1.249999999999999778 ) ) ;
#558 = PLANE ( 'NONE',  #306 ) ;
#559 = EDGE_CURVE ( 'NONE', #370, #521, #554, .T. ) ;
#560 = ORIENTED_EDGE ( 'NONE', *, *, #372, .F. ) ;
#561 = CIRCLE ( 'NONE', #185, 1.999999999999998668 ) ;
#562 = CIRCLE ( 'NONE', #110, 2.199999999999998845 ) ;
#563 =( NAMED_UNIT ( * ) PLANE_ANGLE_UNIT ( ) SI_UNIT ( $, .RADIAN. ) );
#564 = DIRECTION ( 'NONE',  ( -0.000000000000000000, 0.000000000000000000, 1.000000000000000000 ) ) ;
#565 = ORIENTED_EDGE ( 'NONE', *, *, #79, .F. ) ;
#566 = AXIS2_PLACEMENT_3D ( 'NONE', #215, #444, #662 ) ;
#567 = CARTESIAN_POINT ( 'NONE',  ( -1013.830000000000041, -5.995863809075189324E-14, 0.000000000000000000 ) ) ;
#568 = ORIENTED_EDGE ( 'NONE', *, *, #313, .T. ) ;
#569 = DIRECTION ( 'NONE',  ( 0.000000000000000000, 0.000000000000000000, 1.000000000000000000 ) ) ;
#570 = CIRCLE ( 'NONE', #637, 1.443375672974063884 ) ;
#571 = EDGE_CURVE ( 'NONE', #717, #484, #193, .T. ) ;
#572 = LINE ( 'NONE', #586, #352 ) ;
#573 = DIRECTION ( 'NONE',  ( 0.000000000000000000, 0.8660254037844387076, -0.4999999999999998335 ) ) ;
#574 = VERTEX_POINT ( 'NONE', #24 ) ;
#575 = FILL_AREA_STYLE ('',( #485 ) ) ;
#576 = DIRECTION ( 'NONE',  ( -1.000000000000000000, -0.000000000000000000, -0.000000000000000000 ) ) ;
#577 = CARTESIAN_POINT ( 'NONE',  ( -12.00000000000000000, 0.000000000000000000, 0.000000000000000000 ) ) ;
#578 = CARTESIAN_POINT ( 'NONE',  ( -12.00000000000000000, -0.7216878364870328300, -1.250000000000000222 ) ) ;
#579 = ORIENTED_EDGE ( 'NONE', *, *, #29, .F. ) ;
#580 = ADVANCED_FACE ( 'NONE', ( #421 ), #533, .F. ) ;
#581 = AXIS2_PLACEMENT_3D ( 'NONE', #382, #442, #724 ) ;
#582 = CIRCLE ( 'NONE', #531, 3.800000000000000266 ) ;
#583 = DIRECTION ( 'NONE',  ( -0.5291067161269960017, 0.000000000000000000, 0.8485552916276619673 ) ) ;
#584 = CARTESIAN_POINT ( 'NONE',  ( -12.77964865737705225, 0.9585729505925310034, 0.8397029468125251084 ) ) ;
#585 = EDGE_LOOP ( 'NONE', ( #75, #92 ) ) ;
#586 = CARTESIAN_POINT ( 'NONE',  ( -12.90000000000000213, 0.000000000000000000, 1.443375672974064106 ) ) ;
#587 = CARTESIAN_POINT ( 'NONE',  ( -12.82664516406750366, 1.325732799999563616, 0.2037634331402067567 ) ) ;
#588 = VECTOR ( 'NONE', #321, 1000.000000000000000 ) ;
#589 = ORIENTED_EDGE ( 'NONE', *, *, #188, .T. ) ;
#590 = CARTESIAN_POINT ( 'NONE',  ( -12.77942286340599587, 1.530808065882368999E-16, -1.250000000000000222 ) ) ;
#591 = ORIENTED_EDGE ( 'NONE', *, *, #412, .F. ) ;
#592 = AXIS2_PLACEMENT_3D ( 'NONE', #517, #461, #569 ) ;
#593 = DIRECTION ( 'NONE',  ( 5.691969551695359369E-17, -1.000000000000000000, 0.000000000000000000 ) ) ;
#594 = CIRCLE ( 'NONE', #344, 1.999999999999997780 ) ;
#595 = DIRECTION ( 'NONE',  ( -1.000000000000000000, -0.000000000000000000, -0.000000000000000000 ) ) ;
#596 = CARTESIAN_POINT ( 'NONE',  ( -14.20000000000000107, 0.000000000000000000, 0.000000000000000000 ) ) ;
#597 = DIRECTION ( 'NONE',  ( -1.000000000000000000, -5.998083099822123814E-17, -0.000000000000000000 ) ) ;
#598 = AXIS2_PLACEMENT_3D ( 'NONE', #315, #418, #21 ) ;
#599 = EDGE_CURVE ( 'NONE', #316, #649, #115, .T. ) ;
#600 = CARTESIAN_POINT ( 'NONE',  ( -11.79999999999999893, 0.000000000000000000, 0.000000000000000000 ) ) ;
#601 = SURFACE_STYLE_FILL_AREA ( #88 ) ;
#602 = FACE_OUTER_BOUND ( 'NONE', #689, .T. ) ;
#603 = B_SPLINE_CURVE_WITH_KNOTS ( 'NONE', 3,
 ( #35, #379, #87, #499, #33, #434 ),
 .UNSPECIFIED., .F., .F.,
 ( 4, 2, 4 ),
 ( 0.002974540139219453583, 0.003699310320131258233, 0.004424080501043063315 ),
 .UNSPECIFIED. ) ;
#604 = ORIENTED_EDGE ( 'NONE', *, *, #91, .F. ) ;
#605 = EDGE_CURVE ( 'NONE', #13, #574, #528, .T. ) ;
#606 =( NAMED_UNIT ( * ) SI_UNIT ( $, .STERADIAN. ) SOLID_ANGLE_UNIT ( ) );
#607 = AXIS2_PLACEMENT_3D ( 'NONE', #111, #354, #616 ) ;
#608 = ORIENTED_EDGE ( 'NONE', *, *, #670, .F. ) ;
#609 = ORIENTED_EDGE ( 'NONE', *, *, #646, .T. ) ;
#610 = AXIS2_PLACEMENT_3D ( 'NONE', #254, #200, #483 ) ;
#611 = ORIENTED_EDGE ( 'NONE', *, *, #180, .F. ) ;
#612 = FACE_OUTER_BOUND ( 'NONE', #660, .T. ) ;
#613 = VERTEX_POINT ( 'NONE', #243 ) ;
#614 = STYLED_ITEM ( 'NONE', ( #230 ), #274 ) ;
#615 = CIRCLE ( 'NONE', #222, 1.443375672974063884 ) ;
#616 = DIRECTION ( 'NONE',  ( 0.000000000000000000, -0.4999999999999998335, 0.8660254037844387076 ) ) ;
#617 = VERTEX_POINT ( 'NONE', #365 ) ;
#618 = DIRECTION ( 'NONE',  ( 0.000000000000000000, 0.000000000000000000, 1.000000000000000000 ) ) ;
#619 = CARTESIAN_POINT ( 'NONE',  ( -12.90000000000000213, -0.7216878364870332740, 1.249999999999999778 ) ) ;
#620 = ORIENTED_EDGE ( 'NONE', *, *, #372, .T. ) ;
#621 = EDGE_CURVE ( 'NONE', #440, #629, #247, .T. ) ;
#622 = CARTESIAN_POINT ( 'NONE',  ( -12.82677104533570400, -0.8391288272867704068, -1.046586237043626300 ) ) ;
#623 = ORIENTED_EDGE ( 'NONE', *, *, #10, .T. ) ;
#624 = AXIS2_PLACEMENT_3D ( 'NONE', #364, #420, #7 ) ;
#625 = CIRCLE ( 'NONE', #509, 1.443375672974064328 ) ;
#626 = ADVANCED_FACE ( 'NONE', ( #424 ), #126, .F. ) ;
#627 = LINE ( 'NONE', #72, #402 ) ;
#628 = FACE_OUTER_BOUND ( 'NONE', #697, .T. ) ;
#629 = VERTEX_POINT ( 'NONE', #81 ) ;
#630 = CONICAL_SURFACE ( 'NONE', #360, 2.000000000000000000, 1.047197551196597631 ) ;
#631 = DIRECTION ( 'NONE',  ( 0.000000000000000000, 0.000000000000000000, 1.000000000000000000 ) ) ;
#632 = ORIENTED_EDGE ( 'NONE', *, *, #164, .T. ) ;
#633 = B_SPLINE_CURVE_WITH_KNOTS ( 'NONE', 3,
 ( #506, #665, #31, #433, #720 ),
 .UNSPECIFIED., .F., .F.,
 ( 4, 1, 4 ),
 ( 2.309401076766420986E-07, 0.0007219187765947084577, 0.001443606613081740162 ),
 .UNSPECIFIED. ) ;
#634 = DIRECTION ( 'NONE',  ( 0.000000000000000000, 1.000000000000000000, 1.224646799147353207E-16 ) ) ;
#635 = FACE_OUTER_BOUND ( 'NONE', #348, .T. ) ;
#636 = ORIENTED_EDGE ( 'NONE', *, *, #681, .T. ) ;
#637 = AXIS2_PLACEMENT_3D ( 'NONE', #199, #242, #80 ) ;
#638 = CARTESIAN_POINT ( 'NONE',  ( -14.20000000000000107, -1.443375672974064328, -3.035766082959413993E-15 ) ) ;
#639 = FACE_OUTER_BOUND ( 'NONE', #507, .T. ) ;
#640 = ORIENTED_EDGE ( 'NONE', *, *, #357, .T. ) ;
#641 = DIRECTION ( 'NONE',  ( 1.000000000000000000, 0.000000000000000000, -0.000000000000000000 ) ) ;
#642 = AXIS2_PLACEMENT_3D ( 'NONE', #83, #489, #707 ) ;
#643 = CARTESIAN_POINT ( 'NONE',  ( -12.90000000000000213, -1.443375672974065216, -5.870030462665943960E-16 ) ) ;
#644 = AXIS2_PLACEMENT_3D ( 'NONE', #456, #618, #678 ) ;
#645 = ADVANCED_FACE ( 'NONE', ( #334 ), #252, .F. ) ;
#646 = EDGE_CURVE ( 'NONE', #727, #139, #633, .T. ) ;
#647 = PRODUCT_DEFINITION_CONTEXT ( 'detailed design', #731, 'design' ) ;
#648 = CARTESIAN_POINT ( 'NONE',  ( -10.72727272727272840, 0.000000000000000000, 0.000000000000000000 ) ) ;
#649 = VERTEX_POINT ( 'NONE', #281 ) ;
#650 = AXIS2_PLACEMENT_3D ( 'NONE', #113, #1, #682 ) ;
#651 = CARTESIAN_POINT ( 'NONE',  ( -12.00000000000000000, 1.443375672974064328, -3.128943976826325424E-17 ) ) ;
#652 = DIRECTION ( 'NONE',  ( -1.000000000000000000, -5.998083099822123814E-17, -0.000000000000000000 ) ) ;
#653 = VERTEX_POINT ( 'NONE', #503 ) ;
#654 = CARTESIAN_POINT ( 'NONE',  ( -12.90000000000000213, 1.443375672974064328, -3.128943976826325424E-17 ) ) ;
#655 = EDGE_CURVE ( 'NONE', #629, #727, #719, .T. ) ;
#656 = PRESENTATION_STYLE_ASSIGNMENT (( #44 ) ) ;
#657 = DIRECTION ( 'NONE',  ( -1.000000000000000000, -0.000000000000000000, -0.000000000000000000 ) ) ;
#658 = ADVANCED_FACE ( 'NONE', ( #103 ), #147, .T. ) ;
#659 = AXIS2_PLACEMENT_3D ( 'NONE', #730, #166, #6 ) ;
#660 = EDGE_LOOP ( 'NONE', ( #400, #422 ) ) ;
#661 = CARTESIAN_POINT ( 'NONE',  ( -12.00000000000000000, 2.199999999999998845, 0.000000000000000000 ) ) ;
#662 = DIRECTION ( 'NONE',  ( 0.000000000000000000, 0.000000000000000000, 1.000000000000000000 ) ) ;
#663 = ORIENTED_EDGE ( 'NONE', *, *, #180, .T. ) ;
#664 = CARTESIAN_POINT ( 'NONE',  ( -14.20000000000000107, -0.7216878364870324969, -1.249999999999999556 ) ) ;
#665 = CARTESIAN_POINT ( 'NONE',  ( -14.16916666666574010, 1.323094366892892060, 0.2083333333333338422 ) ) ;
#666 = AXIS2_PLACEMENT_3D ( 'NONE', #117, #564, #52 ) ;
#667 = MECHANICAL_DESIGN_GEOMETRIC_PRESENTATION_REPRESENTATION (  '', ( #160 ), #435 ) ;
#668 = EDGE_LOOP ( 'NONE', ( #67, #512 ) ) ;
#669 = DIRECTION ( 'NONE',  ( 5.691969551695359369E-17, -1.000000000000000000, 0.000000000000000000 ) ) ;
#670 = EDGE_CURVE ( 'NONE', #613, #727, #381, .T. ) ;
#671 = APPLICATION_PROTOCOL_DEFINITION ( 'draft international standard', 'automotive_design', 1998, #98 ) ;
#672 = ORIENTED_EDGE ( 'NONE', *, *, #91, .T. ) ;
#673 = STYLED_ITEM ( 'NONE', ( #656 ), #690 ) ;
#674 =( LENGTH_UNIT ( ) NAMED_UNIT ( * ) SI_UNIT ( .MILLI., .METRE. ) );
#675 = SURFACE_STYLE_FILL_AREA ( #519 ) ;
#676 = CARTESIAN_POINT ( 'NONE',  ( -12.90000000000000213, 1.767625397874844201E-16, -1.443375672974064106 ) ) ;
#677 = ORIENTED_EDGE ( 'NONE', *, *, #69, .T. ) ;
#678 = DIRECTION ( 'NONE',  ( 1.000000000000000000, 0.000000000000000000, 0.000000000000000000 ) ) ;
#679 = ORIENTED_EDGE ( 'NONE', *, *, #466, .F. ) ;
#680 = CIRCLE ( 'NONE', #702, 2.000000000000000000 ) ;
#681 = EDGE_CURVE ( 'NONE', #30, #283, #223, .T. ) ;
#682 = DIRECTION ( 'NONE',  ( 0.000000000000000000, 0.000000000000000000, 1.000000000000000000 ) ) ;
#683 = ORIENTED_EDGE ( 'NONE', *, *, #734, .T. ) ;
#684 = MECHANICAL_DESIGN_GEOMETRIC_PRESENTATION_REPRESENTATION (  '', ( #673 ), #547 ) ;
#685 = CARTESIAN_POINT ( 'NONE',  ( -0.3500000000000000333, 0.000000000000000000, 0.000000000000000000 ) ) ;
#686 = ORIENTED_EDGE ( 'NONE', *, *, #522, .T. ) ;
#687 = DIRECTION ( 'NONE',  ( 0.000000000000000000, 1.224646799147353207E-16, -1.000000000000000000 ) ) ;
#688 = CARTESIAN_POINT ( 'NONE',  ( -11.79999999999999893, 0.000000000000000000, 1.999999999999997780 ) ) ;
#689 = EDGE_LOOP ( 'NONE', ( #237, #182, #611, #292 ) ) ;
#690 = ADVANCED_FACE ( 'Bface2', ( #448 ), #555, .T. ) ;
#691 = LINE ( 'NONE', #123, #449 ) ;
#692 = CARTESIAN_POINT ( 'NONE',  ( 0.000000000000000000, 0.000000000000000000, 1.393782217350892916 ) ) ;
#693 = ORIENTED_EDGE ( 'NONE', *, *, #153, .F. ) ;
#694 = VECTOR ( 'NONE', #73, 1000.000000000000000 ) ;
#695 = CARTESIAN_POINT ( 'NONE',  ( -14.16916666666574010, -0.8419691425682047647, 1.041666666666667407 ) ) ;
#696 = DIRECTION ( 'NONE',  ( -1.000000000000000000, -5.998083099822123814E-17, -0.000000000000000000 ) ) ;
#697 = EDGE_LOOP ( 'NONE', ( #213, #258, #121, #529 ) ) ;
#698 = DIRECTION ( 'NONE',  ( 0.000000000000000000, 0.000000000000000000, 1.000000000000000000 ) ) ;
#699 = CARTESIAN_POINT ( 'NONE',  ( -12.77919874466209471, 1.204657989547419428, 0.4134711563600914630 ) ) ;
#700 = EDGE_LOOP ( 'NONE', ( #479, #620, #277, #197 ) ) ;
#701 = EDGE_CURVE ( 'NONE', #389, #386, #227, .T. ) ;
#702 = AXIS2_PLACEMENT_3D ( 'NONE', #685, #468, #345 ) ;
#703 = CARTESIAN_POINT ( 'NONE',  ( -11.79999999999999893, 0.000000000000000000, 0.000000000000000000 ) ) ;
#704 = CARTESIAN_POINT ( 'NONE',  ( -12.90000000000000213, 0.7216878364870328300, -1.249999999999999112 ) ) ;
#705 = DIRECTION ( 'NONE',  ( -1.000000000000000000, -0.000000000000000000, -0.000000000000000000 ) ) ;
#706 = ADVANCED_FACE ( 'Bface3', ( #150 ), #329, .F. ) ;
#707 = DIRECTION ( 'NONE',  ( 0.000000000000000000, 0.000000000000000000, -1.000000000000000000 ) ) ;
#708 = CIRCLE ( 'NONE', #642, 0.2000000000000009548 ) ;
#709 = ORIENTED_EDGE ( 'NONE', *, *, #605, .T. ) ;
#710 = B_SPLINE_CURVE_WITH_KNOTS ( 'NONE', 3,
 ( #414, #16, #191, #524, #256 ),
 .UNSPECIFIED., .F., .F.,
 ( 4, 1, 4 ),
 ( 2.309401076786084856E-07, 0.0007219187765947091082, 0.001443606613081739728 ),
 .UNSPECIFIED. ) ;
#711 = CARTESIAN_POINT ( 'NONE',  ( -1013.830000000000041, -5.995863809075189324E-14, 0.000000000000000000 ) ) ;
#712 = FACE_OUTER_BOUND ( 'NONE', #268, .T. ) ;
#713 = EDGE_CURVE ( 'NONE', #118, #556, #443, .T. ) ;
#714 = CIRCLE ( 'NONE', #624, 1.443375672974063884 ) ;
#715 = DIRECTION ( 'NONE',  ( -1.000000000000000000, -0.000000000000000000, -0.000000000000000000 ) ) ;
#716 = CARTESIAN_POINT ( 'NONE',  ( -12.82715765887601655, -0.4880459183963061776, -1.250000000000000222 ) ) ;
#717 = VERTEX_POINT ( 'NONE', #156 ) ;
#718 = DIRECTION ( 'NONE',  ( 0.000000000000000000, 0.000000000000000000, 1.000000000000000000 ) ) ;
#719 = LINE ( 'NONE', #651, #480 ) ;
#720 = CARTESIAN_POINT ( 'NONE',  ( -14.20000000000000107, 0.7216878364870323859, 1.250000000000000000 ) ) ;
#721 = CIRCLE ( 'NONE', #285, 4.007472359323742239 ) ;
#722 = VECTOR ( 'NONE', #657, 1000.000000000000000 ) ;
#723 = EDGE_LOOP ( 'NONE', ( #608, #565, #497, #53 ) ) ;
#724 = DIRECTION ( 'NONE',  ( 0.000000000000000000, 0.000000000000000000, 1.000000000000000000 ) ) ;
#725 = PRESENTATION_STYLE_ASSIGNMENT (( #463 ) ) ;
#726 = CARTESIAN_POINT ( 'NONE',  ( -14.20000000000000107, 2.219290746934189176E-17, -3.599228117386048901E-16 ) ) ;
#727 = VERTEX_POINT ( 'NONE', #100 ) ;
#728 = CONICAL_SURFACE ( 'NONE', #289, 3901.015332362329445, 1.319856261027561928 ) ;
#729 = SURFACE_SIDE_STYLE ('',( #47 ) ) ;
#730 = CARTESIAN_POINT ( 'NONE',  ( -14.20000000000000107, 0.000000000000000000, 0.000000000000000000 ) ) ;
#731 = APPLICATION_CONTEXT ( 'automotive_design' ) ;
#732 = DIRECTION ( 'NONE',  ( -1.000000000000000000, -5.998083099822123814E-17, -0.000000000000000000 ) ) ;
#733 = ORIENTED_EDGE ( 'NONE', *, *, #248, .F. ) ;
#734 = EDGE_CURVE ( 'NONE', #653, #617, #323, .T. ) ;
ENDSEC;
END-ISO-10303-21;
