ISO-10303-21;
HEADER;
FILE_DESCRIPTION (( 'STEP AP214' ),
    '1' );
FILE_NAME ('GB¨uT 6186-2000[2ÐÍÈ«½ðÊôÁù½ÇËø½ôÂÝÄ¸ 9¼¶M6].step',
    '2023-08-15T03:01:31',
    ( '' ),
    ( '' ),
    'SwSTEP 2.0',
    'SolidWorks 2022',
    '' );
FILE_SCHEMA (( 'AUTOMOTIVE_DESIGN' ));
ENDSEC;

DATA;
#1 = VERTEX_POINT ( 'NONE', #246 ) ;
#2 = CARTESIAN_POINT ( 'NONE',  ( -3.649111509311745660, -3.418184487795904225, 0.000000000000000000 ) ) ;
#3 = DIRECTION ( 'NONE',  ( 0.000000000000000000, 0.000000000000000000, 1.000000000000000000 ) ) ;
#4 = VECTOR ( 'NONE', #386, 1000.000000000000000 ) ;
#5 = ORIENTED_EDGE ( 'NONE', *, *, #642, .T. ) ;
#6 = AXIS2_PLACEMENT_3D ( 'NONE', #96, #277, #260 ) ;
#7 = CARTESIAN_POINT ( 'NONE',  ( -4.784790355909638748, -2.762499999999647127, 0.3031088913241419824 ) ) ;
#8 = CARTESIAN_POINT ( 'NONE',  ( 0.000000000000000000, 0.000000000000000000, 0.000000000000000000 ) ) ;
#9 = CARTESIAN_POINT ( 'NONE',  ( -9.284044738807265208E-16, -5.525000000000000355, 0.000000000000000000 ) ) ;
#10 = LINE ( 'NONE', #134, #520 ) ;
#11 = FACE_OUTER_BOUND ( 'NONE', #108, .T. ) ;
#12 = CARTESIAN_POINT ( 'NONE',  ( 4.500000000000000000, 0.000000000000000000, 6.700000000000000178 ) ) ;
#13 = EDGE_CURVE ( 'NONE', #519, #650, #617, .T. ) ;
#14 = DIRECTION ( 'NONE',  ( -1.000000000000000000, 0.000000000000000000, 0.000000000000000000 ) ) ;
#15 = COLOUR_RGB ( '',0.7529411764705882248, 0.7529411764705882248, 0.7529411764705882248 ) ;
#16 = CARTESIAN_POINT ( 'NONE',  ( 4.784790355909024129, -1.883119406163734633, 6.076977405999000048 ) ) ;
#17 = DIRECTION ( 'NONE',  ( 1.000000000000000000, 0.000000000000000000, 0.000000000000000000 ) ) ;
#18 = DIRECTION ( 'NONE',  ( 0.8660254037844387076, -0.4999999999999997780, 0.000000000000000000 ) ) ;
#19 = CARTESIAN_POINT ( 'NONE',  ( -4.784790355909025017, -2.328724535956141928, 0.1778887008577781648 ) ) ;
#20 = CARTESIAN_POINT ( 'NONE',  ( 6.144038653560839032E-13, 5.525000000000354738, 0.3031088913241409277 ) ) ;
#21 = EDGE_CURVE ( 'NONE', #470, #614, #575, .T. ) ;
#22 = DIRECTION ( 'NONE',  ( 0.000000000000000000, 0.000000000000000000, -1.000000000000000000 ) ) ;
#23 = DIRECTION ( 'NONE',  ( -0.000000000000000000, -0.000000000000000000, -1.000000000000000000 ) ) ;
#24 = LINE ( 'NONE', #446, #581 ) ;
#25 = AXIS2_PLACEMENT_3D ( 'NONE', #611, #22, #142 ) ;
#26 = ORIENTED_EDGE ( 'NONE', *, *, #411, .F. ) ;
#27 =( GEOMETRIC_REPRESENTATION_CONTEXT ( 3 ) GLOBAL_UNCERTAINTY_ASSIGNED_CONTEXT ( ( #166 ) ) GLOBAL_UNIT_ASSIGNED_CONTEXT ( ( #591, #61, #349 ) ) REPRESENTATION_CONTEXT ( 'NONE', 'WORKASPACE' ) );
#28 = AXIS2_PLACEMENT_3D ( 'NONE', #598, #130, #669 ) ;
#29 = EDGE_CURVE ( 'NONE', #492, #525, #682, .T. ) ;
#30 = CARTESIAN_POINT ( 'NONE',  ( 2.174737009423299394, -4.269415002192818775, 6.414686214047367940 ) ) ;
#31 = VERTEX_POINT ( 'NONE', #306 ) ;
#32 = CARTESIAN_POINT ( 'NONE',  ( 4.784790355909023241, 2.328724535956409269, 0.1778887008578410034 ) ) ;
#33 = EDGE_CURVE ( 'NONE', #492, #141, #301, .T. ) ;
#34 = ORIENTED_EDGE ( 'NONE', *, *, #21, .T. ) ;
#35 = CARTESIAN_POINT ( 'NONE',  ( 4.784790355909023241, 2.762500000000001954, 5.675000000000003375 ) ) ;
#36 = CARTESIAN_POINT ( 'NONE',  ( -2.458750000000000213, 0.000000000000000000, 6.700000000000000178 ) ) ;
#37 = ORIENTED_EDGE ( 'NONE', *, *, #326, .T. ) ;
#38 = PRODUCT_DEFINITION_CONTEXT ( 'detailed design', #258, 'design' ) ;
#39 = CARTESIAN_POINT ( 'NONE',  ( -2.458750000000000213, 0.000000000000000000, 6.700000000000000178 ) ) ;
#40 = AXIS2_PLACEMENT_3D ( 'NONE', #83, #428, #312 ) ;
#41 = DIRECTION ( 'NONE',  ( -1.000000000000000000, -1.569885498621543742E-16, 0.000000000000000000 ) ) ;
#42 = ORIENTED_EDGE ( 'NONE', *, *, #554, .T. ) ;
#43 = PRODUCT_CONTEXT ( 'NONE', #202, 'mechanical' ) ;
#44 = CARTESIAN_POINT ( 'NONE',  ( 4.410943242093440908, 2.978340731797192831, 5.890840731797190699 ) ) ;
#45 = ORIENTED_EDGE ( 'NONE', *, *, #487, .T. ) ;
#46 = CARTESIAN_POINT ( 'NONE',  ( -6.153322697145562700E-13, -5.525000000000354738, 0.3031088913241409277 ) ) ;
#47 = ORIENTED_EDGE ( 'NONE', *, *, #131, .T. ) ;
#48 = DIRECTION ( 'NONE',  ( 0.000000000000000000, 0.000000000000000000, 1.000000000000000000 ) ) ;
#49 =( GEOMETRIC_REPRESENTATION_CONTEXT ( 3 ) GLOBAL_UNCERTAINTY_ASSIGNED_CONTEXT ( ( #379 ) ) GLOBAL_UNIT_ASSIGNED_CONTEXT ( ( #401, #740, #551 ) ) REPRESENTATION_CONTEXT ( 'NONE', 'WORKASPACE' ) );
#50 = ORIENTED_EDGE ( 'NONE', *, *, #89, .T. ) ;
#51 = ORIENTED_EDGE ( 'NONE', *, *, #569, .T. ) ;
#52 = EDGE_CURVE ( 'NONE', #269, #215, #367, .T. ) ;
#53 = CARTESIAN_POINT ( 'NONE',  ( -4.500000000000000000, -5.510910596163088569E-16, 6.700000000000000178 ) ) ;
#54 = B_SPLINE_CURVE_WITH_KNOTS ( 'NONE', 3,
 ( #442, #625, #213, #148 ),
 .UNSPECIFIED., .F., .F.,
 ( 4, 4 ),
 ( 0.009457679788312774519, 0.01080702142484409913 ),
 .UNSPECIFIED. ) ;
#55 = DIRECTION ( 'NONE',  ( 1.569885498621543742E-16, -1.000000000000000000, 0.000000000000000000 ) ) ;
#56 = ORIENTED_EDGE ( 'NONE', *, *, #495, .F. ) ;
#57 = CARTESIAN_POINT ( 'NONE',  ( -4.784790355909025017, 2.548673964207035958, 5.781913017896485485 ) ) ;
#58 = FACE_OUTER_BOUND ( 'NONE', #201, .T. ) ;
#59 = CARTESIAN_POINT ( 'NONE',  ( -2.610053346485725623, -4.018084997807184422, 6.414686214047365276 ) ) ;
#60 = DIRECTION ( 'NONE',  ( 0.000000000000000000, 0.000000000000000000, -1.000000000000000000 ) ) ;
#61 =( NAMED_UNIT ( * ) PLANE_ANGLE_UNIT ( ) SI_UNIT ( $, .RADIAN. ) );
#62 = ORIENTED_EDGE ( 'NONE', *, *, #497, .F. ) ;
#63 = AXIS2_PLACEMENT_3D ( 'NONE', #303, #538, #649 ) ;
#64 = CARTESIAN_POINT ( 'NONE',  ( -4.784790355909025017, -2.762500000000001954, 6.700000000000000178 ) ) ;
#65 = CARTESIAN_POINT ( 'NONE',  ( 0.000000000000000000, 0.000000000000000000, 0.1294642857142856984 ) ) ;
#66 = CARTESIAN_POINT ( 'NONE',  ( -3.649111509311746993, 3.418184487795903781, 0.000000000000000000 ) ) ;
#67 = EDGE_CURVE ( 'NONE', #110, #215, #185, .T. ) ;
#68 = FILL_AREA_STYLE ('',( #723 ) ) ;
#69 = LINE ( 'NONE', #366, #657 ) ;
#70 = CARTESIAN_POINT ( 'NONE',  ( -4.784790355909025017, 2.762500000000002398, 6.700000000000000178 ) ) ;
#71 = CARTESIAN_POINT ( 'NONE',  ( -3.434732515435916511, -3.541956257618716020, 6.271016443903981497 ) ) ;
#72 = CARTESIAN_POINT ( 'NONE',  ( 3.754448299194687015E-17, 5.525000000000000355, 5.675000000000003375 ) ) ;
#73 = CARTESIAN_POINT ( 'NONE',  ( -4.784790355909025017, -1.451131024408197856, 0.000000000000000000 ) ) ;
#74 = AXIS2_PLACEMENT_3D ( 'NONE', #511, #491, #727 ) ;
#75 = ADVANCED_FACE ( 'NONE', ( #372 ), #716, .F. ) ;
#76 = DIRECTION ( 'NONE',  ( 0.000000000000000000, 0.000000000000000000, 1.000000000000000000 ) ) ;
#77 = CARTESIAN_POINT ( 'NONE',  ( -4.784790355909025017, -1.451131024408197856, 0.000000000000000000 ) ) ;
#78 = CARTESIAN_POINT ( 'NONE',  ( -4.784790355909025017, 2.762500000000002398, 0.000000000000000000 ) ) ;
#79 = CARTESIAN_POINT ( 'NONE',  ( -3.211854962481325959, 3.670634672813375854, 6.343192011274849662 ) ) ;
#80 = LINE ( 'NONE', #315, #238 ) ;
#81 = DIRECTION ( 'NONE',  ( 0.000000000000000000, 0.000000000000000000, 1.000000000000000000 ) ) ;
#82 = ORIENTED_EDGE ( 'NONE', *, *, #21, .F. ) ;
#83 = CARTESIAN_POINT ( 'NONE',  ( 0.000000000000000000, 0.000000000000000000, 0.000000000000000000 ) ) ;
#84 = ORIENTED_EDGE ( 'NONE', *, *, #515, .F. ) ;
#85 = AXIS2_PLACEMENT_3D ( 'NONE', #609, #81, #534 ) ;
#86 = AXIS2_PLACEMENT_3D ( 'NONE', #622, #335, #691 ) ;
#87 = CARTESIAN_POINT ( 'NONE',  ( -0.3746906985658129963, 5.308672224320179822, 0.1782119918025948935 ) ) ;
#88 = B_SPLINE_CURVE_WITH_KNOTS ( 'NONE', 3,
 ( #547, #187, #725, #380 ),
 .UNSPECIFIED., .F., .F.,
 ( 4, 4 ),
 ( 0.009457679788312767580, 0.01080702142484409739 ),
 .UNSPECIFIED. ) ;
#89 = EDGE_CURVE ( 'NONE', #699, #614, #661, .T. ) ;
#90 = CARTESIAN_POINT ( 'NONE',  ( 1.962869199810222565, -4.391736939105543414, 6.395305118895451280 ) ) ;
#91 = B_SPLINE_CURVE_WITH_KNOTS ( 'NONE', 3,
 ( #558, #325, #505, #738 ),
 .UNSPECIFIED., .F., .F.,
 ( 4, 4 ),
 ( 0.01028983807714324052, 0.01164177538836227294 ),
 .UNSPECIFIED. ) ;
#92 = ORIENTED_EDGE ( 'NONE', *, *, #13, .T. ) ;
#93 = FILL_AREA_STYLE ('',( #456 ) ) ;
#94 = CARTESIAN_POINT ( 'NONE',  ( 4.784790355909023241, 1.451131024408204517, 0.000000000000000000 ) ) ;
#95 = EDGE_CURVE ( 'NONE', #141, #405, #507, .T. ) ;
#96 = CARTESIAN_POINT ( 'NONE',  ( 0.000000000000000000, 0.000000000000000000, 0.000000000000000000 ) ) ;
#97 = ORIENTED_EDGE ( 'NONE', *, *, #67, .T. ) ;
#98 = CARTESIAN_POINT ( 'NONE',  ( -9.284044738807265208E-16, -5.525000000000000355, 6.700000000000000178 ) ) ;
#99 = DIRECTION ( 'NONE',  ( 0.000000000000000000, 0.000000000000000000, 1.000000000000000000 ) ) ;
#100 = EDGE_LOOP ( 'NONE', ( #290, #466, #485 ) ) ;
#101 = SURFACE_STYLE_USAGE ( .BOTH. , #163 ) ;
#102 = ADVANCED_FACE ( 'Nface2', ( #296 ), #310, .F. ) ;
#103 = DIRECTION ( 'NONE',  ( 1.000000000000000000, 0.000000000000000000, 0.000000000000000000 ) ) ;
#104 = CIRCLE ( 'NONE', #85, 2.458750000000000213 ) ;
#105 = AXIS2_PLACEMENT_3D ( 'NONE', #342, #48, #530 ) ;
#106 = VERTEX_POINT ( 'NONE', #735 ) ;
#107 = FACE_OUTER_BOUND ( 'NONE', #241, .T. ) ;
#108 = EDGE_LOOP ( 'NONE', ( #341, #115, #412 ) ) ;
#109 = DIRECTION ( 'NONE',  ( -0.000000000000000000, -0.000000000000000000, -1.000000000000000000 ) ) ;
#110 = VERTEX_POINT ( 'NONE', #330 ) ;
#111 = ORIENTED_EDGE ( 'NONE', *, *, #205, .F. ) ;
#112 = CARTESIAN_POINT ( 'NONE',  ( -3.649111509311745660, -3.418184487795904225, 0.000000000000000000 ) ) ;
#113 = DIRECTION ( 'NONE',  ( 1.000000000000000000, 0.000000000000000000, -0.000000000000000000 ) ) ;
#114 = ORIENTED_EDGE ( 'NONE', *, *, #637, .T. ) ;
#115 = ORIENTED_EDGE ( 'NONE', *, *, #752, .F. ) ;
#116 = DIRECTION ( 'NONE',  ( 1.000000000000000000, 0.000000000000000000, 0.000000000000000000 ) ) ;
#117 = VERTEX_POINT ( 'NONE', #36 ) ;
#118 = CARTESIAN_POINT ( 'NONE',  ( -9.659489567768453292E-16, -5.525000000000000355, 5.675000000000003375 ) ) ;
#119 = ORIENTED_EDGE ( 'NONE', *, *, #664, .F. ) ;
#120 = CARTESIAN_POINT ( 'NONE',  ( 4.784790355909024129, -0.9587335139312465060, 6.325732381603853760 ) ) ;
#121 = CARTESIAN_POINT ( 'NONE',  ( -2.458750000000000213, 0.000000000000000000, 0.1294642857142856984 ) ) ;
#122 = EDGE_CURVE ( 'NONE', #31, #439, #270, .T. ) ;
#123 = AXIS2_PLACEMENT_3D ( 'NONE', #8, #60, #293 ) ;
#124 = PLANE ( 'NONE',  #152 ) ;
#125 = AXIS2_PLACEMENT_3D ( 'NONE', #531, #3, #239 ) ;
#126 = MECHANICAL_DESIGN_GEOMETRIC_PRESENTATION_REPRESENTATION (  '', ( #230 ), #49 ) ;
#127 = DIRECTION ( 'NONE',  ( -0.4999999999999996114, 0.8660254037844388186, 0.000000000000000000 ) ) ;
#128 = CARTESIAN_POINT ( 'NONE',  ( -4.408741326392751070, 2.979612008419720848, 5.892112008419901237 ) ) ;
#129 = CARTESIAN_POINT ( 'NONE',  ( 4.784790355909023241, 2.762500000000001954, 5.675000000000003375 ) ) ;
#130 = DIRECTION ( 'NONE',  ( 0.000000000000000000, 0.000000000000000000, -1.000000000000000000 ) ) ;
#131 = EDGE_CURVE ( 'NONE', #106, #405, #684, .T. ) ;
#132 = CARTESIAN_POINT ( 'NONE',  ( -9.284044738807265208E-16, -5.525000000000000355, 6.700000000000000178 ) ) ;
#133 = PRODUCT_DEFINITION_SHAPE ( 'NONE', 'NONE',  #389 ) ;
#134 = CARTESIAN_POINT ( 'NONE',  ( 4.784790355909023241, 2.762500000000001954, 6.700000000000000178 ) ) ;
#135 = PLANE ( 'NONE',  #371 ) ;
#136 = B_SPLINE_CURVE_WITH_KNOTS ( 'NONE', 3,
 ( #284, #749, #224, #46 ),
 .UNSPECIFIED., .F., .F.,
 ( 4, 4 ),
 ( 0.01028983807714324919, 0.01164177538836290091 ),
 .UNSPECIFIED. ) ;
#137 = AXIS2_PLACEMENT_3D ( 'NONE', #608, #663, #599 ) ;
#138 = CARTESIAN_POINT ( 'NONE',  ( -1.135678846597274472, 4.869315512204100749, 0.000000000000000000 ) ) ;
#139 = CARTESIAN_POINT ( 'NONE',  ( -4.500000000000000000, -6.142307869633487533E-16, 6.700000000000000178 ) ) ;
#140 = EDGE_CURVE ( 'NONE', #525, #470, #445, .T. ) ;
#141 = VERTEX_POINT ( 'NONE', #381 ) ;
#142 = DIRECTION ( 'NONE',  ( -1.000000000000000000, 0.000000000000000000, 0.000000000000000000 ) ) ;
#143 = FACE_OUTER_BOUND ( 'NONE', #452, .T. ) ;
#144 = CARTESIAN_POINT ( 'NONE',  ( 4.021545015791883948, -3.203159902574360451, 6.078274674138651967 ) ) ;
#145 = ORIENTED_EDGE ( 'NONE', *, *, #564, .T. ) ;
#146 = CARTESIAN_POINT ( 'NONE',  ( -4.784790355909025905, -0.4848001944820725106, 6.396423614232891630 ) ) ;
#147 = EDGE_CURVE ( 'NONE', #288, #31, #91, .T. ) ;
#148 = CARTESIAN_POINT ( 'NONE',  ( 4.784790355909024129, -2.762500000000002398, 0.3031088913245527650 ) ) ;
#149 = AXIS2_PLACEMENT_3D ( 'NONE', #406, #109, #594 ) ;
#150 = AXIS2_PLACEMENT_3D ( 'NONE', #132, #127, #602 ) ;
#151 = ORIENTED_EDGE ( 'NONE', *, *, #29, .T. ) ;
#152 = AXIS2_PLACEMENT_3D ( 'NONE', #475, #528, #181 ) ;
#153 = CARTESIAN_POINT ( 'NONE',  ( -4.784790355909025905, -1.883119404361264682, 6.076977406709334950 ) ) ;
#154 = CARTESIAN_POINT ( 'NONE',  ( 2.458750000000000213, 3.011100317403555149E-16, 6.700000000000000178 ) ) ;
#155 = ORIENTED_EDGE ( 'NONE', *, *, #391, .F. ) ;
#156 = CARTESIAN_POINT ( 'NONE',  ( 2.821921156098802896, 3.895763060894459784, 6.395305118895453056 ) ) ;
#157 = CARTESIAN_POINT ( 'NONE',  ( 4.784790355909023241, 1.451131024408204517, 0.000000000000000000 ) ) ;
#158 = EDGE_CURVE ( 'NONE', #621, #269, #54, .T. ) ;
#159 = EDGE_LOOP ( 'NONE', ( #447, #279, #26, #47, #169, #223, #506 ) ) ;
#160 = CARTESIAN_POINT ( 'NONE',  ( 4.784790355909023241, 2.762500000000001954, 5.675000000000003375 ) ) ;
#161 = PRESENTATION_STYLE_ASSIGNMENT (( #715 ) ) ;
#162 = ORIENTED_EDGE ( 'NONE', *, *, #175, .T. ) ;
#163 = SURFACE_SIDE_STYLE ('',( #517 ) ) ;
#164 = B_SPLINE_CURVE_WITH_KNOTS ( 'NONE', 3,
 ( #655, #57, #233, #414, #648, #524, #355, #289 ),
 .UNSPECIFIED., .F., .F.,
 ( 4, 2, 2, 4 ),
 ( 0.002925838180386472736, 0.003641801397372417155, 0.004357764614358361141, 0.005789691048330249980 ),
 .UNSPECIFIED. ) ;
#165 =( GEOMETRIC_REPRESENTATION_CONTEXT ( 3 ) GLOBAL_UNCERTAINTY_ASSIGNED_CONTEXT ( ( #459 ) ) GLOBAL_UNIT_ASSIGNED_CONTEXT ( ( #710, #421, #555 ) ) REPRESENTATION_CONTEXT ( 'NONE', 'WORKASPACE' ) );
#166 = UNCERTAINTY_MEASURE_WITH_UNIT (LENGTH_MEASURE( 1.000000000000000082E-05 ), #591, 'distance_accuracy_value', 'NONE');
#167 = DIRECTION ( 'NONE',  ( -1.000000000000000000, 0.000000000000000000, 0.000000000000000000 ) ) ;
#168 = PRESENTATION_LAYER_ASSIGNMENT (  '', '', ( #385 ) ) ;
#169 = ORIENTED_EDGE ( 'NONE', *, *, #95, .F. ) ;
#170 = ORIENTED_EDGE ( 'NONE', *, *, #122, .T. ) ;
#171 = FILL_AREA_STYLE ('',( #702 ) ) ;
#172 = B_SPLINE_CURVE_WITH_KNOTS ( 'NONE', 3,
 ( #677, #737, #146, #324, #444, #153, #686, #276 ),
 .UNSPECIFIED., .F., .F.,
 ( 4, 2, 2, 4 ),
 ( 0.005789691048330249980, 0.006504859626492403950, 0.007220028204654557052, 0.008650365360978864993 ),
 .UNSPECIFIED. ) ;
#173 = VERTEX_POINT ( 'NONE', #450 ) ;
#174 = CARTESIAN_POINT ( 'NONE',  ( -4.784790355909638748, -2.762499999999647127, 0.3031088913241419824 ) ) ;
#175 = EDGE_CURVE ( 'NONE', #574, #519, #561, .T. ) ;
#176 = ORIENTED_EDGE ( 'NONE', *, *, #707, .T. ) ;
#177 = PLANE ( 'NONE',  #309 ) ;
#178 = CIRCLE ( 'NONE', #40, 2.588214285714286245 ) ;
#179 = ORIENTED_EDGE ( 'NONE', *, *, #732, .T. ) ;
#180 = CARTESIAN_POINT ( 'NONE',  ( -4.032040272927504887, -3.197100463041895768, 0.07409064120281244614 ) ) ;
#181 = DIRECTION ( 'NONE',  ( -0.8660254037844388186, 0.4999999999999997780, 0.000000000000000000 ) ) ;
#182 = VERTEX_POINT ( 'NONE', #154 ) ;
#183 = B_SPLINE_CURVE_WITH_KNOTS ( 'NONE', 3,
 ( #72, #607, #537, #722, #666, #259, #714, #369, #79, #489, #128, #186 ),
 .UNSPECIFIED., .F., .F.,
 ( 4, 2, 2, 2, 2, 4 ),
 ( 2.544322442637664005E-07, 0.001427029979755359106, 0.002140417753510906376, 0.002853805527266454079, 0.004280581074777549053, 0.005707356622288646195 ),
 .UNSPECIFIED. ) ;
#184 = DIRECTION ( 'NONE',  ( 0.000000000000000000, 0.000000000000000000, 1.000000000000000000 ) ) ;
#185 = LINE ( 'NONE', #9, #484 ) ;
#186 = CARTESIAN_POINT ( 'NONE',  ( -4.784790355909025017, 2.762500000000002398, 5.675000000000001599 ) ) ;
#187 = CARTESIAN_POINT ( 'NONE',  ( -4.784790355909025017, 1.894008426187638650, 0.07420950181403733470 ) ) ;
#188 = CONICAL_SURFACE ( 'NONE', #604, 5.000000000000000000, 1.047197551196600074 ) ;
#189 = CIRCLE ( 'NONE', #694, 2.458750000000000213 ) ;
#190 = CARTESIAN_POINT ( 'NONE',  ( -1.983503397538567414, -4.379823779492572733, 6.416224074734373950 ) ) ;
#191 = DIRECTION ( 'NONE',  ( 0.000000000000000000, 0.000000000000000000, -1.000000000000000000 ) ) ;
#192 = DIRECTION ( 'NONE',  ( 1.000000000000000000, 0.000000000000000000, 0.000000000000000000 ) ) ;
#193 = LINE ( 'NONE', #660, #577 ) ;
#194 = DIRECTION ( 'NONE',  ( 0.8660254037844388186, 0.4999999999999996114, 0.000000000000000000 ) ) ;
#195 = LINE ( 'NONE', #255, #344 ) ;
#196 = CARTESIAN_POINT ( 'NONE',  ( 4.784790355909023241, 2.762500000000001954, 6.700000000000000178 ) ) ;
#197 = CLOSED_SHELL ( 'NONE', ( #449, #461, #287, #340, #307, #373, #244, #75, #294, #585, #262, #102, #225, #218, #430, #317, #651, #624, #232, #477 ) ) ;
#198 = AXIS2_PLACEMENT_3D ( 'NONE', #712, #356, #630 ) ;
#199 = FACE_OUTER_BOUND ( 'NONE', #413, .T. ) ;
#200 = CIRCLE ( 'NONE', #731, 5.000000000000000000 ) ;
#201 = EDGE_LOOP ( 'NONE', ( #266, #409, #728, #179, #590, #111 ) ) ;
#202 = APPLICATION_CONTEXT ( 'automotive_design' ) ;
#203 = DIRECTION ( 'NONE',  ( 0.000000000000000000, 0.000000000000000000, 1.000000000000000000 ) ) ;
#204 = DIRECTION ( 'NONE',  ( -0.4999999999999998335, -0.8660254037844388186, 0.000000000000000000 ) ) ;
#205 = EDGE_CURVE ( 'NONE', #690, #627, #24, .T. ) ;
#206 = CARTESIAN_POINT ( 'NONE',  ( 0.3738471138155817775, -5.309159268202809479, 5.890840731797194252 ) ) ;
#207 = ORIENTED_EDGE ( 'NONE', *, *, #612, .T. ) ;
#208 = CARTESIAN_POINT ( 'NONE',  ( 1.983503397538566526, 4.379823779492571845, 6.416224074734373950 ) ) ;
#209 = CARTESIAN_POINT ( 'NONE',  ( 4.784790355909024129, -2.762500000000002398, 5.675000000000002487 ) ) ;
#210 = ADVANCED_BREP_SHAPE_REPRESENTATION ( 'GB¨uT 6186-2000[2ÐÍÈ«½ðÊôÁù½ÇËø½ôÂÝÄ¸ 9¼¶M6]', ( #514, #86 ), #583 ) ;
#211 = ORIENTED_EDGE ( 'NONE', *, *, #642, .F. ) ;
#212 = LINE ( 'NONE', #39, #693 ) ;
#213 = CARTESIAN_POINT ( 'NONE',  ( 4.784790355909024129, -2.330457219127782142, 0.1783888834055476491 ) ) ;
#214 = AXIS2_PLACEMENT_3D ( 'NONE', #242, #536, #192 ) ;
#215 = VERTEX_POINT ( 'NONE', #219 ) ;
#216 = CONICAL_SURFACE ( 'NONE', #6, 5.000000000000000000, 1.047197551196600074 ) ;
#217 = CARTESIAN_POINT ( 'NONE',  ( -4.784790355909025017, -2.762500000000001954, 5.675000000000001599 ) ) ;
#218 = ADVANCED_FACE ( 'NONE', ( #678 ), #216, .T. ) ;
#219 = CARTESIAN_POINT ( 'NONE',  ( 3.649111509311750101, -3.418184487795901116, 0.000000000000000000 ) ) ;
#220 = EDGE_LOOP ( 'NONE', ( #82, #643, #701, #455, #757, #119, #762 ) ) ;
#221 = CARTESIAN_POINT ( 'NONE',  ( 3.233301000286008531, 3.658252797113788368, 6.323327676715827295 ) ) ;
#222 = SURFACE_STYLE_FILL_AREA ( #281 ) ;
#223 = ORIENTED_EDGE ( 'NONE', *, *, #33, .F. ) ;
#224 = CARTESIAN_POINT ( 'NONE',  ( 0.3746906985658109424, -5.308672224320179822, 0.1782119918025952265 ) ) ;
#225 = ADVANCED_FACE ( 'NONE', ( #454 ), #567, .T. ) ;
#226 = CIRCLE ( 'NONE', #320, 5.000000000000000000 ) ;
#227 = EDGE_LOOP ( 'NONE', ( #211, #745, #338, #51 ) ) ;
#228 = CARTESIAN_POINT ( 'NONE',  ( -4.410099657343209856, -2.978827775679823819, 0.1782119918025951710 ) ) ;
#229 = MECHANICAL_DESIGN_GEOMETRIC_PRESENTATION_REPRESENTATION (  '', ( #385 ), #27 ) ;
#230 = STYLED_ITEM ( 'NONE', ( #328 ), #210 ) ;
#231 = ORIENTED_EDGE ( 'NONE', *, *, #637, .F. ) ;
#232 = ADVANCED_FACE ( 'NONE', ( #199 ), #399, .F. ) ;
#233 = CARTESIAN_POINT ( 'NONE',  ( -4.784790355909025017, 2.330727461490386787, 5.881666877067539545 ) ) ;
#234 = ORIENTED_EDGE ( 'NONE', *, *, #435, .F. ) ;
#235 = DIRECTION ( 'NONE',  ( 0.8660254037844387076, -0.4999999999999997224, 0.000000000000000000 ) ) ;
#236 = ORIENTED_EDGE ( 'NONE', *, *, #703, .F. ) ;
#237 = VERTEX_POINT ( 'NONE', #139 ) ;
#238 = VECTOR ( 'NONE', #23, 1000.000000000000000 ) ;
#239 = DIRECTION ( 'NONE',  ( -1.000000000000000000, 0.000000000000000000, 0.000000000000000000 ) ) ;
#240 = EDGE_CURVE ( 'NONE', #182, #117, #104, .T. ) ;
#241 = EDGE_LOOP ( 'NONE', ( #532, #393, #758, #468 ) ) ;
#242 = CARTESIAN_POINT ( 'NONE',  ( 0.000000000000000000, 0.000000000000000000, 0.000000000000000000 ) ) ;
#243 = DIRECTION ( 'NONE',  ( 0.000000000000000000, 0.000000000000000000, 1.000000000000000000 ) ) ;
#244 = ADVANCED_FACE ( 'NONE', ( #416 ), #124, .F. ) ;
#245 = CARTESIAN_POINT ( 'NONE',  ( -4.031816185169122768, 3.197229840169519832, 0.07404728377636267400 ) ) ;
#246 = CARTESIAN_POINT ( 'NONE',  ( 1.135678846597275804, 4.869315512204100749, 0.000000000000000000 ) ) ;
#247 = CARTESIAN_POINT ( 'NONE',  ( 0.7529741707400204875, 5.090270159830414975, 0.07404728377633881808 ) ) ;
#248 = DIRECTION ( 'NONE',  ( 0.000000000000000000, 0.000000000000000000, -1.000000000000000000 ) ) ;
#249 = CARTESIAN_POINT ( 'NONE',  ( -1.572935393427701056, -4.616865327186630452, 6.343192011274848774 ) ) ;
#250 = CARTESIAN_POINT ( 'NONE',  ( 0.3748850756937273099, 5.308560000633053555, 0.1781471994266576042 ) ) ;
#251 = DIRECTION ( 'NONE',  ( 1.000000000000000000, 0.000000000000000000, -0.000000000000000000 ) ) ;
#252 = VECTOR ( 'NONE', #434, 1000.000000000000227 ) ;
#253 = PRODUCT_RELATED_PRODUCT_CATEGORY ( 'part', '', ( #535 ) ) ;
#254 = CARTESIAN_POINT ( 'NONE',  ( -4.410943242093443573, -2.978340731797192831, 5.890840731797190699 ) ) ;
#255 = CARTESIAN_POINT ( 'NONE',  ( 2.458750000000000213, 3.011100317403555149E-16, 6.700000000000000178 ) ) ;
#256 = CARTESIAN_POINT ( 'NONE',  ( 4.784790355909023241, 2.762500000000001954, 0.000000000000000000 ) ) ;
#257 = CARTESIAN_POINT ( 'NONE',  ( -4.784790355909025017, -1.892013640721222911, 0.07387525121761086278 ) ) ;
#258 = APPLICATION_CONTEXT ( 'automotive_design' ) ;
#259 = CARTESIAN_POINT ( 'NONE',  ( -1.962869199810221676, 4.391736939105544302, 6.395305118895448615 ) ) ;
#260 = DIRECTION ( 'NONE',  ( -1.000000000000000000, 0.000000000000000000, 0.000000000000000000 ) ) ;
#261 = CARTESIAN_POINT ( 'NONE',  ( 4.784790355909024129, -2.762500000000002398, 0.000000000000000000 ) ) ;
#262 = ADVANCED_FACE ( 'Nface1', ( #708, #353 ), #568, .F. ) ;
#263 = AXIS2_PLACEMENT_3D ( 'NONE', #337, #734, #692 ) ;
#264 = CARTESIAN_POINT ( 'NONE',  ( 1.551489355623014710, -4.629247202886212165, 6.323327676715825518 ) ) ;
#265 = VECTOR ( 'NONE', #311, 1000.000000000000000 ) ;
#266 = ORIENTED_EDGE ( 'NONE', *, *, #726, .F. ) ;
#267 = PLANE ( 'NONE',  #743 ) ;
#268 = DIRECTION ( 'NONE',  ( -0.000000000000000000, -0.000000000000000000, -1.000000000000000000 ) ) ;
#269 = VERTEX_POINT ( 'NONE', #761 ) ;
#270 = B_SPLINE_CURVE_WITH_KNOTS ( 'NONE', 3,
 ( #548, #32, #613, #157 ),
 .UNSPECIFIED., .F., .F.,
 ( 4, 4 ),
 ( 0.005193472794864375901, 0.006542303227970883671 ),
 .UNSPECIFIED. ) ;
#271 = CARTESIAN_POINT ( 'NONE',  ( 6.144038653560839032E-13, 5.525000000000354738, 0.3031088913241409277 ) ) ;
#272 = CARTESIAN_POINT ( 'NONE',  ( 0.7561269851882977955, -5.088449881559996335, 6.074358628812457361 ) ) ;
#273 = VERTEX_POINT ( 'NONE', #596 ) ;
#274 = SHAPE_DEFINITION_REPRESENTATION ( #133, #210 ) ;
#275 = EDGE_CURVE ( 'NONE', #627, #273, #697, .T. ) ;
#276 = CARTESIAN_POINT ( 'NONE',  ( -4.784790355909025017, -2.762500000000001954, 5.675000000000001599 ) ) ;
#277 = DIRECTION ( 'NONE',  ( 0.000000000000000000, 0.000000000000000000, 1.000000000000000000 ) ) ;
#278 = STYLED_ITEM ( 'NONE', ( #473 ), #102 ) ;
#279 = ORIENTED_EDGE ( 'NONE', *, *, #205, .T. ) ;
#280 = CARTESIAN_POINT ( 'NONE',  ( 4.784790355909023241, 2.330727462242712988, 5.881666876696587387 ) ) ;
#281 = FILL_AREA_STYLE ('',( #295 ) ) ;
#282 = EDGE_LOOP ( 'NONE', ( #207, #286 ) ) ;
#283 = APPLICATION_PROTOCOL_DEFINITION ( 'draft international standard', 'automotive_design', 1998, #258 ) ;
#284 = CARTESIAN_POINT ( 'NONE',  ( 1.135678846597270919, -4.869315512204102525, 0.000000000000000000 ) ) ;
#285 = ORIENTED_EDGE ( 'NONE', *, *, #542, .F. ) ;
#286 = ORIENTED_EDGE ( 'NONE', *, *, #703, .T. ) ;
#287 = ADVANCED_FACE ( 'Nface2', ( #479 ), #299, .F. ) ;
#288 = VERTEX_POINT ( 'NONE', #423 ) ;
#289 = CARTESIAN_POINT ( 'NONE',  ( -4.784790355909025017, -5.860961282251084261E-16, 6.415209644090976049 ) ) ;
#290 = ORIENTED_EDGE ( 'NONE', *, *, #52, .T. ) ;
#291 = CARTESIAN_POINT ( 'NONE',  ( 0.000000000000000000, 0.000000000000000000, 0.000000000000000000 ) ) ;
#292 = ORIENTED_EDGE ( 'NONE', *, *, #612, .F. ) ;
#293 = DIRECTION ( 'NONE',  ( -1.000000000000000000, 0.000000000000000000, 0.000000000000000000 ) ) ;
#294 = ADVANCED_FACE ( 'NONE', ( #656 ), #177, .F. ) ;
#295 = FILL_AREA_STYLE_COLOUR ( '', #321 ) ;
#296 = FACE_OUTER_BOUND ( 'NONE', #227, .T. ) ;
#297 = DIRECTION ( 'NONE',  ( -0.7071067811865487940, -8.659560562354948882E-17, -0.7071067811865463515 ) ) ;
#298 = AXIS2_PLACEMENT_3D ( 'NONE', #471, #248, #395 ) ;
#299 = CYLINDRICAL_SURFACE ( 'NONE', #198, 2.458750000000000213 ) ;
#300 = PRODUCT_DEFINITION_FORMATION_WITH_SPECIFIED_SOURCE ( 'ÈÎºÎ', '', #535, .NOT_KNOWN. ) ;
#301 = LINE ( 'NONE', #64, #742 ) ;
#302 = CARTESIAN_POINT ( 'NONE',  ( 1.135678846597275804, 4.869315512204100749, 0.000000000000000000 ) ) ;
#303 = CARTESIAN_POINT ( 'NONE',  ( 0.000000000000000000, 5.525000000000000355, 6.700000000000000178 ) ) ;
#304 = CARTESIAN_POINT ( 'NONE',  ( -0.7632453401171405138, -5.084340097425645411, 6.078274674138655520 ) ) ;
#305 = B_SPLINE_CURVE_WITH_KNOTS ( 'NONE', 3,
 ( #35, #44, #383, #390, #221, #156, #503, #208, #508, #453, #565, #557 ),
 .UNSPECIFIED., .F., .F.,
 ( 4, 2, 2, 2, 2, 4 ),
 ( 2.544322442628414405E-07, 0.001427029979755357371, 0.002140417753510905075, 0.002853805527266453212, 0.004280581074777548185, 0.005707356622288644460 ),
 .UNSPECIFIED. ) ;
#306 = CARTESIAN_POINT ( 'NONE',  ( 4.784790355909023241, 2.762500000000001954, 0.3031088913245521543 ) ) ;
#307 = ADVANCED_FACE ( 'NONE', ( #58 ), #361, .F. ) ;
#308 = CARTESIAN_POINT ( 'NONE',  ( 0.000000000000000000, 0.000000000000000000, 0.000000000000000000 ) ) ;
#309 = AXIS2_PLACEMENT_3D ( 'NONE', #586, #41, #55 ) ;
#310 = CYLINDRICAL_SURFACE ( 'NONE', #633, 2.458750000000000213 ) ;
#311 = DIRECTION ( 'NONE',  ( -1.569885498621543742E-16, 1.000000000000000000, 0.000000000000000000 ) ) ;
#312 = DIRECTION ( 'NONE',  ( 1.000000000000000000, 0.000000000000000000, 0.000000000000000000 ) ) ;
#313 = CARTESIAN_POINT ( 'NONE',  ( 1.350057840473108950, -4.745543742381286734, 6.271016443903981497 ) ) ;
#314 = CARTESIAN_POINT ( 'NONE',  ( -4.784790355909025017, -5.860961282251084261E-16, 6.415209644090976049 ) ) ;
#315 = CARTESIAN_POINT ( 'NONE',  ( 4.784790355909024129, -2.762500000000002398, 6.700000000000000178 ) ) ;
#316 = CARTESIAN_POINT ( 'NONE',  ( -2.588214285714286245, 0.000000000000000000, 0.000000000000000000 ) ) ;
#317 = ADVANCED_FACE ( 'NONE', ( #11 ), #522, .T. ) ;
#318 = ORIENTED_EDGE ( 'NONE', *, *, #67, .F. ) ;
#319 = APPLICATION_PROTOCOL_DEFINITION ( 'draft international standard', 'automotive_design', 1998, #202 ) ;
#320 = AXIS2_PLACEMENT_3D ( 'NONE', #308, #378, #543 ) ;
#321 = COLOUR_RGB ( '',0.7529411764705882248, 0.7529411764705882248, 0.7529411764705882248 ) ;
#322 = CARTESIAN_POINT ( 'NONE',  ( 4.408741326392750182, -2.979612008419721292, 5.892112008419902125 ) ) ;
#323 = EDGE_LOOP ( 'NONE', ( #647, #292, #50, #631, #556, #562, #42 ) ) ;
#324 = CARTESIAN_POINT ( 'NONE',  ( -4.784790355909025017, -0.9587335115107077366, 6.325732382047205782 ) ) ;
#325 = CARTESIAN_POINT ( 'NONE',  ( 4.032040272927328139, 3.197100463041996576, 0.07409064120277818188 ) ) ;
#326 = EDGE_CURVE ( 'NONE', #110, #739, #566, .T. ) ;
#327 = ORIENTED_EDGE ( 'NONE', *, *, #427, .F. ) ;
#328 = PRESENTATION_STYLE_ASSIGNMENT (( #101 ) ) ;
#329 = CARTESIAN_POINT ( 'NONE',  ( 0.000000000000000000, 0.000000000000000000, 6.700000000000000178 ) ) ;
#330 = CARTESIAN_POINT ( 'NONE',  ( 1.135678846597270919, -4.869315512204102525, 0.000000000000000000 ) ) ;
#331 = EDGE_LOOP ( 'NONE', ( #695, #5, #516, #62 ) ) ;
#332 = DIRECTION ( 'NONE',  ( 0.000000000000000000, 0.000000000000000000, 1.000000000000000000 ) ) ;
#333 = CARTESIAN_POINT ( 'NONE',  ( -4.784790355909025017, 2.762500000000002398, 0.3031088913245532646 ) ) ;
#334 = ORIENTED_EDGE ( 'NONE', *, *, #752, .T. ) ;
#335 = DIRECTION ( 'NONE',  ( 0.000000000000000000, 0.000000000000000000, 1.000000000000000000 ) ) ;
#336 = COLOUR_RGB ( '',0.7529411764705882248, 0.7529411764705882248, 0.7529411764705882248 ) ;
#337 = CARTESIAN_POINT ( 'NONE',  ( 0.000000000000000000, 0.000000000000000000, 6.700000000000000178 ) ) ;
#338 = ORIENTED_EDGE ( 'NONE', *, *, #497, .T. ) ;
#339 = CARTESIAN_POINT ( 'NONE',  ( 4.784790355909023241, 0.9585668929899135993, 6.340383457447053672 ) ) ;
#340 = ADVANCED_FACE ( 'NONE', ( #143 ), #267, .F. ) ;
#341 = ORIENTED_EDGE ( 'NONE', *, *, #95, .T. ) ;
#342 = CARTESIAN_POINT ( 'NONE',  ( -4.784790355909025017, 8.287499999999999645, 6.700000000000000178 ) ) ;
#343 = ORIENTED_EDGE ( 'NONE', *, *, #515, .T. ) ;
#344 = VECTOR ( 'NONE', #426, 1000.000000000000000 ) ;
#345 = ORIENTED_EDGE ( 'NONE', *, *, #359, .F. ) ;
#346 =( NAMED_UNIT ( * ) PLANE_ANGLE_UNIT ( ) SI_UNIT ( $, .RADIAN. ) );
#347 = VECTOR ( 'NONE', #235, 1000.000000000000114 ) ;
#348 = AXIS2_PLACEMENT_3D ( 'NONE', #291, #184, #422 ) ;
#349 =( NAMED_UNIT ( * ) SI_UNIT ( $, .STERADIAN. ) SOLID_ANGLE_UNIT ( ) );
#350 = VERTEX_POINT ( 'NONE', #129 ) ;
#351 = EDGE_CURVE ( 'NONE', #117, #182, #704, .T. ) ;
#352 = SURFACE_STYLE_FILL_AREA ( #171 ) ;
#353 = FACE_OUTER_BOUND ( 'NONE', #354, .T. ) ;
#354 = EDGE_LOOP ( 'NONE', ( #145, #377, #685, #318, #37, #84, #334, #570, #709, #756, #114, #345 ) ) ;
#355 = CARTESIAN_POINT ( 'NONE',  ( -4.784790355909026793, 0.4856246285316975220, 6.415209644090984931 ) ) ;
#356 = DIRECTION ( 'NONE',  ( -0.000000000000000000, -0.000000000000000000, -1.000000000000000000 ) ) ;
#357 = ORIENTED_EDGE ( 'NONE', *, *, #760, .F. ) ;
#358 = CARTESIAN_POINT ( 'NONE',  ( 2.458750000000000213, 3.011100317403555149E-16, 0.1294642857142856984 ) ) ;
#359 = EDGE_CURVE ( 'NONE', #288, #1, #441, .T. ) ;
#360 = COLOUR_RGB ( '',0.7529411764705882248, 0.7529411764705882248, 0.7529411764705882248 ) ;
#361 = PLANE ( 'NONE',  #63 ) ;
#362 = PRESENTATION_LAYER_ASSIGNMENT (  '', '', ( #230 ) ) ;
#363 = SURFACE_STYLE_FILL_AREA ( #68 ) ;
#364 = CARTESIAN_POINT ( 'NONE',  ( -1.135678846597278024, -4.869315512204100749, 0.000000000000000000 ) ) ;
#365 = DIRECTION ( 'NONE',  ( 0.7071067811865487940, 0.000000000000000000, -0.7071067811865463515 ) ) ;
#366 = CARTESIAN_POINT ( 'NONE',  ( 2.588214285714286245, 3.169648340507453261E-16, 0.000000000000000000 ) ) ;
#367 = B_SPLINE_CURVE_WITH_KNOTS ( 'NONE', 3,
 ( #658, #480, #597, #368 ),
 .UNSPECIFIED., .F., .F.,
 ( 4, 4 ),
 ( 0.006022350690198338685, 0.007374101037611648264 ),
 .UNSPECIFIED. ) ;
#368 = CARTESIAN_POINT ( 'NONE',  ( 3.649111509311750101, -3.418184487795901116, 0.000000000000000000 ) ) ;
#369 = CARTESIAN_POINT ( 'NONE',  ( -2.801286958370458713, 3.907676220507431353, 6.416224074734374838 ) ) ;
#370 = DIRECTION ( 'NONE',  ( -0.000000000000000000, 0.000000000000000000, -1.000000000000000000 ) ) ;
#371 = AXIS2_PLACEMENT_3D ( 'NONE', #70, #251, #370 ) ;
#372 = FACE_OUTER_BOUND ( 'NONE', #672, .T. ) ;
#373 = ADVANCED_FACE ( 'NONE', ( #667 ), #135, .F. ) ;
#374 = DIRECTION ( 'NONE',  ( 0.7071067811865474617, 8.659560562354932858E-17, -0.7071067811865474617 ) ) ;
#375 = CARTESIAN_POINT ( 'NONE',  ( -1.135678846597278024, -4.869315512204100749, 0.000000000000000000 ) ) ;
#376 = CARTESIAN_POINT ( 'NONE',  ( 2.801286958370458269, -3.907676220507429576, 6.416224074734375726 ) ) ;
#377 = ORIENTED_EDGE ( 'NONE', *, *, #698, .F. ) ;
#378 = DIRECTION ( 'NONE',  ( 0.000000000000000000, 0.000000000000000000, -1.000000000000000000 ) ) ;
#379 = UNCERTAINTY_MEASURE_WITH_UNIT (LENGTH_MEASURE( 1.000000000000000082E-05 ), #401, 'distance_accuracy_value', 'NONE');
#380 = CARTESIAN_POINT ( 'NONE',  ( -4.784790355909025017, 2.762500000000002398, 0.3031088913245532646 ) ) ;
#381 = CARTESIAN_POINT ( 'NONE',  ( -4.784790355909638748, -2.762499999999647127, 0.3031088913241419824 ) ) ;
#382 = ORIENTED_EDGE ( 'NONE', *, *, #415, .T. ) ;
#383 = CARTESIAN_POINT ( 'NONE',  ( 4.028663370720726000, 3.199050118440005974, 6.074358628812455585 ) ) ;
#384 = VECTOR ( 'NONE', #297, 1000.000000000000000 ) ;
#385 = STYLED_ITEM ( 'NONE', ( #161 ), #287 ) ;
#386 = DIRECTION ( 'NONE',  ( 0.000000000000000000, -1.000000000000000000, 0.000000000000000000 ) ) ;
#387 = CIRCLE ( 'NONE', #402, 4.500000000000000000 ) ;
#388 = ORIENTED_EDGE ( 'NONE', *, *, #664, .T. ) ;
#389 = PRODUCT_DEFINITION ( 'Î´Öª', '', #300, #38 ) ;
#390 = CARTESIAN_POINT ( 'NONE',  ( 3.434732515435914291, 3.541956257618716908, 6.271016443903984161 ) ) ;
#391 = EDGE_CURVE ( 'NONE', #396, #739, #407, .T. ) ;
#392 = DIRECTION ( 'NONE',  ( -1.000000000000000000, 0.000000000000000000, 0.000000000000000000 ) ) ;
#393 = ORIENTED_EDGE ( 'NONE', *, *, #760, .T. ) ;
#394 = CARTESIAN_POINT ( 'NONE',  ( 4.784790355909023241, 1.653455530224851255, 6.142447739665894524 ) ) ;
#395 = DIRECTION ( 'NONE',  ( -1.000000000000000000, 0.000000000000000000, 0.000000000000000000 ) ) ;
#396 = VERTEX_POINT ( 'NONE', #720 ) ;
#397 =( NAMED_UNIT ( * ) PLANE_ANGLE_UNIT ( ) SI_UNIT ( $, .RADIAN. ) );
#398 = DIRECTION ( 'NONE',  ( 0.000000000000000000, 0.000000000000000000, -1.000000000000000000 ) ) ;
#399 = CONICAL_SURFACE ( 'NONE', #437, 2.588214285714286245, 0.7853981633974482790 ) ;
#400 = ORIENTED_EDGE ( 'NONE', *, *, #527, .T. ) ;
#401 =( LENGTH_UNIT ( ) NAMED_UNIT ( * ) SI_UNIT ( .MILLI., .METRE. ) );
#402 = AXIS2_PLACEMENT_3D ( 'NONE', #546, #203, #17 ) ;
#403 = DIRECTION ( 'NONE',  ( -0.000000000000000000, -0.000000000000000000, -1.000000000000000000 ) ) ;
#404 = EDGE_LOOP ( 'NONE', ( #443, #578, #285, #343, #155, #234 ) ) ;
#405 = VERTEX_POINT ( 'NONE', #77 ) ;
#406 = CARTESIAN_POINT ( 'NONE',  ( 0.000000000000000000, 0.000000000000000000, 0.1294642857142856984 ) ) ;
#407 = B_SPLINE_CURVE_WITH_KNOTS ( 'NONE', 3,
 ( #605, #490, #499, #375 ),
 .UNSPECIFIED., .F., .F.,
 ( 4, 4 ),
 ( 0.006022350690198762825, 0.007374101037611650866 ),
 .UNSPECIFIED. ) ;
#408 = ORIENTED_EDGE ( 'NONE', *, *, #52, .F. ) ;
#409 = ORIENTED_EDGE ( 'NONE', *, *, #644, .T. ) ;
#410 = DIRECTION ( 'NONE',  ( 1.000000000000000000, 0.000000000000000000, 0.000000000000000000 ) ) ;
#411 = EDGE_CURVE ( 'NONE', #106, #627, #88, .T. ) ;
#412 = ORIENTED_EDGE ( 'NONE', *, *, #542, .T. ) ;
#413 = EDGE_LOOP ( 'NONE', ( #357, #646, #162, #653 ) ) ;
#414 = CARTESIAN_POINT ( 'NONE',  ( -4.784790355909025905, 1.883704622867437006, 6.061836922308970088 ) ) ;
#415 = EDGE_CURVE ( 'NONE', #650, #519, #178, .T. ) ;
#416 = FACE_OUTER_BOUND ( 'NONE', #404, .T. ) ;
#417 = EDGE_LOOP ( 'NONE', ( #582, #170, #733 ) ) ;
#418 = SURFACE_SIDE_STYLE ('',( #352 ) ) ;
#419 = CARTESIAN_POINT ( 'NONE',  ( -4.409905280215534518, 2.978939999366812419, 0.1781471994267236902 ) ) ;
#420 = EDGE_LOOP ( 'NONE', ( #550, #679, #458 ) ) ;
#421 =( NAMED_UNIT ( * ) PLANE_ANGLE_UNIT ( ) SI_UNIT ( $, .RADIAN. ) );
#422 = DIRECTION ( 'NONE',  ( -1.000000000000000000, 0.000000000000000000, 0.000000000000000000 ) ) ;
#423 = CARTESIAN_POINT ( 'NONE',  ( 3.649111509311747437, 3.418184487795903781, 0.000000000000000000 ) ) ;
#424 = CARTESIAN_POINT ( 'NONE',  ( 4.784790355909025017, -0.4848001954996514762, 6.396423614163424531 ) ) ;
#425 = VECTOR ( 'NONE', #478, 1000.000000000000000 ) ;
#426 = DIRECTION ( 'NONE',  ( -0.000000000000000000, -0.000000000000000000, -1.000000000000000000 ) ) ;
#427 = EDGE_CURVE ( 'NONE', #470, #269, #80, .T. ) ;
#428 = DIRECTION ( 'NONE',  ( 0.000000000000000000, 0.000000000000000000, 1.000000000000000000 ) ) ;
#429 = CARTESIAN_POINT ( 'NONE',  ( 4.784790355909024129, -2.762500000000002398, 5.675000000000002487 ) ) ;
#430 = ADVANCED_FACE ( 'NONE', ( #460 ), #188, .T. ) ;
#431 = CARTESIAN_POINT ( 'NONE',  ( 0.000000000000000000, 0.000000000000000000, 0.000000000000000000 ) ) ;
#432 = CARTESIAN_POINT ( 'NONE',  ( -3.233301000286011639, -3.658252797113789256, 6.323327676715828183 ) ) ;
#433 = CARTESIAN_POINT ( 'NONE',  ( -4.784790355909025017, 2.762500000000002398, 5.675000000000001599 ) ) ;
#434 = DIRECTION ( 'NONE',  ( -0.8660254037844387076, 0.4999999999999997780, 0.000000000000000000 ) ) ;
#435 = EDGE_CURVE ( 'NONE', #525, #396, #571, .T. ) ;
#436 = CARTESIAN_POINT ( 'NONE',  ( 6.144038653560839032E-13, 5.525000000000354738, 0.3031088913241409277 ) ) ;
#437 = AXIS2_PLACEMENT_3D ( 'NONE', #438, #671, #549 ) ;
#438 = CARTESIAN_POINT ( 'NONE',  ( 0.000000000000000000, 0.000000000000000000, 0.000000000000000000 ) ) ;
#439 = VERTEX_POINT ( 'NONE', #94 ) ;
#440 = CARTESIAN_POINT ( 'NONE',  ( -4.784790355909025017, 2.762500000000002398, 0.3031088913245532646 ) ) ;
#441 = LINE ( 'NONE', #256, #252 ) ;
#442 = CARTESIAN_POINT ( 'NONE',  ( 4.784790355909024129, -1.451131024408203185, 0.000000000000000000 ) ) ;
#443 = ORIENTED_EDGE ( 'NONE', *, *, #29, .F. ) ;
#444 = CARTESIAN_POINT ( 'NONE',  ( -4.784790355909025905, -1.192092693361817224, 6.273890530841017110 ) ) ;
#445 = B_SPLINE_CURVE_WITH_KNOTS ( 'NONE', 3,
 ( #500, #206, #272, #313, #264, #90, #30, #376, #606, #144, #322, #209 ),
 .UNSPECIFIED., .F., .F.,
 ( 4, 2, 2, 2, 2, 4 ),
 ( 2.544322442637664005E-07, 0.001427029979755361708, 0.002140417753510910279, 0.002853805527266458416, 0.004280581074777553389, 0.005707356622288647062 ),
 .UNSPECIFIED. ) ;
#446 = CARTESIAN_POINT ( 'NONE',  ( -4.784790355909025017, 2.762500000000002398, 6.700000000000000178 ) ) ;
#447 = ORIENTED_EDGE ( 'NONE', *, *, #554, .F. ) ;
#448 = CARTESIAN_POINT ( 'NONE',  ( 4.784790355909024129, -2.762500000000002398, 5.675000000000002487 ) ) ;
#449 = ADVANCED_FACE ( 'NONE', ( #741 ), #510, .T. ) ;
#450 = CARTESIAN_POINT ( 'NONE',  ( 3.754448299194687015E-17, 5.525000000000000355, 5.675000000000003375 ) ) ;
#451 = EDGE_CURVE ( 'NONE', #753, #736, #481, .T. ) ;
#452 = EDGE_LOOP ( 'NONE', ( #56, #388, #636, #523, #472, #687 ) ) ;
#453 = CARTESIAN_POINT ( 'NONE',  ( 0.7632453401171387375, 5.084340097425643634, 6.078274674138654632 ) ) ;
#454 = FACE_OUTER_BOUND ( 'NONE', #100, .T. ) ;
#455 = ORIENTED_EDGE ( 'NONE', *, *, #698, .T. ) ;
#456 = FILL_AREA_STYLE_COLOUR ( '', #336 ) ;
#457 = FACE_OUTER_BOUND ( 'NONE', #323, .T. ) ;
#458 = ORIENTED_EDGE ( 'NONE', *, *, #504, .T. ) ;
#459 = UNCERTAINTY_MEASURE_WITH_UNIT (LENGTH_MEASURE( 1.000000000000000082E-05 ), #710, 'distance_accuracy_value', 'NONE');
#460 = FACE_OUTER_BOUND ( 'NONE', #420, .T. ) ;
#461 = ADVANCED_FACE ( 'NONE', ( #107 ), #730, .F. ) ;
#462 = ORIENTED_EDGE ( 'NONE', *, *, #240, .F. ) ;
#463 = STYLED_ITEM ( 'NONE', ( #467 ), #514 ) ;
#464 = ORIENTED_EDGE ( 'NONE', *, *, #411, .T. ) ;
#465 = CIRCLE ( 'NONE', #123, 5.000000000000000000 ) ;
#466 = ORIENTED_EDGE ( 'NONE', *, *, #626, .F. ) ;
#467 = PRESENTATION_STYLE_ASSIGNMENT (( #469 ) ) ;
#468 = ORIENTED_EDGE ( 'NONE', *, *, #175, .F. ) ;
#469 = SURFACE_STYLE_USAGE ( .BOTH. , #418 ) ;
#470 = VERTEX_POINT ( 'NONE', #448 ) ;
#471 = CARTESIAN_POINT ( 'NONE',  ( 0.000000000000000000, 0.000000000000000000, 0.000000000000000000 ) ) ;
#472 = ORIENTED_EDGE ( 'NONE', *, *, #707, .F. ) ;
#473 = PRESENTATION_STYLE_ASSIGNMENT (( #541 ) ) ;
#474 = CARTESIAN_POINT ( 'NONE',  ( 4.784790355909024129, -1.451131024408203185, 0.000000000000000000 ) ) ;
#475 = CARTESIAN_POINT ( 'NONE',  ( -4.784790355909025017, -2.762500000000001954, 6.700000000000000178 ) ) ;
#476 = CARTESIAN_POINT ( 'NONE',  ( 4.784790355909024129, -1.192092695940301983, 6.273890530204613292 ) ) ;
#477 = ADVANCED_FACE ( 'NONE', ( #457 ), #593, .T. ) ;
#478 = DIRECTION ( 'NONE',  ( -0.000000000000000000, -0.000000000000000000, -1.000000000000000000 ) ) ;
#479 = FACE_OUTER_BOUND ( 'NONE', #331, .T. ) ;
#480 = CARTESIAN_POINT ( 'NONE',  ( 4.409905280215534518, -2.978939999366811975, 0.1781471994267231629 ) ) ;
#481 = B_SPLINE_CURVE_WITH_KNOTS ( 'NONE', 3,
 ( #632, #680, #87, #271 ),
 .UNSPECIFIED., .F., .F.,
 ( 4, 4 ),
 ( 0.01028983807714324399, 0.01164177538836289744 ),
 .UNSPECIFIED. ) ;
#482 = AXIS2_PLACEMENT_3D ( 'NONE', #431, #76, #14 ) ;
#483 =( LENGTH_UNIT ( ) NAMED_UNIT ( * ) SI_UNIT ( .MILLI., .METRE. ) );
#484 = VECTOR ( 'NONE', #194, 1000.000000000000000 ) ;
#485 = ORIENTED_EDGE ( 'NONE', *, *, #158, .T. ) ;
#486 = DIRECTION ( 'NONE',  ( -0.000000000000000000, -0.000000000000000000, -1.000000000000000000 ) ) ;
#487 = EDGE_CURVE ( 'NONE', #748, #492, #172, .T. ) ;
#488 = CARTESIAN_POINT ( 'NONE',  ( -4.784790355909025017, -2.762500000000001954, 5.675000000000001599 ) ) ;
#489 = CARTESIAN_POINT ( 'NONE',  ( -4.021545015791887501, 3.203159902574359119, 6.078274674138651967 ) ) ;
#490 = CARTESIAN_POINT ( 'NONE',  ( -0.3748850756937281425, -5.308560000633053555, 0.1781471994266574377 ) ) ;
#491 = DIRECTION ( 'NONE',  ( 0.000000000000000000, 0.000000000000000000, 1.000000000000000000 ) ) ;
#492 = VERTEX_POINT ( 'NONE', #217 ) ;
#493 = CARTESIAN_POINT ( 'NONE',  ( 0.000000000000000000, 5.525000000000000355, 6.700000000000000178 ) ) ;
#494 = PRESENTATION_LAYER_ASSIGNMENT (  '', '', ( #278 ) ) ;
#495 = EDGE_CURVE ( 'NONE', #350, #173, #305, .T. ) ;
#496 = AXIS2_PLACEMENT_3D ( 'NONE', #746, #518, #560 ) ;
#497 = EDGE_CURVE ( 'NONE', #117, #574, #212, .T. ) ;
#498 = ORIENTED_EDGE ( 'NONE', *, *, #504, .F. ) ;
#499 = CARTESIAN_POINT ( 'NONE',  ( -0.7529741707400220418, -5.090270159830414975, 0.07404728377633858216 ) ) ;
#500 = CARTESIAN_POINT ( 'NONE',  ( -9.659489567768453292E-16, -5.525000000000000355, 5.675000000000003375 ) ) ;
#501 = EDGE_CURVE ( 'NONE', #614, #350, #628, .T. ) ;
#502 = ORIENTED_EDGE ( 'NONE', *, *, #275, .T. ) ;
#503 = CARTESIAN_POINT ( 'NONE',  ( 2.610053346485726511, 4.018084997807185310, 6.414686214047368829 ) ) ;
#504 = EDGE_CURVE ( 'NONE', #110, #396, #136, .T. ) ;
#505 = CARTESIAN_POINT ( 'NONE',  ( 4.410099657342860802, 2.978827775680025436, 0.1782119918024986926 ) ) ;
#506 = ORIENTED_EDGE ( 'NONE', *, *, #487, .F. ) ;
#507 = B_SPLINE_CURVE_WITH_KNOTS ( 'NONE', 3,
 ( #7, #19, #257, #73 ),
 .UNSPECIFIED., .F., .F.,
 ( 4, 4 ),
 ( 0.005193472794864787030, 0.006542303227970890610 ),
 .UNSPECIFIED. ) ;
#508 = CARTESIAN_POINT ( 'NONE',  ( 1.572935393427699724, 4.616865327186628676, 6.343192011274848774 ) ) ;
#509 = MECHANICAL_DESIGN_GEOMETRIC_PRESENTATION_REPRESENTATION (  '', ( #278 ), #165 ) ;
#510 = CONICAL_SURFACE ( 'NONE', #717, 4.500000000000000000, 0.7853981633974500554 ) ;
#511 = CARTESIAN_POINT ( 'NONE',  ( 0.000000000000000000, 0.000000000000000000, 0.000000000000000000 ) ) ;
#512 = EDGE_LOOP ( 'NONE', ( #236, #400, #45, #151, #529, #34, #751 ) ) ;
#513 = CARTESIAN_POINT ( 'NONE',  ( 4.784790355909023241, 2.548673964397036862, 5.781913017801485921 ) ) ;
#514 = MANIFOLD_SOLID_BREP ( 'ÇÐ³ý-À­Éì7', #197 ) ;
#515 = EDGE_CURVE ( 'NONE', #592, #739, #652, .T. ) ;
#516 = ORIENTED_EDGE ( 'NONE', *, *, #580, .T. ) ;
#517 = SURFACE_STYLE_FILL_AREA ( #93 ) ;
#518 = DIRECTION ( 'NONE',  ( -0.000000000000000000, -0.000000000000000000, -1.000000000000000000 ) ) ;
#519 = VERTEX_POINT ( 'NONE', #573 ) ;
#520 = VECTOR ( 'NONE', #486, 1000.000000000000000 ) ;
#521 = VERTEX_POINT ( 'NONE', #358 ) ;
#522 = CONICAL_SURFACE ( 'NONE', #125, 5.000000000000000000, 1.047197551196600074 ) ;
#523 = ORIENTED_EDGE ( 'NONE', *, *, #359, .T. ) ;
#524 = CARTESIAN_POINT ( 'NONE',  ( -4.784790355909026793, 0.9585668960636894997, 6.340383456527523443 ) ) ;
#525 = VERTEX_POINT ( 'NONE', #118 ) ;
#526 = EDGE_LOOP ( 'NONE', ( #92, #382 ) ) ;
#527 = EDGE_CURVE ( 'NONE', #237, #748, #706, .T. ) ;
#528 = DIRECTION ( 'NONE',  ( 0.4999999999999997780, 0.8660254037844388186, -0.000000000000000000 ) ) ;
#529 = ORIENTED_EDGE ( 'NONE', *, *, #140, .T. ) ;
#530 = DIRECTION ( 'NONE',  ( 1.000000000000000000, 0.000000000000000000, -0.000000000000000000 ) ) ;
#531 = CARTESIAN_POINT ( 'NONE',  ( 0.000000000000000000, 0.000000000000000000, 0.000000000000000000 ) ) ;
#532 = ORIENTED_EDGE ( 'NONE', *, *, #580, .F. ) ;
#533 = CARTESIAN_POINT ( 'NONE',  ( -0.3760490295162756680, -5.307887991580280129, 5.892112008419903901 ) ) ;
#534 = DIRECTION ( 'NONE',  ( 1.000000000000000000, 0.000000000000000000, 0.000000000000000000 ) ) ;
#535 = PRODUCT ( 'GB¨uT 6186-2000[2ÐÍÈ«½ðÊôÁù½ÇËø½ôÂÝÄ¸ 9¼¶M6]', 'GB¨uT 6186-2000[2ÐÍÈ«½ðÊôÁù½ÇËø½ôÂÝÄ¸ 9¼¶M6]', '', ( #43 ) ) ;
#536 = DIRECTION ( 'NONE',  ( 0.000000000000000000, 0.000000000000000000, 1.000000000000000000 ) ) ;
#537 = CARTESIAN_POINT ( 'NONE',  ( -0.7561269851882990167, 5.088449881559997223, 6.074358628812455585 ) ) ;
#538 = DIRECTION ( 'NONE',  ( 0.4999999999999996114, -0.8660254037844388186, 0.000000000000000000 ) ) ;
#539 = SURFACE_SIDE_STYLE ('',( #363 ) ) ;
#540 = CARTESIAN_POINT ( 'NONE',  ( 0.000000000000000000, 0.000000000000000000, 0.000000000000000000 ) ) ;
#541 = SURFACE_STYLE_USAGE ( .BOTH. , #539 ) ;
#542 = EDGE_CURVE ( 'NONE', #592, #141, #750, .T. ) ;
#543 = DIRECTION ( 'NONE',  ( -1.000000000000000000, 0.000000000000000000, 0.000000000000000000 ) ) ;
#544 = VECTOR ( 'NONE', #675, 1000.000000000000114 ) ;
#545 = CARTESIAN_POINT ( 'NONE',  ( 4.784790355909023241, -1.283115457608867402E-19, 6.415209644090977825 ) ) ;
#546 = CARTESIAN_POINT ( 'NONE',  ( 0.000000000000000000, 0.000000000000000000, 6.700000000000000178 ) ) ;
#547 = CARTESIAN_POINT ( 'NONE',  ( -4.784790355909025017, 1.451131024408197856, 0.000000000000000000 ) ) ;
#548 = CARTESIAN_POINT ( 'NONE',  ( 4.784790355909023241, 2.762500000000001954, 0.3031088913245521543 ) ) ;
#549 = DIRECTION ( 'NONE',  ( -1.000000000000000000, 0.000000000000000000, 0.000000000000000000 ) ) ;
#550 = ORIENTED_EDGE ( 'NONE', *, *, #391, .T. ) ;
#551 =( NAMED_UNIT ( * ) SI_UNIT ( $, .STERADIAN. ) SOLID_ANGLE_UNIT ( ) );
#552 = PRESENTATION_LAYER_ASSIGNMENT (  '', '', ( #463 ) ) ;
#553 = B_SPLINE_CURVE_WITH_KNOTS ( 'NONE', 3,
 ( #20, #250, #247, #302 ),
 .UNSPECIFIED., .F., .F.,
 ( 4, 4 ),
 ( 0.006022350690198761958, 0.007374101037611649131 ),
 .UNSPECIFIED. ) ;
#554 = EDGE_CURVE ( 'NONE', #690, #748, #164, .T. ) ;
#555 =( NAMED_UNIT ( * ) SI_UNIT ( $, .STERADIAN. ) SOLID_ANGLE_UNIT ( ) );
#556 = ORIENTED_EDGE ( 'NONE', *, *, #495, .T. ) ;
#557 = CARTESIAN_POINT ( 'NONE',  ( 3.754448299194687015E-17, 5.525000000000000355, 5.675000000000003375 ) ) ;
#558 = CARTESIAN_POINT ( 'NONE',  ( 3.649111509311747437, 3.418184487795903781, 0.000000000000000000 ) ) ;
#559 = EDGE_LOOP ( 'NONE', ( #502, #640, #464 ) ) ;
#560 = DIRECTION ( 'NONE',  ( -1.000000000000000000, 0.000000000000000000, 0.000000000000000000 ) ) ;
#561 = LINE ( 'NONE', #316, #544 ) ;
#562 = ORIENTED_EDGE ( 'NONE', *, *, #726, .T. ) ;
#563 =( NAMED_UNIT ( * ) SI_UNIT ( $, .STERADIAN. ) SOLID_ANGLE_UNIT ( ) );
#564 = EDGE_CURVE ( 'NONE', #288, #439, #465, .T. ) ;
#565 = CARTESIAN_POINT ( 'NONE',  ( 0.3760490295162741692, 5.307887991580281906, 5.892112008419904789 ) ) ;
#566 = CIRCLE ( 'NONE', #298, 5.000000000000000000 ) ;
#567 = CONICAL_SURFACE ( 'NONE', #74, 5.000000000000000000, 1.047197551196600074 ) ;
#568 = PLANE ( 'NONE',  #634 ) ;
#569 = EDGE_CURVE ( 'NONE', #574, #521, #189, .T. ) ;
#570 = ORIENTED_EDGE ( 'NONE', *, *, #131, .F. ) ;
#571 = LINE ( 'NONE', #98, #618 ) ;
#572 = ORIENTED_EDGE ( 'NONE', *, *, #140, .F. ) ;
#573 = CARTESIAN_POINT ( 'NONE',  ( -2.588214285714286245, 0.000000000000000000, 0.000000000000000000 ) ) ;
#574 = VERTEX_POINT ( 'NONE', #121 ) ;
#575 = B_SPLINE_CURVE_WITH_KNOTS ( 'NONE', 3,
 ( #429, #654, #16, #476, #120, #424, #721, #545 ),
 .UNSPECIFIED., .F., .F.,
 ( 4, 2, 2, 4 ),
 ( 0.003668020894623297019, 0.005099391042132672344, 0.005815076115887359356, 0.006530761189642047236 ),
 .UNSPECIFIED. ) ;
#576 = FACE_OUTER_BOUND ( 'NONE', #282, .T. ) ;
#577 = VECTOR ( 'NONE', #724, 1000.000000000000000 ) ;
#578 = ORIENTED_EDGE ( 'NONE', *, *, #33, .T. ) ;
#579 = VECTOR ( 'NONE', #365, 1000.000000000000000 ) ;
#580 = EDGE_CURVE ( 'NONE', #521, #574, #615, .T. ) ;
#581 = VECTOR ( 'NONE', #268, 1000.000000000000000 ) ;
#582 = ORIENTED_EDGE ( 'NONE', *, *, #147, .T. ) ;
#583 =( GEOMETRIC_REPRESENTATION_CONTEXT ( 3 ) GLOBAL_UNCERTAINTY_ASSIGNED_CONTEXT ( ( #674 ) ) GLOBAL_UNIT_ASSIGNED_CONTEXT ( ( #483, #397, #563 ) ) REPRESENTATION_CONTEXT ( 'NONE', 'WORKASPACE' ) );
#584 =( NAMED_UNIT ( * ) SI_UNIT ( $, .STERADIAN. ) SOLID_ANGLE_UNIT ( ) );
#585 = ADVANCED_FACE ( 'Nface3', ( #641, #576 ), #589, .T. ) ;
#586 = CARTESIAN_POINT ( 'NONE',  ( 4.784790355909024129, -2.762500000000002398, 6.700000000000000178 ) ) ;
#587 = ORIENTED_EDGE ( 'NONE', *, *, #351, .F. ) ;
#588 = ORIENTED_EDGE ( 'NONE', *, *, #451, .T. ) ;
#589 = PLANE ( 'NONE',  #105 ) ;
#590 = ORIENTED_EDGE ( 'NONE', *, *, #275, .F. ) ;
#591 =( LENGTH_UNIT ( ) NAMED_UNIT ( * ) SI_UNIT ( .MILLI., .METRE. ) );
#592 = VERTEX_POINT ( 'NONE', #2 ) ;
#593 = CONICAL_SURFACE ( 'NONE', #263, 4.500000000000000000, 0.7853981633974500554 ) ;
#594 = DIRECTION ( 'NONE',  ( 1.000000000000000000, 0.000000000000000000, 0.000000000000000000 ) ) ;
#595 = CONICAL_SURFACE ( 'NONE', #482, 5.000000000000000000, 1.047197551196600074 ) ;
#596 = CARTESIAN_POINT ( 'NONE',  ( -3.649111509311746993, 3.418184487795903781, 0.000000000000000000 ) ) ;
#597 = CARTESIAN_POINT ( 'NONE',  ( 4.031816185169124545, -3.197229840169518500, 0.07404728377636260461 ) ) ;
#598 = CARTESIAN_POINT ( 'NONE',  ( 0.000000000000000000, 0.000000000000000000, 0.000000000000000000 ) ) ;
#599 = DIRECTION ( 'NONE',  ( 1.000000000000000000, 0.000000000000000000, 0.000000000000000000 ) ) ;
#600 = CARTESIAN_POINT ( 'NONE',  ( -4.028663370720726888, -3.199050118440005530, 6.074358628812452920 ) ) ;
#601 = CARTESIAN_POINT ( 'NONE',  ( 4.500000000000000000, 0.000000000000000000, 6.700000000000000178 ) ) ;
#602 = DIRECTION ( 'NONE',  ( -0.8660254037844388186, -0.4999999999999996114, 0.000000000000000000 ) ) ;
#603 = DIRECTION ( 'NONE',  ( -1.000000000000000000, 0.000000000000000000, 0.000000000000000000 ) ) ;
#604 = AXIS2_PLACEMENT_3D ( 'NONE', #616, #332, #167 ) ;
#605 = CARTESIAN_POINT ( 'NONE',  ( -6.153322697145562700E-13, -5.525000000000354738, 0.3031088913241409277 ) ) ;
#606 = CARTESIAN_POINT ( 'NONE',  ( 3.211854962481323295, -3.670634672813374966, 6.343192011274850550 ) ) ;
#607 = CARTESIAN_POINT ( 'NONE',  ( -0.3738471138155823881, 5.309159268202811255, 5.890840731797193364 ) ) ;
#608 = CARTESIAN_POINT ( 'NONE',  ( 0.000000000000000000, 0.000000000000000000, 6.700000000000000178 ) ) ;
#609 = CARTESIAN_POINT ( 'NONE',  ( 0.000000000000000000, 0.000000000000000000, 6.700000000000000178 ) ) ;
#610 = EDGE_LOOP ( 'NONE', ( #176, #231, #588 ) ) ;
#611 = CARTESIAN_POINT ( 'NONE',  ( 0.000000000000000000, 0.000000000000000000, 0.000000000000000000 ) ) ;
#612 = EDGE_CURVE ( 'NONE', #699, #237, #619, .T. ) ;
#613 = CARTESIAN_POINT ( 'NONE',  ( 4.784790355909023241, 1.892013640721361467, 0.07387525121763335867 ) ) ;
#614 = VERTEX_POINT ( 'NONE', #645 ) ;
#615 = CIRCLE ( 'NONE', #149, 2.458750000000000213 ) ;
#616 = CARTESIAN_POINT ( 'NONE',  ( 0.000000000000000000, 0.000000000000000000, 0.000000000000000000 ) ) ;
#617 = CIRCLE ( 'NONE', #214, 2.588214285714286245 ) ;
#618 = VECTOR ( 'NONE', #623, 1000.000000000000000 ) ;
#619 = CIRCLE ( 'NONE', #635, 4.500000000000000000 ) ;
#620 = DIRECTION ( 'NONE',  ( -0.000000000000000000, -0.000000000000000000, -1.000000000000000000 ) ) ;
#621 = VERTEX_POINT ( 'NONE', #474 ) ;
#622 = CARTESIAN_POINT ( 'NONE',  ( 0.000000000000000000, 0.000000000000000000, 0.000000000000000000 ) ) ;
#623 = DIRECTION ( 'NONE',  ( -0.000000000000000000, -0.000000000000000000, -1.000000000000000000 ) ) ;
#624 = ADVANCED_FACE ( 'NONE', ( #711 ), #719, .T. ) ;
#625 = CARTESIAN_POINT ( 'NONE',  ( 4.784790355909024129, -1.894008426187641980, 0.07420950181403770940 ) ) ;
#626 = EDGE_CURVE ( 'NONE', #621, #215, #200, .T. ) ;
#627 = VERTEX_POINT ( 'NONE', #440 ) ;
#628 = B_SPLINE_CURVE_WITH_KNOTS ( 'NONE', 3,
 ( #688, #639, #339, #394, #629, #280, #513, #160 ),
 .UNSPECIFIED., .F., .F.,
 ( 4, 2, 2, 4 ),
 ( 0.006530761189642047236, 0.007963721768137926524, 0.008680202057385864867, 0.009396682346633804944 ),
 .UNSPECIFIED. ) ;
#629 = CARTESIAN_POINT ( 'NONE',  ( 4.784790355909023241, 1.883704625898420693, 6.061836921155081548 ) ) ;
#630 = DIRECTION ( 'NONE',  ( -1.000000000000000000, 0.000000000000000000, 0.000000000000000000 ) ) ;
#631 = ORIENTED_EDGE ( 'NONE', *, *, #501, .T. ) ;
#632 = CARTESIAN_POINT ( 'NONE',  ( -1.135678846597274472, 4.869315512204100749, 0.000000000000000000 ) ) ;
#633 = AXIS2_PLACEMENT_3D ( 'NONE', #744, #620, #392 ) ;
#634 = AXIS2_PLACEMENT_3D ( 'NONE', #747, #99, #113 ) ;
#635 = AXIS2_PLACEMENT_3D ( 'NONE', #700, #243, #410 ) ;
#636 = ORIENTED_EDGE ( 'NONE', *, *, #147, .F. ) ;
#637 = EDGE_CURVE ( 'NONE', #753, #1, #226, .T. ) ;
#638 = UNCERTAINTY_MEASURE_WITH_UNIT (LENGTH_MEASURE( 1.000000000000000082E-05 ), #754, 'distance_accuracy_value', 'NONE');
#639 = CARTESIAN_POINT ( 'NONE',  ( 4.784790355909023241, 0.4856246247858903575, 6.415209644090984042 ) ) ;
#640 = ORIENTED_EDGE ( 'NONE', *, *, #681, .F. ) ;
#641 = FACE_BOUND ( 'NONE', #705, .T. ) ;
#642 = EDGE_CURVE ( 'NONE', #182, #521, #195, .T. ) ;
#643 = ORIENTED_EDGE ( 'NONE', *, *, #427, .T. ) ;
#644 = EDGE_CURVE ( 'NONE', #173, #736, #718, .T. ) ;
#645 = CARTESIAN_POINT ( 'NONE',  ( 4.784790355909023241, -1.283115457608867402E-19, 6.415209644090977825 ) ) ;
#646 = ORIENTED_EDGE ( 'NONE', *, *, #569, .F. ) ;
#647 = ORIENTED_EDGE ( 'NONE', *, *, #527, .F. ) ;
#648 = CARTESIAN_POINT ( 'NONE',  ( -4.784790355909025905, 1.653455527914350132, 6.142447740346021590 ) ) ;
#649 = DIRECTION ( 'NONE',  ( 0.8660254037844388186, 0.4999999999999996114, 0.000000000000000000 ) ) ;
#650 = VERTEX_POINT ( 'NONE', #729 ) ;
#651 = ADVANCED_FACE ( 'NONE', ( #673 ), #595, .T. ) ;
#652 = LINE ( 'NONE', #759, #347 ) ;
#653 = ORIENTED_EDGE ( 'NONE', *, *, #415, .F. ) ;
#654 = CARTESIAN_POINT ( 'NONE',  ( 4.784790355909024129, -2.333967468300613302, 5.889266265849710358 ) ) ;
#655 = CARTESIAN_POINT ( 'NONE',  ( -4.784790355909025017, 2.762500000000002398, 5.675000000000001599 ) ) ;
#656 = FACE_OUTER_BOUND ( 'NONE', #220, .T. ) ;
#657 = VECTOR ( 'NONE', #374, 1000.000000000000114 ) ;
#658 = CARTESIAN_POINT ( 'NONE',  ( 4.784790355909024129, -2.762500000000002398, 0.3031088913245527650 ) ) ;
#659 = MECHANICAL_DESIGN_GEOMETRIC_PRESENTATION_REPRESENTATION (  '', ( #463 ), #683 ) ;
#660 = CARTESIAN_POINT ( 'NONE',  ( 0.000000000000000000, 5.525000000000000355, 0.000000000000000000 ) ) ;
#661 = LINE ( 'NONE', #12, #579 ) ;
#662 = LINE ( 'NONE', #261, #265 ) ;
#663 = DIRECTION ( 'NONE',  ( 0.000000000000000000, 0.000000000000000000, 1.000000000000000000 ) ) ;
#664 = EDGE_CURVE ( 'NONE', #350, #31, #10, .T. ) ;
#665 = CARTESIAN_POINT ( 'NONE',  ( -9.659489567768453292E-16, -5.525000000000000355, 5.675000000000003375 ) ) ;
#666 = CARTESIAN_POINT ( 'NONE',  ( -1.551489355623015154, 4.629247202886215717, 6.323327676715826406 ) ) ;
#667 = FACE_OUTER_BOUND ( 'NONE', #159, .T. ) ;
#668 = CARTESIAN_POINT ( 'NONE',  ( -2.821921156098803340, -3.895763060894457563, 6.395305118895449503 ) ) ;
#669 = DIRECTION ( 'NONE',  ( -1.000000000000000000, 0.000000000000000000, 0.000000000000000000 ) ) ;
#670 = CIRCLE ( 'NONE', #28, 5.000000000000000000 ) ;
#671 = DIRECTION ( 'NONE',  ( -0.000000000000000000, -0.000000000000000000, -1.000000000000000000 ) ) ;
#672 = EDGE_LOOP ( 'NONE', ( #572, #676, #498, #97, #408, #327 ) ) ;
#673 = FACE_OUTER_BOUND ( 'NONE', #559, .T. ) ;
#674 = UNCERTAINTY_MEASURE_WITH_UNIT (LENGTH_MEASURE( 1.000000000000000082E-05 ), #483, 'distance_accuracy_value', 'NONE');
#675 = DIRECTION ( 'NONE',  ( -0.7071067811865474617, 0.000000000000000000, -0.7071067811865474617 ) ) ;
#676 = ORIENTED_EDGE ( 'NONE', *, *, #435, .T. ) ;
#677 = CARTESIAN_POINT ( 'NONE',  ( -4.784790355909025017, -5.860961282251084261E-16, 6.415209644090976049 ) ) ;
#678 = FACE_OUTER_BOUND ( 'NONE', #417, .T. ) ;
#679 = ORIENTED_EDGE ( 'NONE', *, *, #326, .F. ) ;
#680 = CARTESIAN_POINT ( 'NONE',  ( -0.7527500829815167993, 5.090399536958108762, 0.07409064120281279309 ) ) ;
#681 = EDGE_CURVE ( 'NONE', #106, #273, #755, .T. ) ;
#682 = B_SPLINE_CURVE_WITH_KNOTS ( 'NONE', 3,
 ( #488, #254, #600, #71, #432, #668, #59, #190, #249, #304, #533, #665 ),
 .UNSPECIFIED., .F., .F.,
 ( 4, 2, 2, 2, 2, 4 ),
 ( 2.544322442628414405E-07, 0.001427029979755359322, 0.002140417753510907677, 0.002853805527266455814, 0.004280581074777550787, 0.005707356622288645327 ),
 .UNSPECIFIED. ) ;
#683 =( GEOMETRIC_REPRESENTATION_CONTEXT ( 3 ) GLOBAL_UNCERTAINTY_ASSIGNED_CONTEXT ( ( #638 ) ) GLOBAL_UNIT_ASSIGNED_CONTEXT ( ( #754, #346, #584 ) ) REPRESENTATION_CONTEXT ( 'NONE', 'WORKASPACE' ) );
#684 = LINE ( 'NONE', #78, #4 ) ;
#685 = ORIENTED_EDGE ( 'NONE', *, *, #626, .T. ) ;
#686 = CARTESIAN_POINT ( 'NONE',  ( -4.784790355909025905, -2.333967467660404083, 5.889266266169812525 ) ) ;
#687 = ORIENTED_EDGE ( 'NONE', *, *, #644, .F. ) ;
#688 = CARTESIAN_POINT ( 'NONE',  ( 4.784790355909023241, -1.283115457608867402E-19, 6.415209644090977825 ) ) ;
#689 = SURFACE_SIDE_STYLE ('',( #222 ) ) ;
#690 = VERTEX_POINT ( 'NONE', #433 ) ;
#691 = DIRECTION ( 'NONE',  ( 1.000000000000000000, 0.000000000000000000, 0.000000000000000000 ) ) ;
#692 = DIRECTION ( 'NONE',  ( 1.000000000000000000, 0.000000000000000000, 0.000000000000000000 ) ) ;
#693 = VECTOR ( 'NONE', #403, 1000.000000000000000 ) ;
#694 = AXIS2_PLACEMENT_3D ( 'NONE', #65, #696, #116 ) ;
#695 = ORIENTED_EDGE ( 'NONE', *, *, #351, .T. ) ;
#696 = DIRECTION ( 'NONE',  ( -0.000000000000000000, -0.000000000000000000, -1.000000000000000000 ) ) ;
#697 = B_SPLINE_CURVE_WITH_KNOTS ( 'NONE', 3,
 ( #333, #419, #245, #66 ),
 .UNSPECIFIED., .F., .F.,
 ( 4, 4 ),
 ( 0.006022350690198339553, 0.007374101037611652601 ),
 .UNSPECIFIED. ) ;
#698 = EDGE_CURVE ( 'NONE', #621, #439, #662, .T. ) ;
#699 = VERTEX_POINT ( 'NONE', #601 ) ;
#700 = CARTESIAN_POINT ( 'NONE',  ( 0.000000000000000000, 0.000000000000000000, 6.700000000000000178 ) ) ;
#701 = ORIENTED_EDGE ( 'NONE', *, *, #158, .F. ) ;
#702 = FILL_AREA_STYLE_COLOUR ( '', #360 ) ;
#703 = EDGE_CURVE ( 'NONE', #237, #699, #387, .T. ) ;
#704 = CIRCLE ( 'NONE', #137, 2.458750000000000213 ) ;
#705 = EDGE_LOOP ( 'NONE', ( #587, #462 ) ) ;
#706 = LINE ( 'NONE', #53, #384 ) ;
#707 = EDGE_CURVE ( 'NONE', #736, #1, #553, .T. ) ;
#708 = FACE_BOUND ( 'NONE', #526, .T. ) ;
#709 = ORIENTED_EDGE ( 'NONE', *, *, #681, .T. ) ;
#710 =( LENGTH_UNIT ( ) NAMED_UNIT ( * ) SI_UNIT ( .MILLI., .METRE. ) );
#711 = FACE_OUTER_BOUND ( 'NONE', #610, .T. ) ;
#712 = CARTESIAN_POINT ( 'NONE',  ( 0.000000000000000000, 0.000000000000000000, 6.700000000000000178 ) ) ;
#713 = DIRECTION ( 'NONE',  ( -0.000000000000000000, -0.000000000000000000, -1.000000000000000000 ) ) ;
#714 = CARTESIAN_POINT ( 'NONE',  ( -2.174737009423299394, 4.269415002192817887, 6.414686214047366164 ) ) ;
#715 = SURFACE_STYLE_USAGE ( .BOTH. , #689 ) ;
#716 = PLANE ( 'NONE',  #150 ) ;
#717 = AXIS2_PLACEMENT_3D ( 'NONE', #329, #398, #103 ) ;
#718 = LINE ( 'NONE', #493, #425 ) ;
#719 = CONICAL_SURFACE ( 'NONE', #348, 5.000000000000000000, 1.047197551196600074 ) ;
#720 = CARTESIAN_POINT ( 'NONE',  ( -6.153322697145562700E-13, -5.525000000000354738, 0.3031088913241409277 ) ) ;
#721 = CARTESIAN_POINT ( 'NONE',  ( 4.784790355909023241, -0.2425428170339443690, 6.415209644090984042 ) ) ;
#722 = CARTESIAN_POINT ( 'NONE',  ( -1.350057840473109838, 4.745543742381286734, 6.271016443903981497 ) ) ;
#723 = FILL_AREA_STYLE_COLOUR ( '', #15 ) ;
#724 = DIRECTION ( 'NONE',  ( -0.8660254037844388186, -0.4999999999999996114, 0.000000000000000000 ) ) ;
#725 = CARTESIAN_POINT ( 'NONE',  ( -4.784790355909025017, 2.330457219127779922, 0.1783888834055481487 ) ) ;
#726 = EDGE_CURVE ( 'NONE', #173, #690, #183, .T. ) ;
#727 = DIRECTION ( 'NONE',  ( -1.000000000000000000, 0.000000000000000000, 0.000000000000000000 ) ) ;
#728 = ORIENTED_EDGE ( 'NONE', *, *, #451, .F. ) ;
#729 = CARTESIAN_POINT ( 'NONE',  ( 2.588214285714286245, 3.169648340507453261E-16, 0.000000000000000000 ) ) ;
#730 = CONICAL_SURFACE ( 'NONE', #496, 2.588214285714286245, 0.7853981633974482790 ) ;
#731 = AXIS2_PLACEMENT_3D ( 'NONE', #540, #191, #603 ) ;
#732 = EDGE_CURVE ( 'NONE', #753, #273, #193, .T. ) ;
#733 = ORIENTED_EDGE ( 'NONE', *, *, #564, .F. ) ;
#734 = DIRECTION ( 'NONE',  ( 0.000000000000000000, 0.000000000000000000, -1.000000000000000000 ) ) ;
#735 = CARTESIAN_POINT ( 'NONE',  ( -4.784790355909025017, 1.451131024408197856, 0.000000000000000000 ) ) ;
#736 = VERTEX_POINT ( 'NONE', #436 ) ;
#737 = CARTESIAN_POINT ( 'NONE',  ( -4.784790355909025017, -0.2425428198459776419, 6.415209644090981378 ) ) ;
#738 = CARTESIAN_POINT ( 'NONE',  ( 4.784790355909023241, 2.762500000000001954, 0.3031088913245521543 ) ) ;
#739 = VERTEX_POINT ( 'NONE', #364 ) ;
#740 =( NAMED_UNIT ( * ) PLANE_ANGLE_UNIT ( ) SI_UNIT ( $, .RADIAN. ) );
#741 = FACE_OUTER_BOUND ( 'NONE', #512, .T. ) ;
#742 = VECTOR ( 'NONE', #713, 1000.000000000000000 ) ;
#743 = AXIS2_PLACEMENT_3D ( 'NONE', #196, #204, #18 ) ;
#744 = CARTESIAN_POINT ( 'NONE',  ( 0.000000000000000000, 0.000000000000000000, 6.700000000000000178 ) ) ;
#745 = ORIENTED_EDGE ( 'NONE', *, *, #240, .T. ) ;
#746 = CARTESIAN_POINT ( 'NONE',  ( 0.000000000000000000, 0.000000000000000000, 0.000000000000000000 ) ) ;
#747 = CARTESIAN_POINT ( 'NONE',  ( -4.784790355909025017, 8.287499999999999645, 0.000000000000000000 ) ) ;
#748 = VERTEX_POINT ( 'NONE', #314 ) ;
#749 = CARTESIAN_POINT ( 'NONE',  ( 0.7527500829815143568, -5.090399536958109650, 0.07409064120281309840 ) ) ;
#750 = B_SPLINE_CURVE_WITH_KNOTS ( 'NONE', 3,
 ( #112, #180, #228, #174 ),
 .UNSPECIFIED., .F., .F.,
 ( 4, 4 ),
 ( 0.01028983807714323878, 0.01164177538836289744 ),
 .UNSPECIFIED. ) ;
#751 = ORIENTED_EDGE ( 'NONE', *, *, #89, .F. ) ;
#752 = EDGE_CURVE ( 'NONE', #592, #405, #670, .T. ) ;
#753 = VERTEX_POINT ( 'NONE', #138 ) ;
#754 =( LENGTH_UNIT ( ) NAMED_UNIT ( * ) SI_UNIT ( .MILLI., .METRE. ) );
#755 = CIRCLE ( 'NONE', #25, 5.000000000000000000 ) ;
#756 = ORIENTED_EDGE ( 'NONE', *, *, #732, .F. ) ;
#757 = ORIENTED_EDGE ( 'NONE', *, *, #122, .F. ) ;
#758 = ORIENTED_EDGE ( 'NONE', *, *, #13, .F. ) ;
#759 = CARTESIAN_POINT ( 'NONE',  ( -4.784790355909025017, -2.762500000000001954, 0.000000000000000000 ) ) ;
#760 = EDGE_CURVE ( 'NONE', #521, #650, #69, .T. ) ;
#761 = CARTESIAN_POINT ( 'NONE',  ( 4.784790355909024129, -2.762500000000002398, 0.3031088913245527650 ) ) ;
#762 = ORIENTED_EDGE ( 'NONE', *, *, #501, .F. ) ;
ENDSEC;
END-ISO-10303-21;
