ISO-10303-21;
HEADER;
FILE_DESCRIPTION (( 'STEP AP214' ),
    '1' );
FILE_NAME ('GB╱T 95-2002[平垫圈 C级3].step',
    '2023-08-15T03:02:15',
    ( '' ),
    ( '' ),
    'SwSTEP 2.0',
    'SolidWorks 2022',
    '' );
FILE_SCHEMA (( 'AUTOMOTIVE_DESIGN' ));
ENDSEC;

DATA;
#1 = AXIS2_PLACEMENT_3D ( 'NONE', #29, #96, #64 ) ;
#2 =( NAMED_UNIT ( * ) PLANE_ANGLE_UNIT ( ) SI_UNIT ( $, .RADIAN. ) );
#3 = CARTESIAN_POINT ( 'NONE',  ( 4.286263797015740046E-16, 9.144507042253527729, 3.500000000000003109 ) ) ;
#4 = CARTESIAN_POINT ( 'NONE',  ( 0.000000000000000000, 9.144507042253527729, 0.000000000000000000 ) ) ;
#5 = VERTEX_POINT ( 'NONE', #3 ) ;
#6 = EDGE_CURVE ( 'NONE', #154, #185, #202, .T. ) ;
#7 = FACE_OUTER_BOUND ( 'NONE', #70, .T. ) ;
#8 = DIRECTION ( 'NONE',  ( 0.000000000000000000, 0.000000000000000000, -1.000000000000000000 ) ) ;
#9 = CIRCLE ( 'NONE', #204, 1.700000000000000178 ) ;
#10 = FACE_OUTER_BOUND ( 'NONE', #23, .T. ) ;
#11 = DIRECTION ( 'NONE',  ( -0.000000000000000000, -1.000000000000000000, -0.000000000000000000 ) ) ;
#12 = DIRECTION ( 'NONE',  ( 0.000000000000000000, 0.000000000000000000, -1.000000000000000000 ) ) ;
#13 = VECTOR ( 'NONE', #118, 1000.000000000000000 ) ;
#14 = FILL_AREA_STYLE_COLOUR ( '', #133 ) ;
#15 = EDGE_CURVE ( 'NONE', #135, #42, #75, .T. ) ;
#16 =( NAMED_UNIT ( * ) SI_UNIT ( $, .STERADIAN. ) SOLID_ANGLE_UNIT ( ) );
#17 = ORIENTED_EDGE ( 'NONE', *, *, #167, .T. ) ;
#18 = DIRECTION ( 'NONE',  ( -0.000000000000000000, -1.000000000000000000, -0.000000000000000000 ) ) ;
#19 = AXIS2_PLACEMENT_3D ( 'NONE', #4, #138, #203 ) ;
#20 = EDGE_CURVE ( 'Gline3', #101, #5, #139, .T. ) ;
#21 = DIRECTION ( 'NONE',  ( 0.000000000000000000, 0.000000000000000000, -1.000000000000000000 ) ) ;
#22 = ORIENTED_EDGE ( 'NONE', *, *, #36, .F. ) ;
#23 = EDGE_LOOP ( 'NONE', ( #201, #17, #35, #87 ) ) ;
#24 = COLOUR_RGB ( '',0.6470588235294117974, 0.6196078431372549211, 0.5882352941176470784 ) ;
#25 = EDGE_CURVE ( 'NONE', #101, #42, #61, .T. ) ;
#26 = DIRECTION ( 'NONE',  ( -0.000000000000000000, -1.000000000000000000, -0.000000000000000000 ) ) ;
#27 = FACE_OUTER_BOUND ( 'NONE', #86, .T. ) ;
#28 = PRODUCT_DEFINITION_SHAPE ( 'NONE', 'NONE',  #208 ) ;
#29 = CARTESIAN_POINT ( 'NONE',  ( -1.700000000000000178, 8.644507042253527729, 0.000000000000000000 ) ) ;
#30 = PRESENTATION_STYLE_ASSIGNMENT (( #180 ) ) ;
#31 = DIRECTION ( 'NONE',  ( -0.000000000000000000, -1.000000000000000000, -0.000000000000000000 ) ) ;
#32 = EDGE_CURVE ( 'NONE', #73, #154, #45, .T. ) ;
#33 = PRESENTATION_LAYER_ASSIGNMENT (  '', '', ( #54 ) ) ;
#34 = LINE ( 'NONE', #132, #129 ) ;
#35 = ORIENTED_EDGE ( 'NONE', *, *, #25, .T. ) ;
#36 = EDGE_CURVE ( 'Gline2', #155, #185, #165, .T. ) ;
#37 = EDGE_LOOP ( 'NONE', ( #174, #120 ) ) ;
#38 = FILL_AREA_STYLE ('',( #14 ) ) ;
#39 = PRESENTATION_LAYER_ASSIGNMENT (  '', '', ( #102 ) ) ;
#40 = CARTESIAN_POINT ( 'NONE',  ( 0.000000000000000000, 8.644507042253527729, 0.000000000000000000 ) ) ;
#41 = DIRECTION ( 'NONE',  ( -0.000000000000000000, -1.000000000000000000, -0.000000000000000000 ) ) ;
#42 = VERTEX_POINT ( 'NONE', #44 ) ;
#43 = AXIS2_PLACEMENT_3D ( 'NONE', #66, #26, #207 ) ;
#44 = CARTESIAN_POINT ( 'NONE',  ( 0.000000000000000000, 8.644507042253527729, -3.500000000000003109 ) ) ;
#45 = CIRCLE ( 'NONE', #82, 1.700000000000000178 ) ;
#46 = APPLICATION_CONTEXT ( 'automotive_design' ) ;
#47 = FILL_AREA_STYLE ('',( #192 ) ) ;
#48 = CARTESIAN_POINT ( 'NONE',  ( 4.286263797015740046E-16, 8.644507042253527729, 3.500000000000003109 ) ) ;
#49 = PRODUCT ( 'GB╱T 95-2002[平垫圈 C级3]', 'GB╱T 95-2002[平垫圈 C级3]', '', ( #71 ) ) ;
#50 = CYLINDRICAL_SURFACE ( 'NONE', #43, 3.500000000000003109 ) ;
#51 = AXIS2_PLACEMENT_3D ( 'NONE', #40, #103, #21 ) ;
#52 = CARTESIAN_POINT ( 'NONE',  ( 0.000000000000000000, 9.144507042253527729, -3.500000000000003109 ) ) ;
#53 = EDGE_CURVE ( 'NONE', #42, #135, #59, .T. ) ;
#54 = STYLED_ITEM ( 'NONE', ( #30 ), #163 ) ;
#55 = ADVANCED_FACE ( 'Gface2', ( #67 ), #210, .F. ) ;
#56 = ORIENTED_EDGE ( 'NONE', *, *, #32, .F. ) ;
#57 =( NAMED_UNIT ( * ) PLANE_ANGLE_UNIT ( ) SI_UNIT ( $, .RADIAN. ) );
#58 = CARTESIAN_POINT ( 'NONE',  ( 0.000000000000000000, 0.000000000000000000, -1.700000000000000178 ) ) ;
#59 = CIRCLE ( 'NONE', #171, 3.500000000000003109 ) ;
#60 =( GEOMETRIC_REPRESENTATION_CONTEXT ( 3 ) GLOBAL_UNCERTAINTY_ASSIGNED_CONTEXT ( ( #108 ) ) GLOBAL_UNIT_ASSIGNED_CONTEXT ( ( #152, #2, #197 ) ) REPRESENTATION_CONTEXT ( 'NONE', 'WORKASPACE' ) );
#61 = LINE ( 'NONE', #119, #162 ) ;
#62 = ADVANCED_FACE ( 'NONE', ( #126 ), #140, .T. ) ;
#63 = FACE_BOUND ( 'NONE', #170, .T. ) ;
#64 = DIRECTION ( 'NONE',  ( 0.000000000000000000, -0.000000000000000000, 1.000000000000000000 ) ) ;
#65 = DIRECTION ( 'NONE',  ( 0.000000000000000000, 0.000000000000000000, -1.000000000000000000 ) ) ;
#66 = CARTESIAN_POINT ( 'NONE',  ( 0.000000000000000000, 0.000000000000000000, 0.000000000000000000 ) ) ;
#67 = FACE_OUTER_BOUND ( 'NONE', #149, .T. ) ;
#68 = APPLICATION_PROTOCOL_DEFINITION ( 'draft international standard', 'automotive_design', 1998, #137 ) ;
#69 = SURFACE_STYLE_FILL_AREA ( #38 ) ;
#70 = EDGE_LOOP ( 'NONE', ( #56, #105, #72, #116 ) ) ;
#71 = PRODUCT_CONTEXT ( 'NONE', #46, 'mechanical' ) ;
#72 = ORIENTED_EDGE ( 'NONE', *, *, #36, .T. ) ;
#73 = VERTEX_POINT ( 'NONE', #93 ) ;
#74 = ADVANCED_FACE ( 'Gface3', ( #27, #63 ), #181, .F. ) ;
#75 = CIRCLE ( 'NONE', #51, 3.500000000000003109 ) ;
#76 = ORIENTED_EDGE ( 'NONE', *, *, #6, .T. ) ;
#77 = AXIS2_PLACEMENT_3D ( 'NONE', #159, #18, #214 ) ;
#78 = DIRECTION ( 'NONE',  ( 0.000000000000000000, 0.000000000000000000, -1.000000000000000000 ) ) ;
#79 = LINE ( 'NONE', #92, #123 ) ;
#80 = CARTESIAN_POINT ( 'NONE',  ( 0.000000000000000000, 0.000000000000000000, 0.000000000000000000 ) ) ;
#81 = CARTESIAN_POINT ( 'NONE',  ( 0.000000000000000000, 8.644507042253527729, 0.000000000000000000 ) ) ;
#82 = AXIS2_PLACEMENT_3D ( 'NONE', #190, #11, #12 ) ;
#83 = APPLICATION_PROTOCOL_DEFINITION ( 'draft international standard', 'automotive_design', 1998, #46 ) ;
#84 = ADVANCED_FACE ( 'Gface2', ( #7 ), #121, .F. ) ;
#85 =( LENGTH_UNIT ( ) NAMED_UNIT ( * ) SI_UNIT ( .MILLI., .METRE. ) );
#86 = EDGE_LOOP ( 'NONE', ( #153, #89 ) ) ;
#87 = ORIENTED_EDGE ( 'NONE', *, *, #15, .F. ) ;
#88 = EDGE_CURVE ( 'Gline2', #185, #155, #9, .T. ) ;
#89 = ORIENTED_EDGE ( 'NONE', *, *, #167, .F. ) ;
#90 =( GEOMETRIC_REPRESENTATION_CONTEXT ( 3 ) GLOBAL_UNCERTAINTY_ASSIGNED_CONTEXT ( ( #127 ) ) GLOBAL_UNIT_ASSIGNED_CONTEXT ( ( #182, #57, #16 ) ) REPRESENTATION_CONTEXT ( 'NONE', 'WORKASPACE' ) );
#91 = ORIENTED_EDGE ( 'NONE', *, *, #88, .T. ) ;
#92 = CARTESIAN_POINT ( 'NONE',  ( 4.286263797015740046E-16, 0.000000000000000000, 3.500000000000003109 ) ) ;
#93 = CARTESIAN_POINT ( 'NONE',  ( 2.081899558550500526E-16, 9.144507042253529505, 1.700000000000000178 ) ) ;
#94 = DIRECTION ( 'NONE',  ( -0.000000000000000000, -1.000000000000000000, -0.000000000000000000 ) ) ;
#95 = AXIS2_PLACEMENT_3D ( 'NONE', #128, #195, #8 ) ;
#96 = DIRECTION ( 'NONE',  ( 0.000000000000000000, 1.000000000000000000, 0.000000000000000000 ) ) ;
#97 = DIRECTION ( 'NONE',  ( -0.000000000000000000, -1.000000000000000000, -0.000000000000000000 ) ) ;
#98 = CARTESIAN_POINT ( 'NONE',  ( 0.000000000000000000, 0.000000000000000000, 0.000000000000000000 ) ) ;
#99 = CIRCLE ( 'NONE', #95, 1.700000000000000178 ) ;
#100 = PRODUCT_DEFINITION_CONTEXT ( 'detailed design', #137, 'design' ) ;
#101 = VERTEX_POINT ( 'NONE', #52 ) ;
#102 = STYLED_ITEM ( 'NONE', ( #148 ), #178 ) ;
#103 = DIRECTION ( 'NONE',  ( -0.000000000000000000, -1.000000000000000000, -0.000000000000000000 ) ) ;
#104 = ORIENTED_EDGE ( 'NONE', *, *, #125, .T. ) ;
#105 = ORIENTED_EDGE ( 'NONE', *, *, #188, .T. ) ;
#106 = AXIS2_PLACEMENT_3D ( 'NONE', #179, #107, #143 ) ;
#107 = DIRECTION ( 'NONE',  ( 0.000000000000000000, -1.000000000000000000, -0.000000000000000000 ) ) ;
#108 = UNCERTAINTY_MEASURE_WITH_UNIT (LENGTH_MEASURE( 1.000000000000000082E-05 ), #152, 'distance_accuracy_value', 'NONE');
#109 = SURFACE_STYLE_FILL_AREA ( #47 ) ;
#110 = PLANE ( 'NONE',  #1 ) ;
#111 = CARTESIAN_POINT ( 'NONE',  ( 2.081899558550500526E-16, 8.644507042253527729, 1.700000000000000178 ) ) ;
#112 = ADVANCED_FACE ( 'NONE', ( #10 ), #50, .T. ) ;
#113 = CLOSED_SHELL ( 'NONE', ( #62, #84, #55, #74, #112, #150 ) ) ;
#114 = FACE_BOUND ( 'NONE', #189, .T. ) ;
#115 =( NAMED_UNIT ( * ) PLANE_ANGLE_UNIT ( ) SI_UNIT ( $, .RADIAN. ) );
#116 = ORIENTED_EDGE ( 'NONE', *, *, #6, .F. ) ;
#117 = PRODUCT_RELATED_PRODUCT_CATEGORY ( 'part', '', ( #49 ) ) ;
#118 = DIRECTION ( 'NONE',  ( -0.000000000000000000, -1.000000000000000000, -0.000000000000000000 ) ) ;
#119 = CARTESIAN_POINT ( 'NONE',  ( 0.000000000000000000, 0.000000000000000000, -3.500000000000003109 ) ) ;
#120 = ORIENTED_EDGE ( 'NONE', *, *, #15, .T. ) ;
#121 = CYLINDRICAL_SURFACE ( 'NONE', #206, 1.700000000000000178 ) ;
#122 = CARTESIAN_POINT ( 'NONE',  ( 0.000000000000000000, 0.000000000000000000, 0.000000000000000000 ) ) ;
#123 = VECTOR ( 'NONE', #193, 1000.000000000000000 ) ;
#124 = CARTESIAN_POINT ( 'NONE',  ( 0.000000000000000000, 8.644507042253527729, 0.000000000000000000 ) ) ;
#125 = EDGE_CURVE ( 'NONE', #154, #73, #99, .T. ) ;
#126 = FACE_OUTER_BOUND ( 'NONE', #186, .T. ) ;
#127 = UNCERTAINTY_MEASURE_WITH_UNIT (LENGTH_MEASURE( 1.000000000000000082E-05 ), #182, 'distance_accuracy_value', 'NONE');
#128 = CARTESIAN_POINT ( 'NONE',  ( 0.000000000000000000, 9.144507042253529505, 0.000000000000000000 ) ) ;
#129 = VECTOR ( 'NONE', #146, 1000.000000000000000 ) ;
#130 = SHAPE_DEFINITION_REPRESENTATION ( #28, #178 ) ;
#131 = EDGE_CURVE ( 'NONE', #5, #135, #79, .T. ) ;
#132 = CARTESIAN_POINT ( 'NONE',  ( 2.081899558550500526E-16, 0.000000000000000000, 1.700000000000000178 ) ) ;
#133 = COLOUR_RGB ( '',0.7921568627450980005, 0.8196078431372548767, 0.9333333333333333481 ) ;
#134 = DIRECTION ( 'NONE',  ( 1.000000000000000000, 0.000000000000000000, 0.000000000000000000 ) ) ;
#135 = VERTEX_POINT ( 'NONE', #48 ) ;
#136 = ORIENTED_EDGE ( 'NONE', *, *, #20, .T. ) ;
#137 = APPLICATION_CONTEXT ( 'automotive_design' ) ;
#138 = DIRECTION ( 'NONE',  ( -0.000000000000000000, -1.000000000000000000, -0.000000000000000000 ) ) ;
#139 = CIRCLE ( 'NONE', #19, 3.500000000000003109 ) ;
#140 = CYLINDRICAL_SURFACE ( 'NONE', #209, 3.500000000000003109 ) ;
#141 = UNCERTAINTY_MEASURE_WITH_UNIT (LENGTH_MEASURE( 1.000000000000000082E-05 ), #85, 'distance_accuracy_value', 'NONE');
#142 = DIRECTION ( 'NONE',  ( -0.000000000000000000, -1.000000000000000000, -0.000000000000000000 ) ) ;
#143 = DIRECTION ( 'NONE',  ( 0.000000000000000000, 0.000000000000000000, -1.000000000000000000 ) ) ;
#144 = CARTESIAN_POINT ( 'NONE',  ( 0.000000000000000000, 9.144507042253529505, -1.700000000000000178 ) ) ;
#145 = DIRECTION ( 'NONE',  ( 0.000000000000000000, 0.000000000000000000, -1.000000000000000000 ) ) ;
#146 = DIRECTION ( 'NONE',  ( -0.000000000000000000, -1.000000000000000000, -0.000000000000000000 ) ) ;
#147 = SURFACE_SIDE_STYLE ('',( #69 ) ) ;
#148 = PRESENTATION_STYLE_ASSIGNMENT (( #169 ) ) ;
#149 = EDGE_LOOP ( 'NONE', ( #173, #199, #76, #91 ) ) ;
#150 = ADVANCED_FACE ( 'Gface1', ( #114, #161 ), #110, .F. ) ;
#151 = CIRCLE ( 'NONE', #77, 3.500000000000003109 ) ;
#152 =( LENGTH_UNIT ( ) NAMED_UNIT ( * ) SI_UNIT ( .MILLI., .METRE. ) );
#153 = ORIENTED_EDGE ( 'NONE', *, *, #20, .F. ) ;
#154 = VERTEX_POINT ( 'NONE', #144 ) ;
#155 = VERTEX_POINT ( 'NONE', #111 ) ;
#156 = MECHANICAL_DESIGN_GEOMETRIC_PRESENTATION_REPRESENTATION (  '', ( #54 ), #90 ) ;
#157 = ORIENTED_EDGE ( 'NONE', *, *, #53, .F. ) ;
#158 = MECHANICAL_DESIGN_GEOMETRIC_PRESENTATION_REPRESENTATION (  '', ( #102 ), #60 ) ;
#159 = CARTESIAN_POINT ( 'NONE',  ( 0.000000000000000000, 9.144507042253527729, 0.000000000000000000 ) ) ;
#160 = CARTESIAN_POINT ( 'NONE',  ( 0.000000000000000000, 0.000000000000000000, 0.000000000000000000 ) ) ;
#161 = FACE_OUTER_BOUND ( 'NONE', #37, .T. ) ;
#162 = VECTOR ( 'NONE', #41, 1000.000000000000000 ) ;
#163 = MANIFOLD_SOLID_BREP ( '基体-旋转', #113 ) ;
#164 = DIRECTION ( 'NONE',  ( 0.000000000000000000, 0.000000000000000000, -1.000000000000000000 ) ) ;
#165 = CIRCLE ( 'NONE', #198, 1.700000000000000178 ) ;
#166 = CARTESIAN_POINT ( 'NONE',  ( 0.000000000000000000, 8.644507042253527729, -1.700000000000000178 ) ) ;
#167 = EDGE_CURVE ( 'Gline3', #5, #101, #151, .T. ) ;
#168 = ORIENTED_EDGE ( 'NONE', *, *, #88, .F. ) ;
#169 = SURFACE_STYLE_USAGE ( .BOTH. , #147 ) ;
#170 = EDGE_LOOP ( 'NONE', ( #104, #183 ) ) ;
#171 = AXIS2_PLACEMENT_3D ( 'NONE', #124, #31, #145 ) ;
#172 = ORIENTED_EDGE ( 'NONE', *, *, #25, .F. ) ;
#173 = ORIENTED_EDGE ( 'NONE', *, *, #188, .F. ) ;
#174 = ORIENTED_EDGE ( 'NONE', *, *, #53, .T. ) ;
#175 = CARTESIAN_POINT ( 'NONE',  ( 0.000000000000000000, 8.644507042253527729, 0.000000000000000000 ) ) ;
#176 = PRODUCT_DEFINITION_FORMATION_WITH_SPECIFIED_SOURCE ( '任何', '', #49, .NOT_KNOWN. ) ;
#177 = SURFACE_SIDE_STYLE ('',( #109 ) ) ;
#178 = ADVANCED_BREP_SHAPE_REPRESENTATION ( 'GB╱T 95-2002[平垫圈 C级3]', ( #163, #213 ), #196 ) ;
#179 = CARTESIAN_POINT ( 'NONE',  ( -1.700000000000000178, 9.144507042253529505, 0.000000000000000000 ) ) ;
#180 = SURFACE_STYLE_USAGE ( .BOTH. , #177 ) ;
#181 = PLANE ( 'NONE',  #106 ) ;
#182 =( LENGTH_UNIT ( ) NAMED_UNIT ( * ) SI_UNIT ( .MILLI., .METRE. ) );
#183 = ORIENTED_EDGE ( 'NONE', *, *, #32, .T. ) ;
#184 = DIRECTION ( 'NONE',  ( 0.000000000000000000, 0.000000000000000000, 1.000000000000000000 ) ) ;
#185 = VERTEX_POINT ( 'NONE', #166 ) ;
#186 = EDGE_LOOP ( 'NONE', ( #136, #187, #157, #172 ) ) ;
#187 = ORIENTED_EDGE ( 'NONE', *, *, #131, .T. ) ;
#188 = EDGE_CURVE ( 'NONE', #73, #155, #34, .T. ) ;
#189 = EDGE_LOOP ( 'NONE', ( #168, #22 ) ) ;
#190 = CARTESIAN_POINT ( 'NONE',  ( 0.000000000000000000, 9.144507042253529505, 0.000000000000000000 ) ) ;
#191 = AXIS2_PLACEMENT_3D ( 'NONE', #122, #205, #65 ) ;
#192 = FILL_AREA_STYLE_COLOUR ( '', #24 ) ;
#193 = DIRECTION ( 'NONE',  ( -0.000000000000000000, -1.000000000000000000, -0.000000000000000000 ) ) ;
#194 = DIRECTION ( 'NONE',  ( 0.000000000000000000, 0.000000000000000000, -1.000000000000000000 ) ) ;
#195 = DIRECTION ( 'NONE',  ( -0.000000000000000000, -1.000000000000000000, -0.000000000000000000 ) ) ;
#196 =( GEOMETRIC_REPRESENTATION_CONTEXT ( 3 ) GLOBAL_UNCERTAINTY_ASSIGNED_CONTEXT ( ( #141 ) ) GLOBAL_UNIT_ASSIGNED_CONTEXT ( ( #85, #115, #200 ) ) REPRESENTATION_CONTEXT ( 'NONE', 'WORKASPACE' ) );
#197 =( NAMED_UNIT ( * ) SI_UNIT ( $, .STERADIAN. ) SOLID_ANGLE_UNIT ( ) );
#198 = AXIS2_PLACEMENT_3D ( 'NONE', #81, #97, #78 ) ;
#199 = ORIENTED_EDGE ( 'NONE', *, *, #125, .F. ) ;
#200 =( NAMED_UNIT ( * ) SI_UNIT ( $, .STERADIAN. ) SOLID_ANGLE_UNIT ( ) );
#201 = ORIENTED_EDGE ( 'NONE', *, *, #131, .F. ) ;
#202 = LINE ( 'NONE', #58, #13 ) ;
#203 = DIRECTION ( 'NONE',  ( 0.000000000000000000, 0.000000000000000000, -1.000000000000000000 ) ) ;
#204 = AXIS2_PLACEMENT_3D ( 'NONE', #175, #142, #211 ) ;
#205 = DIRECTION ( 'NONE',  ( -0.000000000000000000, -1.000000000000000000, -0.000000000000000000 ) ) ;
#206 = AXIS2_PLACEMENT_3D ( 'NONE', #160, #94, #194 ) ;
#207 = DIRECTION ( 'NONE',  ( 0.000000000000000000, 0.000000000000000000, -1.000000000000000000 ) ) ;
#208 = PRODUCT_DEFINITION ( '未知', '', #176, #100 ) ;
#209 = AXIS2_PLACEMENT_3D ( 'NONE', #80, #212, #164 ) ;
#210 = CYLINDRICAL_SURFACE ( 'NONE', #191, 1.700000000000000178 ) ;
#211 = DIRECTION ( 'NONE',  ( 0.000000000000000000, 0.000000000000000000, -1.000000000000000000 ) ) ;
#212 = DIRECTION ( 'NONE',  ( -0.000000000000000000, -1.000000000000000000, -0.000000000000000000 ) ) ;
#213 = AXIS2_PLACEMENT_3D ( 'NONE', #98, #184, #134 ) ;
#214 = DIRECTION ( 'NONE',  ( 0.000000000000000000, 0.000000000000000000, -1.000000000000000000 ) ) ;
ENDSEC;
END-ISO-10303-21;
