ISO-10303-21;
HEADER;
FILE_DESCRIPTION (( 'STEP AP214' ),
    '1' );
FILE_NAME ('GB╱T 70.2-2015[内六角平圆头螺钉M4×30].step',
    '2023-08-15T03:01:50',
    ( '' ),
    ( '' ),
    'SwSTEP 2.0',
    'SolidWorks 2022',
    '' );
FILE_SCHEMA (( 'AUTOMOTIVE_DESIGN' ));
ENDSEC;

DATA;
#1 = CARTESIAN_POINT ( 'NONE',  ( -32.20000000000000284, 0.7216878364870323859, 1.249999999999999778 ) ) ;
#2 = CARTESIAN_POINT ( 'NONE',  ( -30.00000000000000000, 3.800000000000000266, 0.000000000000000000 ) ) ;
#3 = ADVANCED_FACE ( 'NONE', ( #16 ), #562, .F. ) ;
#4 = EDGE_CURVE ( 'NONE', #452, #335, #528, .T. ) ;
#5 = SURFACE_SIDE_STYLE ('',( #630 ) ) ;
#6 = DIRECTION ( 'NONE',  ( 1.000000000000000000, 0.000000000000000000, 0.000000000000000000 ) ) ;
#7 =( NAMED_UNIT ( * ) PLANE_ANGLE_UNIT ( ) SI_UNIT ( $, .RADIAN. ) );
#8 = CARTESIAN_POINT ( 'NONE',  ( -30.90000000000000213, 0.7216878364870328300, -1.249999999999999112 ) ) ;
#9 = PLANE ( 'NONE',  #663 ) ;
#10 = AXIS2_PLACEMENT_3D ( 'NONE', #75, #322, #34 ) ;
#11 = CIRCLE ( 'NONE', #433, 1.999999999999998668 ) ;
#12 = ADVANCED_FACE ( 'NONE', ( #251 ), #197, .F. ) ;
#13 = B_SPLINE_CURVE_WITH_KNOTS ( 'NONE', 3,
 ( #638, #310, #67, #360, #644, #536 ),
 .UNSPECIFIED., .F., .F.,
 ( 4, 2, 4 ),
 ( 2.391904125710969021E-07, 0.0007300545202770521809, 0.001459869850141533049 ),
 .UNSPECIFIED. ) ;
#14 = CARTESIAN_POINT ( 'NONE',  ( -30.90000000000000213, 0.000000000000000000, 0.000000000000000000 ) ) ;
#15 = DIRECTION ( 'NONE',  ( -0.000000000000000000, 0.000000000000000000, -1.000000000000000000 ) ) ;
#16 = FACE_OUTER_BOUND ( 'NONE', #596, .T. ) ;
#17 = CARTESIAN_POINT ( 'NONE',  ( -32.20000000000000284, 2.219290746934188868E-17, -3.599228117386017840E-16 ) ) ;
#18 = PLANE ( 'NONE',  #341 ) ;
#19 = PRESENTATION_STYLE_ASSIGNMENT (( #645 ) ) ;
#20 =( LENGTH_UNIT ( ) NAMED_UNIT ( * ) SI_UNIT ( .MILLI., .METRE. ) );
#21 = AXIS2_PLACEMENT_3D ( 'NONE', #655, #314, #25 ) ;
#22 = AXIS2_PLACEMENT_3D ( 'NONE', #694, #188, #425 ) ;
#23 = ORIENTED_EDGE ( 'NONE', *, *, #352, .F. ) ;
#24 = FACE_OUTER_BOUND ( 'NONE', #487, .T. ) ;
#25 = DIRECTION ( 'NONE',  ( 0.000000000000000000, 0.000000000000000000, 1.000000000000000000 ) ) ;
#26 = EDGE_CURVE ( 'NONE', #591, #153, #222, .T. ) ;
#27 = CIRCLE ( 'NONE', #633, 1.443375672974064106 ) ;
#28 = AXIS2_PLACEMENT_3D ( 'NONE', #497, #384, #607 ) ;
#29 = ORIENTED_EDGE ( 'NONE', *, *, #531, .T. ) ;
#30 = DIRECTION ( 'NONE',  ( -1.000000000000000000, -0.000000000000000000, -0.000000000000000000 ) ) ;
#31 = CARTESIAN_POINT ( 'NONE',  ( -30.82664516406750366, 1.325732799999563838, 0.2037634331402067567 ) ) ;
#32 = ORIENTED_EDGE ( 'NONE', *, *, #26, .F. ) ;
#33 = DIRECTION ( 'NONE',  ( 5.691969551695385253E-17, -1.000000000000000000, 0.000000000000000000 ) ) ;
#34 = DIRECTION ( 'NONE',  ( -0.000000000000000000, 0.000000000000000000, 1.000000000000000000 ) ) ;
#35 = ADVANCED_FACE ( 'NONE', ( #303 ), #18, .F. ) ;
#36 = ORIENTED_EDGE ( 'NONE', *, *, #437, .F. ) ;
#37 = DIRECTION ( 'NONE',  ( -1.000000000000000000, -5.998083099822095465E-17, -0.000000000000000000 ) ) ;
#38 = AXIS2_PLACEMENT_3D ( 'NONE', #453, #505, #47 ) ;
#39 = B_SPLINE_CURVE_WITH_KNOTS ( 'NONE', 3,
 ( #240, #470, #464, #298 ),
 .UNSPECIFIED., .F., .F.,
 ( 4, 4 ),
 ( 0.004568767951579540479, 0.005301777679998205886 ),
 .UNSPECIFIED. ) ;
#40 = ORIENTED_EDGE ( 'NONE', *, *, #612, .T. ) ;
#41 = CARTESIAN_POINT ( 'NONE',  ( -32.20000000000000284, 2.219290746934188868E-17, -3.599228117386017840E-16 ) ) ;
#42 = VERTEX_POINT ( 'NONE', #246 ) ;
#43 = VERTEX_POINT ( 'NONE', #248 ) ;
#44 = DIRECTION ( 'NONE',  ( 5.691969551695385253E-17, -1.000000000000000000, 0.000000000000000000 ) ) ;
#45 = EDGE_CURVE ( 'NONE', #140, #163, #11, .T. ) ;
#46 = ORIENTED_EDGE ( 'NONE', *, *, #673, .F. ) ;
#47 = DIRECTION ( 'NONE',  ( 0.000000000000000000, -1.224646799147352468E-16, 1.000000000000000000 ) ) ;
#48 = ORIENTED_EDGE ( 'NONE', *, *, #116, .T. ) ;
#49 = DIRECTION ( 'NONE',  ( -1.000000000000000000, -0.000000000000000000, -0.000000000000000000 ) ) ;
#50 = CIRCLE ( 'NONE', #472, 0.2000000000000013989 ) ;
#51 = CARTESIAN_POINT ( 'NONE',  ( -32.15048909679994438, 0.2418642655271366626, -1.250000000000000000 ) ) ;
#52 = PRESENTATION_STYLE_ASSIGNMENT (( #224 ) ) ;
#53 = CARTESIAN_POINT ( 'NONE',  ( -30.86374379380171362, 0.6053960008849370578, 1.249999999999999778 ) ) ;
#54 = DIRECTION ( 'NONE',  ( 0.000000000000000000, 0.000000000000000000, 1.000000000000000000 ) ) ;
#55 = EDGE_CURVE ( 'NONE', #225, #230, #13, .T. ) ;
#56 = CARTESIAN_POINT ( 'NONE',  ( -32.20000000000000284, 0.7216878364870321638, -1.250000000000000222 ) ) ;
#57 = DIRECTION ( 'NONE',  ( 0.000000000000000000, 1.776356839400250465E-15, -1.000000000000000000 ) ) ;
#58 = EDGE_CURVE ( 'NONE', #442, #651, #185, .T. ) ;
#59 = AXIS2_PLACEMENT_3D ( 'NONE', #372, #138, #262 ) ;
#60 = CONICAL_SURFACE ( 'NONE', #238, 3901.015332362311256, 1.319856261027560818 ) ;
#61 = CARTESIAN_POINT ( 'NONE',  ( -32.20000000000000284, 0.7216878364870321638, -1.250000000000000222 ) ) ;
#62 = DIRECTION ( 'NONE',  ( 5.691969551695385253E-17, -1.000000000000000000, 0.000000000000000000 ) ) ;
#63 = DIRECTION ( 'NONE',  ( 0.000000000000000000, -1.000000000000000000, 0.000000000000000000 ) ) ;
#64 = DIRECTION ( 'NONE',  ( 0.000000000000000000, 0.000000000000000000, 1.000000000000000000 ) ) ;
#65 = ADVANCED_FACE ( 'NONE', ( #24 ), #183, .T. ) ;
#66 = DIRECTION ( 'NONE',  ( 0.000000000000000000, 0.000000000000000000, 1.000000000000000000 ) ) ;
#67 = CARTESIAN_POINT ( 'NONE',  ( -30.77964865737705225, -1.206490558868566820, 0.4102970531874744475 ) ) ;
#68 = DIRECTION ( 'NONE',  ( -1.000000000000000000, -0.000000000000000000, -0.000000000000000000 ) ) ;
#69 = PRODUCT_RELATED_PRODUCT_CATEGORY ( 'part', '', ( #482 ) ) ;
#70 = DIRECTION ( 'NONE',  ( 0.000000000000000000, 0.000000000000000000, 1.000000000000000000 ) ) ;
#71 = FILL_AREA_STYLE_COLOUR ( '', #459 ) ;
#72 = DIRECTION ( 'NONE',  ( -1.000000000000000000, -0.000000000000000000, -0.000000000000000000 ) ) ;
#73 = CARTESIAN_POINT ( 'NONE',  ( -30.77964865737705935, 1.206490558868565710, -0.4102970531874746696 ) ) ;
#74 = DIRECTION ( 'NONE',  ( -1.000000000000000000, -0.000000000000000000, -0.000000000000000000 ) ) ;
#75 = CARTESIAN_POINT ( 'NONE',  ( -3.061616997868386099E-17, 2.000000000000000000, 0.000000000000000000 ) ) ;
#76 = ORIENTED_EDGE ( 'NONE', *, *, #170, .F. ) ;
#77 = EDGE_CURVE ( 'NONE', #725, #672, #619, .T. ) ;
#78 = DIRECTION ( 'NONE',  ( -1.000000000000000000, -0.000000000000000000, -0.000000000000000000 ) ) ;
#79 = SURFACE_SIDE_STYLE ('',( #422 ) ) ;
#80 = EDGE_CURVE ( 'NONE', #672, #373, #288, .T. ) ;
#81 = CARTESIAN_POINT ( 'NONE',  ( -30.90000000000000213, 0.7216878364870328300, -1.249999999999999112 ) ) ;
#82 = EDGE_LOOP ( 'NONE', ( #708, #648, #476, #166 ) ) ;
#83 = DIRECTION ( 'NONE',  ( -0.5291067161269946695, 1.039180521791366210E-16, -0.8485552916276627444 ) ) ;
#84 = CARTESIAN_POINT ( 'NONE',  ( -30.90000000000000213, 0.7216878364870323859, 1.249999999999999778 ) ) ;
#85 = AXIS2_PLACEMENT_3D ( 'NONE', #95, #332, #149 ) ;
#86 = VERTEX_POINT ( 'NONE', #109 ) ;
#87 = CARTESIAN_POINT ( 'NONE',  ( -30.90000000000000213, -0.7216878364870332740, 1.249999999999999778 ) ) ;
#88 = FACE_OUTER_BOUND ( 'NONE', #274, .T. ) ;
#89 = EDGE_CURVE ( 'NONE', #614, #42, #578, .T. ) ;
#90 = ORIENTED_EDGE ( 'NONE', *, *, #521, .F. ) ;
#91 = CARTESIAN_POINT ( 'NONE',  ( -30.90000000000000213, -1.443375672974065216, -5.870030462665943960E-16 ) ) ;
#92 = CIRCLE ( 'NONE', #179, 1.443375672974064106 ) ;
#93 = PRODUCT_DEFINITION_CONTEXT ( 'detailed design', #330, 'design' ) ;
#94 = ORIENTED_EDGE ( 'NONE', *, *, #374, .F. ) ;
#95 = CARTESIAN_POINT ( 'NONE',  ( -30.90000000000000213, 0.000000000000000000, 0.000000000000000000 ) ) ;
#96 = VECTOR ( 'NONE', #500, 1000.000000000000000 ) ;
#97 = VERTEX_POINT ( 'NONE', #117 ) ;
#98 = DIRECTION ( 'NONE',  ( 0.000000000000000000, 0.000000000000000000, 1.000000000000000000 ) ) ;
#99 = B_SPLINE_CURVE_WITH_KNOTS ( 'NONE', 3,
 ( #61, #160, #336, #674, #349 ),
 .UNSPECIFIED., .F., .F.,
 ( 4, 1, 4 ),
 ( 2.309401076754733784E-07, 0.0007219187765947081325, 0.001443606613081740596 ),
 .UNSPECIFIED. ) ;
#100 = ORIENTED_EDGE ( 'NONE', *, *, #641, .T. ) ;
#101 = DIRECTION ( 'NONE',  ( 0.000000000000000000, 1.000000000000000000, 0.000000000000000000 ) ) ;
#102 = ORIENTED_EDGE ( 'NONE', *, *, #713, .F. ) ;
#103 = ORIENTED_EDGE ( 'NONE', *, *, #194, .T. ) ;
#104 = VECTOR ( 'NONE', #74, 1000.000000000000000 ) ;
#105 = DIRECTION ( 'NONE',  ( -1.000000000000000000, -5.998083099822095465E-17, -0.000000000000000000 ) ) ;
#106 = CARTESIAN_POINT ( 'NONE',  ( -30.00000000000000355, 0.000000000000000000, 0.000000000000000000 ) ) ;
#107 = VERTEX_POINT ( 'NONE', #357 ) ;
#108 = CARTESIAN_POINT ( 'NONE',  ( -32.16916666666573832, 0.8419691425682045427, 1.041666666666666741 ) ) ;
#109 = CARTESIAN_POINT ( 'NONE',  ( -30.77942286340599765, 1.530808065902090522E-16, -1.250000000000000222 ) ) ;
#110 = EDGE_CURVE ( 'NONE', #316, #672, #354, .T. ) ;
#111 = ADVANCED_FACE ( 'NONE', ( #286 ), #156, .F. ) ;
#112 = CARTESIAN_POINT ( 'NONE',  ( -32.15037000055571781, -0.2394511050528673191, 1.249999999999999334 ) ) ;
#113 = CARTESIAN_POINT ( 'NONE',  ( -30.79105228766682956, 0.2457778558553065651, -1.250000000000000000 ) ) ;
#114 = CARTESIAN_POINT ( 'NONE',  ( -0.3500000000000000333, 2.449293598294706414E-16, -2.000000000000000000 ) ) ;
#115 = CARTESIAN_POINT ( 'NONE',  ( -32.16921124011832944, -0.4814729877613876941, -1.250000000000000000 ) ) ;
#116 = EDGE_CURVE ( 'NONE', #730, #107, #50, .T. ) ;
#117 = CARTESIAN_POINT ( 'NONE',  ( -30.90000000000000213, 0.7216878364870323859, 1.249999999999999778 ) ) ;
#118 = AXIS2_PLACEMENT_3D ( 'NONE', #178, #234, #6 ) ;
#119 = DIRECTION ( 'NONE',  ( 0.000000000000000000, 0.000000000000000000, 1.000000000000000000 ) ) ;
#120 = PRESENTATION_STYLE_ASSIGNMENT (( #522 ) ) ;
#121 = CARTESIAN_POINT ( 'NONE',  ( -30.77919874466208938, 0.9604055199136772858, -0.8365288436399078709 ) ) ;
#122 = CARTESIAN_POINT ( 'NONE',  ( -30.90000000000000213, -0.7216878364870332740, 1.249999999999999778 ) ) ;
#123 = EDGE_CURVE ( 'NONE', #43, #483, #623, .T. ) ;
#124 = CARTESIAN_POINT ( 'NONE',  ( -30.90000000000000213, 1.443375672974064328, -3.128943976826325424E-17 ) ) ;
#125 = PRESENTATION_LAYER_ASSIGNMENT (  '', '', ( #501 ) ) ;
#126 = PLANE ( 'NONE',  #10 ) ;
#127 = AXIS2_PLACEMENT_3D ( 'NONE', #573, #683, #408 ) ;
#128 = CARTESIAN_POINT ( 'NONE',  ( -32.20000000000000284, 2.449293598294703949E-16, -1.999999999999997780 ) ) ;
#129 = B_SPLINE_CURVE_WITH_KNOTS ( 'NONE', 3,
 ( #84, #257, #544, #486, #31, #493 ),
 .UNSPECIFIED., .F., .F.,
 ( 4, 2, 4 ),
 ( 2.391904125708790558E-07, 0.0007300545202770515303, 0.001459869850141532182 ),
 .UNSPECIFIED. ) ;
#130 = CARTESIAN_POINT ( 'NONE',  ( -30.77964865737705935, -0.9585729505925318916, -0.8397029468125255525 ) ) ;
#131 = ADVANCED_FACE ( 'NONE', ( #570 ), #509, .F. ) ;
#132 = EDGE_LOOP ( 'NONE', ( #535, #391, #654, #424, #401, #103 ) ) ;
#133 = DIRECTION ( 'NONE',  ( -1.000000000000000000, 0.000000000000000000, -0.000000000000000000 ) ) ;
#134 = DIRECTION ( 'NONE',  ( 0.000000000000000000, 0.8660254037844387076, -0.4999999999999998335 ) ) ;
#135 = APPLICATION_PROTOCOL_DEFINITION ( 'draft international standard', 'automotive_design', 1998, #278 ) ;
#136 = ORIENTED_EDGE ( 'NONE', *, *, #467, .T. ) ;
#137 = CARTESIAN_POINT ( 'NONE',  ( -30.00000000000000000, 0.7216878364870323859, 1.249999999999999778 ) ) ;
#138 = DIRECTION ( 'NONE',  ( -1.000000000000000000, -0.000000000000000000, -0.000000000000000000 ) ) ;
#139 = AXIS2_PLACEMENT_3D ( 'NONE', #426, #206, #369 ) ;
#140 = VERTEX_POINT ( 'NONE', #290 ) ;
#141 = DIRECTION ( 'NONE',  ( -1.000000000000000000, -5.998083099822095465E-17, -0.000000000000000000 ) ) ;
#142 = EDGE_CURVE ( 'NONE', #491, #730, #601, .T. ) ;
#143 = PLANE ( 'NONE',  #561 ) ;
#144 = VECTOR ( 'NONE', #346, 1000.000000000000000 ) ;
#145 = ORIENTED_EDGE ( 'NONE', *, *, #641, .F. ) ;
#146 = CARTESIAN_POINT ( 'NONE',  ( -1031.829999999999927, -5.995863809075160294E-14, 0.000000000000000000 ) ) ;
#147 = APPLICATION_PROTOCOL_DEFINITION ( 'draft international standard', 'automotive_design', 1998, #330 ) ;
#148 = ORIENTED_EDGE ( 'NONE', *, *, #446, .F. ) ;
#149 = DIRECTION ( 'NONE',  ( 0.000000000000000000, 0.000000000000000000, 1.000000000000000000 ) ) ;
#150 = SURFACE_STYLE_FILL_AREA ( #719 ) ;
#151 = VERTEX_POINT ( 'NONE', #732 ) ;
#152 = AXIS2_PLACEMENT_3D ( 'NONE', #294, #465, #66 ) ;
#153 = VERTEX_POINT ( 'NONE', #2 ) ;
#154 = SURFACE_STYLE_FILL_AREA ( #443 ) ;
#155 = CONICAL_SURFACE ( 'NONE', #127, 3901.015332362311256, 1.319856261027560818 ) ;
#156 = CONICAL_SURFACE ( 'NONE', #226, 3901.015332362311256, 1.319856261027560818 ) ;
#157 = EDGE_CURVE ( 'NONE', #153, #140, #256, .T. ) ;
#158 = ORIENTED_EDGE ( 'NONE', *, *, #45, .F. ) ;
#159 = CIRCLE ( 'NONE', #581, 2.000000000000000000 ) ;
#160 = CARTESIAN_POINT ( 'NONE',  ( -32.16916666666574542, 0.8419691425682045427, -1.041666666666667185 ) ) ;
#161 = DIRECTION ( 'NONE',  ( 0.000000000000000000, 0.000000000000000000, 1.000000000000000000 ) ) ;
#162 = ORIENTED_EDGE ( 'NONE', *, *, #612, .F. ) ;
#163 = VERTEX_POINT ( 'NONE', #461 ) ;
#164 = CARTESIAN_POINT ( 'NONE',  ( -32.20000000000000284, -0.7216878364870312756, 1.250000000000000444 ) ) ;
#165 = ORIENTED_EDGE ( 'NONE', *, *, #247, .T. ) ;
#166 = ORIENTED_EDGE ( 'NONE', *, *, #232, .F. ) ;
#167 = FACE_OUTER_BOUND ( 'NONE', #455, .T. ) ;
#168 = CARTESIAN_POINT ( 'NONE',  ( -32.20000000000000284, -1.443375672974064328, -2.818925648462312317E-15 ) ) ;
#169 = STYLED_ITEM ( 'NONE', ( #120 ), #490 ) ;
#170 = EDGE_CURVE ( 'NONE', #86, #316, #39, .T. ) ;
#171 = CARTESIAN_POINT ( 'NONE',  ( -0.3500000000000000333, 2.449293598294706907E-16, -2.000000000000000000 ) ) ;
#172 = CARTESIAN_POINT ( 'NONE',  ( -30.86374379380171362, 0.6053960008849368357, -1.250000000000000000 ) ) ;
#173 = PRODUCT_DEFINITION ( '未知', '', #380, #93 ) ;
#174 = CARTESIAN_POINT ( 'NONE',  ( -32.16927320067241425, 0.4819564059043958681, 1.249999999999999778 ) ) ;
#175 = DIRECTION ( 'NONE',  ( -1.000000000000000000, -0.000000000000000000, -0.000000000000000000 ) ) ;
#176 = EDGE_CURVE ( 'NONE', #442, #221, #523, .T. ) ;
#177 = CARTESIAN_POINT ( 'NONE',  ( 0.000000000000000000, 2.078092264740989006E-16, -1.393782217350892916 ) ) ;
#178 = CARTESIAN_POINT ( 'NONE',  ( -28.72727272727272663, 0.000000000000000000, 0.000000000000000000 ) ) ;
#179 = AXIS2_PLACEMENT_3D ( 'NONE', #17, #304, #299 ) ;
#180 = CARTESIAN_POINT ( 'NONE',  ( -30.77942286340599765, -4.330215280939178002E-23, 1.249999999999999778 ) ) ;
#181 =( GEOMETRIC_REPRESENTATION_CONTEXT ( 3 ) GLOBAL_UNCERTAINTY_ASSIGNED_CONTEXT ( ( #658 ) ) GLOBAL_UNIT_ASSIGNED_CONTEXT ( ( #287, #337, #440 ) ) REPRESENTATION_CONTEXT ( 'NONE', 'WORKASPACE' ) );
#182 = CARTESIAN_POINT ( 'NONE',  ( -30.82677104533570400, 1.325934682174326973, -0.2034137629563742278 ) ) ;
#183 = CONICAL_SURFACE ( 'NONE', #282, 2.000000000000000000, 1.047197551196597631 ) ;
#184 = SPHERICAL_SURFACE ( 'NONE', #253, 4.007472359323742239 ) ;
#185 = B_SPLINE_CURVE_WITH_KNOTS ( 'NONE', 3,
 ( #124, #182, #73, #121, #636, #306 ),
 .UNSPECIFIED., .F., .F.,
 ( 4, 2, 4 ),
 ( 2.391904125709706413E-07, 0.0007300545202770510967, 0.001459869850141531098 ),
 .UNSPECIFIED. ) ;
#186 =( GEOMETRIC_REPRESENTATION_CONTEXT ( 3 ) GLOBAL_UNCERTAINTY_ASSIGNED_CONTEXT ( ( #666 ) ) GLOBAL_UNIT_ASSIGNED_CONTEXT ( ( #215, #439, #610 ) ) REPRESENTATION_CONTEXT ( 'NONE', 'WORKASPACE' ) );
#187 = DIRECTION ( 'NONE',  ( 1.000000000000000000, 0.000000000000000000, 0.000000000000000000 ) ) ;
#188 = DIRECTION ( 'NONE',  ( 0.000000000000000000, -0.8660254037844385966, -0.5000000000000003331 ) ) ;
#189 = DIRECTION ( 'NONE',  ( -1.000000000000000000, -0.000000000000000000, -0.000000000000000000 ) ) ;
#190 = CARTESIAN_POINT ( 'NONE',  ( -30.00000000000000000, 0.000000000000000000, 0.000000000000000000 ) ) ;
#191 = CARTESIAN_POINT ( 'NONE',  ( -30.00000000000000000, 0.7216878364870321638, -1.250000000000000222 ) ) ;
#192 = AXIS2_PLACEMENT_3D ( 'NONE', #539, #72, #652 ) ;
#193 = EDGE_CURVE ( 'NONE', #730, #491, #541, .T. ) ;
#194 = EDGE_CURVE ( 'NONE', #651, #86, #214, .T. ) ;
#195 = AXIS2_PLACEMENT_3D ( 'NONE', #731, #722, #677 ) ;
#196 = ORIENTED_EDGE ( 'NONE', *, *, #699, .F. ) ;
#197 = PLANE ( 'NONE',  #22 ) ;
#198 = CARTESIAN_POINT ( 'NONE',  ( -30.82715765887601478, -0.4880459183963075653, 1.249999999999999778 ) ) ;
#199 = LINE ( 'NONE', #376, #313 ) ;
#200 = ORIENTED_EDGE ( 'NONE', *, *, #193, .T. ) ;
#201 = B_SPLINE_CURVE_WITH_KNOTS ( 'NONE', 3,
 ( #432, #202, #130, #489, #530, #593 ),
 .UNSPECIFIED., .F., .F.,
 ( 4, 2, 4 ),
 ( 2.391904125708790558E-07, 0.0007300545202770516388, 0.001459869850141532399 ),
 .UNSPECIFIED. ) ;
#202 = CARTESIAN_POINT ( 'NONE',  ( -30.82677104533570400, -0.8391288272867705178, -1.046586237043626300 ) ) ;
#203 = EDGE_CURVE ( 'NONE', #456, #151, #27, .T. ) ;
#204 = EDGE_LOOP ( 'NONE', ( #507, #532, #76, #563, #447 ) ) ;
#205 = FACE_OUTER_BOUND ( 'NONE', #546, .T. ) ;
#206 = DIRECTION ( 'NONE',  ( -1.000000000000000000, -0.000000000000000000, -0.000000000000000000 ) ) ;
#207 = CONICAL_SURFACE ( 'NONE', #243, 2.000000000000000000, 1.047197551196597631 ) ;
#208 = ORIENTED_EDGE ( 'NONE', *, *, #693, .F. ) ;
#209 = MANIFOLD_SOLID_BREP ( '切除-旋转1', #377 ) ;
#210 = CARTESIAN_POINT ( 'NONE',  ( -29.80000000000000071, 2.449293598294702963E-16, -1.999999999999995781 ) ) ;
#211 = PLANE ( 'NONE',  #468 ) ;
#212 = UNCERTAINTY_MEASURE_WITH_UNIT (LENGTH_MEASURE( 1.000000000000000082E-05 ), #20, 'distance_accuracy_value', 'NONE');
#213 = ORIENTED_EDGE ( 'NONE', *, *, #598, .T. ) ;
#214 = B_SPLINE_CURVE_WITH_KNOTS ( 'NONE', 3,
 ( #8, #172, #399, #113, #350, #466 ),
 .UNSPECIFIED., .F., .F.,
 ( 4, 2, 4 ),
 ( 0.003836159553464221945, 0.004202463752521881646, 0.004568767951579540479 ),
 .UNSPECIFIED. ) ;
#215 =( LENGTH_UNIT ( ) NAMED_UNIT ( * ) SI_UNIT ( .MILLI., .METRE. ) );
#216 = ORIENTED_EDGE ( 'NONE', *, *, #531, .F. ) ;
#217 = DIRECTION ( 'NONE',  ( -1.000000000000000000, -0.000000000000000000, -0.000000000000000000 ) ) ;
#218 = EDGE_CURVE ( 'NONE', #452, #42, #159, .T. ) ;
#219 = ADVANCED_FACE ( 'NONE', ( #660 ), #724, .F. ) ;
#220 =( GEOMETRIC_REPRESENTATION_CONTEXT ( 3 ) GLOBAL_UNCERTAINTY_ASSIGNED_CONTEXT ( ( #605 ) ) GLOBAL_UNIT_ASSIGNED_CONTEXT ( ( #525, #7, #585 ) ) REPRESENTATION_CONTEXT ( 'NONE', 'WORKASPACE' ) );
#221 = VERTEX_POINT ( 'NONE', #664 ) ;
#222 = CIRCLE ( 'NONE', #245, 3.800000000000000266 ) ;
#223 = FACE_OUTER_BOUND ( 'NONE', #275, .T. ) ;
#224 = SURFACE_STYLE_USAGE ( .BOTH. , #229 ) ;
#225 = VERTEX_POINT ( 'NONE', #91 ) ;
#226 = AXIS2_PLACEMENT_3D ( 'NONE', #678, #583, #62 ) ;
#227 = ORIENTED_EDGE ( 'NONE', *, *, #467, .F. ) ;
#228 = FACE_OUTER_BOUND ( 'NONE', #616, .T. ) ;
#229 = SURFACE_SIDE_STYLE ('',( #150 ) ) ;
#230 = VERTEX_POINT ( 'NONE', #87 ) ;
#231 = EDGE_LOOP ( 'NONE', ( #721, #696, #148, #90, #540 ) ) ;
#232 = EDGE_CURVE ( 'NONE', #335, #107, #603, .T. ) ;
#233 = CARTESIAN_POINT ( 'NONE',  ( -30.83343568050243988, 0.4873330088410964822, 1.249999999999999334 ) ) ;
#234 = DIRECTION ( 'NONE',  ( -0.000000000000000000, 0.000000000000000000, 1.000000000000000000 ) ) ;
#235 = CIRCLE ( 'NONE', #21, 3.800000000000000266 ) ;
#236 = DIRECTION ( 'NONE',  ( -1.000000000000000000, -0.000000000000000000, -0.000000000000000000 ) ) ;
#237 = DIRECTION ( 'NONE',  ( 0.000000000000000000, 0.000000000000000000, -1.000000000000000000 ) ) ;
#238 = AXIS2_PLACEMENT_3D ( 'NONE', #448, #105, #405 ) ;
#239 = FACE_BOUND ( 'NONE', #613, .T. ) ;
#240 = CARTESIAN_POINT ( 'NONE',  ( -30.77942286340599765, 1.530808065902090522E-16, -1.250000000000000222 ) ) ;
#241 = CARTESIAN_POINT ( 'NONE',  ( -30.00000000000000000, -0.7216878364870328300, -1.250000000000000222 ) ) ;
#242 = CARTESIAN_POINT ( 'NONE',  ( -0.3500000000000000333, 0.000000000000000000, 2.000000000000000000 ) ) ;
#243 = AXIS2_PLACEMENT_3D ( 'NONE', #368, #364, #524 ) ;
#244 = LINE ( 'NONE', #191, #104 ) ;
#245 = AXIS2_PLACEMENT_3D ( 'NONE', #190, #588, #70 ) ;
#246 = CARTESIAN_POINT ( 'NONE',  ( -0.3500000000000000333, 0.000000000000000000, 2.000000000000000000 ) ) ;
#247 = EDGE_CURVE ( 'NONE', #42, #452, #284, .T. ) ;
#248 = CARTESIAN_POINT ( 'NONE',  ( -30.00000000000000000, 0.000000000000000000, 0.000000000000000000 ) ) ;
#249 = CARTESIAN_POINT ( 'NONE',  ( 0.000000000000000000, 0.000000000000000000, 1.393782217350892916 ) ) ;
#250 = ADVANCED_FACE ( 'NONE', ( #542 ), #485, .F. ) ;
#251 = FACE_OUTER_BOUND ( 'NONE', #331, .T. ) ;
#252 = CARTESIAN_POINT ( 'NONE',  ( -30.00000000000000000, 1.443375672974064328, -3.128943976826325424E-17 ) ) ;
#253 = AXIS2_PLACEMENT_3D ( 'NONE', #255, #15, #592 ) ;
#254 = EDGE_LOOP ( 'NONE', ( #279, #717 ) ) ;
#255 = CARTESIAN_POINT ( 'NONE',  ( -28.72727272727272663, 0.000000000000000000, 0.000000000000000000 ) ) ;
#256 = CIRCLE ( 'NONE', #118, 4.007472359323742239 ) ;
#257 = CARTESIAN_POINT ( 'NONE',  ( -30.82677104533570400, 0.8391288272867697406, 1.046586237043625411 ) ) ;
#258 = VECTOR ( 'NONE', #488, 1000.000000000000000 ) ;
#259 = EDGE_CURVE ( 'NONE', #97, #151, #329, .T. ) ;
#260 = ORIENTED_EDGE ( 'NONE', *, *, #352, .T. ) ;
#261 = CARTESIAN_POINT ( 'NONE',  ( -30.00000000000000000, -0.7216878364870332740, 1.249999999999999778 ) ) ;
#262 = DIRECTION ( 'NONE',  ( 0.000000000000000000, 0.000000000000000000, 1.000000000000000000 ) ) ;
#263 = ORIENTED_EDGE ( 'NONE', *, *, #386, .T. ) ;
#264 = CARTESIAN_POINT ( 'NONE',  ( -30.90000000000000213, -0.7216878364870328300, -1.250000000000000222 ) ) ;
#265 = DIRECTION ( 'NONE',  ( 0.000000000000000000, -0.4999999999999998335, 0.8660254037844387076 ) ) ;
#266 = MECHANICAL_DESIGN_GEOMETRIC_PRESENTATION_REPRESENTATION (  '', ( #169 ), #220 ) ;
#267 = ORIENTED_EDGE ( 'NONE', *, *, #45, .T. ) ;
#268 = CARTESIAN_POINT ( 'NONE',  ( -1031.829999999999927, -5.995863809075160294E-14, 0.000000000000000000 ) ) ;
#269 = EDGE_LOOP ( 'NONE', ( #267, #571 ) ) ;
#270 = LINE ( 'NONE', #317, #393 ) ;
#271 = EDGE_CURVE ( 'NONE', #151, #221, #295, .T. ) ;
#272 = FILL_AREA_STYLE_COLOUR ( '', #420 ) ;
#273 = B_SPLINE_CURVE_WITH_KNOTS ( 'NONE', 3,
 ( #727, #463, #460, #233, #53, #457 ),
 .UNSPECIFIED., .F., .F.,
 ( 4, 2, 4 ),
 ( 0.001876385854435923869, 0.002242080329067764385, 0.002607774803699604901 ),
 .UNSPECIFIED. ) ;
#274 = EDGE_LOOP ( 'NONE', ( #659, #671 ) ) ;
#275 = EDGE_LOOP ( 'NONE', ( #40, #515 ) ) ;
#276 = LINE ( 'NONE', #261, #258 ) ;
#277 =( GEOMETRIC_REPRESENTATION_CONTEXT ( 3 ) GLOBAL_UNCERTAINTY_ASSIGNED_CONTEXT ( ( #323 ) ) GLOBAL_UNIT_ASSIGNED_CONTEXT ( ( #361, #589, #307 ) ) REPRESENTATION_CONTEXT ( 'NONE', 'WORKASPACE' ) );
#278 = APPLICATION_CONTEXT ( 'automotive_design' ) ;
#279 = ORIENTED_EDGE ( 'NONE', *, *, #80, .T. ) ;
#280 = DIRECTION ( 'NONE',  ( -0.000000000000000000, 0.000000000000000000, 1.000000000000000000 ) ) ;
#281 = EDGE_CURVE ( 'NONE', #43, #86, #270, .T. ) ;
#282 = AXIS2_PLACEMENT_3D ( 'NONE', #301, #526, #363 ) ;
#283 = ORIENTED_EDGE ( 'NONE', *, *, #271, .T. ) ;
#284 = CIRCLE ( 'NONE', #691, 2.000000000000000000 ) ;
#285 = CARTESIAN_POINT ( 'NONE',  ( -30.00000000000000000, -1.443375672974065216, -5.870030462665943960E-16 ) ) ;
#286 = FACE_OUTER_BOUND ( 'NONE', #398, .T. ) ;
#287 =( LENGTH_UNIT ( ) NAMED_UNIT ( * ) SI_UNIT ( .MILLI., .METRE. ) );
#288 = B_SPLINE_CURVE_WITH_KNOTS ( 'NONE', 3,
 ( #565, #115, #690, #51, #728, #403 ),
 .UNSPECIFIED., .F., .F.,
 ( 4, 2, 4 ),
 ( 0.001182686314803305669, 0.001908595411696186166, 0.002634504508589066447 ),
 .UNSPECIFIED. ) ;
#289 = CARTESIAN_POINT ( 'NONE',  ( -28.72727272727272663, 0.000000000000000000, 0.000000000000000000 ) ) ;
#290 = CARTESIAN_POINT ( 'NONE',  ( -32.20000000000000284, 1.999999999999998668, 0.000000000000000000 ) ) ;
#291 = LINE ( 'NONE', #285, #423 ) ;
#292 = CARTESIAN_POINT ( 'NONE',  ( -32.16916666666573832, -1.323094366892892060, -0.2083333333333355908 ) ) ;
#293 = CIRCLE ( 'NONE', #701, 1.999999999999998668 ) ;
#294 = CARTESIAN_POINT ( 'NONE',  ( -32.20000000000000284, 0.000000000000000000, 0.000000000000000000 ) ) ;
#295 = CIRCLE ( 'NONE', #543, 1.443375672974064106 ) ;
#296 = CARTESIAN_POINT ( 'NONE',  ( -30.00000000000000355, 0.000000000000000000, 0.000000000000000000 ) ) ;
#297 = EDGE_CURVE ( 'NONE', #230, #456, #276, .T. ) ;
#298 = CARTESIAN_POINT ( 'NONE',  ( -30.90000000000000213, -0.7216878364870328300, -1.250000000000000222 ) ) ;
#299 = DIRECTION ( 'NONE',  ( 0.000000000000000000, 0.000000000000000000, -1.000000000000000000 ) ) ;
#300 = FILL_AREA_STYLE ('',( #686 ) ) ;
#301 = CARTESIAN_POINT ( 'NONE',  ( -0.3500000000000000333, 0.000000000000000000, 0.000000000000000000 ) ) ;
#302 = ADVANCED_FACE ( 'NONE', ( #205 ), #356, .F. ) ;
#303 = FACE_OUTER_BOUND ( 'NONE', #204, .T. ) ;
#304 = DIRECTION ( 'NONE',  ( -1.000000000000000000, -0.000000000000000000, -0.000000000000000000 ) ) ;
#305 = DIRECTION ( 'NONE',  ( 0.000000000000000000, -0.4999999999999996669, -0.8660254037844388186 ) ) ;
#306 = CARTESIAN_POINT ( 'NONE',  ( -30.90000000000000213, 0.7216878364870328300, -1.249999999999999112 ) ) ;
#307 =( NAMED_UNIT ( * ) SI_UNIT ( $, .STERADIAN. ) SOLID_ANGLE_UNIT ( ) );
#308 = CARTESIAN_POINT ( 'NONE',  ( -30.00000000000000355, 0.000000000000000000, 2.199999999999997069 ) ) ;
#309 = ORIENTED_EDGE ( 'NONE', *, *, #232, .T. ) ;
#310 = CARTESIAN_POINT ( 'NONE',  ( -30.82677104533571111, -1.325934682174327861, 0.2034137629563737282 ) ) ;
#311 = CARTESIAN_POINT ( 'NONE',  ( -32.16916666666573832, -0.8419691425682047647, 1.041666666666667407 ) ) ;
#312 = ADVANCED_FACE ( 'NONE', ( #379 ), #415, .F. ) ;
#313 = VECTOR ( 'NONE', #640, 1000.000000000000000 ) ;
#314 = DIRECTION ( 'NONE',  ( -1.000000000000000000, -0.000000000000000000, -0.000000000000000000 ) ) ;
#315 = AXIS2_PLACEMENT_3D ( 'NONE', #14, #478, #702 ) ;
#316 = VERTEX_POINT ( 'NONE', #264 ) ;
#317 = CARTESIAN_POINT ( 'NONE',  ( -30.90000000000000213, 1.767625397874844201E-16, -1.443375672974064106 ) ) ;
#318 = STYLED_ITEM ( 'NONE', ( #392 ), #209 ) ;
#319 = CARTESIAN_POINT ( 'NONE',  ( -32.20000000000000284, -0.7216878364870326079, -1.249999999999999778 ) ) ;
#320 = ORIENTED_EDGE ( 'NONE', *, *, #407, .T. ) ;
#321 = CARTESIAN_POINT ( 'NONE',  ( -1031.829999999999927, -5.995863809075160294E-14, 0.000000000000000000 ) ) ;
#322 = DIRECTION ( 'NONE',  ( -1.000000000000000000, 0.000000000000000000, -0.000000000000000000 ) ) ;
#323 = UNCERTAINTY_MEASURE_WITH_UNIT (LENGTH_MEASURE( 1.000000000000000082E-05 ), #361, 'distance_accuracy_value', 'NONE');
#324 = ORIENTED_EDGE ( 'NONE', *, *, #176, .T. ) ;
#325 = AXIS2_PLACEMENT_3D ( 'NONE', #358, #189, #477 ) ;
#326 = CIRCLE ( 'NONE', #643, 4.007472359323742239 ) ;
#327 = ADVANCED_FACE ( 'NONE', ( #492 ), #435, .T. ) ;
#328 = ORIENTED_EDGE ( 'NONE', *, *, #123, .F. ) ;
#329 = LINE ( 'NONE', #137, #450 ) ;
#330 = APPLICATION_CONTEXT ( 'automotive_design' ) ;
#331 = EDGE_LOOP ( 'NONE', ( #333, #36, #145, #438 ) ) ;
#332 = DIRECTION ( 'NONE',  ( -1.000000000000000000, -0.000000000000000000, -0.000000000000000000 ) ) ;
#333 = ORIENTED_EDGE ( 'NONE', *, *, #77, .F. ) ;
#334 = B_SPLINE_CURVE_WITH_KNOTS ( 'NONE', 3,
 ( #419, #311, #703, #639, #584 ),
 .UNSPECIFIED., .F., .F.,
 ( 4, 1, 4 ),
 ( 2.309401076742092082E-07, 0.0007219187765947082409, 0.001443606613081742113 ),
 .UNSPECIFIED. ) ;
#335 = VERTEX_POINT ( 'NONE', #210 ) ;
#336 = CARTESIAN_POINT ( 'NONE',  ( -32.13169213213475217, 1.082531754730548190, -0.6249999999999998890 ) ) ;
#337 =( NAMED_UNIT ( * ) PLANE_ANGLE_UNIT ( ) SI_UNIT ( $, .RADIAN. ) );
#338 = ADVANCED_FACE ( 'Bface1', ( #228, #239 ), #517, .F. ) ;
#339 = AXIS2_PLACEMENT_3D ( 'NONE', #533, #707, #429 ) ;
#340 = EDGE_LOOP ( 'NONE', ( #712, #260, #309, #647 ) ) ;
#341 = AXIS2_PLACEMENT_3D ( 'NONE', #586, #417, #133 ) ;
#342 = CARTESIAN_POINT ( 'NONE',  ( -32.15048909679995148, 0.2418642655271377451, 1.249999999999999778 ) ) ;
#343 = DIRECTION ( 'NONE',  ( -1.000000000000000000, -0.000000000000000000, -0.000000000000000000 ) ) ;
#344 = ORIENTED_EDGE ( 'NONE', *, *, #259, .T. ) ;
#345 = DIRECTION ( 'NONE',  ( 0.000000000000000000, 0.000000000000000000, -1.000000000000000000 ) ) ;
#346 = DIRECTION ( 'NONE',  ( -1.000000000000000000, -0.000000000000000000, -0.000000000000000000 ) ) ;
#347 = B_SPLINE_CURVE_WITH_KNOTS ( 'NONE', 3,
 ( #122, #198, #697, #649 ),
 .UNSPECIFIED., .F., .F.,
 ( 4, 4 ),
 ( 0.001144596242895333299, 0.001876385854435923869 ),
 .UNSPECIFIED. ) ;
#348 = ORIENTED_EDGE ( 'NONE', *, *, #176, .F. ) ;
#349 = CARTESIAN_POINT ( 'NONE',  ( -32.20000000000000284, 1.443375672974064328, 6.505213034913026604E-16 ) ) ;
#350 = CARTESIAN_POINT ( 'NONE',  ( -30.77942286340599765, 0.1219527981751488688, -1.250000000000000222 ) ) ;
#351 = MECHANICAL_DESIGN_GEOMETRIC_PRESENTATION_REPRESENTATION (  '', ( #501 ), #277 ) ;
#352 = EDGE_CURVE ( 'NONE', #491, #335, #680, .T. ) ;
#353 = CARTESIAN_POINT ( 'NONE',  ( -32.20000000000000284, 0.000000000000000000, 0.000000000000000000 ) ) ;
#354 = LINE ( 'NONE', #241, #144 ) ;
#355 = AXIS2_PLACEMENT_3D ( 'NONE', #106, #631, #682 ) ;
#356 = CONICAL_SURFACE ( 'NONE', #634, 3901.015332362311256, 1.319856261027560818 ) ;
#357 = CARTESIAN_POINT ( 'NONE',  ( -29.80000000000000071, 0.000000000000000000, 1.999999999999995781 ) ) ;
#358 = CARTESIAN_POINT ( 'NONE',  ( 0.000000000000000000, 0.000000000000000000, 0.000000000000000000 ) ) ;
#359 = CARTESIAN_POINT ( 'NONE',  ( -32.20000000000000284, 0.000000000000000000, 0.000000000000000000 ) ) ;
#360 = CARTESIAN_POINT ( 'NONE',  ( -30.77919874466208938, -0.9604055199136780629, 0.8365288436399083150 ) ) ;
#361 =( LENGTH_UNIT ( ) NAMED_UNIT ( * ) SI_UNIT ( .MILLI., .METRE. ) );
#362 = ADVANCED_FACE ( 'NONE', ( #569 ), #552, .F. ) ;
#363 = DIRECTION ( 'NONE',  ( 0.000000000000000000, 0.000000000000000000, 1.000000000000000000 ) ) ;
#364 = DIRECTION ( 'NONE',  ( -1.000000000000000000, -0.000000000000000000, -0.000000000000000000 ) ) ;
#365 = CARTESIAN_POINT ( 'NONE',  ( -32.20000000000000284, -1.443375672974064328, -2.818925648462312317E-15 ) ) ;
#366 = AXIS2_PLACEMENT_3D ( 'NONE', #321, #547, #33 ) ;
#367 = ORIENTED_EDGE ( 'NONE', *, *, #590, .T. ) ;
#368 = CARTESIAN_POINT ( 'NONE',  ( -0.3500000000000000333, 0.000000000000000000, 0.000000000000000000 ) ) ;
#369 = DIRECTION ( 'NONE',  ( 0.000000000000000000, 0.000000000000000000, 1.000000000000000000 ) ) ;
#370 = EDGE_LOOP ( 'NONE', ( #498, #320, #158, #679 ) ) ;
#371 = CARTESIAN_POINT ( 'NONE',  ( -32.20000000000000284, 0.000000000000000000, 0.000000000000000000 ) ) ;
#372 = CARTESIAN_POINT ( 'NONE',  ( -29.80000000000000071, 0.000000000000000000, 0.000000000000000000 ) ) ;
#373 = VERTEX_POINT ( 'NONE', #56 ) ;
#374 = EDGE_CURVE ( 'NONE', #373, #221, #99, .T. ) ;
#375 = CARTESIAN_POINT ( 'NONE',  ( -0.3500000000000000333, 0.000000000000000000, 0.000000000000000000 ) ) ;
#376 = CARTESIAN_POINT ( 'NONE',  ( -32.20000000000000284, 0.000000000000000000, 1.999999999999997780 ) ) ;
#377 = CLOSED_SHELL ( 'NONE', ( #557, #3, #620, #327, #490, #572, #502, #511, #338, #362, #250, #312, #111, #302, #416, #462, #219, #545, #35, #12, #685, #131, #661, #65, #720 ) ) ;
#378 = ORIENTED_EDGE ( 'NONE', *, *, #4, .T. ) ;
#379 = FACE_OUTER_BOUND ( 'NONE', #656, .T. ) ;
#380 = PRODUCT_DEFINITION_FORMATION_WITH_SPECIFIED_SOURCE ( '任何', '', #482, .NOT_KNOWN. ) ;
#381 = AXIS2_PLACEMENT_3D ( 'NONE', #296, #513, #520 ) ;
#382 = DIRECTION ( 'NONE',  ( 0.000000000000000000, -0.8660254037844388186, 0.4999999999999996669 ) ) ;
#383 = EDGE_LOOP ( 'NONE', ( #503, #608, #216, #554, #726, #102 ) ) ;
#384 = DIRECTION ( 'NONE',  ( -1.000000000000000000, -0.000000000000000000, -0.000000000000000000 ) ) ;
#385 = B_SPLINE_CURVE_WITH_KNOTS ( 'NONE', 3,
 ( #1, #174, #342, #112, #402, #164 ),
 .UNSPECIFIED., .F., .F.,
 ( 4, 2, 4 ),
 ( 0.002974540139219449680, 0.003699310320131254329, 0.004424080501043058979 ),
 .UNSPECIFIED. ) ;
#386 = EDGE_CURVE ( 'NONE', #151, #456, #385, .T. ) ;
#387 = EDGE_LOOP ( 'NONE', ( #662, #621, #421, #675 ) ) ;
#388 = SURFACE_STYLE_USAGE ( .BOTH. , #602 ) ;
#389 = DIRECTION ( 'NONE',  ( 1.000000000000000000, 0.000000000000000000, 0.000000000000000000 ) ) ;
#390 = COLOUR_RGB ( '',0.7960784313725489669, 0.8235294117647058432, 0.9372549019607843146 ) ;
#391 = ORIENTED_EDGE ( 'NONE', *, *, #123, .T. ) ;
#392 = PRESENTATION_STYLE_ASSIGNMENT (( #388 ) ) ;
#393 = VECTOR ( 'NONE', #83, 1000.000000000000114 ) ;
#394 = ORIENTED_EDGE ( 'NONE', *, *, #281, .T. ) ;
#395 = EDGE_CURVE ( 'NONE', #221, #151, #441, .T. ) ;
#396 = CARTESIAN_POINT ( 'NONE',  ( -32.20000000000000284, 0.7216878364870323859, 1.249999999999999778 ) ) ;
#397 = ORIENTED_EDGE ( 'NONE', *, *, #55, .F. ) ;
#398 = EDGE_LOOP ( 'NONE', ( #594, #283 ) ) ;
#399 = CARTESIAN_POINT ( 'NONE',  ( -30.83343568050244698, 0.4873330088410959826, -1.250000000000000222 ) ) ;
#400 = ORIENTED_EDGE ( 'NONE', *, *, #395, .F. ) ;
#401 = ORIENTED_EDGE ( 'NONE', *, *, #58, .T. ) ;
#402 = CARTESIAN_POINT ( 'NONE',  ( -32.16921124011833655, -0.4814729877613845854, 1.249999999999999778 ) ) ;
#403 = CARTESIAN_POINT ( 'NONE',  ( -32.20000000000000284, 0.7216878364870321638, -1.250000000000000222 ) ) ;
#404 = PRODUCT_DEFINITION_SHAPE ( 'NONE', 'NONE',  #173 ) ;
#405 = DIRECTION ( 'NONE',  ( 5.691969551695385253E-17, -1.000000000000000000, 0.000000000000000000 ) ) ;
#406 = DIRECTION ( 'NONE',  ( 1.000000000000000000, 0.000000000000000000, -0.000000000000000000 ) ) ;
#407 = EDGE_CURVE ( 'NONE', #591, #163, #326, .T. ) ;
#408 = DIRECTION ( 'NONE',  ( 5.691969551695385253E-17, -1.000000000000000000, 0.000000000000000000 ) ) ;
#409 = CARTESIAN_POINT ( 'NONE',  ( -32.20000000000000284, -0.7216878364870326079, -1.249999999999999778 ) ) ;
#410 = FACE_OUTER_BOUND ( 'NONE', #387, .T. ) ;
#411 = CARTESIAN_POINT ( 'NONE',  ( -29.80000000000000071, 0.000000000000000000, 2.199999999999997069 ) ) ;
#412 = CARTESIAN_POINT ( 'NONE',  ( 0.000000000000000000, 0.000000000000000000, 0.000000000000000000 ) ) ;
#413 = PRESENTATION_LAYER_ASSIGNMENT (  '', '', ( #318 ) ) ;
#414 = DIRECTION ( 'NONE',  ( 0.000000000000000000, 0.000000000000000000, 1.000000000000000000 ) ) ;
#415 = CONICAL_SURFACE ( 'NONE', #366, 3901.015332362311256, 1.319856261027560818 ) ;
#416 = ADVANCED_FACE ( 'NONE', ( #223 ), #60, .F. ) ;
#417 = DIRECTION ( 'NONE',  ( 0.000000000000000000, 0.000000000000000000, -1.000000000000000000 ) ) ;
#418 = ORIENTED_EDGE ( 'NONE', *, *, #77, .T. ) ;
#419 = CARTESIAN_POINT ( 'NONE',  ( -32.20000000000000284, -0.7216878364870312756, 1.250000000000000444 ) ) ;
#420 = COLOUR_RGB ( '',0.7960784313725489669, 0.8235294117647058432, 0.9372549019607843146 ) ;
#421 = ORIENTED_EDGE ( 'NONE', *, *, #157, .T. ) ;
#422 = SURFACE_STYLE_FILL_AREA ( #484 ) ;
#423 = VECTOR ( 'NONE', #236, 1000.000000000000000 ) ;
#424 = ORIENTED_EDGE ( 'NONE', *, *, #699, .T. ) ;
#425 = DIRECTION ( 'NONE',  ( 0.000000000000000000, 0.5000000000000002220, -0.8660254037844384856 ) ) ;
#426 = CARTESIAN_POINT ( 'NONE',  ( -29.80000000000000071, 0.000000000000000000, 0.000000000000000000 ) ) ;
#427 = EDGE_CURVE ( 'NONE', #373, #672, #480, .T. ) ;
#428 = ORIENTED_EDGE ( 'NONE', *, *, #193, .F. ) ;
#429 = DIRECTION ( 'NONE',  ( 0.000000000000000000, -1.000000000000000000, 0.000000000000000000 ) ) ;
#430 = ORIENTED_EDGE ( 'NONE', *, *, #55, .T. ) ;
#431 = DIRECTION ( 'NONE',  ( 0.000000000000000000, 0.000000000000000000, 1.000000000000000000 ) ) ;
#432 = CARTESIAN_POINT ( 'NONE',  ( -30.90000000000000213, -0.7216878364870328300, -1.250000000000000222 ) ) ;
#433 = AXIS2_PLACEMENT_3D ( 'NONE', #371, #78, #474 ) ;
#434 = ORIENTED_EDGE ( 'NONE', *, *, #650, .F. ) ;
#435 = SPHERICAL_SURFACE ( 'NONE', #734, 4.007472359323742239 ) ;
#436 = AXIS2_PLACEMENT_3D ( 'NONE', #670, #161, #389 ) ;
#437 = EDGE_CURVE ( 'NONE', #225, #725, #291, .T. ) ;
#438 = ORIENTED_EDGE ( 'NONE', *, *, #110, .T. ) ;
#439 =( NAMED_UNIT ( * ) PLANE_ANGLE_UNIT ( ) SI_UNIT ( $, .RADIAN. ) );
#440 =( NAMED_UNIT ( * ) SI_UNIT ( $, .STERADIAN. ) SOLID_ANGLE_UNIT ( ) );
#441 = B_SPLINE_CURVE_WITH_KNOTS ( 'NONE', 3,
 ( #622, #508, #718, #108, #396 ),
 .UNSPECIFIED., .F., .F.,
 ( 4, 1, 4 ),
 ( 2.309401076761101354E-07, 0.0007219187765947079156, 0.001443606613081739728 ),
 .UNSPECIFIED. ) ;
#442 = VERTEX_POINT ( 'NONE', #681 ) ;
#443 = FILL_AREA_STYLE ('',( #551 ) ) ;
#444 = CIRCLE ( 'NONE', #59, 1.999999999999995781 ) ;
#445 = EDGE_LOOP ( 'NONE', ( #162, #667, #397, #665 ) ) ;
#446 = EDGE_CURVE ( 'NONE', #483, #97, #273, .T. ) ;
#447 = ORIENTED_EDGE ( 'NONE', *, *, #567, .T. ) ;
#448 = CARTESIAN_POINT ( 'NONE',  ( -1031.829999999999927, -5.995863809075160294E-14, 0.000000000000000000 ) ) ;
#449 = COLOUR_RGB ( '',0.6470588235294117974, 0.6196078431372549211, 0.5882352941176470784 ) ;
#450 = VECTOR ( 'NONE', #556, 1000.000000000000000 ) ;
#451 = EDGE_LOOP ( 'NONE', ( #23, #428, #48, #716 ) ) ;
#452 = VERTEX_POINT ( 'NONE', #171 ) ;
#453 = CARTESIAN_POINT ( 'NONE',  ( -29.80000000000000071, 2.694222958124173555E-16, -2.199999999999997069 ) ) ;
#454 = PRODUCT_CONTEXT ( 'NONE', #278, 'mechanical' ) ;
#455 = EDGE_LOOP ( 'NONE', ( #418, #559 ) ) ;
#456 = VERTEX_POINT ( 'NONE', #624 ) ;
#457 = CARTESIAN_POINT ( 'NONE',  ( -30.90000000000000213, 0.7216878364870323859, 1.249999999999999778 ) ) ;
#458 = CARTESIAN_POINT ( 'NONE',  ( -30.00000000000000000, -0.7216878364870332740, 1.249999999999999778 ) ) ;
#459 = COLOUR_RGB ( '',0.7960784313725489669, 0.8235294117647058432, 0.9372549019607843146 ) ;
#460 = CARTESIAN_POINT ( 'NONE',  ( -30.79105228766683311, 0.2457778558553071202, 1.249999999999999778 ) ) ;
#461 = CARTESIAN_POINT ( 'NONE',  ( -32.20000000000000284, -1.999999999999998668, -3.551475717527323339E-16 ) ) ;
#462 = ADVANCED_FACE ( 'NONE', ( #167 ), #155, .F. ) ;
#463 = CARTESIAN_POINT ( 'NONE',  ( -30.77942286340600120, 0.1219527981751487578, 1.249999999999999778 ) ) ;
#464 = CARTESIAN_POINT ( 'NONE',  ( -30.82715765887601478, -0.4880459183963074543, -1.250000000000000222 ) ) ;
#465 = DIRECTION ( 'NONE',  ( -1.000000000000000000, -0.000000000000000000, -0.000000000000000000 ) ) ;
#466 = CARTESIAN_POINT ( 'NONE',  ( -30.77942286340599765, 1.530808065902090522E-16, -1.250000000000000222 ) ) ;
#467 = EDGE_CURVE ( 'NONE', #496, #452, #626, .T. ) ;
#468 = AXIS2_PLACEMENT_3D ( 'NONE', #548, #709, #265 ) ;
#469 = FACE_OUTER_BOUND ( 'NONE', #568, .T. ) ;
#470 = CARTESIAN_POINT ( 'NONE',  ( -30.77942286340599765, -0.2440392103072528129, -1.250000000000000222 ) ) ;
#471 = FACE_OUTER_BOUND ( 'NONE', #340, .T. ) ;
#472 = AXIS2_PLACEMENT_3D ( 'NONE', #411, #63, #237 ) ;
#473 = CYLINDRICAL_SURFACE ( 'NONE', #152, 1.999999999999997780 ) ;
#474 = DIRECTION ( 'NONE',  ( 0.000000000000000000, 0.000000000000000000, 1.000000000000000000 ) ) ;
#475 = CARTESIAN_POINT ( 'NONE',  ( -32.20000000000000284, 0.000000000000000000, 0.000000000000000000 ) ) ;
#476 = ORIENTED_EDGE ( 'NONE', *, *, #650, .T. ) ;
#477 = DIRECTION ( 'NONE',  ( 0.000000000000000000, 0.000000000000000000, 1.000000000000000000 ) ) ;
#478 = DIRECTION ( 'NONE',  ( -1.000000000000000000, -0.000000000000000000, -0.000000000000000000 ) ) ;
#479 = DIRECTION ( 'NONE',  ( 0.000000000000000000, 0.4999999999999998335, 0.8660254037844387076 ) ) ;
#480 = CIRCLE ( 'NONE', #611, 1.443375672974064106 ) ;
#481 = EDGE_CURVE ( 'NONE', #163, #140, #293, .T. ) ;
#482 = PRODUCT ( 'GB╱T 70.2-2015[内六角平圆头螺钉M4×30]', 'GB╱T 70.2-2015[内六角平圆头螺钉M4×30]', '', ( #454 ) ) ;
#483 = VERTEX_POINT ( 'NONE', #180 ) ;
#484 = FILL_AREA_STYLE ('',( #71 ) ) ;
#485 = CONICAL_SURFACE ( 'NONE', #704, 3901.015332362311256, 1.319856261027560818 ) ;
#486 = CARTESIAN_POINT ( 'NONE',  ( -30.77919874466208938, 1.204657989547419428, 0.4134711563600912410 ) ) ;
#487 = EDGE_LOOP ( 'NONE', ( #227, #213, #499, #555 ) ) ;
#488 = DIRECTION ( 'NONE',  ( -1.000000000000000000, -0.000000000000000000, -0.000000000000000000 ) ) ;
#489 = CARTESIAN_POINT ( 'NONE',  ( -30.77919874466208938, -1.204657989547420760, -0.4134711563600916850 ) ) ;
#490 = ADVANCED_FACE ( 'Bface2', ( #469 ), #473, .T. ) ;
#491 = VERTEX_POINT ( 'NONE', #582 ) ;
#492 = FACE_OUTER_BOUND ( 'NONE', #370, .T. ) ;
#493 = CARTESIAN_POINT ( 'NONE',  ( -30.90000000000000213, 1.443375672974064328, -3.128943976826325424E-17 ) ) ;
#494 = ORIENTED_EDGE ( 'NONE', *, *, #521, .T. ) ;
#495 = DIRECTION ( 'NONE',  ( 5.691969551695385253E-17, -1.000000000000000000, 0.000000000000000000 ) ) ;
#496 = VERTEX_POINT ( 'NONE', #177 ) ;
#497 = CARTESIAN_POINT ( 'NONE',  ( -29.80000000000000071, 0.000000000000000000, 0.000000000000000000 ) ) ;
#498 = ORIENTED_EDGE ( 'NONE', *, *, #673, .T. ) ;
#499 = ORIENTED_EDGE ( 'NONE', *, *, #89, .T. ) ;
#500 = DIRECTION ( 'NONE',  ( -0.5000000000000001110, 1.060575238724906792E-16, -0.8660254037844385966 ) ) ;
#501 = STYLED_ITEM ( 'NONE', ( #19 ), #572 ) ;
#502 = ADVANCED_FACE ( 'NONE', ( #692, #635 ), #689, .F. ) ;
#503 = ORIENTED_EDGE ( 'NONE', *, *, #629, .F. ) ;
#504 = ORIENTED_EDGE ( 'NONE', *, *, #142, .T. ) ;
#505 = DIRECTION ( 'NONE',  ( -0.000000000000000000, 1.000000000000000000, 1.224646799147353207E-16 ) ) ;
#506 = MECHANICAL_DESIGN_GEOMETRIC_PRESENTATION_REPRESENTATION (  '', ( #318 ), #186 ) ;
#507 = ORIENTED_EDGE ( 'NONE', *, *, #80, .F. ) ;
#508 = CARTESIAN_POINT ( 'NONE',  ( -32.16916666666573832, 1.323094366892891838, 0.2083333333333336479 ) ) ;
#509 = PLANE ( 'NONE',  #580 ) ;
#510 = ORIENTED_EDGE ( 'NONE', *, *, #58, .F. ) ;
#511 = ADVANCED_FACE ( 'NONE', ( #410 ), #184, .T. ) ;
#512 = CARTESIAN_POINT ( 'NONE',  ( -32.20000000000000284, 2.219290746934188868E-17, -3.599228117386017840E-16 ) ) ;
#513 = DIRECTION ( 'NONE',  ( -1.000000000000000000, -0.000000000000000000, -0.000000000000000000 ) ) ;
#514 = AXIS2_PLACEMENT_3D ( 'NONE', #475, #529, #64 ) ;
#515 = ORIENTED_EDGE ( 'NONE', *, *, #713, .T. ) ;
#516 = AXIS2_PLACEMENT_3D ( 'NONE', #564, #560, #280 ) ;
#517 = PLANE ( 'NONE',  #516 ) ;
#518 = CARTESIAN_POINT ( 'NONE',  ( -32.16916666666573832, -0.8419691425682048758, -1.041666666666667185 ) ) ;
#519 = DIRECTION ( 'NONE',  ( 0.000000000000000000, 0.000000000000000000, -1.000000000000000000 ) ) ;
#520 = DIRECTION ( 'NONE',  ( 0.000000000000000000, 0.000000000000000000, 1.000000000000000000 ) ) ;
#521 = EDGE_CURVE ( 'NONE', #230, #483, #347, .T. ) ;
#522 = SURFACE_STYLE_USAGE ( .BOTH. , #5 ) ;
#523 = LINE ( 'NONE', #625, #669 ) ;
#524 = DIRECTION ( 'NONE',  ( 0.000000000000000000, 0.000000000000000000, 1.000000000000000000 ) ) ;
#525 =( LENGTH_UNIT ( ) NAMED_UNIT ( * ) SI_UNIT ( .MILLI., .METRE. ) );
#526 = DIRECTION ( 'NONE',  ( -1.000000000000000000, -0.000000000000000000, -0.000000000000000000 ) ) ;
#527 = FACE_OUTER_BOUND ( 'NONE', #600, .T. ) ;
#528 = LINE ( 'NONE', #128, #537 ) ;
#529 = DIRECTION ( 'NONE',  ( -1.000000000000000000, -0.000000000000000000, -0.000000000000000000 ) ) ;
#530 = CARTESIAN_POINT ( 'NONE',  ( -30.82664516406750366, -1.325732799999564726, -0.2037634331402073951 ) ) ;
#531 = EDGE_CURVE ( 'NONE', #221, #373, #92, .T. ) ;
#532 = ORIENTED_EDGE ( 'NONE', *, *, #110, .F. ) ;
#533 = CARTESIAN_POINT ( 'NONE',  ( -32.20000000000000284, 5.192832784574761635E-33, 0.000000000000000000 ) ) ;
#534 = STYLED_ITEM ( 'NONE', ( #52 ), #575 ) ;
#535 = ORIENTED_EDGE ( 'NONE', *, *, #281, .F. ) ;
#536 = CARTESIAN_POINT ( 'NONE',  ( -30.90000000000000213, -0.7216878364870332740, 1.249999999999999778 ) ) ;
#537 = VECTOR ( 'NONE', #595, 1000.000000000000000 ) ;
#538 = FACE_OUTER_BOUND ( 'NONE', #606, .T. ) ;
#539 = CARTESIAN_POINT ( 'NONE',  ( -32.20000000000000284, 2.219290746934188868E-17, -3.599228117386017840E-16 ) ) ;
#540 = ORIENTED_EDGE ( 'NONE', *, *, #297, .T. ) ;
#541 = CIRCLE ( 'NONE', #355, 2.199999999999997069 ) ;
#542 = FACE_OUTER_BOUND ( 'NONE', #254, .T. ) ;
#543 = AXIS2_PLACEMENT_3D ( 'NONE', #41, #597, #706 ) ;
#544 = CARTESIAN_POINT ( 'NONE',  ( -30.77964865737705935, 0.9585729505925310034, 0.8397029468125249974 ) ) ;
#545 = ADVANCED_FACE ( 'NONE', ( #527 ), #9, .F. ) ;
#546 = EDGE_LOOP ( 'NONE', ( #263, #710 ) ) ;
#547 = DIRECTION ( 'NONE',  ( -1.000000000000000000, -5.998083099822095465E-17, -0.000000000000000000 ) ) ;
#548 = CARTESIAN_POINT ( 'NONE',  ( -30.00000000000000000, 0.7216878364870323859, 1.249999999999999778 ) ) ;
#549 = ORIENTED_EDGE ( 'NONE', *, *, #374, .T. ) ;
#550 = TOROIDAL_SURFACE ( 'NONE', #139, 2.199999999999997069, 0.2000000000000013989 ) ;
#551 = FILL_AREA_STYLE_COLOUR ( '', #449 ) ;
#552 = TOROIDAL_SURFACE ( 'NONE', #195, 2.199999999999997069, 0.2000000000000013989 ) ;
#553 = EDGE_LOOP ( 'NONE', ( #400, #348, #196, #344 ) ) ;
#554 = ORIENTED_EDGE ( 'NONE', *, *, #271, .F. ) ;
#555 = ORIENTED_EDGE ( 'NONE', *, *, #218, .F. ) ;
#556 = DIRECTION ( 'NONE',  ( -1.000000000000000000, -0.000000000000000000, -0.000000000000000000 ) ) ;
#557 = ADVANCED_FACE ( 'NONE', ( #538 ), #207, .T. ) ;
#558 = ORIENTED_EDGE ( 'NONE', *, *, #247, .F. ) ;
#559 = ORIENTED_EDGE ( 'NONE', *, *, #629, .T. ) ;
#560 = DIRECTION ( 'NONE',  ( -1.000000000000000000, 0.000000000000000000, -0.000000000000000000 ) ) ;
#561 = AXIS2_PLACEMENT_3D ( 'NONE', #604, #382, #305 ) ;
#562 = CONICAL_SURFACE ( 'NONE', #315, 1.443375672974064106, 1.013248818828627273 ) ;
#563 = ORIENTED_EDGE ( 'NONE', *, *, #194, .F. ) ;
#564 = CARTESIAN_POINT ( 'NONE',  ( -30.00000000000000000, 2.199999999999997069, 0.000000000000000000 ) ) ;
#565 = CARTESIAN_POINT ( 'NONE',  ( -32.20000000000000284, -0.7216878364870326079, -1.249999999999999778 ) ) ;
#566 = VECTOR ( 'NONE', #687, 1000.000000000000114 ) ;
#567 = EDGE_CURVE ( 'NONE', #651, #373, #244, .T. ) ;
#568 = EDGE_LOOP ( 'NONE', ( #165, #378, #208, #434 ) ) ;
#569 = FACE_OUTER_BOUND ( 'NONE', #451, .T. ) ;
#570 = FACE_OUTER_BOUND ( 'NONE', #231, .T. ) ;
#571 = ORIENTED_EDGE ( 'NONE', *, *, #481, .T. ) ;
#572 = ADVANCED_FACE ( 'Bface2', ( #637 ), #632, .T. ) ;
#573 = CARTESIAN_POINT ( 'NONE',  ( -1031.829999999999927, -5.995863809075160294E-14, 0.000000000000000000 ) ) ;
#574 = CARTESIAN_POINT ( 'NONE',  ( -32.20000000000000284, 2.219290746934188868E-17, -3.599228117386017840E-16 ) ) ;
#575 = ADVANCED_BREP_SHAPE_REPRESENTATION ( 'GB╱T 70.2-2015[内六角平圆头螺钉M4×30]', ( #209, #436 ), #609 ) ;
#576 = AXIS2_PLACEMENT_3D ( 'NONE', #359, #187, #519 ) ;
#577 = DIRECTION ( 'NONE',  ( -1.000000000000000000, -0.000000000000000000, -0.000000000000000000 ) ) ;
#578 = LINE ( 'NONE', #242, #723 ) ;
#579 = MECHANICAL_DESIGN_GEOMETRIC_PRESENTATION_REPRESENTATION (  '', ( #534 ), #181 ) ;
#580 = AXIS2_PLACEMENT_3D ( 'NONE', #458, #54, #406 ) ;
#581 = AXIS2_PLACEMENT_3D ( 'NONE', #715, #217, #98 ) ;
#582 = CARTESIAN_POINT ( 'NONE',  ( -30.00000000000000355, 2.694222958124173555E-16, -2.199999999999997069 ) ) ;
#583 = DIRECTION ( 'NONE',  ( -1.000000000000000000, -5.998083099822095465E-17, -0.000000000000000000 ) ) ;
#584 = CARTESIAN_POINT ( 'NONE',  ( -32.20000000000000284, -1.443375672974064328, -2.818925648462312317E-15 ) ) ;
#585 =( NAMED_UNIT ( * ) SI_UNIT ( $, .STERADIAN. ) SOLID_ANGLE_UNIT ( ) );
#586 = CARTESIAN_POINT ( 'NONE',  ( -30.00000000000000000, 0.7216878364870321638, -1.250000000000000222 ) ) ;
#587 = PRESENTATION_LAYER_ASSIGNMENT (  '', '', ( #169 ) ) ;
#588 = DIRECTION ( 'NONE',  ( -1.000000000000000000, -0.000000000000000000, -0.000000000000000000 ) ) ;
#589 =( NAMED_UNIT ( * ) PLANE_ANGLE_UNIT ( ) SI_UNIT ( $, .RADIAN. ) );
#590 = EDGE_CURVE ( 'NONE', #614, #496, #700, .T. ) ;
#591 = VERTEX_POINT ( 'NONE', #695 ) ;
#592 = DIRECTION ( 'NONE',  ( 0.000000000000000000, 1.000000000000000000, 0.000000000000000000 ) ) ;
#593 = CARTESIAN_POINT ( 'NONE',  ( -30.90000000000000213, -1.443375672974065216, -5.870030462665943960E-16 ) ) ;
#594 = ORIENTED_EDGE ( 'NONE', *, *, #395, .T. ) ;
#595 = DIRECTION ( 'NONE',  ( -1.000000000000000000, -0.000000000000000000, -0.000000000000000000 ) ) ;
#596 = EDGE_LOOP ( 'NONE', ( #328, #394, #705, #100, #430, #494 ) ) ;
#597 = DIRECTION ( 'NONE',  ( -1.000000000000000000, -0.000000000000000000, -0.000000000000000000 ) ) ;
#598 = EDGE_CURVE ( 'NONE', #496, #614, #653, .T. ) ;
#599 = FACE_OUTER_BOUND ( 'NONE', #553, .T. ) ;
#600 = EDGE_LOOP ( 'NONE', ( #94, #676, #510, #324 ) ) ;
#601 = CIRCLE ( 'NONE', #381, 2.199999999999997069 ) ;
#602 = SURFACE_SIDE_STYLE ('',( #154 ) ) ;
#603 = CIRCLE ( 'NONE', #28, 1.999999999999995781 ) ;
#604 = CARTESIAN_POINT ( 'NONE',  ( -30.00000000000000000, -1.443375672974065216, -5.870030462665943960E-16 ) ) ;
#605 = UNCERTAINTY_MEASURE_WITH_UNIT (LENGTH_MEASURE( 1.000000000000000082E-05 ), #525, 'distance_accuracy_value', 'NONE');
#606 = EDGE_LOOP ( 'NONE', ( #367, #136, #558, #714 ) ) ;
#607 = DIRECTION ( 'NONE',  ( 0.000000000000000000, 0.000000000000000000, 1.000000000000000000 ) ) ;
#608 = ORIENTED_EDGE ( 'NONE', *, *, #427, .F. ) ;
#609 =( GEOMETRIC_REPRESENTATION_CONTEXT ( 3 ) GLOBAL_UNCERTAINTY_ASSIGNED_CONTEXT ( ( #212 ) ) GLOBAL_UNIT_ASSIGNED_CONTEXT ( ( #20, #698, #646 ) ) REPRESENTATION_CONTEXT ( 'NONE', 'WORKASPACE' ) );
#610 =( NAMED_UNIT ( * ) SI_UNIT ( $, .STERADIAN. ) SOLID_ANGLE_UNIT ( ) );
#611 = AXIS2_PLACEMENT_3D ( 'NONE', #512, #49, #345 ) ;
#612 = EDGE_CURVE ( 'NONE', #456, #725, #334, .T. ) ;
#613 = EDGE_LOOP ( 'NONE', ( #200, #504 ) ) ;
#614 = VERTEX_POINT ( 'NONE', #249 ) ;
#615 = DIRECTION ( 'NONE',  ( 0.000000000000000000, 1.224646799147353207E-16, -1.000000000000000000 ) ) ;
#616 = EDGE_LOOP ( 'NONE', ( #46, #32 ) ) ;
#617 = DIRECTION ( 'NONE',  ( 0.000000000000000000, 1.000000000000000000, 1.224646799147353207E-16 ) ) ;
#618 = DIRECTION ( 'NONE',  ( -0.5000000000000001110, 0.000000000000000000, 0.8660254037844385966 ) ) ;
#619 = B_SPLINE_CURVE_WITH_KNOTS ( 'NONE', 3,
 ( #168, #292, #627, #518, #409 ),
 .UNSPECIFIED., .F., .F.,
 ( 4, 1, 4 ),
 ( 2.309401076781758106E-07, 0.0007219187765947087830, 0.001443606613081739511 ),
 .UNSPECIFIED. ) ;
#620 = ADVANCED_FACE ( 'NONE', ( #471 ), #550, .F. ) ;
#621 = ORIENTED_EDGE ( 'NONE', *, *, #26, .T. ) ;
#622 = CARTESIAN_POINT ( 'NONE',  ( -32.20000000000000284, 1.443375672974064328, 6.505213034913026604E-16 ) ) ;
#623 = LINE ( 'NONE', #684, #566 ) ;
#624 = CARTESIAN_POINT ( 'NONE',  ( -32.20000000000000284, -0.7216878364870312756, 1.250000000000000444 ) ) ;
#625 = CARTESIAN_POINT ( 'NONE',  ( -30.00000000000000000, 1.443375672974064328, -3.128943976826325424E-17 ) ) ;
#626 = LINE ( 'NONE', #114, #96 ) ;
#627 = CARTESIAN_POINT ( 'NONE',  ( -32.13169213213475217, -1.082531754730548856, -0.6250000000000009992 ) ) ;
#628 = PRESENTATION_LAYER_ASSIGNMENT (  '', '', ( #534 ) ) ;
#629 = EDGE_CURVE ( 'NONE', #672, #725, #642, .T. ) ;
#630 = SURFACE_STYLE_FILL_AREA ( #300 ) ;
#631 = DIRECTION ( 'NONE',  ( -1.000000000000000000, -0.000000000000000000, -0.000000000000000000 ) ) ;
#632 = CYLINDRICAL_SURFACE ( 'NONE', #514, 1.999999999999997780 ) ;
#633 = AXIS2_PLACEMENT_3D ( 'NONE', #574, #175, #57 ) ;
#634 = AXIS2_PLACEMENT_3D ( 'NONE', #268, #141, #495 ) ;
#635 = FACE_BOUND ( 'NONE', #383, .T. ) ;
#636 = CARTESIAN_POINT ( 'NONE',  ( -30.82664516406750366, 0.8393307094615334307, -1.046236566859792605 ) ) ;
#637 = FACE_OUTER_BOUND ( 'NONE', #82, .T. ) ;
#638 = CARTESIAN_POINT ( 'NONE',  ( -30.90000000000000213, -1.443375672974065216, -5.870030462665943960E-16 ) ) ;
#639 = CARTESIAN_POINT ( 'NONE',  ( -32.16916666666573832, -1.323094366892894280, 0.2083333333333315940 ) ) ;
#640 = DIRECTION ( 'NONE',  ( -1.000000000000000000, -0.000000000000000000, -0.000000000000000000 ) ) ;
#641 = EDGE_CURVE ( 'NONE', #316, #225, #201, .T. ) ;
#642 = CIRCLE ( 'NONE', #192, 1.443375672974064106 ) ;
#643 = AXIS2_PLACEMENT_3D ( 'NONE', #289, #615, #617 ) ;
#644 = CARTESIAN_POINT ( 'NONE',  ( -30.82664516406750010, -0.8393307094615340969, 1.046236566859792383 ) ) ;
#645 = SURFACE_STYLE_USAGE ( .BOTH. , #79 ) ;
#646 =( NAMED_UNIT ( * ) SI_UNIT ( $, .STERADIAN. ) SOLID_ANGLE_UNIT ( ) );
#647 = ORIENTED_EDGE ( 'NONE', *, *, #116, .F. ) ;
#648 = ORIENTED_EDGE ( 'NONE', *, *, #218, .T. ) ;
#649 = CARTESIAN_POINT ( 'NONE',  ( -30.77942286340599765, -4.330215280939178002E-23, 1.249999999999999778 ) ) ;
#650 = EDGE_CURVE ( 'NONE', #42, #107, #199, .T. ) ;
#651 = VERTEX_POINT ( 'NONE', #81 ) ;
#652 = DIRECTION ( 'NONE',  ( 0.000000000000000000, 0.000000000000000000, -1.000000000000000000 ) ) ;
#653 = CIRCLE ( 'NONE', #325, 1.393782217350892916 ) ;
#654 = ORIENTED_EDGE ( 'NONE', *, *, #446, .T. ) ;
#655 = CARTESIAN_POINT ( 'NONE',  ( -30.00000000000000000, 0.000000000000000000, 0.000000000000000000 ) ) ;
#656 = EDGE_LOOP ( 'NONE', ( #549, #29 ) ) ;
#657 = CARTESIAN_POINT ( 'NONE',  ( -28.72727272727272663, 0.000000000000000000, 0.000000000000000000 ) ) ;
#658 = UNCERTAINTY_MEASURE_WITH_UNIT (LENGTH_MEASURE( 1.000000000000000082E-05 ), #287, 'distance_accuracy_value', 'NONE');
#659 = ORIENTED_EDGE ( 'NONE', *, *, #590, .F. ) ;
#660 = FACE_OUTER_BOUND ( 'NONE', #132, .T. ) ;
#661 = ADVANCED_FACE ( 'NONE', ( #599 ), #211, .F. ) ;
#662 = ORIENTED_EDGE ( 'NONE', *, *, #407, .F. ) ;
#663 = AXIS2_PLACEMENT_3D ( 'NONE', #252, #134, #479 ) ;
#664 = CARTESIAN_POINT ( 'NONE',  ( -32.20000000000000284, 1.443375672974064328, 6.505213034913026604E-16 ) ) ;
#665 = ORIENTED_EDGE ( 'NONE', *, *, #437, .T. ) ;
#666 = UNCERTAINTY_MEASURE_WITH_UNIT (LENGTH_MEASURE( 1.000000000000000082E-05 ), #215, 'distance_accuracy_value', 'NONE');
#667 = ORIENTED_EDGE ( 'NONE', *, *, #297, .F. ) ;
#668 = DIRECTION ( 'NONE',  ( -0.000000000000000000, 0.000000000000000000, -1.000000000000000000 ) ) ;
#669 = VECTOR ( 'NONE', #343, 1000.000000000000000 ) ;
#670 = CARTESIAN_POINT ( 'NONE',  ( 0.000000000000000000, 0.000000000000000000, 0.000000000000000000 ) ) ;
#671 = ORIENTED_EDGE ( 'NONE', *, *, #598, .F. ) ;
#672 = VERTEX_POINT ( 'NONE', #319 ) ;
#673 = EDGE_CURVE ( 'NONE', #153, #591, #235, .T. ) ;
#674 = CARTESIAN_POINT ( 'NONE',  ( -32.16916666666573121, 1.323094366892892060, -0.2083333333333330095 ) ) ;
#675 = ORIENTED_EDGE ( 'NONE', *, *, #481, .F. ) ;
#676 = ORIENTED_EDGE ( 'NONE', *, *, #567, .F. ) ;
#677 = DIRECTION ( 'NONE',  ( 0.000000000000000000, 0.000000000000000000, 1.000000000000000000 ) ) ;
#678 = CARTESIAN_POINT ( 'NONE',  ( -1031.829999999999927, -5.995863809075160294E-14, 0.000000000000000000 ) ) ;
#679 = ORIENTED_EDGE ( 'NONE', *, *, #157, .F. ) ;
#680 = CIRCLE ( 'NONE', #38, 0.2000000000000013989 ) ;
#681 = CARTESIAN_POINT ( 'NONE',  ( -30.90000000000000213, 1.443375672974064328, -3.128943976826325424E-17 ) ) ;
#682 = DIRECTION ( 'NONE',  ( 0.000000000000000000, 0.000000000000000000, 1.000000000000000000 ) ) ;
#683 = DIRECTION ( 'NONE',  ( -1.000000000000000000, -5.998083099822095465E-17, -0.000000000000000000 ) ) ;
#684 = CARTESIAN_POINT ( 'NONE',  ( -30.90000000000000213, 0.000000000000000000, 1.443375672974064106 ) ) ;
#685 = ADVANCED_FACE ( 'NONE', ( #711 ), #143, .F. ) ;
#686 = FILL_AREA_STYLE_COLOUR ( '', #390 ) ;
#687 = DIRECTION ( 'NONE',  ( -0.5291067161269946695, 0.000000000000000000, 0.8485552916276627444 ) ) ;
#688 = AXIS2_PLACEMENT_3D ( 'NONE', #412, #68, #119 ) ;
#689 = PLANE ( 'NONE',  #576 ) ;
#690 = CARTESIAN_POINT ( 'NONE',  ( -32.15037000055572491, -0.2394511050528690954, -1.250000000000000222 ) ) ;
#691 = AXIS2_PLACEMENT_3D ( 'NONE', #375, #30, #431 ) ;
#692 = FACE_OUTER_BOUND ( 'NONE', #269, .T. ) ;
#693 = EDGE_CURVE ( 'NONE', #107, #335, #444, .T. ) ;
#694 = CARTESIAN_POINT ( 'NONE',  ( -30.00000000000000000, -0.7216878364870328300, -1.250000000000000222 ) ) ;
#695 = CARTESIAN_POINT ( 'NONE',  ( -30.00000000000000000, -3.800000000000000266, -4.653657836759942730E-16 ) ) ;
#696 = ORIENTED_EDGE ( 'NONE', *, *, #259, .F. ) ;
#697 = CARTESIAN_POINT ( 'NONE',  ( -30.77942286340599765, -0.2440392103072530072, 1.249999999999999778 ) ) ;
#698 =( NAMED_UNIT ( * ) PLANE_ANGLE_UNIT ( ) SI_UNIT ( $, .RADIAN. ) );
#699 = EDGE_CURVE ( 'NONE', #97, #442, #129, .T. ) ;
#700 = CIRCLE ( 'NONE', #688, 1.393782217350892916 ) ;
#701 = AXIS2_PLACEMENT_3D ( 'NONE', #353, #577, #414 ) ;
#702 = DIRECTION ( 'NONE',  ( 0.000000000000000000, 0.000000000000000000, 1.000000000000000000 ) ) ;
#703 = CARTESIAN_POINT ( 'NONE',  ( -32.13169213213475217, -1.082531754730549078, 0.6249999999999993339 ) ) ;
#704 = AXIS2_PLACEMENT_3D ( 'NONE', #146, #37, #44 ) ;
#705 = ORIENTED_EDGE ( 'NONE', *, *, #170, .T. ) ;
#706 = DIRECTION ( 'NONE',  ( 0.000000000000000000, 0.000000000000000000, -1.000000000000000000 ) ) ;
#707 = DIRECTION ( 'NONE',  ( -1.000000000000000000, -5.998083099822095465E-17, -0.000000000000000000 ) ) ;
#708 = ORIENTED_EDGE ( 'NONE', *, *, #4, .F. ) ;
#709 = DIRECTION ( 'NONE',  ( -0.000000000000000000, 0.8660254037844387076, 0.4999999999999998335 ) ) ;
#710 = ORIENTED_EDGE ( 'NONE', *, *, #203, .T. ) ;
#711 = FACE_OUTER_BOUND ( 'NONE', #445, .T. ) ;
#712 = ORIENTED_EDGE ( 'NONE', *, *, #142, .F. ) ;
#713 = EDGE_CURVE ( 'NONE', #725, #456, #733, .T. ) ;
#714 = ORIENTED_EDGE ( 'NONE', *, *, #89, .F. ) ;
#715 = CARTESIAN_POINT ( 'NONE',  ( -0.3500000000000000333, 0.000000000000000000, 0.000000000000000000 ) ) ;
#716 = ORIENTED_EDGE ( 'NONE', *, *, #693, .T. ) ;
#717 = ORIENTED_EDGE ( 'NONE', *, *, #427, .T. ) ;
#718 = CARTESIAN_POINT ( 'NONE',  ( -32.13169213213475217, 1.082531754730548190, 0.6250000000000003331 ) ) ;
#719 = FILL_AREA_STYLE ('',( #272 ) ) ;
#720 = ADVANCED_FACE ( 'Bface3', ( #88 ), #126, .F. ) ;
#721 = ORIENTED_EDGE ( 'NONE', *, *, #386, .F. ) ;
#722 = DIRECTION ( 'NONE',  ( -1.000000000000000000, -0.000000000000000000, -0.000000000000000000 ) ) ;
#723 = VECTOR ( 'NONE', #618, 1000.000000000000000 ) ;
#724 = CONICAL_SURFACE ( 'NONE', #85, 1.443375672974064106, 1.013248818828627273 ) ;
#725 = VERTEX_POINT ( 'NONE', #365 ) ;
#726 = ORIENTED_EDGE ( 'NONE', *, *, #203, .F. ) ;
#727 = CARTESIAN_POINT ( 'NONE',  ( -30.77942286340599765, -4.330215280939178002E-23, 1.249999999999999778 ) ) ;
#728 = CARTESIAN_POINT ( 'NONE',  ( -32.16927320067242846, 0.4819564059043950355, -1.250000000000000222 ) ) ;
#729 = SHAPE_DEFINITION_REPRESENTATION ( #404, #575 ) ;
#730 = VERTEX_POINT ( 'NONE', #308 ) ;
#731 = CARTESIAN_POINT ( 'NONE',  ( -29.80000000000000071, 0.000000000000000000, 0.000000000000000000 ) ) ;
#732 = CARTESIAN_POINT ( 'NONE',  ( -32.20000000000000284, 0.7216878364870323859, 1.249999999999999778 ) ) ;
#733 = CIRCLE ( 'NONE', #339, 1.443375672974064328 ) ;
#734 = AXIS2_PLACEMENT_3D ( 'NONE', #657, #668, #101 ) ;
ENDSEC;
END-ISO-10303-21;
