ISO-10303-21;
HEADER;
FILE_DESCRIPTION (( 'STEP AP214' ),
    '1' );
FILE_NAME ('LB.step',
    '2023-08-15T02:57:53',
    ( '' ),
    ( '' ),
    'SwSTEP 2.0',
    'SolidWorks 2022',
    '' );
FILE_SCHEMA (( 'AUTOMOTIVE_DESIGN' ));
ENDSEC;

DATA;
#1 = COLOUR_RGB ( '',1.000000000000000000, 1.000000000000000000, 1.000000000000000000 ) ;
#2 = LINE ( 'NONE', #102, #570 ) ;
#3 = EDGE_CURVE ( 'NONE', #134, #210, #356, .T. ) ;
#4 = CARTESIAN_POINT ( 'NONE',  ( 18.09999999999999787, 3.000000000000000000, 15.09999999999999964 ) ) ;
#5 = EDGE_LOOP ( 'NONE', ( #402, #84 ) ) ;
#6 = EDGE_CURVE ( 'NONE', #564, #184, #240, .T. ) ;
#7 = CARTESIAN_POINT ( 'NONE',  ( 21.29470074004590074, 4.215872289464954292, 3.000000000000001776 ) ) ;
#8 = VERTEX_POINT ( 'NONE', #471 ) ;
#9 = LINE ( 'NONE', #229, #555 ) ;
#10 = AXIS2_PLACEMENT_3D ( 'NONE', #186, #392, #339 ) ;
#11 =( GEOMETRIC_REPRESENTATION_CONTEXT ( 3 ) GLOBAL_UNCERTAINTY_ASSIGNED_CONTEXT ( ( #204 ) ) GLOBAL_UNIT_ASSIGNED_CONTEXT ( ( #553, #612, #348 ) ) REPRESENTATION_CONTEXT ( 'NONE', 'WORKASPACE' ) );
#12 = SURFACE_STYLE_FILL_AREA ( #532 ) ;
#13 = CARTESIAN_POINT ( 'NONE',  ( 0.000000000000000000, 20.00000000000000000, 71.42375415782429116 ) ) ;
#14 = DIRECTION ( 'NONE',  ( 0.000000000000000000, 0.000000000000000000, 1.000000000000000000 ) ) ;
#15 =( BOUNDED_CURVE ( )  B_SPLINE_CURVE ( 3, ( #284, #241, #674, #143 ),
 .UNSPECIFIED., .F., .F. ) 
 B_SPLINE_CURVE_WITH_KNOTS ( ( 4, 4 ),
 ( 1.570796326794896558, 3.141592653589795336 ),
 .UNSPECIFIED. ) 
 CURVE ( )  GEOMETRIC_REPRESENTATION_ITEM ( )  RATIONAL_B_SPLINE_CURVE ( ( 1.000000000000000000, 0.8047378541243644934, 0.8047378541243644934, 1.000000000000000000 ) ) 
 REPRESENTATION_ITEM ( '' )  );
#16 = CARTESIAN_POINT ( 'NONE',  ( 16.00000000000000000, 3.000000000000000000, 15.75000000000000000 ) ) ;
#17 = CIRCLE ( 'NONE', #256, 2.750000000000000888 ) ;
#18 = DIRECTION ( 'NONE',  ( -0.000000000000000000, 1.000000000000000000, -0.000000000000000000 ) ) ;
#19 = ORIENTED_EDGE ( 'NONE', *, *, #439, .T. ) ;
#20 = EDGE_CURVE ( 'NONE', #404, #328, #265, .T. ) ;
#21 = CYLINDRICAL_SURFACE ( 'NONE', #106, 2.750000000000000888 ) ;
#22 = FACE_OUTER_BOUND ( 'NONE', #390, .T. ) ;
#23 = VERTEX_POINT ( 'NONE', #110 ) ;
#24 = CARTESIAN_POINT ( 'NONE',  ( 8.000000000000000000, 20.00000000000000000, 3.000000000000001776 ) ) ;
#25 = DIRECTION ( 'NONE',  ( 0.000000000000000000, 0.000000000000000000, -1.000000000000000000 ) ) ;
#26 = VERTEX_POINT ( 'NONE', #362 ) ;
#27 = CARTESIAN_POINT ( 'NONE',  ( -16.00000000000000000, 3.000000000000000000, 15.75000000000000000 ) ) ;
#28 = LINE ( 'NONE', #437, #556 ) ;
#29 = CARTESIAN_POINT ( 'NONE',  ( -18.09999999999999787, 3.000000000000000000, 15.09999999999999964 ) ) ;
#30 = AXIS2_PLACEMENT_3D ( 'NONE', #75, #474, #642 ) ;
#31 = STYLED_ITEM ( 'NONE', ( #482 ), #518 ) ;
#32 = DIRECTION ( 'NONE',  ( 0.000000000000000000, 0.000000000000000000, -1.000000000000000000 ) ) ;
#33 = EDGE_LOOP ( 'NONE', ( #313, #252, #147, #432 ) ) ;
#34 = EDGE_CURVE ( 'NONE', #511, #260, #582, .T. ) ;
#35 = DIRECTION ( 'NONE',  ( -0.5017677737667065596, 0.8650023706379095234, 0.000000000000000000 ) ) ;
#36 = ORIENTED_EDGE ( 'NONE', *, *, #320, .F. ) ;
#37 = CARTESIAN_POINT ( 'NONE',  ( 16.00000000000000000, 3.000000000000000000, 10.24999999999999822 ) ) ;
#38 = CARTESIAN_POINT ( 'NONE',  ( 18.09999999999999787, 3.000000000000000000, 19.00000000000000000 ) ) ;
#39 = ORIENTED_EDGE ( 'NONE', *, *, #55, .T. ) ;
#40 = AXIS2_PLACEMENT_3D ( 'NONE', #269, #168, #382 ) ;
#41 = ORIENTED_EDGE ( 'NONE', *, *, #679, .F. ) ;
#42 = VECTOR ( 'NONE', #513, 1000.000000000000000 ) ;
#43 = EDGE_CURVE ( 'NONE', #105, #564, #523, .T. ) ;
#44 = CARTESIAN_POINT ( 'NONE',  ( -8.000000000000000000, 20.00000000000000000, -8.673617379884035472E-16 ) ) ;
#45 = DIRECTION ( 'NONE',  ( 0.000000000000000000, 0.000000000000000000, -1.000000000000000000 ) ) ;
#46 = ORIENTED_EDGE ( 'NONE', *, *, #444, .F. ) ;
#47 = LINE ( 'NONE', #253, #308 ) ;
#48 = ORIENTED_EDGE ( 'NONE', *, *, #221, .T. ) ;
#49 = DIRECTION ( 'NONE',  ( 0.000000000000000000, 1.000000000000000000, 0.000000000000000000 ) ) ;
#50 = EDGE_CURVE ( 'NONE', #489, #8, #427, .T. ) ;
#51 = ORIENTED_EDGE ( 'NONE', *, *, #658, .F. ) ;
#52 = VECTOR ( 'NONE', #59, 1000.000000000000000 ) ;
#53 = CIRCLE ( 'NONE', #465, 4.625000000000000888 ) ;
#54 = LINE ( 'NONE', #520, #647 ) ;
#55 = EDGE_CURVE ( 'NONE', #399, #134, #54, .T. ) ;
#56 = ORIENTED_EDGE ( 'NONE', *, *, #320, .T. ) ;
#57 = DIRECTION ( 'NONE',  ( 0.000000000000000000, -1.107506670533258812E-16, 1.000000000000000000 ) ) ;
#58 = ORIENTED_EDGE ( 'NONE', *, *, #591, .T. ) ;
#59 = DIRECTION ( 'NONE',  ( -1.000000000000000000, -0.000000000000000000, -0.000000000000000000 ) ) ;
#60 = FILL_AREA_STYLE_COLOUR ( '', #1 ) ;
#61 = AXIS2_PLACEMENT_3D ( 'NONE', #376, #117, #595 ) ;
#62 = CARTESIAN_POINT ( 'NONE',  ( -16.00000000000000000, 3.000000000000000000, 13.00000000000000000 ) ) ;
#63 = MECHANICAL_DESIGN_GEOMETRIC_PRESENTATION_REPRESENTATION (  '', ( #161 ), #249 ) ;
#64 = CARTESIAN_POINT ( 'NONE',  ( 22.00000000000000000, -1.160113237383588230E-15, 15.09999999999999964 ) ) ;
#65 = DIRECTION ( 'NONE',  ( 0.000000000000000000, 0.000000000000000000, 1.000000000000000000 ) ) ;
#66 = CARTESIAN_POINT ( 'NONE',  ( 22.00000000000000000, 2.999999999999998224, 4.625000000000000888 ) ) ;
#67 = CARTESIAN_POINT ( 'NONE',  ( 22.00000000000000000, 3.000000000000000444, 0.2948729810778039084 ) ) ;
#68 = ORIENTED_EDGE ( 'NONE', *, *, #462, .F. ) ;
#69 = EDGE_CURVE ( 'NONE', #573, #547, #614, .T. ) ;
#70 = CARTESIAN_POINT ( 'NONE',  ( 22.00000000000000000, 3.000000000000000444, 0.2948729810778039084 ) ) ;
#71 = FACE_OUTER_BOUND ( 'NONE', #296, .T. ) ;
#72 = ORIENTED_EDGE ( 'NONE', *, *, #506, .T. ) ;
#73 = AXIS2_PLACEMENT_3D ( 'NONE', #130, #327, #318 ) ;
#74 = CARTESIAN_POINT ( 'NONE',  ( 0.000000000000000000, 0.000000000000000000, 0.000000000000000000 ) ) ;
#75 = CARTESIAN_POINT ( 'NONE',  ( -22.00000000000000000, 4.625000000000000000, 4.625000000000000888 ) ) ;
#76 = LINE ( 'NONE', #295, #142 ) ;
#77 = ORIENTED_EDGE ( 'NONE', *, *, #466, .T. ) ;
#78 = FILL_AREA_STYLE_COLOUR ( '', #477 ) ;
#79 = PLANE ( 'NONE',  #454 ) ;
#80 = DIRECTION ( 'NONE',  ( 0.000000000000000000, 0.000000000000000000, -1.000000000000000000 ) ) ;
#81 = VERTEX_POINT ( 'NONE', #574 ) ;
#82 = DIRECTION ( 'NONE',  ( 0.000000000000000000, 0.000000000000000000, 1.000000000000000000 ) ) ;
#83 = DIRECTION ( 'NONE',  ( 0.000000000000000000, 0.000000000000000000, 1.000000000000000000 ) ) ;
#84 = ORIENTED_EDGE ( 'NONE', *, *, #403, .F. ) ;
#85 = AXIS2_PLACEMENT_3D ( 'NONE', #566, #668, #445 ) ;
#86 = CARTESIAN_POINT ( 'NONE',  ( 21.29470074004590074, 4.215872289464954292, 0.000000000000000000 ) ) ;
#87 = FACE_OUTER_BOUND ( 'NONE', #583, .T. ) ;
#88 = ORIENTED_EDGE ( 'NONE', *, *, #6, .T. ) ;
#89 = EDGE_LOOP ( 'NONE', ( #656, #51, #243, #613 ) ) ;
#90 = DIRECTION ( 'NONE',  ( 0.000000000000000000, 0.000000000000000000, 1.000000000000000000 ) ) ;
#91 = ORIENTED_EDGE ( 'NONE', *, *, #280, .F. ) ;
#92 = EDGE_CURVE ( 'NONE', #524, #81, #203, .T. ) ;
#93 = ORIENTED_EDGE ( 'NONE', *, *, #627, .T. ) ;
#94 = DIRECTION ( 'NONE',  ( 0.000000000000000000, 0.000000000000000000, 1.000000000000000000 ) ) ;
#95 = ORIENTED_EDGE ( 'NONE', *, *, #569, .F. ) ;
#96 = AXIS2_PLACEMENT_3D ( 'NONE', #608, #552, #82 ) ;
#97 = ORIENTED_EDGE ( 'NONE', *, *, #636, .T. ) ;
#98 = AXIS2_PLACEMENT_3D ( 'NONE', #645, #322, #426 ) ;
#99 = LINE ( 'NONE', #7, #682 ) ;
#100 = ORIENTED_EDGE ( 'NONE', *, *, #92, .F. ) ;
#101 = ADVANCED_FACE ( 'NONE', ( #303 ), #528, .T. ) ;
#102 = CARTESIAN_POINT ( 'NONE',  ( -22.00000000000000000, 4.625000000000000000, 15.09999999999999964 ) ) ;
#103 = ORIENTED_EDGE ( 'NONE', *, *, #112, .F. ) ;
#104 = FACE_OUTER_BOUND ( 'NONE', #250, .T. ) ;
#105 = VERTEX_POINT ( 'NONE', #578 ) ;
#106 = AXIS2_PLACEMENT_3D ( 'NONE', #430, #478, #598 ) ;
#107 = CIRCLE ( 'NONE', #603, 8.000000000000000000 ) ;
#108 = DIRECTION ( 'NONE',  ( 0.000000000000000000, 0.000000000000000000, -1.000000000000000000 ) ) ;
#109 = ORIENTED_EDGE ( 'NONE', *, *, #292, .T. ) ;
#110 = CARTESIAN_POINT ( 'NONE',  ( -22.00000000000000000, 0.000000000000000000, 4.625000000000000888 ) ) ;
#111 = ORIENTED_EDGE ( 'NONE', *, *, #421, .F. ) ;
#112 = EDGE_CURVE ( 'NONE', #675, #399, #47, .T. ) ;
#113 = DIRECTION ( 'NONE',  ( 0.000000000000000000, 1.000000000000000000, 0.000000000000000000 ) ) ;
#114 = LINE ( 'NONE', #271, #238 ) ;
#115 = PRODUCT_RELATED_PRODUCT_CATEGORY ( 'part', '', ( #122 ) ) ;
#116 = AXIS2_PLACEMENT_3D ( 'NONE', #342, #32, #132 ) ;
#117 = DIRECTION ( 'NONE',  ( -0.8650023706379095234, 0.5017677737667065596, 0.000000000000000000 ) ) ;
#118 = AXIS2_PLACEMENT_3D ( 'NONE', #251, #202, #459 ) ;
#119 = CARTESIAN_POINT ( 'NONE',  ( -16.00000000000000000, -1.734723475976807094E-15, 10.24999999999999822 ) ) ;
#120 = FACE_BOUND ( 'NONE', #609, .T. ) ;
#121 = SURFACE_SIDE_STYLE ('',( #12 ) ) ;
#122 = PRODUCT ( 'LB', 'LB', '', ( #604 ) ) ;
#123 = APPLICATION_PROTOCOL_DEFINITION ( 'draft international standard', 'automotive_design', 1998, #233 ) ;
#124 = CARTESIAN_POINT ( 'NONE',  ( -22.00000000000000000, 2.999999999999998224, 0.2948729810778073501 ) ) ;
#125 = EDGE_CURVE ( 'NONE', #416, #184, #17, .T. ) ;
#126 = CARTESIAN_POINT ( 'NONE',  ( -21.05737526271796156, 4.625000000000000000, 3.000000000000001776 ) ) ;
#127 = EDGE_LOOP ( 'NONE', ( #337, #200, #367, #103, #519 ) ) ;
#128 = PLANE ( 'NONE',  #30 ) ;
#129 = VECTOR ( 'NONE', #162, 1000.000000000000000 ) ;
#130 = CARTESIAN_POINT ( 'NONE',  ( 16.00000000000000000, -1.734723475976807094E-15, 13.00000000000000000 ) ) ;
#131 = ORIENTED_EDGE ( 'NONE', *, *, #316, .T. ) ;
#132 = DIRECTION ( 'NONE',  ( -1.000000000000000000, 0.000000000000000000, -0.000000000000000000 ) ) ;
#133 = FACE_OUTER_BOUND ( 'NONE', #283, .T. ) ;
#134 = VERTEX_POINT ( 'NONE', #461 ) ;
#135 = CARTESIAN_POINT ( 'NONE',  ( -16.00000000000000000, -1.734723475976807094E-15, 13.00000000000000000 ) ) ;
#136 = LINE ( 'NONE', #239, #196 ) ;
#137 = ORIENTED_EDGE ( 'NONE', *, *, #679, .T. ) ;
#138 = DIRECTION ( 'NONE',  ( -1.000000000000000000, -0.000000000000000000, -0.000000000000000000 ) ) ;
#139 = CARTESIAN_POINT ( 'NONE',  ( 0.000000000000000000, 20.00000000000000000, 3.000000000000001776 ) ) ;
#140 = EDGE_LOOP ( 'NONE', ( #191, #41, #458, #91 ) ) ;
#141 = VECTOR ( 'NONE', #666, 1000.000000000000000 ) ;
#142 = VECTOR ( 'NONE', #508, 1000.000000000000000 ) ;
#143 = CARTESIAN_POINT ( 'NONE',  ( 22.00000000000000000, 3.000000000000000444, 4.625000000000004441 ) ) ;
#144 = CARTESIAN_POINT ( 'NONE',  ( 22.00000000000000000, 0.000000000000000000, 4.625000000000000888 ) ) ;
#145 = ORIENTED_EDGE ( 'NONE', *, *, #439, .F. ) ;
#146 = EDGE_CURVE ( 'NONE', #467, #381, #99, .T. ) ;
#147 = ORIENTED_EDGE ( 'NONE', *, *, #667, .T. ) ;
#148 = CARTESIAN_POINT ( 'NONE',  ( 21.05737526271796156, 4.625000000000000000, 3.000000000000001776 ) ) ;
#149 = DIRECTION ( 'NONE',  ( 0.000000000000000000, 0.000000000000000000, 1.000000000000000000 ) ) ;
#150 = EDGE_LOOP ( 'NONE', ( #451, #505 ) ) ;
#151 = CARTESIAN_POINT ( 'NONE',  ( 9.082524891698046332, 25.26856162455041499, 3.000000000000002665 ) ) ;
#152 = DIRECTION ( 'NONE',  ( 0.000000000000000000, 1.000000000000000000, -0.000000000000000000 ) ) ;
#153 = ADVANCED_FACE ( 'NONE', ( #255 ), #407, .F. ) ;
#154 = DIRECTION ( 'NONE',  ( 0.000000000000000000, 0.000000000000000000, 1.000000000000000000 ) ) ;
#155 = ORIENTED_EDGE ( 'NONE', *, *, #569, .T. ) ;
#156 = EDGE_CURVE ( 'NONE', #164, #134, #2, .T. ) ;
#157 = CARTESIAN_POINT ( 'NONE',  ( -22.00000000000000000, -1.160113237383588230E-15, 15.09999999999999964 ) ) ;
#158 = DIRECTION ( 'NONE',  ( -1.000000000000000000, -0.000000000000000000, -0.000000000000000000 ) ) ;
#159 = ORIENTED_EDGE ( 'NONE', *, *, #379, .T. ) ;
#160 = VECTOR ( 'NONE', #507, 1000.000000000000000 ) ;
#161 = STYLED_ITEM ( 'NONE', ( #494 ), #468 ) ;
#162 = DIRECTION ( 'NONE',  ( -1.000000000000000000, -0.000000000000000000, -0.000000000000000000 ) ) ;
#163 = EDGE_CURVE ( 'NONE', #105, #416, #634, .T. ) ;
#164 = VERTEX_POINT ( 'NONE', #157 ) ;
#165 = DIRECTION ( 'NONE',  ( 0.000000000000000000, 0.000000000000000000, -1.000000000000000000 ) ) ;
#166 = DIRECTION ( 'NONE',  ( 0.000000000000000000, 0.000000000000000000, -1.000000000000000000 ) ) ;
#167 = SURFACE_SIDE_STYLE ('',( #594 ) ) ;
#168 = DIRECTION ( 'NONE',  ( 0.000000000000000000, -1.000000000000000000, -1.107506670533258812E-16 ) ) ;
#169 = PLANE ( 'NONE',  #226 ) ;
#170 = ADVANCED_FACE ( 'NONE', ( #575, #364, #104 ), #259, .F. ) ;
#171 = CIRCLE ( 'NONE', #96, 2.750000000000000888 ) ;
#172 = CARTESIAN_POINT ( 'NONE',  ( -21.05737526271795446, 4.625000000000000888, 0.000000000000000000 ) ) ;
#173 = CIRCLE ( 'NONE', #344, 8.000000000000000000 ) ;
#174 = FACE_OUTER_BOUND ( 'NONE', #607, .T. ) ;
#175 = EDGE_LOOP ( 'NONE', ( #641, #529, #652, #341 ) ) ;
#176 =( NAMED_UNIT ( * ) PLANE_ANGLE_UNIT ( ) SI_UNIT ( $, .RADIAN. ) );
#177 = CARTESIAN_POINT ( 'NONE',  ( -21.38017255183530452, 4.068526597521548105, -1.463831910880252231E-15 ) ) ;
#178 = DIRECTION ( 'NONE',  ( -1.000000000000000000, 0.000000000000000000, 0.000000000000000000 ) ) ;
#179 = ORIENTED_EDGE ( 'NONE', *, *, #473, .F. ) ;
#180 = FACE_BOUND ( 'NONE', #5, .T. ) ;
#181 = APPLICATION_CONTEXT ( 'automotive_design' ) ;
#182 = AXIS2_PLACEMENT_3D ( 'NONE', #680, #678, #314 ) ;
#183 = LINE ( 'NONE', #389, #397 ) ;
#184 = VERTEX_POINT ( 'NONE', #262 ) ;
#185 = EDGE_CURVE ( 'NONE', #381, #511, #417, .T. ) ;
#186 = CARTESIAN_POINT ( 'NONE',  ( -16.00000000000000000, -1.734723475976807094E-15, 13.00000000000000000 ) ) ;
#187 = DIRECTION ( 'NONE',  ( -0.000000000000000000, 1.000000000000000000, -0.000000000000000000 ) ) ;
#188 = ORIENTED_EDGE ( 'NONE', *, *, #146, .T. ) ;
#189 = DIRECTION ( 'NONE',  ( 0.000000000000000000, 0.000000000000000000, -1.000000000000000000 ) ) ;
#190 = CARTESIAN_POINT ( 'NONE',  ( -22.00000000000000000, 2.999999999999998224, 0.2948729810778073501 ) ) ;
#191 = ORIENTED_EDGE ( 'NONE', *, *, #69, .F. ) ;
#192 = ADVANCED_FACE ( 'NONE', ( #588 ), #21, .F. ) ;
#193 = DIRECTION ( 'NONE',  ( 1.000000000000000000, 0.000000000000000000, 0.000000000000000000 ) ) ;
#194 = CARTESIAN_POINT ( 'NONE',  ( 22.00000000000000000, 4.625000000000000000, 4.625000000000000888 ) ) ;
#195 = ORIENTED_EDGE ( 'NONE', *, *, #479, .F. ) ;
#196 = VECTOR ( 'NONE', #563, 1000.000000000000000 ) ;
#197 = ORIENTED_EDGE ( 'NONE', *, *, #586, .T. ) ;
#198 = CYLINDRICAL_SURFACE ( 'NONE', #464, 2.750000000000000888 ) ;
#199 = CARTESIAN_POINT ( 'NONE',  ( 0.000000000000000000, 20.00000000000000000, -8.673617379884035472E-16 ) ) ;
#200 = ORIENTED_EDGE ( 'NONE', *, *, #156, .T. ) ;
#201 = ORIENTED_EDGE ( 'NONE', *, *, #403, .T. ) ;
#202 = DIRECTION ( 'NONE',  ( 0.000000000000000000, 1.000000000000000000, 0.000000000000000000 ) ) ;
#203 = LINE ( 'NONE', #306, #52 ) ;
#204 = UNCERTAINTY_MEASURE_WITH_UNIT (LENGTH_MEASURE( 1.000000000000000082E-05 ), #553, 'distance_accuracy_value', 'NONE');
#205 = ADVANCED_FACE ( 'NONE', ( #332 ), #483, .T. ) ;
#206 = DIRECTION ( 'NONE',  ( 0.000000000000000000, 0.000000000000000000, -1.000000000000000000 ) ) ;
#207 = VECTOR ( 'NONE', #311, 1000.000000000000000 ) ;
#208 = ADVANCED_FACE ( 'NONE', ( #217 ), #222, .T. ) ;
#209 = MECHANICAL_DESIGN_GEOMETRIC_PRESENTATION_REPRESENTATION (  '', ( #31 ), #357 ) ;
#210 = VERTEX_POINT ( 'NONE', #420 ) ;
#211 = DIRECTION ( 'NONE',  ( -0.000000000000000000, -0.000000000000000000, 1.000000000000000000 ) ) ;
#212 = CARTESIAN_POINT ( 'NONE',  ( 18.09999999999999787, 4.625000000000000000, 15.09999999999999964 ) ) ;
#213 = ORIENTED_EDGE ( 'NONE', *, *, #69, .T. ) ;
#214 = EDGE_CURVE ( 'NONE', #164, #23, #425, .T. ) ;
#215 = DIRECTION ( 'NONE',  ( 0.5017677737667065596, -0.8650023706379095234, 0.000000000000000000 ) ) ;
#216 = ORIENTED_EDGE ( 'NONE', *, *, #218, .T. ) ;
#217 = FACE_OUTER_BOUND ( 'NONE', #493, .T. ) ;
#218 = EDGE_CURVE ( 'NONE', #573, #210, #9, .T. ) ;
#219 = DIRECTION ( 'NONE',  ( 1.000000000000000000, 0.000000000000000000, 0.000000000000000000 ) ) ;
#220 = CARTESIAN_POINT ( 'NONE',  ( 21.69778307821797370, 3.520994706028869103, 0.09935529912591584134 ) ) ;
#221 = EDGE_CURVE ( 'NONE', #81, #675, #633, .T. ) ;
#222 = PLANE ( 'NONE',  #61 ) ;
#223 = CARTESIAN_POINT ( 'NONE',  ( 22.00000000000000000, 3.000000000000000444, 4.625000000000004441 ) ) ;
#224 = AXIS2_PLACEMENT_3D ( 'NONE', #4, #307, #463 ) ;
#225 = CARTESIAN_POINT ( 'NONE',  ( -8.000000000000000000, 20.00000000000000000, -8.673617379884035472E-16 ) ) ;
#226 = AXIS2_PLACEMENT_3D ( 'NONE', #596, #373, #655 ) ;
#227 = DIRECTION ( 'NONE',  ( 0.000000000000000000, 0.000000000000000000, -1.000000000000000000 ) ) ;
#228 = ORIENTED_EDGE ( 'NONE', *, *, #3, .F. ) ;
#229 = CARTESIAN_POINT ( 'NONE',  ( 22.00000000000000000, 3.000000000000000000, 19.00000000000000000 ) ) ;
#230 =( NAMED_UNIT ( * ) PLANE_ANGLE_UNIT ( ) SI_UNIT ( $, .RADIAN. ) );
#231 = ORIENTED_EDGE ( 'NONE', *, *, #452, .F. ) ;
#232 = CARTESIAN_POINT ( 'NONE',  ( -9.082524891698046332, 25.26856162455041499, 0.000000000000000000 ) ) ;
#233 = APPLICATION_CONTEXT ( 'automotive_design' ) ;
#234 = DIRECTION ( 'NONE',  ( 1.000000000000000000, 0.000000000000000000, 0.000000000000000000 ) ) ;
#235 = ORIENTED_EDGE ( 'NONE', *, *, #580, .F. ) ;
#236 = PLANE ( 'NONE',  #85 ) ;
#237 = VECTOR ( 'NONE', #530, 1000.000000000000000 ) ;
#238 = VECTOR ( 'NONE', #383, 1000.000000000000000 ) ;
#239 = CARTESIAN_POINT ( 'NONE',  ( 16.00000000000000000, -1.734723475976807094E-15, 15.75000000000000000 ) ) ;
#240 = LINE ( 'NONE', #443, #141 ) ;
#241 = CARTESIAN_POINT ( 'NONE',  ( 21.60955204958940357, 3.673097038856277141, 3.000000000000000888 ) ) ;
#242 = CARTESIAN_POINT ( 'NONE',  ( 22.00000000000000000, -1.592040838891559095E-15, 19.00000000000000000 ) ) ;
#243 = ORIENTED_EDGE ( 'NONE', *, *, #411, .F. ) ;
#244 = FACE_OUTER_BOUND ( 'NONE', #509, .T. ) ;
#245 = VERTEX_POINT ( 'NONE', #16 ) ;
#246 = FACE_OUTER_BOUND ( 'NONE', #676, .T. ) ;
#247 = VERTEX_POINT ( 'NONE', #225 ) ;
#248 = AXIS2_PLACEMENT_3D ( 'NONE', #368, #525, #108 ) ;
#249 =( GEOMETRIC_REPRESENTATION_CONTEXT ( 3 ) GLOBAL_UNCERTAINTY_ASSIGNED_CONTEXT ( ( #517 ) ) GLOBAL_UNIT_ASSIGNED_CONTEXT ( ( #650, #176, #544 ) ) REPRESENTATION_CONTEXT ( 'NONE', 'WORKASPACE' ) );
#250 = EDGE_LOOP ( 'NONE', ( #72, #395, #638, #581, #111, #263 ) ) ;
#251 = CARTESIAN_POINT ( 'NONE',  ( 16.00000000000000000, -1.734723475976807094E-15, 13.00000000000000000 ) ) ;
#252 = ORIENTED_EDGE ( 'NONE', *, *, #429, .F. ) ;
#253 = CARTESIAN_POINT ( 'NONE',  ( -22.00000000000000000, 2.999999999999998224, 4.625000000000000888 ) ) ;
#254 = EDGE_LOOP ( 'NONE', ( #576, #100, #310, #304, #597, #554 ) ) ;
#255 = FACE_OUTER_BOUND ( 'NONE', #89, .T. ) ;
#256 = AXIS2_PLACEMENT_3D ( 'NONE', #626, #152, #206 ) ;
#257 = VECTOR ( 'NONE', #187, 1000.000000000000000 ) ;
#258 = EDGE_LOOP ( 'NONE', ( #145, #88, #56, #353 ) ) ;
#259 = PLANE ( 'NONE',  #662 ) ;
#260 = VERTEX_POINT ( 'NONE', #321 ) ;
#261 = ADVANCED_FACE ( 'NONE', ( #120, #534 ), #545, .F. ) ;
#262 = CARTESIAN_POINT ( 'NONE',  ( -16.00000000000000000, 3.000000000000000000, 10.24999999999999822 ) ) ;
#263 = ORIENTED_EDGE ( 'NONE', *, *, #50, .T. ) ;
#264 = EDGE_CURVE ( 'NONE', #26, #349, #644, .T. ) ;
#265 = LINE ( 'NONE', #637, #514 ) ;
#266 = CLOSED_SHELL ( 'NONE', ( #192, #496, #535, #361, #261, #329, #153, #391, #312, #601, #170, #548, #205, #424, #208, #654, #512, #414, #610, #101 ) ) ;
#267 = VECTOR ( 'NONE', #355, 999.9999999999998863 ) ;
#268 = VECTOR ( 'NONE', #398, 1000.000000000000000 ) ;
#269 = CARTESIAN_POINT ( 'NONE',  ( -18.09999999999999787, -1.160113237383588033E-15, 15.09999999999999964 ) ) ;
#270 = EDGE_CURVE ( 'NONE', #349, #245, #440, .T. ) ;
#271 = CARTESIAN_POINT ( 'NONE',  ( 22.00000000000000000, -1.592040838891559095E-15, 19.00000000000000000 ) ) ;
#272 = DIRECTION ( 'NONE',  ( -0.000000000000000000, 1.000000000000000000, -0.000000000000000000 ) ) ;
#273 = LINE ( 'NONE', #66, #455 ) ;
#274 = CARTESIAN_POINT ( 'NONE',  ( 22.00000000000000000, -1.734723475976807094E-15, 15.09999999999999964 ) ) ;
#275 = CARTESIAN_POINT ( 'NONE',  ( -21.05737526271796156, 4.625000000000000000, 3.000000000000001776 ) ) ;
#276 = ORIENTED_EDGE ( 'NONE', *, *, #34, .F. ) ;
#277 = AXIS2_PLACEMENT_3D ( 'NONE', #631, #158, #154 ) ;
#278 = DIRECTION ( 'NONE',  ( 0.000000000000000000, 1.107506670533258689E-16, -1.000000000000000000 ) ) ;
#279 = VERTEX_POINT ( 'NONE', #67 ) ;
#280 = EDGE_CURVE ( 'NONE', #547, #489, #653, .T. ) ;
#281 = CARTESIAN_POINT ( 'NONE',  ( 22.00000000000000000, 0.000000000000000000, 4.625000000000000888 ) ) ;
#282 = DIRECTION ( 'NONE',  ( 1.000000000000000000, 0.000000000000000000, 0.000000000000000000 ) ) ;
#283 = EDGE_LOOP ( 'NONE', ( #228, #298, #498, #623 ) ) ;
#284 = CARTESIAN_POINT ( 'NONE',  ( 21.05737526271796156, 4.625000000000000000, 3.000000000000001776 ) ) ;
#285 = CARTESIAN_POINT ( 'NONE',  ( 9.082524891698046332, 25.26856162455041499, 71.42375415782429116 ) ) ;
#286 = ORIENTED_EDGE ( 'NONE', *, *, #3, .T. ) ;
#287 = CARTESIAN_POINT ( 'NONE',  ( -8.000000000000000000, 20.00000000000000000, 3.000000000000001776 ) ) ;
#288 = AXIS2_PLACEMENT_3D ( 'NONE', #611, #557, #193 ) ;
#289 = AXIS2_PLACEMENT_3D ( 'NONE', #199, #83, #618 ) ;
#290 = CARTESIAN_POINT ( 'NONE',  ( 0.000000000000000000, 20.00000000000000000, -8.673617379884035472E-16 ) ) ;
#291 = ORIENTED_EDGE ( 'NONE', *, *, #658, .T. ) ;
#292 = EDGE_CURVE ( 'NONE', #279, #524, #527, .T. ) ;
#293 = ORIENTED_EDGE ( 'NONE', *, *, #473, .T. ) ;
#294 = FACE_OUTER_BOUND ( 'NONE', #175, .T. ) ;
#295 = CARTESIAN_POINT ( 'NONE',  ( -9.082524891698046332, 25.26856162455041499, 71.42375415782429116 ) ) ;
#296 = EDGE_LOOP ( 'NONE', ( #231, #438, #301, #369 ) ) ;
#297 = LINE ( 'NONE', #625, #42 ) ;
#298 = ORIENTED_EDGE ( 'NONE', *, *, #156, .F. ) ;
#299 = CIRCLE ( 'NONE', #10, 2.750000000000000888 ) ;
#300 = AXIS2_PLACEMENT_3D ( 'NONE', #290, #497, #234 ) ;
#301 = ORIENTED_EDGE ( 'NONE', *, *, #270, .T. ) ;
#302 = EDGE_CURVE ( 'NONE', #363, #164, #543, .T. ) ;
#303 = FACE_OUTER_BOUND ( 'NONE', #140, .T. ) ;
#304 = ORIENTED_EDGE ( 'NONE', *, *, #591, .F. ) ;
#305 = PRODUCT_DEFINITION ( 'Î´Öª', '', #418, #449 ) ;
#306 = CARTESIAN_POINT ( 'NONE',  ( 22.00000000000000000, 4.625000000000000000, 0.000000000000000000 ) ) ;
#307 = DIRECTION ( 'NONE',  ( -0.000000000000000000, 1.000000000000000000, -0.000000000000000000 ) ) ;
#308 = VECTOR ( 'NONE', #406, 1000.000000000000000 ) ;
#309 = AXIS2_PLACEMENT_3D ( 'NONE', #194, #442, #336 ) ;
#310 = ORIENTED_EDGE ( 'NONE', *, *, #292, .F. ) ;
#311 = DIRECTION ( 'NONE',  ( -0.000000000000000000, 1.000000000000000000, -0.000000000000000000 ) ) ;
#312 = ADVANCED_FACE ( 'NONE', ( #378 ), #128, .F. ) ;
#313 = ORIENTED_EDGE ( 'NONE', *, *, #264, .F. ) ;
#314 = DIRECTION ( 'NONE',  ( 0.000000000000000000, -1.107506670533258442E-16, 1.000000000000000000 ) ) ;
#315 = ORIENTED_EDGE ( 'NONE', *, *, #506, .F. ) ;
#316 = EDGE_CURVE ( 'NONE', #526, #547, #584, .T. ) ;
#317 = CARTESIAN_POINT ( 'NONE',  ( 21.38017255183530807, 4.068526597521544552, -7.651392323150222592E-16 ) ) ;
#318 = DIRECTION ( 'NONE',  ( 0.000000000000000000, 0.000000000000000000, 1.000000000000000000 ) ) ;
#319 = AXIS2_PLACEMENT_3D ( 'NONE', #13, #165, #592 ) ;
#320 = EDGE_CURVE ( 'NONE', #184, #416, #629, .T. ) ;
#321 = CARTESIAN_POINT ( 'NONE',  ( -9.082524891698046332, 25.26856162455041499, 3.000000000000002665 ) ) ;
#322 = DIRECTION ( 'NONE',  ( -0.000000000000000000, -0.000000000000000000, 1.000000000000000000 ) ) ;
#323 = CARTESIAN_POINT ( 'NONE',  ( 22.00000000000000000, 4.625000000000000000, 0.000000000000000000 ) ) ;
#324 = SURFACE_STYLE_USAGE ( .BOTH. , #121 ) ;
#325 = SHAPE_DEFINITION_REPRESENTATION ( #330, #468 ) ;
#326 = CARTESIAN_POINT ( 'NONE',  ( -21.69778307821797014, 3.520994706028869992, 0.09935529912591635482 ) ) ;
#327 = DIRECTION ( 'NONE',  ( -0.000000000000000000, 1.000000000000000000, -0.000000000000000000 ) ) ;
#328 = VERTEX_POINT ( 'NONE', #24 ) ;
#329 = ADVANCED_FACE ( 'NONE', ( #180, #244 ), #549, .F. ) ;
#330 = PRODUCT_DEFINITION_SHAPE ( 'NONE', 'NONE',  #305 ) ;
#331 = CIRCLE ( 'NONE', #640, 8.000000000000000000 ) ;
#332 = FACE_OUTER_BOUND ( 'NONE', #628, .T. ) ;
#333 = AXIS2_PLACEMENT_3D ( 'NONE', #74, #539, #587 ) ;
#334 = VERTEX_POINT ( 'NONE', #605 ) ;
#335 = CARTESIAN_POINT ( 'NONE',  ( 22.00000000000000000, 4.625000000000000000, 4.625000000000000888 ) ) ;
#336 = DIRECTION ( 'NONE',  ( 0.000000000000000000, 0.000000000000000000, -1.000000000000000000 ) ) ;
#337 = ORIENTED_EDGE ( 'NONE', *, *, #214, .F. ) ;
#338 = EDGE_CURVE ( 'NONE', #334, #346, #589, .T. ) ;
#339 = DIRECTION ( 'NONE',  ( 0.000000000000000000, 0.000000000000000000, -1.000000000000000000 ) ) ;
#340 = LINE ( 'NONE', #665, #257 ) ;
#341 = ORIENTED_EDGE ( 'NONE', *, *, #125, .T. ) ;
#342 = CARTESIAN_POINT ( 'NONE',  ( 22.00000000000000000, 4.625000000000000000, 3.000000000000001776 ) ) ;
#343 = VECTOR ( 'NONE', #35, 999.9999999999998863 ) ;
#344 = AXIS2_PLACEMENT_3D ( 'NONE', #354, #94, #431 ) ;
#345 = DIRECTION ( 'NONE',  ( 0.000000000000000000, 0.000000000000000000, 1.000000000000000000 ) ) ;
#346 = VERTEX_POINT ( 'NONE', #232 ) ;
#347 = CARTESIAN_POINT ( 'NONE',  ( 22.00000000000000000, 4.625000000000000000, 4.625000000000000888 ) ) ;
#348 =( NAMED_UNIT ( * ) SI_UNIT ( $, .STERADIAN. ) SOLID_ANGLE_UNIT ( ) );
#349 = VERTEX_POINT ( 'NONE', #37 ) ;
#350 = ORIENTED_EDGE ( 'NONE', *, *, #421, .T. ) ;
#351 = FACE_OUTER_BOUND ( 'NONE', #600, .T. ) ;
#352 = VERTEX_POINT ( 'NONE', #287 ) ;
#353 = ORIENTED_EDGE ( 'NONE', *, *, #163, .F. ) ;
#354 = CARTESIAN_POINT ( 'NONE',  ( 0.000000000000000000, 20.00000000000000000, -8.673617379884035472E-16 ) ) ;
#355 = DIRECTION ( 'NONE',  ( 0.5017677737667065596, 0.8650023706379095234, 0.000000000000000000 ) ) ;
#356 = CIRCLE ( 'NONE', #476, 3.900000000000000799 ) ;
#357 =( GEOMETRIC_REPRESENTATION_CONTEXT ( 3 ) GLOBAL_UNCERTAINTY_ASSIGNED_CONTEXT ( ( #510 ) ) GLOBAL_UNIT_ASSIGNED_CONTEXT ( ( #371, #230, #380 ) ) REPRESENTATION_CONTEXT ( 'NONE', 'WORKASPACE' ) );
#358 = ORIENTED_EDGE ( 'NONE', *, *, #580, .T. ) ;
#359 = DIRECTION ( 'NONE',  ( -0.000000000000000000, -0.000000000000000000, 1.000000000000000000 ) ) ;
#360 = VERTEX_POINT ( 'NONE', #281 ) ;
#361 = ADVANCED_FACE ( 'NONE', ( #453 ), #436, .T. ) ;
#362 = CARTESIAN_POINT ( 'NONE',  ( 16.00000000000000000, -1.734723475976807094E-15, 10.24999999999999822 ) ) ;
#363 = VERTEX_POINT ( 'NONE', #562 ) ;
#364 = FACE_BOUND ( 'NONE', #150, .T. ) ;
#365 = AXIS2_PLACEMENT_3D ( 'NONE', #537, #113, #14 ) ;
#366 = AXIS2_PLACEMENT_3D ( 'NONE', #585, #227, #178 ) ;
#367 = ORIENTED_EDGE ( 'NONE', *, *, #55, .F. ) ;
#368 = CARTESIAN_POINT ( 'NONE',  ( -16.00000000000000000, -1.734723475976807094E-15, 13.00000000000000000 ) ) ;
#369 = ORIENTED_EDGE ( 'NONE', *, *, #667, .F. ) ;
#370 = CARTESIAN_POINT ( 'NONE',  ( -22.00000000000000000, -1.592040838891559095E-15, 19.00000000000000000 ) ) ;
#371 =( LENGTH_UNIT ( ) NAMED_UNIT ( * ) SI_UNIT ( .MILLI., .METRE. ) );
#372 = DIRECTION ( 'NONE',  ( 0.000000000000000000, 1.000000000000000000, -0.000000000000000000 ) ) ;
#373 = DIRECTION ( 'NONE',  ( 0.000000000000000000, -1.000000000000000000, 0.000000000000000000 ) ) ;
#374 = AXIS2_PLACEMENT_3D ( 'NONE', #347, #138, #394 ) ;
#375 = CIRCLE ( 'NONE', #309, 4.625000000000000888 ) ;
#376 = CARTESIAN_POINT ( 'NONE',  ( -9.082524891698046332, 25.26856162455041499, 71.42375415782429116 ) ) ;
#377 = FACE_OUTER_BOUND ( 'NONE', #33, .T. ) ;
#378 = FACE_OUTER_BOUND ( 'NONE', #127, .T. ) ;
#379 = EDGE_CURVE ( 'NONE', #524, #334, #504, .T. ) ;
#380 =( NAMED_UNIT ( * ) SI_UNIT ( $, .STERADIAN. ) SOLID_ANGLE_UNIT ( ) );
#381 = VERTEX_POINT ( 'NONE', #148 ) ;
#382 = DIRECTION ( 'NONE',  ( 0.000000000000000000, -1.107506670533258442E-16, 1.000000000000000000 ) ) ;
#383 = DIRECTION ( 'NONE',  ( -1.000000000000000000, -0.000000000000000000, -0.000000000000000000 ) ) ;
#384 = EDGE_LOOP ( 'NONE', ( #46, #419 ) ) ;
#385 = CIRCLE ( 'NONE', #602, 2.750000000000000888 ) ;
#386 = SURFACE_STYLE_USAGE ( .BOTH. , #167 ) ;
#387 = CARTESIAN_POINT ( 'NONE',  ( 8.000000000000000000, 20.00000000000000000, -8.673617379884035472E-16 ) ) ;
#388 = PRESENTATION_LAYER_ASSIGNMENT (  '', '', ( #161 ) ) ;
#389 = CARTESIAN_POINT ( 'NONE',  ( -10.21678119325084033, 23.31320609745287342, 0.000000000000000000 ) ) ;
#390 = EDGE_LOOP ( 'NONE', ( #447, #624, #201, #670 ) ) ;
#391 = ADVANCED_FACE ( 'NONE', ( #246 ), #79, .T. ) ;
#392 = DIRECTION ( 'NONE',  ( 0.000000000000000000, 1.000000000000000000, -0.000000000000000000 ) ) ;
#393 = ORIENTED_EDGE ( 'NONE', *, *, #20, .T. ) ;
#394 = DIRECTION ( 'NONE',  ( 0.000000000000000000, 0.000000000000000000, 1.000000000000000000 ) ) ;
#395 = ORIENTED_EDGE ( 'NONE', *, *, #302, .T. ) ;
#396 = CARTESIAN_POINT ( 'NONE',  ( -22.00000000000000000, 3.000000000000000000, 4.625000000000004441 ) ) ;
#397 = VECTOR ( 'NONE', #456, 999.9999999999998863 ) ;
#398 = DIRECTION ( 'NONE',  ( 0.000000000000000000, 0.000000000000000000, -1.000000000000000000 ) ) ;
#399 = VERTEX_POINT ( 'NONE', #396 ) ;
#400 = ORIENTED_EDGE ( 'NONE', *, *, #316, .F. ) ;
#401 = DIRECTION ( 'NONE',  ( 0.000000000000000000, 0.000000000000000000, -1.000000000000000000 ) ) ;
#402 = ORIENTED_EDGE ( 'NONE', *, *, #627, .F. ) ;
#403 = EDGE_CURVE ( 'NONE', #352, #328, #331, .T. ) ;
#404 = VERTEX_POINT ( 'NONE', #387 ) ;
#405 = DIRECTION ( 'NONE',  ( -0.000000000000000000, -0.000000000000000000, 1.000000000000000000 ) ) ;
#406 = DIRECTION ( 'NONE',  ( 0.000000000000000000, 0.000000000000000000, 1.000000000000000000 ) ) ;
#407 = CYLINDRICAL_SURFACE ( 'NONE', #277, 1.624999999999999778 ) ;
#408 = AXIS2_PLACEMENT_3D ( 'NONE', #62, #372, #189 ) ;
#409 = PRESENTATION_LAYER_ASSIGNMENT (  '', '', ( #31 ) ) ;
#410 = ORIENTED_EDGE ( 'NONE', *, *, #338, .T. ) ;
#411 = EDGE_CURVE ( 'NONE', #381, #526, #15, .T. ) ;
#412 = DIRECTION ( 'NONE',  ( -0.000000000000000000, 1.000000000000000000, -0.000000000000000000 ) ) ;
#413 = EDGE_LOOP ( 'NONE', ( #68, #179, #393, #93 ) ) ;
#414 = ADVANCED_FACE ( 'NONE', ( #294 ), #198, .F. ) ;
#415 = DIRECTION ( 'NONE',  ( -0.000000000000000000, 1.000000000000000000, 1.107506670533258812E-16 ) ) ;
#416 = VERTEX_POINT ( 'NONE', #27 ) ;
#417 = LINE ( 'NONE', #639, #129 ) ;
#418 = PRODUCT_DEFINITION_FORMATION_WITH_SPECIFIED_SOURCE ( 'ÈÎºÎ', '', #122, .NOT_KNOWN. ) ;
#419 = ORIENTED_EDGE ( 'NONE', *, *, #270, .F. ) ;
#420 = CARTESIAN_POINT ( 'NONE',  ( -18.09999999999999787, 3.000000000000000000, 19.00000000000000000 ) ) ;
#421 = EDGE_CURVE ( 'NONE', #489, #360, #495, .T. ) ;
#422 = CARTESIAN_POINT ( 'NONE',  ( 22.00000000000000000, 3.000000000000000000, 19.00000000000000000 ) ) ;
#423 = CARTESIAN_POINT ( 'NONE',  ( -22.00000000000000355, 3.000000000000000000, 3.673097038856279806 ) ) ;
#424 = ADVANCED_FACE ( 'NONE', ( #351 ), #236, .T. ) ;
#425 = LINE ( 'NONE', #370, #579 ) ;
#426 = DIRECTION ( 'NONE',  ( 1.000000000000000000, 0.000000000000000000, 0.000000000000000000 ) ) ;
#427 = CIRCLE ( 'NONE', #182, 3.900000000000000799 ) ;
#428 = AXIS2_PLACEMENT_3D ( 'NONE', #622, #546, #80 ) ;
#429 = EDGE_CURVE ( 'NONE', #568, #26, #385, .T. ) ;
#430 = CARTESIAN_POINT ( 'NONE',  ( -16.00000000000000000, -1.734723475976807094E-15, 13.00000000000000000 ) ) ;
#431 = DIRECTION ( 'NONE',  ( 1.000000000000000000, 0.000000000000000000, 0.000000000000000000 ) ) ;
#432 = ORIENTED_EDGE ( 'NONE', *, *, #444, .T. ) ;
#433 = DIRECTION ( 'NONE',  ( -1.000000000000000000, -0.000000000000000000, -0.000000000000000000 ) ) ;
#434 = FACE_BOUND ( 'NONE', #384, .T. ) ;
#435 = ORIENTED_EDGE ( 'NONE', *, *, #379, .F. ) ;
#436 = CYLINDRICAL_SURFACE ( 'NONE', #374, 4.625000000000000888 ) ;
#437 = CARTESIAN_POINT ( 'NONE',  ( 22.00000000000000000, 3.000000000000000444, 4.625000000000000888 ) ) ;
#438 = ORIENTED_EDGE ( 'NONE', *, *, #264, .T. ) ;
#439 = EDGE_CURVE ( 'NONE', #564, #105, #299, .T. ) ;
#440 = CIRCLE ( 'NONE', #365, 2.750000000000000888 ) ;
#441 = CARTESIAN_POINT ( 'NONE',  ( 16.00000000000000000, -1.734723475976807094E-15, 13.00000000000000000 ) ) ;
#442 = DIRECTION ( 'NONE',  ( 1.000000000000000000, 0.000000000000000000, 0.000000000000000000 ) ) ;
#443 = CARTESIAN_POINT ( 'NONE',  ( -16.00000000000000000, -1.734723475976807094E-15, 10.24999999999999822 ) ) ;
#444 = EDGE_CURVE ( 'NONE', #245, #349, #171, .T. ) ;
#445 = DIRECTION ( 'NONE',  ( -0.5017677737667064486, 0.8650023706379094124, 0.000000000000000000 ) ) ;
#446 = CYLINDRICAL_SURFACE ( 'NONE', #428, 3.900000000000000799 ) ;
#447 = ORIENTED_EDGE ( 'NONE', *, *, #586, .F. ) ;
#448 = DIRECTION ( 'NONE',  ( 1.000000000000000000, 0.000000000000000000, 0.000000000000000000 ) ) ;
#449 = PRODUCT_DEFINITION_CONTEXT ( 'detailed design', #181, 'design' ) ;
#450 = DIRECTION ( 'NONE',  ( -1.000000000000000000, 0.000000000000000000, -0.000000000000000000 ) ) ;
#451 = ORIENTED_EDGE ( 'NONE', *, *, #429, .T. ) ;
#452 = EDGE_CURVE ( 'NONE', #26, #568, #649, .T. ) ;
#453 = FACE_OUTER_BOUND ( 'NONE', #254, .T. ) ;
#454 = AXIS2_PLACEMENT_3D ( 'NONE', #335, #448, #401 ) ;
#455 = VECTOR ( 'NONE', #149, 1000.000000000000000 ) ;
#456 = DIRECTION ( 'NONE',  ( -0.5017677737667065596, -0.8650023706379095234, 0.000000000000000000 ) ) ;
#457 = ORIENTED_EDGE ( 'NONE', *, *, #146, .F. ) ;
#458 = ORIENTED_EDGE ( 'NONE', *, *, #50, .F. ) ;
#459 = DIRECTION ( 'NONE',  ( 0.000000000000000000, 0.000000000000000000, 1.000000000000000000 ) ) ;
#460 = ORIENTED_EDGE ( 'NONE', *, *, #411, .T. ) ;
#461 = CARTESIAN_POINT ( 'NONE',  ( -22.00000000000000000, 3.000000000000000000, 15.09999999999999964 ) ) ;
#462 = EDGE_CURVE ( 'NONE', #247, #352, #677, .T. ) ;
#463 = DIRECTION ( 'NONE',  ( 0.000000000000000000, 0.000000000000000000, -1.000000000000000000 ) ) ;
#464 = AXIS2_PLACEMENT_3D ( 'NONE', #135, #671, #90 ) ;
#465 = AXIS2_PLACEMENT_3D ( 'NONE', #475, #219, #166 ) ;
#466 = EDGE_CURVE ( 'NONE', #210, #363, #297, .T. ) ;
#467 = VERTEX_POINT ( 'NONE', #151 ) ;
#468 = ADVANCED_BREP_SHAPE_REPRESENTATION ( 'LB', ( #518, #333 ), #11 ) ;
#469 = CARTESIAN_POINT ( 'NONE',  ( 22.00000000000000000, -1.592040838891559095E-15, 19.00000000000000000 ) ) ;
#470 = ORIENTED_EDGE ( 'NONE', *, *, #521, .T. ) ;
#471 = CARTESIAN_POINT ( 'NONE',  ( 18.09999999999999787, -1.592040838891559095E-15, 19.00000000000000000 ) ) ;
#472 = ORIENTED_EDGE ( 'NONE', *, *, #617, .F. ) ;
#473 = EDGE_CURVE ( 'NONE', #404, #247, #173, .T. ) ;
#474 = DIRECTION ( 'NONE',  ( 1.000000000000000000, 0.000000000000000000, 0.000000000000000000 ) ) ;
#475 = CARTESIAN_POINT ( 'NONE',  ( -22.00000000000000000, 4.625000000000000000, 4.625000000000000888 ) ) ;
#476 = AXIS2_PLACEMENT_3D ( 'NONE', #29, #515, #45 ) ;
#477 = COLOUR_RGB ( '',1.000000000000000000, 1.000000000000000000, 1.000000000000000000 ) ;
#478 = DIRECTION ( 'NONE',  ( -0.000000000000000000, 1.000000000000000000, -0.000000000000000000 ) ) ;
#479 = EDGE_CURVE ( 'NONE', #260, #467, #500, .T. ) ;
#480 = CYLINDRICAL_SURFACE ( 'NONE', #73, 2.750000000000000888 ) ;
#481 = DIRECTION ( 'NONE',  ( 1.000000000000000000, 0.000000000000000000, -0.000000000000000000 ) ) ;
#482 = PRESENTATION_STYLE_ASSIGNMENT (( #324 ) ) ;
#483 = CYLINDRICAL_SURFACE ( 'NONE', #319, 10.49999999999999467 ) ;
#484 = FACE_BOUND ( 'NONE', #672, .T. ) ;
#485 = ORIENTED_EDGE ( 'NONE', *, *, #112, .T. ) ;
#486 = VECTOR ( 'NONE', #502, 1000.000000000000000 ) ;
#487 = CARTESIAN_POINT ( 'NONE',  ( 21.05737526271796156, 4.625000000000000000, 0.000000000000000000 ) ) ;
#488 = CYLINDRICAL_SURFACE ( 'NONE', #663, 2.750000000000000888 ) ;
#489 = VERTEX_POINT ( 'NONE', #64 ) ;
#490 = FILL_AREA_STYLE ('',( #78 ) ) ;
#491 = DIRECTION ( 'NONE',  ( 0.000000000000000000, 0.000000000000000000, 1.000000000000000000 ) ) ;
#492 = FACE_OUTER_BOUND ( 'NONE', #413, .T. ) ;
#493 = EDGE_LOOP ( 'NONE', ( #48, #485, #470, #619, #551, #358 ) ) ;
#494 = PRESENTATION_STYLE_ASSIGNMENT (( #386 ) ) ;
#495 = LINE ( 'NONE', #621, #160 ) ;
#496 = ADVANCED_FACE ( 'NONE', ( #71 ), #488, .F. ) ;
#497 = DIRECTION ( 'NONE',  ( -0.000000000000000000, -0.000000000000000000, 1.000000000000000000 ) ) ;
#498 = ORIENTED_EDGE ( 'NONE', *, *, #302, .F. ) ;
#499 = AXIS2_PLACEMENT_3D ( 'NONE', #212, #49, #572 ) ;
#500 = CIRCLE ( 'NONE', #366, 10.49999999999999467 ) ;
#501 = DIRECTION ( 'NONE',  ( 0.000000000000000000, 0.000000000000000000, 1.000000000000000000 ) ) ;
#502 = DIRECTION ( 'NONE',  ( -1.000000000000000000, -0.000000000000000000, -0.000000000000000000 ) ) ;
#503 = ORIENTED_EDGE ( 'NONE', *, *, #280, .T. ) ;
#504 = LINE ( 'NONE', #86, #343 ) ;
#505 = ORIENTED_EDGE ( 'NONE', *, *, #452, .T. ) ;
#506 = EDGE_CURVE ( 'NONE', #8, #363, #114, .T. ) ;
#507 = DIRECTION ( 'NONE',  ( 0.000000000000000000, 1.107506670533258689E-16, -1.000000000000000000 ) ) ;
#508 = DIRECTION ( 'NONE',  ( 0.000000000000000000, 0.000000000000000000, -1.000000000000000000 ) ) ;
#509 = EDGE_LOOP ( 'NONE', ( #276, #567, #457, #195 ) ) ;
#510 = UNCERTAINTY_MEASURE_WITH_UNIT (LENGTH_MEASURE( 1.000000000000000082E-05 ), #371, 'distance_accuracy_value', 'NONE');
#511 = VERTEX_POINT ( 'NONE', #126 ) ;
#512 = ADVANCED_FACE ( 'NONE', ( #377 ), #480, .F. ) ;
#513 = DIRECTION ( 'NONE',  ( 0.000000000000000000, -1.000000000000000000, 0.000000000000000000 ) ) ;
#514 = VECTOR ( 'NONE', #211, 1000.000000000000000 ) ;
#515 = DIRECTION ( 'NONE',  ( -0.000000000000000000, 1.000000000000000000, -0.000000000000000000 ) ) ;
#516 = CARTESIAN_POINT ( 'NONE',  ( -10.21678119325084033, 23.31320609745287342, 3.000000000000001776 ) ) ;
#517 = UNCERTAINTY_MEASURE_WITH_UNIT (LENGTH_MEASURE( 1.000000000000000082E-05 ), #650, 'distance_accuracy_value', 'NONE');
#518 = MANIFOLD_SOLID_BREP ( 'Ô²½Ç1', #266 ) ;
#519 = ORIENTED_EDGE ( 'NONE', *, *, #560, .F. ) ;
#520 = CARTESIAN_POINT ( 'NONE',  ( -22.00000000000000000, 3.000000000000000000, 19.00000000000000000 ) ) ;
#521 = EDGE_CURVE ( 'NONE', #399, #511, #577, .T. ) ;
#522 = CARTESIAN_POINT ( 'NONE',  ( -16.00000000000000000, -1.734723475976807094E-15, 15.75000000000000000 ) ) ;
#523 = CIRCLE ( 'NONE', #248, 2.750000000000000888 ) ;
#524 = VERTEX_POINT ( 'NONE', #593 ) ;
#525 = DIRECTION ( 'NONE',  ( 0.000000000000000000, 1.000000000000000000, -0.000000000000000000 ) ) ;
#526 = VERTEX_POINT ( 'NONE', #223 ) ;
#527 =( BOUNDED_CURVE ( )  B_SPLINE_CURVE ( 3, ( #70, #220, #317, #487 ),
 .UNSPECIFIED., .F., .F. ) 
 B_SPLINE_CURVE_WITH_KNOTS ( ( 4, 4 ),
 ( 4.353374891268286362, 4.712388980384689674 ),
 .UNSPECIFIED. ) 
 CURVE ( )  GEOMETRIC_REPRESENTATION_ITEM ( )  RATIONAL_B_SPLINE_CURVE ( ( 1.000000000000000000, 0.9892878845650072694, 0.9892878845650072694, 1.000000000000000000 ) ) 
 REPRESENTATION_ITEM ( '' )  );
#528 = CYLINDRICAL_SURFACE ( 'NONE', #499, 3.900000000000000799 ) ;
#529 = ORIENTED_EDGE ( 'NONE', *, *, #43, .F. ) ;
#530 = DIRECTION ( 'NONE',  ( -0.000000000000000000, -0.000000000000000000, 1.000000000000000000 ) ) ;
#531 = AXIS2_PLACEMENT_3D ( 'NONE', #323, #65, #481 ) ;
#532 = FILL_AREA_STYLE ('',( #60 ) ) ;
#533 = APPLICATION_PROTOCOL_DEFINITION ( 'draft international standard', 'automotive_design', 1998, #181 ) ;
#534 = FACE_OUTER_BOUND ( 'NONE', #681, .T. ) ;
#535 = ADVANCED_FACE ( 'NONE', ( #22 ), #541, .F. ) ;
#536 = CARTESIAN_POINT ( 'NONE',  ( 16.00000000000000000, -1.734723475976807094E-15, 15.75000000000000000 ) ) ;
#537 = CARTESIAN_POINT ( 'NONE',  ( 16.00000000000000000, 3.000000000000000000, 13.00000000000000000 ) ) ;
#538 = DIRECTION ( 'NONE',  ( 0.000000000000000000, 0.000000000000000000, 1.000000000000000000 ) ) ;
#539 = DIRECTION ( 'NONE',  ( 0.000000000000000000, 0.000000000000000000, 1.000000000000000000 ) ) ;
#540 = CARTESIAN_POINT ( 'NONE',  ( 16.00000000000000000, -1.734723475976807094E-15, 10.24999999999999822 ) ) ;
#541 = CYLINDRICAL_SURFACE ( 'NONE', #98, 8.000000000000000000 ) ;
#542 = ORIENTED_EDGE ( 'NONE', *, *, #636, .F. ) ;
#543 = CIRCLE ( 'NONE', #40, 3.900000000000000799 ) ;
#544 =( NAMED_UNIT ( * ) SI_UNIT ( $, .STERADIAN. ) SOLID_ANGLE_UNIT ( ) );
#545 = PLANE ( 'NONE',  #531 ) ;
#546 = DIRECTION ( 'NONE',  ( 0.000000000000000000, -1.000000000000000000, 0.000000000000000000 ) ) ;
#547 = VERTEX_POINT ( 'NONE', #599 ) ;
#548 = ADVANCED_FACE ( 'NONE', ( #484, #434, #174 ), #169, .F. ) ;
#549 = PLANE ( 'NONE',  #116 ) ;
#550 = LINE ( 'NONE', #285, #268 ) ;
#551 = ORIENTED_EDGE ( 'NONE', *, *, #617, .T. ) ;
#552 = DIRECTION ( 'NONE',  ( 0.000000000000000000, 1.000000000000000000, 0.000000000000000000 ) ) ;
#553 =( LENGTH_UNIT ( ) NAMED_UNIT ( * ) SI_UNIT ( .MILLI., .METRE. ) );
#554 = ORIENTED_EDGE ( 'NONE', *, *, #560, .T. ) ;
#555 = VECTOR ( 'NONE', #433, 1000.000000000000000 ) ;
#556 = VECTOR ( 'NONE', #659, 1000.000000000000000 ) ;
#557 = DIRECTION ( 'NONE',  ( 0.000000000000000000, 0.000000000000000000, 1.000000000000000000 ) ) ;
#558 = CYLINDRICAL_SURFACE ( 'NONE', #300, 8.000000000000000000 ) ;
#559 = ORIENTED_EDGE ( 'NONE', *, *, #125, .F. ) ;
#560 = EDGE_CURVE ( 'NONE', #23, #675, #53, .T. ) ;
#561 = ORIENTED_EDGE ( 'NONE', *, *, #479, .T. ) ;
#562 = CARTESIAN_POINT ( 'NONE',  ( -18.09999999999999787, -1.592040838891559095E-15, 19.00000000000000000 ) ) ;
#563 = DIRECTION ( 'NONE',  ( -0.000000000000000000, 1.000000000000000000, -0.000000000000000000 ) ) ;
#564 = VERTEX_POINT ( 'NONE', #119 ) ;
#565 = ORIENTED_EDGE ( 'NONE', *, *, #338, .F. ) ;
#566 = CARTESIAN_POINT ( 'NONE',  ( 9.082524891698046332, 25.26856162455041499, 71.42375415782429116 ) ) ;
#567 = ORIENTED_EDGE ( 'NONE', *, *, #185, .F. ) ;
#568 = VERTEX_POINT ( 'NONE', #536 ) ;
#569 = EDGE_CURVE ( 'NONE', #279, #526, #273, .T. ) ;
#570 = VECTOR ( 'NONE', #412, 1000.000000000000000 ) ;
#571 = CIRCLE ( 'NONE', #289, 8.000000000000000000 ) ;
#572 = DIRECTION ( 'NONE',  ( 0.000000000000000000, 0.000000000000000000, 1.000000000000000000 ) ) ;
#573 = VERTEX_POINT ( 'NONE', #38 ) ;
#574 = CARTESIAN_POINT ( 'NONE',  ( -21.05737526271795446, 4.625000000000000888, 0.000000000000000000 ) ) ;
#575 = FACE_BOUND ( 'NONE', #635, .T. ) ;
#576 = ORIENTED_EDGE ( 'NONE', *, *, #221, .F. ) ;
#577 =( BOUNDED_CURVE ( )  B_SPLINE_CURVE ( 3, ( #643, #423, #648, #275 ),
 .UNSPECIFIED., .F., .F. ) 
 B_SPLINE_CURVE_WITH_KNOTS ( ( 4, 4 ),
 ( 0.000000000000000000, 1.570796326794896558 ),
 .UNSPECIFIED. ) 
 CURVE ( )  GEOMETRIC_REPRESENTATION_ITEM ( )  RATIONAL_B_SPLINE_CURVE ( ( 1.000000000000000000, 0.8047378541243649375, 0.8047378541243649375, 1.000000000000000000 ) ) 
 REPRESENTATION_ITEM ( '' )  );
#578 = CARTESIAN_POINT ( 'NONE',  ( -16.00000000000000000, -1.734723475976807094E-15, 15.75000000000000000 ) ) ;
#579 = VECTOR ( 'NONE', #278, 1000.000000000000000 ) ;
#580 = EDGE_CURVE ( 'NONE', #346, #81, #183, .T. ) ;
#581 = ORIENTED_EDGE ( 'NONE', *, *, #646, .F. ) ;
#582 = LINE ( 'NONE', #516, #267 ) ;
#583 = EDGE_LOOP ( 'NONE', ( #216, #77, #315, #137 ) ) ;
#584 = LINE ( 'NONE', #422, #237 ) ;
#585 = CARTESIAN_POINT ( 'NONE',  ( 0.000000000000000000, 20.00000000000000000, 3.000000000000002665 ) ) ;
#586 = EDGE_CURVE ( 'NONE', #247, #404, #571, .T. ) ;
#587 = DIRECTION ( 'NONE',  ( 1.000000000000000000, 0.000000000000000000, 0.000000000000000000 ) ) ;
#588 = FACE_OUTER_BOUND ( 'NONE', #258, .T. ) ;
#589 = CIRCLE ( 'NONE', #288, 10.49999999999999467 ) ;
#590 = CARTESIAN_POINT ( 'NONE',  ( 16.00000000000000000, -1.734723475976807094E-15, 13.00000000000000000 ) ) ;
#591 = EDGE_CURVE ( 'NONE', #360, #279, #375, .T. ) ;
#592 = DIRECTION ( 'NONE',  ( -1.000000000000000000, 0.000000000000000000, 0.000000000000000000 ) ) ;
#593 = CARTESIAN_POINT ( 'NONE',  ( 21.05737526271796156, 4.625000000000000000, 0.000000000000000000 ) ) ;
#594 = SURFACE_STYLE_FILL_AREA ( #490 ) ;
#595 = DIRECTION ( 'NONE',  ( -0.5017677737667064486, -0.8650023706379094124, 0.000000000000000000 ) ) ;
#596 = CARTESIAN_POINT ( 'NONE',  ( 22.00000000000000000, 3.000000000000000000, 19.00000000000000000 ) ) ;
#597 = ORIENTED_EDGE ( 'NONE', *, *, #646, .T. ) ;
#598 = DIRECTION ( 'NONE',  ( 0.000000000000000000, 0.000000000000000000, 1.000000000000000000 ) ) ;
#599 = CARTESIAN_POINT ( 'NONE',  ( 22.00000000000000000, 3.000000000000000000, 15.09999999999999964 ) ) ;
#600 = EDGE_LOOP ( 'NONE', ( #109, #159, #542, #188, #460, #95 ) ) ;
#601 = ADVANCED_FACE ( 'NONE', ( #87 ), #606, .F. ) ;
#602 = AXIS2_PLACEMENT_3D ( 'NONE', #441, #664, #501 ) ;
#603 = AXIS2_PLACEMENT_3D ( 'NONE', #139, #345, #282 ) ;
#604 = PRODUCT_CONTEXT ( 'NONE', #233, 'mechanical' ) ;
#605 = CARTESIAN_POINT ( 'NONE',  ( 9.082524891698046332, 25.26856162455041499, 0.000000000000000000 ) ) ;
#606 = PLANE ( 'NONE',  #630 ) ;
#607 = EDGE_LOOP ( 'NONE', ( #39, #286, #660, #213, #400, #291 ) ) ;
#608 = CARTESIAN_POINT ( 'NONE',  ( 16.00000000000000000, 3.000000000000000000, 13.00000000000000000 ) ) ;
#609 = EDGE_LOOP ( 'NONE', ( #293, #197 ) ) ;
#610 = ADVANCED_FACE ( 'NONE', ( #133 ), #446, .T. ) ;
#611 = CARTESIAN_POINT ( 'NONE',  ( 0.000000000000000000, 20.00000000000000000, 0.000000000000000000 ) ) ;
#612 =( NAMED_UNIT ( * ) PLANE_ANGLE_UNIT ( ) SI_UNIT ( $, .RADIAN. ) );
#613 = ORIENTED_EDGE ( 'NONE', *, *, #185, .T. ) ;
#614 = CIRCLE ( 'NONE', #224, 3.900000000000000799 ) ;
#615 = VECTOR ( 'NONE', #405, 1000.000000000000000 ) ;
#616 = CARTESIAN_POINT ( 'NONE',  ( 0.000000000000000000, 20.00000000000000000, 3.000000000000001776 ) ) ;
#617 = EDGE_CURVE ( 'NONE', #260, #346, #76, .T. ) ;
#618 = DIRECTION ( 'NONE',  ( 1.000000000000000000, 0.000000000000000000, 0.000000000000000000 ) ) ;
#619 = ORIENTED_EDGE ( 'NONE', *, *, #34, .T. ) ;
#620 = ORIENTED_EDGE ( 'NONE', *, *, #43, .T. ) ;
#621 = CARTESIAN_POINT ( 'NONE',  ( 22.00000000000000000, -1.592040838891559095E-15, 19.00000000000000000 ) ) ;
#622 = CARTESIAN_POINT ( 'NONE',  ( -18.09999999999999787, -1.592040838891559095E-15, 15.09999999999999964 ) ) ;
#623 = ORIENTED_EDGE ( 'NONE', *, *, #466, .F. ) ;
#624 = ORIENTED_EDGE ( 'NONE', *, *, #462, .T. ) ;
#625 = CARTESIAN_POINT ( 'NONE',  ( -18.09999999999999787, -1.592040838891559095E-15, 19.00000000000000000 ) ) ;
#626 = CARTESIAN_POINT ( 'NONE',  ( -16.00000000000000000, 3.000000000000000000, 13.00000000000000000 ) ) ;
#627 = EDGE_CURVE ( 'NONE', #328, #352, #107, .T. ) ;
#628 = EDGE_LOOP ( 'NONE', ( #410, #472, #561, #97 ) ) ;
#629 = CIRCLE ( 'NONE', #408, 2.750000000000000888 ) ;
#630 = AXIS2_PLACEMENT_3D ( 'NONE', #242, #25, #450 ) ;
#631 = CARTESIAN_POINT ( 'NONE',  ( 22.00000000000000000, 4.625000000000000000, 4.625000000000000888 ) ) ;
#632 = ORIENTED_EDGE ( 'NONE', *, *, #92, .T. ) ;
#633 =( BOUNDED_CURVE ( )  B_SPLINE_CURVE ( 3, ( #172, #177, #326, #124 ),
 .UNSPECIFIED., .F., .F. ) 
 B_SPLINE_CURVE_WITH_KNOTS ( ( 4, 4 ),
 ( 4.712388980384688786, 5.071403069501093874 ),
 .UNSPECIFIED. ) 
 CURVE ( )  GEOMETRIC_REPRESENTATION_ITEM ( )  RATIONAL_B_SPLINE_CURVE ( ( 1.000000000000000000, 0.9892878845650072694, 0.9892878845650072694, 1.000000000000000000 ) ) 
 REPRESENTATION_ITEM ( '' )  );
#634 = LINE ( 'NONE', #522, #207 ) ;
#635 = EDGE_LOOP ( 'NONE', ( #620, #19 ) ) ;
#636 = EDGE_CURVE ( 'NONE', #467, #334, #550, .T. ) ;
#637 = CARTESIAN_POINT ( 'NONE',  ( 8.000000000000000000, 20.00000000000000000, -8.673617379884035472E-16 ) ) ;
#638 = ORIENTED_EDGE ( 'NONE', *, *, #214, .T. ) ;
#639 = CARTESIAN_POINT ( 'NONE',  ( 22.00000000000000000, 4.625000000000000000, 3.000000000000001776 ) ) ;
#640 = AXIS2_PLACEMENT_3D ( 'NONE', #616, #491, #657 ) ;
#641 = ORIENTED_EDGE ( 'NONE', *, *, #6, .F. ) ;
#642 = DIRECTION ( 'NONE',  ( 0.000000000000000000, 0.000000000000000000, -1.000000000000000000 ) ) ;
#643 = CARTESIAN_POINT ( 'NONE',  ( -22.00000000000000000, 3.000000000000000000, 4.625000000000004441 ) ) ;
#644 = LINE ( 'NONE', #540, #673 ) ;
#645 = CARTESIAN_POINT ( 'NONE',  ( 0.000000000000000000, 20.00000000000000000, -8.673617379884035472E-16 ) ) ;
#646 = EDGE_CURVE ( 'NONE', #360, #23, #669, .T. ) ;
#647 = VECTOR ( 'NONE', #359, 1000.000000000000000 ) ;
#648 = CARTESIAN_POINT ( 'NONE',  ( -21.60955204958940001, 3.673097038856278918, 3.000000000000000888 ) ) ;
#649 = CIRCLE ( 'NONE', #118, 2.750000000000000888 ) ;
#650 =( LENGTH_UNIT ( ) NAMED_UNIT ( * ) SI_UNIT ( .MILLI., .METRE. ) );
#651 = DIRECTION ( 'NONE',  ( 0.000000000000000000, -1.000000000000000000, 0.000000000000000000 ) ) ;
#652 = ORIENTED_EDGE ( 'NONE', *, *, #163, .T. ) ;
#653 = LINE ( 'NONE', #274, #661 ) ;
#654 = ADVANCED_FACE ( 'NONE', ( #492 ), #558, .F. ) ;
#655 = DIRECTION ( 'NONE',  ( 0.000000000000000000, -0.000000000000000000, -1.000000000000000000 ) ) ;
#656 = ORIENTED_EDGE ( 'NONE', *, *, #521, .F. ) ;
#657 = DIRECTION ( 'NONE',  ( 1.000000000000000000, 0.000000000000000000, 0.000000000000000000 ) ) ;
#658 = EDGE_CURVE ( 'NONE', #526, #399, #28, .T. ) ;
#659 = DIRECTION ( 'NONE',  ( -1.000000000000000000, -0.000000000000000000, -0.000000000000000000 ) ) ;
#660 = ORIENTED_EDGE ( 'NONE', *, *, #218, .F. ) ;
#661 = VECTOR ( 'NONE', #651, 1000.000000000000000 ) ;
#662 = AXIS2_PLACEMENT_3D ( 'NONE', #469, #415, #57 ) ;
#663 = AXIS2_PLACEMENT_3D ( 'NONE', #590, #18, #538 ) ;
#664 = DIRECTION ( 'NONE',  ( 0.000000000000000000, 1.000000000000000000, 0.000000000000000000 ) ) ;
#665 = CARTESIAN_POINT ( 'NONE',  ( 18.09999999999999787, 3.000000000000000000, 19.00000000000000000 ) ) ;
#666 = DIRECTION ( 'NONE',  ( -0.000000000000000000, 1.000000000000000000, -0.000000000000000000 ) ) ;
#667 = EDGE_CURVE ( 'NONE', #568, #245, #136, .T. ) ;
#668 = DIRECTION ( 'NONE',  ( 0.8650023706379095234, 0.5017677737667065596, 0.000000000000000000 ) ) ;
#669 = LINE ( 'NONE', #144, #486 ) ;
#670 = ORIENTED_EDGE ( 'NONE', *, *, #20, .F. ) ;
#671 = DIRECTION ( 'NONE',  ( -0.000000000000000000, 1.000000000000000000, -0.000000000000000000 ) ) ;
#672 = EDGE_LOOP ( 'NONE', ( #559, #36 ) ) ;
#673 = VECTOR ( 'NONE', #272, 1000.000000000000000 ) ;
#674 = CARTESIAN_POINT ( 'NONE',  ( 22.00000000000000000, 2.999999999999997780, 3.673097038856281582 ) ) ;
#675 = VERTEX_POINT ( 'NONE', #190 ) ;
#676 = EDGE_LOOP ( 'NONE', ( #131, #503, #350, #58, #155 ) ) ;
#677 = LINE ( 'NONE', #44, #615 ) ;
#678 = DIRECTION ( 'NONE',  ( 0.000000000000000000, -1.000000000000000000, -1.107506670533258812E-16 ) ) ;
#679 = EDGE_CURVE ( 'NONE', #8, #573, #340, .T. ) ;
#680 = CARTESIAN_POINT ( 'NONE',  ( 18.09999999999999787, -1.734723475976807094E-15, 15.09999999999999964 ) ) ;
#681 = EDGE_LOOP ( 'NONE', ( #235, #565, #435, #632 ) ) ;
#682 = VECTOR ( 'NONE', #215, 999.9999999999998863 ) ;
ENDSEC;
END-ISO-10303-21;
