ISO-10303-21;
HEADER;
FILE_DESCRIPTION (( 'STEP AP214' ),
    '1' );
FILE_NAME ('M3ÂÝÄ¸.step',
    '2023-08-15T03:02:21',
    ( '' ),
    ( '' ),
    'SwSTEP 2.0',
    'SolidWorks 2022',
    '' );
FILE_SCHEMA (( 'AUTOMOTIVE_DESIGN' ));
ENDSEC;

DATA;
#1 = DIRECTION ( 'NONE',  ( 0.000000000000000000, 0.000000000000000000, -1.000000000000000000 ) ) ;
#2 = CARTESIAN_POINT ( 'NONE',  ( 0.000000000000000000, 0.000000000000000000, 2.399999999999999911 ) ) ;
#3 = ORIENTED_EDGE ( 'NONE', *, *, #159, .T. ) ;
#4 = CARTESIAN_POINT ( 'NONE',  ( 0.000000000000000000, 0.000000000000000000, 2.399999999999999911 ) ) ;
#5 = VECTOR ( 'NONE', #124, 1000.000000000000000 ) ;
#6 = CARTESIAN_POINT ( 'NONE',  ( 1.841465337348288100, -2.112255972321556818, 2.376480395431936010 ) ) ;
#7 = CARTESIAN_POINT ( 'NONE',  ( -2.749999999999990230, 0.2689487648616768478, -8.019707944603712455E-15 ) ) ;
#8 = VERTEX_POINT ( 'NONE', #208 ) ;
#9 = CARTESIAN_POINT ( 'NONE',  ( -1.229375000000001217, 0.000000000000000000, 2.399999999999999911 ) ) ;
#10 = DIRECTION ( 'NONE',  ( -4.370369741780771554E-15, 1.000000000000000000, 0.000000000000000000 ) ) ;
#11 = CARTESIAN_POINT ( 'NONE',  ( 0.000000000000000000, 0.000000000000000000, 2.399999999999999911 ) ) ;
#12 = EDGE_LOOP ( 'NONE', ( #410, #633, #250, #292, #144, #149 ) ) ;
#13 = ADVANCED_FACE ( 'NONE', ( #431 ), #104, .F. ) ;
#14 = CARTESIAN_POINT ( 'NONE',  ( -2.749999999999990230, 0.5411524347875370511, 2.376217812181546485 ) ) ;
#15 =( NAMED_UNIT ( * ) SI_UNIT ( $, .STERADIAN. ) SOLID_ANGLE_UNIT ( ) );
#16 = CARTESIAN_POINT ( 'NONE',  ( 2.750000000000027978, 0.2689487648427820177, 2.399999999999985256 ) ) ;
#17 = PRODUCT_RELATED_PRODUCT_CATEGORY ( 'part', '', ( #311 ) ) ;
#18 = ORIENTED_EDGE ( 'NONE', *, *, #248, .T. ) ;
#19 = DIRECTION ( 'NONE',  ( -1.000000000000000000, 0.000000000000000000, 0.000000000000000000 ) ) ;
#20 = AXIS2_PLACEMENT_3D ( 'NONE', #628, #349, #54 ) ;
#21 = EDGE_LOOP ( 'NONE', ( #82, #691, #53 ) ) ;
#22 = EDGE_LOOP ( 'NONE', ( #26, #267, #688, #580, #423, #268 ) ) ;
#23 = CARTESIAN_POINT ( 'NONE',  ( 0.000000000000000000, 0.000000000000000000, 2.399999999999999911 ) ) ;
#24 = STYLED_ITEM ( 'NONE', ( #682 ), #254 ) ;
#25 = CIRCLE ( 'NONE', #421, 2.750000000000002665 ) ;
#26 = ORIENTED_EDGE ( 'NONE', *, *, #702, .F. ) ;
#27 = CARTESIAN_POINT ( 'NONE',  ( 0.000000000000000000, 0.000000000000000000, 0.000000000000000000 ) ) ;
#28 = ADVANCED_FACE ( 'NONE', ( #96 ), #69, .T. ) ;
#29 = VERTEX_POINT ( 'NONE', #653 ) ;
#30 = EDGE_LOOP ( 'NONE', ( #351, #462 ) ) ;
#31 = AXIS2_PLACEMENT_3D ( 'NONE', #516, #513, #235 ) ;
#32 = ORIENTED_EDGE ( 'NONE', *, *, #412, .F. ) ;
#33 = CARTESIAN_POINT ( 'NONE',  ( 0.4498622899576235623, -2.915698366337657443, 2.304334003592002578 ) ) ;
#34 = CARTESIAN_POINT ( 'NONE',  ( 2.750000000000028866, 1.330878690273260334, 0.1714783447725434784 ) ) ;
#35 = CARTESIAN_POINT ( 'NONE',  ( -0.9085346626516952462, -2.650883748492887992, 2.376480395431935566 ) ) ;
#36 = CARTESIAN_POINT ( 'NONE',  ( 2.750000000000025757, -0.2687297922328603650, 1.401543066174327740E-14 ) ) ;
#37 = PLANE ( 'NONE',  #490 ) ;
#38 = CARTESIAN_POINT ( 'NONE',  ( -1.374999999999989564, -2.381569860407215078, 2.399999999999999911 ) ) ;
#39 = CARTESIAN_POINT ( 'NONE',  ( 6.961238680711578303E-15, -3.175426480542947516, 0.2456200930618632761 ) ) ;
#40 = CARTESIAN_POINT ( 'NONE',  ( -1.841465337348281439, 2.112255972321543940, 2.376480395431944448 ) ) ;
#41 = AXIS2_PLACEMENT_3D ( 'NONE', #417, #341, #457 ) ;
#42 = CARTESIAN_POINT ( 'NONE',  ( 2.750000000000023093, -1.587713240271584780, 0.2456200930617989941 ) ) ;
#43 = CARTESIAN_POINT ( 'NONE',  ( -2.749999999999988454, -1.149254302834634700E-14, 0.000000000000000000 ) ) ;
#44 = CARTESIAN_POINT ( 'NONE',  ( -0.9085346626516883628, 2.650883748492871117, 0.02351960456805400612 ) ) ;
#45 = CARTESIAN_POINT ( 'NONE',  ( -2.749999999999995559, 1.587713240271480863, 2.154379906938139300 ) ) ;
#46 = EDGE_CURVE ( 'NONE', #593, #474, #243, .T. ) ;
#47 = CONICAL_SURFACE ( 'NONE', #673, 2.750000000000002665, 1.047197551196600074 ) ;
#48 = SURFACE_SIDE_STYLE ('',( #523 ) ) ;
#49 = EDGE_CURVE ( 'NONE', #416, #375, #717, .T. ) ;
#50 = CARTESIAN_POINT ( 'NONE',  ( -1.841465337348287656, -2.112255972321557707, 0.02351960456806344996 ) ) ;
#51 = COLOUR_RGB ( '',0.7529411764705882248, 0.7529411764705882248, 0.7529411764705882248 ) ;
#52 = EDGE_CURVE ( 'NONE', #295, #8, #659, .T. ) ;
#53 = ORIENTED_EDGE ( 'NONE', *, *, #134, .F. ) ;
#54 = DIRECTION ( 'NONE',  ( -1.000000000000000000, 0.000000000000000000, 0.000000000000000000 ) ) ;
#55 = CARTESIAN_POINT ( 'NONE',  ( 2.750000000000029754, 1.330878690273259890, 2.228521655227456932 ) ) ;
#56 = ORIENTED_EDGE ( 'NONE', *, *, #199, .T. ) ;
#57 =( LENGTH_UNIT ( ) NAMED_UNIT ( * ) SI_UNIT ( .MILLI., .METRE. ) );
#58 = EDGE_CURVE ( 'NONE', #375, #29, #468, .T. ) ;
#59 = FACE_OUTER_BOUND ( 'NONE', #531, .T. ) ;
#60 = CARTESIAN_POINT ( 'NONE',  ( 0.000000000000000000, 0.000000000000000000, 0.000000000000000000 ) ) ;
#61 = ORIENTED_EDGE ( 'NONE', *, *, #660, .F. ) ;
#62 = CARTESIAN_POINT ( 'NONE',  ( 1.229375000000001217, 1.505550158701778807E-16, 2.399999999999999911 ) ) ;
#63 = CIRCLE ( 'NONE', #368, 2.750000000000002665 ) ;
#64 = CARTESIAN_POINT ( 'NONE',  ( 1.374999999999997113, -2.381569860407210637, 2.399999999999999911 ) ) ;
#65 = EDGE_CURVE ( 'NONE', #483, #363, #448, .T. ) ;
#66 = DIRECTION ( 'NONE',  ( 1.000000000000000000, 0.000000000000000000, 0.000000000000000000 ) ) ;
#67 = ORIENTED_EDGE ( 'NONE', *, *, #627, .T. ) ;
#68 = CARTESIAN_POINT ( 'NONE',  ( 6.961238680711578303E-15, -3.175426480542947516, 0.2456200930618632761 ) ) ;
#69 = CONICAL_SURFACE ( 'NONE', #116, 2.750000000000002665, 1.047197551196600074 ) ;
#70 = EDGE_CURVE ( 'NONE', #630, #451, #683, .T. ) ;
#71 = CARTESIAN_POINT ( 'NONE',  ( 1.374999999999969802, 2.381569860407227512, 0.000000000000000000 ) ) ;
#72 = ORIENTED_EDGE ( 'NONE', *, *, #592, .T. ) ;
#73 = CARTESIAN_POINT ( 'NONE',  ( -4.157796499959112230E-17, 3.175426480542919982, 0.2456200930618471778 ) ) ;
#74 = EDGE_LOOP ( 'NONE', ( #641, #192 ) ) ;
#75 = VERTEX_POINT ( 'NONE', #271 ) ;
#76 = CARTESIAN_POINT ( 'NONE',  ( 0.000000000000000000, 0.000000000000000000, 0.000000000000000000 ) ) ;
#77 = UNCERTAINTY_MEASURE_WITH_UNIT (LENGTH_MEASURE( 1.000000000000000082E-05 ), #161, 'distance_accuracy_value', 'NONE');
#78 = VERTEX_POINT ( 'NONE', #710 ) ;
#79 = CARTESIAN_POINT ( 'NONE',  ( -2.749999999999987121, -0.2687297922402416273, 2.400000000000007461 ) ) ;
#80 = EDGE_CURVE ( 'NONE', #78, #252, #357, .T. ) ;
#81 = ORIENTED_EDGE ( 'NONE', *, *, #581, .F. ) ;
#82 = ORIENTED_EDGE ( 'NONE', *, *, #147, .T. ) ;
#83 = CONICAL_SURFACE ( 'NONE', #273, 2.750000000000002665, 1.047197551196600074 ) ;
#84 = EDGE_CURVE ( 'NONE', #630, #356, #600, .T. ) ;
#85 = VERTEX_POINT ( 'NONE', #93 ) ;
#86 = CARTESIAN_POINT ( 'NONE',  ( 0.000000000000000000, 0.000000000000000000, 0.000000000000000000 ) ) ;
#87 = VECTOR ( 'NONE', #445, 1000.000000000000000 ) ;
#88 = CARTESIAN_POINT ( 'NONE',  ( 1.229375000000001217, 1.505550158701778807E-16, 0.000000000000000000 ) ) ;
#89 = AXIS2_PLACEMENT_3D ( 'NONE', #226, #449, #579 ) ;
#90 = EDGE_LOOP ( 'NONE', ( #536, #203, #257, #173, #429, #137 ) ) ;
#91 = B_SPLINE_CURVE_WITH_KNOTS ( 'NONE', 3,
 ( #64, #460, #6, #456, #293, #512 ),
 .UNSPECIFIED., .F., .F.,
 ( 4, 2, 4 ),
 ( 0.001606744326298680360, 0.002406996759593219709, 0.003207249192887758407 ),
 .UNSPECIFIED. ) ;
#92 = CARTESIAN_POINT ( 'NONE',  ( 2.750000000000023093, -1.587713240271584780, 2.154379906938201028 ) ) ;
#93 = CARTESIAN_POINT ( 'NONE',  ( -1.374999999999993117, -2.381569860407221739, 0.000000000000000000 ) ) ;
#94 = DIRECTION ( 'NONE',  ( 0.000000000000000000, 0.000000000000000000, 1.000000000000000000 ) ) ;
#95 =( NAMED_UNIT ( * ) PLANE_ANGLE_UNIT ( ) SI_UNIT ( $, .RADIAN. ) );
#96 = FACE_OUTER_BOUND ( 'NONE', #177, .T. ) ;
#97 = CONICAL_SURFACE ( 'NONE', #20, 2.750000000000002665, 1.047197551196600074 ) ;
#98 = CARTESIAN_POINT ( 'NONE',  ( 1.141614847838116509, 2.516314840832730493, 2.400000000000001243 ) ) ;
#99 = SURFACE_STYLE_USAGE ( .BOTH. , #48 ) ;
#100 = CARTESIAN_POINT ( 'NONE',  ( -2.749999999999984013, -1.064861299511078219, 0.1085371485723814061 ) ) ;
#101 = DIRECTION ( 'NONE',  ( -1.000000000000000000, 0.000000000000000000, 0.000000000000000000 ) ) ;
#102 = EDGE_CURVE ( 'NONE', #135, #369, #297, .T. ) ;
#103 = DIRECTION ( 'NONE',  ( -0.000000000000000000, -0.000000000000000000, -1.000000000000000000 ) ) ;
#104 = PLANE ( 'NONE',  #419 ) ;
#105 = LINE ( 'NONE', #301, #495 ) ;
#106 = SURFACE_SIDE_STYLE ('',( #170 ) ) ;
#107 = EDGE_CURVE ( 'NONE', #451, #525, #704, .T. ) ;
#108 = CARTESIAN_POINT ( 'NONE',  ( 1.374999999999969358, 2.381569860407227068, 2.399999999999999911 ) ) ;
#109 = AXIS2_PLACEMENT_3D ( 'NONE', #329, #269, #608 ) ;
#110 =( NAMED_UNIT ( * ) SI_UNIT ( $, .STERADIAN. ) SOLID_ANGLE_UNIT ( ) );
#111 = DIRECTION ( 'NONE',  ( 1.000000000000000000, 0.000000000000000000, 0.000000000000000000 ) ) ;
#112 = CARTESIAN_POINT ( 'NONE',  ( 0.000000000000000000, 3.175426480542919982, 2.399999999999999911 ) ) ;
#113 = DIRECTION ( 'NONE',  ( 0.000000000000000000, 0.000000000000000000, -1.000000000000000000 ) ) ;
#114 = ORIENTED_EDGE ( 'NONE', *, *, #336, .T. ) ;
#115 = EDGE_CURVE ( 'NONE', #693, #85, #552, .T. ) ;
#116 = AXIS2_PLACEMENT_3D ( 'NONE', #284, #280, #555 ) ;
#117 = VECTOR ( 'NONE', #464, 1000.000000000000000 ) ;
#118 = DIRECTION ( 'NONE',  ( 0.4999999999999931721, -0.8660254037844427044, 0.000000000000000000 ) ) ;
#119 = CARTESIAN_POINT ( 'NONE',  ( 2.750000000000030198, 1.587713240271480863, 0.2456200930618777645 ) ) ;
#120 = ORIENTED_EDGE ( 'NONE', *, *, #49, .T. ) ;
#121 = SURFACE_SIDE_STYLE ('',( #169 ) ) ;
#122 = FILL_AREA_STYLE_COLOUR ( '', #584 ) ;
#123 = B_SPLINE_CURVE_WITH_KNOTS ( 'NONE', 3,
 ( #515, #175, #343, #567 ),
 .UNSPECIFIED., .F., .F.,
 ( 4, 4 ),
 ( 2.380742992388550235E-07, 0.001606744326298653472 ),
 .UNSPECIFIED. ) ;
#124 = DIRECTION ( 'NONE',  ( -0.000000000000000000, -0.000000000000000000, -1.000000000000000000 ) ) ;
#125 = CARTESIAN_POINT ( 'NONE',  ( 2.750000000000030198, 1.587713240271480863, 0.2456200930618777645 ) ) ;
#126 = ORIENTED_EDGE ( 'NONE', *, *, #576, .T. ) ;
#127 = FACE_OUTER_BOUND ( 'NONE', #12, .T. ) ;
#128 = CIRCLE ( 'NONE', #432, 2.750000000000002665 ) ;
#129 = ADVANCED_FACE ( 'NONE', ( #629 ), #694, .T. ) ;
#130 = FACE_OUTER_BOUND ( 'NONE', #321, .T. ) ;
#131 = ORIENTED_EDGE ( 'NONE', *, *, #336, .F. ) ;
#132 = CARTESIAN_POINT ( 'NONE',  ( -2.749999999999993339, 1.070839432838519345, 2.290204901803032822 ) ) ;
#133 = EDGE_LOOP ( 'NONE', ( #639, #18, #400, #131 ) ) ;
#134 = EDGE_CURVE ( 'NONE', #186, #514, #403, .T. ) ;
#135 = VERTEX_POINT ( 'NONE', #690 ) ;
#136 = CARTESIAN_POINT ( 'NONE',  ( -2.749999999999995559, 1.587713240271480863, 2.154379906938139300 ) ) ;
#137 = ORIENTED_EDGE ( 'NONE', *, *, #199, .F. ) ;
#138 = ORIENTED_EDGE ( 'NONE', *, *, #430, .T. ) ;
#139 = CARTESIAN_POINT ( 'NONE',  ( 2.750000000000026645, -6.009258394948671624E-15, 2.399999999999999911 ) ) ;
#140 = ORIENTED_EDGE ( 'NONE', *, *, #107, .T. ) ;
#141 = EDGE_CURVE ( 'NONE', #511, #75, #370, .T. ) ;
#142 = B_SPLINE_CURVE_WITH_KNOTS ( 'NONE', 3,
 ( #542, #98, #433, #322, #491, #654 ),
 .UNSPECIFIED., .F., .F.,
 ( 4, 2, 4 ),
 ( 0.001606744326298747798, 0.002406996759593283894, 0.003207249192887819990 ),
 .UNSPECIFIED. ) ;
#143 = VERTEX_POINT ( 'NONE', #125 ) ;
#144 = ORIENTED_EDGE ( 'NONE', *, *, #334, .T. ) ;
#145 = PRODUCT_DEFINITION ( 'Î´Öª', '', #615, #396 ) ;
#146 = AXIS2_PLACEMENT_3D ( 'NONE', #302, #611, #111 ) ;
#147 = EDGE_CURVE ( 'NONE', #186, #143, #198, .T. ) ;
#148 = CARTESIAN_POINT ( 'NONE',  ( -2.749999999999981792, -1.587713240271501736, 2.154379906938140188 ) ) ;
#149 = ORIENTED_EDGE ( 'NONE', *, *, #371, .F. ) ;
#150 = DIRECTION ( 'NONE',  ( -1.000000000000000000, 0.000000000000000000, 0.000000000000000000 ) ) ;
#151 = STYLED_ITEM ( 'NONE', ( #191 ), #222 ) ;
#152 = CYLINDRICAL_SURFACE ( 'NONE', #471, 1.229375000000001217 ) ;
#153 = STYLED_ITEM ( 'NONE', ( #561 ), #487 ) ;
#154 = CARTESIAN_POINT ( 'NONE',  ( -2.749999999999981792, -1.587713240271501736, 2.399999999999999911 ) ) ;
#155 = CARTESIAN_POINT ( 'NONE',  ( 1.375000000000001998, -2.381569860407219519, 0.000000000000000000 ) ) ;
#156 = DIRECTION ( 'NONE',  ( -0.8660254037844411501, 0.4999999999999957812, 0.000000000000000000 ) ) ;
#157 = CARTESIAN_POINT ( 'NONE',  ( 2.300137710042393202, 1.847441354476776043, 2.304334003591999025 ) ) ;
#158 = DIRECTION ( 'NONE',  ( -1.000000000000000000, 2.185184870890404710E-15, 0.000000000000000000 ) ) ;
#159 = EDGE_CURVE ( 'NONE', #78, #625, #379, .T. ) ;
#160 = CARTESIAN_POINT ( 'NONE',  ( 2.750000000000026645, -6.009258394948671624E-15, 0.000000000000000000 ) ) ;
#161 =( LENGTH_UNIT ( ) NAMED_UNIT ( * ) SI_UNIT ( .MILLI., .METRE. ) );
#162 = CARTESIAN_POINT ( 'NONE',  ( -2.749999999999982681, -1.329082474007967196, 0.1709598218003685610 ) ) ;
#163 = COLOUR_RGB ( '',0.7529411764705882248, 0.7529411764705882248, 0.7529411764705882248 ) ;
#164 = CARTESIAN_POINT ( 'NONE',  ( -0.4498622899576112943, -2.915698366337658332, 0.09566599640799676452 ) ) ;
#165 = EDGE_CURVE ( 'NONE', #75, #511, #475, .T. ) ;
#166 = CARTESIAN_POINT ( 'NONE',  ( 1.375000000000001998, -2.381569860407219519, 0.000000000000000000 ) ) ;
#167 = FACE_OUTER_BOUND ( 'NONE', #90, .T. ) ;
#168 = CARTESIAN_POINT ( 'NONE',  ( -2.749999999999985345, -0.5353163540067306103, 0.02312817098222708784 ) ) ;
#169 = SURFACE_STYLE_FILL_AREA ( #664 ) ;
#170 = SURFACE_STYLE_FILL_AREA ( #291 ) ;
#171 = ADVANCED_FACE ( 'NONE', ( #304 ), #607, .T. ) ;
#172 = CONICAL_SURFACE ( 'NONE', #189, 2.750000000000002665, 1.047197551196600074 ) ;
#173 = ORIENTED_EDGE ( 'NONE', *, *, #399, .F. ) ;
#174 =( NAMED_UNIT ( * ) PLANE_ANGLE_UNIT ( ) SI_UNIT ( $, .RADIAN. ) );
#175 = CARTESIAN_POINT ( 'NONE',  ( -0.4498622899576108503, 2.915698366337636571, 2.304334003592015012 ) ) ;
#176 = DIRECTION ( 'NONE',  ( -1.000000000000000000, 0.000000000000000000, 0.000000000000000000 ) ) ;
#177 = EDGE_LOOP ( 'NONE', ( #126, #362, #140 ) ) ;
#178 = CARTESIAN_POINT ( 'NONE',  ( -2.749999999999981792, -1.587713240271501736, 0.2456200930618595291 ) ) ;
#179 = CARTESIAN_POINT ( 'NONE',  ( 0.000000000000000000, 0.000000000000000000, 2.399999999999999911 ) ) ;
#180 = CARTESIAN_POINT ( 'NONE',  ( 2.750000000000028866, 0.5411524347732046269, 2.376217812183541778 ) ) ;
#181 = ORIENTED_EDGE ( 'NONE', *, *, #102, .T. ) ;
#182 = CARTESIAN_POINT ( 'NONE',  ( 2.750000000000023093, -1.587713240271584780, 0.2456200930617989941 ) ) ;
#183 = EDGE_CURVE ( 'NONE', #29, #593, #484, .T. ) ;
#184 = CARTESIAN_POINT ( 'NONE',  ( 0.000000000000000000, 0.000000000000000000, 0.000000000000000000 ) ) ;
#185 = B_SPLINE_CURVE_WITH_KNOTS ( 'NONE', 3,
 ( #455, #164, #459, #721 ),
 .UNSPECIFIED., .F., .F.,
 ( 4, 4 ),
 ( 2.380742992387570324E-07, 0.001606744326298683396 ),
 .UNSPECIFIED. ) ;
#186 = VERTEX_POINT ( 'NONE', #246 ) ;
#187 = CARTESIAN_POINT ( 'NONE',  ( -1.229375000000001217, 0.000000000000000000, 0.000000000000000000 ) ) ;
#188 = B_SPLINE_CURVE_WITH_KNOTS ( 'NONE', 3,
 ( #249, #533, #132, #14, #193, #640 ),
 .UNSPECIFIED., .F., .F.,
 ( 4, 2, 4 ),
 ( 0.008546303792089657639, 0.009350274710054279695, 0.01015424562801890175 ),
 .UNSPECIFIED. ) ;
#189 = AXIS2_PLACEMENT_3D ( 'NONE', #179, #1, #565 ) ;
#190 = ORIENTED_EDGE ( 'NONE', *, *, #613, .F. ) ;
#191 = PRESENTATION_STYLE_ASSIGNMENT (( #670 ) ) ;
#192 = ORIENTED_EDGE ( 'NONE', *, *, #165, .F. ) ;
#193 = CARTESIAN_POINT ( 'NONE',  ( -2.749999999999988898, 0.2689487648616765147, 2.400000000000007461 ) ) ;
#194 = VECTOR ( 'NONE', #219, 1000.000000000000000 ) ;
#195 = ORIENTED_EDGE ( 'NONE', *, *, #520, .T. ) ;
#196 = B_SPLINE_CURVE_WITH_KNOTS ( 'NONE', 3,
 ( #440, #33, #276, #209 ),
 .UNSPECIFIED., .F., .F.,
 ( 4, 4 ),
 ( 2.380742992388539118E-07, 0.001606744326298680360 ),
 .UNSPECIFIED. ) ;
#197 = CARTESIAN_POINT ( 'NONE',  ( -1.374999999999978018, 2.381569860407211525, 0.000000000000000000 ) ) ;
#198 = B_SPLINE_CURVE_WITH_KNOTS ( 'NONE', 3,
 ( #71, #404, #299, #354, #461, #119 ),
 .UNSPECIFIED., .F., .F.,
 ( 4, 2, 4 ),
 ( 0.001606744326298638077, 0.002406996759593228816, 0.003207249192887819556 ),
 .UNSPECIFIED. ) ;
#199 = EDGE_CURVE ( 'NONE', #451, #295, #216, .T. ) ;
#200 = ORIENTED_EDGE ( 'NONE', *, *, #562, .F. ) ;
#201 = CARTESIAN_POINT ( 'NONE',  ( -2.749999999999984013, -1.064861299511078663, 2.291462851427618297 ) ) ;
#202 = AXIS2_PLACEMENT_3D ( 'NONE', #223, #158, #662 ) ;
#203 = ORIENTED_EDGE ( 'NONE', *, *, #84, .T. ) ;
#204 = B_SPLINE_CURVE_WITH_KNOTS ( 'NONE', 3,
 ( #723, #727, #230, #452, #713, #39 ),
 .UNSPECIFIED., .F., .F.,
 ( 4, 2, 4 ),
 ( 0.001606744326298712670, 0.002406996759593269149, 0.003207249192887825194 ),
 .UNSPECIFIED. ) ;
#205 = ORIENTED_EDGE ( 'NONE', *, *, #46, .T. ) ;
#206 = ADVANCED_FACE ( 'NONE', ( #453 ), #636, .T. ) ;
#207 = B_SPLINE_CURVE_WITH_KNOTS ( 'NONE', 3,
 ( #553, #722, #661, #155 ),
 .UNSPECIFIED., .F., .F.,
 ( 4, 4 ),
 ( 2.380742993044233410E-07, 0.001606744326298712670 ),
 .UNSPECIFIED. ) ;
#208 = CARTESIAN_POINT ( 'NONE',  ( 1.374999999999969358, 2.381569860407227068, 2.399999999999999911 ) ) ;
#209 = CARTESIAN_POINT ( 'NONE',  ( 1.374999999999997113, -2.381569860407210637, 2.399999999999999911 ) ) ;
#210 = CARTESIAN_POINT ( 'NONE',  ( -2.749999999999982681, -1.329082474007968084, 2.229040178199631406 ) ) ;
#211 = DIRECTION ( 'NONE',  ( 0.000000000000000000, 0.000000000000000000, -1.000000000000000000 ) ) ;
#212 = AXIS2_PLACEMENT_3D ( 'NONE', #651, #482, #599 ) ;
#213 = CARTESIAN_POINT ( 'NONE',  ( 2.750000000000025313, -0.5353163539958712969, 2.376871829018952109 ) ) ;
#214 = CARTESIAN_POINT ( 'NONE',  ( -4.157796499959112230E-17, 3.175426480542919982, 0.2456200930618471778 ) ) ;
#215 = CARTESIAN_POINT ( 'NONE',  ( 2.750000000000023093, -1.587713240271584780, 2.154379906938201028 ) ) ;
#216 = B_SPLINE_CURVE_WITH_KNOTS ( 'NONE', 3,
 ( #241, #16, #180, #728, #55, #632 ),
 .UNSPECIFIED., .F., .F.,
 ( 4, 2, 4 ),
 ( 0.004580851406117032731, 0.005385276343559264843, 0.006189701281001496955 ),
 .UNSPECIFIED. ) ;
#217 = APPLICATION_PROTOCOL_DEFINITION ( 'draft international standard', 'automotive_design', 1998, #418 ) ;
#218 = CARTESIAN_POINT ( 'NONE',  ( -0.4506121144344695240, 2.915265454974077297, 0.1090894304640973589 ) ) ;
#219 = DIRECTION ( 'NONE',  ( -0.000000000000000000, -0.000000000000000000, -1.000000000000000000 ) ) ;
#220 = CIRCLE ( 'NONE', #109, 2.750000000000002665 ) ;
#221 =( NAMED_UNIT ( * ) PLANE_ANGLE_UNIT ( ) SI_UNIT ( $, .RADIAN. ) );
#222 = ADVANCED_FACE ( 'Nface2', ( #130 ), #631, .F. ) ;
#223 = CARTESIAN_POINT ( 'NONE',  ( 2.750000000000023093, -1.587713240271473758, 2.399999999999999911 ) ) ;
#224 = AXIS2_PLACEMENT_3D ( 'NONE', #724, #225, #413 ) ;
#225 = DIRECTION ( 'NONE',  ( 0.000000000000000000, 0.000000000000000000, -1.000000000000000000 ) ) ;
#226 = CARTESIAN_POINT ( 'NONE',  ( 2.750000000000030198, 1.587713240271480863, 2.399999999999999911 ) ) ;
#227 = B_SPLINE_CURVE_WITH_KNOTS ( 'NONE', 3,
 ( #160, #36, #556, #488, #502, #42 ),
 .UNSPECIFIED., .F., .F.,
 ( 4, 2, 4 ),
 ( 0.01015424563133334596, 0.01095756197254200634, 0.01176087831375066499 ),
 .UNSPECIFIED. ) ;
#228 = EDGE_CURVE ( 'NONE', #232, #85, #185, .T. ) ;
#229 = UNCERTAINTY_MEASURE_WITH_UNIT (LENGTH_MEASURE( 1.000000000000000082E-05 ), #598, 'distance_accuracy_value', 'NONE');
#230 = CARTESIAN_POINT ( 'NONE',  ( 0.9085346626517047941, -2.650883748492886216, 0.02351960456806496264 ) ) ;
#231 = SURFACE_STYLE_FILL_AREA ( #294 ) ;
#232 = VERTEX_POINT ( 'NONE', #68 ) ;
#233 =( NAMED_UNIT ( * ) SI_UNIT ( $, .STERADIAN. ) SOLID_ANGLE_UNIT ( ) );
#234 = FACE_OUTER_BOUND ( 'NONE', #578, .T. ) ;
#235 = DIRECTION ( 'NONE',  ( -1.000000000000000000, 0.000000000000000000, 0.000000000000000000 ) ) ;
#236 = PRESENTATION_LAYER_ASSIGNMENT (  '', '', ( #689 ) ) ;
#237 = ORIENTED_EDGE ( 'NONE', *, *, #134, .T. ) ;
#238 = FILL_AREA_STYLE_COLOUR ( '', #344 ) ;
#239 = SHAPE_DEFINITION_REPRESENTATION ( #534, #684 ) ;
#240 = DIRECTION ( 'NONE',  ( 1.000000000000000000, 0.000000000000000000, 0.000000000000000000 ) ) ;
#241 = CARTESIAN_POINT ( 'NONE',  ( 2.750000000000026645, -6.009258394948671624E-15, 2.399999999999999911 ) ) ;
#242 = ORIENTED_EDGE ( 'NONE', *, *, #228, .F. ) ;
#243 = B_SPLINE_CURVE_WITH_KNOTS ( 'NONE', 3,
 ( #275, #504, #435, #666 ),
 .UNSPECIFIED., .F., .F.,
 ( 4, 4 ),
 ( 2.380742992387856462E-07, 0.001606744326298700310 ),
 .UNSPECIFIED. ) ;
#244 = B_SPLINE_CURVE_WITH_KNOTS ( 'NONE', 3,
 ( #492, #612, #44, #218, #278, #214 ),
 .UNSPECIFIED., .F., .F.,
 ( 4, 2, 4 ),
 ( 0.001606744326298700310, 0.002406996759593243995, 0.003207249192887787897 ),
 .UNSPECIFIED. ) ;
#245 = APPLICATION_PROTOCOL_DEFINITION ( 'draft international standard', 'automotive_design', 1998, #264 ) ;
#246 = CARTESIAN_POINT ( 'NONE',  ( 1.374999999999969802, 2.381569860407227512, 0.000000000000000000 ) ) ;
#247 = EDGE_LOOP ( 'NONE', ( #424, #589, #635 ) ) ;
#248 = EDGE_CURVE ( 'NONE', #75, #483, #411, .T. ) ;
#249 = CARTESIAN_POINT ( 'NONE',  ( -2.749999999999995559, 1.587713240271480863, 2.154379906938139300 ) ) ;
#250 = ORIENTED_EDGE ( 'NONE', *, *, #319, .F. ) ;
#251 = DIRECTION ( 'NONE',  ( 0.000000000000000000, 0.000000000000000000, -1.000000000000000000 ) ) ;
#252 = VERTEX_POINT ( 'NONE', #506 ) ;
#253 = CARTESIAN_POINT ( 'NONE',  ( -2.749999999999986677, -0.5353163540067308324, 2.376871829017773052 ) ) ;
#254 = MANIFOLD_SOLID_BREP ( 'Nface2', #540 ) ;
#255 = EDGE_CURVE ( 'NONE', #529, #476, #105, .T. ) ;
#256 = ORIENTED_EDGE ( 'NONE', *, *, #183, .F. ) ;
#257 = ORIENTED_EDGE ( 'NONE', *, *, #652, .F. ) ;
#258 = CARTESIAN_POINT ( 'NONE',  ( 2.750000000000028866, 1.070839432840182681, 0.1097950981969457451 ) ) ;
#259 =( GEOMETRIC_REPRESENTATION_CONTEXT ( 3 ) GLOBAL_UNCERTAINTY_ASSIGNED_CONTEXT ( ( #698 ) ) GLOBAL_UNIT_ASSIGNED_CONTEXT ( ( #508, #221, #233 ) ) REPRESENTATION_CONTEXT ( 'NONE', 'WORKASPACE' ) );
#260 = MECHANICAL_DESIGN_GEOMETRIC_PRESENTATION_REPRESENTATION (  '', ( #153 ), #355 ) ;
#261 = EDGE_CURVE ( 'NONE', #85, #375, #374, .T. ) ;
#262 = ORIENTED_EDGE ( 'NONE', *, *, #480, .T. ) ;
#263 = CARTESIAN_POINT ( 'NONE',  ( -1.374999999999989564, -2.381569860407215078, 2.399999999999999911 ) ) ;
#264 = APPLICATION_CONTEXT ( 'automotive_design' ) ;
#265 = ORIENTED_EDGE ( 'NONE', *, *, #480, .F. ) ;
#266 = AXIS2_PLACEMENT_3D ( 'NONE', #572, #519, #10 ) ;
#267 = ORIENTED_EDGE ( 'NONE', *, *, #581, .T. ) ;
#268 = ORIENTED_EDGE ( 'NONE', *, *, #576, .F. ) ;
#269 = DIRECTION ( 'NONE',  ( 0.000000000000000000, 0.000000000000000000, -1.000000000000000000 ) ) ;
#270 = CARTESIAN_POINT ( 'NONE',  ( 2.750000000000030198, 1.587713240271480863, 0.2456200930618777645 ) ) ;
#271 = CARTESIAN_POINT ( 'NONE',  ( 1.229375000000001217, 1.505550158701778807E-16, 2.399999999999999911 ) ) ;
#272 = CARTESIAN_POINT ( 'NONE',  ( 1.374999999999969802, 2.381569860407227512, 0.000000000000000000 ) ) ;
#273 = AXIS2_PLACEMENT_3D ( 'NONE', #390, #283, #503 ) ;
#274 = DIRECTION ( 'NONE',  ( 0.8660254037844453689, -0.4999999999999883427, 0.000000000000000000 ) ) ;
#275 = CARTESIAN_POINT ( 'NONE',  ( -2.749999999999995559, 1.587713240271480863, 0.2456200930618604727 ) ) ;
#276 = CARTESIAN_POINT ( 'NONE',  ( 0.9064794551410539913, -2.652070323102400984, 2.399999999999996358 ) ) ;
#277 = AXIS2_PLACEMENT_3D ( 'NONE', #2, #113, #617 ) ;
#278 = CARTESIAN_POINT ( 'NONE',  ( -0.2243700767916233796, 3.045886356309181142, 0.1708300674639641747 ) ) ;
#279 = B_SPLINE_CURVE_WITH_KNOTS ( 'NONE', 3,
 ( #473, #697, #415, #263 ),
 .UNSPECIFIED., .F., .F.,
 ( 4, 4 ),
 ( 2.380742992387856462E-07, 0.001606744326298670169 ),
 .UNSPECIFIED. ) ;
#280 = DIRECTION ( 'NONE',  ( 0.000000000000000000, 0.000000000000000000, -1.000000000000000000 ) ) ;
#281 = DIRECTION ( 'NONE',  ( -0.4999999999999883427, -0.8660254037844453689, 0.000000000000000000 ) ) ;
#282 = DIRECTION ( 'NONE',  ( -0.000000000000000000, -0.000000000000000000, -1.000000000000000000 ) ) ;
#283 = DIRECTION ( 'NONE',  ( 0.000000000000000000, 0.000000000000000000, -1.000000000000000000 ) ) ;
#284 = CARTESIAN_POINT ( 'NONE',  ( 0.000000000000000000, 0.000000000000000000, 2.399999999999999911 ) ) ;
#285 = AXIS2_PLACEMENT_3D ( 'NONE', #86, #326, #101 ) ;
#286 = CARTESIAN_POINT ( 'NONE',  ( -1.229375000000001217, 0.000000000000000000, 2.399999999999999911 ) ) ;
#287 = AXIS2_PLACEMENT_3D ( 'NONE', #394, #439, #383 ) ;
#288 = CARTESIAN_POINT ( 'NONE',  ( -2.749999999999993339, 1.070839432838519567, 0.1097950981969674639 ) ) ;
#289 = AXIS2_PLACEMENT_3D ( 'NONE', #4, #352, #626 ) ;
#290 = CARTESIAN_POINT ( 'NONE',  ( 0.000000000000000000, 0.000000000000000000, 2.399999999999999911 ) ) ;
#291 = FILL_AREA_STYLE ('',( #122 ) ) ;
#292 = ORIENTED_EDGE ( 'NONE', *, *, #107, .F. ) ;
#293 = CARTESIAN_POINT ( 'NONE',  ( 2.525629923208345673, -1.717253364505244573, 2.229169932536028131 ) ) ;
#294 = FILL_AREA_STYLE ('',( #308 ) ) ;
#295 = VERTEX_POINT ( 'NONE', #348 ) ;
#296 = CARTESIAN_POINT ( 'NONE',  ( -1.608385152161849074, -2.246824879981713430, 2.368939395233463684E-15 ) ) ;
#297 = B_SPLINE_CURVE_WITH_KNOTS ( 'NONE', 3,
 ( #551, #337, #40, #658, #558, #45 ),
 .UNSPECIFIED., .F., .F.,
 ( 4, 2, 4 ),
 ( 0.001606744326298653472, 0.002406996759593220576, 0.003207249192887788765 ),
 .UNSPECIFIED. ) ;
#298 = FACE_OUTER_BOUND ( 'NONE', #686, .T. ) ;
#299 = CARTESIAN_POINT ( 'NONE',  ( 1.841465337348288989, 2.112255972321553710, 0.02351960456806192687 ) ) ;
#300 = ORIENTED_EDGE ( 'NONE', *, *, #708, .F. ) ;
#301 = CARTESIAN_POINT ( 'NONE',  ( 0.000000000000000000, 3.175426480542919982, 2.399999999999999911 ) ) ;
#302 = CARTESIAN_POINT ( 'NONE',  ( 0.000000000000000000, 0.000000000000000000, 0.000000000000000000 ) ) ;
#303 = FACE_OUTER_BOUND ( 'NONE', #481, .T. ) ;
#304 = FACE_OUTER_BOUND ( 'NONE', #538, .T. ) ;
#305 = ORIENTED_EDGE ( 'NONE', *, *, #660, .T. ) ;
#306 = MECHANICAL_DESIGN_GEOMETRIC_PRESENTATION_REPRESENTATION (  '', ( #151 ), #259 ) ;
#307 = FILL_AREA_STYLE ('',( #361 ) ) ;
#308 = FILL_AREA_STYLE_COLOUR ( '', #163 ) ;
#309 = ORIENTED_EDGE ( 'NONE', *, *, #261, .T. ) ;
#310 = ORIENTED_EDGE ( 'NONE', *, *, #115, .F. ) ;
#311 = PRODUCT ( 'M3ÂÝÄ¸', 'M3ÂÝÄ¸', '', ( #408 ) ) ;
#312 = ORIENTED_EDGE ( 'NONE', *, *, #46, .F. ) ;
#313 = DIRECTION ( 'NONE',  ( 1.000000000000000000, 0.000000000000000000, 0.000000000000000000 ) ) ;
#314 = ORIENTED_EDGE ( 'NONE', *, *, #592, .F. ) ;
#315 = CARTESIAN_POINT ( 'NONE',  ( 2.750000000000027978, 0.5411524347732042939, 0.02378218781645848393 ) ) ;
#316 = MECHANICAL_DESIGN_GEOMETRIC_PRESENTATION_REPRESENTATION (  '', ( #24 ), #317 ) ;
#317 =( GEOMETRIC_REPRESENTATION_CONTEXT ( 3 ) GLOBAL_UNCERTAINTY_ASSIGNED_CONTEXT ( ( #365 ) ) GLOBAL_UNIT_ASSIGNED_CONTEXT ( ( #672, #667, #110 ) ) REPRESENTATION_CONTEXT ( 'NONE', 'WORKASPACE' ) );
#318 = ORIENTED_EDGE ( 'NONE', *, *, #255, .F. ) ;
#319 = EDGE_CURVE ( 'NONE', #525, #78, #541, .T. ) ;
#320 = ORIENTED_EDGE ( 'NONE', *, *, #228, .T. ) ;
#321 = EDGE_LOOP ( 'NONE', ( #696, #676, #114, #405 ) ) ;
#322 = CARTESIAN_POINT ( 'NONE',  ( 0.4506121144344664708, 2.915265454974082626, 2.290910569535899999 ) ) ;
#323 = AXIS2_PLACEMENT_3D ( 'NONE', #422, #427, #19 ) ;
#324 = FACE_OUTER_BOUND ( 'NONE', #133, .T. ) ;
#325 = EDGE_LOOP ( 'NONE', ( #618, #205, #32 ) ) ;
#326 = DIRECTION ( 'NONE',  ( 0.000000000000000000, 0.000000000000000000, 1.000000000000000000 ) ) ;
#327 = DIRECTION ( 'NONE',  ( -0.000000000000000000, -0.000000000000000000, -1.000000000000000000 ) ) ;
#328 = CARTESIAN_POINT ( 'NONE',  ( -1.141614847838134494, -2.516314840832730049, 2.399999999999997247 ) ) ;
#329 = CARTESIAN_POINT ( 'NONE',  ( 0.000000000000000000, 0.000000000000000000, 0.000000000000000000 ) ) ;
#330 =( GEOMETRIC_REPRESENTATION_CONTEXT ( 3 ) GLOBAL_UNCERTAINTY_ASSIGNED_CONTEXT ( ( #668 ) ) GLOBAL_UNIT_ASSIGNED_CONTEXT ( ( #57, #174, #15 ) ) REPRESENTATION_CONTEXT ( 'NONE', 'WORKASPACE' ) );
#331 = PLANE ( 'NONE',  #202 ) ;
#332 = CARTESIAN_POINT ( 'NONE',  ( 2.750000000000026645, -6.009258394948671624E-15, 2.399999999999999911 ) ) ;
#333 = CARTESIAN_POINT ( 'NONE',  ( 0.9064794551410306767, 2.652070323102396543, -1.803559784994511603E-15 ) ) ;
#334 = EDGE_CURVE ( 'NONE', #451, #8, #590, .T. ) ;
#335 = FACE_OUTER_BOUND ( 'NONE', #582, .T. ) ;
#336 = EDGE_CURVE ( 'NONE', #511, #363, #518, .T. ) ;
#337 = CARTESIAN_POINT ( 'NONE',  ( -1.608385152161838638, 2.246824879981702772, 2.400000000000006128 ) ) ;
#338 = CARTESIAN_POINT ( 'NONE',  ( -2.299387885565508327, -1.847874265840347530, 0.1090894304641079060 ) ) ;
#339 = FACE_OUTER_BOUND ( 'NONE', #366, .T. ) ;
#340 = VECTOR ( 'NONE', #103, 1000.000000000000000 ) ;
#341 = DIRECTION ( 'NONE',  ( 0.000000000000000000, 0.000000000000000000, 1.000000000000000000 ) ) ;
#342 = DIRECTION ( 'NONE',  ( -0.000000000000000000, -0.000000000000000000, -1.000000000000000000 ) ) ;
#343 = CARTESIAN_POINT ( 'NONE',  ( -0.9064794551410356727, 2.652070323102387217, 2.400000000000006128 ) ) ;
#344 = COLOUR_RGB ( '',0.7529411764705882248, 0.7529411764705882248, 0.7529411764705882248 ) ;
#345 = CARTESIAN_POINT ( 'NONE',  ( 0.000000000000000000, 0.000000000000000000, 2.399999999999999911 ) ) ;
#346 = AXIS2_PLACEMENT_3D ( 'NONE', #23, #367, #425 ) ;
#347 = ORIENTED_EDGE ( 'NONE', *, *, #430, .F. ) ;
#348 = CARTESIAN_POINT ( 'NONE',  ( 2.750000000000030198, 1.587713240271480863, 2.154379906938121980 ) ) ;
#349 = DIRECTION ( 'NONE',  ( 0.000000000000000000, 0.000000000000000000, 1.000000000000000000 ) ) ;
#350 = CARTESIAN_POINT ( 'NONE',  ( -2.749999999999988454, -1.149254302834634700E-14, 0.000000000000000000 ) ) ;
#351 = ORIENTED_EDGE ( 'NONE', *, *, #463, .T. ) ;
#352 = DIRECTION ( 'NONE',  ( 0.000000000000000000, 0.000000000000000000, 1.000000000000000000 ) ) ;
#353 = PLANE ( 'NONE',  #266 ) ;
#354 = CARTESIAN_POINT ( 'NONE',  ( 2.299387885565534972, 1.847874265840335095, 0.1090894304641145396 ) ) ;
#355 =( GEOMETRIC_REPRESENTATION_CONTEXT ( 3 ) GLOBAL_UNCERTAINTY_ASSIGNED_CONTEXT ( ( #77 ) ) GLOBAL_UNIT_ASSIGNED_CONTEXT ( ( #161, #95, #665 ) ) REPRESENTATION_CONTEXT ( 'NONE', 'WORKASPACE' ) );
#356 = VERTEX_POINT ( 'NONE', #182 ) ;
#357 = B_SPLINE_CURVE_WITH_KNOTS ( 'NONE', 3,
 ( #38, #328, #35, #606, #442, #547 ),
 .UNSPECIFIED., .F., .F.,
 ( 4, 2, 4 ),
 ( 0.001606744326298670169, 0.002406996759593227515, 0.003207249192887785295 ),
 .UNSPECIFIED. ) ;
#358 = ADVANCED_FACE ( 'Nface3', ( #560, #127 ), #501, .F. ) ;
#359 = EDGE_CURVE ( 'NONE', #369, #625, #188, .T. ) ;
#360 = ORIENTED_EDGE ( 'NONE', *, *, #406, .F. ) ;
#361 = FILL_AREA_STYLE_COLOUR ( '', #51 ) ;
#362 = ORIENTED_EDGE ( 'NONE', *, *, #70, .T. ) ;
#363 = VERTEX_POINT ( 'NONE', #187 ) ;
#364 = CARTESIAN_POINT ( 'NONE',  ( 2.750000000000026645, -6.009258394948671624E-15, 0.000000000000000000 ) ) ;
#365 = UNCERTAINTY_MEASURE_WITH_UNIT (LENGTH_MEASURE( 1.000000000000000082E-05 ), #672, 'distance_accuracy_value', 'NONE');
#366 = EDGE_LOOP ( 'NONE', ( #378, #642, #646 ) ) ;
#367 = DIRECTION ( 'NONE',  ( 0.000000000000000000, 0.000000000000000000, -1.000000000000000000 ) ) ;
#368 = AXIS2_PLACEMENT_3D ( 'NONE', #443, #211, #437 ) ;
#369 = VERTEX_POINT ( 'NONE', #136 ) ;
#370 = CIRCLE ( 'NONE', #41, 1.229375000000001217 ) ;
#371 = EDGE_CURVE ( 'NONE', #135, #8, #477, .T. ) ;
#372 = ORIENTED_EDGE ( 'NONE', *, *, #520, .F. ) ;
#373 = B_SPLINE_CURVE_WITH_KNOTS ( 'NONE', 3,
 ( #700, #79, #253, #201, #210, #148 ),
 .UNSPECIFIED., .F., .F.,
 ( 4, 2, 4 ),
 ( 0.01015424562801890175, 0.01095756196919238368, 0.01176087831036586560 ),
 .UNSPECIFIED. ) ;
#374 = B_SPLINE_CURVE_WITH_KNOTS ( 'NONE', 3,
 ( #677, #296, #50, #338, #619, #178 ),
 .UNSPECIFIED., .F., .F.,
 ( 4, 2, 4 ),
 ( 0.001606744326298683396, 0.002406996759593234021, 0.003207249192887784862 ),
 .UNSPECIFIED. ) ;
#375 = VERTEX_POINT ( 'NONE', #634 ) ;
#376 = MECHANICAL_DESIGN_GEOMETRIC_PRESENTATION_REPRESENTATION (  '', ( #689 ), #330 ) ;
#377 = CARTESIAN_POINT ( 'NONE',  ( 0.000000000000000000, 0.000000000000000000, 0.000000000000000000 ) ) ;
#378 = ORIENTED_EDGE ( 'NONE', *, *, #613, .T. ) ;
#379 = CIRCLE ( 'NONE', #530, 2.750000000000002665 ) ;
#380 = FACE_OUTER_BOUND ( 'NONE', #706, .T. ) ;
#381 = AXIS2_PLACEMENT_3D ( 'NONE', #377, #643, #586 ) ;
#382 = DIRECTION ( 'NONE',  ( 0.000000000000000000, 0.000000000000000000, -1.000000000000000000 ) ) ;
#383 = DIRECTION ( 'NONE',  ( 1.000000000000000000, 0.000000000000000000, 0.000000000000000000 ) ) ;
#384 = ADVANCED_FACE ( 'NONE', ( #467 ), #637, .T. ) ;
#385 = CARTESIAN_POINT ( 'NONE',  ( 0.000000000000000000, 0.000000000000000000, 0.000000000000000000 ) ) ;
#386 = LINE ( 'NONE', #718, #340 ) ;
#387 = PLANE ( 'NONE',  #428 ) ;
#388 = CARTESIAN_POINT ( 'NONE',  ( 1.843520544858940902, 2.111069397712038054, 2.400000000000001688 ) ) ;
#389 = CARTESIAN_POINT ( 'NONE',  ( 0.4498622899576086853, 2.915698366337641012, 0.09566599640798716109 ) ) ;
#390 = CARTESIAN_POINT ( 'NONE',  ( 0.000000000000000000, 0.000000000000000000, 2.399999999999999911 ) ) ;
#391 = SURFACE_STYLE_USAGE ( .BOTH. , #121 ) ;
#392 = B_SPLINE_CURVE_WITH_KNOTS ( 'NONE', 3,
 ( #650, #389, #333, #272 ),
 .UNSPECIFIED., .F., .F.,
 ( 4, 4 ),
 ( 2.380742992384986079E-07, 0.001606744326298638077 ),
 .UNSPECIFIED. ) ;
#393 = FACE_OUTER_BOUND ( 'NONE', #705, .T. ) ;
#394 = CARTESIAN_POINT ( 'NONE',  ( 0.000000000000000000, 0.000000000000000000, 0.000000000000000000 ) ) ;
#395 = DIRECTION ( 'NONE',  ( -1.000000000000000000, 0.000000000000000000, 0.000000000000000000 ) ) ;
#396 = PRODUCT_DEFINITION_CONTEXT ( 'detailed design', #264, 'design' ) ;
#397 = ORIENTED_EDGE ( 'NONE', *, *, #406, .T. ) ;
#398 = DIRECTION ( 'NONE',  ( 1.000000000000000000, 0.000000000000000000, 0.000000000000000000 ) ) ;
#399 = EDGE_CURVE ( 'NONE', #143, #514, #568, .T. ) ;
#400 = ORIENTED_EDGE ( 'NONE', *, *, #463, .F. ) ;
#401 = DIRECTION ( 'NONE',  ( -0.000000000000000000, -0.000000000000000000, -1.000000000000000000 ) ) ;
#402 = LINE ( 'NONE', #674, #5 ) ;
#403 = CIRCLE ( 'NONE', #621, 2.750000000000002665 ) ;
#404 = CARTESIAN_POINT ( 'NONE',  ( 1.608385152161837750, 2.246824879981713874, -1.850555231513831877E-15 ) ) ;
#405 = ORIENTED_EDGE ( 'NONE', *, *, #65, .F. ) ;
#406 = EDGE_CURVE ( 'NONE', #514, #693, #726, .T. ) ;
#407 = DIRECTION ( 'NONE',  ( 0.000000000000000000, 0.000000000000000000, -1.000000000000000000 ) ) ;
#408 = PRODUCT_CONTEXT ( 'NONE', #418, 'mechanical' ) ;
#409 = DIRECTION ( 'NONE',  ( 0.000000000000000000, 0.000000000000000000, -1.000000000000000000 ) ) ;
#410 = ORIENTED_EDGE ( 'NONE', *, *, #609, .F. ) ;
#411 = LINE ( 'NONE', #62, #87 ) ;
#412 = EDGE_CURVE ( 'NONE', #29, #474, #25, .T. ) ;
#413 = DIRECTION ( 'NONE',  ( -1.000000000000000000, 0.000000000000000000, 0.000000000000000000 ) ) ;
#414 = ORIENTED_EDGE ( 'NONE', *, *, #255, .T. ) ;
#415 = CARTESIAN_POINT ( 'NONE',  ( -1.843520544858938237, -2.111069397712042051, 2.399999999999997691 ) ) ;
#416 = VERTEX_POINT ( 'NONE', #583 ) ;
#417 = CARTESIAN_POINT ( 'NONE',  ( 0.000000000000000000, 0.000000000000000000, 2.399999999999999911 ) ) ;
#418 = APPLICATION_CONTEXT ( 'automotive_design' ) ;
#419 = AXIS2_PLACEMENT_3D ( 'NONE', #500, #499, #714 ) ;
#420 = ORIENTED_EDGE ( 'NONE', *, *, #708, .T. ) ;
#421 = AXIS2_PLACEMENT_3D ( 'NONE', #76, #382, #645 ) ;
#422 = CARTESIAN_POINT ( 'NONE',  ( 0.000000000000000000, 0.000000000000000000, 0.000000000000000000 ) ) ;
#423 = ORIENTED_EDGE ( 'NONE', *, *, #84, .F. ) ;
#424 = ORIENTED_EDGE ( 'NONE', *, *, #80, .T. ) ;
#425 = DIRECTION ( 'NONE',  ( -1.000000000000000000, 0.000000000000000000, 0.000000000000000000 ) ) ;
#426 = ORIENTED_EDGE ( 'NONE', *, *, #261, .F. ) ;
#427 = DIRECTION ( 'NONE',  ( 0.000000000000000000, 0.000000000000000000, 1.000000000000000000 ) ) ;
#428 = AXIS2_PLACEMENT_3D ( 'NONE', #444, #281, #274 ) ;
#429 = ORIENTED_EDGE ( 'NONE', *, *, #505, .F. ) ;
#430 = EDGE_CURVE ( 'NONE', #416, #78, #279, .T. ) ;
#431 = FACE_OUTER_BOUND ( 'NONE', #22, .T. ) ;
#432 = AXIS2_PLACEMENT_3D ( 'NONE', #385, #711, #446 ) ;
#433 = CARTESIAN_POINT ( 'NONE',  ( 0.9085346626516827007, 2.650883748492882219, 2.376480395431941783 ) ) ;
#434 = DIRECTION ( 'NONE',  ( -1.000000000000000000, 0.000000000000000000, 0.000000000000000000 ) ) ;
#435 = CARTESIAN_POINT ( 'NONE',  ( -1.843520544858934906, 2.111069397712027840, -6.599388659833460005E-15 ) ) ;
#436 = AXIS2_PLACEMENT_3D ( 'NONE', #184, #675, #176 ) ;
#437 = DIRECTION ( 'NONE',  ( -1.000000000000000000, 0.000000000000000000, 0.000000000000000000 ) ) ;
#438 = FACE_OUTER_BOUND ( 'NONE', #575, .T. ) ;
#439 = DIRECTION ( 'NONE',  ( 0.000000000000000000, 0.000000000000000000, 1.000000000000000000 ) ) ;
#440 = CARTESIAN_POINT ( 'NONE',  ( 6.968979911058673333E-15, -3.175426480542947516, 2.154379906938136635 ) ) ;
#441 = DIRECTION ( 'NONE',  ( 0.4999999999999957812, 0.8660254037844411501, -0.000000000000000000 ) ) ;
#442 = CARTESIAN_POINT ( 'NONE',  ( -0.2243700767916198546, -3.045886356309206455, 2.229169932536022358 ) ) ;
#443 = CARTESIAN_POINT ( 'NONE',  ( 0.000000000000000000, 0.000000000000000000, 2.399999999999999911 ) ) ;
#444 = CARTESIAN_POINT ( 'NONE',  ( 2.750000000000030198, 1.587713240271480863, 2.399999999999999911 ) ) ;
#445 = DIRECTION ( 'NONE',  ( -0.000000000000000000, -0.000000000000000000, -1.000000000000000000 ) ) ;
#446 = DIRECTION ( 'NONE',  ( -1.000000000000000000, 0.000000000000000000, 0.000000000000000000 ) ) ;
#447 = AXIS2_PLACEMENT_3D ( 'NONE', #570, #342, #395 ) ;
#448 = CIRCLE ( 'NONE', #287, 1.229375000000001217 ) ;
#449 = DIRECTION ( 'NONE',  ( 0.000000000000000000, 0.000000000000000000, -1.000000000000000000 ) ) ;
#450 = ADVANCED_FACE ( 'Nface1', ( #595, #526 ), #692, .T. ) ;
#451 = VERTEX_POINT ( 'NONE', #139 ) ;
#452 = CARTESIAN_POINT ( 'NONE',  ( 0.4506121144344809037, -2.915265454974098169, 0.1090894304641104595 ) ) ;
#453 = FACE_OUTER_BOUND ( 'NONE', #699, .T. ) ;
#454 = ORIENTED_EDGE ( 'NONE', *, *, #58, .T. ) ;
#455 = CARTESIAN_POINT ( 'NONE',  ( 6.961238680711578303E-15, -3.175426480542947516, 0.2456200930618632761 ) ) ;
#456 = CARTESIAN_POINT ( 'NONE',  ( 2.299387885565501222, -1.847874265840349750, 2.290910569535893337 ) ) ;
#457 = DIRECTION ( 'NONE',  ( 1.000000000000000000, 0.000000000000000000, 0.000000000000000000 ) ) ;
#458 = ORIENTED_EDGE ( 'NONE', *, *, #505, .T. ) ;
#459 = CARTESIAN_POINT ( 'NONE',  ( -0.9064794551410435552, -2.652070323102402760, 2.338385717951149652E-15 ) ) ;
#460 = CARTESIAN_POINT ( 'NONE',  ( 1.608385152161854847, -2.246824879981712542, 2.399999999999997247 ) ) ;
#461 = CARTESIAN_POINT ( 'NONE',  ( 2.525629923208394523, 1.717253364505224811, 0.1708300674639876282 ) ) ;
#462 = ORIENTED_EDGE ( 'NONE', *, *, #65, .T. ) ;
#463 = EDGE_CURVE ( 'NONE', #363, #483, #622, .T. ) ;
#464 = DIRECTION ( 'NONE',  ( -0.000000000000000000, -0.000000000000000000, -1.000000000000000000 ) ) ;
#465 = DIRECTION ( 'NONE',  ( 0.000000000000000000, 0.000000000000000000, -1.000000000000000000 ) ) ;
#466 = ORIENTED_EDGE ( 'NONE', *, *, #102, .F. ) ;
#467 = FACE_OUTER_BOUND ( 'NONE', #21, .T. ) ;
#468 = B_SPLINE_CURVE_WITH_KNOTS ( 'NONE', 3,
 ( #614, #162, #100, #168, #544, #43 ),
 .UNSPECIFIED., .F., .F.,
 ( 4, 2, 4 ),
 ( 0.002973311420277513929, 0.003777081411297063956, 0.004580851402316614418 ),
 .UNSPECIFIED. ) ;
#469 = ORIENTED_EDGE ( 'NONE', *, *, #80, .F. ) ;
#470 = CARTESIAN_POINT ( 'NONE',  ( -2.749999999999991118, 0.5411524347875372731, 0.02378218781845339511 ) ) ;
#471 = AXIS2_PLACEMENT_3D ( 'NONE', #610, #327, #546 ) ;
#472 = ORIENTED_EDGE ( 'NONE', *, *, #49, .F. ) ;
#473 = CARTESIAN_POINT ( 'NONE',  ( -2.749999999999981792, -1.587713240271501736, 2.154379906938140188 ) ) ;
#474 = VERTEX_POINT ( 'NONE', #197 ) ;
#475 = CIRCLE ( 'NONE', #485, 1.229375000000001217 ) ;
#476 = VERTEX_POINT ( 'NONE', #73 ) ;
#477 = CIRCLE ( 'NONE', #346, 2.750000000000002665 ) ;
#478 = CARTESIAN_POINT ( 'NONE',  ( 0.000000000000000000, 0.000000000000000000, 0.000000000000000000 ) ) ;
#479 = ADVANCED_FACE ( 'NONE', ( #543 ), #695, .T. ) ;
#480 = EDGE_CURVE ( 'NONE', #625, #416, #373, .T. ) ;
#481 = EDGE_LOOP ( 'NONE', ( #486, #72, #256, #647, #472, #265 ) ) ;
#482 = DIRECTION ( 'NONE',  ( 0.000000000000000000, 0.000000000000000000, -1.000000000000000000 ) ) ;
#483 = VERTEX_POINT ( 'NONE', #88 ) ;
#484 = B_SPLINE_CURVE_WITH_KNOTS ( 'NONE', 3,
 ( #350, #7, #470, #288, #685, #521 ),
 .UNSPECIFIED., .F., .F.,
 ( 4, 2, 4 ),
 ( 0.004580851402316614418, 0.005385276339780759557, 0.006189701277244904695 ),
 .UNSPECIFIED. ) ;
#485 = AXIS2_PLACEMENT_3D ( 'NONE', #345, #638, #66 ) ;
#486 = ORIENTED_EDGE ( 'NONE', *, *, #359, .F. ) ;
#487 = ADVANCED_FACE ( 'Nface2', ( #324 ), #152, .F. ) ;
#488 = CARTESIAN_POINT ( 'NONE',  ( 2.750000000000023537, -1.064861299499560987, 0.1085371485699952593 ) ) ;
#489 = CARTESIAN_POINT ( 'NONE',  ( 2.750000000000027534, 0.2689487648427815181, 1.403872406779277382E-14 ) ) ;
#490 = AXIS2_PLACEMENT_3D ( 'NONE', #716, #441, #156 ) ;
#491 = CARTESIAN_POINT ( 'NONE',  ( 0.2243700767916220473, 3.045886356309183807, 2.229169932536034349 ) ) ;
#492 = CARTESIAN_POINT ( 'NONE',  ( -1.374999999999978018, 2.381569860407211525, 0.000000000000000000 ) ) ;
#493 = CARTESIAN_POINT ( 'NONE',  ( 2.750000000000023093, -1.587713240271473758, 2.399999999999999911 ) ) ;
#494 =( NAMED_UNIT ( * ) PLANE_ANGLE_UNIT ( ) SI_UNIT ( $, .RADIAN. ) );
#495 = VECTOR ( 'NONE', #401, 1000.000000000000000 ) ;
#496 = ADVANCED_FACE ( 'NONE', ( #393 ), #37, .F. ) ;
#497 = PLANE ( 'NONE',  #528 ) ;
#498 = ADVANCED_FACE ( 'NONE', ( #335 ), #387, .F. ) ;
#499 = DIRECTION ( 'NONE',  ( -0.4999999999999985012, 0.8660254037844395958, 0.000000000000000000 ) ) ;
#500 = CARTESIAN_POINT ( 'NONE',  ( 6.938893903907229955E-15, -3.175426480542947516, 2.399999999999999911 ) ) ;
#501 = PLANE ( 'NONE',  #89 ) ;
#502 = CARTESIAN_POINT ( 'NONE',  ( 2.750000000000023981, -1.329082474001308745, 0.1709598217984660551 ) ) ;
#503 = DIRECTION ( 'NONE',  ( 1.000000000000000000, 0.000000000000000000, 0.000000000000000000 ) ) ;
#504 = CARTESIAN_POINT ( 'NONE',  ( -2.300137710042372330, 1.847441354476771380, 0.09566599640799045012 ) ) ;
#505 = EDGE_CURVE ( 'NONE', #295, #143, #386, .T. ) ;
#506 = CARTESIAN_POINT ( 'NONE',  ( 6.968979911058673333E-15, -3.175426480542947516, 2.154379906938136635 ) ) ;
#507 = AXIS2_PLACEMENT_3D ( 'NONE', #27, #709, #313 ) ;
#508 =( LENGTH_UNIT ( ) NAMED_UNIT ( * ) SI_UNIT ( .MILLI., .METRE. ) );
#509 = DIRECTION ( 'NONE',  ( -1.000000000000000000, 0.000000000000000000, 0.000000000000000000 ) ) ;
#510 = SURFACE_STYLE_USAGE ( .BOTH. , #106 ) ;
#511 = VERTEX_POINT ( 'NONE', #286 ) ;
#512 = CARTESIAN_POINT ( 'NONE',  ( 2.750000000000023093, -1.587713240271584780, 2.154379906938201028 ) ) ;
#513 = DIRECTION ( 'NONE',  ( 0.000000000000000000, 0.000000000000000000, 1.000000000000000000 ) ) ;
#514 = VERTEX_POINT ( 'NONE', #550 ) ;
#515 = CARTESIAN_POINT ( 'NONE',  ( -3.730867320654844785E-17, 3.175426480542919982, 2.154379906938152622 ) ) ;
#516 = CARTESIAN_POINT ( 'NONE',  ( 0.000000000000000000, 0.000000000000000000, 0.000000000000000000 ) ) ;
#517 = ORIENTED_EDGE ( 'NONE', *, *, #147, .F. ) ;
#518 = LINE ( 'NONE', #9, #117 ) ;
#519 = DIRECTION ( 'NONE',  ( 1.000000000000000000, 4.370369741780771554E-15, -0.000000000000000000 ) ) ;
#520 = EDGE_CURVE ( 'NONE', #474, #476, #244, .T. ) ;
#521 = CARTESIAN_POINT ( 'NONE',  ( -2.749999999999995559, 1.587713240271480863, 0.2456200930618604727 ) ) ;
#522 = ORIENTED_EDGE ( 'NONE', *, *, #52, .F. ) ;
#523 = SURFACE_STYLE_FILL_AREA ( #307 ) ;
#524 = SURFACE_SIDE_STYLE ('',( #231 ) ) ;
#525 = VERTEX_POINT ( 'NONE', #655 ) ;
#526 = FACE_OUTER_BOUND ( 'NONE', #591, .T. ) ;
#527 = ORIENTED_EDGE ( 'NONE', *, *, #609, .T. ) ;
#528 = AXIS2_PLACEMENT_3D ( 'NONE', #112, #118, #623 ) ;
#529 = VERTEX_POINT ( 'NONE', #557 ) ;
#530 = AXIS2_PLACEMENT_3D ( 'NONE', #577, #251, #574 ) ;
#531 = EDGE_LOOP ( 'NONE', ( #320, #310, #644 ) ) ;
#532 = AXIS2_PLACEMENT_3D ( 'NONE', #478, #687, #434 ) ;
#533 = CARTESIAN_POINT ( 'NONE',  ( -2.749999999999994671, 1.330878690270377751, 2.228521655228306475 ) ) ;
#534 = PRODUCT_DEFINITION_SHAPE ( 'NONE', 'NONE',  #145 ) ;
#535 = ADVANCED_FACE ( 'NONE', ( #167 ), #331, .F. ) ;
#536 = ORIENTED_EDGE ( 'NONE', *, *, #70, .F. ) ;
#537 = ADVANCED_FACE ( 'NONE', ( #339 ), #83, .T. ) ;
#538 = EDGE_LOOP ( 'NONE', ( #67, #360, #703 ) ) ;
#539 = EDGE_CURVE ( 'NONE', #693, #232, #204, .T. ) ;
#540 = CLOSED_SHELL ( 'NONE', ( #487, #498, #549, #587, #496, #13, #535, #358, #450, #222, #171, #384, #571, #601, #479, #712, #559, #129, #28, #206, #537, #554 ) ) ;
#541 = CIRCLE ( 'NONE', #597, 2.750000000000002665 ) ;
#542 = CARTESIAN_POINT ( 'NONE',  ( 1.374999999999969358, 2.381569860407227068, 2.399999999999999911 ) ) ;
#543 = FACE_OUTER_BOUND ( 'NONE', #325, .T. ) ;
#544 = CARTESIAN_POINT ( 'NONE',  ( -2.749999999999987566, -0.2687297922402410166, -8.006155417447646805E-15 ) ) ;
#545 = DIRECTION ( 'NONE',  ( -0.000000000000000000, -0.000000000000000000, -1.000000000000000000 ) ) ;
#546 = DIRECTION ( 'NONE',  ( -1.000000000000000000, 0.000000000000000000, 0.000000000000000000 ) ) ;
#547 = CARTESIAN_POINT ( 'NONE',  ( 6.968979911058673333E-15, -3.175426480542947516, 2.154379906938136635 ) ) ;
#548 = VECTOR ( 'NONE', #545, 1000.000000000000000 ) ;
#549 = ADVANCED_FACE ( 'NONE', ( #438 ), #497, .F. ) ;
#550 = CARTESIAN_POINT ( 'NONE',  ( 2.750000000000026645, -6.009258394948671624E-15, 0.000000000000000000 ) ) ;
#551 = CARTESIAN_POINT ( 'NONE',  ( -1.374999999999982458, 2.381569860407219075, 2.399999999999999911 ) ) ;
#552 = CIRCLE ( 'NONE', #436, 2.750000000000002665 ) ;
#553 = CARTESIAN_POINT ( 'NONE',  ( 2.750000000000023093, -1.587713240271584780, 0.2456200930617989941 ) ) ;
#554 = ADVANCED_FACE ( 'NONE', ( #298 ), #172, .T. ) ;
#555 = DIRECTION ( 'NONE',  ( 1.000000000000000000, 0.000000000000000000, 0.000000000000000000 ) ) ;
#556 = CARTESIAN_POINT ( 'NONE',  ( 2.750000000000025757, -0.5353163539958726291, 0.02312817098104881161 ) ) ;
#557 = CARTESIAN_POINT ( 'NONE',  ( -3.730867320654844785E-17, 3.175426480542919982, 2.154379906938152622 ) ) ;
#558 = CARTESIAN_POINT ( 'NONE',  ( -2.525629923208366545, 1.717253364505223479, 2.229169932536027243 ) ) ;
#559 = ADVANCED_FACE ( 'NONE', ( #234 ), #649, .T. ) ;
#560 = FACE_BOUND ( 'NONE', #74, .T. ) ;
#561 = PRESENTATION_STYLE_ASSIGNMENT (( #99 ) ) ;
#562 = EDGE_CURVE ( 'NONE', #529, #135, #123, .T. ) ;
#563 = AXIS2_PLACEMENT_3D ( 'NONE', #11, #465, #398 ) ;
#564 = PRESENTATION_LAYER_ASSIGNMENT (  '', '', ( #153 ) ) ;
#565 = DIRECTION ( 'NONE',  ( 1.000000000000000000, 0.000000000000000000, 0.000000000000000000 ) ) ;
#566 = ORIENTED_EDGE ( 'NONE', *, *, #412, .T. ) ;
#567 = CARTESIAN_POINT ( 'NONE',  ( -1.374999999999982458, 2.381569860407219075, 2.399999999999999911 ) ) ;
#568 = B_SPLINE_CURVE_WITH_KNOTS ( 'NONE', 3,
 ( #270, #34, #258, #315, #489, #364 ),
 .UNSPECIFIED., .F., .F.,
 ( 4, 2, 4 ),
 ( 0.008546303795402571818, 0.009350274713367958887, 0.01015424563133334596 ),
 .UNSPECIFIED. ) ;
#569 = ORIENTED_EDGE ( 'NONE', *, *, #52, .T. ) ;
#570 = CARTESIAN_POINT ( 'NONE',  ( 0.000000000000000000, 0.000000000000000000, 2.399999999999999911 ) ) ;
#571 = ADVANCED_FACE ( 'NONE', ( #59 ), #97, .T. ) ;
#572 = CARTESIAN_POINT ( 'NONE',  ( -2.749999999999995559, 1.587713240271480863, 2.399999999999999911 ) ) ;
#573 = CONICAL_SURFACE ( 'NONE', #285, 2.750000000000002665, 1.047197551196600074 ) ;
#574 = DIRECTION ( 'NONE',  ( -1.000000000000000000, 0.000000000000000000, 0.000000000000000000 ) ) ;
#575 = EDGE_LOOP ( 'NONE', ( #200, #414, #372, #312, #314, #466 ) ) ;
#576 = EDGE_CURVE ( 'NONE', #525, #630, #91, .T. ) ;
#577 = CARTESIAN_POINT ( 'NONE',  ( 0.000000000000000000, 0.000000000000000000, 2.399999999999999911 ) ) ;
#578 = EDGE_LOOP ( 'NONE', ( #262, #138, #3 ) ) ;
#579 = DIRECTION ( 'NONE',  ( -1.000000000000000000, 0.000000000000000000, -0.000000000000000000 ) ) ;
#580 = ORIENTED_EDGE ( 'NONE', *, *, #627, .F. ) ;
#581 = EDGE_CURVE ( 'NONE', #252, #232, #402, .T. ) ;
#582 = EDGE_LOOP ( 'NONE', ( #522, #458, #517, #61, #318, #190 ) ) ;
#583 = CARTESIAN_POINT ( 'NONE',  ( -2.749999999999981792, -1.587713240271501736, 2.154379906938140188 ) ) ;
#584 = COLOUR_RGB ( '',0.7529411764705882248, 0.7529411764705882248, 0.7529411764705882248 ) ;
#585 = ORIENTED_EDGE ( 'NONE', *, *, #720, .F. ) ;
#586 = DIRECTION ( 'NONE',  ( -1.000000000000000000, 0.000000000000000000, 0.000000000000000000 ) ) ;
#587 = ADVANCED_FACE ( 'NONE', ( #303 ), #353, .F. ) ;
#588 = VECTOR ( 'NONE', #282, 1000.000000000000000 ) ;
#589 = ORIENTED_EDGE ( 'NONE', *, *, #702, .T. ) ;
#590 = CIRCLE ( 'NONE', #289, 2.750000000000002665 ) ;
#591 = EDGE_LOOP ( 'NONE', ( #669, #566, #420, #237, #397, #648 ) ) ;
#592 = EDGE_CURVE ( 'NONE', #369, #593, #616, .T. ) ;
#593 = VERTEX_POINT ( 'NONE', #715 ) ;
#594 =( NAMED_UNIT ( * ) SI_UNIT ( $, .STERADIAN. ) SOLID_ANGLE_UNIT ( ) );
#595 = FACE_BOUND ( 'NONE', #30, .T. ) ;
#596 = ORIENTED_EDGE ( 'NONE', *, *, #334, .F. ) ;
#597 = AXIS2_PLACEMENT_3D ( 'NONE', #290, #407, #509 ) ;
#598 =( LENGTH_UNIT ( ) NAMED_UNIT ( * ) SI_UNIT ( .MILLI., .METRE. ) );
#599 = DIRECTION ( 'NONE',  ( -1.000000000000000000, 0.000000000000000000, -0.000000000000000000 ) ) ;
#600 = LINE ( 'NONE', #493, #194 ) ;
#601 = ADVANCED_FACE ( 'NONE', ( #380 ), #573, .T. ) ;
#602 = CARTESIAN_POINT ( 'NONE',  ( 0.000000000000000000, 0.000000000000000000, 0.000000000000000000 ) ) ;
#603 = CARTESIAN_POINT ( 'NONE',  ( 2.750000000000024425, -1.329082474001308745, 2.229040178201532996 ) ) ;
#604 = AXIS2_PLACEMENT_3D ( 'NONE', #679, #409, #240 ) ;
#605 = CARTESIAN_POINT ( 'NONE',  ( -2.750000000000002665, -1.201851678989713183E-14, 2.399999999999999911 ) ) ;
#606 = CARTESIAN_POINT ( 'NONE',  ( -0.4506121144344693019, -2.915265454974099057, 2.290910569535889341 ) ) ;
#607 = CONICAL_SURFACE ( 'NONE', #31, 2.750000000000002665, 1.047197551196600074 ) ;
#608 = DIRECTION ( 'NONE',  ( -1.000000000000000000, 0.000000000000000000, 0.000000000000000000 ) ) ;
#609 = EDGE_CURVE ( 'NONE', #625, #135, #63, .T. ) ;
#610 = CARTESIAN_POINT ( 'NONE',  ( 0.000000000000000000, 0.000000000000000000, 2.399999999999999911 ) ) ;
#611 = DIRECTION ( 'NONE',  ( 0.000000000000000000, 0.000000000000000000, 1.000000000000000000 ) ) ;
#612 = CARTESIAN_POINT ( 'NONE',  ( -1.141614847838124502, 2.516314840832716282, -6.779016435112976822E-15 ) ) ;
#613 = EDGE_CURVE ( 'NONE', #8, #529, #142, .T. ) ;
#614 = CARTESIAN_POINT ( 'NONE',  ( -2.749999999999981792, -1.587713240271501736, 0.2456200930618595291 ) ) ;
#615 = PRODUCT_DEFINITION_FORMATION_WITH_SPECIFIED_SOURCE ( 'ÈÎºÎ', '', #311, .NOT_KNOWN. ) ;
#616 = LINE ( 'NONE', #657, #548 ) ;
#617 = DIRECTION ( 'NONE',  ( 1.000000000000000000, 0.000000000000000000, 0.000000000000000000 ) ) ;
#618 = ORIENTED_EDGE ( 'NONE', *, *, #183, .T. ) ;
#619 = CARTESIAN_POINT ( 'NONE',  ( -2.525629923208357219, -1.717253364505241464, 0.1708300674639754158 ) ) ;
#620 = PRESENTATION_STYLE_ASSIGNMENT (( #510 ) ) ;
#621 = AXIS2_PLACEMENT_3D ( 'NONE', #60, #624, #680 ) ;
#622 = CIRCLE ( 'NONE', #507, 1.229375000000001217 ) ;
#623 = DIRECTION ( 'NONE',  ( 0.8660254037844427044, 0.4999999999999931721, 0.000000000000000000 ) ) ;
#624 = DIRECTION ( 'NONE',  ( 0.000000000000000000, 0.000000000000000000, -1.000000000000000000 ) ) ;
#625 = VERTEX_POINT ( 'NONE', #605 ) ;
#626 = DIRECTION ( 'NONE',  ( 1.000000000000000000, 0.000000000000000000, 0.000000000000000000 ) ) ;
#627 = EDGE_CURVE ( 'NONE', #356, #693, #207, .T. ) ;
#628 = CARTESIAN_POINT ( 'NONE',  ( 0.000000000000000000, 0.000000000000000000, 0.000000000000000000 ) ) ;
#629 = FACE_OUTER_BOUND ( 'NONE', #247, .T. ) ;
#630 = VERTEX_POINT ( 'NONE', #92 ) ;
#631 = CYLINDRICAL_SURFACE ( 'NONE', #447, 1.229375000000001217 ) ;
#632 = CARTESIAN_POINT ( 'NONE',  ( 2.750000000000030198, 1.587713240271480863, 2.154379906938121980 ) ) ;
#633 = ORIENTED_EDGE ( 'NONE', *, *, #159, .F. ) ;
#634 = CARTESIAN_POINT ( 'NONE',  ( -2.749999999999981792, -1.587713240271501736, 0.2456200930618595291 ) ) ;
#635 = ORIENTED_EDGE ( 'NONE', *, *, #319, .T. ) ;
#636 = CONICAL_SURFACE ( 'NONE', #563, 2.750000000000002665, 1.047197551196600074 ) ;
#637 = CONICAL_SURFACE ( 'NONE', #323, 2.750000000000002665, 1.047197551196600074 ) ;
#638 = DIRECTION ( 'NONE',  ( 0.000000000000000000, 0.000000000000000000, 1.000000000000000000 ) ) ;
#639 = ORIENTED_EDGE ( 'NONE', *, *, #141, .T. ) ;
#640 = CARTESIAN_POINT ( 'NONE',  ( -2.750000000000002665, -1.201851678989713183E-14, 2.399999999999999911 ) ) ;
#641 = ORIENTED_EDGE ( 'NONE', *, *, #141, .F. ) ;
#642 = ORIENTED_EDGE ( 'NONE', *, *, #562, .T. ) ;
#643 = DIRECTION ( 'NONE',  ( 0.000000000000000000, 0.000000000000000000, 1.000000000000000000 ) ) ;
#644 = ORIENTED_EDGE ( 'NONE', *, *, #539, .T. ) ;
#645 = DIRECTION ( 'NONE',  ( -1.000000000000000000, 0.000000000000000000, 0.000000000000000000 ) ) ;
#646 = ORIENTED_EDGE ( 'NONE', *, *, #371, .T. ) ;
#647 = ORIENTED_EDGE ( 'NONE', *, *, #58, .F. ) ;
#648 = ORIENTED_EDGE ( 'NONE', *, *, #115, .T. ) ;
#649 = CONICAL_SURFACE ( 'NONE', #604, 2.750000000000002665, 1.047197551196600074 ) ;
#650 = CARTESIAN_POINT ( 'NONE',  ( -4.157796499959112230E-17, 3.175426480542919982, 0.2456200930618471778 ) ) ;
#651 = CARTESIAN_POINT ( 'NONE',  ( 2.750000000000030198, 1.587713240271480863, 0.000000000000000000 ) ) ;
#652 = EDGE_CURVE ( 'NONE', #514, #356, #227, .T. ) ;
#653 = CARTESIAN_POINT ( 'NONE',  ( -2.749999999999988454, -1.149254302834634700E-14, 0.000000000000000000 ) ) ;
#654 = CARTESIAN_POINT ( 'NONE',  ( -3.730867320654844785E-17, 3.175426480542919982, 2.154379906938152622 ) ) ;
#655 = CARTESIAN_POINT ( 'NONE',  ( 1.374999999999997113, -2.381569860407210637, 2.399999999999999911 ) ) ;
#656 = CARTESIAN_POINT ( 'NONE',  ( 2.750000000000025313, -1.064861299499560321, 2.291462851430005276 ) ) ;
#657 = CARTESIAN_POINT ( 'NONE',  ( -2.749999999999995559, 1.587713240271480863, 2.399999999999999911 ) ) ;
#658 = CARTESIAN_POINT ( 'NONE',  ( -2.299387885565513212, 1.847874265840330432, 2.290910569535895558 ) ) ;
#659 = B_SPLINE_CURVE_WITH_KNOTS ( 'NONE', 3,
 ( #663, #157, #388, #108 ),
 .UNSPECIFIED., .F., .F.,
 ( 4, 4 ),
 ( 2.380742992387856462E-07, 0.001606744326298747798 ),
 .UNSPECIFIED. ) ;
#660 = EDGE_CURVE ( 'NONE', #476, #186, #392, .T. ) ;
#661 = CARTESIAN_POINT ( 'NONE',  ( 1.843520544858939791, -2.111069397712041606, 3.430443927709066943E-15 ) ) ;
#662 = DIRECTION ( 'NONE',  ( -2.185184870890404710E-15, -1.000000000000000000, 0.000000000000000000 ) ) ;
#663 = CARTESIAN_POINT ( 'NONE',  ( 2.750000000000030198, 1.587713240271480863, 2.154379906938121980 ) ) ;
#664 = FILL_AREA_STYLE ('',( #238 ) ) ;
#665 =( NAMED_UNIT ( * ) SI_UNIT ( $, .STERADIAN. ) SOLID_ANGLE_UNIT ( ) );
#666 = CARTESIAN_POINT ( 'NONE',  ( -1.374999999999978018, 2.381569860407211525, 0.000000000000000000 ) ) ;
#667 =( NAMED_UNIT ( * ) PLANE_ANGLE_UNIT ( ) SI_UNIT ( $, .RADIAN. ) );
#668 = UNCERTAINTY_MEASURE_WITH_UNIT (LENGTH_MEASURE( 1.000000000000000082E-05 ), #57, 'distance_accuracy_value', 'NONE');
#669 = ORIENTED_EDGE ( 'NONE', *, *, #720, .T. ) ;
#670 = SURFACE_STYLE_USAGE ( .BOTH. , #524 ) ;
#671 = EDGE_LOOP ( 'NONE', ( #195, #305, #300 ) ) ;
#672 =( LENGTH_UNIT ( ) NAMED_UNIT ( * ) SI_UNIT ( .MILLI., .METRE. ) );
#673 = AXIS2_PLACEMENT_3D ( 'NONE', #602, #94, #150 ) ;
#674 = CARTESIAN_POINT ( 'NONE',  ( 6.938893903907229955E-15, -3.175426480542947516, 2.399999999999999911 ) ) ;
#675 = DIRECTION ( 'NONE',  ( 0.000000000000000000, 0.000000000000000000, -1.000000000000000000 ) ) ;
#676 = ORIENTED_EDGE ( 'NONE', *, *, #165, .T. ) ;
#677 = CARTESIAN_POINT ( 'NONE',  ( -1.374999999999993117, -2.381569860407221739, 0.000000000000000000 ) ) ;
#678 = PRESENTATION_LAYER_ASSIGNMENT (  '', '', ( #24 ) ) ;
#679 = CARTESIAN_POINT ( 'NONE',  ( 0.000000000000000000, 0.000000000000000000, 2.399999999999999911 ) ) ;
#680 = DIRECTION ( 'NONE',  ( -1.000000000000000000, 0.000000000000000000, 0.000000000000000000 ) ) ;
#681 = ORIENTED_EDGE ( 'NONE', *, *, #359, .T. ) ;
#682 = PRESENTATION_STYLE_ASSIGNMENT (( #391 ) ) ;
#683 = B_SPLINE_CURVE_WITH_KNOTS ( 'NONE', 3,
 ( #215, #603, #656, #213, #719, #332 ),
 .UNSPECIFIED., .F., .F.,
 ( 4, 2, 4 ),
 ( 0.002973311424052852911, 0.003777081415084942821, 0.004580851406117032731 ),
 .UNSPECIFIED. ) ;
#684 = ADVANCED_BREP_SHAPE_REPRESENTATION ( 'M3ÂÝÄ¸', ( #254, #146 ), #701 ) ;
#685 = CARTESIAN_POINT ( 'NONE',  ( -2.749999999999994671, 1.330878690270377973, 0.1714783447716932419 ) ) ;
#686 = EDGE_LOOP ( 'NONE', ( #181, #681, #527 ) ) ;
#687 = DIRECTION ( 'NONE',  ( 0.000000000000000000, 0.000000000000000000, -1.000000000000000000 ) ) ;
#688 = ORIENTED_EDGE ( 'NONE', *, *, #539, .F. ) ;
#689 = STYLED_ITEM ( 'NONE', ( #620 ), #684 ) ;
#690 = CARTESIAN_POINT ( 'NONE',  ( -1.374999999999982458, 2.381569860407219075, 2.399999999999999911 ) ) ;
#691 = ORIENTED_EDGE ( 'NONE', *, *, #399, .T. ) ;
#692 = PLANE ( 'NONE',  #212 ) ;
#693 = VERTEX_POINT ( 'NONE', #166 ) ;
#694 = CONICAL_SURFACE ( 'NONE', #277, 2.750000000000002665, 1.047197551196600074 ) ;
#695 = CONICAL_SURFACE ( 'NONE', #381, 2.750000000000002665, 1.047197551196600074 ) ;
#696 = ORIENTED_EDGE ( 'NONE', *, *, #248, .F. ) ;
#697 = CARTESIAN_POINT ( 'NONE',  ( -2.300137710042366557, -1.847441354476789144, 2.304334003592004798 ) ) ;
#698 = UNCERTAINTY_MEASURE_WITH_UNIT (LENGTH_MEASURE( 1.000000000000000082E-05 ), #508, 'distance_accuracy_value', 'NONE');
#699 = EDGE_LOOP ( 'NONE', ( #569, #596, #56 ) ) ;
#700 = CARTESIAN_POINT ( 'NONE',  ( -2.750000000000002665, -1.201851678989713183E-14, 2.399999999999999911 ) ) ;
#701 =( GEOMETRIC_REPRESENTATION_CONTEXT ( 3 ) GLOBAL_UNCERTAINTY_ASSIGNED_CONTEXT ( ( #229 ) ) GLOBAL_UNIT_ASSIGNED_CONTEXT ( ( #598, #494, #594 ) ) REPRESENTATION_CONTEXT ( 'NONE', 'WORKASPACE' ) );
#702 = EDGE_CURVE ( 'NONE', #252, #525, #196, .T. ) ;
#703 = ORIENTED_EDGE ( 'NONE', *, *, #652, .T. ) ;
#704 = CIRCLE ( 'NONE', #224, 2.750000000000002665 ) ;
#705 = EDGE_LOOP ( 'NONE', ( #347, #120, #426, #242, #81, #469 ) ) ;
#706 = EDGE_LOOP ( 'NONE', ( #454, #585, #309 ) ) ;
#707 = FACE_OUTER_BOUND ( 'NONE', #671, .T. ) ;
#708 = EDGE_CURVE ( 'NONE', #474, #186, #128, .T. ) ;
#709 = DIRECTION ( 'NONE',  ( 0.000000000000000000, 0.000000000000000000, 1.000000000000000000 ) ) ;
#710 = CARTESIAN_POINT ( 'NONE',  ( -1.374999999999989564, -2.381569860407215078, 2.399999999999999911 ) ) ;
#711 = DIRECTION ( 'NONE',  ( 0.000000000000000000, 0.000000000000000000, -1.000000000000000000 ) ) ;
#712 = ADVANCED_FACE ( 'NONE', ( #707 ), #47, .T. ) ;
#713 = CARTESIAN_POINT ( 'NONE',  ( 0.2243700767916324834, -3.045886356309206011, 0.1708300674639785244 ) ) ;
#714 = DIRECTION ( 'NONE',  ( -0.8660254037844394848, -0.4999999999999984457, 0.000000000000000000 ) ) ;
#715 = CARTESIAN_POINT ( 'NONE',  ( -2.749999999999995559, 1.587713240271480863, 0.2456200930618604727 ) ) ;
#716 = CARTESIAN_POINT ( 'NONE',  ( -2.749999999999981792, -1.587713240271501736, 2.399999999999999911 ) ) ;
#717 = LINE ( 'NONE', #154, #588 ) ;
#718 = CARTESIAN_POINT ( 'NONE',  ( 2.750000000000030198, 1.587713240271480863, 2.399999999999999911 ) ) ;
#719 = CARTESIAN_POINT ( 'NONE',  ( 2.750000000000026201, -0.2687297922328595323, 2.399999999999985700 ) ) ;
#720 = EDGE_CURVE ( 'NONE', #85, #29, #220, .T. ) ;
#721 = CARTESIAN_POINT ( 'NONE',  ( -1.374999999999993117, -2.381569860407221739, 0.000000000000000000 ) ) ;
#722 = CARTESIAN_POINT ( 'NONE',  ( 2.300137710042361228, -1.847441354476790698, 0.09566599640799335058 ) ) ;
#723 = CARTESIAN_POINT ( 'NONE',  ( 1.375000000000001998, -2.381569860407219519, 0.000000000000000000 ) ) ;
#724 = CARTESIAN_POINT ( 'NONE',  ( 0.000000000000000000, 0.000000000000000000, 2.399999999999999911 ) ) ;
#725 = PRESENTATION_LAYER_ASSIGNMENT (  '', '', ( #151 ) ) ;
#726 = CIRCLE ( 'NONE', #532, 2.750000000000002665 ) ;
#727 = CARTESIAN_POINT ( 'NONE',  ( 1.141614847838143820, -2.516314840832729161, 3.510528049895446966E-15 ) ) ;
#728 = CARTESIAN_POINT ( 'NONE',  ( 2.750000000000028866, 1.070839432840182015, 2.290204901803054138 ) ) ;
ENDSEC;
END-ISO-10303-21;
