ISO-10303-21;
HEADER;
FILE_DESCRIPTION (( 'STEP AP214' ),
    '1' );
FILE_NAME ('M4ÂÝÄ¸.step',
    '2023-08-15T03:02:27',
    ( '' ),
    ( '' ),
    'SwSTEP 2.0',
    'SolidWorks 2022',
    '' );
FILE_SCHEMA (( 'AUTOMOTIVE_DESIGN' ));
ENDSEC;

DATA;
#1 = CARTESIAN_POINT ( 'NONE',  ( 2.185904412049192391, -3.213902497841831352, -2.766252091937508872 ) ) ;
#2 = ORIENTED_EDGE ( 'NONE', *, *, #150, .F. ) ;
#3 =( NAMED_UNIT ( * ) SI_UNIT ( $, .STERADIAN. ) SOLID_ANGLE_UNIT ( ) );
#4 = CARTESIAN_POINT ( 'NONE',  ( -3.711506096494204598, 0.5714828682704020668, -2.861380547308763234 ) ) ;
#5 = FACE_BOUND ( 'NONE', #484, .T. ) ;
#6 = ORIENTED_EDGE ( 'NONE', *, *, #510, .F. ) ;
#7 = EDGE_CURVE ( 'NONE', #517, #422, #503, .T. ) ;
#8 = CARTESIAN_POINT ( 'NONE',  ( 1.621000000000000218, 0.000000000000000000, -3.200000000000000178 ) ) ;
#9 =( GEOMETRIC_REPRESENTATION_CONTEXT ( 3 ) GLOBAL_UNCERTAINTY_ASSIGNED_CONTEXT ( ( #424 ) ) GLOBAL_UNIT_ASSIGNED_CONTEXT ( ( #194, #52, #3 ) ) REPRESENTATION_CONTEXT ( 'NONE', 'WORKASPACE' ) );
#10 = CARTESIAN_POINT ( 'NONE',  ( 1.621000000000000218, 0.000000000000000000, -0.2188157520228695696 ) ) ;
#11 = ORIENTED_EDGE ( 'NONE', *, *, #625, .F. ) ;
#12 = CARTESIAN_POINT ( 'NONE',  ( 0.000000000000000000, 0.000000000000000000, -3.200000000000000178 ) ) ;
#13 = AXIS2_PLACEMENT_3D ( 'NONE', #551, #542, #249 ) ;
#14 = AXIS2_PLACEMENT_3D ( 'NONE', #507, #67, #553 ) ;
#15 = CARTESIAN_POINT ( 'NONE',  ( 3.125000000000000000, 0.000000000000000000, -3.200000000000000178 ) ) ;
#16 = CARTESIAN_POINT ( 'NONE',  ( -2.020725942163687616, 3.500000000000001332, -0.5291137421157459109 ) ) ;
#17 = CARTESIAN_POINT ( 'NONE',  ( -4.041451884327380562, 1.084202172485504434E-15, -2.670886257884255155 ) ) ;
#18 = CARTESIAN_POINT ( 'NONE',  ( 0.3420490713162414043, 3.500000000000000888, -2.983461364204165189 ) ) ;
#19 = SHAPE_DEFINITION_REPRESENTATION ( #392, #196 ) ;
#20 = CARTESIAN_POINT ( 'NONE',  ( 3.200958490685176017, 1.455777261214282525, -2.983711150902363940 ) ) ;
#21 = CIRCLE ( 'NONE', #371, 1.621000000000000218 ) ;
#22 = AXIS2_PLACEMENT_3D ( 'NONE', #455, #143, #151 ) ;
#23 = DIRECTION ( 'NONE',  ( 0.000000000000000000, 0.000000000000000000, 1.000000000000000000 ) ) ;
#24 = CIRCLE ( 'NONE', #332, 3.125000000000000000 ) ;
#25 = VERTEX_POINT ( 'NONE', #326 ) ;
#26 = DIRECTION ( 'NONE',  ( 0.000000000000000000, 0.000000000000000000, 1.000000000000000000 ) ) ;
#27 = CARTESIAN_POINT ( 'NONE',  ( -2.020725942163687616, -3.500000000000001776, -2.670886257884255155 ) ) ;
#28 = VECTOR ( 'NONE', #202, 1000.000000000000000 ) ;
#29 = CARTESIAN_POINT ( 'NONE',  ( 3.376616726802499802, -1.151528271491157884, -2.983054960371127606 ) ) ;
#30 = SURFACE_STYLE_USAGE ( .BOTH. , #320 ) ;
#31 = DIRECTION ( 'NONE',  ( 1.000000000000000000, 0.000000000000000000, 0.000000000000000000 ) ) ;
#32 = ORIENTED_EDGE ( 'NONE', *, *, #535, .T. ) ;
#33 = CARTESIAN_POINT ( 'NONE',  ( -2.020725942163687616, 3.500000000000001332, -2.670886257884255155 ) ) ;
#34 = PLANE ( 'NONE',  #100 ) ;
#35 = VERTEX_POINT ( 'NONE', #120 ) ;
#36 = EDGE_CURVE ( 'NONE', #571, #181, #81, .T. ) ;
#37 = CARTESIAN_POINT ( 'NONE',  ( 1.363140381544374335, 3.500000000000001776, -0.3562795956906182893 ) ) ;
#38 = VECTOR ( 'NONE', #117, 999.9999999999998863 ) ;
#39 = CARTESIAN_POINT ( 'NONE',  ( -1.839815752022869955, 0.000000000000000000, -3.200000000000000178 ) ) ;
#40 = CARTESIAN_POINT ( 'NONE',  ( 2.020725942163694278, -3.499999999999996891, -0.5291137421157459109 ) ) ;
#41 = EDGE_CURVE ( 'NONE', #35, #147, #21, .T. ) ;
#42 = ORIENTED_EDGE ( 'NONE', *, *, #297, .T. ) ;
#43 = CARTESIAN_POINT ( 'NONE',  ( -2.861219335805889941, -2.044222738785718363, -0.2162888490976363487 ) ) ;
#44 = VERTEX_POINT ( 'NONE', #532 ) ;
#45 = FILL_AREA_STYLE_COLOUR ( '', #411 ) ;
#46 = DIRECTION ( 'NONE',  ( 1.000000000000000000, 0.000000000000000000, 0.000000000000000000 ) ) ;
#47 = ORIENTED_EDGE ( 'NONE', *, *, #369, .T. ) ;
#48 = UNCERTAINTY_MEASURE_WITH_UNIT (LENGTH_MEASURE( 1.000000000000000082E-05 ), #189, 'distance_accuracy_value', 'NONE');
#49 = CONICAL_SURFACE ( 'NONE', #544, 1.621000000000000218, 1.047197551196598742 ) ;
#50 = DIRECTION ( 'NONE',  ( -1.000000000000000000, 0.000000000000000000, 0.000000000000000000 ) ) ;
#51 = ORIENTED_EDGE ( 'NONE', *, *, #7, .T. ) ;
#52 =( NAMED_UNIT ( * ) PLANE_ANGLE_UNIT ( ) SI_UNIT ( $, .RADIAN. ) );
#53 = DIRECTION ( 'NONE',  ( 1.000000000000000000, 0.000000000000000000, 0.000000000000000000 ) ) ;
#54 = ADVANCED_FACE ( 'NONE', ( #628 ), #260, .T. ) ;
#55 = LINE ( 'NONE', #486, #310 ) ;
#56 = ORIENTED_EDGE ( 'NONE', *, *, #258, .T. ) ;
#57 = DIRECTION ( 'NONE',  ( 1.000000000000000000, 0.000000000000000000, 0.000000000000000000 ) ) ;
#58 = CARTESIAN_POINT ( 'NONE',  ( -0.3409037357876792407, -3.499999999999997335, -0.2164741201938341353 ) ) ;
#59 = ORIENTED_EDGE ( 'NONE', *, *, #508, .F. ) ;
#60 = CARTESIAN_POINT ( 'NONE',  ( -4.041451884327380562, 4.949351114049564452E-16, -2.670886257884255155 ) ) ;
#61 = CARTESIAN_POINT ( 'NONE',  ( -3.200958490685177349, 1.455777261214283413, -0.2162888490976368761 ) ) ;
#62 = DIRECTION ( 'NONE',  ( -0.000000000000000000, -0.000000000000000000, -1.000000000000000000 ) ) ;
#63 = AXIS2_PLACEMENT_3D ( 'NONE', #575, #142, #96 ) ;
#64 = CARTESIAN_POINT ( 'NONE',  ( -2.020725942163687616, 3.500000000000001332, -0.5291137421157459109 ) ) ;
#65 = CARTESIAN_POINT ( 'NONE',  ( 0.000000000000000000, 0.000000000000000000, -0.2188157520228695696 ) ) ;
#66 =( LENGTH_UNIT ( ) NAMED_UNIT ( * ) SI_UNIT ( .MILLI., .METRE. ) );
#67 = DIRECTION ( 'NONE',  ( -0.000000000000000000, 0.000000000000000000, -1.000000000000000000 ) ) ;
#68 = CARTESIAN_POINT ( 'NONE',  ( 3.876273414441882004, 0.2860975021581685374, -2.766252091937508872 ) ) ;
#69 = CIRCLE ( 'NONE', #491, 3.125000000000000000 ) ;
#70 = APPLICATION_CONTEXT ( 'automotive_design' ) ;
#71 = CARTESIAN_POINT ( 'NONE',  ( 4.041451884327380562, 0.000000000000000000, -2.670886257884255155 ) ) ;
#72 = VECTOR ( 'NONE', #26, 1000.000000000000000 ) ;
#73 = ADVANCED_FACE ( 'NONE', ( #135 ), #519, .T. ) ;
#74 = DIRECTION ( 'NONE',  ( 0.000000000000000000, 0.000000000000000000, 1.000000000000000000 ) ) ;
#75 = CARTESIAN_POINT ( 'NONE',  ( -4.041451884327380562, 1.084202172485504434E-15, -2.670886257884255155 ) ) ;
#76 = ORIENTED_EDGE ( 'NONE', *, *, #141, .T. ) ;
#77 = DIRECTION ( 'NONE',  ( 0.4999999999999988898, 6.123233995736752477E-17, -0.8660254037844392627 ) ) ;
#78 = AXIS2_PLACEMENT_3D ( 'NONE', #606, #356, #304 ) ;
#79 = PLANE ( 'NONE',  #190 ) ;
#80 = ADVANCED_FACE ( 'NONE', ( #421 ), #611, .F. ) ;
#81 = LINE ( 'NONE', #39, #489 ) ;
#82 = PLANE ( 'NONE',  #138 ) ;
#83 = DIRECTION ( 'NONE',  ( 0.000000000000000000, 0.000000000000000000, 1.000000000000000000 ) ) ;
#84 = ORIENTED_EDGE ( 'NONE', *, *, #365, .T. ) ;
#85 = CARTESIAN_POINT ( 'NONE',  ( -3.125000000000000000, 0.000000000000000000, -4.336808689942017736E-16 ) ) ;
#86 = CARTESIAN_POINT ( 'NONE',  ( -4.041451884327380562, 8.912381510800000806E-16, -3.200000000000000178 ) ) ;
#87 = ORIENTED_EDGE ( 'NONE', *, *, #230, .F. ) ;
#88 = FACE_OUTER_BOUND ( 'NONE', #379, .T. ) ;
#89 = B_SPLINE_CURVE_WITH_KNOTS ( 'NONE', 3,
 ( #17, #4, #504, #296, #145, #453, #358, #596 ),
 .UNSPECIFIED., .F., .F.,
 ( 4, 2, 2, 4 ),
 ( 2.380739282170055481E-07, 0.002041062161438836429, 0.003061474205194146189, 0.004081886248949457251 ),
 .UNSPECIFIED. ) ;
#90 = VECTOR ( 'NONE', #169, 1000.000000000000000 ) ;
#91 = STYLED_ITEM ( 'NONE', ( #612 ), #196 ) ;
#92 = CARTESIAN_POINT ( 'NONE',  ( -2.185904412049184398, -3.213902497841834460, -0.4337479080624925820 ) ) ;
#93 = ORIENTED_EDGE ( 'NONE', *, *, #150, .T. ) ;
#94 = CARTESIAN_POINT ( 'NONE',  ( 1.694094396866567154, 3.500000000000002220, -0.4348233368141835031 ) ) ;
#95 = CARTESIAN_POINT ( 'NONE',  ( 2.020725942163694278, -3.499999999999996891, -0.5291137421157459109 ) ) ;
#96 = DIRECTION ( 'NONE',  ( 1.000000000000000000, 0.000000000000000000, 0.000000000000000000 ) ) ;
#97 = CARTESIAN_POINT ( 'NONE',  ( 2.020725942163686728, 3.500000000000002220, -0.5291137421157459109 ) ) ;
#98 = EDGE_LOOP ( 'NONE', ( #188, #477, #84, #193 ) ) ;
#99 = DIRECTION ( 'NONE',  ( 0.000000000000000000, -0.000000000000000000, 1.000000000000000000 ) ) ;
#100 = AXIS2_PLACEMENT_3D ( 'NONE', #86, #479, #631 ) ;
#101 = CARTESIAN_POINT ( 'NONE',  ( 0.000000000000000000, 0.000000000000000000, -4.336808689942017736E-16 ) ) ;
#102 = ORIENTED_EDGE ( 'NONE', *, *, #191, .T. ) ;
#103 = PRESENTATION_LAYER_ASSIGNMENT (  '', '', ( #546 ) ) ;
#104 = CARTESIAN_POINT ( 'NONE',  ( 0.000000000000000000, 0.000000000000000000, -3.200000000000000178 ) ) ;
#105 = CARTESIAN_POINT ( 'NONE',  ( -2.020725942163687616, 3.500000000000001332, -2.670886257884255155 ) ) ;
#106 = VERTEX_POINT ( 'NONE', #431 ) ;
#107 =( NAMED_UNIT ( * ) SI_UNIT ( $, .STERADIAN. ) SOLID_ANGLE_UNIT ( ) );
#108 = DIRECTION ( 'NONE',  ( 0.000000000000000000, 0.000000000000000000, 1.000000000000000000 ) ) ;
#109 = CARTESIAN_POINT ( 'NONE',  ( 0.000000000000000000, 0.000000000000000000, -4.336808689942017736E-16 ) ) ;
#110 = DIRECTION ( 'NONE',  ( -0.000000000000000000, -0.000000000000000000, -1.000000000000000000 ) ) ;
#111 = CARTESIAN_POINT ( 'NONE',  ( 2.020725942163686728, 3.500000000000001332, -2.670886257884255599 ) ) ;
#112 = B_SPLINE_CURVE_WITH_KNOTS ( 'NONE', 3,
 ( #105, #284, #437, #638, #407, #18, #458, #609, #160, #111 ),
 .UNSPECIFIED., .F., .F.,
 ( 4, 2, 2, 2, 4 ),
 ( 0.003571969567252213009, 0.004594213952253971625, 0.005616458337255731542, 0.006638702722257489724, 0.007660947107259249642 ),
 .UNSPECIFIED. ) ;
#113 = CONICAL_SURFACE ( 'NONE', #321, 1.621000000000000218, 1.047197551196598742 ) ;
#114 = DIRECTION ( 'NONE',  ( 1.000000000000000000, 0.000000000000000000, 0.000000000000000000 ) ) ;
#115 = CARTESIAN_POINT ( 'NONE',  ( 2.020725942163694278, -3.499999999999996891, -0.5291137421157459109 ) ) ;
#116 = FACE_OUTER_BOUND ( 'NONE', #378, .T. ) ;
#117 = DIRECTION ( 'NONE',  ( 0.8660254037844415942, 1.060575238724910613E-16, -0.4999999999999949485 ) ) ;
#118 = CARTESIAN_POINT ( 'NONE',  ( 2.020725942163686728, 3.500000000000001332, -3.200000000000000178 ) ) ;
#119 = CARTESIAN_POINT ( 'NONE',  ( 2.685561099688571485, 2.348471728508843892, -2.983054960371129827 ) ) ;
#120 = CARTESIAN_POINT ( 'NONE',  ( 1.621000000000000218, 0.000000000000000000, -0.2188157520228695696 ) ) ;
#121 = ADVANCED_FACE ( 'NONE', ( #220 ), #34, .T. ) ;
#122 = DIRECTION ( 'NONE',  ( -0.8660254037844390407, 1.060575238724907408E-16, 0.4999999999999991118 ) ) ;
#123 = CARTESIAN_POINT ( 'NONE',  ( 2.861219335805896602, -2.044222738785716587, -2.983711150902362608 ) ) ;
#124 = AXIS2_PLACEMENT_3D ( 'NONE', #278, #180, #133 ) ;
#125 = AXIS2_PLACEMENT_3D ( 'NONE', #109, #62, #50 ) ;
#126 = PRESENTATION_STYLE_ASSIGNMENT (( #30 ) ) ;
#127 = AXIS2_PLACEMENT_3D ( 'NONE', #209, #506, #557 ) ;
#128 = UNCERTAINTY_MEASURE_WITH_UNIT (LENGTH_MEASURE( 1.000000000000000082E-05 ), #567, 'distance_accuracy_value', 'NONE');
#129 = ORIENTED_EDGE ( 'NONE', *, *, #395, .F. ) ;
#130 = ORIENTED_EDGE ( 'NONE', *, *, #523, .T. ) ;
#131 = CARTESIAN_POINT ( 'NONE',  ( 2.020725942163694278, -3.499999999999996891, -2.670886257884255155 ) ) ;
#132 = EDGE_CURVE ( 'NONE', #235, #44, #366, .T. ) ;
#133 = DIRECTION ( 'NONE',  ( -1.000000000000000000, 0.000000000000000000, 0.000000000000000000 ) ) ;
#134 = ORIENTED_EDGE ( 'NONE', *, *, #430, .F. ) ;
#135 = FACE_OUTER_BOUND ( 'NONE', #471, .T. ) ;
#136 = ORIENTED_EDGE ( 'NONE', *, *, #305, .F. ) ;
#137 = CYLINDRICAL_SURFACE ( 'NONE', #600, 1.621000000000000218 ) ;
#138 = AXIS2_PLACEMENT_3D ( 'NONE', #374, #229, #472 ) ;
#139 = CARTESIAN_POINT ( 'NONE',  ( 2.020725942163694278, -3.499999999999996891, -2.670886257884255155 ) ) ;
#140 = ORIENTED_EDGE ( 'NONE', *, *, #402, .T. ) ;
#141 = EDGE_CURVE ( 'NONE', #345, #635, #281, .T. ) ;
#142 = DIRECTION ( 'NONE',  ( 0.000000000000000000, 0.000000000000000000, 1.000000000000000000 ) ) ;
#143 = DIRECTION ( 'NONE',  ( 0.000000000000000000, -0.000000000000000000, 1.000000000000000000 ) ) ;
#144 = B_SPLINE_CURVE_WITH_KNOTS ( 'NONE', 3,
 ( #269, #617, #119, #20, #415, #619, #68, #214 ),
 .UNSPECIFIED., .F., .F.,
 ( 4, 2, 2, 4 ),
 ( 2.380739282171252445E-07, 0.002041062161438836862, 0.003061474205194147490, 0.004081886248949458118 ),
 .UNSPECIFIED. ) ;
#145 = CARTESIAN_POINT ( 'NONE',  ( -2.689595490723104998, 2.341483958259436005, -2.953877149107971167 ) ) ;
#146 = CARTESIAN_POINT ( 'NONE',  ( 1.363140381544335478, -3.499999999999997335, -0.3562795956906046335 ) ) ;
#147 = VERTEX_POINT ( 'NONE', #314 ) ;
#148 = FACE_OUTER_BOUND ( 'NONE', #201, .T. ) ;
#149 = CARTESIAN_POINT ( 'NONE',  ( 0.000000000000000000, 0.000000000000000000, -2.820999999999996177 ) ) ;
#150 = EDGE_CURVE ( 'NONE', #339, #621, #497, .T. ) ;
#151 = DIRECTION ( 'NONE',  ( 1.000000000000000000, 0.000000000000000000, -0.000000000000000000 ) ) ;
#152 = ORIENTED_EDGE ( 'NONE', *, *, #258, .F. ) ;
#153 = MECHANICAL_DESIGN_GEOMETRIC_PRESENTATION_REPRESENTATION (  '', ( #614 ), #216 ) ;
#154 = FILL_AREA_STYLE ('',( #295 ) ) ;
#155 = CARTESIAN_POINT ( 'NONE',  ( 2.020725942163686728, 3.500000000000002220, -0.5291137421157459109 ) ) ;
#156 = CARTESIAN_POINT ( 'NONE',  ( -4.041451884327380562, 0.000000000000000000, -0.5291137421157459109 ) ) ;
#157 = DIRECTION ( 'NONE',  ( 1.000000000000000000, 0.000000000000000000, 0.000000000000000000 ) ) ;
#158 = PRODUCT ( 'M4ÂÝÄ¸', 'M4ÂÝÄ¸', '', ( #564 ) ) ;
#159 = CARTESIAN_POINT ( 'NONE',  ( -3.876273414441883780, 0.2860975021581684263, -0.4337479080624926930 ) ) ;
#160 = CARTESIAN_POINT ( 'NONE',  ( 1.694094396866567376, 3.500000000000001332, -2.765176663185817230 ) ) ;
#161 = DIRECTION ( 'NONE',  ( 1.000000000000000000, 0.000000000000000000, 0.000000000000000000 ) ) ;
#162 = DIRECTION ( 'NONE',  ( -1.000000000000000000, 0.000000000000000000, 0.000000000000000000 ) ) ;
#163 = CARTESIAN_POINT ( 'NONE',  ( 2.020725942163686728, 3.500000000000001332, -2.670886257884255599 ) ) ;
#164 =( GEOMETRIC_REPRESENTATION_CONTEXT ( 3 ) GLOBAL_UNCERTAINTY_ASSIGNED_CONTEXT ( ( #128 ) ) GLOBAL_UNIT_ASSIGNED_CONTEXT ( ( #567, #511, #616 ) ) REPRESENTATION_CONTEXT ( 'NONE', 'WORKASPACE' ) );
#165 = ADVANCED_FACE ( 'NONE', ( #293, #237 ), #301, .T. ) ;
#166 = CARTESIAN_POINT ( 'NONE',  ( 2.020725942163694278, -3.499999999999996891, -3.200000000000000178 ) ) ;
#167 = SURFACE_STYLE_FILL_AREA ( #264 ) ;
#168 = ADVANCED_FACE ( 'NONE', ( #442 ), #49, .F. ) ;
#169 = DIRECTION ( 'NONE',  ( 0.8660254037844417052, 0.000000000000000000, 0.4999999999999947264 ) ) ;
#170 = AXIS2_PLACEMENT_3D ( 'NONE', #118, #509, #23 ) ;
#171 = PRODUCT_DEFINITION_FORMATION_WITH_SPECIFIED_SOURCE ( 'ÈÎºÎ', '', #158, .NOT_KNOWN. ) ;
#172 = B_SPLINE_CURVE_WITH_KNOTS ( 'NONE', 3,
 ( #589, #94, #37, #623, #529, #433, #630, #580, #423, #182 ),
 .UNSPECIFIED., .F., .F.,
 ( 4, 2, 2, 2, 4 ),
 ( 0.008992347827899076912, 0.01001598420609441098, 0.01103962058428974505, 0.01206325696248507912, 0.01308689334068041318 ),
 .UNSPECIFIED. ) ;
#173 = DIRECTION ( 'NONE',  ( -1.000000000000000000, 0.000000000000000000, 0.000000000000000000 ) ) ;
#174 = ORIENTED_EDGE ( 'NONE', *, *, #178, .T. ) ;
#175 = ORIENTED_EDGE ( 'NONE', *, *, #292, .T. ) ;
#176 = VECTOR ( 'NONE', #77, 1000.000000000000114 ) ;
#177 = CARTESIAN_POINT ( 'NONE',  ( 3.372582335767967621, -1.158516041740567548, -0.2461228508920304259 ) ) ;
#178 = EDGE_CURVE ( 'NONE', #517, #235, #490, .T. ) ;
#179 = VECTOR ( 'NONE', #604, 1000.000000000000000 ) ;
#180 = DIRECTION ( 'NONE',  ( -0.000000000000000000, -0.000000000000000000, -1.000000000000000000 ) ) ;
#181 = VERTEX_POINT ( 'NONE', #445 ) ;
#182 = CARTESIAN_POINT ( 'NONE',  ( -2.020725942163687616, 3.500000000000001332, -0.5291137421157459109 ) ) ;
#183 = ORIENTED_EDGE ( 'NONE', *, *, #341, .F. ) ;
#184 = CARTESIAN_POINT ( 'NONE',  ( -3.376616726802494028, -1.151528271491157440, -0.2169450396288710170 ) ) ;
#185 = ORIENTED_EDGE ( 'NONE', *, *, #191, .F. ) ;
#186 = CARTESIAN_POINT ( 'NONE',  ( -0.6802644081094617601, -3.499999999999998668, -2.954203104872971331 ) ) ;
#187 = VERTEX_POINT ( 'NONE', #97 ) ;
#188 = ORIENTED_EDGE ( 'NONE', *, *, #441, .F. ) ;
#189 =( LENGTH_UNIT ( ) NAMED_UNIT ( * ) SI_UNIT ( .MILLI., .METRE. ) );
#190 = AXIS2_PLACEMENT_3D ( 'NONE', #210, #481, #328 ) ;
#191 = EDGE_CURVE ( 'NONE', #635, #181, #359, .T. ) ;
#192 = DIRECTION ( 'NONE',  ( 0.000000000000000000, 0.000000000000000000, 1.000000000000000000 ) ) ;
#193 = ORIENTED_EDGE ( 'NONE', *, *, #41, .T. ) ;
#194 =( LENGTH_UNIT ( ) NAMED_UNIT ( * ) SI_UNIT ( .MILLI., .METRE. ) );
#195 = DIRECTION ( 'NONE',  ( -0.000000000000000000, -0.000000000000000000, -1.000000000000000000 ) ) ;
#196 = ADVANCED_BREP_SHAPE_REPRESENTATION ( 'M4ÂÝÄ¸', ( #467, #454 ), #9 ) ;
#197 = CARTESIAN_POINT ( 'NONE',  ( 0.000000000000000000, 0.000000000000000000, -3.200000000000000178 ) ) ;
#198 = EDGE_LOOP ( 'NONE', ( #526, #446, #487, #272 ) ) ;
#199 = CARTESIAN_POINT ( 'NONE',  ( -4.041451884327380562, 0.000000000000000000, -0.5291137421157459109 ) ) ;
#200 = DIRECTION ( 'NONE',  ( 0.8660254037844390407, 0.000000000000000000, 0.4999999999999991118 ) ) ;
#201 = EDGE_LOOP ( 'NONE', ( #247, #598, #578, #285 ) ) ;
#202 = DIRECTION ( 'NONE',  ( 0.000000000000000000, 0.000000000000000000, 1.000000000000000000 ) ) ;
#203 = CARTESIAN_POINT ( 'NONE',  ( -3.125000000000000000, 0.000000000000000000, -4.336808689942017736E-16 ) ) ;
#204 = CIRCLE ( 'NONE', #14, 2.000000000000003553 ) ;
#205 = LINE ( 'NONE', #592, #179 ) ;
#206 = CARTESIAN_POINT ( 'NONE',  ( 4.041451884327380562, 4.336808689942017736E-16, -2.670886257884255155 ) ) ;
#207 = CARTESIAN_POINT ( 'NONE',  ( 2.689595490723103666, 2.341483958259434228, -0.2461228508920282609 ) ) ;
#208 = EDGE_CURVE ( 'NONE', #25, #44, #55, .T. ) ;
#209 = CARTESIAN_POINT ( 'NONE',  ( 0.000000000000000000, 0.000000000000000000, -3.200000000000000178 ) ) ;
#210 = CARTESIAN_POINT ( 'NONE',  ( -2.020725942163689393, 3.500000000000001332, -3.200000000000000178 ) ) ;
#211 = AXIS2_PLACEMENT_3D ( 'NONE', #197, #353, #246 ) ;
#212 = CARTESIAN_POINT ( 'NONE',  ( -3.372582335767963180, -1.158516041740566216, -2.953877149107972500 ) ) ;
#213 = PRESENTATION_STYLE_ASSIGNMENT (( #364 ) ) ;
#214 = CARTESIAN_POINT ( 'NONE',  ( 4.041451884327380562, 4.336808689942017736E-16, -2.670886257884255155 ) ) ;
#215 = B_SPLINE_CURVE_WITH_KNOTS ( 'NONE', 3,
 ( #501, #244, #448, #601, #207, #240, #355, #155 ),
 .UNSPECIFIED., .F., .F.,
 ( 4, 2, 2, 4 ),
 ( 2.380739282169924720E-07, 0.002041062161438839898, 0.003061474205194151393, 0.004081886248949463322 ),
 .UNSPECIFIED. ) ;
#216 =( GEOMETRIC_REPRESENTATION_CONTEXT ( 3 ) GLOBAL_UNCERTAINTY_ASSIGNED_CONTEXT ( ( #48 ) ) GLOBAL_UNIT_ASSIGNED_CONTEXT ( ( #189, #607, #451 ) ) REPRESENTATION_CONTEXT ( 'NONE', 'WORKASPACE' ) );
#217 = EDGE_LOOP ( 'NONE', ( #325, #152 ) ) ;
#218 = CARTESIAN_POINT ( 'NONE',  ( 0.6881932994279342797, -3.499999999999996447, -2.953306905974456775 ) ) ;
#219 = EDGE_CURVE ( 'NONE', #339, #582, #338, .T. ) ;
#220 = FACE_OUTER_BOUND ( 'NONE', #450, .T. ) ;
#221 = ORIENTED_EDGE ( 'NONE', *, *, #508, .T. ) ;
#222 = CARTESIAN_POINT ( 'NONE',  ( 3.876273414441884668, -0.2860975021581695366, -0.4337479080624940253 ) ) ;
#223 = ORIENTED_EDGE ( 'NONE', *, *, #132, .F. ) ;
#224 = EDGE_LOOP ( 'NONE', ( #594, #568, #309, #537 ) ) ;
#225 = CARTESIAN_POINT ( 'NONE',  ( -0.3409037357876819607, -3.499999999999997335, -2.983525879806167236 ) ) ;
#226 = COLOUR_RGB ( '',0.7764705882352941346, 0.7568627450980391913, 0.7372549019607843590 ) ;
#227 = DIRECTION ( 'NONE',  ( -0.000000000000000000, -0.000000000000000000, -1.000000000000000000 ) ) ;
#228 = ORIENTED_EDGE ( 'NONE', *, *, #41, .F. ) ;
#229 = DIRECTION ( 'NONE',  ( 1.073081856240827210E-16, -1.000000000000000000, 0.000000000000000000 ) ) ;
#230 = EDGE_CURVE ( 'NONE', #319, #187, #552, .T. ) ;
#231 = CARTESIAN_POINT ( 'NONE',  ( -3.711506096494203710, -0.5714828682704010676, -0.3386194526912365554 ) ) ;
#232 = EDGE_LOOP ( 'NONE', ( #426, #183, #528, #524 ) ) ;
#233 = FILL_AREA_STYLE ('',( #45 ) ) ;
#234 = LINE ( 'NONE', #10, #425 ) ;
#235 = VERTEX_POINT ( 'NONE', #156 ) ;
#236 = CONICAL_SURFACE ( 'NONE', #63, 4.041451884327380562, 1.047197551196603849 ) ;
#237 = FACE_OUTER_BOUND ( 'NONE', #217, .T. ) ;
#238 = EDGE_LOOP ( 'NONE', ( #11, #136, #492, #93, #330, #221 ) ) ;
#239 =( NAMED_UNIT ( * ) PLANE_ANGLE_UNIT ( ) SI_UNIT ( $, .RADIAN. ) );
#240 = CARTESIAN_POINT ( 'NONE',  ( 2.352463575581261956, 2.925413564138103162, -0.3550527209996161560 ) ) ;
#241 = DIRECTION ( 'NONE',  ( 0.000000000000000000, 0.000000000000000000, 1.000000000000000000 ) ) ;
#242 = ORIENTED_EDGE ( 'NONE', *, *, #208, .F. ) ;
#243 = ADVANCED_FACE ( 'NONE', ( #597 ), #555, .T. ) ;
#244 = CARTESIAN_POINT ( 'NONE',  ( 3.711506096494204598, 0.5714828682703991802, -0.3386194526912372771 ) ) ;
#245 = B_SPLINE_CURVE_WITH_KNOTS ( 'NONE', 3,
 ( #131, #478, #485, #218, #633, #225, #186, #428, #273, #283 ),
 .UNSPECIFIED., .F., .F.,
 ( 4, 2, 2, 2, 4 ),
 ( 0.008992347827912808983, 0.01001598420610820030, 0.01103962058430359161, 0.01206325696249898466, 0.01308689334069437771 ),
 .UNSPECIFIED. ) ;
#246 = DIRECTION ( 'NONE',  ( 1.000000000000000000, 0.000000000000000000, 0.000000000000000000 ) ) ;
#247 = ORIENTED_EDGE ( 'NONE', *, *, #395, .T. ) ;
#248 = FILL_AREA_STYLE ('',( #456 ) ) ;
#249 = DIRECTION ( 'NONE',  ( 0.5000000000000001110, 0.8660254037844385966, 0.000000000000000000 ) ) ;
#250 = CLOSED_SHELL ( 'NONE', ( #322, #317, #73, #576, #610, #352, #595, #121, #514, #494, #475, #274, #165, #605, #54, #243, #80, #168 ) ) ;
#251 = CIRCLE ( 'NONE', #440, 1.621000000000000218 ) ;
#252 = DIRECTION ( 'NONE',  ( -1.000000000000000000, 0.000000000000000000, 0.000000000000000000 ) ) ;
#253 = CARTESIAN_POINT ( 'NONE',  ( 0.000000000000000000, 0.000000000000000000, -2.820999999999996177 ) ) ;
#254 = DIRECTION ( 'NONE',  ( 0.000000000000000000, 0.000000000000000000, 1.000000000000000000 ) ) ;
#255 =( NAMED_UNIT ( * ) SI_UNIT ( $, .STERADIAN. ) SOLID_ANGLE_UNIT ( ) );
#256 = LINE ( 'NONE', #396, #72 ) ;
#257 = B_SPLINE_CURVE_WITH_KNOTS ( 'NONE', 3,
 ( #27, #312, #518, #513, #212, #367, #313, #75 ),
 .UNSPECIFIED., .F., .F.,
 ( 4, 2, 2, 4 ),
 ( 2.380739282122111034E-07, 0.002041062161438832959, 0.003061474205194143587, 0.004081886248949454649 ),
 .UNSPECIFIED. ) ;
#258 = EDGE_CURVE ( 'NONE', #422, #517, #69, .T. ) ;
#259 = CARTESIAN_POINT ( 'NONE',  ( 3.125000000000000000, 3.827021247335478803E-16, -4.336808689942017736E-16 ) ) ;
#260 = CONICAL_SURFACE ( 'NONE', #267, 4.041451884327380562, 1.047197551196603849 ) ;
#261 = VECTOR ( 'NONE', #404, 999.9999999999998863 ) ;
#262 = EDGE_CURVE ( 'NONE', #35, #288, #234, .T. ) ;
#263 = SURFACE_STYLE_FILL_AREA ( #154 ) ;
#264 = FILL_AREA_STYLE ('',( #515 ) ) ;
#265 = CARTESIAN_POINT ( 'NONE',  ( 4.041451884327381450, -2.700270677595210257E-15, -3.200000000000000178 ) ) ;
#266 = DIRECTION ( 'NONE',  ( 0.8660254037844383745, 0.5000000000000006661, -0.000000000000000000 ) ) ;
#267 = AXIS2_PLACEMENT_3D ( 'NONE', #275, #372, #473 ) ;
#268 = CARTESIAN_POINT ( 'NONE',  ( 3.711506096494206819, -0.5714828682704016227, -2.861380547308761457 ) ) ;
#269 = CARTESIAN_POINT ( 'NONE',  ( 2.020725942163686728, 3.500000000000001332, -2.670886257884255599 ) ) ;
#270 = VECTOR ( 'NONE', #122, 1000.000000000000114 ) ;
#271 = CARTESIAN_POINT ( 'NONE',  ( 0.000000000000000000, 0.000000000000000000, -3.200000000000000178 ) ) ;
#272 = ORIENTED_EDGE ( 'NONE', *, *, #230, .T. ) ;
#273 = CARTESIAN_POINT ( 'NONE',  ( -1.692077593331102081, -3.499999999999997780, -2.765758864217881641 ) ) ;
#274 = ADVANCED_FACE ( 'NONE', ( #5, #590 ), #387, .F. ) ;
#275 = CARTESIAN_POINT ( 'NONE',  ( 0.000000000000000000, 0.000000000000000000, -2.670886257884255155 ) ) ;
#276 = EDGE_LOOP ( 'NONE', ( #438, #394 ) ) ;
#277 = CARTESIAN_POINT ( 'NONE',  ( 4.041451884327381450, -2.700270677595210257E-15, -0.5291137421157459109 ) ) ;
#278 = CARTESIAN_POINT ( 'NONE',  ( 0.000000000000000000, 0.000000000000000000, -4.336808689942017736E-16 ) ) ;
#279 = VERTEX_POINT ( 'NONE', #16 ) ;
#280 = CIRCLE ( 'NONE', #470, 2.000000000000003553 ) ;
#281 = LINE ( 'NONE', #634, #176 ) ;
#282 = ORIENTED_EDGE ( 'NONE', *, *, #381, .T. ) ;
#283 = CARTESIAN_POINT ( 'NONE',  ( -2.020725942163687616, -3.500000000000001776, -2.670886257884255155 ) ) ;
#284 = CARTESIAN_POINT ( 'NONE',  ( -1.692077593331106078, 3.500000000000002220, -2.765758864217878532 ) ) ;
#285 = ORIENTED_EDGE ( 'NONE', *, *, #365, .F. ) ;
#286 = APPLICATION_PROTOCOL_DEFINITION ( 'draft international standard', 'automotive_design', 1998, #70 ) ;
#287 = DIRECTION ( 'NONE',  ( -0.000000000000000000, -0.000000000000000000, -1.000000000000000000 ) ) ;
#288 = VERTEX_POINT ( 'NONE', #393 ) ;
#289 = AXIS2_PLACEMENT_3D ( 'NONE', #271, #227, #173 ) ;
#290 = DIRECTION ( 'NONE',  ( -0.000000000000000000, 0.000000000000000000, -1.000000000000000000 ) ) ;
#291 = AXIS2_PLACEMENT_3D ( 'NONE', #104, #99, #57 ) ;
#292 = EDGE_CURVE ( 'NONE', #44, #335, #337, .T. ) ;
#293 = FACE_BOUND ( 'NONE', #629, .T. ) ;
#294 = ORIENTED_EDGE ( 'NONE', *, *, #132, .T. ) ;
#295 = FILL_AREA_STYLE_COLOUR ( '', #452 ) ;
#296 = CARTESIAN_POINT ( 'NONE',  ( -2.861219335805891717, 2.044222738785720139, -2.983711150902363940 ) ) ;
#297 = EDGE_CURVE ( 'NONE', #574, #319, #112, .T. ) ;
#298 = ORIENTED_EDGE ( 'NONE', *, *, #219, .T. ) ;
#299 = DIRECTION ( 'NONE',  ( 0.000000000000000000, 0.000000000000000000, 1.000000000000000000 ) ) ;
#300 = CARTESIAN_POINT ( 'NONE',  ( -2.685561099688573261, 2.348471728508843448, -0.2169450396288720440 ) ) ;
#301 = PLANE ( 'NONE',  #469 ) ;
#302 = FACE_OUTER_BOUND ( 'NONE', #482, .T. ) ;
#303 =( GEOMETRIC_REPRESENTATION_CONTEXT ( 3 ) GLOBAL_UNCERTAINTY_ASSIGNED_CONTEXT ( ( #333 ) ) GLOBAL_UNIT_ASSIGNED_CONTEXT ( ( #399, #239, #107 ) ) REPRESENTATION_CONTEXT ( 'NONE', 'WORKASPACE' ) );
#304 = DIRECTION ( 'NONE',  ( -1.000000000000000000, 0.000000000000000000, 0.000000000000000000 ) ) ;
#305 = EDGE_CURVE ( 'NONE', #377, #639, #512, .T. ) ;
#306 = LINE ( 'NONE', #8, #588 ) ;
#307 = DIRECTION ( 'NONE',  ( 0.000000000000000000, 0.000000000000000000, 1.000000000000000000 ) ) ;
#308 = PLANE ( 'NONE',  #170 ) ;
#309 = ORIENTED_EDGE ( 'NONE', *, *, #419, .F. ) ;
#310 = VECTOR ( 'NONE', #192, 1000.000000000000000 ) ;
#311 = STYLED_ITEM ( 'NONE', ( #354 ), #610 ) ;
#312 = CARTESIAN_POINT ( 'NONE',  ( -2.350671729996863135, -2.928517131729600820, -2.861380547308764122 ) ) ;
#313 = CARTESIAN_POINT ( 'NONE',  ( -3.876273414441884668, -0.2860975021581668165, -2.766252091937508872 ) ) ;
#314 = CARTESIAN_POINT ( 'NONE',  ( -1.621000000000000218, 1.985152461417859960E-16, -0.2188157520228695696 ) ) ;
#315 = ORIENTED_EDGE ( 'NONE', *, *, #625, .T. ) ;
#316 = FACE_OUTER_BOUND ( 'NONE', #232, .T. ) ;
#317 = ADVANCED_FACE ( 'NONE', ( #554 ), #360, .F. ) ;
#318 = CARTESIAN_POINT ( 'NONE',  ( 2.689595490723109439, -2.341483958259432008, -2.953877149107972055 ) ) ;
#319 = VERTEX_POINT ( 'NONE', #163 ) ;
#320 = SURFACE_SIDE_STYLE ('',( #436 ) ) ;
#321 = AXIS2_PLACEMENT_3D ( 'NONE', #65, #254, #361 ) ;
#322 = ADVANCED_FACE ( 'NONE', ( #410 ), #113, .F. ) ;
#323 = ORIENTED_EDGE ( 'NONE', *, *, #535, .F. ) ;
#324 = CARTESIAN_POINT ( 'NONE',  ( 0.000000000000000000, 0.000000000000000000, -0.2188157520228695696 ) ) ;
#325 = ORIENTED_EDGE ( 'NONE', *, *, #7, .F. ) ;
#326 = CARTESIAN_POINT ( 'NONE',  ( -2.020725942163687616, -3.500000000000001776, -2.670886257884255155 ) ) ;
#327 = ORIENTED_EDGE ( 'NONE', *, *, #341, .T. ) ;
#328 = DIRECTION ( 'NONE',  ( -0.5000000000000001110, -0.8660254037844385966, 0.000000000000000000 ) ) ;
#329 = CARTESIAN_POINT ( 'NONE',  ( 0.000000000000000000, 0.000000000000000000, -4.336808689942017736E-16 ) ) ;
#330 = ORIENTED_EDGE ( 'NONE', *, *, #585, .T. ) ;
#331 = AXIS2_PLACEMENT_3D ( 'NONE', #340, #299, #157 ) ;
#332 = AXIS2_PLACEMENT_3D ( 'NONE', #457, #110, #162 ) ;
#333 = UNCERTAINTY_MEASURE_WITH_UNIT (LENGTH_MEASURE( 1.000000000000000082E-05 ), #399, 'distance_accuracy_value', 'NONE');
#334 = CARTESIAN_POINT ( 'NONE',  ( 0.3420490713160945773, -3.499999999999996447, -0.2165386357958276053 ) ) ;
#335 = VERTEX_POINT ( 'NONE', #115 ) ;
#336 = CARTESIAN_POINT ( 'NONE',  ( -2.000000000000003553, 2.449293598294710852E-16, 0.000000000000000000 ) ) ;
#337 = B_SPLINE_CURVE_WITH_KNOTS ( 'NONE', 3,
 ( #384, #449, #548, #586, #58, #334, #536, #146, #495, #95 ),
 .UNSPECIFIED., .F., .F.,
 ( 4, 2, 2, 2, 4 ),
 ( 0.003571969567266741318, 0.004594213952268487791, 0.005616458337270233830, 0.006638702722271979870, 0.007660947107273725909 ),
 .UNSPECIFIED. ) ;
#338 = LINE ( 'NONE', #397, #570 ) ;
#339 = VERTEX_POINT ( 'NONE', #206 ) ;
#340 = CARTESIAN_POINT ( 'NONE',  ( 0.000000000000000000, 0.000000000000000000, -3.200000000000000178 ) ) ;
#341 = EDGE_CURVE ( 'NONE', #574, #279, #405, .T. ) ;
#342 = CARTESIAN_POINT ( 'NONE',  ( -2.020725942163689393, 3.500000000000001332, -3.200000000000000178 ) ) ;
#343 = PRODUCT_DEFINITION_CONTEXT ( 'detailed design', #460, 'design' ) ;
#344 = CARTESIAN_POINT ( 'NONE',  ( 4.041451884327381450, -2.951892231618361876E-15, 0.000000000000000000 ) ) ;
#345 = VERTEX_POINT ( 'NONE', #401 ) ;
#346 = DIRECTION ( 'NONE',  ( 0.000000000000000000, 0.000000000000000000, 1.000000000000000000 ) ) ;
#347 = PRODUCT_RELATED_PRODUCT_CATEGORY ( 'part', '', ( #158 ) ) ;
#348 = CIRCLE ( 'NONE', #386, 1.621000000000000218 ) ;
#349 = CARTESIAN_POINT ( 'NONE',  ( 2.352463575581269506, -2.925413564138100497, -2.844947279000384022 ) ) ;
#350 = ORIENTED_EDGE ( 'NONE', *, *, #381, .F. ) ;
#351 = CARTESIAN_POINT ( 'NONE',  ( 0.000000000000000000, 0.000000000000000000, -0.2188157520228695696 ) ) ;
#352 = ADVANCED_FACE ( 'NONE', ( #302 ), #409, .T. ) ;
#353 = DIRECTION ( 'NONE',  ( 0.000000000000000000, -0.000000000000000000, 1.000000000000000000 ) ) ;
#354 = PRESENTATION_STYLE_ASSIGNMENT (( #550 ) ) ;
#355 = CARTESIAN_POINT ( 'NONE',  ( 2.185904412049184842, 3.213902497841834904, -0.4337479080624925820 ) ) ;
#356 = DIRECTION ( 'NONE',  ( -0.000000000000000000, -0.000000000000000000, -1.000000000000000000 ) ) ;
#357 = EDGE_CURVE ( 'NONE', #106, #235, #205, .T. ) ;
#358 = CARTESIAN_POINT ( 'NONE',  ( -2.185904412049187506, 3.213902497841835348, -2.766252091937507984 ) ) ;
#359 = CIRCLE ( 'NONE', #211, 1.839815752022869955 ) ;
#360 = CONICAL_SURFACE ( 'NONE', #127, 1.839815752022869955, 0.5235987755982975944 ) ;
#361 = DIRECTION ( 'NONE',  ( 1.000000000000000000, 0.000000000000000000, 0.000000000000000000 ) ) ;
#362 = APPLICATION_PROTOCOL_DEFINITION ( 'draft international standard', 'automotive_design', 1998, #460 ) ;
#363 = LINE ( 'NONE', #71, #90 ) ;
#364 = SURFACE_STYLE_USAGE ( .BOTH. , #413 ) ;
#365 = EDGE_CURVE ( 'NONE', #345, #35, #306, .T. ) ;
#366 = B_SPLINE_CURVE_WITH_KNOTS ( 'NONE', 3,
 ( #368, #231, #184, #43, #382, #581, #92, #434 ),
 .UNSPECIFIED., .F., .F.,
 ( 4, 2, 2, 4 ),
 ( 2.380739282178811949E-07, 0.002041062161438838597, 0.003061474205194149225, 0.004081886248949459853 ),
 .UNSPECIFIED. ) ;
#367 = CARTESIAN_POINT ( 'NONE',  ( -3.709714250909806221, -0.5745864358618972823, -2.844947279000384910 ) ) ;
#368 = CARTESIAN_POINT ( 'NONE',  ( -4.041451884327380562, 0.000000000000000000, -0.5291137421157459109 ) ) ;
#369 = EDGE_CURVE ( 'NONE', #106, #574, #89, .T. ) ;
#370 = CARTESIAN_POINT ( 'NONE',  ( 3.709714250909809330, -0.5745864358618996137, -0.3550527209996180433 ) ) ;
#371 = AXIS2_PLACEMENT_3D ( 'NONE', #324, #83, #31 ) ;
#372 = DIRECTION ( 'NONE',  ( 0.000000000000000000, 0.000000000000000000, 1.000000000000000000 ) ) ;
#373 = ORIENTED_EDGE ( 'NONE', *, *, #141, .F. ) ;
#374 = CARTESIAN_POINT ( 'NONE',  ( -2.020725942163689837, -3.499999999999997335, -3.200000000000000178 ) ) ;
#375 = B_SPLINE_CURVE_WITH_KNOTS ( 'NONE', 3,
 ( #64, #461, #300, #61, #608, #444, #159, #199 ),
 .UNSPECIFIED., .F., .F.,
 ( 4, 2, 2, 4 ),
 ( 2.380739282161208222E-07, 0.002041062161438836862, 0.003061474205194146623, 0.004081886248949457251 ),
 .UNSPECIFIED. ) ;
#376 = EDGE_CURVE ( 'NONE', #571, #345, #251, .T. ) ;
#377 = VERTEX_POINT ( 'NONE', #15 ) ;
#378 = EDGE_LOOP ( 'NONE', ( #388, #87, #540, #327 ) ) ;
#379 = EDGE_LOOP ( 'NONE', ( #626, #242, #443, #480 ) ) ;
#380 = CARTESIAN_POINT ( 'NONE',  ( 2.350671729996869352, -2.928517131729596823, -0.3386194526912380542 ) ) ;
#381 = EDGE_CURVE ( 'NONE', #587, #288, #280, .T. ) ;
#382 = CARTESIAN_POINT ( 'NONE',  ( -2.689595490723103222, -2.341483958259435116, -0.2461228508920283164 ) ) ;
#383 = ORIENTED_EDGE ( 'NONE', *, *, #36, .T. ) ;
#384 = CARTESIAN_POINT ( 'NONE',  ( -2.020725942163685840, -3.500000000000002220, -0.5291137421157459109 ) ) ;
#385 = ORIENTED_EDGE ( 'NONE', *, *, #262, .T. ) ;
#386 = AXIS2_PLACEMENT_3D ( 'NONE', #351, #108, #114 ) ;
#387 = PLANE ( 'NONE',  #22 ) ;
#388 = ORIENTED_EDGE ( 'NONE', *, *, #523, .F. ) ;
#389 = EDGE_CURVE ( 'NONE', #181, #635, #403, .T. ) ;
#390 = LINE ( 'NONE', #60, #417 ) ;
#391 = CARTESIAN_POINT ( 'NONE',  ( 3.125000000000000000, 4.391553170292665580E-16, -4.336808689942017736E-16 ) ) ;
#392 = PRODUCT_DEFINITION_SHAPE ( 'NONE', 'NONE',  #414 ) ;
#393 = CARTESIAN_POINT ( 'NONE',  ( 2.000000000000003553, 0.000000000000000000, 0.000000000000000000 ) ) ;
#394 = ORIENTED_EDGE ( 'NONE', *, *, #430, .T. ) ;
#395 = EDGE_CURVE ( 'NONE', #345, #571, #572, .T. ) ;
#396 = CARTESIAN_POINT ( 'NONE',  ( -1.621000000000000218, 1.985152461417859960E-16, -3.200000000000000178 ) ) ;
#397 = CARTESIAN_POINT ( 'NONE',  ( 4.041451884327381450, -2.700270677595210257E-15, -3.200000000000000178 ) ) ;
#398 = ORIENTED_EDGE ( 'NONE', *, *, #464, .T. ) ;
#399 =( LENGTH_UNIT ( ) NAMED_UNIT ( * ) SI_UNIT ( .MILLI., .METRE. ) );
#400 = PRESENTATION_LAYER_ASSIGNMENT (  '', '', ( #311 ) ) ;
#401 = CARTESIAN_POINT ( 'NONE',  ( 1.621000000000000218, 0.000000000000000000, -2.820999999999996177 ) ) ;
#402 = EDGE_CURVE ( 'NONE', #582, #187, #215, .T. ) ;
#403 = CIRCLE ( 'NONE', #291, 1.839815752022869955 ) ;
#404 = DIRECTION ( 'NONE',  ( -0.8660254037844415942, 0.000000000000000000, -0.4999999999999949485 ) ) ;
#405 = LINE ( 'NONE', #342, #28 ) ;
#406 = EDGE_CURVE ( 'NONE', #147, #35, #348, .T. ) ;
#407 = CARTESIAN_POINT ( 'NONE',  ( -0.3409037357876248953, 3.500000000000001332, -2.983525879806169900 ) ) ;
#408 = SURFACE_SIDE_STYLE ('',( #640 ) ) ;
#409 = PLANE ( 'NONE',  #13 ) ;
#410 = FACE_OUTER_BOUND ( 'NONE', #224, .T. ) ;
#411 = COLOUR_RGB ( '',0.7764705882352941346, 0.7568627450980391913, 0.7372549019607843590 ) ;
#412 = EDGE_CURVE ( 'NONE', #279, #235, #375, .T. ) ;
#413 = SURFACE_SIDE_STYLE ('',( #167 ) ) ;
#414 = PRODUCT_DEFINITION ( 'Î´Öª', '', #171, #343 ) ;
#415 = CARTESIAN_POINT ( 'NONE',  ( 3.372582335767963624, 1.158516041740567326, -2.953877149107972500 ) ) ;
#416 = AXIS2_PLACEMENT_3D ( 'NONE', #253, #493, #53 ) ;
#417 = VECTOR ( 'NONE', #599, 1000.000000000000000 ) ;
#418 = LINE ( 'NONE', #613, #270 ) ;
#419 = EDGE_CURVE ( 'NONE', #288, #587, #204, .T. ) ;
#420 = ORIENTED_EDGE ( 'NONE', *, *, #357, .F. ) ;
#421 = FACE_OUTER_BOUND ( 'NONE', #496, .T. ) ;
#422 = VERTEX_POINT ( 'NONE', #391 ) ;
#423 = CARTESIAN_POINT ( 'NONE',  ( -1.692077593331106078, 3.500000000000001332, -0.4342411357821225337 ) ) ;
#424 = UNCERTAINTY_MEASURE_WITH_UNIT (LENGTH_MEASURE( 1.000000000000000082E-05 ), #194, 'distance_accuracy_value', 'NONE');
#425 = VECTOR ( 'NONE', #200, 1000.000000000000114 ) ;
#426 = ORIENTED_EDGE ( 'NONE', *, *, #412, .F. ) ;
#427 = EDGE_LOOP ( 'NONE', ( #134, #315, #47, #42, #398, #474 ) ) ;
#428 = CARTESIAN_POINT ( 'NONE',  ( -1.355368144264234020, -3.499999999999997780, -2.845364499245615519 ) ) ;
#429 = MECHANICAL_DESIGN_GEOMETRIC_PRESENTATION_REPRESENTATION (  '', ( #546 ), #164 ) ;
#430 = EDGE_CURVE ( 'NONE', #639, #377, #24, .T. ) ;
#431 = CARTESIAN_POINT ( 'NONE',  ( -4.041451884327380562, 1.084202172485504434E-15, -2.670886257884255155 ) ) ;
#432 = EDGE_LOOP ( 'NONE', ( #6, #228, #385, #350 ) ) ;
#433 = CARTESIAN_POINT ( 'NONE',  ( -0.3409037357876247287, 3.500000000000000888, -0.2164741201938307213 ) ) ;
#434 = CARTESIAN_POINT ( 'NONE',  ( -2.020725942163685840, -3.500000000000002220, -0.5291137421157459109 ) ) ;
#435 = EDGE_LOOP ( 'NONE', ( #566, #56, #174, #294, #175, #32 ) ) ;
#436 = SURFACE_STYLE_FILL_AREA ( #233 ) ;
#437 = CARTESIAN_POINT ( 'NONE',  ( -1.355368144264248231, 3.500000000000001776, -2.845364499245612855 ) ) ;
#438 = ORIENTED_EDGE ( 'NONE', *, *, #305, .T. ) ;
#439 = DIRECTION ( 'NONE',  ( 0.000000000000000000, 0.000000000000000000, 1.000000000000000000 ) ) ;
#440 = AXIS2_PLACEMENT_3D ( 'NONE', #149, #195, #498 ) ;
#441 = EDGE_CURVE ( 'NONE', #571, #147, #256, .T. ) ;
#442 = FACE_OUTER_BOUND ( 'NONE', #432, .T. ) ;
#443 = ORIENTED_EDGE ( 'NONE', *, *, #585, .F. ) ;
#444 = CARTESIAN_POINT ( 'NONE',  ( -3.709714250909806221, 0.5745864358618990586, -0.3550527209996166000 ) ) ;
#445 = CARTESIAN_POINT ( 'NONE',  ( -1.839815752022869955, 0.000000000000000000, -3.200000000000000178 ) ) ;
#446 = ORIENTED_EDGE ( 'NONE', *, *, #219, .F. ) ;
#447 = EDGE_CURVE ( 'NONE', #621, #335, #560, .T. ) ;
#448 = CARTESIAN_POINT ( 'NONE',  ( 3.376616726802495361, 1.151528271491156330, -0.2169450396288712390 ) ) ;
#449 = CARTESIAN_POINT ( 'NONE',  ( -1.692077593331099195, -3.499999999999996447, -0.4342411357821182039 ) ) ;
#450 = EDGE_LOOP ( 'NONE', ( #223, #420, #59, #522 ) ) ;
#451 =( NAMED_UNIT ( * ) SI_UNIT ( $, .STERADIAN. ) SOLID_ANGLE_UNIT ( ) );
#452 = COLOUR_RGB ( '',0.7764705882352941346, 0.7568627450980391913, 0.7372549019607843590 ) ;
#453 = CARTESIAN_POINT ( 'NONE',  ( -2.352463575581264621, 2.925413564138103606, -2.844947279000384910 ) ) ;
#454 = AXIS2_PLACEMENT_3D ( 'NONE', #559, #307, #459 ) ;
#455 = CARTESIAN_POINT ( 'NONE',  ( 4.041451884327381450, -2.951892231618361876E-15, -3.200000000000000178 ) ) ;
#456 = FILL_AREA_STYLE_COLOUR ( '', #226 ) ;
#457 = CARTESIAN_POINT ( 'NONE',  ( 0.000000000000000000, 0.000000000000000000, -3.200000000000000178 ) ) ;
#458 = CARTESIAN_POINT ( 'NONE',  ( 0.6881932994280912652, 3.500000000000001332, -2.953306905974434127 ) ) ;
#459 = DIRECTION ( 'NONE',  ( 1.000000000000000000, 0.000000000000000000, 0.000000000000000000 ) ) ;
#460 = APPLICATION_CONTEXT ( 'automotive_design' ) ;
#461 = CARTESIAN_POINT ( 'NONE',  ( -2.350671729996864912, 2.928517131729601708, -0.3386194526912377767 ) ) ;
#462 = LINE ( 'NONE', #259, #38 ) ;
#463 = AXIS2_PLACEMENT_3D ( 'NONE', #329, #476, #483 ) ;
#464 = EDGE_CURVE ( 'NONE', #319, #339, #144, .T. ) ;
#465 = PLANE ( 'NONE',  #534 ) ;
#466 = EDGE_CURVE ( 'NONE', #422, #582, #462, .T. ) ;
#467 = MANIFOLD_SOLID_BREP ( 'EndChamfer', #250 ) ;
#468 = EDGE_CURVE ( 'NONE', #377, #339, #363, .T. ) ;
#469 = AXIS2_PLACEMENT_3D ( 'NONE', #344, #502, #602 ) ;
#470 = AXIS2_PLACEMENT_3D ( 'NONE', #547, #290, #556 ) ;
#471 = EDGE_LOOP ( 'NONE', ( #51, #545, #140, #130, #573, #500 ) ) ;
#472 = DIRECTION ( 'NONE',  ( 1.000000000000000000, 1.073081856240827210E-16, 0.000000000000000000 ) ) ;
#473 = DIRECTION ( 'NONE',  ( 1.000000000000000000, 0.000000000000000000, 0.000000000000000000 ) ) ;
#474 = ORIENTED_EDGE ( 'NONE', *, *, #468, .F. ) ;
#475 = ADVANCED_FACE ( 'NONE', ( #565 ), #465, .T. ) ;
#476 = DIRECTION ( 'NONE',  ( -0.000000000000000000, -0.000000000000000000, -1.000000000000000000 ) ) ;
#477 = ORIENTED_EDGE ( 'NONE', *, *, #376, .T. ) ;
#478 = CARTESIAN_POINT ( 'NONE',  ( 1.694094396866558716, -3.499999999999997780, -2.765176663185822115 ) ) ;
#479 = DIRECTION ( 'NONE',  ( -0.8660254037844384856, -0.5000000000000003331, 0.000000000000000000 ) ) ;
#480 = ORIENTED_EDGE ( 'NONE', *, *, #447, .T. ) ;
#481 = DIRECTION ( 'NONE',  ( -0.8660254037844385966, 0.5000000000000001110, 0.000000000000000000 ) ) ;
#482 = EDGE_LOOP ( 'NONE', ( #323, #531, #2, #298 ) ) ;
#483 = DIRECTION ( 'NONE',  ( -1.000000000000000000, 0.000000000000000000, 0.000000000000000000 ) ) ;
#484 = EDGE_LOOP ( 'NONE', ( #624, #102 ) ) ;
#485 = CARTESIAN_POINT ( 'NONE',  ( 1.363140381544333257, -3.499999999999996891, -2.843720404309396876 ) ) ;
#486 = CARTESIAN_POINT ( 'NONE',  ( -2.020725942163689837, -3.499999999999997335, -3.200000000000000178 ) ) ;
#487 = ORIENTED_EDGE ( 'NONE', *, *, #464, .F. ) ;
#488 = CARTESIAN_POINT ( 'NONE',  ( 2.020725942163694278, -3.499999999999996891, -2.670886257884255155 ) ) ;
#489 = VECTOR ( 'NONE', #525, 1000.000000000000114 ) ;
#490 = LINE ( 'NONE', #203, #261 ) ;
#491 = AXIS2_PLACEMENT_3D ( 'NONE', #101, #287, #252 ) ;
#492 = ORIENTED_EDGE ( 'NONE', *, *, #468, .T. ) ;
#493 = DIRECTION ( 'NONE',  ( -0.000000000000000000, -0.000000000000000000, -1.000000000000000000 ) ) ;
#494 = ADVANCED_FACE ( 'NONE', ( #116 ), #308, .T. ) ;
#495 = CARTESIAN_POINT ( 'NONE',  ( 1.694094396866559160, -3.499999999999997335, -0.4348233368141787847 ) ) ;
#496 = EDGE_LOOP ( 'NONE', ( #373, #549, #383, #185 ) ) ;
#497 = B_SPLINE_CURVE_WITH_KNOTS ( 'NONE', 3,
 ( #516, #268, #29, #123, #318, #349, #1, #139 ),
 .UNSPECIFIED., .F., .F.,
 ( 4, 2, 2, 4 ),
 ( 2.380739282151404345E-07, 0.002041062161438832092, 0.003061474205194140551, 0.004081886248949449444 ),
 .UNSPECIFIED. ) ;
#498 = DIRECTION ( 'NONE',  ( 1.000000000000000000, 0.000000000000000000, 0.000000000000000000 ) ) ;
#499 = DIRECTION ( 'NONE',  ( 0.000000000000000000, 0.000000000000000000, 1.000000000000000000 ) ) ;
#500 = ORIENTED_EDGE ( 'NONE', *, *, #178, .F. ) ;
#501 = CARTESIAN_POINT ( 'NONE',  ( 4.041451884327381450, -2.700270677595210257E-15, -0.5291137421157459109 ) ) ;
#502 = DIRECTION ( 'NONE',  ( 0.000000000000000000, -0.000000000000000000, 1.000000000000000000 ) ) ;
#503 = CIRCLE ( 'NONE', #124, 3.125000000000000000 ) ;
#504 = CARTESIAN_POINT ( 'NONE',  ( -3.376616726802496693, 1.151528271491159439, -2.983054960371128939 ) ) ;
#505 = PRESENTATION_LAYER_ASSIGNMENT (  '', '', ( #91 ) ) ;
#506 = DIRECTION ( 'NONE',  ( -0.000000000000000000, -0.000000000000000000, -1.000000000000000000 ) ) ;
#507 = CARTESIAN_POINT ( 'NONE',  ( 0.000000000000000000, 0.000000000000000000, 0.000000000000000000 ) ) ;
#508 = EDGE_CURVE ( 'NONE', #25, #106, #257, .T. ) ;
#509 = DIRECTION ( 'NONE',  ( 0.000000000000000000, 1.000000000000000000, -0.000000000000000000 ) ) ;
#510 = EDGE_CURVE ( 'NONE', #147, #587, #418, .T. ) ;
#511 =( NAMED_UNIT ( * ) PLANE_ANGLE_UNIT ( ) SI_UNIT ( $, .RADIAN. ) );
#512 = CIRCLE ( 'NONE', #78, 3.125000000000000000 ) ;
#513 = CARTESIAN_POINT ( 'NONE',  ( -3.200958490685178681, -1.455777261214282303, -2.983711150902365716 ) ) ;
#514 = ADVANCED_FACE ( 'NONE', ( #316 ), #79, .T. ) ;
#515 = FILL_AREA_STYLE_COLOUR ( '', #563 ) ;
#516 = CARTESIAN_POINT ( 'NONE',  ( 4.041451884327380562, 4.336808689942017736E-16, -2.670886257884255155 ) ) ;
#517 = VERTEX_POINT ( 'NONE', #85 ) ;
#518 = CARTESIAN_POINT ( 'NONE',  ( -2.685561099688572817, -2.348471728508843004, -2.983054960371130715 ) ) ;
#519 = CONICAL_SURFACE ( 'NONE', #463, 3.125000000000000000, 1.047197551196603627 ) ;
#520 = B_SPLINE_CURVE_WITH_KNOTS ( 'NONE', 3,
 ( #40, #380, #627, #636, #177, #370, #222, #527 ),
 .UNSPECIFIED., .F., .F.,
 ( 4, 2, 2, 4 ),
 ( 2.380739282170944336E-07, 0.002041062161438832959, 0.003061474205194140985, 0.004081886248949449444 ),
 .UNSPECIFIED. ) ;
#521 = PRESENTATION_LAYER_ASSIGNMENT (  '', '', ( #614 ) ) ;
#522 = ORIENTED_EDGE ( 'NONE', *, *, #208, .T. ) ;
#523 = EDGE_CURVE ( 'NONE', #187, #279, #172, .T. ) ;
#524 = ORIENTED_EDGE ( 'NONE', *, *, #357, .T. ) ;
#525 = DIRECTION ( 'NONE',  ( -0.4999999999999988898, 0.000000000000000000, -0.8660254037844392627 ) ) ;
#526 = ORIENTED_EDGE ( 'NONE', *, *, #402, .F. ) ;
#527 = CARTESIAN_POINT ( 'NONE',  ( 4.041451884327381450, -2.700270677595210257E-15, -0.5291137421157459109 ) ) ;
#528 = ORIENTED_EDGE ( 'NONE', *, *, #369, .F. ) ;
#529 = CARTESIAN_POINT ( 'NONE',  ( 0.3420490713162419039, 3.500000000000001332, -0.2165386357958357377 ) ) ;
#530 =( GEOMETRIC_REPRESENTATION_CONTEXT ( 3 ) GLOBAL_UNCERTAINTY_ASSIGNED_CONTEXT ( ( #577 ) ) GLOBAL_UNIT_ASSIGNED_CONTEXT ( ( #66, #558, #255 ) ) REPRESENTATION_CONTEXT ( 'NONE', 'WORKASPACE' ) );
#531 = ORIENTED_EDGE ( 'NONE', *, *, #447, .F. ) ;
#532 = CARTESIAN_POINT ( 'NONE',  ( -2.020725942163685840, -3.500000000000002220, -0.5291137421157459109 ) ) ;
#533 = EDGE_LOOP ( 'NONE', ( #129, #76, #579, #632 ) ) ;
#534 = AXIS2_PLACEMENT_3D ( 'NONE', #265, #266, #561 ) ;
#535 = EDGE_CURVE ( 'NONE', #335, #582, #520, .T. ) ;
#536 = CARTESIAN_POINT ( 'NONE',  ( 0.6881932994279372773, -3.499999999999997335, -0.2466930940255435134 ) ) ;
#537 = ORIENTED_EDGE ( 'NONE', *, *, #262, .F. ) ;
#538 = FACE_OUTER_BOUND ( 'NONE', #427, .T. ) ;
#539 = CARTESIAN_POINT ( 'NONE',  ( 0.000000000000000000, 0.000000000000000000, -0.2188157520228695696 ) ) ;
#540 = ORIENTED_EDGE ( 'NONE', *, *, #297, .F. ) ;
#541 = CARTESIAN_POINT ( 'NONE',  ( -3.125000000000000000, 4.391553170292664594E-16, -3.200000000000000178 ) ) ;
#542 = DIRECTION ( 'NONE',  ( 0.8660254037844385966, -0.5000000000000001110, 0.000000000000000000 ) ) ;
#543 = DIRECTION ( 'NONE',  ( 0.000000000000000000, 0.000000000000000000, 1.000000000000000000 ) ) ;
#544 = AXIS2_PLACEMENT_3D ( 'NONE', #539, #499, #46 ) ;
#545 = ORIENTED_EDGE ( 'NONE', *, *, #466, .T. ) ;
#546 = STYLED_ITEM ( 'NONE', ( #213 ), #467 ) ;
#547 = CARTESIAN_POINT ( 'NONE',  ( 0.000000000000000000, 0.000000000000000000, 0.000000000000000000 ) ) ;
#548 = CARTESIAN_POINT ( 'NONE',  ( -1.355368144264231356, -3.499999999999997335, -0.3546355007543841031 ) ) ;
#549 = ORIENTED_EDGE ( 'NONE', *, *, #376, .F. ) ;
#550 = SURFACE_STYLE_USAGE ( .BOTH. , #408 ) ;
#551 = CARTESIAN_POINT ( 'NONE',  ( 2.020725942163694278, -3.499999999999996891, -3.200000000000000178 ) ) ;
#552 = LINE ( 'NONE', #593, #637 ) ;
#553 = DIRECTION ( 'NONE',  ( 1.000000000000000000, 0.000000000000000000, 0.000000000000000000 ) ) ;
#554 = FACE_OUTER_BOUND ( 'NONE', #533, .T. ) ;
#555 = CONICAL_SURFACE ( 'NONE', #125, 3.125000000000000000, 1.047197551196603627 ) ;
#556 = DIRECTION ( 'NONE',  ( 1.000000000000000000, 0.000000000000000000, 0.000000000000000000 ) ) ;
#557 = DIRECTION ( 'NONE',  ( -1.000000000000000000, 0.000000000000000000, 0.000000000000000000 ) ) ;
#558 =( NAMED_UNIT ( * ) PLANE_ANGLE_UNIT ( ) SI_UNIT ( $, .RADIAN. ) );
#559 = CARTESIAN_POINT ( 'NONE',  ( 0.000000000000000000, 0.000000000000000000, 0.000000000000000000 ) ) ;
#560 = LINE ( 'NONE', #166, #620 ) ;
#561 = DIRECTION ( 'NONE',  ( -0.5000000000000005551, 0.8660254037844382635, 0.000000000000000000 ) ) ;
#562 = MECHANICAL_DESIGN_GEOMETRIC_PRESENTATION_REPRESENTATION (  '', ( #311 ), #303 ) ;
#563 = COLOUR_RGB ( '',0.7764705882352941346, 0.7568627450980391913, 0.7372549019607843590 ) ;
#564 = PRODUCT_CONTEXT ( 'NONE', #70, 'mechanical' ) ;
#565 = FACE_OUTER_BOUND ( 'NONE', #198, .T. ) ;
#566 = ORIENTED_EDGE ( 'NONE', *, *, #466, .F. ) ;
#567 =( LENGTH_UNIT ( ) NAMED_UNIT ( * ) SI_UNIT ( .MILLI., .METRE. ) );
#568 = ORIENTED_EDGE ( 'NONE', *, *, #510, .T. ) ;
#569 = CARTESIAN_POINT ( 'NONE',  ( -1.621000000000000218, 1.985152461417859960E-16, -2.820999999999996177 ) ) ;
#570 = VECTOR ( 'NONE', #543, 1000.000000000000000 ) ;
#571 = VERTEX_POINT ( 'NONE', #569 ) ;
#572 = CIRCLE ( 'NONE', #416, 1.621000000000000218 ) ;
#573 = ORIENTED_EDGE ( 'NONE', *, *, #412, .T. ) ;
#574 = VERTEX_POINT ( 'NONE', #33 ) ;
#575 = CARTESIAN_POINT ( 'NONE',  ( 0.000000000000000000, 0.000000000000000000, -2.670886257884255155 ) ) ;
#576 = ADVANCED_FACE ( 'NONE', ( #538 ), #236, .T. ) ;
#577 = UNCERTAINTY_MEASURE_WITH_UNIT (LENGTH_MEASURE( 1.000000000000000082E-05 ), #66, 'distance_accuracy_value', 'NONE');
#578 = ORIENTED_EDGE ( 'NONE', *, *, #406, .T. ) ;
#579 = ORIENTED_EDGE ( 'NONE', *, *, #389, .F. ) ;
#580 = CARTESIAN_POINT ( 'NONE',  ( -1.355368144264247565, 3.500000000000001332, -0.3546355007543884885 ) ) ;
#581 = CARTESIAN_POINT ( 'NONE',  ( -2.352463575581261956, -2.925413564138104050, -0.3550527209996164335 ) ) ;
#582 = VERTEX_POINT ( 'NONE', #277 ) ;
#583 = FACE_OUTER_BOUND ( 'NONE', #98, .T. ) ;
#584 = MECHANICAL_DESIGN_GEOMETRIC_PRESENTATION_REPRESENTATION (  '', ( #91 ), #530 ) ;
#585 = EDGE_CURVE ( 'NONE', #621, #25, #245, .T. ) ;
#586 = CARTESIAN_POINT ( 'NONE',  ( -0.6802644081094602058, -3.499999999999996003, -0.2457968951270298463 ) ) ;
#587 = VERTEX_POINT ( 'NONE', #336 ) ;
#588 = VECTOR ( 'NONE', #346, 1000.000000000000000 ) ;
#589 = CARTESIAN_POINT ( 'NONE',  ( 2.020725942163686728, 3.500000000000002220, -0.5291137421157459109 ) ) ;
#590 = FACE_OUTER_BOUND ( 'NONE', #276, .T. ) ;
#591 = CARTESIAN_POINT ( 'NONE',  ( 1.839815752022869955, 2.253124471735688249E-16, -3.200000000000000178 ) ) ;
#592 = CARTESIAN_POINT ( 'NONE',  ( -4.041451884327380562, 8.912381510800000806E-16, -3.200000000000000178 ) ) ;
#593 = CARTESIAN_POINT ( 'NONE',  ( 2.020725942163686728, 3.500000000000001332, -3.200000000000000178 ) ) ;
#594 = ORIENTED_EDGE ( 'NONE', *, *, #406, .F. ) ;
#595 = ADVANCED_FACE ( 'NONE', ( #88 ), #82, .T. ) ;
#596 = CARTESIAN_POINT ( 'NONE',  ( -2.020725942163687616, 3.500000000000001332, -2.670886257884255155 ) ) ;
#597 = FACE_OUTER_BOUND ( 'NONE', #435, .T. ) ;
#598 = ORIENTED_EDGE ( 'NONE', *, *, #441, .T. ) ;
#599 = DIRECTION ( 'NONE',  ( -0.8660254037844417052, 1.060575238724910613E-16, 0.4999999999999947264 ) ) ;
#600 = AXIS2_PLACEMENT_3D ( 'NONE', #12, #439, #161 ) ;
#601 = CARTESIAN_POINT ( 'NONE',  ( 2.861219335805890385, 2.044222738785717919, -0.2162888490976362932 ) ) ;
#602 = DIRECTION ( 'NONE',  ( 1.000000000000000000, 0.000000000000000000, -0.000000000000000000 ) ) ;
#603 = CYLINDRICAL_SURFACE ( 'NONE', #331, 1.621000000000000218 ) ;
#604 = DIRECTION ( 'NONE',  ( 0.000000000000000000, 0.000000000000000000, 1.000000000000000000 ) ) ;
#605 = ADVANCED_FACE ( 'NONE', ( #583 ), #137, .F. ) ;
#606 = CARTESIAN_POINT ( 'NONE',  ( 0.000000000000000000, 0.000000000000000000, -3.200000000000000178 ) ) ;
#607 =( NAMED_UNIT ( * ) PLANE_ANGLE_UNIT ( ) SI_UNIT ( $, .RADIAN. ) );
#608 = CARTESIAN_POINT ( 'NONE',  ( -3.372582335767964068, 1.158516041740567104, -0.2461228508920289271 ) ) ;
#609 = CARTESIAN_POINT ( 'NONE',  ( 1.363140381544374558, 3.500000000000001332, -2.843720404309383554 ) ) ;
#610 = ADVANCED_FACE ( 'NONE', ( #148 ), #603, .F. ) ;
#611 = CONICAL_SURFACE ( 'NONE', #289, 1.839815752022869955, 0.5235987755982975944 ) ;
#612 = PRESENTATION_STYLE_ASSIGNMENT (( #618 ) ) ;
#613 = CARTESIAN_POINT ( 'NONE',  ( -1.621000000000000218, 1.985152461417859960E-16, -0.2188157520228695696 ) ) ;
#614 = STYLED_ITEM ( 'NONE', ( #126 ), #605 ) ;
#615 = SURFACE_SIDE_STYLE ('',( #263 ) ) ;
#616 =( NAMED_UNIT ( * ) SI_UNIT ( $, .STERADIAN. ) SOLID_ANGLE_UNIT ( ) );
#617 = CARTESIAN_POINT ( 'NONE',  ( 2.350671729996863579, 2.928517131729600376, -2.861380547308765010 ) ) ;
#618 = SURFACE_STYLE_USAGE ( .BOTH. , #615 ) ;
#619 = CARTESIAN_POINT ( 'NONE',  ( 3.709714250909805777, 0.5745864358618988366, -2.844947279000384466 ) ) ;
#620 = VECTOR ( 'NONE', #74, 1000.000000000000000 ) ;
#621 = VERTEX_POINT ( 'NONE', #488 ) ;
#622 = ORIENTED_EDGE ( 'NONE', *, *, #419, .T. ) ;
#623 = CARTESIAN_POINT ( 'NONE',  ( 0.6881932994280917093, 3.500000000000000888, -0.2466930940255663285 ) ) ;
#624 = ORIENTED_EDGE ( 'NONE', *, *, #389, .T. ) ;
#625 = EDGE_CURVE ( 'NONE', #639, #106, #390, .T. ) ;
#626 = ORIENTED_EDGE ( 'NONE', *, *, #292, .F. ) ;
#627 = CARTESIAN_POINT ( 'NONE',  ( 2.685561099688578146, -2.348471728508840783, -0.2169450396288729321 ) ) ;
#628 = FACE_OUTER_BOUND ( 'NONE', #238, .T. ) ;
#629 = EDGE_LOOP ( 'NONE', ( #622, #282 ) ) ;
#630 = CARTESIAN_POINT ( 'NONE',  ( -0.6802644081094368911, 3.500000000000001332, -0.2457968951270285418 ) ) ;
#631 = DIRECTION ( 'NONE',  ( 0.5000000000000003331, -0.8660254037844384856, 0.000000000000000000 ) ) ;
#632 = ORIENTED_EDGE ( 'NONE', *, *, #36, .F. ) ;
#633 = CARTESIAN_POINT ( 'NONE',  ( 0.3420490713160922458, -3.499999999999996891, -2.983461364204173183 ) ) ;
#634 = CARTESIAN_POINT ( 'NONE',  ( 1.839815752022869955, 2.253124471735688249E-16, -3.200000000000000178 ) ) ;
#635 = VERTEX_POINT ( 'NONE', #591 ) ;
#636 = CARTESIAN_POINT ( 'NONE',  ( 3.200958490685181346, -1.455777261214282969, -0.2162888490976385691 ) ) ;
#637 = VECTOR ( 'NONE', #241, 1000.000000000000000 ) ;
#638 = CARTESIAN_POINT ( 'NONE',  ( -0.6802644081094378903, 3.500000000000000888, -2.954203104872972219 ) ) ;
#639 = VERTEX_POINT ( 'NONE', #541 ) ;
#640 = SURFACE_STYLE_FILL_AREA ( #248 ) ;
ENDSEC;
END-ISO-10303-21;
