ISO-10303-21;
HEADER;
FILE_DESCRIPTION (( 'STEP AP214' ),
    '1' );
FILE_NAME ('SDB.step',
    '2023-08-15T02:58:00',
    ( '' ),
    ( '' ),
    'SwSTEP 2.0',
    'SolidWorks 2022',
    '' );
FILE_SCHEMA (( 'AUTOMOTIVE_DESIGN' ));
ENDSEC;

DATA;
#1 = ORIENTED_EDGE ( 'NONE', *, *, #1103, .T. ) ;
#2 = DIRECTION ( 'NONE',  ( -0.3369188387224464343, 0.9415336935627519610, -0.000000000000000000 ) ) ;
#3 = VECTOR ( 'NONE', #1375, 1000.000000000000114 ) ;
#4 = CARTESIAN_POINT ( 'NONE',  ( -9.199999999999999289, 2.000000000000000000, -8.300000000000002487 ) ) ;
#5 = DIRECTION ( 'NONE',  ( 0.9415336935627519610, 0.3369188387224464343, -0.000000000000000000 ) ) ;
#6 = ADVANCED_FACE ( 'NONE', ( #843 ), #475, .T. ) ;
#7 = ORIENTED_EDGE ( 'NONE', *, *, #1012, .F. ) ;
#8 = CARTESIAN_POINT ( 'NONE',  ( -6.000000000000000000, 0.000000000000000000, -28.24999999999999645 ) ) ;
#9 = VERTEX_POINT ( 'NONE', #374 ) ;
#10 = DIRECTION ( 'NONE',  ( 0.000000000000000000, 0.000000000000000000, -1.000000000000000000 ) ) ;
#11 = VECTOR ( 'NONE', #832, 1000.000000000000000 ) ;
#12 = AXIS2_PLACEMENT_3D ( 'NONE', #845, #969, #10 ) ;
#13 = DIRECTION ( 'NONE',  ( 0.000000000000000000, 0.000000000000000000, 1.000000000000000000 ) ) ;
#14 = ADVANCED_FACE ( 'NONE', ( #467, #1216 ), #681, .T. ) ;
#15 = DIRECTION ( 'NONE',  ( -0.000000000000000000, 0.000000000000000000, -1.000000000000000000 ) ) ;
#16 = AXIS2_PLACEMENT_3D ( 'NONE', #109, #333, #847 ) ;
#17 = CARTESIAN_POINT ( 'NONE',  ( -11.50000000000000000, 0.000000000000000000, -8.300000000000002487 ) ) ;
#18 = ORIENTED_EDGE ( 'NONE', *, *, #211, .F. ) ;
#19 = CARTESIAN_POINT ( 'NONE',  ( -9.199999999999999289, 2.000000000000000000, 33.50000000000000000 ) ) ;
#20 = CARTESIAN_POINT ( 'NONE',  ( -8.100000000000001421, 11.75136374907948600, 6.000000000000000000 ) ) ;
#21 = ORIENTED_EDGE ( 'NONE', *, *, #136, .T. ) ;
#22 = DIRECTION ( 'NONE',  ( -1.000000000000000000, 0.000000000000000000, 0.000000000000000000 ) ) ;
#23 = DIRECTION ( 'NONE',  ( 1.000000000000000000, 0.000000000000000000, -0.000000000000000000 ) ) ;
#24 = EDGE_CURVE ( 'NONE', #335, #1135, #670, .T. ) ;
#25 = ADVANCED_FACE ( 'NONE', ( #1114 ), #574, .T. ) ;
#26 = AXIS2_PLACEMENT_3D ( 'NONE', #334, #1290, #804 ) ;
#27 = DIRECTION ( 'NONE',  ( 0.000000000000000000, 1.000000000000000000, -1.385989770216913090E-16 ) ) ;
#28 = CARTESIAN_POINT ( 'NONE',  ( -4.500000000000002665, 19.99999999999999645, -9.000000000000001776 ) ) ;
#29 = ORIENTED_EDGE ( 'NONE', *, *, #489, .F. ) ;
#30 = CARTESIAN_POINT ( 'NONE',  ( -8.100000000000001421, 11.75136374907948600, -8.000000000000000000 ) ) ;
#31 = CYLINDRICAL_SURFACE ( 'NONE', #585, 3.000000000000000000 ) ;
#32 = CARTESIAN_POINT ( 'NONE',  ( -13.50000000000000000, 19.99999999999999645, -8.000000000000000000 ) ) ;
#33 = DIRECTION ( 'NONE',  ( 0.000000000000000000, 1.000000000000000000, 0.000000000000000000 ) ) ;
#34 = PRESENTATION_LAYER_ASSIGNMENT (  '', '', ( #275 ) ) ;
#35 = ORIENTED_EDGE ( 'NONE', *, *, #1155, .F. ) ;
#36 = CARTESIAN_POINT ( 'NONE',  ( -5.999999999999994671, 0.000000000000000000, 25.50000000000000000 ) ) ;
#37 = CARTESIAN_POINT ( 'NONE',  ( -8.099999999999997868, 2.000000000000000000, -8.000000000000000000 ) ) ;
#38 = AXIS2_PLACEMENT_3D ( 'NONE', #1233, #1109, #920 ) ;
#39 = EDGE_CURVE ( 'NONE', #266, #501, #1008, .T. ) ;
#40 = EDGE_CURVE ( 'NONE', #1074, #691, #397, .T. ) ;
#41 = ORIENTED_EDGE ( 'NONE', *, *, #909, .T. ) ;
#42 = CARTESIAN_POINT ( 'NONE',  ( -28.83936647306398626, 0.000000000000000000, 6.000000000000000000 ) ) ;
#43 = VECTOR ( 'NONE', #405, 1000.000000000000000 ) ;
#44 = DIRECTION ( 'NONE',  ( 0.000000000000000000, 0.000000000000000000, -1.000000000000000000 ) ) ;
#45 = ORIENTED_EDGE ( 'NONE', *, *, #998, .F. ) ;
#46 = CARTESIAN_POINT ( 'NONE',  ( 9.199999999999999289, 0.000000000000000000, -33.50000000000000000 ) ) ;
#47 = EDGE_LOOP ( 'NONE', ( #21, #245 ) ) ;
#48 = VECTOR ( 'NONE', #923, 1000.000000000000000 ) ;
#49 = CARTESIAN_POINT ( 'NONE',  ( 11.50000000000000000, 0.000000000000000000, 33.50000000000000000 ) ) ;
#50 = ORIENTED_EDGE ( 'NONE', *, *, #1001, .T. ) ;
#51 = FILL_AREA_STYLE_COLOUR ( '', #568 ) ;
#52 = DIRECTION ( 'NONE',  ( -0.000000000000000000, 1.000000000000000000, -0.000000000000000000 ) ) ;
#53 = ADVANCED_FACE ( 'NONE', ( #918 ), #1339, .T. ) ;
#54 = ORIENTED_EDGE ( 'NONE', *, *, #762, .T. ) ;
#55 = FACE_OUTER_BOUND ( 'NONE', #1283, .T. ) ;
#56 = CARTESIAN_POINT ( 'NONE',  ( 6.000000000000000000, 0.000000000000000000, -22.75000000000000000 ) ) ;
#57 = VERTEX_POINT ( 'NONE', #204 ) ;
#58 = CARTESIAN_POINT ( 'NONE',  ( -6.000000000000000000, 0.000000000000000000, -22.75000000000000000 ) ) ;
#59 = ORIENTED_EDGE ( 'NONE', *, *, #1300, .F. ) ;
#60 = CARTESIAN_POINT ( 'NONE',  ( 11.50000000000000000, 0.000000000000000000, -33.50000000000000000 ) ) ;
#61 = EDGE_CURVE ( 'NONE', #156, #625, #1073, .T. ) ;
#62 = CARTESIAN_POINT ( 'NONE',  ( -11.50000000000000000, 2.000000000000000000, 8.300000000000002487 ) ) ;
#63 = ORIENTED_EDGE ( 'NONE', *, *, #380, .F. ) ;
#64 = DIRECTION ( 'NONE',  ( 1.000000000000000000, 0.000000000000000000, 0.000000000000000000 ) ) ;
#65 = AXIS2_PLACEMENT_3D ( 'NONE', #672, #567, #1352 ) ;
#66 = ORIENTED_EDGE ( 'NONE', *, *, #1357, .T. ) ;
#67 = VERTEX_POINT ( 'NONE', #1065 ) ;
#68 = FACE_OUTER_BOUND ( 'NONE', #1210, .T. ) ;
#69 = CARTESIAN_POINT ( 'NONE',  ( -28.83936647306398626, 0.000000000000000000, -6.000000000000000000 ) ) ;
#70 = AXIS2_PLACEMENT_3D ( 'NONE', #417, #318, #311 ) ;
#71 = CIRCLE ( 'NONE', #12, 2.749999999999999112 ) ;
#72 = ORIENTED_EDGE ( 'NONE', *, *, #1284, .F. ) ;
#73 = LINE ( 'NONE', #1234, #1041 ) ;
#74 = AXIS2_PLACEMENT_3D ( 'NONE', #894, #706, #913 ) ;
#75 = ORIENTED_EDGE ( 'NONE', *, *, #1049, .F. ) ;
#76 = CARTESIAN_POINT ( 'NONE',  ( 3.973803242064763985, 23.03226954850201480, 8.000000000000000000 ) ) ;
#77 = CIRCLE ( 'NONE', #835, 2.749999999999999112 ) ;
#78 = VECTOR ( 'NONE', #878, 1000.000000000000000 ) ;
#79 = CARTESIAN_POINT ( 'NONE',  ( -9.199999999999999289, 0.000000000000000000, -6.000000000000000000 ) ) ;
#80 = EDGE_CURVE ( 'NONE', #857, #419, #293, .T. ) ;
#81 = VERTEX_POINT ( 'NONE', #624 ) ;
#82 = CARTESIAN_POINT ( 'NONE',  ( 6.000000000000005329, 0.000000000000000000, 22.75000000000000000 ) ) ;
#83 = ORIENTED_EDGE ( 'NONE', *, *, #238, .F. ) ;
#84 = CARTESIAN_POINT ( 'NONE',  ( 6.000000000000000000, 0.000000000000000000, -25.50000000000000000 ) ) ;
#85 = CARTESIAN_POINT ( 'NONE',  ( -5.999999999999994671, 0.000000000000000000, 28.24999999999999645 ) ) ;
#86 = ORIENTED_EDGE ( 'NONE', *, *, #393, .F. ) ;
#87 = DIRECTION ( 'NONE',  ( -0.000000000000000000, 1.000000000000000000, -0.000000000000000000 ) ) ;
#88 = CLOSED_SHELL ( 'NONE', ( #1274, #1256, #748, #1011, #53, #793, #1270, #1042, #326, #411, #6, #1100, #14, #571, #584, #787, #871, #717, #634, #1170, #1113, #455, #848, #743, #1301, #546, #396, #140, #870, #824, #164, #25, #908, #1310, #649, #558, #1227, #365, #892, #443, #1241, #207, #677 ) ) ;
#89 = ORIENTED_EDGE ( 'NONE', *, *, #248, .F. ) ;
#90 = LINE ( 'NONE', #106, #430 ) ;
#91 = CARTESIAN_POINT ( 'NONE',  ( -5.999999999999994671, 2.000000000000000000, 22.75000000000000000 ) ) ;
#92 = EDGE_CURVE ( 'NONE', #144, #414, #511, .T. ) ;
#93 = EDGE_CURVE ( 'NONE', #501, #378, #1369, .T. ) ;
#94 = ORIENTED_EDGE ( 'NONE', *, *, #461, .F. ) ;
#95 = CYLINDRICAL_SURFACE ( 'NONE', #1115, 3.599999999999999201 ) ;
#96 = CIRCLE ( 'NONE', #657, 2.749999999999999112 ) ;
#97 = ORIENTED_EDGE ( 'NONE', *, *, #39, .F. ) ;
#98 = CARTESIAN_POINT ( 'NONE',  ( -13.50000000000000000, 19.99999999999999645, -6.000000000000000000 ) ) ;
#99 = AXIS2_PLACEMENT_3D ( 'NONE', #768, #551, #1199 ) ;
#100 = DIRECTION ( 'NONE',  ( 0.000000000000000000, 1.000000000000000000, 0.000000000000000000 ) ) ;
#101 = VECTOR ( 'NONE', #868, 1000.000000000000000 ) ;
#102 = STYLED_ITEM ( 'NONE', ( #376 ), #441 ) ;
#103 = ORIENTED_EDGE ( 'NONE', *, *, #429, .T. ) ;
#104 = FACE_OUTER_BOUND ( 'NONE', #295, .T. ) ;
#105 = ORIENTED_EDGE ( 'NONE', *, *, #224, .T. ) ;
#106 = CARTESIAN_POINT ( 'NONE',  ( 3.973803242064763985, 23.03226954850201480, 8.000000000000000000 ) ) ;
#107 = CARTESIAN_POINT ( 'NONE',  ( 11.50000000000000000, 2.000000000000000000, -8.000000000000000000 ) ) ;
#108 = EDGE_CURVE ( 'NONE', #301, #1304, #541, .T. ) ;
#109 = CARTESIAN_POINT ( 'NONE',  ( 6.000000000000000000, 2.000000000000000000, -25.50000000000000000 ) ) ;
#110 = ORIENTED_EDGE ( 'NONE', *, *, #80, .T. ) ;
#111 = DIRECTION ( 'NONE',  ( 0.000000000000000000, 0.000000000000000000, 1.000000000000000000 ) ) ;
#112 = ORIENTED_EDGE ( 'NONE', *, *, #959, .T. ) ;
#113 = DIRECTION ( 'NONE',  ( 0.000000000000000000, 0.000000000000000000, 1.000000000000000000 ) ) ;
#114 = DIRECTION ( 'NONE',  ( -1.000000000000000000, 0.000000000000000000, 0.000000000000000000 ) ) ;
#115 = DIRECTION ( 'NONE',  ( 0.000000000000000000, 0.000000000000000000, 1.000000000000000000 ) ) ;
#116 = VERTEX_POINT ( 'NONE', #942 ) ;
#117 = CARTESIAN_POINT ( 'NONE',  ( -7.500000000000002665, 19.99999999999999645, -6.000000000000000000 ) ) ;
#118 = ORIENTED_EDGE ( 'NONE', *, *, #1079, .T. ) ;
#119 = CARTESIAN_POINT ( 'NONE',  ( 6.000000000000000000, 0.000000000000000000, -25.50000000000000000 ) ) ;
#120 = CIRCLE ( 'NONE', #1143, 2.299999999999999822 ) ;
#121 = SURFACE_SIDE_STYLE ('',( #1169 ) ) ;
#122 = AXIS2_PLACEMENT_3D ( 'NONE', #1337, #196, #498 ) ;
#123 = DIRECTION ( 'NONE',  ( 0.000000000000000000, 1.000000000000000000, 0.000000000000000000 ) ) ;
#124 = EDGE_CURVE ( 'NONE', #292, #994, #987, .T. ) ;
#125 = EDGE_CURVE ( 'NONE', #279, #1124, #851, .T. ) ;
#126 = ORIENTED_EDGE ( 'NONE', *, *, #559, .F. ) ;
#127 = CARTESIAN_POINT ( 'NONE',  ( 11.50000000000000000, 2.000000000000000000, 31.20000000000000639 ) ) ;
#128 = LINE ( 'NONE', #328, #731 ) ;
#129 = ORIENTED_EDGE ( 'NONE', *, *, #486, .F. ) ;
#130 = CARTESIAN_POINT ( 'NONE',  ( 6.000000000000005329, 0.000000000000000000, 25.50000000000000000 ) ) ;
#131 = CARTESIAN_POINT ( 'NONE',  ( -4.500000000000002665, 19.99999999999999645, 6.000000000000000000 ) ) ;
#132 = AXIS2_PLACEMENT_3D ( 'NONE', #1015, #653, #1185 ) ;
#133 = PRESENTATION_STYLE_ASSIGNMENT (( #237 ) ) ;
#134 = CIRCLE ( 'NONE', #1312, 3.599999999999999201 ) ;
#135 = CARTESIAN_POINT ( 'NONE',  ( -11.50000000000000000, 2.000000000000000000, -33.50000000000000000 ) ) ;
#136 = EDGE_CURVE ( 'NONE', #361, #857, #465, .T. ) ;
#137 = VERTEX_POINT ( 'NONE', #1361 ) ;
#138 = DIRECTION ( 'NONE',  ( 1.000000000000000000, 0.000000000000000000, 0.000000000000000000 ) ) ;
#139 = DIRECTION ( 'NONE',  ( 0.000000000000000000, -1.000000000000000000, 0.000000000000000000 ) ) ;
#140 = ADVANCED_FACE ( 'NONE', ( #104 ), #1181, .F. ) ;
#141 = AXIS2_PLACEMENT_3D ( 'NONE', #869, #407, #996 ) ;
#142 = FACE_BOUND ( 'NONE', #1058, .T. ) ;
#143 = AXIS2_PLACEMENT_3D ( 'NONE', #698, #1240, #686 ) ;
#144 = VERTEX_POINT ( 'NONE', #8 ) ;
#145 = CARTESIAN_POINT ( 'NONE',  ( -8.100000000000001421, 11.75136374907948600, -8.000000000000000000 ) ) ;
#146 = CIRCLE ( 'NONE', #659, 8.999999999999998224 ) ;
#147 = UNCERTAINTY_MEASURE_WITH_UNIT (LENGTH_MEASURE( 1.000000000000000082E-05 ), #1229, 'distance_accuracy_value', 'NONE');
#148 = EDGE_CURVE ( 'NONE', #384, #156, #527, .T. ) ;
#149 = ORIENTED_EDGE ( 'NONE', *, *, #616, .F. ) ;
#150 = LINE ( 'NONE', #817, #1174 ) ;
#151 = DIRECTION ( 'NONE',  ( 0.000000000000000000, 0.000000000000000000, 1.000000000000000000 ) ) ;
#152 = ORIENTED_EDGE ( 'NONE', *, *, #24, .T. ) ;
#153 = EDGE_CURVE ( 'NONE', #276, #137, #1050, .T. ) ;
#154 = AXIS2_PLACEMENT_3D ( 'NONE', #428, #948, #302 ) ;
#155 = DIRECTION ( 'NONE',  ( 1.000000000000000000, 0.000000000000000000, 0.000000000000000000 ) ) ;
#156 = VERTEX_POINT ( 'NONE', #219 ) ;
#157 = LINE ( 'NONE', #576, #769 ) ;
#158 = LINE ( 'NONE', #1044, #949 ) ;
#159 = VERTEX_POINT ( 'NONE', #1273 ) ;
#160 = VECTOR ( 'NONE', #701, 1000.000000000000000 ) ;
#161 = CARTESIAN_POINT ( 'NONE',  ( -4.500000000000002665, 19.99999999999999645, 8.000000000000000000 ) ) ;
#162 = ORIENTED_EDGE ( 'NONE', *, *, #975, .F. ) ;
#163 = LINE ( 'NONE', #1118, #997 ) ;
#164 = ADVANCED_FACE ( 'NONE', ( #198 ), #95, .T. ) ;
#165 = EDGE_CURVE ( 'NONE', #601, #742, #802, .T. ) ;
#166 = AXIS2_PLACEMENT_3D ( 'NONE', #223, #761, #856 ) ;
#167 = EDGE_LOOP ( 'NONE', ( #603, #850, #257, #1291 ) ) ;
#168 = CARTESIAN_POINT ( 'NONE',  ( 9.199999999999999289, 0.000000000000000000, 31.20000000000000284 ) ) ;
#169 = CARTESIAN_POINT ( 'NONE',  ( -4.500000000000002665, 19.99999999999999645, -8.000000000000000000 ) ) ;
#170 = ORIENTED_EDGE ( 'NONE', *, *, #353, .T. ) ;
#171 = DIRECTION ( 'NONE',  ( 1.000000000000000000, 0.000000000000000000, 0.000000000000000000 ) ) ;
#172 = CARTESIAN_POINT ( 'NONE',  ( -4.500000000000002665, 19.99999999999999645, -8.000000000000000000 ) ) ;
#173 = EDGE_LOOP ( 'NONE', ( #1013, #588, #286, #790 ) ) ;
#174 = CYLINDRICAL_SURFACE ( 'NONE', #1252, 2.749999999999999112 ) ;
#175 = FACE_OUTER_BOUND ( 'NONE', #984, .T. ) ;
#176 = ORIENTED_EDGE ( 'NONE', *, *, #925, .F. ) ;
#177 = DIRECTION ( 'NONE',  ( 1.000000000000000000, 0.000000000000000000, 0.000000000000000000 ) ) ;
#178 = EDGE_CURVE ( 'NONE', #1003, #468, #646, .T. ) ;
#179 = ORIENTED_EDGE ( 'NONE', *, *, #1316, .F. ) ;
#180 = DIRECTION ( 'NONE',  ( 0.000000000000000000, 0.000000000000000000, 1.000000000000000000 ) ) ;
#181 = DIRECTION ( 'NONE',  ( -2.952378146089967439E-16, 1.000000000000000000, 0.000000000000000000 ) ) ;
#182 = EDGE_CURVE ( 'NONE', #691, #1219, #308, .T. ) ;
#183 = VECTOR ( 'NONE', #907, 1000.000000000000000 ) ;
#184 = VECTOR ( 'NONE', #785, 1000.000000000000000 ) ;
#185 = ORIENTED_EDGE ( 'NONE', *, *, #1139, .T. ) ;
#186 = CARTESIAN_POINT ( 'NONE',  ( -9.199999999999999289, 0.000000000000000000, 6.000000000000000000 ) ) ;
#187 = ORIENTED_EDGE ( 'NONE', *, *, #92, .F. ) ;
#188 = VECTOR ( 'NONE', #395, 1000.000000000000000 ) ;
#189 = LINE ( 'NONE', #820, #583 ) ;
#190 = CARTESIAN_POINT ( 'NONE',  ( 11.50000000000000000, 2.000000000000000000, 6.000000000000000000 ) ) ;
#191 = ORIENTED_EDGE ( 'NONE', *, *, #615, .F. ) ;
#192 = CARTESIAN_POINT ( 'NONE',  ( -5.999999999999994671, 0.000000000000000000, 22.75000000000000000 ) ) ;
#193 = VERTEX_POINT ( 'NONE', #117 ) ;
#194 = DIRECTION ( 'NONE',  ( 0.000000000000000000, 0.000000000000000000, -1.000000000000000000 ) ) ;
#195 = EDGE_CURVE ( 'NONE', #159, #1097, #974, .T. ) ;
#196 = DIRECTION ( 'NONE',  ( 0.000000000000000000, 0.000000000000000000, 1.000000000000000000 ) ) ;
#197 = VERTEX_POINT ( 'NONE', #343 ) ;
#198 = FACE_OUTER_BOUND ( 'NONE', #685, .T. ) ;
#199 = ORIENTED_EDGE ( 'NONE', *, *, #729, .T. ) ;
#200 = ORIENTED_EDGE ( 'NONE', *, *, #364, .T. ) ;
#201 = LINE ( 'NONE', #1372, #1120 ) ;
#202 = CARTESIAN_POINT ( 'NONE',  ( -6.000000000000000000, 2.000000000000000000, -25.50000000000000000 ) ) ;
#203 = ORIENTED_EDGE ( 'NONE', *, *, #1300, .T. ) ;
#204 = CARTESIAN_POINT ( 'NONE',  ( 11.50000000000000000, 2.000000000000000000, -31.20000000000000284 ) ) ;
#205 = CIRCLE ( 'NONE', #358, 2.299999999999999822 ) ;
#206 = EDGE_LOOP ( 'NONE', ( #808, #591, #185, #788 ) ) ;
#207 = ADVANCED_FACE ( 'NONE', ( #1023 ), #756, .T. ) ;
#208 = CYLINDRICAL_SURFACE ( 'NONE', #1167, 2.749999999999999112 ) ;
#209 = CARTESIAN_POINT ( 'NONE',  ( -4.500000000000002665, 19.99999999999999645, -6.000000000000000000 ) ) ;
#210 =( GEOMETRIC_REPRESENTATION_CONTEXT ( 3 ) GLOBAL_UNCERTAINTY_ASSIGNED_CONTEXT ( ( #1111 ) ) GLOBAL_UNIT_ASSIGNED_CONTEXT ( ( #954, #230, #547 ) ) REPRESENTATION_CONTEXT ( 'NONE', 'WORKASPACE' ) );
#211 = EDGE_CURVE ( 'NONE', #1132, #197, #910, .T. ) ;
#212 = VERTEX_POINT ( 'NONE', #549 ) ;
#213 = DIRECTION ( 'NONE',  ( -0.000000000000000000, -0.000000000000000000, 1.000000000000000000 ) ) ;
#214 = EDGE_LOOP ( 'NONE', ( #612, #322, #664, #200, #1363, #97, #415 ) ) ;
#215 = CARTESIAN_POINT ( 'NONE',  ( -11.50000000000000000, 0.000000000000000000, -33.50000000000000000 ) ) ;
#216 = FACE_OUTER_BOUND ( 'NONE', #929, .T. ) ;
#217 = CARTESIAN_POINT ( 'NONE',  ( 3.973803242064763985, 23.03226954850201480, -8.000000000000000000 ) ) ;
#218 = ORIENTED_EDGE ( 'NONE', *, *, #572, .T. ) ;
#219 = CARTESIAN_POINT ( 'NONE',  ( 3.973803242064763985, 23.03226954850201480, 6.000000000000000000 ) ) ;
#220 = ORIENTED_EDGE ( 'NONE', *, *, #762, .F. ) ;
#221 = DIRECTION ( 'NONE',  ( 0.000000000000000000, 0.000000000000000000, 1.000000000000000000 ) ) ;
#222 = AXIS2_PLACEMENT_3D ( 'NONE', #688, #492, #1231 ) ;
#223 = CARTESIAN_POINT ( 'NONE',  ( 6.000000000000000000, 0.000000000000000000, -25.50000000000000000 ) ) ;
#224 = EDGE_CURVE ( 'NONE', #67, #1219, #1053, .T. ) ;
#225 = CARTESIAN_POINT ( 'NONE',  ( -8.099999999999997868, 2.000000000000000000, -5.999999999999998224 ) ) ;
#226 = EDGE_LOOP ( 'NONE', ( #1025, #261, #1029, #1159 ) ) ;
#227 = CARTESIAN_POINT ( 'NONE',  ( -9.199999999999999289, 2.000000000000000000, 5.999999999999998224 ) ) ;
#228 = DIRECTION ( 'NONE',  ( 0.000000000000000000, 0.000000000000000000, -1.000000000000000000 ) ) ;
#229 = AXIS2_PLACEMENT_3D ( 'NONE', #209, #635, #114 ) ;
#230 =( NAMED_UNIT ( * ) PLANE_ANGLE_UNIT ( ) SI_UNIT ( $, .RADIAN. ) );
#231 = VECTOR ( 'NONE', #52, 1000.000000000000000 ) ;
#232 = CARTESIAN_POINT ( 'NONE',  ( -11.50000000000000000, 2.000000000000000000, 8.000000000000000000 ) ) ;
#233 = VERTEX_POINT ( 'NONE', #1196 ) ;
#234 = DIRECTION ( 'NONE',  ( -0.000000000000000000, 1.000000000000000000, -0.000000000000000000 ) ) ;
#235 = DIRECTION ( 'NONE',  ( -1.000000000000000000, 0.000000000000000000, 0.000000000000000000 ) ) ;
#236 = EDGE_CURVE ( 'NONE', #81, #1322, #562, .T. ) ;
#237 = SURFACE_STYLE_USAGE ( .BOTH. , #121 ) ;
#238 = EDGE_CURVE ( 'NONE', #266, #349, #557, .T. ) ;
#239 = CARTESIAN_POINT ( 'NONE',  ( -9.199999999999999289, 0.000000000000000000, 8.300000000000002487 ) ) ;
#240 = ORIENTED_EDGE ( 'NONE', *, *, #353, .F. ) ;
#241 = CARTESIAN_POINT ( 'NONE',  ( -11.50000000000000000, 2.000000000000000000, -5.999999999999998224 ) ) ;
#242 = CARTESIAN_POINT ( 'NONE',  ( 11.50000000000000000, 2.000000000000000000, -33.50000000000000000 ) ) ;
#243 = VECTOR ( 'NONE', #420, 1000.000000000000000 ) ;
#244 = CARTESIAN_POINT ( 'NONE',  ( -9.199999999999999289, 0.000000000000000000, 31.20000000000000284 ) ) ;
#245 = ORIENTED_EDGE ( 'NONE', *, *, #754, .T. ) ;
#246 = PLANE ( 'NONE',  #633 ) ;
#247 = DIRECTION ( 'NONE',  ( 0.000000000000000000, 0.000000000000000000, 1.000000000000000000 ) ) ;
#248 = EDGE_CURVE ( 'NONE', #1253, #700, #730, .T. ) ;
#249 = AXIS2_PLACEMENT_3D ( 'NONE', #168, #825, #194 ) ;
#250 = AXIS2_PLACEMENT_3D ( 'NONE', #675, #656, #1298 ) ;
#251 = AXIS2_PLACEMENT_3D ( 'NONE', #1205, #1005, #247 ) ;
#252 = AXIS2_PLACEMENT_3D ( 'NONE', #494, #1142, #177 ) ;
#253 = DIRECTION ( 'NONE',  ( 0.000000000000000000, 0.000000000000000000, 1.000000000000000000 ) ) ;
#254 = ORIENTED_EDGE ( 'NONE', *, *, #673, .T. ) ;
#255 = CARTESIAN_POINT ( 'NONE',  ( 11.50000000000000000, 0.000000000000000000, 31.20000000000000284 ) ) ;
#256 = LINE ( 'NONE', #991, #382 ) ;
#257 = ORIENTED_EDGE ( 'NONE', *, *, #516, .T. ) ;
#258 = EDGE_CURVE ( 'NONE', #1304, #9, #757, .T. ) ;
#259 = ORIENTED_EDGE ( 'NONE', *, *, #471, .T. ) ;
#260 = CARTESIAN_POINT ( 'NONE',  ( 11.50000000000000000, 2.000000000000000000, 6.000000000000000000 ) ) ;
#261 = ORIENTED_EDGE ( 'NONE', *, *, #1028, .F. ) ;
#262 = EDGE_CURVE ( 'NONE', #388, #159, #264, .T. ) ;
#263 = EDGE_CURVE ( 'NONE', #751, #777, #661, .T. ) ;
#264 = CIRCLE ( 'NONE', #560, 2.299999999999999822 ) ;
#265 = DIRECTION ( 'NONE',  ( -1.000000000000000000, 0.000000000000000000, 0.000000000000000000 ) ) ;
#266 = VERTEX_POINT ( 'NONE', #593 ) ;
#267 = DIRECTION ( 'NONE',  ( -0.000000000000000000, -0.000000000000000000, -1.000000000000000000 ) ) ;
#268 = LINE ( 'NONE', #1020, #545 ) ;
#269 = EDGE_LOOP ( 'NONE', ( #654, #1048, #1221, #495 ) ) ;
#270 = DIRECTION ( 'NONE',  ( -0.000000000000000000, 1.000000000000000000, -0.000000000000000000 ) ) ;
#271 = CARTESIAN_POINT ( 'NONE',  ( -9.199999999999999289, 0.000000000000000000, -8.300000000000002487 ) ) ;
#272 = CIRCLE ( 'NONE', #249, 2.299999999999999822 ) ;
#273 = VERTEX_POINT ( 'NONE', #225 ) ;
#274 = CARTESIAN_POINT ( 'NONE',  ( -9.199999999999999289, 19.99999999999999645, -6.000000000000000000 ) ) ;
#275 = STYLED_ITEM ( 'NONE', ( #133 ), #1106 ) ;
#276 = VERTEX_POINT ( 'NONE', #62 ) ;
#277 = CARTESIAN_POINT ( 'NONE',  ( -0.9000000000000032419, 19.99999999999999645, 9.000000000000001776 ) ) ;
#278 = FACE_OUTER_BOUND ( 'NONE', #173, .T. ) ;
#279 = VERTEX_POINT ( 'NONE', #20 ) ;
#280 = LINE ( 'NONE', #255, #1367 ) ;
#281 = CARTESIAN_POINT ( 'NONE',  ( -11.50000000000000000, 0.000000000000000000, 8.300000000000002487 ) ) ;
#282 = ORIENTED_EDGE ( 'NONE', *, *, #548, .F. ) ;
#283 = EDGE_CURVE ( 'NONE', #994, #292, #647, .T. ) ;
#284 = DIRECTION ( 'NONE',  ( 2.952378146089967439E-16, -1.000000000000000000, 0.000000000000000000 ) ) ;
#285 = DIRECTION ( 'NONE',  ( 0.000000000000000000, -0.000000000000000000, -1.000000000000000000 ) ) ;
#286 = ORIENTED_EDGE ( 'NONE', *, *, #572, .F. ) ;
#287 = DIRECTION ( 'NONE',  ( 0.000000000000000000, 0.000000000000000000, 1.000000000000000000 ) ) ;
#288 = VECTOR ( 'NONE', #826, 1000.000000000000000 ) ;
#289 = CYLINDRICAL_SURFACE ( 'NONE', #971, 2.749999999999999112 ) ;
#290 = LINE ( 'NONE', #69, #11 ) ;
#291 = CIRCLE ( 'NONE', #1085, 8.999999999999998224 ) ;
#292 = VERTEX_POINT ( 'NONE', #866 ) ;
#293 = LINE ( 'NONE', #192, #1247 ) ;
#294 = EDGE_CURVE ( 'NONE', #1045, #1087, #803, .T. ) ;
#295 = EDGE_LOOP ( 'NONE', ( #1296, #129, #1163, #1235 ) ) ;
#296 = EDGE_CURVE ( 'NONE', #279, #1262, #128, .T. ) ;
#297 = CIRCLE ( 'NONE', #70, 2.749999999999999112 ) ;
#298 = FACE_BOUND ( 'NONE', #1360, .T. ) ;
#299 = AXIS2_PLACEMENT_3D ( 'NONE', #972, #5, #872 ) ;
#300 = DIRECTION ( 'NONE',  ( 0.000000000000000000, 1.000000000000000000, -0.000000000000000000 ) ) ;
#301 = VERTEX_POINT ( 'NONE', #553 ) ;
#302 = DIRECTION ( 'NONE',  ( 0.000000000000000000, 0.000000000000000000, 1.000000000000000000 ) ) ;
#303 = ORIENTED_EDGE ( 'NONE', *, *, #1001, .F. ) ;
#304 = CARTESIAN_POINT ( 'NONE',  ( -7.500000000000002665, 19.99999999999999645, 6.000000000000000000 ) ) ;
#305 = DIRECTION ( 'NONE',  ( -1.000000000000000000, -2.952378146089967439E-16, 0.000000000000000000 ) ) ;
#306 = EDGE_CURVE ( 'NONE', #749, #301, #134, .T. ) ;
#307 = ORIENTED_EDGE ( 'NONE', *, *, #258, .F. ) ;
#308 = LINE ( 'NONE', #966, #781 ) ;
#309 = ORIENTED_EDGE ( 'NONE', *, *, #296, .T. ) ;
#310 = CARTESIAN_POINT ( 'NONE',  ( -11.50000000000000000, 0.000000000000000000, -31.20000000000000284 ) ) ;
#311 = DIRECTION ( 'NONE',  ( 0.000000000000000000, 0.000000000000000000, 1.000000000000000000 ) ) ;
#312 = DIRECTION ( 'NONE',  ( 0.000000000000000000, 0.000000000000000000, 1.000000000000000000 ) ) ;
#313 = ORIENTED_EDGE ( 'NONE', *, *, #699, .T. ) ;
#314 = CARTESIAN_POINT ( 'NONE',  ( 9.199999999999999289, 2.000000000000000000, 33.50000000000000000 ) ) ;
#315 = ORIENTED_EDGE ( 'NONE', *, *, #598, .F. ) ;
#316 = DIRECTION ( 'NONE',  ( 0.000000000000000000, -1.000000000000000000, 0.000000000000000000 ) ) ;
#317 = VECTOR ( 'NONE', #464, 1000.000000000000000 ) ;
#318 = DIRECTION ( 'NONE',  ( 0.000000000000000000, 1.000000000000000000, 0.000000000000000000 ) ) ;
#319 = AXIS2_PLACEMENT_3D ( 'NONE', #561, #886, #1305 ) ;
#320 = LINE ( 'NONE', #552, #815 ) ;
#321 = MECHANICAL_DESIGN_GEOMETRIC_PRESENTATION_REPRESENTATION (  '', ( #102 ), #864 ) ;
#322 = ORIENTED_EDGE ( 'NONE', *, *, #294, .T. ) ;
#323 = DIRECTION ( 'NONE',  ( -0.000000000000000000, -0.000000000000000000, 1.000000000000000000 ) ) ;
#324 = VERTEX_POINT ( 'NONE', #1302 ) ;
#325 = FACE_OUTER_BOUND ( 'NONE', #1018, .T. ) ;
#326 = ADVANCED_FACE ( 'NONE', ( #1102, #142, #666 ), #1096, .T. ) ;
#327 = LINE ( 'NONE', #1269, #715 ) ;
#328 = CARTESIAN_POINT ( 'NONE',  ( -8.100000000000001421, 11.75136374907948600, 6.000000000000000000 ) ) ;
#329 = ORIENTED_EDGE ( 'NONE', *, *, #1338, .T. ) ;
#330 = CARTESIAN_POINT ( 'NONE',  ( -5.999999999999994671, 2.000000000000000000, 25.50000000000000000 ) ) ;
#331 = CARTESIAN_POINT ( 'NONE',  ( -4.500000000000002665, 19.99999999999999645, 8.000000000000000000 ) ) ;
#332 = AXIS2_PLACEMENT_3D ( 'NONE', #1172, #1261, #638 ) ;
#333 = DIRECTION ( 'NONE',  ( 0.000000000000000000, 1.000000000000000000, -0.000000000000000000 ) ) ;
#334 = CARTESIAN_POINT ( 'NONE',  ( -4.500000000000002665, 19.99999999999999645, -8.000000000000000000 ) ) ;
#335 = VERTEX_POINT ( 'NONE', #887 ) ;
#336 = CARTESIAN_POINT ( 'NONE',  ( -8.100000000000001421, 11.75136374907948600, 8.000000000000000000 ) ) ;
#337 = EDGE_CURVE ( 'NONE', #922, #506, #1306, .T. ) ;
#338 = CARTESIAN_POINT ( 'NONE',  ( 11.50000000000000000, 2.000000000000000000, -33.50000000000000000 ) ) ;
#339 = AXIS2_PLACEMENT_3D ( 'NONE', #814, #1063, #390 ) ;
#340 = EDGE_CURVE ( 'NONE', #1272, #276, #671, .T. ) ;
#341 = FACE_OUTER_BOUND ( 'NONE', #1182, .T. ) ;
#342 = AXIS2_PLACEMENT_3D ( 'NONE', #1184, #962, #747 ) ;
#343 = CARTESIAN_POINT ( 'NONE',  ( 6.000000000000000000, 2.000000000000000000, -28.24999999999999645 ) ) ;
#344 = ORIENTED_EDGE ( 'NONE', *, *, #1177, .T. ) ;
#345 = FACE_OUTER_BOUND ( 'NONE', #1037, .T. ) ;
#346 = CYLINDRICAL_SURFACE ( 'NONE', #250, 3.599999999999999201 ) ;
#347 = DIRECTION ( 'NONE',  ( -0.000000000000000000, -0.000000000000000000, 1.000000000000000000 ) ) ;
#348 = EDGE_CURVE ( 'NONE', #57, #506, #716, .T. ) ;
#349 = VERTEX_POINT ( 'NONE', #1365 ) ;
#350 = DIRECTION ( 'NONE',  ( 0.000000000000000000, 0.000000000000000000, -1.000000000000000000 ) ) ;
#351 = DIRECTION ( 'NONE',  ( -0.000000000000000000, 0.000000000000000000, -1.000000000000000000 ) ) ;
#352 = VECTOR ( 'NONE', #1266, 1000.000000000000000 ) ;
#353 = EDGE_CURVE ( 'NONE', #683, #116, #381, .T. ) ;
#354 = ORIENTED_EDGE ( 'NONE', *, *, #975, .T. ) ;
#355 = FACE_OUTER_BOUND ( 'NONE', #542, .T. ) ;
#356 = ORIENTED_EDGE ( 'NONE', *, *, #780, .T. ) ;
#357 = CIRCLE ( 'NONE', #813, 2.299999999999999822 ) ;
#358 = AXIS2_PLACEMENT_3D ( 'NONE', #650, #316, #727 ) ;
#359 = VECTOR ( 'NONE', #823, 1000.000000000000000 ) ;
#360 = CIRCLE ( 'NONE', #789, 3.599999999999999201 ) ;
#361 = VERTEX_POINT ( 'NONE', #85 ) ;
#362 = DIRECTION ( 'NONE',  ( 1.000000000000000000, 0.000000000000000000, -0.000000000000000000 ) ) ;
#363 = ORIENTED_EDGE ( 'NONE', *, *, #703, .T. ) ;
#364 = EDGE_CURVE ( 'NONE', #431, #1112, #1040, .T. ) ;
#365 = ADVANCED_FACE ( 'NONE', ( #175 ), #1146, .T. ) ;
#366 = CARTESIAN_POINT ( 'NONE',  ( -4.500000000000002665, 19.99999999999999645, -6.000000000000000000 ) ) ;
#367 = ORIENTED_EDGE ( 'NONE', *, *, #940, .F. ) ;
#368 = PLANE ( 'NONE',  #927 ) ;
#369 = ORIENTED_EDGE ( 'NONE', *, *, #461, .T. ) ;
#370 = DIRECTION ( 'NONE',  ( 0.000000000000000000, 1.000000000000000000, 0.000000000000000000 ) ) ;
#371 = DIRECTION ( 'NONE',  ( 0.000000000000000000, 0.000000000000000000, 1.000000000000000000 ) ) ;
#372 = AXIS2_PLACEMENT_3D ( 'NONE', #533, #521, #1151 ) ;
#373 = PRODUCT_CONTEXT ( 'NONE', #479, 'mechanical' ) ;
#374 = CARTESIAN_POINT ( 'NONE',  ( -0.9000000000000032419, 19.99999999999999645, -8.000000000000000000 ) ) ;
#375 = ORIENTED_EDGE ( 'NONE', *, *, #500, .F. ) ;
#376 = PRESENTATION_STYLE_ASSIGNMENT (( #1333 ) ) ;
#377 = LINE ( 'NONE', #798, #1213 ) ;
#378 = VERTEX_POINT ( 'NONE', #1249 ) ;
#379 = DIRECTION ( 'NONE',  ( 0.000000000000000000, 0.000000000000000000, -1.000000000000000000 ) ) ;
#380 = EDGE_CURVE ( 'NONE', #1253, #617, #1054, .T. ) ;
#381 = LINE ( 'NONE', #1134, #849 ) ;
#382 = VECTOR ( 'NONE', #139, 1000.000000000000000 ) ;
#383 = EDGE_CURVE ( 'NONE', #388, #468, #290, .T. ) ;
#384 = VERTEX_POINT ( 'NONE', #190 ) ;
#385 = DIRECTION ( 'NONE',  ( 1.000000000000000000, 0.000000000000000000, 0.000000000000000000 ) ) ;
#386 = DIRECTION ( 'NONE',  ( -0.000000000000000000, -1.000000000000000000, 0.000000000000000000 ) ) ;
#387 = VECTOR ( 'NONE', #643, 1000.000000000000114 ) ;
#388 = VERTEX_POINT ( 'NONE', #79 ) ;
#389 = FACE_OUTER_BOUND ( 'NONE', #710, .T. ) ;
#390 = DIRECTION ( 'NONE',  ( 0.000000000000000000, 0.000000000000000000, 1.000000000000000000 ) ) ;
#391 = ORIENTED_EDGE ( 'NONE', *, *, #548, .T. ) ;
#392 = CARTESIAN_POINT ( 'NONE',  ( 6.000000000000005329, 2.000000000000000000, 28.24999999999999645 ) ) ;
#393 = EDGE_CURVE ( 'NONE', #212, #1186, #1258, .T. ) ;
#394 = DIRECTION ( 'NONE',  ( -1.000000000000000000, 0.000000000000000000, -0.000000000000000000 ) ) ;
#395 = DIRECTION ( 'NONE',  ( -0.000000000000000000, -0.000000000000000000, -1.000000000000000000 ) ) ;
#396 = ADVANCED_FACE ( 'NONE', ( #728 ), #1047, .F. ) ;
#397 = CIRCLE ( 'NONE', #895, 8.999999999999998224 ) ;
#398 = ORIENTED_EDGE ( 'NONE', *, *, #1177, .F. ) ;
#399 = CARTESIAN_POINT ( 'NONE',  ( -11.50000000000000000, 2.000000000000000000, -8.300000000000002487 ) ) ;
#400 = ORIENTED_EDGE ( 'NONE', *, *, #224, .F. ) ;
#401 = FACE_BOUND ( 'NONE', #404, .T. ) ;
#402 = CARTESIAN_POINT ( 'NONE',  ( -6.000000000000000000, 0.000000000000000000, -22.75000000000000000 ) ) ;
#403 = AXIS2_PLACEMENT_3D ( 'NONE', #1032, #1244, #1255 ) ;
#404 = EDGE_LOOP ( 'NONE', ( #1198, #356 ) ) ;
#405 = DIRECTION ( 'NONE',  ( 0.000000000000000000, 0.000000000000000000, 1.000000000000000000 ) ) ;
#406 = ORIENTED_EDGE ( 'NONE', *, *, #1049, .T. ) ;
#407 = DIRECTION ( 'NONE',  ( -0.000000000000000000, -0.000000000000000000, 1.000000000000000000 ) ) ;
#408 = AXIS2_PLACEMENT_3D ( 'NONE', #752, #1297, #990 ) ;
#409 = CARTESIAN_POINT ( 'NONE',  ( -8.100000000000001421, 11.75136374907948600, 6.000000000000000000 ) ) ;
#410 = EDGE_CURVE ( 'NONE', #1087, #1272, #1359, .T. ) ;
#411 = ADVANCED_FACE ( 'NONE', ( #614, #709, #939 ), #627, .T. ) ;
#412 = ORIENTED_EDGE ( 'NONE', *, *, #429, .F. ) ;
#413 = DIRECTION ( 'NONE',  ( 0.000000000000000000, 1.000000000000000000, 0.000000000000000000 ) ) ;
#414 = VERTEX_POINT ( 'NONE', #402 ) ;
#415 = ORIENTED_EDGE ( 'NONE', *, *, #238, .T. ) ;
#416 = LINE ( 'NONE', #1076, #1277 ) ;
#417 = CARTESIAN_POINT ( 'NONE',  ( 6.000000000000005329, 0.000000000000000000, 25.50000000000000000 ) ) ;
#418 = DIRECTION ( 'NONE',  ( -0.000000000000000000, -1.000000000000000000, -0.000000000000000000 ) ) ;
#419 = VERTEX_POINT ( 'NONE', #91 ) ;
#420 = DIRECTION ( 'NONE',  ( 0.000000000000000000, 0.000000000000000000, 1.000000000000000000 ) ) ;
#421 = AXIS2_PLACEMENT_3D ( 'NONE', #740, #413, #111 ) ;
#422 = ORIENTED_EDGE ( 'NONE', *, *, #712, .F. ) ;
#423 = DIRECTION ( 'NONE',  ( -0.3369188387224464343, 0.9415336935627519610, -0.000000000000000000 ) ) ;
#424 = EDGE_CURVE ( 'NONE', #378, #1108, #1188, .T. ) ;
#425 = DIRECTION ( 'NONE',  ( 1.000000000000000000, 0.000000000000000000, 0.000000000000000000 ) ) ;
#426 = ORIENTED_EDGE ( 'NONE', *, *, #1156, .T. ) ;
#427 = VECTOR ( 'NONE', #1046, 1000.000000000000000 ) ;
#428 = CARTESIAN_POINT ( 'NONE',  ( -6.000000000000000000, 0.000000000000000000, -25.50000000000000000 ) ) ;
#429 = EDGE_CURVE ( 'NONE', #414, #144, #96, .T. ) ;
#430 = VECTOR ( 'NONE', #2, 1000.000000000000114 ) ;
#431 = VERTEX_POINT ( 'NONE', #1238 ) ;
#432 = DIRECTION ( 'NONE',  ( 0.000000000000000000, 0.000000000000000000, 1.000000000000000000 ) ) ;
#433 = CARTESIAN_POINT ( 'NONE',  ( 11.50000000000001243, 1.999999999999934053, -6.000000000000000000 ) ) ;
#434 = DIRECTION ( 'NONE',  ( 0.000000000000000000, 0.000000000000000000, -1.000000000000000000 ) ) ;
#435 = CIRCLE ( 'NONE', #166, 2.749999999999999112 ) ;
#436 = LINE ( 'NONE', #1288, #78 ) ;
#437 = DIRECTION ( 'NONE',  ( 0.000000000000000000, 1.000000000000000000, -0.000000000000000000 ) ) ;
#438 = EDGE_LOOP ( 'NONE', ( #41, #329, #1260, #696, #354 ) ) ;
#439 = LINE ( 'NONE', #241, #101 ) ;
#440 = FACE_OUTER_BOUND ( 'NONE', #596, .T. ) ;
#441 = ADVANCED_BREP_SHAPE_REPRESENTATION ( 'SDB', ( #1106, #1348 ), #1149 ) ;
#442 = CARTESIAN_POINT ( 'NONE',  ( 6.000000000000005329, 2.000000000000000000, 25.50000000000000000 ) ) ;
#443 = ADVANCED_FACE ( 'NONE', ( #840 ), #1140, .T. ) ;
#444 = ORIENTED_EDGE ( 'NONE', *, *, #306, .F. ) ;
#445 = CARTESIAN_POINT ( 'NONE',  ( 6.000000000000005329, 0.000000000000000000, 28.24999999999999645 ) ) ;
#446 = VECTOR ( 'NONE', #437, 1000.000000000000000 ) ;
#447 = CYLINDRICAL_SURFACE ( 'NONE', #342, 8.999999999999998224 ) ;
#448 = DIRECTION ( 'NONE',  ( -0.000000000000000000, -0.000000000000000000, 1.000000000000000000 ) ) ;
#449 = ORIENTED_EDGE ( 'NONE', *, *, #283, .T. ) ;
#450 = FACE_OUTER_BOUND ( 'NONE', #800, .T. ) ;
#451 = VECTOR ( 'NONE', #1263, 1000.000000000000000 ) ;
#452 = APPLICATION_CONTEXT ( 'automotive_design' ) ;
#453 = PRODUCT ( 'SDB', 'SDB', '', ( #373 ) ) ;
#454 = FACE_OUTER_BOUND ( 'NONE', #1317, .T. ) ;
#455 = ADVANCED_FACE ( 'NONE', ( #278 ), #946, .T. ) ;
#456 = CIRCLE ( 'NONE', #1237, 2.749999999999999112 ) ;
#457 = DIRECTION ( 'NONE',  ( 0.000000000000000000, -0.000000000000000000, 1.000000000000000000 ) ) ;
#458 = ORIENTED_EDGE ( 'NONE', *, *, #1357, .F. ) ;
#459 = DIRECTION ( 'NONE',  ( 0.000000000000000000, 1.000000000000000000, -0.000000000000000000 ) ) ;
#460 = LINE ( 'NONE', #1309, #884 ) ;
#461 = EDGE_CURVE ( 'NONE', #742, #601, #1036, .T. ) ;
#462 = ORIENTED_EDGE ( 'NONE', *, *, #93, .T. ) ;
#463 = CYLINDRICAL_SURFACE ( 'NONE', #38, 2.749999999999999112 ) ;
#464 = DIRECTION ( 'NONE',  ( 1.000000000000000000, -0.000000000000000000, -0.000000000000000000 ) ) ;
#465 = CIRCLE ( 'NONE', #645, 2.749999999999999112 ) ;
#466 = CARTESIAN_POINT ( 'NONE',  ( 0.000000000000000000, 0.000000000000000000, 0.000000000000000000 ) ) ;
#467 = FACE_OUTER_BOUND ( 'NONE', #1064, .T. ) ;
#468 = VERTEX_POINT ( 'NONE', #854 ) ;
#469 =( NAMED_UNIT ( * ) PLANE_ANGLE_UNIT ( ) SI_UNIT ( $, .RADIAN. ) );
#470 = CYLINDRICAL_SURFACE ( 'NONE', #99, 2.299999999999999822 ) ;
#471 = EDGE_CURVE ( 'NONE', #156, #279, #879, .T. ) ;
#472 = ORIENTED_EDGE ( 'NONE', *, *, #1128, .F. ) ;
#473 = VECTOR ( 'NONE', #423, 1000.000000000000114 ) ;
#474 = CIRCLE ( 'NONE', #859, 3.000000000000000000 ) ;
#475 = PLANE ( 'NONE',  #534 ) ;
#476 = ORIENTED_EDGE ( 'NONE', *, *, #283, .F. ) ;
#477 = DIRECTION ( 'NONE',  ( 0.000000000000000000, 1.000000000000000000, 0.000000000000000000 ) ) ;
#478 = CARTESIAN_POINT ( 'NONE',  ( -11.50000000000000000, 0.000000000000000000, 8.300000000000002487 ) ) ;
#479 = APPLICATION_CONTEXT ( 'automotive_design' ) ;
#480 = ORIENTED_EDGE ( 'NONE', *, *, #1059, .F. ) ;
#481 = LINE ( 'NONE', #1022, #48 ) ;
#482 = DIRECTION ( 'NONE',  ( -0.000000000000000000, 1.000000000000000000, -0.000000000000000000 ) ) ;
#483 = ORIENTED_EDGE ( 'NONE', *, *, #836, .F. ) ;
#484 = SURFACE_SIDE_STYLE ('',( #589 ) ) ;
#485 = DIRECTION ( 'NONE',  ( -0.000000000000000000, 1.000000000000000000, -0.000000000000000000 ) ) ;
#486 = EDGE_CURVE ( 'NONE', #1074, #67, #327, .T. ) ;
#487 = EDGE_LOOP ( 'NONE', ( #794, #797, #1356, #191, #1343 ) ) ;
#488 = DIRECTION ( 'NONE',  ( 0.000000000000000000, -0.000000000000000000, -1.000000000000000000 ) ) ;
#489 = EDGE_CURVE ( 'NONE', #1135, #335, #297, .T. ) ;
#490 = CARTESIAN_POINT ( 'NONE',  ( 11.50000000000000000, 2.000000000000000000, -33.50000000000000000 ) ) ;
#491 = AXIS2_PLACEMENT_3D ( 'NONE', #169, #347, #1086 ) ;
#492 = DIRECTION ( 'NONE',  ( 0.000000000000000000, 1.000000000000000000, 0.000000000000000000 ) ) ;
#493 = ORIENTED_EDGE ( 'NONE', *, *, #1059, .T. ) ;
#494 = CARTESIAN_POINT ( 'NONE',  ( -4.500000000000002665, 19.99999999999999645, -6.000000000000000000 ) ) ;
#495 = ORIENTED_EDGE ( 'NONE', *, *, #1091, .F. ) ;
#496 = ORIENTED_EDGE ( 'NONE', *, *, #662, .T. ) ;
#497 = DIRECTION ( 'NONE',  ( 0.000000000000000000, -1.000000000000000000, 0.000000000000000000 ) ) ;
#498 = DIRECTION ( 'NONE',  ( 1.000000000000000000, 0.000000000000000000, 0.000000000000000000 ) ) ;
#499 = VECTOR ( 'NONE', #1099, 1000.000000000000000 ) ;
#500 = EDGE_CURVE ( 'NONE', #1097, #1325, #120, .T. ) ;
#501 = VERTEX_POINT ( 'NONE', #1070 ) ;
#502 = LINE ( 'NONE', #274, #901 ) ;
#503 = VECTOR ( 'NONE', #1035, 1000.000000000000000 ) ;
#504 = FACE_OUTER_BOUND ( 'NONE', #937, .T. ) ;
#505 = DIRECTION ( 'NONE',  ( 1.000000000000000000, 2.952378146089967439E-16, -0.000000000000000000 ) ) ;
#506 = VERTEX_POINT ( 'NONE', #107 ) ;
#507 = CARTESIAN_POINT ( 'NONE',  ( 6.000000000000000000, 2.000000000000000000, -25.50000000000000000 ) ) ;
#508 = ORIENTED_EDGE ( 'NONE', *, *, #148, .T. ) ;
#509 = CARTESIAN_POINT ( 'NONE',  ( 11.50000000000000000, 0.000000000000000000, -33.50000000000000000 ) ) ;
#510 = DIRECTION ( 'NONE',  ( 0.000000000000000000, -1.000000000000000000, 0.000000000000000000 ) ) ;
#511 = CIRCLE ( 'NONE', #154, 2.749999999999999112 ) ;
#512 = EDGE_LOOP ( 'NONE', ( #126, #1349, #726, #1034, #904, #914, #811, #1080, #1093 ) ) ;
#513 = DIRECTION ( 'NONE',  ( -0.000000000000000000, 1.000000000000000000, 0.000000000000000000 ) ) ;
#514 = ORIENTED_EDGE ( 'NONE', *, *, #108, .T. ) ;
#515 = EDGE_CURVE ( 'NONE', #691, #1192, #291, .T. ) ;
#516 = EDGE_CURVE ( 'NONE', #1056, #1186, #1168, .T. ) ;
#517 = DIRECTION ( 'NONE',  ( 0.000000000000000000, 1.000000000000000000, -0.000000000000000000 ) ) ;
#518 = DIRECTION ( 'NONE',  ( 0.000000000000000000, 0.000000000000000000, 1.000000000000000000 ) ) ;
#519 = AXIS2_PLACEMENT_3D ( 'NONE', #853, #529, #862 ) ;
#520 = ORIENTED_EDGE ( 'NONE', *, *, #663, .T. ) ;
#521 = DIRECTION ( 'NONE',  ( 0.000000000000000000, 1.000000000000000000, 0.000000000000000000 ) ) ;
#522 = ORIENTED_EDGE ( 'NONE', *, *, #153, .F. ) ;
#523 = EDGE_LOOP ( 'NONE', ( #282, #472, #1224, #1104 ) ) ;
#524 = PLANE ( 'NONE',  #544 ) ;
#525 = DIRECTION ( 'NONE',  ( 0.000000000000000000, 0.000000000000000000, 1.000000000000000000 ) ) ;
#526 = ORIENTED_EDGE ( 'NONE', *, *, #340, .F. ) ;
#527 = LINE ( 'NONE', #1251, #3 ) ;
#528 = ORIENTED_EDGE ( 'NONE', *, *, #531, .T. ) ;
#529 = DIRECTION ( 'NONE',  ( 0.000000000000000000, -1.000000000000000000, 0.000000000000000000 ) ) ;
#530 = LINE ( 'NONE', #1178, #473 ) ;
#531 = EDGE_CURVE ( 'NONE', #707, #1074, #530, .T. ) ;
#532 = ORIENTED_EDGE ( 'NONE', *, *, #195, .F. ) ;
#533 = CARTESIAN_POINT ( 'NONE',  ( -6.000000000000000000, 2.000000000000000000, -25.50000000000000000 ) ) ;
#534 = AXIS2_PLACEMENT_3D ( 'NONE', #684, #265, #253 ) ;
#535 = EDGE_LOOP ( 'NONE', ( #611, #1335, #631, #898, #550, #391, #1119 ) ) ;
#536 = CARTESIAN_POINT ( 'NONE',  ( -4.500000000000002665, 19.99999999999999645, 9.000000000000001776 ) ) ;
#537 = CARTESIAN_POINT ( 'NONE',  ( 6.000000000000000000, 2.000000000000000000, -22.75000000000000000 ) ) ;
#538 = AXIS2_PLACEMENT_3D ( 'NONE', #239, #765, #1092 ) ;
#539 = CARTESIAN_POINT ( 'NONE',  ( 9.199999999999999289, 0.000000000000000000, -31.20000000000000284 ) ) ;
#540 = FILL_AREA_STYLE ('',( #1299 ) ) ;
#541 = LINE ( 'NONE', #956, #963 ) ;
#542 = EDGE_LOOP ( 'NONE', ( #1082, #741 ) ) ;
#543 = FACE_OUTER_BOUND ( 'NONE', #833, .T. ) ;
#544 = AXIS2_PLACEMENT_3D ( 'NONE', #215, #228, #839 ) ;
#545 = VECTOR ( 'NONE', #711, 1000.000000000000000 ) ;
#546 = ADVANCED_FACE ( 'NONE', ( #216 ), #641, .T. ) ;
#547 =( NAMED_UNIT ( * ) SI_UNIT ( $, .STERADIAN. ) SOLID_ANGLE_UNIT ( ) );
#548 = EDGE_CURVE ( 'NONE', #931, #1003, #1007, .T. ) ;
#549 = CARTESIAN_POINT ( 'NONE',  ( -0.9000000000000032419, 19.99999999999999645, 8.000000000000000000 ) ) ;
#550 = ORIENTED_EDGE ( 'NONE', *, *, #642, .T. ) ;
#551 = DIRECTION ( 'NONE',  ( 0.000000000000000000, 1.000000000000000000, -0.000000000000000000 ) ) ;
#552 = CARTESIAN_POINT ( 'NONE',  ( 11.50000000000000000, 0.000000000000000000, -6.000000000000000000 ) ) ;
#553 = CARTESIAN_POINT ( 'NONE',  ( -8.100000000000001421, 19.99999999999999645, -9.000000000000001776 ) ) ;
#554 = ORIENTED_EDGE ( 'NONE', *, *, #93, .F. ) ;
#555 = FACE_OUTER_BOUND ( 'NONE', #1332, .T. ) ;
#556 = FACE_OUTER_BOUND ( 'NONE', #167, .T. ) ;
#557 = CIRCLE ( 'NONE', #1331, 2.299999999999999822 ) ;
#558 = ADVANCED_FACE ( 'NONE', ( #389 ), #174, .F. ) ;
#559 = EDGE_CURVE ( 'NONE', #1272, #1124, #481, .T. ) ;
#560 = AXIS2_PLACEMENT_3D ( 'NONE', #271, #694, #983 ) ;
#561 = CARTESIAN_POINT ( 'NONE',  ( -5.999999999999994671, 0.000000000000000000, 25.50000000000000000 ) ) ;
#562 = LINE ( 'NONE', #232, #1161 ) ;
#563 = ORIENTED_EDGE ( 'NONE', *, *, #1012, .T. ) ;
#564 = DIRECTION ( 'NONE',  ( 0.000000000000000000, 0.000000000000000000, 1.000000000000000000 ) ) ;
#565 = DIRECTION ( 'NONE',  ( 2.952378146089967439E-16, -1.000000000000000000, 0.000000000000000000 ) ) ;
#566 = AXIS2_PLACEMENT_3D ( 'NONE', #951, #640, #1052 ) ;
#567 = DIRECTION ( 'NONE',  ( 0.000000000000000000, 1.000000000000000000, 0.000000000000000000 ) ) ;
#568 = COLOUR_RGB ( '',1.000000000000000000, 1.000000000000000000, 1.000000000000000000 ) ;
#569 = ORIENTED_EDGE ( 'NONE', *, *, #380, .T. ) ;
#570 = FACE_BOUND ( 'NONE', #1275, .T. ) ;
#571 = ADVANCED_FACE ( 'NONE', ( #298, #692, #830 ), #708, .T. ) ;
#572 = EDGE_CURVE ( 'NONE', #1262, #81, #1236, .T. ) ;
#573 =( NAMED_UNIT ( * ) SI_UNIT ( $, .STERADIAN. ) SOLID_ANGLE_UNIT ( ) );
#574 = PLANE ( 'NONE',  #1355 ) ;
#575 = ORIENTED_EDGE ( 'NONE', *, *, #424, .F. ) ;
#576 = CARTESIAN_POINT ( 'NONE',  ( -8.099999999999997868, 2.000000000000000000, -33.50000000000000000 ) ) ;
#577 = LINE ( 'NONE', #242, #678 ) ;
#578 = ORIENTED_EDGE ( 'NONE', *, *, #998, .T. ) ;
#579 = ORIENTED_EDGE ( 'NONE', *, *, #124, .F. ) ;
#580 = CARTESIAN_POINT ( 'NONE',  ( -9.199999999999999289, 2.000000000000000000, -5.999999999999998224 ) ) ;
#581 = FACE_OUTER_BOUND ( 'NONE', #438, .T. ) ;
#582 = EDGE_LOOP ( 'NONE', ( #303, #398 ) ) ;
#583 = VECTOR ( 'NONE', #1336, 1000.000000000000000 ) ;
#584 = ADVANCED_FACE ( 'NONE', ( #401, #1153, #1125 ), #604, .T. ) ;
#585 = AXIS2_PLACEMENT_3D ( 'NONE', #985, #890, #235 ) ;
#586 = EDGE_CURVE ( 'NONE', #1112, #501, #272, .T. ) ;
#587 = CIRCLE ( 'NONE', #16, 2.749999999999999112 ) ;
#588 = ORIENTED_EDGE ( 'NONE', *, *, #763, .T. ) ;
#589 = SURFACE_STYLE_FILL_AREA ( #1122 ) ;
#590 = DIRECTION ( 'NONE',  ( 0.000000000000000000, 1.000000000000000000, -0.000000000000000000 ) ) ;
#591 = ORIENTED_EDGE ( 'NONE', *, *, #211, .T. ) ;
#592 = LINE ( 'NONE', #1351, #427 ) ;
#593 = CARTESIAN_POINT ( 'NONE',  ( -9.199999999999999289, 0.000000000000000000, 33.50000000000000000 ) ) ;
#594 = ORIENTED_EDGE ( 'NONE', *, *, #885, .T. ) ;
#595 = DIRECTION ( 'NONE',  ( -0.000000000000000000, -0.000000000000000000, 1.000000000000000000 ) ) ;
#596 = EDGE_LOOP ( 'NONE', ( #1, #629, #35, #594 ) ) ;
#597 = CARTESIAN_POINT ( 'NONE',  ( -7.500000000000002665, 19.99999999999999645, 16.48528137423856776 ) ) ;
#598 = EDGE_CURVE ( 'NONE', #324, #116, #189, .T. ) ;
#599 = CARTESIAN_POINT ( 'NONE',  ( 11.50000000000000000, 0.000000000000000000, -33.50000000000000000 ) ) ;
#600 = VECTOR ( 'NONE', #750, 1000.000000000000000 ) ;
#601 = VERTEX_POINT ( 'NONE', #1248 ) ;
#602 = DIRECTION ( 'NONE',  ( 0.000000000000000000, 0.000000000000000000, -1.000000000000000000 ) ) ;
#603 = ORIENTED_EDGE ( 'NONE', *, *, #663, .F. ) ;
#604 = PLANE ( 'NONE',  #976 ) ;
#605 = CIRCLE ( 'NONE', #782, 3.599999999999999201 ) ;
#606 = CARTESIAN_POINT ( 'NONE',  ( -6.000000000000000000, 0.000000000000000000, -25.50000000000000000 ) ) ;
#607 = AXIS2_PLACEMENT_3D ( 'NONE', #1286, #517, #744 ) ;
#608 = ORIENTED_EDGE ( 'NONE', *, *, #1197, .F. ) ;
#609 = LINE ( 'NONE', #58, #1366 ) ;
#610 = AXIS2_PLACEMENT_3D ( 'NONE', #1123, #1354, #1334 ) ;
#611 = ORIENTED_EDGE ( 'NONE', *, *, #383, .F. ) ;
#612 = ORIENTED_EDGE ( 'NONE', *, *, #1075, .F. ) ;
#613 = DIRECTION ( 'NONE',  ( 0.000000000000000000, 1.000000000000000000, 0.000000000000000000 ) ) ;
#614 = FACE_BOUND ( 'NONE', #47, .T. ) ;
#615 = EDGE_CURVE ( 'NONE', #707, #506, #592, .T. ) ;
#616 = EDGE_CURVE ( 'NONE', #233, #1056, #605, .T. ) ;
#617 = VERTEX_POINT ( 'NONE', #620 ) ;
#618 = CARTESIAN_POINT ( 'NONE',  ( 3.973803242064763985, 23.03226954850201480, 6.000000000000000000 ) ) ;
#619 = VERTEX_POINT ( 'NONE', #1038 ) ;
#620 = CARTESIAN_POINT ( 'NONE',  ( -1.500000000000002220, 19.99999999999999645, -6.000000000000000000 ) ) ;
#621 = DIRECTION ( 'NONE',  ( 0.000000000000000000, 1.000000000000000000, 0.000000000000000000 ) ) ;
#622 = VECTOR ( 'NONE', #1295, 1000.000000000000000 ) ;
#623 = ORIENTED_EDGE ( 'NONE', *, *, #80, .F. ) ;
#624 = CARTESIAN_POINT ( 'NONE',  ( -8.099999999999997868, 2.000000000000000000, 8.000000000000000000 ) ) ;
#625 = VERTEX_POINT ( 'NONE', #76 ) ;
#626 = FACE_OUTER_BOUND ( 'NONE', #206, .T. ) ;
#627 = PLANE ( 'NONE',  #652 ) ;
#628 = AXIS2_PLACEMENT_3D ( 'NONE', #539, #970, #434 ) ;
#629 = ORIENTED_EDGE ( 'NONE', *, *, #195, .T. ) ;
#630 = DIRECTION ( 'NONE',  ( -0.000000000000000000, -0.000000000000000000, -1.000000000000000000 ) ) ;
#631 = ORIENTED_EDGE ( 'NONE', *, *, #1103, .F. ) ;
#632 = CARTESIAN_POINT ( 'NONE',  ( 6.000000000000000000, 0.000000000000000000, -22.75000000000000000 ) ) ;
#633 = AXIS2_PLACEMENT_3D ( 'NONE', #968, #432, #1285 ) ;
#634 = ADVANCED_FACE ( 'NONE', ( #504 ), #915, .F. ) ;
#635 = DIRECTION ( 'NONE',  ( -0.000000000000000000, -0.000000000000000000, -1.000000000000000000 ) ) ;
#636 = DIRECTION ( 'NONE',  ( 0.000000000000000000, 0.000000000000000000, 1.000000000000000000 ) ) ;
#637 = ORIENTED_EDGE ( 'NONE', *, *, #1028, .T. ) ;
#638 = DIRECTION ( 'NONE',  ( 0.3369188387224464343, -0.9415336935627519610, 0.000000000000000000 ) ) ;
#639 = EDGE_LOOP ( 'NONE', ( #689, #822, #179, #400, #1021 ) ) ;
#640 = DIRECTION ( 'NONE',  ( 0.000000000000000000, 0.000000000000000000, 1.000000000000000000 ) ) ;
#641 = CYLINDRICAL_SURFACE ( 'NONE', #229, 8.999999999999998224 ) ;
#642 = EDGE_CURVE ( 'NONE', #324, #931, #714, .T. ) ;
#643 = DIRECTION ( 'NONE',  ( -0.3369188387224464343, 0.9415336935627519610, -0.000000000000000000 ) ) ;
#644 = ORIENTED_EDGE ( 'NONE', *, *, #703, .F. ) ;
#645 = AXIS2_PLACEMENT_3D ( 'NONE', #1158, #858, #842 ) ;
#646 = LINE ( 'NONE', #1057, #352 ) ;
#647 = CIRCLE ( 'NONE', #1055, 2.749999999999999112 ) ;
#648 = ORIENTED_EDGE ( 'NONE', *, *, #885, .F. ) ;
#649 = ADVANCED_FACE ( 'NONE', ( #55 ), #289, .F. ) ;
#650 = CARTESIAN_POINT ( 'NONE',  ( -9.199999999999999289, 0.000000000000000000, -31.20000000000000284 ) ) ;
#651 = DIRECTION ( 'NONE',  ( 1.000000000000000000, 0.000000000000000000, -0.000000000000000000 ) ) ;
#652 = AXIS2_PLACEMENT_3D ( 'NONE', #926, #510, #285 ) ;
#653 = DIRECTION ( 'NONE',  ( -0.000000000000000000, -0.000000000000000000, -1.000000000000000000 ) ) ;
#654 = ORIENTED_EDGE ( 'NONE', *, *, #515, .F. ) ;
#655 = CYLINDRICAL_SURFACE ( 'NONE', #1191, 2.749999999999999112 ) ;
#656 = DIRECTION ( 'NONE',  ( -0.000000000000000000, -0.000000000000000000, -1.000000000000000000 ) ) ;
#657 = AXIS2_PLACEMENT_3D ( 'NONE', #606, #621, #1162 ) ;
#658 = VECTOR ( 'NONE', #1027, 1000.000000000000000 ) ;
#659 = AXIS2_PLACEMENT_3D ( 'NONE', #784, #1026, #1004 ) ;
#660 = CARTESIAN_POINT ( 'NONE',  ( -11.50000000000000000, 2.000000000000000000, -33.50000000000000000 ) ) ;
#661 = LINE ( 'NONE', #56, #964 ) ;
#662 = EDGE_CURVE ( 'NONE', #116, #936, #357, .T. ) ;
#663 = EDGE_CURVE ( 'NONE', #233, #212, #812, .T. ) ;
#664 = ORIENTED_EDGE ( 'NONE', *, *, #940, .T. ) ;
#665 = CARTESIAN_POINT ( 'NONE',  ( -4.500000000000002665, 19.99999999999999645, 9.000000000000001776 ) ) ;
#666 = FACE_OUTER_BOUND ( 'NONE', #512, .T. ) ;
#667 = ORIENTED_EDGE ( 'NONE', *, *, #1345, .T. ) ;
#668 = FACE_OUTER_BOUND ( 'NONE', #1374, .T. ) ;
#669 = DIRECTION ( 'NONE',  ( 0.000000000000000000, 0.000000000000000000, 1.000000000000000000 ) ) ;
#670 = CIRCLE ( 'NONE', #222, 2.749999999999999112 ) ;
#671 = CIRCLE ( 'NONE', #65, 2.299999999999999822 ) ;
#672 = CARTESIAN_POINT ( 'NONE',  ( -9.199999999999999289, 2.000000000000000000, 8.300000000000002487 ) ) ;
#673 = EDGE_CURVE ( 'NONE', #700, #193, #1133, .T. ) ;
#674 = ORIENTED_EDGE ( 'NONE', *, *, #486, .T. ) ;
#675 = CARTESIAN_POINT ( 'NONE',  ( -4.500000000000002665, 19.99999999999999645, 9.000000000000001776 ) ) ;
#676 = AXIS2_PLACEMENT_3D ( 'NONE', #131, #151, #362 ) ;
#677 = ADVANCED_FACE ( 'NONE', ( #68 ), #960, .T. ) ;
#678 = VECTOR ( 'NONE', #669, 1000.000000000000000 ) ;
#679 = CIRCLE ( 'NONE', #252, 3.000000000000000000 ) ;
#680 = SHAPE_DEFINITION_REPRESENTATION ( #775, #441 ) ;
#681 = PLANE ( 'NONE',  #1311 ) ;
#682 = EDGE_LOOP ( 'NONE', ( #103, #852 ) ) ;
#683 = VERTEX_POINT ( 'NONE', #1293 ) ;
#684 = CARTESIAN_POINT ( 'NONE',  ( -11.50000000000000000, 0.000000000000000000, -33.50000000000000000 ) ) ;
#685 = EDGE_LOOP ( 'NONE', ( #911, #875, #363, #307 ) ) ;
#686 = DIRECTION ( 'NONE',  ( -1.000000000000000000, 0.000000000000000000, 0.000000000000000000 ) ) ;
#687 = ORIENTED_EDGE ( 'NONE', *, *, #182, .F. ) ;
#688 = CARTESIAN_POINT ( 'NONE',  ( 6.000000000000005329, 0.000000000000000000, 25.50000000000000000 ) ) ;
#689 = ORIENTED_EDGE ( 'NONE', *, *, #337, .F. ) ;
#690 = DIRECTION ( 'NONE',  ( -0.000000000000000000, 1.000000000000000000, -0.000000000000000000 ) ) ;
#691 = VERTEX_POINT ( 'NONE', #98 ) ;
#692 = FACE_BOUND ( 'NONE', #1340, .T. ) ;
#693 = AXIS2_PLACEMENT_3D ( 'NONE', #821, #505, #181 ) ;
#694 = DIRECTION ( 'NONE',  ( 0.000000000000000000, -1.000000000000000000, 0.000000000000000000 ) ) ;
#695 = AXIS2_PLACEMENT_3D ( 'NONE', #536, #1098, #22 ) ;
#696 = ORIENTED_EDGE ( 'NONE', *, *, #806, .F. ) ;
#697 = DIRECTION ( 'NONE',  ( -0.000000000000000000, 0.000000000000000000, -1.000000000000000000 ) ) ;
#698 = CARTESIAN_POINT ( 'NONE',  ( -4.500000000000002665, 19.99999999999999645, -6.000000000000000000 ) ) ;
#699 = EDGE_CURVE ( 'NONE', #378, #739, #201, .T. ) ;
#700 = VERTEX_POINT ( 'NONE', #304 ) ;
#701 = DIRECTION ( 'NONE',  ( -0.000000000000000000, -0.000000000000000000, -1.000000000000000000 ) ) ;
#702 = DIRECTION ( 'NONE',  ( -1.000000000000000000, -0.000000000000000000, -0.000000000000000000 ) ) ;
#703 = EDGE_CURVE ( 'NONE', #749, #9, #1166, .T. ) ;
#704 = ORIENTED_EDGE ( 'NONE', *, *, #836, .T. ) ;
#705 = DIRECTION ( 'NONE',  ( 0.000000000000000000, -1.000000000000000000, -0.000000000000000000 ) ) ;
#706 = DIRECTION ( 'NONE',  ( 0.000000000000000000, 1.000000000000000000, 0.000000000000000000 ) ) ;
#707 = VERTEX_POINT ( 'NONE', #433 ) ;
#708 = PLANE ( 'NONE',  #855 ) ;
#709 = FACE_BOUND ( 'NONE', #1250, .T. ) ;
#710 = EDGE_LOOP ( 'NONE', ( #941, #29, #704, #449 ) ) ;
#711 = DIRECTION ( 'NONE',  ( -0.000000000000000000, 1.000000000000000000, -0.000000000000000000 ) ) ;
#712 = EDGE_CURVE ( 'NONE', #721, #324, #205, .T. ) ;
#713 = ORIENTED_EDGE ( 'NONE', *, *, #1033, .F. ) ;
#714 = LINE ( 'NONE', #509, #183 ) ;
#715 = VECTOR ( 'NONE', #865, 1000.000000000000000 ) ;
#716 = LINE ( 'NONE', #490, #288 ) ;
#717 = ADVANCED_FACE ( 'NONE', ( #1176 ), #524, .T. ) ;
#718 = CIRCLE ( 'NONE', #251, 2.299999999999999822 ) ;
#719 = ORIENTED_EDGE ( 'NONE', *, *, #953, .T. ) ;
#720 = CARTESIAN_POINT ( 'NONE',  ( -4.500000000000002665, 19.99999999999999645, -9.000000000000001776 ) ) ;
#721 = VERTEX_POINT ( 'NONE', #310 ) ;
#722 = DIRECTION ( 'NONE',  ( 0.000000000000000000, 0.000000000000000000, 1.000000000000000000 ) ) ;
#723 = CARTESIAN_POINT ( 'NONE',  ( 9.199999999999999289, 2.000000000000000000, -31.20000000000000284 ) ) ;
#724 = EDGE_LOOP ( 'NONE', ( #367, #999, #1051, #1319, #919, #1129, #838 ) ) ;
#725 = DIRECTION ( 'NONE',  ( 1.000000000000000000, 0.000000000000000000, 0.000000000000000000 ) ) ;
#726 = ORIENTED_EDGE ( 'NONE', *, *, #153, .T. ) ;
#727 = DIRECTION ( 'NONE',  ( 0.000000000000000000, 0.000000000000000000, -1.000000000000000000 ) ) ;
#728 = FACE_OUTER_BOUND ( 'NONE', #226, .T. ) ;
#729 = EDGE_CURVE ( 'NONE', #625, #1262, #1039, .T. ) ;
#730 = CIRCLE ( 'NONE', #132, 3.000000000000000000 ) ;
#731 = VECTOR ( 'NONE', #993, 1000.000000000000000 ) ;
#732 = ORIENTED_EDGE ( 'NONE', *, *, #1338, .F. ) ;
#733 = DIRECTION ( 'NONE',  ( -1.000000000000000000, 0.000000000000000000, 0.000000000000000000 ) ) ;
#734 = ORIENTED_EDGE ( 'NONE', *, *, #928, .F. ) ;
#735 = PLANE ( 'NONE',  #566 ) ;
#736 = DIRECTION ( 'NONE',  ( 1.000000000000000000, 0.000000000000000000, 0.000000000000000000 ) ) ;
#737 = CARTESIAN_POINT ( 'NONE',  ( -8.100000000000001421, 11.75136374907948600, -6.000000000000000000 ) ) ;
#738 = AXIS2_PLACEMENT_3D ( 'NONE', #753, #1183, #221 ) ;
#739 = VERTEX_POINT ( 'NONE', #19 ) ;
#740 = CARTESIAN_POINT ( 'NONE',  ( 6.000000000000005329, 2.000000000000000000, 25.50000000000000000 ) ) ;
#741 = ORIENTED_EDGE ( 'NONE', *, *, #616, .T. ) ;
#742 = VERTEX_POINT ( 'NONE', #1069 ) ;
#743 = ADVANCED_FACE ( 'NONE', ( #325, #760 ), #735, .T. ) ;
#744 = DIRECTION ( 'NONE',  ( 0.000000000000000000, 0.000000000000000000, -1.000000000000000000 ) ) ;
#745 = CIRCLE ( 'NONE', #1066, 2.749999999999999112 ) ;
#746 = DIRECTION ( 'NONE',  ( -0.000000000000000000, -0.000000000000000000, -1.000000000000000000 ) ) ;
#747 = DIRECTION ( 'NONE',  ( 1.000000000000000000, 0.000000000000000000, 0.000000000000000000 ) ) ;
#748 = ADVANCED_FACE ( 'NONE', ( #626 ), #208, .F. ) ;
#749 = VERTEX_POINT ( 'NONE', #1187 ) ;
#750 = DIRECTION ( 'NONE',  ( 2.952378146089967439E-16, -1.000000000000000000, 0.000000000000000000 ) ) ;
#751 = VERTEX_POINT ( 'NONE', #632 ) ;
#752 = CARTESIAN_POINT ( 'NONE',  ( -9.199999999999999289, 0.000000000000000000, -31.20000000000000284 ) ) ;
#753 = CARTESIAN_POINT ( 'NONE',  ( -11.50000000000000000, 0.000000000000000000, -33.50000000000000000 ) ) ;
#754 = EDGE_CURVE ( 'NONE', #857, #361, #1101, .T. ) ;
#755 = CARTESIAN_POINT ( 'NONE',  ( 6.000000000000000000, 0.000000000000000000, -28.24999999999999645 ) ) ;
#756 = CYLINDRICAL_SURFACE ( 'NONE', #1220, 2.299999999999999822 ) ;
#757 = CIRCLE ( 'NONE', #491, 3.599999999999999201 ) ;
#758 = EDGE_LOOP ( 'NONE', ( #63, #1328, #254, #50 ) ) ;
#759 = CARTESIAN_POINT ( 'NONE',  ( -4.500000000000002665, 19.99999999999999645, -9.000000000000001776 ) ) ;
#760 = FACE_BOUND ( 'NONE', #582, .T. ) ;
#761 = DIRECTION ( 'NONE',  ( 0.000000000000000000, 1.000000000000000000, -0.000000000000000000 ) ) ;
#762 = EDGE_CURVE ( 'NONE', #1322, #625, #90, .T. ) ;
#763 = EDGE_CURVE ( 'NONE', #1124, #81, #416, .T. ) ;
#764 = AXIS2_PLACEMENT_3D ( 'NONE', #932, #379, #394 ) ;
#765 = DIRECTION ( 'NONE',  ( 0.000000000000000000, -1.000000000000000000, 0.000000000000000000 ) ) ;
#766 = ORIENTED_EDGE ( 'NONE', *, *, #1323, .F. ) ;
#767 = CYLINDRICAL_SURFACE ( 'NONE', #408, 2.299999999999999822 ) ;
#768 = CARTESIAN_POINT ( 'NONE',  ( -9.199999999999999289, 0.000000000000000000, -8.300000000000002487 ) ) ;
#769 = VECTOR ( 'NONE', #697, 1000.000000000000000 ) ;
#770 = CARTESIAN_POINT ( 'NONE',  ( -8.099999999999997868, 2.000000000000000000, 6.000000000000000000 ) ) ;
#771 = DIRECTION ( 'NONE',  ( 1.000000000000000000, 0.000000000000000000, 0.000000000000000000 ) ) ;
#772 = ORIENTED_EDGE ( 'NONE', *, *, #258, .T. ) ;
#773 = DIRECTION ( 'NONE',  ( 0.000000000000000000, 0.000000000000000000, 1.000000000000000000 ) ) ;
#774 = FACE_OUTER_BOUND ( 'NONE', #758, .T. ) ;
#775 = PRODUCT_DEFINITION_SHAPE ( 'NONE', 'NONE',  #1370 ) ;
#776 = CARTESIAN_POINT ( 'NONE',  ( -11.50000000000000000, 2.000000000000000000, -8.000000000000000000 ) ) ;
#777 = VERTEX_POINT ( 'NONE', #537 ) ;
#778 = FACE_BOUND ( 'NONE', #1239, .T. ) ;
#779 = PLANE ( 'NONE',  #786 ) ;
#780 = EDGE_CURVE ( 'NONE', #1132, #751, #71, .T. ) ;
#781 = VECTOR ( 'NONE', #1081, 1000.000000000000000 ) ;
#782 = AXIS2_PLACEMENT_3D ( 'NONE', #1138, #180, #1254 ) ;
#783 = ORIENTED_EDGE ( 'NONE', *, *, #383, .T. ) ;
#784 = CARTESIAN_POINT ( 'NONE',  ( -4.500000000000002665, 19.99999999999999645, -8.000000000000000000 ) ) ;
#785 = DIRECTION ( 'NONE',  ( -0.000000000000000000, 1.000000000000000000, -0.000000000000000000 ) ) ;
#786 = AXIS2_PLACEMENT_3D ( 'NONE', #665, #1194, #23 ) ;
#787 = ADVANCED_FACE ( 'NONE', ( #440 ), #1364, .T. ) ;
#788 = ORIENTED_EDGE ( 'NONE', *, *, #263, .F. ) ;
#789 = AXIS2_PLACEMENT_3D ( 'NONE', #1341, #1211, #385 ) ;
#790 = ORIENTED_EDGE ( 'NONE', *, *, #296, .F. ) ;
#791 =( NAMED_UNIT ( * ) SI_UNIT ( $, .STERADIAN. ) SOLID_ANGLE_UNIT ( ) );
#792 = CARTESIAN_POINT ( 'NONE',  ( -5.999999999999994671, 0.000000000000000000, 22.75000000000000000 ) ) ;
#793 = ADVANCED_FACE ( 'NONE', ( #543 ), #980, .T. ) ;
#794 = ORIENTED_EDGE ( 'NONE', *, *, #178, .F. ) ;
#795 = APPLICATION_PROTOCOL_DEFINITION ( 'draft international standard', 'automotive_design', 1998, #452 ) ;
#796 = DIRECTION ( 'NONE',  ( 0.000000000000000000, 0.000000000000000000, 1.000000000000000000 ) ) ;
#797 = ORIENTED_EDGE ( 'NONE', *, *, #1327, .T. ) ;
#798 = CARTESIAN_POINT ( 'NONE',  ( -11.50000000000000000, 2.000000000000000000, 31.20000000000000284 ) ) ;
#799 = UNCERTAINTY_MEASURE_WITH_UNIT (LENGTH_MEASURE( 1.000000000000000082E-05 ), #1314, 'distance_accuracy_value', 'NONE');
#800 = EDGE_LOOP ( 'NONE', ( #1141, #713, #375, #532 ) ) ;
#801 = DIRECTION ( 'NONE',  ( 0.000000000000000000, 0.000000000000000000, 1.000000000000000000 ) ) ;
#802 = CIRCLE ( 'NONE', #372, 2.749999999999999112 ) ;
#803 = CIRCLE ( 'NONE', #538, 2.299999999999999822 ) ;
#804 = DIRECTION ( 'NONE',  ( 1.000000000000000000, 0.000000000000000000, 0.000000000000000000 ) ) ;
#805 = EDGE_CURVE ( 'NONE', #1232, #922, #1218, .T. ) ;
#806 = EDGE_CURVE ( 'NONE', #384, #431, #1315, .T. ) ;
#807 = DIRECTION ( 'NONE',  ( 1.000000000000000000, 0.000000000000000000, -0.000000000000000000 ) ) ;
#808 = ORIENTED_EDGE ( 'NONE', *, *, #780, .F. ) ;
#809 = CYLINDRICAL_SURFACE ( 'NONE', #610, 2.749999999999999112 ) ;
#810 = ORIENTED_EDGE ( 'NONE', *, *, #673, .F. ) ;
#811 = ORIENTED_EDGE ( 'NONE', *, *, #909, .F. ) ;
#812 = LINE ( 'NONE', #277, #160 ) ;
#813 = AXIS2_PLACEMENT_3D ( 'NONE', #938, #370, #801 ) ;
#814 = CARTESIAN_POINT ( 'NONE',  ( 9.199999999999999289, 2.000000000000000000, 31.20000000000000284 ) ) ;
#815 = VECTOR ( 'NONE', #27, 1000.000000000000000 ) ;
#816 = EDGE_LOOP ( 'NONE', ( #444, #947 ) ) ;
#817 = CARTESIAN_POINT ( 'NONE',  ( 11.50000000000000000, 2.000000000000000000, -31.20000000000000284 ) ) ;
#818 = CYLINDRICAL_SURFACE ( 'NONE', #143, 8.999999999999998224 ) ;
#819 = ORIENTED_EDGE ( 'NONE', *, *, #489, .T. ) ;
#820 = CARTESIAN_POINT ( 'NONE',  ( -9.199999999999999289, 0.000000000000000000, -33.50000000000000000 ) ) ;
#821 = CARTESIAN_POINT ( 'NONE',  ( -8.100000000000001421, 11.75136374907948600, -6.000000000000000000 ) ) ;
#822 = ORIENTED_EDGE ( 'NONE', *, *, #805, .F. ) ;
#823 = DIRECTION ( 'NONE',  ( 0.000000000000000000, -1.000000000000000000, 0.000000000000000000 ) ) ;
#824 = ADVANCED_FACE ( 'NONE', ( #355 ), #779, .T. ) ;
#825 = DIRECTION ( 'NONE',  ( 0.000000000000000000, -1.000000000000000000, 0.000000000000000000 ) ) ;
#826 = DIRECTION ( 'NONE',  ( 0.000000000000000000, 0.000000000000000000, 1.000000000000000000 ) ) ;
#827 = ORIENTED_EDGE ( 'NONE', *, *, #40, .T. ) ;
#828 = CARTESIAN_POINT ( 'NONE',  ( 11.50000000000000000, 0.000000000000000000, -31.20000000000000284 ) ) ;
#829 = ORIENTED_EDGE ( 'NONE', *, *, #516, .F. ) ;
#830 = FACE_OUTER_BOUND ( 'NONE', #881, .T. ) ;
#831 = VECTOR ( 'NONE', #746, 1000.000000000000000 ) ;
#832 = DIRECTION ( 'NONE',  ( 1.000000000000000000, -0.000000000000000000, -0.000000000000000000 ) ) ;
#833 = EDGE_LOOP ( 'NONE', ( #1144, #514, #45, #644 ) ) ;
#834 = CARTESIAN_POINT ( 'NONE',  ( -8.100000000000001421, 11.75136374907948600, 6.000000000000000000 ) ) ;
#835 = AXIS2_PLACEMENT_3D ( 'NONE', #507, #590, #602 ) ;
#836 = EDGE_CURVE ( 'NONE', #1135, #994, #899, .T. ) ;
#837 = ORIENTED_EDGE ( 'NONE', *, *, #1089, .T. ) ;
#838 = ORIENTED_EDGE ( 'NONE', *, *, #806, .T. ) ;
#839 = DIRECTION ( 'NONE',  ( -1.000000000000000000, 0.000000000000000000, -0.000000000000000000 ) ) ;
#840 = FACE_OUTER_BOUND ( 'NONE', #523, .T. ) ;
#841 = ORIENTED_EDGE ( 'NONE', *, *, #61, .F. ) ;
#842 = DIRECTION ( 'NONE',  ( 0.000000000000000000, 0.000000000000000000, -1.000000000000000000 ) ) ;
#843 = FACE_OUTER_BOUND ( 'NONE', #1068, .T. ) ;
#844 = EDGE_LOOP ( 'NONE', ( #1368, #978, #1072, #483 ) ) ;
#845 = CARTESIAN_POINT ( 'NONE',  ( 6.000000000000000000, 0.000000000000000000, -25.50000000000000000 ) ) ;
#846 = CARTESIAN_POINT ( 'NONE',  ( -4.500000000000002665, 19.99999999999999645, 6.000000000000000000 ) ) ;
#847 = DIRECTION ( 'NONE',  ( 0.000000000000000000, 0.000000000000000000, -1.000000000000000000 ) ) ;
#848 = ADVANCED_FACE ( 'NONE', ( #1320, #570 ), #876, .F. ) ;
#849 = VECTOR ( 'NONE', #702, 1000.000000000000000 ) ;
#850 = ORIENTED_EDGE ( 'NONE', *, *, #1215, .F. ) ;
#851 = LINE ( 'NONE', #834, #600 ) ;
#852 = ORIENTED_EDGE ( 'NONE', *, *, #92, .T. ) ;
#853 = CARTESIAN_POINT ( 'NONE',  ( 9.199999999999999289, 0.000000000000000000, 31.20000000000000284 ) ) ;
#854 = CARTESIAN_POINT ( 'NONE',  ( 11.50000000000000000, 0.000000000000000000, -5.999999999999998224 ) ) ;
#855 = AXIS2_PLACEMENT_3D ( 'NONE', #1243, #613, #1344 ) ;
#856 = DIRECTION ( 'NONE',  ( 0.000000000000000000, 0.000000000000000000, -1.000000000000000000 ) ) ;
#857 = VERTEX_POINT ( 'NONE', #792 ) ;
#858 = DIRECTION ( 'NONE',  ( 0.000000000000000000, 1.000000000000000000, -0.000000000000000000 ) ) ;
#859 = AXIS2_PLACEMENT_3D ( 'NONE', #1271, #312, #425 ) ;
#860 = ORIENTED_EDGE ( 'NONE', *, *, #263, .T. ) ;
#861 = DIRECTION ( 'NONE',  ( 0.000000000000000000, 0.000000000000000000, -1.000000000000000000 ) ) ;
#862 = DIRECTION ( 'NONE',  ( 0.000000000000000000, 0.000000000000000000, -1.000000000000000000 ) ) ;
#863 = VECTOR ( 'NONE', #418, 1000.000000000000000 ) ;
#864 =( GEOMETRIC_REPRESENTATION_CONTEXT ( 3 ) GLOBAL_UNCERTAINTY_ASSIGNED_CONTEXT ( ( #147 ) ) GLOBAL_UNIT_ASSIGNED_CONTEXT ( ( #1229, #1016, #573 ) ) REPRESENTATION_CONTEXT ( 'NONE', 'WORKASPACE' ) );
#865 = DIRECTION ( 'NONE',  ( -0.000000000000000000, -0.000000000000000000, -1.000000000000000000 ) ) ;
#866 = CARTESIAN_POINT ( 'NONE',  ( 6.000000000000005329, 2.000000000000000000, 22.75000000000000000 ) ) ;
#867 = ORIENTED_EDGE ( 'NONE', *, *, #40, .F. ) ;
#868 = DIRECTION ( 'NONE',  ( -1.000000000000000000, 0.000000000000000000, 0.000000000000000000 ) ) ;
#869 = CARTESIAN_POINT ( 'NONE',  ( -4.500000000000002665, 19.99999999999999645, -9.000000000000001776 ) ) ;
#870 = ADVANCED_FACE ( 'NONE', ( #556 ), #346, .T. ) ;
#871 = ADVANCED_FACE ( 'NONE', ( #1094 ), #1088, .T. ) ;
#872 = DIRECTION ( 'NONE',  ( -0.3369188387224464343, 0.9415336935627519610, 0.000000000000000000 ) ) ;
#873 = AXIS2_PLACEMENT_3D ( 'NONE', #1164, #630, #733 ) ;
#874 = DIRECTION ( 'NONE',  ( 0.000000000000000000, 0.000000000000000000, -1.000000000000000000 ) ) ;
#875 = ORIENTED_EDGE ( 'NONE', *, *, #1257, .T. ) ;
#876 = PLANE ( 'NONE',  #676 ) ;
#877 = VECTOR ( 'NONE', #933, 1000.000000000000000 ) ;
#878 = DIRECTION ( 'NONE',  ( 0.000000000000000000, 0.000000000000000000, 1.000000000000000000 ) ) ;
#879 = CIRCLE ( 'NONE', #1206, 8.999999999999998224 ) ;
#880 = DIRECTION ( 'NONE',  ( 1.000000000000000000, 0.000000000000000000, 0.000000000000000000 ) ) ;
#881 = EDGE_LOOP ( 'NONE', ( #1203, #1175, #72, #667, #965, #1157, #719, #170, #496 ) ) ;
#882 = CYLINDRICAL_SURFACE ( 'NONE', #695, 3.599999999999999201 ) ;
#883 = CARTESIAN_POINT ( 'NONE',  ( 11.50000000000000000, 12.51613477425100918, 6.000000000000000000 ) ) ;
#884 = VECTOR ( 'NONE', #1110, 1000.000000000000000 ) ;
#885 = EDGE_CURVE ( 'NONE', #936, #721, #256, .T. ) ;
#886 = DIRECTION ( 'NONE',  ( -0.000000000000000000, 1.000000000000000000, -0.000000000000000000 ) ) ;
#887 = CARTESIAN_POINT ( 'NONE',  ( 6.000000000000005329, 0.000000000000000000, 22.75000000000000000 ) ) ;
#888 = ORIENTED_EDGE ( 'NONE', *, *, #1079, .F. ) ;
#889 = CARTESIAN_POINT ( 'NONE',  ( -5.999999999999994671, 2.000000000000000000, 25.50000000000000000 ) ) ;
#890 = DIRECTION ( 'NONE',  ( -0.000000000000000000, -0.000000000000000000, -1.000000000000000000 ) ) ;
#891 = PRODUCT_DEFINITION_CONTEXT ( 'detailed design', #452, 'design' ) ;
#892 = ADVANCED_FACE ( 'NONE', ( #450 ), #470, .T. ) ;
#893 = EDGE_LOOP ( 'NONE', ( #896, #841, #259, #309 ) ) ;
#894 = CARTESIAN_POINT ( 'NONE',  ( 9.199999999999999289, 2.000000000000000000, -31.20000000000000284 ) ) ;
#895 = AXIS2_PLACEMENT_3D ( 'NONE', #366, #796, #1017 ) ;
#896 = ORIENTED_EDGE ( 'NONE', *, *, #729, .F. ) ;
#897 = VECTOR ( 'NONE', #1202, 1000.000000000000000 ) ;
#898 = ORIENTED_EDGE ( 'NONE', *, *, #712, .T. ) ;
#899 = LINE ( 'NONE', #445, #184 ) ;
#900 = EDGE_LOOP ( 'NONE', ( #766, #86 ) ) ;
#901 = VECTOR ( 'NONE', #386, 1000.000000000000000 ) ;
#902 = PRESENTATION_LAYER_ASSIGNMENT (  '', '', ( #102 ) ) ;
#903 = DIRECTION ( 'NONE',  ( 1.000000000000000000, 0.000000000000000000, 0.000000000000000000 ) ) ;
#904 = ORIENTED_EDGE ( 'NONE', *, *, #699, .F. ) ;
#905 = LINE ( 'NONE', #1326, #658 ) ;
#906 = ORIENTED_EDGE ( 'NONE', *, *, #1284, .T. ) ;
#907 = DIRECTION ( 'NONE',  ( 1.000000000000000000, -0.000000000000000000, -0.000000000000000000 ) ) ;
#908 = ADVANCED_FACE ( 'NONE', ( #774 ), #31, .T. ) ;
#909 = EDGE_CURVE ( 'NONE', #1322, #1108, #577, .T. ) ;
#910 = LINE ( 'NONE', #1190, #622 ) ;
#911 = ORIENTED_EDGE ( 'NONE', *, *, #108, .F. ) ;
#912 = APPLICATION_PROTOCOL_DEFINITION ( 'draft international standard', 'automotive_design', 1998, #479 ) ;
#913 = DIRECTION ( 'NONE',  ( 0.000000000000000000, 0.000000000000000000, 1.000000000000000000 ) ) ;
#914 = ORIENTED_EDGE ( 'NONE', *, *, #424, .T. ) ;
#915 = PLANE ( 'NONE',  #764 ) ;
#916 = AXIS2_PLACEMENT_3D ( 'NONE', #135, #33, #457 ) ;
#917 = CARTESIAN_POINT ( 'NONE',  ( -9.199999999999999289, 2.000000000000000000, 6.000000000000000000 ) ) ;
#918 = FACE_OUTER_BOUND ( 'NONE', #934, .T. ) ;
#919 = ORIENTED_EDGE ( 'NONE', *, *, #471, .F. ) ;
#920 = DIRECTION ( 'NONE',  ( 0.000000000000000000, 0.000000000000000000, 1.000000000000000000 ) ) ;
#921 = FACE_OUTER_BOUND ( 'NONE', #1353, .T. ) ;
#922 = VERTEX_POINT ( 'NONE', #37 ) ;
#923 = DIRECTION ( 'NONE',  ( 1.000000000000000000, 0.000000000000000000, 0.000000000000000000 ) ) ;
#924 = VECTOR ( 'NONE', #565, 1000.000000000000000 ) ;
#925 = EDGE_CURVE ( 'NONE', #739, #266, #460, .T. ) ;
#926 = CARTESIAN_POINT ( 'NONE',  ( 11.50000000000000000, 0.000000000000000000, -33.50000000000000000 ) ) ;
#927 = AXIS2_PLACEMENT_3D ( 'NONE', #1010, #651, #15 ) ;
#928 = EDGE_CURVE ( 'NONE', #137, #739, #718, .T. ) ;
#929 = EDGE_LOOP ( 'NONE', ( #687, #867, #674, #105 ) ) ;
#930 = CARTESIAN_POINT ( 'NONE',  ( -8.100000000000001421, 19.99999999999999645, 9.000000000000001776 ) ) ;
#931 = VERTEX_POINT ( 'NONE', #46 ) ;
#932 = CARTESIAN_POINT ( 'NONE',  ( -11.50000000000000000, 0.000000000000000000, 33.50000000000000000 ) ) ;
#933 = DIRECTION ( 'NONE',  ( 0.000000000000000000, 0.000000000000000000, 1.000000000000000000 ) ) ;
#934 = EDGE_LOOP ( 'NONE', ( #66, #569, #344, #810 ) ) ;
#935 = DIRECTION ( 'NONE',  ( -0.000000000000000000, -0.000000000000000000, -1.000000000000000000 ) ) ;
#936 = VERTEX_POINT ( 'NONE', #1105 ) ;
#937 = EDGE_LOOP ( 'NONE', ( #313, #1180, #1313, #462 ) ) ;
#938 = CARTESIAN_POINT ( 'NONE',  ( -9.199999999999999289, 2.000000000000000000, -31.20000000000000284 ) ) ;
#939 = FACE_OUTER_BOUND ( 'NONE', #214, .T. ) ;
#940 = EDGE_CURVE ( 'NONE', #1087, #431, #1000, .T. ) ;
#941 = ORIENTED_EDGE ( 'NONE', *, *, #1060, .F. ) ;
#942 = CARTESIAN_POINT ( 'NONE',  ( -9.199999999999999289, 2.000000000000000000, -33.50000000000000000 ) ) ;
#943 = ORIENTED_EDGE ( 'NONE', *, *, #754, .F. ) ;
#944 = DIRECTION ( 'NONE',  ( -0.000000000000000000, 1.000000000000000000, -0.000000000000000000 ) ) ;
#945 = VECTOR ( 'NONE', #1030, 1000.000000000000000 ) ;
#946 = PLANE ( 'NONE',  #1062 ) ;
#947 = ORIENTED_EDGE ( 'NONE', *, *, #1257, .F. ) ;
#948 = DIRECTION ( 'NONE',  ( 0.000000000000000000, 1.000000000000000000, 0.000000000000000000 ) ) ;
#949 = VECTOR ( 'NONE', #935, 1000.000000000000000 ) ;
#950 = ORIENTED_EDGE ( 'NONE', *, *, #1289, .T. ) ;
#951 = CARTESIAN_POINT ( 'NONE',  ( -4.500000000000002665, 19.99999999999999645, -6.000000000000000000 ) ) ;
#952 = DIRECTION ( 'NONE',  ( 0.000000000000000000, 0.000000000000000000, 1.000000000000000000 ) ) ;
#953 = EDGE_CURVE ( 'NONE', #57, #683, #1209, .T. ) ;
#954 =( LENGTH_UNIT ( ) NAMED_UNIT ( * ) SI_UNIT ( .MILLI., .METRE. ) );
#955 = EDGE_LOOP ( 'NONE', ( #1280, #59 ) ) ;
#956 = CARTESIAN_POINT ( 'NONE',  ( -8.100000000000001421, 19.99999999999999645, -9.000000000000001776 ) ) ;
#957 = ORIENTED_EDGE ( 'NONE', *, *, #165, .T. ) ;
#958 = ORIENTED_EDGE ( 'NONE', *, *, #598, .T. ) ;
#959 = EDGE_CURVE ( 'NONE', #361, #619, #905, .T. ) ;
#960 = CYLINDRICAL_SURFACE ( 'NONE', #519, 2.299999999999999822 ) ;
#961 = CARTESIAN_POINT ( 'NONE',  ( -8.100000000000001421, 19.99999999999999645, 9.000000000000001776 ) ) ;
#962 = DIRECTION ( 'NONE',  ( 0.000000000000000000, 0.000000000000000000, 1.000000000000000000 ) ) ;
#963 = VECTOR ( 'NONE', #213, 1000.000000000000000 ) ;
#964 = VECTOR ( 'NONE', #482, 1000.000000000000000 ) ;
#965 = ORIENTED_EDGE ( 'NONE', *, *, #337, .T. ) ;
#966 = CARTESIAN_POINT ( 'NONE',  ( -13.50000000000000000, 19.99999999999999645, -6.000000000000000000 ) ) ;
#967 = ORIENTED_EDGE ( 'NONE', *, *, #959, .F. ) ;
#968 = CARTESIAN_POINT ( 'NONE',  ( -4.500000000000002665, 19.99999999999999645, -8.000000000000000000 ) ) ;
#969 = DIRECTION ( 'NONE',  ( 0.000000000000000000, 1.000000000000000000, -0.000000000000000000 ) ) ;
#970 = DIRECTION ( 'NONE',  ( 0.000000000000000000, -1.000000000000000000, 0.000000000000000000 ) ) ;
#971 = AXIS2_PLACEMENT_3D ( 'NONE', #84, #1145, #1329 ) ;
#972 = CARTESIAN_POINT ( 'NONE',  ( 3.973803242064763985, 23.03226954850201480, 6.000000000000000000 ) ) ;
#973 = AXIS2_PLACEMENT_3D ( 'NONE', #338, #1212, #351 ) ;
#974 = LINE ( 'NONE', #17, #446 ) ;
#975 = EDGE_CURVE ( 'NONE', #384, #1322, #1136, .T. ) ;
#976 = AXIS2_PLACEMENT_3D ( 'NONE', #60, #497, #488 ) ;
#977 = MECHANICAL_DESIGN_GEOMETRIC_PRESENTATION_REPRESENTATION (  '', ( #275 ), #210 ) ;
#978 = ORIENTED_EDGE ( 'NONE', *, *, #1060, .T. ) ;
#979 = FACE_OUTER_BOUND ( 'NONE', #844, .T. ) ;
#980 = CYLINDRICAL_SURFACE ( 'NONE', #141, 3.599999999999999201 ) ;
#981 = CIRCLE ( 'NONE', #1067, 3.000000000000000000 ) ;
#982 = CARTESIAN_POINT ( 'NONE',  ( 11.50000000000000000, 0.000000000000000000, 31.20000000000000639 ) ) ;
#983 = DIRECTION ( 'NONE',  ( 0.000000000000000000, 0.000000000000000000, -1.000000000000000000 ) ) ;
#984 = EDGE_LOOP ( 'NONE', ( #526, #1267, #1214, #480 ) ) ;
#985 = CARTESIAN_POINT ( 'NONE',  ( -4.500000000000002665, 19.99999999999999645, 16.48528137423856776 ) ) ;
#986 = PLANE ( 'NONE',  #299 ) ;
#987 = CIRCLE ( 'NONE', #421, 2.749999999999999112 ) ;
#988 = DIRECTION ( 'NONE',  ( 0.000000000000000000, 0.000000000000000000, 1.000000000000000000 ) ) ;
#989 = ORIENTED_EDGE ( 'NONE', *, *, #1089, .F. ) ;
#990 = DIRECTION ( 'NONE',  ( 0.000000000000000000, 0.000000000000000000, -1.000000000000000000 ) ) ;
#991 = CARTESIAN_POINT ( 'NONE',  ( -11.50000000000000000, 0.000000000000000000, -31.20000000000000284 ) ) ;
#992 = CYLINDRICAL_SURFACE ( 'NONE', #319, 2.749999999999999112 ) ;
#993 = DIRECTION ( 'NONE',  ( 0.000000000000000000, 0.000000000000000000, 1.000000000000000000 ) ) ;
#994 = VERTEX_POINT ( 'NONE', #392 ) ;
#995 = DIRECTION ( 'NONE',  ( -0.000000000000000000, 1.000000000000000000, -0.000000000000000000 ) ) ;
#996 = DIRECTION ( 'NONE',  ( 1.000000000000000000, 0.000000000000000000, 0.000000000000000000 ) ) ;
#997 = VECTOR ( 'NONE', #287, 1000.000000000000000 ) ;
#998 = EDGE_CURVE ( 'NONE', #9, #1304, #1148, .T. ) ;
#999 = ORIENTED_EDGE ( 'NONE', *, *, #410, .T. ) ;
#1000 = LINE ( 'NONE', #42, #317 ) ;
#1001 = EDGE_CURVE ( 'NONE', #193, #617, #679, .T. ) ;
#1002 = CARTESIAN_POINT ( 'NONE',  ( -4.500000000000002665, 19.99999999999999645, -9.000000000000001776 ) ) ;
#1003 = VERTEX_POINT ( 'NONE', #828 ) ;
#1004 = DIRECTION ( 'NONE',  ( 1.000000000000000000, 0.000000000000000000, 0.000000000000000000 ) ) ;
#1005 = DIRECTION ( 'NONE',  ( 0.000000000000000000, 1.000000000000000000, 0.000000000000000000 ) ) ;
#1006 = ORIENTED_EDGE ( 'NONE', *, *, #393, .T. ) ;
#1007 = CIRCLE ( 'NONE', #628, 2.299999999999999822 ) ;
#1008 = LINE ( 'NONE', #49, #1201 ) ;
#1009 = ORIENTED_EDGE ( 'NONE', *, *, #642, .F. ) ;
#1010 = CARTESIAN_POINT ( 'NONE',  ( 11.50000000000000000, 2.000000000000000000, -33.50000000000000000 ) ) ;
#1011 = ADVANCED_FACE ( 'NONE', ( #921 ), #809, .F. ) ;
#1012 = EDGE_CURVE ( 'NONE', #349, #137, #377, .T. ) ;
#1013 = ORIENTED_EDGE ( 'NONE', *, *, #125, .T. ) ;
#1014 = CIRCLE ( 'NONE', #1303, 3.599999999999999201 ) ;
#1015 = CARTESIAN_POINT ( 'NONE',  ( -4.500000000000002665, 19.99999999999999645, 6.000000000000000000 ) ) ;
#1016 =( NAMED_UNIT ( * ) PLANE_ANGLE_UNIT ( ) SI_UNIT ( $, .RADIAN. ) );
#1017 = DIRECTION ( 'NONE',  ( 1.000000000000000000, 0.000000000000000000, 0.000000000000000000 ) ) ;
#1018 = EDGE_LOOP ( 'NONE', ( #906, #1217, #783, #426, #528, #827, #1242, #637 ) ) ;
#1019 = CARTESIAN_POINT ( 'NONE',  ( 11.50000000000000000, 2.000000000000000000, 8.000000000000000000 ) ) ;
#1020 = CARTESIAN_POINT ( 'NONE',  ( -6.000000000000000000, 0.000000000000000000, -28.24999999999999645 ) ) ;
#1021 = ORIENTED_EDGE ( 'NONE', *, *, #1200, .F. ) ;
#1022 = CARTESIAN_POINT ( 'NONE',  ( -11.50000000000000000, 2.000000000000000000, 5.999999999999998224 ) ) ;
#1023 = FACE_OUTER_BOUND ( 'NONE', #1265, .T. ) ;
#1024 = DIRECTION ( 'NONE',  ( 0.000000000000000000, 0.000000000000000000, 1.000000000000000000 ) ) ;
#1025 = ORIENTED_EDGE ( 'NONE', *, *, #1345, .F. ) ;
#1026 = DIRECTION ( 'NONE',  ( 0.000000000000000000, 0.000000000000000000, 1.000000000000000000 ) ) ;
#1027 = DIRECTION ( 'NONE',  ( -0.000000000000000000, 1.000000000000000000, -0.000000000000000000 ) ) ;
#1028 = EDGE_CURVE ( 'NONE', #1192, #273, #73, .T. ) ;
#1029 = ORIENTED_EDGE ( 'NONE', *, *, #1091, .T. ) ;
#1030 = DIRECTION ( 'NONE',  ( -0.000000000000000000, -0.000000000000000000, -1.000000000000000000 ) ) ;
#1031 = VECTOR ( 'NONE', #513, 1000.000000000000000 ) ;
#1032 = CARTESIAN_POINT ( 'NONE',  ( -9.199999999999999289, 0.000000000000000000, 8.300000000000002487 ) ) ;
#1033 = EDGE_CURVE ( 'NONE', #1325, #388, #502, .T. ) ;
#1034 = ORIENTED_EDGE ( 'NONE', *, *, #928, .T. ) ;
#1035 = DIRECTION ( 'NONE',  ( 0.000000000000000000, 0.000000000000000000, 1.000000000000000000 ) ) ;
#1036 = CIRCLE ( 'NONE', #1318, 2.749999999999999112 ) ;
#1037 = EDGE_LOOP ( 'NONE', ( #943, #110, #203, #967 ) ) ;
#1038 = CARTESIAN_POINT ( 'NONE',  ( -5.999999999999994671, 2.000000000000000000, 28.24999999999999645 ) ) ;
#1039 = CIRCLE ( 'NONE', #1208, 8.999999999999998224 ) ;
#1040 = LINE ( 'NONE', #599, #877 ) ;
#1041 = VECTOR ( 'NONE', #1342, 1000.000000000000000 ) ;
#1042 = ADVANCED_FACE ( 'NONE', ( #1223 ), #818, .T. ) ;
#1043 = ORIENTED_EDGE ( 'NONE', *, *, #1139, .F. ) ;
#1044 = CARTESIAN_POINT ( 'NONE',  ( -8.100000000000001421, 11.75136374907948600, -6.000000000000000000 ) ) ;
#1045 = VERTEX_POINT ( 'NONE', #281 ) ;
#1046 = DIRECTION ( 'NONE',  ( -0.000000000000000000, -0.000000000000000000, -1.000000000000000000 ) ) ;
#1047 = PLANE ( 'NONE',  #693 ) ;
#1048 = ORIENTED_EDGE ( 'NONE', *, *, #182, .T. ) ;
#1049 = EDGE_CURVE ( 'NONE', #777, #197, #77, .T. ) ;
#1050 = LINE ( 'NONE', #1281, #43 ) ;
#1051 = ORIENTED_EDGE ( 'NONE', *, *, #559, .T. ) ;
#1052 = DIRECTION ( 'NONE',  ( 1.000000000000000000, 0.000000000000000000, -0.000000000000000000 ) ) ;
#1053 = CIRCLE ( 'NONE', #26, 8.999999999999998224 ) ;
#1054 = LINE ( 'NONE', #1347, #188 ) ;
#1055 = AXIS2_PLACEMENT_3D ( 'NONE', #442, #1127, #988 ) ;
#1056 = VERTEX_POINT ( 'NONE', #930 ) ;
#1057 = CARTESIAN_POINT ( 'NONE',  ( 11.50000000000000000, 0.000000000000000000, -33.50000000000000000 ) ) ;
#1058 = EDGE_LOOP ( 'NONE', ( #476, #579 ) ) ;
#1059 = EDGE_CURVE ( 'NONE', #276, #1045, #1350, .T. ) ;
#1060 = EDGE_CURVE ( 'NONE', #335, #292, #1131, .T. ) ;
#1061 = DIRECTION ( 'NONE',  ( 0.000000000000000000, 0.000000000000000000, 1.000000000000000000 ) ) ;
#1062 = AXIS2_PLACEMENT_3D ( 'NONE', #409, #305, #1264 ) ;
#1063 = DIRECTION ( 'NONE',  ( 0.000000000000000000, 1.000000000000000000, 0.000000000000000000 ) ) ;
#1064 = EDGE_LOOP ( 'NONE', ( #218, #1371, #54, #199 ) ) ;
#1065 = CARTESIAN_POINT ( 'NONE',  ( 3.973803242064763985, 23.03226954850201480, -8.000000000000000000 ) ) ;
#1066 = AXIS2_PLACEMENT_3D ( 'NONE', #330, #459, #861 ) ;
#1067 = AXIS2_PLACEMENT_3D ( 'NONE', #1222, #267, #171 ) ;
#1068 = EDGE_LOOP ( 'NONE', ( #522, #493, #1245, #563 ) ) ;
#1069 = CARTESIAN_POINT ( 'NONE',  ( -6.000000000000000000, 2.000000000000000000, -22.75000000000000000 ) ) ;
#1070 = CARTESIAN_POINT ( 'NONE',  ( 9.199999999999999289, 0.000000000000000000, 33.50000000000000000 ) ) ;
#1071 = CARTESIAN_POINT ( 'NONE',  ( 6.000000000000005329, 0.000000000000000000, 28.24999999999999645 ) ) ;
#1072 = ORIENTED_EDGE ( 'NONE', *, *, #124, .T. ) ;
#1073 = LINE ( 'NONE', #618, #243 ) ;
#1074 = VERTEX_POINT ( 'NONE', #1246 ) ;
#1075 = EDGE_CURVE ( 'NONE', #1045, #349, #163, .T. ) ;
#1076 = CARTESIAN_POINT ( 'NONE',  ( -8.099999999999997868, 2.000000000000000000, -33.50000000000000000 ) ) ;
#1077 = DIRECTION ( 'NONE',  ( 0.000000000000000000, 1.000000000000000000, 0.000000000000000000 ) ) ;
#1078 = CARTESIAN_POINT ( 'NONE',  ( -4.500000000000002665, 19.99999999999999645, 9.000000000000001776 ) ) ;
#1079 = EDGE_CURVE ( 'NONE', #144, #601, #268, .T. ) ;
#1080 = ORIENTED_EDGE ( 'NONE', *, *, #236, .F. ) ;
#1081 = DIRECTION ( 'NONE',  ( -0.000000000000000000, -0.000000000000000000, -1.000000000000000000 ) ) ;
#1082 = ORIENTED_EDGE ( 'NONE', *, *, #1215, .T. ) ;
#1083 = DIRECTION ( 'NONE',  ( -0.000000000000000000, -0.000000000000000000, 1.000000000000000000 ) ) ;
#1084 = DIRECTION ( 'NONE',  ( -1.000000000000000000, -0.000000000000000000, -0.000000000000000000 ) ) ;
#1085 = AXIS2_PLACEMENT_3D ( 'NONE', #1278, #952, #1373 ) ;
#1086 = DIRECTION ( 'NONE',  ( 1.000000000000000000, 0.000000000000000000, 0.000000000000000000 ) ) ;
#1087 = VERTEX_POINT ( 'NONE', #186 ) ;
#1088 = PLANE ( 'NONE',  #973 ) ;
#1089 = EDGE_CURVE ( 'NONE', #414, #742, #609, .T. ) ;
#1090 = CARTESIAN_POINT ( 'NONE',  ( 9.199999999999999289, 0.000000000000000000, -33.50000000000000000 ) ) ;
#1091 = EDGE_CURVE ( 'NONE', #1192, #1232, #158, .T. ) ;
#1092 = DIRECTION ( 'NONE',  ( 0.000000000000000000, 0.000000000000000000, -1.000000000000000000 ) ) ;
#1093 = ORIENTED_EDGE ( 'NONE', *, *, #763, .F. ) ;
#1094 = FACE_OUTER_BOUND ( 'NONE', #487, .T. ) ;
#1095 = FACE_OUTER_BOUND ( 'NONE', #893, .T. ) ;
#1096 = PLANE ( 'NONE',  #916 ) ;
#1097 = VERTEX_POINT ( 'NONE', #399 ) ;
#1098 = DIRECTION ( 'NONE',  ( -0.000000000000000000, -0.000000000000000000, -1.000000000000000000 ) ) ;
#1099 = DIRECTION ( 'NONE',  ( 0.000000000000000000, -1.000000000000000000, 0.000000000000000000 ) ) ;
#1100 = ADVANCED_FACE ( 'NONE', ( #581 ), #368, .T. ) ;
#1101 = CIRCLE ( 'NONE', #607, 2.749999999999999112 ) ;
#1102 = FACE_BOUND ( 'NONE', #955, .T. ) ;
#1103 = EDGE_CURVE ( 'NONE', #721, #159, #436, .T. ) ;
#1104 = ORIENTED_EDGE ( 'NONE', *, *, #1327, .F. ) ;
#1105 = CARTESIAN_POINT ( 'NONE',  ( -11.50000000000000000, 2.000000000000000000, -31.20000000000000284 ) ) ;
#1106 = MANIFOLD_SOLID_BREP ( 'Ô²½Ç3', #88 ) ;
#1107 = PRODUCT_DEFINITION_FORMATION_WITH_SPECIFIED_SOURCE ( 'ÈÎºÎ', '', #453, .NOT_KNOWN. ) ;
#1108 = VERTEX_POINT ( 'NONE', #127 ) ;
#1109 = DIRECTION ( 'NONE',  ( -0.000000000000000000, 1.000000000000000000, -0.000000000000000000 ) ) ;
#1110 = DIRECTION ( 'NONE',  ( 0.000000000000000000, -1.000000000000000000, 0.000000000000000000 ) ) ;
#1111 = UNCERTAINTY_MEASURE_WITH_UNIT (LENGTH_MEASURE( 1.000000000000000082E-05 ), #954, 'distance_accuracy_value', 'NONE');
#1112 = VERTEX_POINT ( 'NONE', #982 ) ;
#1113 = ADVANCED_FACE ( 'NONE', ( #341 ), #986, .T. ) ;
#1114 = FACE_OUTER_BOUND ( 'NONE', #816, .T. ) ;
#1115 = AXIS2_PLACEMENT_3D ( 'NONE', #720, #323, #725 ) ;
#1116 = ORIENTED_EDGE ( 'NONE', *, *, #662, .F. ) ;
#1117 = CARTESIAN_POINT ( 'NONE',  ( -8.100000000000001421, 19.99999999999999645, -8.000000000000000000 ) ) ;
#1118 = CARTESIAN_POINT ( 'NONE',  ( -11.50000000000000000, 0.000000000000000000, -33.50000000000000000 ) ) ;
#1119 = ORIENTED_EDGE ( 'NONE', *, *, #178, .T. ) ;
#1120 = VECTOR ( 'NONE', #1084, 1000.000000000000000 ) ;
#1121 = ORIENTED_EDGE ( 'NONE', *, *, #136, .F. ) ;
#1122 = FILL_AREA_STYLE ('',( #51 ) ) ;
#1123 = CARTESIAN_POINT ( 'NONE',  ( -6.000000000000000000, 0.000000000000000000, -25.50000000000000000 ) ) ;
#1124 = VERTEX_POINT ( 'NONE', #770 ) ;
#1125 = FACE_OUTER_BOUND ( 'NONE', #535, .T. ) ;
#1126 = AXIS2_PLACEMENT_3D ( 'NONE', #1078, #115, #1189 ) ;
#1127 = DIRECTION ( 'NONE',  ( 0.000000000000000000, 1.000000000000000000, 0.000000000000000000 ) ) ;
#1128 = EDGE_CURVE ( 'NONE', #683, #931, #1294, .T. ) ;
#1129 = ORIENTED_EDGE ( 'NONE', *, *, #148, .F. ) ;
#1130 = FACE_OUTER_BOUND ( 'NONE', #1171, .T. ) ;
#1131 = LINE ( 'NONE', #82, #231 ) ;
#1132 = VERTEX_POINT ( 'NONE', #755 ) ;
#1133 = LINE ( 'NONE', #597, #945 ) ;
#1134 = CARTESIAN_POINT ( 'NONE',  ( -11.50000000000000000, 2.000000000000000000, -33.50000000000000000 ) ) ;
#1135 = VERTEX_POINT ( 'NONE', #1071 ) ;
#1136 = LINE ( 'NONE', #260, #503 ) ;
#1137 = ORIENTED_EDGE ( 'NONE', *, *, #165, .F. ) ;
#1138 = CARTESIAN_POINT ( 'NONE',  ( -4.500000000000002665, 19.99999999999999645, 9.000000000000001776 ) ) ;
#1139 = EDGE_CURVE ( 'NONE', #197, #777, #587, .T. ) ;
#1140 = CYLINDRICAL_SURFACE ( 'NONE', #1362, 2.299999999999999822 ) ;
#1141 = ORIENTED_EDGE ( 'NONE', *, *, #262, .F. ) ;
#1142 = DIRECTION ( 'NONE',  ( 0.000000000000000000, 0.000000000000000000, 1.000000000000000000 ) ) ;
#1143 = AXIS2_PLACEMENT_3D ( 'NONE', #4, #1077, #525 ) ;
#1144 = ORIENTED_EDGE ( 'NONE', *, *, #306, .T. ) ;
#1145 = DIRECTION ( 'NONE',  ( -0.000000000000000000, 1.000000000000000000, -0.000000000000000000 ) ) ;
#1146 = CYLINDRICAL_SURFACE ( 'NONE', #403, 2.299999999999999822 ) ;
#1147 = VECTOR ( 'NONE', #284, 1000.000000000000000 ) ;
#1148 = CIRCLE ( 'NONE', #1282, 3.599999999999999201 ) ;
#1149 =( GEOMETRIC_REPRESENTATION_CONTEXT ( 3 ) GLOBAL_UNCERTAINTY_ASSIGNED_CONTEXT ( ( #799 ) ) GLOBAL_UNIT_ASSIGNED_CONTEXT ( ( #1314, #469, #791 ) ) REPRESENTATION_CONTEXT ( 'NONE', 'WORKASPACE' ) );
#1150 = ORIENTED_EDGE ( 'NONE', *, *, #1128, .T. ) ;
#1151 = DIRECTION ( 'NONE',  ( 0.000000000000000000, 0.000000000000000000, 1.000000000000000000 ) ) ;
#1152 = ORIENTED_EDGE ( 'NONE', *, *, #586, .F. ) ;
#1153 = FACE_BOUND ( 'NONE', #682, .T. ) ;
#1154 = DIRECTION ( 'NONE',  ( 0.000000000000000000, 1.000000000000000000, 0.000000000000000000 ) ) ;
#1155 = EDGE_CURVE ( 'NONE', #936, #1097, #1195, .T. ) ;
#1156 = EDGE_CURVE ( 'NONE', #468, #707, #320, .T. ) ;
#1157 = ORIENTED_EDGE ( 'NONE', *, *, #348, .F. ) ;
#1158 = CARTESIAN_POINT ( 'NONE',  ( -5.999999999999994671, 0.000000000000000000, 25.50000000000000000 ) ) ;
#1159 = ORIENTED_EDGE ( 'NONE', *, *, #805, .T. ) ;
#1160 = DIRECTION ( 'NONE',  ( 1.000000000000000000, 0.000000000000000000, 0.000000000000000000 ) ) ;
#1161 = VECTOR ( 'NONE', #771, 1000.000000000000000 ) ;
#1162 = DIRECTION ( 'NONE',  ( 0.000000000000000000, 0.000000000000000000, 1.000000000000000000 ) ) ;
#1163 = ORIENTED_EDGE ( 'NONE', *, *, #531, .F. ) ;
#1164 = CARTESIAN_POINT ( 'NONE',  ( -4.500000000000002665, 19.99999999999999645, 16.48528137423856776 ) ) ;
#1165 = ORIENTED_EDGE ( 'NONE', *, *, #61, .T. ) ;
#1166 = LINE ( 'NONE', #1276, #451 ) ;
#1167 = AXIS2_PLACEMENT_3D ( 'NONE', #119, #944, #1061 ) ;
#1168 = LINE ( 'NONE', #961, #831 ) ;
#1169 = SURFACE_STYLE_FILL_AREA ( #540 ) ;
#1170 = ADVANCED_FACE ( 'NONE', ( #1095 ), #447, .T. ) ;
#1171 = EDGE_LOOP ( 'NONE', ( #888, #412, #837, #369 ) ) ;
#1172 = CARTESIAN_POINT ( 'NONE',  ( 3.973803242064763985, 23.03226954850201480, -6.000000000000000000 ) ) ;
#1173 = CIRCLE ( 'NONE', #1126, 3.599999999999999201 ) ;
#1174 = VECTOR ( 'NONE', #477, 1000.000000000000000 ) ;
#1175 = ORIENTED_EDGE ( 'NONE', *, *, #500, .T. ) ;
#1176 = FACE_OUTER_BOUND ( 'NONE', #1307, .T. ) ;
#1177 = EDGE_CURVE ( 'NONE', #617, #193, #474, .T. ) ;
#1178 = CARTESIAN_POINT ( 'NONE',  ( 3.973803242064763985, 23.03226954850201480, -6.000000000000000000 ) ) ;
#1179 = CARTESIAN_POINT ( 'NONE',  ( -8.100000000000001421, 19.99999999999999645, 8.000000000000000000 ) ) ;
#1180 = ORIENTED_EDGE ( 'NONE', *, *, #925, .T. ) ;
#1181 = PLANE ( 'NONE',  #332 ) ;
#1182 = EDGE_LOOP ( 'NONE', ( #220, #162, #508, #1165 ) ) ;
#1183 = DIRECTION ( 'NONE',  ( -1.000000000000000000, 0.000000000000000000, 0.000000000000000000 ) ) ;
#1184 = CARTESIAN_POINT ( 'NONE',  ( -4.500000000000002665, 19.99999999999999645, 6.000000000000000000 ) ) ;
#1185 = DIRECTION ( 'NONE',  ( 1.000000000000000000, 0.000000000000000000, 0.000000000000000000 ) ) ;
#1186 = VERTEX_POINT ( 'NONE', #1179 ) ;
#1187 = CARTESIAN_POINT ( 'NONE',  ( -0.9000000000000032419, 19.99999999999999645, -9.000000000000001776 ) ) ;
#1188 = CIRCLE ( 'NONE', #339, 2.299999999999999822 ) ;
#1189 = DIRECTION ( 'NONE',  ( 1.000000000000000000, 0.000000000000000000, 0.000000000000000000 ) ) ;
#1190 = CARTESIAN_POINT ( 'NONE',  ( 6.000000000000000000, 0.000000000000000000, -28.24999999999999645 ) ) ;
#1191 = AXIS2_PLACEMENT_3D ( 'NONE', #130, #234, #564 ) ;
#1192 = VERTEX_POINT ( 'NONE', #737 ) ;
#1193 = CARTESIAN_POINT ( 'NONE',  ( -1.500000000000002220, 19.99999999999999645, 6.000000000000000000 ) ) ;
#1194 = DIRECTION ( 'NONE',  ( 0.000000000000000000, 0.000000000000000000, 1.000000000000000000 ) ) ;
#1195 = LINE ( 'NONE', #660, #1321 ) ;
#1196 = CARTESIAN_POINT ( 'NONE',  ( -0.9000000000000032419, 19.99999999999999645, 9.000000000000001776 ) ) ;
#1197 = EDGE_CURVE ( 'NONE', #751, #1132, #435, .T. ) ;
#1198 = ORIENTED_EDGE ( 'NONE', *, *, #1197, .T. ) ;
#1199 = DIRECTION ( 'NONE',  ( 0.000000000000000000, 0.000000000000000000, 1.000000000000000000 ) ) ;
#1200 = EDGE_CURVE ( 'NONE', #506, #67, #1279, .T. ) ;
#1201 = VECTOR ( 'NONE', #1324, 1000.000000000000000 ) ;
#1202 = DIRECTION ( 'NONE',  ( 1.000000000000000000, 0.000000000000000000, 0.000000000000000000 ) ) ;
#1203 = ORIENTED_EDGE ( 'NONE', *, *, #1155, .T. ) ;
#1204 = FACE_OUTER_BOUND ( 'NONE', #639, .T. ) ;
#1205 = CARTESIAN_POINT ( 'NONE',  ( -9.199999999999999289, 2.000000000000000000, 31.20000000000000284 ) ) ;
#1206 = AXIS2_PLACEMENT_3D ( 'NONE', #846, #13, #736 ) ;
#1207 = DIRECTION ( 'NONE',  ( 0.000000000000000000, 0.000000000000000000, 1.000000000000000000 ) ) ;
#1208 = AXIS2_PLACEMENT_3D ( 'NONE', #331, #1268, #1160 ) ;
#1209 = CIRCLE ( 'NONE', #74, 2.299999999999999822 ) ;
#1210 = EDGE_LOOP ( 'NONE', ( #1152, #732, #575, #554 ) ) ;
#1211 = DIRECTION ( 'NONE',  ( 0.000000000000000000, 0.000000000000000000, 1.000000000000000000 ) ) ;
#1212 = DIRECTION ( 'NONE',  ( 1.000000000000000000, 0.000000000000000000, -0.000000000000000000 ) ) ;
#1213 = VECTOR ( 'NONE', #485, 1000.000000000000000 ) ;
#1214 = ORIENTED_EDGE ( 'NONE', *, *, #294, .F. ) ;
#1215 = EDGE_CURVE ( 'NONE', #1056, #233, #1173, .T. ) ;
#1216 = FACE_BOUND ( 'NONE', #900, .T. ) ;
#1217 = ORIENTED_EDGE ( 'NONE', *, *, #1033, .T. ) ;
#1218 = LINE ( 'NONE', #145, #924 ) ;
#1219 = VERTEX_POINT ( 'NONE', #32 ) ;
#1220 = AXIS2_PLACEMENT_3D ( 'NONE', #1330, #123, #371 ) ;
#1221 = ORIENTED_EDGE ( 'NONE', *, *, #1316, .T. ) ;
#1222 = CARTESIAN_POINT ( 'NONE',  ( -4.500000000000002665, 19.99999999999999645, 6.000000000000000000 ) ) ;
#1223 = FACE_OUTER_BOUND ( 'NONE', #269, .T. ) ;
#1224 = ORIENTED_EDGE ( 'NONE', *, *, #953, .F. ) ;
#1225 = PRODUCT_RELATED_PRODUCT_CATEGORY ( 'part', '', ( #453 ) ) ;
#1226 = CARTESIAN_POINT ( 'NONE',  ( -8.100000000000001421, 11.75136374907948600, 8.000000000000000000 ) ) ;
#1227 = ADVANCED_FACE ( 'NONE', ( #454 ), #992, .F. ) ;
#1228 = DIRECTION ( 'NONE',  ( 0.000000000000000000, -1.000000000000000000, 0.000000000000000000 ) ) ;
#1229 =( LENGTH_UNIT ( ) NAMED_UNIT ( * ) SI_UNIT ( .MILLI., .METRE. ) );
#1230 = VECTOR ( 'NONE', #300, 1000.000000000000000 ) ;
#1231 = DIRECTION ( 'NONE',  ( 0.000000000000000000, 0.000000000000000000, 1.000000000000000000 ) ) ;
#1232 = VERTEX_POINT ( 'NONE', #30 ) ;
#1233 = CARTESIAN_POINT ( 'NONE',  ( -6.000000000000000000, 0.000000000000000000, -25.50000000000000000 ) ) ;
#1234 = CARTESIAN_POINT ( 'NONE',  ( -8.100000000000001421, 11.75136374907948600, -6.000000000000000000 ) ) ;
#1235 = ORIENTED_EDGE ( 'NONE', *, *, #615, .T. ) ;
#1236 = LINE ( 'NONE', #1226, #1147 ) ;
#1237 = AXIS2_PLACEMENT_3D ( 'NONE', #889, #1308, #350 ) ;
#1238 = CARTESIAN_POINT ( 'NONE',  ( 11.50000000000000000, 0.000000000000000000, 6.000000000000000000 ) ) ;
#1239 = EDGE_LOOP ( 'NONE', ( #578, #772 ) ) ;
#1240 = DIRECTION ( 'NONE',  ( -0.000000000000000000, -0.000000000000000000, -1.000000000000000000 ) ) ;
#1241 = ADVANCED_FACE ( 'NONE', ( #668 ), #767, .T. ) ;
#1242 = ORIENTED_EDGE ( 'NONE', *, *, #515, .T. ) ;
#1243 = CARTESIAN_POINT ( 'NONE',  ( -11.50000000000000000, 2.000000000000000000, -33.50000000000000000 ) ) ;
#1244 = DIRECTION ( 'NONE',  ( 0.000000000000000000, 1.000000000000000000, -0.000000000000000000 ) ) ;
#1245 = ORIENTED_EDGE ( 'NONE', *, *, #1075, .T. ) ;
#1246 = CARTESIAN_POINT ( 'NONE',  ( 3.973803242064763985, 23.03226954850201480, -6.000000000000000000 ) ) ;
#1247 = VECTOR ( 'NONE', #87, 1000.000000000000000 ) ;
#1248 = CARTESIAN_POINT ( 'NONE',  ( -6.000000000000000000, 2.000000000000000000, -28.24999999999999645 ) ) ;
#1249 = CARTESIAN_POINT ( 'NONE',  ( 9.199999999999999289, 2.000000000000000000, 33.50000000000000000 ) ) ;
#1250 = EDGE_LOOP ( 'NONE', ( #819, #152 ) ) ;
#1251 = CARTESIAN_POINT ( 'NONE',  ( 3.973803242064763985, 23.03226954850201480, 6.000000000000000000 ) ) ;
#1252 = AXIS2_PLACEMENT_3D ( 'NONE', #1358, #270, #722 ) ;
#1253 = VERTEX_POINT ( 'NONE', #1193 ) ;
#1254 = DIRECTION ( 'NONE',  ( 1.000000000000000000, 0.000000000000000000, 0.000000000000000000 ) ) ;
#1255 = DIRECTION ( 'NONE',  ( 0.000000000000000000, 0.000000000000000000, 1.000000000000000000 ) ) ;
#1256 = ADVANCED_FACE ( 'NONE', ( #979 ), #655, .F. ) ;
#1257 = EDGE_CURVE ( 'NONE', #301, #749, #1014, .T. ) ;
#1258 = CIRCLE ( 'NONE', #122, 3.599999999999999201 ) ;
#1259 = COLOUR_RGB ( '',1.000000000000000000, 1.000000000000000000, 1.000000000000000000 ) ;
#1260 = ORIENTED_EDGE ( 'NONE', *, *, #364, .F. ) ;
#1261 = DIRECTION ( 'NONE',  ( -0.9415336935627519610, -0.3369188387224464343, 0.000000000000000000 ) ) ;
#1262 = VERTEX_POINT ( 'NONE', #336 ) ;
#1263 = DIRECTION ( 'NONE',  ( -0.000000000000000000, -0.000000000000000000, 1.000000000000000000 ) ) ;
#1264 = DIRECTION ( 'NONE',  ( 2.952378146089967439E-16, -1.000000000000000000, 0.000000000000000000 ) ) ;
#1265 = EDGE_LOOP ( 'NONE', ( #734, #7, #83, #176 ) ) ;
#1266 = DIRECTION ( 'NONE',  ( 0.000000000000000000, 0.000000000000000000, 1.000000000000000000 ) ) ;
#1267 = ORIENTED_EDGE ( 'NONE', *, *, #410, .F. ) ;
#1268 = DIRECTION ( 'NONE',  ( 0.000000000000000000, 0.000000000000000000, 1.000000000000000000 ) ) ;
#1269 = CARTESIAN_POINT ( 'NONE',  ( 3.973803242064763985, 23.03226954850201480, -6.000000000000000000 ) ) ;
#1270 = ADVANCED_FACE ( 'NONE', ( #555 ), #882, .T. ) ;
#1271 = CARTESIAN_POINT ( 'NONE',  ( -4.500000000000002665, 19.99999999999999645, -6.000000000000000000 ) ) ;
#1272 = VERTEX_POINT ( 'NONE', #227 ) ;
#1273 = CARTESIAN_POINT ( 'NONE',  ( -11.50000000000000000, 0.000000000000000000, -8.300000000000002487 ) ) ;
#1274 = ADVANCED_FACE ( 'NONE', ( #345 ), #1292, .F. ) ;
#1275 = EDGE_LOOP ( 'NONE', ( #458, #89 ) ) ;
#1276 = CARTESIAN_POINT ( 'NONE',  ( -0.9000000000000032419, 19.99999999999999645, -9.000000000000001776 ) ) ;
#1277 = VECTOR ( 'NONE', #113, 1000.000000000000000 ) ;
#1278 = CARTESIAN_POINT ( 'NONE',  ( -4.500000000000002665, 19.99999999999999645, -6.000000000000000000 ) ) ;
#1279 = LINE ( 'NONE', #217, #387 ) ;
#1280 = ORIENTED_EDGE ( 'NONE', *, *, #1289, .F. ) ;
#1281 = CARTESIAN_POINT ( 'NONE',  ( -11.50000000000000000, 2.000000000000000000, -33.50000000000000000 ) ) ;
#1282 = AXIS2_PLACEMENT_3D ( 'NONE', #172, #595, #64 ) ;
#1283 = EDGE_LOOP ( 'NONE', ( #18, #608, #860, #406 ) ) ;
#1284 = EDGE_CURVE ( 'NONE', #273, #1325, #439, .T. ) ;
#1285 = DIRECTION ( 'NONE',  ( 1.000000000000000000, 0.000000000000000000, -0.000000000000000000 ) ) ;
#1286 = CARTESIAN_POINT ( 'NONE',  ( -5.999999999999994671, 0.000000000000000000, 25.50000000000000000 ) ) ;
#1287 = DIRECTION ( 'NONE',  ( 0.000000000000000000, 0.000000000000000000, 1.000000000000000000 ) ) ;
#1288 = CARTESIAN_POINT ( 'NONE',  ( -11.50000000000000000, 0.000000000000000000, -33.50000000000000000 ) ) ;
#1289 = EDGE_CURVE ( 'NONE', #619, #419, #745, .T. ) ;
#1290 = DIRECTION ( 'NONE',  ( 0.000000000000000000, 0.000000000000000000, 1.000000000000000000 ) ) ;
#1291 = ORIENTED_EDGE ( 'NONE', *, *, #1323, .T. ) ;
#1292 = CYLINDRICAL_SURFACE ( 'NONE', #1346, 2.749999999999999112 ) ;
#1293 = CARTESIAN_POINT ( 'NONE',  ( 9.199999999999999289, 2.000000000000000000, -33.50000000000000000 ) ) ;
#1294 = LINE ( 'NONE', #1090, #863 ) ;
#1295 = DIRECTION ( 'NONE',  ( -0.000000000000000000, 1.000000000000000000, -0.000000000000000000 ) ) ;
#1296 = ORIENTED_EDGE ( 'NONE', *, *, #1200, .T. ) ;
#1297 = DIRECTION ( 'NONE',  ( 0.000000000000000000, -1.000000000000000000, 0.000000000000000000 ) ) ;
#1298 = DIRECTION ( 'NONE',  ( -1.000000000000000000, 0.000000000000000000, 0.000000000000000000 ) ) ;
#1299 = FILL_AREA_STYLE_COLOUR ( '', #1259 ) ;
#1300 = EDGE_CURVE ( 'NONE', #419, #619, #456, .T. ) ;
#1301 = ADVANCED_FACE ( 'NONE', ( #778, #1204 ), #246, .F. ) ;
#1302 = CARTESIAN_POINT ( 'NONE',  ( -9.199999999999999289, 0.000000000000000000, -33.50000000000000000 ) ) ;
#1303 = AXIS2_PLACEMENT_3D ( 'NONE', #759, #1083, #138 ) ;
#1304 = VERTEX_POINT ( 'NONE', #1117 ) ;
#1305 = DIRECTION ( 'NONE',  ( 0.000000000000000000, 0.000000000000000000, 1.000000000000000000 ) ) ;
#1306 = LINE ( 'NONE', #776, #897 ) ;
#1307 = EDGE_LOOP ( 'NONE', ( #240, #1150, #1009, #958 ) ) ;
#1308 = DIRECTION ( 'NONE',  ( 0.000000000000000000, 1.000000000000000000, -0.000000000000000000 ) ) ;
#1309 = CARTESIAN_POINT ( 'NONE',  ( -9.199999999999999289, 0.000000000000000000, 33.50000000000000000 ) ) ;
#1310 = ADVANCED_FACE ( 'NONE', ( #1130 ), #463, .F. ) ;
#1311 = AXIS2_PLACEMENT_3D ( 'NONE', #161, #1024, #807 ) ;
#1312 = AXIS2_PLACEMENT_3D ( 'NONE', #28, #448, #880 ) ;
#1313 = ORIENTED_EDGE ( 'NONE', *, *, #39, .T. ) ;
#1314 =( LENGTH_UNIT ( ) NAMED_UNIT ( * ) SI_UNIT ( .MILLI., .METRE. ) );
#1315 = LINE ( 'NONE', #883, #499 ) ;
#1316 = EDGE_CURVE ( 'NONE', #1219, #1232, #146, .T. ) ;
#1317 = EDGE_LOOP ( 'NONE', ( #623, #1121, #112, #950 ) ) ;
#1318 = AXIS2_PLACEMENT_3D ( 'NONE', #202, #100, #1287 ) ;
#1319 = ORIENTED_EDGE ( 'NONE', *, *, #125, .F. ) ;
#1320 = FACE_OUTER_BOUND ( 'NONE', #724, .T. ) ;
#1321 = VECTOR ( 'NONE', #636, 1000.000000000000000 ) ;
#1322 = VERTEX_POINT ( 'NONE', #1019 ) ;
#1323 = EDGE_CURVE ( 'NONE', #1186, #212, #360, .T. ) ;
#1324 = DIRECTION ( 'NONE',  ( 1.000000000000000000, -0.000000000000000000, -0.000000000000000000 ) ) ;
#1325 = VERTEX_POINT ( 'NONE', #580 ) ;
#1326 = CARTESIAN_POINT ( 'NONE',  ( -5.999999999999994671, 0.000000000000000000, 28.24999999999999645 ) ) ;
#1327 = EDGE_CURVE ( 'NONE', #1003, #57, #150, .T. ) ;
#1328 = ORIENTED_EDGE ( 'NONE', *, *, #248, .T. ) ;
#1329 = DIRECTION ( 'NONE',  ( 0.000000000000000000, 0.000000000000000000, 1.000000000000000000 ) ) ;
#1330 = CARTESIAN_POINT ( 'NONE',  ( -9.199999999999999289, 0.000000000000000000, 31.20000000000000284 ) ) ;
#1331 = AXIS2_PLACEMENT_3D ( 'NONE', #244, #1228, #874 ) ;
#1332 = EDGE_LOOP ( 'NONE', ( #149, #520, #1006, #829 ) ) ;
#1333 = SURFACE_STYLE_USAGE ( .BOTH. , #484 ) ;
#1334 = DIRECTION ( 'NONE',  ( 0.000000000000000000, 0.000000000000000000, 1.000000000000000000 ) ) ;
#1335 = ORIENTED_EDGE ( 'NONE', *, *, #262, .T. ) ;
#1336 = DIRECTION ( 'NONE',  ( -0.000000000000000000, 1.000000000000000000, -0.000000000000000000 ) ) ;
#1337 = CARTESIAN_POINT ( 'NONE',  ( -4.500000000000002665, 19.99999999999999645, 8.000000000000000000 ) ) ;
#1338 = EDGE_CURVE ( 'NONE', #1108, #1112, #280, .T. ) ;
#1339 = CYLINDRICAL_SURFACE ( 'NONE', #873, 3.000000000000000000 ) ;
#1340 = EDGE_LOOP ( 'NONE', ( #94, #1137 ) ) ;
#1341 = CARTESIAN_POINT ( 'NONE',  ( -4.500000000000002665, 19.99999999999999645, 8.000000000000000000 ) ) ;
#1342 = DIRECTION ( 'NONE',  ( 2.952378146089967439E-16, -1.000000000000000000, 0.000000000000000000 ) ) ;
#1343 = ORIENTED_EDGE ( 'NONE', *, *, #1156, .F. ) ;
#1344 = DIRECTION ( 'NONE',  ( 0.000000000000000000, -0.000000000000000000, 1.000000000000000000 ) ) ;
#1345 = EDGE_CURVE ( 'NONE', #273, #922, #157, .T. ) ;
#1346 = AXIS2_PLACEMENT_3D ( 'NONE', #36, #995, #773 ) ;
#1347 = CARTESIAN_POINT ( 'NONE',  ( -1.500000000000002220, 19.99999999999999645, 16.48528137423856776 ) ) ;
#1348 = AXIS2_PLACEMENT_3D ( 'NONE', #466, #1207, #155 ) ;
#1349 = ORIENTED_EDGE ( 'NONE', *, *, #340, .T. ) ;
#1350 = LINE ( 'NONE', #478, #359 ) ;
#1351 = CARTESIAN_POINT ( 'NONE',  ( 11.50000000000000000, 2.000000000000000000, -6.000000000000000000 ) ) ;
#1352 = DIRECTION ( 'NONE',  ( 0.000000000000000000, 0.000000000000000000, 1.000000000000000000 ) ) ;
#1353 = EDGE_LOOP ( 'NONE', ( #187, #118, #957, #989 ) ) ;
#1354 = DIRECTION ( 'NONE',  ( -0.000000000000000000, 1.000000000000000000, -0.000000000000000000 ) ) ;
#1355 = AXIS2_PLACEMENT_3D ( 'NONE', #1002, #44, #903 ) ;
#1356 = ORIENTED_EDGE ( 'NONE', *, *, #348, .T. ) ;
#1357 = EDGE_CURVE ( 'NONE', #700, #1253, #981, .T. ) ;
#1358 = CARTESIAN_POINT ( 'NONE',  ( 6.000000000000005329, 0.000000000000000000, 25.50000000000000000 ) ) ;
#1359 = LINE ( 'NONE', #917, #1230 ) ;
#1360 = EDGE_LOOP ( 'NONE', ( #75, #1043 ) ) ;
#1361 = CARTESIAN_POINT ( 'NONE',  ( -11.50000000000000000, 2.000000000000000000, 31.20000000000000639 ) ) ;
#1362 = AXIS2_PLACEMENT_3D ( 'NONE', #723, #1154, #518 ) ;
#1363 = ORIENTED_EDGE ( 'NONE', *, *, #586, .T. ) ;
#1364 = PLANE ( 'NONE',  #738 ) ;
#1365 = CARTESIAN_POINT ( 'NONE',  ( -11.50000000000000000, 0.000000000000000000, 31.20000000000000639 ) ) ;
#1366 = VECTOR ( 'NONE', #690, 1000.000000000000000 ) ;
#1367 = VECTOR ( 'NONE', #705, 1000.000000000000000 ) ;
#1368 = ORIENTED_EDGE ( 'NONE', *, *, #24, .F. ) ;
#1369 = LINE ( 'NONE', #314, #1031 ) ;
#1370 = PRODUCT_DEFINITION ( 'Î´Öª', '', #1107, #891 ) ;
#1371 = ORIENTED_EDGE ( 'NONE', *, *, #236, .T. ) ;
#1372 = CARTESIAN_POINT ( 'NONE',  ( -11.50000000000000000, 2.000000000000000000, 33.50000000000000000 ) ) ;
#1373 = DIRECTION ( 'NONE',  ( 1.000000000000000000, 0.000000000000000000, 0.000000000000000000 ) ) ;
#1374 = EDGE_LOOP ( 'NONE', ( #1116, #315, #422, #648 ) ) ;
#1375 = DIRECTION ( 'NONE',  ( -0.3369188387224464343, 0.9415336935627519610, -0.000000000000000000 ) ) ;
ENDSEC;
END-ISO-10303-21;
