ISO-10303-21;
HEADER;
FILE_DESCRIPTION (( 'STEP AP214' ),
    '1' );
FILE_NAME ('T型螺母[AENT20-4].step',
    '2023-08-15T03:02:34',
    ( '' ),
    ( '' ),
    'SwSTEP 2.0',
    'SolidWorks 2022',
    '' );
FILE_SCHEMA (( 'AUTOMOTIVE_DESIGN' ));
ENDSEC;

DATA;
#1 = ORIENTED_EDGE ( 'NONE', *, *, #172, .T. ) ;
#2 = VECTOR ( 'NONE', #380, 1000.000000000000000 ) ;
#3 = VECTOR ( 'NONE', #451, 1000.000000000000000 ) ;
#4 = EDGE_CURVE ( 'NONE', #178, #50, #142, .T. ) ;
#5 = CARTESIAN_POINT ( 'NONE',  ( -6.505213034913029562E-16, 4.336808689942019708E-16, 0.000000000000000000 ) ) ;
#6 = FACE_OUTER_BOUND ( 'NONE', #569, .T. ) ;
#7 = CARTESIAN_POINT ( 'NONE',  ( 3.000000000000000000, 5.250000000000000000, 0.000000000000000000 ) ) ;
#8 = DIRECTION ( 'NONE',  ( 0.000000000000000000, 0.000000000000000000, -1.000000000000000000 ) ) ;
#9 = VERTEX_POINT ( 'NONE', #203 ) ;
#10 = PRODUCT_DEFINITION_SHAPE ( 'NONE', 'NONE',  #444 ) ;
#11 = EDGE_LOOP ( 'NONE', ( #318, #132, #186, #27, #360, #373 ) ) ;
#12 = AXIS2_PLACEMENT_3D ( 'NONE', #131, #278, #330 ) ;
#13 = CARTESIAN_POINT ( 'NONE',  ( 3.000000000000000000, 3.000000000000000000, 3.299999999999999822 ) ) ;
#14 = ORIENTED_EDGE ( 'NONE', *, *, #336, .F. ) ;
#15 = CARTESIAN_POINT ( 'NONE',  ( 3.000000000000000000, 2.500000000000000000, -1.000000000000000000 ) ) ;
#16 = VERTEX_POINT ( 'NONE', #470 ) ;
#17 = LINE ( 'NONE', #531, #303 ) ;
#18 =( LENGTH_UNIT ( ) NAMED_UNIT ( * ) SI_UNIT ( .MILLI., .METRE. ) );
#19 = ADVANCED_FACE ( 'NONE', ( #47 ), #517, .F. ) ;
#20 = APPLICATION_CONTEXT ( 'automotive_design' ) ;
#21 = EDGE_CURVE ( 'NONE', #254, #223, #475, .T. ) ;
#22 = VECTOR ( 'NONE', #255, 1000.000000000000000 ) ;
#23 = LINE ( 'NONE', #447, #3 ) ;
#24 = ADVANCED_FACE ( 'NONE', ( #6 ), #198, .T. ) ;
#25 = CARTESIAN_POINT ( 'NONE',  ( 3.000000000000000000, -5.250000000000000000, 0.000000000000000000 ) ) ;
#26 = CARTESIAN_POINT ( 'NONE',  ( 2.500000000000000000, 2.500000000000000000, -1.000000000000000000 ) ) ;
#27 = ORIENTED_EDGE ( 'NONE', *, *, #431, .F. ) ;
#28 = EDGE_CURVE ( 'NONE', #201, #274, #519, .T. ) ;
#29 = DIRECTION ( 'NONE',  ( 1.000000000000000000, 0.000000000000000000, 0.000000000000000000 ) ) ;
#30 = VECTOR ( 'NONE', #319, 1000.000000000000000 ) ;
#31 = AXIS2_PLACEMENT_3D ( 'NONE', #232, #463, #558 ) ;
#32 = ORIENTED_EDGE ( 'NONE', *, *, #82, .T. ) ;
#33 = CARTESIAN_POINT ( 'NONE',  ( -3.000000000000000000, 0.000000000000000000, -1.000000000000000000 ) ) ;
#34 = VERTEX_POINT ( 'NONE', #206 ) ;
#35 = ORIENTED_EDGE ( 'NONE', *, *, #267, .F. ) ;
#36 = CARTESIAN_POINT ( 'NONE',  ( 3.000000000000000000, 3.000000000000000000, 3.299999999999999822 ) ) ;
#37 = ORIENTED_EDGE ( 'NONE', *, *, #431, .T. ) ;
#38 = VERTEX_POINT ( 'NONE', #539 ) ;
#39 = DIRECTION ( 'NONE',  ( 0.000000000000000000, 1.000000000000000000, 0.000000000000000000 ) ) ;
#40 = DIRECTION ( 'NONE',  ( 0.000000000000000000, 0.000000000000000000, 1.000000000000000000 ) ) ;
#41 = VERTEX_POINT ( 'NONE', #69 ) ;
#42 = LINE ( 'NONE', #141, #344 ) ;
#43 = VERTEX_POINT ( 'NONE', #493 ) ;
#44 = LINE ( 'NONE', #513, #220 ) ;
#45 = ADVANCED_FACE ( 'NONE', ( #64 ), #72, .F. ) ;
#46 = EDGE_CURVE ( 'NONE', #297, #324, #579, .T. ) ;
#47 = FACE_OUTER_BOUND ( 'NONE', #403, .T. ) ;
#48 = DIRECTION ( 'NONE',  ( 0.000000000000000000, 0.000000000000000000, 1.000000000000000000 ) ) ;
#49 = VECTOR ( 'NONE', #139, 1000.000000000000000 ) ;
#50 = VERTEX_POINT ( 'NONE', #393 ) ;
#51 = DIRECTION ( 'NONE',  ( 0.000000000000000000, 0.000000000000000000, 1.000000000000000000 ) ) ;
#52 = ORIENTED_EDGE ( 'NONE', *, *, #225, .T. ) ;
#53 = CIRCLE ( 'NONE', #512, 3.000000000000000000 ) ;
#54 = VECTOR ( 'NONE', #119, 1000.000000000000000 ) ;
#55 = VERTEX_POINT ( 'NONE', #347 ) ;
#56 = AXIS2_PLACEMENT_3D ( 'NONE', #529, #152, #156 ) ;
#57 = LINE ( 'NONE', #390, #535 ) ;
#58 = VERTEX_POINT ( 'NONE', #533 ) ;
#59 = ORIENTED_EDGE ( 'NONE', *, *, #267, .T. ) ;
#60 = DIRECTION ( 'NONE',  ( 0.000000000000000000, 1.000000000000000000, 0.000000000000000000 ) ) ;
#61 = AXIS2_PLACEMENT_3D ( 'NONE', #170, #495, #358 ) ;
#62 = EDGE_CURVE ( 'NONE', #460, #124, #17, .T. ) ;
#63 = EDGE_CURVE ( 'NONE', #612, #85, #563, .T. ) ;
#64 = FACE_OUTER_BOUND ( 'NONE', #414, .T. ) ;
#65 =( NAMED_UNIT ( * ) SI_UNIT ( $, .STERADIAN. ) SOLID_ANGLE_UNIT ( ) );
#66 =( GEOMETRIC_REPRESENTATION_CONTEXT ( 3 ) GLOBAL_UNCERTAINTY_ASSIGNED_CONTEXT ( ( #122 ) ) GLOBAL_UNIT_ASSIGNED_CONTEXT ( ( #18, #491, #65 ) ) REPRESENTATION_CONTEXT ( 'NONE', 'WORKASPACE' ) );
#67 = EDGE_LOOP ( 'NONE', ( #59, #494, #562, #37 ) ) ;
#68 = EDGE_LOOP ( 'NONE', ( #498, #504, #546, #439 ) ) ;
#69 = CARTESIAN_POINT ( 'NONE',  ( -3.000000000000000000, 3.000000000000000000, 3.299999999999999822 ) ) ;
#70 = VECTOR ( 'NONE', #140, 1000.000000000000000 ) ;
#71 = VECTOR ( 'NONE', #143, 1000.000000000000000 ) ;
#72 = PLANE ( 'NONE',  #565 ) ;
#73 = ORIENTED_EDGE ( 'NONE', *, *, #165, .T. ) ;
#74 = CARTESIAN_POINT ( 'NONE',  ( 1.620999999999999996, -1.985152461417859467E-16, -1.000000000000000000 ) ) ;
#75 = COLOUR_RGB ( '',0.6862745098039215730, 0.6862745098039215730, 0.6862745098039215730 ) ;
#76 = CLOSED_SHELL ( 'NONE', ( #299, #123, #410, #262, #587, #309, #537, #197, #24, #260, #496, #593, #158, #501, #45, #19, #394, #243 ) ) ;
#77 = FACE_OUTER_BOUND ( 'NONE', #266, .T. ) ;
#78 = ORIENTED_EDGE ( 'NONE', *, *, #219, .T. ) ;
#79 = CARTESIAN_POINT ( 'NONE',  ( -3.000000000000000000, -3.000000000000000000, 3.299999999999999822 ) ) ;
#80 = VECTOR ( 'NONE', #454, 999.9999999999998863 ) ;
#81 = DIRECTION ( 'NONE',  ( 0.000000000000000000, -1.000000000000000000, 0.000000000000000000 ) ) ;
#82 = EDGE_CURVE ( 'NONE', #612, #460, #162, .T. ) ;
#83 = ORIENTED_EDGE ( 'NONE', *, *, #352, .T. ) ;
#84 = LINE ( 'NONE', #315, #245 ) ;
#85 = VERTEX_POINT ( 'NONE', #510 ) ;
#86 = CIRCLE ( 'NONE', #228, 0.5000000000000000000 ) ;
#87 = PRODUCT_CONTEXT ( 'NONE', #577, 'mechanical' ) ;
#88 = CARTESIAN_POINT ( 'NONE',  ( 3.000000000000000000, -5.250000000000000000, 1.000000000000000000 ) ) ;
#89 = CARTESIAN_POINT ( 'NONE',  ( -3.000000000000000000, 5.250000000000000000, 1.000000000000000000 ) ) ;
#90 = CARTESIAN_POINT ( 'NONE',  ( 3.000000000000000000, 0.000000000000000000, 0.000000000000000000 ) ) ;
#91 = FILL_AREA_STYLE ('',( #415 ) ) ;
#92 = EDGE_CURVE ( 'NONE', #542, #58, #118, .T. ) ;
#93 = CARTESIAN_POINT ( 'NONE',  ( -2.500000000000000000, -3.000000000000000000, 0.000000000000000000 ) ) ;
#94 = VECTOR ( 'NONE', #296, 999.9999999999998863 ) ;
#95 = DIRECTION ( 'NONE',  ( 0.000000000000000000, 0.000000000000000000, 1.000000000000000000 ) ) ;
#96 = CARTESIAN_POINT ( 'NONE',  ( -3.000000000000000000, -5.250000000000000000, 1.000000000000000000 ) ) ;
#97 = LINE ( 'NONE', #472, #94 ) ;
#98 = ORIENTED_EDGE ( 'NONE', *, *, #522, .F. ) ;
#99 = CARTESIAN_POINT ( 'NONE',  ( 3.000000000000000000, 3.000000000000000000, 3.299999999999999822 ) ) ;
#100 = DIRECTION ( 'NONE',  ( 0.000000000000000000, -0.7148340255851471925, -0.6992941554637311929 ) ) ;
#101 = DIRECTION ( 'NONE',  ( 0.000000000000000000, 0.000000000000000000, 1.000000000000000000 ) ) ;
#102 = CARTESIAN_POINT ( 'NONE',  ( -6.505213034913029562E-16, 4.336808689942019708E-16, -1.000000000000000000 ) ) ;
#103 = AXIS2_PLACEMENT_3D ( 'NONE', #502, #81, #264 ) ;
#104 = DIRECTION ( 'NONE',  ( 0.000000000000000000, -1.000000000000000000, 0.000000000000000000 ) ) ;
#105 = FACE_BOUND ( 'NONE', #591, .T. ) ;
#106 = ORIENTED_EDGE ( 'NONE', *, *, #82, .F. ) ;
#107 = FILL_AREA_STYLE_COLOUR ( '', #75 ) ;
#108 = PRESENTATION_STYLE_ASSIGNMENT (( #532 ) ) ;
#109 = EDGE_CURVE ( 'NONE', #485, #605, #53, .T. ) ;
#110 = VECTOR ( 'NONE', #259, 1000.000000000000000 ) ;
#111 = VERTEX_POINT ( 'NONE', #36 ) ;
#112 = CARTESIAN_POINT ( 'NONE',  ( 3.000000000000000000, -5.250000000000000000, 0.000000000000000000 ) ) ;
#113 = CARTESIAN_POINT ( 'NONE',  ( -2.500000000000000000, -3.000000000000000000, -1.000000000000000000 ) ) ;
#114 = ORIENTED_EDGE ( 'NONE', *, *, #161, .F. ) ;
#115 = CYLINDRICAL_SURFACE ( 'NONE', #505, 0.5000000000000000000 ) ;
#116 = DIRECTION ( 'NONE',  ( 0.000000000000000000, 0.000000000000000000, 1.000000000000000000 ) ) ;
#117 = ORIENTED_EDGE ( 'NONE', *, *, #62, .T. ) ;
#118 = LINE ( 'NONE', #133, #291 ) ;
#119 = DIRECTION ( 'NONE',  ( 0.000000000000000000, -1.000000000000000000, 0.000000000000000000 ) ) ;
#120 = ORIENTED_EDGE ( 'NONE', *, *, #211, .F. ) ;
#121 = FACE_OUTER_BOUND ( 'NONE', #462, .T. ) ;
#122 = UNCERTAINTY_MEASURE_WITH_UNIT (LENGTH_MEASURE( 1.000000000000000082E-05 ), #18, 'distance_accuracy_value', 'NONE');
#123 = ADVANCED_FACE ( 'NONE', ( #121 ), #461, .F. ) ;
#124 = VERTEX_POINT ( 'NONE', #364 ) ;
#125 = PLANE ( 'NONE',  #103 ) ;
#126 = ORIENTED_EDGE ( 'NONE', *, *, #63, .T. ) ;
#127 = VECTOR ( 'NONE', #398, 1000.000000000000000 ) ;
#128 = VECTOR ( 'NONE', #348, 1000.000000000000000 ) ;
#129 = EDGE_CURVE ( 'NONE', #605, #418, #273, .T. ) ;
#130 = ORIENTED_EDGE ( 'NONE', *, *, #334, .F. ) ;
#131 = CARTESIAN_POINT ( 'NONE',  ( -2.500000000000000000, -2.500000000000000000, 0.000000000000000000 ) ) ;
#132 = ORIENTED_EDGE ( 'NONE', *, *, #516, .T. ) ;
#133 = CARTESIAN_POINT ( 'NONE',  ( -2.500000000000000000, -3.000000000000000000, -1.000000000000000000 ) ) ;
#134 = ORIENTED_EDGE ( 'NONE', *, *, #216, .F. ) ;
#135 = STYLED_ITEM ( 'NONE', ( #108 ), #362 ) ;
#136 = SURFACE_STYLE_FILL_AREA ( #91 ) ;
#137 = CARTESIAN_POINT ( 'NONE',  ( 0.000000000000000000, 0.000000000000000000, -500.0000000000000000 ) ) ;
#138 = AXIS2_PLACEMENT_3D ( 'NONE', #322, #592, #507 ) ;
#139 = DIRECTION ( 'NONE',  ( -1.000000000000000000, 0.000000000000000000, 0.000000000000000000 ) ) ;
#140 = DIRECTION ( 'NONE',  ( 0.000000000000000000, 0.000000000000000000, 1.000000000000000000 ) ) ;
#141 = CARTESIAN_POINT ( 'NONE',  ( -3.000000000000000000, 5.250000000000000000, 1.000000000000000000 ) ) ;
#142 = LINE ( 'NONE', #332, #422 ) ;
#143 = DIRECTION ( 'NONE',  ( 0.000000000000000000, 0.000000000000000000, 1.000000000000000000 ) ) ;
#144 = DIRECTION ( 'NONE',  ( -0.000000000000000000, 1.000000000000000000, 0.000000000000000000 ) ) ;
#145 = MECHANICAL_DESIGN_GEOMETRIC_PRESENTATION_REPRESENTATION (  '', ( #135 ), #213 ) ;
#146 = EDGE_CURVE ( 'NONE', #16, #55, #603, .T. ) ;
#147 = CARTESIAN_POINT ( 'NONE',  ( 3.000000000000000000, 5.250000000000000000, 1.000000000000000000 ) ) ;
#148 = CARTESIAN_POINT ( 'NONE',  ( 3.000000000000000000, -5.250000000000000000, 1.000000000000000000 ) ) ;
#149 = DIRECTION ( 'NONE',  ( 1.000000000000000000, 0.000000000000000000, 0.000000000000000000 ) ) ;
#150 = ORIENTED_EDGE ( 'NONE', *, *, #46, .T. ) ;
#151 = AXIS2_PLACEMENT_3D ( 'NONE', #99, #379, #423 ) ;
#152 = DIRECTION ( 'NONE',  ( 0.000000000000000000, 0.000000000000000000, 1.000000000000000000 ) ) ;
#153 = CARTESIAN_POINT ( 'NONE',  ( 3.000000000000000000, 5.250000000000000000, 0.000000000000000000 ) ) ;
#154 = PRESENTATION_LAYER_ASSIGNMENT (  '', '', ( #416 ) ) ;
#155 = CARTESIAN_POINT ( 'NONE',  ( -2.500000000000000000, -3.000000000000000000, 0.000000000000000000 ) ) ;
#156 = DIRECTION ( 'NONE',  ( 1.000000000000000000, 0.000000000000000000, 0.000000000000000000 ) ) ;
#157 = EDGE_CURVE ( 'NONE', #404, #320, #167, .T. ) ;
#158 = ADVANCED_FACE ( 'NONE', ( #311 ), #499, .F. ) ;
#159 = DIRECTION ( 'NONE',  ( -1.000000000000000000, 0.000000000000000000, 0.000000000000000000 ) ) ;
#160 = LINE ( 'NONE', #287, #321 ) ;
#161 = EDGE_CURVE ( 'NONE', #460, #599, #402, .T. ) ;
#162 = LINE ( 'NONE', #413, #30 ) ;
#163 = CIRCLE ( 'NONE', #205, 3.000000000000000000 ) ;
#164 = DIRECTION ( 'NONE',  ( -1.000000000000000000, 0.000000000000000000, 0.000000000000000000 ) ) ;
#165 = EDGE_CURVE ( 'NONE', #169, #550, #408, .T. ) ;
#166 = ORIENTED_EDGE ( 'NONE', *, *, #225, .F. ) ;
#167 = LINE ( 'NONE', #543, #477 ) ;
#168 = AXIS2_PLACEMENT_3D ( 'NONE', #520, #144, #276 ) ;
#169 = VERTEX_POINT ( 'NONE', #361 ) ;
#170 = CARTESIAN_POINT ( 'NONE',  ( 3.000000000000000000, 5.250000000000000000, 0.000000000000000000 ) ) ;
#171 = EDGE_LOOP ( 'NONE', ( #489, #338, #314, #230 ) ) ;
#172 = EDGE_CURVE ( 'NONE', #320, #550, #183, .T. ) ;
#173 = ORIENTED_EDGE ( 'NONE', *, *, #202, .F. ) ;
#174 = CARTESIAN_POINT ( 'NONE',  ( 6.505213034913029562E-16, -4.336808689942019708E-16, -1.000000000000000000 ) ) ;
#175 = EDGE_CURVE ( 'NONE', #223, #320, #401, .T. ) ;
#176 = ORIENTED_EDGE ( 'NONE', *, *, #516, .F. ) ;
#177 = DIRECTION ( 'NONE',  ( 0.000000000000000000, -0.6992941554637311929, -0.7148340255851473035 ) ) ;
#178 = VERTEX_POINT ( 'NONE', #74 ) ;
#179 = APPLICATION_PROTOCOL_DEFINITION ( 'draft international standard', 'automotive_design', 1998, #577 ) ;
#180 = CIRCLE ( 'NONE', #438, 1.620999999999999996 ) ;
#181 = AXIS2_PLACEMENT_3D ( 'NONE', #25, #212, #540 ) ;
#182 = ORIENTED_EDGE ( 'NONE', *, *, #584, .F. ) ;
#183 = LINE ( 'NONE', #547, #110 ) ;
#184 = SURFACE_SIDE_STYLE ('',( #136 ) ) ;
#185 = LINE ( 'NONE', #196, #541 ) ;
#186 = ORIENTED_EDGE ( 'NONE', *, *, #216, .T. ) ;
#187 = AXIS2_PLACEMENT_3D ( 'NONE', #581, #609, #600 ) ;
#188 = FACE_OUTER_BOUND ( 'NONE', #554, .T. ) ;
#189 = FACE_BOUND ( 'NONE', #256, .T. ) ;
#190 = CARTESIAN_POINT ( 'NONE',  ( -3.000000000000000000, -2.500000000000000000, -1.000000000000000000 ) ) ;
#191 = ORIENTED_EDGE ( 'NONE', *, *, #613, .T. ) ;
#192 = CYLINDRICAL_SURFACE ( 'NONE', #457, 3.000000000000000000 ) ;
#193 = CIRCLE ( 'NONE', #534, 1.620999999999999996 ) ;
#194 =( GEOMETRIC_REPRESENTATION_CONTEXT ( 3 ) GLOBAL_UNCERTAINTY_ASSIGNED_CONTEXT ( ( #222 ) ) GLOBAL_UNIT_ASSIGNED_CONTEXT ( ( #377, #384, #518 ) ) REPRESENTATION_CONTEXT ( 'NONE', 'WORKASPACE' ) );
#195 = ORIENTED_EDGE ( 'NONE', *, *, #46, .F. ) ;
#196 = CARTESIAN_POINT ( 'NONE',  ( -3.000000000000000000, -5.250000000000000000, 0.000000000000000000 ) ) ;
#197 = ADVANCED_FACE ( 'NONE', ( #545 ), #125, .T. ) ;
#198 = CYLINDRICAL_SURFACE ( 'NONE', #221, 3.000000000000000000 ) ;
#199 = CARTESIAN_POINT ( 'NONE',  ( -3.000000000000000000, 0.000000000000000000, -1.000000000000000000 ) ) ;
#200 = DIRECTION ( 'NONE',  ( 0.000000000000000000, 1.000000000000000000, 0.000000000000000000 ) ) ;
#201 = VERTEX_POINT ( 'NONE', #271 ) ;
#202 = EDGE_CURVE ( 'NONE', #201, #111, #551, .T. ) ;
#203 = CARTESIAN_POINT ( 'NONE',  ( 3.000000000000000000, 4.336808689942019708E-16, -1.000000000000000000 ) ) ;
#204 = DIRECTION ( 'NONE',  ( 1.000000000000000000, 0.000000000000000000, 0.000000000000000000 ) ) ;
#205 = AXIS2_PLACEMENT_3D ( 'NONE', #5, #48, #149 ) ;
#206 = CARTESIAN_POINT ( 'NONE',  ( -3.000000000000000000, -2.500000000000000000, 0.000000000000000000 ) ) ;
#207 = ORIENTED_EDGE ( 'NONE', *, *, #488, .F. ) ;
#208 = DIRECTION ( 'NONE',  ( 1.000000000000000000, 0.000000000000000000, 0.000000000000000000 ) ) ;
#209 = AXIS2_PLACEMENT_3D ( 'NONE', #312, #497, #164 ) ;
#210 = FACE_OUTER_BOUND ( 'NONE', #455, .T. ) ;
#211 = EDGE_CURVE ( 'NONE', #16, #178, #604, .T. ) ;
#212 = DIRECTION ( 'NONE',  ( 0.000000000000000000, 0.000000000000000000, 1.000000000000000000 ) ) ;
#213 =( GEOMETRIC_REPRESENTATION_CONTEXT ( 3 ) GLOBAL_UNCERTAINTY_ASSIGNED_CONTEXT ( ( #521 ) ) GLOBAL_UNIT_ASSIGNED_CONTEXT ( ( #486, #302, #441 ) ) REPRESENTATION_CONTEXT ( 'NONE', 'WORKASPACE' ) );
#214 = DIRECTION ( 'NONE',  ( -1.000000000000000000, 0.000000000000000000, 0.000000000000000000 ) ) ;
#215 = DIRECTION ( 'NONE',  ( 1.000000000000000000, 0.000000000000000000, 0.000000000000000000 ) ) ;
#216 = EDGE_CURVE ( 'NONE', #418, #38, #84, .T. ) ;
#217 = ORIENTED_EDGE ( 'NONE', *, *, #63, .F. ) ;
#218 = DIRECTION ( 'NONE',  ( -1.000000000000000000, 0.000000000000000000, 0.000000000000000000 ) ) ;
#219 = EDGE_CURVE ( 'NONE', #9, #612, #268, .T. ) ;
#220 = VECTOR ( 'NONE', #101, 1000.000000000000000 ) ;
#221 = AXIS2_PLACEMENT_3D ( 'NONE', #102, #252, #253 ) ;
#222 = UNCERTAINTY_MEASURE_WITH_UNIT (LENGTH_MEASURE( 1.000000000000000082E-05 ), #377, 'distance_accuracy_value', 'NONE');
#223 = VERTEX_POINT ( 'NONE', #432 ) ;
#224 = CARTESIAN_POINT ( 'NONE',  ( 0.000000000000000000, 0.000000000000000000, -500.0000000000000000 ) ) ;
#225 = EDGE_CURVE ( 'NONE', #169, #43, #469, .T. ) ;
#226 = ORIENTED_EDGE ( 'NONE', *, *, #405, .T. ) ;
#227 = CARTESIAN_POINT ( 'NONE',  ( 3.000000000000000000, -5.250000000000000000, 0.000000000000000000 ) ) ;
#228 = AXIS2_PLACEMENT_3D ( 'NONE', #525, #251, #597 ) ;
#229 = ORIENTED_EDGE ( 'NONE', *, *, #146, .F. ) ;
#230 = ORIENTED_EDGE ( 'NONE', *, *, #21, .T. ) ;
#231 = DIRECTION ( 'NONE',  ( 0.000000000000000000, 0.000000000000000000, 1.000000000000000000 ) ) ;
#232 = CARTESIAN_POINT ( 'NONE',  ( 6.505213034913029562E-16, -4.336808689942019708E-16, -1.000000000000000000 ) ) ;
#233 = EDGE_CURVE ( 'NONE', #274, #41, #42, .T. ) ;
#234 = ORIENTED_EDGE ( 'NONE', *, *, #484, .T. ) ;
#235 = DIRECTION ( 'NONE',  ( 0.000000000000000000, -0.6992941554637311929, 0.7148340255851473035 ) ) ;
#236 = LINE ( 'NONE', #419, #326 ) ;
#237 = SURFACE_STYLE_USAGE ( .BOTH. , #184 ) ;
#238 = LINE ( 'NONE', #286, #576 ) ;
#239 = ORIENTED_EDGE ( 'NONE', *, *, #211, .T. ) ;
#240 = DIRECTION ( 'NONE',  ( -1.000000000000000000, 0.000000000000000000, 0.000000000000000000 ) ) ;
#241 = EDGE_CURVE ( 'NONE', #254, #404, #97, .T. ) ;
#242 = ORIENTED_EDGE ( 'NONE', *, *, #28, .T. ) ;
#243 = ADVANCED_FACE ( 'NONE', ( #105, #527 ), #481, .F. ) ;
#244 = DIRECTION ( 'NONE',  ( 0.000000000000000000, 0.000000000000000000, 1.000000000000000000 ) ) ;
#245 = VECTOR ( 'NONE', #39, 1000.000000000000000 ) ;
#246 = AXIS2_PLACEMENT_3D ( 'NONE', #446, #116, #215 ) ;
#247 = ORIENTED_EDGE ( 'NONE', *, *, #484, .F. ) ;
#248 = CARTESIAN_POINT ( 'NONE',  ( -3.000000000000000000, 0.000000000000000000, -1.000000000000000000 ) ) ;
#249 = DIRECTION ( 'NONE',  ( 0.000000000000000000, 0.000000000000000000, -1.000000000000000000 ) ) ;
#250 = EDGE_LOOP ( 'NONE', ( #195, #207, #306, #234 ) ) ;
#251 = DIRECTION ( 'NONE',  ( 0.000000000000000000, 0.000000000000000000, 1.000000000000000000 ) ) ;
#252 = DIRECTION ( 'NONE',  ( 0.000000000000000000, 0.000000000000000000, -1.000000000000000000 ) ) ;
#253 = DIRECTION ( 'NONE',  ( 1.000000000000000000, 0.000000000000000000, 0.000000000000000000 ) ) ;
#254 = VERTEX_POINT ( 'NONE', #474 ) ;
#255 = DIRECTION ( 'NONE',  ( 1.000000000000000000, 0.000000000000000000, 0.000000000000000000 ) ) ;
#256 = EDGE_LOOP ( 'NONE', ( #120, #552 ) ) ;
#257 = VECTOR ( 'NONE', #354, 1000.000000000000000 ) ;
#258 = VECTOR ( 'NONE', #240, 1000.000000000000000 ) ;
#259 = DIRECTION ( 'NONE',  ( 0.000000000000000000, 0.000000000000000000, -1.000000000000000000 ) ) ;
#260 = ADVANCED_FACE ( 'NONE', ( #281 ), #571, .T. ) ;
#261 = DIRECTION ( 'NONE',  ( 0.000000000000000000, 0.000000000000000000, -1.000000000000000000 ) ) ;
#262 = ADVANCED_FACE ( 'NONE', ( #559 ), #464, .F. ) ;
#263 = ORIENTED_EDGE ( 'NONE', *, *, #165, .F. ) ;
#264 = DIRECTION ( 'NONE',  ( 0.000000000000000000, 0.000000000000000000, -1.000000000000000000 ) ) ;
#265 = EDGE_LOOP ( 'NONE', ( #506, #316, #388, #288 ) ) ;
#266 = EDGE_LOOP ( 'NONE', ( #514, #130, #284, #523 ) ) ;
#267 = EDGE_CURVE ( 'NONE', #38, #274, #561, .T. ) ;
#268 = LINE ( 'NONE', #572, #448 ) ;
#269 = ORIENTED_EDGE ( 'NONE', *, *, #350, .F. ) ;
#270 = AXIS2_PLACEMENT_3D ( 'NONE', #224, #231, #214 ) ;
#271 = CARTESIAN_POINT ( 'NONE',  ( 3.000000000000000000, 5.250000000000000000, 1.000000000000000000 ) ) ;
#272 = EDGE_LOOP ( 'NONE', ( #345, #458, #217, #359, #412, #424, #182, #14 ) ) ;
#273 = LINE ( 'NONE', #33, #127 ) ;
#274 = VERTEX_POINT ( 'NONE', #89 ) ;
#275 = FACE_OUTER_BOUND ( 'NONE', #272, .T. ) ;
#276 = DIRECTION ( 'NONE',  ( 1.000000000000000000, 0.000000000000000000, 0.000000000000000000 ) ) ;
#277 = DIRECTION ( 'NONE',  ( 1.000000000000000000, 0.000000000000000000, 0.000000000000000000 ) ) ;
#278 = DIRECTION ( 'NONE',  ( 0.000000000000000000, 0.000000000000000000, 1.000000000000000000 ) ) ;
#279 = ORIENTED_EDGE ( 'NONE', *, *, #440, .T. ) ;
#280 = LINE ( 'NONE', #436, #258 ) ;
#281 = FACE_OUTER_BOUND ( 'NONE', #68, .T. ) ;
#282 = EDGE_CURVE ( 'NONE', #485, #578, #567, .T. ) ;
#283 = EDGE_CURVE ( 'NONE', #124, #201, #417, .T. ) ;
#284 = ORIENTED_EDGE ( 'NONE', *, *, #584, .T. ) ;
#285 = CARTESIAN_POINT ( 'NONE',  ( 2.500000000000000000, 3.000000000000000000, -1.000000000000000000 ) ) ;
#286 = CARTESIAN_POINT ( 'NONE',  ( -3.000000000000000000, -2.500000000000000000, -1.000000000000000000 ) ) ;
#287 = CARTESIAN_POINT ( 'NONE',  ( 3.000000000000000000, -5.250000000000000000, 1.000000000000000000 ) ) ;
#288 = ORIENTED_EDGE ( 'NONE', *, *, #483, .T. ) ;
#289 = DIRECTION ( 'NONE',  ( 1.000000000000000000, 0.000000000000000000, 0.000000000000000000 ) ) ;
#290 = FACE_OUTER_BOUND ( 'NONE', #421, .T. ) ;
#291 = VECTOR ( 'NONE', #327, 1000.000000000000000 ) ;
#292 = VECTOR ( 'NONE', #104, 1000.000000000000000 ) ;
#293 = ORIENTED_EDGE ( 'NONE', *, *, #372, .F. ) ;
#294 = CARTESIAN_POINT ( 'NONE',  ( -3.000000000000000000, -5.250000000000000000, 0.000000000000000000 ) ) ;
#295 = LINE ( 'NONE', #480, #606 ) ;
#296 = DIRECTION ( 'NONE',  ( 0.000000000000000000, -0.6992941554637311929, -0.7148340255851473035 ) ) ;
#297 = VERTEX_POINT ( 'NONE', #93 ) ;
#298 = SURFACE_SIDE_STYLE ('',( #429 ) ) ;
#299 = ADVANCED_FACE ( 'NONE', ( #468 ), #382, .F. ) ;
#300 = PRODUCT ( 'T型螺母[AENT20-4]', 'T型螺母[AENT20-4]', '', ( #87 ) ) ;
#301 = ORIENTED_EDGE ( 'NONE', *, *, #307, .F. ) ;
#302 =( NAMED_UNIT ( * ) PLANE_ANGLE_UNIT ( ) SI_UNIT ( $, .RADIAN. ) );
#303 = VECTOR ( 'NONE', #60, 1000.000000000000000 ) ;
#304 = CARTESIAN_POINT ( 'NONE',  ( 2.500000000000000000, 2.500000000000000000, -1.000000000000000000 ) ) ;
#305 = CARTESIAN_POINT ( 'NONE',  ( -2.500000000000000000, -2.500000000000000000, -1.000000000000000000 ) ) ;
#306 = ORIENTED_EDGE ( 'NONE', *, *, #92, .T. ) ;
#307 = EDGE_CURVE ( 'NONE', #9, #43, #44, .T. ) ;
#308 = DIRECTION ( 'NONE',  ( 1.000000000000000000, 0.000000000000000000, 0.000000000000000000 ) ) ;
#309 = ADVANCED_FACE ( 'NONE', ( #290 ), #192, .T. ) ;
#310 = ORIENTED_EDGE ( 'NONE', *, *, #568, .T. ) ;
#311 = FACE_OUTER_BOUND ( 'NONE', #67, .T. ) ;
#312 = CARTESIAN_POINT ( 'NONE',  ( 0.000000000000000000, 0.000000000000000000, 3.299999999999999822 ) ) ;
#313 = AXIS2_PLACEMENT_3D ( 'NONE', #90, #277, #466 ) ;
#314 = ORIENTED_EDGE ( 'NONE', *, *, #241, .F. ) ;
#315 = CARTESIAN_POINT ( 'NONE',  ( -3.000000000000000000, -5.250000000000000000, 0.000000000000000000 ) ) ;
#316 = ORIENTED_EDGE ( 'NONE', *, *, #21, .F. ) ;
#317 = AXIS2_PLACEMENT_3D ( 'NONE', #147, #100, #342 ) ;
#318 = ORIENTED_EDGE ( 'NONE', *, *, #566, .T. ) ;
#319 = DIRECTION ( 'NONE',  ( 0.000000000000000000, 0.000000000000000000, 1.000000000000000000 ) ) ;
#320 = VERTEX_POINT ( 'NONE', #96 ) ;
#321 = VECTOR ( 'NONE', #8, 1000.000000000000000 ) ;
#322 = CARTESIAN_POINT ( 'NONE',  ( 0.000000000000000000, 0.000000000000000000, -1.000000000000000000 ) ) ;
#323 = EDGE_CURVE ( 'NONE', #178, #16, #180, .T. ) ;
#324 = VERTEX_POINT ( 'NONE', #375 ) ;
#325 = PLANE ( 'NONE',  #31 ) ;
#326 = VECTOR ( 'NONE', #549, 1000.000000000000000 ) ;
#327 = DIRECTION ( 'NONE',  ( 1.000000000000000000, 0.000000000000000000, 0.000000000000000000 ) ) ;
#328 = VERTEX_POINT ( 'NONE', #190 ) ;
#329 = FACE_OUTER_BOUND ( 'NONE', #365, .T. ) ;
#330 = DIRECTION ( 'NONE',  ( 1.000000000000000000, 0.000000000000000000, 0.000000000000000000 ) ) ;
#331 = DIRECTION ( 'NONE',  ( 0.000000000000000000, 0.000000000000000000, 1.000000000000000000 ) ) ;
#332 = CARTESIAN_POINT ( 'NONE',  ( 1.620999999999999996, -1.985152461417859467E-16, -500.0000000000000000 ) ) ;
#333 = DIRECTION ( 'NONE',  ( 0.000000000000000000, 0.7148340255851471925, -0.6992941554637311929 ) ) ;
#334 = EDGE_CURVE ( 'NONE', #328, #34, #238, .T. ) ;
#335 = CARTESIAN_POINT ( 'NONE',  ( 0.000000000000000000, 0.000000000000000000, 3.299999999999999822 ) ) ;
#336 = EDGE_CURVE ( 'NONE', #605, #328, #430, .T. ) ;
#337 = AXIS2_PLACEMENT_3D ( 'NONE', #304, #490, #208 ) ;
#338 = ORIENTED_EDGE ( 'NONE', *, *, #157, .F. ) ;
#339 = CARTESIAN_POINT ( 'NONE',  ( 0.000000000000000000, 0.000000000000000000, -1.000000000000000000 ) ) ;
#340 = ORIENTED_EDGE ( 'NONE', *, *, #129, .T. ) ;
#341 = DIRECTION ( 'NONE',  ( 0.000000000000000000, 1.000000000000000000, 0.000000000000000000 ) ) ;
#342 = DIRECTION ( 'NONE',  ( 0.000000000000000000, 0.6992941554637311929, -0.7148340255851471925 ) ) ;
#343 = CARTESIAN_POINT ( 'NONE',  ( 3.000000000000000000, 2.500000000000000000, 0.000000000000000000 ) ) ;
#344 = VECTOR ( 'NONE', #235, 999.9999999999998863 ) ;
#345 = ORIENTED_EDGE ( 'NONE', *, *, #109, .F. ) ;
#346 = DIRECTION ( 'NONE',  ( 0.000000000000000000, 0.000000000000000000, 1.000000000000000000 ) ) ;
#347 = CARTESIAN_POINT ( 'NONE',  ( -1.620999999999999996, 0.000000000000000000, 3.299999999999999822 ) ) ;
#348 = DIRECTION ( 'NONE',  ( -1.000000000000000000, 0.000000000000000000, 0.000000000000000000 ) ) ;
#349 = CARTESIAN_POINT ( 'NONE',  ( 3.000000000000000000, 5.250000000000000000, 1.000000000000000000 ) ) ;
#350 = EDGE_CURVE ( 'NONE', #50, #55, #193, .T. ) ;
#351 = CYLINDRICAL_SURFACE ( 'NONE', #526, 0.5000000000000000000 ) ;
#352 = EDGE_CURVE ( 'NONE', #324, #43, #163, .T. ) ;
#353 = DIRECTION ( 'NONE',  ( 0.000000000000000000, 0.000000000000000000, -1.000000000000000000 ) ) ;
#354 = DIRECTION ( 'NONE',  ( -1.000000000000000000, 0.000000000000000000, 0.000000000000000000 ) ) ;
#355 = ORIENTED_EDGE ( 'NONE', *, *, #172, .F. ) ;
#356 = VECTOR ( 'NONE', #177, 999.9999999999998863 ) ;
#357 = EDGE_LOOP ( 'NONE', ( #239, #368, #449, #229 ) ) ;
#358 = DIRECTION ( 'NONE',  ( 0.000000000000000000, 0.000000000000000000, -1.000000000000000000 ) ) ;
#359 = ORIENTED_EDGE ( 'NONE', *, *, #219, .F. ) ;
#360 = ORIENTED_EDGE ( 'NONE', *, *, #62, .F. ) ;
#361 = CARTESIAN_POINT ( 'NONE',  ( 3.000000000000000000, -5.250000000000000000, 0.000000000000000000 ) ) ;
#362 = ADVANCED_BREP_SHAPE_REPRESENTATION ( 'T型螺母[AENT20-4]', ( #411, #187 ), #66 ) ;
#363 = ORIENTED_EDGE ( 'NONE', *, *, #483, .F. ) ;
#364 = CARTESIAN_POINT ( 'NONE',  ( 3.000000000000000000, 5.250000000000000000, 0.000000000000000000 ) ) ;
#365 = EDGE_LOOP ( 'NONE', ( #400, #407, #508, #279, #52, #301, #78, #32, #117, #376 ) ) ;
#366 = APPLICATION_PROTOCOL_DEFINITION ( 'draft international standard', 'automotive_design', 1998, #20 ) ;
#367 = VECTOR ( 'NONE', #218, 1000.000000000000000 ) ;
#368 = ORIENTED_EDGE ( 'NONE', *, *, #4, .T. ) ;
#369 = DIRECTION ( 'NONE',  ( 0.000000000000000000, 0.000000000000000000, 1.000000000000000000 ) ) ;
#370 = DIRECTION ( 'NONE',  ( 0.000000000000000000, -1.000000000000000000, 0.000000000000000000 ) ) ;
#371 = PRESENTATION_LAYER_ASSIGNMENT (  '', '', ( #135 ) ) ;
#372 = EDGE_CURVE ( 'NONE', #550, #34, #185, .T. ) ;
#373 = ORIENTED_EDGE ( 'NONE', *, *, #161, .T. ) ;
#374 = PRESENTATION_STYLE_ASSIGNMENT (( #237 ) ) ;
#375 = CARTESIAN_POINT ( 'NONE',  ( 0.000000000000000000, -3.000000000000000000, 0.000000000000000000 ) ) ;
#376 = ORIENTED_EDGE ( 'NONE', *, *, #283, .T. ) ;
#377 =( LENGTH_UNIT ( ) NAMED_UNIT ( * ) SI_UNIT ( .MILLI., .METRE. ) );
#378 = AXIS2_PLACEMENT_3D ( 'NONE', #426, #614, #341 ) ;
#379 = DIRECTION ( 'NONE',  ( 0.000000000000000000, 0.000000000000000000, -1.000000000000000000 ) ) ;
#380 = DIRECTION ( 'NONE',  ( 0.000000000000000000, 1.000000000000000000, 0.000000000000000000 ) ) ;
#381 = ORIENTED_EDGE ( 'NONE', *, *, #175, .F. ) ;
#382 = CYLINDRICAL_SURFACE ( 'NONE', #487, 1.620999999999999996 ) ;
#383 = ORIENTED_EDGE ( 'NONE', *, *, #323, .T. ) ;
#384 =( NAMED_UNIT ( * ) PLANE_ANGLE_UNIT ( ) SI_UNIT ( $, .RADIAN. ) );
#385 = CARTESIAN_POINT ( 'NONE',  ( 0.000000000000000000, 3.000000000000000000, 0.000000000000000000 ) ) ;
#386 = DIRECTION ( 'NONE',  ( -1.000000000000000000, 0.000000000000000000, 0.000000000000000000 ) ) ;
#387 = PRODUCT_RELATED_PRODUCT_CATEGORY ( 'part', '', ( #300 ) ) ;
#388 = ORIENTED_EDGE ( 'NONE', *, *, #476, .F. ) ;
#389 = FILL_AREA_STYLE ('',( #107 ) ) ;
#390 = CARTESIAN_POINT ( 'NONE',  ( 0.000000000000000000, -3.000000000000000000, -1.000000000000000000 ) ) ;
#391 = VECTOR ( 'NONE', #370, 1000.000000000000000 ) ;
#392 = ORIENTED_EDGE ( 'NONE', *, *, #233, .T. ) ;
#393 = CARTESIAN_POINT ( 'NONE',  ( 1.620999999999999996, -1.985152461417859467E-16, 3.299999999999999822 ) ) ;
#394 = ADVANCED_FACE ( 'NONE', ( #610 ), #607, .F. ) ;
#395 = CIRCLE ( 'NONE', #56, 3.000000000000000000 ) ;
#396 = CIRCLE ( 'NONE', #209, 1.620999999999999996 ) ;
#397 = PRODUCT_DEFINITION_CONTEXT ( 'detailed design', #20, 'design' ) ;
#398 = DIRECTION ( 'NONE',  ( 0.000000000000000000, 0.000000000000000000, 1.000000000000000000 ) ) ;
#399 = CARTESIAN_POINT ( 'NONE',  ( -3.000000000000000000, 3.000000000000000000, 3.299999999999999822 ) ) ;
#400 = ORIENTED_EDGE ( 'NONE', *, *, #202, .T. ) ;
#401 = LINE ( 'NONE', #79, #356 ) ;
#402 = CIRCLE ( 'NONE', #524, 0.5000000000000000000 ) ;
#403 = EDGE_LOOP ( 'NONE', ( #392, #363, #173, #242 ) ) ;
#404 = VERTEX_POINT ( 'NONE', #88 ) ;
#405 = EDGE_CURVE ( 'NONE', #34, #297, #582, .T. ) ;
#406 = PRODUCT_DEFINITION_FORMATION_WITH_SPECIFIED_SOURCE ( '任何', '', #300, .NOT_KNOWN. ) ;
#407 = ORIENTED_EDGE ( 'NONE', *, *, #476, .T. ) ;
#408 = LINE ( 'NONE', #227, #367 ) ;
#409 = ORIENTED_EDGE ( 'NONE', *, *, #334, .T. ) ;
#410 = ADVANCED_FACE ( 'NONE', ( #189, #275 ), #325, .F. ) ;
#411 = MANIFOLD_SOLID_BREP ( 'T型螺母[AENT20-4].step<1>', #76 ) ;
#412 = ORIENTED_EDGE ( 'NONE', *, *, #613, .F. ) ;
#413 = CARTESIAN_POINT ( 'NONE',  ( 3.000000000000000000, 2.500000000000000000, -1.000000000000000000 ) ) ;
#414 = EDGE_LOOP ( 'NONE', ( #573, #226, #150, #83, #166, #73 ) ) ;
#415 = FILL_AREA_STYLE_COLOUR ( '', #450 ) ;
#416 = STYLED_ITEM ( 'NONE', ( #374 ), #411 ) ;
#417 = LINE ( 'NONE', #7, #492 ) ;
#418 = VERTEX_POINT ( 'NONE', #479 ) ;
#419 = CARTESIAN_POINT ( 'NONE',  ( 2.500000000000000000, 3.000000000000000000, -1.000000000000000000 ) ) ;
#420 = DIRECTION ( 'NONE',  ( 0.000000000000000000, 0.000000000000000000, -1.000000000000000000 ) ) ;
#421 = EDGE_LOOP ( 'NONE', ( #176, #500, #548, #340 ) ) ;
#422 = VECTOR ( 'NONE', #95, 1000.000000000000000 ) ;
#423 = DIRECTION ( 'NONE',  ( 0.000000000000000000, -1.000000000000000000, 0.000000000000000000 ) ) ;
#424 = ORIENTED_EDGE ( 'NONE', *, *, #92, .F. ) ;
#425 = VECTOR ( 'NONE', #40, 1000.000000000000000 ) ;
#426 = CARTESIAN_POINT ( 'NONE',  ( -3.000000000000000000, 0.000000000000000000, 0.000000000000000000 ) ) ;
#427 = CIRCLE ( 'NONE', #246, 3.000000000000000000 ) ;
#428 = CARTESIAN_POINT ( 'NONE',  ( 3.000000000000000000, -3.000000000000000000, 3.299999999999999822 ) ) ;
#429 = SURFACE_STYLE_FILL_AREA ( #389 ) ;
#430 = LINE ( 'NONE', #199, #391 ) ;
#431 = EDGE_CURVE ( 'NONE', #124, #38, #433, .T. ) ;
#432 = CARTESIAN_POINT ( 'NONE',  ( -3.000000000000000000, -3.000000000000000000, 3.299999999999999822 ) ) ;
#433 = LINE ( 'NONE', #153, #128 ) ;
#434 = ORIENTED_EDGE ( 'NONE', *, *, #233, .F. ) ;
#435 = DIRECTION ( 'NONE',  ( 0.000000000000000000, 0.000000000000000000, 1.000000000000000000 ) ) ;
#436 = CARTESIAN_POINT ( 'NONE',  ( 2.500000000000000000, 3.000000000000000000, 0.000000000000000000 ) ) ;
#437 = LINE ( 'NONE', #13, #292 ) ;
#438 = AXIS2_PLACEMENT_3D ( 'NONE', #339, #420, #515 ) ;
#439 = ORIENTED_EDGE ( 'NONE', *, *, #282, .T. ) ;
#440 = EDGE_CURVE ( 'NONE', #404, #169, #160, .T. ) ;
#441 =( NAMED_UNIT ( * ) SI_UNIT ( $, .STERADIAN. ) SOLID_ANGLE_UNIT ( ) );
#442 = ORIENTED_EDGE ( 'NONE', *, *, #336, .T. ) ;
#443 = DIRECTION ( 'NONE',  ( -0.000000000000000000, 1.000000000000000000, 0.000000000000000000 ) ) ;
#444 = PRODUCT_DEFINITION ( '未知', '', #406, #397 ) ;
#445 = AXIS2_PLACEMENT_3D ( 'NONE', #148, #443, #289 ) ;
#446 = CARTESIAN_POINT ( 'NONE',  ( 6.505213034913029562E-16, -4.336808689942019708E-16, 0.000000000000000000 ) ) ;
#447 = CARTESIAN_POINT ( 'NONE',  ( -2.500000000000000000, -3.000000000000000000, -1.000000000000000000 ) ) ;
#448 = VECTOR ( 'NONE', #200, 1000.000000000000000 ) ;
#449 = ORIENTED_EDGE ( 'NONE', *, *, #530, .F. ) ;
#450 = COLOUR_RGB ( '',0.6862745098039215730, 0.6862745098039215730, 0.6862745098039215730 ) ;
#451 = DIRECTION ( 'NONE',  ( 0.000000000000000000, 0.000000000000000000, 1.000000000000000000 ) ) ;
#452 = CARTESIAN_POINT ( 'NONE',  ( 3.000000000000000000, 5.250000000000000000, 1.000000000000000000 ) ) ;
#453 = ORIENTED_EDGE ( 'NONE', *, *, #307, .T. ) ;
#454 = DIRECTION ( 'NONE',  ( 0.000000000000000000, -0.6992941554637311929, 0.7148340255851473035 ) ) ;
#455 = EDGE_LOOP ( 'NONE', ( #114, #106, #126, #310 ) ) ;
#456 = DIRECTION ( 'NONE',  ( 0.000000000000000000, 0.000000000000000000, 1.000000000000000000 ) ) ;
#457 = AXIS2_PLACEMENT_3D ( 'NONE', #575, #249, #608 ) ;
#458 = ORIENTED_EDGE ( 'NONE', *, *, #589, .F. ) ;
#459 = DIRECTION ( 'NONE',  ( -1.000000000000000000, 0.000000000000000000, 0.000000000000000000 ) ) ;
#460 = VERTEX_POINT ( 'NONE', #343 ) ;
#461 = CYLINDRICAL_SURFACE ( 'NONE', #270, 1.620999999999999996 ) ;
#462 = EDGE_LOOP ( 'NONE', ( #482, #383, #594, #269 ) ) ;
#463 = DIRECTION ( 'NONE',  ( 0.000000000000000000, 0.000000000000000000, 1.000000000000000000 ) ) ;
#464 = PLANE ( 'NONE',  #378 ) ;
#465 = CARTESIAN_POINT ( 'NONE',  ( 3.000000000000000000, -5.250000000000000000, 0.000000000000000000 ) ) ;
#466 = DIRECTION ( 'NONE',  ( 0.000000000000000000, 1.000000000000000000, 0.000000000000000000 ) ) ;
#467 = VECTOR ( 'NONE', #369, 1000.000000000000000 ) ;
#468 = FACE_OUTER_BOUND ( 'NONE', #357, .T. ) ;
#469 = LINE ( 'NONE', #465, #2 ) ;
#470 = CARTESIAN_POINT ( 'NONE',  ( -1.620999999999999996, 0.000000000000000000, -1.000000000000000000 ) ) ;
#471 = DIRECTION ( 'NONE',  ( 0.000000000000000000, 0.000000000000000000, -1.000000000000000000 ) ) ;
#472 = CARTESIAN_POINT ( 'NONE',  ( 3.000000000000000000, -3.000000000000000000, 3.299999999999999822 ) ) ;
#473 = ORIENTED_EDGE ( 'NONE', *, *, #129, .F. ) ;
#474 = CARTESIAN_POINT ( 'NONE',  ( 3.000000000000000000, -3.000000000000000000, 3.299999999999999822 ) ) ;
#475 = LINE ( 'NONE', #428, #49 ) ;
#476 = EDGE_CURVE ( 'NONE', #111, #254, #437, .T. ) ;
#477 = VECTOR ( 'NONE', #459, 1000.000000000000000 ) ;
#478 = CARTESIAN_POINT ( 'NONE',  ( 0.000000000000000000, 3.000000000000000000, -1.000000000000000000 ) ) ;
#479 = CARTESIAN_POINT ( 'NONE',  ( -3.000000000000000000, 0.000000000000000000, 0.000000000000000000 ) ) ;
#480 = CARTESIAN_POINT ( 'NONE',  ( 3.000000000000000000, 3.000000000000000000, 3.299999999999999822 ) ) ;
#481 = PLANE ( 'NONE',  #151 ) ;
#482 = ORIENTED_EDGE ( 'NONE', *, *, #4, .F. ) ;
#483 = EDGE_CURVE ( 'NONE', #111, #41, #295, .T. ) ;
#484 = EDGE_CURVE ( 'NONE', #58, #324, #57, .T. ) ;
#485 = VERTEX_POINT ( 'NONE', #538 ) ;
#486 =( LENGTH_UNIT ( ) NAMED_UNIT ( * ) SI_UNIT ( .MILLI., .METRE. ) );
#487 = AXIS2_PLACEMENT_3D ( 'NONE', #137, #51, #611 ) ;
#488 = EDGE_CURVE ( 'NONE', #542, #297, #23, .T. ) ;
#489 = ORIENTED_EDGE ( 'NONE', *, *, #175, .T. ) ;
#490 = DIRECTION ( 'NONE',  ( 0.000000000000000000, 0.000000000000000000, 1.000000000000000000 ) ) ;
#491 =( NAMED_UNIT ( * ) PLANE_ANGLE_UNIT ( ) SI_UNIT ( $, .RADIAN. ) );
#492 = VECTOR ( 'NONE', #331, 1000.000000000000000 ) ;
#493 = CARTESIAN_POINT ( 'NONE',  ( 3.000000000000000000, 4.336808689942019708E-16, 0.000000000000000000 ) ) ;
#494 = ORIENTED_EDGE ( 'NONE', *, *, #28, .F. ) ;
#495 = DIRECTION ( 'NONE',  ( 0.000000000000000000, -1.000000000000000000, 0.000000000000000000 ) ) ;
#496 = ADVANCED_FACE ( 'NONE', ( #210 ), #115, .T. ) ;
#497 = DIRECTION ( 'NONE',  ( 0.000000000000000000, 0.000000000000000000, -1.000000000000000000 ) ) ;
#498 = ORIENTED_EDGE ( 'NONE', *, *, #566, .F. ) ;
#499 = PLANE ( 'NONE',  #61 ) ;
#500 = ORIENTED_EDGE ( 'NONE', *, *, #282, .F. ) ;
#501 = ADVANCED_FACE ( 'NONE', ( #586 ), #583, .F. ) ;
#502 = CARTESIAN_POINT ( 'NONE',  ( -2.500000000000000000, -3.000000000000000000, -1.000000000000000000 ) ) ;
#503 = AXIS2_PLACEMENT_3D ( 'NONE', #560, #333, #553 ) ;
#504 = ORIENTED_EDGE ( 'NONE', *, *, #568, .F. ) ;
#505 = AXIS2_PLACEMENT_3D ( 'NONE', #26, #261, #308 ) ;
#506 = ORIENTED_EDGE ( 'NONE', *, *, #522, .T. ) ;
#507 = DIRECTION ( 'NONE',  ( -1.000000000000000000, 0.000000000000000000, 0.000000000000000000 ) ) ;
#508 = ORIENTED_EDGE ( 'NONE', *, *, #241, .T. ) ;
#509 = CARTESIAN_POINT ( 'NONE',  ( -3.000000000000000000, 5.250000000000000000, 0.000000000000000000 ) ) ;
#510 = CARTESIAN_POINT ( 'NONE',  ( 2.500000000000000000, 3.000000000000000000, -1.000000000000000000 ) ) ;
#511 = ORIENTED_EDGE ( 'NONE', *, *, #352, .F. ) ;
#512 = AXIS2_PLACEMENT_3D ( 'NONE', #174, #456, #29 ) ;
#513 = CARTESIAN_POINT ( 'NONE',  ( 3.000000000000000000, 4.336808689942019708E-16, -1.000000000000000000 ) ) ;
#514 = ORIENTED_EDGE ( 'NONE', *, *, #405, .F. ) ;
#515 = DIRECTION ( 'NONE',  ( -1.000000000000000000, 0.000000000000000000, 0.000000000000000000 ) ) ;
#516 = EDGE_CURVE ( 'NONE', #578, #418, #427, .T. ) ;
#517 = PLANE ( 'NONE',  #317 ) ;
#518 =( NAMED_UNIT ( * ) SI_UNIT ( $, .STERADIAN. ) SOLID_ANGLE_UNIT ( ) );
#519 = LINE ( 'NONE', #349, #257 ) ;
#520 = CARTESIAN_POINT ( 'NONE',  ( 2.500000000000000000, 3.000000000000000000, -1.000000000000000000 ) ) ;
#521 = UNCERTAINTY_MEASURE_WITH_UNIT (LENGTH_MEASURE( 1.000000000000000082E-05 ), #486, 'distance_accuracy_value', 'NONE');
#522 = EDGE_CURVE ( 'NONE', #41, #223, #590, .T. ) ;
#523 = ORIENTED_EDGE ( 'NONE', *, *, #488, .T. ) ;
#524 = AXIS2_PLACEMENT_3D ( 'NONE', #598, #555, #595 ) ;
#525 = CARTESIAN_POINT ( 'NONE',  ( -2.500000000000000000, -2.500000000000000000, -1.000000000000000000 ) ) ;
#526 = AXIS2_PLACEMENT_3D ( 'NONE', #305, #353, #536 ) ;
#527 = FACE_OUTER_BOUND ( 'NONE', #265, .T. ) ;
#528 = ORIENTED_EDGE ( 'NONE', *, *, #157, .T. ) ;
#529 = CARTESIAN_POINT ( 'NONE',  ( -6.505213034913029562E-16, 4.336808689942019708E-16, -1.000000000000000000 ) ) ;
#530 = EDGE_CURVE ( 'NONE', #55, #50, #396, .T. ) ;
#531 = CARTESIAN_POINT ( 'NONE',  ( 3.000000000000000000, -5.250000000000000000, 0.000000000000000000 ) ) ;
#532 = SURFACE_STYLE_USAGE ( .BOTH. , #298 ) ;
#533 = CARTESIAN_POINT ( 'NONE',  ( 0.000000000000000000, -3.000000000000000000, -1.000000000000000000 ) ) ;
#534 = AXIS2_PLACEMENT_3D ( 'NONE', #335, #471, #386 ) ;
#535 = VECTOR ( 'NONE', #346, 1000.000000000000000 ) ;
#536 = DIRECTION ( 'NONE',  ( 1.000000000000000000, 0.000000000000000000, 0.000000000000000000 ) ) ;
#537 = ADVANCED_FACE ( 'NONE', ( #77 ), #351, .T. ) ;
#538 = CARTESIAN_POINT ( 'NONE',  ( 0.000000000000000000, 3.000000000000000000, -1.000000000000000000 ) ) ;
#539 = CARTESIAN_POINT ( 'NONE',  ( -3.000000000000000000, 5.250000000000000000, 0.000000000000000000 ) ) ;
#540 = DIRECTION ( 'NONE',  ( 1.000000000000000000, 0.000000000000000000, 0.000000000000000000 ) ) ;
#541 = VECTOR ( 'NONE', #601, 1000.000000000000000 ) ;
#542 = VERTEX_POINT ( 'NONE', #113 ) ;
#543 = CARTESIAN_POINT ( 'NONE',  ( 3.000000000000000000, -5.250000000000000000, 1.000000000000000000 ) ) ;
#544 = EDGE_LOOP ( 'NONE', ( #434, #35, #134, #473, #442, #409, #293, #355, #381, #98 ) ) ;
#545 = FACE_OUTER_BOUND ( 'NONE', #250, .T. ) ;
#546 = ORIENTED_EDGE ( 'NONE', *, *, #589, .T. ) ;
#547 = CARTESIAN_POINT ( 'NONE',  ( -3.000000000000000000, -5.250000000000000000, 1.000000000000000000 ) ) ;
#548 = ORIENTED_EDGE ( 'NONE', *, *, #109, .T. ) ;
#549 = DIRECTION ( 'NONE',  ( -1.000000000000000000, 0.000000000000000000, 0.000000000000000000 ) ) ;
#550 = VERTEX_POINT ( 'NONE', #294 ) ;
#551 = LINE ( 'NONE', #452, #80 ) ;
#552 = ORIENTED_EDGE ( 'NONE', *, *, #323, .F. ) ;
#553 = DIRECTION ( 'NONE',  ( -1.000000000000000000, 0.000000000000000000, 0.000000000000000000 ) ) ;
#554 = EDGE_LOOP ( 'NONE', ( #1, #263, #602, #528 ) ) ;
#555 = DIRECTION ( 'NONE',  ( 0.000000000000000000, 0.000000000000000000, 1.000000000000000000 ) ) ;
#556 = ORIENTED_EDGE ( 'NONE', *, *, #530, .T. ) ;
#557 = PLANE ( 'NONE',  #313 ) ;
#558 = DIRECTION ( 'NONE',  ( 1.000000000000000000, 0.000000000000000000, 0.000000000000000000 ) ) ;
#559 = FACE_OUTER_BOUND ( 'NONE', #544, .T. ) ;
#560 = CARTESIAN_POINT ( 'NONE',  ( 3.000000000000000000, -3.000000000000000000, 3.299999999999999822 ) ) ;
#561 = LINE ( 'NONE', #509, #70 ) ;
#562 = ORIENTED_EDGE ( 'NONE', *, *, #283, .F. ) ;
#563 = CIRCLE ( 'NONE', #337, 0.5000000000000000000 ) ;
#564 = SHAPE_DEFINITION_REPRESENTATION ( #10, #362 ) ;
#565 = AXIS2_PLACEMENT_3D ( 'NONE', #112, #435, #204 ) ;
#566 = EDGE_CURVE ( 'NONE', #599, #578, #280, .T. ) ;
#567 = LINE ( 'NONE', #478, #425 ) ;
#568 = EDGE_CURVE ( 'NONE', #85, #599, #570, .T. ) ;
#569 = EDGE_LOOP ( 'NONE', ( #511, #247, #191, #453 ) ) ;
#570 = LINE ( 'NONE', #285, #71 ) ;
#571 = PLANE ( 'NONE',  #168 ) ;
#572 = CARTESIAN_POINT ( 'NONE',  ( 3.000000000000000000, 0.000000000000000000, -1.000000000000000000 ) ) ;
#573 = ORIENTED_EDGE ( 'NONE', *, *, #372, .T. ) ;
#574 = PLANE ( 'NONE',  #445 ) ;
#575 = CARTESIAN_POINT ( 'NONE',  ( 6.505213034913029562E-16, -4.336808689942019708E-16, -1.000000000000000000 ) ) ;
#576 = VECTOR ( 'NONE', #244, 1000.000000000000000 ) ;
#577 = APPLICATION_CONTEXT ( 'automotive_design' ) ;
#578 = VERTEX_POINT ( 'NONE', #385 ) ;
#579 = LINE ( 'NONE', #155, #22 ) ;
#580 = CARTESIAN_POINT ( 'NONE',  ( 2.500000000000000000, 3.000000000000000000, 0.000000000000000000 ) ) ;
#581 = CARTESIAN_POINT ( 'NONE',  ( 0.000000000000000000, 0.000000000000000000, 0.000000000000000000 ) ) ;
#582 = CIRCLE ( 'NONE', #12, 0.5000000000000000000 ) ;
#583 = PLANE ( 'NONE',  #181 ) ;
#584 = EDGE_CURVE ( 'NONE', #328, #542, #86, .T. ) ;
#585 = MECHANICAL_DESIGN_GEOMETRIC_PRESENTATION_REPRESENTATION (  '', ( #416 ), #194 ) ;
#586 = FACE_OUTER_BOUND ( 'NONE', #11, .T. ) ;
#587 = ADVANCED_FACE ( 'NONE', ( #329 ), #557, .T. ) ;
#588 = CARTESIAN_POINT ( 'NONE',  ( -1.620999999999999996, 0.000000000000000000, -500.0000000000000000 ) ) ;
#589 = EDGE_CURVE ( 'NONE', #85, #485, #236, .T. ) ;
#590 = LINE ( 'NONE', #399, #54 ) ;
#591 = EDGE_LOOP ( 'NONE', ( #556, #596 ) ) ;
#592 = DIRECTION ( 'NONE',  ( 0.000000000000000000, 0.000000000000000000, -1.000000000000000000 ) ) ;
#593 = ADVANCED_FACE ( 'NONE', ( #188 ), #574, .F. ) ;
#594 = ORIENTED_EDGE ( 'NONE', *, *, #146, .T. ) ;
#595 = DIRECTION ( 'NONE',  ( 1.000000000000000000, 0.000000000000000000, 0.000000000000000000 ) ) ;
#596 = ORIENTED_EDGE ( 'NONE', *, *, #350, .T. ) ;
#597 = DIRECTION ( 'NONE',  ( 1.000000000000000000, 0.000000000000000000, 0.000000000000000000 ) ) ;
#598 = CARTESIAN_POINT ( 'NONE',  ( 2.500000000000000000, 2.500000000000000000, 0.000000000000000000 ) ) ;
#599 = VERTEX_POINT ( 'NONE', #580 ) ;
#600 = DIRECTION ( 'NONE',  ( 1.000000000000000000, 0.000000000000000000, 0.000000000000000000 ) ) ;
#601 = DIRECTION ( 'NONE',  ( 0.000000000000000000, 1.000000000000000000, 0.000000000000000000 ) ) ;
#602 = ORIENTED_EDGE ( 'NONE', *, *, #440, .F. ) ;
#603 = LINE ( 'NONE', #588, #467 ) ;
#604 = CIRCLE ( 'NONE', #138, 1.620999999999999996 ) ;
#605 = VERTEX_POINT ( 'NONE', #248 ) ;
#606 = VECTOR ( 'NONE', #159, 1000.000000000000000 ) ;
#607 = PLANE ( 'NONE',  #503 ) ;
#608 = DIRECTION ( 'NONE',  ( 1.000000000000000000, 0.000000000000000000, 0.000000000000000000 ) ) ;
#609 = DIRECTION ( 'NONE',  ( 0.000000000000000000, 0.000000000000000000, 1.000000000000000000 ) ) ;
#610 = FACE_OUTER_BOUND ( 'NONE', #171, .T. ) ;
#611 = DIRECTION ( 'NONE',  ( -1.000000000000000000, 0.000000000000000000, 0.000000000000000000 ) ) ;
#612 = VERTEX_POINT ( 'NONE', #15 ) ;
#613 = EDGE_CURVE ( 'NONE', #58, #9, #395, .T. ) ;
#614 = DIRECTION ( 'NONE',  ( 1.000000000000000000, 0.000000000000000000, 0.000000000000000000 ) ) ;
ENDSEC;
END-ISO-10303-21;
