ISO-10303-21;
HEADER;
FILE_DESCRIPTION (( 'STEP AP214' ),
    '1' );
FILE_NAME ('不锈钢迷你型CTMA系列气缸[CTMA-16x25-S-CA-SDB]_16活塞杆.step',
    '2023-08-15T02:58:06',
    ( '' ),
    ( '' ),
    'SwSTEP 2.0',
    'SolidWorks 2022',
    '' );
FILE_SCHEMA (( 'AUTOMOTIVE_DESIGN' ));
ENDSEC;

DATA;
#1 = DIRECTION ( 'NONE',  ( 1.000000000000000000, 0.000000000000000000, 0.000000000000000000 ) ) ;
#2 = CARTESIAN_POINT ( 'NONE',  ( -28.19999999999999574, -2.366908268170247340E-15, 0.000000000000000000 ) ) ;
#3 = CARTESIAN_POINT ( 'NONE',  ( -33.20000000000000284, -2.533905558963067781E-15, 0.000000000000000000 ) ) ;
#4 = CARTESIAN_POINT ( 'NONE',  ( -37.43999999999999062, 0.000000000000000000, 0.000000000000000000 ) ) ;
#5 = EDGE_CURVE ( 'NONE', #899, #378, #1114, .T. ) ;
#6 = EDGE_CURVE ( 'NONE', #480, #144, #777, .T. ) ;
#7 = ORIENTED_EDGE ( 'NONE', *, *, #20, .T. ) ;
#8 = PLANE ( 'NONE',  #219 ) ;
#9 = CARTESIAN_POINT ( 'NONE',  ( -22.00000000000000000, 0.000000000000000000, 0.000000000000000000 ) ) ;
#10 = CARTESIAN_POINT ( 'NONE',  ( -33.09358330463381748, -3.367876570272817283, 4.166666666666666075 ) ) ;
#11 = CARTESIAN_POINT ( 'NONE',  ( -33.20000000000000284, 4.999999999999994671, 0.000000000000000000 ) ) ;
#12 = APPLICATION_PROTOCOL_DEFINITION ( 'draft international standard', 'automotive_design', 1998, #53 ) ;
#13 = CONICAL_SURFACE ( 'NONE', #161, 11.86869354863655879, 1.221730476396031051 ) ;
#14 = VECTOR ( 'NONE', #188, 1000.000000000000000 ) ;
#15 = AXIS2_PLACEMENT_3D ( 'NONE', #1113, #593, #506 ) ;
#16 = VERTEX_POINT ( 'NONE', #78 ) ;
#17 = AXIS2_PLACEMENT_3D ( 'NONE', #861, #525, #856 ) ;
#18 = CARTESIAN_POINT ( 'NONE',  ( -33.20000000000000284, 4.330127018922195425, 2.500000000000002220 ) ) ;
#19 = SURFACE_STYLE_FILL_AREA ( #964 ) ;
#20 = EDGE_CURVE ( 'NONE', #799, #361, #1126, .T. ) ;
#21 = DIRECTION ( 'NONE',  ( -0.000000000000000000, 1.000000000000000000, 2.253471898105739040E-16 ) ) ;
#22 = CARTESIAN_POINT ( 'NONE',  ( -22.00000000000000000, -1.658312395177695686, 2.500000000000000000 ) ) ;
#23 = EDGE_LOOP ( 'NONE', ( #1055, #225, #893, #639, #1026, #532, #1092, #58, #412, #647, #240, #1041 ) ) ;
#24 =( LENGTH_UNIT ( ) NAMED_UNIT ( * ) SI_UNIT ( .MILLI., .METRE. ) );
#25 = ORIENTED_EDGE ( 'NONE', *, *, #419, .F. ) ;
#26 = DIRECTION ( 'NONE',  ( 1.000000000000000000, 3.339945815856412403E-17, -0.000000000000000000 ) ) ;
#27 = EDGE_CURVE ( 'NONE', #200, #1015, #864, .T. ) ;
#28 = CARTESIAN_POINT ( 'NONE',  ( -33.20000000000000284, 3.673940397442056417E-16, -2.999999999999997335 ) ) ;
#29 = CARTESIAN_POINT ( 'NONE',  ( -28.48153195597501153, -5.773502691896256422, -5.730250375531071721E-17 ) ) ;
#30 = VERTEX_POINT ( 'NONE', #1118 ) ;
#31 = EDGE_LOOP ( 'NONE', ( #236, #229, #1053 ) ) ;
#32 = CARTESIAN_POINT ( 'NONE',  ( -28.19999999999999574, -8.645936694330896891E-16, -4.999999999999998224 ) ) ;
#33 = CARTESIAN_POINT ( 'NONE',  ( -32.91846804402497639, 2.886751345948132208, -4.999999999999997335 ) ) ;
#34 = EDGE_CURVE ( 'NONE', #399, #222, #239, .T. ) ;
#35 = CARTESIAN_POINT ( 'NONE',  ( -33.20000000000000284, -4.811252243246881832, -1.666666666666665408 ) ) ;
#36 = ORIENTED_EDGE ( 'NONE', *, *, #174, .T. ) ;
#37 = CIRCLE ( 'NONE', #898, 4.999999999999997335 ) ;
#38 = UNCERTAINTY_MEASURE_WITH_UNIT (LENGTH_MEASURE( 1.000000000000000082E-05 ), #67, 'distance_accuracy_value', 'NONE');
#39 = ORIENTED_EDGE ( 'NONE', *, *, #34, .F. ) ;
#40 = AXIS2_PLACEMENT_3D ( 'NONE', #411, #1094, #479 ) ;
#41 = DIRECTION ( 'NONE',  ( -0.000000000000000000, 0.8660254037844388186, 0.4999999999999997224 ) ) ;
#42 = FACE_OUTER_BOUND ( 'NONE', #385, .T. ) ;
#43 = EDGE_LOOP ( 'NONE', ( #289, #891, #504 ) ) ;
#44 = CARTESIAN_POINT ( 'NONE',  ( -22.00000000000000000, 0.000000000000000000, 0.000000000000000000 ) ) ;
#45 = FACE_OUTER_BOUND ( 'NONE', #51, .T. ) ;
#46 = ORIENTED_EDGE ( 'NONE', *, *, #910, .T. ) ;
#47 = EDGE_CURVE ( 'NONE', #366, #226, #264, .T. ) ;
#48 = ORIENTED_EDGE ( 'NONE', *, *, #245, .F. ) ;
#49 = DIRECTION ( 'NONE',  ( -1.000000000000000000, -3.339945815856412403E-17, 0.000000000000000000 ) ) ;
#50 = LINE ( 'NONE', #147, #579 ) ;
#51 = EDGE_LOOP ( 'NONE', ( #46, #296, #196, #991, #586, #757 ) ) ;
#52 = EDGE_LOOP ( 'NONE', ( #557, #389 ) ) ;
#53 = APPLICATION_CONTEXT ( 'automotive_design' ) ;
#54 = DIRECTION ( 'NONE',  ( -1.000000000000000000, -3.339945815856412403E-17, 0.000000000000000000 ) ) ;
#55 = FACE_OUTER_BOUND ( 'NONE', #917, .T. ) ;
#56 = AXIS2_PLACEMENT_3D ( 'NONE', #158, #602, #1023 ) ;
#57 = CIRCLE ( 'NONE', #634, 2.999999999999997335 ) ;
#58 = ORIENTED_EDGE ( 'NONE', *, *, #1028, .T. ) ;
#59 = B_SPLINE_CURVE_WITH_KNOTS ( 'NONE', 3,
 ( #33, #636, #305, #819 ),
 .UNSPECIFIED., .F., .F.,
 ( 4, 4 ),
 ( 2.309401076754191683E-07, 0.002886982286055799450 ),
 .UNSPECIFIED. ) ;
#60 = ORIENTED_EDGE ( 'NONE', *, *, #355, .T. ) ;
#61 = FACE_OUTER_BOUND ( 'NONE', #748, .T. ) ;
#62 = ADVANCED_FACE ( 'NONE', ( #936 ), #1121, .T. ) ;
#63 = DIRECTION ( 'NONE',  ( 0.000000000000000000, 1.000000000000000000, 1.126735949052869520E-16 ) ) ;
#64 = ORIENTED_EDGE ( 'NONE', *, *, #154, .F. ) ;
#65 = B_SPLINE_CURVE_WITH_KNOTS ( 'NONE', 3,
 ( #1009, #848, #924, #669 ),
 .UNSPECIFIED., .F., .F.,
 ( 4, 4 ),
 ( 2.309401076744511949E-07, 0.002886982286055805522 ),
 .UNSPECIFIED. ) ;
#66 = ORIENTED_EDGE ( 'NONE', *, *, #282, .F. ) ;
#67 =( LENGTH_UNIT ( ) NAMED_UNIT ( * ) SI_UNIT ( .MILLI., .METRE. ) );
#68 = ORIENTED_EDGE ( 'NONE', *, *, #355, .F. ) ;
#69 =( GEOMETRIC_REPRESENTATION_CONTEXT ( 3 ) GLOBAL_UNCERTAINTY_ASSIGNED_CONTEXT ( ( #433 ) ) GLOBAL_UNIT_ASSIGNED_CONTEXT ( ( #500, #1022, #422 ) ) REPRESENTATION_CONTEXT ( 'NONE', 'WORKASPACE' ) );
#70 = AXIS2_PLACEMENT_3D ( 'NONE', #1038, #256, #843 ) ;
#71 = CARTESIAN_POINT ( 'NONE',  ( -33.20000000000000284, 0.9639288072917602257, -4.999999999999998224 ) ) ;
#72 = CARTESIAN_POINT ( 'NONE',  ( -33.20000000000000284, -2.533905558963067781E-15, 0.000000000000000000 ) ) ;
#73 = CIRCLE ( 'NONE', #697, 4.999999999999997335 ) ;
#74 = DIRECTION ( 'NONE',  ( 0.000000000000000000, 0.000000000000000000, -1.000000000000000000 ) ) ;
#75 = CARTESIAN_POINT ( 'NONE',  ( 75.00000000000001421, 0.000000000000000000, 0.000000000000000000 ) ) ;
#76 = DIRECTION ( 'NONE',  ( 0.000000000000000000, 0.000000000000000000, -1.000000000000000000 ) ) ;
#77 = EDGE_CURVE ( 'NONE', #954, #30, #948, .T. ) ;
#78 = CARTESIAN_POINT ( 'NONE',  ( -38.00000000000000000, 0.000000000000000000, -2.439999999999983959 ) ) ;
#79 = ADVANCED_FACE ( 'NONE', ( #781 ), #743, .T. ) ;
#80 = CARTESIAN_POINT ( 'NONE',  ( -28.19999999999999574, -2.366908268170247340E-15, 0.000000000000000000 ) ) ;
#81 = DIRECTION ( 'NONE',  ( 1.000000000000000000, 3.339945815856412403E-17, -0.000000000000000000 ) ) ;
#82 = CARTESIAN_POINT ( 'NONE',  ( -16.00000000000000000, 8.673617379884035472E-16, 4.336808689942017736E-16 ) ) ;
#83 = DIRECTION ( 'NONE',  ( 0.000000000000000000, 0.000000000000000000, -1.000000000000000000 ) ) ;
#84 = FACE_OUTER_BOUND ( 'NONE', #885, .T. ) ;
#85 = AXIS2_PLACEMENT_3D ( 'NONE', #756, #306, #426 ) ;
#86 = DIRECTION ( 'NONE',  ( -1.000000000000000000, -0.000000000000000000, -0.000000000000000000 ) ) ;
#87 = DIRECTION ( 'NONE',  ( 0.000000000000000000, -1.000000000000000000, 0.000000000000000000 ) ) ;
#88 = AXIS2_PLACEMENT_3D ( 'NONE', #189, #611, #466 ) ;
#89 = VECTOR ( 'NONE', #590, 1000.000000000000000 ) ;
#90 = CARTESIAN_POINT ( 'NONE',  ( 75.00000000000001421, 0.000000000000000000, 2.999999999999999556 ) ) ;
#91 = CARTESIAN_POINT ( 'NONE',  ( -33.20000000000000284, 4.330127018922195425, 2.500000000000002220 ) ) ;
#92 = CARTESIAN_POINT ( 'NONE',  ( -32.91846804402499060, -2.886751345948141534, -4.999999999999999112 ) ) ;
#93 = EDGE_CURVE ( 'NONE', #190, #922, #1046, .T. ) ;
#94 = PRODUCT_DEFINITION ( '未知', '', #129, #693 ) ;
#95 = DIRECTION ( 'NONE',  ( 0.000000000000000000, 0.000000000000000000, -1.000000000000000000 ) ) ;
#96 = SHAPE_DEFINITION_REPRESENTATION ( #921, #1035 ) ;
#97 = VERTEX_POINT ( 'NONE', #180 ) ;
#98 = DIRECTION ( 'NONE',  ( 0.000000000000000000, 0.000000000000000000, -1.000000000000000000 ) ) ;
#99 = DIRECTION ( 'NONE',  ( 1.000000000000000000, 0.000000000000000000, 0.000000000000000000 ) ) ;
#100 = CARTESIAN_POINT ( 'NONE',  ( -16.00000000000000000, 1.658312395177695242, 2.500000000000000000 ) ) ;
#101 = ORIENTED_EDGE ( 'NONE', *, *, #776, .F. ) ;
#102 = CIRCLE ( 'NONE', #876, 2.999999999999997335 ) ;
#103 = CARTESIAN_POINT ( 'NONE',  ( -32.91846804402497639, 5.773502691896259087, 7.202968530505228178E-16 ) ) ;
#104 = FACE_OUTER_BOUND ( 'NONE', #151, .T. ) ;
#105 = DIRECTION ( 'NONE',  ( 0.000000000000000000, 0.000000000000000000, -1.000000000000000000 ) ) ;
#106 = LINE ( 'NONE', #22, #1119 ) ;
#107 = ORIENTED_EDGE ( 'NONE', *, *, #217, .T. ) ;
#108 = AXIS2_PLACEMENT_3D ( 'NONE', #9, #380, #368 ) ;
#109 = CIRCLE ( 'NONE', #145, 2.999999999999999112 ) ;
#110 = ADVANCED_FACE ( 'NONE', ( #850 ), #149, .T. ) ;
#111 = AXIS2_PLACEMENT_3D ( 'NONE', #981, #1052, #484 ) ;
#112 = ORIENTED_EDGE ( 'NONE', *, *, #827, .F. ) ;
#113 = AXIS2_PLACEMENT_3D ( 'NONE', #159, #175, #95 ) ;
#114 = CARTESIAN_POINT ( 'NONE',  ( -33.07703284009079425, -1.925295277955428874, -4.999999999999999112 ) ) ;
#115 = FACE_OUTER_BOUND ( 'NONE', #583, .T. ) ;
#116 = DIRECTION ( 'NONE',  ( 0.000000000000000000, -1.000000000000000000, 0.000000000000000000 ) ) ;
#117 = FACE_OUTER_BOUND ( 'NONE', #156, .T. ) ;
#118 = EDGE_CURVE ( 'NONE', #804, #954, #57, .T. ) ;
#119 = ORIENTED_EDGE ( 'NONE', *, *, #558, .T. ) ;
#120 = CARTESIAN_POINT ( 'NONE',  ( -28.19999999999999929, -5.773502691896257311, 1.066291330662765803E-17 ) ) ;
#121 = CARTESIAN_POINT ( 'NONE',  ( -16.00000000000000000, 0.000000000000000000, 0.000000000000000000 ) ) ;
#122 = ORIENTED_EDGE ( 'NONE', *, *, #195, .T. ) ;
#123 = VERTEX_POINT ( 'NONE', #770 ) ;
#124 = PRESENTATION_STYLE_ASSIGNMENT (( #705 ) ) ;
#125 = DIRECTION ( 'NONE',  ( 1.000000000000000000, 3.339945815856412403E-17, -0.000000000000000000 ) ) ;
#126 = AXIS2_PLACEMENT_3D ( 'NONE', #186, #540, #1042 ) ;
#127 = CARTESIAN_POINT ( 'NONE',  ( -33.20000000000000284, -2.533905558963067781E-15, 0.000000000000000000 ) ) ;
#128 = UNCERTAINTY_MEASURE_WITH_UNIT (LENGTH_MEASURE( 1.000000000000000082E-05 ), #880, 'distance_accuracy_value', 'NONE');
#129 = PRODUCT_DEFINITION_FORMATION_WITH_SPECIFIED_SOURCE ( '任何', '', #343, .NOT_KNOWN. ) ;
#130 = MECHANICAL_DESIGN_GEOMETRIC_PRESENTATION_REPRESENTATION (  '', ( #1031 ), #453 ) ;
#131 = VERTEX_POINT ( 'NONE', #427 ) ;
#132 = DIRECTION ( 'NONE',  ( 0.000000000000000000, 0.8660254037844387076, -0.4999999999999998335 ) ) ;
#133 = EDGE_CURVE ( 'NONE', #16, #190, #297, .T. ) ;
#134 = VERTEX_POINT ( 'NONE', #1029 ) ;
#135 = ORIENTED_EDGE ( 'NONE', *, *, #668, .T. ) ;
#136 = CARTESIAN_POINT ( 'NONE',  ( -28.30641669536617755, 3.367876570272819059, 4.166666666666667851 ) ) ;
#137 = CARTESIAN_POINT ( 'NONE',  ( -16.00000000000000000, 5.773502691896259087, 2.500000000000000888 ) ) ;
#138 = EDGE_LOOP ( 'NONE', ( #36, #39, #211 ) ) ;
#139 = ORIENTED_EDGE ( 'NONE', *, *, #436, .F. ) ;
#140 = SURFACE_STYLE_USAGE ( .BOTH. , #1005 ) ;
#141 = VERTEX_POINT ( 'NONE', #1110 ) ;
#142 = AXIS2_PLACEMENT_3D ( 'NONE', #209, #814, #555 ) ;
#143 = ADVANCED_FACE ( 'NONE', ( #342 ), #854, .F. ) ;
#144 = VERTEX_POINT ( 'NONE', #252 ) ;
#145 = AXIS2_PLACEMENT_3D ( 'NONE', #75, #241, #1019 ) ;
#146 = CARTESIAN_POINT ( 'NONE',  ( -28.30641669536617755, 5.292377467571570016, -0.8333333333333325932 ) ) ;
#147 = CARTESIAN_POINT ( 'NONE',  ( -22.00000000000000000, 0.000000000000000000, 2.999999999999997335 ) ) ;
#148 = COLOUR_RGB ( '',1.000000000000000000, 1.000000000000000000, 1.000000000000000000 ) ;
#149 = CONICAL_SURFACE ( 'NONE', #317, 4.999999999999997335, 1.221730476396030163 ) ;
#150 = EDGE_CURVE ( 'NONE', #954, #405, #315, .T. ) ;
#151 = EDGE_LOOP ( 'NONE', ( #556, #182, #395, #153 ) ) ;
#152 = APPLICATION_CONTEXT ( 'automotive_design' ) ;
#153 = ORIENTED_EDGE ( 'NONE', *, *, #487, .T. ) ;
#154 = EDGE_CURVE ( 'NONE', #1066, #378, #454, .T. ) ;
#155 =( NAMED_UNIT ( * ) SI_UNIT ( $, .STERADIAN. ) SOLID_ANGLE_UNIT ( ) );
#156 = EDGE_LOOP ( 'NONE', ( #680, #618, #538, #312, #576, #667 ) ) ;
#157 = FILL_AREA_STYLE_COLOUR ( '', #1043 ) ;
#158 = CARTESIAN_POINT ( 'NONE',  ( -28.19999999999999929, 2.886751345948131320, 5.000000000000000000 ) ) ;
#159 = CARTESIAN_POINT ( 'NONE',  ( -16.00000000000000000, 0.000000000000000000, 0.000000000000000000 ) ) ;
#160 = APPLICATION_PROTOCOL_DEFINITION ( 'draft international standard', 'automotive_design', 1998, #152 ) ;
#161 = AXIS2_PLACEMENT_3D ( 'NONE', #1109, #340, #335 ) ;
#162 = CARTESIAN_POINT ( 'NONE',  ( -28.19999999999999574, -8.645936694330896891E-16, -4.999999999999998224 ) ) ;
#163 = CIRCLE ( 'NONE', #548, 4.999999999999997335 ) ;
#164 = CONICAL_SURFACE ( 'NONE', #251, 4.999999999999997335, 1.221730476396030163 ) ;
#165 = DIRECTION ( 'NONE',  ( 1.000000000000000000, 0.000000000000000000, 0.000000000000000000 ) ) ;
#166 = VECTOR ( 'NONE', #764, 1000.000000000000000 ) ;
#167 = B_SPLINE_CURVE_WITH_KNOTS ( 'NONE', 3,
 ( #889, #223, #483, #640 ),
 .UNSPECIFIED., .F., .F.,
 ( 4, 4 ),
 ( 0.002886982286055805522, 0.005773733632003932338 ),
 .UNSPECIFIED. ) ;
#168 = CARTESIAN_POINT ( 'NONE',  ( -28.19999999999999574, -4.811252243246881832, -1.666666666666664964 ) ) ;
#169 = CARTESIAN_POINT ( 'NONE',  ( -22.00000000000000000, -1.658312395177695686, 2.500000000000000000 ) ) ;
#170 = EDGE_LOOP ( 'NONE', ( #281, #805, #523 ) ) ;
#171 = B_SPLINE_CURVE_WITH_KNOTS ( 'NONE', 3,
 ( #878, #197, #114, #971, #183, #932 ),
 .UNSPECIFIED., .F., .F.,
 ( 4, 2, 4 ),
 ( 0.005007494471719499754, 0.006462840675893761176, 0.007918186880068022598 ),
 .UNSPECIFIED. ) ;
#172 = DIRECTION ( 'NONE',  ( 0.000000000000000000, -1.000000000000000000, -1.126735949052869520E-16 ) ) ;
#173 = CARTESIAN_POINT ( 'NONE',  ( -28.19999999999999929, 0.000000000000000000, 0.000000000000000000 ) ) ;
#174 = EDGE_CURVE ( 'NONE', #234, #222, #537, .T. ) ;
#175 = DIRECTION ( 'NONE',  ( 1.000000000000000000, 0.000000000000000000, 0.000000000000000000 ) ) ;
#176 = EDGE_CURVE ( 'NONE', #361, #922, #979, .T. ) ;
#177 = CARTESIAN_POINT ( 'NONE',  ( -33.20000000000000284, 0.9639288072920363382, 4.999999999999999112 ) ) ;
#178 = CARTESIAN_POINT ( 'NONE',  ( -28.19999999999999574, -4.330127018922196314, -2.499999999999998224 ) ) ;
#179 =( GEOMETRIC_REPRESENTATION_CONTEXT ( 3 ) GLOBAL_UNCERTAINTY_ASSIGNED_CONTEXT ( ( #990 ) ) GLOBAL_UNIT_ASSIGNED_CONTEXT ( ( #269, #718, #609 ) ) REPRESENTATION_CONTEXT ( 'NONE', 'WORKASPACE' ) );
#180 = CARTESIAN_POINT ( 'NONE',  ( -28.48153195597501153, -5.773502691896256422, -5.730250375531071721E-17 ) ) ;
#181 = AXIS2_PLACEMENT_3D ( 'NONE', #546, #882, #116 ) ;
#182 = ORIENTED_EDGE ( 'NONE', *, *, #1100, .F. ) ;
#183 = CARTESIAN_POINT ( 'NONE',  ( -33.20000000000000284, -0.4807835041835030743, -4.999999999999999112 ) ) ;
#184 = CIRCLE ( 'NONE', #494, 2.999999999999997335 ) ;
#185 = ORIENTED_EDGE ( 'NONE', *, *, #914, .F. ) ;
#186 = CARTESIAN_POINT ( 'NONE',  ( -33.20000000000000284, -2.533905558963067781E-15, 0.000000000000000000 ) ) ;
#187 = PLANE ( 'NONE',  #313 ) ;
#188 = DIRECTION ( 'NONE',  ( -1.000000000000000000, -0.000000000000000000, -0.000000000000000000 ) ) ;
#189 = CARTESIAN_POINT ( 'NONE',  ( -37.43999999999999062, 0.000000000000000000, 0.000000000000000000 ) ) ;
#190 = VERTEX_POINT ( 'NONE', #382 ) ;
#191 = CARTESIAN_POINT ( 'NONE',  ( -33.09306968853559283, 1.927323194563004050, 5.000000000000000000 ) ) ;
#192 = FILL_AREA_STYLE_COLOUR ( '', #474 ) ;
#193 = CARTESIAN_POINT ( 'NONE',  ( -30.69999999999999574, -11.86869354863656056, 0.000000000000000000 ) ) ;
#194 = FACE_OUTER_BOUND ( 'NONE', #43, .T. ) ;
#195 = EDGE_CURVE ( 'NONE', #378, #580, #184, .T. ) ;
#196 = ORIENTED_EDGE ( 'NONE', *, *, #216, .T. ) ;
#197 = CARTESIAN_POINT ( 'NONE',  ( -33.00549319544273885, -2.408552069058245149, -4.999999999999999112 ) ) ;
#198 = DIRECTION ( 'NONE',  ( 0.000000000000000000, 0.000000000000000000, 1.000000000000000000 ) ) ;
#199 = LINE ( 'NONE', #11, #1089 ) ;
#200 = VERTEX_POINT ( 'NONE', #370 ) ;
#201 = EDGE_CURVE ( 'NONE', #222, #405, #106, .T. ) ;
#202 = CIRCLE ( 'NONE', #250, 2.439999999999983959 ) ;
#203 = VECTOR ( 'NONE', #637, 1000.000000000000000 ) ;
#204 = EDGE_LOOP ( 'NONE', ( #1060, #1062, #822 ) ) ;
#205 = CIRCLE ( 'NONE', #1120, 4.999999999999997335 ) ;
#206 = VECTOR ( 'NONE', #515, 1000.000000000000000 ) ;
#207 = DIRECTION ( 'NONE',  ( 1.000000000000000000, 0.000000000000000000, 0.000000000000000000 ) ) ;
#208 = FILL_AREA_STYLE_COLOUR ( '', #333 ) ;
#209 = CARTESIAN_POINT ( 'NONE',  ( -28.19999999999999574, -2.366908268170247340E-15, 0.000000000000000000 ) ) ;
#210 = VERTEX_POINT ( 'NONE', #547 ) ;
#211 = ORIENTED_EDGE ( 'NONE', *, *, #464, .F. ) ;
#212 = FACE_OUTER_BOUND ( 'NONE', #31, .T. ) ;
#213 = CARTESIAN_POINT ( 'NONE',  ( -16.00000000000000000, -1.658312395177695686, 2.500000000000000000 ) ) ;
#214 = ORIENTED_EDGE ( 'NONE', *, *, #464, .T. ) ;
#215 = ORIENTED_EDGE ( 'NONE', *, *, #259, .F. ) ;
#216 = EDGE_CURVE ( 'NONE', #134, #1079, #600, .T. ) ;
#217 = EDGE_CURVE ( 'NONE', #564, #144, #199, .T. ) ;
#218 = CARTESIAN_POINT ( 'NONE',  ( -28.48153195597501508, 2.886751345948131320, 5.000000000000000000 ) ) ;
#219 = AXIS2_PLACEMENT_3D ( 'NONE', #1056, #429, #83 ) ;
#220 = FILL_AREA_STYLE_COLOUR ( '', #148 ) ;
#221 = AXIS2_PLACEMENT_3D ( 'NONE', #120, #41, #318 ) ;
#222 = VERTEX_POINT ( 'NONE', #213 ) ;
#223 = CARTESIAN_POINT ( 'NONE',  ( -33.20000000000000284, 3.849001794597507686, 3.333333333333334370 ) ) ;
#224 = CARTESIAN_POINT ( 'NONE',  ( -37.43999999999999062, 3.673940397442056417E-16, -2.999999999999997335 ) ) ;
#225 = ORIENTED_EDGE ( 'NONE', *, *, #949, .F. ) ;
#226 = VERTEX_POINT ( 'NONE', #803 ) ;
#227 = CARTESIAN_POINT ( 'NONE',  ( -33.20000000000000284, -2.533905558963067781E-15, 0.000000000000000000 ) ) ;
#228 = CARTESIAN_POINT ( 'NONE',  ( -16.00000000000000000, 5.773502691896259087, -2.499999999999998668 ) ) ;
#229 = ORIENTED_EDGE ( 'NONE', *, *, #984, .F. ) ;
#230 = EDGE_CURVE ( 'NONE', #1079, #1021, #1068, .T. ) ;
#231 = EDGE_LOOP ( 'NONE', ( #877, #107, #276 ) ) ;
#232 = CARTESIAN_POINT ( 'NONE',  ( -28.19999999999999929, 5.773502691896259087, 9.121829819089984448E-16 ) ) ;
#233 = DIRECTION ( 'NONE',  ( 1.000000000000000000, 0.000000000000000000, 0.000000000000000000 ) ) ;
#234 = VERTEX_POINT ( 'NONE', #100 ) ;
#235 = ADVANCED_FACE ( 'NONE', ( #42, #280 ), #875, .F. ) ;
#236 = ORIENTED_EDGE ( 'NONE', *, *, #763, .T. ) ;
#237 = PRESENTATION_STYLE_ASSIGNMENT (( #1013 ) ) ;
#238 = CONICAL_SURFACE ( 'NONE', #860, 4.999999999999997335, 1.221730476396030163 ) ;
#239 = CIRCLE ( 'NONE', #113, 2.999999999999997335 ) ;
#240 = ORIENTED_EDGE ( 'NONE', *, *, #282, .T. ) ;
#241 = DIRECTION ( 'NONE',  ( 1.000000000000000000, 0.000000000000000000, 0.000000000000000000 ) ) ;
#242 = CARTESIAN_POINT ( 'NONE',  ( -28.32296715990920077, -1.925295277955421325, -4.999999999999997335 ) ) ;
#243 = ORIENTED_EDGE ( 'NONE', *, *, #928, .F. ) ;
#244 = DIRECTION ( 'NONE',  ( 0.7071067811865464625, 0.000000000000000000, -0.7071067811865486830 ) ) ;
#245 = EDGE_CURVE ( 'NONE', #899, #1004, #918, .T. ) ;
#246 = DIRECTION ( 'NONE',  ( 0.000000000000000000, 0.000000000000000000, -1.000000000000000000 ) ) ;
#247 = SURFACE_STYLE_FILL_AREA ( #671 ) ;
#248 = PLANE ( 'NONE',  #977 ) ;
#249 = CARTESIAN_POINT ( 'NONE',  ( -28.48153195597501508, -2.886751345948130876, -5.000000000000000000 ) ) ;
#250 = AXIS2_PLACEMENT_3D ( 'NONE', #1080, #980, #731 ) ;
#251 = AXIS2_PLACEMENT_3D ( 'NONE', #993, #1088, #644 ) ;
#252 = CARTESIAN_POINT ( 'NONE',  ( -32.91846804402497639, 5.773502691896259087, 7.202968530505228178E-16 ) ) ;
#253 = VECTOR ( 'NONE', #685, 1000.000000000000000 ) ;
#254 = ADVANCED_FACE ( 'NONE', ( #194 ), #238, .T. ) ;
#255 = DIRECTION ( 'NONE',  ( 1.000000000000000000, 3.339945815856412403E-17, -0.000000000000000000 ) ) ;
#256 = DIRECTION ( 'NONE',  ( 1.000000000000000000, -0.000000000000000000, -0.000000000000000000 ) ) ;
#257 = DIRECTION ( 'NONE',  ( 1.000000000000000000, 3.339945815856412403E-17, -0.000000000000000000 ) ) ;
#258 = EDGE_LOOP ( 'NONE', ( #1099, #635, #656, #1095, #1008, #808 ) ) ;
#259 = EDGE_CURVE ( 'NONE', #1007, #200, #632, .T. ) ;
#260 = CARTESIAN_POINT ( 'NONE',  ( -28.19999999999999574, -4.330127018922196314, -2.499999999999998224 ) ) ;
#261 = LINE ( 'NONE', #929, #810 ) ;
#262 = ADVANCED_FACE ( 'NONE', ( #117 ), #393, .F. ) ;
#263 = DIRECTION ( 'NONE',  ( -0.3420201433256683798, -0.9396926207859085389, 0.000000000000000000 ) ) ;
#264 = LINE ( 'NONE', #530, #456 ) ;
#265 = CIRCLE ( 'NONE', #692, 4.999999999999997335 ) ;
#266 = PRODUCT_RELATED_PRODUCT_CATEGORY ( 'part', '', ( #343 ) ) ;
#267 = EDGE_LOOP ( 'NONE', ( #710, #733, #654 ) ) ;
#268 = FACE_OUTER_BOUND ( 'NONE', #52, .T. ) ;
#269 =( LENGTH_UNIT ( ) NAMED_UNIT ( * ) SI_UNIT ( .MILLI., .METRE. ) );
#270 = STYLED_ITEM ( 'NONE', ( #124 ), #608 ) ;
#271 = CARTESIAN_POINT ( 'NONE',  ( -28.22570962414504336, -0.9620188787175971701, 4.999999999999998224 ) ) ;
#272 = ORIENTED_EDGE ( 'NONE', *, *, #472, .F. ) ;
#273 =( GEOMETRIC_REPRESENTATION_CONTEXT ( 3 ) GLOBAL_UNCERTAINTY_ASSIGNED_CONTEXT ( ( #892 ) ) GLOBAL_UNIT_ASSIGNED_CONTEXT ( ( #24, #962, #591 ) ) REPRESENTATION_CONTEXT ( 'NONE', 'WORKASPACE' ) );
#274 = AXIS2_PLACEMENT_3D ( 'NONE', #643, #49, #292 ) ;
#275 =( NAMED_UNIT ( * ) SI_UNIT ( $, .STERADIAN. ) SOLID_ANGLE_UNIT ( ) );
#276 = ORIENTED_EDGE ( 'NONE', *, *, #1018, .F. ) ;
#277 = LINE ( 'NONE', #1033, #933 ) ;
#278 = CARTESIAN_POINT ( 'NONE',  ( -16.00000000000000000, 1.658312395177696352, -2.499999999999999556 ) ) ;
#279 = FACE_OUTER_BOUND ( 'NONE', #499, .T. ) ;
#280 = FACE_BOUND ( 'NONE', #716, .T. ) ;
#281 = ORIENTED_EDGE ( 'NONE', *, *, #623, .F. ) ;
#282 = EDGE_CURVE ( 'NONE', #872, #1066, #788, .T. ) ;
#283 = VERTEX_POINT ( 'NONE', #452 ) ;
#284 = LINE ( 'NONE', #873, #310 ) ;
#285 = CARTESIAN_POINT ( 'NONE',  ( -28.19999999999999929, 4.330127018922194537, -2.500000000000000888 ) ) ;
#286 = CYLINDRICAL_SURFACE ( 'NONE', #372, 2.999999999999997335 ) ;
#287 = CARTESIAN_POINT ( 'NONE',  ( -28.19999999999999574, -4.330127018922194537, 2.499999999999997780 ) ) ;
#288 = SURFACE_STYLE_USAGE ( .BOTH. , #1061 ) ;
#289 = ORIENTED_EDGE ( 'NONE', *, *, #1111, .T. ) ;
#290 = CONICAL_SURFACE ( 'NONE', #755, 11.86869354863655879, 1.221730476396031051 ) ;
#291 = DIRECTION ( 'NONE',  ( 0.000000000000000000, -1.000000000000000000, -3.004629197474316090E-16 ) ) ;
#292 = DIRECTION ( 'NONE',  ( 0.000000000000000000, -1.000000000000000000, 0.000000000000000000 ) ) ;
#293 = DIRECTION ( 'NONE',  ( 0.000000000000000000, 0.000000000000000000, -1.000000000000000000 ) ) ;
#294 = ORIENTED_EDGE ( 'NONE', *, *, #323, .T. ) ;
#295 = B_SPLINE_CURVE_WITH_KNOTS ( 'NONE', 3,
 ( #29, #616, #967, #287 ),
 .UNSPECIFIED., .F., .F.,
 ( 4, 4 ),
 ( 2.309401076759167208E-07, 0.002886982286055802052 ),
 .UNSPECIFIED. ) ;
#296 = ORIENTED_EDGE ( 'NONE', *, *, #633, .T. ) ;
#297 = CIRCLE ( 'NONE', #353, 2.439999999999983959 ) ;
#298 = CARTESIAN_POINT ( 'NONE',  ( -28.30641669536617400, -3.367876570272819503, 4.166666666666662522 ) ) ;
#299 =( NAMED_UNIT ( * ) SI_UNIT ( $, .STERADIAN. ) SOLID_ANGLE_UNIT ( ) );
#300 = CARTESIAN_POINT ( 'NONE',  ( -16.00000000000000000, 0.000000000000000000, 0.000000000000000000 ) ) ;
#301 = ORIENTED_EDGE ( 'NONE', *, *, #133, .F. ) ;
#302 = EDGE_CURVE ( 'NONE', #97, #1015, #295, .T. ) ;
#303 = ADVANCED_FACE ( 'NONE', ( #629 ), #664, .T. ) ;
#304 = ORIENTED_EDGE ( 'NONE', *, *, #418, .T. ) ;
#305 = CARTESIAN_POINT ( 'NONE',  ( -33.20000000000000284, 3.849001794597506354, -3.333333333333333925 ) ) ;
#306 = DIRECTION ( 'NONE',  ( 1.000000000000000000, 0.000000000000000000, 0.000000000000000000 ) ) ;
#307 = VERTEX_POINT ( 'NONE', #407 ) ;
#308 = AXIS2_PLACEMENT_3D ( 'NONE', #445, #596, #613 ) ;
#309 = DIRECTION ( 'NONE',  ( 0.000000000000000000, 1.000000000000000000, 0.000000000000000000 ) ) ;
#310 = VECTOR ( 'NONE', #785, 1000.000000000000000 ) ;
#311 = DIRECTION ( 'NONE',  ( 0.000000000000000000, 0.4999999999999998335, 0.8660254037844387076 ) ) ;
#312 = ORIENTED_EDGE ( 'NONE', *, *, #6, .F. ) ;
#313 = AXIS2_PLACEMENT_3D ( 'NONE', #978, #559, #362 ) ;
#314 = AXIS2_PLACEMENT_3D ( 'NONE', #791, #384, #714 ) ;
#315 = CIRCLE ( 'NONE', #723, 2.999999999999997335 ) ;
#316 = ORIENTED_EDGE ( 'NONE', *, *, #863, .T. ) ;
#317 = AXIS2_PLACEMENT_3D ( 'NONE', #679, #674, #942 ) ;
#318 = DIRECTION ( 'NONE',  ( 0.000000000000000000, -0.4999999999999997224, 0.8660254037844388186 ) ) ;
#319 = EDGE_CURVE ( 'NONE', #872, #366, #939, .T. ) ;
#320 =( NAMED_UNIT ( * ) PLANE_ANGLE_UNIT ( ) SI_UNIT ( $, .RADIAN. ) );
#321 = ADVANCED_FACE ( 'NONE', ( #582 ), #824, .T. ) ;
#322 = ORIENTED_EDGE ( 'NONE', *, *, #118, .T. ) ;
#323 = EDGE_CURVE ( 'NONE', #1066, #580, #920, .T. ) ;
#324 = EDGE_LOOP ( 'NONE', ( #784, #7, #782, #736 ) ) ;
#325 = CARTESIAN_POINT ( 'NONE',  ( -28.19999999999999574, 4.811252243246881832, -1.666666666666666519 ) ) ;
#326 = CARTESIAN_POINT ( 'NONE',  ( -22.00000000000000000, 3.673940397442056417E-16, -2.999999999999997335 ) ) ;
#327 = EDGE_LOOP ( 'NONE', ( #139, #215, #867 ) ) ;
#328 = ORIENTED_EDGE ( 'NONE', *, *, #259, .T. ) ;
#329 = CARTESIAN_POINT ( 'NONE',  ( -16.00000000000000000, 8.673617379884035472E-16, 4.336808689942017736E-16 ) ) ;
#330 = DIRECTION ( 'NONE',  ( 0.000000000000000000, -1.000000000000000000, -2.253471898105739040E-16 ) ) ;
#331 = EDGE_LOOP ( 'NONE', ( #48, #976, #122, #660, #649, #809, #304, #403, #913, #1069, #214, #612 ) ) ;
#332 = CIRCLE ( 'NONE', #937, 2.999999999999997335 ) ;
#333 = COLOUR_RGB ( '',1.000000000000000000, 1.000000000000000000, 1.000000000000000000 ) ;
#334 = CARTESIAN_POINT ( 'NONE',  ( -33.00549319544275306, -2.408552069058190970, 4.999999999999999112 ) ) ;
#335 = DIRECTION ( 'NONE',  ( 0.000000000000000000, -1.000000000000000000, 0.000000000000000000 ) ) ;
#336 = AXIS2_PLACEMENT_3D ( 'NONE', #751, #233, #401 ) ;
#337 = ORIENTED_EDGE ( 'NONE', *, *, #195, .F. ) ;
#338 = EDGE_CURVE ( 'NONE', #1004, #399, #50, .T. ) ;
#339 = ADVANCED_FACE ( 'NONE', ( #830 ), #497, .F. ) ;
#340 = DIRECTION ( 'NONE',  ( -1.000000000000000000, -3.339945815856412403E-17, 0.000000000000000000 ) ) ;
#341 = B_SPLINE_CURVE_WITH_KNOTS ( 'NONE', 3,
 ( #587, #927, #406, #672, #334, #425 ),
 .UNSPECIFIED., .F., .F.,
 ( 4, 2, 4 ),
 ( 0.01547383287954935162, 0.01692395365886007960, 0.01837407443817080932 ),
 .UNSPECIFIED. ) ;
#342 = FACE_OUTER_BOUND ( 'NONE', #448, .T. ) ;
#343 = PRODUCT ( '不锈钢迷你型CTMA系列气缸[CTMA-16x25-S-CA-SDB]_16活塞杆', '不锈钢迷你型CTMA系列气缸[CTMA-16x25-S-CA-SDB]_16活塞杆', '', ( #871 ) ) ;
#344 = CARTESIAN_POINT ( 'NONE',  ( -28.19999999999999929, -2.886751345948129543, 4.999999999999999112 ) ) ;
#345 = CARTESIAN_POINT ( 'NONE',  ( -33.20000000000000284, -3.285062858331646804E-15, 4.999999999999999112 ) ) ;
#346 = DIRECTION ( 'NONE',  ( -1.000000000000000000, -0.000000000000000000, -0.000000000000000000 ) ) ;
#347 = CIRCLE ( 'NONE', #916, 4.999999999999997335 ) ;
#348 = DIRECTION ( 'NONE',  ( 1.000000000000000000, 3.339945815856412403E-17, -0.000000000000000000 ) ) ;
#349 = CARTESIAN_POINT ( 'NONE',  ( -28.48153195597501508, 2.886751345948131320, 5.000000000000000000 ) ) ;
#350 = AXIS2_PLACEMENT_3D ( 'NONE', #44, #1064, #1103 ) ;
#351 = FACE_OUTER_BOUND ( 'NONE', #631, .T. ) ;
#352 = ADVANCED_FACE ( 'NONE', ( #45 ), #659, .F. ) ;
#353 = AXIS2_PLACEMENT_3D ( 'NONE', #866, #424, #767 ) ;
#354 = DIRECTION ( 'NONE',  ( 1.000000000000000000, 3.339945815856412403E-17, -0.000000000000000000 ) ) ;
#355 = EDGE_CURVE ( 'NONE', #468, #467, #529, .T. ) ;
#356 = DIRECTION ( 'NONE',  ( -1.000000000000000000, -3.339945815856412403E-17, 0.000000000000000000 ) ) ;
#357 = LINE ( 'NONE', #423, #510 ) ;
#358 = DIRECTION ( 'NONE',  ( 1.000000000000000000, 0.000000000000000000, 0.000000000000000000 ) ) ;
#359 = CARTESIAN_POINT ( 'NONE',  ( -30.69999999999999574, -2.450406913566657561E-15, 0.000000000000000000 ) ) ;
#360 = ADVANCED_FACE ( 'NONE', ( #732 ), #164, .T. ) ;
#361 = VERTEX_POINT ( 'NONE', #224 ) ;
#362 = DIRECTION ( 'NONE',  ( 0.000000000000000000, 0.000000000000000000, -1.000000000000000000 ) ) ;
#363 = DIRECTION ( 'NONE',  ( 0.000000000000000000, 1.000000000000000000, 0.000000000000000000 ) ) ;
#364 = DIRECTION ( 'NONE',  ( 1.000000000000000000, -0.000000000000000000, -0.000000000000000000 ) ) ;
#365 = EDGE_LOOP ( 'NONE', ( #996, #491, #642 ) ) ;
#366 = VERTEX_POINT ( 'NONE', #326 ) ;
#367 = CARTESIAN_POINT ( 'NONE',  ( -33.09358330463381748, 5.292377467571570016, -0.8333333333333340365 ) ) ;
#368 = DIRECTION ( 'NONE',  ( 0.000000000000000000, 0.000000000000000000, 1.000000000000000000 ) ) ;
#369 = CARTESIAN_POINT ( 'NONE',  ( -28.48153195597500087, -2.886751345948140646, 4.999999999999999112 ) ) ;
#370 = CARTESIAN_POINT ( 'NONE',  ( -28.19999999999999574, -3.118065567538826362E-15, 4.999999999999999112 ) ) ;
#371 = ADVANCED_FACE ( 'NONE', ( #490 ), #836, .F. ) ;
#372 = AXIS2_PLACEMENT_3D ( 'NONE', #973, #86, #198 ) ;
#373 = EDGE_LOOP ( 'NONE', ( #101, #926, #543, #25 ) ) ;
#374 = DIRECTION ( 'NONE',  ( 0.000000000000000000, 0.000000000000000000, -1.000000000000000000 ) ) ;
#375 = CARTESIAN_POINT ( 'NONE',  ( -33.20000000000000284, 0.000000000000000000, 0.000000000000000000 ) ) ;
#376 = CARTESIAN_POINT ( 'NONE',  ( -33.20000000000000284, -3.849001794597506354, 3.333333333333331705 ) ) ;
#377 = CARTESIAN_POINT ( 'NONE',  ( -32.91846804402497639, -5.773502691896257311, 5.281701249156952622E-16 ) ) ;
#378 = VERTEX_POINT ( 'NONE', #912 ) ;
#379 = ORIENTED_EDGE ( 'NONE', *, *, #27, .T. ) ;
#380 = DIRECTION ( 'NONE',  ( -1.000000000000000000, -0.000000000000000000, -0.000000000000000000 ) ) ;
#381 = PLANE ( 'NONE',  #221 ) ;
#382 = CARTESIAN_POINT ( 'NONE',  ( -38.00000000000000000, 3.331039293680788910E-16, 2.439999999999983959 ) ) ;
#383 = ORIENTED_EDGE ( 'NONE', *, *, #245, .T. ) ;
#384 = DIRECTION ( 'NONE',  ( 0.000000000000000000, 0.000000000000000000, 1.000000000000000000 ) ) ;
#385 = EDGE_LOOP ( 'NONE', ( #485, #905, #908, #1048, #1040, #703, #818 ) ) ;
#386 = FILL_AREA_STYLE_COLOUR ( '', #450 ) ;
#387 = CARTESIAN_POINT ( 'NONE',  ( -33.20000000000000284, -4.330127018922196314, -2.499999999999998224 ) ) ;
#388 = CONICAL_SURFACE ( 'NONE', #1102, 4.999999999999997335, 1.221730476396030163 ) ;
#389 = ORIENTED_EDGE ( 'NONE', *, *, #776, .T. ) ;
#390 = ADVANCED_FACE ( 'NONE', ( #55, #1014 ), #502, .T. ) ;
#391 = AXIS2_PLACEMENT_3D ( 'NONE', #902, #999, #907 ) ;
#392 = ORIENTED_EDGE ( 'NONE', *, *, #174, .F. ) ;
#393 = PLANE ( 'NONE',  #717 ) ;
#394 = B_SPLINE_CURVE_WITH_KNOTS ( 'NONE', 3,
 ( #441, #1115, #682, #18 ),
 .UNSPECIFIED., .F., .F.,
 ( 4, 4 ),
 ( 2.309401076758362791E-07, 0.002886982286055805522 ),
 .UNSPECIFIED. ) ;
#395 = ORIENTED_EDGE ( 'NONE', *, *, #657, .T. ) ;
#396 = SURFACE_STYLE_FILL_AREA ( #465 ) ;
#397 = ORIENTED_EDGE ( 'NONE', *, *, #943, .F. ) ;
#398 = ADVANCED_FACE ( 'NONE', ( #84 ), #699, .T. ) ;
#399 = VERTEX_POINT ( 'NONE', #666 ) ;
#400 = CARTESIAN_POINT ( 'NONE',  ( -22.00000000000000000, -1.658312395177694798, -2.500000000000000444 ) ) ;
#401 = DIRECTION ( 'NONE',  ( 0.000000000000000000, 0.000000000000000000, -1.000000000000000000 ) ) ;
#402 = ADVANCED_FACE ( 'NONE', ( #430 ), #796, .T. ) ;
#403 = ORIENTED_EDGE ( 'NONE', *, *, #77, .F. ) ;
#404 = AXIS2_PLACEMENT_3D ( 'NONE', #72, #81, #857 ) ;
#405 = VERTEX_POINT ( 'NONE', #169 ) ;
#406 = CARTESIAN_POINT ( 'NONE',  ( -33.17429037585494456, -0.9620188787175952827, 4.999999999999999112 ) ) ;
#407 = CARTESIAN_POINT ( 'NONE',  ( -33.20000000000000284, 0.000000000000000000, 2.999999999999997335 ) ) ;
#408 = EDGE_LOOP ( 'NONE', ( #567, #1073 ) ) ;
#409 = ORIENTED_EDGE ( 'NONE', *, *, #855, .T. ) ;
#410 = SURFACE_SIDE_STYLE ('',( #505 ) ) ;
#411 = CARTESIAN_POINT ( 'NONE',  ( -28.19999999999999574, -2.366908268170247340E-15, 0.000000000000000000 ) ) ;
#412 = ORIENTED_EDGE ( 'NONE', *, *, #47, .F. ) ;
#413 = B_SPLINE_CURVE_WITH_KNOTS ( 'NONE', 3,
 ( #285, #801, #806, #545 ),
 .UNSPECIFIED., .F., .F.,
 ( 4, 4 ),
 ( 0.002886982286055806389, 0.005773733632003931471 ),
 .UNSPECIFIED. ) ;
#414 = ORIENTED_EDGE ( 'NONE', *, *, #150, .T. ) ;
#415 = DIRECTION ( 'NONE',  ( 0.000000000000000000, 0.000000000000000000, -1.000000000000000000 ) ) ;
#416 = DIRECTION ( 'NONE',  ( 0.000000000000000000, 1.126735949052869520E-16, -1.000000000000000000 ) ) ;
#417 = VERTEX_POINT ( 'NONE', #519 ) ;
#418 = EDGE_CURVE ( 'NONE', #226, #30, #1000, .T. ) ;
#419 = EDGE_CURVE ( 'NONE', #16, #361, #774, .T. ) ;
#420 = STYLED_ITEM ( 'NONE', ( #888 ), #578 ) ;
#421 = VECTOR ( 'NONE', #478, 1000.000000000000000 ) ;
#422 =( NAMED_UNIT ( * ) SI_UNIT ( $, .STERADIAN. ) SOLID_ANGLE_UNIT ( ) );
#423 = CARTESIAN_POINT ( 'NONE',  ( -28.19999999999999929, 2.886751345948131320, 5.000000000000000000 ) ) ;
#424 = DIRECTION ( 'NONE',  ( -1.000000000000000000, -0.000000000000000000, -0.000000000000000000 ) ) ;
#425 = CARTESIAN_POINT ( 'NONE',  ( -32.91846804402497639, -2.886751345948129543, 4.999999999999999112 ) ) ;
#426 = DIRECTION ( 'NONE',  ( 0.000000000000000000, 0.000000000000000000, -1.000000000000000000 ) ) ;
#427 = CARTESIAN_POINT ( 'NONE',  ( -32.91846804402499060, -2.886751345948141534, -4.999999999999999112 ) ) ;
#428 = ADVANCED_FACE ( 'NONE', ( #951 ), #588, .F. ) ;
#429 = DIRECTION ( 'NONE',  ( 1.000000000000000000, 0.000000000000000000, 0.000000000000000000 ) ) ;
#430 = FACE_OUTER_BOUND ( 'NONE', #267, .T. ) ;
#431 = DIRECTION ( 'NONE',  ( 0.000000000000000000, 0.000000000000000000, -1.000000000000000000 ) ) ;
#432 = EDGE_CURVE ( 'NONE', #573, #1083, #37, .T. ) ;
#433 = UNCERTAINTY_MEASURE_WITH_UNIT (LENGTH_MEASURE( 1.000000000000000082E-05 ), #500, 'distance_accuracy_value', 'NONE');
#434 = AXIS2_PLACEMENT_3D ( 'NONE', #82, #670, #246 ) ;
#435 = CARTESIAN_POINT ( 'NONE',  ( -28.19999999999999574, 4.330127018922195425, 2.500000000000001332 ) ) ;
#436 = EDGE_CURVE ( 'NONE', #200, #477, #851, .T. ) ;
#437 = DIRECTION ( 'NONE',  ( 1.000000000000000000, 3.339945815856412403E-17, -0.000000000000000000 ) ) ;
#438 = VECTOR ( 'NONE', #621, 1000.000000000000000 ) ;
#439 = ORIENTED_EDGE ( 'NONE', *, *, #6, .T. ) ;
#440 = VERTEX_POINT ( 'NONE', #345 ) ;
#441 = CARTESIAN_POINT ( 'NONE',  ( -32.91846804402497639, 5.773502691896259087, 7.202968530505228178E-16 ) ) ;
#442 = DIRECTION ( 'NONE',  ( -1.000000000000000000, -0.000000000000000000, -0.000000000000000000 ) ) ;
#443 = CARTESIAN_POINT ( 'NONE',  ( -22.00000000000000000, 0.000000000000000000, 2.999999999999997335 ) ) ;
#444 = EDGE_LOOP ( 'NONE', ( #243, #831, #1010 ) ) ;
#445 = CARTESIAN_POINT ( 'NONE',  ( -30.69999999999999574, -2.450406913566657561E-15, 0.000000000000000000 ) ) ;
#446 = CARTESIAN_POINT ( 'NONE',  ( -28.19999999999999574, -3.118065567538826362E-15, 4.999999999999999112 ) ) ;
#447 = CARTESIAN_POINT ( 'NONE',  ( -33.20000000000000284, -5.773502691896257311, 2.665728326656911426E-18 ) ) ;
#448 = EDGE_LOOP ( 'NONE', ( #294, #337, #64 ) ) ;
#449 = CARTESIAN_POINT ( 'NONE',  ( -28.19999999999999929, 0.000000000000000000, 0.000000000000000000 ) ) ;
#450 = COLOUR_RGB ( '',1.000000000000000000, 1.000000000000000000, 1.000000000000000000 ) ;
#451 = CARTESIAN_POINT ( 'NONE',  ( -28.19999999999999574, 0.9639288072917591155, -4.999999999999998224 ) ) ;
#452 = CARTESIAN_POINT ( 'NONE',  ( -28.48153195597501508, 2.886751345948132208, -4.999999999999997335 ) ) ;
#453 =( GEOMETRIC_REPRESENTATION_CONTEXT ( 3 ) GLOBAL_UNCERTAINTY_ASSIGNED_CONTEXT ( ( #709 ) ) GLOBAL_UNIT_ASSIGNED_CONTEXT ( ( #737, #1087, #299 ) ) REPRESENTATION_CONTEXT ( 'NONE', 'WORKASPACE' ) );
#454 = CIRCLE ( 'NONE', #675, 2.999999999999997335 ) ;
#455 =( LENGTH_UNIT ( ) NAMED_UNIT ( * ) SI_UNIT ( .MILLI., .METRE. ) );
#456 = VECTOR ( 'NONE', #844, 1000.000000000000000 ) ;
#457 = ORIENTED_EDGE ( 'NONE', *, *, #1096, .T. ) ;
#458 = DIRECTION ( 'NONE',  ( 1.000000000000000000, 3.339945815856412403E-17, -0.000000000000000000 ) ) ;
#459 = FACE_OUTER_BOUND ( 'NONE', #324, .T. ) ;
#460 = DIRECTION ( 'NONE',  ( 1.000000000000000000, 0.000000000000000000, 0.000000000000000000 ) ) ;
#461 = PRESENTATION_STYLE_ASSIGNMENT (( #288 ) ) ;
#462 = ORIENTED_EDGE ( 'NONE', *, *, #1107, .T. ) ;
#463 = DIRECTION ( 'NONE',  ( 0.000000000000000000, 1.000000000000000000, 0.000000000000000000 ) ) ;
#464 = EDGE_CURVE ( 'NONE', #234, #399, #845, .T. ) ;
#465 = FILL_AREA_STYLE ('',( #208 ) ) ;
#466 = DIRECTION ( 'NONE',  ( 0.000000000000000000, 0.000000000000000000, -1.000000000000000000 ) ) ;
#467 = VERTEX_POINT ( 'NONE', #178 ) ;
#468 = VERTEX_POINT ( 'NONE', #1124 ) ;
#469 = CONICAL_SURFACE ( 'NONE', #790, 11.86869354863655879, 1.221730476396031051 ) ;
#470 = VERTEX_POINT ( 'NONE', #91 ) ;
#471 = LINE ( 'NONE', #711, #1105 ) ;
#472 = EDGE_CURVE ( 'NONE', #573, #838, #826, .T. ) ;
#473 = DIRECTION ( 'NONE',  ( 1.000000000000000000, 0.000000000000000000, 0.000000000000000000 ) ) ;
#474 = COLOUR_RGB ( '',1.000000000000000000, 1.000000000000000000, 1.000000000000000000 ) ;
#475 =( GEOMETRIC_REPRESENTATION_CONTEXT ( 3 ) GLOBAL_UNCERTAINTY_ASSIGNED_CONTEXT ( ( #128 ) ) GLOBAL_UNIT_ASSIGNED_CONTEXT ( ( #880, #615, #528 ) ) REPRESENTATION_CONTEXT ( 'NONE', 'WORKASPACE' ) );
#476 = VECTOR ( 'NONE', #1081, 1000.000000000000000 ) ;
#477 = VERTEX_POINT ( 'NONE', #349 ) ;
#478 = DIRECTION ( 'NONE',  ( -1.000000000000000000, -0.000000000000000000, -0.000000000000000000 ) ) ;
#479 = DIRECTION ( 'NONE',  ( 0.000000000000000000, 1.000000000000000000, 0.000000000000000000 ) ) ;
#480 = VERTEX_POINT ( 'NONE', #941 ) ;
#481 = ORIENTED_EDGE ( 'NONE', *, *, #1024, .T. ) ;
#482 = EDGE_CURVE ( 'NONE', #477, #141, #357, .T. ) ;
#483 = CARTESIAN_POINT ( 'NONE',  ( -33.09358330463381748, 3.367876570272819503, 4.166666666666667851 ) ) ;
#484 = DIRECTION ( 'NONE',  ( 0.000000000000000000, 0.000000000000000000, -1.000000000000000000 ) ) ;
#485 = ORIENTED_EDGE ( 'NONE', *, *, #1111, .F. ) ;
#486 = B_SPLINE_CURVE_WITH_KNOTS ( 'NONE', 3,
 ( #218, #136, #823, #998 ),
 .UNSPECIFIED., .F., .F.,
 ( 4, 4 ),
 ( 2.309401076754191683E-07, 0.002886982286055802486 ),
 .UNSPECIFIED. ) ;
#487 = EDGE_CURVE ( 'NONE', #922, #361, #645, .T. ) ;
#488 = ORIENTED_EDGE ( 'NONE', *, *, #815, .T. ) ;
#489 = PLANE ( 'NONE',  #526 ) ;
#490 = FACE_OUTER_BOUND ( 'NONE', #626, .T. ) ;
#491 = ORIENTED_EDGE ( 'NONE', *, *, #1067, .F. ) ;
#492 = MECHANICAL_DESIGN_GEOMETRIC_PRESENTATION_REPRESENTATION (  '', ( #646 ), #900 ) ;
#493 = CIRCLE ( 'NONE', #511, 2.999999999999997335 ) ;
#494 = AXIS2_PLACEMENT_3D ( 'NONE', #300, #460, #1065 ) ;
#495 = ORIENTED_EDGE ( 'NONE', *, *, #728, .F. ) ;
#496 = FACE_OUTER_BOUND ( 'NONE', #739, .T. ) ;
#497 = PLANE ( 'NONE',  #577 ) ;
#498 = ORIENTED_EDGE ( 'NONE', *, *, #949, .T. ) ;
#499 = EDGE_LOOP ( 'NONE', ( #316, #744, #1002, #397, #713, #652 ) ) ;
#500 =( LENGTH_UNIT ( ) NAMED_UNIT ( * ) SI_UNIT ( .MILLI., .METRE. ) );
#501 = EDGE_CURVE ( 'NONE', #580, #417, #261, .T. ) ;
#502 = PLANE ( 'NONE',  #85 ) ;
#503 = ADVANCED_FACE ( 'NONE', ( #762 ), #13, .T. ) ;
#504 = ORIENTED_EDGE ( 'NONE', *, *, #946, .F. ) ;
#505 = SURFACE_STYLE_FILL_AREA ( #745 ) ;
#506 = DIRECTION ( 'NONE',  ( 0.000000000000000000, 1.000000000000000000, 0.000000000000000000 ) ) ;
#507 = CONICAL_SURFACE ( 'NONE', #308, 11.86869354863655879, 1.221730476396031051 ) ;
#508 = DIRECTION ( 'NONE',  ( -1.000000000000000000, -3.339945815856412403E-17, 0.000000000000000000 ) ) ;
#509 = ADVANCED_FACE ( 'NONE', ( #1034 ), #597, .F. ) ;
#510 = VECTOR ( 'NONE', #442, 1000.000000000000000 ) ;
#511 = AXIS2_PLACEMENT_3D ( 'NONE', #906, #1071, #896 ) ;
#512 = AXIS2_PLACEMENT_3D ( 'NONE', #897, #473, #293 ) ;
#513 = CARTESIAN_POINT ( 'NONE',  ( -37.43999999999999062, 0.000000000000000000, 2.999999999999997335 ) ) ;
#514 = DIRECTION ( 'NONE',  ( 1.000000000000000000, 0.000000000000000000, 0.000000000000000000 ) ) ;
#515 = DIRECTION ( 'NONE',  ( -1.000000000000000000, -0.000000000000000000, -0.000000000000000000 ) ) ;
#516 = EDGE_CURVE ( 'NONE', #1083, #283, #413, .T. ) ;
#517 = EDGE_CURVE ( 'NONE', #467, #573, #758, .T. ) ;
#518 = CARTESIAN_POINT ( 'NONE',  ( -33.20000000000000284, -3.285062858331646804E-15, 4.999999999999999112 ) ) ;
#519 = CARTESIAN_POINT ( 'NONE',  ( -22.00000000000000000, 1.658312395177696352, -2.499999999999999556 ) ) ;
#520 = CARTESIAN_POINT ( 'NONE',  ( -28.19999999999999929, 5.773502691896259087, 9.121829819089984448E-16 ) ) ;
#521 = CARTESIAN_POINT ( 'NONE',  ( -33.20000000000000284, -2.533905558963067781E-15, 0.000000000000000000 ) ) ;
#522 = CARTESIAN_POINT ( 'NONE',  ( -28.19999999999999574, -3.118065567538826362E-15, 4.999999999999999112 ) ) ;
#523 = ORIENTED_EDGE ( 'NONE', *, *, #302, .F. ) ;
#524 = MECHANICAL_DESIGN_GEOMETRIC_PRESENTATION_REPRESENTATION (  '', ( #270 ), #475 ) ;
#525 = DIRECTION ( 'NONE',  ( 1.000000000000000000, 3.339945815856412403E-17, -0.000000000000000000 ) ) ;
#526 = AXIS2_PLACEMENT_3D ( 'NONE', #329, #575, #415 ) ;
#527 = CARTESIAN_POINT ( 'NONE',  ( -37.43999999999999062, 0.000000000000000000, -2.999999999999997335 ) ) ;
#528 =( NAMED_UNIT ( * ) SI_UNIT ( $, .STERADIAN. ) SOLID_ANGLE_UNIT ( ) );
#529 = CIRCLE ( 'NONE', #40, 4.999999999999997335 ) ;
#530 = CARTESIAN_POINT ( 'NONE',  ( -22.00000000000000000, 3.673940397442056417E-16, -2.999999999999997335 ) ) ;
#531 = AXIS2_PLACEMENT_3D ( 'NONE', #4, #364, #691 ) ;
#532 = ORIENTED_EDGE ( 'NONE', *, *, #150, .F. ) ;
#533 = CARTESIAN_POINT ( 'NONE',  ( -33.20000000000000284, -4.330127018922196314, -2.499999999999998224 ) ) ;
#534 = CARTESIAN_POINT ( 'NONE',  ( -33.20000000000000284, 4.330127018922195425, -2.500000000000001776 ) ) ;
#535 = FACE_OUTER_BOUND ( 'NONE', #828, .T. ) ;
#536 = EDGE_CURVE ( 'NONE', #1015, #123, #1122, .T. ) ;
#537 = LINE ( 'NONE', #1078, #438 ) ;
#538 = ORIENTED_EDGE ( 'NONE', *, *, #1018, .T. ) ;
#539 = ORIENTED_EDGE ( 'NONE', *, *, #746, .F. ) ;
#540 = DIRECTION ( 'NONE',  ( 1.000000000000000000, 3.339945815856412403E-17, -0.000000000000000000 ) ) ;
#541 = CARTESIAN_POINT ( 'NONE',  ( 75.00000000000001421, 0.000000000000000000, 0.000000000000000000 ) ) ;
#542 = CARTESIAN_POINT ( 'NONE',  ( -33.09358330463381748, -5.292377467571570016, -0.8333333333333324822 ) ) ;
#543 = ORIENTED_EDGE ( 'NONE', *, *, #176, .F. ) ;
#544 = DIRECTION ( 'NONE',  ( 0.000000000000000000, 1.000000000000000000, 0.000000000000000000 ) ) ;
#545 = CARTESIAN_POINT ( 'NONE',  ( -28.48153195597501508, 2.886751345948132208, -4.999999999999997335 ) ) ;
#546 = CARTESIAN_POINT ( 'NONE',  ( -30.69999999999999574, -2.450406913566657561E-15, 0.000000000000000000 ) ) ;
#547 = CARTESIAN_POINT ( 'NONE',  ( -32.91846804402497639, 2.886751345948132208, -4.999999999999997335 ) ) ;
#548 = AXIS2_PLACEMENT_3D ( 'NONE', #227, #125, #309 ) ;
#549 = ORIENTED_EDGE ( 'NONE', *, *, #419, .T. ) ;
#550 = VECTOR ( 'NONE', #244, 1000.000000000000000 ) ;
#551 = ADVANCED_FACE ( 'NONE', ( #115 ), #187, .T. ) ;
#552 = ORIENTED_EDGE ( 'NONE', *, *, #1100, .T. ) ;
#553 = SURFACE_SIDE_STYLE ('',( #795 ) ) ;
#554 = CARTESIAN_POINT ( 'NONE',  ( -22.00000000000000000, 1.658312395177694798, 2.500000000000000444 ) ) ;
#555 = DIRECTION ( 'NONE',  ( 0.000000000000000000, 1.000000000000000000, 0.000000000000000000 ) ) ;
#556 = ORIENTED_EDGE ( 'NONE', *, *, #20, .F. ) ;
#557 = ORIENTED_EDGE ( 'NONE', *, *, #133, .T. ) ;
#558 = EDGE_CURVE ( 'NONE', #799, #307, #332, .T. ) ;
#559 = DIRECTION ( 'NONE',  ( 1.000000000000000000, 0.000000000000000000, 0.000000000000000000 ) ) ;
#560 = CYLINDRICAL_SURFACE ( 'NONE', #350, 2.999999999999997335 ) ;
#561 = CARTESIAN_POINT ( 'NONE',  ( -32.91846804402497639, -5.773502691896257311, 5.281701249156952622E-16 ) ) ;
#562 = B_SPLINE_CURVE_WITH_KNOTS ( 'NONE', 3,
 ( #858, #874, #1117, #598 ),
 .UNSPECIFIED., .F., .F.,
 ( 4, 4 ),
 ( 0.002886982286055802486, 0.005773733632003931471 ),
 .UNSPECIFIED. ) ;
#563 = MECHANICAL_DESIGN_GEOMETRIC_PRESENTATION_REPRESENTATION (  '', ( #734 ), #69 ) ;
#564 = VERTEX_POINT ( 'NONE', #1063 ) ;
#565 = PRESENTATION_STYLE_ASSIGNMENT (( #140 ) ) ;
#566 = VECTOR ( 'NONE', #263, 1000.000000000000000 ) ;
#567 = ORIENTED_EDGE ( 'NONE', *, *, #1028, .F. ) ;
#568 = CARTESIAN_POINT ( 'NONE',  ( 75.00000000000001421, 3.673940397442058882E-16, -2.999999999999999556 ) ) ;
#569 = DIRECTION ( 'NONE',  ( -1.000000000000000000, -0.000000000000000000, -0.000000000000000000 ) ) ;
#570 = VERTEX_POINT ( 'NONE', #534 ) ;
#571 = ORIENTED_EDGE ( 'NONE', *, *, #617, .F. ) ;
#572 = CARTESIAN_POINT ( 'NONE',  ( -28.19999999999999929, -2.886751345948129543, 4.999999999999999112 ) ) ;
#573 = VERTEX_POINT ( 'NONE', #32 ) ;
#574 = ORIENTED_EDGE ( 'NONE', *, *, #230, .F. ) ;
#575 = DIRECTION ( 'NONE',  ( 1.000000000000000000, 0.000000000000000000, 0.000000000000000000 ) ) ;
#576 = ORIENTED_EDGE ( 'NONE', *, *, #909, .T. ) ;
#577 = AXIS2_PLACEMENT_3D ( 'NONE', #653, #747, #330 ) ;
#578 = ADVANCED_FACE ( 'NONE', ( #459 ), #986, .T. ) ;
#579 = VECTOR ( 'NONE', #569, 1000.000000000000000 ) ;
#580 = VERTEX_POINT ( 'NONE', #278 ) ;
#581 = CARTESIAN_POINT ( 'NONE',  ( -28.48153195597501508, 5.773502691896259087, 4.772897990306385962E-16 ) ) ;
#582 = FACE_OUTER_BOUND ( 'NONE', #23, .T. ) ;
#583 = EDGE_LOOP ( 'NONE', ( #322, #414, #982 ) ) ;
#584 = FACE_OUTER_BOUND ( 'NONE', #811, .T. ) ;
#585 = CARTESIAN_POINT ( 'NONE',  ( -28.19999999999999574, 0.9639288072920357830, 4.999999999999999112 ) ) ;
#586 = ORIENTED_EDGE ( 'NONE', *, *, #302, .T. ) ;
#587 = CARTESIAN_POINT ( 'NONE',  ( -33.20000000000000284, -3.285062858331646804E-15, 4.999999999999999112 ) ) ;
#588 = PLANE ( 'NONE',  #56 ) ;
#589 = PRESENTATION_LAYER_ASSIGNMENT (  '', '', ( #734 ) ) ;
#590 = DIRECTION ( 'NONE',  ( -1.000000000000000000, -0.000000000000000000, -0.000000000000000000 ) ) ;
#591 =( NAMED_UNIT ( * ) SI_UNIT ( $, .STERADIAN. ) SOLID_ANGLE_UNIT ( ) );
#592 = DIRECTION ( 'NONE',  ( 0.000000000000000000, 0.4999999999999998335, -0.8660254037844387076 ) ) ;
#593 = DIRECTION ( 'NONE',  ( 1.000000000000000000, 3.339945815856412403E-17, -0.000000000000000000 ) ) ;
#594 = CLOSED_SHELL ( 'NONE', ( #79, #578, #1101, #681, #904, #321, #390, #663, #339, #706, #143, #966, #551, #371, #62, #988, #1082, #968, #503, #778, #428, #915, #262, #509, #752, #352, #360, #607, #110, #254, #402, #398, #1017, #608, #235, #303 ) ) ;
#595 = CARTESIAN_POINT ( 'NONE',  ( -22.00000000000000000, 3.673940397442056417E-16, -2.999999999999997335 ) ) ;
#596 = DIRECTION ( 'NONE',  ( -1.000000000000000000, -3.339945815856412403E-17, 0.000000000000000000 ) ) ;
#597 = PLANE ( 'NONE',  #694 ) ;
#598 = CARTESIAN_POINT ( 'NONE',  ( -28.48153195597501508, 5.773502691896259087, 4.772897990306385962E-16 ) ) ;
#599 = CARTESIAN_POINT ( 'NONE',  ( -28.19999999999999574, -2.366908268170247340E-15, 0.000000000000000000 ) ) ;
#600 = B_SPLINE_CURVE_WITH_KNOTS ( 'NONE', 3,
 ( #987, #1059, #807, #377 ),
 .UNSPECIFIED., .F., .F.,
 ( 4, 4 ),
 ( 0.002886982286055804654, 0.005773733632003932338 ),
 .UNSPECIFIED. ) ;
#601 = CARTESIAN_POINT ( 'NONE',  ( -32.91846804402497639, -5.773502691896257311, 5.281701249156952622E-16 ) ) ;
#602 = DIRECTION ( 'NONE',  ( 0.000000000000000000, 1.502314598737158538E-16, -1.000000000000000000 ) ) ;
#603 = CARTESIAN_POINT ( 'NONE',  ( -28.48153195597501508, 2.886751345948132208, -4.999999999999997335 ) ) ;
#604 = CARTESIAN_POINT ( 'NONE',  ( -37.43999999999999062, 3.673940397442056417E-16, 2.999999999999997335 ) ) ;
#605 = CIRCLE ( 'NONE', #126, 4.999999999999997335 ) ;
#606 = ORIENTED_EDGE ( 'NONE', *, *, #323, .F. ) ;
#607 = ADVANCED_FACE ( 'NONE', ( #212 ), #388, .T. ) ;
#608 = ADVANCED_FACE ( 'NONE', ( #104 ), #286, .T. ) ;
#609 =( NAMED_UNIT ( * ) SI_UNIT ( $, .STERADIAN. ) SOLID_ANGLE_UNIT ( ) );
#610 = LINE ( 'NONE', #620, #812 ) ;
#611 = DIRECTION ( 'NONE',  ( 1.000000000000000000, -0.000000000000000000, -0.000000000000000000 ) ) ;
#612 = ORIENTED_EDGE ( 'NONE', *, *, #338, .F. ) ;
#613 = DIRECTION ( 'NONE',  ( 0.000000000000000000, -1.000000000000000000, 0.000000000000000000 ) ) ;
#614 = CARTESIAN_POINT ( 'NONE',  ( -33.20000000000000284, -2.533905558963067781E-15, 0.000000000000000000 ) ) ;
#615 =( NAMED_UNIT ( * ) PLANE_ANGLE_UNIT ( ) SI_UNIT ( $, .RADIAN. ) );
#616 = CARTESIAN_POINT ( 'NONE',  ( -28.30641669536617400, -5.292377467571569127, 0.8333333333333328152 ) ) ;
#617 = EDGE_CURVE ( 'NONE', #872, #417, #610, .T. ) ;
#618 = ORIENTED_EDGE ( 'NONE', *, *, #783, .T. ) ;
#619 = CARTESIAN_POINT ( 'NONE',  ( -28.19999999999999574, -2.366908268170247340E-15, 0.000000000000000000 ) ) ;
#620 = CARTESIAN_POINT ( 'NONE',  ( -22.00000000000000000, 5.773502691896259087, -2.499999999999998668 ) ) ;
#621 = DIRECTION ( 'NONE',  ( 0.000000000000000000, -1.000000000000000000, -1.126735949052869520E-16 ) ) ;
#622 = ORIENTED_EDGE ( 'NONE', *, *, #517, .F. ) ;
#623 = EDGE_CURVE ( 'NONE', #468, #97, #787, .T. ) ;
#624 = CONICAL_SURFACE ( 'NONE', #715, 4.999999999999997335, 1.221730476396030163 ) ;
#625 = B_SPLINE_CURVE_WITH_KNOTS ( 'NONE', 3,
 ( #260, #168, #1049, #944 ),
 .UNSPECIFIED., .F., .F.,
 ( 4, 4 ),
 ( 0.002886982286055805522, 0.005773733632003930603 ),
 .UNSPECIFIED. ) ;
#626 = EDGE_LOOP ( 'NONE', ( #392, #730, #457, #837 ) ) ;
#627 = DIRECTION ( 'NONE',  ( 1.000000000000000000, 3.339945815856412403E-17, -0.000000000000000000 ) ) ;
#628 = DIRECTION ( 'NONE',  ( -1.000000000000000000, -0.000000000000000000, -0.000000000000000000 ) ) ;
#629 = FACE_OUTER_BOUND ( 'NONE', #1091, .T. ) ;
#630 = AXIS2_PLACEMENT_3D ( 'NONE', #750, #1027, #665 ) ;
#631 = EDGE_LOOP ( 'NONE', ( #68, #789, #749 ) ) ;
#632 = CIRCLE ( 'NONE', #142, 4.999999999999997335 ) ;
#633 = EDGE_CURVE ( 'NONE', #887, #134, #1074, .T. ) ;
#634 = AXIS2_PLACEMENT_3D ( 'NONE', #931, #165, #74 ) ;
#635 = ORIENTED_EDGE ( 'NONE', *, *, #984, .T. ) ;
#636 = CARTESIAN_POINT ( 'NONE',  ( -33.09358330463381748, 3.367876570272819059, -4.166666666666666075 ) ) ;
#637 = DIRECTION ( 'NONE',  ( 1.000000000000000000, 0.000000000000000000, 0.000000000000000000 ) ) ;
#638 = ORIENTED_EDGE ( 'NONE', *, *, #1067, .T. ) ;
#639 = ORIENTED_EDGE ( 'NONE', *, *, #34, .T. ) ;
#640 = CARTESIAN_POINT ( 'NONE',  ( -32.91846804402497639, 2.886751345948131764, 5.000000000000000000 ) ) ;
#641 = FILL_AREA_STYLE ('',( #220 ) ) ;
#642 = ORIENTED_EDGE ( 'NONE', *, *, #909, .F. ) ;
#643 = CARTESIAN_POINT ( 'NONE',  ( -30.69999999999999574, -2.450406913566657561E-15, 0.000000000000000000 ) ) ;
#644 = DIRECTION ( 'NONE',  ( 0.000000000000000000, 1.000000000000000000, 0.000000000000000000 ) ) ;
#645 = CIRCLE ( 'NONE', #70, 2.999999999999997335 ) ;
#646 = STYLED_ITEM ( 'NONE', ( #461 ), #1035 ) ;
#647 = ORIENTED_EDGE ( 'NONE', *, *, #319, .F. ) ;
#648 = STYLED_ITEM ( 'NONE', ( #840 ), #321 ) ;
#649 = ORIENTED_EDGE ( 'NONE', *, *, #815, .F. ) ;
#650 = FACE_OUTER_BOUND ( 'NONE', #331, .T. ) ;
#651 = ORIENTED_EDGE ( 'NONE', *, *, #895, .T. ) ;
#652 = ORIENTED_EDGE ( 'NONE', *, *, #1075, .T. ) ;
#653 = CARTESIAN_POINT ( 'NONE',  ( -16.00000000000000000, 5.773502691896259087, -2.499999999999998668 ) ) ;
#654 = ORIENTED_EDGE ( 'NONE', *, *, #729, .F. ) ;
#655 = EDGE_CURVE ( 'NONE', #570, #564, #73, .T. ) ;
#656 = ORIENTED_EDGE ( 'NONE', *, *, #928, .T. ) ;
#657 = EDGE_CURVE ( 'NONE', #307, #922, #707, .T. ) ;
#658 = LINE ( 'NONE', #761, #1086 ) ;
#659 = PLANE ( 'NONE',  #1016 ) ;
#660 = ORIENTED_EDGE ( 'NONE', *, *, #501, .T. ) ;
#661 = PRESENTATION_LAYER_ASSIGNMENT (  '', '', ( #420 ) ) ;
#662 = CIRCLE ( 'NONE', #630, 4.999999999999997335 ) ;
#663 = ADVANCED_FACE ( 'NONE', ( #535 ), #780, .T. ) ;
#664 = CONICAL_SURFACE ( 'NONE', #111, 2.999999999999997335, 0.7853981633974498333 ) ;
#665 = DIRECTION ( 'NONE',  ( 0.000000000000000000, 1.000000000000000000, 0.000000000000000000 ) ) ;
#666 = CARTESIAN_POINT ( 'NONE',  ( -16.00000000000000000, 0.000000000000000000, 2.999999999999997335 ) ) ;
#667 = ORIENTED_EDGE ( 'NONE', *, *, #516, .T. ) ;
#668 = EDGE_CURVE ( 'NONE', #134, #1021, #760, .T. ) ;
#669 = CARTESIAN_POINT ( 'NONE',  ( -28.19999999999999574, -4.330127018922196314, -2.499999999999998224 ) ) ;
#670 = DIRECTION ( 'NONE',  ( 1.000000000000000000, 0.000000000000000000, 0.000000000000000000 ) ) ;
#671 = FILL_AREA_STYLE ('',( #1054 ) ) ;
#672 = CARTESIAN_POINT ( 'NONE',  ( -33.07703284009080136, -1.925295277955304529, 4.999999999999997335 ) ) ;
#673 = CARTESIAN_POINT ( 'NONE',  ( -28.39450680455724552, -2.408552069058236711, -4.999999999999999112 ) ) ;
#674 = DIRECTION ( 'NONE',  ( 1.000000000000000000, 3.339945815856412403E-17, -0.000000000000000000 ) ) ;
#675 = AXIS2_PLACEMENT_3D ( 'NONE', #121, #960, #727 ) ;
#676 = CARTESIAN_POINT ( 'NONE',  ( -28.19999999999999929, 4.330127018922194537, -2.500000000000000888 ) ) ;
#677 = DIRECTION ( 'NONE',  ( 0.000000000000000000, 1.000000000000000000, 0.000000000000000000 ) ) ;
#678 = CARTESIAN_POINT ( 'NONE',  ( -33.20000000000000284, -2.533905558963067781E-15, 0.000000000000000000 ) ) ;
#679 = CARTESIAN_POINT ( 'NONE',  ( -33.20000000000000284, -2.533905558963067781E-15, 0.000000000000000000 ) ) ;
#680 = ORIENTED_EDGE ( 'NONE', *, *, #827, .T. ) ;
#681 = ADVANCED_FACE ( 'NONE', ( #351 ), #997, .T. ) ;
#682 = CARTESIAN_POINT ( 'NONE',  ( -33.20000000000000284, 4.811252243246882720, 1.666666666666668295 ) ) ;
#683 = CARTESIAN_POINT ( 'NONE',  ( -28.19999999999999574, -2.366908268170247340E-15, 0.000000000000000000 ) ) ;
#684 = DIRECTION ( 'NONE',  ( 0.000000000000000000, 0.000000000000000000, -1.000000000000000000 ) ) ;
#685 = DIRECTION ( 'NONE',  ( -1.000000000000000000, -0.000000000000000000, -0.000000000000000000 ) ) ;
#686 = EDGE_CURVE ( 'NONE', #1007, #480, #562, .T. ) ;
#687 = EDGE_LOOP ( 'NONE', ( #825, #462, #821, #112, #970, #800 ) ) ;
#688 = DIRECTION ( 'NONE',  ( 0.000000000000000000, 1.000000000000000000, 0.000000000000000000 ) ) ;
#689 = DIRECTION ( 'NONE',  ( 0.000000000000000000, 0.000000000000000000, -1.000000000000000000 ) ) ;
#690 = CARTESIAN_POINT ( 'NONE',  ( -28.39450680455723841, -2.408552069058194522, 4.999999999999999112 ) ) ;
#691 = DIRECTION ( 'NONE',  ( 0.000000000000000000, 0.000000000000000000, -1.000000000000000000 ) ) ;
#692 = AXIS2_PLACEMENT_3D ( 'NONE', #80, #255, #688 ) ;
#693 = PRODUCT_DEFINITION_CONTEXT ( 'detailed design', #53, 'design' ) ;
#694 = AXIS2_PLACEMENT_3D ( 'NONE', #945, #972, #291 ) ;
#695 = ORIENTED_EDGE ( 'NONE', *, *, #27, .F. ) ;
#696 = DIRECTION ( 'NONE',  ( 0.000000000000000000, 1.000000000000000000, 0.000000000000000000 ) ) ;
#697 = AXIS2_PLACEMENT_3D ( 'NONE', #678, #437, #363 ) ;
#698 = CARTESIAN_POINT ( 'NONE',  ( -28.48153195597500087, -2.886751345948140646, 4.999999999999999112 ) ) ;
#699 = CONICAL_SURFACE ( 'NONE', #15, 4.999999999999997335, 1.221730476396030163 ) ;
#700 = CARTESIAN_POINT ( 'NONE',  ( -28.19999999999999929, -0.4807835041833691259, 4.999999999999997335 ) ) ;
#701 = CARTESIAN_POINT ( 'NONE',  ( -28.19999999999999929, 2.886751345948132208, -4.999999999999997335 ) ) ;
#702 = DIRECTION ( 'NONE',  ( 0.000000000000000000, 1.000000000000000000, 0.000000000000000000 ) ) ;
#703 = ORIENTED_EDGE ( 'NONE', *, *, #930, .F. ) ;
#704 = FACE_OUTER_BOUND ( 'NONE', #231, .T. ) ;
#705 = SURFACE_STYLE_USAGE ( .BOTH. , #1057 ) ;
#706 = ADVANCED_FACE ( 'NONE', ( #1058 ), #965, .T. ) ;
#707 = LINE ( 'NONE', #947, #14 ) ;
#708 = DIRECTION ( 'NONE',  ( 1.000000000000000000, 3.339945815856412403E-17, -0.000000000000000000 ) ) ;
#709 = UNCERTAINTY_MEASURE_WITH_UNIT (LENGTH_MEASURE( 1.000000000000000082E-05 ), #737, 'distance_accuracy_value', 'NONE');
#710 = ORIENTED_EDGE ( 'NONE', *, *, #994, .T. ) ;
#711 = CARTESIAN_POINT ( 'NONE',  ( -28.19999999999999929, 2.886751345948132208, -4.999999999999997335 ) ) ;
#712 = DIRECTION ( 'NONE',  ( 0.000000000000000000, -0.8660254037844387076, 0.4999999999999998335 ) ) ;
#713 = ORIENTED_EDGE ( 'NONE', *, *, #914, .T. ) ;
#714 = DIRECTION ( 'NONE',  ( 1.000000000000000000, 0.000000000000000000, 0.000000000000000000 ) ) ;
#715 = AXIS2_PLACEMENT_3D ( 'NONE', #521, #458, #544 ) ;
#716 = EDGE_LOOP ( 'NONE', ( #552, #119 ) ) ;
#717 = AXIS2_PLACEMENT_3D ( 'NONE', #701, #712, #1072 ) ;
#718 =( NAMED_UNIT ( * ) PLANE_ANGLE_UNIT ( ) SI_UNIT ( $, .RADIAN. ) );
#719 = PRESENTATION_LAYER_ASSIGNMENT (  '', '', ( #646 ) ) ;
#720 = CARTESIAN_POINT ( 'NONE',  ( -33.20000000000000284, -8.673617379884035472E-16, -4.999999999999998224 ) ) ;
#721 = DIRECTION ( 'NONE',  ( 0.000000000000000000, 1.000000000000000000, 0.000000000000000000 ) ) ;
#722 = ORIENTED_EDGE ( 'NONE', *, *, #487, .F. ) ;
#723 = AXIS2_PLACEMENT_3D ( 'NONE', #1036, #953, #431 ) ;
#724 = B_SPLINE_CURVE_WITH_KNOTS ( 'NONE', 3,
 ( #772, #191, #177, #518 ),
 .UNSPECIFIED., .F., .F.,
 ( 4, 4 ),
 ( 0.01256646775352520881, 0.01547383287954935162 ),
 .UNSPECIFIED. ) ;
#725 = EDGE_LOOP ( 'NONE', ( #606, #66, #923, #834 ) ) ;
#726 = CARTESIAN_POINT ( 'NONE',  ( -32.91846804402497639, -2.886751345948129543, 4.999999999999999112 ) ) ;
#727 = DIRECTION ( 'NONE',  ( 0.000000000000000000, 0.000000000000000000, -1.000000000000000000 ) ) ;
#728 = EDGE_CURVE ( 'NONE', #283, #573, #1084, .T. ) ;
#729 = EDGE_CURVE ( 'NONE', #1021, #131, #759, .T. ) ;
#730 = ORIENTED_EDGE ( 'NONE', *, *, #1003, .F. ) ;
#731 = DIRECTION ( 'NONE',  ( 0.000000000000000000, 0.000000000000000000, -1.000000000000000000 ) ) ;
#732 = FACE_OUTER_BOUND ( 'NONE', #444, .T. ) ;
#733 = ORIENTED_EDGE ( 'NONE', *, *, #1107, .F. ) ;
#734 = STYLED_ITEM ( 'NONE', ( #237 ), #983 ) ;
#735 = B_SPLINE_CURVE_WITH_KNOTS ( 'NONE', 3,
 ( #581, #146, #325, #1093 ),
 .UNSPECIFIED., .F., .F.,
 ( 4, 4 ),
 ( 2.309401076764435223E-07, 0.002886982286055806389 ),
 .UNSPECIFIED. ) ;
#736 = ORIENTED_EDGE ( 'NONE', *, *, #657, .F. ) ;
#737 =( LENGTH_UNIT ( ) NAMED_UNIT ( * ) SI_UNIT ( .MILLI., .METRE. ) );
#738 = SURFACE_STYLE_FILL_AREA ( #641 ) ;
#739 = EDGE_LOOP ( 'NONE', ( #439, #481, #409, #841, #651, #961 ) ) ;
#740 = AXIS2_PLACEMENT_3D ( 'NONE', #3, #257, #1125 ) ;
#741 = PRESENTATION_LAYER_ASSIGNMENT (  '', '', ( #648 ) ) ;
#742 = AXIS2_PLACEMENT_3D ( 'NONE', #449, #1, #98 ) ;
#743 = CONICAL_SURFACE ( 'NONE', #531, 2.999999999999997335, 0.7853981633974498333 ) ;
#744 = ORIENTED_EDGE ( 'NONE', *, *, #230, .T. ) ;
#745 = FILL_AREA_STYLE ('',( #157 ) ) ;
#746 = EDGE_CURVE ( 'NONE', #123, #200, #959, .T. ) ;
#747 = DIRECTION ( 'NONE',  ( 0.000000000000000000, -2.253471898105739040E-16, 1.000000000000000000 ) ) ;
#748 = EDGE_LOOP ( 'NONE', ( #695, #539, #963 ) ) ;
#749 = ORIENTED_EDGE ( 'NONE', *, *, #1075, .F. ) ;
#750 = CARTESIAN_POINT ( 'NONE',  ( -33.20000000000000284, -2.533905558963067781E-15, 0.000000000000000000 ) ) ;
#751 = CARTESIAN_POINT ( 'NONE',  ( -22.00000000000000000, 0.000000000000000000, 0.000000000000000000 ) ) ;
#752 = ADVANCED_FACE ( 'NONE', ( #279 ), #381, .F. ) ;
#753 = ORIENTED_EDGE ( 'NONE', *, *, #319, .T. ) ;
#754 = VERTEX_POINT ( 'NONE', #720 ) ;
#755 = AXIS2_PLACEMENT_3D ( 'NONE', #829, #54, #835 ) ;
#756 = CARTESIAN_POINT ( 'NONE',  ( -28.19999999999999929, -5.773502691896257311, 2.665728326656911426E-18 ) ) ;
#757 = ORIENTED_EDGE ( 'NONE', *, *, #536, .T. ) ;
#758 = CIRCLE ( 'NONE', #792, 4.999999999999997335 ) ;
#759 = B_SPLINE_CURVE_WITH_KNOTS ( 'NONE', 3,
 ( #1039, #797, #865, #92 ),
 .UNSPECIFIED., .F., .F.,
 ( 4, 4 ),
 ( 0.002886982286055802052, 0.005773733632003926267 ),
 .UNSPECIFIED. ) ;
#760 = CIRCLE ( 'NONE', #740, 4.999999999999997335 ) ;
#761 = CARTESIAN_POINT ( 'NONE',  ( -28.19999999999999929, -2.886751345948130432, -4.999999999999999112 ) ) ;
#762 = FACE_OUTER_BOUND ( 'NONE', #1011, .T. ) ;
#763 = EDGE_CURVE ( 'NONE', #470, #440, #163, .T. ) ;
#764 = DIRECTION ( 'NONE',  ( 0.7071067811865464625, 8.659560562354947649E-17, 0.7071067811865486830 ) ) ;
#765 = CARTESIAN_POINT ( 'NONE',  ( -33.20000000000000284, -8.673617379884035472E-16, -4.999999999999998224 ) ) ;
#766 = CARTESIAN_POINT ( 'NONE',  ( -28.19999999999999218, -0.4807835041835025192, -4.999999999999997335 ) ) ;
#767 = DIRECTION ( 'NONE',  ( 0.000000000000000000, 0.000000000000000000, -1.000000000000000000 ) ) ;
#768 = CARTESIAN_POINT ( 'NONE',  ( -33.20000000000000284, 4.811252243246880944, -1.666666666666668073 ) ) ;
#769 = CARTESIAN_POINT ( 'NONE',  ( -16.00000000000000000, 0.000000000000000000, 0.000000000000000000 ) ) ;
#770 = CARTESIAN_POINT ( 'NONE',  ( -28.48153195597500087, -2.886751345948140646, 4.999999999999999112 ) ) ;
#771 = COLOUR_RGB ( '',1.000000000000000000, 1.000000000000000000, 1.000000000000000000 ) ;
#772 = CARTESIAN_POINT ( 'NONE',  ( -32.91846804402497639, 2.886751345948131764, 5.000000000000000000 ) ) ;
#773 = CIRCLE ( 'NONE', #742, 2.999999999999997335 ) ;
#774 = LINE ( 'NONE', #527, #550 ) ;
#775 = CARTESIAN_POINT ( 'NONE',  ( -22.00000000000000000, 8.673617379884035472E-16, 4.336808689942017736E-16 ) ) ;
#776 = EDGE_CURVE ( 'NONE', #190, #16, #202, .T. ) ;
#777 = LINE ( 'NONE', #520, #89 ) ;
#778 = ADVANCED_FACE ( 'NONE', ( #802 ), #879, .T. ) ;
#779 = FACE_OUTER_BOUND ( 'NONE', #365, .T. ) ;
#780 = PLANE ( 'NONE',  #938 ) ;
#781 = FACE_OUTER_BOUND ( 'NONE', #373, .T. ) ;
#782 = ORIENTED_EDGE ( 'NONE', *, *, #176, .T. ) ;
#783 = EDGE_CURVE ( 'NONE', #210, #570, #59, .T. ) ;
#784 = ORIENTED_EDGE ( 'NONE', *, *, #558, .F. ) ;
#785 = DIRECTION ( 'NONE',  ( 1.000000000000000000, 0.000000000000000000, 0.000000000000000000 ) ) ;
#786 = SURFACE_STYLE_USAGE ( .BOTH. , #553 ) ;
#787 = LINE ( 'NONE', #193, #566 ) ;
#788 = LINE ( 'NONE', #890, #203 ) ;
#789 = ORIENTED_EDGE ( 'NONE', *, *, #623, .T. ) ;
#790 = AXIS2_PLACEMENT_3D ( 'NONE', #868, #356, #852 ) ;
#791 = CARTESIAN_POINT ( 'NONE',  ( 0.000000000000000000, 0.000000000000000000, 0.000000000000000000 ) ) ;
#792 = AXIS2_PLACEMENT_3D ( 'NONE', #2, #627, #463 ) ;
#793 = ORIENTED_EDGE ( 'NONE', *, *, #432, .F. ) ;
#794 = CARTESIAN_POINT ( 'NONE',  ( -33.20000000000000284, 0.000000000000000000, 0.000000000000000000 ) ) ;
#795 = SURFACE_STYLE_FILL_AREA ( #1044 ) ;
#796 = CONICAL_SURFACE ( 'NONE', #404, 4.999999999999997335, 1.221730476396030163 ) ;
#797 = CARTESIAN_POINT ( 'NONE',  ( -33.20000000000000284, -3.849001794597508130, -3.333333333333330373 ) ) ;
#798 = DIRECTION ( 'NONE',  ( 1.000000000000000000, 0.000000000000000000, 0.000000000000000000 ) ) ;
#799 = VERTEX_POINT ( 'NONE', #28 ) ;
#800 = ORIENTED_EDGE ( 'NONE', *, *, #472, .T. ) ;
#801 = CARTESIAN_POINT ( 'NONE',  ( -28.19999999999999574, 3.849001794597506798, -3.333333333333333037 ) ) ;
#802 = FACE_OUTER_BOUND ( 'NONE', #170, .T. ) ;
#803 = CARTESIAN_POINT ( 'NONE',  ( -28.19999999999999929, 3.673940397442056417E-16, -2.999999999999997335 ) ) ;
#804 = VERTEX_POINT ( 'NONE', #554 ) ;
#805 = ORIENTED_EDGE ( 'NONE', *, *, #1006, .F. ) ;
#806 = CARTESIAN_POINT ( 'NONE',  ( -28.30641669536617755, 3.367876570272819059, -4.166666666666666075 ) ) ;
#807 = CARTESIAN_POINT ( 'NONE',  ( -33.09358330463381748, -5.292377467571569127, 0.8333333333333321491 ) ) ;
#808 = ORIENTED_EDGE ( 'NONE', *, *, #436, .T. ) ;
#809 = ORIENTED_EDGE ( 'NONE', *, *, #47, .T. ) ;
#810 = VECTOR ( 'NONE', #1104, 1000.000000000000000 ) ;
#811 = EDGE_LOOP ( 'NONE', ( #1097, #793, #495 ) ) ;
#812 = VECTOR ( 'NONE', #21, 1000.000000000000000 ) ;
#813 = LINE ( 'NONE', #1077, #421 ) ;
#814 = DIRECTION ( 'NONE',  ( 1.000000000000000000, 3.339945815856412403E-17, -0.000000000000000000 ) ) ;
#815 = EDGE_CURVE ( 'NONE', #366, #417, #493, .T. ) ;
#816 = AXIS2_PLACEMENT_3D ( 'NONE', #447, #798, #884 ) ;
#817 = UNCERTAINTY_MEASURE_WITH_UNIT (LENGTH_MEASURE( 1.000000000000000082E-05 ), #455, 'distance_accuracy_value', 'NONE');
#818 = ORIENTED_EDGE ( 'NONE', *, *, #655, .F. ) ;
#819 = CARTESIAN_POINT ( 'NONE',  ( -33.20000000000000284, 4.330127018922195425, -2.500000000000001776 ) ) ;
#820 = SURFACE_SIDE_STYLE ('',( #738 ) ) ;
#821 = ORIENTED_EDGE ( 'NONE', *, *, #946, .T. ) ;
#822 = ORIENTED_EDGE ( 'NONE', *, *, #1024, .F. ) ;
#823 = CARTESIAN_POINT ( 'NONE',  ( -28.19999999999999574, 3.849001794597507242, 3.333333333333334370 ) ) ;
#824 = CYLINDRICAL_SURFACE ( 'NONE', #391, 2.999999999999997335 ) ;
#825 = ORIENTED_EDGE ( 'NONE', *, *, #943, .T. ) ;
#826 = B_SPLINE_CURVE_WITH_KNOTS ( 'NONE', 3,
 ( #162, #766, #935, #242, #673, #249 ),
 .UNSPECIFIED., .F., .F.,
 ( 4, 2, 4 ),
 ( 0.01547383287945958835, 0.01692395365877007174, 0.01837407443808055860 ),
 .UNSPECIFIED. ) ;
#827 = EDGE_CURVE ( 'NONE', #283, #210, #471, .T. ) ;
#828 = EDGE_LOOP ( 'NONE', ( #498, #383 ) ) ;
#829 = CARTESIAN_POINT ( 'NONE',  ( -30.69999999999999574, -2.450406913566657561E-15, 0.000000000000000000 ) ) ;
#830 = FACE_OUTER_BOUND ( 'NONE', #725, .T. ) ;
#831 = ORIENTED_EDGE ( 'NONE', *, *, #1030, .T. ) ;
#832 = PRESENTATION_LAYER_ASSIGNMENT (  '', '', ( #1031 ) ) ;
#833 = AXIS2_PLACEMENT_3D ( 'NONE', #599, #354, #1025 ) ;
#834 = ORIENTED_EDGE ( 'NONE', *, *, #501, .F. ) ;
#835 = DIRECTION ( 'NONE',  ( 0.000000000000000000, -1.000000000000000000, 0.000000000000000000 ) ) ;
#836 = PLANE ( 'NONE',  #847 ) ;
#837 = ORIENTED_EDGE ( 'NONE', *, *, #201, .F. ) ;
#838 = VERTEX_POINT ( 'NONE', #992 ) ;
#839 = CARTESIAN_POINT ( 'NONE',  ( -22.00000000000000000, 0.000000000000000000, 2.999999999999997335 ) ) ;
#840 = PRESENTATION_STYLE_ASSIGNMENT (( #925 ) ) ;
#841 = ORIENTED_EDGE ( 'NONE', *, *, #482, .F. ) ;
#842 = FACE_OUTER_BOUND ( 'NONE', #138, .T. ) ;
#843 = DIRECTION ( 'NONE',  ( 0.000000000000000000, 0.000000000000000000, -1.000000000000000000 ) ) ;
#844 = DIRECTION ( 'NONE',  ( -1.000000000000000000, -0.000000000000000000, -0.000000000000000000 ) ) ;
#845 = CIRCLE ( 'NONE', #995, 2.999999999999997335 ) ;
#846 = AXIS2_PLACEMENT_3D ( 'NONE', #775, #358, #684 ) ;
#847 = AXIS2_PLACEMENT_3D ( 'NONE', #137, #416, #63 ) ;
#848 = CARTESIAN_POINT ( 'NONE',  ( -28.30641669536617755, -3.367876570272819059, -4.166666666666666075 ) ) ;
#849 = DIRECTION ( 'NONE',  ( 0.000000000000000000, 0.000000000000000000, -1.000000000000000000 ) ) ;
#850 = FACE_OUTER_BOUND ( 'NONE', #204, .T. ) ;
#851 = B_SPLINE_CURVE_WITH_KNOTS ( 'NONE', 3,
 ( #522, #585, #862, #853 ),
 .UNSPECIFIED., .F., .F.,
 ( 4, 4 ),
 ( 0.007918186879753576213, 0.01083602852486146781 ),
 .UNSPECIFIED. ) ;
#852 = DIRECTION ( 'NONE',  ( 0.000000000000000000, -1.000000000000000000, 0.000000000000000000 ) ) ;
#853 = CARTESIAN_POINT ( 'NONE',  ( -28.48153195597501508, 2.886751345948131320, 5.000000000000000000 ) ) ;
#854 = PLANE ( 'NONE',  #434 ) ;
#855 = EDGE_CURVE ( 'NONE', #470, #141, #167, .T. ) ;
#856 = DIRECTION ( 'NONE',  ( 0.000000000000000000, 1.000000000000000000, 0.000000000000000000 ) ) ;
#857 = DIRECTION ( 'NONE',  ( 0.000000000000000000, 1.000000000000000000, 0.000000000000000000 ) ) ;
#858 = CARTESIAN_POINT ( 'NONE',  ( -28.19999999999999574, 4.330127018922195425, 2.500000000000001332 ) ) ;
#859 = CARTESIAN_POINT ( 'NONE',  ( -22.00000000000000000, 3.673940397442056417E-16, -2.999999999999997335 ) ) ;
#860 = AXIS2_PLACEMENT_3D ( 'NONE', #127, #708, #721 ) ;
#861 = CARTESIAN_POINT ( 'NONE',  ( -33.20000000000000284, -2.533905558963067781E-15, 0.000000000000000000 ) ) ;
#862 = CARTESIAN_POINT ( 'NONE',  ( -28.30693031146439864, 1.927323194563004494, 5.000000000000000000 ) ) ;
#863 = EDGE_CURVE ( 'NONE', #97, #1079, #813, .T. ) ;
#864 = CIRCLE ( 'NONE', #833, 4.999999999999997335 ) ;
#865 = CARTESIAN_POINT ( 'NONE',  ( -33.09358330463381748, -3.367876570272821279, -4.166666666666662522 ) ) ;
#866 = CARTESIAN_POINT ( 'NONE',  ( -38.00000000000000000, 0.000000000000000000, 0.000000000000000000 ) ) ;
#867 = ORIENTED_EDGE ( 'NONE', *, *, #895, .F. ) ;
#868 = CARTESIAN_POINT ( 'NONE',  ( -30.69999999999999574, -2.450406913566657561E-15, 0.000000000000000000 ) ) ;
#869 = CARTESIAN_POINT ( 'NONE',  ( -33.20000000000000284, -4.330127018922194537, 2.499999999999998224 ) ) ;
#870 = DIRECTION ( 'NONE',  ( 0.3420201433256692680, 0.9396926207859083169, 0.000000000000000000 ) ) ;
#871 = PRODUCT_CONTEXT ( 'NONE', #152, 'mechanical' ) ;
#872 = VERTEX_POINT ( 'NONE', #400 ) ;
#873 = CARTESIAN_POINT ( 'NONE',  ( -22.00000000000000000, 1.658312395177695242, 2.500000000000000000 ) ) ;
#874 = CARTESIAN_POINT ( 'NONE',  ( -28.19999999999999574, 4.811252243246882720, 1.666666666666667851 ) ) ;
#875 = PLANE ( 'NONE',  #816 ) ;
#876 = AXIS2_PLACEMENT_3D ( 'NONE', #794, #950, #374 ) ;
#877 = ORIENTED_EDGE ( 'NONE', *, *, #655, .T. ) ;
#878 = CARTESIAN_POINT ( 'NONE',  ( -32.91846804402499060, -2.886751345948141534, -4.999999999999999112 ) ) ;
#879 = CONICAL_SURFACE ( 'NONE', #274, 11.86869354863655879, 1.221730476396031051 ) ;
#880 =( LENGTH_UNIT ( ) NAMED_UNIT ( * ) SI_UNIT ( .MILLI., .METRE. ) );
#881 = B_SPLINE_CURVE_WITH_KNOTS ( 'NONE', 3,
 ( #1123, #768, #367, #103 ),
 .UNSPECIFIED., .F., .F.,
 ( 4, 4 ),
 ( 0.002886982286055799450, 0.005773733632003929736 ),
 .UNSPECIFIED. ) ;
#882 = DIRECTION ( 'NONE',  ( -1.000000000000000000, -3.339945815856412403E-17, 0.000000000000000000 ) ) ;
#883 = VECTOR ( 'NONE', #346, 1000.000000000000000 ) ;
#884 = DIRECTION ( 'NONE',  ( 0.000000000000000000, 0.000000000000000000, -1.000000000000000000 ) ) ;
#885 = EDGE_LOOP ( 'NONE', ( #135, #574, #911 ) ) ;
#886 =( NAMED_UNIT ( * ) PLANE_ANGLE_UNIT ( ) SI_UNIT ( $, .RADIAN. ) );
#887 = VERTEX_POINT ( 'NONE', #726 ) ;
#888 = PRESENTATION_STYLE_ASSIGNMENT (( #786 ) ) ;
#889 = CARTESIAN_POINT ( 'NONE',  ( -33.20000000000000284, 4.330127018922195425, 2.500000000000002220 ) ) ;
#890 = CARTESIAN_POINT ( 'NONE',  ( -22.00000000000000000, -1.658312395177694798, -2.500000000000000444 ) ) ;
#891 = ORIENTED_EDGE ( 'NONE', *, *, #783, .F. ) ;
#892 = UNCERTAINTY_MEASURE_WITH_UNIT (LENGTH_MEASURE( 1.000000000000000082E-05 ), #24, 'distance_accuracy_value', 'NONE');
#893 = ORIENTED_EDGE ( 'NONE', *, *, #338, .T. ) ;
#894 = DIRECTION ( 'NONE',  ( 0.000000000000000000, 1.000000000000000000, 0.000000000000000000 ) ) ;
#895 = EDGE_CURVE ( 'NONE', #477, #1007, #486, .T. ) ;
#896 = DIRECTION ( 'NONE',  ( 0.000000000000000000, 0.000000000000000000, -1.000000000000000000 ) ) ;
#897 = CARTESIAN_POINT ( 'NONE',  ( 75.00000000000001421, 0.000000000000000000, 0.000000000000000000 ) ) ;
#898 = AXIS2_PLACEMENT_3D ( 'NONE', #683, #1020, #677 ) ;
#899 = VERTEX_POINT ( 'NONE', #568 ) ;
#900 =( GEOMETRIC_REPRESENTATION_CONTEXT ( 3 ) GLOBAL_UNCERTAINTY_ASSIGNED_CONTEXT ( ( #817 ) ) GLOBAL_UNIT_ASSIGNED_CONTEXT ( ( #455, #886, #275 ) ) REPRESENTATION_CONTEXT ( 'NONE', 'WORKASPACE' ) );
#901 = VECTOR ( 'NONE', #1112, 1000.000000000000000 ) ;
#902 = CARTESIAN_POINT ( 'NONE',  ( -22.00000000000000000, 0.000000000000000000, 0.000000000000000000 ) ) ;
#903 = CIRCLE ( 'NONE', #17, 4.999999999999997335 ) ;
#904 = ADVANCED_FACE ( 'NONE', ( #650 ), #560, .T. ) ;
#905 = ORIENTED_EDGE ( 'NONE', *, *, #994, .F. ) ;
#906 = CARTESIAN_POINT ( 'NONE',  ( -22.00000000000000000, 0.000000000000000000, 0.000000000000000000 ) ) ;
#907 = DIRECTION ( 'NONE',  ( 0.000000000000000000, 0.000000000000000000, 1.000000000000000000 ) ) ;
#908 = ORIENTED_EDGE ( 'NONE', *, *, #668, .F. ) ;
#909 = EDGE_CURVE ( 'NONE', #480, #1083, #735, .T. ) ;
#910 = EDGE_CURVE ( 'NONE', #123, #887, #919, .T. ) ;
#911 = ORIENTED_EDGE ( 'NONE', *, *, #216, .F. ) ;
#912 = CARTESIAN_POINT ( 'NONE',  ( -16.00000000000000000, 3.673940397442056417E-16, -2.999999999999997335 ) ) ;
#913 = ORIENTED_EDGE ( 'NONE', *, *, #118, .F. ) ;
#914 = EDGE_CURVE ( 'NONE', #838, #467, #65, .T. ) ;
#915 = ADVANCED_FACE ( 'NONE', ( #496 ), #248, .F. ) ;
#916 = AXIS2_PLACEMENT_3D ( 'NONE', #969, #975, #702 ) ;
#917 = EDGE_LOOP ( 'NONE', ( #1085, #989, #638, #328, #379, #1106, #60 ) ) ;
#918 = CIRCLE ( 'NONE', #512, 2.999999999999999112 ) ;
#919 = LINE ( 'NONE', #344, #901 ) ;
#920 = LINE ( 'NONE', #228, #476 ) ;
#921 = PRODUCT_DEFINITION_SHAPE ( 'NONE', 'NONE',  #94 ) ;
#922 = VERTEX_POINT ( 'NONE', #513 ) ;
#923 = ORIENTED_EDGE ( 'NONE', *, *, #617, .T. ) ;
#924 = CARTESIAN_POINT ( 'NONE',  ( -28.19999999999999574, -3.849001794597506798, -3.333333333333331705 ) ) ;
#925 = SURFACE_STYLE_USAGE ( .BOTH. , #820 ) ;
#926 = ORIENTED_EDGE ( 'NONE', *, *, #93, .T. ) ;
#927 = CARTESIAN_POINT ( 'NONE',  ( -33.20000000000000284, -0.4807835041833679046, 4.999999999999999112 ) ) ;
#928 = EDGE_CURVE ( 'NONE', #440, #887, #341, .T. ) ;
#929 = CARTESIAN_POINT ( 'NONE',  ( -22.00000000000000000, 1.658312395177695908, -2.499999999999999556 ) ) ;
#930 = EDGE_CURVE ( 'NONE', #564, #470, #662, .T. ) ;
#931 = CARTESIAN_POINT ( 'NONE',  ( -22.00000000000000000, 0.000000000000000000, 0.000000000000000000 ) ) ;
#932 = CARTESIAN_POINT ( 'NONE',  ( -33.20000000000000284, -8.673617379884035472E-16, -4.999999999999998224 ) ) ;
#933 = VECTOR ( 'NONE', #172, 1000.000000000000000 ) ;
#934 = CARTESIAN_POINT ( 'NONE',  ( -33.09306968853544362, 1.927323194563838937, -4.999999999999997335 ) ) ;
#935 = CARTESIAN_POINT ( 'NONE',  ( -28.22570962414504692, -0.9620188787177764711, -4.999999999999999112 ) ) ;
#936 = FACE_OUTER_BOUND ( 'NONE', #327, .T. ) ;
#937 = AXIS2_PLACEMENT_3D ( 'NONE', #375, #207, #689 ) ;
#938 = AXIS2_PLACEMENT_3D ( 'NONE', #541, #99, #105 ) ;
#939 = CIRCLE ( 'NONE', #336, 2.999999999999997335 ) ;
#940 = DIRECTION ( 'NONE',  ( -1.000000000000000000, -0.000000000000000000, -0.000000000000000000 ) ) ;
#941 = CARTESIAN_POINT ( 'NONE',  ( -28.48153195597501508, 5.773502691896259087, 4.772897990306385962E-16 ) ) ;
#942 = DIRECTION ( 'NONE',  ( 0.000000000000000000, 1.000000000000000000, 0.000000000000000000 ) ) ;
#943 = EDGE_CURVE ( 'NONE', #838, #131, #658, .T. ) ;
#944 = CARTESIAN_POINT ( 'NONE',  ( -28.48153195597501153, -5.773502691896256422, -5.730250375531071721E-17 ) ) ;
#945 = CARTESIAN_POINT ( 'NONE',  ( -28.19999999999999929, -2.886751345948130432, -4.999999999999999112 ) ) ;
#946 = EDGE_CURVE ( 'NONE', #754, #210, #1001, .T. ) ;
#947 = CARTESIAN_POINT ( 'NONE',  ( -22.00000000000000000, 0.000000000000000000, 2.999999999999997335 ) ) ;
#948 = LINE ( 'NONE', #443, #883 ) ;
#949 = EDGE_CURVE ( 'NONE', #1004, #899, #109, .T. ) ;
#950 = DIRECTION ( 'NONE',  ( 1.000000000000000000, 0.000000000000000000, 0.000000000000000000 ) ) ;
#951 = FACE_OUTER_BOUND ( 'NONE', #258, .T. ) ;
#952 = CARTESIAN_POINT ( 'NONE',  ( -28.30693031146454786, 1.927323194563835607, -4.999999999999997335 ) ) ;
#953 = DIRECTION ( 'NONE',  ( 1.000000000000000000, 0.000000000000000000, 0.000000000000000000 ) ) ;
#954 = VERTEX_POINT ( 'NONE', #839 ) ;
#955 = MECHANICAL_DESIGN_GEOMETRIC_PRESENTATION_REPRESENTATION (  '', ( #648 ), #1070 ) ;
#956 = CARTESIAN_POINT ( 'NONE',  ( -28.19999999999999574, -4.330127018922194537, 2.499999999999997780 ) ) ;
#957 = CARTESIAN_POINT ( 'NONE',  ( -28.19999999999999574, -3.849001794597507242, 3.333333333333329485 ) ) ;
#958 = CARTESIAN_POINT ( 'NONE',  ( -32.91846804402497639, -2.886751345948129543, 4.999999999999999112 ) ) ;
#959 = B_SPLINE_CURVE_WITH_KNOTS ( 'NONE', 3,
 ( #369, #690, #1045, #271, #700, #446 ),
 .UNSPECIFIED., .F., .F.,
 ( 4, 2, 4 ),
 ( 0.005007494471404155649, 0.006462840675578866365, 0.007918186879753576213 ),
 .UNSPECIFIED. ) ;
#960 = DIRECTION ( 'NONE',  ( 1.000000000000000000, 0.000000000000000000, 0.000000000000000000 ) ) ;
#961 = ORIENTED_EDGE ( 'NONE', *, *, #686, .T. ) ;
#962 =( NAMED_UNIT ( * ) PLANE_ANGLE_UNIT ( ) SI_UNIT ( $, .RADIAN. ) );
#963 = ORIENTED_EDGE ( 'NONE', *, *, #536, .F. ) ;
#964 = FILL_AREA_STYLE ('',( #192 ) ) ;
#965 = PLANE ( 'NONE',  #846 ) ;
#966 = ADVANCED_FACE ( 'NONE', ( #842 ), #489, .F. ) ;
#967 = CARTESIAN_POINT ( 'NONE',  ( -28.19999999999999574, -4.811252243246880944, 1.666666666666665186 ) ) ;
#968 = ADVANCED_FACE ( 'NONE', ( #584 ), #290, .T. ) ;
#969 = CARTESIAN_POINT ( 'NONE',  ( -33.20000000000000284, -2.533905558963067781E-15, 0.000000000000000000 ) ) ;
#970 = ORIENTED_EDGE ( 'NONE', *, *, #728, .T. ) ;
#971 = CARTESIAN_POINT ( 'NONE',  ( -33.17429037585493745, -0.9620188787177799128, -4.999999999999998224 ) ) ;
#972 = DIRECTION ( 'NONE',  ( 0.000000000000000000, -3.004629197474316090E-16, 1.000000000000000000 ) ) ;
#973 = CARTESIAN_POINT ( 'NONE',  ( -22.00000000000000000, 0.000000000000000000, 0.000000000000000000 ) ) ;
#974 = DIRECTION ( 'NONE',  ( -1.000000000000000000, -0.000000000000000000, -0.000000000000000000 ) ) ;
#975 = DIRECTION ( 'NONE',  ( 1.000000000000000000, 3.339945815856412403E-17, -0.000000000000000000 ) ) ;
#976 = ORIENTED_EDGE ( 'NONE', *, *, #5, .T. ) ;
#977 = AXIS2_PLACEMENT_3D ( 'NONE', #232, #1108, #592 ) ;
#978 = CARTESIAN_POINT ( 'NONE',  ( -22.00000000000000000, 8.673617379884035472E-16, 4.336808689942017736E-16 ) ) ;
#979 = CIRCLE ( 'NONE', #88, 2.999999999999997335 ) ;
#980 = DIRECTION ( 'NONE',  ( -1.000000000000000000, -0.000000000000000000, -0.000000000000000000 ) ) ;
#981 = CARTESIAN_POINT ( 'NONE',  ( -37.43999999999999062, 0.000000000000000000, 0.000000000000000000 ) ) ;
#982 = ORIENTED_EDGE ( 'NONE', *, *, #1096, .F. ) ;
#983 = MANIFOLD_SOLID_BREP ( '倒角1', #594 ) ;
#984 = EDGE_CURVE ( 'NONE', #141, #440, #724, .T. ) ;
#985 = EDGE_LOOP ( 'NONE', ( #753, #488, #571 ) ) ;
#986 = CYLINDRICAL_SURFACE ( 'NONE', #108, 2.999999999999997335 ) ;
#987 = CARTESIAN_POINT ( 'NONE',  ( -33.20000000000000284, -4.330127018922194537, 2.499999999999998224 ) ) ;
#988 = ADVANCED_FACE ( 'NONE', ( #61 ), #469, .T. ) ;
#989 = ORIENTED_EDGE ( 'NONE', *, *, #432, .T. ) ;
#990 = UNCERTAINTY_MEASURE_WITH_UNIT (LENGTH_MEASURE( 1.000000000000000082E-05 ), #269, 'distance_accuracy_value', 'NONE');
#991 = ORIENTED_EDGE ( 'NONE', *, *, #863, .F. ) ;
#992 = CARTESIAN_POINT ( 'NONE',  ( -28.48153195597501508, -2.886751345948130876, -5.000000000000000000 ) ) ;
#993 = CARTESIAN_POINT ( 'NONE',  ( -33.20000000000000284, -2.533905558963067781E-15, 0.000000000000000000 ) ) ;
#994 = EDGE_CURVE ( 'NONE', #1021, #754, #605, .T. ) ;
#995 = AXIS2_PLACEMENT_3D ( 'NONE', #769, #1116, #76 ) ;
#996 = ORIENTED_EDGE ( 'NONE', *, *, #686, .F. ) ;
#997 = CONICAL_SURFACE ( 'NONE', #181, 11.86869354863655879, 1.221730476396031051 ) ;
#998 = CARTESIAN_POINT ( 'NONE',  ( -28.19999999999999574, 4.330127018922195425, 2.500000000000001332 ) ) ;
#999 = DIRECTION ( 'NONE',  ( -1.000000000000000000, -0.000000000000000000, -0.000000000000000000 ) ) ;
#1000 = CIRCLE ( 'NONE', #1032, 2.999999999999997335 ) ;
#1001 = B_SPLINE_CURVE_WITH_KNOTS ( 'NONE', 3,
 ( #765, #71, #934, #1098 ),
 .UNSPECIFIED., .F., .F.,
 ( 4, 4 ),
 ( 0.007918186880068022598, 0.01083602852517333813 ),
 .UNSPECIFIED. ) ;
#1002 = ORIENTED_EDGE ( 'NONE', *, *, #729, .T. ) ;
#1003 = EDGE_CURVE ( 'NONE', #804, #234, #284, .T. ) ;
#1004 = VERTEX_POINT ( 'NONE', #90 ) ;
#1005 = SURFACE_SIDE_STYLE ('',( #396 ) ) ;
#1006 = EDGE_CURVE ( 'NONE', #1015, #468, #265, .T. ) ;
#1007 = VERTEX_POINT ( 'NONE', #435 ) ;
#1008 = ORIENTED_EDGE ( 'NONE', *, *, #746, .T. ) ;
#1009 = CARTESIAN_POINT ( 'NONE',  ( -28.48153195597501508, -2.886751345948130876, -5.000000000000000000 ) ) ;
#1010 = ORIENTED_EDGE ( 'NONE', *, *, #633, .F. ) ;
#1011 = EDGE_LOOP ( 'NONE', ( #622, #185, #272 ) ) ;
#1012 = PRESENTATION_LAYER_ASSIGNMENT (  '', '', ( #270 ) ) ;
#1013 = SURFACE_STYLE_USAGE ( .BOTH. , #410 ) ;
#1014 = FACE_BOUND ( 'NONE', #408, .T. ) ;
#1015 = VERTEX_POINT ( 'NONE', #956 ) ;
#1016 = AXIS2_PLACEMENT_3D ( 'NONE', #572, #132, #311 ) ;
#1017 = ADVANCED_FACE ( 'NONE', ( #268 ), #8, .F. ) ;
#1018 = EDGE_CURVE ( 'NONE', #570, #144, #881, .T. ) ;
#1019 = DIRECTION ( 'NONE',  ( 0.000000000000000000, 0.000000000000000000, -1.000000000000000000 ) ) ;
#1020 = DIRECTION ( 'NONE',  ( 1.000000000000000000, 3.339945815856412403E-17, -0.000000000000000000 ) ) ;
#1021 = VERTEX_POINT ( 'NONE', #533 ) ;
#1022 =( NAMED_UNIT ( * ) PLANE_ANGLE_UNIT ( ) SI_UNIT ( $, .RADIAN. ) );
#1023 = DIRECTION ( 'NONE',  ( 0.000000000000000000, 1.000000000000000000, 1.502314598737158538E-16 ) ) ;
#1024 = EDGE_CURVE ( 'NONE', #144, #470, #394, .T. ) ;
#1025 = DIRECTION ( 'NONE',  ( 0.000000000000000000, 1.000000000000000000, 0.000000000000000000 ) ) ;
#1026 = ORIENTED_EDGE ( 'NONE', *, *, #201, .T. ) ;
#1027 = DIRECTION ( 'NONE',  ( 1.000000000000000000, 3.339945815856412403E-17, -0.000000000000000000 ) ) ;
#1028 = EDGE_CURVE ( 'NONE', #30, #226, #773, .T. ) ;
#1029 = CARTESIAN_POINT ( 'NONE',  ( -33.20000000000000284, -4.330127018922194537, 2.499999999999998224 ) ) ;
#1030 = EDGE_CURVE ( 'NONE', #440, #134, #903, .T. ) ;
#1031 = STYLED_ITEM ( 'NONE', ( #565 ), #904 ) ;
#1032 = AXIS2_PLACEMENT_3D ( 'NONE', #173, #514, #849 ) ;
#1033 = CARTESIAN_POINT ( 'NONE',  ( -22.00000000000000000, 5.773502691896259087, 2.500000000000000888 ) ) ;
#1034 = FACE_OUTER_BOUND ( 'NONE', #687, .T. ) ;
#1035 = ADVANCED_BREP_SHAPE_REPRESENTATION ( '不锈钢迷你型CTMA系列气缸[CTMA-16x25-S-CA-SDB]_16活塞杆', ( #983, #314 ), #273 ) ;
#1036 = CARTESIAN_POINT ( 'NONE',  ( -22.00000000000000000, 0.000000000000000000, 0.000000000000000000 ) ) ;
#1037 = CARTESIAN_POINT ( 'NONE',  ( -16.00000000000000000, -1.658312395177694798, -2.500000000000000444 ) ) ;
#1038 = CARTESIAN_POINT ( 'NONE',  ( -37.43999999999999062, 0.000000000000000000, 0.000000000000000000 ) ) ;
#1039 = CARTESIAN_POINT ( 'NONE',  ( -33.20000000000000284, -4.330127018922196314, -2.499999999999998224 ) ) ;
#1040 = ORIENTED_EDGE ( 'NONE', *, *, #763, .F. ) ;
#1041 = ORIENTED_EDGE ( 'NONE', *, *, #154, .T. ) ;
#1042 = DIRECTION ( 'NONE',  ( 0.000000000000000000, 1.000000000000000000, 0.000000000000000000 ) ) ;
#1043 = COLOUR_RGB ( '',1.000000000000000000, 1.000000000000000000, 1.000000000000000000 ) ;
#1044 = FILL_AREA_STYLE ('',( #386 ) ) ;
#1045 = CARTESIAN_POINT ( 'NONE',  ( -28.32296715990919012, -1.925295277955308526, 5.000000000000000000 ) ) ;
#1046 = LINE ( 'NONE', #604, #166 ) ;
#1047 = MECHANICAL_DESIGN_GEOMETRIC_PRESENTATION_REPRESENTATION (  '', ( #420 ), #179 ) ;
#1048 = ORIENTED_EDGE ( 'NONE', *, *, #1030, .F. ) ;
#1049 = CARTESIAN_POINT ( 'NONE',  ( -28.30641669536617755, -5.292377467571570016, -0.8333333333333323711 ) ) ;
#1050 = CARTESIAN_POINT ( 'NONE',  ( -28.19999999999999574, -4.330127018922194537, 2.499999999999997780 ) ) ;
#1051 = CARTESIAN_POINT ( 'NONE',  ( -28.19999999999999574, -8.645936694330896891E-16, -4.999999999999998224 ) ) ;
#1052 = DIRECTION ( 'NONE',  ( 1.000000000000000000, -0.000000000000000000, -0.000000000000000000 ) ) ;
#1053 = ORIENTED_EDGE ( 'NONE', *, *, #855, .F. ) ;
#1054 = FILL_AREA_STYLE_COLOUR ( '', #771 ) ;
#1055 = ORIENTED_EDGE ( 'NONE', *, *, #5, .F. ) ;
#1056 = CARTESIAN_POINT ( 'NONE',  ( -38.00000000000000000, 0.000000000000000000, 0.000000000000000000 ) ) ;
#1057 = SURFACE_SIDE_STYLE ('',( #19 ) ) ;
#1058 = FACE_OUTER_BOUND ( 'NONE', #985, .T. ) ;
#1059 = CARTESIAN_POINT ( 'NONE',  ( -33.20000000000000284, -4.811252243246881832, 1.666666666666665186 ) ) ;
#1060 = ORIENTED_EDGE ( 'NONE', *, *, #217, .F. ) ;
#1061 = SURFACE_SIDE_STYLE ('',( #247 ) ) ;
#1062 = ORIENTED_EDGE ( 'NONE', *, *, #930, .T. ) ;
#1063 = CARTESIAN_POINT ( 'NONE',  ( -33.20000000000000284, 4.999999999999994671, 0.000000000000000000 ) ) ;
#1064 = DIRECTION ( 'NONE',  ( -1.000000000000000000, -0.000000000000000000, -0.000000000000000000 ) ) ;
#1065 = DIRECTION ( 'NONE',  ( 0.000000000000000000, 0.000000000000000000, -1.000000000000000000 ) ) ;
#1066 = VERTEX_POINT ( 'NONE', #1037 ) ;
#1067 = EDGE_CURVE ( 'NONE', #1083, #1007, #205, .T. ) ;
#1068 = B_SPLINE_CURVE_WITH_KNOTS ( 'NONE', 3,
 ( #561, #542, #35, #387 ),
 .UNSPECIFIED., .F., .F.,
 ( 4, 4 ),
 ( 2.309401076757838160E-07, 0.002886982286055802052 ),
 .UNSPECIFIED. ) ;
#1069 = ORIENTED_EDGE ( 'NONE', *, *, #1003, .T. ) ;
#1070 =( GEOMETRIC_REPRESENTATION_CONTEXT ( 3 ) GLOBAL_UNCERTAINTY_ASSIGNED_CONTEXT ( ( #38 ) ) GLOBAL_UNIT_ASSIGNED_CONTEXT ( ( #67, #320, #155 ) ) REPRESENTATION_CONTEXT ( 'NONE', 'WORKASPACE' ) );
#1071 = DIRECTION ( 'NONE',  ( 1.000000000000000000, 0.000000000000000000, 0.000000000000000000 ) ) ;
#1072 = DIRECTION ( 'NONE',  ( 0.000000000000000000, -0.4999999999999998335, -0.8660254037844387076 ) ) ;
#1073 = ORIENTED_EDGE ( 'NONE', *, *, #418, .F. ) ;
#1074 = B_SPLINE_CURVE_WITH_KNOTS ( 'NONE', 3,
 ( #958, #10, #376, #869 ),
 .UNSPECIFIED., .F., .F.,
 ( 4, 4 ),
 ( 2.309401076754191683E-07, 0.002886982286055804654 ),
 .UNSPECIFIED. ) ;
#1075 = EDGE_CURVE ( 'NONE', #467, #97, #625, .T. ) ;
#1076 = ORIENTED_EDGE ( 'NONE', *, *, #93, .F. ) ;
#1077 = CARTESIAN_POINT ( 'NONE',  ( -28.19999999999999929, -5.773502691896257311, 1.066291330662765803E-17 ) ) ;
#1078 = CARTESIAN_POINT ( 'NONE',  ( -16.00000000000000000, 5.773502691896259087, 2.500000000000000888 ) ) ;
#1079 = VERTEX_POINT ( 'NONE', #601 ) ;
#1080 = CARTESIAN_POINT ( 'NONE',  ( -38.00000000000000000, 0.000000000000000000, 0.000000000000000000 ) ) ;
#1081 = DIRECTION ( 'NONE',  ( -0.000000000000000000, 1.000000000000000000, 2.253471898105739040E-16 ) ) ;
#1082 = ADVANCED_FACE ( 'NONE', ( #779 ), #507, .T. ) ;
#1083 = VERTEX_POINT ( 'NONE', #676 ) ;
#1084 = B_SPLINE_CURVE_WITH_KNOTS ( 'NONE', 3,
 ( #603, #952, #451, #1051 ),
 .UNSPECIFIED., .F., .F.,
 ( 4, 4 ),
 ( 0.01256646775343760007, 0.01547383287945958835 ),
 .UNSPECIFIED. ) ;
#1085 = ORIENTED_EDGE ( 'NONE', *, *, #517, .T. ) ;
#1086 = VECTOR ( 'NONE', #940, 1000.000000000000000 ) ;
#1087 =( NAMED_UNIT ( * ) PLANE_ANGLE_UNIT ( ) SI_UNIT ( $, .RADIAN. ) );
#1088 = DIRECTION ( 'NONE',  ( 1.000000000000000000, 3.339945815856412403E-17, -0.000000000000000000 ) ) ;
#1089 = VECTOR ( 'NONE', #870, 999.9999999999998863 ) ;
#1090 = AXIS2_PLACEMENT_3D ( 'NONE', #359, #508, #87 ) ;
#1091 = EDGE_LOOP ( 'NONE', ( #1076, #301, #549, #722 ) ) ;
#1092 = ORIENTED_EDGE ( 'NONE', *, *, #77, .T. ) ;
#1093 = CARTESIAN_POINT ( 'NONE',  ( -28.19999999999999929, 4.330127018922194537, -2.500000000000000888 ) ) ;
#1094 = DIRECTION ( 'NONE',  ( 1.000000000000000000, 3.339945815856412403E-17, -0.000000000000000000 ) ) ;
#1095 = ORIENTED_EDGE ( 'NONE', *, *, #910, .F. ) ;
#1096 = EDGE_CURVE ( 'NONE', #804, #405, #277, .T. ) ;
#1097 = ORIENTED_EDGE ( 'NONE', *, *, #516, .F. ) ;
#1098 = CARTESIAN_POINT ( 'NONE',  ( -32.91846804402497639, 2.886751345948132208, -4.999999999999997335 ) ) ;
#1099 = ORIENTED_EDGE ( 'NONE', *, *, #482, .T. ) ;
#1100 = EDGE_CURVE ( 'NONE', #307, #799, #102, .T. ) ;
#1101 = ADVANCED_FACE ( 'NONE', ( #704 ), #624, .T. ) ;
#1102 = AXIS2_PLACEMENT_3D ( 'NONE', #614, #26, #894 ) ;
#1103 = DIRECTION ( 'NONE',  ( 0.000000000000000000, 0.000000000000000000, 1.000000000000000000 ) ) ;
#1104 = DIRECTION ( 'NONE',  ( -1.000000000000000000, -0.000000000000000000, -0.000000000000000000 ) ) ;
#1105 = VECTOR ( 'NONE', #628, 1000.000000000000000 ) ;
#1106 = ORIENTED_EDGE ( 'NONE', *, *, #1006, .T. ) ;
#1107 = EDGE_CURVE ( 'NONE', #131, #754, #171, .T. ) ;
#1108 = DIRECTION ( 'NONE',  ( 0.000000000000000000, -0.8660254037844387076, -0.4999999999999998335 ) ) ;
#1109 = CARTESIAN_POINT ( 'NONE',  ( -30.69999999999999574, -2.450406913566657561E-15, 0.000000000000000000 ) ) ;
#1110 = CARTESIAN_POINT ( 'NONE',  ( -32.91846804402497639, 2.886751345948131764, 5.000000000000000000 ) ) ;
#1111 = EDGE_CURVE ( 'NONE', #754, #570, #347, .T. ) ;
#1112 = DIRECTION ( 'NONE',  ( -1.000000000000000000, -0.000000000000000000, -0.000000000000000000 ) ) ;
#1113 = CARTESIAN_POINT ( 'NONE',  ( -33.20000000000000284, -2.533905558963067781E-15, 0.000000000000000000 ) ) ;
#1114 = LINE ( 'NONE', #859, #206 ) ;
#1115 = CARTESIAN_POINT ( 'NONE',  ( -33.09358330463381748, 5.292377467571570904, 0.8333333333333344806 ) ) ;
#1116 = DIRECTION ( 'NONE',  ( 1.000000000000000000, 0.000000000000000000, 0.000000000000000000 ) ) ;
#1117 = CARTESIAN_POINT ( 'NONE',  ( -28.30641669536617755, 5.292377467571570904, 0.8333333333333343695 ) ) ;
#1118 = CARTESIAN_POINT ( 'NONE',  ( -28.19999999999999929, 0.000000000000000000, 2.999999999999997335 ) ) ;
#1119 = VECTOR ( 'NONE', #974, 1000.000000000000000 ) ;
#1120 = AXIS2_PLACEMENT_3D ( 'NONE', #619, #348, #696 ) ;
#1121 = CONICAL_SURFACE ( 'NONE', #1090, 11.86869354863655879, 1.221730476396031051 ) ;
#1122 = B_SPLINE_CURVE_WITH_KNOTS ( 'NONE', 3,
 ( #1050, #957, #298, #698 ),
 .UNSPECIFIED., .F., .F.,
 ( 4, 4 ),
 ( 0.002886982286055802052, 0.005773733632003926267 ),
 .UNSPECIFIED. ) ;
#1123 = CARTESIAN_POINT ( 'NONE',  ( -33.20000000000000284, 4.330127018922195425, -2.500000000000001776 ) ) ;
#1124 = CARTESIAN_POINT ( 'NONE',  ( -28.19999999999999574, -5.000000000000000000, 0.000000000000000000 ) ) ;
#1125 = DIRECTION ( 'NONE',  ( 0.000000000000000000, 1.000000000000000000, 0.000000000000000000 ) ) ;
#1126 = LINE ( 'NONE', #595, #253 ) ;
ENDSEC;
END-ISO-10303-21;
