ISO-10303-21;
HEADER;
FILE_DESCRIPTION (( 'STEP AP214' ),
    '1' );
FILE_NAME ('不锈钢迷你型CTMA系列气缸[CTMA-16x25-S-CA-SDB]_SDB.step',
    '2023-08-15T02:58:19',
    ( '' ),
    ( '' ),
    'SwSTEP 2.0',
    'SolidWorks 2022',
    '' );
FILE_SCHEMA (( 'AUTOMOTIVE_DESIGN' ));
ENDSEC;

DATA;
#1 = EDGE_LOOP ( 'NONE', ( #646, #185 ) ) ;
#2 = ADVANCED_FACE ( 'NONE', ( #917 ), #1111, .T. ) ;
#3 = LINE ( 'NONE', #754, #1208 ) ;
#4 = DIRECTION ( 'NONE',  ( 0.000000000000000000, 1.000000000000000000, -0.000000000000000000 ) ) ;
#5 = AXIS2_PLACEMENT_3D ( 'NONE', #532, #1354, #729 ) ;
#6 = EDGE_CURVE ( 'NONE', #680, #746, #872, .T. ) ;
#7 = ORIENTED_EDGE ( 'NONE', *, *, #1274, .T. ) ;
#8 = DIRECTION ( 'NONE',  ( 0.000000000000000000, 0.000000000000000000, -1.000000000000000000 ) ) ;
#9 = DIRECTION ( 'NONE',  ( 0.000000000000000000, 0.000000000000000000, 1.000000000000000000 ) ) ;
#10 = DIRECTION ( 'NONE',  ( 0.000000000000000000, 1.000000000000000000, 0.000000000000000000 ) ) ;
#11 = CIRCLE ( 'NONE', #217, 8.999999999999998224 ) ;
#12 = AXIS2_PLACEMENT_3D ( 'NONE', #24, #236, #1285 ) ;
#13 = EDGE_LOOP ( 'NONE', ( #1305, #313 ) ) ;
#14 = DIRECTION ( 'NONE',  ( 0.000000000000000000, 1.000000000000000000, 0.000000000000000000 ) ) ;
#15 = EDGE_CURVE ( 'NONE', #782, #1252, #985, .T. ) ;
#16 = EDGE_LOOP ( 'NONE', ( #1179, #767 ) ) ;
#17 = FACE_BOUND ( 'NONE', #1, .T. ) ;
#18 = DIRECTION ( 'NONE',  ( 0.000000000000000000, 0.000000000000000000, 1.000000000000000000 ) ) ;
#19 = EDGE_CURVE ( 'NONE', #916, #1232, #368, .T. ) ;
#20 = EDGE_LOOP ( 'NONE', ( #733, #67, #1267, #1292 ) ) ;
#21 = LINE ( 'NONE', #851, #349 ) ;
#22 = VERTEX_POINT ( 'NONE', #883 ) ;
#23 = CARTESIAN_POINT ( 'NONE',  ( -8.099999999999997868, 2.000000000000000000, -8.000000000000000000 ) ) ;
#24 = CARTESIAN_POINT ( 'NONE',  ( -4.500000000000002665, 19.99999999999999645, 6.000000000000000000 ) ) ;
#25 = APPLICATION_CONTEXT ( 'automotive_design' ) ;
#26 = VERTEX_POINT ( 'NONE', #1306 ) ;
#27 = AXIS2_PLACEMENT_3D ( 'NONE', #759, #8, #765 ) ;
#28 =( NAMED_UNIT ( * ) PLANE_ANGLE_UNIT ( ) SI_UNIT ( $, .RADIAN. ) );
#29 = VECTOR ( 'NONE', #1236, 1000.000000000000000 ) ;
#30 = CARTESIAN_POINT ( 'NONE',  ( 9.199999999999999289, 0.000000000000000000, 31.20000000000000284 ) ) ;
#31 = DIRECTION ( 'NONE',  ( 0.000000000000000000, 1.000000000000000000, -0.000000000000000000 ) ) ;
#32 =( GEOMETRIC_REPRESENTATION_CONTEXT ( 3 ) GLOBAL_UNCERTAINTY_ASSIGNED_CONTEXT ( ( #1327 ) ) GLOBAL_UNIT_ASSIGNED_CONTEXT ( ( #978, #28, #213 ) ) REPRESENTATION_CONTEXT ( 'NONE', 'WORKASPACE' ) );
#33 = CIRCLE ( 'NONE', #622, 3.599999999999999201 ) ;
#34 = EDGE_LOOP ( 'NONE', ( #547, #176 ) ) ;
#35 = ADVANCED_FACE ( 'NONE', ( #49 ), #1202, .T. ) ;
#36 = CARTESIAN_POINT ( 'NONE',  ( 11.50000000000000000, 2.000000000000000000, -33.50000000000000000 ) ) ;
#37 = DIRECTION ( 'NONE',  ( -0.000000000000000000, 0.000000000000000000, -1.000000000000000000 ) ) ;
#38 = ORIENTED_EDGE ( 'NONE', *, *, #262, .F. ) ;
#39 = ORIENTED_EDGE ( 'NONE', *, *, #920, .F. ) ;
#40 = VERTEX_POINT ( 'NONE', #576 ) ;
#41 = EDGE_CURVE ( 'NONE', #1176, #281, #990, .T. ) ;
#42 = FACE_OUTER_BOUND ( 'NONE', #272, .T. ) ;
#43 = DIRECTION ( 'NONE',  ( 0.000000000000000000, 0.000000000000000000, -1.000000000000000000 ) ) ;
#44 = CARTESIAN_POINT ( 'NONE',  ( 6.000000000000005329, 0.000000000000000000, 28.24999999999999645 ) ) ;
#45 = ORIENTED_EDGE ( 'NONE', *, *, #1148, .F. ) ;
#46 = UNCERTAINTY_MEASURE_WITH_UNIT (LENGTH_MEASURE( 1.000000000000000082E-05 ), #525, 'distance_accuracy_value', 'NONE');
#47 = FACE_OUTER_BOUND ( 'NONE', #470, .T. ) ;
#48 = VERTEX_POINT ( 'NONE', #433 ) ;
#49 = FACE_OUTER_BOUND ( 'NONE', #827, .T. ) ;
#50 = DIRECTION ( 'NONE',  ( 0.000000000000000000, 0.000000000000000000, 1.000000000000000000 ) ) ;
#51 = DIRECTION ( 'NONE',  ( -0.000000000000000000, -0.000000000000000000, 1.000000000000000000 ) ) ;
#52 = DIRECTION ( 'NONE',  ( 1.000000000000000000, 0.000000000000000000, 0.000000000000000000 ) ) ;
#53 = AXIS2_PLACEMENT_3D ( 'NONE', #1275, #1040, #311 ) ;
#54 = ORIENTED_EDGE ( 'NONE', *, *, #849, .F. ) ;
#55 = AXIS2_PLACEMENT_3D ( 'NONE', #72, #364, #152 ) ;
#56 = FACE_OUTER_BOUND ( 'NONE', #882, .T. ) ;
#57 = VECTOR ( 'NONE', #607, 1000.000000000000114 ) ;
#58 = EDGE_LOOP ( 'NONE', ( #809, #479, #763, #326 ) ) ;
#59 = EDGE_CURVE ( 'NONE', #354, #740, #932, .T. ) ;
#60 = ORIENTED_EDGE ( 'NONE', *, *, #536, .T. ) ;
#61 = DIRECTION ( 'NONE',  ( 0.000000000000000000, 0.000000000000000000, 1.000000000000000000 ) ) ;
#62 = FACE_OUTER_BOUND ( 'NONE', #122, .T. ) ;
#63 = EDGE_CURVE ( 'NONE', #489, #1004, #614, .T. ) ;
#64 = ORIENTED_EDGE ( 'NONE', *, *, #19, .F. ) ;
#65 = DIRECTION ( 'NONE',  ( -1.000000000000000000, 0.000000000000000000, 0.000000000000000000 ) ) ;
#66 = VERTEX_POINT ( 'NONE', #208 ) ;
#67 = ORIENTED_EDGE ( 'NONE', *, *, #736, .F. ) ;
#68 = CARTESIAN_POINT ( 'NONE',  ( -5.999999999999994671, 0.000000000000000000, 28.24999999999999645 ) ) ;
#69 = EDGE_CURVE ( 'NONE', #378, #800, #808, .T. ) ;
#70 = PLANE ( 'NONE',  #84 ) ;
#71 = ORIENTED_EDGE ( 'NONE', *, *, #841, .F. ) ;
#72 = CARTESIAN_POINT ( 'NONE',  ( -6.000000000000000000, 0.000000000000000000, -25.50000000000000000 ) ) ;
#73 = VERTEX_POINT ( 'NONE', #1253 ) ;
#74 = DIRECTION ( 'NONE',  ( -0.000000000000000000, -0.000000000000000000, -1.000000000000000000 ) ) ;
#75 = CARTESIAN_POINT ( 'NONE',  ( 3.973803242064763985, 23.03226954850201480, 6.000000000000000000 ) ) ;
#76 = DIRECTION ( 'NONE',  ( 0.9415336935627519610, 0.3369188387224464343, -0.000000000000000000 ) ) ;
#77 = CIRCLE ( 'NONE', #252, 8.999999999999998224 ) ;
#78 = ORIENTED_EDGE ( 'NONE', *, *, #253, .F. ) ;
#79 = CARTESIAN_POINT ( 'NONE',  ( -11.50000000000000000, 0.000000000000000000, -33.50000000000000000 ) ) ;
#80 = CARTESIAN_POINT ( 'NONE',  ( -5.999999999999994671, 0.000000000000000000, 25.50000000000000000 ) ) ;
#81 = ORIENTED_EDGE ( 'NONE', *, *, #558, .T. ) ;
#82 = VECTOR ( 'NONE', #662, 1000.000000000000000 ) ;
#83 = PLANE ( 'NONE',  #1181 ) ;
#84 = AXIS2_PLACEMENT_3D ( 'NONE', #522, #500, #1369 ) ;
#85 = EDGE_CURVE ( 'NONE', #378, #1037, #101, .T. ) ;
#86 = AXIS2_PLACEMENT_3D ( 'NONE', #461, #445, #468 ) ;
#87 = FACE_OUTER_BOUND ( 'NONE', #239, .T. ) ;
#88 = DIRECTION ( 'NONE',  ( -0.000000000000000000, -0.000000000000000000, 1.000000000000000000 ) ) ;
#89 = EDGE_LOOP ( 'NONE', ( #135, #7 ) ) ;
#90 = CARTESIAN_POINT ( 'NONE',  ( 11.50000000000000000, 2.000000000000000000, -33.50000000000000000 ) ) ;
#91 =( LENGTH_UNIT ( ) NAMED_UNIT ( * ) SI_UNIT ( .MILLI., .METRE. ) );
#92 = CARTESIAN_POINT ( 'NONE',  ( -4.500000000000002665, 19.99999999999999645, 8.000000000000000000 ) ) ;
#93 = DIRECTION ( 'NONE',  ( 0.000000000000000000, 0.000000000000000000, 1.000000000000000000 ) ) ;
#94 = ORIENTED_EDGE ( 'NONE', *, *, #1163, .T. ) ;
#95 = DIRECTION ( 'NONE',  ( 1.000000000000000000, 0.000000000000000000, 0.000000000000000000 ) ) ;
#96 = FACE_BOUND ( 'NONE', #1196, .T. ) ;
#97 = LINE ( 'NONE', #1356, #548 ) ;
#98 = CARTESIAN_POINT ( 'NONE',  ( 11.50000000000000000, 0.000000000000000000, -31.20000000000000284 ) ) ;
#99 = EDGE_CURVE ( 'NONE', #680, #409, #1022, .T. ) ;
#100 = EDGE_LOOP ( 'NONE', ( #391, #569 ) ) ;
#101 = LINE ( 'NONE', #1365, #549 ) ;
#102 =( NAMED_UNIT ( * ) SI_UNIT ( $, .STERADIAN. ) SOLID_ANGLE_UNIT ( ) );
#103 = CARTESIAN_POINT ( 'NONE',  ( -11.50000000000000000, 2.000000000000000000, -8.300000000000002487 ) ) ;
#104 = AXIS2_PLACEMENT_3D ( 'NONE', #131, #14, #442 ) ;
#105 = AXIS2_PLACEMENT_3D ( 'NONE', #390, #804, #1107 ) ;
#106 = VECTOR ( 'NONE', #455, 1000.000000000000000 ) ;
#107 = DIRECTION ( 'NONE',  ( 0.000000000000000000, 0.000000000000000000, 1.000000000000000000 ) ) ;
#108 = ADVANCED_FACE ( 'NONE', ( #524 ), #1372, .T. ) ;
#109 = ORIENTED_EDGE ( 'NONE', *, *, #988, .F. ) ;
#110 = DIRECTION ( 'NONE',  ( -0.000000000000000000, 1.000000000000000000, 0.000000000000000000 ) ) ;
#111 = LINE ( 'NONE', #407, #764 ) ;
#112 = ADVANCED_FACE ( 'NONE', ( #300, #179 ), #83, .T. ) ;
#113 = ORIENTED_EDGE ( 'NONE', *, *, #857, .F. ) ;
#114 = CARTESIAN_POINT ( 'NONE',  ( 11.50000000000000000, 0.000000000000000000, 31.20000000000000284 ) ) ;
#115 = CARTESIAN_POINT ( 'NONE',  ( -8.099999999999997868, 2.000000000000000000, -33.50000000000000000 ) ) ;
#116 = PLANE ( 'NONE',  #986 ) ;
#117 = CARTESIAN_POINT ( 'NONE',  ( -8.100000000000001421, 11.75136374907948600, 8.000000000000000000 ) ) ;
#118 = EDGE_CURVE ( 'NONE', #989, #193, #651, .T. ) ;
#119 = AXIS2_PLACEMENT_3D ( 'NONE', #673, #900, #149 ) ;
#120 = ORIENTED_EDGE ( 'NONE', *, *, #1248, .T. ) ;
#121 = SURFACE_STYLE_FILL_AREA ( #954 ) ;
#122 = EDGE_LOOP ( 'NONE', ( #39, #1135, #993, #1234 ) ) ;
#123 = DIRECTION ( 'NONE',  ( 0.000000000000000000, 0.000000000000000000, 1.000000000000000000 ) ) ;
#124 = EDGE_CURVE ( 'NONE', #448, #1021, #365, .T. ) ;
#125 = VECTOR ( 'NONE', #1222, 1000.000000000000000 ) ;
#126 = CARTESIAN_POINT ( 'NONE',  ( -6.000000000000000000, 2.000000000000000000, -22.75000000000000000 ) ) ;
#127 = VECTOR ( 'NONE', #949, 1000.000000000000000 ) ;
#128 = CIRCLE ( 'NONE', #1186, 2.299999999999999822 ) ;
#129 = CIRCLE ( 'NONE', #86, 2.299999999999999822 ) ;
#130 = VERTEX_POINT ( 'NONE', #924 ) ;
#131 = CARTESIAN_POINT ( 'NONE',  ( 6.000000000000005329, 0.000000000000000000, 25.50000000000000000 ) ) ;
#132 = ORIENTED_EDGE ( 'NONE', *, *, #59, .T. ) ;
#133 = DIRECTION ( 'NONE',  ( 0.000000000000000000, 0.000000000000000000, 1.000000000000000000 ) ) ;
#134 = CARTESIAN_POINT ( 'NONE',  ( 6.000000000000005329, 2.000000000000000000, 22.75000000000000000 ) ) ;
#135 = ORIENTED_EDGE ( 'NONE', *, *, #617, .T. ) ;
#136 = DIRECTION ( 'NONE',  ( 0.000000000000000000, 0.000000000000000000, 1.000000000000000000 ) ) ;
#137 = ORIENTED_EDGE ( 'NONE', *, *, #458, .T. ) ;
#138 = CARTESIAN_POINT ( 'NONE',  ( -1.500000000000002220, 19.99999999999999645, 16.48528137423856776 ) ) ;
#139 = CARTESIAN_POINT ( 'NONE',  ( -9.199999999999999289, 19.99999999999999645, -6.000000000000000000 ) ) ;
#140 = ADVANCED_FACE ( 'NONE', ( #1343 ), #937, .T. ) ;
#141 = ORIENTED_EDGE ( 'NONE', *, *, #1041, .T. ) ;
#142 = ORIENTED_EDGE ( 'NONE', *, *, #1044, .T. ) ;
#143 = DIRECTION ( 'NONE',  ( -0.000000000000000000, -0.000000000000000000, 1.000000000000000000 ) ) ;
#144 = DIRECTION ( 'NONE',  ( 0.000000000000000000, 1.000000000000000000, 0.000000000000000000 ) ) ;
#145 = AXIS2_PLACEMENT_3D ( 'NONE', #1289, #559, #1296 ) ;
#146 = AXIS2_PLACEMENT_3D ( 'NONE', #627, #578, #1099 ) ;
#147 = VERTEX_POINT ( 'NONE', #1360 ) ;
#148 = EDGE_CURVE ( 'NONE', #353, #285, #306, .T. ) ;
#149 = DIRECTION ( 'NONE',  ( -0.000000000000000000, 0.000000000000000000, -1.000000000000000000 ) ) ;
#150 = LINE ( 'NONE', #1324, #555 ) ;
#151 = ORIENTED_EDGE ( 'NONE', *, *, #1124, .T. ) ;
#152 = DIRECTION ( 'NONE',  ( 0.000000000000000000, 0.000000000000000000, 1.000000000000000000 ) ) ;
#153 = ORIENTED_EDGE ( 'NONE', *, *, #439, .F. ) ;
#154 = DIRECTION ( 'NONE',  ( 0.000000000000000000, 0.000000000000000000, 1.000000000000000000 ) ) ;
#155 = DIRECTION ( 'NONE',  ( -1.000000000000000000, 0.000000000000000000, -0.000000000000000000 ) ) ;
#156 = DIRECTION ( 'NONE',  ( 0.000000000000000000, 0.000000000000000000, 1.000000000000000000 ) ) ;
#157 = ADVANCED_FACE ( 'NONE', ( #833 ), #711, .T. ) ;
#158 = ORIENTED_EDGE ( 'NONE', *, *, #248, .T. ) ;
#159 = DIRECTION ( 'NONE',  ( 0.000000000000000000, -0.000000000000000000, 1.000000000000000000 ) ) ;
#160 = ORIENTED_EDGE ( 'NONE', *, *, #447, .F. ) ;
#161 = EDGE_LOOP ( 'NONE', ( #1271, #449, #1333, #693 ) ) ;
#162 = CARTESIAN_POINT ( 'NONE',  ( 6.000000000000005329, 2.000000000000000000, 25.50000000000000000 ) ) ;
#163 = EDGE_CURVE ( 'NONE', #496, #338, #1030, .T. ) ;
#164 = CIRCLE ( 'NONE', #942, 3.599999999999999201 ) ;
#165 = EDGE_LOOP ( 'NONE', ( #471, #1161, #959, #495 ) ) ;
#166 = AXIS2_PLACEMENT_3D ( 'NONE', #645, #4, #440 ) ;
#167 = DIRECTION ( 'NONE',  ( 0.000000000000000000, 1.000000000000000000, 0.000000000000000000 ) ) ;
#168 = AXIS2_PLACEMENT_3D ( 'NONE', #214, #413, #209 ) ;
#169 = VERTEX_POINT ( 'NONE', #1038 ) ;
#170 = VERTEX_POINT ( 'NONE', #519 ) ;
#171 = CIRCLE ( 'NONE', #817, 2.299999999999999822 ) ;
#172 = EDGE_CURVE ( 'NONE', #746, #485, #1260, .T. ) ;
#173 = CYLINDRICAL_SURFACE ( 'NONE', #352, 2.299999999999999822 ) ;
#174 = CARTESIAN_POINT ( 'NONE',  ( -4.500000000000002665, 19.99999999999999645, -8.000000000000000000 ) ) ;
#175 = DIRECTION ( 'NONE',  ( 0.000000000000000000, -1.000000000000000000, 0.000000000000000000 ) ) ;
#176 = ORIENTED_EDGE ( 'NONE', *, *, #1173, .T. ) ;
#177 = CARTESIAN_POINT ( 'NONE',  ( -11.50000000000000000, 0.000000000000000000, 31.20000000000000639 ) ) ;
#178 = ORIENTED_EDGE ( 'NONE', *, *, #1041, .F. ) ;
#179 = FACE_BOUND ( 'NONE', #100, .T. ) ;
#180 = DIRECTION ( 'NONE',  ( 0.000000000000000000, 1.000000000000000000, -0.000000000000000000 ) ) ;
#181 = FACE_OUTER_BOUND ( 'NONE', #585, .T. ) ;
#182 = EDGE_LOOP ( 'NONE', ( #488, #850, #141, #793, #1322, #142, #64, #1014, #393 ) ) ;
#183 = CARTESIAN_POINT ( 'NONE',  ( -5.999999999999994671, 0.000000000000000000, 25.50000000000000000 ) ) ;
#184 = ADVANCED_FACE ( 'NONE', ( #842 ), #734, .T. ) ;
#185 = ORIENTED_EDGE ( 'NONE', *, *, #464, .T. ) ;
#186 = DIRECTION ( 'NONE',  ( 0.000000000000000000, 0.000000000000000000, 1.000000000000000000 ) ) ;
#187 = PLANE ( 'NONE',  #1241 ) ;
#188 = CARTESIAN_POINT ( 'NONE',  ( 11.50000000000000000, 0.000000000000000000, -5.999999999999998224 ) ) ;
#189 = AXIS2_PLACEMENT_3D ( 'NONE', #286, #704, #1129 ) ;
#190 = FACE_OUTER_BOUND ( 'NONE', #888, .T. ) ;
#191 = CARTESIAN_POINT ( 'NONE',  ( -13.50000000000000000, 19.99999999999999645, -8.000000000000000000 ) ) ;
#192 = CARTESIAN_POINT ( 'NONE',  ( -11.50000000000000000, 0.000000000000000000, 8.300000000000002487 ) ) ;
#193 = VERTEX_POINT ( 'NONE', #1080 ) ;
#194 = VECTOR ( 'NONE', #303, 1000.000000000000000 ) ;
#195 = CARTESIAN_POINT ( 'NONE',  ( -9.199999999999999289, 0.000000000000000000, 31.20000000000000284 ) ) ;
#196 = AXIS2_PLACEMENT_3D ( 'NONE', #807, #994, #818 ) ;
#197 =( NAMED_UNIT ( * ) PLANE_ANGLE_UNIT ( ) SI_UNIT ( $, .RADIAN. ) );
#198 = CIRCLE ( 'NONE', #969, 2.299999999999999822 ) ;
#199 = CARTESIAN_POINT ( 'NONE',  ( -28.83936647306398626, 0.000000000000000000, 6.000000000000000000 ) ) ;
#200 = CARTESIAN_POINT ( 'NONE',  ( -9.199999999999999289, 2.000000000000000000, -8.300000000000002487 ) ) ;
#201 = ORIENTED_EDGE ( 'NONE', *, *, #59, .F. ) ;
#202 = DIRECTION ( 'NONE',  ( -0.000000000000000000, 1.000000000000000000, -0.000000000000000000 ) ) ;
#203 = CARTESIAN_POINT ( 'NONE',  ( 11.50000000000000000, 0.000000000000000000, -33.50000000000000000 ) ) ;
#204 = CYLINDRICAL_SURFACE ( 'NONE', #531, 3.000000000000000000 ) ;
#205 = CARTESIAN_POINT ( 'NONE',  ( -11.50000000000000000, 2.000000000000000000, -31.20000000000000284 ) ) ;
#206 = DIRECTION ( 'NONE',  ( 1.000000000000000000, 0.000000000000000000, -0.000000000000000000 ) ) ;
#207 = EDGE_LOOP ( 'NONE', ( #231, #785 ) ) ;
#208 = CARTESIAN_POINT ( 'NONE',  ( -11.50000000000000000, 2.000000000000000000, 8.300000000000002487 ) ) ;
#209 = DIRECTION ( 'NONE',  ( 0.000000000000000000, 0.000000000000000000, -1.000000000000000000 ) ) ;
#210 = EDGE_CURVE ( 'NONE', #26, #648, #77, .T. ) ;
#211 = CARTESIAN_POINT ( 'NONE',  ( -6.000000000000000000, 0.000000000000000000, -25.50000000000000000 ) ) ;
#212 = ORIENTED_EDGE ( 'NONE', *, *, #396, .F. ) ;
#213 =( NAMED_UNIT ( * ) SI_UNIT ( $, .STERADIAN. ) SOLID_ANGLE_UNIT ( ) );
#214 = CARTESIAN_POINT ( 'NONE',  ( -9.199999999999999289, 0.000000000000000000, -8.300000000000002487 ) ) ;
#215 = VECTOR ( 'NONE', #973, 1000.000000000000000 ) ;
#216 = ADVANCED_FACE ( 'NONE', ( #221 ), #655, .F. ) ;
#217 = AXIS2_PLACEMENT_3D ( 'NONE', #910, #694, #1109 ) ;
#218 = CIRCLE ( 'NONE', #1169, 2.299999999999999822 ) ;
#219 = DIRECTION ( 'NONE',  ( 0.000000000000000000, 0.000000000000000000, 1.000000000000000000 ) ) ;
#220 = ORIENTED_EDGE ( 'NONE', *, *, #1308, .F. ) ;
#221 = FACE_OUTER_BOUND ( 'NONE', #984, .T. ) ;
#222 = DIRECTION ( 'NONE',  ( 0.000000000000000000, -1.000000000000000000, 0.000000000000000000 ) ) ;
#223 = ADVANCED_FACE ( 'NONE', ( #322 ), #1175, .F. ) ;
#224 = DIRECTION ( 'NONE',  ( 1.000000000000000000, 0.000000000000000000, -0.000000000000000000 ) ) ;
#225 = VERTEX_POINT ( 'NONE', #240 ) ;
#226 = EDGE_CURVE ( 'NONE', #800, #378, #1118, .T. ) ;
#227 = LINE ( 'NONE', #1294, #965 ) ;
#228 = EDGE_LOOP ( 'NONE', ( #201, #399, #1142, #453, #241 ) ) ;
#229 = DIRECTION ( 'NONE',  ( 0.000000000000000000, 0.000000000000000000, 1.000000000000000000 ) ) ;
#230 = DIRECTION ( 'NONE',  ( 0.000000000000000000, 0.000000000000000000, 1.000000000000000000 ) ) ;
#231 = ORIENTED_EDGE ( 'NONE', *, *, #1124, .F. ) ;
#232 = DIRECTION ( 'NONE',  ( 2.952378146089967439E-16, -1.000000000000000000, 0.000000000000000000 ) ) ;
#233 = ORIENTED_EDGE ( 'NONE', *, *, #1050, .F. ) ;
#234 = LINE ( 'NONE', #348, #1092 ) ;
#235 = VECTOR ( 'NONE', #340, 1000.000000000000000 ) ;
#236 = DIRECTION ( 'NONE',  ( -0.000000000000000000, -0.000000000000000000, -1.000000000000000000 ) ) ;
#237 = AXIS2_PLACEMENT_3D ( 'NONE', #831, #319, #415 ) ;
#238 = AXIS2_PLACEMENT_3D ( 'NONE', #1214, #261, #154 ) ;
#239 = EDGE_LOOP ( 'NONE', ( #819, #1074, #1117, #120, #472, #457, #1187, #465 ) ) ;
#240 = CARTESIAN_POINT ( 'NONE',  ( -5.999999999999994671, 0.000000000000000000, 22.75000000000000000 ) ) ;
#241 = ORIENTED_EDGE ( 'NONE', *, *, #374, .F. ) ;
#242 = DIRECTION ( 'NONE',  ( 1.000000000000000000, 0.000000000000000000, 0.000000000000000000 ) ) ;
#243 = CARTESIAN_POINT ( 'NONE',  ( -8.099999999999997868, 2.000000000000000000, -33.50000000000000000 ) ) ;
#244 = EDGE_CURVE ( 'NONE', #779, #1003, #741, .T. ) ;
#245 = ORIENTED_EDGE ( 'NONE', *, *, #801, .F. ) ;
#246 = DIRECTION ( 'NONE',  ( 0.000000000000000000, 0.000000000000000000, -1.000000000000000000 ) ) ;
#247 = CARTESIAN_POINT ( 'NONE',  ( -9.199999999999999289, 0.000000000000000000, 8.300000000000002487 ) ) ;
#248 = EDGE_CURVE ( 'NONE', #876, #777, #227, .T. ) ;
#249 = ORIENTED_EDGE ( 'NONE', *, *, #1050, .T. ) ;
#250 = ORIENTED_EDGE ( 'NONE', *, *, #148, .F. ) ;
#251 = CARTESIAN_POINT ( 'NONE',  ( 11.50000000000000000, 2.000000000000000000, -33.50000000000000000 ) ) ;
#252 = AXIS2_PLACEMENT_3D ( 'NONE', #960, #339, #642 ) ;
#253 = EDGE_CURVE ( 'NONE', #1232, #1223, #1180, .T. ) ;
#254 = AXIS2_PLACEMENT_3D ( 'NONE', #1070, #123, #242 ) ;
#255 = ORIENTED_EDGE ( 'NONE', *, *, #857, .T. ) ;
#256 = CIRCLE ( 'NONE', #1323, 2.749999999999999112 ) ;
#257 = FACE_BOUND ( 'NONE', #1126, .T. ) ;
#258 = PRESENTATION_LAYER_ASSIGNMENT (  '', '', ( #1348 ) ) ;
#259 = ORIENTED_EDGE ( 'NONE', *, *, #992, .T. ) ;
#260 = ORIENTED_EDGE ( 'NONE', *, *, #253, .T. ) ;
#261 = DIRECTION ( 'NONE',  ( -0.000000000000000000, 1.000000000000000000, -0.000000000000000000 ) ) ;
#262 = EDGE_CURVE ( 'NONE', #794, #130, #674, .T. ) ;
#263 = DIRECTION ( 'NONE',  ( -0.000000000000000000, -0.000000000000000000, -1.000000000000000000 ) ) ;
#264 = ORIENTED_EDGE ( 'NONE', *, *, #41, .F. ) ;
#265 = CARTESIAN_POINT ( 'NONE',  ( -8.099999999999997868, 2.000000000000000000, -5.999999999999998224 ) ) ;
#266 = ORIENTED_EDGE ( 'NONE', *, *, #698, .F. ) ;
#267 = EDGE_CURVE ( 'NONE', #695, #354, #21, .T. ) ;
#268 = MANIFOLD_SOLID_BREP ( '圆角3', #1204 ) ;
#269 = CARTESIAN_POINT ( 'NONE',  ( 11.50000000000000000, 0.000000000000000000, 31.20000000000000639 ) ) ;
#270 = DIRECTION ( 'NONE',  ( 0.000000000000000000, 0.000000000000000000, 1.000000000000000000 ) ) ;
#271 = PLANE ( 'NONE',  #1054 ) ;
#272 = EDGE_LOOP ( 'NONE', ( #914, #513, #623, #1042 ) ) ;
#273 = UNCERTAINTY_MEASURE_WITH_UNIT (LENGTH_MEASURE( 1.000000000000000082E-05 ), #91, 'distance_accuracy_value', 'NONE');
#274 = CARTESIAN_POINT ( 'NONE',  ( 11.50000000000000000, 2.000000000000000000, -8.000000000000000000 ) ) ;
#275 = ORIENTED_EDGE ( 'NONE', *, *, #1291, .F. ) ;
#276 = ORIENTED_EDGE ( 'NONE', *, *, #469, .F. ) ;
#277 = LINE ( 'NONE', #1006, #748 ) ;
#278 = VECTOR ( 'NONE', #404, 1000.000000000000000 ) ;
#279 = CARTESIAN_POINT ( 'NONE',  ( -4.500000000000002665, 19.99999999999999645, -8.000000000000000000 ) ) ;
#280 = AXIS2_PLACEMENT_3D ( 'NONE', #1082, #638, #552 ) ;
#281 = VERTEX_POINT ( 'NONE', #1057 ) ;
#282 = AXIS2_PLACEMENT_3D ( 'NONE', #951, #429, #844 ) ;
#283 = CARTESIAN_POINT ( 'NONE',  ( -9.199999999999999289, 2.000000000000000000, 5.999999999999998224 ) ) ;
#284 = VECTOR ( 'NONE', #997, 1000.000000000000114 ) ;
#285 = VERTEX_POINT ( 'NONE', #437 ) ;
#286 = CARTESIAN_POINT ( 'NONE',  ( -8.100000000000001421, 11.75136374907948600, 6.000000000000000000 ) ) ;
#287 = CARTESIAN_POINT ( 'NONE',  ( -9.199999999999999289, 2.000000000000000000, 8.300000000000002487 ) ) ;
#288 = DIRECTION ( 'NONE',  ( -1.000000000000000000, 0.000000000000000000, 0.000000000000000000 ) ) ;
#289 = ADVANCED_FACE ( 'NONE', ( #17, #344 ), #1171, .F. ) ;
#290 = DIRECTION ( 'NONE',  ( 0.000000000000000000, 1.000000000000000000, 0.000000000000000000 ) ) ;
#291 = ORIENTED_EDGE ( 'NONE', *, *, #6, .F. ) ;
#292 = PLANE ( 'NONE',  #983 ) ;
#293 = ORIENTED_EDGE ( 'NONE', *, *, #1248, .F. ) ;
#294 = DIRECTION ( 'NONE',  ( 0.000000000000000000, 1.000000000000000000, -0.000000000000000000 ) ) ;
#295 = SURFACE_SIDE_STYLE ('',( #1247 ) ) ;
#296 = CARTESIAN_POINT ( 'NONE',  ( -9.199999999999999289, 0.000000000000000000, -8.300000000000002487 ) ) ;
#297 = EDGE_CURVE ( 'NONE', #862, #695, #664, .T. ) ;
#298 = EDGE_LOOP ( 'NONE', ( #864, #501, #1086, #1351, #293 ) ) ;
#299 = EDGE_LOOP ( 'NONE', ( #151, #995, #81, #411 ) ) ;
#300 = FACE_OUTER_BOUND ( 'NONE', #58, .T. ) ;
#301 = PRESENTATION_STYLE_ASSIGNMENT (( #712 ) ) ;
#302 = CARTESIAN_POINT ( 'NONE',  ( -1.500000000000002220, 19.99999999999999645, 6.000000000000000000 ) ) ;
#303 = DIRECTION ( 'NONE',  ( -1.000000000000000000, -0.000000000000000000, -0.000000000000000000 ) ) ;
#304 = FACE_OUTER_BOUND ( 'NONE', #1088, .T. ) ;
#305 = VECTOR ( 'NONE', #1349, 1000.000000000000000 ) ;
#306 = CIRCLE ( 'NONE', #546, 2.749999999999999112 ) ;
#307 = ORIENTED_EDGE ( 'NONE', *, *, #458, .F. ) ;
#308 = CARTESIAN_POINT ( 'NONE',  ( -11.50000000000000000, 2.000000000000000000, 31.20000000000000284 ) ) ;
#309 = AXIS2_PLACEMENT_3D ( 'NONE', #369, #795, #1345 ) ;
#310 = ADVANCED_FACE ( 'NONE', ( #328 ), #438, .T. ) ;
#311 = DIRECTION ( 'NONE',  ( 0.000000000000000000, 0.000000000000000000, 1.000000000000000000 ) ) ;
#312 = CARTESIAN_POINT ( 'NONE',  ( -0.9000000000000032419, 19.99999999999999645, -9.000000000000001776 ) ) ;
#313 = ORIENTED_EDGE ( 'NONE', *, *, #69, .T. ) ;
#314 = DIRECTION ( 'NONE',  ( 0.000000000000000000, 1.000000000000000000, 0.000000000000000000 ) ) ;
#315 = DIRECTION ( 'NONE',  ( 0.000000000000000000, 0.000000000000000000, 1.000000000000000000 ) ) ;
#316 = ADVANCED_FACE ( 'NONE', ( #1065 ), #454, .T. ) ;
#317 = CARTESIAN_POINT ( 'NONE',  ( -4.500000000000002665, 19.99999999999999645, 16.48528137423856776 ) ) ;
#318 = FACE_OUTER_BOUND ( 'NONE', #636, .T. ) ;
#319 = DIRECTION ( 'NONE',  ( 0.000000000000000000, 1.000000000000000000, 0.000000000000000000 ) ) ;
#320 = ADVANCED_FACE ( 'NONE', ( #865 ), #459, .F. ) ;
#321 = ORIENTED_EDGE ( 'NONE', *, *, #976, .T. ) ;
#322 = FACE_OUTER_BOUND ( 'NONE', #845, .T. ) ;
#323 = DIRECTION ( 'NONE',  ( -0.3369188387224464343, 0.9415336935627519610, -0.000000000000000000 ) ) ;
#324 = DIRECTION ( 'NONE',  ( 1.000000000000000000, 0.000000000000000000, 0.000000000000000000 ) ) ;
#325 = AXIS2_PLACEMENT_3D ( 'NONE', #1076, #856, #136 ) ;
#326 = ORIENTED_EDGE ( 'NONE', *, *, #210, .T. ) ;
#327 = VECTOR ( 'NONE', #768, 1000.000000000000000 ) ;
#328 = FACE_OUTER_BOUND ( 'NONE', #1199, .T. ) ;
#329 = VECTOR ( 'NONE', #1116, 1000.000000000000000 ) ;
#330 = AXIS2_PLACEMENT_3D ( 'NONE', #554, #357, #964 ) ;
#331 = CARTESIAN_POINT ( 'NONE',  ( -11.50000000000000000, 2.000000000000000000, 8.000000000000000000 ) ) ;
#332 = EDGE_CURVE ( 'NONE', #170, #1094, #370, .T. ) ;
#333 = ORIENTED_EDGE ( 'NONE', *, *, #562, .F. ) ;
#334 = CARTESIAN_POINT ( 'NONE',  ( 11.50000000000000000, 0.000000000000000000, -33.50000000000000000 ) ) ;
#335 = CARTESIAN_POINT ( 'NONE',  ( 6.000000000000005329, 2.000000000000000000, 28.24999999999999645 ) ) ;
#336 = PLANE ( 'NONE',  #790 ) ;
#337 = CYLINDRICAL_SURFACE ( 'NONE', #656, 3.000000000000000000 ) ;
#338 = VERTEX_POINT ( 'NONE', #760 ) ;
#339 = DIRECTION ( 'NONE',  ( 0.000000000000000000, 0.000000000000000000, 1.000000000000000000 ) ) ;
#340 = DIRECTION ( 'NONE',  ( -0.000000000000000000, -0.000000000000000000, -1.000000000000000000 ) ) ;
#341 = CARTESIAN_POINT ( 'NONE',  ( 9.199999999999999289, 2.000000000000000000, 31.20000000000000284 ) ) ;
#342 = VECTOR ( 'NONE', #624, 1000.000000000000000 ) ;
#343 = ORIENTED_EDGE ( 'NONE', *, *, #163, .T. ) ;
#344 = FACE_OUTER_BOUND ( 'NONE', #228, .T. ) ;
#345 = ORIENTED_EDGE ( 'NONE', *, *, #406, .F. ) ;
#346 = EDGE_CURVE ( 'NONE', #1157, #826, #1184, .T. ) ;
#347 = CYLINDRICAL_SURFACE ( 'NONE', #330, 8.999999999999998224 ) ;
#348 = CARTESIAN_POINT ( 'NONE',  ( -8.100000000000001421, 11.75136374907948600, 6.000000000000000000 ) ) ;
#349 = VECTOR ( 'NONE', #232, 1000.000000000000000 ) ;
#350 = DIRECTION ( 'NONE',  ( -1.000000000000000000, 0.000000000000000000, 0.000000000000000000 ) ) ;
#351 = VECTOR ( 'NONE', #420, 1000.000000000000000 ) ;
#352 = AXIS2_PLACEMENT_3D ( 'NONE', #1330, #1130, #61 ) ;
#353 = VERTEX_POINT ( 'NONE', #962 ) ;
#354 = VERTEX_POINT ( 'NONE', #23 ) ;
#355 = CARTESIAN_POINT ( 'NONE',  ( 6.000000000000000000, 2.000000000000000000, -25.50000000000000000 ) ) ;
#356 = EDGE_CURVE ( 'NONE', #409, #496, #1197, .T. ) ;
#357 = DIRECTION ( 'NONE',  ( 0.000000000000000000, 0.000000000000000000, 1.000000000000000000 ) ) ;
#358 = DIRECTION ( 'NONE',  ( 1.000000000000000000, 0.000000000000000000, -0.000000000000000000 ) ) ;
#359 = ORIENTED_EDGE ( 'NONE', *, *, #15, .F. ) ;
#360 = CARTESIAN_POINT ( 'NONE',  ( -8.100000000000001421, 19.99999999999999645, 9.000000000000001776 ) ) ;
#361 = LINE ( 'NONE', #644, #1347 ) ;
#362 = VECTOR ( 'NONE', #202, 1000.000000000000000 ) ;
#363 = ORIENTED_EDGE ( 'NONE', *, *, #19, .T. ) ;
#364 = DIRECTION ( 'NONE',  ( 0.000000000000000000, 1.000000000000000000, 0.000000000000000000 ) ) ;
#365 = CIRCLE ( 'NONE', #527, 2.749999999999999112 ) ;
#366 = ORIENTED_EDGE ( 'NONE', *, *, #172, .F. ) ;
#367 = EDGE_CURVE ( 'NONE', #989, #687, #859, .T. ) ;
#368 = LINE ( 'NONE', #36, #456 ) ;
#369 = CARTESIAN_POINT ( 'NONE',  ( 6.000000000000005329, 0.000000000000000000, 25.50000000000000000 ) ) ;
#370 = CIRCLE ( 'NONE', #874, 2.749999999999999112 ) ;
#371 = CARTESIAN_POINT ( 'NONE',  ( -8.100000000000001421, 11.75136374907948600, 6.000000000000000000 ) ) ;
#372 = LINE ( 'NONE', #1332, #1147 ) ;
#373 = PRESENTATION_LAYER_ASSIGNMENT (  '', '', ( #1317 ) ) ;
#374 = EDGE_CURVE ( 'NONE', #740, #1157, #1284, .T. ) ;
#375 = VERTEX_POINT ( 'NONE', #335 ) ;
#376 = AXIS2_PLACEMENT_3D ( 'NONE', #1112, #50, #1097 ) ;
#377 = PLANE ( 'NONE',  #676 ) ;
#378 = VERTEX_POINT ( 'NONE', #970 ) ;
#379 = EDGE_LOOP ( 'NONE', ( #930, #948, #657, #441 ) ) ;
#380 = LINE ( 'NONE', #697, #678 ) ;
#381 = DIRECTION ( 'NONE',  ( -1.000000000000000000, 0.000000000000000000, 0.000000000000000000 ) ) ;
#382 = CARTESIAN_POINT ( 'NONE',  ( 11.50000000000000000, 2.000000000000000000, 8.000000000000000000 ) ) ;
#383 = ORIENTED_EDGE ( 'NONE', *, *, #422, .T. ) ;
#384 = CYLINDRICAL_SURFACE ( 'NONE', #511, 2.749999999999999112 ) ;
#385 = ORIENTED_EDGE ( 'NONE', *, *, #992, .F. ) ;
#386 = ORIENTED_EDGE ( 'NONE', *, *, #801, .T. ) ;
#387 = CARTESIAN_POINT ( 'NONE',  ( 6.000000000000000000, 2.000000000000000000, -25.50000000000000000 ) ) ;
#388 = PRODUCT ( '不锈钢迷你型CTMA系列气缸[CTMA-16x25-S-CA-SDB]_SDB', '不锈钢迷你型CTMA系列气缸[CTMA-16x25-S-CA-SDB]_SDB', '', ( #1159 ) ) ;
#389 = PLANE ( 'NONE',  #928 ) ;
#390 = CARTESIAN_POINT ( 'NONE',  ( -5.999999999999994671, 0.000000000000000000, 25.50000000000000000 ) ) ;
#391 = ORIENTED_EDGE ( 'NONE', *, *, #575, .F. ) ;
#392 = DIRECTION ( 'NONE',  ( -0.000000000000000000, -0.000000000000000000, 1.000000000000000000 ) ) ;
#393 = ORIENTED_EDGE ( 'NONE', *, *, #412, .F. ) ;
#394 = EDGE_LOOP ( 'NONE', ( #798, #1318, #891, #1311 ) ) ;
#395 = DIRECTION ( 'NONE',  ( 0.000000000000000000, 0.000000000000000000, 1.000000000000000000 ) ) ;
#396 = EDGE_CURVE ( 'NONE', #876, #648, #234, .T. ) ;
#397 = CARTESIAN_POINT ( 'NONE',  ( 11.50000000000000000, 2.000000000000000000, -31.20000000000000284 ) ) ;
#398 = AXIS2_PLACEMENT_3D ( 'NONE', #211, #943, #1265 ) ;
#399 = ORIENTED_EDGE ( 'NONE', *, *, #267, .F. ) ;
#400 = CIRCLE ( 'NONE', #55, 2.749999999999999112 ) ;
#401 = CARTESIAN_POINT ( 'NONE',  ( -1.500000000000002220, 19.99999999999999645, -6.000000000000000000 ) ) ;
#402 = VECTOR ( 'NONE', #670, 1000.000000000000000 ) ;
#403 = ORIENTED_EDGE ( 'NONE', *, *, #1132, .T. ) ;
#404 = DIRECTION ( 'NONE',  ( -0.000000000000000000, -0.000000000000000000, 1.000000000000000000 ) ) ;
#405 = DIRECTION ( 'NONE',  ( 0.000000000000000000, 0.000000000000000000, 1.000000000000000000 ) ) ;
#406 = EDGE_CURVE ( 'NONE', #66, #967, #3, .T. ) ;
#407 = CARTESIAN_POINT ( 'NONE',  ( 6.000000000000000000, 0.000000000000000000, -22.75000000000000000 ) ) ;
#408 = CARTESIAN_POINT ( 'NONE',  ( -9.199999999999999289, 2.000000000000000000, -5.999999999999998224 ) ) ;
#409 = VERTEX_POINT ( 'NONE', #749 ) ;
#410 = CYLINDRICAL_SURFACE ( 'NONE', #463, 8.999999999999998224 ) ;
#411 = ORIENTED_EDGE ( 'NONE', *, *, #504, .F. ) ;
#412 = EDGE_CURVE ( 'NONE', #777, #1287, #564, .T. ) ;
#413 = DIRECTION ( 'NONE',  ( 0.000000000000000000, -1.000000000000000000, 0.000000000000000000 ) ) ;
#414 = DIRECTION ( 'NONE',  ( 0.000000000000000000, -0.000000000000000000, -1.000000000000000000 ) ) ;
#415 = DIRECTION ( 'NONE',  ( 0.000000000000000000, 0.000000000000000000, 1.000000000000000000 ) ) ;
#416 = ORIENTED_EDGE ( 'NONE', *, *, #346, .T. ) ;
#417 = DIRECTION ( 'NONE',  ( 0.000000000000000000, 1.000000000000000000, 0.000000000000000000 ) ) ;
#418 = DIRECTION ( 'NONE',  ( 0.000000000000000000, 0.000000000000000000, -1.000000000000000000 ) ) ;
#419 = ADVANCED_FACE ( 'NONE', ( #544 ), #658, .T. ) ;
#420 = DIRECTION ( 'NONE',  ( -0.000000000000000000, 1.000000000000000000, -0.000000000000000000 ) ) ;
#421 = DIRECTION ( 'NONE',  ( 1.000000000000000000, -0.000000000000000000, -0.000000000000000000 ) ) ;
#422 = EDGE_CURVE ( 'NONE', #1028, #1252, #589, .T. ) ;
#423 = VECTOR ( 'NONE', #1060, 1000.000000000000000 ) ;
#424 = ORIENTED_EDGE ( 'NONE', *, *, #262, .T. ) ;
#425 = VECTOR ( 'NONE', #1229, 1000.000000000000000 ) ;
#426 = CARTESIAN_POINT ( 'NONE',  ( -11.50000000000000000, 2.000000000000000000, 33.50000000000000000 ) ) ;
#427 = AXIS2_PLACEMENT_3D ( 'NONE', #247, #31, #451 ) ;
#428 = CARTESIAN_POINT ( 'NONE',  ( -5.999999999999994671, 0.000000000000000000, 28.24999999999999645 ) ) ;
#429 = DIRECTION ( 'NONE',  ( -1.000000000000000000, 0.000000000000000000, 0.000000000000000000 ) ) ;
#430 = EDGE_CURVE ( 'NONE', #452, #687, #721, .T. ) ;
#431 = DIRECTION ( 'NONE',  ( 0.000000000000000000, 0.000000000000000000, -1.000000000000000000 ) ) ;
#432 = ORIENTED_EDGE ( 'NONE', *, *, #861, .F. ) ;
#433 = CARTESIAN_POINT ( 'NONE',  ( 6.000000000000000000, 0.000000000000000000, -22.75000000000000000 ) ) ;
#434 = DIRECTION ( 'NONE',  ( 0.000000000000000000, 0.000000000000000000, -1.000000000000000000 ) ) ;
#435 = LINE ( 'NONE', #199, #305 ) ;
#436 = ORIENTED_EDGE ( 'NONE', *, *, #1195, .F. ) ;
#437 = CARTESIAN_POINT ( 'NONE',  ( -5.999999999999994671, 2.000000000000000000, 28.24999999999999645 ) ) ;
#438 = CYLINDRICAL_SURFACE ( 'NONE', #854, 2.299999999999999822 ) ;
#439 = EDGE_CURVE ( 'NONE', #581, #628, #901, .T. ) ;
#440 = DIRECTION ( 'NONE',  ( 0.000000000000000000, 0.000000000000000000, -1.000000000000000000 ) ) ;
#441 = ORIENTED_EDGE ( 'NONE', *, *, #430, .T. ) ;
#442 = DIRECTION ( 'NONE',  ( 0.000000000000000000, 0.000000000000000000, 1.000000000000000000 ) ) ;
#443 = MECHANICAL_DESIGN_GEOMETRIC_PRESENTATION_REPRESENTATION (  '', ( #1317 ), #32 ) ;
#444 = CARTESIAN_POINT ( 'NONE',  ( -8.100000000000001421, 11.75136374907948600, -6.000000000000000000 ) ) ;
#445 = DIRECTION ( 'NONE',  ( 0.000000000000000000, -1.000000000000000000, 0.000000000000000000 ) ) ;
#446 = VECTOR ( 'NONE', #10, 1000.000000000000000 ) ;
#447 = EDGE_CURVE ( 'NONE', #598, #876, #1279, .T. ) ;
#448 = VERTEX_POINT ( 'NONE', #1017 ) ;
#449 = ORIENTED_EDGE ( 'NONE', *, *, #1029, .F. ) ;
#450 = DIRECTION ( 'NONE',  ( -0.3369188387224464343, 0.9415336935627519610, -0.000000000000000000 ) ) ;
#451 = DIRECTION ( 'NONE',  ( 0.000000000000000000, 0.000000000000000000, 1.000000000000000000 ) ) ;
#452 = VERTEX_POINT ( 'NONE', #499 ) ;
#453 = ORIENTED_EDGE ( 'NONE', *, *, #346, .F. ) ;
#454 = CYLINDRICAL_SURFACE ( 'NONE', #508, 3.599999999999999201 ) ;
#455 = DIRECTION ( 'NONE',  ( -0.000000000000000000, -1.000000000000000000, 0.000000000000000000 ) ) ;
#456 = VECTOR ( 'NONE', #467, 1000.000000000000000 ) ;
#457 = ORIENTED_EDGE ( 'NONE', *, *, #517, .T. ) ;
#458 = EDGE_CURVE ( 'NONE', #130, #1103, #1000, .T. ) ;
#459 = PLANE ( 'NONE',  #745 ) ;
#460 = AXIS2_PLACEMENT_3D ( 'NONE', #956, #229, #1191 ) ;
#461 = CARTESIAN_POINT ( 'NONE',  ( -9.199999999999999289, 0.000000000000000000, 8.300000000000002487 ) ) ;
#462 = VECTOR ( 'NONE', #475, 1000.000000000000000 ) ;
#463 = AXIS2_PLACEMENT_3D ( 'NONE', #1141, #904, #381 ) ;
#464 = EDGE_CURVE ( 'NONE', #281, #22, #1032, .T. ) ;
#465 = ORIENTED_EDGE ( 'NONE', *, *, #1291, .T. ) ;
#466 = ORIENTED_EDGE ( 'NONE', *, *, #899, .T. ) ;
#467 = DIRECTION ( 'NONE',  ( 0.000000000000000000, 0.000000000000000000, 1.000000000000000000 ) ) ;
#468 = DIRECTION ( 'NONE',  ( 0.000000000000000000, 0.000000000000000000, -1.000000000000000000 ) ) ;
#469 = EDGE_CURVE ( 'NONE', #1353, #690, #1165, .T. ) ;
#470 = EDGE_LOOP ( 'NONE', ( #631, #1091, #383, #359 ) ) ;
#471 = ORIENTED_EDGE ( 'NONE', *, *, #659, .F. ) ;
#472 = ORIENTED_EDGE ( 'NONE', *, *, #1185, .T. ) ;
#473 = CARTESIAN_POINT ( 'NONE',  ( -8.099999999999997868, 2.000000000000000000, 8.000000000000000000 ) ) ;
#474 = EDGE_CURVE ( 'NONE', #1061, #1003, #97, .T. ) ;
#475 = DIRECTION ( 'NONE',  ( -0.000000000000000000, 1.000000000000000000, -0.000000000000000000 ) ) ;
#476 = DIRECTION ( 'NONE',  ( 0.000000000000000000, 0.000000000000000000, -1.000000000000000000 ) ) ;
#477 = EDGE_LOOP ( 'NONE', ( #1133, #1207 ) ) ;
#478 = CARTESIAN_POINT ( 'NONE',  ( 6.000000000000000000, 0.000000000000000000, -28.24999999999999645 ) ) ;
#479 = ORIENTED_EDGE ( 'NONE', *, *, #634, .T. ) ;
#480 = CARTESIAN_POINT ( 'NONE',  ( -9.199999999999999289, 0.000000000000000000, 31.20000000000000284 ) ) ;
#481 = DIRECTION ( 'NONE',  ( 1.000000000000000000, 0.000000000000000000, 0.000000000000000000 ) ) ;
#482 = DIRECTION ( 'NONE',  ( 1.000000000000000000, 0.000000000000000000, 0.000000000000000000 ) ) ;
#483 = VECTOR ( 'NONE', #626, 1000.000000000000000 ) ;
#484 = AXIS2_PLACEMENT_3D ( 'NONE', #610, #76, #507 ) ;
#485 = VERTEX_POINT ( 'NONE', #1150 ) ;
#486 = VECTOR ( 'NONE', #323, 1000.000000000000114 ) ;
#487 = DIRECTION ( 'NONE',  ( 0.000000000000000000, 0.000000000000000000, 1.000000000000000000 ) ) ;
#488 = ORIENTED_EDGE ( 'NONE', *, *, #999, .F. ) ;
#489 = VERTEX_POINT ( 'NONE', #205 ) ;
#490 = DIRECTION ( 'NONE',  ( 0.000000000000000000, 0.000000000000000000, -1.000000000000000000 ) ) ;
#491 = PRODUCT_RELATED_PRODUCT_CATEGORY ( 'part', '', ( #388 ) ) ;
#492 = EDGE_LOOP ( 'NONE', ( #343, #1219, #816, #509 ) ) ;
#493 = DIRECTION ( 'NONE',  ( -0.000000000000000000, -0.000000000000000000, -1.000000000000000000 ) ) ;
#494 = EDGE_CURVE ( 'NONE', #130, #628, #1160, .T. ) ;
#495 = ORIENTED_EDGE ( 'NONE', *, *, #1298, .T. ) ;
#496 = VERTEX_POINT ( 'NONE', #1138 ) ;
#497 = DIRECTION ( 'NONE',  ( 0.000000000000000000, 0.000000000000000000, 1.000000000000000000 ) ) ;
#498 = DIRECTION ( 'NONE',  ( 0.000000000000000000, 0.000000000000000000, 1.000000000000000000 ) ) ;
#499 = CARTESIAN_POINT ( 'NONE',  ( -7.500000000000002665, 19.99999999999999645, -6.000000000000000000 ) ) ;
#500 = DIRECTION ( 'NONE',  ( 0.000000000000000000, 1.000000000000000000, 0.000000000000000000 ) ) ;
#501 = ORIENTED_EDGE ( 'NONE', *, *, #1090, .T. ) ;
#502 = DIRECTION ( 'NONE',  ( -0.000000000000000000, 1.000000000000000000, -0.000000000000000000 ) ) ;
#503 = EDGE_LOOP ( 'NONE', ( #1283, #307, #38, #1174 ) ) ;
#504 = EDGE_CURVE ( 'NONE', #193, #452, #521, .T. ) ;
#505 = DIRECTION ( 'NONE',  ( 1.000000000000000000, 0.000000000000000000, 0.000000000000000000 ) ) ;
#506 = CARTESIAN_POINT ( 'NONE',  ( -8.100000000000001421, 19.99999999999999645, 8.000000000000000000 ) ) ;
#507 = DIRECTION ( 'NONE',  ( -0.3369188387224464343, 0.9415336935627519610, 0.000000000000000000 ) ) ;
#508 = AXIS2_PLACEMENT_3D ( 'NONE', #870, #649, #1303 ) ;
#509 = ORIENTED_EDGE ( 'NONE', *, *, #356, .T. ) ;
#510 = ADVANCED_FACE ( 'NONE', ( #630, #938, #190 ), #1375, .T. ) ;
#511 = AXIS2_PLACEMENT_3D ( 'NONE', #688, #702, #487 ) ;
#512 = CIRCLE ( 'NONE', #533, 2.749999999999999112 ) ;
#513 = ORIENTED_EDGE ( 'NONE', *, *, #617, .F. ) ;
#514 = DIRECTION ( 'NONE',  ( 0.000000000000000000, 0.000000000000000000, 1.000000000000000000 ) ) ;
#515 = FILL_AREA_STYLE ('',( #1144 ) ) ;
#516 = FACE_BOUND ( 'NONE', #477, .T. ) ;
#517 = EDGE_CURVE ( 'NONE', #1370, #1302, #1072, .T. ) ;
#518 = ORIENTED_EDGE ( 'NONE', *, *, #625, .F. ) ;
#519 = CARTESIAN_POINT ( 'NONE',  ( 6.000000000000000000, 2.000000000000000000, -28.24999999999999645 ) ) ;
#520 = EDGE_CURVE ( 'NONE', #169, #708, #435, .T. ) ;
#521 = LINE ( 'NONE', #1053, #1367 ) ;
#522 = CARTESIAN_POINT ( 'NONE',  ( -11.50000000000000000, 2.000000000000000000, -33.50000000000000000 ) ) ;
#523 = ORIENTED_EDGE ( 'NONE', *, *, #1254, .F. ) ;
#524 = FACE_OUTER_BOUND ( 'NONE', #701, .T. ) ;
#525 =( LENGTH_UNIT ( ) NAMED_UNIT ( * ) SI_UNIT ( .MILLI., .METRE. ) );
#526 = CARTESIAN_POINT ( 'NONE',  ( -9.199999999999999289, 0.000000000000000000, -31.20000000000000284 ) ) ;
#527 = AXIS2_PLACEMENT_3D ( 'NONE', #941, #417, #719 ) ;
#528 = DIRECTION ( 'NONE',  ( 1.000000000000000000, 0.000000000000000000, 0.000000000000000000 ) ) ;
#529 = COLOUR_RGB ( '',1.000000000000000000, 1.000000000000000000, 1.000000000000000000 ) ;
#530 = ORIENTED_EDGE ( 'NONE', *, *, #1371, .F. ) ;
#531 = AXIS2_PLACEMENT_3D ( 'NONE', #317, #1051, #288 ) ;
#532 = CARTESIAN_POINT ( 'NONE',  ( 6.000000000000005329, 0.000000000000000000, 25.50000000000000000 ) ) ;
#533 = AXIS2_PLACEMENT_3D ( 'NONE', #387, #180, #490 ) ;
#534 = DIRECTION ( 'NONE',  ( 1.000000000000000000, 0.000000000000000000, 0.000000000000000000 ) ) ;
#535 = EDGE_LOOP ( 'NONE', ( #1300, #611, #233, #259, #94, #1259, #1152 ) ) ;
#536 = EDGE_CURVE ( 'NONE', #73, #708, #1256, .T. ) ;
#537 = PRESENTATION_STYLE_ASSIGNMENT (( #542 ) ) ;
#538 = LINE ( 'NONE', #955, #946 ) ;
#539 = CARTESIAN_POINT ( 'NONE',  ( 3.973803242064763985, 23.03226954850201480, -8.000000000000000000 ) ) ;
#540 = CARTESIAN_POINT ( 'NONE',  ( -4.500000000000002665, 19.99999999999999645, -6.000000000000000000 ) ) ;
#541 = EDGE_LOOP ( 'NONE', ( #977, #605, #1081, #716, #160, #1309, #60 ) ) ;
#542 = SURFACE_STYLE_USAGE ( .BOTH. , #1189 ) ;
#543 = EDGE_CURVE ( 'NONE', #628, #489, #654, .T. ) ;
#544 = FACE_OUTER_BOUND ( 'NONE', #1026, .T. ) ;
#545 = CARTESIAN_POINT ( 'NONE',  ( -11.50000000000000000, 2.000000000000000000, -33.50000000000000000 ) ) ;
#546 = AXIS2_PLACEMENT_3D ( 'NONE', #820, #294, #1143 ) ;
#547 = ORIENTED_EDGE ( 'NONE', *, *, #1228, .T. ) ;
#548 = VECTOR ( 'NONE', #421, 1000.000000000000000 ) ;
#549 = VECTOR ( 'NONE', #1158, 1000.000000000000000 ) ;
#550 = VECTOR ( 'NONE', #88, 1000.000000000000000 ) ;
#551 = ORIENTED_EDGE ( 'NONE', *, *, #332, .F. ) ;
#552 = DIRECTION ( 'NONE',  ( 1.000000000000000000, 0.000000000000000000, 0.000000000000000000 ) ) ;
#553 = VECTOR ( 'NONE', #957, 1000.000000000000000 ) ;
#554 = CARTESIAN_POINT ( 'NONE',  ( -4.500000000000002665, 19.99999999999999645, 6.000000000000000000 ) ) ;
#555 = VECTOR ( 'NONE', #991, 1000.000000000000000 ) ;
#556 = ORIENTED_EDGE ( 'NONE', *, *, #671, .T. ) ;
#557 = CARTESIAN_POINT ( 'NONE',  ( -6.000000000000000000, 0.000000000000000000, -25.50000000000000000 ) ) ;
#558 = EDGE_CURVE ( 'NONE', #687, #452, #570, .T. ) ;
#559 = DIRECTION ( 'NONE',  ( -0.000000000000000000, -0.000000000000000000, -1.000000000000000000 ) ) ;
#560 = LINE ( 'NONE', #980, #446 ) ;
#561 = CARTESIAN_POINT ( 'NONE',  ( 6.000000000000005329, 2.000000000000000000, 25.50000000000000000 ) ) ;
#562 = EDGE_CURVE ( 'NONE', #169, #661, #618, .T. ) ;
#563 = EDGE_LOOP ( 'NONE', ( #1359, #153, #385, #1056 ) ) ;
#564 = LINE ( 'NONE', #115, #1052 ) ;
#565 = LINE ( 'NONE', #1290, #402 ) ;
#566 = EDGE_CURVE ( 'NONE', #48, #1094, #111, .T. ) ;
#567 = ORIENTED_EDGE ( 'NONE', *, *, #226, .F. ) ;
#568 = EDGE_LOOP ( 'NONE', ( #1326, #137, #1225, #1170 ) ) ;
#569 = ORIENTED_EDGE ( 'NONE', *, *, #422, .F. ) ;
#570 = CIRCLE ( 'NONE', #836, 3.000000000000000000 ) ;
#571 = CARTESIAN_POINT ( 'NONE',  ( 6.000000000000000000, 2.000000000000000000, -22.75000000000000000 ) ) ;
#572 = AXIS2_PLACEMENT_3D ( 'NONE', #1139, #431, #1339 ) ;
#573 = VECTOR ( 'NONE', #230, 1000.000000000000000 ) ;
#574 = ORIENTED_EDGE ( 'NONE', *, *, #1355, .T. ) ;
#575 = EDGE_CURVE ( 'NONE', #1252, #1028, #164, .T. ) ;
#576 = CARTESIAN_POINT ( 'NONE',  ( -11.50000000000000000, 0.000000000000000000, -31.20000000000000284 ) ) ;
#577 = LINE ( 'NONE', #892, #284 ) ;
#578 = DIRECTION ( 'NONE',  ( -0.000000000000000000, -0.000000000000000000, -1.000000000000000000 ) ) ;
#579 = ORIENTED_EDGE ( 'NONE', *, *, #1206, .F. ) ;
#580 = LINE ( 'NONE', #79, #1005 ) ;
#581 = VERTEX_POINT ( 'NONE', #824 ) ;
#582 = ORIENTED_EDGE ( 'NONE', *, *, #775, .F. ) ;
#583 = CARTESIAN_POINT ( 'NONE',  ( -5.999999999999994671, 2.000000000000000000, 25.50000000000000000 ) ) ;
#584 = CYLINDRICAL_SURFACE ( 'NONE', #105, 2.749999999999999112 ) ;
#585 = EDGE_LOOP ( 'NONE', ( #530, #1087, #1218, #867 ) ) ;
#586 = CARTESIAN_POINT ( 'NONE',  ( -4.500000000000002665, 19.99999999999999645, 6.000000000000000000 ) ) ;
#587 = ORIENTED_EDGE ( 'NONE', *, *, #543, .T. ) ;
#588 = CARTESIAN_POINT ( 'NONE',  ( 6.000000000000005329, 0.000000000000000000, 25.50000000000000000 ) ) ;
#589 = CIRCLE ( 'NONE', #460, 3.599999999999999201 ) ;
#590 = DIRECTION ( 'NONE',  ( -0.000000000000000000, -0.000000000000000000, -1.000000000000000000 ) ) ;
#591 = AXIS2_PLACEMENT_3D ( 'NONE', #838, #1025, #1036 ) ;
#592 = ADVANCED_FACE ( 'NONE', ( #1368 ), #1155, .T. ) ;
#593 = AXIS2_PLACEMENT_3D ( 'NONE', #1338, #497, #481 ) ;
#594 = ORIENTED_EDGE ( 'NONE', *, *, #85, .F. ) ;
#595 = PRODUCT_DEFINITION_FORMATION_WITH_SPECIFIED_SOURCE ( '任何', '', #388, .NOT_KNOWN. ) ;
#596 = FACE_OUTER_BOUND ( 'NONE', #165, .T. ) ;
#597 = ORIENTED_EDGE ( 'NONE', *, *, #494, .T. ) ;
#598 = VERTEX_POINT ( 'NONE', #1249 ) ;
#599 = DIRECTION ( 'NONE',  ( 0.000000000000000000, 1.000000000000000000, -1.385989770216913090E-16 ) ) ;
#600 = FACE_OUTER_BOUND ( 'NONE', #34, .T. ) ;
#601 = CARTESIAN_POINT ( 'NONE',  ( -9.199999999999999289, 0.000000000000000000, -31.20000000000000284 ) ) ;
#602 = ADVANCED_FACE ( 'NONE', ( #318 ), #1269, .T. ) ;
#603 = ORIENTED_EDGE ( 'NONE', *, *, #99, .F. ) ;
#604 = CYLINDRICAL_SURFACE ( 'NONE', #1344, 3.599999999999999201 ) ;
#605 = ORIENTED_EDGE ( 'NONE', *, *, #562, .T. ) ;
#606 = CARTESIAN_POINT ( 'NONE',  ( -4.500000000000002665, 19.99999999999999645, 6.000000000000000000 ) ) ;
#607 = DIRECTION ( 'NONE',  ( -0.3369188387224464343, 0.9415336935627519610, -0.000000000000000000 ) ) ;
#608 = FACE_OUTER_BOUND ( 'NONE', #299, .T. ) ;
#609 = ADVANCED_FACE ( 'NONE', ( #87, #516 ), #935, .T. ) ;
#610 = CARTESIAN_POINT ( 'NONE',  ( 3.973803242064763985, 23.03226954850201480, 6.000000000000000000 ) ) ;
#611 = ORIENTED_EDGE ( 'NONE', *, *, #1308, .T. ) ;
#612 = CARTESIAN_POINT ( 'NONE',  ( -8.100000000000001421, 11.75136374907948600, 8.000000000000000000 ) ) ;
#613 = ORIENTED_EDGE ( 'NONE', *, *, #1132, .F. ) ;
#614 = LINE ( 'NONE', #828, #29 ) ;
#615 = AXIS2_PLACEMENT_3D ( 'NONE', #1312, #143, #1337 ) ;
#616 = DIRECTION ( 'NONE',  ( 0.000000000000000000, -1.000000000000000000, 0.000000000000000000 ) ) ;
#617 = EDGE_CURVE ( 'NONE', #48, #1068, #789, .T. ) ;
#618 = LINE ( 'NONE', #639, #423 ) ;
#619 = PLANE ( 'NONE',  #484 ) ;
#620 = AXIS2_PLACEMENT_3D ( 'NONE', #647, #1162, #863 ) ;
#621 = AXIS2_PLACEMENT_3D ( 'NONE', #183, #502, #709 ) ;
#622 = AXIS2_PLACEMENT_3D ( 'NONE', #998, #51, #482 ) ;
#623 = ORIENTED_EDGE ( 'NONE', *, *, #566, .T. ) ;
#624 = DIRECTION ( 'NONE',  ( -1.000000000000000000, -0.000000000000000000, -0.000000000000000000 ) ) ;
#625 = EDGE_CURVE ( 'NONE', #648, #1287, #1172, .T. ) ;
#626 = DIRECTION ( 'NONE',  ( 0.000000000000000000, -1.000000000000000000, 0.000000000000000000 ) ) ;
#627 = CARTESIAN_POINT ( 'NONE',  ( -4.500000000000002665, 19.99999999999999645, -6.000000000000000000 ) ) ;
#628 = VERTEX_POINT ( 'NONE', #853 ) ;
#629 = DIRECTION ( 'NONE',  ( 1.000000000000000000, 0.000000000000000000, -0.000000000000000000 ) ) ;
#630 = FACE_BOUND ( 'NONE', #16, .T. ) ;
#631 = ORIENTED_EDGE ( 'NONE', *, *, #1173, .F. ) ;
#632 = CARTESIAN_POINT ( 'NONE',  ( 3.973803242064763985, 23.03226954850201480, 8.000000000000000000 ) ) ;
#633 = CARTESIAN_POINT ( 'NONE',  ( -11.50000000000000000, 2.000000000000000000, -33.50000000000000000 ) ) ;
#634 = EDGE_CURVE ( 'NONE', #1287, #916, #1280, .T. ) ;
#635 = VECTOR ( 'NONE', #450, 1000.000000000000114 ) ;
#636 = EDGE_LOOP ( 'NONE', ( #220, #45, #582, #931 ) ) ;
#637 = VECTOR ( 'NONE', #270, 1000.000000000000000 ) ;
#638 = DIRECTION ( 'NONE',  ( 0.000000000000000000, 0.000000000000000000, 1.000000000000000000 ) ) ;
#639 = CARTESIAN_POINT ( 'NONE',  ( -9.199999999999999289, 2.000000000000000000, 6.000000000000000000 ) ) ;
#640 = ADVANCED_FACE ( 'NONE', ( #596 ), #1341, .F. ) ;
#641 = ORIENTED_EDGE ( 'NONE', *, *, #63, .T. ) ;
#642 = DIRECTION ( 'NONE',  ( 1.000000000000000000, 0.000000000000000000, 0.000000000000000000 ) ) ;
#643 = DIRECTION ( 'NONE',  ( 0.3369188387224464343, -0.9415336935627519610, 0.000000000000000000 ) ) ;
#644 = CARTESIAN_POINT ( 'NONE',  ( -11.50000000000000000, 0.000000000000000000, -33.50000000000000000 ) ) ;
#645 = CARTESIAN_POINT ( 'NONE',  ( 6.000000000000000000, 0.000000000000000000, -25.50000000000000000 ) ) ;
#646 = ORIENTED_EDGE ( 'NONE', *, *, #861, .T. ) ;
#647 = CARTESIAN_POINT ( 'NONE',  ( 9.199999999999999289, 2.000000000000000000, -31.20000000000000284 ) ) ;
#648 = VERTEX_POINT ( 'NONE', #612 ) ;
#649 = DIRECTION ( 'NONE',  ( -0.000000000000000000, -0.000000000000000000, 1.000000000000000000 ) ) ;
#650 = LINE ( 'NONE', #971, #879 ) ;
#651 = CIRCLE ( 'NONE', #961, 3.000000000000000000 ) ;
#652 = ADVANCED_FACE ( 'NONE', ( #56 ), #384, .F. ) ;
#653 = EDGE_LOOP ( 'NONE', ( #641, #805, #1321, #403, #132, #802, #424, #597, #587 ) ) ;
#654 = CIRCLE ( 'NONE', #53, 2.299999999999999822 ) ;
#655 = CYLINDRICAL_SURFACE ( 'NONE', #325, 2.749999999999999112 ) ;
#656 = AXIS2_PLACEMENT_3D ( 'NONE', #1230, #590, #1315 ) ;
#657 = ORIENTED_EDGE ( 'NONE', *, *, #504, .T. ) ;
#658 = CYLINDRICAL_SURFACE ( 'NONE', #145, 3.599999999999999201 ) ;
#659 = EDGE_CURVE ( 'NONE', #225, #353, #922, .T. ) ;
#660 = DIRECTION ( 'NONE',  ( 1.000000000000000000, 2.952378146089967439E-16, -0.000000000000000000 ) ) ;
#661 = VERTEX_POINT ( 'NONE', #283 ) ;
#662 = DIRECTION ( 'NONE',  ( 0.000000000000000000, -1.000000000000000000, -0.000000000000000000 ) ) ;
#663 = ORIENTED_EDGE ( 'NONE', *, *, #1168, .F. ) ;
#664 = LINE ( 'NONE', #444, #235 ) ;
#665 = FACE_OUTER_BOUND ( 'NONE', #784, .T. ) ;
#666 = PRODUCT_DEFINITION_SHAPE ( 'NONE', 'NONE',  #1114 ) ;
#667 = ORIENTED_EDGE ( 'NONE', *, *, #671, .F. ) ;
#668 = ADVANCED_FACE ( 'NONE', ( #47 ), #604, .T. ) ;
#669 = ORIENTED_EDGE ( 'NONE', *, *, #332, .T. ) ;
#670 = DIRECTION ( 'NONE',  ( 0.000000000000000000, 1.000000000000000000, -0.000000000000000000 ) ) ;
#671 = EDGE_CURVE ( 'NONE', #967, #746, #580, .T. ) ;
#672 = ORIENTED_EDGE ( 'NONE', *, *, #536, .F. ) ;
#673 = CARTESIAN_POINT ( 'NONE',  ( 11.50000000000000000, 2.000000000000000000, -33.50000000000000000 ) ) ;
#674 = CIRCLE ( 'NONE', #620, 2.299999999999999822 ) ;
#675 = DIRECTION ( 'NONE',  ( 0.000000000000000000, 0.000000000000000000, 1.000000000000000000 ) ) ;
#676 = AXIS2_PLACEMENT_3D ( 'NONE', #586, #715, #206 ) ;
#677 = LINE ( 'NONE', #44, #462 ) ;
#678 = VECTOR ( 'NONE', #1313, 1000.000000000000000 ) ;
#679 =( GEOMETRIC_REPRESENTATION_CONTEXT ( 3 ) GLOBAL_UNCERTAINTY_ASSIGNED_CONTEXT ( ( #273 ) ) GLOBAL_UNIT_ASSIGNED_CONTEXT ( ( #91, #1164, #102 ) ) REPRESENTATION_CONTEXT ( 'NONE', 'WORKASPACE' ) );
#680 = VERTEX_POINT ( 'NONE', #1127 ) ;
#681 = EDGE_CURVE ( 'NONE', #1302, #862, #11, .T. ) ;
#682 = CARTESIAN_POINT ( 'NONE',  ( -4.500000000000002665, 19.99999999999999645, -9.000000000000001776 ) ) ;
#683 = ORIENTED_EDGE ( 'NONE', *, *, #172, .T. ) ;
#684 = ORIENTED_EDGE ( 'NONE', *, *, #806, .T. ) ;
#685 = CARTESIAN_POINT ( 'NONE',  ( 11.50000000000000000, 2.000000000000000000, 31.20000000000000639 ) ) ;
#686 = DIRECTION ( 'NONE',  ( 0.000000000000000000, 1.000000000000000000, -0.000000000000000000 ) ) ;
#687 = VERTEX_POINT ( 'NONE', #401 ) ;
#688 = CARTESIAN_POINT ( 'NONE',  ( 6.000000000000000000, 0.000000000000000000, -25.50000000000000000 ) ) ;
#689 = EDGE_LOOP ( 'NONE', ( #1013, #250 ) ) ;
#690 = VERTEX_POINT ( 'NONE', #799 ) ;
#691 = FACE_OUTER_BOUND ( 'NONE', #1295, .T. ) ;
#692 = CARTESIAN_POINT ( 'NONE',  ( -11.50000000000000000, 0.000000000000000000, -31.20000000000000284 ) ) ;
#693 = ORIENTED_EDGE ( 'NONE', *, *, #396, .T. ) ;
#694 = DIRECTION ( 'NONE',  ( 0.000000000000000000, 0.000000000000000000, 1.000000000000000000 ) ) ;
#695 = VERTEX_POINT ( 'NONE', #1334 ) ;
#696 = ORIENTED_EDGE ( 'NONE', *, *, #1228, .F. ) ;
#697 = CARTESIAN_POINT ( 'NONE',  ( -13.50000000000000000, 19.99999999999999645, -6.000000000000000000 ) ) ;
#698 = EDGE_CURVE ( 'NONE', #832, #1176, #902, .T. ) ;
#699 = FACE_OUTER_BOUND ( 'NONE', #492, .T. ) ;
#700 = AXIS2_PLACEMENT_3D ( 'NONE', #561, #1374, #1255 ) ;
#701 = EDGE_LOOP ( 'NONE', ( #158, #1251, #518, #212 ) ) ;
#702 = DIRECTION ( 'NONE',  ( -0.000000000000000000, 1.000000000000000000, -0.000000000000000000 ) ) ;
#703 = ORIENTED_EDGE ( 'NONE', *, *, #732, .F. ) ;
#704 = DIRECTION ( 'NONE',  ( -1.000000000000000000, -2.952378146089967439E-16, 0.000000000000000000 ) ) ;
#705 = CARTESIAN_POINT ( 'NONE',  ( -8.100000000000001421, 19.99999999999999645, -9.000000000000001776 ) ) ;
#706 = LINE ( 'NONE', #1024, #1093 ) ;
#707 = PLANE ( 'NONE',  #572 ) ;
#708 = VERTEX_POINT ( 'NONE', #1243 ) ;
#709 = DIRECTION ( 'NONE',  ( 0.000000000000000000, 0.000000000000000000, 1.000000000000000000 ) ) ;
#710 = ORIENTED_EDGE ( 'NONE', *, *, #124, .T. ) ;
#711 = CYLINDRICAL_SURFACE ( 'NONE', #1200, 2.299999999999999822 ) ;
#712 = SURFACE_STYLE_USAGE ( .BOTH. , #295 ) ;
#713 = EDGE_CURVE ( 'NONE', #485, #338, #1146, .T. ) ;
#714 = DIRECTION ( 'NONE',  ( 0.000000000000000000, 1.000000000000000000, -0.000000000000000000 ) ) ;
#715 = DIRECTION ( 'NONE',  ( 0.000000000000000000, 0.000000000000000000, 1.000000000000000000 ) ) ;
#716 = ORIENTED_EDGE ( 'NONE', *, *, #248, .F. ) ;
#717 = EDGE_CURVE ( 'NONE', #1068, #170, #1019, .T. ) ;
#718 = EDGE_LOOP ( 'NONE', ( #178, #1119, #556, #683 ) ) ;
#719 = DIRECTION ( 'NONE',  ( 0.000000000000000000, 0.000000000000000000, 1.000000000000000000 ) ) ;
#720 = DIRECTION ( 'NONE',  ( 0.000000000000000000, -1.000000000000000000, 0.000000000000000000 ) ) ;
#721 = CIRCLE ( 'NONE', #254, 3.000000000000000000 ) ;
#722 = AXIS2_PLACEMENT_3D ( 'NONE', #480, #810, #246 ) ;
#723 = DIRECTION ( 'NONE',  ( -0.000000000000000000, -0.000000000000000000, 1.000000000000000000 ) ) ;
#724 = CYLINDRICAL_SURFACE ( 'NONE', #146, 8.999999999999998224 ) ;
#725 = CIRCLE ( 'NONE', #839, 2.749999999999999112 ) ;
#726 = AXIS2_PLACEMENT_3D ( 'NONE', #162, #1015, #395 ) ;
#727 = CIRCLE ( 'NONE', #700, 2.749999999999999112 ) ;
#728 = VERTEX_POINT ( 'NONE', #265 ) ;
#729 = DIRECTION ( 'NONE',  ( 0.000000000000000000, 0.000000000000000000, 1.000000000000000000 ) ) ;
#730 = DIRECTION ( 'NONE',  ( -0.000000000000000000, 1.000000000000000000, -0.000000000000000000 ) ) ;
#731 = FACE_OUTER_BOUND ( 'NONE', #568, .T. ) ;
#732 = EDGE_CURVE ( 'NONE', #1110, #1028, #1102, .T. ) ;
#733 = ORIENTED_EDGE ( 'NONE', *, *, #374, .T. ) ;
#734 = PLANE ( 'NONE',  #27 ) ;
#735 = DIRECTION ( 'NONE',  ( 1.000000000000000000, 0.000000000000000000, 0.000000000000000000 ) ) ;
#736 = EDGE_CURVE ( 'NONE', #1370, #1157, #1027, .T. ) ;
#737 = CARTESIAN_POINT ( 'NONE',  ( -4.500000000000002665, 19.99999999999999645, -8.000000000000000000 ) ) ;
#738 = CYLINDRICAL_SURFACE ( 'NONE', #1319, 2.299999999999999822 ) ;
#739 = ADVANCED_BREP_SHAPE_REPRESENTATION ( '不锈钢迷你型CTMA系列气缸[CTMA-16x25-S-CA-SDB]_SDB', ( #268, #907 ), #679 ) ;
#740 = VERTEX_POINT ( 'NONE', #274 ) ;
#741 = LINE ( 'NONE', #334, #215 ) ;
#742 = CARTESIAN_POINT ( 'NONE',  ( -9.199999999999999289, 0.000000000000000000, -33.50000000000000000 ) ) ;
#743 = ADVANCED_FACE ( 'NONE', ( #1233, #257, #1310 ), #292, .T. ) ;
#744 = DIRECTION ( 'NONE',  ( 0.000000000000000000, 0.000000000000000000, 1.000000000000000000 ) ) ;
#745 = AXIS2_PLACEMENT_3D ( 'NONE', #852, #878, #643 ) ;
#746 = VERTEX_POINT ( 'NONE', #177 ) ;
#747 = CIRCLE ( 'NONE', #591, 2.299999999999999822 ) ;
#748 = VECTOR ( 'NONE', #599, 1000.000000000000000 ) ;
#749 = CARTESIAN_POINT ( 'NONE',  ( 9.199999999999999289, 0.000000000000000000, 33.50000000000000000 ) ) ;
#750 = EDGE_CURVE ( 'NONE', #690, #1353, #400, .T. ) ;
#751 = CARTESIAN_POINT ( 'NONE',  ( -4.500000000000002665, 19.99999999999999645, -6.000000000000000000 ) ) ;
#752 = ORIENTED_EDGE ( 'NONE', *, *, #841, .T. ) ;
#753 = ORIENTED_EDGE ( 'NONE', *, *, #15, .T. ) ;
#754 = CARTESIAN_POINT ( 'NONE',  ( -11.50000000000000000, 0.000000000000000000, 8.300000000000002487 ) ) ;
#755 = CARTESIAN_POINT ( 'NONE',  ( 3.973803242064763985, 23.03226954850201480, -8.000000000000000000 ) ) ;
#756 = ADVANCED_FACE ( 'NONE', ( #896, #1320 ), #377, .F. ) ;
#757 = ORIENTED_EDGE ( 'NONE', *, *, #297, .T. ) ;
#758 = ADVANCED_FACE ( 'NONE', ( #1046, #1156, #1151 ), #70, .T. ) ;
#759 = CARTESIAN_POINT ( 'NONE',  ( -4.500000000000002665, 19.99999999999999645, -9.000000000000001776 ) ) ;
#760 = CARTESIAN_POINT ( 'NONE',  ( -9.199999999999999289, 2.000000000000000000, 33.50000000000000000 ) ) ;
#761 = DIRECTION ( 'NONE',  ( 0.000000000000000000, 0.000000000000000000, 1.000000000000000000 ) ) ;
#762 = VECTOR ( 'NONE', #95, 1000.000000000000000 ) ;
#763 = ORIENTED_EDGE ( 'NONE', *, *, #1371, .T. ) ;
#764 = VECTOR ( 'NONE', #730, 1000.000000000000000 ) ;
#765 = DIRECTION ( 'NONE',  ( 1.000000000000000000, 0.000000000000000000, 0.000000000000000000 ) ) ;
#766 = AXIS2_PLACEMENT_3D ( 'NONE', #682, #392, #1224 ) ;
#767 = ORIENTED_EDGE ( 'NONE', *, *, #920, .T. ) ;
#768 = DIRECTION ( 'NONE',  ( -0.000000000000000000, -0.000000000000000000, -1.000000000000000000 ) ) ;
#769 = CIRCLE ( 'NONE', #905, 2.749999999999999112 ) ;
#770 = CARTESIAN_POINT ( 'NONE',  ( -0.9000000000000032419, 19.99999999999999645, 9.000000000000001776 ) ) ;
#771 = ORIENTED_EDGE ( 'NONE', *, *, #1274, .F. ) ;
#772 = ORIENTED_EDGE ( 'NONE', *, *, #1098, .T. ) ;
#773 = DIRECTION ( 'NONE',  ( 0.000000000000000000, 1.000000000000000000, -0.000000000000000000 ) ) ;
#774 = CYLINDRICAL_SURFACE ( 'NONE', #427, 2.299999999999999822 ) ;
#775 = EDGE_CURVE ( 'NONE', #1004, #840, #128, .T. ) ;
#776 = LINE ( 'NONE', #428, #351 ) ;
#777 = VERTEX_POINT ( 'NONE', #939 ) ;
#778 = ORIENTED_EDGE ( 'NONE', *, *, #41, .T. ) ;
#779 = VERTEX_POINT ( 'NONE', #98 ) ;
#780 = CARTESIAN_POINT ( 'NONE',  ( 11.50000000000000000, 0.000000000000000000, -33.50000000000000000 ) ) ;
#781 = ADVANCED_FACE ( 'NONE', ( #731 ), #707, .T. ) ;
#782 = VERTEX_POINT ( 'NONE', #1357 ) ;
#783 = DIRECTION ( 'NONE',  ( -0.000000000000000000, 1.000000000000000000, -0.000000000000000000 ) ) ;
#784 = EDGE_LOOP ( 'NONE', ( #663, #333, #1108, #345 ) ) ;
#785 = ORIENTED_EDGE ( 'NONE', *, *, #118, .F. ) ;
#786 = AXIS2_PLACEMENT_3D ( 'NONE', #848, #837, #414 ) ;
#787 = CYLINDRICAL_SURFACE ( 'NONE', #238, 2.749999999999999112 ) ;
#788 = LINE ( 'NONE', #692, #1213 ) ;
#789 = CIRCLE ( 'NONE', #166, 2.749999999999999112 ) ;
#790 = AXIS2_PLACEMENT_3D ( 'NONE', #885, #660, #1083 ) ;
#791 = ORIENTED_EDGE ( 'NONE', *, *, #6, .T. ) ;
#792 = CARTESIAN_POINT ( 'NONE',  ( -0.9000000000000032419, 19.99999999999999645, 9.000000000000001776 ) ) ;
#793 = ORIENTED_EDGE ( 'NONE', *, *, #713, .T. ) ;
#794 = VERTEX_POINT ( 'NONE', #397 ) ;
#795 = DIRECTION ( 'NONE',  ( -0.000000000000000000, 1.000000000000000000, -0.000000000000000000 ) ) ;
#796 = FACE_OUTER_BOUND ( 'NONE', #394, .T. ) ;
#797 = EDGE_CURVE ( 'NONE', #1103, #779, #747, .T. ) ;
#798 = ORIENTED_EDGE ( 'NONE', *, *, #681, .F. ) ;
#799 = CARTESIAN_POINT ( 'NONE',  ( -6.000000000000000000, 0.000000000000000000, -22.75000000000000000 ) ) ;
#800 = VERTEX_POINT ( 'NONE', #1270 ) ;
#801 = EDGE_CURVE ( 'NONE', #832, #22, #944, .T. ) ;
#802 = ORIENTED_EDGE ( 'NONE', *, *, #1278, .F. ) ;
#803 = CYLINDRICAL_SURFACE ( 'NONE', #1281, 2.749999999999999112 ) ;
#804 = DIRECTION ( 'NONE',  ( -0.000000000000000000, 1.000000000000000000, -0.000000000000000000 ) ) ;
#805 = ORIENTED_EDGE ( 'NONE', *, *, #775, .T. ) ;
#806 = EDGE_CURVE ( 'NONE', #1021, #448, #1237, .T. ) ;
#807 = CARTESIAN_POINT ( 'NONE',  ( -9.199999999999999289, 2.000000000000000000, 31.20000000000000284 ) ) ;
#808 = CIRCLE ( 'NONE', #5, 2.749999999999999112 ) ;
#809 = ORIENTED_EDGE ( 'NONE', *, *, #625, .T. ) ;
#810 = DIRECTION ( 'NONE',  ( 0.000000000000000000, -1.000000000000000000, 0.000000000000000000 ) ) ;
#811 = DIRECTION ( 'NONE',  ( 0.000000000000000000, 1.000000000000000000, -0.000000000000000000 ) ) ;
#812 = AXIS2_PLACEMENT_3D ( 'NONE', #737, #723, #830 ) ;
#813 = DIRECTION ( 'NONE',  ( 0.000000000000000000, 0.000000000000000000, -1.000000000000000000 ) ) ;
#814 = AXIS2_PLACEMENT_3D ( 'NONE', #296, #714, #1035 ) ;
#815 = AXIS2_PLACEMENT_3D ( 'NONE', #80, #919, #813 ) ;
#816 = ORIENTED_EDGE ( 'NONE', *, *, #99, .T. ) ;
#817 = AXIS2_PLACEMENT_3D ( 'NONE', #1373, #616, #434 ) ;
#818 = DIRECTION ( 'NONE',  ( 0.000000000000000000, 0.000000000000000000, 1.000000000000000000 ) ) ;
#819 = ORIENTED_EDGE ( 'NONE', *, *, #1336, .T. ) ;
#820 = CARTESIAN_POINT ( 'NONE',  ( -5.999999999999994671, 2.000000000000000000, 25.50000000000000000 ) ) ;
#821 = LINE ( 'NONE', #75, #57 ) ;
#822 = DIRECTION ( 'NONE',  ( 1.000000000000000000, 0.000000000000000000, 0.000000000000000000 ) ) ;
#823 = ADVANCED_FACE ( 'NONE', ( #1266 ), #738, .T. ) ;
#824 = CARTESIAN_POINT ( 'NONE',  ( -9.199999999999999289, 0.000000000000000000, -33.50000000000000000 ) ) ;
#825 = CARTESIAN_POINT ( 'NONE',  ( -6.000000000000000000, 0.000000000000000000, -22.75000000000000000 ) ) ;
#826 = VERTEX_POINT ( 'NONE', #191 ) ;
#827 = EDGE_LOOP ( 'NONE', ( #363, #260, #923, #672, #869 ) ) ;
#828 = CARTESIAN_POINT ( 'NONE',  ( -11.50000000000000000, 2.000000000000000000, -33.50000000000000000 ) ) ;
#829 = CARTESIAN_POINT ( 'NONE',  ( 3.973803242064763985, 23.03226954850201480, -6.000000000000000000 ) ) ;
#830 = DIRECTION ( 'NONE',  ( 1.000000000000000000, 0.000000000000000000, 0.000000000000000000 ) ) ;
#831 = CARTESIAN_POINT ( 'NONE',  ( -6.000000000000000000, 2.000000000000000000, -25.50000000000000000 ) ) ;
#832 = VERTEX_POINT ( 'NONE', #312 ) ;
#833 = FACE_OUTER_BOUND ( 'NONE', #1211, .T. ) ;
#834 = LINE ( 'NONE', #1346, #929 ) ;
#835 = ADVANCED_FACE ( 'NONE', ( #181 ), #619, .T. ) ;
#836 = AXIS2_PLACEMENT_3D ( 'NONE', #1045, #744, #528 ) ;
#837 = DIRECTION ( 'NONE',  ( 0.000000000000000000, -1.000000000000000000, 0.000000000000000000 ) ) ;
#838 = CARTESIAN_POINT ( 'NONE',  ( 9.199999999999999289, 0.000000000000000000, -31.20000000000000284 ) ) ;
#839 = AXIS2_PLACEMENT_3D ( 'NONE', #1009, #686, #476 ) ;
#840 = VERTEX_POINT ( 'NONE', #408 ) ;
#841 = EDGE_CURVE ( 'NONE', #690, #1021, #1257, .T. ) ;
#842 = FACE_OUTER_BOUND ( 'NONE', #894, .T. ) ;
#843 = FACE_BOUND ( 'NONE', #89, .T. ) ;
#844 = DIRECTION ( 'NONE',  ( 0.000000000000000000, 0.000000000000000000, 1.000000000000000000 ) ) ;
#845 = EDGE_LOOP ( 'NONE', ( #1342, #1329, #752, #684 ) ) ;
#846 = LINE ( 'NONE', #632, #486 ) ;
#847 = ADVANCED_FACE ( 'NONE', ( #304 ), #724, .T. ) ;
#848 = CARTESIAN_POINT ( 'NONE',  ( 11.50000000000000000, 0.000000000000000000, -33.50000000000000000 ) ) ;
#849 = EDGE_CURVE ( 'NONE', #338, #680, #1113, .T. ) ;
#850 = ORIENTED_EDGE ( 'NONE', *, *, #1168, .T. ) ;
#851 = CARTESIAN_POINT ( 'NONE',  ( -8.100000000000001421, 11.75136374907948600, -8.000000000000000000 ) ) ;
#852 = CARTESIAN_POINT ( 'NONE',  ( 3.973803242064763985, 23.03226954850201480, -6.000000000000000000 ) ) ;
#853 = CARTESIAN_POINT ( 'NONE',  ( -9.199999999999999289, 2.000000000000000000, -33.50000000000000000 ) ) ;
#854 = AXIS2_PLACEMENT_3D ( 'NONE', #30, #222, #1277 ) ;
#855 = ORIENTED_EDGE ( 'NONE', *, *, #63, .F. ) ;
#856 = DIRECTION ( 'NONE',  ( -0.000000000000000000, 1.000000000000000000, -0.000000000000000000 ) ) ;
#857 = EDGE_CURVE ( 'NONE', #800, #375, #677, .T. ) ;
#858 = CIRCLE ( 'NONE', #593, 3.599999999999999201 ) ;
#859 = LINE ( 'NONE', #138, #327 ) ;
#860 = LINE ( 'NONE', #866, #1096 ) ;
#861 = EDGE_CURVE ( 'NONE', #22, #281, #945, .T. ) ;
#862 = VERTEX_POINT ( 'NONE', #1314 ) ;
#863 = DIRECTION ( 'NONE',  ( 0.000000000000000000, 0.000000000000000000, 1.000000000000000000 ) ) ;
#864 = ORIENTED_EDGE ( 'NONE', *, *, #244, .F. ) ;
#865 = FACE_OUTER_BOUND ( 'NONE', #20, .T. ) ;
#866 = CARTESIAN_POINT ( 'NONE',  ( 3.973803242064763985, 23.03226954850201480, 6.000000000000000000 ) ) ;
#867 = ORIENTED_EDGE ( 'NONE', *, *, #1029, .T. ) ;
#868 = DIRECTION ( 'NONE',  ( 0.000000000000000000, 0.000000000000000000, 1.000000000000000000 ) ) ;
#869 = ORIENTED_EDGE ( 'NONE', *, *, #963, .T. ) ;
#870 = CARTESIAN_POINT ( 'NONE',  ( -4.500000000000002665, 19.99999999999999645, -9.000000000000001776 ) ) ;
#871 = DIRECTION ( 'NONE',  ( 0.000000000000000000, 0.000000000000000000, 1.000000000000000000 ) ) ;
#872 = CIRCLE ( 'NONE', #722, 2.299999999999999822 ) ;
#873 = ORIENTED_EDGE ( 'NONE', *, *, #469, .T. ) ;
#874 = AXIS2_PLACEMENT_3D ( 'NONE', #355, #773, #1059 ) ;
#875 = AXIS2_PLACEMENT_3D ( 'NONE', #279, #156, #52 ) ;
#876 = VERTEX_POINT ( 'NONE', #371 ) ;
#877 = ADVANCED_FACE ( 'NONE', ( #600 ), #389, .T. ) ;
#878 = DIRECTION ( 'NONE',  ( -0.9415336935627519610, -0.3369188387224464343, 0.000000000000000000 ) ) ;
#879 = VECTOR ( 'NONE', #1078, 1000.000000000000000 ) ;
#880 = CARTESIAN_POINT ( 'NONE',  ( 11.50000000000001243, 1.999999999999934053, -6.000000000000000000 ) ) ;
#881 = ORIENTED_EDGE ( 'NONE', *, *, #575, .T. ) ;
#882 = EDGE_LOOP ( 'NONE', ( #771, #1276, #669, #909 ) ) ;
#883 = CARTESIAN_POINT ( 'NONE',  ( -0.9000000000000032419, 19.99999999999999645, -8.000000000000000000 ) ) ;
#884 = EDGE_CURVE ( 'NONE', #1226, #285, #776, .T. ) ;
#885 = CARTESIAN_POINT ( 'NONE',  ( -8.100000000000001421, 11.75136374907948600, -6.000000000000000000 ) ) ;
#886 = APPLICATION_CONTEXT ( 'automotive_design' ) ;
#887 = ADVANCED_FACE ( 'NONE', ( #608 ), #204, .T. ) ;
#888 = EDGE_LOOP ( 'NONE', ( #667, #940, #1101, #1244, #574, #603, #791 ) ) ;
#889 = DIRECTION ( 'NONE',  ( -0.000000000000000000, -0.000000000000000000, -1.000000000000000000 ) ) ;
#890 = ORIENTED_EDGE ( 'NONE', *, *, #1195, .T. ) ;
#891 = ORIENTED_EDGE ( 'NONE', *, *, #934, .T. ) ;
#892 = CARTESIAN_POINT ( 'NONE',  ( 3.973803242064763985, 23.03226954850201480, -6.000000000000000000 ) ) ;
#893 = FACE_OUTER_BOUND ( 'NONE', #161, .T. ) ;
#894 = EDGE_LOOP ( 'NONE', ( #266, #1047 ) ) ;
#895 = PRODUCT_DEFINITION_CONTEXT ( 'detailed design', #886, 'design' ) ;
#896 = FACE_OUTER_BOUND ( 'NONE', #541, .T. ) ;
#897 = ORIENTED_EDGE ( 'NONE', *, *, #267, .T. ) ;
#898 = AXIS2_PLACEMENT_3D ( 'NONE', #540, #219, #324 ) ;
#899 = EDGE_CURVE ( 'NONE', #1353, #448, #706, .T. ) ;
#900 = DIRECTION ( 'NONE',  ( 1.000000000000000000, 0.000000000000000000, -0.000000000000000000 ) ) ;
#901 = LINE ( 'NONE', #742, #1235 ) ;
#902 = CIRCLE ( 'NONE', #766, 3.599999999999999201 ) ;
#903 = DIRECTION ( 'NONE',  ( 0.000000000000000000, 0.000000000000000000, -1.000000000000000000 ) ) ;
#904 = DIRECTION ( 'NONE',  ( -0.000000000000000000, -0.000000000000000000, -1.000000000000000000 ) ) ;
#905 = AXIS2_PLACEMENT_3D ( 'NONE', #583, #1220, #418 ) ;
#906 = CARTESIAN_POINT ( 'NONE',  ( -11.50000000000000000, 0.000000000000000000, 33.50000000000000000 ) ) ;
#907 = AXIS2_PLACEMENT_3D ( 'NONE', #1361, #315, #735 ) ;
#908 = ADVANCED_FACE ( 'NONE', ( #1286 ), #337, .T. ) ;
#909 = ORIENTED_EDGE ( 'NONE', *, *, #566, .F. ) ;
#910 = CARTESIAN_POINT ( 'NONE',  ( -4.500000000000002665, 19.99999999999999645, -6.000000000000000000 ) ) ;
#911 = ORIENTED_EDGE ( 'NONE', *, *, #750, .T. ) ;
#912 = DIRECTION ( 'NONE',  ( 0.000000000000000000, 0.000000000000000000, 1.000000000000000000 ) ) ;
#913 = EDGE_CURVE ( 'NONE', #1115, #740, #372, .T. ) ;
#914 = ORIENTED_EDGE ( 'NONE', *, *, #717, .F. ) ;
#915 = CARTESIAN_POINT ( 'NONE',  ( -4.500000000000002665, 19.99999999999999645, 9.000000000000001776 ) ) ;
#916 = VERTEX_POINT ( 'NONE', #382 ) ;
#917 = FACE_OUTER_BOUND ( 'NONE', #1079, .T. ) ;
#918 = CARTESIAN_POINT ( 'NONE',  ( 6.000000000000000000, 0.000000000000000000, -25.50000000000000000 ) ) ;
#919 = DIRECTION ( 'NONE',  ( 0.000000000000000000, 1.000000000000000000, -0.000000000000000000 ) ) ;
#920 = EDGE_CURVE ( 'NONE', #225, #1226, #725, .T. ) ;
#921 = EDGE_LOOP ( 'NONE', ( #613, #275, #757, #897 ) ) ;
#922 = LINE ( 'NONE', #1209, #1167 ) ;
#923 = ORIENTED_EDGE ( 'NONE', *, *, #1154, .F. ) ;
#924 = CARTESIAN_POINT ( 'NONE',  ( 9.199999999999999289, 2.000000000000000000, -33.50000000000000000 ) ) ;
#925 = DIRECTION ( 'NONE',  ( 0.000000000000000000, 1.000000000000000000, 0.000000000000000000 ) ) ;
#926 = ADVANCED_FACE ( 'NONE', ( #62 ), #584, .F. ) ;
#927 = AXIS2_PLACEMENT_3D ( 'NONE', #1358, #1100, #1316 ) ;
#928 = AXIS2_PLACEMENT_3D ( 'NONE', #1331, #498, #358 ) ;
#929 = VECTOR ( 'NONE', #822, 1000.000000000000000 ) ;
#930 = ORIENTED_EDGE ( 'NONE', *, *, #367, .F. ) ;
#931 = ORIENTED_EDGE ( 'NONE', *, *, #1098, .F. ) ;
#932 = LINE ( 'NONE', #1043, #762 ) ;
#933 =( NAMED_UNIT ( * ) SI_UNIT ( $, .STERADIAN. ) SOLID_ANGLE_UNIT ( ) );
#934 = EDGE_CURVE ( 'NONE', #826, #695, #1120, .T. ) ;
#935 = PLANE ( 'NONE',  #968 ) ;
#936 = ORIENTED_EDGE ( 'NONE', *, *, #124, .F. ) ;
#937 = PLANE ( 'NONE',  #1140 ) ;
#938 = FACE_BOUND ( 'NONE', #13, .T. ) ;
#939 = CARTESIAN_POINT ( 'NONE',  ( -8.099999999999997868, 2.000000000000000000, 6.000000000000000000 ) ) ;
#940 = ORIENTED_EDGE ( 'NONE', *, *, #1104, .T. ) ;
#941 = CARTESIAN_POINT ( 'NONE',  ( -6.000000000000000000, 2.000000000000000000, -25.50000000000000000 ) ) ;
#942 = AXIS2_PLACEMENT_3D ( 'NONE', #92, #107, #534 ) ;
#943 = DIRECTION ( 'NONE',  ( 0.000000000000000000, 1.000000000000000000, 0.000000000000000000 ) ) ;
#944 = LINE ( 'NONE', #1131, #550 ) ;
#945 = CIRCLE ( 'NONE', #1210, 3.599999999999999201 ) ;
#946 = VECTOR ( 'NONE', #1058, 1000.000000000000000 ) ;
#947 = ADVANCED_FACE ( 'NONE', ( #699 ), #271, .F. ) ;
#948 = ORIENTED_EDGE ( 'NONE', *, *, #118, .T. ) ;
#949 = DIRECTION ( 'NONE',  ( 1.000000000000000000, -0.000000000000000000, -0.000000000000000000 ) ) ;
#950 = FACE_OUTER_BOUND ( 'NONE', #535, .T. ) ;
#951 = CARTESIAN_POINT ( 'NONE',  ( -11.50000000000000000, 0.000000000000000000, -33.50000000000000000 ) ) ;
#952 = EDGE_CURVE ( 'NONE', #1176, #832, #33, .T. ) ;
#953 = ORIENTED_EDGE ( 'NONE', *, *, #806, .F. ) ;
#954 = FILL_AREA_STYLE ('',( #1069 ) ) ;
#955 = CARTESIAN_POINT ( 'NONE',  ( -11.50000000000000000, 2.000000000000000000, -5.999999999999998224 ) ) ;
#956 = CARTESIAN_POINT ( 'NONE',  ( -4.500000000000002665, 19.99999999999999645, 8.000000000000000000 ) ) ;
#957 = DIRECTION ( 'NONE',  ( 2.952378146089967439E-16, -1.000000000000000000, 0.000000000000000000 ) ) ;
#958 = ADVANCED_FACE ( 'NONE', ( #796 ), #410, .T. ) ;
#959 = ORIENTED_EDGE ( 'NONE', *, *, #884, .T. ) ;
#960 = CARTESIAN_POINT ( 'NONE',  ( -4.500000000000002665, 19.99999999999999645, 8.000000000000000000 ) ) ;
#961 = AXIS2_PLACEMENT_3D ( 'NONE', #606, #74, #505 ) ;
#962 = CARTESIAN_POINT ( 'NONE',  ( -5.999999999999994671, 2.000000000000000000, 22.75000000000000000 ) ) ;
#963 = EDGE_CURVE ( 'NONE', #73, #916, #1325, .T. ) ;
#964 = DIRECTION ( 'NONE',  ( 1.000000000000000000, 0.000000000000000000, 0.000000000000000000 ) ) ;
#965 = VECTOR ( 'NONE', #1272, 1000.000000000000000 ) ;
#966 = AXIS2_PLACEMENT_3D ( 'NONE', #974, #9, #979 ) ;
#967 = VERTEX_POINT ( 'NONE', #192 ) ;
#968 = AXIS2_PLACEMENT_3D ( 'NONE', #751, #1067, #224 ) ;
#969 = AXIS2_PLACEMENT_3D ( 'NONE', #287, #925, #405 ) ;
#970 = CARTESIAN_POINT ( 'NONE',  ( 6.000000000000005329, 0.000000000000000000, 22.75000000000000000 ) ) ;
#971 = CARTESIAN_POINT ( 'NONE',  ( 11.50000000000000000, 0.000000000000000000, -33.50000000000000000 ) ) ;
#972 = ORIENTED_EDGE ( 'NONE', *, *, #988, .T. ) ;
#973 = DIRECTION ( 'NONE',  ( 0.000000000000000000, 0.000000000000000000, 1.000000000000000000 ) ) ;
#974 = CARTESIAN_POINT ( 'NONE',  ( -4.500000000000002665, 19.99999999999999645, -8.000000000000000000 ) ) ;
#975 = CARTESIAN_POINT ( 'NONE',  ( 9.199999999999999289, 0.000000000000000000, -33.50000000000000000 ) ) ;
#976 = EDGE_CURVE ( 'NONE', #489, #40, #788, .T. ) ;
#977 = ORIENTED_EDGE ( 'NONE', *, *, #520, .F. ) ;
#978 =( LENGTH_UNIT ( ) NAMED_UNIT ( * ) SI_UNIT ( .MILLI., .METRE. ) );
#979 = DIRECTION ( 'NONE',  ( 1.000000000000000000, 0.000000000000000000, -0.000000000000000000 ) ) ;
#980 = CARTESIAN_POINT ( 'NONE',  ( 11.50000000000000000, 2.000000000000000000, -31.20000000000000284 ) ) ;
#981 = EDGE_LOOP ( 'NONE', ( #1364, #1105, #972, #113 ) ) ;
#982 = EDGE_CURVE ( 'NONE', #1226, #225, #1149, .T. ) ;
#983 = AXIS2_PLACEMENT_3D ( 'NONE', #1328, #167, #159 ) ;
#984 = EDGE_LOOP ( 'NONE', ( #276, #466, #710, #71 ) ) ;
#985 = LINE ( 'NONE', #360, #1231 ) ;
#986 = AXIS2_PLACEMENT_3D ( 'NONE', #1198, #350, #1193 ) ;
#987 = DIRECTION ( 'NONE',  ( 0.000000000000000000, 0.000000000000000000, 1.000000000000000000 ) ) ;
#988 = EDGE_CURVE ( 'NONE', #1037, #375, #727, .T. ) ;
#989 = VERTEX_POINT ( 'NONE', #302 ) ;
#990 = LINE ( 'NONE', #1048, #278 ) ;
#991 = DIRECTION ( 'NONE',  ( 2.952378146089967439E-16, -1.000000000000000000, 0.000000000000000000 ) ) ;
#992 = EDGE_CURVE ( 'NONE', #40, #581, #1055, .T. ) ;
#993 = ORIENTED_EDGE ( 'NONE', *, *, #148, .T. ) ;
#994 = DIRECTION ( 'NONE',  ( 0.000000000000000000, 1.000000000000000000, 0.000000000000000000 ) ) ;
#995 = ORIENTED_EDGE ( 'NONE', *, *, #367, .T. ) ;
#996 = DIRECTION ( 'NONE',  ( -0.000000000000000000, -0.000000000000000000, -1.000000000000000000 ) ) ;
#997 = DIRECTION ( 'NONE',  ( -0.3369188387224464343, 0.9415336935627519610, -0.000000000000000000 ) ) ;
#998 = CARTESIAN_POINT ( 'NONE',  ( -4.500000000000002665, 19.99999999999999645, -9.000000000000001776 ) ) ;
#999 = EDGE_CURVE ( 'NONE', #661, #777, #834, .T. ) ;
#1000 = LINE ( 'NONE', #1125, #125 ) ;
#1001 = EDGE_LOOP ( 'NONE', ( #579, #551 ) ) ;
#1002 = DIRECTION ( 'NONE',  ( 0.000000000000000000, 0.000000000000000000, 1.000000000000000000 ) ) ;
#1003 = VERTEX_POINT ( 'NONE', #188 ) ;
#1004 = VERTEX_POINT ( 'NONE', #103 ) ;
#1005 = VECTOR ( 'NONE', #1002, 1000.000000000000000 ) ;
#1006 = CARTESIAN_POINT ( 'NONE',  ( 11.50000000000000000, 0.000000000000000000, -6.000000000000000000 ) ) ;
#1007 = CIRCLE ( 'NONE', #168, 2.299999999999999822 ) ;
#1008 = DIRECTION ( 'NONE',  ( 1.000000000000000000, 0.000000000000000000, 0.000000000000000000 ) ) ;
#1009 = CARTESIAN_POINT ( 'NONE',  ( -5.999999999999994671, 0.000000000000000000, 25.50000000000000000 ) ) ;
#1010 =( GEOMETRIC_REPRESENTATION_CONTEXT ( 3 ) GLOBAL_UNCERTAINTY_ASSIGNED_CONTEXT ( ( #46 ) ) GLOBAL_UNIT_ASSIGNED_CONTEXT ( ( #525, #197, #933 ) ) REPRESENTATION_CONTEXT ( 'NONE', 'WORKASPACE' ) );
#1011 = ORIENTED_EDGE ( 'NONE', *, *, #517, .F. ) ;
#1012 = DIRECTION ( 'NONE',  ( -0.000000000000000000, 1.000000000000000000, -0.000000000000000000 ) ) ;
#1013 = ORIENTED_EDGE ( 'NONE', *, *, #1298, .F. ) ;
#1014 = ORIENTED_EDGE ( 'NONE', *, *, #634, .F. ) ;
#1015 = DIRECTION ( 'NONE',  ( 0.000000000000000000, 1.000000000000000000, 0.000000000000000000 ) ) ;
#1016 = DIRECTION ( 'NONE',  ( -0.000000000000000000, -0.000000000000000000, 1.000000000000000000 ) ) ;
#1017 = CARTESIAN_POINT ( 'NONE',  ( -6.000000000000000000, 2.000000000000000000, -28.24999999999999645 ) ) ;
#1018 = ORIENTED_EDGE ( 'NONE', *, *, #698, .T. ) ;
#1019 = LINE ( 'NONE', #478, #1299 ) ;
#1020 = ADVANCED_FACE ( 'NONE', ( #893 ), #347, .T. ) ;
#1021 = VERTEX_POINT ( 'NONE', #126 ) ;
#1022 = LINE ( 'NONE', #1136, #127 ) ;
#1023 = FACE_OUTER_BOUND ( 'NONE', #503, .T. ) ;
#1024 = CARTESIAN_POINT ( 'NONE',  ( -6.000000000000000000, 0.000000000000000000, -28.24999999999999645 ) ) ;
#1025 = DIRECTION ( 'NONE',  ( 0.000000000000000000, -1.000000000000000000, 0.000000000000000000 ) ) ;
#1026 = EDGE_LOOP ( 'NONE', ( #703, #696, #753, #881 ) ) ;
#1027 = LINE ( 'NONE', #1217, #1073 ) ;
#1028 = VERTEX_POINT ( 'NONE', #1089 ) ;
#1029 = EDGE_CURVE ( 'NONE', #598, #26, #860, .T. ) ;
#1030 = LINE ( 'NONE', #426, #342 ) ;
#1031 = APPLICATION_PROTOCOL_DEFINITION ( 'draft international standard', 'automotive_design', 1998, #25 ) ;
#1032 = CIRCLE ( 'NONE', #812, 3.599999999999999201 ) ;
#1033 = VECTOR ( 'NONE', #1134, 1000.000000000000000 ) ;
#1034 = VECTOR ( 'NONE', #675, 1000.000000000000000 ) ;
#1035 = DIRECTION ( 'NONE',  ( 0.000000000000000000, 0.000000000000000000, 1.000000000000000000 ) ) ;
#1036 = DIRECTION ( 'NONE',  ( 0.000000000000000000, 0.000000000000000000, -1.000000000000000000 ) ) ;
#1037 = VERTEX_POINT ( 'NONE', #134 ) ;
#1038 = CARTESIAN_POINT ( 'NONE',  ( -9.199999999999999289, 0.000000000000000000, 6.000000000000000000 ) ) ;
#1039 = CARTESIAN_POINT ( 'NONE',  ( -6.000000000000000000, 0.000000000000000000, -28.24999999999999645 ) ) ;
#1040 = DIRECTION ( 'NONE',  ( 0.000000000000000000, 1.000000000000000000, 0.000000000000000000 ) ) ;
#1041 = EDGE_CURVE ( 'NONE', #66, #485, #1203, .T. ) ;
#1042 = ORIENTED_EDGE ( 'NONE', *, *, #1206, .T. ) ;
#1043 = CARTESIAN_POINT ( 'NONE',  ( -11.50000000000000000, 2.000000000000000000, -8.000000000000000000 ) ) ;
#1044 = EDGE_CURVE ( 'NONE', #496, #1232, #218, .T. ) ;
#1045 = CARTESIAN_POINT ( 'NONE',  ( -4.500000000000002665, 19.99999999999999645, -6.000000000000000000 ) ) ;
#1046 = FACE_BOUND ( 'NONE', #1001, .T. ) ;
#1047 = ORIENTED_EDGE ( 'NONE', *, *, #952, .F. ) ;
#1048 = CARTESIAN_POINT ( 'NONE',  ( -8.100000000000001421, 19.99999999999999645, -9.000000000000001776 ) ) ;
#1049 = DIRECTION ( 'NONE',  ( 0.000000000000000000, -0.000000000000000000, -1.000000000000000000 ) ) ;
#1050 = EDGE_CURVE ( 'NONE', #40, #147, #361, .T. ) ;
#1051 = DIRECTION ( 'NONE',  ( -0.000000000000000000, -0.000000000000000000, -1.000000000000000000 ) ) ;
#1052 = VECTOR ( 'NONE', #133, 1000.000000000000000 ) ;
#1053 = CARTESIAN_POINT ( 'NONE',  ( -7.500000000000002665, 19.99999999999999645, 16.48528137423856776 ) ) ;
#1054 = AXIS2_PLACEMENT_3D ( 'NONE', #906, #43, #155 ) ;
#1055 = CIRCLE ( 'NONE', #1239, 2.299999999999999822 ) ;
#1056 = ORIENTED_EDGE ( 'NONE', *, *, #976, .F. ) ;
#1057 = CARTESIAN_POINT ( 'NONE',  ( -8.100000000000001421, 19.99999999999999645, -8.000000000000000000 ) ) ;
#1058 = DIRECTION ( 'NONE',  ( -1.000000000000000000, 0.000000000000000000, 0.000000000000000000 ) ) ;
#1059 = DIRECTION ( 'NONE',  ( 0.000000000000000000, 0.000000000000000000, -1.000000000000000000 ) ) ;
#1060 = DIRECTION ( 'NONE',  ( 0.000000000000000000, 1.000000000000000000, -0.000000000000000000 ) ) ;
#1061 = VERTEX_POINT ( 'NONE', #1071 ) ;
#1062 = ADVANCED_FACE ( 'NONE', ( #1297 ), #116, .T. ) ;
#1063 = DIRECTION ( 'NONE',  ( -0.000000000000000000, 1.000000000000000000, -0.000000000000000000 ) ) ;
#1064 = SHAPE_DEFINITION_REPRESENTATION ( #666, #739 ) ;
#1065 = FACE_OUTER_BOUND ( 'NONE', #1128, .T. ) ;
#1066 = FACE_OUTER_BOUND ( 'NONE', #921, .T. ) ;
#1067 = DIRECTION ( 'NONE',  ( 0.000000000000000000, 0.000000000000000000, 1.000000000000000000 ) ) ;
#1068 = VERTEX_POINT ( 'NONE', #1183 ) ;
#1069 = FILL_AREA_STYLE_COLOUR ( '', #529 ) ;
#1070 = CARTESIAN_POINT ( 'NONE',  ( -4.500000000000002665, 19.99999999999999645, -6.000000000000000000 ) ) ;
#1071 = CARTESIAN_POINT ( 'NONE',  ( -9.199999999999999289, 0.000000000000000000, -6.000000000000000000 ) ) ;
#1072 = CIRCLE ( 'NONE', #898, 8.999999999999998224 ) ;
#1073 = VECTOR ( 'NONE', #889, 1000.000000000000000 ) ;
#1074 = ORIENTED_EDGE ( 'NONE', *, *, #1148, .T. ) ;
#1075 = CIRCLE ( 'NONE', #12, 3.000000000000000000 ) ;
#1076 = CARTESIAN_POINT ( 'NONE',  ( -6.000000000000000000, 0.000000000000000000, -25.50000000000000000 ) ) ;
#1077 = DIRECTION ( 'NONE',  ( 0.000000000000000000, -1.000000000000000000, 0.000000000000000000 ) ) ;
#1078 = DIRECTION ( 'NONE',  ( 1.000000000000000000, -0.000000000000000000, -0.000000000000000000 ) ) ;
#1079 = EDGE_LOOP ( 'NONE', ( #264, #1242, #386, #1201 ) ) ;
#1080 = CARTESIAN_POINT ( 'NONE',  ( -7.500000000000002665, 19.99999999999999645, 6.000000000000000000 ) ) ;
#1081 = ORIENTED_EDGE ( 'NONE', *, *, #999, .T. ) ;
#1082 = CARTESIAN_POINT ( 'NONE',  ( -4.500000000000002665, 19.99999999999999645, -8.000000000000000000 ) ) ;
#1083 = DIRECTION ( 'NONE',  ( -2.952378146089967439E-16, 1.000000000000000000, 0.000000000000000000 ) ) ;
#1084 = DIRECTION ( 'NONE',  ( -0.000000000000000000, 1.000000000000000000, -0.000000000000000000 ) ) ;
#1085 = ADVANCED_FACE ( 'NONE', ( #665 ), #774, .T. ) ;
#1086 = ORIENTED_EDGE ( 'NONE', *, *, #1278, .T. ) ;
#1087 = ORIENTED_EDGE ( 'NONE', *, *, #963, .F. ) ;
#1088 = EDGE_LOOP ( 'NONE', ( #523, #1011, #1216, #416 ) ) ;
#1089 = CARTESIAN_POINT ( 'NONE',  ( -0.9000000000000032419, 19.99999999999999645, 8.000000000000000000 ) ) ;
#1090 = EDGE_CURVE ( 'NONE', #779, #794, #560, .T. ) ;
#1091 = ORIENTED_EDGE ( 'NONE', *, *, #732, .T. ) ;
#1092 = VECTOR ( 'NONE', #1177, 1000.000000000000000 ) ;
#1093 = VECTOR ( 'NONE', #1084, 1000.000000000000000 ) ;
#1094 = VERTEX_POINT ( 'NONE', #571 ) ;
#1095 = EDGE_LOOP ( 'NONE', ( #953, #936 ) ) ;
#1096 = VECTOR ( 'NONE', #18, 1000.000000000000000 ) ;
#1097 = DIRECTION ( 'NONE',  ( 1.000000000000000000, 0.000000000000000000, 0.000000000000000000 ) ) ;
#1098 = EDGE_CURVE ( 'NONE', #147, #1004, #565, .T. ) ;
#1099 = DIRECTION ( 'NONE',  ( -1.000000000000000000, 0.000000000000000000, 0.000000000000000000 ) ) ;
#1100 = DIRECTION ( 'NONE',  ( 0.000000000000000000, 0.000000000000000000, 1.000000000000000000 ) ) ;
#1101 = ORIENTED_EDGE ( 'NONE', *, *, #520, .T. ) ;
#1102 = LINE ( 'NONE', #792, #1033 ) ;
#1103 = VERTEX_POINT ( 'NONE', #975 ) ;
#1104 = EDGE_CURVE ( 'NONE', #967, #169, #129, .T. ) ;
#1105 = ORIENTED_EDGE ( 'NONE', *, *, #85, .T. ) ;
#1106 = FACE_OUTER_BOUND ( 'NONE', #981, .T. ) ;
#1107 = DIRECTION ( 'NONE',  ( 0.000000000000000000, 0.000000000000000000, 1.000000000000000000 ) ) ;
#1108 = ORIENTED_EDGE ( 'NONE', *, *, #1104, .F. ) ;
#1109 = DIRECTION ( 'NONE',  ( 1.000000000000000000, 0.000000000000000000, 0.000000000000000000 ) ) ;
#1110 = VERTEX_POINT ( 'NONE', #770 ) ;
#1111 = CYLINDRICAL_SURFACE ( 'NONE', #615, 3.599999999999999201 ) ;
#1112 = CARTESIAN_POINT ( 'NONE',  ( -4.500000000000002665, 19.99999999999999645, 9.000000000000001776 ) ) ;
#1113 = LINE ( 'NONE', #1205, #425 ) ;
#1114 = PRODUCT_DEFINITION ( '未知', '', #595, #895 ) ;
#1115 = VERTEX_POINT ( 'NONE', #880 ) ;
#1116 = DIRECTION ( 'NONE',  ( 1.000000000000000000, 0.000000000000000000, 0.000000000000000000 ) ) ;
#1117 = ORIENTED_EDGE ( 'NONE', *, *, #474, .T. ) ;
#1118 = CIRCLE ( 'NONE', #104, 2.749999999999999112 ) ;
#1119 = ORIENTED_EDGE ( 'NONE', *, *, #406, .T. ) ;
#1120 = CIRCLE ( 'NONE', #875, 8.999999999999998224 ) ;
#1121 = CYLINDRICAL_SURFACE ( 'NONE', #309, 2.749999999999999112 ) ;
#1122 = CIRCLE ( 'NONE', #726, 2.749999999999999112 ) ;
#1123 = COLOUR_RGB ( '',1.000000000000000000, 1.000000000000000000, 1.000000000000000000 ) ;
#1124 = EDGE_CURVE ( 'NONE', #193, #989, #1075, .T. ) ;
#1125 = CARTESIAN_POINT ( 'NONE',  ( 9.199999999999999289, 0.000000000000000000, -33.50000000000000000 ) ) ;
#1126 = EDGE_LOOP ( 'NONE', ( #436, #109 ) ) ;
#1127 = CARTESIAN_POINT ( 'NONE',  ( -9.199999999999999289, 0.000000000000000000, 33.50000000000000000 ) ) ;
#1128 = EDGE_LOOP ( 'NONE', ( #1018, #778, #432, #245 ) ) ;
#1129 = DIRECTION ( 'NONE',  ( 2.952378146089967439E-16, -1.000000000000000000, 0.000000000000000000 ) ) ;
#1130 = DIRECTION ( 'NONE',  ( 0.000000000000000000, 1.000000000000000000, 0.000000000000000000 ) ) ;
#1131 = CARTESIAN_POINT ( 'NONE',  ( -0.9000000000000032419, 19.99999999999999645, -9.000000000000001776 ) ) ;
#1132 = EDGE_CURVE ( 'NONE', #728, #354, #1178, .T. ) ;
#1133 = ORIENTED_EDGE ( 'NONE', *, *, #430, .F. ) ;
#1134 = DIRECTION ( 'NONE',  ( -0.000000000000000000, -0.000000000000000000, -1.000000000000000000 ) ) ;
#1135 = ORIENTED_EDGE ( 'NONE', *, *, #659, .T. ) ;
#1136 = CARTESIAN_POINT ( 'NONE',  ( 11.50000000000000000, 0.000000000000000000, 33.50000000000000000 ) ) ;
#1137 = ADVANCED_FACE ( 'NONE', ( #1066 ), #336, .F. ) ;
#1138 = CARTESIAN_POINT ( 'NONE',  ( 9.199999999999999289, 2.000000000000000000, 33.50000000000000000 ) ) ;
#1139 = CARTESIAN_POINT ( 'NONE',  ( -11.50000000000000000, 0.000000000000000000, -33.50000000000000000 ) ) ;
#1140 = AXIS2_PLACEMENT_3D ( 'NONE', #90, #629, #1245 ) ;
#1141 = CARTESIAN_POINT ( 'NONE',  ( -4.500000000000002665, 19.99999999999999645, -6.000000000000000000 ) ) ;
#1142 = ORIENTED_EDGE ( 'NONE', *, *, #934, .F. ) ;
#1143 = DIRECTION ( 'NONE',  ( 0.000000000000000000, 0.000000000000000000, -1.000000000000000000 ) ) ;
#1144 = FILL_AREA_STYLE_COLOUR ( '', #1123 ) ;
#1145 = AXIS2_PLACEMENT_3D ( 'NONE', #557, #1063, #868 ) ;
#1146 = CIRCLE ( 'NONE', #196, 2.299999999999999822 ) ;
#1147 = VECTOR ( 'NONE', #263, 1000.000000000000000 ) ;
#1148 = EDGE_CURVE ( 'NONE', #840, #1061, #1304, .T. ) ;
#1149 = CIRCLE ( 'NONE', #815, 2.749999999999999112 ) ;
#1150 = CARTESIAN_POINT ( 'NONE',  ( -11.50000000000000000, 2.000000000000000000, 31.20000000000000639 ) ) ;
#1151 = FACE_OUTER_BOUND ( 'NONE', #653, .T. ) ;
#1152 = ORIENTED_EDGE ( 'NONE', *, *, #244, .T. ) ;
#1153 = DIRECTION ( 'NONE',  ( 1.000000000000000000, 0.000000000000000000, -0.000000000000000000 ) ) ;
#1154 = EDGE_CURVE ( 'NONE', #708, #1223, #1307, .T. ) ;
#1155 = PLANE ( 'NONE',  #282 ) ;
#1156 = FACE_BOUND ( 'NONE', #1095, .T. ) ;
#1157 = VERTEX_POINT ( 'NONE', #755 ) ;
#1158 = DIRECTION ( 'NONE',  ( -0.000000000000000000, 1.000000000000000000, -0.000000000000000000 ) ) ;
#1159 = PRODUCT_CONTEXT ( 'NONE', #25, 'mechanical' ) ;
#1160 = LINE ( 'NONE', #633, #194 ) ;
#1161 = ORIENTED_EDGE ( 'NONE', *, *, #982, .F. ) ;
#1162 = DIRECTION ( 'NONE',  ( 0.000000000000000000, 1.000000000000000000, 0.000000000000000000 ) ) ;
#1163 = EDGE_CURVE ( 'NONE', #581, #1103, #650, .T. ) ;
#1164 =( NAMED_UNIT ( * ) PLANE_ANGLE_UNIT ( ) SI_UNIT ( $, .RADIAN. ) );
#1165 = CIRCLE ( 'NONE', #398, 2.749999999999999112 ) ;
#1166 = DIRECTION ( 'NONE',  ( -0.000000000000000000, -0.000000000000000000, -1.000000000000000000 ) ) ;
#1167 = VECTOR ( 'NONE', #1012, 1000.000000000000000 ) ;
#1168 = EDGE_CURVE ( 'NONE', #661, #66, #198, .T. ) ;
#1169 = AXIS2_PLACEMENT_3D ( 'NONE', #341, #144, #987 ) ;
#1170 = ORIENTED_EDGE ( 'NONE', *, *, #439, .T. ) ;
#1171 = PLANE ( 'NONE',  #966 ) ;
#1172 = LINE ( 'NONE', #117, #553 ) ;
#1173 = EDGE_CURVE ( 'NONE', #1110, #782, #1264, .T. ) ;
#1174 = ORIENTED_EDGE ( 'NONE', *, *, #1090, .F. ) ;
#1175 = CYLINDRICAL_SURFACE ( 'NONE', #1145, 2.749999999999999112 ) ;
#1176 = VERTEX_POINT ( 'NONE', #705 ) ;
#1177 = DIRECTION ( 'NONE',  ( 0.000000000000000000, 0.000000000000000000, 1.000000000000000000 ) ) ;
#1178 = LINE ( 'NONE', #243, #1188 ) ;
#1179 = ORIENTED_EDGE ( 'NONE', *, *, #982, .T. ) ;
#1180 = LINE ( 'NONE', #114, #82 ) ;
#1181 = AXIS2_PLACEMENT_3D ( 'NONE', #1268, #514, #1153 ) ;
#1182 = CARTESIAN_POINT ( 'NONE',  ( 9.199999999999999289, 2.000000000000000000, 33.50000000000000000 ) ) ;
#1183 = CARTESIAN_POINT ( 'NONE',  ( 6.000000000000000000, 0.000000000000000000, -28.24999999999999645 ) ) ;
#1184 = CIRCLE ( 'NONE', #280, 8.999999999999998224 ) ;
#1185 = EDGE_CURVE ( 'NONE', #1115, #1370, #577, .T. ) ;
#1186 = AXIS2_PLACEMENT_3D ( 'NONE', #200, #290, #93 ) ;
#1187 = ORIENTED_EDGE ( 'NONE', *, *, #681, .T. ) ;
#1188 = VECTOR ( 'NONE', #37, 1000.000000000000000 ) ;
#1189 = SURFACE_SIDE_STYLE ('',( #121 ) ) ;
#1190 = ORIENTED_EDGE ( 'NONE', *, *, #1355, .F. ) ;
#1191 = DIRECTION ( 'NONE',  ( 1.000000000000000000, 0.000000000000000000, 0.000000000000000000 ) ) ;
#1192 = ADVANCED_FACE ( 'NONE', ( #1023 ), #173, .T. ) ;
#1193 = DIRECTION ( 'NONE',  ( 0.000000000000000000, 0.000000000000000000, 1.000000000000000000 ) ) ;
#1194 = ORIENTED_EDGE ( 'NONE', *, *, #713, .F. ) ;
#1195 = EDGE_CURVE ( 'NONE', #375, #1037, #1122, .T. ) ;
#1196 = EDGE_LOOP ( 'NONE', ( #911, #873 ) ) ;
#1197 = LINE ( 'NONE', #1182, #1262 ) ;
#1198 = CARTESIAN_POINT ( 'NONE',  ( -11.50000000000000000, 0.000000000000000000, -33.50000000000000000 ) ) ;
#1199 = EDGE_LOOP ( 'NONE', ( #1190, #78, #1212, #1340 ) ) ;
#1200 = AXIS2_PLACEMENT_3D ( 'NONE', #195, #314, #186 ) ;
#1201 = ORIENTED_EDGE ( 'NONE', *, *, #464, .F. ) ;
#1202 = PLANE ( 'NONE',  #119 ) ;
#1203 = LINE ( 'NONE', #545, #1301 ) ;
#1204 = CLOSED_SHELL ( 'NONE', ( #926, #1258, #652, #216, #887, #316, #668, #958, #743, #510, #592, #35, #112, #758, #1352, #1062, #140, #781, #947, #1020, #835, #108, #756, #609, #289, #847, #1137, #320, #419, #877, #2, #184, #908, #223, #1293, #1246, #640, #1085, #602, #1192, #823, #157, #310 ) ) ;
#1205 = CARTESIAN_POINT ( 'NONE',  ( -9.199999999999999289, 0.000000000000000000, 33.50000000000000000 ) ) ;
#1206 = EDGE_CURVE ( 'NONE', #1094, #170, #512, .T. ) ;
#1207 = ORIENTED_EDGE ( 'NONE', *, *, #558, .F. ) ;
#1208 = VECTOR ( 'NONE', #1077, 1000.000000000000000 ) ;
#1209 = CARTESIAN_POINT ( 'NONE',  ( -5.999999999999994671, 0.000000000000000000, 22.75000000000000000 ) ) ;
#1210 = AXIS2_PLACEMENT_3D ( 'NONE', #174, #1016, #1008 ) ;
#1211 = EDGE_LOOP ( 'NONE', ( #1194, #366, #291, #54 ) ) ;
#1212 = ORIENTED_EDGE ( 'NONE', *, *, #1044, .F. ) ;
#1213 = VECTOR ( 'NONE', #1215, 1000.000000000000000 ) ;
#1214 = CARTESIAN_POINT ( 'NONE',  ( 6.000000000000000000, 0.000000000000000000, -25.50000000000000000 ) ) ;
#1215 = DIRECTION ( 'NONE',  ( 0.000000000000000000, -1.000000000000000000, 0.000000000000000000 ) ) ;
#1216 = ORIENTED_EDGE ( 'NONE', *, *, #736, .T. ) ;
#1217 = CARTESIAN_POINT ( 'NONE',  ( 3.973803242064763985, 23.03226954850201480, -6.000000000000000000 ) ) ;
#1218 = ORIENTED_EDGE ( 'NONE', *, *, #1240, .T. ) ;
#1219 = ORIENTED_EDGE ( 'NONE', *, *, #849, .T. ) ;
#1220 = DIRECTION ( 'NONE',  ( 0.000000000000000000, 1.000000000000000000, -0.000000000000000000 ) ) ;
#1221 = CARTESIAN_POINT ( 'NONE',  ( 11.50000000000000000, 2.000000000000000000, 6.000000000000000000 ) ) ;
#1222 = DIRECTION ( 'NONE',  ( -0.000000000000000000, -1.000000000000000000, -0.000000000000000000 ) ) ;
#1223 = VERTEX_POINT ( 'NONE', #269 ) ;
#1224 = DIRECTION ( 'NONE',  ( 1.000000000000000000, 0.000000000000000000, 0.000000000000000000 ) ) ;
#1225 = ORIENTED_EDGE ( 'NONE', *, *, #1163, .F. ) ;
#1226 = VERTEX_POINT ( 'NONE', #68 ) ;
#1227 = DIRECTION ( 'NONE',  ( -0.000000000000000000, 1.000000000000000000, -0.000000000000000000 ) ) ;
#1228 = EDGE_CURVE ( 'NONE', #782, #1110, #858, .T. ) ;
#1229 = DIRECTION ( 'NONE',  ( 0.000000000000000000, -1.000000000000000000, 0.000000000000000000 ) ) ;
#1230 = CARTESIAN_POINT ( 'NONE',  ( -4.500000000000002665, 19.99999999999999645, 16.48528137423856776 ) ) ;
#1231 = VECTOR ( 'NONE', #996, 1000.000000000000000 ) ;
#1232 = VERTEX_POINT ( 'NONE', #685 ) ;
#1233 = FACE_BOUND ( 'NONE', #689, .T. ) ;
#1234 = ORIENTED_EDGE ( 'NONE', *, *, #884, .F. ) ;
#1235 = VECTOR ( 'NONE', #1261, 1000.000000000000000 ) ;
#1236 = DIRECTION ( 'NONE',  ( 0.000000000000000000, 0.000000000000000000, 1.000000000000000000 ) ) ;
#1237 = CIRCLE ( 'NONE', #237, 2.749999999999999112 ) ;
#1238 = LINE ( 'NONE', #251, #1034 ) ;
#1239 = AXIS2_PLACEMENT_3D ( 'NONE', #526, #720, #1362 ) ;
#1240 = EDGE_CURVE ( 'NONE', #73, #598, #821, .T. ) ;
#1241 = AXIS2_PLACEMENT_3D ( 'NONE', #203, #1366, #1049 ) ;
#1242 = ORIENTED_EDGE ( 'NONE', *, *, #952, .T. ) ;
#1243 = CARTESIAN_POINT ( 'NONE',  ( 11.50000000000000000, 0.000000000000000000, 6.000000000000000000 ) ) ;
#1244 = ORIENTED_EDGE ( 'NONE', *, *, #1154, .T. ) ;
#1245 = DIRECTION ( 'NONE',  ( -0.000000000000000000, 0.000000000000000000, -1.000000000000000000 ) ) ;
#1246 = ADVANCED_FACE ( 'NONE', ( #691 ), #803, .F. ) ;
#1247 = SURFACE_STYLE_FILL_AREA ( #515 ) ;
#1248 = EDGE_CURVE ( 'NONE', #1003, #1115, #277, .T. ) ;
#1249 = CARTESIAN_POINT ( 'NONE',  ( 3.973803242064763985, 23.03226954850201480, 6.000000000000000000 ) ) ;
#1250 = DIRECTION ( 'NONE',  ( -0.000000000000000000, 1.000000000000000000, -0.000000000000000000 ) ) ;
#1251 = ORIENTED_EDGE ( 'NONE', *, *, #412, .T. ) ;
#1252 = VERTEX_POINT ( 'NONE', #506 ) ;
#1253 = CARTESIAN_POINT ( 'NONE',  ( 11.50000000000000000, 2.000000000000000000, 6.000000000000000000 ) ) ;
#1254 = EDGE_CURVE ( 'NONE', #1302, #826, #380, .T. ) ;
#1255 = DIRECTION ( 'NONE',  ( 0.000000000000000000, 0.000000000000000000, 1.000000000000000000 ) ) ;
#1256 = LINE ( 'NONE', #1363, #483 ) ;
#1257 = LINE ( 'NONE', #825, #1263 ) ;
#1258 = ADVANCED_FACE ( 'NONE', ( #1106 ), #1121, .F. ) ;
#1259 = ORIENTED_EDGE ( 'NONE', *, *, #797, .T. ) ;
#1260 = LINE ( 'NONE', #308, #362 ) ;
#1261 = DIRECTION ( 'NONE',  ( -0.000000000000000000, 1.000000000000000000, -0.000000000000000000 ) ) ;
#1262 = VECTOR ( 'NONE', #110, 1000.000000000000000 ) ;
#1263 = VECTOR ( 'NONE', #1250, 1000.000000000000000 ) ;
#1264 = CIRCLE ( 'NONE', #376, 3.599999999999999201 ) ;
#1265 = DIRECTION ( 'NONE',  ( 0.000000000000000000, 0.000000000000000000, 1.000000000000000000 ) ) ;
#1266 = FACE_OUTER_BOUND ( 'NONE', #563, .T. ) ;
#1267 = ORIENTED_EDGE ( 'NONE', *, *, #1185, .F. ) ;
#1268 = CARTESIAN_POINT ( 'NONE',  ( -4.500000000000002665, 19.99999999999999645, 8.000000000000000000 ) ) ;
#1269 = CYLINDRICAL_SURFACE ( 'NONE', #814, 2.299999999999999822 ) ;
#1270 = CARTESIAN_POINT ( 'NONE',  ( 6.000000000000005329, 0.000000000000000000, 28.24999999999999645 ) ) ;
#1271 = ORIENTED_EDGE ( 'NONE', *, *, #210, .F. ) ;
#1272 = DIRECTION ( 'NONE',  ( 2.952378146089967439E-16, -1.000000000000000000, 0.000000000000000000 ) ) ;
#1273 = CARTESIAN_POINT ( 'NONE',  ( -13.50000000000000000, 19.99999999999999645, -6.000000000000000000 ) ) ;
#1274 = EDGE_CURVE ( 'NONE', #1068, #48, #256, .T. ) ;
#1275 = CARTESIAN_POINT ( 'NONE',  ( -9.199999999999999289, 2.000000000000000000, -31.20000000000000284 ) ) ;
#1276 = ORIENTED_EDGE ( 'NONE', *, *, #717, .T. ) ;
#1277 = DIRECTION ( 'NONE',  ( 0.000000000000000000, 0.000000000000000000, -1.000000000000000000 ) ) ;
#1278 = EDGE_CURVE ( 'NONE', #794, #740, #1238, .T. ) ;
#1279 = CIRCLE ( 'NONE', #927, 8.999999999999998224 ) ;
#1280 = LINE ( 'NONE', #331, #329 ) ;
#1281 = AXIS2_PLACEMENT_3D ( 'NONE', #588, #1227, #912 ) ;
#1282 = MECHANICAL_DESIGN_GEOMETRIC_PRESENTATION_REPRESENTATION (  '', ( #1348 ), #1010 ) ;
#1283 = ORIENTED_EDGE ( 'NONE', *, *, #797, .F. ) ;
#1284 = LINE ( 'NONE', #539, #635 ) ;
#1285 = DIRECTION ( 'NONE',  ( 1.000000000000000000, 0.000000000000000000, 0.000000000000000000 ) ) ;
#1286 = FACE_OUTER_BOUND ( 'NONE', #379, .T. ) ;
#1287 = VERTEX_POINT ( 'NONE', #473 ) ;
#1288 = APPLICATION_PROTOCOL_DEFINITION ( 'draft international standard', 'automotive_design', 1998, #886 ) ;
#1289 = CARTESIAN_POINT ( 'NONE',  ( -4.500000000000002665, 19.99999999999999645, 9.000000000000001776 ) ) ;
#1290 = CARTESIAN_POINT ( 'NONE',  ( -11.50000000000000000, 0.000000000000000000, -8.300000000000002487 ) ) ;
#1291 = EDGE_CURVE ( 'NONE', #862, #728, #150, .T. ) ;
#1292 = ORIENTED_EDGE ( 'NONE', *, *, #913, .T. ) ;
#1293 = ADVANCED_FACE ( 'NONE', ( #42 ), #787, .F. ) ;
#1294 = CARTESIAN_POINT ( 'NONE',  ( -8.100000000000001421, 11.75136374907948600, 6.000000000000000000 ) ) ;
#1295 = EDGE_LOOP ( 'NONE', ( #594, #567, #255, #890 ) ) ;
#1296 = DIRECTION ( 'NONE',  ( -1.000000000000000000, 0.000000000000000000, 0.000000000000000000 ) ) ;
#1297 = FACE_OUTER_BOUND ( 'NONE', #1335, .T. ) ;
#1298 = EDGE_CURVE ( 'NONE', #285, #353, #769, .T. ) ;
#1299 = VECTOR ( 'NONE', #783, 1000.000000000000000 ) ;
#1300 = ORIENTED_EDGE ( 'NONE', *, *, #474, .F. ) ;
#1301 = VECTOR ( 'NONE', #871, 1000.000000000000000 ) ;
#1302 = VERTEX_POINT ( 'NONE', #1273 ) ;
#1303 = DIRECTION ( 'NONE',  ( 1.000000000000000000, 0.000000000000000000, 0.000000000000000000 ) ) ;
#1304 = LINE ( 'NONE', #139, #106 ) ;
#1305 = ORIENTED_EDGE ( 'NONE', *, *, #226, .T. ) ;
#1306 = CARTESIAN_POINT ( 'NONE',  ( 3.973803242064763985, 23.03226954850201480, 8.000000000000000000 ) ) ;
#1307 = LINE ( 'NONE', #780, #573 ) ;
#1308 = EDGE_CURVE ( 'NONE', #1061, #147, #1007, .T. ) ;
#1309 = ORIENTED_EDGE ( 'NONE', *, *, #1240, .F. ) ;
#1310 = FACE_OUTER_BOUND ( 'NONE', #182, .T. ) ;
#1311 = ORIENTED_EDGE ( 'NONE', *, *, #297, .F. ) ;
#1312 = CARTESIAN_POINT ( 'NONE',  ( -4.500000000000002665, 19.99999999999999645, -9.000000000000001776 ) ) ;
#1313 = DIRECTION ( 'NONE',  ( -0.000000000000000000, -0.000000000000000000, -1.000000000000000000 ) ) ;
#1314 = CARTESIAN_POINT ( 'NONE',  ( -8.100000000000001421, 11.75136374907948600, -6.000000000000000000 ) ) ;
#1315 = DIRECTION ( 'NONE',  ( -1.000000000000000000, 0.000000000000000000, 0.000000000000000000 ) ) ;
#1316 = DIRECTION ( 'NONE',  ( 1.000000000000000000, 0.000000000000000000, 0.000000000000000000 ) ) ;
#1317 = STYLED_ITEM ( 'NONE', ( #537 ), #268 ) ;
#1318 = ORIENTED_EDGE ( 'NONE', *, *, #1254, .T. ) ;
#1319 = AXIS2_PLACEMENT_3D ( 'NONE', #601, #175, #1350 ) ;
#1320 = FACE_BOUND ( 'NONE', #207, .T. ) ;
#1321 = ORIENTED_EDGE ( 'NONE', *, *, #1336, .F. ) ;
#1322 = ORIENTED_EDGE ( 'NONE', *, *, #163, .F. ) ;
#1323 = AXIS2_PLACEMENT_3D ( 'NONE', #918, #811, #903 ) ;
#1324 = CARTESIAN_POINT ( 'NONE',  ( -8.100000000000001421, 11.75136374907948600, -6.000000000000000000 ) ) ;
#1325 = LINE ( 'NONE', #1221, #637 ) ;
#1326 = ORIENTED_EDGE ( 'NONE', *, *, #494, .F. ) ;
#1327 = UNCERTAINTY_MEASURE_WITH_UNIT (LENGTH_MEASURE( 1.000000000000000082E-05 ), #978, 'distance_accuracy_value', 'NONE');
#1328 = CARTESIAN_POINT ( 'NONE',  ( -11.50000000000000000, 2.000000000000000000, -33.50000000000000000 ) ) ;
#1329 = ORIENTED_EDGE ( 'NONE', *, *, #750, .F. ) ;
#1330 = CARTESIAN_POINT ( 'NONE',  ( 9.199999999999999289, 2.000000000000000000, -31.20000000000000284 ) ) ;
#1331 = CARTESIAN_POINT ( 'NONE',  ( -4.500000000000002665, 19.99999999999999645, 9.000000000000001776 ) ) ;
#1332 = CARTESIAN_POINT ( 'NONE',  ( 11.50000000000000000, 2.000000000000000000, -6.000000000000000000 ) ) ;
#1333 = ORIENTED_EDGE ( 'NONE', *, *, #447, .T. ) ;
#1334 = CARTESIAN_POINT ( 'NONE',  ( -8.100000000000001421, 11.75136374907948600, -8.000000000000000000 ) ) ;
#1335 = EDGE_LOOP ( 'NONE', ( #249, #772, #855, #321 ) ) ;
#1336 = EDGE_CURVE ( 'NONE', #728, #840, #538, .T. ) ;
#1337 = DIRECTION ( 'NONE',  ( 1.000000000000000000, 0.000000000000000000, 0.000000000000000000 ) ) ;
#1338 = CARTESIAN_POINT ( 'NONE',  ( -4.500000000000002665, 19.99999999999999645, 9.000000000000001776 ) ) ;
#1339 = DIRECTION ( 'NONE',  ( -1.000000000000000000, 0.000000000000000000, -0.000000000000000000 ) ) ;
#1340 = ORIENTED_EDGE ( 'NONE', *, *, #356, .F. ) ;
#1341 = CYLINDRICAL_SURFACE ( 'NONE', #621, 2.749999999999999112 ) ;
#1342 = ORIENTED_EDGE ( 'NONE', *, *, #899, .F. ) ;
#1343 = FACE_OUTER_BOUND ( 'NONE', #298, .T. ) ;
#1344 = AXIS2_PLACEMENT_3D ( 'NONE', #915, #493, #65 ) ;
#1345 = DIRECTION ( 'NONE',  ( 0.000000000000000000, 0.000000000000000000, 1.000000000000000000 ) ) ;
#1346 = CARTESIAN_POINT ( 'NONE',  ( -11.50000000000000000, 2.000000000000000000, 5.999999999999998224 ) ) ;
#1347 = VECTOR ( 'NONE', #761, 1000.000000000000000 ) ;
#1348 = STYLED_ITEM ( 'NONE', ( #301 ), #739 ) ;
#1349 = DIRECTION ( 'NONE',  ( 1.000000000000000000, -0.000000000000000000, -0.000000000000000000 ) ) ;
#1350 = DIRECTION ( 'NONE',  ( 0.000000000000000000, 0.000000000000000000, -1.000000000000000000 ) ) ;
#1351 = ORIENTED_EDGE ( 'NONE', *, *, #913, .F. ) ;
#1352 = ADVANCED_FACE ( 'NONE', ( #843, #96, #950 ), #187, .T. ) ;
#1353 = VERTEX_POINT ( 'NONE', #1039 ) ;
#1354 = DIRECTION ( 'NONE',  ( 0.000000000000000000, 1.000000000000000000, 0.000000000000000000 ) ) ;
#1355 = EDGE_CURVE ( 'NONE', #1223, #409, #171, .T. ) ;
#1356 = CARTESIAN_POINT ( 'NONE',  ( -28.83936647306398626, 0.000000000000000000, -6.000000000000000000 ) ) ;
#1357 = CARTESIAN_POINT ( 'NONE',  ( -8.100000000000001421, 19.99999999999999645, 9.000000000000001776 ) ) ;
#1358 = CARTESIAN_POINT ( 'NONE',  ( -4.500000000000002665, 19.99999999999999645, 6.000000000000000000 ) ) ;
#1359 = ORIENTED_EDGE ( 'NONE', *, *, #543, .F. ) ;
#1360 = CARTESIAN_POINT ( 'NONE',  ( -11.50000000000000000, 0.000000000000000000, -8.300000000000002487 ) ) ;
#1361 = CARTESIAN_POINT ( 'NONE',  ( 0.000000000000000000, 0.000000000000000000, 0.000000000000000000 ) ) ;
#1362 = DIRECTION ( 'NONE',  ( 0.000000000000000000, 0.000000000000000000, -1.000000000000000000 ) ) ;
#1363 = CARTESIAN_POINT ( 'NONE',  ( 11.50000000000000000, 12.51613477425100918, 6.000000000000000000 ) ) ;
#1364 = ORIENTED_EDGE ( 'NONE', *, *, #69, .F. ) ;
#1365 = CARTESIAN_POINT ( 'NONE',  ( 6.000000000000005329, 0.000000000000000000, 22.75000000000000000 ) ) ;
#1366 = DIRECTION ( 'NONE',  ( 0.000000000000000000, -1.000000000000000000, 0.000000000000000000 ) ) ;
#1367 = VECTOR ( 'NONE', #1166, 1000.000000000000000 ) ;
#1368 = FACE_OUTER_BOUND ( 'NONE', #718, .T. ) ;
#1369 = DIRECTION ( 'NONE',  ( 0.000000000000000000, -0.000000000000000000, 1.000000000000000000 ) ) ;
#1370 = VERTEX_POINT ( 'NONE', #829 ) ;
#1371 = EDGE_CURVE ( 'NONE', #916, #26, #846, .T. ) ;
#1372 = PLANE ( 'NONE',  #189 ) ;
#1373 = CARTESIAN_POINT ( 'NONE',  ( 9.199999999999999289, 0.000000000000000000, 31.20000000000000284 ) ) ;
#1374 = DIRECTION ( 'NONE',  ( 0.000000000000000000, 1.000000000000000000, 0.000000000000000000 ) ) ;
#1375 = PLANE ( 'NONE',  #786 ) ;
ENDSEC;
END-ISO-10303-21;
