ISO-10303-21;
HEADER;
FILE_DESCRIPTION (( 'STEP AP214' ),
    '1' );
FILE_NAME ('传送带轴固定调节电机座.step',
    '2023-08-15T02:59:09',
    ( '' ),
    ( '' ),
    'SwSTEP 2.0',
    'SolidWorks 2022',
    '' );
FILE_SCHEMA (( 'AUTOMOTIVE_DESIGN' ));
ENDSEC;

DATA;
#1 = EDGE_CURVE ( 'NONE', #811, #355, #10, .T. ) ;
#2 = CARTESIAN_POINT ( 'NONE',  ( 70.00000000000000000, 2.000000000000001776, -8.000000000000005329 ) ) ;
#3 = ORIENTED_EDGE ( 'NONE', *, *, #80, .F. ) ;
#4 = TOROIDAL_SURFACE ( 'NONE', #276, 6.000000000000000000, 1.000000000000000000 ) ;
#5 = DIRECTION ( 'NONE',  ( 1.097127629939990044E-16, -1.000000000000000000, 0.000000000000000000 ) ) ;
#6 = CIRCLE ( 'NONE', #475, 2.099999999999997424 ) ;
#7 = LINE ( 'NONE', #158, #266 ) ;
#8 = ORIENTED_EDGE ( 'NONE', *, *, #24, .T. ) ;
#9 = DIRECTION ( 'NONE',  ( 0.000000000000000000, 0.000000000000000000, 1.000000000000000000 ) ) ;
#10 = LINE ( 'NONE', #577, #785 ) ;
#11 = ORIENTED_EDGE ( 'NONE', *, *, #226, .T. ) ;
#12 = DIRECTION ( 'NONE',  ( 0.000000000000000000, -1.000000000000000000, 0.000000000000000000 ) ) ;
#13 = ORIENTED_EDGE ( 'NONE', *, *, #810, .F. ) ;
#14 = ORIENTED_EDGE ( 'NONE', *, *, #600, .F. ) ;
#15 = VECTOR ( 'NONE', #500, 1000.000000000000000 ) ;
#16 = ADVANCED_FACE ( 'NONE', ( #78, #640 ), #517, .F. ) ;
#17 = DIRECTION ( 'NONE',  ( 1.097127629939990044E-16, -1.000000000000000000, -0.000000000000000000 ) ) ;
#18 = CARTESIAN_POINT ( 'NONE',  ( 68.00000000000001421, 15.00000000000000355, 10.00000000000000000 ) ) ;
#19 = CIRCLE ( 'NONE', #733, 2.099999999999997868 ) ;
#20 = AXIS2_PLACEMENT_3D ( 'NONE', #655, #281, #357 ) ;
#21 = CARTESIAN_POINT ( 'NONE',  ( 40.00000000000000711, 1.999999999999997780, 0.000000000000000000 ) ) ;
#22 = FACE_BOUND ( 'NONE', #708, .T. ) ;
#23 = EDGE_LOOP ( 'NONE', ( #211, #607, #704, #675 ) ) ;
#24 = EDGE_CURVE ( 'NONE', #185, #429, #82, .T. ) ;
#25 = CARTESIAN_POINT ( 'NONE',  ( 8.000000000000000000, 5.000000000000000000, 5.000000000000000000 ) ) ;
#26 = PLANE ( 'NONE',  #641 ) ;
#27 = EDGE_CURVE ( 'NONE', #155, #811, #511, .T. ) ;
#28 = ORIENTED_EDGE ( 'NONE', *, *, #370, .F. ) ;
#29 = AXIS2_PLACEMENT_3D ( 'NONE', #706, #12, #331 ) ;
#30 = CARTESIAN_POINT ( 'NONE',  ( 0.000000000000000000, 0.000000000000000000, 0.000000000000000000 ) ) ;
#31 = CARTESIAN_POINT ( 'NONE',  ( 60.00000000000001421, 15.00000000000001066, 0.000000000000000000 ) ) ;
#32 = CARTESIAN_POINT ( 'NONE',  ( 64.00000000000000000, 15.00000000000000355, 10.00000000000000000 ) ) ;
#33 = EDGE_LOOP ( 'NONE', ( #590, #175 ) ) ;
#34 = COLOUR_RGB ( '',1.000000000000000000, 1.000000000000000000, 1.000000000000000000 ) ;
#35 = DIRECTION ( 'NONE',  ( 1.000000000000000000, 0.000000000000000000, 0.000000000000000000 ) ) ;
#36 = CARTESIAN_POINT ( 'NONE',  ( 70.00000000000000000, 2.000000000000001776, 10.00000000000000000 ) ) ;
#37 = LINE ( 'NONE', #666, #127 ) ;
#38 = ORIENTED_EDGE ( 'NONE', *, *, #272, .T. ) ;
#39 = DIRECTION ( 'NONE',  ( 4.082155997157844435E-17, 1.000000000000000000, 0.000000000000000000 ) ) ;
#40 = CARTESIAN_POINT ( 'NONE',  ( 7.999999999999998224, 15.00000000000000533, 0.000000000000000000 ) ) ;
#41 = FACE_OUTER_BOUND ( 'NONE', #275, .T. ) ;
#42 = ORIENTED_EDGE ( 'NONE', *, *, #27, .T. ) ;
#43 = SURFACE_STYLE_FILL_AREA ( #780 ) ;
#44 = CARTESIAN_POINT ( 'NONE',  ( 40.00000000000000711, 12.00000000000000000, 0.000000000000000000 ) ) ;
#45 = CARTESIAN_POINT ( 'NONE',  ( 40.00000000000000711, 1.999999999999997780, 0.000000000000000000 ) ) ;
#46 = ORIENTED_EDGE ( 'NONE', *, *, #489, .F. ) ;
#47 = APPLICATION_CONTEXT ( 'automotive_design' ) ;
#48 = VECTOR ( 'NONE', #105, 1000.000000000000000 ) ;
#49 = DIRECTION ( 'NONE',  ( 1.000000000000000000, 0.000000000000000000, 0.000000000000000000 ) ) ;
#50 = DIRECTION ( 'NONE',  ( 1.097127629939990044E-16, -1.000000000000000000, -0.000000000000000000 ) ) ;
#51 = ORIENTED_EDGE ( 'NONE', *, *, #774, .F. ) ;
#52 = DIRECTION ( 'NONE',  ( 1.000000000000000000, 0.000000000000000000, 0.000000000000000000 ) ) ;
#53 = CARTESIAN_POINT ( 'NONE',  ( 70.00000000000000000, 15.00000000000000355, 10.00000000000000000 ) ) ;
#54 = EDGE_LOOP ( 'NONE', ( #42, #536, #267, #246 ) ) ;
#55 = EDGE_CURVE ( 'NONE', #243, #79, #337, .T. ) ;
#56 = DIRECTION ( 'NONE',  ( 0.000000000000000000, -1.000000000000000000, 0.000000000000000000 ) ) ;
#57 = VECTOR ( 'NONE', #133, 1000.000000000000000 ) ;
#58 = DIRECTION ( 'NONE',  ( 0.7071067811865462405, 0.000000000000000000, 0.7071067811865489050 ) ) ;
#59 = EDGE_LOOP ( 'NONE', ( #87, #432, #749, #363 ) ) ;
#60 = VECTOR ( 'NONE', #813, 1000.000000000000000 ) ;
#61 = CIRCLE ( 'NONE', #451, 3.100000000000000533 ) ;
#62 = FACE_OUTER_BOUND ( 'NONE', #480, .T. ) ;
#63 = ADVANCED_BREP_SHAPE_REPRESENTATION ( '传送带轴固定调节电机座', ( #333, #713 ), #608 ) ;
#64 = CARTESIAN_POINT ( 'NONE',  ( 30.00000000000000000, 1.999999999999997113, 10.00000000000000000 ) ) ;
#65 = VERTEX_POINT ( 'NONE', #207 ) ;
#66 = CARTESIAN_POINT ( 'NONE',  ( 2.000000000000001776, -8.164311994315696265E-17, -10.00000000000000000 ) ) ;
#67 = CARTESIAN_POINT ( 'NONE',  ( 30.00000000000000000, 6.000000000000000000, -10.00000000000000000 ) ) ;
#68 = ORIENTED_EDGE ( 'NONE', *, *, #505, .F. ) ;
#69 = PLANE ( 'NONE',  #702 ) ;
#70 = CARTESIAN_POINT ( 'NONE',  ( 68.00000000000000000, 2.000000000000001332, -10.00000000000000000 ) ) ;
#71 = ORIENTED_EDGE ( 'NONE', *, *, #524, .T. ) ;
#72 = PRODUCT_DEFINITION_FORMATION_WITH_SPECIFIED_SOURCE ( '任何', '', #112, .NOT_KNOWN. ) ;
#73 = CARTESIAN_POINT ( 'NONE',  ( 70.00000000000000000, 15.00000000000000355, 7.999999999999991118 ) ) ;
#74 = DIRECTION ( 'NONE',  ( 1.000000000000000000, 0.000000000000000000, -0.000000000000000000 ) ) ;
#75 = ORIENTED_EDGE ( 'NONE', *, *, #564, .T. ) ;
#76 = ADVANCED_FACE ( 'NONE', ( #587, #22, #523 ), #26, .F. ) ;
#77 = DIRECTION ( 'NONE',  ( 0.000000000000000000, 1.000000000000000000, 0.000000000000000000 ) ) ;
#78 = FACE_BOUND ( 'NONE', #327, .T. ) ;
#79 = VERTEX_POINT ( 'NONE', #448 ) ;
#80 = EDGE_CURVE ( 'NONE', #616, #594, #401, .T. ) ;
#81 = PLANE ( 'NONE',  #94 ) ;
#82 = LINE ( 'NONE', #445, #506 ) ;
#83 = ORIENTED_EDGE ( 'NONE', *, *, #759, .T. ) ;
#84 = LINE ( 'NONE', #714, #215 ) ;
#85 = ORIENTED_EDGE ( 'NONE', *, *, #88, .T. ) ;
#86 = VECTOR ( 'NONE', #386, 1000.000000000000000 ) ;
#87 = ORIENTED_EDGE ( 'NONE', *, *, #179, .F. ) ;
#88 = EDGE_CURVE ( 'NONE', #79, #355, #652, .T. ) ;
#89 = CARTESIAN_POINT ( 'NONE',  ( 8.000000000000000000, 6.000000000000000000, 6.000000000000000000 ) ) ;
#90 = DIRECTION ( 'NONE',  ( -0.000000000000000000, -0.000000000000000000, -1.000000000000000000 ) ) ;
#91 = CYLINDRICAL_SURFACE ( 'NONE', #296, 3.100000000000000533 ) ;
#92 = FACE_OUTER_BOUND ( 'NONE', #220, .T. ) ;
#93 = ORIENTED_EDGE ( 'NONE', *, *, #552, .T. ) ;
#94 = AXIS2_PLACEMENT_3D ( 'NONE', #764, #74, #520 ) ;
#95 =( NAMED_UNIT ( * ) PLANE_ANGLE_UNIT ( ) SI_UNIT ( $, .RADIAN. ) );
#96 = DIRECTION ( 'NONE',  ( 1.097127629939990044E-16, -1.000000000000000000, -0.000000000000000000 ) ) ;
#97 = CARTESIAN_POINT ( 'NONE',  ( 0.000000000000000000, 0.000000000000000000, -10.00000000000000000 ) ) ;
#98 = ORIENTED_EDGE ( 'NONE', *, *, #762, .F. ) ;
#99 = VECTOR ( 'NONE', #606, 999.9999999999998863 ) ;
#100 = DIRECTION ( 'NONE',  ( 1.000000000000000000, 0.000000000000000000, 0.000000000000000000 ) ) ;
#101 = CARTESIAN_POINT ( 'NONE',  ( 4.899999999999999467, 1.999999999999994005, 3.796405077356795411E-16 ) ) ;
#102 = EDGE_CURVE ( 'NONE', #130, #797, #581, .T. ) ;
#103 = DIRECTION ( 'NONE',  ( -0.000000000000000000, 0.000000000000000000, 1.000000000000000000 ) ) ;
#104 = ORIENTED_EDGE ( 'NONE', *, *, #181, .T. ) ;
#105 = DIRECTION ( 'NONE',  ( 1.000000000000000000, 1.192622389734054631E-16, -0.000000000000000000 ) ) ;
#106 = LINE ( 'NONE', #788, #99 ) ;
#107 = ORIENTED_EDGE ( 'NONE', *, *, #80, .T. ) ;
#108 = AXIS2_PLACEMENT_3D ( 'NONE', #436, #306, #817 ) ;
#109 = LINE ( 'NONE', #36, #48 ) ;
#110 = FACE_OUTER_BOUND ( 'NONE', #234, .T. ) ;
#111 = ORIENTED_EDGE ( 'NONE', *, *, #150, .F. ) ;
#112 = PRODUCT ( '传送带轴固定调节电机座', '传送带轴固定调节电机座', '', ( #800 ) ) ;
#113 = CIRCLE ( 'NONE', #703, 6.000000000000000000 ) ;
#114 = PRODUCT_DEFINITION_CONTEXT ( 'detailed design', #47, 'design' ) ;
#115 = ADVANCED_FACE ( 'NONE', ( #604 ), #157, .F. ) ;
#116 = DIRECTION ( 'NONE',  ( 0.000000000000000000, -1.000000000000000000, 0.000000000000000000 ) ) ;
#117 = DIRECTION ( 'NONE',  ( 0.000000000000000000, 0.000000000000000000, -1.000000000000000000 ) ) ;
#118 = ORIENTED_EDGE ( 'NONE', *, *, #343, .F. ) ;
#119 = FACE_OUTER_BOUND ( 'NONE', #23, .T. ) ;
#120 = FACE_OUTER_BOUND ( 'NONE', #466, .T. ) ;
#121 = ORIENTED_EDGE ( 'NONE', *, *, #636, .F. ) ;
#122 = CARTESIAN_POINT ( 'NONE',  ( 60.00000000000001421, 2.000000000000000000, 0.000000000000000000 ) ) ;
#123 = CIRCLE ( 'NONE', #699, 5.000000000000000000 ) ;
#124 = CARTESIAN_POINT ( 'NONE',  ( 60.00000000000001421, 12.00000000000000000, 0.000000000000000000 ) ) ;
#125 = ORIENTED_EDGE ( 'NONE', *, *, #261, .F. ) ;
#126 = CIRCLE ( 'NONE', #247, 5.000000000000000000 ) ;
#127 = VECTOR ( 'NONE', #660, 1000.000000000000000 ) ;
#128 = DIRECTION ( 'NONE',  ( 1.000000000000000000, -4.082155997157844435E-17, 0.000000000000000000 ) ) ;
#129 = DIRECTION ( 'NONE',  ( 0.000000000000000000, 0.000000000000000000, 1.000000000000000000 ) ) ;
#130 = VERTEX_POINT ( 'NONE', #654 ) ;
#131 = ADVANCED_FACE ( 'NONE', ( #298, #601, #531, #592 ), #736, .F. ) ;
#132 = CYLINDRICAL_SURFACE ( 'NONE', #375, 2.099999999999997868 ) ;
#133 = DIRECTION ( 'NONE',  ( -0.000000000000000000, -0.000000000000000000, -1.000000000000000000 ) ) ;
#134 = EDGE_LOOP ( 'NONE', ( #656, #407, #455, #125 ) ) ;
#135 = LINE ( 'NONE', #199, #86 ) ;
#136 = DIRECTION ( 'NONE',  ( 1.097127629939990044E-16, -1.000000000000000000, 0.000000000000000000 ) ) ;
#137 = EDGE_LOOP ( 'NONE', ( #260, #752, #208, #710 ) ) ;
#138 = MECHANICAL_DESIGN_GEOMETRIC_PRESENTATION_REPRESENTATION (  '', ( #433 ), #231 ) ;
#139 = VECTOR ( 'NONE', #646, 1000.000000000000000 ) ;
#140 = ADVANCED_FACE ( 'NONE', ( #342 ), #91, .F. ) ;
#141 = CARTESIAN_POINT ( 'NONE',  ( 4.899999999999997691, 15.00000000000000533, 3.796405077356795411E-16 ) ) ;
#142 = VERTEX_POINT ( 'NONE', #787 ) ;
#143 = ORIENTED_EDGE ( 'NONE', *, *, #585, .T. ) ;
#144 = LINE ( 'NONE', #508, #556 ) ;
#145 = ORIENTED_EDGE ( 'NONE', *, *, #782, .F. ) ;
#146 = ORIENTED_EDGE ( 'NONE', *, *, #694, .F. ) ;
#147 = PLANE ( 'NONE',  #729 ) ;
#148 = ORIENTED_EDGE ( 'NONE', *, *, #341, .F. ) ;
#149 = CIRCLE ( 'NONE', #244, 2.099999999999997424 ) ;
#150 = EDGE_CURVE ( 'NONE', #670, #643, #6, .T. ) ;
#151 = VECTOR ( 'NONE', #400, 999.9999999999998863 ) ;
#152 = CARTESIAN_POINT ( 'NONE',  ( 68.00000000000000000, 0.000000000000000000, -10.00000000000000000 ) ) ;
#153 = ORIENTED_EDGE ( 'NONE', *, *, #600, .T. ) ;
#154 = VECTOR ( 'NONE', #767, 1000.000000000000000 ) ;
#155 = VERTEX_POINT ( 'NONE', #166 ) ;
#156 =( LENGTH_UNIT ( ) NAMED_UNIT ( * ) SI_UNIT ( .MILLI., .METRE. ) );
#157 = CYLINDRICAL_SURFACE ( 'NONE', #662, 2.099999999999997868 ) ;
#158 = CARTESIAN_POINT ( 'NONE',  ( 0.000000000000000000, 12.00000000000000000, 7.999999999999998224 ) ) ;
#159 = LINE ( 'NONE', #534, #463 ) ;
#160 = CARTESIAN_POINT ( 'NONE',  ( 60.00000000000001421, 2.000000000000000000, 0.000000000000000000 ) ) ;
#161 = ORIENTED_EDGE ( 'NONE', *, *, #628, .T. ) ;
#162 = CIRCLE ( 'NONE', #460, 3.100000000000000533 ) ;
#163 = COLOUR_RGB ( '',1.000000000000000000, 1.000000000000000000, 1.000000000000000000 ) ;
#164 = PRODUCT_DEFINITION ( '未知', '', #72, #114 ) ;
#165 = DIRECTION ( 'NONE',  ( -0.000000000000000000, -0.000000000000000000, -1.000000000000000000 ) ) ;
#166 = CARTESIAN_POINT ( 'NONE',  ( 0.000000000000000000, 12.00000000000000000, 7.999999999999998224 ) ) ;
#167 = EDGE_CURVE ( 'NONE', #789, #815, #595, .T. ) ;
#168 = CARTESIAN_POINT ( 'NONE',  ( 40.00000000000000711, 15.00000000000000888, 0.000000000000000000 ) ) ;
#169 = VECTOR ( 'NONE', #740, 1000.000000000000000 ) ;
#170 = VERTEX_POINT ( 'NONE', #232 ) ;
#171 = VECTOR ( 'NONE', #541, 1000.000000000000000 ) ;
#172 = APPLICATION_PROTOCOL_DEFINITION ( 'draft international standard', 'automotive_design', 1998, #591 ) ;
#173 = CARTESIAN_POINT ( 'NONE',  ( 8.000000000000000000, 5.000000000000000000, 6.000000000000000000 ) ) ;
#174 = FACE_OUTER_BOUND ( 'NONE', #137, .T. ) ;
#175 = ORIENTED_EDGE ( 'NONE', *, *, #425, .F. ) ;
#176 = SURFACE_SIDE_STYLE ('',( #43 ) ) ;
#177 = CARTESIAN_POINT ( 'NONE',  ( 1.999999999999994005, -8.164311994315664218E-17, 10.00000000000000000 ) ) ;
#178 = PLANE ( 'NONE',  #663 ) ;
#179 = EDGE_CURVE ( 'NONE', #803, #170, #126, .T. ) ;
#180 = ORIENTED_EDGE ( 'NONE', *, *, #225, .T. ) ;
#181 = EDGE_CURVE ( 'NONE', #594, #130, #109, .T. ) ;
#182 = AXIS2_PLACEMENT_3D ( 'NONE', #516, #459, #639 ) ;
#183 = CIRCLE ( 'NONE', #182, 6.000000000000000000 ) ;
#184 = DIRECTION ( 'NONE',  ( 0.000000000000000000, 0.000000000000000000, -1.000000000000000000 ) ) ;
#185 = VERTEX_POINT ( 'NONE', #237 ) ;
#186 = LINE ( 'NONE', #807, #218 ) ;
#187 = LINE ( 'NONE', #249, #579 ) ;
#188 = ORIENTED_EDGE ( 'NONE', *, *, #55, .T. ) ;
#189 = CARTESIAN_POINT ( 'NONE',  ( -2.449293598294706907E-16, 6.000000000000000000, -8.000000000000005329 ) ) ;
#190 = DIRECTION ( 'NONE',  ( 0.000000000000000000, -1.000000000000000000, 0.000000000000000000 ) ) ;
#191 = EDGE_LOOP ( 'NONE', ( #369, #395, #745, #661 ) ) ;
#192 = CARTESIAN_POINT ( 'NONE',  ( 64.00000000000000000, 15.00000000000000355, -10.00000000000000000 ) ) ;
#193 = FACE_OUTER_BOUND ( 'NONE', #398, .T. ) ;
#194 = ORIENTED_EDGE ( 'NONE', *, *, #609, .T. ) ;
#195 = AXIS2_PLACEMENT_3D ( 'NONE', #408, #672, #730 ) ;
#196 = DIRECTION ( 'NONE',  ( 1.000000000000000000, 0.000000000000000000, 0.000000000000000000 ) ) ;
#197 = CARTESIAN_POINT ( 'NONE',  ( 40.00000000000000711, 12.00000000000000000, 0.000000000000000000 ) ) ;
#198 = ORIENTED_EDGE ( 'NONE', *, *, #547, .T. ) ;
#199 = CARTESIAN_POINT ( 'NONE',  ( 64.00000000000000000, 15.00000000000000355, -10.00000000000000000 ) ) ;
#200 = ORIENTED_EDGE ( 'NONE', *, *, #722, .F. ) ;
#201 = EDGE_CURVE ( 'NONE', #643, #509, #348, .T. ) ;
#202 = LINE ( 'NONE', #152, #320 ) ;
#203 = CARTESIAN_POINT ( 'NONE',  ( 1.999999999999994005, 6.000000000000000000, 10.00000000000000000 ) ) ;
#204 = AXIS2_PLACEMENT_3D ( 'NONE', #658, #476, #596 ) ;
#205 = CIRCLE ( 'NONE', #335, 2.099999999999997424 ) ;
#206 = DIRECTION ( 'NONE',  ( -1.000000000000000000, -0.000000000000000000, -0.000000000000000000 ) ) ;
#207 = CARTESIAN_POINT ( 'NONE',  ( 2.000000000000001776, 6.000000000000000000, -10.00000000000000000 ) ) ;
#208 = ORIENTED_EDGE ( 'NONE', *, *, #659, .T. ) ;
#209 = ADVANCED_FACE ( 'NONE', ( #284 ), #482, .T. ) ;
#210 = CYLINDRICAL_SURFACE ( 'NONE', #359, 5.000000000000000000 ) ;
#211 = ORIENTED_EDGE ( 'NONE', *, *, #478, .F. ) ;
#212 = ORIENTED_EDGE ( 'NONE', *, *, #636, .T. ) ;
#213 = CARTESIAN_POINT ( 'NONE',  ( -2.449293598294706907E-16, 6.000000000000000000, -8.000000000000005329 ) ) ;
#214 = CARTESIAN_POINT ( 'NONE',  ( 70.00000000000000000, 2.000000000000001776, 10.00000000000000000 ) ) ;
#215 = VECTOR ( 'NONE', #456, 999.9999999999998863 ) ;
#216 = SURFACE_STYLE_USAGE ( .BOTH. , #176 ) ;
#217 = DIRECTION ( 'NONE',  ( 0.000000000000000000, 0.000000000000000000, -1.000000000000000000 ) ) ;
#218 = VECTOR ( 'NONE', #367, 1000.000000000000000 ) ;
#219 = CARTESIAN_POINT ( 'NONE',  ( -2.449293598294706907E-16, 6.000000000000000000, -8.000000000000005329 ) ) ;
#220 = EDGE_LOOP ( 'NONE', ( #619, #148, #51, #716 ) ) ;
#221 = DIRECTION ( 'NONE',  ( 0.7071067811865489050, 8.433113791758571318E-17, 0.7071067811865462405 ) ) ;
#222 = DIRECTION ( 'NONE',  ( 0.000000000000000000, 0.000000000000000000, -1.000000000000000000 ) ) ;
#223 = PLANE ( 'NONE',  #689 ) ;
#224 = ORIENTED_EDGE ( 'NONE', *, *, #786, .T. ) ;
#225 = EDGE_CURVE ( 'NONE', #424, #603, #623, .T. ) ;
#226 = EDGE_CURVE ( 'NONE', #243, #616, #725, .T. ) ;
#227 = CARTESIAN_POINT ( 'NONE',  ( 8.000000000000000000, 6.000000000000000000, 0.000000000000000000 ) ) ;
#228 = DIRECTION ( 'NONE',  ( -0.000000000000000000, -0.000000000000000000, -1.000000000000000000 ) ) ;
#229 = ORIENTED_EDGE ( 'NONE', *, *, #179, .T. ) ;
#230 = VECTOR ( 'NONE', #453, 1000.000000000000000 ) ;
#231 =( GEOMETRIC_REPRESENTATION_CONTEXT ( 3 ) GLOBAL_UNCERTAINTY_ASSIGNED_CONTEXT ( ( #548 ) ) GLOBAL_UNIT_ASSIGNED_CONTEXT ( ( #156, #718, #790 ) ) REPRESENTATION_CONTEXT ( 'NONE', 'WORKASPACE' ) );
#232 = CARTESIAN_POINT ( 'NONE',  ( 8.000000000000000000, 2.000000000000000000, 5.000000000000000000 ) ) ;
#233 = DIRECTION ( 'NONE',  ( 1.000000000000000000, 0.000000000000000000, -0.000000000000000000 ) ) ;
#234 = EDGE_LOOP ( 'NONE', ( #224, #8, #574, #68, #200, #83 ) ) ;
#235 = VECTOR ( 'NONE', #681, 1000.000000000000000 ) ;
#236 = FILL_AREA_STYLE_COLOUR ( '', #163 ) ;
#237 = CARTESIAN_POINT ( 'NONE',  ( 70.00000000000000000, 15.00000000000000355, -8.000000000000005329 ) ) ;
#238 = CARTESIAN_POINT ( 'NONE',  ( 8.000000000000000000, 6.000000000000000000, -6.000000000000000000 ) ) ;
#239 = ORIENTED_EDGE ( 'NONE', *, *, #392, .F. ) ;
#240 = ADVANCED_FACE ( 'NONE', ( #668 ), #719, .T. ) ;
#241 =( NAMED_UNIT ( * ) PLANE_ANGLE_UNIT ( ) SI_UNIT ( $, .RADIAN. ) );
#242 = CARTESIAN_POINT ( 'NONE',  ( 8.000000000000000000, 5.000000000000000000, -5.000000000000000000 ) ) ;
#243 = VERTEX_POINT ( 'NONE', #356 ) ;
#244 = AXIS2_PLACEMENT_3D ( 'NONE', #124, #190, #365 ) ;
#245 = FACE_OUTER_BOUND ( 'NONE', #191, .T. ) ;
#246 = ORIENTED_EDGE ( 'NONE', *, *, #782, .T. ) ;
#247 = AXIS2_PLACEMENT_3D ( 'NONE', #294, #467, #217 ) ;
#248 = CARTESIAN_POINT ( 'NONE',  ( 68.00000000000001421, 2.000000000000001332, 10.00000000000000000 ) ) ;
#249 = CARTESIAN_POINT ( 'NONE',  ( 1.999999999999994449, 12.00000000000000000, 10.00000000000000000 ) ) ;
#250 = ORIENTED_EDGE ( 'NONE', *, *, #462, .T. ) ;
#251 = CARTESIAN_POINT ( 'NONE',  ( 60.00000000000001421, 15.00000000000001066, 0.000000000000000000 ) ) ;
#252 = LINE ( 'NONE', #809, #634 ) ;
#253 = EDGE_LOOP ( 'NONE', ( #806, #698, #614, #682, #28, #560, #300, #239 ) ) ;
#254 = PLANE ( 'NONE',  #438 ) ;
#255 = VECTOR ( 'NONE', #206, 1000.000000000000000 ) ;
#256 = LINE ( 'NONE', #431, #235 ) ;
#257 = ORIENTED_EDGE ( 'NONE', *, *, #426, .T. ) ;
#258 = DIRECTION ( 'NONE',  ( -0.7071067811865462405, 0.000000000000000000, 0.7071067811865489050 ) ) ;
#259 = LINE ( 'NONE', #510, #304 ) ;
#260 = ORIENTED_EDGE ( 'NONE', *, *, #547, .F. ) ;
#261 = EDGE_CURVE ( 'NONE', #765, #457, #159, .T. ) ;
#262 = CARTESIAN_POINT ( 'NONE',  ( 62.10000000000000853, 15.00000000000001066, 0.000000000000000000 ) ) ;
#263 = DIRECTION ( 'NONE',  ( 0.000000000000000000, 1.000000000000000000, 0.000000000000000000 ) ) ;
#264 = LINE ( 'NONE', #775, #255 ) ;
#265 = ORIENTED_EDGE ( 'NONE', *, *, #750, .F. ) ;
#266 = VECTOR ( 'NONE', #39, 1000.000000000000000 ) ;
#267 = ORIENTED_EDGE ( 'NONE', *, *, #88, .F. ) ;
#268 = VECTOR ( 'NONE', #315, 999.9999999999998863 ) ;
#269 = AXIS2_PLACEMENT_3D ( 'NONE', #32, #233, #528 ) ;
#270 = DIRECTION ( 'NONE',  ( 0.000000000000000000, -1.000000000000000000, 0.000000000000000000 ) ) ;
#271 = ORIENTED_EDGE ( 'NONE', *, *, #810, .T. ) ;
#272 = EDGE_CURVE ( 'NONE', #789, #424, #113, .T. ) ;
#273 = FACE_OUTER_BOUND ( 'NONE', #693, .T. ) ;
#274 = CARTESIAN_POINT ( 'NONE',  ( -2.449293598294706907E-16, 6.000000000000000000, 10.00000000000000000 ) ) ;
#275 = EDGE_LOOP ( 'NONE', ( #402, #121, #649, #303 ) ) ;
#276 = AXIS2_PLACEMENT_3D ( 'NONE', #444, #77, #522 ) ;
#277 = VERTEX_POINT ( 'NONE', #101 ) ;
#278 = DIRECTION ( 'NONE',  ( 0.000000000000000000, 0.000000000000000000, 1.000000000000000000 ) ) ;
#279 = DIRECTION ( 'NONE',  ( 1.000000000000000000, 0.000000000000000000, 0.000000000000000000 ) ) ;
#280 = VECTOR ( 'NONE', #770, 999.9999999999998863 ) ;
#281 = DIRECTION ( 'NONE',  ( 0.000000000000000000, 1.000000000000000000, 0.000000000000000000 ) ) ;
#282 = VERTEX_POINT ( 'NONE', #382 ) ;
#283 = CARTESIAN_POINT ( 'NONE',  ( 70.00000000000000000, 15.00000000000000355, 10.00000000000000000 ) ) ;
#284 = FACE_OUTER_BOUND ( 'NONE', #630, .T. ) ;
#285 = CARTESIAN_POINT ( 'NONE',  ( 30.00000000000000000, 6.000000000000000000, 10.00000000000000000 ) ) ;
#286 = ORIENTED_EDGE ( 'NONE', *, *, #226, .F. ) ;
#287 = CARTESIAN_POINT ( 'NONE',  ( 8.000000000000000000, 2.000000000000000000, -5.000000000000000000 ) ) ;
#288 = CARTESIAN_POINT ( 'NONE',  ( -2.449293598294706907E-16, 6.000000000000000000, 10.00000000000000000 ) ) ;
#289 = PLANE ( 'NONE',  #734 ) ;
#290 = ORIENTED_EDGE ( 'NONE', *, *, #425, .T. ) ;
#291 = CIRCLE ( 'NONE', #635, 5.000000000000000000 ) ;
#292 = ADVANCED_FACE ( 'NONE', ( #119 ), #132, .F. ) ;
#293 = ADVANCED_FACE ( 'NONE', ( #495 ), #69, .F. ) ;
#294 = CARTESIAN_POINT ( 'NONE',  ( 8.000000000000000000, 2.000000000000000000, 0.000000000000000000 ) ) ;
#295 = CARTESIAN_POINT ( 'NONE',  ( 57.90000000000001279, 1.999999999999999556, 2.571758278209438013E-16 ) ) ;
#296 = AXIS2_PLACEMENT_3D ( 'NONE', #40, #96, #279 ) ;
#297 = ORIENTED_EDGE ( 'NONE', *, *, #628, .F. ) ;
#298 = FACE_BOUND ( 'NONE', #650, .T. ) ;
#299 = DIRECTION ( 'NONE',  ( 0.000000000000000000, 0.000000000000000000, 1.000000000000000000 ) ) ;
#300 = ORIENTED_EDGE ( 'NONE', *, *, #538, .F. ) ;
#301 = LINE ( 'NONE', #66, #771 ) ;
#302 = PLANE ( 'NONE',  #487 ) ;
#303 = ORIENTED_EDGE ( 'NONE', *, *, #505, .T. ) ;
#304 = VECTOR ( 'NONE', #700, 1000.000000000000000 ) ;
#305 = CARTESIAN_POINT ( 'NONE',  ( 64.00000000000000000, 15.00000000000000355, 10.00000000000000000 ) ) ;
#306 = DIRECTION ( 'NONE',  ( 0.000000000000000000, -1.000000000000000000, 0.000000000000000000 ) ) ;
#307 = ORIENTED_EDGE ( 'NONE', *, *, #462, .F. ) ;
#308 = VECTOR ( 'NONE', #56, 1000.000000000000000 ) ;
#309 = CIRCLE ( 'NONE', #812, 2.099999999999997868 ) ;
#310 = EDGE_CURVE ( 'NONE', #170, #815, #186, .T. ) ;
#311 = DIRECTION ( 'NONE',  ( 0.000000000000000000, 0.000000000000000000, -1.000000000000000000 ) ) ;
#312 = DIRECTION ( 'NONE',  ( -0.000000000000000000, -1.000000000000000000, -0.000000000000000000 ) ) ;
#313 = ORIENTED_EDGE ( 'NONE', *, *, #597, .T. ) ;
#314 = PRODUCT_DEFINITION_SHAPE ( 'NONE', 'NONE',  #164 ) ;
#315 = DIRECTION ( 'NONE',  ( -0.7071067811865439090, -8.433113791758509688E-17, 0.7071067811865512365 ) ) ;
#316 = DIRECTION ( 'NONE',  ( 0.000000000000000000, -1.000000000000000000, 0.000000000000000000 ) ) ;
#317 = VERTEX_POINT ( 'NONE', #192 ) ;
#318 = EDGE_CURVE ( 'NONE', #170, #803, #450, .T. ) ;
#319 = FILL_AREA_STYLE_COLOUR ( '', #34 ) ;
#320 = VECTOR ( 'NONE', #270, 1000.000000000000000 ) ;
#321 = EDGE_CURVE ( 'NONE', #142, #721, #434, .T. ) ;
#322 = CARTESIAN_POINT ( 'NONE',  ( 8.000000000000000000, 2.000000000000000000, 0.000000000000000000 ) ) ;
#323 = ORIENTED_EDGE ( 'NONE', *, *, #695, .T. ) ;
#324 = PRESENTATION_LAYER_ASSIGNMENT (  '', '', ( #676 ) ) ;
#325 = CARTESIAN_POINT ( 'NONE',  ( 64.00000000000000000, 12.00000000000000000, 10.00000000000000000 ) ) ;
#326 = VERTEX_POINT ( 'NONE', #631 ) ;
#327 = EDGE_LOOP ( 'NONE', ( #38, #323 ) ) ;
#328 = CARTESIAN_POINT ( 'NONE',  ( 70.00000000000000000, 2.000000000000001776, 10.00000000000000000 ) ) ;
#329 = ORIENTED_EDGE ( 'NONE', *, *, #396, .F. ) ;
#330 = EDGE_LOOP ( 'NONE', ( #118, #653, #679, #313 ) ) ;
#331 = DIRECTION ( 'NONE',  ( 0.000000000000000000, 0.000000000000000000, -1.000000000000000000 ) ) ;
#332 = CARTESIAN_POINT ( 'NONE',  ( -2.449293598294706907E-16, 6.000000000000000000, 10.00000000000000000 ) ) ;
#333 = MANIFOLD_SOLID_BREP ( '圆角1', #349 ) ;
#334 = ADVANCED_FACE ( 'NONE', ( #758 ), #617, .F. ) ;
#335 = AXIS2_PLACEMENT_3D ( 'NONE', #197, #503, #117 ) ;
#336 = LINE ( 'NONE', #213, #151 ) ;
#337 = LINE ( 'NONE', #203, #280 ) ;
#338 = PRESENTATION_STYLE_ASSIGNMENT (( #216 ) ) ;
#339 = DIRECTION ( 'NONE',  ( -4.082155997157844435E-17, -1.000000000000000000, 0.000000000000000000 ) ) ;
#340 = ORIENTED_EDGE ( 'NONE', *, *, #538, .T. ) ;
#341 = EDGE_CURVE ( 'NONE', #65, #391, #301, .T. ) ;
#342 = FACE_OUTER_BOUND ( 'NONE', #484, .T. ) ;
#343 = EDGE_CURVE ( 'NONE', #803, #603, #565, .T. ) ;
#344 = FACE_OUTER_BOUND ( 'NONE', #253, .T. ) ;
#345 = ORIENTED_EDGE ( 'NONE', *, *, #27, .F. ) ;
#346 = AXIS2_PLACEMENT_3D ( 'NONE', #173, #413, #417 ) ;
#347 = DIRECTION ( 'NONE',  ( 1.097127629939990044E-16, -1.000000000000000000, -0.000000000000000000 ) ) ;
#348 = LINE ( 'NONE', #544, #746 ) ;
#349 = CLOSED_SHELL ( 'NONE', ( #514, #115, #498, #819, #723, #512, #131, #293, #16, #711, #76, #626, #452, #773, #404, #240, #583, #439, #209, #381, #638, #140, #334, #292, #671 ) ) ;
#350 = LINE ( 'NONE', #479, #799 ) ;
#351 = ORIENTED_EDGE ( 'NONE', *, *, #537, .F. ) ;
#352 = DIRECTION ( 'NONE',  ( 1.097127629939990044E-16, -1.000000000000000000, -0.000000000000000000 ) ) ;
#353 = LINE ( 'NONE', #535, #519 ) ;
#354 = EDGE_CURVE ( 'NONE', #384, #130, #427, .T. ) ;
#355 = VERTEX_POINT ( 'NONE', #189 ) ;
#356 = CARTESIAN_POINT ( 'NONE',  ( 1.999999999999994449, 6.000000000000000000, 10.00000000000000000 ) ) ;
#357 = DIRECTION ( 'NONE',  ( 0.000000000000000000, 0.000000000000000000, 1.000000000000000000 ) ) ;
#358 = EDGE_LOOP ( 'NONE', ( #755, #180, #732, #421 ) ) ;
#359 = AXIS2_PLACEMENT_3D ( 'NONE', #322, #769, #9 ) ;
#360 = DIRECTION ( 'NONE',  ( -0.7071067811865489050, 2.886520187451650449E-17, 0.7071067811865462405 ) ) ;
#361 = DIRECTION ( 'NONE',  ( 0.000000000000000000, -1.000000000000000000, 0.000000000000000000 ) ) ;
#362 = VECTOR ( 'NONE', #49, 1000.000000000000000 ) ;
#363 = ORIENTED_EDGE ( 'NONE', *, *, #310, .F. ) ;
#364 = PRESENTATION_STYLE_ASSIGNMENT (( #804 ) ) ;
#365 = DIRECTION ( 'NONE',  ( 0.000000000000000000, 0.000000000000000000, -1.000000000000000000 ) ) ;
#366 = ORIENTED_EDGE ( 'NONE', *, *, #396, .T. ) ;
#367 = DIRECTION ( 'NONE',  ( -0.000000000000000000, 1.000000000000000000, -0.000000000000000000 ) ) ;
#368 = DIRECTION ( 'NONE',  ( 0.7071067811865512365, 0.000000000000000000, 0.7071067811865437980 ) ) ;
#369 = ORIENTED_EDGE ( 'NONE', *, *, #354, .F. ) ;
#370 = EDGE_CURVE ( 'NONE', #65, #573, #622, .T. ) ;
#371 = AXIS2_PLACEMENT_3D ( 'NONE', #805, #754, #184 ) ;
#372 = DIRECTION ( 'NONE',  ( 1.000000000000000000, 2.065146995210486667E-16, 0.000000000000000000 ) ) ;
#373 = DIRECTION ( 'NONE',  ( -0.000000000000000000, -1.000000000000000000, -0.000000000000000000 ) ) ;
#374 = EDGE_LOOP ( 'NONE', ( #329, #546 ) ) ;
#375 = AXIS2_PLACEMENT_3D ( 'NONE', #251, #499, #753 ) ;
#376 = TOROIDAL_SURFACE ( 'NONE', #20, 6.000000000000000000, 1.000000000000000000 ) ;
#377 = DIRECTION ( 'NONE',  ( 1.097127629939990044E-16, -1.000000000000000000, -0.000000000000000000 ) ) ;
#378 = CARTESIAN_POINT ( 'NONE',  ( 8.000000000000000000, 5.000000000000000000, 0.000000000000000000 ) ) ;
#379 = ORIENTED_EDGE ( 'NONE', *, *, #786, .F. ) ;
#380 = EDGE_CURVE ( 'NONE', #282, #410, #19, .T. ) ;
#381 = ADVANCED_FACE ( 'NONE', ( #62 ), #254, .F. ) ;
#382 = CARTESIAN_POINT ( 'NONE',  ( 62.10000000000000853, 2.000000000000000444, 0.000000000000000000 ) ) ;
#383 = CARTESIAN_POINT ( 'NONE',  ( 8.000000000000000000, 2.000000000000000000, 0.000000000000000000 ) ) ;
#384 = VERTEX_POINT ( 'NONE', #763 ) ;
#385 = VECTOR ( 'NONE', #316, 1000.000000000000000 ) ;
#386 = DIRECTION ( 'NONE',  ( 0.000000000000000000, -1.000000000000000000, 0.000000000000000000 ) ) ;
#387 = CARTESIAN_POINT ( 'NONE',  ( 8.000000000000000000, 1.999999999999994449, 0.000000000000000000 ) ) ;
#388 = VERTEX_POINT ( 'NONE', #637 ) ;
#389 = LINE ( 'NONE', #328, #230 ) ;
#390 = VERTEX_POINT ( 'NONE', #73 ) ;
#391 = VERTEX_POINT ( 'NONE', #507 ) ;
#392 = EDGE_CURVE ( 'NONE', #317, #326, #135, .T. ) ;
#393 = DIRECTION ( 'NONE',  ( 1.097127629939990044E-16, -1.000000000000000000, -0.000000000000000000 ) ) ;
#394 = CARTESIAN_POINT ( 'NONE',  ( 30.00000000000000000, 6.000000000000000000, 10.00000000000000000 ) ) ;
#395 = ORIENTED_EDGE ( 'NONE', *, *, #609, .F. ) ;
#396 = EDGE_CURVE ( 'NONE', #457, #277, #61, .T. ) ;
#397 = CARTESIAN_POINT ( 'NONE',  ( 0.000000000000000000, 0.000000000000000000, 10.00000000000000000 ) ) ;
#398 = EDGE_LOOP ( 'NONE', ( #419, #153, #379, #194 ) ) ;
#399 = ORIENTED_EDGE ( 'NONE', *, *, #435, .T. ) ;
#400 = DIRECTION ( 'NONE',  ( 0.7071067811865489050, -0.000000000000000000, -0.7071067811865462405 ) ) ;
#401 = LINE ( 'NONE', #394, #139 ) ;
#402 = ORIENTED_EDGE ( 'NONE', *, *, #392, .T. ) ;
#403 = PRODUCT_RELATED_PRODUCT_CATEGORY ( 'part', '', ( #112 ) ) ;
#404 = ADVANCED_FACE ( 'NONE', ( #344 ), #289, .F. ) ;
#405 = DIRECTION ( 'NONE',  ( 0.000000000000000000, 0.000000000000000000, 1.000000000000000000 ) ) ;
#406 = CARTESIAN_POINT ( 'NONE',  ( 57.90000000000001279, 12.00000000000000000, 2.571758278209438013E-16 ) ) ;
#407 = ORIENTED_EDGE ( 'NONE', *, *, #750, .T. ) ;
#408 = CARTESIAN_POINT ( 'NONE',  ( 0.000000000000000000, 12.00000000000000000, 10.00000000000000000 ) ) ;
#409 = CARTESIAN_POINT ( 'NONE',  ( 70.00000000000000000, 2.000000000000001776, -10.00000000000000000 ) ) ;
#410 = VERTEX_POINT ( 'NONE', #295 ) ;
#411 = AXIS2_PLACEMENT_3D ( 'NONE', #561, #377, #52 ) ;
#412 = CYLINDRICAL_SURFACE ( 'NONE', #488, 3.100000000000000533 ) ;
#413 = DIRECTION ( 'NONE',  ( -1.000000000000000000, 0.000000000000000000, 0.000000000000000000 ) ) ;
#414 = DIRECTION ( 'NONE',  ( 1.000000000000000000, 0.000000000000000000, 0.000000000000000000 ) ) ;
#415 = ORIENTED_EDGE ( 'NONE', *, *, #354, .T. ) ;
#416 = SHAPE_DEFINITION_REPRESENTATION ( #314, #63 ) ;
#417 = DIRECTION ( 'NONE',  ( 0.000000000000000000, 0.000000000000000000, 1.000000000000000000 ) ) ;
#418 = DIRECTION ( 'NONE',  ( 1.000000000000000000, 2.065146995210486667E-16, 0.000000000000000000 ) ) ;
#419 = ORIENTED_EDGE ( 'NONE', *, *, #651, .T. ) ;
#420 = LINE ( 'NONE', #409, #171 ) ;
#421 = ORIENTED_EDGE ( 'NONE', *, *, #167, .F. ) ;
#422 = SURFACE_STYLE_FILL_AREA ( #691 ) ;
#423 = CARTESIAN_POINT ( 'NONE',  ( 30.00000000000000000, 6.000000000000000000, 10.00000000000000000 ) ) ;
#424 = VERTEX_POINT ( 'NONE', #238 ) ;
#425 = EDGE_CURVE ( 'NONE', #410, #282, #309, .T. ) ;
#426 = EDGE_CURVE ( 'NONE', #670, #458, #669, .T. ) ;
#427 = LINE ( 'NONE', #248, #268 ) ;
#428 = CARTESIAN_POINT ( 'NONE',  ( 68.00000000000001421, 0.000000000000000000, 10.00000000000000000 ) ) ;
#429 = VERTEX_POINT ( 'NONE', #802 ) ;
#430 = CARTESIAN_POINT ( 'NONE',  ( 8.000000000000000000, 2.000000000000000000, 0.000000000000000000 ) ) ;
#431 = CARTESIAN_POINT ( 'NONE',  ( 0.000000000000000000, 12.00000000000000000, -10.00000000000000000 ) ) ;
#432 = ORIENTED_EDGE ( 'NONE', *, *, #343, .T. ) ;
#433 = STYLED_ITEM ( 'NONE', ( #338 ), #63 ) ;
#434 = LINE ( 'NONE', #305, #308 ) ;
#435 = EDGE_CURVE ( 'NONE', #551, #778, #420, .T. ) ;
#436 = CARTESIAN_POINT ( 'NONE',  ( 60.00000000000001421, 12.00000000000000000, 0.000000000000000000 ) ) ;
#437 = ORIENTED_EDGE ( 'NONE', *, *, #272, .F. ) ;
#438 = AXIS2_PLACEMENT_3D ( 'NONE', #747, #258, #696 ) ;
#439 = ADVANCED_FACE ( 'NONE', ( #92 ), #223, .F. ) ;
#440 = CARTESIAN_POINT ( 'NONE',  ( -2.449293598294706907E-16, 6.000000000000000000, 10.00000000000000000 ) ) ;
#441 = CARTESIAN_POINT ( 'NONE',  ( 30.00000000000000000, 1.999999999999997113, -10.00000000000000000 ) ) ;
#442 = EDGE_LOOP ( 'NONE', ( #513, #198 ) ) ;
#443 = DIRECTION ( 'NONE',  ( 1.000000000000000000, 1.398970545142586048E-16, 0.000000000000000000 ) ) ;
#444 = CARTESIAN_POINT ( 'NONE',  ( 8.000000000000000000, 5.000000000000000000, 0.000000000000000000 ) ) ;
#445 = CARTESIAN_POINT ( 'NONE',  ( 70.00000000000000000, 15.00000000000000355, -8.000000000000005329 ) ) ;
#446 = VECTOR ( 'NONE', #629, 1000.000000000000000 ) ;
#447 = FACE_OUTER_BOUND ( 'NONE', #529, .T. ) ;
#448 = CARTESIAN_POINT ( 'NONE',  ( -2.449293598294706907E-16, 6.000000000000000000, 7.999999999999998224 ) ) ;
#449 = VERTEX_POINT ( 'NONE', #598 ) ;
#450 = CIRCLE ( 'NONE', #557, 5.000000000000000000 ) ;
#451 = AXIS2_PLACEMENT_3D ( 'NONE', #569, #5, #443 ) ;
#452 = ADVANCED_FACE ( 'NONE', ( #110 ), #178, .F. ) ;
#453 = DIRECTION ( 'NONE',  ( -0.000000000000000000, -0.000000000000000000, -1.000000000000000000 ) ) ;
#454 = ORIENTED_EDGE ( 'NONE', *, *, #694, .T. ) ;
#455 = ORIENTED_EDGE ( 'NONE', *, *, #686, .T. ) ;
#456 = DIRECTION ( 'NONE',  ( 0.7071067811865439090, 0.000000000000000000, -0.7071067811865512365 ) ) ;
#457 = VERTEX_POINT ( 'NONE', #731 ) ;
#458 = VERTEX_POINT ( 'NONE', #796 ) ;
#459 = DIRECTION ( 'NONE',  ( 0.000000000000000000, 1.000000000000000000, 0.000000000000000000 ) ) ;
#460 = AXIS2_PLACEMENT_3D ( 'NONE', #387, #136, #648 ) ;
#461 = DIRECTION ( 'NONE',  ( -1.000000000000000000, -1.192622389734054631E-16, 0.000000000000000000 ) ) ;
#462 = EDGE_CURVE ( 'NONE', #518, #243, #37, .T. ) ;
#463 = VECTOR ( 'NONE', #791, 1000.000000000000000 ) ;
#464 = DIRECTION ( 'NONE',  ( 1.097127629939990044E-16, -1.000000000000000000, -0.000000000000000000 ) ) ;
#465 = DIRECTION ( 'NONE',  ( 1.097127629939990044E-16, -1.000000000000000000, -0.000000000000000000 ) ) ;
#466 = EDGE_LOOP ( 'NONE', ( #627, #229 ) ) ;
#467 = DIRECTION ( 'NONE',  ( 0.000000000000000000, -1.000000000000000000, 0.000000000000000000 ) ) ;
#468 = CYLINDRICAL_SURFACE ( 'NONE', #559, 2.099999999999997868 ) ;
#469 = ORIENTED_EDGE ( 'NONE', *, *, #774, .T. ) ;
#470 = UNCERTAINTY_MEASURE_WITH_UNIT (LENGTH_MEASURE( 1.000000000000000082E-05 ), #728, 'distance_accuracy_value', 'NONE');
#471 = FACE_OUTER_BOUND ( 'NONE', #134, .T. ) ;
#472 = DIRECTION ( 'NONE',  ( 0.000000000000000000, 1.000000000000000000, 0.000000000000000000 ) ) ;
#473 = CARTESIAN_POINT ( 'NONE',  ( 37.90000000000001279, 1.999999999999997335, 2.571758278209438013E-16 ) ) ;
#474 = ORIENTED_EDGE ( 'NONE', *, *, #585, .F. ) ;
#475 = AXIS2_PLACEMENT_3D ( 'NONE', #44, #801, #222 ) ;
#476 = DIRECTION ( 'NONE',  ( 1.000000000000000000, -0.000000000000000000, 1.224646799147353207E-16 ) ) ;
#477 = CIRCLE ( 'NONE', #584, 2.099999999999997868 ) ;
#478 = EDGE_CURVE ( 'NONE', #501, #410, #350, .T. ) ;
#479 = CARTESIAN_POINT ( 'NONE',  ( 57.90000000000001279, 15.00000000000001066, 2.571758278209438506E-16 ) ) ;
#480 = EDGE_LOOP ( 'NONE', ( #13, #98, #533, #14 ) ) ;
#481 = CARTESIAN_POINT ( 'NONE',  ( 7.999999999999998224, 15.00000000000000533, 0.000000000000000000 ) ) ;
#482 = PLANE ( 'NONE',  #717 ) ;
#483 = CARTESIAN_POINT ( 'NONE',  ( 42.10000000000000853, 15.00000000000000888, 0.000000000000000000 ) ) ;
#484 = EDGE_LOOP ( 'NONE', ( #265, #521, #779, #366 ) ) ;
#485 = LINE ( 'NONE', #550, #15 ) ;
#486 = ORIENTED_EDGE ( 'NONE', *, *, #735, .F. ) ;
#487 = AXIS2_PLACEMENT_3D ( 'NONE', #53, #688, #129 ) ;
#488 = AXIS2_PLACEMENT_3D ( 'NONE', #481, #347, #100 ) ;
#489 = EDGE_CURVE ( 'NONE', #616, #573, #737, .T. ) ;
#490 = UNCERTAINTY_MEASURE_WITH_UNIT (LENGTH_MEASURE( 1.000000000000000082E-05 ), #677, 'distance_accuracy_value', 'NONE');
#491 = CARTESIAN_POINT ( 'NONE',  ( 8.000000000000000000, 2.000000000000000000, -5.000000000000000000 ) ) ;
#492 = CARTESIAN_POINT ( 'NONE',  ( 30.00000000000000000, 6.000000000000000000, -10.00000000000000000 ) ) ;
#493 = AXIS2_PLACEMENT_3D ( 'NONE', #274, #263, #781 ) ;
#494 = ORIENTED_EDGE ( 'NONE', *, *, #167, .T. ) ;
#495 = FACE_OUTER_BOUND ( 'NONE', #54, .T. ) ;
#496 = LINE ( 'NONE', #554, #446 ) ;
#497 = ORIENTED_EDGE ( 'NONE', *, *, #705, .T. ) ;
#498 = ADVANCED_FACE ( 'NONE', ( #174 ), #468, .F. ) ;
#499 = DIRECTION ( 'NONE',  ( 1.097127629939990044E-16, -1.000000000000000000, -0.000000000000000000 ) ) ;
#500 = DIRECTION ( 'NONE',  ( 0.000000000000000000, -1.000000000000000000, 0.000000000000000000 ) ) ;
#501 = VERTEX_POINT ( 'NONE', #406 ) ;
#502 = DIRECTION ( 'NONE',  ( 4.082155997157844435E-17, 1.000000000000000000, 0.000000000000000000 ) ) ;
#503 = DIRECTION ( 'NONE',  ( 0.000000000000000000, -1.000000000000000000, 0.000000000000000000 ) ) ;
#504 = ORIENTED_EDGE ( 'NONE', *, *, #651, .F. ) ;
#505 = EDGE_CURVE ( 'NONE', #142, #317, #353, .T. ) ;
#506 = VECTOR ( 'NONE', #776, 999.9999999999998863 ) ;
#507 = CARTESIAN_POINT ( 'NONE',  ( 2.000000000000002220, 12.00000000000000000, -10.00000000000000000 ) ) ;
#508 = CARTESIAN_POINT ( 'NONE',  ( 70.00000000000000000, 15.00000000000000355, 10.00000000000000000 ) ) ;
#509 = VERTEX_POINT ( 'NONE', #473 ) ;
#510 = CARTESIAN_POINT ( 'NONE',  ( 70.00000000000000000, 15.00000000000000355, -10.00000000000000000 ) ) ;
#511 = LINE ( 'NONE', #589, #154 ) ;
#512 = ADVANCED_FACE ( 'NONE', ( #41 ), #602, .F. ) ;
#513 = ORIENTED_EDGE ( 'NONE', *, *, #150, .T. ) ;
#514 = ADVANCED_FACE ( 'NONE', ( #720 ), #376, .F. ) ;
#515 = AXIS2_PLACEMENT_3D ( 'NONE', #428, #368, #618 ) ;
#516 = CARTESIAN_POINT ( 'NONE',  ( 8.000000000000000000, 6.000000000000000000, 0.000000000000000000 ) ) ;
#517 = PLANE ( 'NONE',  #493 ) ;
#518 = VERTEX_POINT ( 'NONE', #532 ) ;
#519 = VECTOR ( 'NONE', #228, 1000.000000000000000 ) ;
#520 = DIRECTION ( 'NONE',  ( -0.000000000000000000, 0.000000000000000000, -1.000000000000000000 ) ) ;
#521 = ORIENTED_EDGE ( 'NONE', *, *, #611, .F. ) ;
#522 = DIRECTION ( 'NONE',  ( 0.000000000000000000, 0.000000000000000000, 1.000000000000000000 ) ) ;
#523 = FACE_OUTER_BOUND ( 'NONE', #555, .T. ) ;
#524 = EDGE_CURVE ( 'NONE', #391, #811, #106, .T. ) ;
#525 = ORIENTED_EDGE ( 'NONE', *, *, #201, .F. ) ;
#526 = CIRCLE ( 'NONE', #108, 2.099999999999997424 ) ;
#527 = ORIENTED_EDGE ( 'NONE', *, *, #611, .T. ) ;
#528 = DIRECTION ( 'NONE',  ( -0.000000000000000000, 0.000000000000000000, -1.000000000000000000 ) ) ;
#529 = EDGE_LOOP ( 'NONE', ( #599, #474, #3, #738 ) ) ;
#530 =( GEOMETRIC_REPRESENTATION_CONTEXT ( 3 ) GLOBAL_UNCERTAINTY_ASSIGNED_CONTEXT ( ( #490 ) ) GLOBAL_UNIT_ASSIGNED_CONTEXT ( ( #677, #241, #680 ) ) REPRESENTATION_CONTEXT ( 'NONE', 'WORKASPACE' ) );
#531 = FACE_BOUND ( 'NONE', #442, .T. ) ;
#532 = CARTESIAN_POINT ( 'NONE',  ( 1.999999999999994893, 12.00000000000000000, 10.00000000000000000 ) ) ;
#533 = ORIENTED_EDGE ( 'NONE', *, *, #24, .F. ) ;
#534 = CARTESIAN_POINT ( 'NONE',  ( 11.09999999999999787, 15.00000000000000533, 0.000000000000000000 ) ) ;
#535 = CARTESIAN_POINT ( 'NONE',  ( 64.00000000000000000, 15.00000000000000355, 10.00000000000000000 ) ) ;
#536 = ORIENTED_EDGE ( 'NONE', *, *, #1, .T. ) ;
#537 = EDGE_CURVE ( 'NONE', #458, #509, #477, .T. ) ;
#538 = EDGE_CURVE ( 'NONE', #326, #391, #256, .T. ) ;
#539 = CARTESIAN_POINT ( 'NONE',  ( 0.000000000000000000, 12.00000000000000000, -8.000000000000005329 ) ) ;
#540 = DIRECTION ( 'NONE',  ( 0.000000000000000000, 0.000000000000000000, 1.000000000000000000 ) ) ;
#541 = DIRECTION ( 'NONE',  ( 1.000000000000000000, 1.192622389734054631E-16, -0.000000000000000000 ) ) ;
#542 = ORIENTED_EDGE ( 'NONE', *, *, #55, .F. ) ;
#543 = LINE ( 'NONE', #283, #621 ) ;
#544 = CARTESIAN_POINT ( 'NONE',  ( 37.90000000000001279, 15.00000000000000888, 2.571758278209438506E-16 ) ) ;
#545 = DIRECTION ( 'NONE',  ( 1.097127629939990044E-16, -1.000000000000000000, 0.000000000000000000 ) ) ;
#546 = ORIENTED_EDGE ( 'NONE', *, *, #686, .F. ) ;
#547 = EDGE_CURVE ( 'NONE', #643, #670, #205, .T. ) ;
#548 = UNCERTAINTY_MEASURE_WITH_UNIT (LENGTH_MEASURE( 1.000000000000000082E-05 ), #156, 'distance_accuracy_value', 'NONE');
#549 = DIRECTION ( 'NONE',  ( 1.000000000000000000, 0.000000000000000000, 0.000000000000000000 ) ) ;
#550 = CARTESIAN_POINT ( 'NONE',  ( 70.00000000000000000, 2.000000000000001776, 7.999999999999991118 ) ) ;
#551 = VERTEX_POINT ( 'NONE', #441 ) ;
#552 = EDGE_CURVE ( 'NONE', #501, #388, #526, .T. ) ;
#553 = DIRECTION ( 'NONE',  ( 4.082155997157844435E-17, 1.000000000000000000, 0.000000000000000000 ) ) ;
#554 = CARTESIAN_POINT ( 'NONE',  ( 64.00000000000000000, 12.00000000000000000, 10.00000000000000000 ) ) ;
#555 = EDGE_LOOP ( 'NONE', ( #399, #271, #504, #415, #818, #143 ) ) ;
#556 = VECTOR ( 'NONE', #766, 1000.000000000000000 ) ;
#557 = AXIS2_PLACEMENT_3D ( 'NONE', #430, #116, #311 ) ;
#558 = LINE ( 'NONE', #67, #385 ) ;
#559 = AXIS2_PLACEMENT_3D ( 'NONE', #168, #50, #414 ) ;
#560 = ORIENTED_EDGE ( 'NONE', *, *, #341, .T. ) ;
#561 = CARTESIAN_POINT ( 'NONE',  ( 40.00000000000000711, 15.00000000000000888, 0.000000000000000000 ) ) ;
#562 = DIRECTION ( 'NONE',  ( 0.000000000000000000, -0.000000000000000000, -1.000000000000000000 ) ) ;
#563 = ORIENTED_EDGE ( 'NONE', *, *, #102, .T. ) ;
#564 = EDGE_CURVE ( 'NONE', #388, #501, #149, .T. ) ;
#565 = LINE ( 'NONE', #491, #60 ) ;
#566 = CARTESIAN_POINT ( 'NONE',  ( 37.90000000000001279, 12.00000000000000000, 2.571758278209438013E-16 ) ) ;
#567 = EDGE_LOOP ( 'NONE', ( #633, #437, #494, #644 ) ) ;
#568 = VECTOR ( 'NONE', #393, 1000.000000000000000 ) ;
#569 = CARTESIAN_POINT ( 'NONE',  ( 8.000000000000000000, 1.999999999999994449, 0.000000000000000000 ) ) ;
#570 = DIRECTION ( 'NONE',  ( 1.000000000000000000, 2.065146995210486667E-16, 0.000000000000000000 ) ) ;
#571 = ORIENTED_EDGE ( 'NONE', *, *, #370, .T. ) ;
#572 = FACE_OUTER_BOUND ( 'NONE', #59, .T. ) ;
#573 = VERTEX_POINT ( 'NONE', #492 ) ;
#574 = ORIENTED_EDGE ( 'NONE', *, *, #657, .T. ) ;
#575 = EDGE_CURVE ( 'NONE', #603, #815, #291, .T. ) ;
#576 = DIRECTION ( 'NONE',  ( 1.097127629939990044E-16, -1.000000000000000000, 0.000000000000000000 ) ) ;
#577 = CARTESIAN_POINT ( 'NONE',  ( -2.449293598294706907E-16, 6.000000000000000000, -8.000000000000005329 ) ) ;
#578 = VERTEX_POINT ( 'NONE', #2 ) ;
#579 = VECTOR ( 'NONE', #58, 999.9999999999998863 ) ;
#580 = DIRECTION ( 'NONE',  ( -0.000000000000000000, 0.000000000000000000, 1.000000000000000000 ) ) ;
#581 = LINE ( 'NONE', #18, #169 ) ;
#582 = VECTOR ( 'NONE', #196, 1000.000000000000000 ) ;
#583 = ADVANCED_FACE ( 'NONE', ( #760, #120 ), #744, .T. ) ;
#584 = AXIS2_PLACEMENT_3D ( 'NONE', #45, #678, #751 ) ;
#585 = EDGE_CURVE ( 'NONE', #594, #551, #624, .T. ) ;
#586 = LINE ( 'NONE', #141, #568 ) ;
#587 = FACE_BOUND ( 'NONE', #33, .T. ) ;
#588 = CARTESIAN_POINT ( 'NONE',  ( 70.00000000000000000, 2.000000000000001776, -8.000000000000005329 ) ) ;
#589 = CARTESIAN_POINT ( 'NONE',  ( 0.000000000000000000, 12.00000000000000000, 10.00000000000000000 ) ) ;
#590 = ORIENTED_EDGE ( 'NONE', *, *, #380, .F. ) ;
#591 = APPLICATION_CONTEXT ( 'automotive_design' ) ;
#592 = FACE_OUTER_BOUND ( 'NONE', #727, .T. ) ;
#593 = DIRECTION ( 'NONE',  ( 0.000000000000000000, -0.000000000000000000, -1.000000000000000000 ) ) ;
#594 = VERTEX_POINT ( 'NONE', #684 ) ;
#595 = CIRCLE ( 'NONE', #346, 1.000000000000000000 ) ;
#596 = DIRECTION ( 'NONE',  ( 0.000000000000000000, 0.000000000000000000, -1.000000000000000000 ) ) ;
#597 = EDGE_CURVE ( 'NONE', #815, #603, #123, .T. ) ;
#598 = CARTESIAN_POINT ( 'NONE',  ( 4.899999999999997691, 12.00000000000000000, 3.796405077356796397E-16 ) ) ;
#599 = ORIENTED_EDGE ( 'NONE', *, *, #647, .T. ) ;
#600 = EDGE_CURVE ( 'NONE', #578, #185, #252, .T. ) ;
#601 = FACE_BOUND ( 'NONE', #715, .T. ) ;
#602 = PLANE ( 'NONE',  #269 ) ;
#603 = VERTEX_POINT ( 'NONE', #242 ) ;
#604 = FACE_OUTER_BOUND ( 'NONE', #761, .T. ) ;
#605 = AXIS2_PLACEMENT_3D ( 'NONE', #21, #576, #570 ) ;
#606 = DIRECTION ( 'NONE',  ( -0.7071067811865489050, -0.000000000000000000, 0.7071067811865462405 ) ) ;
#607 = ORIENTED_EDGE ( 'NONE', *, *, #564, .F. ) ;
#608 =( GEOMETRIC_REPRESENTATION_CONTEXT ( 3 ) GLOBAL_UNCERTAINTY_ASSIGNED_CONTEXT ( ( #470 ) ) GLOBAL_UNIT_ASSIGNED_CONTEXT ( ( #728, #95, #794 ) ) REPRESENTATION_CONTEXT ( 'NONE', 'WORKASPACE' ) );
#609 = EDGE_CURVE ( 'NONE', #390, #384, #485, .T. ) ;
#610 = VECTOR ( 'NONE', #90, 1000.000000000000000 ) ;
#611 = EDGE_CURVE ( 'NONE', #765, #449, #620, .T. ) ;
#612 = DIRECTION ( 'NONE',  ( 4.082155997157844435E-17, 1.000000000000000000, 0.000000000000000000 ) ) ;
#613 = DIRECTION ( 'NONE',  ( -0.000000000000000000, -0.000000000000000000, -1.000000000000000000 ) ) ;
#614 = ORIENTED_EDGE ( 'NONE', *, *, #435, .F. ) ;
#615 = DIRECTION ( 'NONE',  ( 0.000000000000000000, 1.000000000000000000, 0.000000000000000000 ) ) ;
#616 = VERTEX_POINT ( 'NONE', #423 ) ;
#617 = CYLINDRICAL_SURFACE ( 'NONE', #411, 2.099999999999997868 ) ;
#618 = DIRECTION ( 'NONE',  ( 0.000000000000000000, -1.000000000000000000, 0.000000000000000000 ) ) ;
#619 = ORIENTED_EDGE ( 'NONE', *, *, #524, .F. ) ;
#620 = CIRCLE ( 'NONE', #371, 3.100000000000000533 ) ;
#621 = VECTOR ( 'NONE', #165, 1000.000000000000000 ) ;
#622 = LINE ( 'NONE', #816, #582 ) ;
#623 = CIRCLE ( 'NONE', #204, 1.000000000000000000 ) ;
#624 = LINE ( 'NONE', #64, #57 ) ;
#625 = VECTOR ( 'NONE', #726, 1000.000000000000000 ) ;
#626 = ADVANCED_FACE ( 'NONE', ( #193 ), #302, .F. ) ;
#627 = ORIENTED_EDGE ( 'NONE', *, *, #318, .T. ) ;
#628 = EDGE_CURVE ( 'NONE', #155, #518, #187, .T. ) ;
#629 = DIRECTION ( 'NONE',  ( -0.000000000000000000, -0.000000000000000000, -1.000000000000000000 ) ) ;
#630 = EDGE_LOOP ( 'NONE', ( #297, #145, #542, #307 ) ) ;
#631 = CARTESIAN_POINT ( 'NONE',  ( 64.00000000000000000, 12.00000000000000000, -10.00000000000000000 ) ) ;
#632 = DIRECTION ( 'NONE',  ( 0.000000000000000000, -1.000000000000000000, 0.000000000000000000 ) ) ;
#633 = ORIENTED_EDGE ( 'NONE', *, *, #225, .F. ) ;
#634 = VECTOR ( 'NONE', #615, 1000.000000000000000 ) ;
#635 = AXIS2_PLACEMENT_3D ( 'NONE', #692, #373, #814 ) ;
#636 = EDGE_CURVE ( 'NONE', #721, #326, #496, .T. ) ;
#637 = CARTESIAN_POINT ( 'NONE',  ( 62.10000000000000853, 12.00000000000000000, 0.000000000000000000 ) ) ;
#638 = ADVANCED_FACE ( 'NONE', ( #245 ), #748, .T. ) ;
#639 = DIRECTION ( 'NONE',  ( 0.000000000000000000, 0.000000000000000000, 1.000000000000000000 ) ) ;
#640 = FACE_OUTER_BOUND ( 'NONE', #667, .T. ) ;
#641 = AXIS2_PLACEMENT_3D ( 'NONE', #214, #707, #461 ) ;
#642 = CARTESIAN_POINT ( 'NONE',  ( 42.10000000000000853, 12.00000000000000000, 0.000000000000000000 ) ) ;
#643 = VERTEX_POINT ( 'NONE', #566 ) ;
#644 = ORIENTED_EDGE ( 'NONE', *, *, #575, .F. ) ;
#645 = LINE ( 'NONE', #262, #712 ) ;
#646 = DIRECTION ( 'NONE',  ( 0.000000000000000000, -1.000000000000000000, 0.000000000000000000 ) ) ;
#647 = EDGE_CURVE ( 'NONE', #573, #551, #558, .T. ) ;
#648 = DIRECTION ( 'NONE',  ( 1.000000000000000000, 1.398970545142586048E-16, 0.000000000000000000 ) ) ;
#649 = ORIENTED_EDGE ( 'NONE', *, *, #321, .F. ) ;
#650 = EDGE_LOOP ( 'NONE', ( #527, #497 ) ) ;
#651 = EDGE_CURVE ( 'NONE', #384, #578, #389, .T. ) ;
#652 = LINE ( 'NONE', #332, #610 ) ;
#653 = ORIENTED_EDGE ( 'NONE', *, *, #318, .F. ) ;
#654 = CARTESIAN_POINT ( 'NONE',  ( 68.00000000000001421, 2.000000000000001332, 10.00000000000000000 ) ) ;
#655 = CARTESIAN_POINT ( 'NONE',  ( 8.000000000000000000, 5.000000000000000000, 0.000000000000000000 ) ) ;
#656 = ORIENTED_EDGE ( 'NONE', *, *, #705, .F. ) ;
#657 = EDGE_CURVE ( 'NONE', #429, #317, #259, .T. ) ;
#658 = CARTESIAN_POINT ( 'NONE',  ( 8.000000000000000000, 5.000000000000000000, -6.000000000000000000 ) ) ;
#659 = EDGE_CURVE ( 'NONE', #509, #458, #756, .T. ) ;
#660 = DIRECTION ( 'NONE',  ( -4.082155997157844435E-17, -1.000000000000000000, 0.000000000000000000 ) ) ;
#661 = ORIENTED_EDGE ( 'NONE', *, *, #102, .F. ) ;
#662 = AXIS2_PLACEMENT_3D ( 'NONE', #31, #464, #549 ) ;
#663 = AXIS2_PLACEMENT_3D ( 'NONE', #674, #361, #593 ) ;
#664 = CARTESIAN_POINT ( 'NONE',  ( 68.00000000000001421, 15.00000000000000355, 10.00000000000000000 ) ) ;
#665 = CARTESIAN_POINT ( 'NONE',  ( 8.000000000000000000, 2.000000000000000000, 0.000000000000000000 ) ) ;
#666 = CARTESIAN_POINT ( 'NONE',  ( 1.999999999999994449, 6.000000000000000000, 10.00000000000000000 ) ) ;
#667 = EDGE_LOOP ( 'NONE', ( #85, #469, #571, #46, #286, #188 ) ) ;
#668 = FACE_OUTER_BOUND ( 'NONE', #330, .T. ) ;
#669 = LINE ( 'NONE', #483, #625 ) ;
#670 = VERTEX_POINT ( 'NONE', #642 ) ;
#671 = ADVANCED_FACE ( 'NONE', ( #697 ), #4, .F. ) ;
#672 = DIRECTION ( 'NONE',  ( 0.000000000000000000, -1.000000000000000000, 0.000000000000000000 ) ) ;
#673 = AXIS2_PLACEMENT_3D ( 'NONE', #383, #632, #562 ) ;
#674 = CARTESIAN_POINT ( 'NONE',  ( 70.00000000000000000, 15.00000000000000355, 10.00000000000000000 ) ) ;
#675 = ORIENTED_EDGE ( 'NONE', *, *, #380, .T. ) ;
#676 = STYLED_ITEM ( 'NONE', ( #364 ), #333 ) ;
#677 =( LENGTH_UNIT ( ) NAMED_UNIT ( * ) SI_UNIT ( .MILLI., .METRE. ) );
#678 = DIRECTION ( 'NONE',  ( 1.097127629939990044E-16, -1.000000000000000000, 0.000000000000000000 ) ) ;
#679 = ORIENTED_EDGE ( 'NONE', *, *, #310, .T. ) ;
#680 =( NAMED_UNIT ( * ) SI_UNIT ( $, .STERADIAN. ) SOLID_ANGLE_UNIT ( ) );
#681 = DIRECTION ( 'NONE',  ( -1.000000000000000000, -0.000000000000000000, -0.000000000000000000 ) ) ;
#682 = ORIENTED_EDGE ( 'NONE', *, *, #647, .F. ) ;
#683 = SURFACE_SIDE_STYLE ('',( #422 ) ) ;
#684 = CARTESIAN_POINT ( 'NONE',  ( 30.00000000000000000, 1.999999999999997113, 10.00000000000000000 ) ) ;
#685 = ORIENTED_EDGE ( 'NONE', *, *, #722, .T. ) ;
#686 = EDGE_CURVE ( 'NONE', #277, #457, #162, .T. ) ;
#687 = MECHANICAL_DESIGN_GEOMETRIC_PRESENTATION_REPRESENTATION (  '', ( #676 ), #530 ) ;
#688 = DIRECTION ( 'NONE',  ( -1.000000000000000000, 0.000000000000000000, 0.000000000000000000 ) ) ;
#689 = AXIS2_PLACEMENT_3D ( 'NONE', #219, #741, #792 ) ;
#690 = ORIENTED_EDGE ( 'NONE', *, *, #659, .F. ) ;
#691 = FILL_AREA_STYLE ('',( #319 ) ) ;
#692 = CARTESIAN_POINT ( 'NONE',  ( 8.000000000000000000, 5.000000000000000000, 0.000000000000000000 ) ) ;
#693 = EDGE_LOOP ( 'NONE', ( #104, #563, #685, #768, #454, #250, #11, #107 ) ) ;
#694 = EDGE_CURVE ( 'NONE', #721, #518, #264, .T. ) ;
#695 = EDGE_CURVE ( 'NONE', #424, #789, #183, .T. ) ;
#696 = DIRECTION ( 'NONE',  ( 0.000000000000000000, 1.000000000000000000, 0.000000000000000000 ) ) ;
#697 = FACE_OUTER_BOUND ( 'NONE', #567, .T. ) ;
#698 = ORIENTED_EDGE ( 'NONE', *, *, #762, .T. ) ;
#699 = AXIS2_PLACEMENT_3D ( 'NONE', #378, #312, #299 ) ;
#700 = DIRECTION ( 'NONE',  ( -1.000000000000000000, 0.000000000000000000, 0.000000000000000000 ) ) ;
#701 = ORIENTED_EDGE ( 'NONE', *, *, #552, .F. ) ;
#702 = AXIS2_PLACEMENT_3D ( 'NONE', #440, #128, #502 ) ;
#703 = AXIS2_PLACEMENT_3D ( 'NONE', #227, #472, #540 ) ;
#704 = ORIENTED_EDGE ( 'NONE', *, *, #735, .T. ) ;
#705 = EDGE_CURVE ( 'NONE', #449, #765, #743, .T. ) ;
#706 = CARTESIAN_POINT ( 'NONE',  ( 7.999999999999998224, 12.00000000000000000, 0.000000000000000000 ) ) ;
#707 = DIRECTION ( 'NONE',  ( -1.192622389734054631E-16, 1.000000000000000000, 0.000000000000000000 ) ) ;
#708 = EDGE_LOOP ( 'NONE', ( #351, #690 ) ) ;
#709 = CARTESIAN_POINT ( 'NONE',  ( 11.09999999999999787, 12.00000000000000000, 0.000000000000000000 ) ) ;
#710 = ORIENTED_EDGE ( 'NONE', *, *, #426, .F. ) ;
#711 = ADVANCED_FACE ( 'NONE', ( #447 ), #81, .F. ) ;
#712 = VECTOR ( 'NONE', #17, 1000.000000000000000 ) ;
#713 = AXIS2_PLACEMENT_3D ( 'NONE', #30, #278, #35 ) ;
#714 = CARTESIAN_POINT ( 'NONE',  ( 68.00000000000001421, 15.00000000000000355, 10.00000000000000000 ) ) ;
#715 = EDGE_LOOP ( 'NONE', ( #75, #93 ) ) ;
#716 = ORIENTED_EDGE ( 'NONE', *, *, #1, .F. ) ;
#717 = AXIS2_PLACEMENT_3D ( 'NONE', #177, #360, #612 ) ;
#718 =( NAMED_UNIT ( * ) PLANE_ANGLE_UNIT ( ) SI_UNIT ( $, .RADIAN. ) );
#719 = CYLINDRICAL_SURFACE ( 'NONE', #798, 5.000000000000000000 ) ;
#720 = FACE_OUTER_BOUND ( 'NONE', #358, .T. ) ;
#721 = VERTEX_POINT ( 'NONE', #325 ) ;
#722 = EDGE_CURVE ( 'NONE', #797, #142, #144, .T. ) ;
#723 = ADVANCED_FACE ( 'NONE', ( #572 ), #210, .T. ) ;
#724 = LINE ( 'NONE', #588, #808 ) ;
#725 = LINE ( 'NONE', #288, #362 ) ;
#726 = DIRECTION ( 'NONE',  ( 1.097127629939990044E-16, -1.000000000000000000, -0.000000000000000000 ) ) ;
#727 = EDGE_LOOP ( 'NONE', ( #340, #71, #345, #161, #146, #212 ) ) ;
#728 =( LENGTH_UNIT ( ) NAMED_UNIT ( * ) SI_UNIT ( .MILLI., .METRE. ) );
#729 = AXIS2_PLACEMENT_3D ( 'NONE', #397, #580, #777 ) ;
#730 = DIRECTION ( 'NONE',  ( 0.000000000000000000, -0.000000000000000000, -1.000000000000000000 ) ) ;
#731 = CARTESIAN_POINT ( 'NONE',  ( 11.09999999999999964, 1.999999999999994893, 0.000000000000000000 ) ) ;
#732 = ORIENTED_EDGE ( 'NONE', *, *, #597, .F. ) ;
#733 = AXIS2_PLACEMENT_3D ( 'NONE', #122, #820, #372 ) ;
#734 = AXIS2_PLACEMENT_3D ( 'NONE', #97, #103, #783 ) ;
#735 = EDGE_CURVE ( 'NONE', #388, #282, #645, .T. ) ;
#736 = PLANE ( 'NONE',  #195 ) ;
#737 = LINE ( 'NONE', #285, #772 ) ;
#738 = ORIENTED_EDGE ( 'NONE', *, *, #489, .T. ) ;
#739 = APPLICATION_PROTOCOL_DEFINITION ( 'draft international standard', 'automotive_design', 1998, #47 ) ;
#740 = DIRECTION ( 'NONE',  ( 0.000000000000000000, 1.000000000000000000, 0.000000000000000000 ) ) ;
#741 = DIRECTION ( 'NONE',  ( 0.7071067811865462405, -2.886520187451639356E-17, 0.7071067811865489050 ) ) ;
#742 = EDGE_LOOP ( 'NONE', ( #525, #111, #257, #793 ) ) ;
#743 = CIRCLE ( 'NONE', #29, 3.100000000000000533 ) ;
#744 = PLANE ( 'NONE',  #673 ) ;
#745 = ORIENTED_EDGE ( 'NONE', *, *, #759, .F. ) ;
#746 = VECTOR ( 'NONE', #352, 1000.000000000000000 ) ;
#747 = CARTESIAN_POINT ( 'NONE',  ( 70.00000000000000000, 15.00000000000000355, -8.000000000000005329 ) ) ;
#748 = PLANE ( 'NONE',  #515 ) ;
#749 = ORIENTED_EDGE ( 'NONE', *, *, #575, .T. ) ;
#750 = EDGE_CURVE ( 'NONE', #449, #277, #586, .T. ) ;
#751 = DIRECTION ( 'NONE',  ( 1.000000000000000000, 2.065146995210486667E-16, 0.000000000000000000 ) ) ;
#752 = ORIENTED_EDGE ( 'NONE', *, *, #201, .T. ) ;
#753 = DIRECTION ( 'NONE',  ( 1.000000000000000000, 0.000000000000000000, 0.000000000000000000 ) ) ;
#754 = DIRECTION ( 'NONE',  ( 0.000000000000000000, -1.000000000000000000, 0.000000000000000000 ) ) ;
#755 = ORIENTED_EDGE ( 'NONE', *, *, #695, .F. ) ;
#756 = CIRCLE ( 'NONE', #605, 2.099999999999997868 ) ;
#757 = PRESENTATION_LAYER_ASSIGNMENT (  '', '', ( #433 ) ) ;
#758 = FACE_OUTER_BOUND ( 'NONE', #742, .T. ) ;
#759 = EDGE_CURVE ( 'NONE', #797, #390, #84, .T. ) ;
#760 = FACE_BOUND ( 'NONE', #374, .T. ) ;
#761 = EDGE_LOOP ( 'NONE', ( #701, #784, #290, #486 ) ) ;
#762 = EDGE_CURVE ( 'NONE', #429, #778, #202, .T. ) ;
#763 = CARTESIAN_POINT ( 'NONE',  ( 70.00000000000000000, 2.000000000000001776, 7.999999999999991118 ) ) ;
#764 = CARTESIAN_POINT ( 'NONE',  ( 30.00000000000000000, 6.000000000000000000, 10.00000000000000000 ) ) ;
#765 = VERTEX_POINT ( 'NONE', #709 ) ;
#766 = DIRECTION ( 'NONE',  ( -1.000000000000000000, 0.000000000000000000, 0.000000000000000000 ) ) ;
#767 = DIRECTION ( 'NONE',  ( -0.000000000000000000, -0.000000000000000000, -1.000000000000000000 ) ) ;
#768 = ORIENTED_EDGE ( 'NONE', *, *, #321, .T. ) ;
#769 = DIRECTION ( 'NONE',  ( -0.000000000000000000, 1.000000000000000000, -0.000000000000000000 ) ) ;
#770 = DIRECTION ( 'NONE',  ( -0.7071067811865462405, 0.000000000000000000, -0.7071067811865489050 ) ) ;
#771 = VECTOR ( 'NONE', #553, 1000.000000000000000 ) ;
#772 = VECTOR ( 'NONE', #613, 1000.000000000000000 ) ;
#773 = ADVANCED_FACE ( 'NONE', ( #273 ), #147, .T. ) ;
#774 = EDGE_CURVE ( 'NONE', #355, #65, #336, .T. ) ;
#775 = CARTESIAN_POINT ( 'NONE',  ( 0.000000000000000000, 12.00000000000000000, 10.00000000000000000 ) ) ;
#776 = DIRECTION ( 'NONE',  ( -0.7071067811865489050, -0.000000000000000000, -0.7071067811865462405 ) ) ;
#777 = DIRECTION ( 'NONE',  ( 1.000000000000000000, 0.000000000000000000, 0.000000000000000000 ) ) ;
#778 = VERTEX_POINT ( 'NONE', #70 ) ;
#779 = ORIENTED_EDGE ( 'NONE', *, *, #261, .T. ) ;
#780 = FILL_AREA_STYLE ('',( #236 ) ) ;
#781 = DIRECTION ( 'NONE',  ( 0.000000000000000000, -0.000000000000000000, 1.000000000000000000 ) ) ;
#782 = EDGE_CURVE ( 'NONE', #79, #155, #7, .T. ) ;
#783 = DIRECTION ( 'NONE',  ( 1.000000000000000000, 0.000000000000000000, 0.000000000000000000 ) ) ;
#784 = ORIENTED_EDGE ( 'NONE', *, *, #478, .T. ) ;
#785 = VECTOR ( 'NONE', #339, 1000.000000000000000 ) ;
#786 = EDGE_CURVE ( 'NONE', #390, #185, #543, .T. ) ;
#787 = CARTESIAN_POINT ( 'NONE',  ( 64.00000000000000000, 15.00000000000000355, 10.00000000000000000 ) ) ;
#788 = CARTESIAN_POINT ( 'NONE',  ( -1.224646799147357891E-16, 12.00000000000000000, -8.000000000000005329 ) ) ;
#789 = VERTEX_POINT ( 'NONE', #89 ) ;
#790 =( NAMED_UNIT ( * ) SI_UNIT ( $, .STERADIAN. ) SOLID_ANGLE_UNIT ( ) );
#791 = DIRECTION ( 'NONE',  ( 1.097127629939990044E-16, -1.000000000000000000, -0.000000000000000000 ) ) ;
#792 = DIRECTION ( 'NONE',  ( -4.082155997157844435E-17, -1.000000000000000000, 0.000000000000000000 ) ) ;
#793 = ORIENTED_EDGE ( 'NONE', *, *, #537, .T. ) ;
#794 =( NAMED_UNIT ( * ) SI_UNIT ( $, .STERADIAN. ) SOLID_ANGLE_UNIT ( ) );
#795 = DIRECTION ( 'NONE',  ( -0.000000000000000000, 1.000000000000000000, -0.000000000000000000 ) ) ;
#796 = CARTESIAN_POINT ( 'NONE',  ( 42.10000000000000853, 1.999999999999998224, 0.000000000000000000 ) ) ;
#797 = VERTEX_POINT ( 'NONE', #664 ) ;
#798 = AXIS2_PLACEMENT_3D ( 'NONE', #665, #795, #405 ) ;
#799 = VECTOR ( 'NONE', #465, 1000.000000000000000 ) ;
#800 = PRODUCT_CONTEXT ( 'NONE', #591, 'mechanical' ) ;
#801 = DIRECTION ( 'NONE',  ( 0.000000000000000000, -1.000000000000000000, 0.000000000000000000 ) ) ;
#802 = CARTESIAN_POINT ( 'NONE',  ( 68.00000000000000000, 15.00000000000000355, -10.00000000000000000 ) ) ;
#803 = VERTEX_POINT ( 'NONE', #287 ) ;
#804 = SURFACE_STYLE_USAGE ( .BOTH. , #683 ) ;
#805 = CARTESIAN_POINT ( 'NONE',  ( 7.999999999999998224, 12.00000000000000000, 0.000000000000000000 ) ) ;
#806 = ORIENTED_EDGE ( 'NONE', *, *, #657, .F. ) ;
#807 = CARTESIAN_POINT ( 'NONE',  ( 8.000000000000000000, 2.000000000000000000, 5.000000000000000000 ) ) ;
#808 = VECTOR ( 'NONE', #221, 999.9999999999998863 ) ;
#809 = CARTESIAN_POINT ( 'NONE',  ( 70.00000000000000000, 15.00000000000000355, -8.000000000000005329 ) ) ;
#810 = EDGE_CURVE ( 'NONE', #778, #578, #724, .T. ) ;
#811 = VERTEX_POINT ( 'NONE', #539 ) ;
#812 = AXIS2_PLACEMENT_3D ( 'NONE', #160, #545, #418 ) ;
#813 = DIRECTION ( 'NONE',  ( -0.000000000000000000, 1.000000000000000000, -0.000000000000000000 ) ) ;
#814 = DIRECTION ( 'NONE',  ( 0.000000000000000000, 0.000000000000000000, 1.000000000000000000 ) ) ;
#815 = VERTEX_POINT ( 'NONE', #25 ) ;
#816 = CARTESIAN_POINT ( 'NONE',  ( -2.449293598294706907E-16, 6.000000000000000000, -10.00000000000000000 ) ) ;
#817 = DIRECTION ( 'NONE',  ( 0.000000000000000000, 0.000000000000000000, -1.000000000000000000 ) ) ;
#818 = ORIENTED_EDGE ( 'NONE', *, *, #181, .F. ) ;
#819 = ADVANCED_FACE ( 'NONE', ( #471 ), #412, .F. ) ;
#820 = DIRECTION ( 'NONE',  ( 1.097127629939990044E-16, -1.000000000000000000, 0.000000000000000000 ) ) ;
ENDSEC;
END-ISO-10303-21;
