ISO-10303-21;
HEADER;
FILE_DESCRIPTION (( 'STEP AP214' ),
    '1' );
FILE_NAME ('传送带轴固定调节座.step',
    '2023-08-15T02:58:56',
    ( '' ),
    ( '' ),
    'SwSTEP 2.0',
    'SolidWorks 2022',
    '' );
FILE_SCHEMA (( 'AUTOMOTIVE_DESIGN' ));
ENDSEC;

DATA;
#1 = DIRECTION ( 'NONE',  ( 0.000000000000000000, 0.000000000000000000, -1.000000000000000000 ) ) ;
#2 = CARTESIAN_POINT ( 'NONE',  ( 0.000000000000000000, 0.000000000000000000, 0.000000000000000000 ) ) ;
#3 = CARTESIAN_POINT ( 'NONE',  ( 0.000000000000000000, 10.00000000000000000, -10.00000000000000000 ) ) ;
#4 = DIRECTION ( 'NONE',  ( 0.7071067811865462405, -2.886520187451638123E-17, 0.7071067811865489050 ) ) ;
#5 = EDGE_LOOP ( 'NONE', ( #449, #540 ) ) ;
#6 = CYLINDRICAL_SURFACE ( 'NONE', #379, 2.099999999999997868 ) ;
#7 = TOROIDAL_SURFACE ( 'NONE', #182, 6.000000000000000000, 1.000000000000000000 ) ;
#8 = VERTEX_POINT ( 'NONE', #204 ) ;
#9 = CARTESIAN_POINT ( 'NONE',  ( 70.00000000000000000, 10.00000000000000178, -8.000000000000005329 ) ) ;
#10 =( GEOMETRIC_REPRESENTATION_CONTEXT ( 3 ) GLOBAL_UNCERTAINTY_ASSIGNED_CONTEXT ( ( #341 ) ) GLOBAL_UNIT_ASSIGNED_CONTEXT ( ( #117, #183, #48 ) ) REPRESENTATION_CONTEXT ( 'NONE', 'WORKASPACE' ) );
#11 = ORIENTED_EDGE ( 'NONE', *, *, #265, .F. ) ;
#12 = DIRECTION ( 'NONE',  ( 1.097127629939990044E-16, -1.000000000000000000, 0.000000000000000000 ) ) ;
#13 = PRODUCT_RELATED_PRODUCT_CATEGORY ( 'part', '', ( #614 ) ) ;
#14 = ORIENTED_EDGE ( 'NONE', *, *, #472, .T. ) ;
#15 = DIRECTION ( 'NONE',  ( 0.000000000000000000, 1.000000000000000000, 0.000000000000000000 ) ) ;
#16 = ORIENTED_EDGE ( 'NONE', *, *, #591, .T. ) ;
#17 = EDGE_CURVE ( 'NONE', #74, #136, #212, .T. ) ;
#18 = CARTESIAN_POINT ( 'NONE',  ( 1.999999999999994449, 4.000000000000000000, 10.00000000000000000 ) ) ;
#19 = ORIENTED_EDGE ( 'NONE', *, *, #564, .F. ) ;
#20 = FACE_OUTER_BOUND ( 'NONE', #446, .T. ) ;
#21 = ORIENTED_EDGE ( 'NONE', *, *, #785, .T. ) ;
#22 = DIRECTION ( 'NONE',  ( 1.000000000000000000, 0.000000000000000000, -0.000000000000000000 ) ) ;
#23 = ORIENTED_EDGE ( 'NONE', *, *, #756, .F. ) ;
#24 = LINE ( 'NONE', #784, #237 ) ;
#25 = CIRCLE ( 'NONE', #648, 2.099999999999997868 ) ;
#26 = EDGE_CURVE ( 'NONE', #674, #702, #382, .T. ) ;
#27 = EDGE_LOOP ( 'NONE', ( #464, #543, #11, #757 ) ) ;
#28 = DIRECTION ( 'NONE',  ( -0.000000000000000000, -1.000000000000000000, -0.000000000000000000 ) ) ;
#29 = EDGE_CURVE ( 'NONE', #337, #489, #193, .T. ) ;
#30 = CARTESIAN_POINT ( 'NONE',  ( 57.90000000000001279, 10.00000000000000000, 2.571758278209438013E-16 ) ) ;
#31 = VERTEX_POINT ( 'NONE', #755 ) ;
#32 = LINE ( 'NONE', #287, #124 ) ;
#33 = FACE_OUTER_BOUND ( 'NONE', #571, .T. ) ;
#34 = EDGE_LOOP ( 'NONE', ( #23, #659, #286, #706 ) ) ;
#35 = CARTESIAN_POINT ( 'NONE',  ( 37.90000000000001279, 15.00000000000000888, 2.571758278209438506E-16 ) ) ;
#36 = CARTESIAN_POINT ( 'NONE',  ( 64.00000000000000000, 15.00000000000000355, -10.00000000000000000 ) ) ;
#37 = VECTOR ( 'NONE', #541, 1000.000000000000000 ) ;
#38 = VERTEX_POINT ( 'NONE', #632 ) ;
#39 = CIRCLE ( 'NONE', #434, 3.100000000000000533 ) ;
#40 = EDGE_CURVE ( 'NONE', #730, #213, #330, .T. ) ;
#41 = VECTOR ( 'NONE', #469, 1000.000000000000000 ) ;
#42 = CARTESIAN_POINT ( 'NONE',  ( 1.999999999999994449, 10.00000000000000000, 10.00000000000000000 ) ) ;
#43 = CLOSED_SHELL ( 'NONE', ( #587, #380, #595, #309, #689, #360, #77, #521, #484, #147, #270, #807, #817, #349, #665, #374, #203, #553, #697, #307, #51, #210, #691, #753, #318 ) ) ;
#44 = FACE_OUTER_BOUND ( 'NONE', #231, .T. ) ;
#45 = VERTEX_POINT ( 'NONE', #392 ) ;
#46 = FACE_OUTER_BOUND ( 'NONE', #722, .T. ) ;
#47 = DIRECTION ( 'NONE',  ( 0.000000000000000000, 1.000000000000000000, 0.000000000000000000 ) ) ;
#48 =( NAMED_UNIT ( * ) SI_UNIT ( $, .STERADIAN. ) SOLID_ANGLE_UNIT ( ) );
#49 = AXIS2_PLACEMENT_3D ( 'NONE', #695, #325, #126 ) ;
#50 = CARTESIAN_POINT ( 'NONE',  ( 7.999999999999998224, 15.00000000000000533, 0.000000000000000000 ) ) ;
#51 = ADVANCED_FACE ( 'NONE', ( #578 ), #262, .T. ) ;
#52 = AXIS2_PLACEMENT_3D ( 'NONE', #417, #295, #535 ) ;
#53 = DIRECTION ( 'NONE',  ( 1.097127629939990044E-16, -1.000000000000000000, -0.000000000000000000 ) ) ;
#54 = CARTESIAN_POINT ( 'NONE',  ( 1.999999999999994893, 10.00000000000000000, 10.00000000000000000 ) ) ;
#55 = EDGE_CURVE ( 'NONE', #320, #123, #704, .T. ) ;
#56 = DIRECTION ( 'NONE',  ( 0.000000000000000000, -1.000000000000000000, 0.000000000000000000 ) ) ;
#57 = EDGE_CURVE ( 'NONE', #99, #640, #411, .T. ) ;
#58 = PLANE ( 'NONE',  #167 ) ;
#59 = AXIS2_PLACEMENT_3D ( 'NONE', #438, #373, #611 ) ;
#60 = ORIENTED_EDGE ( 'NONE', *, *, #225, .F. ) ;
#61 = FACE_OUTER_BOUND ( 'NONE', #590, .T. ) ;
#62 = ORIENTED_EDGE ( 'NONE', *, *, #110, .T. ) ;
#63 = EDGE_LOOP ( 'NONE', ( #422, #795 ) ) ;
#64 = DIRECTION ( 'NONE',  ( 0.000000000000000000, -1.000000000000000000, 0.000000000000000000 ) ) ;
#65 = ORIENTED_EDGE ( 'NONE', *, *, #409, .F. ) ;
#66 = CARTESIAN_POINT ( 'NONE',  ( 8.000000000000000000, 3.000000000000000000, 6.000000000000000000 ) ) ;
#67 = DIRECTION ( 'NONE',  ( 0.000000000000000000, 0.000000000000000000, -1.000000000000000000 ) ) ;
#68 = EDGE_CURVE ( 'NONE', #128, #774, #343, .T. ) ;
#69 = FACE_OUTER_BOUND ( 'NONE', #279, .T. ) ;
#70 = ORIENTED_EDGE ( 'NONE', *, *, #675, .T. ) ;
#71 = PRODUCT_DEFINITION ( '未知', '', #805, #148 ) ;
#72 = DIRECTION ( 'NONE',  ( -1.000000000000000000, 0.000000000000000000, 0.000000000000000000 ) ) ;
#73 = PRESENTATION_LAYER_ASSIGNMENT (  '', '', ( #433 ) ) ;
#74 = VERTEX_POINT ( 'NONE', #728 ) ;
#75 = CIRCLE ( 'NONE', #501, 5.000000000000000000 ) ;
#76 = DIRECTION ( 'NONE',  ( 0.000000000000000000, -1.000000000000000000, 0.000000000000000000 ) ) ;
#77 = ADVANCED_FACE ( 'NONE', ( #479, #546, #485, #97 ), #85, .F. ) ;
#78 = AXIS2_PLACEMENT_3D ( 'NONE', #623, #562, #678 ) ;
#79 = AXIS2_PLACEMENT_3D ( 'NONE', #496, #488, #376 ) ;
#80 = ORIENTED_EDGE ( 'NONE', *, *, #457, .T. ) ;
#81 = EDGE_LOOP ( 'NONE', ( #782, #601, #363, #582, #768, #62 ) ) ;
#82 = FACE_OUTER_BOUND ( 'NONE', #737, .T. ) ;
#83 = ORIENTED_EDGE ( 'NONE', *, *, #752, .T. ) ;
#84 = EDGE_CURVE ( 'NONE', #316, #335, #787, .T. ) ;
#85 = PLANE ( 'NONE',  #178 ) ;
#86 = ORIENTED_EDGE ( 'NONE', *, *, #416, .F. ) ;
#87 = CARTESIAN_POINT ( 'NONE',  ( 70.00000000000000000, 2.000000000000001776, 10.00000000000000000 ) ) ;
#88 = ORIENTED_EDGE ( 'NONE', *, *, #107, .T. ) ;
#89 = EDGE_CURVE ( 'NONE', #145, #123, #154, .T. ) ;
#90 = ADVANCED_BREP_SHAPE_REPRESENTATION ( '传送带轴固定调节座', ( #443, #184 ), #10 ) ;
#91 = CARTESIAN_POINT ( 'NONE',  ( 30.00000000000000000, 4.000000000000000000, -10.00000000000000000 ) ) ;
#92 = FACE_OUTER_BOUND ( 'NONE', #34, .T. ) ;
#93 = ORIENTED_EDGE ( 'NONE', *, *, #258, .T. ) ;
#94 = DIRECTION ( 'NONE',  ( 0.000000000000000000, 0.000000000000000000, 1.000000000000000000 ) ) ;
#95 = CARTESIAN_POINT ( 'NONE',  ( 4.899999999999997691, 10.00000000000000000, 3.796405077356796397E-16 ) ) ;
#96 = ORIENTED_EDGE ( 'NONE', *, *, #121, .T. ) ;
#97 = FACE_OUTER_BOUND ( 'NONE', #81, .T. ) ;
#98 = DIRECTION ( 'NONE',  ( -0.000000000000000000, -0.000000000000000000, -1.000000000000000000 ) ) ;
#99 = VERTEX_POINT ( 'NONE', #664 ) ;
#100 = DIRECTION ( 'NONE',  ( 1.000000000000000000, 1.192622389734054631E-16, -0.000000000000000000 ) ) ;
#101 = DIRECTION ( 'NONE',  ( 1.097127629939990044E-16, -1.000000000000000000, 0.000000000000000000 ) ) ;
#102 = VECTOR ( 'NONE', #793, 1000.000000000000000 ) ;
#103 = ORIENTED_EDGE ( 'NONE', *, *, #457, .F. ) ;
#104 = CARTESIAN_POINT ( 'NONE',  ( 62.10000000000000853, 10.00000000000000000, 0.000000000000000000 ) ) ;
#105 = DIRECTION ( 'NONE',  ( 0.000000000000000000, -1.000000000000000000, 0.000000000000000000 ) ) ;
#106 = EDGE_LOOP ( 'NONE', ( #815, #189, #224, #777 ) ) ;
#107 = EDGE_CURVE ( 'NONE', #716, #334, #776, .T. ) ;
#108 = CARTESIAN_POINT ( 'NONE',  ( 8.000000000000000000, 3.000000000000000000, 0.000000000000000000 ) ) ;
#109 = PLANE ( 'NONE',  #79 ) ;
#110 = EDGE_CURVE ( 'NONE', #255, #337, #348, .T. ) ;
#111 = FACE_OUTER_BOUND ( 'NONE', #106, .T. ) ;
#112 = CARTESIAN_POINT ( 'NONE',  ( 8.000000000000000000, 4.000000000000000000, -6.000000000000000000 ) ) ;
#113 = VECTOR ( 'NONE', #158, 1000.000000000000000 ) ;
#114 = CARTESIAN_POINT ( 'NONE',  ( 8.000000000000000000, 2.000000000000000000, 5.000000000000000000 ) ) ;
#115 = CIRCLE ( 'NONE', #619, 3.100000000000000533 ) ;
#116 = DIRECTION ( 'NONE',  ( -0.000000000000000000, -0.000000000000000000, -1.000000000000000000 ) ) ;
#117 =( LENGTH_UNIT ( ) NAMED_UNIT ( * ) SI_UNIT ( .MILLI., .METRE. ) );
#118 = COLOUR_RGB ( '',1.000000000000000000, 1.000000000000000000, 1.000000000000000000 ) ;
#119 = DIRECTION ( 'NONE',  ( 0.7071067811865439090, 0.000000000000000000, -0.7071067811865512365 ) ) ;
#120 = DIRECTION ( 'NONE',  ( 1.097127629939990044E-16, -1.000000000000000000, -0.000000000000000000 ) ) ;
#121 = EDGE_CURVE ( 'NONE', #264, #316, #344, .T. ) ;
#122 = SURFACE_STYLE_USAGE ( .BOTH. , #687 ) ;
#123 = VERTEX_POINT ( 'NONE', #91 ) ;
#124 = VECTOR ( 'NONE', #653, 1000.000000000000000 ) ;
#125 = ORIENTED_EDGE ( 'NONE', *, *, #785, .F. ) ;
#126 = DIRECTION ( 'NONE',  ( 0.000000000000000000, 0.000000000000000000, 1.000000000000000000 ) ) ;
#127 = STYLED_ITEM ( 'NONE', ( #175 ), #90 ) ;
#128 = VERTEX_POINT ( 'NONE', #402 ) ;
#129 = CARTESIAN_POINT ( 'NONE',  ( 57.90000000000001279, 1.999999999999999556, 2.571758278209438013E-16 ) ) ;
#130 = ORIENTED_EDGE ( 'NONE', *, *, #442, .T. ) ;
#131 = ORIENTED_EDGE ( 'NONE', *, *, #173, .T. ) ;
#132 = DIRECTION ( 'NONE',  ( 1.097127629939990044E-16, -1.000000000000000000, -0.000000000000000000 ) ) ;
#133 = VERTEX_POINT ( 'NONE', #592 ) ;
#134 = CARTESIAN_POINT ( 'NONE',  ( 70.00000000000000000, 2.000000000000001776, 7.999999999999991118 ) ) ;
#135 = EDGE_CURVE ( 'NONE', #451, #779, #25, .T. ) ;
#136 = VERTEX_POINT ( 'NONE', #218 ) ;
#137 = CARTESIAN_POINT ( 'NONE',  ( 70.00000000000000000, 15.00000000000000355, -8.000000000000005329 ) ) ;
#138 = VERTEX_POINT ( 'NONE', #598 ) ;
#139 = AXIS2_PLACEMENT_3D ( 'NONE', #778, #719, #150 ) ;
#140 = ORIENTED_EDGE ( 'NONE', *, *, #736, .F. ) ;
#141 = VECTOR ( 'NONE', #400, 1000.000000000000000 ) ;
#142 = DIRECTION ( 'NONE',  ( 0.000000000000000000, 0.000000000000000000, -1.000000000000000000 ) ) ;
#143 = ORIENTED_EDGE ( 'NONE', *, *, #89, .T. ) ;
#144 = LINE ( 'NONE', #723, #37 ) ;
#145 = VERTEX_POINT ( 'NONE', #271 ) ;
#146 = CARTESIAN_POINT ( 'NONE',  ( 64.00000000000000000, 15.00000000000000355, 10.00000000000000000 ) ) ;
#147 = ADVANCED_FACE ( 'NONE', ( #773 ), #214, .F. ) ;
#148 = PRODUCT_DEFINITION_CONTEXT ( 'detailed design', #467, 'design' ) ;
#149 = EDGE_LOOP ( 'NONE', ( #608, #267, #80, #734 ) ) ;
#150 = DIRECTION ( 'NONE',  ( 1.000000000000000000, 2.065146995210486667E-16, 0.000000000000000000 ) ) ;
#151 = ORIENTED_EDGE ( 'NONE', *, *, #430, .F. ) ;
#152 = DIRECTION ( 'NONE',  ( 1.000000000000000000, 0.000000000000000000, 0.000000000000000000 ) ) ;
#153 = ORIENTED_EDGE ( 'NONE', *, *, #555, .T. ) ;
#154 = LINE ( 'NONE', #527, #41 ) ;
#155 = CARTESIAN_POINT ( 'NONE',  ( 40.00000000000000711, 15.00000000000000888, 0.000000000000000000 ) ) ;
#156 = ORIENTED_EDGE ( 'NONE', *, *, #809, .T. ) ;
#157 = VECTOR ( 'NONE', #557, 999.9999999999998863 ) ;
#158 = DIRECTION ( 'NONE',  ( -0.000000000000000000, -0.000000000000000000, -1.000000000000000000 ) ) ;
#159 = DIRECTION ( 'NONE',  ( 1.000000000000000000, 1.398970545142586048E-16, 0.000000000000000000 ) ) ;
#160 = EDGE_CURVE ( 'NONE', #708, #8, #226, .T. ) ;
#161 = ORIENTED_EDGE ( 'NONE', *, *, #110, .F. ) ;
#162 = DIRECTION ( 'NONE',  ( 0.000000000000000000, -0.000000000000000000, -1.000000000000000000 ) ) ;
#163 = EDGE_CURVE ( 'NONE', #74, #779, #605, .T. ) ;
#164 = FACE_OUTER_BOUND ( 'NONE', #259, .T. ) ;
#165 = EDGE_LOOP ( 'NONE', ( #628, #253 ) ) ;
#166 = DIRECTION ( 'NONE',  ( 1.000000000000000000, 0.000000000000000000, 0.000000000000000000 ) ) ;
#167 = AXIS2_PLACEMENT_3D ( 'NONE', #190, #254, #249 ) ;
#168 = EDGE_CURVE ( 'NONE', #255, #228, #144, .T. ) ;
#169 = ORIENTED_EDGE ( 'NONE', *, *, #225, .T. ) ;
#170 = CARTESIAN_POINT ( 'NONE',  ( 70.00000000000000000, 10.00000000000000178, -8.000000000000005329 ) ) ;
#171 = CIRCLE ( 'NONE', #315, 1.000000000000000000 ) ;
#172 = CARTESIAN_POINT ( 'NONE',  ( 70.00000000000000000, 15.00000000000000355, 10.00000000000000000 ) ) ;
#173 = EDGE_CURVE ( 'NONE', #45, #604, #32, .T. ) ;
#174 = DIRECTION ( 'NONE',  ( 1.097127629939990044E-16, -1.000000000000000000, 0.000000000000000000 ) ) ;
#175 = PRESENTATION_STYLE_ASSIGNMENT (( #493 ) ) ;
#176 = CARTESIAN_POINT ( 'NONE',  ( 70.00000000000000000, 15.00000000000000355, 10.00000000000000000 ) ) ;
#177 = LINE ( 'NONE', #677, #518 ) ;
#178 = AXIS2_PLACEMENT_3D ( 'NONE', #283, #588, #162 ) ;
#179 = CARTESIAN_POINT ( 'NONE',  ( 42.10000000000000853, 1.999999999999998224, 0.000000000000000000 ) ) ;
#180 = VECTOR ( 'NONE', #454, 1000.000000000000000 ) ;
#181 = CARTESIAN_POINT ( 'NONE',  ( 68.00000000000001421, 15.00000000000000355, 10.00000000000000000 ) ) ;
#182 = AXIS2_PLACEMENT_3D ( 'NONE', #108, #47, #302 ) ;
#183 =( NAMED_UNIT ( * ) PLANE_ANGLE_UNIT ( ) SI_UNIT ( $, .RADIAN. ) );
#184 = AXIS2_PLACEMENT_3D ( 'NONE', #2, #250, #818 ) ;
#185 = DIRECTION ( 'NONE',  ( 1.097127629939990044E-16, -1.000000000000000000, -0.000000000000000000 ) ) ;
#186 = ORIENTED_EDGE ( 'NONE', *, *, #293, .T. ) ;
#187 = FILL_AREA_STYLE_COLOUR ( '', #683 ) ;
#188 = ORIENTED_EDGE ( 'NONE', *, *, #371, .T. ) ;
#189 = ORIENTED_EDGE ( 'NONE', *, *, #591, .F. ) ;
#190 = CARTESIAN_POINT ( 'NONE',  ( 0.000000000000000000, 0.000000000000000000, 10.00000000000000000 ) ) ;
#191 = VECTOR ( 'NONE', #589, 999.9999999999998863 ) ;
#192 = APPLICATION_PROTOCOL_DEFINITION ( 'draft international standard', 'automotive_design', 1998, #467 ) ;
#193 = LINE ( 'NONE', #3, #370 ) ;
#194 = CARTESIAN_POINT ( 'NONE',  ( 68.00000000000001421, 2.000000000000001332, 10.00000000000000000 ) ) ;
#195 = CIRCLE ( 'NONE', #482, 2.099999999999997424 ) ;
#196 = ORIENTED_EDGE ( 'NONE', *, *, #40, .F. ) ;
#197 = EDGE_CURVE ( 'NONE', #38, #355, #789, .T. ) ;
#198 = DIRECTION ( 'NONE',  ( 0.000000000000000000, 0.000000000000000000, 1.000000000000000000 ) ) ;
#199 = DIRECTION ( 'NONE',  ( 0.000000000000000000, -1.000000000000000000, 0.000000000000000000 ) ) ;
#200 = DIRECTION ( 'NONE',  ( 0.000000000000000000, -1.000000000000000000, 0.000000000000000000 ) ) ;
#201 = ORIENTED_EDGE ( 'NONE', *, *, #160, .F. ) ;
#202 = CARTESIAN_POINT ( 'NONE',  ( 8.000000000000000000, 2.000000000000000000, 0.000000000000000000 ) ) ;
#203 = ADVANCED_FACE ( 'NONE', ( #406, #657 ), #741, .T. ) ;
#204 = CARTESIAN_POINT ( 'NONE',  ( 4.899999999999999467, 1.999999999999994005, 3.796405077356795411E-16 ) ) ;
#205 = DIRECTION ( 'NONE',  ( -0.7071067811865489050, -0.000000000000000000, -0.7071067811865462405 ) ) ;
#206 = ORIENTED_EDGE ( 'NONE', *, *, #333, .T. ) ;
#207 = VECTOR ( 'NONE', #100, 1000.000000000000000 ) ;
#208 = DIRECTION ( 'NONE',  ( 1.097127629939990044E-16, -1.000000000000000000, -0.000000000000000000 ) ) ;
#209 = ORIENTED_EDGE ( 'NONE', *, *, #468, .T. ) ;
#210 = ADVANCED_FACE ( 'NONE', ( #806 ), #672, .F. ) ;
#211 = LINE ( 'NONE', #114, #684 ) ;
#212 = CIRCLE ( 'NONE', #514, 2.099999999999997424 ) ;
#213 = VERTEX_POINT ( 'NONE', #104 ) ;
#214 = PLANE ( 'NONE',  #436 ) ;
#215 = ORIENTED_EDGE ( 'NONE', *, *, #135, .T. ) ;
#216 = CARTESIAN_POINT ( 'NONE',  ( 11.09999999999999787, 10.00000000000000000, 0.000000000000000000 ) ) ;
#217 = UNCERTAINTY_MEASURE_WITH_UNIT (LENGTH_MEASURE( 1.000000000000000082E-05 ), #631, 'distance_accuracy_value', 'NONE');
#218 = CARTESIAN_POINT ( 'NONE',  ( 42.10000000000000853, 10.00000000000000000, 0.000000000000000000 ) ) ;
#219 = DIRECTION ( 'NONE',  ( 0.000000000000000000, 0.000000000000000000, 1.000000000000000000 ) ) ;
#220 = ORIENTED_EDGE ( 'NONE', *, *, #756, .T. ) ;
#221 = CARTESIAN_POINT ( 'NONE',  ( 8.000000000000000000, 3.000000000000000000, 0.000000000000000000 ) ) ;
#222 = AXIS2_PLACEMENT_3D ( 'NONE', #439, #12, #310 ) ;
#223 = CARTESIAN_POINT ( 'NONE',  ( 0.000000000000000000, 0.000000000000000000, -10.00000000000000000 ) ) ;
#224 = ORIENTED_EDGE ( 'NONE', *, *, #468, .F. ) ;
#225 = EDGE_CURVE ( 'NONE', #466, #408, #364, .T. ) ;
#226 = LINE ( 'NONE', #715, #292 ) ;
#227 = CYLINDRICAL_SURFACE ( 'NONE', #698, 5.000000000000000000 ) ;
#228 = VERTEX_POINT ( 'NONE', #54 ) ;
#229 = DIRECTION ( 'NONE',  ( -0.7071067811865462405, 0.000000000000000000, 0.7071067811865489050 ) ) ;
#230 = CARTESIAN_POINT ( 'NONE',  ( 8.000000000000000000, 2.000000000000000000, 5.000000000000000000 ) ) ;
#231 = EDGE_LOOP ( 'NONE', ( #324, #520, #329, #215 ) ) ;
#232 = DIRECTION ( 'NONE',  ( 0.000000000000000000, -1.000000000000000000, 0.000000000000000000 ) ) ;
#233 = CARTESIAN_POINT ( 'NONE',  ( -2.449293598294705921E-16, 4.000000000000000000, 10.00000000000000000 ) ) ;
#234 = EDGE_CURVE ( 'NONE', #355, #38, #275, .T. ) ;
#235 = AXIS2_PLACEMENT_3D ( 'NONE', #266, #56, #1 ) ;
#236 = LINE ( 'NONE', #306, #568 ) ;
#237 = VECTOR ( 'NONE', #724, 1000.000000000000000 ) ;
#238 = SURFACE_SIDE_STYLE ('',( #742 ) ) ;
#239 = CARTESIAN_POINT ( 'NONE',  ( 64.00000000000000000, 10.00000000000000000, 10.00000000000000000 ) ) ;
#240 = FACE_OUTER_BOUND ( 'NONE', #444, .T. ) ;
#241 = CARTESIAN_POINT ( 'NONE',  ( 30.00000000000000000, 4.000000000000000000, 10.00000000000000000 ) ) ;
#242 = LINE ( 'NONE', #566, #157 ) ;
#243 = VECTOR ( 'NONE', #731, 999.9999999999998863 ) ;
#244 = AXIS2_PLACEMENT_3D ( 'NONE', #223, #547, #152 ) ;
#245 = SURFACE_STYLE_FILL_AREA ( #813 ) ;
#246 = AXIS2_PLACEMENT_3D ( 'NONE', #66, #72, #327 ) ;
#247 = ORIENTED_EDGE ( 'NONE', *, *, #738, .F. ) ;
#248 = APPLICATION_CONTEXT ( 'automotive_design' ) ;
#249 = DIRECTION ( 'NONE',  ( 1.000000000000000000, 0.000000000000000000, 0.000000000000000000 ) ) ;
#250 = DIRECTION ( 'NONE',  ( 0.000000000000000000, 0.000000000000000000, 1.000000000000000000 ) ) ;
#251 = DIRECTION ( 'NONE',  ( 1.097127629939990044E-16, -1.000000000000000000, -0.000000000000000000 ) ) ;
#252 = EDGE_CURVE ( 'NONE', #123, #264, #236, .T. ) ;
#253 = ORIENTED_EDGE ( 'NONE', *, *, #442, .F. ) ;
#254 = DIRECTION ( 'NONE',  ( -0.000000000000000000, 0.000000000000000000, 1.000000000000000000 ) ) ;
#255 = VERTEX_POINT ( 'NONE', #239 ) ;
#256 = ORIENTED_EDGE ( 'NONE', *, *, #732, .T. ) ;
#257 = CARTESIAN_POINT ( 'NONE',  ( 40.00000000000000711, 10.00000000000000000, 0.000000000000000000 ) ) ;
#258 = EDGE_CURVE ( 'NONE', #418, #593, #552, .T. ) ;
#259 = EDGE_LOOP ( 'NONE', ( #646, #16, #398, #696, #700, #448, #656, #667 ) ) ;
#260 = PLANE ( 'NONE',  #814 ) ;
#261 = VECTOR ( 'NONE', #780, 1000.000000000000000 ) ;
#262 = PLANE ( 'NONE',  #462 ) ;
#263 = CARTESIAN_POINT ( 'NONE',  ( 30.00000000000000000, 1.999999999999997113, 10.00000000000000000 ) ) ;
#264 = VERTEX_POINT ( 'NONE', #682 ) ;
#265 = EDGE_CURVE ( 'NONE', #320, #418, #556, .T. ) ;
#266 = CARTESIAN_POINT ( 'NONE',  ( 8.000000000000000000, 2.000000000000000000, 0.000000000000000000 ) ) ;
#267 = ORIENTED_EDGE ( 'NONE', *, *, #727, .F. ) ;
#268 = CARTESIAN_POINT ( 'NONE',  ( -2.449293598294705921E-16, 4.000000000000000000, -8.000000000000005329 ) ) ;
#269 = EDGE_LOOP ( 'NONE', ( #201, #530, #487, #440 ) ) ;
#270 = ADVANCED_FACE ( 'NONE', ( #423, #739, #429 ), #617, .F. ) ;
#271 = CARTESIAN_POINT ( 'NONE',  ( 2.000000000000001776, 4.000000000000000000, -10.00000000000000000 ) ) ;
#272 = ORIENTED_EDGE ( 'NONE', *, *, #57, .F. ) ;
#273 = LINE ( 'NONE', #639, #645 ) ;
#274 = ORIENTED_EDGE ( 'NONE', *, *, #395, .T. ) ;
#275 = CIRCLE ( 'NONE', #711, 2.099999999999997868 ) ;
#276 = DIRECTION ( 'NONE',  ( 1.097127629939990044E-16, -1.000000000000000000, -0.000000000000000000 ) ) ;
#277 = ORIENTED_EDGE ( 'NONE', *, *, #752, .F. ) ;
#278 = CARTESIAN_POINT ( 'NONE',  ( 8.000000000000000000, 2.000000000000000000, -5.000000000000000000 ) ) ;
#279 = EDGE_LOOP ( 'NONE', ( #506, #83, #359, #151 ) ) ;
#280 = CARTESIAN_POINT ( 'NONE',  ( 64.00000000000000000, 10.00000000000000000, 10.00000000000000000 ) ) ;
#281 = LINE ( 'NONE', #146, #764 ) ;
#282 = EDGE_LOOP ( 'NONE', ( #713, #403, #314, #670 ) ) ;
#283 = CARTESIAN_POINT ( 'NONE',  ( 0.000000000000000000, 10.00000000000000000, 10.00000000000000000 ) ) ;
#284 = CARTESIAN_POINT ( 'NONE',  ( 60.00000000000001421, 10.00000000000000000, 0.000000000000000000 ) ) ;
#285 = EDGE_CURVE ( 'NONE', #774, #128, #609, .T. ) ;
#286 = ORIENTED_EDGE ( 'NONE', *, *, #636, .T. ) ;
#287 = CARTESIAN_POINT ( 'NONE',  ( 70.00000000000000000, 15.00000000000000355, -10.00000000000000000 ) ) ;
#288 = AXIS2_PLACEMENT_3D ( 'NONE', #495, #299, #800 ) ;
#289 = CARTESIAN_POINT ( 'NONE',  ( 8.000000000000000000, 3.000000000000000000, 0.000000000000000000 ) ) ;
#290 = AXIS2_PLACEMENT_3D ( 'NONE', #155, #550, #542 ) ;
#291 = EDGE_LOOP ( 'NONE', ( #14, #596 ) ) ;
#292 = VECTOR ( 'NONE', #276, 1000.000000000000000 ) ;
#293 = EDGE_CURVE ( 'NONE', #593, #342, #490, .T. ) ;
#294 = DIRECTION ( 'NONE',  ( 0.000000000000000000, 1.000000000000000000, 0.000000000000000000 ) ) ;
#295 = DIRECTION ( 'NONE',  ( -0.7071067811865489050, 2.886520187451649216E-17, 0.7071067811865462405 ) ) ;
#296 = ORIENTED_EDGE ( 'NONE', *, *, #709, .F. ) ;
#297 = EDGE_CURVE ( 'NONE', #138, #228, #686, .T. ) ;
#298 = CARTESIAN_POINT ( 'NONE',  ( 68.00000000000000000, 2.000000000000001332, -10.00000000000000000 ) ) ;
#299 = DIRECTION ( 'NONE',  ( 0.000000000000000000, -1.000000000000000000, 0.000000000000000000 ) ) ;
#300 = CARTESIAN_POINT ( 'NONE',  ( 57.90000000000001279, 15.00000000000001066, 2.571758278209438506E-16 ) ) ;
#301 = TOROIDAL_SURFACE ( 'NONE', #49, 6.000000000000000000, 1.000000000000000000 ) ;
#302 = DIRECTION ( 'NONE',  ( 0.000000000000000000, 0.000000000000000000, 1.000000000000000000 ) ) ;
#303 = AXIS2_PLACEMENT_3D ( 'NONE', #603, #721, #669 ) ;
#304 = CARTESIAN_POINT ( 'NONE',  ( 37.90000000000001279, 1.999999999999997335, 2.571758278209438013E-16 ) ) ;
#305 = DIRECTION ( 'NONE',  ( 0.000000000000000000, -1.000000000000000000, 0.000000000000000000 ) ) ;
#306 = CARTESIAN_POINT ( 'NONE',  ( 30.00000000000000000, 4.000000000000000000, -10.00000000000000000 ) ) ;
#307 = ADVANCED_FACE ( 'NONE', ( #111 ), #615, .F. ) ;
#308 = DIRECTION ( 'NONE',  ( 1.000000000000000000, 0.000000000000000000, 0.000000000000000000 ) ) ;
#309 = ADVANCED_FACE ( 'NONE', ( #46 ), #549, .F. ) ;
#310 = DIRECTION ( 'NONE',  ( 1.000000000000000000, 2.065146995210486667E-16, 0.000000000000000000 ) ) ;
#311 = LINE ( 'NONE', #300, #426 ) ;
#312 = VECTOR ( 'NONE', #811, 1000.000000000000000 ) ;
#313 =( LENGTH_UNIT ( ) NAMED_UNIT ( * ) SI_UNIT ( .MILLI., .METRE. ) );
#314 = ORIENTED_EDGE ( 'NONE', *, *, #333, .F. ) ;
#315 = AXIS2_PLACEMENT_3D ( 'NONE', #801, #627, #620 ) ;
#316 = VERTEX_POINT ( 'NONE', #298 ) ;
#317 = FACE_OUTER_BOUND ( 'NONE', #533, .T. ) ;
#318 = ADVANCED_FACE ( 'NONE', ( #427 ), #7, .F. ) ;
#319 = ORIENTED_EDGE ( 'NONE', *, *, #258, .F. ) ;
#320 = VERTEX_POINT ( 'NONE', #676 ) ;
#321 = CARTESIAN_POINT ( 'NONE',  ( 2.000000000000002220, 10.00000000000000000, -10.00000000000000000 ) ) ;
#322 = VERTEX_POINT ( 'NONE', #803 ) ;
#323 = FACE_OUTER_BOUND ( 'NONE', #483, .T. ) ;
#324 = ORIENTED_EDGE ( 'NONE', *, *, #163, .F. ) ;
#325 = DIRECTION ( 'NONE',  ( 0.000000000000000000, 1.000000000000000000, 0.000000000000000000 ) ) ;
#326 = ORIENTED_EDGE ( 'NONE', *, *, #168, .T. ) ;
#327 = DIRECTION ( 'NONE',  ( 0.000000000000000000, 0.000000000000000000, 1.000000000000000000 ) ) ;
#328 =( GEOMETRIC_REPRESENTATION_CONTEXT ( 3 ) GLOBAL_UNCERTAINTY_ASSIGNED_CONTEXT ( ( #351 ) ) GLOBAL_UNIT_ASSIGNED_CONTEXT ( ( #313, #690, #647 ) ) REPRESENTATION_CONTEXT ( 'NONE', 'WORKASPACE' ) );
#329 = ORIENTED_EDGE ( 'NONE', *, *, #558, .T. ) ;
#330 = CIRCLE ( 'NONE', #396, 2.099999999999997424 ) ;
#331 = CARTESIAN_POINT ( 'NONE',  ( -2.449293598294705921E-16, 4.000000000000000000, -8.000000000000005329 ) ) ;
#332 = MECHANICAL_DESIGN_GEOMETRIC_PRESENTATION_REPRESENTATION (  '', ( #127 ), #600 ) ;
#333 = EDGE_CURVE ( 'NONE', #342, #466, #492, .T. ) ;
#334 = VERTEX_POINT ( 'NONE', #522 ) ;
#335 = VERTEX_POINT ( 'NONE', #504 ) ;
#336 = LINE ( 'NONE', #762, #191 ) ;
#337 = VERTEX_POINT ( 'NONE', #754 ) ;
#338 = DIRECTION ( 'NONE',  ( 1.097127629939990044E-16, -1.000000000000000000, 0.000000000000000000 ) ) ;
#339 = ORIENTED_EDGE ( 'NONE', *, *, #409, .T. ) ;
#340 = LINE ( 'NONE', #480, #261 ) ;
#341 = UNCERTAINTY_MEASURE_WITH_UNIT (LENGTH_MEASURE( 1.000000000000000082E-05 ), #117, 'distance_accuracy_value', 'NONE');
#342 = VERTEX_POINT ( 'NONE', #447 ) ;
#343 = CIRCLE ( 'NONE', #399, 6.000000000000000000 ) ;
#344 = LINE ( 'NONE', #538, #207 ) ;
#345 = CARTESIAN_POINT ( 'NONE',  ( 7.999999999999998224, 10.00000000000000000, 0.000000000000000000 ) ) ;
#346 = CIRCLE ( 'NONE', #613, 3.100000000000000533 ) ;
#347 = ORIENTED_EDGE ( 'NONE', *, *, #265, .T. ) ;
#348 = LINE ( 'NONE', #280, #102 ) ;
#349 = ADVANCED_FACE ( 'NONE', ( #375 ), #58, .T. ) ;
#350 = DIRECTION ( 'NONE',  ( 0.000000000000000000, -1.000000000000000000, 0.000000000000000000 ) ) ;
#351 = UNCERTAINTY_MEASURE_WITH_UNIT (LENGTH_MEASURE( 1.000000000000000082E-05 ), #313, 'distance_accuracy_value', 'NONE');
#352 = ORIENTED_EDGE ( 'NONE', *, *, #297, .F. ) ;
#353 = DIRECTION ( 'NONE',  ( 0.000000000000000000, 0.000000000000000000, 1.000000000000000000 ) ) ;
#354 = LINE ( 'NONE', #563, #437 ) ;
#355 = VERTEX_POINT ( 'NONE', #129 ) ;
#356 = DIRECTION ( 'NONE',  ( 1.097127629939990044E-16, -1.000000000000000000, -0.000000000000000000 ) ) ;
#357 = AXIS2_PLACEMENT_3D ( 'NONE', #366, #735, #166 ) ;
#358 = LINE ( 'NONE', #278, #545 ) ;
#359 = ORIENTED_EDGE ( 'NONE', *, *, #107, .F. ) ;
#360 = ADVANCED_FACE ( 'NONE', ( #61 ), #260, .F. ) ;
#361 = DIRECTION ( 'NONE',  ( 0.7071067811865462405, 0.000000000000000000, 0.7071067811865489050 ) ) ;
#362 = DIRECTION ( 'NONE',  ( -0.000000000000000000, -0.000000000000000000, -1.000000000000000000 ) ) ;
#363 = ORIENTED_EDGE ( 'NONE', *, *, #607, .F. ) ;
#364 = LINE ( 'NONE', #176, #424 ) ;
#365 = PLANE ( 'NONE',  #536 ) ;
#366 = CARTESIAN_POINT ( 'NONE',  ( 7.999999999999998224, 15.00000000000000533, 0.000000000000000000 ) ) ;
#367 = CARTESIAN_POINT ( 'NONE',  ( 60.00000000000001421, 15.00000000000001066, 0.000000000000000000 ) ) ;
#368 = VECTOR ( 'NONE', #431, 1000.000000000000000 ) ;
#369 = VECTOR ( 'NONE', #132, 1000.000000000000000 ) ;
#370 = VECTOR ( 'NONE', #508, 1000.000000000000000 ) ;
#371 = EDGE_CURVE ( 'NONE', #133, #255, #641, .T. ) ;
#372 = DIRECTION ( 'NONE',  ( -0.000000000000000000, 1.000000000000000000, -0.000000000000000000 ) ) ;
#373 = DIRECTION ( 'NONE',  ( -1.192622389734054631E-16, 1.000000000000000000, 0.000000000000000000 ) ) ;
#374 = ADVANCED_FACE ( 'NONE', ( #323 ), #572, .T. ) ;
#375 = FACE_OUTER_BOUND ( 'NONE', #652, .T. ) ;
#376 = DIRECTION ( 'NONE',  ( 0.000000000000000000, 0.000000000000000000, 1.000000000000000000 ) ) ;
#377 = PRESENTATION_STYLE_ASSIGNMENT (( #122 ) ) ;
#378 = ORIENTED_EDGE ( 'NONE', *, *, #40, .T. ) ;
#379 = AXIS2_PLACEMENT_3D ( 'NONE', #750, #185, #577 ) ;
#380 = ADVANCED_FACE ( 'NONE', ( #317 ), #6, .F. ) ;
#381 = CARTESIAN_POINT ( 'NONE',  ( 30.00000000000000000, 1.999999999999997113, 10.00000000000000000 ) ) ;
#382 = LINE ( 'NONE', #819, #621 ) ;
#383 = CARTESIAN_POINT ( 'NONE',  ( 62.10000000000000853, 15.00000000000001066, 0.000000000000000000 ) ) ;
#384 = EDGE_LOOP ( 'NONE', ( #339, #220 ) ) ;
#385 = CARTESIAN_POINT ( 'NONE',  ( 70.00000000000000000, 2.000000000000001776, 7.999999999999991118 ) ) ;
#386 = CARTESIAN_POINT ( 'NONE',  ( 60.00000000000001421, 10.00000000000000000, 0.000000000000000000 ) ) ;
#387 = ORIENTED_EDGE ( 'NONE', *, *, #371, .F. ) ;
#388 = CARTESIAN_POINT ( 'NONE',  ( -2.449293598294705921E-16, 4.000000000000000000, 10.00000000000000000 ) ) ;
#389 = ORIENTED_EDGE ( 'NONE', *, *, #625, .T. ) ;
#390 = CARTESIAN_POINT ( 'NONE',  ( -1.224646799147357398E-16, 10.00000000000000000, -8.000000000000005329 ) ) ;
#391 = APPLICATION_PROTOCOL_DEFINITION ( 'draft international standard', 'automotive_design', 1998, #248 ) ;
#392 = CARTESIAN_POINT ( 'NONE',  ( 68.00000000000000000, 15.00000000000000355, -10.00000000000000000 ) ) ;
#393 = PLANE ( 'NONE',  #610 ) ;
#394 = ORIENTED_EDGE ( 'NONE', *, *, #651, .F. ) ;
#395 = EDGE_CURVE ( 'NONE', #466, #401, #816, .T. ) ;
#396 = AXIS2_PLACEMENT_3D ( 'NONE', #386, #517, #67 ) ;
#397 = VECTOR ( 'NONE', #420, 1000.000000000000000 ) ;
#398 = ORIENTED_EDGE ( 'NONE', *, *, #121, .F. ) ;
#399 = AXIS2_PLACEMENT_3D ( 'NONE', #661, #668, #94 ) ;
#400 = DIRECTION ( 'NONE',  ( 0.000000000000000000, 1.000000000000000000, 0.000000000000000000 ) ) ;
#401 = VERTEX_POINT ( 'NONE', #134 ) ;
#402 = CARTESIAN_POINT ( 'NONE',  ( 8.000000000000000000, 4.000000000000000000, 6.000000000000000000 ) ) ;
#403 = ORIENTED_EDGE ( 'NONE', *, *, #395, .F. ) ;
#404 = LINE ( 'NONE', #87, #481 ) ;
#405 = EDGE_LOOP ( 'NONE', ( #277, #414, #772, #707 ) ) ;
#406 = FACE_BOUND ( 'NONE', #718, .T. ) ;
#407 = CARTESIAN_POINT ( 'NONE',  ( -2.449293598294705921E-16, 4.000000000000000000, 7.999999999999998224 ) ) ;
#408 = VERTEX_POINT ( 'NONE', #456 ) ;
#409 = EDGE_CURVE ( 'NONE', #799, #322, #597, .T. ) ;
#410 = CIRCLE ( 'NONE', #445, 2.099999999999997424 ) ;
#411 = LINE ( 'NONE', #18, #243 ) ;
#412 = CARTESIAN_POINT ( 'NONE',  ( 8.000000000000000000, 1.999999999999994449, 0.000000000000000000 ) ) ;
#413 = AXIS2_PLACEMENT_3D ( 'NONE', #367, #554, #308 ) ;
#414 = ORIENTED_EDGE ( 'NONE', *, *, #68, .F. ) ;
#415 = CARTESIAN_POINT ( 'NONE',  ( 70.00000000000000000, 2.000000000000001776, -8.000000000000005329 ) ) ;
#416 = EDGE_CURVE ( 'NONE', #228, #99, #510, .T. ) ;
#417 = CARTESIAN_POINT ( 'NONE',  ( 1.999999999999994449, -8.164311994315661752E-17, 10.00000000000000000 ) ) ;
#418 = VERTEX_POINT ( 'NONE', #381 ) ;
#419 = DIRECTION ( 'NONE',  ( 0.7071067811865489050, 8.433113791758571318E-17, 0.7071067811865462405 ) ) ;
#420 = DIRECTION ( 'NONE',  ( -0.000000000000000000, -0.000000000000000000, -1.000000000000000000 ) ) ;
#421 = EDGE_CURVE ( 'NONE', #489, #31, #635, .T. ) ;
#422 = ORIENTED_EDGE ( 'NONE', *, *, #197, .F. ) ;
#423 = FACE_BOUND ( 'NONE', #63, .T. ) ;
#424 = VECTOR ( 'NONE', #116, 1000.000000000000000 ) ;
#425 = EDGE_LOOP ( 'NONE', ( #153, #551 ) ) ;
#426 = VECTOR ( 'NONE', #120, 1000.000000000000000 ) ;
#427 = FACE_OUTER_BOUND ( 'NONE', #405, .T. ) ;
#428 = FILL_AREA_STYLE_COLOUR ( '', #118 ) ;
#429 = FACE_OUTER_BOUND ( 'NONE', #654, .T. ) ;
#430 = EDGE_CURVE ( 'NONE', #128, #716, #802, .T. ) ;
#431 = DIRECTION ( 'NONE',  ( 1.000000000000000000, 1.192622389734054631E-16, -0.000000000000000000 ) ) ;
#432 = DIRECTION ( 'NONE',  ( 0.000000000000000000, -0.000000000000000000, -1.000000000000000000 ) ) ;
#433 = STYLED_ITEM ( 'NONE', ( #377 ), #443 ) ;
#434 = AXIS2_PLACEMENT_3D ( 'NONE', #650, #76, #519 ) ;
#435 = CARTESIAN_POINT ( 'NONE',  ( 68.00000000000000000, 0.000000000000000000, -10.00000000000000000 ) ) ;
#436 = AXIS2_PLACEMENT_3D ( 'NONE', #474, #22, #602 ) ;
#437 = VECTOR ( 'NONE', #808, 1000.000000000000000 ) ;
#438 = CARTESIAN_POINT ( 'NONE',  ( 70.00000000000000000, 2.000000000000001776, 10.00000000000000000 ) ) ;
#439 = CARTESIAN_POINT ( 'NONE',  ( 40.00000000000000711, 1.999999999999997780, 0.000000000000000000 ) ) ;
#440 = ORIENTED_EDGE ( 'NONE', *, *, #709, .T. ) ;
#441 = ORIENTED_EDGE ( 'NONE', *, *, #580, .F. ) ;
#442 = EDGE_CURVE ( 'NONE', #779, #451, #581, .T. ) ;
#443 = MANIFOLD_SOLID_BREP ( '圆角1', #43 ) ;
#444 = EDGE_LOOP ( 'NONE', ( #770, #720, #60, #274 ) ) ;
#445 = AXIS2_PLACEMENT_3D ( 'NONE', #257, #305, #142 ) ;
#446 = EDGE_LOOP ( 'NONE', ( #459, #441, #19, #790 ) ) ;
#447 = CARTESIAN_POINT ( 'NONE',  ( 68.00000000000001421, 15.00000000000000355, 10.00000000000000000 ) ) ;
#448 = ORIENTED_EDGE ( 'NONE', *, *, #580, .T. ) ;
#449 = ORIENTED_EDGE ( 'NONE', *, *, #68, .T. ) ;
#450 = FACE_OUTER_BOUND ( 'NONE', #820, .T. ) ;
#451 = VERTEX_POINT ( 'NONE', #179 ) ;
#452 = DIRECTION ( 'NONE',  ( -0.000000000000000000, 1.000000000000000000, -0.000000000000000000 ) ) ;
#453 = DIRECTION ( 'NONE',  ( 0.000000000000000000, -1.000000000000000000, 0.000000000000000000 ) ) ;
#454 = DIRECTION ( 'NONE',  ( -0.000000000000000000, -0.000000000000000000, -1.000000000000000000 ) ) ;
#455 = ORIENTED_EDGE ( 'NONE', *, *, #738, .T. ) ;
#456 = CARTESIAN_POINT ( 'NONE',  ( 70.00000000000000000, 15.00000000000000355, -8.000000000000005329 ) ) ;
#457 = EDGE_CURVE ( 'NONE', #213, #38, #565, .T. ) ;
#458 = ORIENTED_EDGE ( 'NONE', *, *, #567, .T. ) ;
#459 = ORIENTED_EDGE ( 'NONE', *, *, #421, .F. ) ;
#460 = LINE ( 'NONE', #767, #761 ) ;
#461 = EDGE_LOOP ( 'NONE', ( #649, #378 ) ) ;
#462 = AXIS2_PLACEMENT_3D ( 'NONE', #642, #766, #199 ) ;
#463 = CARTESIAN_POINT ( 'NONE',  ( 30.00000000000000000, 4.000000000000000000, 10.00000000000000000 ) ) ;
#464 = ORIENTED_EDGE ( 'NONE', *, *, #252, .T. ) ;
#465 = CARTESIAN_POINT ( 'NONE',  ( 8.000000000000000000, 3.000000000000000000, 5.000000000000000000 ) ) ;
#466 = VERTEX_POINT ( 'NONE', #497 ) ;
#467 = APPLICATION_CONTEXT ( 'automotive_design' ) ;
#468 = EDGE_CURVE ( 'NONE', #408, #45, #575, .T. ) ;
#469 = DIRECTION ( 'NONE',  ( 1.000000000000000000, 0.000000000000000000, 0.000000000000000000 ) ) ;
#470 = ORIENTED_EDGE ( 'NONE', *, *, #17, .F. ) ;
#471 = LINE ( 'NONE', #788, #397 ) ;
#472 = EDGE_CURVE ( 'NONE', #674, #708, #39, .T. ) ;
#473 = ORIENTED_EDGE ( 'NONE', *, *, #57, .T. ) ;
#474 = CARTESIAN_POINT ( 'NONE',  ( 30.00000000000000000, 4.000000000000000000, 10.00000000000000000 ) ) ;
#475 = PLANE ( 'NONE',  #244 ) ;
#476 = ORIENTED_EDGE ( 'NONE', *, *, #616, .F. ) ;
#477 = AXIS2_PLACEMENT_3D ( 'NONE', #202, #452, #198 ) ;
#478 = AXIS2_PLACEMENT_3D ( 'NONE', #331, #4, #710 ) ;
#479 = FACE_BOUND ( 'NONE', #291, .T. ) ;
#480 = CARTESIAN_POINT ( 'NONE',  ( 0.000000000000000000, 10.00000000000000000, 7.999999999999998224 ) ) ;
#481 = VECTOR ( 'NONE', #594, 1000.000000000000000 ) ;
#482 = AXIS2_PLACEMENT_3D ( 'NONE', #284, #539, #717 ) ;
#483 = EDGE_LOOP ( 'NONE', ( #394, #65, #458, #88 ) ) ;
#484 = ADVANCED_FACE ( 'NONE', ( #771, #82 ), #525, .F. ) ;
#485 = FACE_BOUND ( 'NONE', #425, .T. ) ;
#486 = DIRECTION ( 'NONE',  ( -0.000000000000000000, 1.000000000000000000, -0.000000000000000000 ) ) ;
#487 = ORIENTED_EDGE ( 'NONE', *, *, #26, .T. ) ;
#488 = DIRECTION ( 'NONE',  ( -1.000000000000000000, 0.000000000000000000, 0.000000000000000000 ) ) ;
#489 = VERTEX_POINT ( 'NONE', #321 ) ;
#490 = LINE ( 'NONE', #181, #312 ) ;
#491 = VECTOR ( 'NONE', #703, 1000.000000000000000 ) ;
#492 = LINE ( 'NONE', #630, #531 ) ;
#493 = SURFACE_STYLE_USAGE ( .BOTH. , #238 ) ;
#494 = EDGE_CURVE ( 'NONE', #335, #408, #561, .T. ) ;
#495 = CARTESIAN_POINT ( 'NONE',  ( 8.000000000000000000, 2.000000000000000000, 0.000000000000000000 ) ) ;
#496 = CARTESIAN_POINT ( 'NONE',  ( 70.00000000000000000, 10.00000000000000178, 10.00000000000000000 ) ) ;
#497 = CARTESIAN_POINT ( 'NONE',  ( 70.00000000000000000, 15.00000000000000355, 7.999999999999991118 ) ) ;
#498 = DIRECTION ( 'NONE',  ( 0.000000000000000000, -1.000000000000000000, 0.000000000000000000 ) ) ;
#499 = FACE_OUTER_BOUND ( 'NONE', #693, .T. ) ;
#500 = VECTOR ( 'NONE', #208, 1000.000000000000000 ) ;
#501 = AXIS2_PLACEMENT_3D ( 'NONE', #289, #655, #219 ) ;
#502 = VECTOR ( 'NONE', #569, 1000.000000000000000 ) ;
#503 = VECTOR ( 'NONE', #618, 1000.000000000000000 ) ;
#504 = CARTESIAN_POINT ( 'NONE',  ( 70.00000000000000000, 2.000000000000001776, -8.000000000000005329 ) ) ;
#505 = EDGE_CURVE ( 'NONE', #418, #264, #529, .T. ) ;
#506 = ORIENTED_EDGE ( 'NONE', *, *, #285, .F. ) ;
#507 = PRODUCT_CONTEXT ( 'NONE', #248, 'mechanical' ) ;
#508 = DIRECTION ( 'NONE',  ( -1.000000000000000000, -0.000000000000000000, -0.000000000000000000 ) ) ;
#509 = ORIENTED_EDGE ( 'NONE', *, *, #505, .T. ) ;
#510 = LINE ( 'NONE', #765, #502 ) ;
#511 = CARTESIAN_POINT ( 'NONE',  ( 40.00000000000000711, 10.00000000000000000, 0.000000000000000000 ) ) ;
#512 = DIRECTION ( 'NONE',  ( 0.000000000000000000, -0.000000000000000000, 1.000000000000000000 ) ) ;
#513 = VECTOR ( 'NONE', #64, 1000.000000000000000 ) ;
#514 = AXIS2_PLACEMENT_3D ( 'NONE', #511, #453, #570 ) ;
#515 = ORIENTED_EDGE ( 'NONE', *, *, #416, .T. ) ;
#516 = DIRECTION ( 'NONE',  ( 0.000000000000000000, -1.000000000000000000, 0.000000000000000000 ) ) ;
#517 = DIRECTION ( 'NONE',  ( 0.000000000000000000, -1.000000000000000000, 0.000000000000000000 ) ) ;
#518 = VECTOR ( 'NONE', #362, 1000.000000000000000 ) ;
#519 = DIRECTION ( 'NONE',  ( 0.000000000000000000, 0.000000000000000000, -1.000000000000000000 ) ) ;
#520 = ORIENTED_EDGE ( 'NONE', *, *, #555, .F. ) ;
#521 = ADVANCED_FACE ( 'NONE', ( #681 ), #393, .F. ) ;
#522 = CARTESIAN_POINT ( 'NONE',  ( 8.000000000000000000, 3.000000000000000000, -5.000000000000000000 ) ) ;
#523 = SHAPE_DEFINITION_REPRESENTATION ( #679, #90 ) ;
#524 = ORIENTED_EDGE ( 'NONE', *, *, #234, .T. ) ;
#525 = PLANE ( 'NONE',  #749 ) ;
#526 = ORIENTED_EDGE ( 'NONE', *, *, #746, .T. ) ;
#527 = CARTESIAN_POINT ( 'NONE',  ( -2.449293598294705921E-16, 4.000000000000000000, -10.00000000000000000 ) ) ;
#528 = ORIENTED_EDGE ( 'NONE', *, *, #607, .T. ) ;
#529 = LINE ( 'NONE', #263, #180 ) ;
#530 = ORIENTED_EDGE ( 'NONE', *, *, #472, .F. ) ;
#531 = VECTOR ( 'NONE', #119, 999.9999999999998863 ) ;
#532 = DIRECTION ( 'NONE',  ( 1.000000000000000000, 2.065146995210486667E-16, 0.000000000000000000 ) ) ;
#533 = EDGE_LOOP ( 'NONE', ( #196, #725, #524, #103 ) ) ;
#534 = EDGE_CURVE ( 'NONE', #604, #337, #460, .T. ) ;
#535 = DIRECTION ( 'NONE',  ( 4.082155997157842586E-17, 1.000000000000000000, 0.000000000000000000 ) ) ;
#536 = AXIS2_PLACEMENT_3D ( 'NONE', #172, #560, #432 ) ;
#537 = VERTEX_POINT ( 'NONE', #268 ) ;
#538 = CARTESIAN_POINT ( 'NONE',  ( 70.00000000000000000, 2.000000000000001776, -10.00000000000000000 ) ) ;
#539 = DIRECTION ( 'NONE',  ( 0.000000000000000000, -1.000000000000000000, 0.000000000000000000 ) ) ;
#540 = ORIENTED_EDGE ( 'NONE', *, *, #285, .T. ) ;
#541 = DIRECTION ( 'NONE',  ( -1.000000000000000000, -0.000000000000000000, -0.000000000000000000 ) ) ;
#542 = DIRECTION ( 'NONE',  ( 1.000000000000000000, 0.000000000000000000, 0.000000000000000000 ) ) ;
#543 = ORIENTED_EDGE ( 'NONE', *, *, #505, .F. ) ;
#544 = MECHANICAL_DESIGN_GEOMETRIC_PRESENTATION_REPRESENTATION (  '', ( #433 ), #328 ) ;
#545 = VECTOR ( 'NONE', #729, 1000.000000000000000 ) ;
#546 = FACE_BOUND ( 'NONE', #461, .T. ) ;
#547 = DIRECTION ( 'NONE',  ( -0.000000000000000000, 0.000000000000000000, 1.000000000000000000 ) ) ;
#548 = AXIS2_PLACEMENT_3D ( 'NONE', #170, #229, #294 ) ;
#549 = CYLINDRICAL_SURFACE ( 'NONE', #357, 3.100000000000000533 ) ;
#550 = DIRECTION ( 'NONE',  ( 1.097127629939990044E-16, -1.000000000000000000, -0.000000000000000000 ) ) ;
#551 = ORIENTED_EDGE ( 'NONE', *, *, #17, .T. ) ;
#552 = LINE ( 'NONE', #797, #368 ) ;
#553 = ADVANCED_FACE ( 'NONE', ( #20 ), #705, .F. ) ;
#554 = DIRECTION ( 'NONE',  ( 1.097127629939990044E-16, -1.000000000000000000, -0.000000000000000000 ) ) ;
#555 = EDGE_CURVE ( 'NONE', #136, #74, #410, .T. ) ;
#556 = LINE ( 'NONE', #241, #671 ) ;
#557 = DIRECTION ( 'NONE',  ( -0.7071067811865439090, -8.433113791758509688E-17, 0.7071067811865512365 ) ) ;
#558 = EDGE_CURVE ( 'NONE', #136, #451, #273, .T. ) ;
#559 = CARTESIAN_POINT ( 'NONE',  ( 60.00000000000001421, 2.000000000000000000, 0.000000000000000000 ) ) ;
#560 = DIRECTION ( 'NONE',  ( 0.000000000000000000, -1.000000000000000000, 0.000000000000000000 ) ) ;
#561 = LINE ( 'NONE', #9, #141 ) ;
#562 = DIRECTION ( 'NONE',  ( 0.000000000000000000, 1.000000000000000000, 0.000000000000000000 ) ) ;
#563 = CARTESIAN_POINT ( 'NONE',  ( -2.449293598294705921E-16, 4.000000000000000000, -8.000000000000005329 ) ) ;
#564 = EDGE_CURVE ( 'NONE', #537, #145, #336, .T. ) ;
#565 = LINE ( 'NONE', #383, #369 ) ;
#566 = CARTESIAN_POINT ( 'NONE',  ( 68.00000000000001421, 2.000000000000001332, 10.00000000000000000 ) ) ;
#567 = EDGE_CURVE ( 'NONE', #799, #716, #211, .T. ) ;
#568 = VECTOR ( 'NONE', #232, 1000.000000000000000 ) ;
#569 = DIRECTION ( 'NONE',  ( -4.082155997157842586E-17, -1.000000000000000000, 0.000000000000000000 ) ) ;
#570 = DIRECTION ( 'NONE',  ( 0.000000000000000000, 0.000000000000000000, -1.000000000000000000 ) ) ;
#571 = EDGE_LOOP ( 'NONE', ( #352, #663, #272, #86 ) ) ;
#572 = CYLINDRICAL_SURFACE ( 'NONE', #477, 5.000000000000000000 ) ;
#573 = ORIENTED_EDGE ( 'NONE', *, *, #564, .T. ) ;
#574 = ORIENTED_EDGE ( 'NONE', *, *, #55, .F. ) ;
#575 = LINE ( 'NONE', #137, #791 ) ;
#576 = ORIENTED_EDGE ( 'NONE', *, *, #84, .T. ) ;
#577 = DIRECTION ( 'NONE',  ( 1.000000000000000000, 0.000000000000000000, 0.000000000000000000 ) ) ;
#578 = FACE_OUTER_BOUND ( 'NONE', #282, .T. ) ;
#579 = CYLINDRICAL_SURFACE ( 'NONE', #290, 2.099999999999997868 ) ;
#580 = EDGE_CURVE ( 'NONE', #145, #489, #745, .T. ) ;
#581 = CIRCLE ( 'NONE', #222, 2.099999999999997868 ) ;
#582 = ORIENTED_EDGE ( 'NONE', *, *, #297, .T. ) ;
#583 = CARTESIAN_POINT ( 'NONE',  ( 64.00000000000000000, 15.00000000000000355, 10.00000000000000000 ) ) ;
#584 = PRESENTATION_LAYER_ASSIGNMENT (  '', '', ( #127 ) ) ;
#585 = ORIENTED_EDGE ( 'NONE', *, *, #796, .T. ) ;
#586 = ORIENTED_EDGE ( 'NONE', *, *, #732, .F. ) ;
#587 = ADVANCED_FACE ( 'NONE', ( #69 ), #301, .F. ) ;
#588 = DIRECTION ( 'NONE',  ( 0.000000000000000000, -1.000000000000000000, 0.000000000000000000 ) ) ;
#589 = DIRECTION ( 'NONE',  ( 0.7071067811865489050, -0.000000000000000000, -0.7071067811865462405 ) ) ;
#590 = EDGE_LOOP ( 'NONE', ( #634, #161, #387, #256 ) ) ;
#591 = EDGE_CURVE ( 'NONE', #45, #316, #701, .T. ) ;
#592 = CARTESIAN_POINT ( 'NONE',  ( 64.00000000000000000, 15.00000000000000355, 10.00000000000000000 ) ) ;
#593 = VERTEX_POINT ( 'NONE', #194 ) ;
#594 = DIRECTION ( 'NONE',  ( -0.000000000000000000, -0.000000000000000000, -1.000000000000000000 ) ) ;
#595 = ADVANCED_FACE ( 'NONE', ( #450 ), #579, .F. ) ;
#596 = ORIENTED_EDGE ( 'NONE', *, *, #616, .T. ) ;
#597 = CIRCLE ( 'NONE', #235, 5.000000000000000000 ) ;
#598 = CARTESIAN_POINT ( 'NONE',  ( 0.000000000000000000, 10.00000000000000000, 7.999999999999998224 ) ) ;
#599 = CARTESIAN_POINT ( 'NONE',  ( 8.000000000000000000, 1.999999999999994449, 0.000000000000000000 ) ) ;
#600 =( GEOMETRIC_REPRESENTATION_CONTEXT ( 3 ) GLOBAL_UNCERTAINTY_ASSIGNED_CONTEXT ( ( #217 ) ) GLOBAL_UNIT_ASSIGNED_CONTEXT ( ( #631, #759, #637 ) ) REPRESENTATION_CONTEXT ( 'NONE', 'WORKASPACE' ) );
#601 = ORIENTED_EDGE ( 'NONE', *, *, #421, .T. ) ;
#602 = DIRECTION ( 'NONE',  ( -0.000000000000000000, 0.000000000000000000, -1.000000000000000000 ) ) ;
#603 = CARTESIAN_POINT ( 'NONE',  ( 40.00000000000000711, 15.00000000000000888, 0.000000000000000000 ) ) ;
#604 = VERTEX_POINT ( 'NONE', #36 ) ;
#605 = LINE ( 'NONE', #35, #500 ) ;
#606 = DIRECTION ( 'NONE',  ( 1.000000000000000000, 1.398970545142586048E-16, 0.000000000000000000 ) ) ;
#607 = EDGE_CURVE ( 'NONE', #138, #31, #471, .T. ) ;
#608 = ORIENTED_EDGE ( 'NONE', *, *, #781, .F. ) ;
#609 = CIRCLE ( 'NONE', #78, 6.000000000000000000 ) ;
#610 = AXIS2_PLACEMENT_3D ( 'NONE', #388, #643, #775 ) ;
#611 = DIRECTION ( 'NONE',  ( -1.000000000000000000, -1.192622389734054631E-16, 0.000000000000000000 ) ) ;
#612 = CARTESIAN_POINT ( 'NONE',  ( 8.000000000000000000, 2.000000000000000000, 0.000000000000000000 ) ) ;
#613 = AXIS2_PLACEMENT_3D ( 'NONE', #599, #101, #606 ) ;
#614 = PRODUCT ( '传送带轴固定调节座', '传送带轴固定调节座', '', ( #507 ) ) ;
#615 = PLANE ( 'NONE',  #548 ) ;
#616 = EDGE_CURVE ( 'NONE', #708, #674, #115, .T. ) ;
#617 = PLANE ( 'NONE',  #59 ) ;
#618 = DIRECTION ( 'NONE',  ( 1.000000000000000000, 0.000000000000000000, 0.000000000000000000 ) ) ;
#619 = AXIS2_PLACEMENT_3D ( 'NONE', #345, #350, #794 ) ;
#620 = DIRECTION ( 'NONE',  ( 0.000000000000000000, 0.000000000000000000, -1.000000000000000000 ) ) ;
#621 = VECTOR ( 'NONE', #251, 1000.000000000000000 ) ;
#622 = CARTESIAN_POINT ( 'NONE',  ( 2.000000000000001776, -8.164311994315692567E-17, -10.00000000000000000 ) ) ;
#623 = CARTESIAN_POINT ( 'NONE',  ( 8.000000000000000000, 4.000000000000000000, 0.000000000000000000 ) ) ;
#624 = CYLINDRICAL_SURFACE ( 'NONE', #413, 2.099999999999997868 ) ;
#625 = EDGE_CURVE ( 'NONE', #640, #138, #340, .T. ) ;
#626 = CARTESIAN_POINT ( 'NONE',  ( 64.00000000000000000, 15.00000000000000355, 10.00000000000000000 ) ) ;
#627 = DIRECTION ( 'NONE',  ( 1.000000000000000000, -0.000000000000000000, 1.224646799147353207E-16 ) ) ;
#628 = ORIENTED_EDGE ( 'NONE', *, *, #135, .F. ) ;
#629 = VECTOR ( 'NONE', #516, 1000.000000000000000 ) ;
#630 = CARTESIAN_POINT ( 'NONE',  ( 68.00000000000001421, 15.00000000000000355, 10.00000000000000000 ) ) ;
#631 =( LENGTH_UNIT ( ) NAMED_UNIT ( * ) SI_UNIT ( .MILLI., .METRE. ) );
#632 = CARTESIAN_POINT ( 'NONE',  ( 62.10000000000000853, 2.000000000000000444, 0.000000000000000000 ) ) ;
#633 = CARTESIAN_POINT ( 'NONE',  ( -2.449293598294705921E-16, 4.000000000000000000, 10.00000000000000000 ) ) ;
#634 = ORIENTED_EDGE ( 'NONE', *, *, #534, .T. ) ;
#635 = LINE ( 'NONE', #390, #694 ) ;
#636 = EDGE_CURVE ( 'NONE', #334, #716, #75, .T. ) ;
#637 =( NAMED_UNIT ( * ) SI_UNIT ( $, .STERADIAN. ) SOLID_ANGLE_UNIT ( ) );
#638 = ORIENTED_EDGE ( 'NONE', *, *, #163, .T. ) ;
#639 = CARTESIAN_POINT ( 'NONE',  ( 42.10000000000000853, 15.00000000000000888, 0.000000000000000000 ) ) ;
#640 = VERTEX_POINT ( 'NONE', #407 ) ;
#641 = LINE ( 'NONE', #583, #629 ) ;
#642 = CARTESIAN_POINT ( 'NONE',  ( 68.00000000000001421, 0.000000000000000000, 10.00000000000000000 ) ) ;
#643 = DIRECTION ( 'NONE',  ( 1.000000000000000000, -4.082155997157842586E-17, 0.000000000000000000 ) ) ;
#644 = AXIS2_PLACEMENT_3D ( 'NONE', #50, #356, #747 ) ;
#645 = VECTOR ( 'NONE', #53, 1000.000000000000000 ) ;
#646 = ORIENTED_EDGE ( 'NONE', *, *, #173, .F. ) ;
#647 =( NAMED_UNIT ( * ) SI_UNIT ( $, .STERADIAN. ) SOLID_ANGLE_UNIT ( ) );
#648 = AXIS2_PLACEMENT_3D ( 'NONE', #783, #338, #532 ) ;
#649 = ORIENTED_EDGE ( 'NONE', *, *, #727, .T. ) ;
#650 = CARTESIAN_POINT ( 'NONE',  ( 7.999999999999998224, 10.00000000000000000, 0.000000000000000000 ) ) ;
#651 = EDGE_CURVE ( 'NONE', #322, #334, #358, .T. ) ;
#652 = EDGE_LOOP ( 'NONE', ( #93, #186, #455, #188, #326, #515, #21, #347 ) ) ;
#653 = DIRECTION ( 'NONE',  ( -1.000000000000000000, 0.000000000000000000, 0.000000000000000000 ) ) ;
#654 = EDGE_LOOP ( 'NONE', ( #96, #576, #140, #156, #319, #509 ) ) ;
#655 = DIRECTION ( 'NONE',  ( -0.000000000000000000, -1.000000000000000000, -0.000000000000000000 ) ) ;
#656 = ORIENTED_EDGE ( 'NONE', *, *, #29, .F. ) ;
#657 = FACE_OUTER_BOUND ( 'NONE', #384, .T. ) ;
#658 = PLANE ( 'NONE',  #52 ) ;
#659 = ORIENTED_EDGE ( 'NONE', *, *, #651, .T. ) ;
#660 = VECTOR ( 'NONE', #810, 1000.000000000000000 ) ;
#661 = CARTESIAN_POINT ( 'NONE',  ( 8.000000000000000000, 4.000000000000000000, 0.000000000000000000 ) ) ;
#662 = DIRECTION ( 'NONE',  ( 0.000000000000000000, 0.000000000000000000, 1.000000000000000000 ) ) ;
#663 = ORIENTED_EDGE ( 'NONE', *, *, #625, .F. ) ;
#664 = CARTESIAN_POINT ( 'NONE',  ( 1.999999999999994449, 4.000000000000000000, 10.00000000000000000 ) ) ;
#665 = ADVANCED_FACE ( 'NONE', ( #164 ), #475, .F. ) ;
#666 = CARTESIAN_POINT ( 'NONE',  ( 11.09999999999999964, 1.999999999999994893, 0.000000000000000000 ) ) ;
#667 = ORIENTED_EDGE ( 'NONE', *, *, #534, .F. ) ;
#668 = DIRECTION ( 'NONE',  ( 0.000000000000000000, 1.000000000000000000, 0.000000000000000000 ) ) ;
#669 = DIRECTION ( 'NONE',  ( 1.000000000000000000, 0.000000000000000000, 0.000000000000000000 ) ) ;
#670 = ORIENTED_EDGE ( 'NONE', *, *, #293, .F. ) ;
#671 = VECTOR ( 'NONE', #498, 1000.000000000000000 ) ;
#672 = CYLINDRICAL_SURFACE ( 'NONE', #644, 3.100000000000000533 ) ;
#673 = CARTESIAN_POINT ( 'NONE',  ( 8.000000000000000000, 2.000000000000000000, 0.000000000000000000 ) ) ;
#674 = VERTEX_POINT ( 'NONE', #216 ) ;
#675 = EDGE_CURVE ( 'NONE', #8, #702, #712, .T. ) ;
#676 = CARTESIAN_POINT ( 'NONE',  ( 30.00000000000000000, 4.000000000000000000, 10.00000000000000000 ) ) ;
#677 = CARTESIAN_POINT ( 'NONE',  ( -2.449293598294705921E-16, 4.000000000000000000, 10.00000000000000000 ) ) ;
#678 = DIRECTION ( 'NONE',  ( 0.000000000000000000, 0.000000000000000000, 1.000000000000000000 ) ) ;
#679 = PRODUCT_DEFINITION_SHAPE ( 'NONE', 'NONE',  #71 ) ;
#680 = DIRECTION ( 'NONE',  ( 0.000000000000000000, 0.000000000000000000, -1.000000000000000000 ) ) ;
#681 = FACE_OUTER_BOUND ( 'NONE', #760, .T. ) ;
#682 = CARTESIAN_POINT ( 'NONE',  ( 30.00000000000000000, 1.999999999999997113, -10.00000000000000000 ) ) ;
#683 = COLOUR_RGB ( '',1.000000000000000000, 1.000000000000000000, 1.000000000000000000 ) ;
#684 = VECTOR ( 'NONE', #372, 1000.000000000000000 ) ;
#685 = CIRCLE ( 'NONE', #740, 5.000000000000000000 ) ;
#686 = LINE ( 'NONE', #42, #748 ) ;
#687 = SURFACE_SIDE_STYLE ('',( #245 ) ) ;
#688 = ORIENTED_EDGE ( 'NONE', *, *, #26, .F. ) ;
#689 = ADVANCED_FACE ( 'NONE', ( #92 ), #227, .T. ) ;
#690 =( NAMED_UNIT ( * ) PLANE_ANGLE_UNIT ( ) SI_UNIT ( $, .RADIAN. ) );
#691 = ADVANCED_FACE ( 'NONE', ( #44 ), #733, .F. ) ;
#692 = ORIENTED_EDGE ( 'NONE', *, *, #675, .F. ) ;
#693 = EDGE_LOOP ( 'NONE', ( #169, #209, #131, #586, #247, #206 ) ) ;
#694 = VECTOR ( 'NONE', #758, 999.9999999999998863 ) ;
#695 = CARTESIAN_POINT ( 'NONE',  ( 8.000000000000000000, 3.000000000000000000, 0.000000000000000000 ) ) ;
#696 = ORIENTED_EDGE ( 'NONE', *, *, #252, .F. ) ;
#697 = ADVANCED_FACE ( 'NONE', ( #33 ), #658, .T. ) ;
#698 = AXIS2_PLACEMENT_3D ( 'NONE', #612, #486, #662 ) ;
#699 = DIRECTION ( 'NONE',  ( 1.000000000000000000, 0.000000000000000000, -0.000000000000000000 ) ) ;
#700 = ORIENTED_EDGE ( 'NONE', *, *, #89, .F. ) ;
#701 = LINE ( 'NONE', #435, #513 ) ;
#702 = VERTEX_POINT ( 'NONE', #666 ) ;
#703 = DIRECTION ( 'NONE',  ( 0.000000000000000000, -1.000000000000000000, 0.000000000000000000 ) ) ;
#704 = LINE ( 'NONE', #463, #113 ) ;
#705 = PLANE ( 'NONE',  #478 ) ;
#706 = ORIENTED_EDGE ( 'NONE', *, *, #567, .F. ) ;
#707 = ORIENTED_EDGE ( 'NONE', *, *, #636, .F. ) ;
#708 = VERTEX_POINT ( 'NONE', #95 ) ;
#709 = EDGE_CURVE ( 'NONE', #702, #8, #346, .T. ) ;
#710 = DIRECTION ( 'NONE',  ( -4.082155997157842586E-17, -1.000000000000000000, 0.000000000000000000 ) ) ;
#711 = AXIS2_PLACEMENT_3D ( 'NONE', #559, #174, #743 ) ;
#712 = CIRCLE ( 'NONE', #726, 3.100000000000000533 ) ;
#713 = ORIENTED_EDGE ( 'NONE', *, *, #809, .F. ) ;
#714 = AXIS2_PLACEMENT_3D ( 'NONE', #221, #28, #353 ) ;
#715 = CARTESIAN_POINT ( 'NONE',  ( 4.899999999999997691, 15.00000000000000533, 3.796405077356795411E-16 ) ) ;
#716 = VERTEX_POINT ( 'NONE', #465 ) ;
#717 = DIRECTION ( 'NONE',  ( 0.000000000000000000, 0.000000000000000000, -1.000000000000000000 ) ) ;
#718 = EDGE_LOOP ( 'NONE', ( #296, #692 ) ) ;
#719 = DIRECTION ( 'NONE',  ( 1.097127629939990044E-16, -1.000000000000000000, 0.000000000000000000 ) ) ;
#720 = ORIENTED_EDGE ( 'NONE', *, *, #494, .T. ) ;
#721 = DIRECTION ( 'NONE',  ( 1.097127629939990044E-16, -1.000000000000000000, -0.000000000000000000 ) ) ;
#722 = EDGE_LOOP ( 'NONE', ( #476, #751, #70, #688 ) ) ;
#723 = CARTESIAN_POINT ( 'NONE',  ( 0.000000000000000000, 10.00000000000000000, 10.00000000000000000 ) ) ;
#724 = DIRECTION ( 'NONE',  ( -1.000000000000000000, 0.000000000000000000, 0.000000000000000000 ) ) ;
#725 = ORIENTED_EDGE ( 'NONE', *, *, #781, .T. ) ;
#726 = AXIS2_PLACEMENT_3D ( 'NONE', #412, #798, #159 ) ;
#727 = EDGE_CURVE ( 'NONE', #213, #730, #195, .T. ) ;
#728 = CARTESIAN_POINT ( 'NONE',  ( 37.90000000000001279, 10.00000000000000000, 2.571758278209438013E-16 ) ) ;
#729 = DIRECTION ( 'NONE',  ( -0.000000000000000000, 1.000000000000000000, -0.000000000000000000 ) ) ;
#730 = VERTEX_POINT ( 'NONE', #30 ) ;
#731 = DIRECTION ( 'NONE',  ( -0.7071067811865462405, 0.000000000000000000, -0.7071067811865489050 ) ) ;
#732 = EDGE_CURVE ( 'NONE', #133, #604, #281, .T. ) ;
#733 = CYLINDRICAL_SURFACE ( 'NONE', #303, 2.099999999999997868 ) ;
#734 = ORIENTED_EDGE ( 'NONE', *, *, #197, .T. ) ;
#735 = DIRECTION ( 'NONE',  ( 1.097127629939990044E-16, -1.000000000000000000, -0.000000000000000000 ) ) ;
#736 = EDGE_CURVE ( 'NONE', #401, #335, #404, .T. ) ;
#737 = EDGE_LOOP ( 'NONE', ( #585, #573, #143, #574, #125, #473 ) ) ;
#738 = EDGE_CURVE ( 'NONE', #342, #133, #24, .T. ) ;
#739 = FACE_BOUND ( 'NONE', #165, .T. ) ;
#740 = AXIS2_PLACEMENT_3D ( 'NONE', #673, #105, #680 ) ;
#741 = PLANE ( 'NONE',  #288 ) ;
#742 = SURFACE_STYLE_FILL_AREA ( #804 ) ;
#743 = DIRECTION ( 'NONE',  ( 1.000000000000000000, 2.065146995210486667E-16, 0.000000000000000000 ) ) ;
#744 = LINE ( 'NONE', #233, #503 ) ;
#745 = LINE ( 'NONE', #622, #660 ) ;
#746 = EDGE_CURVE ( 'NONE', #31, #537, #354, .T. ) ;
#747 = DIRECTION ( 'NONE',  ( 1.000000000000000000, 0.000000000000000000, 0.000000000000000000 ) ) ;
#748 = VECTOR ( 'NONE', #361, 999.9999999999998863 ) ;
#749 = AXIS2_PLACEMENT_3D ( 'NONE', #633, #15, #512 ) ;
#750 = CARTESIAN_POINT ( 'NONE',  ( 60.00000000000001421, 15.00000000000001066, 0.000000000000000000 ) ) ;
#751 = ORIENTED_EDGE ( 'NONE', *, *, #160, .T. ) ;
#752 = EDGE_CURVE ( 'NONE', #774, #334, #171, .T. ) ;
#753 = ADVANCED_FACE ( 'NONE', ( #812 ), #624, .F. ) ;
#754 = CARTESIAN_POINT ( 'NONE',  ( 64.00000000000000000, 10.00000000000000000, -10.00000000000000000 ) ) ;
#755 = CARTESIAN_POINT ( 'NONE',  ( 0.000000000000000000, 10.00000000000000000, -8.000000000000005329 ) ) ;
#756 = EDGE_CURVE ( 'NONE', #322, #799, #685, .T. ) ;
#757 = ORIENTED_EDGE ( 'NONE', *, *, #55, .T. ) ;
#758 = DIRECTION ( 'NONE',  ( -0.7071067811865489050, -0.000000000000000000, 0.7071067811865462405 ) ) ;
#759 =( NAMED_UNIT ( * ) PLANE_ANGLE_UNIT ( ) SI_UNIT ( $, .RADIAN. ) );
#760 = EDGE_LOOP ( 'NONE', ( #528, #526, #786, #389 ) ) ;
#761 = VECTOR ( 'NONE', #200, 1000.000000000000000 ) ;
#762 = CARTESIAN_POINT ( 'NONE',  ( -2.449293598294705921E-16, 4.000000000000000000, -8.000000000000005329 ) ) ;
#763 = ORIENTED_EDGE ( 'NONE', *, *, #558, .F. ) ;
#764 = VECTOR ( 'NONE', #98, 1000.000000000000000 ) ;
#765 = CARTESIAN_POINT ( 'NONE',  ( 1.999999999999994449, 4.000000000000000000, 10.00000000000000000 ) ) ;
#766 = DIRECTION ( 'NONE',  ( 0.7071067811865512365, 0.000000000000000000, 0.7071067811865437980 ) ) ;
#767 = CARTESIAN_POINT ( 'NONE',  ( 64.00000000000000000, 15.00000000000000355, -10.00000000000000000 ) ) ;
#768 = ORIENTED_EDGE ( 'NONE', *, *, #168, .F. ) ;
#769 = DIRECTION ( 'NONE',  ( -0.000000000000000000, 0.000000000000000000, -1.000000000000000000 ) ) ;
#770 = ORIENTED_EDGE ( 'NONE', *, *, #736, .T. ) ;
#771 = FACE_BOUND ( 'NONE', #5, .T. ) ;
#772 = ORIENTED_EDGE ( 'NONE', *, *, #430, .T. ) ;
#773 = FACE_OUTER_BOUND ( 'NONE', #27, .T. ) ;
#774 = VERTEX_POINT ( 'NONE', #112 ) ;
#775 = DIRECTION ( 'NONE',  ( 4.082155997157842586E-17, 1.000000000000000000, 0.000000000000000000 ) ) ;
#776 = CIRCLE ( 'NONE', #714, 5.000000000000000000 ) ;
#777 = ORIENTED_EDGE ( 'NONE', *, *, #494, .F. ) ;
#778 = CARTESIAN_POINT ( 'NONE',  ( 60.00000000000001421, 2.000000000000000000, 0.000000000000000000 ) ) ;
#779 = VERTEX_POINT ( 'NONE', #304 ) ;
#780 = DIRECTION ( 'NONE',  ( 4.082155997157842586E-17, 1.000000000000000000, 0.000000000000000000 ) ) ;
#781 = EDGE_CURVE ( 'NONE', #730, #355, #311, .T. ) ;
#782 = ORIENTED_EDGE ( 'NONE', *, *, #29, .T. ) ;
#783 = CARTESIAN_POINT ( 'NONE',  ( 40.00000000000000711, 1.999999999999997780, 0.000000000000000000 ) ) ;
#784 = CARTESIAN_POINT ( 'NONE',  ( 70.00000000000000000, 15.00000000000000355, 10.00000000000000000 ) ) ;
#785 = EDGE_CURVE ( 'NONE', #99, #320, #744, .T. ) ;
#786 = ORIENTED_EDGE ( 'NONE', *, *, #796, .F. ) ;
#787 = LINE ( 'NONE', #415, #792 ) ;
#788 = CARTESIAN_POINT ( 'NONE',  ( 0.000000000000000000, 10.00000000000000000, 10.00000000000000000 ) ) ;
#789 = CIRCLE ( 'NONE', #139, 2.099999999999997868 ) ;
#790 = ORIENTED_EDGE ( 'NONE', *, *, #746, .F. ) ;
#791 = VECTOR ( 'NONE', #205, 999.9999999999998863 ) ;
#792 = VECTOR ( 'NONE', #419, 999.9999999999998863 ) ;
#793 = DIRECTION ( 'NONE',  ( -0.000000000000000000, -0.000000000000000000, -1.000000000000000000 ) ) ;
#794 = DIRECTION ( 'NONE',  ( 0.000000000000000000, 0.000000000000000000, -1.000000000000000000 ) ) ;
#795 = ORIENTED_EDGE ( 'NONE', *, *, #234, .F. ) ;
#796 = EDGE_CURVE ( 'NONE', #640, #537, #177, .T. ) ;
#797 = CARTESIAN_POINT ( 'NONE',  ( 70.00000000000000000, 2.000000000000001776, 10.00000000000000000 ) ) ;
#798 = DIRECTION ( 'NONE',  ( 1.097127629939990044E-16, -1.000000000000000000, 0.000000000000000000 ) ) ;
#799 = VERTEX_POINT ( 'NONE', #230 ) ;
#800 = DIRECTION ( 'NONE',  ( 0.000000000000000000, -0.000000000000000000, -1.000000000000000000 ) ) ;
#801 = CARTESIAN_POINT ( 'NONE',  ( 8.000000000000000000, 3.000000000000000000, -6.000000000000000000 ) ) ;
#802 = CIRCLE ( 'NONE', #246, 1.000000000000000000 ) ;
#803 = CARTESIAN_POINT ( 'NONE',  ( 8.000000000000000000, 2.000000000000000000, -5.000000000000000000 ) ) ;
#804 = FILL_AREA_STYLE ('',( #428 ) ) ;
#805 = PRODUCT_DEFINITION_FORMATION_WITH_SPECIFIED_SOURCE ( '任何', '', #614, .NOT_KNOWN. ) ;
#806 = FACE_OUTER_BOUND ( 'NONE', #269, .T. ) ;
#807 = ADVANCED_FACE ( 'NONE', ( #240 ), #109, .F. ) ;
#808 = DIRECTION ( 'NONE',  ( -4.082155997157842586E-17, -1.000000000000000000, 0.000000000000000000 ) ) ;
#809 = EDGE_CURVE ( 'NONE', #401, #593, #242, .T. ) ;
#810 = DIRECTION ( 'NONE',  ( 4.082155997157842586E-17, 1.000000000000000000, 0.000000000000000000 ) ) ;
#811 = DIRECTION ( 'NONE',  ( 0.000000000000000000, 1.000000000000000000, 0.000000000000000000 ) ) ;
#812 = FACE_OUTER_BOUND ( 'NONE', #149, .T. ) ;
#813 = FILL_AREA_STYLE ('',( #187 ) ) ;
#814 = AXIS2_PLACEMENT_3D ( 'NONE', #626, #699, #769 ) ;
#815 = ORIENTED_EDGE ( 'NONE', *, *, #84, .F. ) ;
#816 = LINE ( 'NONE', #385, #491 ) ;
#817 = ADVANCED_FACE ( 'NONE', ( #499 ), #365, .F. ) ;
#818 = DIRECTION ( 'NONE',  ( 1.000000000000000000, 0.000000000000000000, 0.000000000000000000 ) ) ;
#819 = CARTESIAN_POINT ( 'NONE',  ( 11.09999999999999787, 15.00000000000000533, 0.000000000000000000 ) ) ;
#820 = EDGE_LOOP ( 'NONE', ( #470, #638, #130, #763 ) ) ;
ENDSEC;
END-ISO-10303-21;
