ISO-10303-21;
HEADER;
FILE_DESCRIPTION (( 'STEP AP214' ),
    '1' );
FILE_NAME ('传送带轴固定座.step',
    '2023-08-15T02:58:44',
    ( '' ),
    ( '' ),
    'SwSTEP 2.0',
    'SolidWorks 2022',
    '' );
FILE_SCHEMA (( 'AUTOMOTIVE_DESIGN' ));
ENDSEC;

DATA;
#1 = FACE_BOUND ( 'NONE', #600, .T. ) ;
#2 = ADVANCED_FACE ( 'NONE', ( #631 ), #584, .F. ) ;
#3 = VECTOR ( 'NONE', #644, 1000.000000000000000 ) ;
#4 = CARTESIAN_POINT ( 'NONE',  ( 60.00000000000001421, 10.00000000000000888, 0.000000000000000000 ) ) ;
#5 = LINE ( 'NONE', #236, #528 ) ;
#6 = CARTESIAN_POINT ( 'NONE',  ( 8.000000000000000000, 2.000000000000000000, 0.000000000000000000 ) ) ;
#7 = CARTESIAN_POINT ( 'NONE',  ( -2.449293598294705921E-16, 4.000000000000000000, -8.000000000000012434 ) ) ;
#8 = CARTESIAN_POINT ( 'NONE',  ( 8.000000000000000000, 4.000000000000000000, 6.000000000000000000 ) ) ;
#9 = CARTESIAN_POINT ( 'NONE',  ( 40.00000000000000711, 1.999999999999997780, 0.000000000000000000 ) ) ;
#10 = ADVANCED_FACE ( 'NONE', ( #44 ), #162, .F. ) ;
#11 = CIRCLE ( 'NONE', #348, 3.100000000000000533 ) ;
#12 = ORIENTED_EDGE ( 'NONE', *, *, #284, .F. ) ;
#13 = EDGE_LOOP ( 'NONE', ( #618, #22, #399, #185 ) ) ;
#14 = CARTESIAN_POINT ( 'NONE',  ( 70.00000000000000000, 10.00000000000000178, -8.000000000000012434 ) ) ;
#15 = EDGE_CURVE ( 'NONE', #484, #143, #309, .T. ) ;
#16 = CLOSED_SHELL ( 'NONE', ( #2, #324, #46, #331, #591, #272, #295, #106, #480, #146, #412, #71, #753, #632, #407, #649, #10, #127, #134, #83, #382, #716, #261 ) ) ;
#17 = DIRECTION ( 'NONE',  ( 0.000000000000000000, -0.000000000000000000, 1.000000000000000000 ) ) ;
#18 = AXIS2_PLACEMENT_3D ( 'NONE', #471, #643, #474 ) ;
#19 = FACE_BOUND ( 'NONE', #388, .T. ) ;
#20 = PLANE ( 'NONE',  #706 ) ;
#21 = EDGE_LOOP ( 'NONE', ( #653, #593, #167, #91 ) ) ;
#22 = ORIENTED_EDGE ( 'NONE', *, *, #570, .F. ) ;
#23 = EDGE_CURVE ( 'NONE', #263, #308, #520, .T. ) ;
#24 = CARTESIAN_POINT ( 'NONE',  ( 68.00000000000000000, 10.00000000000000178, 10.00000000000000000 ) ) ;
#25 = DIRECTION ( 'NONE',  ( 0.000000000000000000, 0.000000000000000000, -1.000000000000000000 ) ) ;
#26 = SURFACE_STYLE_USAGE ( .BOTH. , #387 ) ;
#27 = VERTEX_POINT ( 'NONE', #220 ) ;
#28 = VECTOR ( 'NONE', #598, 1000.000000000000000 ) ;
#29 = CARTESIAN_POINT ( 'NONE',  ( 68.00000000000000000, 0.000000000000000000, 10.00000000000000000 ) ) ;
#30 = CARTESIAN_POINT ( 'NONE',  ( 1.999999999999987566, -8.164311994315634635E-17, 10.00000000000000000 ) ) ;
#31 = AXIS2_PLACEMENT_3D ( 'NONE', #54, #696, #289 ) ;
#32 = ORIENTED_EDGE ( 'NONE', *, *, #372, .F. ) ;
#33 = ORIENTED_EDGE ( 'NONE', *, *, #292, .F. ) ;
#34 = FACE_OUTER_BOUND ( 'NONE', #192, .T. ) ;
#35 = EDGE_CURVE ( 'NONE', #483, #610, #229, .T. ) ;
#36 = ORIENTED_EDGE ( 'NONE', *, *, #698, .F. ) ;
#37 = EDGE_LOOP ( 'NONE', ( #568, #666 ) ) ;
#38 = CARTESIAN_POINT ( 'NONE',  ( 8.000000000000000000, 2.000000000000000000, 0.000000000000000000 ) ) ;
#39 = ORIENTED_EDGE ( 'NONE', *, *, #559, .T. ) ;
#40 = ORIENTED_EDGE ( 'NONE', *, *, #77, .F. ) ;
#41 = CARTESIAN_POINT ( 'NONE',  ( 1.999999999999987566, 10.00000000000000000, 10.00000000000000000 ) ) ;
#42 = DIRECTION ( 'NONE',  ( -1.000000000000000000, -2.478176394252581387E-17, -0.000000000000000000 ) ) ;
#43 = DIRECTION ( 'NONE',  ( -0.000000000000000000, -0.000000000000000000, -1.000000000000000000 ) ) ;
#44 = FACE_OUTER_BOUND ( 'NONE', #249, .T. ) ;
#45 = FACE_OUTER_BOUND ( 'NONE', #670, .T. ) ;
#46 = ADVANCED_FACE ( 'NONE', ( #468 ), #694, .F. ) ;
#47 = FILL_AREA_STYLE_COLOUR ( '', #257 ) ;
#48 = ORIENTED_EDGE ( 'NONE', *, *, #90, .T. ) ;
#49 = CARTESIAN_POINT ( 'NONE',  ( 2.000000000000001776, 10.00000000000000000, -10.00000000000000000 ) ) ;
#50 = DIRECTION ( 'NONE',  ( 0.000000000000000000, 0.000000000000000000, 1.000000000000000000 ) ) ;
#51 = ORIENTED_EDGE ( 'NONE', *, *, #642, .F. ) ;
#52 = CIRCLE ( 'NONE', #482, 2.099999999999997868 ) ;
#53 = DIRECTION ( 'NONE',  ( 1.097127629939990044E-16, -1.000000000000000000, -0.000000000000000000 ) ) ;
#54 = CARTESIAN_POINT ( 'NONE',  ( 1.999999999999987566, -8.164311994315634635E-17, 10.00000000000000000 ) ) ;
#55 = VECTOR ( 'NONE', #93, 1000.000000000000000 ) ;
#56 = CARTESIAN_POINT ( 'NONE',  ( 70.00000000000000000, 2.000000000000001776, -10.00000000000000000 ) ) ;
#57 = DIRECTION ( 'NONE',  ( -0.7071067811865463515, -8.433113791758541736E-17, 0.7071067811865487940 ) ) ;
#58 = DIRECTION ( 'NONE',  ( 4.082155997157842586E-17, 1.000000000000000000, 0.000000000000000000 ) ) ;
#59 = CIRCLE ( 'NONE', #492, 6.000000000000000000 ) ;
#60 = DIRECTION ( 'NONE',  ( 0.7071067811865451302, 0.000000000000000000, -0.7071067811865500152 ) ) ;
#61 = AXIS2_PLACEMENT_3D ( 'NONE', #277, #744, #524 ) ;
#62 = CARTESIAN_POINT ( 'NONE',  ( 2.000000000000001332, 4.000000000000000000, -10.00000000000000000 ) ) ;
#63 = CARTESIAN_POINT ( 'NONE',  ( 40.00000000000000711, 10.00000000000000711, 0.000000000000000000 ) ) ;
#64 = VECTOR ( 'NONE', #43, 1000.000000000000000 ) ;
#65 = ORIENTED_EDGE ( 'NONE', *, *, #488, .T. ) ;
#66 = EDGE_CURVE ( 'NONE', #627, #558, #686, .T. ) ;
#67 = FACE_OUTER_BOUND ( 'NONE', #153, .T. ) ;
#68 = FACE_BOUND ( 'NONE', #318, .T. ) ;
#69 = ORIENTED_EDGE ( 'NONE', *, *, #578, .F. ) ;
#70 = ORIENTED_EDGE ( 'NONE', *, *, #705, .F. ) ;
#71 = ADVANCED_FACE ( 'NONE', ( #110 ), #224, .F. ) ;
#72 = PLANE ( 'NONE',  #250 ) ;
#73 = LINE ( 'NONE', #248, #286 ) ;
#74 = ORIENTED_EDGE ( 'NONE', *, *, #210, .F. ) ;
#75 = LINE ( 'NONE', #708, #449 ) ;
#76 = CARTESIAN_POINT ( 'NONE',  ( 8.000000000000000000, 3.000000000000000000, -6.000000000000000000 ) ) ;
#77 = EDGE_CURVE ( 'NONE', #308, #490, #195, .T. ) ;
#78 = ORIENTED_EDGE ( 'NONE', *, *, #35, .F. ) ;
#79 = CIRCLE ( 'NONE', #274, 2.099999999999997868 ) ;
#80 = PLANE ( 'NONE',  #360 ) ;
#81 = VECTOR ( 'NONE', #259, 1000.000000000000000 ) ;
#82 = DIRECTION ( 'NONE',  ( 0.000000000000000000, 0.000000000000000000, 1.000000000000000000 ) ) ;
#83 = ADVANCED_FACE ( 'NONE', ( #175 ), #470, .F. ) ;
#84 = LINE ( 'NONE', #29, #81 ) ;
#85 = DIRECTION ( 'NONE',  ( -4.082155997157842586E-17, -1.000000000000000000, 0.000000000000000000 ) ) ;
#86 = APPLICATION_PROTOCOL_DEFINITION ( 'draft international standard', 'automotive_design', 1998, #243 ) ;
#87 = EDGE_LOOP ( 'NONE', ( #414, #393, #172, #669 ) ) ;
#88 = CIRCLE ( 'NONE', #517, 3.100000000000000533 ) ;
#89 = DIRECTION ( 'NONE',  ( 1.000000000000000000, 0.000000000000000000, 0.000000000000000000 ) ) ;
#90 = EDGE_CURVE ( 'NONE', #490, #673, #299, .T. ) ;
#91 = ORIENTED_EDGE ( 'NONE', *, *, #725, .F. ) ;
#92 = VERTEX_POINT ( 'NONE', #656 ) ;
#93 = DIRECTION ( 'NONE',  ( 0.000000000000000000, -1.000000000000000000, 0.000000000000000000 ) ) ;
#94 = PRESENTATION_LAYER_ASSIGNMENT (  '', '', ( #405 ) ) ;
#95 =( NAMED_UNIT ( * ) SI_UNIT ( $, .STERADIAN. ) SOLID_ANGLE_UNIT ( ) );
#96 = VERTEX_POINT ( 'NONE', #370 ) ;
#97 = EDGE_CURVE ( 'NONE', #558, #327, #260, .T. ) ;
#98 = DIRECTION ( 'NONE',  ( -0.000000000000000000, -1.000000000000000000, -0.000000000000000000 ) ) ;
#99 = ORIENTED_EDGE ( 'NONE', *, *, #676, .T. ) ;
#100 = ORIENTED_EDGE ( 'NONE', *, *, #617, .F. ) ;
#101 = ORIENTED_EDGE ( 'NONE', *, *, #586, .T. ) ;
#102 = CYLINDRICAL_SURFACE ( 'NONE', #453, 5.000000000000000000 ) ;
#103 = DIRECTION ( 'NONE',  ( 0.000000000000000000, 0.000000000000000000, 1.000000000000000000 ) ) ;
#104 = ORIENTED_EDGE ( 'NONE', *, *, #642, .T. ) ;
#105 = AXIS2_PLACEMENT_3D ( 'NONE', #431, #60, #130 ) ;
#106 = ADVANCED_FACE ( 'NONE', ( #68, #179 ), #539, .F. ) ;
#107 = CARTESIAN_POINT ( 'NONE',  ( 30.00000000000000000, 4.000000000000000000, -10.00000000000000000 ) ) ;
#108 = CARTESIAN_POINT ( 'NONE',  ( 0.000000000000000000, 10.00000000000000000, 7.999999999999998224 ) ) ;
#109 = EDGE_CURVE ( 'NONE', #269, #27, #186, .T. ) ;
#110 = FACE_OUTER_BOUND ( 'NONE', #264, .T. ) ;
#111 = CARTESIAN_POINT ( 'NONE',  ( 70.00000000000000000, 2.000000000000001776, 10.00000000000000000 ) ) ;
#112 = SURFACE_SIDE_STYLE ('',( #684 ) ) ;
#113 = ADVANCED_BREP_SHAPE_REPRESENTATION ( '传送带轴固定座', ( #346, #727 ), #426 ) ;
#114 = LINE ( 'NONE', #283, #159 ) ;
#115 = AXIS2_PLACEMENT_3D ( 'NONE', #341, #579, #58 ) ;
#116 = CARTESIAN_POINT ( 'NONE',  ( 11.09999999999999787, 10.00000000000000355, 0.000000000000000000 ) ) ;
#117 = VECTOR ( 'NONE', #668, 1000.000000000000114 ) ;
#118 = VERTEX_POINT ( 'NONE', #417 ) ;
#119 = AXIS2_PLACEMENT_3D ( 'NONE', #713, #133, #241 ) ;
#120 = CARTESIAN_POINT ( 'NONE',  ( 7.999999999999998224, 10.00000000000000355, 0.000000000000000000 ) ) ;
#121 = FACE_OUTER_BOUND ( 'NONE', #500, .T. ) ;
#122 = TOROIDAL_SURFACE ( 'NONE', #212, 6.000000000000000000, 1.000000000000000000 ) ;
#123 = DIRECTION ( 'NONE',  ( 0.000000000000000000, 1.000000000000000000, 0.000000000000000000 ) ) ;
#124 = EDGE_CURVE ( 'NONE', #572, #158, #73, .T. ) ;
#125 = CARTESIAN_POINT ( 'NONE',  ( 8.000000000000000000, 4.000000000000000000, -6.000000000000000000 ) ) ;
#126 = CARTESIAN_POINT ( 'NONE',  ( 8.000000000000000000, 1.999999999999994449, 0.000000000000000000 ) ) ;
#127 = ADVANCED_FACE ( 'NONE', ( #581 ), #135, .T. ) ;
#128 = ORIENTED_EDGE ( 'NONE', *, *, #356, .F. ) ;
#129 = CARTESIAN_POINT ( 'NONE',  ( 40.00000000000000711, 10.00000000000000711, 0.000000000000000000 ) ) ;
#130 = DIRECTION ( 'NONE',  ( 0.000000000000000000, -1.000000000000000000, 0.000000000000000000 ) ) ;
#131 = EDGE_LOOP ( 'NONE', ( #557, #735 ) ) ;
#132 = ORIENTED_EDGE ( 'NONE', *, *, #621, .F. ) ;
#133 = DIRECTION ( 'NONE',  ( 1.097127629939990044E-16, -1.000000000000000000, 0.000000000000000000 ) ) ;
#134 = ADVANCED_FACE ( 'NONE', ( #294 ), #715, .F. ) ;
#135 = PLANE ( 'NONE',  #105 ) ;
#136 = ORIENTED_EDGE ( 'NONE', *, *, #124, .T. ) ;
#137 = DIRECTION ( 'NONE',  ( 0.000000000000000000, -1.000000000000000000, 0.000000000000000000 ) ) ;
#138 = DIRECTION ( 'NONE',  ( 1.000000000000000000, 0.000000000000000000, 0.000000000000000000 ) ) ;
#139 = ORIENTED_EDGE ( 'NONE', *, *, #428, .T. ) ;
#140 = ORIENTED_EDGE ( 'NONE', *, *, #586, .F. ) ;
#141 = FACE_OUTER_BOUND ( 'NONE', #541, .T. ) ;
#142 = CARTESIAN_POINT ( 'NONE',  ( 42.10000000000000853, 1.999999999999998224, 0.000000000000000000 ) ) ;
#143 = VERTEX_POINT ( 'NONE', #526 ) ;
#144 = LINE ( 'NONE', #385, #741 ) ;
#145 = ORIENTED_EDGE ( 'NONE', *, *, #533, .F. ) ;
#146 = ADVANCED_FACE ( 'NONE', ( #701, #1, #233 ), #242, .F. ) ;
#147 = DIRECTION ( 'NONE',  ( -0.000000000000000000, 1.000000000000000000, -0.000000000000000000 ) ) ;
#148 = CIRCLE ( 'NONE', #575, 5.000000000000000000 ) ;
#149 = ORIENTED_EDGE ( 'NONE', *, *, #556, .F. ) ;
#150 = EDGE_CURVE ( 'NONE', #401, #350, #307, .T. ) ;
#151 = CARTESIAN_POINT ( 'NONE',  ( 8.000000000000000000, 3.000000000000000000, 0.000000000000000000 ) ) ;
#152 = VECTOR ( 'NONE', #664, 1000.000000000000000 ) ;
#153 = EDGE_LOOP ( 'NONE', ( #450, #674, #355, #561 ) ) ;
#154 = VERTEX_POINT ( 'NONE', #710 ) ;
#155 = CARTESIAN_POINT ( 'NONE',  ( 1.999999999999988010, 10.00000000000000000, 10.00000000000000000 ) ) ;
#156 = APPLICATION_PROTOCOL_DEFINITION ( 'draft international standard', 'automotive_design', 1998, #636 ) ;
#157 = ORIENTED_EDGE ( 'NONE', *, *, #284, .T. ) ;
#158 = VERTEX_POINT ( 'NONE', #486 ) ;
#159 = VECTOR ( 'NONE', #519, 1000.000000000000000 ) ;
#160 = LINE ( 'NONE', #219, #165 ) ;
#161 =( NAMED_UNIT ( * ) SI_UNIT ( $, .STERADIAN. ) SOLID_ANGLE_UNIT ( ) );
#162 = PLANE ( 'NONE',  #31 ) ;
#163 = AXIS2_PLACEMENT_3D ( 'NONE', #126, #580, #704 ) ;
#164 = LINE ( 'NONE', #107, #650 ) ;
#165 = VECTOR ( 'NONE', #406, 1000.000000000000114 ) ;
#166 = DIRECTION ( 'NONE',  ( 1.097127629939990044E-16, -1.000000000000000000, -0.000000000000000000 ) ) ;
#167 = ORIENTED_EDGE ( 'NONE', *, *, #513, .T. ) ;
#168 = PRODUCT_DEFINITION ( '未知', '', #317, #722 ) ;
#169 = FACE_OUTER_BOUND ( 'NONE', #532, .T. ) ;
#170 = ORIENTED_EDGE ( 'NONE', *, *, #444, .F. ) ;
#171 = LINE ( 'NONE', #527, #411 ) ;
#172 = ORIENTED_EDGE ( 'NONE', *, *, #578, .T. ) ;
#173 = DIRECTION ( 'NONE',  ( 1.097127629939990044E-16, -1.000000000000000000, 0.000000000000000000 ) ) ;
#174 = AXIS2_PLACEMENT_3D ( 'NONE', #151, #98, #499 ) ;
#175 = FACE_OUTER_BOUND ( 'NONE', #657, .T. ) ;
#176 = AXIS2_PLACEMENT_3D ( 'NONE', #495, #205, #89 ) ;
#177 = PRODUCT ( '传送带轴固定座', '传送带轴固定座', '', ( #552 ) ) ;
#178 = DIRECTION ( 'NONE',  ( 1.000000000000000000, 1.192622389734054631E-16, -0.000000000000000000 ) ) ;
#179 = FACE_OUTER_BOUND ( 'NONE', #736, .T. ) ;
#180 = ORIENTED_EDGE ( 'NONE', *, *, #462, .F. ) ;
#181 = DIRECTION ( 'NONE',  ( -1.000000000000000000, 0.000000000000000000, 0.000000000000000000 ) ) ;
#182 = EDGE_CURVE ( 'NONE', #96, #565, #5, .T. ) ;
#183 = AXIS2_PLACEMENT_3D ( 'NONE', #230, #173, #567 ) ;
#184 = DIRECTION ( 'NONE',  ( -1.000000000000000000, -1.192622389734054631E-16, 0.000000000000000000 ) ) ;
#185 = ORIENTED_EDGE ( 'NONE', *, *, #513, .F. ) ;
#186 = CIRCLE ( 'NONE', #351, 2.099999999999997868 ) ;
#187 = DIRECTION ( 'NONE',  ( 1.097127629939990044E-16, -1.000000000000000000, -0.000000000000000000 ) ) ;
#188 = DIRECTION ( 'NONE',  ( -1.000000000000000000, -2.478176394252581387E-17, -0.000000000000000000 ) ) ;
#189 = MECHANICAL_DESIGN_GEOMETRIC_PRESENTATION_REPRESENTATION (  '', ( #405 ), #298 ) ;
#190 = VERTEX_POINT ( 'NONE', #362 ) ;
#191 = AXIS2_PLACEMENT_3D ( 'NONE', #217, #330, #454 ) ;
#192 = EDGE_LOOP ( 'NONE', ( #40, #36, #208, #218 ) ) ;
#193 = EDGE_CURVE ( 'NONE', #350, #490, #473, .T. ) ;
#194 = DIRECTION ( 'NONE',  ( -0.000000000000000000, -1.000000000000000000, -0.000000000000000000 ) ) ;
#195 = LINE ( 'NONE', #531, #494 ) ;
#196 = LINE ( 'NONE', #365, #28 ) ;
#197 = UNCERTAINTY_MEASURE_WITH_UNIT (LENGTH_MEASURE( 1.000000000000000082E-05 ), #258, 'distance_accuracy_value', 'NONE');
#198 = CARTESIAN_POINT ( 'NONE',  ( -2.449293598294705921E-16, 4.000000000000000000, 10.00000000000000000 ) ) ;
#199 = VECTOR ( 'NONE', #467, 1000.000000000000000 ) ;
#200 = ORIENTED_EDGE ( 'NONE', *, *, #358, .T. ) ;
#201 = CARTESIAN_POINT ( 'NONE',  ( 62.10000000000000853, 2.000000000000000444, 0.000000000000000000 ) ) ;
#202 = VECTOR ( 'NONE', #585, 1000.000000000000000 ) ;
#203 = DIRECTION ( 'NONE',  ( 0.000000000000000000, 0.000000000000000000, -1.000000000000000000 ) ) ;
#204 = ORIENTED_EDGE ( 'NONE', *, *, #391, .T. ) ;
#205 = DIRECTION ( 'NONE',  ( 1.097127629939990044E-16, -1.000000000000000000, 0.000000000000000000 ) ) ;
#206 = EDGE_CURVE ( 'NONE', #154, #92, #52, .T. ) ;
#207 = EDGE_LOOP ( 'NONE', ( #738, #707, #679, #506 ) ) ;
#208 = ORIENTED_EDGE ( 'NONE', *, *, #564, .F. ) ;
#209 = CARTESIAN_POINT ( 'NONE',  ( -2.449293598294705921E-16, 4.000000000000000000, -8.000000000000012434 ) ) ;
#210 = EDGE_CURVE ( 'NONE', #677, #483, #148, .T. ) ;
#211 = ORIENTED_EDGE ( 'NONE', *, *, #749, .T. ) ;
#212 = AXIS2_PLACEMENT_3D ( 'NONE', #438, #599, #82 ) ;
#213 = DIRECTION ( 'NONE',  ( 0.7071067811865451302, 1.752335333352421247E-17, 0.7071067811865500152 ) ) ;
#214 =( NAMED_UNIT ( * ) PLANE_ANGLE_UNIT ( ) SI_UNIT ( $, .RADIAN. ) );
#215 = ORIENTED_EDGE ( 'NONE', *, *, #109, .F. ) ;
#216 = ORIENTED_EDGE ( 'NONE', *, *, #605, .T. ) ;
#217 = CARTESIAN_POINT ( 'NONE',  ( 40.00000000000000711, 1.999999999999997780, 0.000000000000000000 ) ) ;
#218 = ORIENTED_EDGE ( 'NONE', *, *, #90, .F. ) ;
#219 = CARTESIAN_POINT ( 'NONE',  ( 1.999999999999987566, 4.000000000000000000, 10.00000000000000000 ) ) ;
#220 = CARTESIAN_POINT ( 'NONE',  ( 37.90000000000001279, 1.999999999999997335, 2.571758278209438013E-16 ) ) ;
#221 = VECTOR ( 'NONE', #85, 1000.000000000000000 ) ;
#222 = CARTESIAN_POINT ( 'NONE',  ( 30.00000000000000000, 4.000000000000000000, 10.00000000000000000 ) ) ;
#223 =( NAMED_UNIT ( * ) PLANE_ANGLE_UNIT ( ) SI_UNIT ( $, .RADIAN. ) );
#224 = PLANE ( 'NONE',  #554 ) ;
#225 = CYLINDRICAL_SURFACE ( 'NONE', #690, 2.099999999999997868 ) ;
#226 = VECTOR ( 'NONE', #514, 1000.000000000000000 ) ;
#227 = FACE_OUTER_BOUND ( 'NONE', #607, .T. ) ;
#228 = UNCERTAINTY_MEASURE_WITH_UNIT (LENGTH_MEASURE( 1.000000000000000082E-05 ), #751, 'distance_accuracy_value', 'NONE');
#229 = LINE ( 'NONE', #747, #737 ) ;
#230 = CARTESIAN_POINT ( 'NONE',  ( 60.00000000000001421, 2.000000000000000000, 0.000000000000000000 ) ) ;
#231 = ORIENTED_EDGE ( 'NONE', *, *, #605, .F. ) ;
#232 = DIRECTION ( 'NONE',  ( 1.097127629939990044E-16, -1.000000000000000000, -0.000000000000000000 ) ) ;
#233 = FACE_OUTER_BOUND ( 'NONE', #280, .T. ) ;
#234 = AXIS2_PLACEMENT_3D ( 'NONE', #410, #459, #634 ) ;
#235 = DIRECTION ( 'NONE',  ( 1.097127629939990044E-16, -1.000000000000000000, 0.000000000000000000 ) ) ;
#236 = CARTESIAN_POINT ( 'NONE',  ( 0.000000000000000000, 10.00000000000000000, 10.00000000000000000 ) ) ;
#237 = EDGE_CURVE ( 'NONE', #424, #610, #296, .T. ) ;
#238 = CARTESIAN_POINT ( 'NONE',  ( 30.00000000000000000, 1.999999999999997113, -10.00000000000000000 ) ) ;
#239 = DIRECTION ( 'NONE',  ( -0.7071067811865487940, 0.000000000000000000, -0.7071067811865463515 ) ) ;
#240 = ORIENTED_EDGE ( 'NONE', *, *, #582, .T. ) ;
#241 = DIRECTION ( 'NONE',  ( 1.000000000000000000, 0.000000000000000000, 0.000000000000000000 ) ) ;
#242 = PLANE ( 'NONE',  #624 ) ;
#243 = APPLICATION_CONTEXT ( 'automotive_design' ) ;
#244 = PRODUCT_RELATED_PRODUCT_CATEGORY ( 'part', '', ( #177 ) ) ;
#245 = ORIENTED_EDGE ( 'NONE', *, *, #270, .T. ) ;
#246 = VERTEX_POINT ( 'NONE', #312 ) ;
#247 = DIRECTION ( 'NONE',  ( 1.097127629939990044E-16, -1.000000000000000000, 0.000000000000000000 ) ) ;
#248 = CARTESIAN_POINT ( 'NONE',  ( 68.00000000000000000, 2.000000000000001332, 10.00000000000000000 ) ) ;
#249 = EDGE_LOOP ( 'NONE', ( #100, #662, #654, #12 ) ) ;
#250 = AXIS2_PLACEMENT_3D ( 'NONE', #361, #297, #646 ) ;
#251 = CARTESIAN_POINT ( 'NONE',  ( 8.000000000000000000, 2.000000000000000000, 0.000000000000000000 ) ) ;
#252 = DIRECTION ( 'NONE',  ( 0.000000000000000000, -1.000000000000000000, 0.000000000000000000 ) ) ;
#253 = ORIENTED_EDGE ( 'NONE', *, *, #691, .T. ) ;
#254 = ORIENTED_EDGE ( 'NONE', *, *, #451, .T. ) ;
#255 = DIRECTION ( 'NONE',  ( 0.7071067811865463515, 1.752335333352424637E-17, -0.7071067811865487940 ) ) ;
#256 = LINE ( 'NONE', #30, #221 ) ;
#257 = COLOUR_RGB ( '',1.000000000000000000, 1.000000000000000000, 1.000000000000000000 ) ;
#258 =( LENGTH_UNIT ( ) NAMED_UNIT ( * ) SI_UNIT ( .MILLI., .METRE. ) );
#259 = DIRECTION ( 'NONE',  ( 0.000000000000000000, 1.000000000000000000, 0.000000000000000000 ) ) ;
#260 = CIRCLE ( 'NONE', #163, 3.100000000000000533 ) ;
#261 = ADVANCED_FACE ( 'NONE', ( #660 ), #122, .F. ) ;
#262 = CARTESIAN_POINT ( 'NONE',  ( 30.00000000000000000, 4.000000000000000000, 10.00000000000000000 ) ) ;
#263 = VERTEX_POINT ( 'NONE', #723 ) ;
#264 = EDGE_LOOP ( 'NONE', ( #364, #335, #456, #157, #245, #667 ) ) ;
#265 = VECTOR ( 'NONE', #687, 1000.000000000000000 ) ;
#266 = CARTESIAN_POINT ( 'NONE',  ( 70.00000000000000000, 10.00000000000000178, 7.999999999999991118 ) ) ;
#267 = VERTEX_POINT ( 'NONE', #719 ) ;
#268 = DIRECTION ( 'NONE',  ( 4.082155997157842586E-17, 1.000000000000000000, 0.000000000000000000 ) ) ;
#269 = VERTEX_POINT ( 'NONE', #142 ) ;
#270 = EDGE_CURVE ( 'NONE', #397, #730, #381, .T. ) ;
#271 = CARTESIAN_POINT ( 'NONE',  ( 11.09999999999999787, 10.00000000000000355, 0.000000000000000000 ) ) ;
#272 = ADVANCED_FACE ( 'NONE', ( #496, #603, #595, #543 ), #20, .F. ) ;
#273 = ORIENTED_EDGE ( 'NONE', *, *, #488, .F. ) ;
#274 = AXIS2_PLACEMENT_3D ( 'NONE', #129, #430, #369 ) ;
#275 = DIRECTION ( 'NONE',  ( 4.082155997157842586E-17, 1.000000000000000000, 0.000000000000000000 ) ) ;
#276 = VECTOR ( 'NONE', #178, 1000.000000000000000 ) ;
#277 = CARTESIAN_POINT ( 'NONE',  ( 8.000000000000000000, 3.000000000000000000, 6.000000000000000000 ) ) ;
#278 = DIRECTION ( 'NONE',  ( 0.000000000000000000, 0.000000000000000000, -1.000000000000000000 ) ) ;
#279 = DIRECTION ( 'NONE',  ( -0.000000000000000000, -0.000000000000000000, -1.000000000000000000 ) ) ;
#280 = EDGE_LOOP ( 'NONE', ( #477, #463, #70, #136, #733, #442 ) ) ;
#281 = AXIS2_PLACEMENT_3D ( 'NONE', #571, #232, #357 ) ;
#282 = DIRECTION ( 'NONE',  ( 0.000000000000000000, -1.000000000000000000, 0.000000000000000000 ) ) ;
#283 = CARTESIAN_POINT ( 'NONE',  ( 68.00000000000000000, 2.000000000000001776, -10.00000000000000000 ) ) ;
#284 = EDGE_CURVE ( 'NONE', #565, #397, #256, .T. ) ;
#285 = CARTESIAN_POINT ( 'NONE',  ( 8.000000000000000000, 3.000000000000000000, 0.000000000000000000 ) ) ;
#286 = VECTOR ( 'NONE', #57, 1000.000000000000000 ) ;
#287 = CYLINDRICAL_SURFACE ( 'NONE', #281, 3.100000000000000533 ) ;
#288 = VECTOR ( 'NONE', #549, 1000.000000000000000 ) ;
#289 = DIRECTION ( 'NONE',  ( -4.082155997157842586E-17, -1.000000000000000000, 0.000000000000000000 ) ) ;
#290 = CARTESIAN_POINT ( 'NONE',  ( 7.999999999999998224, 10.00000000000000355, 0.000000000000000000 ) ) ;
#291 = CARTESIAN_POINT ( 'NONE',  ( 68.00000000000000000, 0.000000000000000000, 10.00000000000000000 ) ) ;
#292 = EDGE_CURVE ( 'NONE', #730, #342, #493, .T. ) ;
#293 = CARTESIAN_POINT ( 'NONE',  ( 2.000000000000001776, 10.00000000000000000, -10.00000000000000000 ) ) ;
#294 = FACE_OUTER_BOUND ( 'NONE', #339, .T. ) ;
#295 = ADVANCED_FACE ( 'NONE', ( #433 ), #693, .F. ) ;
#296 = CIRCLE ( 'NONE', #724, 1.000000000000000000 ) ;
#297 = DIRECTION ( 'NONE',  ( 1.000000000000000000, 0.000000000000000000, -0.000000000000000000 ) ) ;
#298 =( GEOMETRIC_REPRESENTATION_CONTEXT ( 3 ) GLOBAL_UNCERTAINTY_ASSIGNED_CONTEXT ( ( #197 ) ) GLOBAL_UNIT_ASSIGNED_CONTEXT ( ( #258, #681, #441 ) ) REPRESENTATION_CONTEXT ( 'NONE', 'WORKASPACE' ) );
#299 = LINE ( 'NONE', #7, #435 ) ;
#300 = LINE ( 'NONE', #14, #460 ) ;
#301 = EDGE_CURVE ( 'NONE', #92, #269, #171, .T. ) ;
#302 = DIRECTION ( 'NONE',  ( 0.000000000000000000, 1.000000000000000000, 0.000000000000000000 ) ) ;
#303 = VERTEX_POINT ( 'NONE', #515 ) ;
#304 = ORIENTED_EDGE ( 'NONE', *, *, #564, .T. ) ;
#305 = CARTESIAN_POINT ( 'NONE',  ( 1.999999999999987566, 4.000000000000000000, 10.00000000000000000 ) ) ;
#306 = VECTOR ( 'NONE', #252, 1000.000000000000000 ) ;
#307 = LINE ( 'NONE', #481, #3 ) ;
#308 = VERTEX_POINT ( 'NONE', #293 ) ;
#309 = CIRCLE ( 'NONE', #61, 1.000000000000000000 ) ;
#310 = LINE ( 'NONE', #440, #117 ) ;
#311 = EDGE_CURVE ( 'NONE', #190, #548, #573, .T. ) ;
#312 = CARTESIAN_POINT ( 'NONE',  ( 70.00000000000000000, 10.00000000000000178, 7.999999999999991118 ) ) ;
#313 = EDGE_LOOP ( 'NONE', ( #253, #648, #740, #553, #487, #601, #408, #216 ) ) ;
#314 = CIRCLE ( 'NONE', #615, 2.099999999999997868 ) ;
#315 = DIRECTION ( 'NONE',  ( 0.000000000000000000, 0.000000000000000000, -1.000000000000000000 ) ) ;
#316 = CARTESIAN_POINT ( 'NONE',  ( 0.000000000000000000, 10.00000000000000000, 10.00000000000000000 ) ) ;
#317 = PRODUCT_DEFINITION_FORMATION_WITH_SPECIFIED_SOURCE ( '任何', '', #177, .NOT_KNOWN. ) ;
#318 = EDGE_LOOP ( 'NONE', ( #510, #200 ) ) ;
#319 = CARTESIAN_POINT ( 'NONE',  ( 70.00000000000000000, 2.000000000000001776, 7.999999999999991118 ) ) ;
#320 = DIRECTION ( 'NONE',  ( 1.000000000000000000, 0.000000000000000000, 0.000000000000000000 ) ) ;
#321 = CIRCLE ( 'NONE', #420, 5.000000000000000000 ) ;
#322 = FILL_AREA_STYLE ('',( #338 ) ) ;
#323 = ORIENTED_EDGE ( 'NONE', *, *, #582, .F. ) ;
#324 = ADVANCED_FACE ( 'NONE', ( #169 ), #416, .F. ) ;
#325 = CARTESIAN_POINT ( 'NONE',  ( 30.00000000000000000, 4.000000000000000000, 10.00000000000000000 ) ) ;
#326 = SHAPE_DEFINITION_REPRESENTATION ( #659, #113 ) ;
#327 = VERTEX_POINT ( 'NONE', #633 ) ;
#328 = ORIENTED_EDGE ( 'NONE', *, *, #372, .T. ) ;
#329 = VECTOR ( 'NONE', #275, 1000.000000000000000 ) ;
#330 = DIRECTION ( 'NONE',  ( 1.097127629939990044E-16, -1.000000000000000000, 0.000000000000000000 ) ) ;
#331 = ADVANCED_FACE ( 'NONE', ( #695 ), #287, .F. ) ;
#332 =( LENGTH_UNIT ( ) NAMED_UNIT ( * ) SI_UNIT ( .MILLI., .METRE. ) );
#333 = VERTEX_POINT ( 'NONE', #458 ) ;
#334 = DIRECTION ( 'NONE',  ( 0.000000000000000000, 0.000000000000000000, 1.000000000000000000 ) ) ;
#335 = ORIENTED_EDGE ( 'NONE', *, *, #635, .T. ) ;
#336 = LINE ( 'NONE', #24, #395 ) ;
#337 = AXIS2_PLACEMENT_3D ( 'NONE', #475, #302, #17 ) ;
#338 = FILL_AREA_STYLE_COLOUR ( '', #628 ) ;
#339 = EDGE_LOOP ( 'NONE', ( #384, #149, #231, #375 ) ) ;
#340 = FACE_OUTER_BOUND ( 'NONE', #576, .T. ) ;
#341 = CARTESIAN_POINT ( 'NONE',  ( -2.449293598294705921E-16, 4.000000000000000000, 10.00000000000000000 ) ) ;
#342 = VERTEX_POINT ( 'NONE', #640 ) ;
#343 = CARTESIAN_POINT ( 'NONE',  ( 70.00000000000000000, 10.00000000000000178, 10.00000000000000000 ) ) ;
#344 = EDGE_CURVE ( 'NONE', #446, #118, #403, .T. ) ;
#345 = DIRECTION ( 'NONE',  ( 0.000000000000000000, 0.000000000000000000, 1.000000000000000000 ) ) ;
#346 = MANIFOLD_SOLID_BREP ( '圆角1', #16 ) ;
#347 = EDGE_CURVE ( 'NONE', #333, #627, #11, .T. ) ;
#348 = AXIS2_PLACEMENT_3D ( 'NONE', #290, #626, #469 ) ;
#349 = DIRECTION ( 'NONE',  ( 1.097127629939990044E-16, -1.000000000000000000, -0.000000000000000000 ) ) ;
#350 = VERTEX_POINT ( 'NONE', #108 ) ;
#351 = AXIS2_PLACEMENT_3D ( 'NONE', #9, #419, #359 ) ;
#352 = CIRCLE ( 'NONE', #18, 2.099999999999997868 ) ;
#353 = DIRECTION ( 'NONE',  ( 1.000000000000000000, 0.000000000000000000, 0.000000000000000000 ) ) ;
#354 = AXIS2_PLACEMENT_3D ( 'NONE', #602, #147, #445 ) ;
#355 = ORIENTED_EDGE ( 'NONE', *, *, #691, .F. ) ;
#356 = EDGE_CURVE ( 'NONE', #342, #446, #525, .T. ) ;
#357 = DIRECTION ( 'NONE',  ( 1.000000000000000000, 0.000000000000000000, 0.000000000000000000 ) ) ;
#358 = EDGE_CURVE ( 'NONE', #424, #484, #59, .T. ) ;
#359 = DIRECTION ( 'NONE',  ( 1.000000000000000000, 2.065146995210486667E-16, 0.000000000000000000 ) ) ;
#360 = AXIS2_PLACEMENT_3D ( 'NONE', #583, #181, #542 ) ;
#361 = CARTESIAN_POINT ( 'NONE',  ( 30.00000000000000000, 4.000000000000000000, 10.00000000000000000 ) ) ;
#362 = CARTESIAN_POINT ( 'NONE',  ( 57.90000000000001279, 1.999999999999999556, 2.571758278209438013E-16 ) ) ;
#363 = AXIS2_PLACEMENT_3D ( 'NONE', #291, #239, #123 ) ;
#364 = ORIENTED_EDGE ( 'NONE', *, *, #476, .T. ) ;
#365 = CARTESIAN_POINT ( 'NONE',  ( -2.449293598294705921E-16, 4.000000000000000000, -10.00000000000000000 ) ) ;
#366 = AXIS2_PLACEMENT_3D ( 'NONE', #566, #278, #745 ) ;
#367 = DIRECTION ( 'NONE',  ( 0.000000000000000000, 0.000000000000000000, -1.000000000000000000 ) ) ;
#368 = ORIENTED_EDGE ( 'NONE', *, *, #725, .T. ) ;
#369 = DIRECTION ( 'NONE',  ( 1.000000000000000000, 0.000000000000000000, 0.000000000000000000 ) ) ;
#370 = CARTESIAN_POINT ( 'NONE',  ( 68.00000000000000000, 10.00000000000000178, 10.00000000000000000 ) ) ;
#371 = ORIENTED_EDGE ( 'NONE', *, *, #423, .F. ) ;
#372 = EDGE_CURVE ( 'NONE', #263, #118, #114, .T. ) ;
#373 = CARTESIAN_POINT ( 'NONE',  ( 37.90000000000001279, 10.00000000000000711, 2.571758278209438506E-16 ) ) ;
#374 = DIRECTION ( 'NONE',  ( 1.000000000000000000, -0.000000000000000000, 1.224646799147353207E-16 ) ) ;
#375 = ORIENTED_EDGE ( 'NONE', *, *, #635, .F. ) ;
#376 = DIRECTION ( 'NONE',  ( 0.000000000000000000, -0.000000000000000000, -1.000000000000000000 ) ) ;
#377 = DIRECTION ( 'NONE',  ( 1.000000000000000000, 2.478176394252581387E-17, 0.000000000000000000 ) ) ;
#378 = ORIENTED_EDGE ( 'NONE', *, *, #150, .T. ) ;
#379 = VECTOR ( 'NONE', #594, 1000.000000000000000 ) ;
#380 = CYLINDRICAL_SURFACE ( 'NONE', #354, 5.000000000000000000 ) ;
#381 = LINE ( 'NONE', #198, #550 ) ;
#382 = ADVANCED_FACE ( 'NONE', ( #227 ), #465, .F. ) ;
#383 = SURFACE_STYLE_FILL_AREA ( #322 ) ;
#384 = ORIENTED_EDGE ( 'NONE', *, *, #124, .F. ) ;
#385 = CARTESIAN_POINT ( 'NONE',  ( -2.449293598294705921E-16, 4.000000000000000000, -8.000000000000012434 ) ) ;
#386 = PRESENTATION_LAYER_ASSIGNMENT (  '', '', ( #622 ) ) ;
#387 = SURFACE_SIDE_STYLE ('',( #383 ) ) ;
#388 = EDGE_LOOP ( 'NONE', ( #637, #170 ) ) ;
#389 = ORIENTED_EDGE ( 'NONE', *, *, #311, .F. ) ;
#390 = CARTESIAN_POINT ( 'NONE',  ( 70.00000000000000000, 10.00000000000000178, -8.000000000000012434 ) ) ;
#391 = EDGE_CURVE ( 'NONE', #443, #267, #196, .T. ) ;
#392 = VECTOR ( 'NONE', #404, 1000.000000000000000 ) ;
#393 = ORIENTED_EDGE ( 'NONE', *, *, #533, .T. ) ;
#394 = ORIENTED_EDGE ( 'NONE', *, *, #311, .T. ) ;
#395 = VECTOR ( 'NONE', #255, 1000.000000000000000 ) ;
#396 = DIRECTION ( 'NONE',  ( -0.000000000000000000, 1.000000000000000000, -0.000000000000000000 ) ) ;
#397 = VERTEX_POINT ( 'NONE', #305 ) ;
#398 = FACE_OUTER_BOUND ( 'NONE', #21, .T. ) ;
#399 = ORIENTED_EDGE ( 'NONE', *, *, #15, .T. ) ;
#400 = VECTOR ( 'NONE', #279, 1000.000000000000000 ) ;
#401 = VERTEX_POINT ( 'NONE', #590 ) ;
#402 = DIRECTION ( 'NONE',  ( 1.097127629939990044E-16, -1.000000000000000000, -0.000000000000000000 ) ) ;
#403 = LINE ( 'NONE', #56, #199 ) ;
#404 = DIRECTION ( 'NONE',  ( 1.097127629939990044E-16, -1.000000000000000000, -0.000000000000000000 ) ) ;
#405 = STYLED_ITEM ( 'NONE', ( #455 ), #113 ) ;
#406 = DIRECTION ( 'NONE',  ( -0.7071067811865451302, -0.000000000000000000, -0.7071067811865500152 ) ) ;
#407 = ADVANCED_FACE ( 'NONE', ( #19, #587 ), #702, .T. ) ;
#408 = ORIENTED_EDGE ( 'NONE', *, *, #182, .F. ) ;
#409 = CARTESIAN_POINT ( 'NONE',  ( 40.00000000000000711, 10.00000000000000711, 0.000000000000000000 ) ) ;
#410 = CARTESIAN_POINT ( 'NONE',  ( 40.00000000000000711, 10.00000000000000711, 0.000000000000000000 ) ) ;
#411 = VECTOR ( 'NONE', #53, 1000.000000000000000 ) ;
#412 = ADVANCED_FACE ( 'NONE', ( #67 ), #80, .F. ) ;
#413 = FILL_AREA_STYLE ('',( #47 ) ) ;
#414 = ORIENTED_EDGE ( 'NONE', *, *, #206, .F. ) ;
#415 = AXIS2_PLACEMENT_3D ( 'NONE', #734, #671, #448 ) ;
#416 = CYLINDRICAL_SURFACE ( 'NONE', #672, 2.099999999999997868 ) ;
#417 = CARTESIAN_POINT ( 'NONE',  ( 68.00000000000000000, 2.000000000000001332, -10.00000000000000000 ) ) ;
#418 = DIRECTION ( 'NONE',  ( 1.000000000000000000, 1.398970545142586048E-16, 0.000000000000000000 ) ) ;
#419 = DIRECTION ( 'NONE',  ( 1.097127629939990044E-16, -1.000000000000000000, 0.000000000000000000 ) ) ;
#420 = AXIS2_PLACEMENT_3D ( 'NONE', #6, #137, #315 ) ;
#421 = CARTESIAN_POINT ( 'NONE',  ( 70.00000000000000000, 2.000000000000001776, 10.00000000000000000 ) ) ;
#422 = DIRECTION ( 'NONE',  ( 1.097127629939990044E-16, -1.000000000000000000, -0.000000000000000000 ) ) ;
#423 = EDGE_CURVE ( 'NONE', #303, #263, #300, .T. ) ;
#424 = VERTEX_POINT ( 'NONE', #125 ) ;
#425 = CARTESIAN_POINT ( 'NONE',  ( 8.000000000000000000, 3.000000000000000000, 0.000000000000000000 ) ) ;
#426 =( GEOMETRIC_REPRESENTATION_CONTEXT ( 3 ) GLOBAL_UNCERTAINTY_ASSIGNED_CONTEXT ( ( #703 ) ) GLOBAL_UNIT_ASSIGNED_CONTEXT ( ( #332, #214, #95 ) ) REPRESENTATION_CONTEXT ( 'NONE', 'WORKASPACE' ) );
#427 = CARTESIAN_POINT ( 'NONE',  ( 0.000000000000000000, 10.00000000000000000, 10.00000000000000000 ) ) ;
#428 = EDGE_CURVE ( 'NONE', #401, #673, #530, .T. ) ;
#429 = ORIENTED_EDGE ( 'NONE', *, *, #611, .F. ) ;
#430 = DIRECTION ( 'NONE',  ( 1.097127629939990044E-16, -1.000000000000000000, 0.000000000000000000 ) ) ;
#431 = CARTESIAN_POINT ( 'NONE',  ( 70.00000000000000000, 10.00000000000000178, -8.000000000000012434 ) ) ;
#432 = DIRECTION ( 'NONE',  ( -0.7071067811865500152, -1.752335333352433265E-17, -0.7071067811865451302 ) ) ;
#433 = FACE_OUTER_BOUND ( 'NONE', #682, .T. ) ;
#434 = EDGE_LOOP ( 'NONE', ( #65, #439 ) ) ;
#435 = VECTOR ( 'NONE', #588, 1000.000000000000000 ) ;
#436 = EDGE_CURVE ( 'NONE', #483, #677, #321, .T. ) ;
#437 = LINE ( 'NONE', #390, #152 ) ;
#438 = CARTESIAN_POINT ( 'NONE',  ( 8.000000000000000000, 3.000000000000000000, 0.000000000000000000 ) ) ;
#439 = ORIENTED_EDGE ( 'NONE', *, *, #347, .T. ) ;
#440 = CARTESIAN_POINT ( 'NONE',  ( 70.00000000000000000, 2.000000000000001776, -8.000000000000012434 ) ) ;
#441 =( NAMED_UNIT ( * ) SI_UNIT ( $, .STERADIAN. ) SOLID_ANGLE_UNIT ( ) );
#442 = ORIENTED_EDGE ( 'NONE', *, *, #356, .T. ) ;
#443 = VERTEX_POINT ( 'NONE', #62 ) ;
#444 = EDGE_CURVE ( 'NONE', #327, #558, #88, .T. ) ;
#445 = DIRECTION ( 'NONE',  ( 0.000000000000000000, 0.000000000000000000, 1.000000000000000000 ) ) ;
#446 = VERTEX_POINT ( 'NONE', #238 ) ;
#447 = ORIENTED_EDGE ( 'NONE', *, *, #301, .T. ) ;
#448 = DIRECTION ( 'NONE',  ( 0.000000000000000000, 0.000000000000000000, 1.000000000000000000 ) ) ;
#449 = VECTOR ( 'NONE', #187, 1000.000000000000000 ) ;
#450 = ORIENTED_EDGE ( 'NONE', *, *, #705, .T. ) ;
#451 = EDGE_CURVE ( 'NONE', #563, #678, #314, .T. ) ;
#452 = ORIENTED_EDGE ( 'NONE', *, *, #109, .T. ) ;
#453 = AXIS2_PLACEMENT_3D ( 'NONE', #38, #396, #334 ) ;
#454 = DIRECTION ( 'NONE',  ( 1.000000000000000000, 2.065146995210486667E-16, 0.000000000000000000 ) ) ;
#455 = PRESENTATION_STYLE_ASSIGNMENT (( #26 ) ) ;
#456 = ORIENTED_EDGE ( 'NONE', *, *, #182, .T. ) ;
#457 = LINE ( 'NONE', #111, #265 ) ;
#458 = CARTESIAN_POINT ( 'NONE',  ( 4.899999999999997691, 10.00000000000000355, 3.796405077356796397E-16 ) ) ;
#459 = DIRECTION ( 'NONE',  ( 1.097127629939990044E-16, -1.000000000000000000, -0.000000000000000000 ) ) ;
#460 = VECTOR ( 'NONE', #432, 1000.000000000000114 ) ;
#461 = PLANE ( 'NONE',  #366 ) ;
#462 = EDGE_CURVE ( 'NONE', #548, #190, #352, .T. ) ;
#463 = ORIENTED_EDGE ( 'NONE', *, *, #540, .T. ) ;
#464 = LINE ( 'NONE', #343, #64 ) ;
#465 = CYLINDRICAL_SURFACE ( 'NONE', #537, 2.099999999999997868 ) ;
#466 = ORIENTED_EDGE ( 'NONE', *, *, #358, .F. ) ;
#467 = DIRECTION ( 'NONE',  ( 1.000000000000000000, 1.192622389734054631E-16, -0.000000000000000000 ) ) ;
#468 = FACE_OUTER_BOUND ( 'NONE', #87, .T. ) ;
#469 = DIRECTION ( 'NONE',  ( 1.000000000000000000, 0.000000000000000000, 0.000000000000000000 ) ) ;
#470 = CYLINDRICAL_SURFACE ( 'NONE', #661, 3.100000000000000533 ) ;
#471 = CARTESIAN_POINT ( 'NONE',  ( 60.00000000000001421, 2.000000000000000000, 0.000000000000000000 ) ) ;
#472 = CIRCLE ( 'NONE', #119, 3.100000000000000533 ) ;
#473 = LINE ( 'NONE', #427, #202 ) ;
#474 = DIRECTION ( 'NONE',  ( 1.000000000000000000, 2.065146995210486667E-16, 0.000000000000000000 ) ) ;
#475 = CARTESIAN_POINT ( 'NONE',  ( -2.449293598294705921E-16, 4.000000000000000000, 10.00000000000000000 ) ) ;
#476 = EDGE_CURVE ( 'NONE', #342, #158, #700, .T. ) ;
#477 = ORIENTED_EDGE ( 'NONE', *, *, #344, .T. ) ;
#478 = MECHANICAL_DESIGN_GEOMETRIC_PRESENTATION_REPRESENTATION (  '', ( #622 ), #720 ) ;
#479 = CARTESIAN_POINT ( 'NONE',  ( 0.000000000000000000, 10.00000000000000000, -8.000000000000012434 ) ) ;
#480 = ADVANCED_FACE ( 'NONE', ( #121 ), #72, .F. ) ;
#481 = CARTESIAN_POINT ( 'NONE',  ( -2.449293598294705921E-16, 4.000000000000000000, 7.999999999999998224 ) ) ;
#482 = AXIS2_PLACEMENT_3D ( 'NONE', #63, #652, #320 ) ;
#483 = VERTEX_POINT ( 'NONE', #534 ) ;
#484 = VERTEX_POINT ( 'NONE', #8 ) ;
#485 = CARTESIAN_POINT ( 'NONE',  ( 60.00000000000001421, 10.00000000000000888, 0.000000000000000000 ) ) ;
#486 = CARTESIAN_POINT ( 'NONE',  ( 68.00000000000000000, 2.000000000000001332, 10.00000000000000000 ) ) ;
#487 = ORIENTED_EDGE ( 'NONE', *, *, #193, .F. ) ;
#488 = EDGE_CURVE ( 'NONE', #627, #333, #472, .T. ) ;
#489 = CARTESIAN_POINT ( 'NONE',  ( -2.449293598294705921E-16, 4.000000000000000000, 10.00000000000000000 ) ) ;
#490 = VERTEX_POINT ( 'NONE', #479 ) ;
#491 = LINE ( 'NONE', #266, #55 ) ;
#492 = AXIS2_PLACEMENT_3D ( 'NONE', #746, #688, #50 ) ;
#493 = LINE ( 'NONE', #262, #306 ) ;
#494 = VECTOR ( 'NONE', #592, 1000.000000000000114 ) ;
#495 = CARTESIAN_POINT ( 'NONE',  ( 60.00000000000001421, 10.00000000000000888, 0.000000000000000000 ) ) ;
#496 = FACE_BOUND ( 'NONE', #434, .T. ) ;
#497 = ORIENTED_EDGE ( 'NONE', *, *, #749, .F. ) ;
#498 = ORIENTED_EDGE ( 'NONE', *, *, #391, .F. ) ;
#499 = DIRECTION ( 'NONE',  ( 0.000000000000000000, 0.000000000000000000, 1.000000000000000000 ) ) ;
#500 = EDGE_LOOP ( 'NONE', ( #211, #128, #33, #504 ) ) ;
#501 = LINE ( 'NONE', #325, #577 ) ;
#502 = EDGE_CURVE ( 'NONE', #333, #327, #75, .T. ) ;
#503 = ORIENTED_EDGE ( 'NONE', *, *, #15, .F. ) ;
#504 = ORIENTED_EDGE ( 'NONE', *, *, #611, .T. ) ;
#505 = DIRECTION ( 'NONE',  ( -0.000000000000000000, -0.000000000000000000, -1.000000000000000000 ) ) ;
#506 = ORIENTED_EDGE ( 'NONE', *, *, #66, .F. ) ;
#507 = CIRCLE ( 'NONE', #174, 5.000000000000000000 ) ;
#508 = CARTESIAN_POINT ( 'NONE',  ( 0.000000000000000000, 0.000000000000000000, 0.000000000000000000 ) ) ;
#509 = DIRECTION ( 'NONE',  ( 0.000000000000000000, 1.000000000000000000, 0.000000000000000000 ) ) ;
#510 = ORIENTED_EDGE ( 'NONE', *, *, #570, .T. ) ;
#511 = CIRCLE ( 'NONE', #176, 2.099999999999997868 ) ;
#512 = CARTESIAN_POINT ( 'NONE',  ( 0.000000000000000000, 10.00000000000000000, -10.00000000000000000 ) ) ;
#513 = EDGE_CURVE ( 'NONE', #610, #143, #699, .T. ) ;
#514 = DIRECTION ( 'NONE',  ( -0.000000000000000000, 1.000000000000000000, -0.000000000000000000 ) ) ;
#515 = CARTESIAN_POINT ( 'NONE',  ( 70.00000000000000000, 10.00000000000000178, -8.000000000000012434 ) ) ;
#516 = ORIENTED_EDGE ( 'NONE', *, *, #451, .F. ) ;
#517 = AXIS2_PLACEMENT_3D ( 'NONE', #546, #235, #418 ) ;
#518 = LINE ( 'NONE', #49, #329 ) ;
#519 = DIRECTION ( 'NONE',  ( 0.000000000000000000, -1.000000000000000000, 0.000000000000000000 ) ) ;
#520 = LINE ( 'NONE', #512, #612 ) ;
#521 = EDGE_CURVE ( 'NONE', #92, #154, #79, .T. ) ;
#522 = AXIS2_PLACEMENT_3D ( 'NONE', #209, #613, #268 ) ;
#523 = PRESENTATION_STYLE_ASSIGNMENT (( #754 ) ) ;
#524 = DIRECTION ( 'NONE',  ( 0.000000000000000000, 0.000000000000000000, 1.000000000000000000 ) ) ;
#525 = LINE ( 'NONE', #630, #400 ) ;
#526 = CARTESIAN_POINT ( 'NONE',  ( 8.000000000000000000, 3.000000000000000000, 5.000000000000000000 ) ) ;
#527 = CARTESIAN_POINT ( 'NONE',  ( 42.10000000000000853, 10.00000000000000711, 0.000000000000000000 ) ) ;
#528 = VECTOR ( 'NONE', #188, 1000.000000000000000 ) ;
#529 = DIRECTION ( 'NONE',  ( -1.192622389734054631E-16, 1.000000000000000000, 0.000000000000000000 ) ) ;
#530 = LINE ( 'NONE', #489, #645 ) ;
#531 = CARTESIAN_POINT ( 'NONE',  ( -1.968099717423141305E-16, 10.00000000000000000, -8.000000000000012434 ) ) ;
#532 = EDGE_LOOP ( 'NONE', ( #51, #101, #394, #663 ) ) ;
#533 = EDGE_CURVE ( 'NONE', #154, #27, #538, .T. ) ;
#534 = CARTESIAN_POINT ( 'NONE',  ( 8.000000000000000000, 2.000000000000000000, -5.000000000000000000 ) ) ;
#535 = DIRECTION ( 'NONE',  ( -1.000000000000000000, 0.000000000000000000, -0.000000000000000000 ) ) ;
#536 = ORIENTED_EDGE ( 'NONE', *, *, #270, .F. ) ;
#537 = AXIS2_PLACEMENT_3D ( 'NONE', #409, #349, #574 ) ;
#538 = LINE ( 'NONE', #373, #379 ) ;
#539 = PLANE ( 'NONE',  #337 ) ;
#540 = EDGE_CURVE ( 'NONE', #118, #619, #310, .T. ) ;
#541 = EDGE_LOOP ( 'NONE', ( #78, #74, #368, #240 ) ) ;
#542 = DIRECTION ( 'NONE',  ( 0.000000000000000000, 0.000000000000000000, 1.000000000000000000 ) ) ;
#543 = FACE_OUTER_BOUND ( 'NONE', #313, .T. ) ;
#544 = VECTOR ( 'NONE', #213, 1000.000000000000114 ) ;
#545 = ORIENTED_EDGE ( 'NONE', *, *, #23, .F. ) ;
#546 = CARTESIAN_POINT ( 'NONE',  ( 8.000000000000000000, 1.999999999999994449, 0.000000000000000000 ) ) ;
#547 = CARTESIAN_POINT ( 'NONE',  ( 8.000000000000000000, 2.000000000000000000, 0.000000000000000000 ) ) ;
#548 = VERTEX_POINT ( 'NONE', #201 ) ;
#549 = DIRECTION ( 'NONE',  ( 1.097127629939990044E-16, -1.000000000000000000, -0.000000000000000000 ) ) ;
#550 = VECTOR ( 'NONE', #138, 1000.000000000000000 ) ;
#551 = DIRECTION ( 'NONE',  ( 2.478176394252581387E-17, -1.000000000000000000, 0.000000000000000000 ) ) ;
#552 = PRODUCT_CONTEXT ( 'NONE', #243, 'mechanical' ) ;
#553 = ORIENTED_EDGE ( 'NONE', *, *, #77, .T. ) ;
#554 = AXIS2_PLACEMENT_3D ( 'NONE', #641, #367, #535 ) ;
#555 = CARTESIAN_POINT ( 'NONE',  ( 62.10000000000000853, 10.00000000000000888, 0.000000000000000000 ) ) ;
#556 = EDGE_CURVE ( 'NONE', #246, #572, #491, .T. ) ;
#557 = ORIENTED_EDGE ( 'NONE', *, *, #521, .T. ) ;
#558 = VERTEX_POINT ( 'NONE', #616 ) ;
#559 = EDGE_CURVE ( 'NONE', #563, #548, #680, .T. ) ;
#560 = DIRECTION ( 'NONE',  ( 0.7071067811865500152, 0.000000000000000000, -0.7071067811865451302 ) ) ;
#561 = ORIENTED_EDGE ( 'NONE', *, *, #556, .T. ) ;
#562 = LINE ( 'NONE', #620, #288 ) ;
#563 = VERTEX_POINT ( 'NONE', #555 ) ;
#564 = EDGE_CURVE ( 'NONE', #673, #443, #144, .T. ) ;
#565 = VERTEX_POINT ( 'NONE', #155 ) ;
#566 = CARTESIAN_POINT ( 'NONE',  ( 0.000000000000000000, 0.000000000000000000, -10.00000000000000000 ) ) ;
#567 = DIRECTION ( 'NONE',  ( 1.000000000000000000, 2.065146995210486667E-16, 0.000000000000000000 ) ) ;
#568 = ORIENTED_EDGE ( 'NONE', *, *, #210, .T. ) ;
#569 = DIRECTION ( 'NONE',  ( 1.000000000000000000, 0.000000000000000000, 0.000000000000000000 ) ) ;
#570 = EDGE_CURVE ( 'NONE', #484, #424, #638, .T. ) ;
#571 = CARTESIAN_POINT ( 'NONE',  ( 7.999999999999998224, 10.00000000000000355, 0.000000000000000000 ) ) ;
#572 = VERTEX_POINT ( 'NONE', #319 ) ;
#573 = CIRCLE ( 'NONE', #183, 2.099999999999997868 ) ;
#574 = DIRECTION ( 'NONE',  ( 1.000000000000000000, 0.000000000000000000, 0.000000000000000000 ) ) ;
#575 = AXIS2_PLACEMENT_3D ( 'NONE', #547, #665, #203 ) ;
#576 = EDGE_LOOP ( 'NONE', ( #545, #328, #623, #497, #498, #728 ) ) ;
#577 = VECTOR ( 'NONE', #505, 1000.000000000000000 ) ;
#578 = EDGE_CURVE ( 'NONE', #27, #269, #639, .T. ) ;
#579 = DIRECTION ( 'NONE',  ( 1.000000000000000000, -4.082155997157842586E-17, 0.000000000000000000 ) ) ;
#580 = DIRECTION ( 'NONE',  ( 1.097127629939990044E-16, -1.000000000000000000, 0.000000000000000000 ) ) ;
#581 = FACE_OUTER_BOUND ( 'NONE', #689, .T. ) ;
#582 = EDGE_CURVE ( 'NONE', #143, #610, #507, .T. ) ;
#583 = CARTESIAN_POINT ( 'NONE',  ( 70.00000000000000000, 10.00000000000000178, 10.00000000000000000 ) ) ;
#584 = TOROIDAL_SURFACE ( 'NONE', #709, 6.000000000000000000, 1.000000000000000000 ) ;
#585 = DIRECTION ( 'NONE',  ( -0.000000000000000000, -0.000000000000000000, -1.000000000000000000 ) ) ;
#586 = EDGE_CURVE ( 'NONE', #678, #190, #562, .T. ) ;
#587 = FACE_OUTER_BOUND ( 'NONE', #37, .T. ) ;
#588 = DIRECTION ( 'NONE',  ( -4.082155997157842586E-17, -1.000000000000000000, 0.000000000000000000 ) ) ;
#589 = ORIENTED_EDGE ( 'NONE', *, *, #428, .F. ) ;
#590 = CARTESIAN_POINT ( 'NONE',  ( -2.449293598294705921E-16, 4.000000000000000000, 7.999999999999998224 ) ) ;
#591 = ADVANCED_FACE ( 'NONE', ( #398 ), #102, .T. ) ;
#592 = DIRECTION ( 'NONE',  ( -0.7071067811865500152, -1.752335333352433265E-17, 0.7071067811865451302 ) ) ;
#593 = ORIENTED_EDGE ( 'NONE', *, *, #35, .T. ) ;
#594 = DIRECTION ( 'NONE',  ( 1.097127629939990044E-16, -1.000000000000000000, -0.000000000000000000 ) ) ;
#595 = FACE_BOUND ( 'NONE', #131, .T. ) ;
#596 = ORIENTED_EDGE ( 'NONE', *, *, #521, .F. ) ;
#597 = AXIS2_PLACEMENT_3D ( 'NONE', #425, #194, #651 ) ;
#598 = DIRECTION ( 'NONE',  ( 1.000000000000000000, 0.000000000000000000, 0.000000000000000000 ) ) ;
#599 = DIRECTION ( 'NONE',  ( 0.000000000000000000, 1.000000000000000000, 0.000000000000000000 ) ) ;
#600 = EDGE_LOOP ( 'NONE', ( #215, #69 ) ) ;
#601 = ORIENTED_EDGE ( 'NONE', *, *, #617, .T. ) ;
#602 = CARTESIAN_POINT ( 'NONE',  ( 8.000000000000000000, 2.000000000000000000, 0.000000000000000000 ) ) ;
#603 = FACE_BOUND ( 'NONE', #711, .T. ) ;
#604 = ORIENTED_EDGE ( 'NONE', *, *, #540, .F. ) ;
#605 = EDGE_CURVE ( 'NONE', #96, #246, #336, .T. ) ;
#606 = CARTESIAN_POINT ( 'NONE',  ( 8.000000000000000000, 3.000000000000000000, -5.000000000000000000 ) ) ;
#607 = EDGE_LOOP ( 'NONE', ( #145, #596, #447, #452 ) ) ;
#608 = DIRECTION ( 'NONE',  ( 1.000000000000000000, 0.000000000000000000, 0.000000000000000000 ) ) ;
#609 = ORIENTED_EDGE ( 'NONE', *, *, #66, .T. ) ;
#610 = VERTEX_POINT ( 'NONE', #606 ) ;
#611 = EDGE_CURVE ( 'NONE', #730, #267, #501, .T. ) ;
#612 = VECTOR ( 'NONE', #42, 1000.000000000000000 ) ;
#613 = DIRECTION ( 'NONE',  ( -0.7071067811865451302, 2.886520187451633809E-17, -0.7071067811865500152 ) ) ;
#614 = ORIENTED_EDGE ( 'NONE', *, *, #502, .F. ) ;
#615 = AXIS2_PLACEMENT_3D ( 'NONE', #485, #247, #718 ) ;
#616 = CARTESIAN_POINT ( 'NONE',  ( 11.09999999999999964, 1.999999999999994893, 0.000000000000000000 ) ) ;
#617 = EDGE_CURVE ( 'NONE', #350, #565, #721, .T. ) ;
#618 = ORIENTED_EDGE ( 'NONE', *, *, #237, .F. ) ;
#619 = VERTEX_POINT ( 'NONE', #726 ) ;
#620 = CARTESIAN_POINT ( 'NONE',  ( 57.90000000000001279, 10.00000000000000888, 2.571758278209438506E-16 ) ) ;
#621 = EDGE_CURVE ( 'NONE', #619, #303, #437, .T. ) ;
#622 = STYLED_ITEM ( 'NONE', ( #523 ), #346 ) ;
#623 = ORIENTED_EDGE ( 'NONE', *, *, #344, .F. ) ;
#624 = AXIS2_PLACEMENT_3D ( 'NONE', #647, #529, #184 ) ;
#625 = CARTESIAN_POINT ( 'NONE',  ( 8.000000000000000000, 2.000000000000000000, 5.000000000000000000 ) ) ;
#626 = DIRECTION ( 'NONE',  ( 1.097127629939990044E-16, -1.000000000000000000, 0.000000000000000000 ) ) ;
#627 = VERTEX_POINT ( 'NONE', #271 ) ;
#628 = COLOUR_RGB ( '',1.000000000000000000, 1.000000000000000000, 1.000000000000000000 ) ;
#629 = CARTESIAN_POINT ( 'NONE',  ( 8.000000000000000000, 2.000000000000000000, 5.000000000000000000 ) ) ;
#630 = CARTESIAN_POINT ( 'NONE',  ( 30.00000000000000000, 1.999999999999997113, 10.00000000000000000 ) ) ;
#631 = FACE_OUTER_BOUND ( 'NONE', #750, .T. ) ;
#632 = ADVANCED_FACE ( 'NONE', ( #141 ), #380, .T. ) ;
#633 = CARTESIAN_POINT ( 'NONE',  ( 4.899999999999999467, 1.999999999999994005, 3.796405077356795411E-16 ) ) ;
#634 = DIRECTION ( 'NONE',  ( 1.000000000000000000, 0.000000000000000000, 0.000000000000000000 ) ) ;
#635 = EDGE_CURVE ( 'NONE', #158, #96, #84, .T. ) ;
#636 = APPLICATION_CONTEXT ( 'automotive_design' ) ;
#637 = ORIENTED_EDGE ( 'NONE', *, *, #97, .F. ) ;
#638 = CIRCLE ( 'NONE', #415, 6.000000000000000000 ) ;
#639 = CIRCLE ( 'NONE', #191, 2.099999999999997868 ) ;
#640 = CARTESIAN_POINT ( 'NONE',  ( 30.00000000000000000, 1.999999999999997113, 10.00000000000000000 ) ) ;
#641 = CARTESIAN_POINT ( 'NONE',  ( 0.000000000000000000, 0.000000000000000000, 10.00000000000000000 ) ) ;
#642 = EDGE_CURVE ( 'NONE', #678, #563, #511, .T. ) ;
#643 = DIRECTION ( 'NONE',  ( 1.097127629939990044E-16, -1.000000000000000000, 0.000000000000000000 ) ) ;
#644 = DIRECTION ( 'NONE',  ( 4.082155997157842586E-17, 1.000000000000000000, 0.000000000000000000 ) ) ;
#645 = VECTOR ( 'NONE', #658, 1000.000000000000000 ) ;
#646 = DIRECTION ( 'NONE',  ( -0.000000000000000000, 0.000000000000000000, -1.000000000000000000 ) ) ;
#647 = CARTESIAN_POINT ( 'NONE',  ( 70.00000000000000000, 2.000000000000001776, 10.00000000000000000 ) ) ;
#648 = ORIENTED_EDGE ( 'NONE', *, *, #423, .T. ) ;
#649 = ADVANCED_FACE ( 'NONE', ( #34 ), #731, .T. ) ;
#650 = VECTOR ( 'NONE', #282, 1000.000000000000000 ) ;
#651 = DIRECTION ( 'NONE',  ( 0.000000000000000000, 0.000000000000000000, 1.000000000000000000 ) ) ;
#652 = DIRECTION ( 'NONE',  ( 1.097127629939990044E-16, -1.000000000000000000, 0.000000000000000000 ) ) ;
#653 = ORIENTED_EDGE ( 'NONE', *, *, #436, .F. ) ;
#654 = ORIENTED_EDGE ( 'NONE', *, *, #676, .F. ) ;
#655 = DIRECTION ( 'NONE',  ( 0.000000000000000000, -1.000000000000000000, 0.000000000000000000 ) ) ;
#656 = CARTESIAN_POINT ( 'NONE',  ( 42.10000000000000853, 10.00000000000000711, 0.000000000000000000 ) ) ;
#657 = EDGE_LOOP ( 'NONE', ( #614, #273, #609, #742 ) ) ;
#658 = DIRECTION ( 'NONE',  ( -0.000000000000000000, -0.000000000000000000, -1.000000000000000000 ) ) ;
#659 = PRODUCT_DEFINITION_SHAPE ( 'NONE', 'NONE',  #168 ) ;
#660 = FACE_OUTER_BOUND ( 'NONE', #13, .T. ) ;
#661 = AXIS2_PLACEMENT_3D ( 'NONE', #120, #422, #697 ) ;
#662 = ORIENTED_EDGE ( 'NONE', *, *, #150, .F. ) ;
#663 = ORIENTED_EDGE ( 'NONE', *, *, #559, .F. ) ;
#664 = DIRECTION ( 'NONE',  ( 0.000000000000000000, 1.000000000000000000, 0.000000000000000000 ) ) ;
#665 = DIRECTION ( 'NONE',  ( 0.000000000000000000, -1.000000000000000000, 0.000000000000000000 ) ) ;
#666 = ORIENTED_EDGE ( 'NONE', *, *, #436, .T. ) ;
#667 = ORIENTED_EDGE ( 'NONE', *, *, #292, .T. ) ;
#668 = DIRECTION ( 'NONE',  ( 0.7071067811865500152, 8.433113791758583644E-17, 0.7071067811865451302 ) ) ;
#669 = ORIENTED_EDGE ( 'NONE', *, *, #301, .F. ) ;
#670 = EDGE_LOOP ( 'NONE', ( #140, #516, #39, #732 ) ) ;
#671 = DIRECTION ( 'NONE',  ( 0.000000000000000000, 1.000000000000000000, 0.000000000000000000 ) ) ;
#672 = AXIS2_PLACEMENT_3D ( 'NONE', #4, #166, #353 ) ;
#673 = VERTEX_POINT ( 'NONE', #743 ) ;
#674 = ORIENTED_EDGE ( 'NONE', *, *, #621, .T. ) ;
#675 = DIRECTION ( 'NONE',  ( 1.097127629939990044E-16, -1.000000000000000000, -0.000000000000000000 ) ) ;
#676 = EDGE_CURVE ( 'NONE', #397, #401, #160, .T. ) ;
#677 = VERTEX_POINT ( 'NONE', #629 ) ;
#678 = VERTEX_POINT ( 'NONE', #748 ) ;
#679 = ORIENTED_EDGE ( 'NONE', *, *, #444, .T. ) ;
#680 = LINE ( 'NONE', #739, #714 ) ;
#681 =( NAMED_UNIT ( * ) PLANE_ANGLE_UNIT ( ) SI_UNIT ( $, .RADIAN. ) );
#682 = EDGE_LOOP ( 'NONE', ( #712, #48, #589, #378 ) ) ;
#683 = CARTESIAN_POINT ( 'NONE',  ( 60.00000000000001421, 10.00000000000000888, 0.000000000000000000 ) ) ;
#684 = SURFACE_STYLE_FILL_AREA ( #413 ) ;
#685 = AXIS2_PLACEMENT_3D ( 'NONE', #251, #655, #376 ) ;
#686 = LINE ( 'NONE', #116, #392 ) ;
#687 = DIRECTION ( 'NONE',  ( -0.000000000000000000, -0.000000000000000000, -1.000000000000000000 ) ) ;
#688 = DIRECTION ( 'NONE',  ( 0.000000000000000000, 1.000000000000000000, 0.000000000000000000 ) ) ;
#689 = EDGE_LOOP ( 'NONE', ( #604, #32, #371, #132 ) ) ;
#690 = AXIS2_PLACEMENT_3D ( 'NONE', #683, #402, #569 ) ;
#691 = EDGE_CURVE ( 'NONE', #246, #303, #464, .T. ) ;
#692 = LINE ( 'NONE', #625, #226 ) ;
#693 = PLANE ( 'NONE',  #115 ) ;
#694 = CYLINDRICAL_SURFACE ( 'NONE', #234, 2.099999999999997868 ) ;
#695 = FACE_OUTER_BOUND ( 'NONE', #207, .T. ) ;
#696 = DIRECTION ( 'NONE',  ( 0.7071067811865500152, -2.886520187451653531E-17, -0.7071067811865451302 ) ) ;
#697 = DIRECTION ( 'NONE',  ( 1.000000000000000000, 0.000000000000000000, 0.000000000000000000 ) ) ;
#698 = EDGE_CURVE ( 'NONE', #443, #308, #518, .T. ) ;
#699 = CIRCLE ( 'NONE', #597, 5.000000000000000000 ) ;
#700 = LINE ( 'NONE', #421, #276 ) ;
#701 = FACE_BOUND ( 'NONE', #729, .T. ) ;
#702 = PLANE ( 'NONE',  #685 ) ;
#703 = UNCERTAINTY_MEASURE_WITH_UNIT (LENGTH_MEASURE( 1.000000000000000082E-05 ), #332, 'distance_accuracy_value', 'NONE');
#704 = DIRECTION ( 'NONE',  ( 1.000000000000000000, 1.398970545142586048E-16, 0.000000000000000000 ) ) ;
#705 = EDGE_CURVE ( 'NONE', #572, #619, #457, .T. ) ;
#706 = AXIS2_PLACEMENT_3D ( 'NONE', #316, #551, #377 ) ;
#707 = ORIENTED_EDGE ( 'NONE', *, *, #502, .T. ) ;
#708 = CARTESIAN_POINT ( 'NONE',  ( 4.899999999999997691, 10.00000000000000355, 3.796405077356795411E-16 ) ) ;
#709 = AXIS2_PLACEMENT_3D ( 'NONE', #285, #509, #345 ) ;
#710 = CARTESIAN_POINT ( 'NONE',  ( 37.90000000000001279, 10.00000000000000711, 2.571758278209438013E-16 ) ) ;
#711 = EDGE_LOOP ( 'NONE', ( #254, #104 ) ) ;
#712 = ORIENTED_EDGE ( 'NONE', *, *, #193, .T. ) ;
#713 = CARTESIAN_POINT ( 'NONE',  ( 7.999999999999998224, 10.00000000000000355, 0.000000000000000000 ) ) ;
#714 = VECTOR ( 'NONE', #675, 1000.000000000000000 ) ;
#715 = PLANE ( 'NONE',  #363 ) ;
#716 = ADVANCED_FACE ( 'NONE', ( #45 ), #225, .F. ) ;
#717 = ORIENTED_EDGE ( 'NONE', *, *, #237, .T. ) ;
#718 = DIRECTION ( 'NONE',  ( 1.000000000000000000, 0.000000000000000000, 0.000000000000000000 ) ) ;
#719 = CARTESIAN_POINT ( 'NONE',  ( 30.00000000000000000, 4.000000000000000000, -10.00000000000000000 ) ) ;
#720 =( GEOMETRIC_REPRESENTATION_CONTEXT ( 3 ) GLOBAL_UNCERTAINTY_ASSIGNED_CONTEXT ( ( #228 ) ) GLOBAL_UNIT_ASSIGNED_CONTEXT ( ( #751, #223, #161 ) ) REPRESENTATION_CONTEXT ( 'NONE', 'WORKASPACE' ) );
#721 = LINE ( 'NONE', #41, #544 ) ;
#722 = PRODUCT_DEFINITION_CONTEXT ( 'detailed design', #636, 'design' ) ;
#723 = CARTESIAN_POINT ( 'NONE',  ( 68.00000000000000000, 10.00000000000000178, -10.00000000000000000 ) ) ;
#724 = AXIS2_PLACEMENT_3D ( 'NONE', #76, #374, #25 ) ;
#725 = EDGE_CURVE ( 'NONE', #677, #143, #692, .T. ) ;
#726 = CARTESIAN_POINT ( 'NONE',  ( 70.00000000000000000, 2.000000000000001776, -8.000000000000012434 ) ) ;
#727 = AXIS2_PLACEMENT_3D ( 'NONE', #508, #103, #608 ) ;
#728 = ORIENTED_EDGE ( 'NONE', *, *, #698, .T. ) ;
#729 = EDGE_LOOP ( 'NONE', ( #180, #389 ) ) ;
#730 = VERTEX_POINT ( 'NONE', #222 ) ;
#731 = PLANE ( 'NONE',  #522 ) ;
#732 = ORIENTED_EDGE ( 'NONE', *, *, #462, .T. ) ;
#733 = ORIENTED_EDGE ( 'NONE', *, *, #476, .F. ) ;
#734 = CARTESIAN_POINT ( 'NONE',  ( 8.000000000000000000, 4.000000000000000000, 0.000000000000000000 ) ) ;
#735 = ORIENTED_EDGE ( 'NONE', *, *, #206, .T. ) ;
#736 = EDGE_LOOP ( 'NONE', ( #139, #304, #204, #429, #536, #99 ) ) ;
#737 = VECTOR ( 'NONE', #752, 1000.000000000000000 ) ;
#738 = ORIENTED_EDGE ( 'NONE', *, *, #347, .F. ) ;
#739 = CARTESIAN_POINT ( 'NONE',  ( 62.10000000000000853, 10.00000000000000888, 0.000000000000000000 ) ) ;
#740 = ORIENTED_EDGE ( 'NONE', *, *, #23, .T. ) ;
#741 = VECTOR ( 'NONE', #560, 1000.000000000000114 ) ;
#742 = ORIENTED_EDGE ( 'NONE', *, *, #97, .T. ) ;
#743 = CARTESIAN_POINT ( 'NONE',  ( -2.449293598294705921E-16, 4.000000000000000000, -8.000000000000012434 ) ) ;
#744 = DIRECTION ( 'NONE',  ( -1.000000000000000000, 0.000000000000000000, 0.000000000000000000 ) ) ;
#745 = DIRECTION ( 'NONE',  ( -1.000000000000000000, 0.000000000000000000, -0.000000000000000000 ) ) ;
#746 = CARTESIAN_POINT ( 'NONE',  ( 8.000000000000000000, 4.000000000000000000, 0.000000000000000000 ) ) ;
#747 = CARTESIAN_POINT ( 'NONE',  ( 8.000000000000000000, 2.000000000000000000, -5.000000000000000000 ) ) ;
#748 = CARTESIAN_POINT ( 'NONE',  ( 57.90000000000001279, 10.00000000000000888, 2.571758278209438013E-16 ) ) ;
#749 = EDGE_CURVE ( 'NONE', #267, #446, #164, .T. ) ;
#750 = EDGE_LOOP ( 'NONE', ( #466, #717, #323, #503 ) ) ;
#751 =( LENGTH_UNIT ( ) NAMED_UNIT ( * ) SI_UNIT ( .MILLI., .METRE. ) );
#752 = DIRECTION ( 'NONE',  ( -0.000000000000000000, 1.000000000000000000, -0.000000000000000000 ) ) ;
#753 = ADVANCED_FACE ( 'NONE', ( #340 ), #461, .T. ) ;
#754 = SURFACE_STYLE_USAGE ( .BOTH. , #112 ) ;
ENDSEC;
END-ISO-10303-21;
