ISO-10303-21;
HEADER;
FILE_DESCRIPTION (( 'STEP AP214' ),
    '1' );
FILE_NAME ('后LB.step',
    '2023-08-15T02:58:25',
    ( '' ),
    ( '' ),
    'SwSTEP 2.0',
    'SolidWorks 2022',
    '' );
FILE_SCHEMA (( 'AUTOMOTIVE_DESIGN' ));
ENDSEC;

DATA;
#1 = CYLINDRICAL_SURFACE ( 'NONE', #639, 3.900000000000000799 ) ;
#2 = EDGE_CURVE ( 'NONE', #965, #961, #92, .T. ) ;
#3 = CARTESIAN_POINT ( 'NONE',  ( -12.79717104351894186, 19.44942103659342436, 9.000000000000001776 ) ) ;
#4 = EDGE_CURVE ( 'NONE', #881, #1035, #363, .T. ) ;
#5 = DIRECTION ( 'NONE',  ( 0.000000000000000000, 0.000000000000000000, -1.000000000000000000 ) ) ;
#6 = ORIENTED_EDGE ( 'NONE', *, *, #95, .T. ) ;
#7 = DIRECTION ( 'NONE',  ( -0.000000000000000000, 1.000000000000000000, -0.000000000000000000 ) ) ;
#8 = CARTESIAN_POINT ( 'NONE',  ( -9.195490512202193045, 13.96320000000005734, 9.000000000000001776 ) ) ;
#9 = EDGE_CURVE ( 'NONE', #961, #512, #261, .T. ) ;
#10 = CARTESIAN_POINT ( 'NONE',  ( -22.00000000000000355, 3.000000000000000000, 3.673097038856279806 ) ) ;
#11 = CIRCLE ( 'NONE', #295, 10.99999999999999289 ) ;
#12 = DIRECTION ( 'NONE',  ( -0.000000000000000000, -0.000000000000000000, -1.000000000000000000 ) ) ;
#13 = EDGE_CURVE ( 'NONE', #433, #160, #883, .T. ) ;
#14 = VECTOR ( 'NONE', #7, 1000.000000000000000 ) ;
#15 = AXIS2_PLACEMENT_3D ( 'NONE', #944, #515, #1043 ) ;
#16 = ORIENTED_EDGE ( 'NONE', *, *, #301, .T. ) ;
#17 = DIRECTION ( 'NONE',  ( 1.000000000000000000, 0.000000000000000000, 0.000000000000000000 ) ) ;
#18 = PLANE ( 'NONE',  #208 ) ;
#19 = CARTESIAN_POINT ( 'NONE',  ( -21.38017255183530452, 4.068526597521548105, -1.463831910880252231E-15 ) ) ;
#20 = EDGE_CURVE ( 'NONE', #506, #961, #235, .T. ) ;
#21 = CARTESIAN_POINT ( 'NONE',  ( -21.05737526271796156, 4.625000000000000000, 3.000000000000001776 ) ) ;
#22 = CARTESIAN_POINT ( 'NONE',  ( -7.082357463734181735, 30.03745175304945292, 8.545551414658765665 ) ) ;
#23 = DIRECTION ( 'NONE',  ( 0.000000000000000000, -1.000000000000000000, -1.107506670533258812E-16 ) ) ;
#24 = CARTESIAN_POINT ( 'NONE',  ( 8.110039129564812654, 27.69020211544171417, 8.950685417379517617 ) ) ;
#25 = CARTESIAN_POINT ( 'NONE',  ( -8.640942985493659023, 27.14980701219779746, 8.939459715000040774 ) ) ;
#26 = ORIENTED_EDGE ( 'NONE', *, *, #1134, .F. ) ;
#27 = VECTOR ( 'NONE', #810, 1000.000000000000000 ) ;
#28 = DIRECTION ( 'NONE',  ( 1.000000000000000000, 0.000000000000000000, 0.000000000000000000 ) ) ;
#29 = CIRCLE ( 'NONE', #480, 8.000000000000000000 ) ;
#30 = LINE ( 'NONE', #1076, #951 ) ;
#31 = CARTESIAN_POINT ( 'NONE',  ( 22.00000000000000000, 4.625000000000000000, 4.625000000000000888 ) ) ;
#32 = EDGE_CURVE ( 'NONE', #734, #429, #983, .T. ) ;
#33 = ORIENTED_EDGE ( 'NONE', *, *, #243, .F. ) ;
#34 = CARTESIAN_POINT ( 'NONE',  ( 9.679999999999980176, 14.77528948170329492, 9.000000000000001776 ) ) ;
#35 = LINE ( 'NONE', #574, #1070 ) ;
#36 = CARTESIAN_POINT ( 'NONE',  ( 5.937171043518990388, 30.99999999999999289, 9.000000000000001776 ) ) ;
#37 = EDGE_CURVE ( 'NONE', #682, #523, #349, .T. ) ;
#38 = VERTEX_POINT ( 'NONE', #535 ) ;
#39 = DIRECTION ( 'NONE',  ( 0.000000000000000000, 0.000000000000000000, 1.000000000000000000 ) ) ;
#40 =( NAMED_UNIT ( * ) PLANE_ANGLE_UNIT ( ) SI_UNIT ( $, .RADIAN. ) );
#41 = DIRECTION ( 'NONE',  ( 1.000000000000000000, 0.000000000000000000, 0.000000000000000000 ) ) ;
#42 = EDGE_CURVE ( 'NONE', #479, #439, #334, .T. ) ;
#43 = MANIFOLD_SOLID_BREP ( '切除-拉伸4', #1048 ) ;
#44 = CIRCLE ( 'NONE', #691, 10.99999999999999289 ) ;
#45 = FACE_OUTER_BOUND ( 'NONE', #91, .T. ) ;
#46 = DIRECTION ( 'NONE',  ( -1.000000000000000000, -0.000000000000000000, -0.000000000000000000 ) ) ;
#47 = CIRCLE ( 'NONE', #559, 10.49999999999999467 ) ;
#48 = AXIS2_PLACEMENT_3D ( 'NONE', #146, #411, #1133 ) ;
#49 = DIRECTION ( 'NONE',  ( 1.000000000000000000, 0.000000000000000000, 0.000000000000000000 ) ) ;
#50 = PRESENTATION_LAYER_ASSIGNMENT (  '', '', ( #1052 ) ) ;
#51 = DIRECTION ( 'NONE',  ( 0.000000000000000000, 0.000000000000000000, 1.000000000000000000 ) ) ;
#52 = LINE ( 'NONE', #1016, #912 ) ;
#53 = CARTESIAN_POINT ( 'NONE',  ( -18.09999999999999787, -1.592040838891559095E-15, 19.00000000000000000 ) ) ;
#54 = EDGE_LOOP ( 'NONE', ( #260, #268, #256, #205 ) ) ;
#55 = ORIENTED_EDGE ( 'NONE', *, *, #797, .F. ) ;
#56 = CARTESIAN_POINT ( 'NONE',  ( 16.00000000000000000, 3.000000000000000000, 15.75000000000000000 ) ) ;
#57 = DIRECTION ( 'NONE',  ( 0.000000000000000000, 1.000000000000000000, 0.000000000000000000 ) ) ;
#58 = DIRECTION ( 'NONE',  ( -1.000000000000000000, 0.000000000000000000, 0.000000000000000000 ) ) ;
#59 = CARTESIAN_POINT ( 'NONE',  ( 1.980995057565242634, 30.99999999999998934, 8.950478669493817208 ) ) ;
#60 = ORIENTED_EDGE ( 'NONE', *, *, #135, .T. ) ;
#61 = ORIENTED_EDGE ( 'NONE', *, *, #184, .T. ) ;
#62 = CARTESIAN_POINT ( 'NONE',  ( -18.09999999999999787, 3.000000000000000000, 15.09999999999999964 ) ) ;
#63 = VERTEX_POINT ( 'NONE', #628 ) ;
#64 = DIRECTION ( 'NONE',  ( 0.000000000000000000, 0.000000000000000000, 1.000000000000000000 ) ) ;
#65 = CIRCLE ( 'NONE', #638, 2.750000000000000888 ) ;
#66 = DIRECTION ( 'NONE',  ( -0.000000000000000000, -0.000000000000000000, 1.000000000000000000 ) ) ;
#67 = AXIS2_PLACEMENT_3D ( 'NONE', #365, #736, #193 ) ;
#68 = EDGE_LOOP ( 'NONE', ( #1139, #165, #738 ) ) ;
#69 = EDGE_CURVE ( 'NONE', #512, #595, #451, .T. ) ;
#70 = EDGE_LOOP ( 'NONE', ( #145, #151, #61, #863, #127 ) ) ;
#71 = DIRECTION ( 'NONE',  ( -0.000000000000000000, 1.000000000000000000, -0.000000000000000000 ) ) ;
#72 = ORIENTED_EDGE ( 'NONE', *, *, #243, .T. ) ;
#73 = FACE_BOUND ( 'NONE', #608, .T. ) ;
#74 = PRODUCT_DEFINITION_SHAPE ( 'NONE', 'NONE',  #530 ) ;
#75 = CARTESIAN_POINT ( 'NONE',  ( -5.937171043518991276, 9.000000000000012434, 3.000000000000001776 ) ) ;
#76 = EDGE_LOOP ( 'NONE', ( #154, #72, #419, #1138, #890 ) ) ;
#77 = EDGE_LOOP ( 'NONE', ( #134, #98, #779, #1049, #1129, #140 ) ) ;
#78 = EDGE_CURVE ( 'NONE', #173, #1030, #302, .T. ) ;
#79 = CARTESIAN_POINT ( 'NONE',  ( -12.50000000000001066, 20.00000000000000000, 8.454044648600699929 ) ) ;
#80 = VERTEX_POINT ( 'NONE', #96 ) ;
#81 = CARTESIAN_POINT ( 'NONE',  ( 9.679999999999980176, 14.77528948170329492, 9.000000000000001776 ) ) ;
#82 = DIRECTION ( 'NONE',  ( 0.000000000000000000, 0.000000000000000000, 1.000000000000000000 ) ) ;
#83 = ORIENTED_EDGE ( 'NONE', *, *, #923, .T. ) ;
#84 = ORIENTED_EDGE ( 'NONE', *, *, #1094, .F. ) ;
#85 = CARTESIAN_POINT ( 'NONE',  ( 1.097020875943682361, 9.000000000000015987, 9.000000000000007105 ) ) ;
#86 = ADVANCED_FACE ( 'NONE', ( #728, #791, #988 ), #1088, .F. ) ;
#87 = CARTESIAN_POINT ( 'NONE',  ( 12.19735551540083307, 21.46424149949884708, 8.545393555594779755 ) ) ;
#88 = AXIS2_PLACEMENT_3D ( 'NONE', #384, #657, #477 ) ;
#89 = AXIS2_PLACEMENT_3D ( 'NONE', #459, #182, #887 ) ;
#90 =( GEOMETRIC_REPRESENTATION_CONTEXT ( 3 ) GLOBAL_UNCERTAINTY_ASSIGNED_CONTEXT ( ( #1080 ) ) GLOBAL_UNIT_ASSIGNED_CONTEXT ( ( #605, #40, #430 ) ) REPRESENTATION_CONTEXT ( 'NONE', 'WORKASPACE' ) );
#91 = EDGE_LOOP ( 'NONE', ( #1089, #1060, #597, #565, #913 ) ) ;
#92 = LINE ( 'NONE', #438, #711 ) ;
#93 = ORIENTED_EDGE ( 'NONE', *, *, #42, .T. ) ;
#94 = FACE_OUTER_BOUND ( 'NONE', #335, .T. ) ;
#95 = EDGE_CURVE ( 'NONE', #1014, #486, #204, .T. ) ;
#96 = CARTESIAN_POINT ( 'NONE',  ( 12.32585431356550743, 19.67735432637222104, 3.000000000000002220 ) ) ;
#97 = PRODUCT_CONTEXT ( 'NONE', #555, 'mechanical' ) ;
#98 = ORIENTED_EDGE ( 'NONE', *, *, #818, .T. ) ;
#99 = CARTESIAN_POINT ( 'NONE',  ( 6.562828956481025600, 9.000000000000019540, 8.341574395017428145 ) ) ;
#100 = DIRECTION ( 'NONE',  ( 0.000000000000000000, -1.000000000000000000, 0.000000000000000000 ) ) ;
#101 = LINE ( 'NONE', #446, #266 ) ;
#102 = SHAPE_DEFINITION_REPRESENTATION ( #74, #1104 ) ;
#103 = ORIENTED_EDGE ( 'NONE', *, *, #578, .T. ) ;
#104 = FACE_OUTER_BOUND ( 'NONE', #322, .T. ) ;
#105 = CARTESIAN_POINT ( 'NONE',  ( 6.480620294798654868, 30.17219678736986666, 8.625235403843486637 ) ) ;
#106 = CARTESIAN_POINT ( 'NONE',  ( -9.082524891698046332, 25.26856162455041499, 3.000000000000002665 ) ) ;
#107 = AXIS2_PLACEMENT_3D ( 'NONE', #1005, #217, #575 ) ;
#108 = VECTOR ( 'NONE', #250, 1000.000000000000000 ) ;
#109 = EDGE_CURVE ( 'NONE', #361, #1055, #637, .T. ) ;
#110 = EDGE_LOOP ( 'NONE', ( #521, #786, #332, #905, #33, #949 ) ) ;
#111 = CARTESIAN_POINT ( 'NONE',  ( -22.00000000000000000, 3.000000000000000000, 4.625000000000004441 ) ) ;
#112 = CARTESIAN_POINT ( 'NONE',  ( -9.679999999999983729, 25.22471051829670330, 9.000000000000001776 ) ) ;
#113 = EDGE_CURVE ( 'NONE', #857, #689, #116, .T. ) ;
#114 = DIRECTION ( 'NONE',  ( -0.000000000000000000, 1.000000000000000000, -0.000000000000000000 ) ) ;
#115 = DIRECTION ( 'NONE',  ( -1.000000000000000000, 0.000000000000000000, 0.000000000000000000 ) ) ;
#116 = LINE ( 'NONE', #179, #465 ) ;
#117 = VERTEX_POINT ( 'NONE', #531 ) ;
#118 = CARTESIAN_POINT ( 'NONE',  ( 22.00000000000000000, 4.625000000000000000, 4.625000000000000888 ) ) ;
#119 = CARTESIAN_POINT ( 'NONE',  ( 5.937171043518990388, 30.99999999999999289, 8.454044648600701706 ) ) ;
#120 = CARTESIAN_POINT ( 'NONE',  ( -10.61999999999999389, 23.48314034553114027, 8.950606663877113789 ) ) ;
#121 = ADVANCED_FACE ( 'NONE', ( #816 ), #667, .T. ) ;
#122 = ORIENTED_EDGE ( 'NONE', *, *, #483, .F. ) ;
#123 = CARTESIAN_POINT ( 'NONE',  ( 7.601885970987345864, 10.92509649390111726, 8.711849191477075038 ) ) ;
#124 = VECTOR ( 'NONE', #519, 1000.000000000000000 ) ;
#125 = CARTESIAN_POINT ( 'NONE',  ( 22.00000000000000000, -1.592040838891559095E-15, 19.00000000000000000 ) ) ;
#126 = DIRECTION ( 'NONE',  ( 0.000000000000000000, 0.000000000000000000, -1.000000000000000000 ) ) ;
#127 = ORIENTED_EDGE ( 'NONE', *, *, #995, .F. ) ;
#128 = CARTESIAN_POINT ( 'NONE',  ( 9.679999999999980176, 14.77528948170329492, 9.000000000000001776 ) ) ;
#129 = APPLICATION_PROTOCOL_DEFINITION ( 'draft international standard', 'automotive_design', 1998, #555 ) ;
#130 = FACE_OUTER_BOUND ( 'NONE', #491, .T. ) ;
#131 = PLANE ( 'NONE',  #726 ) ;
#132 = LINE ( 'NONE', #125, #177 ) ;
#133 = DIRECTION ( 'NONE',  ( 0.000000000000000000, 0.000000000000000000, -1.000000000000000000 ) ) ;
#134 = ORIENTED_EDGE ( 'NONE', *, *, #78, .F. ) ;
#135 = EDGE_CURVE ( 'NONE', #117, #486, #403, .T. ) ;
#136 = AXIS2_PLACEMENT_3D ( 'NONE', #1077, #287, #5 ) ;
#137 = CARTESIAN_POINT ( 'NONE',  ( 7.082357463734184400, 9.962548246950566622, 8.545551414658770994 ) ) ;
#138 = CIRCLE ( 'NONE', #1004, 2.750000000000000888 ) ;
#139 = CARTESIAN_POINT ( 'NONE',  ( 0.000000000000000000, 20.00000000000000000, -8.673617379884035472E-16 ) ) ;
#140 = ORIENTED_EDGE ( 'NONE', *, *, #255, .F. ) ;
#141 = ORIENTED_EDGE ( 'NONE', *, *, #13, .F. ) ;
#142 = CARTESIAN_POINT ( 'NONE',  ( -5.937171043518991276, 9.000000000000012434, 3.000000000000001776 ) ) ;
#143 = CARTESIAN_POINT ( 'NONE',  ( 22.00000000000000000, 3.000000000000000000, 15.09999999999999964 ) ) ;
#144 = ORIENTED_EDGE ( 'NONE', *, *, #350, .F. ) ;
#145 = ORIENTED_EDGE ( 'NONE', *, *, #958, .F. ) ;
#146 = CARTESIAN_POINT ( 'NONE',  ( -16.00000000000000000, -1.734723475976807094E-15, 13.00000000000000000 ) ) ;
#147 = ORIENTED_EDGE ( 'NONE', *, *, #677, .F. ) ;
#148 = LINE ( 'NONE', #962, #498 ) ;
#149 = EDGE_CURVE ( 'NONE', #585, #1074, #969, .T. ) ;
#150 = LINE ( 'NONE', #511, #600 ) ;
#151 = ORIENTED_EDGE ( 'NONE', *, *, #195, .T. ) ;
#152 = PRODUCT ( '后LB', '后LB', '', ( #97 ) ) ;
#153 = CARTESIAN_POINT ( 'NONE',  ( 6.106226635438347562E-15, 9.000000000000007105, 9.000000000000001776 ) ) ;
#154 = ORIENTED_EDGE ( 'NONE', *, *, #722, .F. ) ;
#155 = CARTESIAN_POINT ( 'NONE',  ( -16.00000000000000000, -1.734723475976807094E-15, 15.75000000000000000 ) ) ;
#156 = CARTESIAN_POINT ( 'NONE',  ( 12.79717104351894541, 20.55057896340658985, 8.341574395017424592 ) ) ;
#157 = AXIS2_PLACEMENT_3D ( 'NONE', #237, #968, #1123 ) ;
#158 = EDGE_CURVE ( 'NONE', #938, #770, #11, .T. ) ;
#159 = ORIENTED_EDGE ( 'NONE', *, *, #9, .T. ) ;
#160 = VERTEX_POINT ( 'NONE', #53 ) ;
#161 = CARTESIAN_POINT ( 'NONE',  ( -12.79717104351893830, 19.44942103659343147, 3.000000000000001776 ) ) ;
#162 = ORIENTED_EDGE ( 'NONE', *, *, #701, .F. ) ;
#163 = DIRECTION ( 'NONE',  ( 0.000000000000000000, 0.000000000000000000, 1.000000000000000000 ) ) ;
#164 = CARTESIAN_POINT ( 'NONE',  ( -22.00000000000000000, 4.625000000000000000, 4.625000000000000888 ) ) ;
#165 = ORIENTED_EDGE ( 'NONE', *, *, #78, .T. ) ;
#166 = ADVANCED_FACE ( 'NONE', ( #130 ), #661, .T. ) ;
#167 = ADVANCED_FACE ( 'NONE', ( #1013 ), #450, .T. ) ;
#168 = CARTESIAN_POINT ( 'NONE',  ( -4.953604767028717326, 9.000000000000012434, 8.624079930414055184 ) ) ;
#169 = ORIENTED_EDGE ( 'NONE', *, *, #32, .F. ) ;
#170 = ORIENTED_EDGE ( 'NONE', *, *, #1082, .T. ) ;
#171 = CARTESIAN_POINT ( 'NONE',  ( 22.00000000000000000, 4.625000000000000000, 0.000000000000000000 ) ) ;
#172 = FACE_OUTER_BOUND ( 'NONE', #520, .T. ) ;
#173 = VERTEX_POINT ( 'NONE', #745 ) ;
#174 = ORIENTED_EDGE ( 'NONE', *, *, #742, .T. ) ;
#175 = FACE_OUTER_BOUND ( 'NONE', #777, .T. ) ;
#176 = DIRECTION ( 'NONE',  ( -0.4749736834815188602, -0.8799999999999988942, 0.000000000000000000 ) ) ;
#177 = VECTOR ( 'NONE', #476, 1000.000000000000000 ) ;
#178 = LINE ( 'NONE', #972, #891 ) ;
#179 = CARTESIAN_POINT ( 'NONE',  ( 16.00000000000000000, -1.734723475976807094E-15, 15.75000000000000000 ) ) ;
#180 = ORIENTED_EDGE ( 'NONE', *, *, #625, .F. ) ;
#181 = PLANE ( 'NONE',  #1069 ) ;
#182 = DIRECTION ( 'NONE',  ( 0.000000000000000000, 1.000000000000000000, -0.000000000000000000 ) ) ;
#183 = FILL_AREA_STYLE_COLOUR ( '', #558 ) ;
#184 = EDGE_CURVE ( 'NONE', #702, #964, #737, .T. ) ;
#185 = DIRECTION ( 'NONE',  ( 0.000000000000000000, 1.000000000000000000, 0.000000000000000000 ) ) ;
#186 = CARTESIAN_POINT ( 'NONE',  ( -1.093361469624562599, 30.99999999999999645, 8.999999999999998224 ) ) ;
#187 = CARTESIAN_POINT ( 'NONE',  ( 6.562828956481025600, 9.000000000000019540, 9.000000000000001776 ) ) ;
#188 = AXIS2_PLACEMENT_3D ( 'NONE', #768, #420, #1136 ) ;
#189 = AXIS2_PLACEMENT_3D ( 'NONE', #329, #228, #609 ) ;
#190 = CIRCLE ( 'NONE', #622, 4.625000000000000888 ) ;
#191 = AXIS2_PLACEMENT_3D ( 'NONE', #304, #1051, #740 ) ;
#192 = CYLINDRICAL_SURFACE ( 'NONE', #693, 2.750000000000000888 ) ;
#193 = DIRECTION ( 'NONE',  ( -1.000000000000000000, 0.000000000000000000, 0.000000000000000000 ) ) ;
#194 = ORIENTED_EDGE ( 'NONE', *, *, #158, .T. ) ;
#195 = EDGE_CURVE ( 'NONE', #467, #702, #917, .T. ) ;
#196 = B_SPLINE_CURVE_WITH_KNOTS ( 'NONE', 3,
 ( #1115, #396, #120, #310, #751, #666 ),
 .UNSPECIFIED., .F., .F.,
 ( 4, 2, 4 ),
 ( 0.006563056229208295844, 0.009531641750967790108, 0.01250022727272728437 ),
 .UNSPECIFIED. ) ;
#197 = FACE_OUTER_BOUND ( 'NONE', #583, .T. ) ;
#198 = CARTESIAN_POINT ( 'NONE',  ( -6.562828956481019382, 31.00000000000000000, 3.000000000000001776 ) ) ;
#199 = CARTESIAN_POINT ( 'NONE',  ( -9.679999999999983729, 25.22471051829670330, 9.000000000000001776 ) ) ;
#200 = ORIENTED_EDGE ( 'NONE', *, *, #797, .T. ) ;
#201 = DIRECTION ( 'NONE',  ( 0.000000000000000000, 0.000000000000000000, 1.000000000000000000 ) ) ;
#202 = DIRECTION ( 'NONE',  ( 0.000000000000000000, 0.000000000000000000, -1.000000000000000000 ) ) ;
#203 = CARTESIAN_POINT ( 'NONE',  ( -12.19735551540082596, 18.53575850050117424, 8.545393555594779755 ) ) ;
#204 = CIRCLE ( 'NONE', #313, 10.99999999999999289 ) ;
#205 = ORIENTED_EDGE ( 'NONE', *, *, #350, .T. ) ;
#206 = AXIS2_PLACEMENT_3D ( 'NONE', #1090, #926, #820 ) ;
#207 = LINE ( 'NONE', #561, #1116 ) ;
#208 = AXIS2_PLACEMENT_3D ( 'NONE', #379, #554, #909 ) ;
#209 = DIRECTION ( 'NONE',  ( -0.000000000000000000, -0.000000000000000000, -1.000000000000000000 ) ) ;
#210 = ORIENTED_EDGE ( 'NONE', *, *, #401, .T. ) ;
#211 = CARTESIAN_POINT ( 'NONE',  ( -22.00000000000000000, 3.000000000000000000, 15.09999999999999964 ) ) ;
#212 = LINE ( 'NONE', #569, #522 ) ;
#213 = EDGE_CURVE ( 'NONE', #925, #523, #212, .T. ) ;
#214 = EDGE_LOOP ( 'NONE', ( #668, #103, #1053 ) ) ;
#215 = CYLINDRICAL_SURFACE ( 'NONE', #853, 2.750000000000000888 ) ;
#216 = DIRECTION ( 'NONE',  ( -0.000000000000000000, 1.000000000000000000, -0.000000000000000000 ) ) ;
#217 = DIRECTION ( 'NONE',  ( 1.000000000000000000, 0.000000000000000000, 0.000000000000000000 ) ) ;
#218 = ORIENTED_EDGE ( 'NONE', *, *, #908, .F. ) ;
#219 = CIRCLE ( 'NONE', #874, 8.000000000000000000 ) ;
#220 = LINE ( 'NONE', #939, #541 ) ;
#221 = DIRECTION ( 'NONE',  ( -0.000000000000000000, -0.000000000000000000, 1.000000000000000000 ) ) ;
#222 = AXIS2_PLACEMENT_3D ( 'NONE', #275, #903, #898 ) ;
#223 = CARTESIAN_POINT ( 'NONE',  ( 21.29470074004590074, 4.215872289464954292, 3.000000000000001776 ) ) ;
#224 = VERTEX_POINT ( 'NONE', #741 ) ;
#225 = CARTESIAN_POINT ( 'NONE',  ( -5.937171043518991276, 9.000000000000012434, 3.000000000000001776 ) ) ;
#226 = EDGE_CURVE ( 'NONE', #595, #331, #596, .T. ) ;
#227 = ORIENTED_EDGE ( 'NONE', *, *, #1082, .F. ) ;
#228 = DIRECTION ( 'NONE',  ( -1.000000000000000000, -0.000000000000000000, -0.000000000000000000 ) ) ;
#229 = CARTESIAN_POINT ( 'NONE',  ( 0.000000000000000000, 20.00000000000000000, 9.000000000000001776 ) ) ;
#230 = ORIENTED_EDGE ( 'NONE', *, *, #1110, .T. ) ;
#231 = ORIENTED_EDGE ( 'NONE', *, *, #1119, .T. ) ;
#232 = LINE ( 'NONE', #856, #876 ) ;
#233 = VERTEX_POINT ( 'NONE', #831 ) ;
#234 = CARTESIAN_POINT ( 'NONE',  ( 0.000000000000000000, 20.00000000000000000, 9.000000000000001776 ) ) ;
#235 =( BOUNDED_CURVE ( )  B_SPLINE_CURVE ( 3, ( #981, #10, #1073, #888 ),
 .UNSPECIFIED., .F., .T. ) 
 B_SPLINE_CURVE_WITH_KNOTS ( ( 4, 4 ),
 ( 0.000000000000000000, 1.570796326794896558 ),
 .UNSPECIFIED. ) 
 CURVE ( )  GEOMETRIC_REPRESENTATION_ITEM ( )  RATIONAL_B_SPLINE_CURVE ( ( 1.000000000000000000, 0.8047378541243649375, 0.8047378541243649375, 1.000000000000000000 ) ) 
 REPRESENTATION_ITEM ( '' )  );
#236 = ORIENTED_EDGE ( 'NONE', *, *, #2, .T. ) ;
#237 = CARTESIAN_POINT ( 'NONE',  ( 9.082524891698046332, 25.26856162455041499, 71.42375415782429116 ) ) ;
#238 = ORIENTED_EDGE ( 'NONE', *, *, #109, .F. ) ;
#239 = ADVANCED_FACE ( 'NONE', ( #473 ), #648, .F. ) ;
#240 = ORIENTED_EDGE ( 'NONE', *, *, #276, .F. ) ;
#241 = DIRECTION ( 'NONE',  ( -5.551115123125778758E-16, -1.000000000000000000, 0.000000000000000000 ) ) ;
#242 = ORIENTED_EDGE ( 'NONE', *, *, #113, .F. ) ;
#243 = EDGE_CURVE ( 'NONE', #959, #925, #305, .T. ) ;
#244 = DIRECTION ( 'NONE',  ( 0.000000000000000000, 1.000000000000000000, 0.000000000000000000 ) ) ;
#245 = VECTOR ( 'NONE', #774, 1000.000000000000000 ) ;
#246 = AXIS2_PLACEMENT_3D ( 'NONE', #418, #670, #584 ) ;
#247 = FACE_OUTER_BOUND ( 'NONE', #1117, .T. ) ;
#248 = ORIENTED_EDGE ( 'NONE', *, *, #662, .F. ) ;
#249 =( LENGTH_UNIT ( ) NAMED_UNIT ( * ) SI_UNIT ( .MILLI., .METRE. ) );
#250 = DIRECTION ( 'NONE',  ( 0.000000000000000000, 0.000000000000000000, -1.000000000000000000 ) ) ;
#251 = ORIENTED_EDGE ( 'NONE', *, *, #1110, .F. ) ;
#252 = CARTESIAN_POINT ( 'NONE',  ( 5.937171043518990388, 30.99999999999999289, 9.000000000000001776 ) ) ;
#253 = CARTESIAN_POINT ( 'NONE',  ( 21.38017255183530807, 4.068526597521544552, -7.651392323150222592E-16 ) ) ;
#254 = VERTEX_POINT ( 'NONE', #825 ) ;
#255 = EDGE_CURVE ( 'NONE', #1030, #792, #196, .T. ) ;
#256 = ORIENTED_EDGE ( 'NONE', *, *, #908, .T. ) ;
#257 = ORIENTED_EDGE ( 'NONE', *, *, #282, .F. ) ;
#258 = CARTESIAN_POINT ( 'NONE',  ( 4.379656234730067155, 9.000000000000015987, 8.711242504113641871 ) ) ;
#259 = CARTESIAN_POINT ( 'NONE',  ( 4.948811114324348281, 30.99999999999999645, 8.624908639274842415 ) ) ;
#260 = ORIENTED_EDGE ( 'NONE', *, *, #1105, .F. ) ;
#261 = LINE ( 'NONE', #975, #388 ) ;
#262 = VERTEX_POINT ( 'NONE', #1017 ) ;
#263 = LINE ( 'NONE', #979, #14 ) ;
#264 = VECTOR ( 'NONE', #294, 1000.000000000000000 ) ;
#265 = CARTESIAN_POINT ( 'NONE',  ( -18.09999999999999787, -1.592040838891559095E-15, 19.00000000000000000 ) ) ;
#266 = VECTOR ( 'NONE', #359, 1000.000000000000000 ) ;
#267 = ORIENTED_EDGE ( 'NONE', *, *, #1034, .F. ) ;
#268 = ORIENTED_EDGE ( 'NONE', *, *, #827, .F. ) ;
#269 = CARTESIAN_POINT ( 'NONE',  ( -12.79717104351894186, 19.44942103659342436, 3.000000000000001776 ) ) ;
#270 = ADVANCED_FACE ( 'NONE', ( #464 ), #652, .F. ) ;
#271 = FACE_OUTER_BOUND ( 'NONE', #110, .T. ) ;
#272 = PRESENTATION_STYLE_ASSIGNMENT (( #374 ) ) ;
#273 = EDGE_LOOP ( 'NONE', ( #826, #1018, #971, #159, #719, #848, #230 ) ) ;
#274 = CARTESIAN_POINT ( 'NONE',  ( -12.61714412460516321, 19.17519697337903395, 3.000000000000002220 ) ) ;
#275 = CARTESIAN_POINT ( 'NONE',  ( -5.937171043518991276, 9.000000000000012434, 9.000000000000001776 ) ) ;
#276 = EDGE_CURVE ( 'NONE', #506, #560, #1023, .T. ) ;
#277 = SURFACE_STYLE_FILL_AREA ( #366 ) ;
#278 = DIRECTION ( 'NONE',  ( -1.000000000000000000, -5.551115123125774814E-16, 0.000000000000000000 ) ) ;
#279 = DIRECTION ( 'NONE',  ( 1.000000000000000000, 0.000000000000000000, 0.000000000000000000 ) ) ;
#280 = DIRECTION ( 'NONE',  ( 1.000000000000000000, 0.000000000000000000, 0.000000000000000000 ) ) ;
#281 = AXIS2_PLACEMENT_3D ( 'NONE', #563, #126, #399 ) ;
#282 = EDGE_CURVE ( 'NONE', #262, #288, #849, .T. ) ;
#283 = AXIS2_PLACEMENT_3D ( 'NONE', #229, #859, #406 ) ;
#284 = MECHANICAL_DESIGN_GEOMETRIC_PRESENTATION_REPRESENTATION (  '', ( #1052 ), #90 ) ;
#285 = FACE_OUTER_BOUND ( 'NONE', #588, .T. ) ;
#286 = CARTESIAN_POINT ( 'NONE',  ( 9.082524891698046332, 25.26856162455041499, 0.000000000000000000 ) ) ;
#287 = DIRECTION ( 'NONE',  ( -0.000000000000000000, 1.000000000000000000, -0.000000000000000000 ) ) ;
#288 = VERTEX_POINT ( 'NONE', #434 ) ;
#289 = CARTESIAN_POINT ( 'NONE',  ( -12.59905701450631810, 19.81647367886447952, 8.417990843825132075 ) ) ;
#290 = CARTESIAN_POINT ( 'NONE',  ( 0.000000000000000000, 20.00000000000000000, 9.000000000000001776 ) ) ;
#291 = CARTESIAN_POINT ( 'NONE',  ( -12.79717104351893830, 19.44942103659343147, 8.341574395017428145 ) ) ;
#292 = VERTEX_POINT ( 'NONE', #489 ) ;
#293 = DIRECTION ( 'NONE',  ( -0.000000000000000000, 1.000000000000000000, -0.000000000000000000 ) ) ;
#294 = DIRECTION ( 'NONE',  ( -0.000000000000000000, -0.000000000000000000, -1.000000000000000000 ) ) ;
#295 = AXIS2_PLACEMENT_3D ( 'NONE', #911, #1092, #41 ) ;
#296 = EDGE_CURVE ( 'NONE', #604, #938, #44, .T. ) ;
#297 = PLANE ( 'NONE',  #206 ) ;
#298 = AXIS2_PLACEMENT_3D ( 'NONE', #814, #537, #115 ) ;
#299 =( NAMED_UNIT ( * ) SI_UNIT ( $, .STERADIAN. ) SOLID_ANGLE_UNIT ( ) );
#300 = CARTESIAN_POINT ( 'NONE',  ( -9.796312468339648305, 14.87839556672164854, 9.000000000000005329 ) ) ;
#301 = EDGE_CURVE ( 'NONE', #288, #689, #746, .T. ) ;
#302 = B_SPLINE_CURVE_WITH_KNOTS ( 'NONE', 3,
 ( #456, #22, #993, #25, #369, #199 ),
 .UNSPECIFIED., .F., .F.,
 ( 4, 2, 4 ),
 ( 2.272727272712544815E-07, 0.003281641750967782389, 0.006563056229208295844 ),
 .UNSPECIFIED. ) ;
#303 = CARTESIAN_POINT ( 'NONE',  ( 22.00000000000000000, 4.625000000000000000, 0.000000000000000000 ) ) ;
#304 = CARTESIAN_POINT ( 'NONE',  ( 0.000000000000000000, 20.00000000000000000, 9.000000000000001776 ) ) ;
#305 = LINE ( 'NONE', #1096, #264 ) ;
#306 = B_SPLINE_CURVE_WITH_KNOTS ( 'NONE', 3,
 ( #449, #186, #636, #544, #1079, #550 ),
 .UNSPECIFIED., .F., .F.,
 ( 4, 2, 4 ),
 ( 0.02903443853454339141, 0.03233581262357908964, 0.03563718671261478788 ),
 .UNSPECIFIED. ) ;
#307 = ORIENTED_EDGE ( 'NONE', *, *, #282, .T. ) ;
#308 = PLANE ( 'NONE',  #15 ) ;
#309 = FILL_AREA_STYLE ('',( #656 ) ) ;
#310 = CARTESIAN_POINT ( 'NONE',  ( -11.56000000000000050, 21.74157017276555592, 8.762927749676713063 ) ) ;
#311 = VERTEX_POINT ( 'NONE', #1130 ) ;
#312 = ADVANCED_FACE ( 'NONE', ( #73, #686 ), #345, .F. ) ;
#313 = AXIS2_PLACEMENT_3D ( 'NONE', #1081, #974, #280 ) ;
#314 = CARTESIAN_POINT ( 'NONE',  ( -9.082524891698046332, 25.26856162455041499, 71.42375415782429116 ) ) ;
#315 = ORIENTED_EDGE ( 'NONE', *, *, #184, .F. ) ;
#316 = DIRECTION ( 'NONE',  ( 0.000000000000000000, 0.000000000000000000, 1.000000000000000000 ) ) ;
#317 = CIRCLE ( 'NONE', #191, 10.99999999999999289 ) ;
#318 = DIRECTION ( 'NONE',  ( 0.000000000000000000, 0.000000000000000000, -1.000000000000000000 ) ) ;
#319 = ORIENTED_EDGE ( 'NONE', *, *, #578, .F. ) ;
#320 = EDGE_LOOP ( 'NONE', ( #319, #427, #612, #497, #611, #1132 ) ) ;
#321 = CARTESIAN_POINT ( 'NONE',  ( -0.9881313133212644706, 9.000000000000015987, 9.000000000000005329 ) ) ;
#322 = EDGE_LOOP ( 'NONE', ( #55, #377, #823, #218 ) ) ;
#323 = LINE ( 'NONE', #699, #337 ) ;
#324 = ORIENTED_EDGE ( 'NONE', *, *, #532, .T. ) ;
#325 = PLANE ( 'NONE',  #157 ) ;
#326 = EDGE_LOOP ( 'NONE', ( #1120, #397, #640 ) ) ;
#327 = DIRECTION ( 'NONE',  ( 0.5487999999999951806, -0.8359536829274725189, -0.000000000000000000 ) ) ;
#328 = EDGE_LOOP ( 'NONE', ( #871, #423, #846, #344, #267 ) ) ;
#329 = CARTESIAN_POINT ( 'NONE',  ( 22.00000000000000000, 4.625000000000000000, 4.625000000000000888 ) ) ;
#330 = DIRECTION ( 'NONE',  ( 0.5017677737667065596, -0.8650023706379095234, 0.000000000000000000 ) ) ;
#331 = VERTEX_POINT ( 'NONE', #787 ) ;
#332 = ORIENTED_EDGE ( 'NONE', *, *, #706, .T. ) ;
#333 = DIRECTION ( 'NONE',  ( 0.000000000000000000, -1.107506670533258812E-16, 1.000000000000000000 ) ) ;
#334 = CIRCLE ( 'NONE', #851, 2.750000000000000888 ) ;
#335 = EDGE_LOOP ( 'NONE', ( #819, #194, #945, #932, #6, #548, #351 ) ) ;
#336 = DIRECTION ( 'NONE',  ( 0.000000000000000000, 0.000000000000000000, 1.000000000000000000 ) ) ;
#337 = VECTOR ( 'NONE', #336, 1000.000000000000000 ) ;
#338 = AXIS2_PLACEMENT_3D ( 'NONE', #421, #340, #781 ) ;
#339 = EDGE_CURVE ( 'NONE', #80, #965, #760, .T. ) ;
#340 = DIRECTION ( 'NONE',  ( 1.000000000000000000, 0.000000000000000000, 0.000000000000000000 ) ) ;
#341 = AXIS2_PLACEMENT_3D ( 'NONE', #437, #880, #528 ) ;
#342 = ORIENTED_EDGE ( 'NONE', *, *, #13, .T. ) ;
#343 = ORIENTED_EDGE ( 'NONE', *, *, #471, .F. ) ;
#344 = ORIENTED_EDGE ( 'NONE', *, *, #195, .F. ) ;
#345 = PLANE ( 'NONE',  #408 ) ;
#346 = ORIENTED_EDGE ( 'NONE', *, *, #370, .T. ) ;
#347 = ORIENTED_EDGE ( 'NONE', *, *, #1114, .T. ) ;
#348 = CARTESIAN_POINT ( 'NONE',  ( -5.937171043518991276, 9.000000000000012434, 9.000000000000001776 ) ) ;
#349 = LINE ( 'NONE', #187, #27 ) ;
#350 = EDGE_CURVE ( 'NONE', #1112, #63, #219, .T. ) ;
#351 = ORIENTED_EDGE ( 'NONE', *, *, #1125, .T. ) ;
#352 = DIRECTION ( 'NONE',  ( 0.000000000000000000, 0.000000000000000000, 1.000000000000000000 ) ) ;
#353 = CARTESIAN_POINT ( 'NONE',  ( 6.106226635438351506E-15, 30.99999999999999289, 9.000000000000001776 ) ) ;
#354 = PRODUCT_DEFINITION_CONTEXT ( 'detailed design', #500, 'design' ) ;
#355 =( GEOMETRIC_REPRESENTATION_CONTEXT ( 3 ) GLOBAL_UNCERTAINTY_ASSIGNED_CONTEXT ( ( #807 ) ) GLOBAL_UNIT_ASSIGNED_CONTEXT ( ( #356, #633, #895 ) ) REPRESENTATION_CONTEXT ( 'NONE', 'WORKASPACE' ) );
#356 =( LENGTH_UNIT ( ) NAMED_UNIT ( * ) SI_UNIT ( .MILLI., .METRE. ) );
#357 = VECTOR ( 'NONE', #549, 1000.000000000000000 ) ;
#358 = VECTOR ( 'NONE', #216, 1000.000000000000000 ) ;
#359 = DIRECTION ( 'NONE',  ( 0.4749736834815188602, 0.8799999999999988942, -0.000000000000000000 ) ) ;
#360 =( BOUNDED_CURVE ( )  B_SPLINE_CURVE ( 3, ( #808, #19, #1062, #725 ),
 .UNSPECIFIED., .F., .T. ) 
 B_SPLINE_CURVE_WITH_KNOTS ( ( 4, 4 ),
 ( 4.712388980384688786, 5.071403069501093874 ),
 .UNSPECIFIED. ) 
 CURVE ( )  GEOMETRIC_REPRESENTATION_ITEM ( )  RATIONAL_B_SPLINE_CURVE ( ( 1.000000000000000000, 0.9892878845650072694, 0.9892878845650072694, 1.000000000000000000 ) ) 
 REPRESENTATION_ITEM ( '' )  );
#361 = VERTEX_POINT ( 'NONE', #864 ) ;
#362 = EDGE_LOOP ( 'NONE', ( #169, #343, #867, #685 ) ) ;
#363 = LINE ( 'NONE', #920, #832 ) ;
#364 = PLANE ( 'NONE',  #390 ) ;
#365 = CARTESIAN_POINT ( 'NONE',  ( 0.000000000000000000, 20.00000000000000000, 9.000000000000001776 ) ) ;
#366 = FILL_AREA_STYLE ('',( #183 ) ) ;
#367 = DIRECTION ( 'NONE',  ( -5.551115123125774814E-16, 1.000000000000000000, 0.000000000000000000 ) ) ;
#368 = CARTESIAN_POINT ( 'NONE',  ( -16.00000000000000000, -1.734723475976807094E-15, 10.24999999999999822 ) ) ;
#369 = CARTESIAN_POINT ( 'NONE',  ( -9.160471492746820488, 26.18725876524725393, 8.999999999999996447 ) ) ;
#370 = EDGE_CURVE ( 'NONE', #331, #1035, #518, .T. ) ;
#371 = DIRECTION ( 'NONE',  ( 0.000000000000000000, 0.000000000000000000, 1.000000000000000000 ) ) ;
#372 = PLANE ( 'NONE',  #222 ) ;
#373 = B_SPLINE_CURVE_WITH_KNOTS ( 'NONE', 3,
 ( #378, #137, #123, #468, #1107, #34 ),
 .UNSPECIFIED., .F., .F.,
 ( 4, 2, 4 ),
 ( 2.272727272736049979E-07, 0.003281641750967774582, 0.006563056229208276762 ),
 .UNSPECIFIED. ) ;
#374 = SURFACE_STYLE_USAGE ( .BOTH. , #441 ) ;
#375 = VECTOR ( 'NONE', #209, 1000.000000000000000 ) ;
#376 = CIRCLE ( 'NONE', #338, 4.625000000000000888 ) ;
#377 = ORIENTED_EDGE ( 'NONE', *, *, #1105, .T. ) ;
#378 = CARTESIAN_POINT ( 'NONE',  ( 6.562828956481025600, 9.000000000000019540, 8.341574395017428145 ) ) ;
#379 = CARTESIAN_POINT ( 'NONE',  ( 12.79717104351894541, 20.55057896340658985, 9.000000000000001776 ) ) ;
#380 = CARTESIAN_POINT ( 'NONE',  ( 0.000000000000000000, 20.00000000000000000, 9.000000000000001776 ) ) ;
#381 = ORIENTED_EDGE ( 'NONE', *, *, #109, .T. ) ;
#382 = DIRECTION ( 'NONE',  ( 1.000000000000000000, 0.000000000000000000, -0.000000000000000000 ) ) ;
#383 = CARTESIAN_POINT ( 'NONE',  ( 22.00000000000000000, 3.000000000000000000, 19.00000000000000000 ) ) ;
#384 = CARTESIAN_POINT ( 'NONE',  ( 18.09999999999999787, -1.734723475976807094E-15, 15.09999999999999964 ) ) ;
#385 = EDGE_CURVE ( 'NONE', #233, #506, #323, .T. ) ;
#386 = LINE ( 'NONE', #744, #1021 ) ;
#387 = DIRECTION ( 'NONE',  ( -1.000000000000000000, 0.000000000000000000, 0.000000000000000000 ) ) ;
#388 = VECTOR ( 'NONE', #718, 999.9999999999998863 ) ;
#389 = ORIENTED_EDGE ( 'NONE', *, *, #255, .T. ) ;
#390 = AXIS2_PLACEMENT_3D ( 'NONE', #348, #367, #278 ) ;
#391 = AXIS2_PLACEMENT_3D ( 'NONE', #424, #1128, #493 ) ;
#392 = DIRECTION ( 'NONE',  ( 1.000000000000000000, 0.000000000000000000, 0.000000000000000000 ) ) ;
#393 = ADVANCED_FACE ( 'NONE', ( #1056 ), #410, .T. ) ;
#394 = CARTESIAN_POINT ( 'NONE',  ( 16.00000000000000000, -1.734723475976807094E-15, 13.00000000000000000 ) ) ;
#395 = B_SPLINE_CURVE_WITH_KNOTS ( 'NONE', 3,
 ( #81, #582, #428, #405, #780, #503 ),
 .UNSPECIFIED., .F., .F.,
 ( 4, 2, 4 ),
 ( 0.006563056229208276762, 0.009844470707448788049, 0.01312588518568930107 ),
 .UNSPECIFIED. ) ;
#396 = CARTESIAN_POINT ( 'NONE',  ( -10.14999999999998970, 24.35392543191391113, 9.000000000000000000 ) ) ;
#397 = ORIENTED_EDGE ( 'NONE', *, *, #722, .T. ) ;
#398 = DIRECTION ( 'NONE',  ( -0.000000000000000000, -0.000000000000000000, 1.000000000000000000 ) ) ;
#399 = DIRECTION ( 'NONE',  ( -1.000000000000000000, 0.000000000000000000, 0.000000000000000000 ) ) ;
#400 = EDGE_LOOP ( 'NONE', ( #1064, #870 ) ) ;
#401 = EDGE_CURVE ( 'NONE', #262, #857, #138, .T. ) ;
#402 = ORIENTED_EDGE ( 'NONE', *, *, #4, .F. ) ;
#403 = B_SPLINE_CURVE_WITH_KNOTS ( 'NONE', 3,
 ( #291, #203, #470, #838, #300, #556 ),
 .UNSPECIFIED., .F., .F.,
 ( 4, 2, 4 ),
 ( 2.396394431003171675E-07, 0.003284483285462302601, 0.006568726931481504334 ),
 .UNSPECIFIED. ) ;
#404 = CARTESIAN_POINT ( 'NONE',  ( 0.000000000000000000, 20.00000000000000000, -8.673617379884035472E-16 ) ) ;
#405 = CARTESIAN_POINT ( 'NONE',  ( 11.75811402901262070, 18.62548246950548503, 8.711849191477073262 ) ) ;
#406 = DIRECTION ( 'NONE',  ( -1.000000000000000000, 0.000000000000000000, 0.000000000000000000 ) ) ;
#407 = ORIENTED_EDGE ( 'NONE', *, *, #742, .F. ) ;
#408 = AXIS2_PLACEMENT_3D ( 'NONE', #171, #163, #704 ) ;
#409 = ORIENTED_EDGE ( 'NONE', *, *, #625, .T. ) ;
#410 = CONICAL_SURFACE ( 'NONE', #598, 10.99999999999999289, 1.221730476396036602 ) ;
#411 = DIRECTION ( 'NONE',  ( 0.000000000000000000, 1.000000000000000000, -0.000000000000000000 ) ) ;
#412 = EDGE_CURVE ( 'NONE', #604, #784, #395, .T. ) ;
#413 = ORIENTED_EDGE ( 'NONE', *, *, #9, .F. ) ;
#414 = VECTOR ( 'NONE', #330, 999.9999999999998863 ) ;
#415 = DIRECTION ( 'NONE',  ( -0.000000000000000000, 1.000000000000000000, -0.000000000000000000 ) ) ;
#416 = DIRECTION ( 'NONE',  ( 1.000000000000000000, 0.000000000000000000, 0.000000000000000000 ) ) ;
#417 = ORIENTED_EDGE ( 'NONE', *, *, #69, .F. ) ;
#418 = CARTESIAN_POINT ( 'NONE',  ( 0.000000000000000000, 20.00000000000000000, 9.000000000000001776 ) ) ;
#419 = ORIENTED_EDGE ( 'NONE', *, *, #213, .T. ) ;
#420 = DIRECTION ( 'NONE',  ( 0.000000000000000000, 1.000000000000000000, 0.000000000000000000 ) ) ;
#421 = CARTESIAN_POINT ( 'NONE',  ( 22.00000000000000000, 4.625000000000000000, 4.625000000000000888 ) ) ;
#422 = ORIENTED_EDGE ( 'NONE', *, *, #42, .F. ) ;
#423 = ORIENTED_EDGE ( 'NONE', *, *, #425, .T. ) ;
#424 = CARTESIAN_POINT ( 'NONE',  ( -16.00000000000000000, 3.000000000000000000, 13.00000000000000000 ) ) ;
#425 = EDGE_CURVE ( 'NONE', #784, #835, #148, .T. ) ;
#426 = ADVANCED_FACE ( 'NONE', ( #591 ), #954, .F. ) ;
#427 = ORIENTED_EDGE ( 'NONE', *, *, #37, .T. ) ;
#428 = CARTESIAN_POINT ( 'NONE',  ( 10.71905701450629955, 16.70038597560439797, 8.939459715000049655 ) ) ;
#429 = VERTEX_POINT ( 'NONE', #143 ) ;
#430 =( NAMED_UNIT ( * ) SI_UNIT ( $, .STERADIAN. ) SOLID_ANGLE_UNIT ( ) );
#431 = ORIENTED_EDGE ( 'NONE', *, *, #339, .F. ) ;
#432 = AXIS2_PLACEMENT_3D ( 'NONE', #139, #755, #49 ) ;
#433 = VERTEX_POINT ( 'NONE', #1121 ) ;
#434 = CARTESIAN_POINT ( 'NONE',  ( 16.00000000000000000, 3.000000000000000000, 10.24999999999999822 ) ) ;
#435 = AXIS2_PLACEMENT_3D ( 'NONE', #1003, #759, #568 ) ;
#436 = CARTESIAN_POINT ( 'NONE',  ( 0.000000000000000000, 20.00000000000000000, -8.673617379884035472E-16 ) ) ;
#437 = CARTESIAN_POINT ( 'NONE',  ( 0.000000000000000000, 0.000000000000000000, 0.000000000000000000 ) ) ;
#438 = CARTESIAN_POINT ( 'NONE',  ( 22.00000000000000000, 4.625000000000000000, 3.000000000000001776 ) ) ;
#439 = VERTEX_POINT ( 'NONE', #155 ) ;
#440 = PLANE ( 'NONE',  #833 ) ;
#441 = SURFACE_SIDE_STYLE ('',( #277 ) ) ;
#442 = ADVANCED_FACE ( 'NONE', ( #672 ), #858, .F. ) ;
#443 = ORIENTED_EDGE ( 'NONE', *, *, #1019, .F. ) ;
#444 = DIRECTION ( 'NONE',  ( -0.8650023706379095234, 0.5017677737667065596, 0.000000000000000000 ) ) ;
#445 = CARTESIAN_POINT ( 'NONE',  ( 18.09999999999999787, -1.592040838891559095E-15, 19.00000000000000000 ) ) ;
#446 = CARTESIAN_POINT ( 'NONE',  ( 12.79717104351894541, 20.55057896340658985, 3.000000000000001776 ) ) ;
#447 = EDGE_CURVE ( 'NONE', #707, #682, #931, .T. ) ;
#448 = DIRECTION ( 'NONE',  ( -0.9396926207859103153, 0.000000000000000000, -0.3420201433256632173 ) ) ;
#449 = CARTESIAN_POINT ( 'NONE',  ( 6.106226635438351506E-15, 30.99999999999999289, 9.000000000000001776 ) ) ;
#450 = CONICAL_SURFACE ( 'NONE', #281, 10.99999999999999289, 1.221730476396036602 ) ;
#451 = LINE ( 'NONE', #106, #1098 ) ;
#452 = AXIS2_PLACEMENT_3D ( 'NONE', #1011, #836, #51 ) ;
#453 = CONICAL_SURFACE ( 'NONE', #246, 10.99999999999999289, 1.221730476396036602 ) ;
#454 = CIRCLE ( 'NONE', #1124, 10.99999999999999289 ) ;
#455 = FACE_OUTER_BOUND ( 'NONE', #860, .T. ) ;
#456 = CARTESIAN_POINT ( 'NONE',  ( -6.562828956481019382, 31.00000000000000000, 8.341574395017424592 ) ) ;
#457 = CARTESIAN_POINT ( 'NONE',  ( -18.09999999999999787, -1.160113237383588033E-15, 15.09999999999999964 ) ) ;
#458 = ADVANCED_FACE ( 'NONE', ( #621 ), #181, .T. ) ;
#459 = CARTESIAN_POINT ( 'NONE',  ( -16.00000000000000000, 3.000000000000000000, 13.00000000000000000 ) ) ;
#460 = DIRECTION ( 'NONE',  ( -0.000000000000000000, 1.000000000000000000, -0.000000000000000000 ) ) ;
#461 = ORIENTED_EDGE ( 'NONE', *, *, #32, .T. ) ;
#462 = LINE ( 'NONE', #303, #357 ) ;
#463 = CARTESIAN_POINT ( 'NONE',  ( -10.99999999999999289, 20.00000000000000000, 9.000000000000001776 ) ) ;
#464 = FACE_OUTER_BOUND ( 'NONE', #1127, .T. ) ;
#465 = VECTOR ( 'NONE', #460, 1000.000000000000000 ) ;
#466 = CIRCLE ( 'NONE', #89, 2.750000000000000888 ) ;
#467 = VERTEX_POINT ( 'NONE', #886 ) ;
#468 = CARTESIAN_POINT ( 'NONE',  ( 8.640942985493657247, 12.85019298780220076, 8.939459715000046103 ) ) ;
#469 = DIRECTION ( 'NONE',  ( -0.5017677737667065596, -0.8650023706379095234, 0.000000000000000000 ) ) ;
#470 = CARTESIAN_POINT ( 'NONE',  ( -11.59735457661047775, 17.62181353960151142, 8.711663833539338597 ) ) ;
#471 = EDGE_CURVE ( 'NONE', #1074, #734, #263, .T. ) ;
#472 = DIRECTION ( 'NONE',  ( -0.5487999999999961798, 0.8359536829274718528, -0.000000000000000000 ) ) ;
#473 = FACE_OUTER_BOUND ( 'NONE', #54, .T. ) ;
#474 = ADVANCED_FACE ( 'NONE', ( #104 ), #794, .F. ) ;
#475 = CARTESIAN_POINT ( 'NONE',  ( -12.69811402901262731, 19.63294735772895550, 8.380466109931004937 ) ) ;
#476 = DIRECTION ( 'NONE',  ( -1.000000000000000000, -0.000000000000000000, -0.000000000000000000 ) ) ;
#477 = DIRECTION ( 'NONE',  ( 0.000000000000000000, -1.107506670533258442E-16, 1.000000000000000000 ) ) ;
#478 = AXIS2_PLACEMENT_3D ( 'NONE', #1095, #729, #901 ) ;
#479 = VERTEX_POINT ( 'NONE', #882 ) ;
#480 = AXIS2_PLACEMENT_3D ( 'NONE', #436, #789, #416 ) ;
#481 = LINE ( 'NONE', #735, #653 ) ;
#482 = CYLINDRICAL_SURFACE ( 'NONE', #435, 3.900000000000000799 ) ;
#483 = EDGE_CURVE ( 'NONE', #1014, #792, #178, .T. ) ;
#484 = DIRECTION ( 'NONE',  ( 0.000000000000000000, 0.000000000000000000, 1.000000000000000000 ) ) ;
#485 = ORIENTED_EDGE ( 'NONE', *, *, #296, .F. ) ;
#486 = VERTEX_POINT ( 'NONE', #790 ) ;
#487 = CARTESIAN_POINT ( 'NONE',  ( 6.562828956481025600, 9.000000000000019540, 8.341574395017428145 ) ) ;
#488 = SURFACE_SIDE_STYLE ('',( #665 ) ) ;
#489 = CARTESIAN_POINT ( 'NONE',  ( 22.00000000000000000, 3.000000000000000444, 4.625000000000004441 ) ) ;
#490 = EDGE_CURVE ( 'NONE', #1035, #712, #47, .T. ) ;
#491 = EDGE_LOOP ( 'NONE', ( #756, #630, #782, #1141, #409, #1066 ) ) ;
#492 = EDGE_CURVE ( 'NONE', #689, #288, #65, .T. ) ;
#493 = DIRECTION ( 'NONE',  ( 0.000000000000000000, 0.000000000000000000, -1.000000000000000000 ) ) ;
#494 = ADVANCED_FACE ( 'NONE', ( #892 ), #897, .T. ) ;
#495 = DIRECTION ( 'NONE',  ( -0.000000000000000000, -0.000000000000000000, 1.000000000000000000 ) ) ;
#496 = CARTESIAN_POINT ( 'NONE',  ( 9.796312468339650081, 25.12160443327837100, 9.000000000000001776 ) ) ;
#497 = ORIENTED_EDGE ( 'NONE', *, *, #811, .T. ) ;
#498 = VECTOR ( 'NONE', #935, 1000.000000000000000 ) ;
#499 = LINE ( 'NONE', #314, #108 ) ;
#500 = APPLICATION_CONTEXT ( 'automotive_design' ) ;
#501 = EDGE_LOOP ( 'NONE', ( #144, #966 ) ) ;
#502 = AXIS2_PLACEMENT_3D ( 'NONE', #404, #758, #1118 ) ;
#503 = CARTESIAN_POINT ( 'NONE',  ( 12.79717104351894541, 20.55057896340658985, 8.341574395017424592 ) ) ;
#504 = ADVANCED_FACE ( 'NONE', ( #977 ), #364, .F. ) ;
#505 = CARTESIAN_POINT ( 'NONE',  ( 22.00000000000000000, 2.999999999999997780, 3.673097038856281582 ) ) ;
#506 = VERTEX_POINT ( 'NONE', #111 ) ;
#507 = ADVANCED_FACE ( 'NONE', ( #175 ), #1071, .F. ) ;
#508 = CARTESIAN_POINT ( 'NONE',  ( -1.977700406114566656, 9.000000000000012434, 8.950734977395304881 ) ) ;
#509 = ORIENTED_EDGE ( 'NONE', *, *, #226, .F. ) ;
#510 = DIRECTION ( 'NONE',  ( 0.5017677737667065596, -0.8650023706379095234, 0.000000000000000000 ) ) ;
#511 = CARTESIAN_POINT ( 'NONE',  ( 8.000000000000000000, 20.00000000000000000, -8.673617379884035472E-16 ) ) ;
#512 = VERTEX_POINT ( 'NONE', #274 ) ;
#513 = ORIENTED_EDGE ( 'NONE', *, *, #2, .F. ) ;
#514 = EDGE_CURVE ( 'NONE', #762, #233, #360, .T. ) ;
#515 = DIRECTION ( 'NONE',  ( 0.8799999999999988942, -0.4749736834815188047, 0.000000000000000000 ) ) ;
#516 = ORIENTED_EDGE ( 'NONE', *, *, #158, .F. ) ;
#517 = ORIENTED_EDGE ( 'NONE', *, *, #593, .F. ) ;
#518 = LINE ( 'NONE', #1045, #245 ) ;
#519 = DIRECTION ( 'NONE',  ( 0.4749736834815188602, 0.8799999999999988942, -0.000000000000000000 ) ) ;
#520 = EDGE_LOOP ( 'NONE', ( #547, #658, #1000, #1041, #590, #83, #517 ) ) ;
#521 = ORIENTED_EDGE ( 'NONE', *, *, #135, .F. ) ;
#522 = VECTOR ( 'NONE', #924, 1000.000000000000000 ) ;
#523 = VERTEX_POINT ( 'NONE', #635 ) ;
#524 = FACE_BOUND ( 'NONE', #501, .T. ) ;
#525 = ADVANCED_FACE ( 'NONE', ( #1078 ), #192, .F. ) ;
#526 = VECTOR ( 'NONE', #642, 1000.000000000000000 ) ;
#527 = CARTESIAN_POINT ( 'NONE',  ( 5.937171043518990388, 30.99999999999999289, 8.454044648600701706 ) ) ;
#528 = DIRECTION ( 'NONE',  ( 1.000000000000000000, 0.000000000000000000, 0.000000000000000000 ) ) ;
#529 = DIRECTION ( 'NONE',  ( 0.000000000000000000, 0.000000000000000000, -1.000000000000000000 ) ) ;
#530 = PRODUCT_DEFINITION ( '未知', '', #580, #354 ) ;
#531 = CARTESIAN_POINT ( 'NONE',  ( -12.79717104351893830, 19.44942103659343147, 8.341574395017428145 ) ) ;
#532 = EDGE_CURVE ( 'NONE', #160, #361, #713, .T. ) ;
#533 = CARTESIAN_POINT ( 'NONE',  ( -9.082524891698046332, 25.26856162455041499, 71.42375415782429116 ) ) ;
#534 = CARTESIAN_POINT ( 'NONE',  ( -6.480620294798663750, 9.827803212630159990, 8.625235403843490190 ) ) ;
#535 = CARTESIAN_POINT ( 'NONE',  ( -16.00000000000000000, 3.000000000000000000, 15.75000000000000000 ) ) ;
#536 = DIRECTION ( 'NONE',  ( 1.000000000000000000, 0.000000000000000000, 0.000000000000000000 ) ) ;
#537 = DIRECTION ( 'NONE',  ( 0.000000000000000000, 0.000000000000000000, -1.000000000000000000 ) ) ;
#538 = STYLED_ITEM ( 'NONE', ( #272 ), #43 ) ;
#539 = DIRECTION ( 'NONE',  ( 0.000000000000000000, 0.000000000000000000, -1.000000000000000000 ) ) ;
#540 = AXIS2_PLACEMENT_3D ( 'NONE', #543, #529, #626 ) ;
#541 = VECTOR ( 'NONE', #71, 1000.000000000000000 ) ;
#542 = ADVANCED_FACE ( 'NONE', ( #524, #94 ), #440, .T. ) ;
#543 = CARTESIAN_POINT ( 'NONE',  ( 0.000000000000000000, 20.00000000000000000, 71.42375415782429116 ) ) ;
#544 = CARTESIAN_POINT ( 'NONE',  ( -4.377666032865806578, 30.99999999999998934, 8.711555620446540971 ) ) ;
#545 = CARTESIAN_POINT ( 'NONE',  ( -22.00000000000000000, -1.592040838891559095E-15, 19.00000000000000000 ) ) ;
#546 = ADVANCED_FACE ( 'NONE', ( #197 ), #215, .F. ) ;
#547 = ORIENTED_EDGE ( 'NONE', *, *, #936, .T. ) ;
#548 = ORIENTED_EDGE ( 'NONE', *, *, #918, .T. ) ;
#549 = DIRECTION ( 'NONE',  ( -1.000000000000000000, -0.000000000000000000, -0.000000000000000000 ) ) ;
#550 = CARTESIAN_POINT ( 'NONE',  ( -6.562828956481019382, 31.00000000000000000, 8.341574395017424592 ) ) ;
#551 = CARTESIAN_POINT ( 'NONE',  ( -22.00000000000000000, 3.000000000000000000, 19.00000000000000000 ) ) ;
#552 = ORIENTED_EDGE ( 'NONE', *, *, #571, .T. ) ;
#553 = CARTESIAN_POINT ( 'NONE',  ( -12.50000000000001066, 20.00000000000000000, 8.454044648600699929 ) ) ;
#554 = DIRECTION ( 'NONE',  ( -0.8799999999999988942, 0.4749736834815188047, 0.000000000000000000 ) ) ;
#555 = APPLICATION_CONTEXT ( 'automotive_design' ) ;
#556 = CARTESIAN_POINT ( 'NONE',  ( -9.195490512202193045, 13.96320000000005734, 9.000000000000001776 ) ) ;
#557 = ADVANCED_FACE ( 'NONE', ( #1002 ), #297, .F. ) ;
#558 = COLOUR_RGB ( '',1.000000000000000000, 1.000000000000000000, 1.000000000000000000 ) ;
#559 = AXIS2_PLACEMENT_3D ( 'NONE', #800, #352, #17 ) ;
#560 = VERTEX_POINT ( 'NONE', #211 ) ;
#561 = CARTESIAN_POINT ( 'NONE',  ( 22.00000000000000000, 0.000000000000000000, 4.625000000000000888 ) ) ;
#562 = PRESENTATION_STYLE_ASSIGNMENT (( #842 ) ) ;
#563 = CARTESIAN_POINT ( 'NONE',  ( 0.000000000000000000, 20.00000000000000000, 9.000000000000001776 ) ) ;
#564 =( BOUNDED_CURVE ( )  B_SPLINE_CURVE ( 3, ( #700, #1057, #253, #1063 ),
 .UNSPECIFIED., .F., .F. ) 
 B_SPLINE_CURVE_WITH_KNOTS ( ( 4, 4 ),
 ( 4.353374891268286362, 4.712388980384689674 ),
 .UNSPECIFIED. ) 
 CURVE ( )  GEOMETRIC_REPRESENTATION_ITEM ( )  RATIONAL_B_SPLINE_CURVE ( ( 1.000000000000000000, 0.9892878845650072694, 0.9892878845650072694, 1.000000000000000000 ) ) 
 REPRESENTATION_ITEM ( '' )  );
#565 = ORIENTED_EDGE ( 'NONE', *, *, #934, .T. ) ;
#566 = EDGE_CURVE ( 'NONE', #881, #762, #462, .T. ) ;
#567 = DIRECTION ( 'NONE',  ( 0.000000000000000000, 0.000000000000000000, 1.000000000000000000 ) ) ;
#568 = DIRECTION ( 'NONE',  ( 0.000000000000000000, 0.000000000000000000, -1.000000000000000000 ) ) ;
#569 = CARTESIAN_POINT ( 'NONE',  ( -5.937171043518991276, 9.000000000000012434, 3.000000000000001776 ) ) ;
#570 = ORIENTED_EDGE ( 'NONE', *, *, #532, .F. ) ;
#571 = EDGE_CURVE ( 'NONE', #792, #117, #956, .T. ) ;
#572 = B_SPLINE_CURVE_WITH_KNOTS ( 'NONE', 3,
 ( #527, #259, #617, #59, #761, #353 ),
 .UNSPECIFIED., .F., .F.,
 ( 4, 2, 4 ),
 ( 0.02305069217807097226, 0.02604256535630718183, 0.02903443853454339141 ),
 .UNSPECIFIED. ) ;
#573 = DIRECTION ( 'NONE',  ( 0.000000000000000000, 0.000000000000000000, 1.000000000000000000 ) ) ;
#574 = CARTESIAN_POINT ( 'NONE',  ( -10.21678119325084033, 23.31320609745287342, 0.000000000000000000 ) ) ;
#575 = DIRECTION ( 'NONE',  ( 0.000000000000000000, 0.000000000000000000, -1.000000000000000000 ) ) ;
#576 = ORIENTED_EDGE ( 'NONE', *, *, #958, .T. ) ;
#577 = CIRCLE ( 'NONE', #48, 2.750000000000000888 ) ;
#578 = EDGE_CURVE ( 'NONE', #682, #604, #373, .T. ) ;
#579 = FACE_OUTER_BOUND ( 'NONE', #70, .T. ) ;
#580 = PRODUCT_DEFINITION_FORMATION_WITH_SPECIFIED_SOURCE ( '任何', '', #152, .NOT_KNOWN. ) ;
#581 = DIRECTION ( 'NONE',  ( 1.000000000000000000, 0.000000000000000000, 0.000000000000000000 ) ) ;
#582 = CARTESIAN_POINT ( 'NONE',  ( 10.19952850725313986, 15.73783772865384734, 9.000000000000001776 ) ) ;
#583 = EDGE_LOOP ( 'NONE', ( #692, #773, #1135, #649 ) ) ;
#584 = DIRECTION ( 'NONE',  ( -1.000000000000000000, 0.000000000000000000, 0.000000000000000000 ) ) ;
#585 = VERTEX_POINT ( 'NONE', #991 ) ;
#586 = DIRECTION ( 'NONE',  ( 1.000000000000000000, 0.000000000000000000, 0.000000000000000000 ) ) ;
#587 = LINE ( 'NONE', #594, #414 ) ;
#588 = EDGE_LOOP ( 'NONE', ( #1093, #324, #381, #180, #743, #1008 ) ) ;
#589 = CARTESIAN_POINT ( 'NONE',  ( -5.937171043519032132, 9.000000000000012434, 8.454044648600760326 ) ) ;
#590 = ORIENTED_EDGE ( 'NONE', *, *, #339, .T. ) ;
#591 = FACE_OUTER_BOUND ( 'NONE', #328, .T. ) ;
#592 = AXIS2_PLACEMENT_3D ( 'NONE', #824, #567, #392 ) ;
#593 = EDGE_CURVE ( 'NONE', #1033, #292, #481, .T. ) ;
#594 = CARTESIAN_POINT ( 'NONE',  ( 21.29470074004590074, 4.215872289464954292, 3.000000000000001776 ) ) ;
#595 = VERTEX_POINT ( 'NONE', #828 ) ;
#596 = CIRCLE ( 'NONE', #1122, 10.49999999999999467 ) ;
#597 = ORIENTED_EDGE ( 'NONE', *, *, #645, .T. ) ;
#598 = AXIS2_PLACEMENT_3D ( 'NONE', #941, #843, #58 ) ;
#599 = DIRECTION ( 'NONE',  ( 1.000000000000000000, -5.551115123125778758E-16, 0.000000000000000000 ) ) ;
#600 = VECTOR ( 'NONE', #66, 1000.000000000000000 ) ;
#601 = ORIENTED_EDGE ( 'NONE', *, *, #1119, .F. ) ;
#602 = CARTESIAN_POINT ( 'NONE',  ( 0.000000000000000000, 20.00000000000000000, 9.000000000000001776 ) ) ;
#603 = CARTESIAN_POINT ( 'NONE',  ( 21.05737526271796156, 4.625000000000000000, 0.000000000000000000 ) ) ;
#604 = VERTEX_POINT ( 'NONE', #128 ) ;
#605 =( LENGTH_UNIT ( ) NAMED_UNIT ( * ) SI_UNIT ( .MILLI., .METRE. ) );
#606 = ORIENTED_EDGE ( 'NONE', *, *, #471, .T. ) ;
#607 = CARTESIAN_POINT ( 'NONE',  ( 5.937171043518990388, 30.99999999999999289, 3.000000000000001776 ) ) ;
#608 = EDGE_LOOP ( 'NONE', ( #875, #200 ) ) ;
#609 = DIRECTION ( 'NONE',  ( 0.000000000000000000, 0.000000000000000000, 1.000000000000000000 ) ) ;
#610 = CARTESIAN_POINT ( 'NONE',  ( 10.39683497031588999, 24.20686500687920173, 8.939355329343793954 ) ) ;
#611 = ORIENTED_EDGE ( 'NONE', *, *, #425, .F. ) ;
#612 = ORIENTED_EDGE ( 'NONE', *, *, #884, .T. ) ;
#613 = ADVANCED_FACE ( 'NONE', ( #1015 ), #650, .F. ) ;
#614 = ORIENTED_EDGE ( 'NONE', *, *, #674, .F. ) ;
#615 = DIRECTION ( 'NONE',  ( -0.5017677737667064486, -0.8650023706379094124, 0.000000000000000000 ) ) ;
#616 = CIRCLE ( 'NONE', #592, 8.000000000000000000 ) ;
#617 = CARTESIAN_POINT ( 'NONE',  ( 3.959967251088816198, 30.99999999999999289, 8.762696101932883508 ) ) ;
#618 = EDGE_CURVE ( 'NONE', #835, #702, #646, .T. ) ;
#619 = ADVANCED_FACE ( 'NONE', ( #749 ), #739, .F. ) ;
#620 = ORIENTED_EDGE ( 'NONE', *, *, #566, .T. ) ;
#621 = FACE_OUTER_BOUND ( 'NONE', #273, .T. ) ;
#622 = AXIS2_PLACEMENT_3D ( 'NONE', #164, #873, #318 ) ;
#623 = DIRECTION ( 'NONE',  ( 0.000000000000000000, -0.000000000000000000, -1.000000000000000000 ) ) ;
#624 = ADVANCED_FACE ( 'NONE', ( #45 ), #914, .T. ) ;
#625 = EDGE_CURVE ( 'NONE', #678, #1055, #207, .T. ) ;
#626 = DIRECTION ( 'NONE',  ( -1.000000000000000000, 0.000000000000000000, 0.000000000000000000 ) ) ;
#627 = CARTESIAN_POINT ( 'NONE',  ( -5.937171043519032132, 9.000000000000012434, 8.454044648600760326 ) ) ;
#628 = CARTESIAN_POINT ( 'NONE',  ( -8.000000000000000000, 20.00000000000000000, 9.000000000000001776 ) ) ;
#629 = ORIENTED_EDGE ( 'NONE', *, *, #213, .F. ) ;
#630 = ORIENTED_EDGE ( 'NONE', *, *, #566, .F. ) ;
#631 = DIRECTION ( 'NONE',  ( -0.000000000000000000, -0.000000000000000000, 1.000000000000000000 ) ) ;
#632 = CARTESIAN_POINT ( 'NONE',  ( 22.00000000000000000, 4.625000000000000000, 3.000000000000001776 ) ) ;
#633 =( NAMED_UNIT ( * ) PLANE_ANGLE_UNIT ( ) SI_UNIT ( $, .RADIAN. ) );
#634 = EDGE_CURVE ( 'NONE', #63, #1112, #616, .T. ) ;
#635 = CARTESIAN_POINT ( 'NONE',  ( 6.562828956481025600, 9.000000000000019540, 3.000000000000001776 ) ) ;
#636 = CARTESIAN_POINT ( 'NONE',  ( -2.187608116037825123, 31.00000000000000355, 8.939498831707767934 ) ) ;
#637 = LINE ( 'NONE', #545, #1144 ) ;
#638 = AXIS2_PLACEMENT_3D ( 'NONE', #985, #185, #371 ) ;
#639 = AXIS2_PLACEMENT_3D ( 'NONE', #769, #1047, #942 ) ;
#640 = ORIENTED_EDGE ( 'NONE', *, *, #918, .F. ) ;
#641 = CARTESIAN_POINT ( 'NONE',  ( 22.00000000000000000, -1.592040838891559095E-15, 19.00000000000000000 ) ) ;
#642 = DIRECTION ( 'NONE',  ( -0.000000000000000000, 1.000000000000000000, -0.000000000000000000 ) ) ;
#643 = DIRECTION ( 'NONE',  ( 0.000000000000000000, 1.000000000000000000, -0.000000000000000000 ) ) ;
#644 = ORIENTED_EDGE ( 'NONE', *, *, #483, .T. ) ;
#645 = EDGE_CURVE ( 'NONE', #585, #678, #386, .T. ) ;
#646 = LINE ( 'NONE', #813, #948 ) ;
#647 = CARTESIAN_POINT ( 'NONE',  ( -8.110039129564819760, 12.30979788455831425, 8.950685417379521169 ) ) ;
#648 = CYLINDRICAL_SURFACE ( 'NONE', #432, 8.000000000000000000 ) ;
#649 = ORIENTED_EDGE ( 'NONE', *, *, #1019, .T. ) ;
#650 = CYLINDRICAL_SURFACE ( 'NONE', #452, 2.750000000000000888 ) ;
#651 = ADVANCED_FACE ( 'NONE', ( #1099, #655, #285 ), #131, .F. ) ;
#652 = PLANE ( 'NONE',  #107 ) ;
#653 = VECTOR ( 'NONE', #39, 1000.000000000000000 ) ;
#654 = AXIS2_PLACEMENT_3D ( 'NONE', #684, #241, #599 ) ;
#655 = FACE_BOUND ( 'NONE', #703, .T. ) ;
#656 = FILL_AREA_STYLE_COLOUR ( '', #1026 ) ;
#657 = DIRECTION ( 'NONE',  ( 0.000000000000000000, -1.000000000000000000, -1.107506670533258812E-16 ) ) ;
#658 = ORIENTED_EDGE ( 'NONE', *, *, #4, .T. ) ;
#659 = DIRECTION ( 'NONE',  ( -1.000000000000000000, -0.000000000000000000, -0.000000000000000000 ) ) ;
#660 = CARTESIAN_POINT ( 'NONE',  ( 8.000000000000000000, 20.00000000000000000, 9.000000000000001776 ) ) ;
#661 = CYLINDRICAL_SURFACE ( 'NONE', #889, 4.625000000000000888 ) ;
#662 = EDGE_CURVE ( 'NONE', #560, #433, #893, .T. ) ;
#663 = EDGE_LOOP ( 'NONE', ( #231, #342, #84, #606 ) ) ;
#664 = CARTESIAN_POINT ( 'NONE',  ( 22.00000000000000000, 0.000000000000000000, 4.625000000000000888 ) ) ;
#665 = SURFACE_STYLE_FILL_AREA ( #309 ) ;
#666 = CARTESIAN_POINT ( 'NONE',  ( -12.50000000000001066, 20.00000000000000000, 8.454044648600699929 ) ) ;
#667 = CONICAL_SURFACE ( 'NONE', #783, 10.99999999999999289, 1.221730476396036602 ) ;
#668 = ORIENTED_EDGE ( 'NONE', *, *, #447, .T. ) ;
#669 = AXIS2_PLACEMENT_3D ( 'NONE', #865, #82, #947 ) ;
#670 = DIRECTION ( 'NONE',  ( 0.000000000000000000, 0.000000000000000000, -1.000000000000000000 ) ) ;
#671 = ORIENTED_EDGE ( 'NONE', *, *, #662, .T. ) ;
#672 = FACE_OUTER_BOUND ( 'NONE', #1044, .T. ) ;
#673 = CARTESIAN_POINT ( 'NONE',  ( 21.60955204958940357, 3.673097038856277141, 3.000000000000000888 ) ) ;
#674 = EDGE_CURVE ( 'NONE', #292, #506, #847, .T. ) ;
#675 = ORIENTED_EDGE ( 'NONE', *, *, #902, .T. ) ;
#676 = CARTESIAN_POINT ( 'NONE',  ( 18.09999999999999787, 3.000000000000000000, 19.00000000000000000 ) ) ;
#677 = EDGE_CURVE ( 'NONE', #595, #712, #499, .T. ) ;
#678 = VERTEX_POINT ( 'NONE', #664 ) ;
#679 = CARTESIAN_POINT ( 'NONE',  ( 16.00000000000000000, -1.734723475976807094E-15, 13.00000000000000000 ) ) ;
#680 = ORIENTED_EDGE ( 'NONE', *, *, #1114, .F. ) ;
#681 = CARTESIAN_POINT ( 'NONE',  ( 16.00000000000000000, -1.734723475976807094E-15, 15.75000000000000000 ) ) ;
#682 = VERTEX_POINT ( 'NONE', #487 ) ;
#683 = ORIENTED_EDGE ( 'NONE', *, *, #618, .F. ) ;
#684 = CARTESIAN_POINT ( 'NONE',  ( 5.937171043518990388, 30.99999999999999289, 9.000000000000001776 ) ) ;
#685 = ORIENTED_EDGE ( 'NONE', *, *, #1111, .F. ) ;
#686 = FACE_OUTER_BOUND ( 'NONE', #753, .T. ) ;
#687 = EDGE_CURVE ( 'NONE', #292, #429, #232, .T. ) ;
#688 = CARTESIAN_POINT ( 'NONE',  ( 12.79717104351894541, 20.55057896340658985, 3.000000000000001776 ) ) ;
#689 = VERTEX_POINT ( 'NONE', #56 ) ;
#690 = CARTESIAN_POINT ( 'NONE',  ( 22.00000000000000000, -1.734723475976807094E-15, 15.09999999999999964 ) ) ;
#691 = AXIS2_PLACEMENT_3D ( 'NONE', #234, #64, #586 ) ;
#692 = ORIENTED_EDGE ( 'NONE', *, *, #1042, .F. ) ;
#693 = AXIS2_PLACEMENT_3D ( 'NONE', #879, #114, #709 ) ;
#694 = DIRECTION ( 'NONE',  ( 0.000000000000000000, 0.000000000000000000, -1.000000000000000000 ) ) ;
#695 = VECTOR ( 'NONE', #12, 1000.000000000000000 ) ;
#696 = EDGE_LOOP ( 'NONE', ( #1040, #147, #845, #346 ) ) ;
#697 =( GEOMETRIC_REPRESENTATION_CONTEXT ( 3 ) GLOBAL_UNCERTAINTY_ASSIGNED_CONTEXT ( ( #731 ) ) GLOBAL_UNIT_ASSIGNED_CONTEXT ( ( #249, #927, #299 ) ) REPRESENTATION_CONTEXT ( 'NONE', 'WORKASPACE' ) );
#698 = EDGE_CURVE ( 'NONE', #439, #479, #577, .T. ) ;
#699 = CARTESIAN_POINT ( 'NONE',  ( -22.00000000000000000, 2.999999999999998224, 4.625000000000000888 ) ) ;
#700 = CARTESIAN_POINT ( 'NONE',  ( 22.00000000000000000, 3.000000000000000444, 0.2948729810778039084 ) ) ;
#701 = EDGE_CURVE ( 'NONE', #439, #38, #220, .T. ) ;
#702 = VERTEX_POINT ( 'NONE', #607 ) ;
#703 = EDGE_LOOP ( 'NONE', ( #170, #210 ) ) ;
#704 = DIRECTION ( 'NONE',  ( 1.000000000000000000, 0.000000000000000000, -0.000000000000000000 ) ) ;
#705 = CARTESIAN_POINT ( 'NONE',  ( 9.195490512202184163, 26.03679999999995331, 9.000000000000001776 ) ) ;
#706 = EDGE_CURVE ( 'NONE', #771, #512, #1020, .T. ) ;
#707 = VERTEX_POINT ( 'NONE', #1140 ) ;
#708 = DIRECTION ( 'NONE',  ( -1.000000000000000000, -0.000000000000000000, -0.000000000000000000 ) ) ;
#709 = DIRECTION ( 'NONE',  ( 0.000000000000000000, 0.000000000000000000, 1.000000000000000000 ) ) ;
#710 = CARTESIAN_POINT ( 'NONE',  ( -16.00000000000000000, -1.734723475976807094E-15, 13.00000000000000000 ) ) ;
#711 = VECTOR ( 'NONE', #708, 1000.000000000000000 ) ;
#712 = VERTEX_POINT ( 'NONE', #960 ) ;
#713 = CIRCLE ( 'NONE', #799, 3.900000000000000799 ) ;
#714 = CARTESIAN_POINT ( 'NONE',  ( 0.000000000000000000, 20.00000000000000000, -8.673617379884035472E-16 ) ) ;
#715 = FACE_OUTER_BOUND ( 'NONE', #1126, .T. ) ;
#716 = CONICAL_SURFACE ( 'NONE', #298, 10.99999999999999289, 1.221730476396036602 ) ;
#717 = CARTESIAN_POINT ( 'NONE',  ( -6.562828956481019382, 31.00000000000000000, 9.000000000000001776 ) ) ;
#718 = DIRECTION ( 'NONE',  ( 0.5017677737667065596, 0.8650023706379095234, 0.000000000000000000 ) ) ;
#719 = ORIENTED_EDGE ( 'NONE', *, *, #69, .T. ) ;
#720 = EDGE_LOOP ( 'NONE', ( #257, #227, #900, #1059 ) ) ;
#721 = DIRECTION ( 'NONE',  ( 0.000000000000000000, 0.000000000000000000, 1.000000000000000000 ) ) ;
#722 = EDGE_CURVE ( 'NONE', #959, #707, #994, .T. ) ;
#723 = PLANE ( 'NONE',  #802 ) ;
#724 = DIRECTION ( 'NONE',  ( 0.000000000000000000, -1.000000000000000000, 0.000000000000000000 ) ) ;
#725 = CARTESIAN_POINT ( 'NONE',  ( -22.00000000000000000, 2.999999999999998224, 0.2948729810778073501 ) ) ;
#726 = AXIS2_PLACEMENT_3D ( 'NONE', #641, #778, #333 ) ;
#727 = DIRECTION ( 'NONE',  ( 0.000000000000000000, 0.000000000000000000, 1.000000000000000000 ) ) ;
#728 = FACE_BOUND ( 'NONE', #1061, .T. ) ;
#729 = DIRECTION ( 'NONE',  ( -0.000000000000000000, 1.000000000000000000, -0.000000000000000000 ) ) ;
#730 = CARTESIAN_POINT ( 'NONE',  ( 8.652886574838261069, 26.86331559732197150, 9.000000000000001776 ) ) ;
#731 = UNCERTAINTY_MEASURE_WITH_UNIT (LENGTH_MEASURE( 1.000000000000000082E-05 ), #249, 'distance_accuracy_value', 'NONE');
#732 = VECTOR ( 'NONE', #510, 999.9999999999998863 ) ;
#733 = ADVANCED_FACE ( 'NONE', ( #1113 ), #453, .T. ) ;
#734 = VERTEX_POINT ( 'NONE', #676 ) ;
#735 = CARTESIAN_POINT ( 'NONE',  ( 22.00000000000000000, 2.999999999999998224, 4.625000000000000888 ) ) ;
#736 = DIRECTION ( 'NONE',  ( 0.000000000000000000, 0.000000000000000000, -1.000000000000000000 ) ) ;
#737 = LINE ( 'NONE', #904, #929 ) ;
#738 = ORIENTED_EDGE ( 'NONE', *, *, #1058, .F. ) ;
#739 = CYLINDRICAL_SURFACE ( 'NONE', #478, 2.750000000000000888 ) ;
#740 = DIRECTION ( 'NONE',  ( 1.000000000000000000, 0.000000000000000000, 0.000000000000000000 ) ) ;
#741 = CARTESIAN_POINT ( 'NONE',  ( 8.000000000000000000, 20.00000000000000000, -8.673617379884035472E-16 ) ) ;
#742 = EDGE_CURVE ( 'NONE', #311, #38, #970, .T. ) ;
#743 = ORIENTED_EDGE ( 'NONE', *, *, #645, .F. ) ;
#744 = CARTESIAN_POINT ( 'NONE',  ( 22.00000000000000000, -1.592040838891559095E-15, 19.00000000000000000 ) ) ;
#745 = CARTESIAN_POINT ( 'NONE',  ( -6.562828956481019382, 31.00000000000000000, 8.341574395017424592 ) ) ;
#746 = CIRCLE ( 'NONE', #188, 2.750000000000000888 ) ;
#747 = AXIS2_PLACEMENT_3D ( 'NONE', #394, #57, #922 ) ;
#748 = ORIENTED_EDGE ( 'NONE', *, *, #884, .F. ) ;
#749 = FACE_OUTER_BOUND ( 'NONE', #720, .T. ) ;
#750 = LINE ( 'NONE', #383, #1007 ) ;
#751 = CARTESIAN_POINT ( 'NONE',  ( -12.03000000000000647, 20.87078508638278507, 8.625110658705816391 ) ) ;
#752 = ADVANCED_FACE ( 'NONE', ( #1029 ), #308, .F. ) ;
#753 = EDGE_LOOP ( 'NONE', ( #251, #937, #402, #620 ) ) ;
#754 = DIRECTION ( 'NONE',  ( -0.000000000000000000, 1.000000000000000000, -0.000000000000000000 ) ) ;
#755 = DIRECTION ( 'NONE',  ( -0.000000000000000000, -0.000000000000000000, 1.000000000000000000 ) ) ;
#756 = ORIENTED_EDGE ( 'NONE', *, *, #514, .F. ) ;
#757 = ORIENTED_EDGE ( 'NONE', *, *, #811, .F. ) ;
#758 = DIRECTION ( 'NONE',  ( 0.000000000000000000, 0.000000000000000000, 1.000000000000000000 ) ) ;
#759 = DIRECTION ( 'NONE',  ( 0.000000000000000000, -1.000000000000000000, 0.000000000000000000 ) ) ;
#760 = LINE ( 'NONE', #223, #732 ) ;
#761 = CARTESIAN_POINT ( 'NONE',  ( 0.9908597956077669355, 31.00000000000000000, 9.000000000000000000 ) ) ;
#762 = VERTEX_POINT ( 'NONE', #772 ) ;
#763 = ADVANCED_FACE ( 'NONE', ( #579 ), #862, .F. ) ;
#764 = VECTOR ( 'NONE', #176, 1000.000000000000000 ) ;
#765 = CARTESIAN_POINT ( 'NONE',  ( -3.959447791190863430, 9.000000000000014211, 8.762801602718074179 ) ) ;
#766 = B_SPLINE_CURVE_WITH_KNOTS ( 'NONE', 3,
 ( #8, #980, #647, #1086, #534, #987 ),
 .UNSPECIFIED., .F., .F.,
 ( 4, 2, 4 ),
 ( 0.006568726931481504334, 0.009534736271500941773, 0.01250074561152038181 ),
 .UNSPECIFIED. ) ;
#767 = EDGE_LOOP ( 'NONE', ( #422, #839, #174, #162 ) ) ;
#768 = CARTESIAN_POINT ( 'NONE',  ( 16.00000000000000000, 3.000000000000000000, 13.00000000000000000 ) ) ;
#769 = CARTESIAN_POINT ( 'NONE',  ( 18.09999999999999787, 4.625000000000000000, 15.09999999999999964 ) ) ;
#770 = VERTEX_POINT ( 'NONE', #952 ) ;
#771 = VERTEX_POINT ( 'NONE', #161 ) ;
#772 = CARTESIAN_POINT ( 'NONE',  ( -21.05737526271795446, 4.625000000000000888, 0.000000000000000000 ) ) ;
#773 = ORIENTED_EDGE ( 'NONE', *, *, #698, .F. ) ;
#774 = DIRECTION ( 'NONE',  ( 0.000000000000000000, 0.000000000000000000, -1.000000000000000000 ) ) ;
#775 = CARTESIAN_POINT ( 'NONE',  ( 21.05737526271796156, 4.625000000000000000, 3.000000000000001776 ) ) ;
#776 = ORIENTED_EDGE ( 'NONE', *, *, #788, .F. ) ;
#777 = EDGE_LOOP ( 'NONE', ( #877, #509, #417, #1037, #943, #315, #683, #757 ) ) ;
#778 = DIRECTION ( 'NONE',  ( -0.000000000000000000, 1.000000000000000000, 1.107506670533258812E-16 ) ) ;
#779 = ORIENTED_EDGE ( 'NONE', *, *, #915, .T. ) ;
#780 = CARTESIAN_POINT ( 'NONE',  ( 12.27764253626578572, 19.58803071645603922, 8.545551414658765665 ) ) ;
#781 = DIRECTION ( 'NONE',  ( 0.000000000000000000, 0.000000000000000000, -1.000000000000000000 ) ) ;
#782 = ORIENTED_EDGE ( 'NONE', *, *, #936, .F. ) ;
#783 = AXIS2_PLACEMENT_3D ( 'NONE', #380, #1109, #999 ) ;
#784 = VERTEX_POINT ( 'NONE', #868 ) ;
#785 = AXIS2_PLACEMENT_3D ( 'NONE', #269, #721, #1075 ) ;
#786 = ORIENTED_EDGE ( 'NONE', *, *, #1046, .T. ) ;
#787 = CARTESIAN_POINT ( 'NONE',  ( 9.082524891698046332, 25.26856162455041499, 3.000000000000002665 ) ) ;
#788 = EDGE_CURVE ( 'NONE', #512, #925, #933, .T. ) ;
#789 = DIRECTION ( 'NONE',  ( 0.000000000000000000, 0.000000000000000000, 1.000000000000000000 ) ) ;
#790 = CARTESIAN_POINT ( 'NONE',  ( -9.195490512202193045, 13.96320000000005734, 9.000000000000001776 ) ) ;
#791 = FACE_BOUND ( 'NONE', #400, .T. ) ;
#792 = VERTEX_POINT ( 'NONE', #79 ) ;
#793 =( BOUNDED_CURVE ( )  B_SPLINE_CURVE ( 3, ( #775, #673, #505, #850 ),
 .UNSPECIFIED., .F., .F. ) 
 B_SPLINE_CURVE_WITH_KNOTS ( ( 4, 4 ),
 ( 1.570796326794896558, 3.141592653589795336 ),
 .UNSPECIFIED. ) 
 CURVE ( )  GEOMETRIC_REPRESENTATION_ITEM ( )  RATIONAL_B_SPLINE_CURVE ( ( 1.000000000000000000, 0.8047378541243644934, 0.8047378541243644934, 1.000000000000000000 ) ) 
 REPRESENTATION_ITEM ( '' )  );
#794 = CYLINDRICAL_SURFACE ( 'NONE', #1145, 8.000000000000000000 ) ;
#795 = FACE_OUTER_BOUND ( 'NONE', #214, .T. ) ;
#796 = LINE ( 'NONE', #717, #695 ) ;
#797 = EDGE_CURVE ( 'NONE', #254, #224, #1050, .T. ) ;
#798 = EDGE_LOOP ( 'NONE', ( #866, #307, #16, #242 ) ) ;
#799 = AXIS2_PLACEMENT_3D ( 'NONE', #457, #23, #967 ) ;
#800 = CARTESIAN_POINT ( 'NONE',  ( 0.000000000000000000, 20.00000000000000000, 0.000000000000000000 ) ) ;
#801 = DIRECTION ( 'NONE',  ( -0.000000000000000000, -0.000000000000000000, -1.000000000000000000 ) ) ;
#802 = AXIS2_PLACEMENT_3D ( 'NONE', #632, #202, #1072 ) ;
#803 = DIRECTION ( 'NONE',  ( 0.5017677737667065596, 0.8650023706379095234, 0.000000000000000000 ) ) ;
#804 = PRODUCT_RELATED_PRODUCT_CATEGORY ( 'part', '', ( #152 ) ) ;
#805 = CARTESIAN_POINT ( 'NONE',  ( 2.192264988024688943, 9.000000000000019540, 8.939119793013860615 ) ) ;
#806 = CARTESIAN_POINT ( 'NONE',  ( 7.023904841185276027, 29.34464445969224045, 8.763070556502531971 ) ) ;
#807 = UNCERTAINTY_MEASURE_WITH_UNIT (LENGTH_MEASURE( 1.000000000000000082E-05 ), #356, 'distance_accuracy_value', 'NONE');
#808 = CARTESIAN_POINT ( 'NONE',  ( -21.05737526271795446, 4.625000000000000888, 0.000000000000000000 ) ) ;
#809 = CARTESIAN_POINT ( 'NONE',  ( 9.195490512202184163, 26.03679999999995331, 9.000000000000001776 ) ) ;
#810 = DIRECTION ( 'NONE',  ( -0.000000000000000000, -0.000000000000000000, -1.000000000000000000 ) ) ;
#811 = EDGE_CURVE ( 'NONE', #80, #835, #101, .T. ) ;
#812 = EDGE_LOOP ( 'NONE', ( #1027, #675, #485 ) ) ;
#813 = CARTESIAN_POINT ( 'NONE',  ( 5.937171043518990388, 30.99999999999999289, 3.000000000000001776 ) ) ;
#814 = CARTESIAN_POINT ( 'NONE',  ( 0.000000000000000000, 20.00000000000000000, 9.000000000000001776 ) ) ;
#815 = AXIS2_PLACEMENT_3D ( 'NONE', #1068, #100, #623 ) ;
#816 = FACE_OUTER_BOUND ( 'NONE', #68, .T. ) ;
#817 = AXIS2_PLACEMENT_3D ( 'NONE', #62, #754, #694 ) ;
#818 = EDGE_CURVE ( 'NONE', #173, #964, #796, .T. ) ;
#819 = ORIENTED_EDGE ( 'NONE', *, *, #296, .T. ) ;
#820 = DIRECTION ( 'NONE',  ( -1.000000000000000000, 0.000000000000000000, -0.000000000000000000 ) ) ;
#821 = LINE ( 'NONE', #690, #855 ) ;
#822 = DIRECTION ( 'NONE',  ( -1.000000000000000000, 5.551115123125778758E-16, 0.000000000000000000 ) ) ;
#823 = ORIENTED_EDGE ( 'NONE', *, *, #634, .T. ) ;
#824 = CARTESIAN_POINT ( 'NONE',  ( 0.000000000000000000, 20.00000000000000000, 9.000000000000001776 ) ) ;
#825 = CARTESIAN_POINT ( 'NONE',  ( -8.000000000000000000, 20.00000000000000000, -8.673617379884035472E-16 ) ) ;
#826 = ORIENTED_EDGE ( 'NONE', *, *, #514, .T. ) ;
#827 = EDGE_CURVE ( 'NONE', #224, #254, #29, .T. ) ;
#828 = CARTESIAN_POINT ( 'NONE',  ( -9.082524891698046332, 25.26856162455041499, 3.000000000000002665 ) ) ;
#829 = LINE ( 'NONE', #1022, #358 ) ;
#830 = B_SPLINE_CURVE_WITH_KNOTS ( 'NONE', 3,
 ( #809, #730, #24, #806, #105, #119 ),
 .UNSPECIFIED., .F., .F.,
 ( 4, 2, 4 ),
 ( 0.006568726931481505202, 0.009534736271500950447, 0.01250074561152039569 ),
 .UNSPECIFIED. ) ;
#831 = CARTESIAN_POINT ( 'NONE',  ( -22.00000000000000000, 2.999999999999998224, 0.2948729810778073501 ) ) ;
#832 = VECTOR ( 'NONE', #1028, 999.9999999999998863 ) ;
#833 = AXIS2_PLACEMENT_3D ( 'NONE', #3, #573, #382 ) ;
#834 = CIRCLE ( 'NONE', #669, 10.99999999999999289 ) ;
#835 = VERTEX_POINT ( 'NONE', #688 ) ;
#836 = DIRECTION ( 'NONE',  ( -0.000000000000000000, 1.000000000000000000, -0.000000000000000000 ) ) ;
#837 = ADVANCED_FACE ( 'NONE', ( #172 ), #325, .T. ) ;
#838 = CARTESIAN_POINT ( 'NONE',  ( -10.39683497031588821, 15.79313499312081248, 8.939355329343797507 ) ) ;
#839 = ORIENTED_EDGE ( 'NONE', *, *, #1042, .T. ) ;
#840 = ORIENTED_EDGE ( 'NONE', *, *, #20, .F. ) ;
#841 = DIRECTION ( 'NONE',  ( 0.5487999999999951806, -0.8359536829274725189, -0.000000000000000000 ) ) ;
#842 = SURFACE_STYLE_USAGE ( .BOTH. , #488 ) ;
#843 = DIRECTION ( 'NONE',  ( 0.000000000000000000, 0.000000000000000000, -1.000000000000000000 ) ) ;
#844 = ADVANCED_FACE ( 'NONE', ( #247 ), #1147, .T. ) ;
#845 = ORIENTED_EDGE ( 'NONE', *, *, #226, .T. ) ;
#846 = ORIENTED_EDGE ( 'NONE', *, *, #618, .T. ) ;
#847 = LINE ( 'NONE', #1036, #1101 ) ;
#848 = ORIENTED_EDGE ( 'NONE', *, *, #677, .T. ) ;
#849 = LINE ( 'NONE', #1149, #906 ) ;
#850 = CARTESIAN_POINT ( 'NONE',  ( 22.00000000000000000, 3.000000000000000444, 4.625000000000004441 ) ) ;
#851 = AXIS2_PLACEMENT_3D ( 'NONE', #710, #643, #539 ) ;
#852 = EDGE_CURVE ( 'NONE', #331, #80, #587, .T. ) ;
#853 = AXIS2_PLACEMENT_3D ( 'NONE', #997, #293, #201 ) ;
#854 = ORIENTED_EDGE ( 'NONE', *, *, #698, .T. ) ;
#855 = VECTOR ( 'NONE', #1100, 1000.000000000000000 ) ;
#856 = CARTESIAN_POINT ( 'NONE',  ( 22.00000000000000000, 3.000000000000000000, 19.00000000000000000 ) ) ;
#857 = VERTEX_POINT ( 'NONE', #681 ) ;
#858 = CYLINDRICAL_SURFACE ( 'NONE', #189, 1.624999999999999778 ) ;
#859 = DIRECTION ( 'NONE',  ( 0.000000000000000000, 0.000000000000000000, -1.000000000000000000 ) ) ;
#860 = EDGE_LOOP ( 'NONE', ( #1148, #644, #552, #60 ) ) ;
#861 = EDGE_LOOP ( 'NONE', ( #990, #576, #516 ) ) ;
#862 = PLANE ( 'NONE',  #654 ) ;
#863 = ORIENTED_EDGE ( 'NONE', *, *, #818, .F. ) ;
#864 = CARTESIAN_POINT ( 'NONE',  ( -22.00000000000000000, -1.160113237383588230E-15, 15.09999999999999964 ) ) ;
#865 = CARTESIAN_POINT ( 'NONE',  ( 0.000000000000000000, 20.00000000000000000, 9.000000000000001776 ) ) ;
#866 = ORIENTED_EDGE ( 'NONE', *, *, #401, .F. ) ;
#867 = ORIENTED_EDGE ( 'NONE', *, *, #149, .F. ) ;
#868 = CARTESIAN_POINT ( 'NONE',  ( 12.79717104351894541, 20.55057896340658985, 8.341574395017424592 ) ) ;
#869 = ADVANCED_FACE ( 'NONE', ( #955 ), #1, .T. ) ;
#870 = ORIENTED_EDGE ( 'NONE', *, *, #301, .F. ) ;
#871 = ORIENTED_EDGE ( 'NONE', *, *, #902, .F. ) ;
#872 = CARTESIAN_POINT ( 'NONE',  ( 6.106226635438347562E-15, 9.000000000000007105, 9.000000000000001776 ) ) ;
#873 = DIRECTION ( 'NONE',  ( 1.000000000000000000, 0.000000000000000000, 0.000000000000000000 ) ) ;
#874 = AXIS2_PLACEMENT_3D ( 'NONE', #602, #1038, #1031 ) ;
#875 = ORIENTED_EDGE ( 'NONE', *, *, #827, .T. ) ;
#877 = ORIENTED_EDGE ( 'NONE', *, *, #852, .F. ) ;
#876 = VECTOR ( 'NONE', #398, 1000.000000000000000 ) ;
#878 = ORIENTED_EDGE ( 'NONE', *, *, #923, .F. ) ;
#879 = CARTESIAN_POINT ( 'NONE',  ( -16.00000000000000000, -1.734723475976807094E-15, 13.00000000000000000 ) ) ;
#880 = DIRECTION ( 'NONE',  ( 0.000000000000000000, 0.000000000000000000, 1.000000000000000000 ) ) ;
#881 = VERTEX_POINT ( 'NONE', #603 ) ;
#882 = CARTESIAN_POINT ( 'NONE',  ( -16.00000000000000000, -1.734723475976807094E-15, 10.24999999999999822 ) ) ;
#883 = LINE ( 'NONE', #265, #1024 ) ;
#884 = EDGE_CURVE ( 'NONE', #523, #80, #1143, .T. ) ;
#885 = APPLICATION_PROTOCOL_DEFINITION ( 'draft international standard', 'automotive_design', 1998, #500 ) ;
#886 = CARTESIAN_POINT ( 'NONE',  ( 5.937171043518990388, 30.99999999999999289, 8.454044648600701706 ) ) ;
#887 = DIRECTION ( 'NONE',  ( 0.000000000000000000, 0.000000000000000000, -1.000000000000000000 ) ) ;
#888 = CARTESIAN_POINT ( 'NONE',  ( -21.05737526271796156, 4.625000000000000000, 3.000000000000001776 ) ) ;
#889 = AXIS2_PLACEMENT_3D ( 'NONE', #31, #928, #484 ) ;
#890 = ORIENTED_EDGE ( 'NONE', *, *, #447, .F. ) ;
#891 = VECTOR ( 'NONE', #448, 1000.000000000000114 ) ;
#892 = FACE_OUTER_BOUND ( 'NONE', #696, .T. ) ;
#893 = CIRCLE ( 'NONE', #817, 3.900000000000000799 ) ;
#894 = CARTESIAN_POINT ( 'NONE',  ( 22.00000000000000000, 3.000000000000000444, 0.2948729810778039084 ) ) ;
#895 =( NAMED_UNIT ( * ) SI_UNIT ( $, .STERADIAN. ) SOLID_ANGLE_UNIT ( ) );
#896 = EDGE_CURVE ( 'NONE', #1055, #233, #190, .T. ) ;
#897 = CYLINDRICAL_SURFACE ( 'NONE', #540, 10.49999999999999467 ) ;
#898 = DIRECTION ( 'NONE',  ( -0.5487999999999951806, 0.8359536829274725189, 0.000000000000000000 ) ) ;
#899 = DIRECTION ( 'NONE',  ( 0.000000000000000000, 1.107506670533258689E-16, -1.000000000000000000 ) ) ;
#900 = ORIENTED_EDGE ( 'NONE', *, *, #113, .T. ) ;
#901 = DIRECTION ( 'NONE',  ( 0.000000000000000000, 0.000000000000000000, 1.000000000000000000 ) ) ;
#902 = EDGE_CURVE ( 'NONE', #784, #938, #1010, .T. ) ;
#903 = DIRECTION ( 'NONE',  ( 0.8359536829274725189, 0.5487999999999951806, -0.000000000000000000 ) ) ;
#904 = CARTESIAN_POINT ( 'NONE',  ( 5.937171043518990388, 30.99999999999999289, 3.000000000000001776 ) ) ;
#905 = ORIENTED_EDGE ( 'NONE', *, *, #788, .T. ) ;
#906 = VECTOR ( 'NONE', #415, 1000.000000000000000 ) ;
#907 = CARTESIAN_POINT ( 'NONE',  ( -12.79717104351893830, 19.44942103659343147, 8.341574395017428145 ) ) ;
#908 = EDGE_CURVE ( 'NONE', #224, #1112, #150, .T. ) ;
#909 = DIRECTION ( 'NONE',  ( -0.4749736834815188047, -0.8799999999999988942, 0.000000000000000000 ) ) ;
#910 = PRESENTATION_LAYER_ASSIGNMENT (  '', '', ( #538 ) ) ;
#911 = CARTESIAN_POINT ( 'NONE',  ( 0.000000000000000000, 20.00000000000000000, 9.000000000000001776 ) ) ;
#912 = VECTOR ( 'NONE', #221, 1000.000000000000000 ) ;
#913 = ORIENTED_EDGE ( 'NONE', *, *, #593, .T. ) ;
#914 = PLANE ( 'NONE',  #982 ) ;
#915 = EDGE_CURVE ( 'NONE', #964, #771, #1131, .T. ) ;
#916 = DIRECTION ( 'NONE',  ( 0.000000000000000000, 0.000000000000000000, 1.000000000000000000 ) ) ;
#917 = LINE ( 'NONE', #36, #375 ) ;
#918 = EDGE_CURVE ( 'NONE', #486, #707, #834, .T. ) ;
#919 = ORIENTED_EDGE ( 'NONE', *, *, #674, .T. ) ;
#920 = CARTESIAN_POINT ( 'NONE',  ( 21.29470074004590074, 4.215872289464954292, 0.000000000000000000 ) ) ;
#921 = DIRECTION ( 'NONE',  ( 0.000000000000000000, 1.107506670533258689E-16, -1.000000000000000000 ) ) ;
#922 = DIRECTION ( 'NONE',  ( 0.000000000000000000, 0.000000000000000000, 1.000000000000000000 ) ) ;
#923 = EDGE_CURVE ( 'NONE', #965, #292, #793, .T. ) ;
#924 = DIRECTION ( 'NONE',  ( 1.000000000000000000, 5.551115123125774814E-16, 0.000000000000000000 ) ) ;
#925 = VERTEX_POINT ( 'NONE', #75 ) ;
#926 = DIRECTION ( 'NONE',  ( 0.000000000000000000, 0.000000000000000000, -1.000000000000000000 ) ) ;
#927 =( NAMED_UNIT ( * ) PLANE_ANGLE_UNIT ( ) SI_UNIT ( $, .RADIAN. ) );
#928 = DIRECTION ( 'NONE',  ( -1.000000000000000000, -0.000000000000000000, -0.000000000000000000 ) ) ;
#929 = VECTOR ( 'NONE', #822, 1000.000000000000000 ) ;
#930 = VECTOR ( 'NONE', #841, 1000.000000000000000 ) ;
#931 = B_SPLINE_CURVE_WITH_KNOTS ( 'NONE', 3,
 ( #872, #85, #805, #258, #1067, #99 ),
 .UNSPECIFIED., .F., .F.,
 ( 4, 2, 4 ),
 ( 0.01672964872390420021, 0.02004729713412290240, 0.02336494554434160459 ),
 .UNSPECIFIED. ) ;
#932 = ORIENTED_EDGE ( 'NONE', *, *, #1134, .T. ) ;
#933 = LINE ( 'NONE', #142, #930 ) ;
#934 = EDGE_CURVE ( 'NONE', #678, #1033, #376, .T. ) ;
#935 = DIRECTION ( 'NONE',  ( -0.000000000000000000, -0.000000000000000000, -1.000000000000000000 ) ) ;
#936 = EDGE_CURVE ( 'NONE', #1033, #881, #564, .T. ) ;
#937 = ORIENTED_EDGE ( 'NONE', *, *, #490, .F. ) ;
#938 = VERTEX_POINT ( 'NONE', #705 ) ;
#939 = CARTESIAN_POINT ( 'NONE',  ( -16.00000000000000000, -1.734723475976807094E-15, 15.75000000000000000 ) ) ;
#940 = ORIENTED_EDGE ( 'NONE', *, *, #385, .F. ) ;
#941 = CARTESIAN_POINT ( 'NONE',  ( 0.000000000000000000, 20.00000000000000000, 9.000000000000001776 ) ) ;
#942 = DIRECTION ( 'NONE',  ( 0.000000000000000000, 0.000000000000000000, 1.000000000000000000 ) ) ;
#943 = ORIENTED_EDGE ( 'NONE', *, *, #915, .F. ) ;
#944 = CARTESIAN_POINT ( 'NONE',  ( -6.562828956481019382, 31.00000000000000000, 9.000000000000001776 ) ) ;
#945 = ORIENTED_EDGE ( 'NONE', *, *, #1058, .T. ) ;
#946 = DIRECTION ( 'NONE',  ( 0.5487999999999961798, -0.8359536829274718528, 0.000000000000000000 ) ) ;
#947 = DIRECTION ( 'NONE',  ( 1.000000000000000000, 0.000000000000000000, 0.000000000000000000 ) ) ;
#948 = VECTOR ( 'NONE', #472, 1000.000000000000000 ) ;
#949 = ORIENTED_EDGE ( 'NONE', *, *, #973, .F. ) ;
#950 = CIRCLE ( 'NONE', #747, 2.750000000000000888 ) ;
#951 = VECTOR ( 'NONE', #801, 1000.000000000000000 ) ;
#952 = CARTESIAN_POINT ( 'NONE',  ( 6.106226635438351506E-15, 30.99999999999999289, 9.000000000000001776 ) ) ;
#953 = ORIENTED_EDGE ( 'NONE', *, *, #896, .F. ) ;
#954 = PLANE ( 'NONE',  #984 ) ;
#955 = FACE_OUTER_BOUND ( 'NONE', #362, .T. ) ;
#956 = B_SPLINE_CURVE_WITH_KNOTS ( 'NONE', 3,
 ( #553, #289, #475, #907 ),
 .UNSPECIFIED., .F., .F.,
 ( 4, 4 ),
 ( 0.01250022727272728437, 0.01312588518568929587 ),
 .UNSPECIFIED. ) ;
#957 = ORIENTED_EDGE ( 'NONE', *, *, #687, .F. ) ;
#958 = EDGE_CURVE ( 'NONE', #467, #770, #572, .T. ) ;
#959 = VERTEX_POINT ( 'NONE', #627 ) ;
#960 = CARTESIAN_POINT ( 'NONE',  ( -9.082524891698046332, 25.26856162455041499, 0.000000000000000000 ) ) ;
#961 = VERTEX_POINT ( 'NONE', #21 ) ;
#962 = CARTESIAN_POINT ( 'NONE',  ( 12.79717104351894541, 20.55057896340658985, 9.000000000000001776 ) ) ;
#963 = CARTESIAN_POINT ( 'NONE',  ( 9.195490512202184163, 26.03679999999995331, 9.000000000000001776 ) ) ;
#964 = VERTEX_POINT ( 'NONE', #198 ) ;
#965 = VERTEX_POINT ( 'NONE', #978 ) ;
#966 = ORIENTED_EDGE ( 'NONE', *, *, #634, .F. ) ;
#967 = DIRECTION ( 'NONE',  ( 0.000000000000000000, -1.107506670533258442E-16, 1.000000000000000000 ) ) ;
#968 = DIRECTION ( 'NONE',  ( 0.8650023706379095234, 0.5017677737667065596, 0.000000000000000000 ) ) ;
#969 = CIRCLE ( 'NONE', #88, 3.900000000000000799 ) ;
#970 = CIRCLE ( 'NONE', #391, 2.750000000000000888 ) ;
#971 = ORIENTED_EDGE ( 'NONE', *, *, #20, .T. ) ;
#972 = CARTESIAN_POINT ( 'NONE',  ( -10.99999999999999289, 20.00000000000000000, 9.000000000000001776 ) ) ;
#973 = EDGE_CURVE ( 'NONE', #486, #959, #766, .T. ) ;
#974 = DIRECTION ( 'NONE',  ( 0.000000000000000000, 0.000000000000000000, 1.000000000000000000 ) ) ;
#975 = CARTESIAN_POINT ( 'NONE',  ( -10.21678119325084033, 23.31320609745287342, 3.000000000000001776 ) ) ;
#976 = ADVANCED_FACE ( 'NONE', ( #795 ), #986, .T. ) ;
#977 = FACE_OUTER_BOUND ( 'NONE', #76, .T. ) ;
#978 = CARTESIAN_POINT ( 'NONE',  ( 21.05737526271796156, 4.625000000000000000, 3.000000000000001776 ) ) ;
#979 = CARTESIAN_POINT ( 'NONE',  ( 18.09999999999999787, 3.000000000000000000, 19.00000000000000000 ) ) ;
#980 = CARTESIAN_POINT ( 'NONE',  ( -8.652886574838264622, 13.13668440267804272, 9.000000000000005329 ) ) ;
#981 = CARTESIAN_POINT ( 'NONE',  ( -22.00000000000000000, 3.000000000000000000, 4.625000000000004441 ) ) ;
#982 = AXIS2_PLACEMENT_3D ( 'NONE', #118, #28, #1085 ) ;
#983 = CIRCLE ( 'NONE', #136, 3.900000000000000799 ) ;
#984 = AXIS2_PLACEMENT_3D ( 'NONE', #252, #1142, #946 ) ;
#985 = CARTESIAN_POINT ( 'NONE',  ( 16.00000000000000000, 3.000000000000000000, 13.00000000000000000 ) ) ;
#986 = CONICAL_SURFACE ( 'NONE', #67, 10.99999999999999289, 1.221730476396036602 ) ;
#987 = CARTESIAN_POINT ( 'NONE',  ( -5.937171043519032132, 9.000000000000012434, 8.454044648600760326 ) ) ;
#988 = FACE_OUTER_BOUND ( 'NONE', #1106, .T. ) ;
#989 = ADVANCED_FACE ( 'NONE', ( #715 ), #723, .F. ) ;
#990 = ORIENTED_EDGE ( 'NONE', *, *, #1034, .T. ) ;
#991 = CARTESIAN_POINT ( 'NONE',  ( 22.00000000000000000, -1.160113237383588230E-15, 15.09999999999999964 ) ) ;
#992 = FACE_OUTER_BOUND ( 'NONE', #320, .T. ) ;
#993 = CARTESIAN_POINT ( 'NONE',  ( -7.601885970987342311, 29.07490350609890939, 8.711849191477073262 ) ) ;
#994 = B_SPLINE_CURVE_WITH_KNOTS ( 'NONE', 3,
 ( #589, #168, #765, #508, #321, #153 ),
 .UNSPECIFIED., .F., .F.,
 ( 4, 2, 4 ),
 ( 0.01075296705336149967, 0.01374130788863284908, 0.01672964872390420021 ),
 .UNSPECIFIED. ) ;
#995 = EDGE_CURVE ( 'NONE', #770, #173, #306, .T. ) ;
#996 = EDGE_LOOP ( 'NONE', ( #854, #93 ) ) ;
#997 = CARTESIAN_POINT ( 'NONE',  ( -16.00000000000000000, -1.734723475976807094E-15, 13.00000000000000000 ) ) ;
#998 = LINE ( 'NONE', #368, #526 ) ;
#999 = DIRECTION ( 'NONE',  ( -1.000000000000000000, 0.000000000000000000, 0.000000000000000000 ) ) ;
#1000 = ORIENTED_EDGE ( 'NONE', *, *, #370, .F. ) ;
#1001 = MECHANICAL_DESIGN_GEOMETRIC_PRESENTATION_REPRESENTATION (  '', ( #538 ), #355 ) ;
#1002 = FACE_OUTER_BOUND ( 'NONE', #663, .T. ) ;
#1003 = CARTESIAN_POINT ( 'NONE',  ( -18.09999999999999787, -1.592040838891559095E-15, 15.09999999999999964 ) ) ;
#1004 = AXIS2_PLACEMENT_3D ( 'NONE', #679, #244, #316 ) ;
#1005 = CARTESIAN_POINT ( 'NONE',  ( -22.00000000000000000, 4.625000000000000000, 4.625000000000000888 ) ) ;
#1006 = ADVANCED_FACE ( 'NONE', ( #271 ), #372, .F. ) ;
#1007 = VECTOR ( 'NONE', #46, 1000.000000000000000 ) ;
#1008 = ORIENTED_EDGE ( 'NONE', *, *, #149, .T. ) ;
#1009 = ADVANCED_FACE ( 'NONE', ( #455 ), #716, .T. ) ;
#1010 = B_SPLINE_CURVE_WITH_KNOTS ( 'NONE', 3,
 ( #156, #87, #1032, #610, #496, #963 ),
 .UNSPECIFIED., .F., .F.,
 ( 4, 2, 4 ),
 ( 2.396394431003171675E-07, 0.003284483285462303035, 0.006568726931481505202 ),
 .UNSPECIFIED. ) ;
#1011 = CARTESIAN_POINT ( 'NONE',  ( 16.00000000000000000, -1.734723475976807094E-15, 13.00000000000000000 ) ) ;
#1012 = FACE_OUTER_BOUND ( 'NONE', #1097, .T. ) ;
#1013 = FACE_OUTER_BOUND ( 'NONE', #861, .T. ) ;
#1014 = VERTEX_POINT ( 'NONE', #463 ) ;
#1015 = FACE_OUTER_BOUND ( 'NONE', #798, .T. ) ;
#1016 = CARTESIAN_POINT ( 'NONE',  ( -8.000000000000000000, 20.00000000000000000, -8.673617379884035472E-16 ) ) ;
#1017 = CARTESIAN_POINT ( 'NONE',  ( 16.00000000000000000, -1.734723475976807094E-15, 10.24999999999999822 ) ) ;
#1018 = ORIENTED_EDGE ( 'NONE', *, *, #385, .T. ) ;
#1019 = EDGE_CURVE ( 'NONE', #38, #311, #466, .T. ) ;
#1020 = LINE ( 'NONE', #225, #1025 ) ;
#1021 = VECTOR ( 'NONE', #921, 1000.000000000000000 ) ;
#1022 = CARTESIAN_POINT ( 'NONE',  ( -22.00000000000000000, 4.625000000000000000, 15.09999999999999964 ) ) ;
#1023 = LINE ( 'NONE', #551, #1083 ) ;
#1024 = VECTOR ( 'NONE', #724, 1000.000000000000000 ) ;
#1025 = VECTOR ( 'NONE', #327, 1000.000000000000000 ) ;
#1026 = COLOUR_RGB ( '',1.000000000000000000, 1.000000000000000000, 1.000000000000000000 ) ;
#1027 = ORIENTED_EDGE ( 'NONE', *, *, #412, .T. ) ;
#1028 = DIRECTION ( 'NONE',  ( -0.5017677737667065596, 0.8650023706379095234, 0.000000000000000000 ) ) ;
#1029 = FACE_OUTER_BOUND ( 'NONE', #77, .T. ) ;
#1030 = VERTEX_POINT ( 'NONE', #112 ) ;
#1031 = DIRECTION ( 'NONE',  ( 1.000000000000000000, 0.000000000000000000, 0.000000000000000000 ) ) ;
#1032 = CARTESIAN_POINT ( 'NONE',  ( 11.59735457661047953, 22.37818646039851700, 8.711663833539336821 ) ) ;
#1033 = VERTEX_POINT ( 'NONE', #894 ) ;
#1034 = EDGE_CURVE ( 'NONE', #938, #467, #830, .T. ) ;
#1035 = VERTEX_POINT ( 'NONE', #286 ) ;
#1036 = CARTESIAN_POINT ( 'NONE',  ( 22.00000000000000000, 3.000000000000000444, 4.625000000000000888 ) ) ;
#1037 = ORIENTED_EDGE ( 'NONE', *, *, #706, .F. ) ;
#1038 = DIRECTION ( 'NONE',  ( 0.000000000000000000, 0.000000000000000000, 1.000000000000000000 ) ) ;
#1039 = CARTESIAN_POINT ( 'NONE',  ( -6.562828956481019382, 31.00000000000000000, 3.000000000000001776 ) ) ;
#1040 = ORIENTED_EDGE ( 'NONE', *, *, #490, .T. ) ;
#1041 = ORIENTED_EDGE ( 'NONE', *, *, #852, .T. ) ;
#1042 = EDGE_CURVE ( 'NONE', #479, #311, #998, .T. ) ;
#1043 = DIRECTION ( 'NONE',  ( 0.4749736834815188047, 0.8799999999999988942, 0.000000000000000000 ) ) ;
#1044 = EDGE_LOOP ( 'NONE', ( #840, #614, #878, #236 ) ) ;
#1045 = CARTESIAN_POINT ( 'NONE',  ( 9.082524891698046332, 25.26856162455041499, 71.42375415782429116 ) ) ;
#1046 = EDGE_CURVE ( 'NONE', #117, #771, #30, .T. ) ;
#1047 = DIRECTION ( 'NONE',  ( 0.000000000000000000, 1.000000000000000000, 0.000000000000000000 ) ) ;
#1048 = CLOSED_SHELL ( 'NONE', ( #1009, #525, #613, #474, #1006, #504, #1065, #426, #763, #752, #989, #166, #312, #442, #624, #270, #557, #651, #86, #494, #837, #458, #239, #619, #546, #1084, #869, #507, #733, #976, #393, #844, #121, #167, #542 ) ) ;
#1049 = ORIENTED_EDGE ( 'NONE', *, *, #1046, .F. ) ;
#1050 = CIRCLE ( 'NONE', #502, 8.000000000000000000 ) ;
#1051 = DIRECTION ( 'NONE',  ( 0.000000000000000000, 0.000000000000000000, 1.000000000000000000 ) ) ;
#1052 = STYLED_ITEM ( 'NONE', ( #562 ), #1104 ) ;
#1053 = ORIENTED_EDGE ( 'NONE', *, *, #1125, .F. ) ;
#1054 = DIRECTION ( 'NONE',  ( -1.000000000000000000, -0.000000000000000000, -0.000000000000000000 ) ) ;
#1055 = VERTEX_POINT ( 'NONE', #1091 ) ;
#1056 = FACE_OUTER_BOUND ( 'NONE', #326, .T. ) ;
#1057 = CARTESIAN_POINT ( 'NONE',  ( 21.69778307821797370, 3.520994706028869103, 0.09935529912591584134 ) ) ;
#1058 = EDGE_CURVE ( 'NONE', #770, #1030, #454, .T. ) ;
#1059 = ORIENTED_EDGE ( 'NONE', *, *, #492, .T. ) ;
#1060 = ORIENTED_EDGE ( 'NONE', *, *, #1111, .T. ) ;
#1061 = EDGE_LOOP ( 'NONE', ( #443, #407 ) ) ;
#1062 = CARTESIAN_POINT ( 'NONE',  ( -21.69778307821797014, 3.520994706028869992, 0.09935529912591635482 ) ) ;
#1063 = CARTESIAN_POINT ( 'NONE',  ( 21.05737526271796156, 4.625000000000000000, 0.000000000000000000 ) ) ;
#1064 = ORIENTED_EDGE ( 'NONE', *, *, #492, .F. ) ;
#1065 = ADVANCED_FACE ( 'NONE', ( #992 ), #18, .F. ) ;
#1066 = ORIENTED_EDGE ( 'NONE', *, *, #896, .T. ) ;
#1067 = CARTESIAN_POINT ( 'NONE',  ( 5.472746246980433327, 9.000000000000019540, 8.544857299741229539 ) ) ;
#1068 = CARTESIAN_POINT ( 'NONE',  ( 22.00000000000000000, 3.000000000000000000, 19.00000000000000000 ) ) ;
#1069 = AXIS2_PLACEMENT_3D ( 'NONE', #533, #444, #615 ) ;
#1070 = VECTOR ( 'NONE', #469, 999.9999999999998863 ) ;
#1071 = PLANE ( 'NONE',  #785 ) ;
#1072 = DIRECTION ( 'NONE',  ( -1.000000000000000000, 0.000000000000000000, -0.000000000000000000 ) ) ;
#1073 = CARTESIAN_POINT ( 'NONE',  ( -21.60955204958940001, 3.673097038856278918, 3.000000000000000888 ) ) ;
#1074 = VERTEX_POINT ( 'NONE', #445 ) ;
#1075 = DIRECTION ( 'NONE',  ( 1.000000000000000000, 0.000000000000000000, -0.000000000000000000 ) ) ;
#1076 = CARTESIAN_POINT ( 'NONE',  ( -12.79717104351893830, 19.44942103659343147, 9.000000000000001776 ) ) ;
#1077 = CARTESIAN_POINT ( 'NONE',  ( 18.09999999999999787, 3.000000000000000000, 15.09999999999999964 ) ) ;
#1078 = FACE_OUTER_BOUND ( 'NONE', #767, .T. ) ;
#1079 = CARTESIAN_POINT ( 'NONE',  ( -5.476153396341268298, 31.00000000000000000, 8.544221921147601151 ) ) ;
#1080 = UNCERTAINTY_MEASURE_WITH_UNIT (LENGTH_MEASURE( 1.000000000000000082E-05 ), #605, 'distance_accuracy_value', 'NONE');
#1081 = CARTESIAN_POINT ( 'NONE',  ( 0.000000000000000000, 20.00000000000000000, 9.000000000000001776 ) ) ;
#1082 = EDGE_CURVE ( 'NONE', #857, #262, #950, .T. ) ;
#1083 = VECTOR ( 'NONE', #495, 1000.000000000000000 ) ;
#1084 = ADVANCED_FACE ( 'NONE', ( #1012 ), #482, .T. ) ;
#1085 = DIRECTION ( 'NONE',  ( 0.000000000000000000, 0.000000000000000000, -1.000000000000000000 ) ) ;
#1086 = CARTESIAN_POINT ( 'NONE',  ( -7.023904841185285797, 10.65535554030778798, 8.763070556502531971 ) ) ;
#1087 = CIRCLE ( 'NONE', #1103, 10.99999999999999289 ) ;
#1088 = PLANE ( 'NONE',  #815 ) ;
#1089 = ORIENTED_EDGE ( 'NONE', *, *, #687, .T. ) ;
#1090 = CARTESIAN_POINT ( 'NONE',  ( 22.00000000000000000, -1.592040838891559095E-15, 19.00000000000000000 ) ) ;
#1091 = CARTESIAN_POINT ( 'NONE',  ( -22.00000000000000000, 0.000000000000000000, 4.625000000000000888 ) ) ;
#1092 = DIRECTION ( 'NONE',  ( -0.000000000000000000, -0.000000000000000000, 1.000000000000000000 ) ) ;
#1093 = ORIENTED_EDGE ( 'NONE', *, *, #1094, .T. ) ;
#1094 = EDGE_CURVE ( 'NONE', #1074, #160, #132, .T. ) ;
#1095 = CARTESIAN_POINT ( 'NONE',  ( 16.00000000000000000, -1.734723475976807094E-15, 13.00000000000000000 ) ) ;
#1096 = CARTESIAN_POINT ( 'NONE',  ( -5.937171043518991276, 9.000000000000012434, 9.000000000000001776 ) ) ;
#1097 = EDGE_LOOP ( 'NONE', ( #248, #680, #570, #141 ) ) ;
#1098 = VECTOR ( 'NONE', #803, 999.9999999999998863 ) ;
#1099 = FACE_BOUND ( 'NONE', #996, .T. ) ;
#1100 = DIRECTION ( 'NONE',  ( 0.000000000000000000, -1.000000000000000000, 0.000000000000000000 ) ) ;
#1101 = VECTOR ( 'NONE', #1054, 1000.000000000000000 ) ;
#1102 = CARTESIAN_POINT ( 'NONE',  ( 0.000000000000000000, 20.00000000000000000, 3.000000000000002665 ) ) ;
#1103 = AXIS2_PLACEMENT_3D ( 'NONE', #1108, #916, #581 ) ;
#1104 = ADVANCED_BREP_SHAPE_REPRESENTATION ( '后LB', ( #43, #341 ), #697 ) ;
#1105 = EDGE_CURVE ( 'NONE', #254, #63, #52, .T. ) ;
#1106 = EDGE_LOOP ( 'NONE', ( #1146, #671, #601, #461, #957, #919 ) ) ;
#1107 = CARTESIAN_POINT ( 'NONE',  ( 9.160471492746820488, 13.81274123475274607, 9.000000000000001776 ) ) ;
#1108 = CARTESIAN_POINT ( 'NONE',  ( 0.000000000000000000, 20.00000000000000000, 9.000000000000001776 ) ) ;
#1109 = DIRECTION ( 'NONE',  ( 0.000000000000000000, 0.000000000000000000, -1.000000000000000000 ) ) ;
#1110 = EDGE_CURVE ( 'NONE', #712, #762, #35, .T. ) ;
#1111 = EDGE_CURVE ( 'NONE', #429, #585, #821, .T. ) ;
#1112 = VERTEX_POINT ( 'NONE', #660 ) ;
#1113 = FACE_OUTER_BOUND ( 'NONE', #812, .T. ) ;
#1114 = EDGE_CURVE ( 'NONE', #361, #560, #829, .T. ) ;
#1115 = CARTESIAN_POINT ( 'NONE',  ( -9.679999999999983729, 25.22471051829670330, 9.000000000000001776 ) ) ;
#1116 = VECTOR ( 'NONE', #659, 1000.000000000000000 ) ;
#1117 = EDGE_LOOP ( 'NONE', ( #122, #26, #389 ) ) ;
#1118 = DIRECTION ( 'NONE',  ( 1.000000000000000000, 0.000000000000000000, 0.000000000000000000 ) ) ;
#1119 = EDGE_CURVE ( 'NONE', #734, #433, #750, .T. ) ;
#1120 = ORIENTED_EDGE ( 'NONE', *, *, #973, .T. ) ;
#1121 = CARTESIAN_POINT ( 'NONE',  ( -18.09999999999999787, 3.000000000000000000, 19.00000000000000000 ) ) ;
#1122 = AXIS2_PLACEMENT_3D ( 'NONE', #1102, #133, #387 ) ;
#1123 = DIRECTION ( 'NONE',  ( -0.5017677737667064486, 0.8650023706379094124, 0.000000000000000000 ) ) ;
#1124 = AXIS2_PLACEMENT_3D ( 'NONE', #290, #727, #279 ) ;
#1125 = EDGE_CURVE ( 'NONE', #707, #604, #1087, .T. ) ;
#1126 = EDGE_LOOP ( 'NONE', ( #776, #413, #513, #431, #748, #629 ) ) ;
#1127 = EDGE_LOOP ( 'NONE', ( #238, #347, #240, #940, #953 ) ) ;
#1128 = DIRECTION ( 'NONE',  ( 0.000000000000000000, 1.000000000000000000, -0.000000000000000000 ) ) ;
#1129 = ORIENTED_EDGE ( 'NONE', *, *, #571, .F. ) ;
#1130 = CARTESIAN_POINT ( 'NONE',  ( -16.00000000000000000, 3.000000000000000000, 10.24999999999999822 ) ) ;
#1131 = LINE ( 'NONE', #1039, #764 ) ;
#1132 = ORIENTED_EDGE ( 'NONE', *, *, #412, .F. ) ;
#1133 = DIRECTION ( 'NONE',  ( 0.000000000000000000, 0.000000000000000000, -1.000000000000000000 ) ) ;
#1134 = EDGE_CURVE ( 'NONE', #1030, #1014, #317, .T. ) ;
#1135 = ORIENTED_EDGE ( 'NONE', *, *, #701, .T. ) ;
#1136 = DIRECTION ( 'NONE',  ( 0.000000000000000000, 0.000000000000000000, 1.000000000000000000 ) ) ;
#1137 = CARTESIAN_POINT ( 'NONE',  ( 12.79717104351894541, 20.55057896340658985, 3.000000000000001776 ) ) ;
#1138 = ORIENTED_EDGE ( 'NONE', *, *, #37, .F. ) ;
#1139 = ORIENTED_EDGE ( 'NONE', *, *, #995, .T. ) ;
#1140 = CARTESIAN_POINT ( 'NONE',  ( 6.106226635438347562E-15, 9.000000000000007105, 9.000000000000001776 ) ) ;
#1141 = ORIENTED_EDGE ( 'NONE', *, *, #934, .F. ) ;
#1142 = DIRECTION ( 'NONE',  ( -0.8359536829274718528, -0.5487999999999961798, 0.000000000000000000 ) ) ;
#1143 = LINE ( 'NONE', #1137, #124 ) ;
#1144 = VECTOR ( 'NONE', #899, 1000.000000000000000 ) ;
#1145 = AXIS2_PLACEMENT_3D ( 'NONE', #714, #631, #536 ) ;
#1146 = ORIENTED_EDGE ( 'NONE', *, *, #276, .T. ) ;
#1147 = CONICAL_SURFACE ( 'NONE', #283, 10.99999999999999289, 1.221730476396036602 ) ;
#1148 = ORIENTED_EDGE ( 'NONE', *, *, #95, .F. ) ;
#1149 = CARTESIAN_POINT ( 'NONE',  ( 16.00000000000000000, -1.734723475976807094E-15, 10.24999999999999822 ) ) ;
ENDSEC;
END-ISO-10303-21;
