ISO-10303-21;
HEADER;
FILE_DESCRIPTION (( 'STEP AP214' ),
    '1' );
FILE_NAME ('大葱.step',
    '2023-08-15T02:59:37',
    ( '' ),
    ( '' ),
    'SwSTEP 2.0',
    'SolidWorks 2022',
    '' );
FILE_SCHEMA (( 'AUTOMOTIVE_DESIGN' ));
ENDSEC;

DATA;
#1 = CARTESIAN_POINT ( 'NONE',  ( 1.102182119232617714E-15, -250.0000000000000000, 9.000000000000000000 ) ) ;
#2 = ADVANCED_FACE ( 'NONE', ( #61 ), #138, .T. ) ;
#3 = AXIS2_PLACEMENT_3D ( 'NONE', #111, #78, #53 ) ;
#4 = APPLICATION_PROTOCOL_DEFINITION ( 'draft international standard', 'automotive_design', 1998, #21 ) ;
#5 = APPLICATION_PROTOCOL_DEFINITION ( 'draft international standard', 'automotive_design', 1998, #110 ) ;
#6 = ADVANCED_FACE ( 'NONE', ( #124 ), #90, .T. ) ;
#7 = DIRECTION ( 'NONE',  ( -0.000000000000000000, -1.000000000000000000, -0.000000000000000000 ) ) ;
#8 = DIRECTION ( 'NONE',  ( 0.000000000000000000, 1.000000000000000000, 0.000000000000000000 ) ) ;
#9 = DIRECTION ( 'NONE',  ( 0.000000000000000000, 0.000000000000000000, -1.000000000000000000 ) ) ;
#10 = AXIS2_PLACEMENT_3D ( 'NONE', #126, #42, #102 ) ;
#11 = ORIENTED_EDGE ( 'NONE', *, *, #48, .T. ) ;
#12 = EDGE_LOOP ( 'NONE', ( #47, #11 ) ) ;
#13 = CARTESIAN_POINT ( 'NONE',  ( 1.102182119232617714E-15, 250.0000000000000000, 9.000000000000000000 ) ) ;
#14 = DIRECTION ( 'NONE',  ( 0.000000000000000000, 0.000000000000000000, 1.000000000000000000 ) ) ;
#15 = STYLED_ITEM ( 'NONE', ( #58 ), #31 ) ;
#16 = UNCERTAINTY_MEASURE_WITH_UNIT (LENGTH_MEASURE( 1.000000000000000082E-05 ), #80, 'distance_accuracy_value', 'NONE');
#17 = SURFACE_STYLE_USAGE ( .BOTH. , #27 ) ;
#18 = CARTESIAN_POINT ( 'NONE',  ( 1.102182119232617714E-15, 250.0000000000000000, 9.000000000000000000 ) ) ;
#19 = AXIS2_PLACEMENT_3D ( 'NONE', #51, #107, #9 ) ;
#20 = SHAPE_DEFINITION_REPRESENTATION ( #99, #31 ) ;
#21 = APPLICATION_CONTEXT ( 'automotive_design' ) ;
#22 = FILL_AREA_STYLE ('',( #120 ) ) ;
#23 =( GEOMETRIC_REPRESENTATION_CONTEXT ( 3 ) GLOBAL_UNCERTAINTY_ASSIGNED_CONTEXT ( ( #119 ) ) GLOBAL_UNIT_ASSIGNED_CONTEXT ( ( #52, #96, #29 ) ) REPRESENTATION_CONTEXT ( 'NONE', 'WORKASPACE' ) );
#24 = CARTESIAN_POINT ( 'NONE',  ( 0.000000000000000000, -250.0000000000000000, 0.000000000000000000 ) ) ;
#25 =( NAMED_UNIT ( * ) PLANE_ANGLE_UNIT ( ) SI_UNIT ( $, .RADIAN. ) );
#26 = LINE ( 'NONE', #117, #77 ) ;
#27 = SURFACE_SIDE_STYLE ('',( #94 ) ) ;
#28 = AXIS2_PLACEMENT_3D ( 'NONE', #87, #30, #74 ) ;
#29 =( NAMED_UNIT ( * ) SI_UNIT ( $, .STERADIAN. ) SOLID_ANGLE_UNIT ( ) );
#30 = DIRECTION ( 'NONE',  ( 0.000000000000000000, 1.000000000000000000, 0.000000000000000000 ) ) ;
#31 = ADVANCED_BREP_SHAPE_REPRESENTATION ( '大葱', ( #55, #54 ), #121 ) ;
#32 = ORIENTED_EDGE ( 'NONE', *, *, #56, .T. ) ;
#33 = PRESENTATION_LAYER_ASSIGNMENT (  '', '', ( #15 ) ) ;
#34 = PRESENTATION_LAYER_ASSIGNMENT (  '', '', ( #106 ) ) ;
#35 = DIRECTION ( 'NONE',  ( 0.000000000000000000, -0.000000000000000000, 1.000000000000000000 ) ) ;
#36 = CARTESIAN_POINT ( 'NONE',  ( 0.000000000000000000, 250.0000000000000000, -9.000000000000000000 ) ) ;
#37 = FACE_OUTER_BOUND ( 'NONE', #109, .T. ) ;
#38 = DIRECTION ( 'NONE',  ( 0.000000000000000000, 0.000000000000000000, 1.000000000000000000 ) ) ;
#39 = DIRECTION ( 'NONE',  ( 0.000000000000000000, -0.000000000000000000, 1.000000000000000000 ) ) ;
#40 = SURFACE_SIDE_STYLE ('',( #98 ) ) ;
#41 = ORIENTED_EDGE ( 'NONE', *, *, #112, .F. ) ;
#42 = DIRECTION ( 'NONE',  ( 0.000000000000000000, 1.000000000000000000, 0.000000000000000000 ) ) ;
#43 = FILL_AREA_STYLE_COLOUR ( '', #59 ) ;
#44 = ADVANCED_FACE ( 'NONE', ( #97 ), #137, .T. ) ;
#45 =( NAMED_UNIT ( * ) PLANE_ANGLE_UNIT ( ) SI_UNIT ( $, .RADIAN. ) );
#46 = AXIS2_PLACEMENT_3D ( 'NONE', #24, #135, #14 ) ;
#47 = ORIENTED_EDGE ( 'NONE', *, *, #83, .T. ) ;
#48 = EDGE_CURVE ( 'NONE', #123, #76, #140, .T. ) ;
#49 = CARTESIAN_POINT ( 'NONE',  ( 0.000000000000000000, 250.0000000000000000, 0.000000000000000000 ) ) ;
#50 = CIRCLE ( 'NONE', #46, 9.000000000000000000 ) ;
#51 = CARTESIAN_POINT ( 'NONE',  ( 0.000000000000000000, 250.0000000000000000, 0.000000000000000000 ) ) ;
#52 =( LENGTH_UNIT ( ) NAMED_UNIT ( * ) SI_UNIT ( .MILLI., .METRE. ) );
#53 = DIRECTION ( 'NONE',  ( 0.000000000000000000, 0.000000000000000000, 1.000000000000000000 ) ) ;
#54 = AXIS2_PLACEMENT_3D ( 'NONE', #82, #38, #127 ) ;
#55 = MANIFOLD_SOLID_BREP ( '凸台-拉伸1', #125 ) ;
#56 = EDGE_CURVE ( 'NONE', #64, #65, #50, .T. ) ;
#57 = AXIS2_PLACEMENT_3D ( 'NONE', #49, #8, #39 ) ;
#58 = PRESENTATION_STYLE_ASSIGNMENT (( #17 ) ) ;
#59 = COLOUR_RGB ( '',1.000000000000000000, 1.000000000000000000, 1.000000000000000000 ) ;
#60 = AXIS2_PLACEMENT_3D ( 'NONE', #132, #7, #75 ) ;
#61 = FACE_OUTER_BOUND ( 'NONE', #139, .T. ) ;
#62 = SURFACE_STYLE_USAGE ( .BOTH. , #40 ) ;
#63 = PRODUCT_RELATED_PRODUCT_CATEGORY ( 'part', '', ( #85 ) ) ;
#64 = VERTEX_POINT ( 'NONE', #71 ) ;
#65 = VERTEX_POINT ( 'NONE', #1 ) ;
#66 = ORIENTED_EDGE ( 'NONE', *, *, #112, .T. ) ;
#67 = EDGE_CURVE ( 'NONE', #65, #64, #72, .T. ) ;
#68 = DIRECTION ( 'NONE',  ( 0.000000000000000000, 1.000000000000000000, 0.000000000000000000 ) ) ;
#69 =( NAMED_UNIT ( * ) SI_UNIT ( $, .STERADIAN. ) SOLID_ANGLE_UNIT ( ) );
#70 = VECTOR ( 'NONE', #134, 1000.000000000000000 ) ;
#71 = CARTESIAN_POINT ( 'NONE',  ( 0.000000000000000000, -250.0000000000000000, -9.000000000000000000 ) ) ;
#72 = CIRCLE ( 'NONE', #10, 9.000000000000000000 ) ;
#73 = UNCERTAINTY_MEASURE_WITH_UNIT (LENGTH_MEASURE( 1.000000000000000082E-05 ), #105, 'distance_accuracy_value', 'NONE');
#74 = DIRECTION ( 'NONE',  ( 0.000000000000000000, 0.000000000000000000, 1.000000000000000000 ) ) ;
#75 = DIRECTION ( 'NONE',  ( 0.000000000000000000, 0.000000000000000000, -1.000000000000000000 ) ) ;
#76 = VERTEX_POINT ( 'NONE', #36 ) ;
#77 = VECTOR ( 'NONE', #93, 1000.000000000000000 ) ;
#78 = DIRECTION ( 'NONE',  ( 0.000000000000000000, 1.000000000000000000, 0.000000000000000000 ) ) ;
#79 = COLOUR_RGB ( '',1.000000000000000000, 1.000000000000000000, 1.000000000000000000 ) ;
#80 =( LENGTH_UNIT ( ) NAMED_UNIT ( * ) SI_UNIT ( .MILLI., .METRE. ) );
#81 = CARTESIAN_POINT ( 'NONE',  ( 0.000000000000000000, -250.0000000000000000, 0.000000000000000000 ) ) ;
#82 = CARTESIAN_POINT ( 'NONE',  ( 0.000000000000000000, 0.000000000000000000, 0.000000000000000000 ) ) ;
#83 = EDGE_CURVE ( 'NONE', #76, #123, #95, .T. ) ;
#84 =( NAMED_UNIT ( * ) SI_UNIT ( $, .STERADIAN. ) SOLID_ANGLE_UNIT ( ) );
#85 = PRODUCT ( '大葱', '大葱', '', ( #118 ) ) ;
#86 = PRODUCT_DEFINITION_CONTEXT ( 'detailed design', #110, 'design' ) ;
#87 = CARTESIAN_POINT ( 'NONE',  ( 0.000000000000000000, 250.0000000000000000, 0.000000000000000000 ) ) ;
#88 = ORIENTED_EDGE ( 'NONE', *, *, #67, .T. ) ;
#89 = ORIENTED_EDGE ( 'NONE', *, *, #108, .T. ) ;
#90 = CYLINDRICAL_SURFACE ( 'NONE', #60, 9.000000000000000000 ) ;
#91 = PRODUCT_DEFINITION_FORMATION_WITH_SPECIFIED_SOURCE ( '任何', '', #85, .NOT_KNOWN. ) ;
#92 = LINE ( 'NONE', #13, #70 ) ;
#93 = DIRECTION ( 'NONE',  ( -0.000000000000000000, -1.000000000000000000, -0.000000000000000000 ) ) ;
#94 = SURFACE_STYLE_FILL_AREA ( #114 ) ;
#95 = CIRCLE ( 'NONE', #3, 9.000000000000000000 ) ;
#96 =( NAMED_UNIT ( * ) PLANE_ANGLE_UNIT ( ) SI_UNIT ( $, .RADIAN. ) );
#97 = FACE_OUTER_BOUND ( 'NONE', #12, .T. ) ;
#98 = SURFACE_STYLE_FILL_AREA ( #22 ) ;
#99 = PRODUCT_DEFINITION_SHAPE ( 'NONE', 'NONE',  #116 ) ;
#100 = EDGE_LOOP ( 'NONE', ( #131, #66, #88, #122 ) ) ;
#101 = ORIENTED_EDGE ( 'NONE', *, *, #83, .F. ) ;
#102 = DIRECTION ( 'NONE',  ( 0.000000000000000000, 0.000000000000000000, 1.000000000000000000 ) ) ;
#103 = AXIS2_PLACEMENT_3D ( 'NONE', #81, #68, #35 ) ;
#104 = ADVANCED_FACE ( 'NONE', ( #37 ), #115, .F. ) ;
#105 =( LENGTH_UNIT ( ) NAMED_UNIT ( * ) SI_UNIT ( .MILLI., .METRE. ) );
#106 = STYLED_ITEM ( 'NONE', ( #136 ), #55 ) ;
#107 = DIRECTION ( 'NONE',  ( -0.000000000000000000, -1.000000000000000000, -0.000000000000000000 ) ) ;
#108 = EDGE_CURVE ( 'NONE', #76, #64, #26, .T. ) ;
#109 = EDGE_LOOP ( 'NONE', ( #130, #129 ) ) ;
#110 = APPLICATION_CONTEXT ( 'automotive_design' ) ;
#111 = CARTESIAN_POINT ( 'NONE',  ( 0.000000000000000000, 250.0000000000000000, 0.000000000000000000 ) ) ;
#112 = EDGE_CURVE ( 'NONE', #123, #65, #92, .T. ) ;
#113 = MECHANICAL_DESIGN_GEOMETRIC_PRESENTATION_REPRESENTATION (  '', ( #15 ), #133 ) ;
#114 = FILL_AREA_STYLE ('',( #43 ) ) ;
#115 = PLANE ( 'NONE',  #103 ) ;
#116 = PRODUCT_DEFINITION ( '未知', '', #91, #86 ) ;
#117 = CARTESIAN_POINT ( 'NONE',  ( 0.000000000000000000, 250.0000000000000000, -9.000000000000000000 ) ) ;
#118 = PRODUCT_CONTEXT ( 'NONE', #21, 'mechanical' ) ;
#119 = UNCERTAINTY_MEASURE_WITH_UNIT (LENGTH_MEASURE( 1.000000000000000082E-05 ), #52, 'distance_accuracy_value', 'NONE');
#120 = FILL_AREA_STYLE_COLOUR ( '', #79 ) ;
#121 =( GEOMETRIC_REPRESENTATION_CONTEXT ( 3 ) GLOBAL_UNCERTAINTY_ASSIGNED_CONTEXT ( ( #16 ) ) GLOBAL_UNIT_ASSIGNED_CONTEXT ( ( #80, #25, #69 ) ) REPRESENTATION_CONTEXT ( 'NONE', 'WORKASPACE' ) );
#122 = ORIENTED_EDGE ( 'NONE', *, *, #108, .F. ) ;
#123 = VERTEX_POINT ( 'NONE', #18 ) ;
#124 = FACE_OUTER_BOUND ( 'NONE', #100, .T. ) ;
#125 = CLOSED_SHELL ( 'NONE', ( #6, #2, #44, #104 ) ) ;
#126 = CARTESIAN_POINT ( 'NONE',  ( 0.000000000000000000, -250.0000000000000000, 0.000000000000000000 ) ) ;
#127 = DIRECTION ( 'NONE',  ( 1.000000000000000000, 0.000000000000000000, 0.000000000000000000 ) ) ;
#128 = MECHANICAL_DESIGN_GEOMETRIC_PRESENTATION_REPRESENTATION (  '', ( #106 ), #23 ) ;
#129 = ORIENTED_EDGE ( 'NONE', *, *, #67, .F. ) ;
#130 = ORIENTED_EDGE ( 'NONE', *, *, #56, .F. ) ;
#131 = ORIENTED_EDGE ( 'NONE', *, *, #48, .F. ) ;
#132 = CARTESIAN_POINT ( 'NONE',  ( 0.000000000000000000, 250.0000000000000000, 0.000000000000000000 ) ) ;
#133 =( GEOMETRIC_REPRESENTATION_CONTEXT ( 3 ) GLOBAL_UNCERTAINTY_ASSIGNED_CONTEXT ( ( #73 ) ) GLOBAL_UNIT_ASSIGNED_CONTEXT ( ( #105, #45, #84 ) ) REPRESENTATION_CONTEXT ( 'NONE', 'WORKASPACE' ) );
#134 = DIRECTION ( 'NONE',  ( -0.000000000000000000, -1.000000000000000000, -0.000000000000000000 ) ) ;
#135 = DIRECTION ( 'NONE',  ( 0.000000000000000000, 1.000000000000000000, 0.000000000000000000 ) ) ;
#136 = PRESENTATION_STYLE_ASSIGNMENT (( #62 ) ) ;
#137 = PLANE ( 'NONE',  #57 ) ;
#138 = CYLINDRICAL_SURFACE ( 'NONE', #19, 9.000000000000000000 ) ;
#139 = EDGE_LOOP ( 'NONE', ( #41, #101, #89, #32 ) ) ;
#140 = CIRCLE ( 'NONE', #28, 9.000000000000000000 ) ;
ENDSEC;
END-ISO-10303-21;
