ISO-10303-21;
HEADER;
FILE_DESCRIPTION (( 'STEP AP214' ),
    '1' );
FILE_NAME ('开沟.step',
    '2023-08-15T02:59:43',
    ( '' ),
    ( '' ),
    'SwSTEP 2.0',
    'SolidWorks 2022',
    '' );
FILE_SCHEMA (( 'AUTOMOTIVE_DESIGN' ));
ENDSEC;

DATA;
#1 = ORIENTED_EDGE ( 'NONE', *, *, #270, .F. ) ;
#2 = ORIENTED_EDGE ( 'NONE', *, *, #33, .T. ) ;
#3 = EDGE_CURVE ( 'NONE', #214, #101, #347, .T. ) ;
#4 = DIRECTION ( 'NONE',  ( 0.000000000000000000, 0.000000000000000000, 1.000000000000000000 ) ) ;
#5 = VECTOR ( 'NONE', #74, 1000.000000000000000 ) ;
#6 = ORIENTED_EDGE ( 'NONE', *, *, #232, .T. ) ;
#7 = DIRECTION ( 'NONE',  ( 0.000000000000000000, 0.000000000000000000, -1.000000000000000000 ) ) ;
#8 = ORIENTED_EDGE ( 'NONE', *, *, #341, .T. ) ;
#9 = LINE ( 'NONE', #167, #150 ) ;
#10 = ORIENTED_EDGE ( 'NONE', *, *, #33, .F. ) ;
#11 = LINE ( 'NONE', #198, #253 ) ;
#12 = FACE_OUTER_BOUND ( 'NONE', #32, .T. ) ;
#13 = ADVANCED_FACE ( 'NONE', ( #196 ), #43, .F. ) ;
#14 = DIRECTION ( 'NONE',  ( -0.7660444431189722403, 0.000000000000000000, -0.6427876096865462463 ) ) ;
#15 = AXIS2_PLACEMENT_3D ( 'NONE', #49, #76, #172 ) ;
#16 = DIRECTION ( 'NONE',  ( 0.000000000000000000, -1.000000000000000000, -0.000000000000000000 ) ) ;
#17 = ADVANCED_FACE ( 'NONE', ( #260 ), #131, .T. ) ;
#18 = CARTESIAN_POINT ( 'NONE',  ( 0.6724688175702676629, 0.000000000000000000, 0.5642683368014435041 ) ) ;
#19 = VECTOR ( 'NONE', #391, 1000.000000000000114 ) ;
#20 = CARTESIAN_POINT ( 'NONE',  ( 29.79383981485515775, 0.000000000000000000, 25.00000000000038725 ) ) ;
#21 = FACE_OUTER_BOUND ( 'NONE', #289, .T. ) ;
#22 = CARTESIAN_POINT ( 'NONE',  ( 29.79383981485515775, 20.00000000000000000, 25.00000000000038725 ) ) ;
#23 = LINE ( 'NONE', #363, #312 ) ;
#24 = AXIS2_PLACEMENT_3D ( 'NONE', #109, #295, #322 ) ;
#25 = DIRECTION ( 'NONE',  ( 1.000000000000000000, 0.000000000000000000, 0.000000000000000000 ) ) ;
#26 = ORIENTED_EDGE ( 'NONE', *, *, #57, .F. ) ;
#27 = EDGE_CURVE ( 'NONE', #311, #337, #256, .T. ) ;
#28 = PRODUCT_DEFINITION_CONTEXT ( 'detailed design', #345, 'design' ) ;
#29 = DIRECTION ( 'NONE',  ( 0.000000000000000000, 0.000000000000000000, -1.000000000000000000 ) ) ;
#30 = ORIENTED_EDGE ( 'NONE', *, *, #27, .T. ) ;
#31 = PLANE ( 'NONE',  #332 ) ;
#32 = EDGE_LOOP ( 'NONE', ( #362, #309, #257, #69 ) ) ;
#33 = EDGE_CURVE ( 'NONE', #306, #305, #376, .T. ) ;
#34 = EDGE_LOOP ( 'NONE', ( #127, #26, #153, #389 ) ) ;
#35 = PLANE ( 'NONE',  #81 ) ;
#36 = ORIENTED_EDGE ( 'NONE', *, *, #313, .F. ) ;
#37 = CARTESIAN_POINT ( 'NONE',  ( 27.86547698579556354, 0.000000000000000000, -27.29813332935656334 ) ) ;
#38 =( GEOMETRIC_REPRESENTATION_CONTEXT ( 3 ) GLOBAL_UNCERTAINTY_ASSIGNED_CONTEXT ( ( #205 ) ) GLOBAL_UNIT_ASSIGNED_CONTEXT ( ( #121, #398, #68 ) ) REPRESENTATION_CONTEXT ( 'NONE', 'WORKASPACE' ) );
#39 = ORIENTED_EDGE ( 'NONE', *, *, #279, .T. ) ;
#40 = CARTESIAN_POINT ( 'NONE',  ( -1.255894011489371520, 0.000000000000000000, 2.862401666158359781 ) ) ;
#41 = EDGE_CURVE ( 'NONE', #95, #204, #195, .T. ) ;
#42 = CARTESIAN_POINT ( 'NONE',  ( 29.79383981485515775, 0.000000000000000000, 25.00000000000038725 ) ) ;
#43 = CYLINDRICAL_SURFACE ( 'NONE', #79, 0.7366000000000000325 ) ;
#44 = DIRECTION ( 'NONE',  ( 1.000000000000000000, 0.000000000000000000, 0.000000000000000000 ) ) ;
#45 = FACE_OUTER_BOUND ( 'NONE', #188, .T. ) ;
#46 = DIRECTION ( 'NONE',  ( -0.000000000000000000, -1.000000000000000000, -0.000000000000000000 ) ) ;
#47 = EDGE_CURVE ( 'NONE', #103, #214, #385, .T. ) ;
#48 = MECHANICAL_DESIGN_GEOMETRIC_PRESENTATION_REPRESENTATION (  '', ( #360 ), #339 ) ;
#49 = CARTESIAN_POINT ( 'NONE',  ( 29.79383981485515775, 20.00000000000000000, 25.00000000000038725 ) ) ;
#50 = PLANE ( 'NONE',  #191 ) ;
#51 = CARTESIAN_POINT ( 'NONE',  ( -1.255894011489371520, 20.00000000000000000, 2.862401666158359781 ) ) ;
#52 = CARTESIAN_POINT ( 'NONE',  ( 1.145946170865377978, 20.00000000000000000, 8.565197162635485029E-15 ) ) ;
#53 = DIRECTION ( 'NONE',  ( -0.000000000000000000, -1.000000000000000000, -0.000000000000000000 ) ) ;
#54 = AXIS2_PLACEMENT_3D ( 'NONE', #70, #104, #164 ) ;
#55 = VECTOR ( 'NONE', #274, 1000.000000000000227 ) ;
#56 = CARTESIAN_POINT ( 'NONE',  ( -1.255894011489327333, 20.00000000000000000, -2.862401666158379321 ) ) ;
#57 = EDGE_CURVE ( 'NONE', #95, #125, #227, .T. ) ;
#58 = DIRECTION ( 'NONE',  ( 0.7660444431189820103, 0.000000000000000000, -0.6427876096865345890 ) ) ;
#59 = EDGE_LOOP ( 'NONE', ( #285, #186, #281, #238 ) ) ;
#60 = DIRECTION ( 'NONE',  ( 1.000000000000000000, 0.000000000000000000, 0.000000000000000000 ) ) ;
#61 = ORIENTED_EDGE ( 'NONE', *, *, #27, .F. ) ;
#62 = EDGE_CURVE ( 'NONE', #275, #212, #314, .T. ) ;
#63 = FILL_AREA_STYLE ('',( #65 ) ) ;
#64 = ORIENTED_EDGE ( 'NONE', *, *, #369, .T. ) ;
#65 = FILL_AREA_STYLE_COLOUR ( '', #286 ) ;
#66 = CIRCLE ( 'NONE', #240, 3.736600000000000144 ) ;
#67 = ORIENTED_EDGE ( 'NONE', *, *, #173, .T. ) ;
#68 =( NAMED_UNIT ( * ) SI_UNIT ( $, .STERADIAN. ) SOLID_ANGLE_UNIT ( ) );
#69 = ORIENTED_EDGE ( 'NONE', *, *, #299, .F. ) ;
#70 = CARTESIAN_POINT ( 'NONE',  ( 1.145946170865377978, 0.000000000000000000, 8.565197162635485029E-15 ) ) ;
#71 = CIRCLE ( 'NONE', #143, 0.7366000000000000325 ) ;
#72 = VERTEX_POINT ( 'NONE', #37 ) ;
#73 = PRODUCT ( '开沟', '开沟', '', ( #211 ) ) ;
#74 = DIRECTION ( 'NONE',  ( -0.000000000000000000, -1.000000000000000000, -0.000000000000000000 ) ) ;
#75 = CARTESIAN_POINT ( 'NONE',  ( 0.000000000000000000, 0.000000000000000000, 0.000000000000000000 ) ) ;
#76 = DIRECTION ( 'NONE',  ( 0.7660444431189726844, -0.000000000000000000, 0.6427876096865458022 ) ) ;
#77 = CARTESIAN_POINT ( 'NONE',  ( 0.6724688175702676629, 20.00000000000000000, 0.5642683368014435041 ) ) ;
#78 = PLANE ( 'NONE',  #24 ) ;
#79 = AXIS2_PLACEMENT_3D ( 'NONE', #278, #134, #7 ) ;
#80 = LINE ( 'NONE', #261, #140 ) ;
#81 = AXIS2_PLACEMENT_3D ( 'NONE', #220, #276, #217 ) ;
#82 = PLANE ( 'NONE',  #187 ) ;
#83 = CARTESIAN_POINT ( 'NONE',  ( 27.86547698579556354, 20.00000000000000000, -27.29813332935656334 ) ) ;
#84 = DIRECTION ( 'NONE',  ( -0.7660444431189820103, 0.000000000000000000, 0.6427876096865345890 ) ) ;
#85 = PRODUCT_RELATED_PRODUCT_CATEGORY ( 'part', '', ( #73 ) ) ;
#86 = CARTESIAN_POINT ( 'NONE',  ( 27.86547698579556354, 20.00000000000000000, -27.29813332935656334 ) ) ;
#87 = EDGE_LOOP ( 'NONE', ( #135, #36, #190, #379 ) ) ;
#88 = CARTESIAN_POINT ( 'NONE',  ( 0.000000000000000000, 20.00000000000000000, 0.000000000000000000 ) ) ;
#89 = CARTESIAN_POINT ( 'NONE',  ( 27.86547698579551735, 0.000000000000000000, 27.29813332935730585 ) ) ;
#90 = ORIENTED_EDGE ( 'NONE', *, *, #119, .F. ) ;
#91 = VECTOR ( 'NONE', #237, 1000.000000000000000 ) ;
#92 = CARTESIAN_POINT ( 'NONE',  ( 1.145946170865377978, 20.00000000000000000, 8.565197162635485029E-15 ) ) ;
#93 = EDGE_LOOP ( 'NONE', ( #39, #10, #247, #343 ) ) ;
#94 = PRODUCT_DEFINITION ( '未知', '', #366, #28 ) ;
#95 = VERTEX_POINT ( 'NONE', #137 ) ;
#96 = DIRECTION ( 'NONE',  ( 0.6427876096865345890, -0.000000000000000000, 0.7660444431189820103 ) ) ;
#97 = ORIENTED_EDGE ( 'NONE', *, *, #47, .F. ) ;
#98 = AXIS2_PLACEMENT_3D ( 'NONE', #297, #206, #393 ) ;
#99 = ORIENTED_EDGE ( 'NONE', *, *, #106, .F. ) ;
#100 = CARTESIAN_POINT ( 'NONE',  ( -1.255894011489327333, 20.00000000000000000, -2.862401666158379321 ) ) ;
#101 = VERTEX_POINT ( 'NONE', #42 ) ;
#102 = CARTESIAN_POINT ( 'NONE',  ( 29.79383981485515775, 20.00000000000000000, 25.00000000000038725 ) ) ;
#103 = VERTEX_POINT ( 'NONE', #317 ) ;
#104 = DIRECTION ( 'NONE',  ( -0.000000000000000000, 1.000000000000000000, -0.000000000000000000 ) ) ;
#105 = CARTESIAN_POINT ( 'NONE',  ( 1.145946170865377978, 0.000000000000000000, 8.565197162635485029E-15 ) ) ;
#106 = EDGE_CURVE ( 'NONE', #337, #212, #9, .T. ) ;
#107 = CARTESIAN_POINT ( 'NONE',  ( 0.000000000000000000, 20.00000000000000000, 0.000000000000000000 ) ) ;
#108 = VECTOR ( 'NONE', #378, 1000.000000000000000 ) ;
#109 = CARTESIAN_POINT ( 'NONE',  ( 1.145946170865377978, 20.00000000000000000, 8.565197162635485029E-15 ) ) ;
#110 = AXIS2_PLACEMENT_3D ( 'NONE', #149, #235, #25 ) ;
#111 = CARTESIAN_POINT ( 'NONE',  ( -1.928362829059603767, 20.00000000000000000, -2.298133329356945698 ) ) ;
#112 = LINE ( 'NONE', #22, #323 ) ;
#113 = ADVANCED_FACE ( 'NONE', ( #12 ), #78, .F. ) ;
#114 = LINE ( 'NONE', #83, #365 ) ;
#115 = AXIS2_PLACEMENT_3D ( 'NONE', #348, #221, #346 ) ;
#116 = CARTESIAN_POINT ( 'NONE',  ( -1.255894011489371520, 20.00000000000000000, 2.862401666158359781 ) ) ;
#117 = EDGE_LOOP ( 'NONE', ( #97, #90, #64, #165 ) ) ;
#118 = VECTOR ( 'NONE', #264, 1000.000000000000114 ) ;
#119 = EDGE_CURVE ( 'NONE', #204, #103, #383, .T. ) ;
#120 = DIRECTION ( 'NONE',  ( 0.000000000000000000, 0.000000000000000000, -1.000000000000000000 ) ) ;
#121 =( LENGTH_UNIT ( ) NAMED_UNIT ( * ) SI_UNIT ( .MILLI., .METRE. ) );
#122 = PRESENTATION_STYLE_ASSIGNMENT (( #129 ) ) ;
#123 = ORIENTED_EDGE ( 'NONE', *, *, #259, .T. ) ;
#124 = LINE ( 'NONE', #248, #162 ) ;
#125 = VERTEX_POINT ( 'NONE', #197 ) ;
#126 =( NAMED_UNIT ( * ) SI_UNIT ( $, .STERADIAN. ) SOLID_ANGLE_UNIT ( ) );
#127 = ORIENTED_EDGE ( 'NONE', *, *, #177, .F. ) ;
#128 = VECTOR ( 'NONE', #361, 1000.000000000000000 ) ;
#129 = SURFACE_STYLE_USAGE ( .BOTH. , #307 ) ;
#130 = EDGE_CURVE ( 'NONE', #305, #193, #66, .T. ) ;
#131 = PLANE ( 'NONE',  #115 ) ;
#132 = PRESENTATION_LAYER_ASSIGNMENT (  '', '', ( #360 ) ) ;
#133 = EDGE_LOOP ( 'NONE', ( #61, #160, #215, #218 ) ) ;
#134 = DIRECTION ( 'NONE',  ( -0.000000000000000000, -1.000000000000000000, -0.000000000000000000 ) ) ;
#135 = ORIENTED_EDGE ( 'NONE', *, *, #396, .F. ) ;
#136 =( LENGTH_UNIT ( ) NAMED_UNIT ( * ) SI_UNIT ( .MILLI., .METRE. ) );
#137 = CARTESIAN_POINT ( 'NONE',  ( 29.79383981485515775, 20.00000000000000000, -24.99999999999961631 ) ) ;
#138 = EDGE_CURVE ( 'NONE', #311, #214, #11, .T. ) ;
#139 = CARTESIAN_POINT ( 'NONE',  ( -1.255894011489371520, 0.000000000000000000, 2.862401666158359781 ) ) ;
#140 = VECTOR ( 'NONE', #228, 1000.000000000000000 ) ;
#141 = CARTESIAN_POINT ( 'NONE',  ( 0.000000000000000000, 0.000000000000000000, 0.000000000000000000 ) ) ;
#142 = CARTESIAN_POINT ( 'NONE',  ( 27.86547698579551735, 20.00000000000000000, 27.29813332935730585 ) ) ;
#143 = AXIS2_PLACEMENT_3D ( 'NONE', #92, #310, #29 ) ;
#144 = MANIFOLD_SOLID_BREP ( '基体-法兰1', #292 ) ;
#145 = LINE ( 'NONE', #268, #386 ) ;
#146 =( GEOMETRIC_REPRESENTATION_CONTEXT ( 3 ) GLOBAL_UNCERTAINTY_ASSIGNED_CONTEXT ( ( #331 ) ) GLOBAL_UNIT_ASSIGNED_CONTEXT ( ( #189, #280, #126 ) ) REPRESENTATION_CONTEXT ( 'NONE', 'WORKASPACE' ) );
#147 = DIRECTION ( 'NONE',  ( -0.6427876096865456912, 0.000000000000000000, 0.7660444431189725734 ) ) ;
#148 = DIRECTION ( 'NONE',  ( 0.6427876096865347000, -0.000000000000000000, 0.7660444431189820103 ) ) ;
#149 = CARTESIAN_POINT ( 'NONE',  ( 1.145946170865377978, 20.00000000000000000, 8.565197162635485029E-15 ) ) ;
#150 = VECTOR ( 'NONE', #223, 1000.000000000000000 ) ;
#151 = CARTESIAN_POINT ( 'NONE',  ( 27.86547698579551735, 20.00000000000000000, 27.29813332935730585 ) ) ;
#152 = VERTEX_POINT ( 'NONE', #382 ) ;
#153 = ORIENTED_EDGE ( 'NONE', *, *, #41, .T. ) ;
#154 = CARTESIAN_POINT ( 'NONE',  ( 0.6724688175702676629, 20.00000000000000000, 0.5642683368014435041 ) ) ;
#155 = ADVANCED_FACE ( 'NONE', ( #45 ), #170, .T. ) ;
#156 = ORIENTED_EDGE ( 'NONE', *, *, #3, .T. ) ;
#157 = DIRECTION ( 'NONE',  ( 0.6427876096865323685, 0.000000000000000000, 0.7660444431189838976 ) ) ;
#158 = EDGE_LOOP ( 'NONE', ( #277, #304, #1, #2 ) ) ;
#159 = DIRECTION ( 'NONE',  ( 0.000000000000000000, 0.000000000000000000, 1.000000000000000000 ) ) ;
#160 = ORIENTED_EDGE ( 'NONE', *, *, #369, .F. ) ;
#161 = VECTOR ( 'NONE', #288, 1000.000000000000114 ) ;
#162 = VECTOR ( 'NONE', #157, 1000.000000000000000 ) ;
#163 = EDGE_LOOP ( 'NONE', ( #370, #182, #397, #6 ) ) ;
#164 = DIRECTION ( 'NONE',  ( 0.000000000000000000, 0.000000000000000000, -1.000000000000000000 ) ) ;
#165 = ORIENTED_EDGE ( 'NONE', *, *, #138, .T. ) ;
#166 = DIRECTION ( 'NONE',  ( 0.6427876096865464683, 0.000000000000000000, -0.7660444431189720182 ) ) ;
#167 = CARTESIAN_POINT ( 'NONE',  ( -1.928362829059639072, 20.00000000000000000, 2.298133329356916388 ) ) ;
#168 = FILL_AREA_STYLE ('',( #229 ) ) ;
#169 = DIRECTION ( 'NONE',  ( -1.000000000000000000, 0.000000000000000000, -0.000000000000000000 ) ) ;
#170 = PLANE ( 'NONE',  #392 ) ;
#171 = VECTOR ( 'NONE', #194, 999.9999999999998863 ) ;
#172 = DIRECTION ( 'NONE',  ( 0.6427876096865456912, 0.000000000000000000, -0.7660444431189725734 ) ) ;
#173 = EDGE_CURVE ( 'NONE', #193, #283, #80, .T. ) ;
#174 = PLANE ( 'NONE',  #98 ) ;
#175 = LINE ( 'NONE', #86, #128 ) ;
#176 = DIRECTION ( 'NONE',  ( -0.000000000000000000, -1.000000000000000000, -0.000000000000000000 ) ) ;
#177 = EDGE_CURVE ( 'NONE', #125, #103, #225, .T. ) ;
#178 = DIRECTION ( 'NONE',  ( -0.7660444431189721293, 0.000000000000000000, -0.6427876096865463573 ) ) ;
#179 = DIRECTION ( 'NONE',  ( -0.000000000000000000, 1.000000000000000000, 0.000000000000000000 ) ) ;
#180 = PRESENTATION_LAYER_ASSIGNMENT (  '', '', ( #298 ) ) ;
#181 = PLANE ( 'NONE',  #296 ) ;
#182 = ORIENTED_EDGE ( 'NONE', *, *, #138, .F. ) ;
#183 = ADVANCED_FACE ( 'NONE', ( #384 ), #82, .T. ) ;
#184 = UNCERTAINTY_MEASURE_WITH_UNIT (LENGTH_MEASURE( 1.000000000000000082E-05 ), #136, 'distance_accuracy_value', 'NONE');
#185 = FACE_OUTER_BOUND ( 'NONE', #93, .T. ) ;
#186 = ORIENTED_EDGE ( 'NONE', *, *, #47, .T. ) ;
#187 = AXIS2_PLACEMENT_3D ( 'NONE', #107, #293, #14 ) ;
#188 = EDGE_LOOP ( 'NONE', ( #252, #209, #156, #123 ) ) ;
#189 =( LENGTH_UNIT ( ) NAMED_UNIT ( * ) SI_UNIT ( .MILLI., .METRE. ) );
#190 = ORIENTED_EDGE ( 'NONE', *, *, #299, .T. ) ;
#191 = AXIS2_PLACEMENT_3D ( 'NONE', #88, #148, #271 ) ;
#192 = CARTESIAN_POINT ( 'NONE',  ( 29.79383981485515775, 20.00000000000000000, -24.99999999999961631 ) ) ;
#193 = VERTEX_POINT ( 'NONE', #139 ) ;
#194 = DIRECTION ( 'NONE',  ( -0.7660444431189820103, 0.000000000000000000, 0.6427876096865345890 ) ) ;
#195 = LINE ( 'NONE', #342, #230 ) ;
#196 = FACE_OUTER_BOUND ( 'NONE', #117, .T. ) ;
#197 = CARTESIAN_POINT ( 'NONE',  ( 29.79383981485515775, 0.000000000000000000, -24.99999999999961631 ) ) ;
#198 = CARTESIAN_POINT ( 'NONE',  ( 0.6724688175702676629, 20.00000000000000000, 0.5642683368014435041 ) ) ;
#199 = VECTOR ( 'NONE', #291, 1000.000000000000000 ) ;
#200 = FACE_OUTER_BOUND ( 'NONE', #207, .T. ) ;
#201 = CARTESIAN_POINT ( 'NONE',  ( 29.79383981485515775, 20.00000000000000000, 25.00000000000038725 ) ) ;
#202 = ADVANCED_FACE ( 'NONE', ( #258 ), #324, .T. ) ;
#203 = FACE_OUTER_BOUND ( 'NONE', #158, .T. ) ;
#204 = VERTEX_POINT ( 'NONE', #380 ) ;
#205 = UNCERTAINTY_MEASURE_WITH_UNIT (LENGTH_MEASURE( 1.000000000000000082E-05 ), #121, 'distance_accuracy_value', 'NONE');
#206 = DIRECTION ( 'NONE',  ( 0.000000000000000000, -1.000000000000000000, 0.000000000000000000 ) ) ;
#207 = EDGE_LOOP ( 'NONE', ( #377, #8, #364, #250 ) ) ;
#208 = FACE_OUTER_BOUND ( 'NONE', #358, .T. ) ;
#209 = ORIENTED_EDGE ( 'NONE', *, *, #226, .T. ) ;
#210 = CIRCLE ( 'NONE', #110, 3.736600000000000144 ) ;
#211 = PRODUCT_CONTEXT ( 'NONE', #356, 'mechanical' ) ;
#212 = VERTEX_POINT ( 'NONE', #142 ) ;
#213 = MECHANICAL_DESIGN_GEOMETRIC_PRESENTATION_REPRESENTATION (  '', ( #298 ), #146 ) ;
#214 = VERTEX_POINT ( 'NONE', #18 ) ;
#215 = ORIENTED_EDGE ( 'NONE', *, *, #336, .F. ) ;
#216 = EDGE_CURVE ( 'NONE', #152, #306, #266, .T. ) ;
#217 = DIRECTION ( 'NONE',  ( -0.6427876096865323685, 0.000000000000000000, -0.7660444431189838976 ) ) ;
#218 = ORIENTED_EDGE ( 'NONE', *, *, #270, .T. ) ;
#219 = VECTOR ( 'NONE', #166, 1000.000000000000114 ) ;
#220 = CARTESIAN_POINT ( 'NONE',  ( 27.86547698579556354, 20.00000000000000000, -27.29813332935656334 ) ) ;
#221 = DIRECTION ( 'NONE',  ( 0.000000000000000000, -1.000000000000000000, 0.000000000000000000 ) ) ;
#222 = ORIENTED_EDGE ( 'NONE', *, *, #259, .F. ) ;
#223 = DIRECTION ( 'NONE',  ( 0.7660444431189721293, 0.000000000000000000, 0.6427876096865463573 ) ) ;
#224 = ORIENTED_EDGE ( 'NONE', *, *, #294, .T. ) ;
#225 = LINE ( 'NONE', #141, #118 ) ;
#226 = EDGE_CURVE ( 'NONE', #193, #214, #316, .T. ) ;
#227 = LINE ( 'NONE', #192, #108 ) ;
#228 = DIRECTION ( 'NONE',  ( 0.7660444431189721293, 0.000000000000000000, 0.6427876096865463573 ) ) ;
#229 = FILL_AREA_STYLE_COLOUR ( '', #273 ) ;
#230 = VECTOR ( 'NONE', #381, 1000.000000000000114 ) ;
#231 = VECTOR ( 'NONE', #147, 1000.000000000000114 ) ;
#232 = EDGE_CURVE ( 'NONE', #275, #101, #112, .T. ) ;
#233 = DIRECTION ( 'NONE',  ( 0.000000000000000000, 1.000000000000000000, 0.000000000000000000 ) ) ;
#234 = CARTESIAN_POINT ( 'NONE',  ( -1.928362829059639072, 20.00000000000000000, 2.298133329356916388 ) ) ;
#235 = DIRECTION ( 'NONE',  ( 0.000000000000000000, 1.000000000000000000, 0.000000000000000000 ) ) ;
#236 = ADVANCED_FACE ( 'NONE', ( #200 ), #174, .T. ) ;
#237 = DIRECTION ( 'NONE',  ( -0.000000000000000000, -1.000000000000000000, -0.000000000000000000 ) ) ;
#238 = ORIENTED_EDGE ( 'NONE', *, *, #130, .F. ) ;
#239 = DIRECTION ( 'NONE',  ( -0.000000000000000000, -1.000000000000000000, -0.000000000000000000 ) ) ;
#240 = AXIS2_PLACEMENT_3D ( 'NONE', #321, #233, #44 ) ;
#241 = CARTESIAN_POINT ( 'NONE',  ( -1.255894011489327333, 20.00000000000000000, -2.862401666158379321 ) ) ;
#242 = CARTESIAN_POINT ( 'NONE',  ( -1.928362829059603767, 20.00000000000000000, -2.298133329356945698 ) ) ;
#243 = ADVANCED_FACE ( 'NONE', ( #21 ), #326, .F. ) ;
#244 = VECTOR ( 'NONE', #372, 1000.000000000000227 ) ;
#245 = AXIS2_PLACEMENT_3D ( 'NONE', #56, #179, #303 ) ;
#246 = CARTESIAN_POINT ( 'NONE',  ( 0.000000000000000000, 0.000000000000000000, 0.000000000000000000 ) ) ;
#247 = ORIENTED_EDGE ( 'NONE', *, *, #216, .F. ) ;
#248 = CARTESIAN_POINT ( 'NONE',  ( 27.86547698579556354, 0.000000000000000000, -27.29813332935656334 ) ) ;
#249 = PRODUCT_DEFINITION_SHAPE ( 'NONE', 'NONE',  #94 ) ;
#250 = ORIENTED_EDGE ( 'NONE', *, *, #396, .T. ) ;
#251 = FACE_OUTER_BOUND ( 'NONE', #133, .T. ) ;
#252 = ORIENTED_EDGE ( 'NONE', *, *, #173, .F. ) ;
#253 = VECTOR ( 'NONE', #46, 1000.000000000000000 ) ;
#254 = DIRECTION ( 'NONE',  ( -0.6427876096865464683, 0.000000000000000000, 0.7660444431189720182 ) ) ;
#255 = ORIENTED_EDGE ( 'NONE', *, *, #263, .F. ) ;
#256 = LINE ( 'NONE', #77, #351 ) ;
#257 = ORIENTED_EDGE ( 'NONE', *, *, #41, .F. ) ;
#258 = FACE_OUTER_BOUND ( 'NONE', #374, .T. ) ;
#259 = EDGE_CURVE ( 'NONE', #101, #283, #325, .T. ) ;
#260 = FACE_OUTER_BOUND ( 'NONE', #59, .T. ) ;
#261 = CARTESIAN_POINT ( 'NONE',  ( -1.928362829059639072, 0.000000000000000000, 2.298133329356916388 ) ) ;
#262 = CARTESIAN_POINT ( 'NONE',  ( 0.6724688175702766557, 20.00000000000000000, -0.5642683368014336232 ) ) ;
#263 = EDGE_CURVE ( 'NONE', #311, #275, #355, .T. ) ;
#264 = DIRECTION ( 'NONE',  ( -0.7660444431189818992, 0.000000000000000000, 0.6427876096865345890 ) ) ;
#265 = AXIS2_PLACEMENT_3D ( 'NONE', #52, #176, #120 ) ;
#266 = LINE ( 'NONE', #111, #171 ) ;
#267 = AXIS2_PLACEMENT_3D ( 'NONE', #246, #159, #60 ) ;
#268 = CARTESIAN_POINT ( 'NONE',  ( -1.928362829059603767, 0.000000000000000000, -2.298133329356945698 ) ) ;
#269 = LINE ( 'NONE', #51, #91 ) ;
#270 = EDGE_CURVE ( 'NONE', #306, #337, #210, .T. ) ;
#271 = DIRECTION ( 'NONE',  ( 0.7660444431189818992, 0.000000000000000000, -0.6427876096865345890 ) ) ;
#272 = DIRECTION ( 'NONE',  ( -0.6427876096865345890, 0.000000000000000000, -0.7660444431189818992 ) ) ;
#273 = COLOUR_RGB ( '',0.6470588235294117974, 0.6196078431372549211, 0.5882352941176470784 ) ;
#274 = DIRECTION ( 'NONE',  ( 0.7660444431189722403, 0.000000000000000000, 0.6427876096865462463 ) ) ;
#275 = VERTEX_POINT ( 'NONE', #201 ) ;
#276 = DIRECTION ( 'NONE',  ( 0.7660444431189838976, 0.000000000000000000, -0.6427876096865323685 ) ) ;
#277 = ORIENTED_EDGE ( 'NONE', *, *, #130, .T. ) ;
#278 = CARTESIAN_POINT ( 'NONE',  ( 1.145946170865377978, 20.00000000000000000, 8.565197162635485029E-15 ) ) ;
#279 = EDGE_CURVE ( 'NONE', #72, #305, #145, .T. ) ;
#280 =( NAMED_UNIT ( * ) PLANE_ANGLE_UNIT ( ) SI_UNIT ( $, .RADIAN. ) );
#281 = ORIENTED_EDGE ( 'NONE', *, *, #226, .F. ) ;
#282 = SURFACE_STYLE_FILL_AREA ( #63 ) ;
#283 = VERTEX_POINT ( 'NONE', #89 ) ;
#284 = VECTOR ( 'NONE', #394, 1000.000000000000000 ) ;
#285 = ORIENTED_EDGE ( 'NONE', *, *, #341, .F. ) ;
#286 = COLOUR_RGB ( '',0.6470588235294117974, 0.6196078431372549211, 0.5882352941176470784 ) ;
#287 = EDGE_CURVE ( 'NONE', #212, #283, #387, .T. ) ;
#288 = DIRECTION ( 'NONE',  ( -0.6427876096865456912, 0.000000000000000000, 0.7660444431189725734 ) ) ;
#289 = EDGE_LOOP ( 'NONE', ( #67, #330, #99, #224 ) ) ;
#290 =( NAMED_UNIT ( * ) SI_UNIT ( $, .STERADIAN. ) SOLID_ANGLE_UNIT ( ) );
#291 = DIRECTION ( 'NONE',  ( -0.000000000000000000, -1.000000000000000000, -0.000000000000000000 ) ) ;
#292 = CLOSED_SHELL ( 'NONE', ( #359, #354, #17, #236, #243, #202, #183, #13, #329, #390, #373, #320, #113, #155 ) ) ;
#293 = DIRECTION ( 'NONE',  ( 0.6427876096865462463, 0.000000000000000000, -0.7660444431189722403 ) ) ;
#294 = EDGE_CURVE ( 'NONE', #337, #193, #269, .T. ) ;
#295 = DIRECTION ( 'NONE',  ( 0.000000000000000000, -1.000000000000000000, -0.000000000000000000 ) ) ;
#296 = AXIS2_PLACEMENT_3D ( 'NONE', #242, #96, #58 ) ;
#297 = CARTESIAN_POINT ( 'NONE',  ( -1.255894011489371520, 0.000000000000000000, 2.862401666158359781 ) ) ;
#298 = STYLED_ITEM ( 'NONE', ( #122 ), #308 ) ;
#299 = EDGE_CURVE ( 'NONE', #152, #95, #175, .T. ) ;
#300 = CARTESIAN_POINT ( 'NONE',  ( -1.255894011489327333, 20.00000000000000000, -2.862401666158379321 ) ) ;
#301 = FACE_OUTER_BOUND ( 'NONE', #34, .T. ) ;
#302 = LINE ( 'NONE', #241, #19 ) ;
#303 = DIRECTION ( 'NONE',  ( 0.000000000000000000, 0.000000000000000000, 1.000000000000000000 ) ) ;
#304 = ORIENTED_EDGE ( 'NONE', *, *, #294, .F. ) ;
#305 = VERTEX_POINT ( 'NONE', #328 ) ;
#306 = VERTEX_POINT ( 'NONE', #300 ) ;
#307 = SURFACE_SIDE_STYLE ('',( #282 ) ) ;
#308 = ADVANCED_BREP_SHAPE_REPRESENTATION ( '开沟', ( #144, #267 ), #38 ) ;
#309 = ORIENTED_EDGE ( 'NONE', *, *, #336, .T. ) ;
#310 = DIRECTION ( 'NONE',  ( -0.000000000000000000, 1.000000000000000000, -0.000000000000000000 ) ) ;
#311 = VERTEX_POINT ( 'NONE', #388 ) ;
#312 = VECTOR ( 'NONE', #272, 1000.000000000000114 ) ;
#313 = EDGE_CURVE ( 'NONE', #152, #72, #114, .T. ) ;
#314 = LINE ( 'NONE', #102, #161 ) ;
#315 = ORIENTED_EDGE ( 'NONE', *, *, #62, .F. ) ;
#316 = LINE ( 'NONE', #40, #219 ) ;
#317 = CARTESIAN_POINT ( 'NONE',  ( 0.6724688175702766557, 0.000000000000000000, -0.5642683368014336232 ) ) ;
#318 = ORIENTED_EDGE ( 'NONE', *, *, #62, .T. ) ;
#319 = SURFACE_SIDE_STYLE ('',( #349 ) ) ;
#320 = ADVANCED_FACE ( 'NONE', ( #203 ), #327, .T. ) ;
#321 = CARTESIAN_POINT ( 'NONE',  ( 1.145946170865377978, 0.000000000000000000, 8.565197162635485029E-15 ) ) ;
#322 = DIRECTION ( 'NONE',  ( -1.000000000000000000, 0.000000000000000000, -0.000000000000000000 ) ) ;
#323 = VECTOR ( 'NONE', #239, 1000.000000000000000 ) ;
#324 = PLANE ( 'NONE',  #15 ) ;
#325 = LINE ( 'NONE', #20, #231 ) ;
#326 = PLANE ( 'NONE',  #375 ) ;
#327 = CYLINDRICAL_SURFACE ( 'NONE', #265, 3.736600000000000144 ) ;
#328 = CARTESIAN_POINT ( 'NONE',  ( -1.255894011489327333, 0.000000000000000000, -2.862401666158379321 ) ) ;
#329 = ADVANCED_FACE ( 'NONE', ( #301 ), #50, .T. ) ;
#330 = ORIENTED_EDGE ( 'NONE', *, *, #287, .F. ) ;
#331 = UNCERTAINTY_MEASURE_WITH_UNIT (LENGTH_MEASURE( 1.000000000000000082E-05 ), #189, 'distance_accuracy_value', 'NONE');
#332 = AXIS2_PLACEMENT_3D ( 'NONE', #154, #367, #4 ) ;
#333 = PLANE ( 'NONE',  #245 ) ;
#334 = SHAPE_DEFINITION_REPRESENTATION ( #249, #308 ) ;
#335 = ORIENTED_EDGE ( 'NONE', *, *, #287, .T. ) ;
#336 = EDGE_CURVE ( 'NONE', #306, #204, #302, .T. ) ;
#337 = VERTEX_POINT ( 'NONE', #116 ) ;
#338 = ORIENTED_EDGE ( 'NONE', *, *, #106, .T. ) ;
#339 =( GEOMETRIC_REPRESENTATION_CONTEXT ( 3 ) GLOBAL_UNCERTAINTY_ASSIGNED_CONTEXT ( ( #184 ) ) GLOBAL_UNIT_ASSIGNED_CONTEXT ( ( #136, #352, #290 ) ) REPRESENTATION_CONTEXT ( 'NONE', 'WORKASPACE' ) );
#340 = APPLICATION_PROTOCOL_DEFINITION ( 'draft international standard', 'automotive_design', 1998, #356 ) ;
#341 = EDGE_CURVE ( 'NONE', #103, #305, #23, .T. ) ;
#342 = CARTESIAN_POINT ( 'NONE',  ( 0.000000000000000000, 20.00000000000000000, 0.000000000000000000 ) ) ;
#343 = ORIENTED_EDGE ( 'NONE', *, *, #313, .T. ) ;
#344 = SURFACE_STYLE_USAGE ( .BOTH. , #319 ) ;
#345 = APPLICATION_CONTEXT ( 'automotive_design' ) ;
#346 = DIRECTION ( 'NONE',  ( 0.000000000000000000, -0.000000000000000000, -1.000000000000000000 ) ) ;
#347 = LINE ( 'NONE', #75, #244 ) ;
#348 = CARTESIAN_POINT ( 'NONE',  ( 0.6724688175702766557, 0.000000000000000000, -0.5642683368014336232 ) ) ;
#349 = SURFACE_STYLE_FILL_AREA ( #168 ) ;
#350 = PRESENTATION_STYLE_ASSIGNMENT (( #344 ) ) ;
#351 = VECTOR ( 'NONE', #254, 1000.000000000000114 ) ;
#352 =( NAMED_UNIT ( * ) PLANE_ANGLE_UNIT ( ) SI_UNIT ( $, .RADIAN. ) );
#353 = CARTESIAN_POINT ( 'NONE',  ( 0.000000000000000000, 20.00000000000000000, 0.000000000000000000 ) ) ;
#354 = ADVANCED_FACE ( 'NONE', ( #208 ), #333, .T. ) ;
#355 = LINE ( 'NONE', #353, #55 ) ;
#356 = APPLICATION_CONTEXT ( 'automotive_design' ) ;
#357 = DIRECTION ( 'NONE',  ( 0.6427876096865463573, 0.000000000000000000, -0.7660444431189721293 ) ) ;
#358 = EDGE_LOOP ( 'NONE', ( #255, #30, #338, #315 ) ) ;
#359 = ADVANCED_FACE ( 'NONE', ( #251 ), #31, .T. ) ;
#360 = STYLED_ITEM ( 'NONE', ( #350 ), #144 ) ;
#361 = DIRECTION ( 'NONE',  ( 0.6427876096865323685, 0.000000000000000000, 0.7660444431189838976 ) ) ;
#362 = ORIENTED_EDGE ( 'NONE', *, *, #216, .T. ) ;
#363 = CARTESIAN_POINT ( 'NONE',  ( 0.6724688175702766557, 0.000000000000000000, -0.5642683368014336232 ) ) ;
#364 = ORIENTED_EDGE ( 'NONE', *, *, #279, .F. ) ;
#365 = VECTOR ( 'NONE', #53, 1000.000000000000000 ) ;
#366 = PRODUCT_DEFINITION_FORMATION_WITH_SPECIFIED_SOURCE ( '任何', '', #73, .NOT_KNOWN. ) ;
#367 = DIRECTION ( 'NONE',  ( -0.000000000000000000, 1.000000000000000000, 0.000000000000000000 ) ) ;
#368 = ORIENTED_EDGE ( 'NONE', *, *, #232, .F. ) ;
#369 = EDGE_CURVE ( 'NONE', #204, #311, #71, .T. ) ;
#370 = ORIENTED_EDGE ( 'NONE', *, *, #3, .F. ) ;
#371 = FACE_OUTER_BOUND ( 'NONE', #87, .T. ) ;
#372 = DIRECTION ( 'NONE',  ( 0.7660444431189722403, 0.000000000000000000, 0.6427876096865462463 ) ) ;
#373 = ADVANCED_FACE ( 'NONE', ( #185 ), #181, .F. ) ;
#374 = EDGE_LOOP ( 'NONE', ( #222, #368, #318, #335 ) ) ;
#375 = AXIS2_PLACEMENT_3D ( 'NONE', #234, #357, #178 ) ;
#376 = LINE ( 'NONE', #100, #5 ) ;
#377 = ORIENTED_EDGE ( 'NONE', *, *, #177, .T. ) ;
#378 = DIRECTION ( 'NONE',  ( -0.000000000000000000, -1.000000000000000000, -0.000000000000000000 ) ) ;
#379 = ORIENTED_EDGE ( 'NONE', *, *, #57, .T. ) ;
#380 = CARTESIAN_POINT ( 'NONE',  ( 0.6724688175702766557, 20.00000000000000000, -0.5642683368014336232 ) ) ;
#381 = DIRECTION ( 'NONE',  ( -0.7660444431189818992, 0.000000000000000000, 0.6427876096865345890 ) ) ;
#382 = CARTESIAN_POINT ( 'NONE',  ( 27.86547698579556354, 20.00000000000000000, -27.29813332935656334 ) ) ;
#383 = LINE ( 'NONE', #262, #199 ) ;
#384 = FACE_OUTER_BOUND ( 'NONE', #163, .T. ) ;
#385 = CIRCLE ( 'NONE', #54, 0.7366000000000000325 ) ;
#386 = VECTOR ( 'NONE', #84, 999.9999999999998863 ) ;
#387 = LINE ( 'NONE', #151, #284 ) ;
#388 = CARTESIAN_POINT ( 'NONE',  ( 0.6724688175702676629, 20.00000000000000000, 0.5642683368014435041 ) ) ;
#389 = ORIENTED_EDGE ( 'NONE', *, *, #119, .T. ) ;
#390 = ADVANCED_FACE ( 'NONE', ( #371 ), #35, .T. ) ;
#391 = DIRECTION ( 'NONE',  ( 0.6427876096865345890, 0.000000000000000000, 0.7660444431189818992 ) ) ;
#392 = AXIS2_PLACEMENT_3D ( 'NONE', #105, #16, #169 ) ;
#393 = DIRECTION ( 'NONE',  ( 0.000000000000000000, -0.000000000000000000, -1.000000000000000000 ) ) ;
#394 = DIRECTION ( 'NONE',  ( -0.000000000000000000, -1.000000000000000000, -0.000000000000000000 ) ) ;
#395 = APPLICATION_PROTOCOL_DEFINITION ( 'draft international standard', 'automotive_design', 1998, #345 ) ;
#396 = EDGE_CURVE ( 'NONE', #72, #125, #124, .T. ) ;
#397 = ORIENTED_EDGE ( 'NONE', *, *, #263, .T. ) ;
#398 =( NAMED_UNIT ( * ) PLANE_ANGLE_UNIT ( ) SI_UNIT ( $, .RADIAN. ) );
ENDSEC;
END-ISO-10303-21;
