ISO-10303-21;
HEADER;
FILE_DESCRIPTION (( 'STEP AP214' ),
    '1' );
FILE_NAME ('µ¯»É×ù.step',
    '2023-08-15T02:59:50',
    ( '' ),
    ( '' ),
    'SwSTEP 2.0',
    'SolidWorks 2022',
    '' );
FILE_SCHEMA (( 'AUTOMOTIVE_DESIGN' ));
ENDSEC;

DATA;
#1 = CARTESIAN_POINT ( 'NONE',  ( -5.400000000000000355, -7.500000000000000000, 0.000000000000000000 ) ) ;
#2 =( GEOMETRIC_REPRESENTATION_CONTEXT ( 3 ) GLOBAL_UNCERTAINTY_ASSIGNED_CONTEXT ( ( #480 ) ) GLOBAL_UNIT_ASSIGNED_CONTEXT ( ( #712, #554, #189 ) ) REPRESENTATION_CONTEXT ( 'NONE', 'WORKASPACE' ) );
#3 = DIRECTION ( 'NONE',  ( -1.000000000000000000, 0.000000000000000000, 0.000000000000000000 ) ) ;
#4 = CIRCLE ( 'NONE', #284, 2.099999999999997868 ) ;
#5 = CARTESIAN_POINT ( 'NONE',  ( 5.375000000000000888, -7.500000000000000000, 0.000000000000000000 ) ) ;
#6 = EDGE_LOOP ( 'NONE', ( #770, #270, #194, #164 ) ) ;
#7 = VECTOR ( 'NONE', #746, 1000.000000000000000 ) ;
#8 = CARTESIAN_POINT ( 'NONE',  ( -7.499999999999998224, -7.500000000000000000, 0.000000000000000000 ) ) ;
#9 = DIRECTION ( 'NONE',  ( 0.000000000000000000, 0.000000000000000000, 1.000000000000000000 ) ) ;
#10 = CARTESIAN_POINT ( 'NONE',  ( 9.499999999999980460, -9.500000000000014211, -0.000000000000000000 ) ) ;
#11 = VERTEX_POINT ( 'NONE', #610 ) ;
#12 = EDGE_LOOP ( 'NONE', ( #539, #809, #593, #215 ) ) ;
#13 = DIRECTION ( 'NONE',  ( -1.000000000000000000, 0.000000000000000000, 0.000000000000000000 ) ) ;
#14 = DIRECTION ( 'NONE',  ( -0.000000000000000000, -0.000000000000000000, -1.000000000000000000 ) ) ;
#15 = PLANE ( 'NONE',  #796 ) ;
#16 = CARTESIAN_POINT ( 'NONE',  ( -7.499999999999998224, 7.500000000000000000, 0.000000000000000000 ) ) ;
#17 = ORIENTED_EDGE ( 'NONE', *, *, #219, .F. ) ;
#18 = EDGE_CURVE ( 'NONE', #543, #339, #709, .T. ) ;
#19 = DIRECTION ( 'NONE',  ( 0.000000000000000000, 0.000000000000000000, -1.000000000000000000 ) ) ;
#20 = EDGE_CURVE ( 'NONE', #31, #71, #783, .T. ) ;
#21 = CARTESIAN_POINT ( 'NONE',  ( 0.000000000000000000, 0.000000000000000000, 0.000000000000000000 ) ) ;
#22 = CARTESIAN_POINT ( 'NONE',  ( 5.375000000000000888, -7.500000000000000000, 0.000000000000000000 ) ) ;
#23 = LINE ( 'NONE', #459, #923 ) ;
#24 = AXIS2_PLACEMENT_3D ( 'NONE', #216, #588, #524 ) ;
#25 = ORIENTED_EDGE ( 'NONE', *, *, #623, .T. ) ;
#26 = AXIS2_PLACEMENT_3D ( 'NONE', #761, #781, #176 ) ;
#27 = CARTESIAN_POINT ( 'NONE',  ( 9.000000000000001776, 10.00000000000000178, 4.000000000000000000 ) ) ;
#28 = CARTESIAN_POINT ( 'NONE',  ( 0.000000000000000000, 0.000000000000000000, 14.00000000000000000 ) ) ;
#29 = LINE ( 'NONE', #322, #922 ) ;
#30 = CARTESIAN_POINT ( 'NONE',  ( 5.400000000000002132, -7.500000000000000000, 0.02500000000000071609 ) ) ;
#31 = VERTEX_POINT ( 'NONE', #402 ) ;
#32 =( LENGTH_UNIT ( ) NAMED_UNIT ( * ) SI_UNIT ( .MILLI., .METRE. ) );
#33 = DIRECTION ( 'NONE',  ( 0.000000000000000000, 0.000000000000000000, -1.000000000000000000 ) ) ;
#34 = CARTESIAN_POINT ( 'NONE',  ( -7.499999999999998224, 7.500000000000000000, 0.02500000000000071609 ) ) ;
#35 = EDGE_CURVE ( 'NONE', #112, #940, #55, .T. ) ;
#36 = EDGE_LOOP ( 'NONE', ( #66, #894, #661, #752, #667, #698, #420, #934 ) ) ;
#37 = DIRECTION ( 'NONE',  ( 0.000000000000000000, 0.000000000000000000, 1.000000000000000000 ) ) ;
#38 = LINE ( 'NONE', #410, #629 ) ;
#39 = ORIENTED_EDGE ( 'NONE', *, *, #195, .F. ) ;
#40 = AXIS2_PLACEMENT_3D ( 'NONE', #238, #530, #407 ) ;
#41 = AXIS2_PLACEMENT_3D ( 'NONE', #627, #828, #162 ) ;
#42 = AXIS2_PLACEMENT_3D ( 'NONE', #287, #325, #331 ) ;
#43 = APPLICATION_PROTOCOL_DEFINITION ( 'draft international standard', 'automotive_design', 1998, #862 ) ;
#44 = DIRECTION ( 'NONE',  ( 0.000000000000000000, 0.000000000000000000, -1.000000000000000000 ) ) ;
#45 = ORIENTED_EDGE ( 'NONE', *, *, #468, .T. ) ;
#46 = EDGE_CURVE ( 'NONE', #239, #377, #23, .T. ) ;
#47 = SURFACE_STYLE_USAGE ( .BOTH. , #493 ) ;
#48 = CARTESIAN_POINT ( 'NONE',  ( -8.999999999999994671, -9.999999999999998224, 4.000000000000000000 ) ) ;
#49 = VERTEX_POINT ( 'NONE', #244 ) ;
#50 = EDGE_CURVE ( 'NONE', #330, #690, #853, .T. ) ;
#51 = EDGE_CURVE ( 'NONE', #289, #847, #38, .T. ) ;
#52 = CARTESIAN_POINT ( 'NONE',  ( -3.750000000000000000, 0.000000000000000000, 13.50000000000000000 ) ) ;
#53 = ORIENTED_EDGE ( 'NONE', *, *, #574, .F. ) ;
#54 = CIRCLE ( 'NONE', #474, 3.750000000000000000 ) ;
#55 = CIRCLE ( 'NONE', #721, 2.125000000000000000 ) ;
#56 = CIRCLE ( 'NONE', #41, 2.099999999999997868 ) ;
#57 = AXIS2_PLACEMENT_3D ( 'NONE', #397, #380, #756 ) ;
#58 = DIRECTION ( 'NONE',  ( 0.000000000000000000, -1.000000000000000000, 0.000000000000000000 ) ) ;
#59 = ORIENTED_EDGE ( 'NONE', *, *, #278, .T. ) ;
#60 = CARTESIAN_POINT ( 'NONE',  ( -9.999999999999998224, -8.999999999999991118, 0.000000000000000000 ) ) ;
#61 = CARTESIAN_POINT ( 'NONE',  ( -8.999999999999994671, -9.999999999999998224, 0.000000000000000000 ) ) ;
#62 = ORIENTED_EDGE ( 'NONE', *, *, #912, .F. ) ;
#63 = ADVANCED_FACE ( 'NONE', ( #633 ), #338, .T. ) ;
#64 = FACE_OUTER_BOUND ( 'NONE', #345, .T. ) ;
#65 = LINE ( 'NONE', #208, #226 ) ;
#66 = ORIENTED_EDGE ( 'NONE', *, *, #285, .F. ) ;
#67 = AXIS2_PLACEMENT_3D ( 'NONE', #597, #742, #511 ) ;
#68 = CARTESIAN_POINT ( 'NONE',  ( -7.499999999999998224, -7.500000000000000000, 0.000000000000000000 ) ) ;
#69 = CIRCLE ( 'NONE', #615, 2.125000000000000000 ) ;
#70 = CARTESIAN_POINT ( 'NONE',  ( 7.500000000000001776, 7.500000000000000000, 0.000000000000000000 ) ) ;
#71 = VERTEX_POINT ( 'NONE', #703 ) ;
#72 = ORIENTED_EDGE ( 'NONE', *, *, #398, .F. ) ;
#73 = EDGE_CURVE ( 'NONE', #943, #760, #877, .T. ) ;
#74 = CARTESIAN_POINT ( 'NONE',  ( 3.250000000000000000, 0.000000000000000000, 14.00000000000000000 ) ) ;
#75 = DIRECTION ( 'NONE',  ( 0.000000000000000000, 0.000000000000000000, -1.000000000000000000 ) ) ;
#76 = ORIENTED_EDGE ( 'NONE', *, *, #234, .F. ) ;
#77 = ORIENTED_EDGE ( 'NONE', *, *, #693, .F. ) ;
#78 = EDGE_CURVE ( 'NONE', #871, #587, #697, .T. ) ;
#79 = DIRECTION ( 'NONE',  ( -0.7071067811865474617, 0.000000000000000000, -0.7071067811865474617 ) ) ;
#80 = CYLINDRICAL_SURFACE ( 'NONE', #127, 2.099999999999997868 ) ;
#81 = EDGE_LOOP ( 'NONE', ( #522, #640, #126, #328 ) ) ;
#82 = DIRECTION ( 'NONE',  ( -1.000000000000000000, 0.000000000000000000, 0.000000000000000000 ) ) ;
#83 = CARTESIAN_POINT ( 'NONE',  ( -7.499999999999998224, -7.500000000000000000, 0.000000000000000000 ) ) ;
#84 = AXIS2_PLACEMENT_3D ( 'NONE', #259, #846, #472 ) ;
#85 = DIRECTION ( 'NONE',  ( 0.7071067811865474617, 8.659560562354932858E-17, -0.7071067811865474617 ) ) ;
#86 = ORIENTED_EDGE ( 'NONE', *, *, #960, .T. ) ;
#87 = AXIS2_PLACEMENT_3D ( 'NONE', #170, #898, #620 ) ;
#88 = ORIENTED_EDGE ( 'NONE', *, *, #151, .F. ) ;
#89 = FACE_BOUND ( 'NONE', #513, .T. ) ;
#90 = LINE ( 'NONE', #10, #865 ) ;
#91 = CARTESIAN_POINT ( 'NONE',  ( 9.625000000000001776, -7.500000000000000000, 0.000000000000000000 ) ) ;
#92 = EDGE_CURVE ( 'NONE', #330, #714, #503, .T. ) ;
#93 = ORIENTED_EDGE ( 'NONE', *, *, #944, .T. ) ;
#94 =( NAMED_UNIT ( * ) SI_UNIT ( $, .STERADIAN. ) SOLID_ANGLE_UNIT ( ) );
#95 = CARTESIAN_POINT ( 'NONE',  ( -5.400000000000000355, 7.500000000000000000, 4.000000000000000000 ) ) ;
#96 = CARTESIAN_POINT ( 'NONE',  ( 9.625000000000001776, 7.500000000000000000, 0.000000000000000000 ) ) ;
#97 = CARTESIAN_POINT ( 'NONE',  ( -9.624999999999998224, 7.500000000000000000, 0.000000000000000000 ) ) ;
#98 = ORIENTED_EDGE ( 'NONE', *, *, #569, .T. ) ;
#99 = CARTESIAN_POINT ( 'NONE',  ( 8.999999999999994671, -9.999999999999998224, 4.000000000000000000 ) ) ;
#100 = CARTESIAN_POINT ( 'NONE',  ( -9.999999999999998224, 10.00000000000000178, 4.000000000000000000 ) ) ;
#101 = VECTOR ( 'NONE', #730, 1000.000000000000000 ) ;
#102 = ORIENTED_EDGE ( 'NONE', *, *, #773, .F. ) ;
#103 = AXIS2_PLACEMENT_3D ( 'NONE', #603, #258, #236 ) ;
#104 = EDGE_CURVE ( 'NONE', #918, #473, #56, .T. ) ;
#105 = DIRECTION ( 'NONE',  ( -0.7071067811865475727, -0.7071067811865475727, -0.000000000000000000 ) ) ;
#106 = FACE_OUTER_BOUND ( 'NONE', #36, .T. ) ;
#107 = APPLICATION_PROTOCOL_DEFINITION ( 'draft international standard', 'automotive_design', 1998, #210 ) ;
#108 = DIRECTION ( 'NONE',  ( -1.000000000000000000, 0.000000000000000000, 0.000000000000000000 ) ) ;
#109 = VERTEX_POINT ( 'NONE', #30 ) ;
#110 = DIRECTION ( 'NONE',  ( -0.7071067811865474617, -0.7071067811865474617, -0.000000000000000000 ) ) ;
#111 = DIRECTION ( 'NONE',  ( -0.000000000000000000, -0.000000000000000000, -1.000000000000000000 ) ) ;
#112 = VERTEX_POINT ( 'NONE', #91 ) ;
#113 = CARTESIAN_POINT ( 'NONE',  ( 0.000000000000000000, 0.000000000000000000, 14.00000000000000000 ) ) ;
#114 = ORIENTED_EDGE ( 'NONE', *, *, #875, .F. ) ;
#115 = CIRCLE ( 'NONE', #594, 0.5000000000000004441 ) ;
#116 = AXIS2_PLACEMENT_3D ( 'NONE', #288, #520, #818 ) ;
#117 = CARTESIAN_POINT ( 'NONE',  ( -8.999999999999994671, -9.999999999999998224, 4.000000000000000000 ) ) ;
#118 = ORIENTED_EDGE ( 'NONE', *, *, #585, .F. ) ;
#119 = EDGE_CURVE ( 'NONE', #495, #657, #754, .T. ) ;
#120 = ADVANCED_FACE ( 'NONE', ( #389 ), #684, .F. ) ;
#121 = PRODUCT_DEFINITION_SHAPE ( 'NONE', 'NONE',  #313 ) ;
#122 = SHAPE_DEFINITION_REPRESENTATION ( #121, #440 ) ;
#123 = PLANE ( 'NONE',  #578 ) ;
#124 = VERTEX_POINT ( 'NONE', #904 ) ;
#125 = CARTESIAN_POINT ( 'NONE',  ( -7.499999999999998224, 7.500000000000000000, 4.000000000000000000 ) ) ;
#126 = ORIENTED_EDGE ( 'NONE', *, *, #285, .T. ) ;
#127 = AXIS2_PLACEMENT_3D ( 'NONE', #734, #743, #3 ) ;
#128 = ADVANCED_FACE ( 'NONE', ( #168 ), #465, .F. ) ;
#129 = VECTOR ( 'NONE', #683, 1000.000000000000000 ) ;
#130 = DIRECTION ( 'NONE',  ( 0.000000000000000000, 0.000000000000000000, -1.000000000000000000 ) ) ;
#131 = ORIENTED_EDGE ( 'NONE', *, *, #20, .T. ) ;
#132 = DIRECTION ( 'NONE',  ( 0.000000000000000000, 0.000000000000000000, -1.000000000000000000 ) ) ;
#133 = LINE ( 'NONE', #731, #196 ) ;
#134 = VERTEX_POINT ( 'NONE', #52 ) ;
#135 = PRESENTATION_STYLE_ASSIGNMENT (( #584 ) ) ;
#136 = CARTESIAN_POINT ( 'NONE',  ( -9.999999999999998224, 9.000000000000001776, 4.000000000000000000 ) ) ;
#137 = EDGE_LOOP ( 'NONE', ( #359, #467, #417, #819 ) ) ;
#138 = VERTEX_POINT ( 'NONE', #792 ) ;
#139 = CIRCLE ( 'NONE', #414, 2.099999999999999645 ) ;
#140 = DIRECTION ( 'NONE',  ( 0.7071067811865597852, 8.659560562355083235E-17, -0.7071067811865352493 ) ) ;
#141 = AXIS2_PLACEMENT_3D ( 'NONE', #915, #536, #253 ) ;
#142 = STYLED_ITEM ( 'NONE', ( #845 ), #440 ) ;
#143 = DIRECTION ( 'NONE',  ( -0.000000000000000000, -0.000000000000000000, -1.000000000000000000 ) ) ;
#144 = ORIENTED_EDGE ( 'NONE', *, *, #35, .T. ) ;
#145 = ADVANCED_FACE ( 'NONE', ( #422 ), #486, .F. ) ;
#146 = EDGE_CURVE ( 'NONE', #760, #943, #924, .T. ) ;
#147 = DIRECTION ( 'NONE',  ( 0.7071067811865597852, 8.659560562355083235E-17, -0.7071067811865352493 ) ) ;
#148 = CARTESIAN_POINT ( 'NONE',  ( 5.400000000000003908, -7.500000000000000000, 4.000000000000000000 ) ) ;
#149 = CARTESIAN_POINT ( 'NONE',  ( 10.00000000000000178, -8.999999999999994671, 4.000000000000000000 ) ) ;
#150 = EDGE_LOOP ( 'NONE', ( #835, #131, #765, #77 ) ) ;
#151 = EDGE_CURVE ( 'NONE', #169, #583, #798, .T. ) ;
#152 = CARTESIAN_POINT ( 'NONE',  ( -9.599999999999997868, 7.500000000000000000, 0.02500000000000071609 ) ) ;
#153 = CARTESIAN_POINT ( 'NONE',  ( 9.500000000000001776, 9.500000000000001776, 0.000000000000000000 ) ) ;
#154 = LINE ( 'NONE', #833, #771 ) ;
#155 = ORIENTED_EDGE ( 'NONE', *, *, #51, .F. ) ;
#156 = ORIENTED_EDGE ( 'NONE', *, *, #566, .F. ) ;
#157 = CYLINDRICAL_SURFACE ( 'NONE', #26, 3.750000000000000000 ) ;
#158 = EDGE_CURVE ( 'NONE', #800, #214, #4, .T. ) ;
#159 = DIRECTION ( 'NONE',  ( -1.000000000000000000, 0.000000000000000000, 0.000000000000000000 ) ) ;
#160 = AXIS2_PLACEMENT_3D ( 'NONE', #419, #190, #642 ) ;
#161 = DIRECTION ( 'NONE',  ( -0.7071067811865463515, 0.7071067811865487940, -0.000000000000000000 ) ) ;
#162 = DIRECTION ( 'NONE',  ( -1.000000000000000000, 0.000000000000000000, 0.000000000000000000 ) ) ;
#163 = CIRCLE ( 'NONE', #951, 0.5000000000000000000 ) ;
#164 = ORIENTED_EDGE ( 'NONE', *, *, #151, .T. ) ;
#165 = DIRECTION ( 'NONE',  ( -1.000000000000000000, 0.000000000000000000, 0.000000000000000000 ) ) ;
#166 = DIRECTION ( 'NONE',  ( -0.000000000000000000, -0.000000000000000000, -1.000000000000000000 ) ) ;
#167 = LINE ( 'NONE', #598, #673 ) ;
#168 = FACE_OUTER_BOUND ( 'NONE', #502, .T. ) ;
#169 = VERTEX_POINT ( 'NONE', #346 ) ;
#170 = CARTESIAN_POINT ( 'NONE',  ( -7.499999999999998224, -7.500000000000000000, 4.000000000000000000 ) ) ;
#171 = CARTESIAN_POINT ( 'NONE',  ( 7.500000000000001776, 7.500000000000000000, 0.000000000000000000 ) ) ;
#172 = DIRECTION ( 'NONE',  ( -0.000000000000000000, -0.000000000000000000, -1.000000000000000000 ) ) ;
#173 = DIRECTION ( 'NONE',  ( -1.000000000000000000, 0.000000000000000000, 0.000000000000000000 ) ) ;
#174 = EDGE_LOOP ( 'NONE', ( #921, #39, #717, #548 ) ) ;
#175 = EDGE_CURVE ( 'NONE', #662, #11, #564, .T. ) ;
#176 = DIRECTION ( 'NONE',  ( -1.000000000000000000, 0.000000000000000000, 0.000000000000000000 ) ) ;
#177 = DIRECTION ( 'NONE',  ( -1.000000000000000000, 0.000000000000000000, -0.000000000000000000 ) ) ;
#178 = DIRECTION ( 'NONE',  ( -0.000000000000000000, -0.000000000000000000, -1.000000000000000000 ) ) ;
#179 = VECTOR ( 'NONE', #140, 1000.000000000000000 ) ;
#180 = ORIENTED_EDGE ( 'NONE', *, *, #872, .F. ) ;
#181 = VECTOR ( 'NONE', #367, 1000.000000000000000 ) ;
#182 = AXIS2_PLACEMENT_3D ( 'NONE', #28, #9, #457 ) ;
#183 = CARTESIAN_POINT ( 'NONE',  ( 7.500000000000001776, -7.500000000000000000, 0.000000000000000000 ) ) ;
#184 = DIRECTION ( 'NONE',  ( 0.000000000000000000, -1.000000000000000000, 0.000000000000000000 ) ) ;
#185 = DIRECTION ( 'NONE',  ( -0.7071067811865597852, 0.000000000000000000, -0.7071067811865352493 ) ) ;
#186 = ORIENTED_EDGE ( 'NONE', *, *, #219, .T. ) ;
#187 = LINE ( 'NONE', #558, #286 ) ;
#188 = ADVANCED_FACE ( 'NONE', ( #723 ), #494, .F. ) ;
#189 =( NAMED_UNIT ( * ) SI_UNIT ( $, .STERADIAN. ) SOLID_ANGLE_UNIT ( ) );
#190 = DIRECTION ( 'NONE',  ( 0.000000000000000000, 0.000000000000000000, -1.000000000000000000 ) ) ;
#191 = ORIENTED_EDGE ( 'NONE', *, *, #18, .F. ) ;
#192 = CARTESIAN_POINT ( 'NONE',  ( -8.999999999999998224, 10.00000000000000178, 0.000000000000000000 ) ) ;
#193 = ADVANCED_FACE ( 'NONE', ( #942 ), #123, .F. ) ;
#194 = ORIENTED_EDGE ( 'NONE', *, *, #601, .T. ) ;
#195 = EDGE_CURVE ( 'NONE', #657, #495, #829, .T. ) ;
#196 = VECTOR ( 'NONE', #852, 1000.000000000000114 ) ;
#197 = CIRCLE ( 'NONE', #613, 2.099999999999997868 ) ;
#198 = DIRECTION ( 'NONE',  ( 0.000000000000000000, 0.000000000000000000, -1.000000000000000000 ) ) ;
#199 = ORIENTED_EDGE ( 'NONE', *, *, #708, .T. ) ;
#200 = LINE ( 'NONE', #276, #710 ) ;
#201 = EDGE_LOOP ( 'NONE', ( #858, #220 ) ) ;
#202 = DIRECTION ( 'NONE',  ( -1.000000000000000000, 0.000000000000000000, 0.000000000000000000 ) ) ;
#203 = ORIENTED_EDGE ( 'NONE', *, *, #421, .F. ) ;
#204 = CONICAL_SURFACE ( 'NONE', #596, 2.125000000000000000, 0.7853981633974482790 ) ;
#205 = AXIS2_PLACEMENT_3D ( 'NONE', #16, #316, #478 ) ;
#206 = CIRCLE ( 'NONE', #275, 2.099999999999999645 ) ;
#207 = CYLINDRICAL_SURFACE ( 'NONE', #274, 2.099999999999997868 ) ;
#208 = CARTESIAN_POINT ( 'NONE',  ( 3.750000000000000000, 4.592425496802573972E-16, 14.00000000000000000 ) ) ;
#209 = ORIENTED_EDGE ( 'NONE', *, *, #290, .T. ) ;
#210 = APPLICATION_CONTEXT ( 'automotive_design' ) ;
#211 = SURFACE_STYLE_FILL_AREA ( #881 ) ;
#212 = EDGE_CURVE ( 'NONE', #510, #479, #200, .T. ) ;
#213 = CARTESIAN_POINT ( 'NONE',  ( -5.400000000000000355, 7.500000000000000000, 0.000000000000000000 ) ) ;
#214 = VERTEX_POINT ( 'NONE', #498 ) ;
#215 = ORIENTED_EDGE ( 'NONE', *, *, #893, .F. ) ;
#216 = CARTESIAN_POINT ( 'NONE',  ( 7.500000000000001776, 7.500000000000000000, 0.02500000000000071609 ) ) ;
#217 = LINE ( 'NONE', #896, #7 ) ;
#218 = ORIENTED_EDGE ( 'NONE', *, *, #421, .T. ) ;
#219 = EDGE_CURVE ( 'NONE', #685, #360, #115, .T. ) ;
#220 = ORIENTED_EDGE ( 'NONE', *, *, #158, .T. ) ;
#221 = EDGE_CURVE ( 'NONE', #71, #784, #139, .T. ) ;
#222 = AXIS2_PLACEMENT_3D ( 'NONE', #696, #678, #401 ) ;
#223 = AXIS2_PLACEMENT_3D ( 'NONE', #769, #834, #482 ) ;
#224 = PRESENTATION_LAYER_ASSIGNMENT (  '', '', ( #724 ) ) ;
#225 = DIRECTION ( 'NONE',  ( 1.000000000000000000, 0.000000000000000000, 0.000000000000000000 ) ) ;
#226 = VECTOR ( 'NONE', #651, 1000.000000000000000 ) ;
#227 = CARTESIAN_POINT ( 'NONE',  ( 0.000000000000000000, 0.000000000000000000, 13.50000000000000000 ) ) ;
#228 = DIRECTION ( 'NONE',  ( -0.000000000000000000, -0.000000000000000000, -1.000000000000000000 ) ) ;
#229 = EDGE_LOOP ( 'NONE', ( #839, #432 ) ) ;
#230 = PLANE ( 'NONE',  #772 ) ;
#231 = LINE ( 'NONE', #213, #799 ) ;
#232 = DIRECTION ( 'NONE',  ( 0.000000000000000000, -0.000000000000000000, 1.000000000000000000 ) ) ;
#233 = ORIENTED_EDGE ( 'NONE', *, *, #50, .F. ) ;
#234 = EDGE_CURVE ( 'NONE', #49, #360, #532, .T. ) ;
#235 = DIRECTION ( 'NONE',  ( -1.000000000000000000, -0.000000000000000000, -0.000000000000000000 ) ) ;
#236 = DIRECTION ( 'NONE',  ( -1.000000000000000000, 0.000000000000000000, 0.000000000000000000 ) ) ;
#237 = CARTESIAN_POINT ( 'NONE',  ( 0.000000000000000000, 0.000000000000000000, 13.50000000000000000 ) ) ;
#238 = CARTESIAN_POINT ( 'NONE',  ( 0.000000000000000000, 0.000000000000000000, 13.50000000000000000 ) ) ;
#239 = VERTEX_POINT ( 'NONE', #117 ) ;
#240 = FACE_OUTER_BOUND ( 'NONE', #246, .T. ) ;
#241 = PLANE ( 'NONE',  #439 ) ;
#242 = AXIS2_PLACEMENT_3D ( 'NONE', #354, #413, #716 ) ;
#243 = DIRECTION ( 'NONE',  ( -1.000000000000000000, 0.000000000000000000, 0.000000000000000000 ) ) ;
#244 = CARTESIAN_POINT ( 'NONE',  ( -3.250000000000000000, 4.286263797015736102E-16, 14.00000000000000000 ) ) ;
#245 = VECTOR ( 'NONE', #265, 1000.000000000000000 ) ;
#246 = EDGE_LOOP ( 'NONE', ( #277, #395, #368, #499 ) ) ;
#247 = CARTESIAN_POINT ( 'NONE',  ( -3.250000000000000000, 3.980102097228897738E-16, 13.50000000000000000 ) ) ;
#248 = CARTESIAN_POINT ( 'NONE',  ( -3.750000000000000000, 0.000000000000000000, 4.000000000000000000 ) ) ;
#249 = CARTESIAN_POINT ( 'NONE',  ( -9.999999999999998224, -8.999999999999991118, 4.000000000000000000 ) ) ;
#250 = DIRECTION ( 'NONE',  ( 0.000000000000000000, 0.000000000000000000, -1.000000000000000000 ) ) ;
#251 = VERTEX_POINT ( 'NONE', #60 ) ;
#252 = DIRECTION ( 'NONE',  ( 0.000000000000000000, 0.000000000000000000, -1.000000000000000000 ) ) ;
#253 = DIRECTION ( 'NONE',  ( -1.000000000000000000, 0.000000000000000000, 0.000000000000000000 ) ) ;
#254 = DIRECTION ( 'NONE',  ( 0.000000000000000000, 0.000000000000000000, 1.000000000000000000 ) ) ;
#255 = ADVANCED_FACE ( 'NONE', ( #488 ), #928, .F. ) ;
#256 = VERTEX_POINT ( 'NONE', #192 ) ;
#257 = FACE_OUTER_BOUND ( 'NONE', #369, .T. ) ;
#258 = DIRECTION ( 'NONE',  ( -0.000000000000000000, -0.000000000000000000, -1.000000000000000000 ) ) ;
#259 = CARTESIAN_POINT ( 'NONE',  ( 7.500000000000001776, -7.500000000000000000, 4.000000000000000000 ) ) ;
#260 = PRODUCT_DEFINITION_FORMATION_WITH_SPECIFIED_SOURCE ( 'ÈÎºÎ', '', #272, .NOT_KNOWN. ) ;
#261 = ORIENTED_EDGE ( 'NONE', *, *, #766, .F. ) ;
#262 = CIRCLE ( 'NONE', #57, 2.099999999999999645 ) ;
#263 = CIRCLE ( 'NONE', #382, 2.099999999999997868 ) ;
#264 = ADVANCED_FACE ( 'NONE', ( #266 ), #713, .F. ) ;
#265 = DIRECTION ( 'NONE',  ( 0.7071067811865487940, 0.7071067811865463515, -0.000000000000000000 ) ) ;
#266 = FACE_OUTER_BOUND ( 'NONE', #437, .T. ) ;
#267 = EDGE_LOOP ( 'NONE', ( #343, #815, #719, #824 ) ) ;
#268 = EDGE_CURVE ( 'NONE', #239, #628, #860, .T. ) ;
#269 = DIRECTION ( 'NONE',  ( 1.000000000000000000, 0.000000000000000000, 0.000000000000000000 ) ) ;
#270 = ORIENTED_EDGE ( 'NONE', *, *, #820, .F. ) ;
#271 = CARTESIAN_POINT ( 'NONE',  ( 7.500000000000001776, -7.500000000000000000, 0.000000000000000000 ) ) ;
#272 = PRODUCT ( 'µ¯»É×ù', 'µ¯»É×ù', '', ( #702 ) ) ;
#273 = ORIENTED_EDGE ( 'NONE', *, *, #715, .F. ) ;
#274 = AXIS2_PLACEMENT_3D ( 'NONE', #68, #817, #82 ) ;
#275 = AXIS2_PLACEMENT_3D ( 'NONE', #475, #391, #165 ) ;
#276 = CARTESIAN_POINT ( 'NONE',  ( 10.00000000000000178, -9.999999999999998224, 0.000000000000000000 ) ) ;
#277 = ORIENTED_EDGE ( 'NONE', *, *, #708, .F. ) ;
#278 = EDGE_CURVE ( 'NONE', #807, #583, #867, .T. ) ;
#279 = DIRECTION ( 'NONE',  ( 0.000000000000000000, 0.000000000000000000, -1.000000000000000000 ) ) ;
#280 = ORIENTED_EDGE ( 'NONE', *, *, #104, .T. ) ;
#281 = FACE_OUTER_BOUND ( 'NONE', #12, .T. ) ;
#282 = DIRECTION ( 'NONE',  ( 0.7071067811865463515, -0.7071067811865487940, -0.000000000000000000 ) ) ;
#283 = VERTEX_POINT ( 'NONE', #446 ) ;
#284 = AXIS2_PLACEMENT_3D ( 'NONE', #125, #44, #559 ) ;
#285 = EDGE_CURVE ( 'NONE', #628, #124, #519, .T. ) ;
#286 = VECTOR ( 'NONE', #110, 1000.000000000000114 ) ;
#287 = CARTESIAN_POINT ( 'NONE',  ( 0.000000000000000000, 0.000000000000000000, 14.00000000000000000 ) ) ;
#288 = CARTESIAN_POINT ( 'NONE',  ( -7.499999999999998224, 7.500000000000000000, 0.000000000000000000 ) ) ;
#289 = VERTEX_POINT ( 'NONE', #366 ) ;
#290 = EDGE_CURVE ( 'NONE', #134, #760, #374, .T. ) ;
#291 = SURFACE_SIDE_STYLE ('',( #211 ) ) ;
#292 = ADVANCED_FACE ( 'NONE', ( #64 ), #207, .F. ) ;
#293 = DIRECTION ( 'NONE',  ( -0.000000000000000000, -0.000000000000000000, -1.000000000000000000 ) ) ;
#294 = EDGE_LOOP ( 'NONE', ( #408, #25, #444, #102 ) ) ;
#295 = EDGE_LOOP ( 'NONE', ( #538, #913 ) ) ;
#296 = DIRECTION ( 'NONE',  ( 0.000000000000000000, 0.000000000000000000, -1.000000000000000000 ) ) ;
#297 = LINE ( 'NONE', #890, #181 ) ;
#298 = ORIENTED_EDGE ( 'NONE', *, *, #398, .T. ) ;
#299 = PRESENTATION_LAYER_ASSIGNMENT (  '', '', ( #142 ) ) ;
#300 = AXIS2_PLACEMENT_3D ( 'NONE', #895, #653, #949 ) ;
#301 = CARTESIAN_POINT ( 'NONE',  ( 5.375000000000000888, 7.500000000000000000, 0.000000000000000000 ) ) ;
#302 = AXIS2_PLACEMENT_3D ( 'NONE', #626, #166, #832 ) ;
#303 = CONICAL_SURFACE ( 'NONE', #378, 2.125000000000000000, 0.7853981633974482790 ) ;
#304 = CARTESIAN_POINT ( 'NONE',  ( -9.624999999999998224, -7.500000000000000000, 0.000000000000000000 ) ) ;
#305 = DIRECTION ( 'NONE',  ( 1.000000000000000000, 0.000000000000000000, 0.000000000000000000 ) ) ;
#306 = ORIENTED_EDGE ( 'NONE', *, *, #569, .F. ) ;
#307 = ADVANCED_FACE ( 'NONE', ( #745, #748, #659, #668, #650, #441 ), #230, .F. ) ;
#308 = LINE ( 'NONE', #625, #456 ) ;
#309 = CARTESIAN_POINT ( 'NONE',  ( 10.00000000000000178, -8.999999999999994671, 4.000000000000000000 ) ) ;
#310 = DIRECTION ( 'NONE',  ( 0.000000000000000000, 0.000000000000000000, -1.000000000000000000 ) ) ;
#311 = ORIENTED_EDGE ( 'NONE', *, *, #561, .F. ) ;
#312 = EDGE_LOOP ( 'NONE', ( #901, #490 ) ) ;
#313 = PRODUCT_DEFINITION ( 'Î´Öª', '', #260, #425 ) ;
#314 = DIRECTION ( 'NONE',  ( -1.000000000000000000, 0.000000000000000000, 0.000000000000000000 ) ) ;
#315 = CARTESIAN_POINT ( 'NONE',  ( -9.999999999999998224, -9.999999999999998224, 4.000000000000000000 ) ) ;
#316 = DIRECTION ( 'NONE',  ( -0.000000000000000000, -0.000000000000000000, -1.000000000000000000 ) ) ;
#317 = ORIENTED_EDGE ( 'NONE', *, *, #733, .T. ) ;
#318 = CARTESIAN_POINT ( 'NONE',  ( -9.999999999999998224, 10.00000000000000178, 0.000000000000000000 ) ) ;
#319 = VECTOR ( 'NONE', #370, 1000.000000000000000 ) ;
#320 = CARTESIAN_POINT ( 'NONE',  ( 9.600000000000001421, -7.500000000000000000, 0.02500000000000071609 ) ) ;
#321 = AXIS2_PLACEMENT_3D ( 'NONE', #8, #907, #484 ) ;
#322 = CARTESIAN_POINT ( 'NONE',  ( 10.00000000000000178, 9.000000000000001776, 4.000000000000000000 ) ) ;
#323 = CARTESIAN_POINT ( 'NONE',  ( 0.000000000000000000, 0.000000000000000000, 4.000000000000000000 ) ) ;
#324 = ORIENTED_EDGE ( 'NONE', *, *, #20, .F. ) ;
#325 = DIRECTION ( 'NONE',  ( 0.000000000000000000, 0.000000000000000000, 1.000000000000000000 ) ) ;
#326 = ADVANCED_FACE ( 'NONE', ( #281 ), #506, .F. ) ;
#327 = LINE ( 'NONE', #309, #727 ) ;
#328 = ORIENTED_EDGE ( 'NONE', *, *, #418, .T. ) ;
#329 = EDGE_CURVE ( 'NONE', #784, #543, #955, .T. ) ;
#330 = VERTEX_POINT ( 'NONE', #152 ) ;
#331 = DIRECTION ( 'NONE',  ( 1.000000000000000000, 0.000000000000000000, 0.000000000000000000 ) ) ;
#332 = CARTESIAN_POINT ( 'NONE',  ( -5.374999999999998224, 7.500000000000000000, 0.000000000000000000 ) ) ;
#333 = DIRECTION ( 'NONE',  ( 1.000000000000000000, 0.000000000000000000, 0.000000000000000000 ) ) ;
#334 = ORIENTED_EDGE ( 'NONE', *, *, #418, .F. ) ;
#335 = ADVANCED_FACE ( 'NONE', ( #959 ), #735, .F. ) ;
#336 = CARTESIAN_POINT ( 'NONE',  ( 5.375000000000000888, 7.500000000000000000, 0.000000000000000000 ) ) ;
#337 = DIRECTION ( 'NONE',  ( 0.000000000000000000, 1.000000000000000000, 0.000000000000000000 ) ) ;
#338 = TOROIDAL_SURFACE ( 'NONE', #40, 3.250000000000000000, 0.5000000000000000000 ) ;
#339 = VERTEX_POINT ( 'NONE', #430 ) ;
#340 = VECTOR ( 'NONE', #37, 1000.000000000000000 ) ;
#341 = EDGE_CURVE ( 'NONE', #714, #779, #450, .T. ) ;
#342 = CARTESIAN_POINT ( 'NONE',  ( 10.00000000000000178, -8.999999999999994671, 4.000000000000000000 ) ) ;
#343 = ORIENTED_EDGE ( 'NONE', *, *, #341, .F. ) ;
#344 = DIRECTION ( 'NONE',  ( 0.000000000000000000, 0.000000000000000000, -1.000000000000000000 ) ) ;
#345 = EDGE_LOOP ( 'NONE', ( #747, #962, #560, #461 ) ) ;
#346 = CARTESIAN_POINT ( 'NONE',  ( -9.624999999999998224, -7.500000000000000000, 0.000000000000000000 ) ) ;
#347 = AXIS2_PLACEMENT_3D ( 'NONE', #542, #172, #521 ) ;
#348 = VECTOR ( 'NONE', #178, 1000.000000000000000 ) ;
#349 = EDGE_LOOP ( 'NONE', ( #372, #634, #209, #487 ) ) ;
#350 = MECHANICAL_DESIGN_GEOMETRIC_PRESENTATION_REPRESENTATION (  '', ( #724 ), #674 ) ;
#351 = CONICAL_SURFACE ( 'NONE', #711, 2.125000000000000000, 0.7853981633974657095 ) ;
#352 = DIRECTION ( 'NONE',  ( -1.000000000000000000, 0.000000000000000000, 0.000000000000000000 ) ) ;
#353 = ORIENTED_EDGE ( 'NONE', *, *, #491, .F. ) ;
#354 = CARTESIAN_POINT ( 'NONE',  ( -7.499999999999998224, 7.500000000000000000, 0.000000000000000000 ) ) ;
#355 = DIRECTION ( 'NONE',  ( 0.000000000000000000, 0.000000000000000000, -1.000000000000000000 ) ) ;
#356 = ORIENTED_EDGE ( 'NONE', *, *, #561, .T. ) ;
#357 = DIRECTION ( 'NONE',  ( -0.000000000000000000, -0.000000000000000000, -1.000000000000000000 ) ) ;
#358 = LINE ( 'NONE', #956, #534 ) ;
#359 = ORIENTED_EDGE ( 'NONE', *, *, #623, .F. ) ;
#360 = VERTEX_POINT ( 'NONE', #74 ) ;
#361 = CLOSED_SHELL ( 'NONE', ( #649, #786, #188, #497, #255, #335, #663, #445, #326, #810, #741, #740, #193, #908, #307, #808, #515, #776, #145, #869, #292, #749, #120, #842, #941, #592, #63, #128, #264, #460, #638 ) ) ;
#362 = EDGE_CURVE ( 'NONE', #473, #807, #575, .T. ) ;
#363 = VECTOR ( 'NONE', #225, 1000.000000000000000 ) ;
#364 = EDGE_CURVE ( 'NONE', #784, #71, #863, .T. ) ;
#365 = AXIS2_PLACEMENT_3D ( 'NONE', #961, #806, #355 ) ;
#366 = CARTESIAN_POINT ( 'NONE',  ( 9.000000000000001776, 10.00000000000000178, 4.000000000000000000 ) ) ;
#367 = DIRECTION ( 'NONE',  ( -0.000000000000000000, -1.000000000000000000, -0.000000000000000000 ) ) ;
#368 = ORIENTED_EDGE ( 'NONE', *, *, #665, .F. ) ;
#369 = EDGE_LOOP ( 'NONE', ( #261, #423, #655, #233 ) ) ;
#370 = DIRECTION ( 'NONE',  ( -0.000000000000000000, -0.000000000000000000, -1.000000000000000000 ) ) ;
#371 = DIRECTION ( 'NONE',  ( -1.000000000000000000, 0.000000000000000000, 0.000000000000000000 ) ) ;
#372 = ORIENTED_EDGE ( 'NONE', *, *, #680, .F. ) ;
#373 = ORIENTED_EDGE ( 'NONE', *, *, #880, .T. ) ;
#374 = LINE ( 'NONE', #945, #438 ) ;
#375 = CARTESIAN_POINT ( 'NONE',  ( -5.374999999999998224, -7.500000000000000000, 0.000000000000000000 ) ) ;
#376 =( NAMED_UNIT ( * ) PLANE_ANGLE_UNIT ( ) SI_UNIT ( $, .RADIAN. ) );
#377 = VERTEX_POINT ( 'NONE', #876 ) ;
#378 = AXIS2_PLACEMENT_3D ( 'NONE', #552, #541, #919 ) ;
#379 = VECTOR ( 'NONE', #337, 1000.000000000000000 ) ;
#380 = DIRECTION ( 'NONE',  ( -0.000000000000000000, -0.000000000000000000, -1.000000000000000000 ) ) ;
#381 = CONICAL_SURFACE ( 'NONE', #936, 2.125000000000000000, 0.7853981633974482790 ) ;
#382 = AXIS2_PLACEMENT_3D ( 'NONE', #393, #310, #243 ) ;
#383 = DIRECTION ( 'NONE',  ( -1.000000000000000000, 0.000000000000000000, 0.000000000000000000 ) ) ;
#384 = LINE ( 'NONE', #768, #129 ) ;
#385 = EDGE_LOOP ( 'NONE', ( #780, #218, #854, #17 ) ) ;
#386 = DIRECTION ( 'NONE',  ( 0.7071067811865474617, 0.7071067811865474617, -0.000000000000000000 ) ) ;
#387 = DIRECTION ( 'NONE',  ( 0.000000000000000000, -0.000000000000000000, -1.000000000000000000 ) ) ;
#388 = CARTESIAN_POINT ( 'NONE',  ( -9.599999999999996092, -7.500000000000000000, 4.000000000000000000 ) ) ;
#389 = FACE_OUTER_BOUND ( 'NONE', #137, .T. ) ;
#390 = ORIENTED_EDGE ( 'NONE', *, *, #466, .F. ) ;
#391 = DIRECTION ( 'NONE',  ( -0.000000000000000000, -0.000000000000000000, -1.000000000000000000 ) ) ;
#392 = CARTESIAN_POINT ( 'NONE',  ( -5.399999999999999467, -7.500000000000000000, 0.02500000000000071609 ) ) ;
#393 = CARTESIAN_POINT ( 'NONE',  ( 7.500000000000001776, 7.500000000000000000, 4.000000000000000000 ) ) ;
#394 = EDGE_LOOP ( 'NONE', ( #88, #544 ) ) ;
#395 = ORIENTED_EDGE ( 'NONE', *, *, #880, .F. ) ;
#396 = EDGE_CURVE ( 'NONE', #214, #800, #935, .T. ) ;
#397 = CARTESIAN_POINT ( 'NONE',  ( 7.500000000000001776, -7.500000000000000000, 0.02500000000000071609 ) ) ;
#398 = EDGE_CURVE ( 'NONE', #662, #957, #805, .T. ) ;
#399 = AXIS2_PLACEMENT_3D ( 'NONE', #797, #785, #870 ) ;
#400 = CARTESIAN_POINT ( 'NONE',  ( -9.599999999999996092, 7.500000000000000000, 0.000000000000000000 ) ) ;
#401 = DIRECTION ( 'NONE',  ( -1.000000000000000000, 0.000000000000000000, 0.000000000000000000 ) ) ;
#402 = CARTESIAN_POINT ( 'NONE',  ( 9.599999999999999645, 7.500000000000000000, 4.000000000000000000 ) ) ;
#403 = ORIENTED_EDGE ( 'NONE', *, *, #637, .F. ) ;
#404 = MANIFOLD_SOLID_BREP ( 'µ¹½Ç1', #361 ) ;
#405 = FACE_OUTER_BOUND ( 'NONE', #349, .T. ) ;
#406 = LINE ( 'NONE', #400, #641 ) ;
#407 = DIRECTION ( 'NONE',  ( 1.000000000000000000, 0.000000000000000000, 0.000000000000000000 ) ) ;
#408 = ORIENTED_EDGE ( 'NONE', *, *, #158, .F. ) ;
#409 = CARTESIAN_POINT ( 'NONE',  ( 10.00000000000000178, -8.999999999999994671, 4.000000000000000000 ) ) ;
#410 = CARTESIAN_POINT ( 'NONE',  ( -9.999999999999998224, 10.00000000000000178, 4.000000000000000000 ) ) ;
#411 = EDGE_CURVE ( 'NONE', #360, #49, #658, .T. ) ;
#412 = ORIENTED_EDGE ( 'NONE', *, *, #855, .F. ) ;
#413 = DIRECTION ( 'NONE',  ( -0.000000000000000000, -0.000000000000000000, -1.000000000000000000 ) ) ;
#414 = AXIS2_PLACEMENT_3D ( 'NONE', #635, #873, #352 ) ;
#415 = EDGE_LOOP ( 'NONE', ( #180, #568 ) ) ;
#416 = CARTESIAN_POINT ( 'NONE',  ( -9.999999999999998224, 9.000000000000001776, 4.000000000000000000 ) ) ;
#417 = ORIENTED_EDGE ( 'NONE', *, *, #773, .T. ) ;
#418 = EDGE_CURVE ( 'NONE', #124, #377, #914, .T. ) ;
#419 = CARTESIAN_POINT ( 'NONE',  ( 7.500000000000001776, -7.500000000000000000, 4.000000000000000000 ) ) ;
#420 = ORIENTED_EDGE ( 'NONE', *, *, #212, .F. ) ;
#421 = EDGE_CURVE ( 'NONE', #134, #49, #163, .T. ) ;
#422 = FACE_OUTER_BOUND ( 'NONE', #174, .T. ) ;
#423 = ORIENTED_EDGE ( 'NONE', *, *, #341, .T. ) ;
#424 = AXIS2_PLACEMENT_3D ( 'NONE', #618, #911, #250 ) ;
#425 = PRODUCT_DEFINITION_CONTEXT ( 'detailed design', #862, 'design' ) ;
#426 = CIRCLE ( 'NONE', #116, 2.125000000000000000 ) ;
#427 = AXIS2_PLACEMENT_3D ( 'NONE', #21, #844, #177 ) ;
#428 = CARTESIAN_POINT ( 'NONE',  ( 3.250000000000000000, 0.000000000000000000, 13.50000000000000000 ) ) ;
#429 = ORIENTED_EDGE ( 'NONE', *, *, #329, .T. ) ;
#430 = CARTESIAN_POINT ( 'NONE',  ( 9.625000000000001776, 7.500000000000000000, 0.000000000000000000 ) ) ;
#431 = DIRECTION ( 'NONE',  ( -0.7071067811865474617, 0.7071067811865474617, -0.000000000000000000 ) ) ;
#432 = ORIENTED_EDGE ( 'NONE', *, *, #119, .T. ) ;
#433 = EDGE_CURVE ( 'NONE', #109, #804, #262, .T. ) ;
#434 = DIRECTION ( 'NONE',  ( -1.000000000000000000, 0.000000000000000000, -0.000000000000000000 ) ) ;
#435 = LINE ( 'NONE', #153, #906 ) ;
#436 = ORIENTED_EDGE ( 'NONE', *, *, #700, .T. ) ;
#437 = EDGE_LOOP ( 'NONE', ( #311, #334, #62, #897 ) ) ;
#438 = VECTOR ( 'NONE', #357, 1000.000000000000000 ) ;
#439 = AXIS2_PLACEMENT_3D ( 'NONE', #826, #383, #463 ) ;
#440 = ADVANCED_BREP_SHAPE_REPRESENTATION ( 'µ¯»É×ù', ( #404, #646 ), #889 ) ;
#441 = FACE_OUTER_BOUND ( 'NONE', #932, .T. ) ;
#442 = CARTESIAN_POINT ( 'NONE',  ( -8.999999999999994671, -9.999999999999998224, 4.000000000000000000 ) ) ;
#443 = ORIENTED_EDGE ( 'NONE', *, *, #722, .T. ) ;
#444 = ORIENTED_EDGE ( 'NONE', *, *, #766, .T. ) ;
#445 = ADVANCED_FACE ( 'NONE', ( #550 ), #381, .F. ) ;
#446 = CARTESIAN_POINT ( 'NONE',  ( 9.000000000000001776, 10.00000000000000178, 0.000000000000000000 ) ) ;
#447 = FACE_OUTER_BOUND ( 'NONE', #726, .T. ) ;
#448 = DIRECTION ( 'NONE',  ( -0.000000000000000000, -0.000000000000000000, -1.000000000000000000 ) ) ;
#449 = ORIENTED_EDGE ( 'NONE', *, *, #944, .F. ) ;
#450 = LINE ( 'NONE', #821, #179 ) ;
#451 = DIRECTION ( 'NONE',  ( 0.7071067811865474617, -0.7071067811865474617, -0.000000000000000000 ) ) ;
#452 = DIRECTION ( 'NONE',  ( -0.7071067811865474617, 0.000000000000000000, -0.7071067811865474617 ) ) ;
#453 = ORIENTED_EDGE ( 'NONE', *, *, #960, .F. ) ;
#454 = AXIS2_PLACEMENT_3D ( 'NONE', #323, #254, #920 ) ;
#455 = DIRECTION ( 'NONE',  ( -0.000000000000000000, -0.000000000000000000, -1.000000000000000000 ) ) ;
#456 = VECTOR ( 'NONE', #386, 1000.000000000000114 ) ;
#457 = DIRECTION ( 'NONE',  ( 1.000000000000000000, 0.000000000000000000, -0.000000000000000000 ) ) ;
#458 = DIRECTION ( 'NONE',  ( 0.000000000000000000, 0.000000000000000000, 1.000000000000000000 ) ) ;
#459 = CARTESIAN_POINT ( 'NONE',  ( -9.999999999999998224, -9.999999999999998224, 4.000000000000000000 ) ) ;
#460 = ADVANCED_FACE ( 'NONE', ( #240 ), #607, .F. ) ;
#461 = ORIENTED_EDGE ( 'NONE', *, *, #820, .T. ) ;
#462 = CARTESIAN_POINT ( 'NONE',  ( -7.499999999999998224, 7.500000000000000000, 0.000000000000000000 ) ) ;
#463 = DIRECTION ( 'NONE',  ( 0.000000000000000000, 0.000000000000000000, 1.000000000000000000 ) ) ;
#464 = CARTESIAN_POINT ( 'NONE',  ( 7.500000000000001776, -7.500000000000000000, 0.000000000000000000 ) ) ;
#465 = PLANE ( 'NONE',  #424 ) ;
#466 = EDGE_CURVE ( 'NONE', #11, #256, #308, .T. ) ;
#467 = ORIENTED_EDGE ( 'NONE', *, *, #396, .F. ) ;
#468 = EDGE_CURVE ( 'NONE', #473, #918, #580, .T. ) ;
#469 = CARTESIAN_POINT ( 'NONE',  ( -5.400000000000000355, -7.500000000000000000, 4.000000000000000000 ) ) ;
#470 = PLANE ( 'NONE',  #864 ) ;
#471 = CARTESIAN_POINT ( 'NONE',  ( 7.500000000000001776, -7.500000000000000000, 0.000000000000000000 ) ) ;
#472 = DIRECTION ( 'NONE',  ( -1.000000000000000000, 0.000000000000000000, 0.000000000000000000 ) ) ;
#473 = VERTEX_POINT ( 'NONE', #469 ) ;
#474 = AXIS2_PLACEMENT_3D ( 'NONE', #237, #448, #305 ) ;
#475 = CARTESIAN_POINT ( 'NONE',  ( 7.500000000000001776, -7.500000000000000000, 0.02500000000000071609 ) ) ;
#476 = FACE_OUTER_BOUND ( 'NONE', #600, .T. ) ;
#477 = VECTOR ( 'NONE', #602, 1000.000000000000000 ) ;
#478 = DIRECTION ( 'NONE',  ( -1.000000000000000000, 0.000000000000000000, 0.000000000000000000 ) ) ;
#479 = VERTEX_POINT ( 'NONE', #831 ) ;
#480 = UNCERTAINTY_MEASURE_WITH_UNIT (LENGTH_MEASURE( 1.000000000000000082E-05 ), #712, 'distance_accuracy_value', 'NONE');
#481 = LINE ( 'NONE', #843, #517 ) ;
#482 = DIRECTION ( 'NONE',  ( -1.000000000000000000, 0.000000000000000000, 0.000000000000000000 ) ) ;
#483 = ORIENTED_EDGE ( 'NONE', *, *, #364, .F. ) ;
#484 = DIRECTION ( 'NONE',  ( -1.000000000000000000, 0.000000000000000000, 0.000000000000000000 ) ) ;
#485 = FILL_AREA_STYLE_COLOUR ( '', #720 ) ;
#486 = CYLINDRICAL_SURFACE ( 'NONE', #565, 2.099999999999997868 ) ;
#487 = ORIENTED_EDGE ( 'NONE', *, *, #146, .T. ) ;
#488 = FACE_OUTER_BOUND ( 'NONE', #294, .T. ) ;
#489 = VECTOR ( 'NONE', #79, 1000.000000000000114 ) ;
#490 = ORIENTED_EDGE ( 'NONE', *, *, #73, .F. ) ;
#491 = EDGE_CURVE ( 'NONE', #804, #109, #206, .T. ) ;
#492 = AXIS2_PLACEMENT_3D ( 'NONE', #70, #582, #525 ) ;
#493 = SURFACE_SIDE_STYLE ('',( #859 ) ) ;
#494 = CYLINDRICAL_SURFACE ( 'NONE', #399, 2.099999999999997868 ) ;
#495 = VERTEX_POINT ( 'NONE', #686 ) ;
#496 = EDGE_CURVE ( 'NONE', #283, #256, #545, .T. ) ;
#497 = ADVANCED_FACE ( 'NONE', ( #257 ), #351, .F. ) ;
#498 = CARTESIAN_POINT ( 'NONE',  ( -9.599999999999996092, 7.500000000000000000, 4.000000000000000000 ) ) ;
#499 = ORIENTED_EDGE ( 'NONE', *, *, #505, .F. ) ;
#500 = DIRECTION ( 'NONE',  ( -0.000000000000000000, -0.000000000000000000, -1.000000000000000000 ) ) ;
#501 = VECTOR ( 'NONE', #185, 1000.000000000000000 ) ;
#502 = EDGE_LOOP ( 'NONE', ( #53, #449, #114, #624 ) ) ;
#503 = CIRCLE ( 'NONE', #850, 2.099999999999999645 ) ;
#504 = AXIS2_PLACEMENT_3D ( 'NONE', #27, #105, #252 ) ;
#505 = EDGE_CURVE ( 'NONE', #289, #283, #481, .T. ) ;
#506 = CYLINDRICAL_SURFACE ( 'NONE', #67, 2.099999999999997868 ) ;
#507 = CARTESIAN_POINT ( 'NONE',  ( 9.000000000000001776, 10.00000000000000178, 4.000000000000000000 ) ) ;
#508 = EDGE_LOOP ( 'NONE', ( #947, #557, #736, #373 ) ) ;
#509 = CARTESIAN_POINT ( 'NONE',  ( 10.00000000000000178, 9.000000000000001776, 4.000000000000000000 ) ) ;
#510 = VERTEX_POINT ( 'NONE', #533 ) ;
#511 = DIRECTION ( 'NONE',  ( -1.000000000000000000, 0.000000000000000000, 0.000000000000000000 ) ) ;
#512 = FACE_OUTER_BOUND ( 'NONE', #689, .T. ) ;
#513 = EDGE_LOOP ( 'NONE', ( #191, #679 ) ) ;
#514 = CIRCLE ( 'NONE', #347, 2.099999999999999645 ) ;
#515 = ADVANCED_FACE ( 'NONE', ( #405 ), #157, .T. ) ;
#516 = AXIS2_PLACEMENT_3D ( 'NONE', #802, #132, #664 ) ;
#517 = VECTOR ( 'NONE', #19, 1000.000000000000000 ) ;
#518 = CIRCLE ( 'NONE', #549, 2.125000000000000000 ) ;
#519 = LINE ( 'NONE', #885, #363 ) ;
#520 = DIRECTION ( 'NONE',  ( -0.000000000000000000, -0.000000000000000000, -1.000000000000000000 ) ) ;
#521 = DIRECTION ( 'NONE',  ( -1.000000000000000000, 0.000000000000000000, 0.000000000000000000 ) ) ;
#522 = ORIENTED_EDGE ( 'NONE', *, *, #46, .F. ) ;
#523 = EDGE_CURVE ( 'NONE', #495, #804, #699, .T. ) ;
#524 = DIRECTION ( 'NONE',  ( -1.000000000000000000, 0.000000000000000000, 0.000000000000000000 ) ) ;
#525 = DIRECTION ( 'NONE',  ( -1.000000000000000000, 0.000000000000000000, 0.000000000000000000 ) ) ;
#526 = FACE_OUTER_BOUND ( 'NONE', #636, .T. ) ;
#527 = ORIENTED_EDGE ( 'NONE', *, *, #51, .T. ) ;
#528 = CARTESIAN_POINT ( 'NONE',  ( -7.499999999999998224, -7.500000000000000000, 0.02500000000000071609 ) ) ;
#529 = DIRECTION ( 'NONE',  ( -1.000000000000000000, 0.000000000000000000, 0.000000000000000000 ) ) ;
#530 = DIRECTION ( 'NONE',  ( 0.000000000000000000, 0.000000000000000000, 1.000000000000000000 ) ) ;
#531 = VERTEX_POINT ( 'NONE', #614 ) ;
#532 = CIRCLE ( 'NONE', #691, 3.250000000000000000 ) ;
#533 = CARTESIAN_POINT ( 'NONE',  ( 10.00000000000000178, -8.999999999999994671, 0.000000000000000000 ) ) ;
#534 = VECTOR ( 'NONE', #293, 1000.000000000000000 ) ;
#535 = EDGE_CURVE ( 'NONE', #583, #169, #644, .T. ) ;
#536 = DIRECTION ( 'NONE',  ( -0.000000000000000000, -0.000000000000000000, -1.000000000000000000 ) ) ;
#537 = CYLINDRICAL_SURFACE ( 'NONE', #739, 2.099999999999997868 ) ;
#538 = ORIENTED_EDGE ( 'NONE', *, *, #411, .T. ) ;
#539 = ORIENTED_EDGE ( 'NONE', *, *, #119, .F. ) ;
#540 = DIRECTION ( 'NONE',  ( 1.224646799147353207E-16, 1.000000000000000000, -0.000000000000000000 ) ) ;
#541 = DIRECTION ( 'NONE',  ( -0.000000000000000000, -0.000000000000000000, -1.000000000000000000 ) ) ;
#542 = CARTESIAN_POINT ( 'NONE',  ( -7.499999999999998224, -7.500000000000000000, 0.02500000000000071609 ) ) ;
#543 = VERTEX_POINT ( 'NONE', #336 ) ;
#544 = ORIENTED_EDGE ( 'NONE', *, *, #535, .F. ) ;
#545 = LINE ( 'NONE', #318, #814 ) ;
#546 = FACE_BOUND ( 'NONE', #879, .T. ) ;
#547 = CARTESIAN_POINT ( 'NONE',  ( 10.00000000000000178, -9.999999999999998224, 4.000000000000000000 ) ) ;
#548 = ORIENTED_EDGE ( 'NONE', *, *, #433, .T. ) ;
#549 = AXIS2_PLACEMENT_3D ( 'NONE', #471, #228, #827 ) ;
#550 = FACE_OUTER_BOUND ( 'NONE', #883, .T. ) ;
#551 = VECTOR ( 'NONE', #344, 1000.000000000000000 ) ;
#552 = CARTESIAN_POINT ( 'NONE',  ( 7.500000000000001776, 7.500000000000000000, 0.000000000000000000 ) ) ;
#553 = AXIS2_PLACEMENT_3D ( 'NONE', #83, #899, #762 ) ;
#554 =( NAMED_UNIT ( * ) PLANE_ANGLE_UNIT ( ) SI_UNIT ( $, .RADIAN. ) );
#555 = CARTESIAN_POINT ( 'NONE',  ( 7.500000000000001776, -7.500000000000000000, 0.000000000000000000 ) ) ;
#556 = CONICAL_SURFACE ( 'NONE', #222, 2.125000000000000000, 0.7853981633974657095 ) ;
#557 = ORIENTED_EDGE ( 'NONE', *, *, #782, .T. ) ;
#558 = CARTESIAN_POINT ( 'NONE',  ( -9.999999999999998224, 9.000000000000001776, 4.000000000000000000 ) ) ;
#559 = DIRECTION ( 'NONE',  ( -1.000000000000000000, 0.000000000000000000, 0.000000000000000000 ) ) ;
#560 = ORIENTED_EDGE ( 'NONE', *, *, #585, .T. ) ;
#561 = EDGE_CURVE ( 'NONE', #377, #871, #926, .T. ) ;
#562 = DIRECTION ( 'NONE',  ( -0.7071067811865462405, 0.7071067811865487940, 0.000000000000000000 ) ) ;
#563 = ORIENTED_EDGE ( 'NONE', *, *, #496, .T. ) ;
#564 = LINE ( 'NONE', #416, #612 ) ;
#565 = AXIS2_PLACEMENT_3D ( 'NONE', #271, #500, #933 ) ;
#566 = EDGE_CURVE ( 'NONE', #256, #847, #705, .T. ) ;
#567 = CIRCLE ( 'NONE', #302, 3.750000000000000000 ) ;
#568 = ORIENTED_EDGE ( 'NONE', *, *, #35, .F. ) ;
#569 = EDGE_CURVE ( 'NONE', #847, #662, #187, .T. ) ;
#570 = DIRECTION ( 'NONE',  ( 1.000000000000000000, 0.000000000000000000, 0.000000000000000000 ) ) ;
#571 = ORIENTED_EDGE ( 'NONE', *, *, #73, .T. ) ;
#572 = DIRECTION ( 'NONE',  ( 1.000000000000000000, 0.000000000000000000, 0.000000000000000000 ) ) ;
#573 = ORIENTED_EDGE ( 'NONE', *, *, #574, .T. ) ;
#574 = EDGE_CURVE ( 'NONE', #957, #239, #630, .T. ) ;
#575 = LINE ( 'NONE', #1, #319 ) ;
#576 = CARTESIAN_POINT ( 'NONE',  ( -9.624999999999998224, 7.500000000000000000, 0.000000000000000000 ) ) ;
#577 = ORIENTED_EDGE ( 'NONE', *, *, #872, .T. ) ;
#578 = AXIS2_PLACEMENT_3D ( 'NONE', #931, #572, #130 ) ;
#579 = UNCERTAINTY_MEASURE_WITH_UNIT (LENGTH_MEASURE( 1.000000000000000082E-05 ), #604, 'distance_accuracy_value', 'NONE');
#580 = CIRCLE ( 'NONE', #87, 2.099999999999997868 ) ;
#581 = FILL_AREA_STYLE_COLOUR ( '', #643 ) ;
#582 = DIRECTION ( 'NONE',  ( -0.000000000000000000, -0.000000000000000000, -1.000000000000000000 ) ) ;
#583 = VERTEX_POINT ( 'NONE', #375 ) ;
#584 = SURFACE_STYLE_USAGE ( .BOTH. , #291 ) ;
#585 = EDGE_CURVE ( 'NONE', #918, #138, #217, .T. ) ;
#586 = CARTESIAN_POINT ( 'NONE',  ( 7.500000000000001776, 7.500000000000000000, 4.000000000000000000 ) ) ;
#587 = VERTEX_POINT ( 'NONE', #509 ) ;
#588 = DIRECTION ( 'NONE',  ( -0.000000000000000000, -0.000000000000000000, -1.000000000000000000 ) ) ;
#589 = FACE_OUTER_BOUND ( 'NONE', #385, .T. ) ;
#590 = DIRECTION ( 'NONE',  ( 0.000000000000000000, 0.000000000000000000, 1.000000000000000000 ) ) ;
#591 = ORIENTED_EDGE ( 'NONE', *, *, #680, .T. ) ;
#592 = ADVANCED_FACE ( 'NONE', ( #512 ), #789, .F. ) ;
#593 = ORIENTED_EDGE ( 'NONE', *, *, #491, .T. ) ;
#594 = AXIS2_PLACEMENT_3D ( 'NONE', #428, #58, #857 ) ;
#595 = VECTOR ( 'NONE', #282, 1000.000000000000000 ) ;
#596 = AXIS2_PLACEMENT_3D ( 'NONE', #464, #838, #529 ) ;
#597 = CARTESIAN_POINT ( 'NONE',  ( 7.500000000000001776, -7.500000000000000000, 0.000000000000000000 ) ) ;
#598 = CARTESIAN_POINT ( 'NONE',  ( -9.500000000000012434, -9.499999999999978684, -0.000000000000000000 ) ) ;
#599 = ORIENTED_EDGE ( 'NONE', *, *, #601, .F. ) ;
#600 = EDGE_LOOP ( 'NONE', ( #317, #591, #571, #929 ) ) ;
#601 = EDGE_CURVE ( 'NONE', #138, #169, #654, .T. ) ;
#602 = DIRECTION ( 'NONE',  ( 0.000000000000000000, 0.000000000000000000, 1.000000000000000000 ) ) ;
#603 = CARTESIAN_POINT ( 'NONE',  ( 0.000000000000000000, 0.000000000000000000, 14.00000000000000000 ) ) ;
#604 =( LENGTH_UNIT ( ) NAMED_UNIT ( * ) SI_UNIT ( .MILLI., .METRE. ) );
#605 = ORIENTED_EDGE ( 'NONE', *, *, #175, .F. ) ;
#606 = EDGE_CURVE ( 'NONE', #11, #251, #297, .T. ) ;
#607 = PLANE ( 'NONE',  #504 ) ;
#608 = LINE ( 'NONE', #96, #801 ) ;
#609 = CARTESIAN_POINT ( 'NONE',  ( 3.750000000000000000, 4.592425496802573972E-16, 4.000000000000000000 ) ) ;
#610 = CARTESIAN_POINT ( 'NONE',  ( -9.999999999999998224, 9.000000000000001776, 0.000000000000000000 ) ) ;
#611 = ORIENTED_EDGE ( 'NONE', *, *, #46, .T. ) ;
#612 = VECTOR ( 'NONE', #279, 1000.000000000000000 ) ;
#613 = AXIS2_PLACEMENT_3D ( 'NONE', #586, #75, #371 ) ;
#614 = CARTESIAN_POINT ( 'NONE',  ( 5.400000000000003908, 7.500000000000000000, 4.000000000000000000 ) ) ;
#615 = AXIS2_PLACEMENT_3D ( 'NONE', #660, #143, #886 ) ;
#616 = PLANE ( 'NONE',  #427 ) ;
#617 = LINE ( 'NONE', #22, #927 ) ;
#618 = CARTESIAN_POINT ( 'NONE',  ( -8.999999999999994671, -9.999999999999998224, 4.000000000000000000 ) ) ;
#619 = ORIENTED_EDGE ( 'NONE', *, *, #948, .F. ) ;
#620 = DIRECTION ( 'NONE',  ( -1.000000000000000000, 0.000000000000000000, 0.000000000000000000 ) ) ;
#621 = FACE_OUTER_BOUND ( 'NONE', #704, .T. ) ;
#622 = EDGE_LOOP ( 'NONE', ( #273, #861, #892, #577 ) ) ;
#623 = EDGE_CURVE ( 'NONE', #800, #714, #231, .T. ) ;
#624 = ORIENTED_EDGE ( 'NONE', *, *, #268, .F. ) ;
#625 = CARTESIAN_POINT ( 'NONE',  ( -9.499999999999998224, 9.499999999999998224, -0.000000000000000000 ) ) ;
#626 = CARTESIAN_POINT ( 'NONE',  ( 0.000000000000000000, 0.000000000000000000, 13.50000000000000000 ) ) ;
#627 = CARTESIAN_POINT ( 'NONE',  ( -7.499999999999998224, -7.500000000000000000, 4.000000000000000000 ) ) ;
#628 = VERTEX_POINT ( 'NONE', #61 ) ;
#629 = VECTOR ( 'NONE', #706, 1000.000000000000000 ) ;
#630 = LINE ( 'NONE', #442, #595 ) ;
#631 = AXIS2_PLACEMENT_3D ( 'NONE', #728, #794, #202 ) ;
#632 = DIRECTION ( 'NONE',  ( 0.000000000000000000, 0.000000000000000000, 1.000000000000000000 ) ) ;
#633 = FACE_OUTER_BOUND ( 'NONE', #905, .T. ) ;
#634 = ORIENTED_EDGE ( 'NONE', *, *, #855, .T. ) ;
#635 = CARTESIAN_POINT ( 'NONE',  ( 7.500000000000001776, 7.500000000000000000, 0.02500000000000071609 ) ) ;
#636 = EDGE_LOOP ( 'NONE', ( #324, #645, #917, #954 ) ) ;
#637 = EDGE_CURVE ( 'NONE', #690, #779, #426, .T. ) ;
#638 = ADVANCED_FACE ( 'NONE', ( #812 ), #882, .F. ) ;
#639 = CARTESIAN_POINT ( 'NONE',  ( -5.374999999999998224, -7.500000000000000000, 0.000000000000000000 ) ) ;
#640 = ORIENTED_EDGE ( 'NONE', *, *, #268, .T. ) ;
#641 = VECTOR ( 'NONE', #695, 1000.000000000000000 ) ;
#642 = DIRECTION ( 'NONE',  ( -1.000000000000000000, 0.000000000000000000, 0.000000000000000000 ) ) ;
#643 = COLOUR_RGB ( '',1.000000000000000000, 1.000000000000000000, 1.000000000000000000 ) ;
#644 = CIRCLE ( 'NONE', #321, 2.125000000000000000 ) ;
#645 = ORIENTED_EDGE ( 'NONE', *, *, #700, .F. ) ;
#646 = AXIS2_PLACEMENT_3D ( 'NONE', #778, #632, #866 ) ;
#647 = DIRECTION ( 'NONE',  ( 0.000000000000000000, 0.000000000000000000, 1.000000000000000000 ) ) ;
#648 = ORIENTED_EDGE ( 'NONE', *, *, #939, .T. ) ;
#649 = ADVANCED_FACE ( 'NONE', ( #589 ), #925, .T. ) ;
#650 = FACE_BOUND ( 'NONE', #312, .T. ) ;
#651 = DIRECTION ( 'NONE',  ( -0.000000000000000000, -0.000000000000000000, -1.000000000000000000 ) ) ;
#652 = ORIENTED_EDGE ( 'NONE', *, *, #175, .T. ) ;
#653 = DIRECTION ( 'NONE',  ( -0.000000000000000000, -0.000000000000000000, -1.000000000000000000 ) ) ;
#654 = LINE ( 'NONE', #304, #851 ) ;
#655 = ORIENTED_EDGE ( 'NONE', *, *, #672, .T. ) ;
#656 = AXIS2_PLACEMENT_3D ( 'NONE', #342, #562, #198 ) ;
#657 = VERTEX_POINT ( 'NONE', #148 ) ;
#658 = CIRCLE ( 'NONE', #42, 3.250000000000000000 ) ;
#659 = FACE_BOUND ( 'NONE', #681, .T. ) ;
#660 = CARTESIAN_POINT ( 'NONE',  ( -7.499999999999998224, 7.500000000000000000, 0.000000000000000000 ) ) ;
#661 = ORIENTED_EDGE ( 'NONE', *, *, #606, .F. ) ;
#662 = VERTEX_POINT ( 'NONE', #136 ) ;
#663 = ADVANCED_FACE ( 'NONE', ( #447 ), #80, .F. ) ;
#664 = DIRECTION ( 'NONE',  ( -1.000000000000000000, 0.000000000000000000, 0.000000000000000000 ) ) ;
#665 = EDGE_CURVE ( 'NONE', #283, #479, #435, .T. ) ;
#666 = LINE ( 'NONE', #507, #774 ) ;
#667 = ORIENTED_EDGE ( 'NONE', *, *, #496, .F. ) ;
#668 = FACE_BOUND ( 'NONE', #229, .T. ) ;
#669 = DIRECTION ( 'NONE',  ( 0.000000000000000000, 0.000000000000000000, 1.000000000000000000 ) ) ;
#670 = ORIENTED_EDGE ( 'NONE', *, *, #221, .F. ) ;
#671 = PRODUCT_RELATED_PRODUCT_CATEGORY ( 'part', '', ( #272 ) ) ;
#672 = EDGE_CURVE ( 'NONE', #779, #690, #69, .T. ) ;
#673 = VECTOR ( 'NONE', #161, 1000.000000000000000 ) ;
#674 =( GEOMETRIC_REPRESENTATION_CONTEXT ( 3 ) GLOBAL_UNCERTAINTY_ASSIGNED_CONTEXT ( ( #849 ) ) GLOBAL_UNIT_ASSIGNED_CONTEXT ( ( #32, #694, #94 ) ) REPRESENTATION_CONTEXT ( 'NONE', 'WORKASPACE' ) );
#675 = CIRCLE ( 'NONE', #141, 2.099999999999999645 ) ;
#676 = CARTESIAN_POINT ( 'NONE',  ( 9.599999999999999645, -7.500000000000000000, 0.000000000000000000 ) ) ;
#677 = FACE_OUTER_BOUND ( 'NONE', #508, .T. ) ;
#678 = DIRECTION ( 'NONE',  ( -0.000000000000000000, -0.000000000000000000, -1.000000000000000000 ) ) ;
#679 = ORIENTED_EDGE ( 'NONE', *, *, #722, .F. ) ;
#680 = EDGE_CURVE ( 'NONE', #685, #943, #65, .T. ) ;
#681 = EDGE_LOOP ( 'NONE', ( #280, #45 ) ) ;
#682 = DIRECTION ( 'NONE',  ( -1.000000000000000000, 1.224646799147352468E-16, 0.000000000000000000 ) ) ;
#683 = DIRECTION ( 'NONE',  ( -0.000000000000000000, -0.000000000000000000, -1.000000000000000000 ) ) ;
#684 = CYLINDRICAL_SURFACE ( 'NONE', #205, 2.099999999999997868 ) ;
#685 = VERTEX_POINT ( 'NONE', #946 ) ;
#686 = CARTESIAN_POINT ( 'NONE',  ( 9.599999999999999645, -7.500000000000000000, 4.000000000000000000 ) ) ;
#687 = FACE_BOUND ( 'NONE', #394, .T. ) ;
#688 = DIRECTION ( 'NONE',  ( -0.000000000000000000, -0.000000000000000000, -1.000000000000000000 ) ) ;
#689 = EDGE_LOOP ( 'NONE', ( #729, #483, #429, #791 ) ) ;
#690 = VERTEX_POINT ( 'NONE', #576 ) ;
#691 = AXIS2_PLACEMENT_3D ( 'NONE', #113, #718, #269 ) ;
#692 = CONICAL_SURFACE ( 'NONE', #553, 2.125000000000000000, 0.7853981633974657095 ) ;
#693 = EDGE_CURVE ( 'NONE', #531, #784, #358, .T. ) ;
#694 =( NAMED_UNIT ( * ) PLANE_ANGLE_UNIT ( ) SI_UNIT ( $, .RADIAN. ) );
#695 = DIRECTION ( 'NONE',  ( -0.000000000000000000, -0.000000000000000000, -1.000000000000000000 ) ) ;
#696 = CARTESIAN_POINT ( 'NONE',  ( -7.499999999999998224, 7.500000000000000000, 0.000000000000000000 ) ) ;
#697 = LINE ( 'NONE', #547, #379 ) ;
#698 = ORIENTED_EDGE ( 'NONE', *, *, #665, .T. ) ;
#699 = LINE ( 'NONE', #676, #755 ) ;
#700 = EDGE_CURVE ( 'NONE', #531, #31, #197, .T. ) ;
#701 = FACE_OUTER_BOUND ( 'NONE', #295, .T. ) ;
#702 = PRODUCT_CONTEXT ( 'NONE', #210, 'mechanical' ) ;
#703 = CARTESIAN_POINT ( 'NONE',  ( 9.600000000000001421, 7.500000000000000000, 0.02500000000000071609 ) ) ;
#704 = EDGE_LOOP ( 'NONE', ( #155, #707, #563, #732 ) ) ;
#705 = LINE ( 'NONE', #856, #340 ) ;
#706 = DIRECTION ( 'NONE',  ( -1.000000000000000000, -0.000000000000000000, -0.000000000000000000 ) ) ;
#707 = ORIENTED_EDGE ( 'NONE', *, *, #505, .T. ) ;
#708 = EDGE_CURVE ( 'NONE', #587, #289, #666, .T. ) ;
#709 = CIRCLE ( 'NONE', #223, 2.125000000000000000 ) ;
#710 = VECTOR ( 'NONE', #938, 1000.000000000000000 ) ;
#711 = AXIS2_PLACEMENT_3D ( 'NONE', #462, #825, #775 ) ;
#712 =( LENGTH_UNIT ( ) NAMED_UNIT ( * ) SI_UNIT ( .MILLI., .METRE. ) );
#713 = PLANE ( 'NONE',  #656 ) ;
#714 = VERTEX_POINT ( 'NONE', #803 ) ;
#715 = EDGE_CURVE ( 'NONE', #804, #112, #133, .T. ) ;
#716 = DIRECTION ( 'NONE',  ( -1.000000000000000000, 0.000000000000000000, 0.000000000000000000 ) ) ;
#717 = ORIENTED_EDGE ( 'NONE', *, *, #893, .T. ) ;
#718 = DIRECTION ( 'NONE',  ( 0.000000000000000000, 0.000000000000000000, 1.000000000000000000 ) ) ;
#719 = ORIENTED_EDGE ( 'NONE', *, *, #50, .T. ) ;
#720 = COLOUR_RGB ( '',1.000000000000000000, 1.000000000000000000, 1.000000000000000000 ) ;
#721 = AXIS2_PLACEMENT_3D ( 'NONE', #555, #111, #108 ) ;
#722 = EDGE_CURVE ( 'NONE', #339, #543, #737, .T. ) ;
#723 = FACE_OUTER_BOUND ( 'NONE', #150, .T. ) ;
#724 = STYLED_ITEM ( 'NONE', ( #135 ), #404 ) ;
#725 = AXIS2_PLACEMENT_3D ( 'NONE', #171, #750, #159 ) ;
#726 = EDGE_LOOP ( 'NONE', ( #841, #753, #86, #118 ) ) ;
#727 = VECTOR ( 'NONE', #33, 1000.000000000000000 ) ;
#728 = CARTESIAN_POINT ( 'NONE',  ( -7.499999999999998224, -7.500000000000000000, 0.000000000000000000 ) ) ;
#729 = ORIENTED_EDGE ( 'NONE', *, *, #840, .F. ) ;
#730 = DIRECTION ( 'NONE',  ( -0.000000000000000000, -1.000000000000000000, -0.000000000000000000 ) ) ;
#731 = CARTESIAN_POINT ( 'NONE',  ( 9.625000000000001776, -7.500000000000000000, 0.000000000000000000 ) ) ;
#732 = ORIENTED_EDGE ( 'NONE', *, *, #566, .T. ) ;
#733 = EDGE_CURVE ( 'NONE', #134, #685, #567, .T. ) ;
#734 = CARTESIAN_POINT ( 'NONE',  ( -7.499999999999998224, -7.500000000000000000, 0.000000000000000000 ) ) ;
#735 = CONICAL_SURFACE ( 'NONE', #300, 2.125000000000000000, 0.7853981633974657095 ) ;
#736 = ORIENTED_EDGE ( 'NONE', *, *, #212, .T. ) ;
#737 = CIRCLE ( 'NONE', #725, 2.125000000000000000 ) ;
#738 = ORIENTED_EDGE ( 'NONE', *, *, #840, .T. ) ;
#739 = AXIS2_PLACEMENT_3D ( 'NONE', #751, #688, #823 ) ;
#740 = ADVANCED_FACE ( 'NONE', ( #621 ), #470, .F. ) ;
#741 = ADVANCED_FACE ( 'NONE', ( #677 ), #241, .F. ) ;
#742 = DIRECTION ( 'NONE',  ( -0.000000000000000000, -0.000000000000000000, -1.000000000000000000 ) ) ;
#743 = DIRECTION ( 'NONE',  ( -0.000000000000000000, -0.000000000000000000, -1.000000000000000000 ) ) ;
#744 = ORIENTED_EDGE ( 'NONE', *, *, #78, .T. ) ;
#745 = FACE_BOUND ( 'NONE', #887, .T. ) ;
#746 = DIRECTION ( 'NONE',  ( -0.000000000000000000, -0.000000000000000000, -1.000000000000000000 ) ) ;
#747 = ORIENTED_EDGE ( 'NONE', *, *, #362, .F. ) ;
#748 = FACE_BOUND ( 'NONE', #201, .T. ) ;
#749 = ADVANCED_FACE ( 'NONE', ( #767 ), #692, .F. ) ;
#750 = DIRECTION ( 'NONE',  ( -0.000000000000000000, -0.000000000000000000, -1.000000000000000000 ) ) ;
#751 = CARTESIAN_POINT ( 'NONE',  ( 7.500000000000001776, 7.500000000000000000, 0.000000000000000000 ) ) ;
#752 = ORIENTED_EDGE ( 'NONE', *, *, #466, .T. ) ;
#753 = ORIENTED_EDGE ( 'NONE', *, *, #362, .T. ) ;
#754 = CIRCLE ( 'NONE', #84, 2.099999999999997868 ) ;
#755 = VECTOR ( 'NONE', #455, 1000.000000000000000 ) ;
#756 = DIRECTION ( 'NONE',  ( -1.000000000000000000, 0.000000000000000000, 0.000000000000000000 ) ) ;
#757 = FACE_BOUND ( 'NONE', #415, .T. ) ;
#758 = DIRECTION ( 'NONE',  ( 0.000000000000000000, 1.000000000000000000, 0.000000000000000000 ) ) ;
#759 = DIRECTION ( 'NONE',  ( -0.000000000000000000, -0.000000000000000000, -1.000000000000000000 ) ) ;
#760 = VERTEX_POINT ( 'NONE', #248 ) ;
#761 = CARTESIAN_POINT ( 'NONE',  ( 0.000000000000000000, 0.000000000000000000, 14.00000000000000000 ) ) ;
#762 = DIRECTION ( 'NONE',  ( -1.000000000000000000, 0.000000000000000000, 0.000000000000000000 ) ) ;
#763 = CARTESIAN_POINT ( 'NONE',  ( -8.999999999999998224, 10.00000000000000178, 4.000000000000000000 ) ) ;
#764 = CARTESIAN_POINT ( 'NONE',  ( 9.599999999999999645, 7.500000000000000000, 0.000000000000000000 ) ) ;
#765 = ORIENTED_EDGE ( 'NONE', *, *, #221, .T. ) ;
#766 = EDGE_CURVE ( 'NONE', #714, #330, #675, .T. ) ;
#767 = FACE_OUTER_BOUND ( 'NONE', #6, .T. ) ;
#768 = CARTESIAN_POINT ( 'NONE',  ( 5.400000000000003908, -7.500000000000000000, 0.000000000000000000 ) ) ;
#769 = CARTESIAN_POINT ( 'NONE',  ( 7.500000000000001776, 7.500000000000000000, 0.000000000000000000 ) ) ;
#770 = ORIENTED_EDGE ( 'NONE', *, *, #278, .F. ) ;
#771 = VECTOR ( 'NONE', #590, 1000.000000000000000 ) ;
#772 = AXIS2_PLACEMENT_3D ( 'NONE', #811, #296, #434 ) ;
#773 = EDGE_CURVE ( 'NONE', #214, #330, #406, .T. ) ;
#774 = VECTOR ( 'NONE', #431, 1000.000000000000114 ) ;
#775 = DIRECTION ( 'NONE',  ( -1.000000000000000000, 0.000000000000000000, 0.000000000000000000 ) ) ;
#776 = ADVANCED_FACE ( 'NONE', ( #701 ), #909, .T. ) ;
#777 = CYLINDRICAL_SURFACE ( 'NONE', #103, 3.750000000000000000 ) ;
#778 = CARTESIAN_POINT ( 'NONE',  ( 0.000000000000000000, 0.000000000000000000, 0.000000000000000000 ) ) ;
#779 = VERTEX_POINT ( 'NONE', #332 ) ;
#780 = ORIENTED_EDGE ( 'NONE', *, *, #733, .F. ) ;
#781 = DIRECTION ( 'NONE',  ( -0.000000000000000000, -0.000000000000000000, -1.000000000000000000 ) ) ;
#782 = EDGE_CURVE ( 'NONE', #871, #510, #327, .T. ) ;
#783 = LINE ( 'NONE', #764, #348 ) ;
#784 = VERTEX_POINT ( 'NONE', #837 ) ;
#785 = DIRECTION ( 'NONE',  ( -0.000000000000000000, -0.000000000000000000, -1.000000000000000000 ) ) ;
#786 = ADVANCED_FACE ( 'NONE', ( #902 ), #303, .F. ) ;
#787 = EDGE_LOOP ( 'NONE', ( #884, #93, #72, #652 ) ) ;
#788 = VECTOR ( 'NONE', #147, 1000.000000000000000 ) ;
#789 = CONICAL_SURFACE ( 'NONE', #492, 2.125000000000000000, 0.7853981633974482790 ) ;
#790 = CARTESIAN_POINT ( 'NONE',  ( 0.000000000000000000, 0.000000000000000000, 4.000000000000000000 ) ) ;
#791 = ORIENTED_EDGE ( 'NONE', *, *, #18, .T. ) ;
#792 = CARTESIAN_POINT ( 'NONE',  ( -9.599999999999997868, -7.500000000000000000, 0.02500000000000071609 ) ) ;
#793 = EDGE_LOOP ( 'NONE', ( #453, #59, #813, #599 ) ) ;
#794 = DIRECTION ( 'NONE',  ( -0.000000000000000000, -0.000000000000000000, -1.000000000000000000 ) ) ;
#795 = EDGE_LOOP ( 'NONE', ( #670, #738, #443, #953 ) ) ;
#796 = AXIS2_PLACEMENT_3D ( 'NONE', #315, #758, #232 ) ;
#797 = CARTESIAN_POINT ( 'NONE',  ( 7.500000000000001776, 7.500000000000000000, 0.000000000000000000 ) ) ;
#798 = CIRCLE ( 'NONE', #631, 2.125000000000000000 ) ;
#799 = VECTOR ( 'NONE', #822, 1000.000000000000000 ) ;
#800 = VERTEX_POINT ( 'NONE', #95 ) ;
#801 = VECTOR ( 'NONE', #85, 1000.000000000000114 ) ;
#802 = CARTESIAN_POINT ( 'NONE',  ( -7.499999999999998224, 7.500000000000000000, 4.000000000000000000 ) ) ;
#803 = CARTESIAN_POINT ( 'NONE',  ( -5.399999999999999467, 7.500000000000000000, 0.02500000000000071609 ) ) ;
#804 = VERTEX_POINT ( 'NONE', #320 ) ;
#805 = LINE ( 'NONE', #888, #101 ) ;
#806 = DIRECTION ( 'NONE',  ( 0.7071067811865475727, -0.7071067811865475727, 0.000000000000000000 ) ) ;
#807 = VERTEX_POINT ( 'NONE', #392 ) ;
#808 = ADVANCED_FACE ( 'NONE', ( #89, #546, #687, #757, #106 ), #616, .T. ) ;
#809 = ORIENTED_EDGE ( 'NONE', *, *, #523, .T. ) ;
#810 = ADVANCED_FACE ( 'NONE', ( #476 ), #777, .T. ) ;
#811 = CARTESIAN_POINT ( 'NONE',  ( 0.000000000000000000, 0.000000000000000000, 4.000000000000000000 ) ) ;
#812 = FACE_OUTER_BOUND ( 'NONE', #868, .T. ) ;
#813 = ORIENTED_EDGE ( 'NONE', *, *, #535, .T. ) ;
#814 = VECTOR ( 'NONE', #235, 1000.000000000000000 ) ;
#815 = ORIENTED_EDGE ( 'NONE', *, *, #92, .F. ) ;
#816 = CIRCLE ( 'NONE', #937, 2.099999999999999645 ) ;
#817 = DIRECTION ( 'NONE',  ( -0.000000000000000000, -0.000000000000000000, -1.000000000000000000 ) ) ;
#818 = DIRECTION ( 'NONE',  ( -1.000000000000000000, 0.000000000000000000, 0.000000000000000000 ) ) ;
#819 = ORIENTED_EDGE ( 'NONE', *, *, #92, .T. ) ;
#820 = EDGE_CURVE ( 'NONE', #138, #807, #816, .T. ) ;
#821 = CARTESIAN_POINT ( 'NONE',  ( -5.374999999999998224, 7.500000000000000000, 0.000000000000000000 ) ) ;
#822 = DIRECTION ( 'NONE',  ( -0.000000000000000000, -0.000000000000000000, -1.000000000000000000 ) ) ;
#823 = DIRECTION ( 'NONE',  ( -1.000000000000000000, 0.000000000000000000, 0.000000000000000000 ) ) ;
#824 = ORIENTED_EDGE ( 'NONE', *, *, #637, .T. ) ;
#825 = DIRECTION ( 'NONE',  ( -0.000000000000000000, -0.000000000000000000, -1.000000000000000000 ) ) ;
#826 = CARTESIAN_POINT ( 'NONE',  ( 10.00000000000000178, -9.999999999999998224, 4.000000000000000000 ) ) ;
#827 = DIRECTION ( 'NONE',  ( -1.000000000000000000, 0.000000000000000000, 0.000000000000000000 ) ) ;
#828 = DIRECTION ( 'NONE',  ( 0.000000000000000000, 0.000000000000000000, -1.000000000000000000 ) ) ;
#829 = CIRCLE ( 'NONE', #160, 2.099999999999997868 ) ;
#830 = AXIS2_PLACEMENT_3D ( 'NONE', #227, #669, #878 ) ;
#831 = CARTESIAN_POINT ( 'NONE',  ( 10.00000000000000178, 9.000000000000001776, 0.000000000000000000 ) ) ;
#832 = DIRECTION ( 'NONE',  ( 1.000000000000000000, 0.000000000000000000, 0.000000000000000000 ) ) ;
#833 = CARTESIAN_POINT ( 'NONE',  ( -9.999999999999998224, -8.999999999999991118, 4.000000000000000000 ) ) ;
#834 = DIRECTION ( 'NONE',  ( -0.000000000000000000, -0.000000000000000000, -1.000000000000000000 ) ) ;
#835 = ORIENTED_EDGE ( 'NONE', *, *, #939, .F. ) ;
#836 = DIRECTION ( 'NONE',  ( -0.000000000000000000, -0.000000000000000000, -1.000000000000000000 ) ) ;
#837 = CARTESIAN_POINT ( 'NONE',  ( 5.400000000000002132, 7.500000000000000000, 0.02500000000000071609 ) ) ;
#838 = DIRECTION ( 'NONE',  ( -0.000000000000000000, -0.000000000000000000, -1.000000000000000000 ) ) ;
#839 = ORIENTED_EDGE ( 'NONE', *, *, #195, .T. ) ;
#840 = EDGE_CURVE ( 'NONE', #71, #339, #608, .T. ) ;
#841 = ORIENTED_EDGE ( 'NONE', *, *, #468, .F. ) ;
#842 = ADVANCED_FACE ( 'NONE', ( #900 ), #556, .F. ) ;
#843 = CARTESIAN_POINT ( 'NONE',  ( 9.000000000000001776, 10.00000000000000178, 4.000000000000000000 ) ) ;
#844 = DIRECTION ( 'NONE',  ( 0.000000000000000000, 0.000000000000000000, -1.000000000000000000 ) ) ;
#845 = PRESENTATION_STYLE_ASSIGNMENT (( #47 ) ) ;
#846 = DIRECTION ( 'NONE',  ( 0.000000000000000000, 0.000000000000000000, -1.000000000000000000 ) ) ;
#847 = VERTEX_POINT ( 'NONE', #763 ) ;
#848 = MECHANICAL_DESIGN_GEOMETRIC_PRESENTATION_REPRESENTATION (  '', ( #142 ), #2 ) ;
#849 = UNCERTAINTY_MEASURE_WITH_UNIT (LENGTH_MEASURE( 1.000000000000000082E-05 ), #32, 'distance_accuracy_value', 'NONE');
#850 = AXIS2_PLACEMENT_3D ( 'NONE', #34, #759, #173 ) ;
#851 = VECTOR ( 'NONE', #952, 1000.000000000000000 ) ;
#852 = DIRECTION ( 'NONE',  ( 0.7071067811865474617, 8.659560562354932858E-17, -0.7071067811865474617 ) ) ;
#853 = LINE ( 'NONE', #97, #501 ) ;
#854 = ORIENTED_EDGE ( 'NONE', *, *, #411, .F. ) ;
#855 = EDGE_CURVE ( 'NONE', #685, #134, #54, .T. ) ;
#856 = CARTESIAN_POINT ( 'NONE',  ( -8.999999999999998224, 10.00000000000000178, 4.000000000000000000 ) ) ;
#857 = DIRECTION ( 'NONE',  ( 0.000000000000000000, 0.000000000000000000, -1.000000000000000000 ) ) ;
#858 = ORIENTED_EDGE ( 'NONE', *, *, #396, .T. ) ;
#859 = SURFACE_STYLE_FILL_AREA ( #930 ) ;
#860 = LINE ( 'NONE', #48, #551 ) ;
#861 = ORIENTED_EDGE ( 'NONE', *, *, #433, .F. ) ;
#862 = APPLICATION_CONTEXT ( 'automotive_design' ) ;
#863 = CIRCLE ( 'NONE', #24, 2.099999999999999645 ) ;
#864 = AXIS2_PLACEMENT_3D ( 'NONE', #100, #184, #387 ) ;
#865 = VECTOR ( 'NONE', #910, 1000.000000000000000 ) ;
#866 = DIRECTION ( 'NONE',  ( 1.000000000000000000, 0.000000000000000000, 0.000000000000000000 ) ) ;
#867 = LINE ( 'NONE', #639, #788 ) ;
#868 = EDGE_LOOP ( 'NONE', ( #306, #156, #390, #605 ) ) ;
#869 = ADVANCED_FACE ( 'NONE', ( #891 ), #204, .F. ) ;
#870 = DIRECTION ( 'NONE',  ( -1.000000000000000000, 0.000000000000000000, 0.000000000000000000 ) ) ;
#871 = VERTEX_POINT ( 'NONE', #149 ) ;
#872 = EDGE_CURVE ( 'NONE', #940, #112, #518, .T. ) ;
#873 = DIRECTION ( 'NONE',  ( -0.000000000000000000, -0.000000000000000000, -1.000000000000000000 ) ) ;
#874 = ORIENTED_EDGE ( 'NONE', *, *, #715, .T. ) ;
#875 = EDGE_CURVE ( 'NONE', #628, #251, #167, .T. ) ;
#876 = CARTESIAN_POINT ( 'NONE',  ( 8.999999999999994671, -9.999999999999998224, 4.000000000000000000 ) ) ;
#877 = CIRCLE ( 'NONE', #454, 3.750000000000000000 ) ;
#878 = DIRECTION ( 'NONE',  ( 1.000000000000000000, 0.000000000000000000, 0.000000000000000000 ) ) ;
#879 = EDGE_LOOP ( 'NONE', ( #403, #958 ) ) ;
#880 = EDGE_CURVE ( 'NONE', #479, #587, #29, .T. ) ;
#881 = FILL_AREA_STYLE ('',( #581 ) ) ;
#882 = PLANE ( 'NONE',  #365 ) ;
#883 = EDGE_LOOP ( 'NONE', ( #353, #874, #144, #619 ) ) ;
#884 = ORIENTED_EDGE ( 'NONE', *, *, #606, .T. ) ;
#885 = CARTESIAN_POINT ( 'NONE',  ( -9.999999999999998224, -9.999999999999998224, 0.000000000000000000 ) ) ;
#886 = DIRECTION ( 'NONE',  ( -1.000000000000000000, 0.000000000000000000, 0.000000000000000000 ) ) ;
#887 = EDGE_LOOP ( 'NONE', ( #436, #648 ) ) ;
#888 = CARTESIAN_POINT ( 'NONE',  ( -9.999999999999998224, -9.999999999999998224, 4.000000000000000000 ) ) ;
#889 =( GEOMETRIC_REPRESENTATION_CONTEXT ( 3 ) GLOBAL_UNCERTAINTY_ASSIGNED_CONTEXT ( ( #579 ) ) GLOBAL_UNIT_ASSIGNED_CONTEXT ( ( #604, #376, #916 ) ) REPRESENTATION_CONTEXT ( 'NONE', 'WORKASPACE' ) );
#890 = CARTESIAN_POINT ( 'NONE',  ( -9.999999999999998224, -9.999999999999998224, 0.000000000000000000 ) ) ;
#891 = FACE_OUTER_BOUND ( 'NONE', #622, .T. ) ;
#892 = ORIENTED_EDGE ( 'NONE', *, *, #948, .T. ) ;
#893 = EDGE_CURVE ( 'NONE', #657, #109, #384, .T. ) ;
#894 = ORIENTED_EDGE ( 'NONE', *, *, #875, .T. ) ;
#895 = CARTESIAN_POINT ( 'NONE',  ( -7.499999999999998224, -7.500000000000000000, 0.000000000000000000 ) ) ;
#896 = CARTESIAN_POINT ( 'NONE',  ( -9.599999999999996092, -7.500000000000000000, 0.000000000000000000 ) ) ;
#897 = ORIENTED_EDGE ( 'NONE', *, *, #782, .F. ) ;
#898 = DIRECTION ( 'NONE',  ( 0.000000000000000000, 0.000000000000000000, -1.000000000000000000 ) ) ;
#899 = DIRECTION ( 'NONE',  ( -0.000000000000000000, -0.000000000000000000, -1.000000000000000000 ) ) ;
#900 = FACE_OUTER_BOUND ( 'NONE', #267, .T. ) ;
#901 = ORIENTED_EDGE ( 'NONE', *, *, #146, .F. ) ;
#902 = FACE_OUTER_BOUND ( 'NONE', #795, .T. ) ;
#903 = FACE_OUTER_BOUND ( 'NONE', #81, .T. ) ;
#904 = CARTESIAN_POINT ( 'NONE',  ( 8.999999999999994671, -9.999999999999998224, 0.000000000000000000 ) ) ;
#905 = EDGE_LOOP ( 'NONE', ( #203, #412, #186, #76 ) ) ;
#906 = VECTOR ( 'NONE', #451, 1000.000000000000114 ) ;
#907 = DIRECTION ( 'NONE',  ( -0.000000000000000000, -0.000000000000000000, -1.000000000000000000 ) ) ;
#908 = ADVANCED_FACE ( 'NONE', ( #903 ), #15, .F. ) ;
#909 = PLANE ( 'NONE',  #182 ) ;
#910 = DIRECTION ( 'NONE',  ( -0.7071067811865487940, -0.7071067811865463515, -0.000000000000000000 ) ) ;
#911 = DIRECTION ( 'NONE',  ( 0.7071067811865487940, 0.7071067811865462405, 0.000000000000000000 ) ) ;
#912 = EDGE_CURVE ( 'NONE', #510, #124, #90, .T. ) ;
#913 = ORIENTED_EDGE ( 'NONE', *, *, #234, .T. ) ;
#914 = LINE ( 'NONE', #99, #477 ) ;
#915 = CARTESIAN_POINT ( 'NONE',  ( -7.499999999999998224, 7.500000000000000000, 0.02500000000000071609 ) ) ;
#916 =( NAMED_UNIT ( * ) SI_UNIT ( $, .STERADIAN. ) SOLID_ANGLE_UNIT ( ) );
#917 = ORIENTED_EDGE ( 'NONE', *, *, #693, .T. ) ;
#918 = VERTEX_POINT ( 'NONE', #388 ) ;
#919 = DIRECTION ( 'NONE',  ( -1.000000000000000000, 0.000000000000000000, 0.000000000000000000 ) ) ;
#920 = DIRECTION ( 'NONE',  ( 1.000000000000000000, 0.000000000000000000, 0.000000000000000000 ) ) ;
#921 = ORIENTED_EDGE ( 'NONE', *, *, #523, .F. ) ;
#922 = VECTOR ( 'NONE', #458, 1000.000000000000000 ) ;
#923 = VECTOR ( 'NONE', #333, 1000.000000000000000 ) ;
#924 = CIRCLE ( 'NONE', #950, 3.750000000000000000 ) ;
#925 = TOROIDAL_SURFACE ( 'NONE', #830, 3.250000000000000000, 0.5000000000000000000 ) ;
#926 = LINE ( 'NONE', #409, #245 ) ;
#927 = VECTOR ( 'NONE', #452, 1000.000000000000114 ) ;
#928 = CYLINDRICAL_SURFACE ( 'NONE', #242, 2.099999999999997868 ) ;
#929 = ORIENTED_EDGE ( 'NONE', *, *, #290, .F. ) ;
#930 = FILL_AREA_STYLE ('',( #485 ) ) ;
#931 = CARTESIAN_POINT ( 'NONE',  ( -9.999999999999998224, -9.999999999999998224, 4.000000000000000000 ) ) ;
#932 = EDGE_LOOP ( 'NONE', ( #298, #573, #611, #356, #744, #199, #527, #98 ) ) ;
#933 = DIRECTION ( 'NONE',  ( -1.000000000000000000, 0.000000000000000000, 0.000000000000000000 ) ) ;
#934 = ORIENTED_EDGE ( 'NONE', *, *, #912, .T. ) ;
#935 = CIRCLE ( 'NONE', #516, 2.099999999999997868 ) ;
#936 = AXIS2_PLACEMENT_3D ( 'NONE', #183, #836, #13 ) ;
#937 = AXIS2_PLACEMENT_3D ( 'NONE', #528, #14, #314 ) ;
#938 = DIRECTION ( 'NONE',  ( 0.000000000000000000, 1.000000000000000000, 0.000000000000000000 ) ) ;
#939 = EDGE_CURVE ( 'NONE', #31, #531, #263, .T. ) ;
#940 = VERTEX_POINT ( 'NONE', #5 ) ;
#941 = ADVANCED_FACE ( 'NONE', ( #526 ), #537, .F. ) ;
#942 = FACE_OUTER_BOUND ( 'NONE', #787, .T. ) ;
#943 = VERTEX_POINT ( 'NONE', #609 ) ;
#944 = EDGE_CURVE ( 'NONE', #251, #957, #154, .T. ) ;
#945 = CARTESIAN_POINT ( 'NONE',  ( -3.750000000000000000, 0.000000000000000000, 14.00000000000000000 ) ) ;
#946 = CARTESIAN_POINT ( 'NONE',  ( 3.750000000000000000, 4.592425496802573972E-16, 13.50000000000000000 ) ) ;
#947 = ORIENTED_EDGE ( 'NONE', *, *, #78, .F. ) ;
#948 = EDGE_CURVE ( 'NONE', #109, #940, #617, .T. ) ;
#949 = DIRECTION ( 'NONE',  ( -1.000000000000000000, 0.000000000000000000, 0.000000000000000000 ) ) ;
#950 = AXIS2_PLACEMENT_3D ( 'NONE', #790, #647, #570 ) ;
#951 = AXIS2_PLACEMENT_3D ( 'NONE', #247, #540, #682 ) ;
#952 = DIRECTION ( 'NONE',  ( -0.7071067811865597852, 0.000000000000000000, -0.7071067811865352493 ) ) ;
#953 = ORIENTED_EDGE ( 'NONE', *, *, #329, .F. ) ;
#954 = ORIENTED_EDGE ( 'NONE', *, *, #364, .T. ) ;
#955 = LINE ( 'NONE', #301, #489 ) ;
#956 = CARTESIAN_POINT ( 'NONE',  ( 5.400000000000003908, 7.500000000000000000, 0.000000000000000000 ) ) ;
#957 = VERTEX_POINT ( 'NONE', #249 ) ;
#958 = ORIENTED_EDGE ( 'NONE', *, *, #672, .F. ) ;
#959 = FACE_OUTER_BOUND ( 'NONE', #793, .T. ) ;
#960 = EDGE_CURVE ( 'NONE', #807, #138, #514, .T. ) ;
#961 = CARTESIAN_POINT ( 'NONE',  ( -9.999999999999998224, 9.000000000000001776, 4.000000000000000000 ) ) ;
#962 = ORIENTED_EDGE ( 'NONE', *, *, #104, .F. ) ;
ENDSEC;
END-ISO-10303-21;
