ISO-10303-21;
HEADER;
FILE_DESCRIPTION (( 'STEP AP214' ),
    '1' );
FILE_NAME ('µ¯»É×ù2.step',
    '2023-08-15T02:59:56',
    ( '' ),
    ( '' ),
    'SwSTEP 2.0',
    'SolidWorks 2022',
    '' );
FILE_SCHEMA (( 'AUTOMOTIVE_DESIGN' ));
ENDSEC;

DATA;
#1 = CARTESIAN_POINT ( 'NONE',  ( -4.221638066448313964, 7.500000000000000000, 4.975000000000004974 ) ) ;
#2 = DIRECTION ( 'NONE',  ( -0.000000000000000000, -0.000000000000000000, 1.000000000000000000 ) ) ;
#3 = ORIENTED_EDGE ( 'NONE', *, *, #918, .F. ) ;
#4 = VERTEX_POINT ( 'NONE', #331 ) ;
#5 = VECTOR ( 'NONE', #34, 1000.000000000000000 ) ;
#6 = ADVANCED_FACE ( 'NONE', ( #559 ), #476, .F. ) ;
#7 = PRODUCT_DEFINITION ( 'Î´Öª', '', #312, #931 ) ;
#8 = CARTESIAN_POINT ( 'NONE',  ( -21.29663806644831325, -7.500000000000000000, 5.000000000000002665 ) ) ;
#9 = CARTESIAN_POINT ( 'NONE',  ( -17.17163806644831325, -7.500000000000000000, 0.000000000000000000 ) ) ;
#10 = ORIENTED_EDGE ( 'NONE', *, *, #301, .T. ) ;
#11 = EDGE_CURVE ( 'NONE', #872, #587, #243, .T. ) ;
#12 = DIRECTION ( 'NONE',  ( 1.000000000000000000, 0.000000000000000000, 0.000000000000000000 ) ) ;
#13 = DIRECTION ( 'NONE',  ( -0.7880107536067260110, 0.000000000000000000, -0.6156614753256530737 ) ) ;
#14 = EDGE_LOOP ( 'NONE', ( #397, #459, #950, #961 ) ) ;
#15 = CONICAL_SURFACE ( 'NONE', #61, 2.075000000000000622, 0.7853981633975003485 ) ;
#16 = CARTESIAN_POINT ( 'NONE',  ( -4.221638066448313964, 7.500000000000000000, 5.000000000000002665 ) ) ;
#17 = CYLINDRICAL_SURFACE ( 'NONE', #927, 2.049999999999998934 ) ;
#18 = ADVANCED_FACE ( 'NONE', ( #858 ), #634, .F. ) ;
#19 = VECTOR ( 'NONE', #328, 1000.000000000000000 ) ;
#20 = VERTEX_POINT ( 'NONE', #701 ) ;
#21 = AXIS2_PLACEMENT_3D ( 'NONE', #419, #147, #727 ) ;
#22 =( GEOMETRIC_REPRESENTATION_CONTEXT ( 3 ) GLOBAL_UNCERTAINTY_ASSIGNED_CONTEXT ( ( #480 ) ) GLOBAL_UNIT_ASSIGNED_CONTEXT ( ( #661, #718, #335 ) ) REPRESENTATION_CONTEXT ( 'NONE', 'WORKASPACE' ) );
#23 = CARTESIAN_POINT ( 'NONE',  ( -19.22163806644831041, 7.500000000000000000, 5.000000000000002665 ) ) ;
#24 = AXIS2_PLACEMENT_3D ( 'NONE', #870, #513, #939 ) ;
#25 = LINE ( 'NONE', #113, #827 ) ;
#26 = ORIENTED_EDGE ( 'NONE', *, *, #548, .F. ) ;
#27 = FACE_OUTER_BOUND ( 'NONE', #737, .T. ) ;
#28 = DIRECTION ( 'NONE',  ( -0.6156614753256531847, 0.000000000000000000, 0.7880107536067260110 ) ) ;
#29 = AXIS2_PLACEMENT_3D ( 'NONE', #912, #250, #549 ) ;
#30 = CARTESIAN_POINT ( 'NONE',  ( 11.89389694189951818, -10.00000000000000000, 15.63762179922104067 ) ) ;
#31 = ORIENTED_EDGE ( 'NONE', *, *, #697, .T. ) ;
#32 = DIRECTION ( 'NONE',  ( 1.000000000000000000, 0.000000000000000000, 0.000000000000000000 ) ) ;
#33 = CARTESIAN_POINT ( 'NONE',  ( 16.59775723854565044, 4.286263797015735116E-16, 0.2774070119976493332 ) ) ;
#34 = DIRECTION ( 'NONE',  ( -0.000000000000000000, -0.000000000000000000, 1.000000000000000000 ) ) ;
#35 = FACE_OUTER_BOUND ( 'NONE', #764, .T. ) ;
#36 = AXIS2_PLACEMENT_3D ( 'NONE', #288, #577, #63 ) ;
#37 = VECTOR ( 'NONE', #180, 1000.000000000000000 ) ;
#38 = DIRECTION ( 'NONE',  ( 0.000000000000000000, -0.000000000000000000, -1.000000000000000000 ) ) ;
#39 = CIRCLE ( 'NONE', #163, 3.749999999999999112 ) ;
#40 = LINE ( 'NONE', #639, #347 ) ;
#41 = CARTESIAN_POINT ( 'NONE',  ( -4.221638066448313964, 7.500000000000000000, 0.000000000000000000 ) ) ;
#42 = CIRCLE ( 'NONE', #90, 2.075000000000000622 ) ;
#43 = CARTESIAN_POINT ( 'NONE',  ( -6.271638066448312898, 7.500000000000000000, 0.000000000000000000 ) ) ;
#44 = UNCERTAINTY_MEASURE_WITH_UNIT (LENGTH_MEASURE( 1.000000000000000082E-05 ), #612, 'distance_accuracy_value', 'NONE');
#45 = CARTESIAN_POINT ( 'NONE',  ( -6.296638066448314142, 7.500000000000000000, 5.000000000000002665 ) ) ;
#46 = CYLINDRICAL_SURFACE ( 'NONE', #491, 2.049999999999998934 ) ;
#47 = EDGE_CURVE ( 'NONE', #736, #374, #523, .T. ) ;
#48 = DIRECTION ( 'NONE',  ( -0.000000000000000000, -0.000000000000000000, 1.000000000000000000 ) ) ;
#49 = DIRECTION ( 'NONE',  ( -0.000000000000000000, -0.000000000000000000, 1.000000000000000000 ) ) ;
#50 = APPLICATION_PROTOCOL_DEFINITION ( 'draft international standard', 'automotive_design', 1998, #619 ) ;
#51 = DIRECTION ( 'NONE',  ( 0.000000000000000000, 0.000000000000000000, -1.000000000000000000 ) ) ;
#52 = DIRECTION ( 'NONE',  ( 1.000000000000000000, 0.000000000000000000, 0.000000000000000000 ) ) ;
#53 = EDGE_CURVE ( 'NONE', #943, #169, #922, .T. ) ;
#54 = LINE ( 'NONE', #271, #119 ) ;
#55 = VERTEX_POINT ( 'NONE', #777 ) ;
#56 = DIRECTION ( 'NONE',  ( -0.000000000000000000, -0.000000000000000000, 1.000000000000000000 ) ) ;
#57 = DIRECTION ( 'NONE',  ( -0.000000000000000000, -1.000000000000000000, -0.000000000000000000 ) ) ;
#58 = ORIENTED_EDGE ( 'NONE', *, *, #575, .F. ) ;
#59 = EDGE_CURVE ( 'NONE', #665, #736, #717, .T. ) ;
#60 = SURFACE_STYLE_FILL_AREA ( #653 ) ;
#61 = AXIS2_PLACEMENT_3D ( 'NONE', #446, #538, #830 ) ;
#62 = ORIENTED_EDGE ( 'NONE', *, *, #123, .T. ) ;
#63 = DIRECTION ( 'NONE',  ( 1.000000000000000000, 0.000000000000000000, 0.000000000000000000 ) ) ;
#64 = LINE ( 'NONE', #793, #937 ) ;
#65 = ORIENTED_EDGE ( 'NONE', *, *, #869, .F. ) ;
#66 = ORIENTED_EDGE ( 'NONE', *, *, #414, .T. ) ;
#67 = ORIENTED_EDGE ( 'NONE', *, *, #132, .T. ) ;
#68 = DIRECTION ( 'NONE',  ( 0.000000000000000000, 0.000000000000000000, 1.000000000000000000 ) ) ;
#69 = CIRCLE ( 'NONE', #437, 2.049999999999998934 ) ;
#70 = ORIENTED_EDGE ( 'NONE', *, *, #493, .F. ) ;
#71 = ORIENTED_EDGE ( 'NONE', *, *, #123, .F. ) ;
#72 = MECHANICAL_DESIGN_GEOMETRIC_PRESENTATION_REPRESENTATION (  '', ( #660 ), #378 ) ;
#73 = AXIS2_PLACEMENT_3D ( 'NONE', #420, #407, #402 ) ;
#74 = DIRECTION ( 'NONE',  ( -9.650348470981703915E-17, 1.000000000000000000, -7.539678551158985756E-17 ) ) ;
#75 = EDGE_CURVE ( 'NONE', #544, #875, #127, .T. ) ;
#76 = ORIENTED_EDGE ( 'NONE', *, *, #849, .F. ) ;
#77 = ORIENTED_EDGE ( 'NONE', *, *, #907, .T. ) ;
#78 = DIRECTION ( 'NONE',  ( -0.000000000000000000, -0.000000000000000000, 1.000000000000000000 ) ) ;
#79 = CARTESIAN_POINT ( 'NONE',  ( -17.17163806644831325, 7.500000000000000000, 5.000000000000002665 ) ) ;
#80 = ADVANCED_FACE ( 'NONE', ( #638 ), #641, .F. ) ;
#81 = ORIENTED_EDGE ( 'NONE', *, *, #179, .T. ) ;
#82 = ORIENTED_EDGE ( 'NONE', *, *, #438, .F. ) ;
#83 = CARTESIAN_POINT ( 'NONE',  ( -21.29663806644831325, -7.500000000000000000, 5.000000000000002665 ) ) ;
#84 = DIRECTION ( 'NONE',  ( -0.000000000000000000, -1.000000000000000000, -0.000000000000000000 ) ) ;
#85 = EDGE_LOOP ( 'NONE', ( #882, #223, #802, #873 ) ) ;
#86 = ORIENTED_EDGE ( 'NONE', *, *, #681, .F. ) ;
#87 = CIRCLE ( 'NONE', #409, 2.049999999999998934 ) ;
#88 = VECTOR ( 'NONE', #118, 1000.000000000000000 ) ;
#89 = ADVANCED_FACE ( 'NONE', ( #35 ), #46, .F. ) ;
#90 = AXIS2_PLACEMENT_3D ( 'NONE', #465, #450, #12 ) ;
#91 = LINE ( 'NONE', #83, #782 ) ;
#92 = EDGE_LOOP ( 'NONE', ( #958, #729 ) ) ;
#93 = EDGE_CURVE ( 'NONE', #154, #801, #851, .T. ) ;
#94 = FACE_OUTER_BOUND ( 'NONE', #360, .T. ) ;
#95 = DIRECTION ( 'NONE',  ( 1.000000000000000000, 0.000000000000000000, 0.000000000000000000 ) ) ;
#96 = ORIENTED_EDGE ( 'NONE', *, *, #215, .T. ) ;
#97 = DIRECTION ( 'NONE',  ( 1.000000000000000000, 0.000000000000000000, 0.000000000000000000 ) ) ;
#98 = CARTESIAN_POINT ( 'NONE',  ( -2.146638066448313786, -7.500000000000000000, 5.000000000000002665 ) ) ;
#99 = ORIENTED_EDGE ( 'NONE', *, *, #636, .T. ) ;
#100 = DIRECTION ( 'NONE',  ( -0.6156614753256534067, -0.000000000000000000, 0.7880107536067257890 ) ) ;
#101 = LINE ( 'NONE', #694, #949 ) ;
#102 = CIRCLE ( 'NONE', #642, 2.049999999999999822 ) ;
#103 = EDGE_CURVE ( 'NONE', #840, #731, #340, .T. ) ;
#104 = EDGE_LOOP ( 'NONE', ( #846, #160, #810, #817 ) ) ;
#105 = CIRCLE ( 'NONE', #601, 2.075000000000000178 ) ;
#106 = CARTESIAN_POINT ( 'NONE',  ( -19.22163806644831041, 7.500000000000000000, 5.000000000000002665 ) ) ;
#107 = DIRECTION ( 'NONE',  ( -1.000000000000000000, 0.000000000000000000, 1.296719717648562425E-16 ) ) ;
#108 = AXIS2_PLACEMENT_3D ( 'NONE', #317, #478, #620 ) ;
#109 = CARTESIAN_POINT ( 'NONE',  ( -2.171638066448314586, 7.500000000000000000, 5.000000000000002665 ) ) ;
#110 = DIRECTION ( 'NONE',  ( -0.000000000000000000, -0.000000000000000000, 1.000000000000000000 ) ) ;
#111 = EDGE_CURVE ( 'NONE', #890, #886, #267, .T. ) ;
#112 = DIRECTION ( 'NONE',  ( 0.6156614753256534067, -0.000000000000000000, -0.7880107536067257890 ) ) ;
#113 = CARTESIAN_POINT ( 'NONE',  ( 12.68190769550624886, -8.999999999999992895, 16.25328327454669974 ) ) ;
#114 = CARTESIAN_POINT ( 'NONE',  ( -21.72163806644831396, 10.00000000000000000, 5.000000000000002665 ) ) ;
#115 = CARTESIAN_POINT ( 'NONE',  ( -21.29663806644831325, 7.500000000000000000, 5.000000000000002665 ) ) ;
#116 = AXIS2_PLACEMENT_3D ( 'NONE', #503, #784, #280 ) ;
#117 = AXIS2_PLACEMENT_3D ( 'NONE', #881, #433, #735 ) ;
#118 = DIRECTION ( 'NONE',  ( -0.7880107536067257890, -0.000000000000000000, -0.6156614753256534067 ) ) ;
#119 = VECTOR ( 'NONE', #198, 1000.000000000000000 ) ;
#120 = CARTESIAN_POINT ( 'NONE',  ( 14.97220431852780109, 10.00000000000000000, 11.69756803118741217 ) ) ;
#121 = DIRECTION ( 'NONE',  ( -0.000000000000000000, -0.000000000000000000, 1.000000000000000000 ) ) ;
#122 = AXIS2_PLACEMENT_3D ( 'NONE', #888, #819, #97 ) ;
#123 = EDGE_CURVE ( 'NONE', #374, #736, #816, .T. ) ;
#124 = LINE ( 'NONE', #716, #37 ) ;
#125 = CARTESIAN_POINT ( 'NONE',  ( -1.721638066448313076, 10.00000000000000000, 5.000000000000002665 ) ) ;
#126 = DIRECTION ( 'NONE',  ( -0.000000000000000000, -0.000000000000000000, 1.000000000000000000 ) ) ;
#127 = LINE ( 'NONE', #554, #812 ) ;
#128 = VECTOR ( 'NONE', #428, 1000.000000000000000 ) ;
#129 = VECTOR ( 'NONE', #622, 1000.000000000000000 ) ;
#130 = FACE_BOUND ( 'NONE', #590, .T. ) ;
#131 = DIRECTION ( 'NONE',  ( 1.000000000000000000, 0.000000000000000000, 0.000000000000000000 ) ) ;
#132 = EDGE_CURVE ( 'NONE', #588, #943, #64, .T. ) ;
#133 = ORIENTED_EDGE ( 'NONE', *, *, #557, .T. ) ;
#134 = ORIENTED_EDGE ( 'NONE', *, *, #837, .F. ) ;
#135 = FACE_BOUND ( 'NONE', #947, .T. ) ;
#136 = DIRECTION ( 'NONE',  ( -0.000000000000000000, -0.000000000000000000, 1.000000000000000000 ) ) ;
#137 = ORIENTED_EDGE ( 'NONE', *, *, #711, .T. ) ;
#138 = VERTEX_POINT ( 'NONE', #877 ) ;
#139 = EDGE_CURVE ( 'NONE', #875, #734, #105, .T. ) ;
#140 =( NAMED_UNIT ( * ) SI_UNIT ( $, .STERADIAN. ) SOLID_ANGLE_UNIT ( ) );
#141 = ORIENTED_EDGE ( 'NONE', *, *, #215, .F. ) ;
#142 = CARTESIAN_POINT ( 'NONE',  ( -2.171638066448314586, -7.500000000000000000, 5.000000000000002665 ) ) ;
#143 = CARTESIAN_POINT ( 'NONE',  ( 13.72889155166096486, 0.000000000000000000, -1.329487406007360706 ) ) ;
#144 = ORIENTED_EDGE ( 'NONE', *, *, #791, .T. ) ;
#145 = EDGE_LOOP ( 'NONE', ( #807, #696, #823, #218 ) ) ;
#146 = ADVANCED_FACE ( 'NONE', ( #585 ), #277, .F. ) ;
#147 = DIRECTION ( 'NONE',  ( -0.000000000000000000, -0.000000000000000000, 1.000000000000000000 ) ) ;
#148 = ORIENTED_EDGE ( 'NONE', *, *, #739, .F. ) ;
#149 = ORIENTED_EDGE ( 'NONE', *, *, #948, .F. ) ;
#150 = AXIS2_PLACEMENT_3D ( 'NONE', #41, #110, #181 ) ;
#151 = ADVANCED_FACE ( 'NONE', ( #212 ), #226, .T. ) ;
#152 = DIRECTION ( 'NONE',  ( -0.5572077475232400934, -0.7071067811865444641, -0.4353384041180855535 ) ) ;
#153 = CARTESIAN_POINT ( 'NONE',  ( 15.76021507213451400, 10.00000000000000000, 12.31322950651306769 ) ) ;
#154 = VERTEX_POINT ( 'NONE', #804 ) ;
#155 = EDGE_LOOP ( 'NONE', ( #955, #290, #230, #58, #363, #796 ) ) ;
#156 = VECTOR ( 'NONE', #100, 1000.000000000000000 ) ;
#157 = DIRECTION ( 'NONE',  ( 0.000000000000000000, -1.000000000000000000, 0.000000000000000000 ) ) ;
#158 = ORIENTED_EDGE ( 'NONE', *, *, #190, .T. ) ;
#159 = EDGE_CURVE ( 'NONE', #55, #946, #507, .T. ) ;
#160 = ORIENTED_EDGE ( 'NONE', *, *, #711, .F. ) ;
#161 = DIRECTION ( 'NONE',  ( 0.000000000000000000, -0.000000000000000000, -1.000000000000000000 ) ) ;
#162 =( NAMED_UNIT ( * ) PLANE_ANGLE_UNIT ( ) SI_UNIT ( $, .RADIAN. ) );
#163 = AXIS2_PLACEMENT_3D ( 'NONE', #405, #410, #924 ) ;
#164 = EDGE_LOOP ( 'NONE', ( #957, #295, #383, #141 ) ) ;
#165 = EDGE_CURVE ( 'NONE', #544, #519, #473, .T. ) ;
#166 = CIRCLE ( 'NONE', #380, 2.049999999999999822 ) ;
#167 = CARTESIAN_POINT ( 'NONE',  ( -1.721638066448313076, 10.00000000000000000, 5.000000000000002665 ) ) ;
#168 = CARTESIAN_POINT ( 'NONE',  ( 11.47568734010193481, 0.000000000000000000, -3.724392577619096478 ) ) ;
#169 = VERTEX_POINT ( 'NONE', #274 ) ;
#170 = CARTESIAN_POINT ( 'NONE',  ( -17.17163806644831325, -7.500000000000000000, 4.975000000000004974 ) ) ;
#171 = CARTESIAN_POINT ( 'NONE',  ( -21.29663806644831325, 7.500000000000000000, 5.000000000000002665 ) ) ;
#172 = ORIENTED_EDGE ( 'NONE', *, *, #103, .T. ) ;
#173 = EDGE_CURVE ( 'NONE', #448, #176, #429, .T. ) ;
#174 = LINE ( 'NONE', #468, #156 ) ;
#175 = DIRECTION ( 'NONE',  ( -0.000000000000000000, -0.000000000000000000, 1.000000000000000000 ) ) ;
#176 = VERTEX_POINT ( 'NONE', #952 ) ;
#177 = CARTESIAN_POINT ( 'NONE',  ( -2.146638066448313786, 7.500000000000000000, 5.000000000000002665 ) ) ;
#178 = CARTESIAN_POINT ( 'NONE',  ( -21.27163806644831112, -7.500000000000000000, 0.000000000000000000 ) ) ;
#179 = EDGE_CURVE ( 'NONE', #470, #640, #285, .T. ) ;
#180 = DIRECTION ( 'NONE',  ( 0.000000000000000000, 0.000000000000000000, 1.000000000000000000 ) ) ;
#181 = DIRECTION ( 'NONE',  ( 1.000000000000000000, 0.000000000000000000, 0.000000000000000000 ) ) ;
#182 = CARTESIAN_POINT ( 'NONE',  ( 0.000000000000000000, 10.00000000000000000, 0.000000000000000000 ) ) ;
#183 = DIRECTION ( 'NONE',  ( 0.5572077475232377619, 0.7071067811865473507, 0.4353384041180837216 ) ) ;
#184 = CARTESIAN_POINT ( 'NONE',  ( 14.03672228932379262, 0.000000000000000000, -1.723492782810723378 ) ) ;
#185 = ORIENTED_EDGE ( 'NONE', *, *, #262, .T. ) ;
#186 = EDGE_CURVE ( 'NONE', #427, #581, #69, .T. ) ;
#187 = FACE_BOUND ( 'NONE', #92, .T. ) ;
#188 = DIRECTION ( 'NONE',  ( 0.5572077475232350974, -0.7071067811865505703, 0.4353384041180819453 ) ) ;
#189 = DIRECTION ( 'NONE',  ( -0.7880107536067256779, 0.000000000000000000, -0.6156614753256534067 ) ) ;
#190 = EDGE_CURVE ( 'NONE', #748, #443, #903, .T. ) ;
#191 = FACE_OUTER_BOUND ( 'NONE', #155, .T. ) ;
#192 = AXIS2_PLACEMENT_3D ( 'NONE', #839, #175, #484 ) ;
#193 = DIRECTION ( 'NONE',  ( -0.000000000000000000, -1.000000000000000000, -0.000000000000000000 ) ) ;
#194 = DIRECTION ( 'NONE',  ( -0.000000000000000000, -0.000000000000000000, 1.000000000000000000 ) ) ;
#195 = AXIS2_PLACEMENT_3D ( 'NONE', #708, #930, #189 ) ;
#196 = PLANE ( 'NONE',  #552 ) ;
#197 = DIRECTION ( 'NONE',  ( 0.000000000000000000, 0.000000000000000000, -1.000000000000000000 ) ) ;
#198 = DIRECTION ( 'NONE',  ( -0.000000000000000000, -1.000000000000000000, -0.000000000000000000 ) ) ;
#199 = CARTESIAN_POINT ( 'NONE',  ( -2.171638066448314142, 7.500000000000000000, 4.975000000000004974 ) ) ;
#200 = DIRECTION ( 'NONE',  ( -0.7880107536067257890, 0.000000000000000000, -0.6156614753256534067 ) ) ;
#201 =( NAMED_UNIT ( * ) PLANE_ANGLE_UNIT ( ) SI_UNIT ( $, .RADIAN. ) );
#202 = CIRCLE ( 'NONE', #36, 2.075000000000000178 ) ;
#203 = COLOUR_RGB ( '',1.000000000000000000, 1.000000000000000000, 1.000000000000000000 ) ;
#204 = EDGE_LOOP ( 'NONE', ( #70, #134 ) ) ;
#205 = LINE ( 'NONE', #792, #841 ) ;
#206 = DIRECTION ( 'NONE',  ( 0.6156614753256534067, 0.000000000000000000, -0.7880107536067257890 ) ) ;
#207 = ORIENTED_EDGE ( 'NONE', *, *, #844, .F. ) ;
#208 = ORIENTED_EDGE ( 'NONE', *, *, #681, .T. ) ;
#209 = AXIS2_PLACEMENT_3D ( 'NONE', #384, #684, #308 ) ;
#210 = ORIENTED_EDGE ( 'NONE', *, *, #173, .T. ) ;
#211 = LINE ( 'NONE', #951, #627 ) ;
#212 = FACE_OUTER_BOUND ( 'NONE', #599, .T. ) ;
#213 = ORIENTED_EDGE ( 'NONE', *, *, #934, .T. ) ;
#214 = ORIENTED_EDGE ( 'NONE', *, *, #139, .T. ) ;
#215 = EDGE_CURVE ( 'NONE', #832, #373, #956, .T. ) ;
#216 = CARTESIAN_POINT ( 'NONE',  ( -17.17163806644831325, -7.500000000000000000, 5.000000000000002665 ) ) ;
#217 = ORIENTED_EDGE ( 'NONE', *, *, #75, .T. ) ;
#218 = ORIENTED_EDGE ( 'NONE', *, *, #941, .T. ) ;
#219 = EDGE_CURVE ( 'NONE', #801, #425, #876, .T. ) ;
#220 = FACE_OUTER_BOUND ( 'NONE', #286, .T. ) ;
#221 = LINE ( 'NONE', #451, #852 ) ;
#222 = ORIENTED_EDGE ( 'NONE', *, *, #426, .F. ) ;
#223 = ORIENTED_EDGE ( 'NONE', *, *, #186, .F. ) ;
#224 = VECTOR ( 'NONE', #789, 1000.000000000000000 ) ;
#225 = CIRCLE ( 'NONE', #502, 2.049999999999999822 ) ;
#226 = TOROIDAL_SURFACE ( 'NONE', #568, 3.249999999999998668, 0.5000000000000000000 ) ;
#227 = PLANE ( 'NONE',  #953 ) ;
#228 = FILL_AREA_STYLE ('',( #672 ) ) ;
#229 = ORIENTED_EDGE ( 'NONE', *, *, #165, .F. ) ;
#230 = ORIENTED_EDGE ( 'NONE', *, *, #179, .F. ) ;
#231 = CONICAL_SURFACE ( 'NONE', #617, 2.075000000000000622, 0.7853981633975003485 ) ;
#232 = DIRECTION ( 'NONE',  ( 0.6156614753256530737, 0.000000000000000000, -0.7880107536067260110 ) ) ;
#233 = PLANE ( 'NONE',  #483 ) ;
#234 = ADVANCED_FACE ( 'NONE', ( #938 ), #361, .F. ) ;
#235 = ORIENTED_EDGE ( 'NONE', *, *, #245, .T. ) ;
#236 = CARTESIAN_POINT ( 'NONE',  ( -21.72163806644831396, -10.00000000000000000, 5.000000000000002665 ) ) ;
#237 = LINE ( 'NONE', #533, #898 ) ;
#238 = ORIENTED_EDGE ( 'NONE', *, *, #132, .F. ) ;
#239 = AXIS2_PLACEMENT_3D ( 'NONE', #663, #367, #348 ) ;
#240 = PRESENTATION_LAYER_ASSIGNMENT (  '', '', ( #660 ) ) ;
#241 = CONICAL_SURFACE ( 'NONE', #797, 2.075000000000000622, 0.7853981633975003485 ) ;
#242 = CARTESIAN_POINT ( 'NONE',  ( 14.97220431852778333, -10.00000000000000000, 11.69756803118741040 ) ) ;
#243 = CIRCLE ( 'NONE', #150, 2.049999999999998934 ) ;
#244 = ORIENTED_EDGE ( 'NONE', *, *, #190, .F. ) ;
#245 = EDGE_CURVE ( 'NONE', #587, #872, #392, .T. ) ;
#246 = DIRECTION ( 'NONE',  ( -0.000000000000000000, -0.000000000000000000, 1.000000000000000000 ) ) ;
#247 = FACE_OUTER_BOUND ( 'NONE', #509, .T. ) ;
#248 = ORIENTED_EDGE ( 'NONE', *, *, #173, .F. ) ;
#249 = EDGE_CURVE ( 'NONE', #886, #373, #500, .T. ) ;
#250 = DIRECTION ( 'NONE',  ( -0.6156614753256534067, 0.000000000000000000, 0.7880107536067257890 ) ) ;
#251 = CARTESIAN_POINT ( 'NONE',  ( -21.27163806644831112, 7.500000000000000000, 5.000000000000002665 ) ) ;
#252 = LINE ( 'NONE', #785, #677 ) ;
#253 = EDGE_LOOP ( 'NONE', ( #235, #954 ) ) ;
#254 = AXIS2_PLACEMENT_3D ( 'NONE', #573, #126, #740 ) ;
#255 = AXIS2_PLACEMENT_3D ( 'NONE', #153, #13, #763 ) ;
#256 = PLANE ( 'NONE',  #29 ) ;
#257 = FACE_BOUND ( 'NONE', #579, .T. ) ;
#258 = ADVANCED_FACE ( 'NONE', ( #517 ), #422, .F. ) ;
#259 = LINE ( 'NONE', #475, #529 ) ;
#260 = EDGE_LOOP ( 'NONE', ( #278, #320, #883, #724 ) ) ;
#261 = DIRECTION ( 'NONE',  ( 1.000000000000000000, 0.000000000000000000, 0.000000000000000000 ) ) ;
#262 = EDGE_CURVE ( 'NONE', #588, #425, #205, .T. ) ;
#263 = DIRECTION ( 'NONE',  ( -0.6156614753256534067, -0.000000000000000000, 0.7880107536067257890 ) ) ;
#264 = DIRECTION ( 'NONE',  ( 0.7880107536067260110, 0.000000000000000000, 0.6156614753256532957 ) ) ;
#265 = CARTESIAN_POINT ( 'NONE',  ( 0.000000000000000000, 10.00000000000000000, 0.000000000000000000 ) ) ;
#266 = DIRECTION ( 'NONE',  ( -0.7071067811865843211, 8.659560562355383988E-17, 0.7071067811865107133 ) ) ;
#267 = LINE ( 'NONE', #486, #366 ) ;
#268 = DIRECTION ( 'NONE',  ( 1.000000000000000000, 0.000000000000000000, 0.000000000000000000 ) ) ;
#269 = EDGE_LOOP ( 'NONE', ( #81, #535, #781, #416, #442, #562 ) ) ;
#270 = EDGE_CURVE ( 'NONE', #427, #544, #439, .T. ) ;
#271 = CARTESIAN_POINT ( 'NONE',  ( -21.72163806644831396, 10.00000000000000000, 2.816687638038912352E-15 ) ) ;
#272 = VECTOR ( 'NONE', #765, 1000.000000000000114 ) ;
#273 = DIRECTION ( 'NONE',  ( -1.000000000000000000, 0.000000000000000000, -0.000000000000000000 ) ) ;
#274 = CARTESIAN_POINT ( 'NONE',  ( 11.89389694189952884, 10.00000000000000000, 15.63762179922104778 ) ) ;
#275 = EDGE_CURVE ( 'NONE', #519, #544, #794, .T. ) ;
#276 = ORIENTED_EDGE ( 'NONE', *, *, #111, .F. ) ;
#277 = CYLINDRICAL_SURFACE ( 'NONE', #24, 2.049999999999999822 ) ;
#278 = ORIENTED_EDGE ( 'NONE', *, *, #887, .F. ) ;
#279 = ORIENTED_EDGE ( 'NONE', *, *, #596, .T. ) ;
#280 = DIRECTION ( 'NONE',  ( 1.000000000000000000, 0.000000000000000000, 0.000000000000000000 ) ) ;
#281 = VECTOR ( 'NONE', #700, 1000.000000000000000 ) ;
#282 = ORIENTED_EDGE ( 'NONE', *, *, #53, .T. ) ;
#283 = DIRECTION ( 'NONE',  ( -0.000000000000000000, -0.000000000000000000, 1.000000000000000000 ) ) ;
#284 = EDGE_CURVE ( 'NONE', #519, #734, #211, .T. ) ;
#285 = LINE ( 'NONE', #574, #753 ) ;
#286 = EDGE_LOOP ( 'NONE', ( #346, #82, #238, #185 ) ) ;
#287 = EDGE_LOOP ( 'NONE', ( #354, #149, #76, #279 ) ) ;
#288 = CARTESIAN_POINT ( 'NONE',  ( -4.221638066448313964, 7.500000000000000000, 5.000000000000002665 ) ) ;
#289 = EDGE_CURVE ( 'NONE', #600, #495, #202, .T. ) ;
#290 = ORIENTED_EDGE ( 'NONE', *, *, #936, .T. ) ;
#291 = ORIENTED_EDGE ( 'NONE', *, *, #460, .T. ) ;
#292 = CARTESIAN_POINT ( 'NONE',  ( -21.72163806644831396, -10.00000000000000000, 2.816687638038912352E-15 ) ) ;
#293 = DIRECTION ( 'NONE',  ( -0.000000000000000000, -0.000000000000000000, 1.000000000000000000 ) ) ;
#294 = VERTEX_POINT ( 'NONE', #352 ) ;
#295 = ORIENTED_EDGE ( 'NONE', *, *, #111, .T. ) ;
#296 = AXIS2_PLACEMENT_3D ( 'NONE', #800, #136, #349 ) ;
#297 = CARTESIAN_POINT ( 'NONE',  ( 14.97220431852780109, 10.00000000000000000, 11.69756803118741217 ) ) ;
#298 = FACE_OUTER_BOUND ( 'NONE', #260, .T. ) ;
#299 = EDGE_LOOP ( 'NONE', ( #355, #172 ) ) ;
#300 = ORIENTED_EDGE ( 'NONE', *, *, #787, .T. ) ;
#301 = EDGE_CURVE ( 'NONE', #448, #840, #375, .T. ) ;
#302 = DIRECTION ( 'NONE',  ( -0.000000000000000000, -0.000000000000000000, 1.000000000000000000 ) ) ;
#303 = ORIENTED_EDGE ( 'NONE', *, *, #548, .T. ) ;
#304 = DIRECTION ( 'NONE',  ( 1.000000000000000000, 0.000000000000000000, 0.000000000000000000 ) ) ;
#305 = SURFACE_STYLE_FILL_AREA ( #228 ) ;
#306 = CIRCLE ( 'NONE', #386, 2.049999999999999378 ) ;
#307 = VERTEX_POINT ( 'NONE', #589 ) ;
#308 = DIRECTION ( 'NONE',  ( 1.000000000000000000, 0.000000000000000000, 0.000000000000000000 ) ) ;
#309 = CARTESIAN_POINT ( 'NONE',  ( -6.296638066448314142, -7.500000000000000000, 5.000000000000002665 ) ) ;
#310 = EDGE_CURVE ( 'NONE', #906, #731, #455, .T. ) ;
#311 = VERTEX_POINT ( 'NONE', #199 ) ;
#312 = PRODUCT_DEFINITION_FORMATION_WITH_SPECIFIED_SOURCE ( 'ÈÎºÎ', '', #756, .NOT_KNOWN. ) ;
#313 = CYLINDRICAL_SURFACE ( 'NONE', #492, 2.049999999999999822 ) ;
#314 = DIRECTION ( 'NONE',  ( 0.000000000000000000, -1.000000000000000000, 0.000000000000000000 ) ) ;
#315 = ORIENTED_EDGE ( 'NONE', *, *, #739, .T. ) ;
#316 = ADVANCED_FACE ( 'NONE', ( #135, #959, #884, #130, #220 ), #719, .F. ) ;
#317 = CARTESIAN_POINT ( 'NONE',  ( 14.03672228932379262, 0.000000000000000000, -1.723492782810723378 ) ) ;
#318 = CARTESIAN_POINT ( 'NONE',  ( -4.221638066448313964, 7.500000000000000000, 5.000000000000002665 ) ) ;
#319 = DIRECTION ( 'NONE',  ( 0.6156614753256534067, 0.000000000000000000, -0.7880107536067257890 ) ) ;
#320 = ORIENTED_EDGE ( 'NONE', *, *, #936, .F. ) ;
#321 = ADVANCED_FACE ( 'NONE', ( #424 ), #828, .T. ) ;
#322 = CARTESIAN_POINT ( 'NONE',  ( -2.171638066448314142, -7.500000000000000000, 4.975000000000004974 ) ) ;
#323 = CARTESIAN_POINT ( 'NONE',  ( -19.22163806644831041, 7.500000000000000000, 4.975000000000004974 ) ) ;
#324 = PLANE ( 'NONE',  #255 ) ;
#325 = CARTESIAN_POINT ( 'NONE',  ( -4.221638066448313964, -7.500000000000000000, 5.000000000000002665 ) ) ;
#326 = PRESENTATION_LAYER_ASSIGNMENT (  '', '', ( #917 ) ) ;
#327 = ADVANCED_FACE ( 'NONE', ( #656 ), #813, .T. ) ;
#328 = DIRECTION ( 'NONE',  ( -0.000000000000000000, -0.000000000000000000, 1.000000000000000000 ) ) ;
#329 = CONICAL_SURFACE ( 'NONE', #365, 2.075000000000000178, 0.7853981633975003485 ) ;
#330 = CARTESIAN_POINT ( 'NONE',  ( -6.271638066448313786, 7.500000000000000000, 4.975000000000004974 ) ) ;
#331 = CARTESIAN_POINT ( 'NONE',  ( -17.17163806644831325, 7.500000000000000000, 4.975000000000004974 ) ) ;
#332 = DIRECTION ( 'NONE',  ( 0.6156614753256534067, -0.000000000000000000, -0.7880107536067257890 ) ) ;
#333 = CARTESIAN_POINT ( 'NONE',  ( -4.221638066448313964, -7.500000000000000000, 0.000000000000000000 ) ) ;
#334 = CARTESIAN_POINT ( 'NONE',  ( -19.22163806644831041, 7.500000000000000000, 5.000000000000002665 ) ) ;
#335 =( NAMED_UNIT ( * ) SI_UNIT ( $, .STERADIAN. ) SOLID_ANGLE_UNIT ( ) );
#336 = CYLINDRICAL_SURFACE ( 'NONE', #744, 3.749999999999997780 ) ;
#337 = VERTEX_POINT ( 'NONE', #527 ) ;
#338 = ADVANCED_FACE ( 'NONE', ( #895 ), #227, .F. ) ;
#339 = PRESENTATION_STYLE_ASSIGNMENT (( #864 ) ) ;
#340 = CIRCLE ( 'NONE', #195, 3.249999999999999112 ) ;
#341 = CARTESIAN_POINT ( 'NONE',  ( -1.721638066448313076, 10.00000000000000000, 5.000000000000002665 ) ) ;
#342 = CARTESIAN_POINT ( 'NONE',  ( 0.000000000000000000, -10.00000000000000000, 0.000000000000000000 ) ) ;
#343 = EDGE_CURVE ( 'NONE', #311, #583, #831, .T. ) ;
#344 = VECTOR ( 'NONE', #57, 1000.000000000000000 ) ;
#345 = CARTESIAN_POINT ( 'NONE',  ( -1.721638066448313076, 10.00000000000000000, 5.000000000000002665 ) ) ;
#346 = ORIENTED_EDGE ( 'NONE', *, *, #575, .T. ) ;
#347 = VECTOR ( 'NONE', #268, 1000.000000000000000 ) ;
#348 = DIRECTION ( 'NONE',  ( 0.000000000000000000, 0.000000000000000000, -1.000000000000000000 ) ) ;
#349 = DIRECTION ( 'NONE',  ( 1.000000000000000000, 0.000000000000000000, 0.000000000000000000 ) ) ;
#350 = EDGE_LOOP ( 'NONE', ( #514, #26, #576, #721 ) ) ;
#351 = ADVANCED_FACE ( 'NONE', ( #678 ), #532, .F. ) ;
#352 = CARTESIAN_POINT ( 'NONE',  ( -21.72163806644831396, 10.00000000000000000, 2.816687638038912352E-15 ) ) ;
#353 = DIRECTION ( 'NONE',  ( 0.7880107536067260110, 0.000000000000000000, 0.6156614753256532957 ) ) ;
#354 = ORIENTED_EDGE ( 'NONE', *, *, #93, .T. ) ;
#355 = ORIENTED_EDGE ( 'NONE', *, *, #508, .T. ) ;
#356 = CIRCLE ( 'NONE', #362, 2.075000000000000178 ) ;
#357 =( LENGTH_UNIT ( ) NAMED_UNIT ( * ) SI_UNIT ( .MILLI., .METRE. ) );
#358 = AXIS2_PLACEMENT_3D ( 'NONE', #602, #671, #445 ) ;
#359 = EDGE_CURVE ( 'NONE', #741, #337, #166, .T. ) ;
#360 = EDGE_LOOP ( 'NONE', ( #768, #65, #208, #62 ) ) ;
#361 = PLANE ( 'NONE',  #582 ) ;
#362 = AXIS2_PLACEMENT_3D ( 'NONE', #318, #913, #770 ) ;
#363 = ORIENTED_EDGE ( 'NONE', *, *, #219, .F. ) ;
#364 = ORIENTED_EDGE ( 'NONE', *, *, #139, .F. ) ;
#365 = AXIS2_PLACEMENT_3D ( 'NONE', #16, #388, #829 ) ;
#366 = VECTOR ( 'NONE', #121, 1000.000000000000000 ) ;
#367 = DIRECTION ( 'NONE',  ( 0.000000000000000000, -1.000000000000000000, -0.000000000000000000 ) ) ;
#368 = DIRECTION ( 'NONE',  ( -0.5572077475232375399, -0.7071067811865473507, -0.4353384041180838326 ) ) ;
#369 = VERTEX_POINT ( 'NONE', #242 ) ;
#370 = EDGE_LOOP ( 'NONE', ( #644, #674, #902, #669 ) ) ;
#371 = CARTESIAN_POINT ( 'NONE',  ( -17.14663806644831112, 7.500000000000000000, 5.000000000000002665 ) ) ;
#372 = DIRECTION ( 'NONE',  ( -0.000000000000000000, -0.000000000000000000, 1.000000000000000000 ) ) ;
#373 = VERTEX_POINT ( 'NONE', #170 ) ;
#374 = VERTEX_POINT ( 'NONE', #371 ) ;
#375 = CIRCLE ( 'NONE', #871, 0.5000000000000004441 ) ;
#376 = CARTESIAN_POINT ( 'NONE',  ( -2.171638066448314586, -7.500000000000000000, 0.000000000000000000 ) ) ;
#377 = CARTESIAN_POINT ( 'NONE',  ( -6.271638066448312898, 7.500000000000000000, 5.000000000000002665 ) ) ;
#378 =( GEOMETRIC_REPRESENTATION_CONTEXT ( 3 ) GLOBAL_UNCERTAINTY_ASSIGNED_CONTEXT ( ( #417 ) ) GLOBAL_UNIT_ASSIGNED_CONTEXT ( ( #357, #201, #140 ) ) REPRESENTATION_CONTEXT ( 'NONE', 'WORKASPACE' ) );
#379 = ORIENTED_EDGE ( 'NONE', *, *, #508, .F. ) ;
#380 = AXIS2_PLACEMENT_3D ( 'NONE', #745, #78, #834 ) ;
#381 = DIRECTION ( 'NONE',  ( 1.000000000000000000, 0.000000000000000000, 0.000000000000000000 ) ) ;
#382 = CARTESIAN_POINT ( 'NONE',  ( 15.76021507213451400, -8.999999999999992895, 12.31322950651306769 ) ) ;
#383 = ORIENTED_EDGE ( 'NONE', *, *, #249, .T. ) ;
#384 = CARTESIAN_POINT ( 'NONE',  ( -19.22163806644831041, -7.500000000000000000, 0.000000000000000000 ) ) ;
#385 = CARTESIAN_POINT ( 'NONE',  ( -17.14663806644831112, -7.500000000000000000, 5.000000000000002665 ) ) ;
#386 = AXIS2_PLACEMENT_3D ( 'NONE', #750, #2, #95 ) ;
#387 = ORIENTED_EDGE ( 'NONE', *, *, #359, .F. ) ;
#388 = DIRECTION ( 'NONE',  ( -0.000000000000000000, -0.000000000000000000, 1.000000000000000000 ) ) ;
#389 = PLANE ( 'NONE',  #738 ) ;
#390 = ADVANCED_FACE ( 'NONE', ( #749 ), #586, .F. ) ;
#391 = ORIENTED_EDGE ( 'NONE', *, *, #403, .F. ) ;
#392 = CIRCLE ( 'NONE', #551, 2.049999999999998934 ) ;
#393 = FACE_BOUND ( 'NONE', #204, .T. ) ;
#394 = DIRECTION ( 'NONE',  ( -0.000000000000000000, -0.000000000000000000, 1.000000000000000000 ) ) ;
#395 = AXIS2_PLACEMENT_3D ( 'NONE', #334, #194, #490 ) ;
#396 = FACE_OUTER_BOUND ( 'NONE', #299, .T. ) ;
#397 = ORIENTED_EDGE ( 'NONE', *, *, #778, .F. ) ;
#398 = CIRCLE ( 'NONE', #646, 3.749999999999999112 ) ;
#399 = CARTESIAN_POINT ( 'NONE',  ( 11.89389694189952884, 10.00000000000000000, 15.63762179922105133 ) ) ;
#400 = PLANE ( 'NONE',  #935 ) ;
#401 = FACE_OUTER_BOUND ( 'NONE', #449, .T. ) ;
#402 = DIRECTION ( 'NONE',  ( 1.000000000000000000, 0.000000000000000000, 0.000000000000000000 ) ) ;
#403 = EDGE_CURVE ( 'NONE', #443, #748, #42, .T. ) ;
#404 = DIRECTION ( 'NONE',  ( -0.5572077475232350974, 0.7071067811865506814, -0.4353384041180818342 ) ) ;
#405 = CARTESIAN_POINT ( 'NONE',  ( 13.72889155166096486, 0.000000000000000000, -1.329487406007360040 ) ) ;
#406 = DIRECTION ( 'NONE',  ( 1.000000000000000000, 0.000000000000000000, 0.000000000000000000 ) ) ;
#407 = DIRECTION ( 'NONE',  ( -0.000000000000000000, -0.000000000000000000, 1.000000000000000000 ) ) ;
#408 = AXIS2_PLACEMENT_3D ( 'NONE', #556, #394, #479 ) ;
#409 = AXIS2_PLACEMENT_3D ( 'NONE', #333, #48, #406 ) ;
#410 = DIRECTION ( 'NONE',  ( -0.6156614753256534067, -0.000000000000000000, 0.7880107536067257890 ) ) ;
#411 = AXIS2_PLACEMENT_3D ( 'NONE', #543, #762, #605 ) ;
#412 = LINE ( 'NONE', #109, #5 ) ;
#413 = DIRECTION ( 'NONE',  ( 1.000000000000000000, 0.000000000000000000, 0.000000000000000000 ) ) ;
#414 = EDGE_CURVE ( 'NONE', #373, #886, #923, .T. ) ;
#415 = DIRECTION ( 'NONE',  ( -0.6156614753256534067, -0.000000000000000000, 0.7880107536067257890 ) ) ;
#416 = ORIENTED_EDGE ( 'NONE', *, *, #520, .T. ) ;
#417 = UNCERTAINTY_MEASURE_WITH_UNIT (LENGTH_MEASURE( 1.000000000000000082E-05 ), #357, 'distance_accuracy_value', 'NONE');
#418 = ADVANCED_FACE ( 'NONE', ( #899 ), #462, .F. ) ;
#419 = CARTESIAN_POINT ( 'NONE',  ( -4.221638066448313964, 7.500000000000000000, 5.000000000000002665 ) ) ;
#420 = CARTESIAN_POINT ( 'NONE',  ( -19.22163806644831041, -7.500000000000000000, 5.000000000000002665 ) ) ;
#421 = PRODUCT_RELATED_PRODUCT_CATEGORY ( 'part', '', ( #756 ) ) ;
#422 = CONICAL_SURFACE ( 'NONE', #21, 2.075000000000000178, 0.7853981633975003485 ) ;
#423 = AXIS2_PLACEMENT_3D ( 'NONE', #854, #569, #860 ) ;
#424 = FACE_OUTER_BOUND ( 'NONE', #350, .T. ) ;
#425 = VERTEX_POINT ( 'NONE', #236 ) ;
#426 = EDGE_CURVE ( 'NONE', #886, #443, #91, .T. ) ;
#427 = VERTEX_POINT ( 'NONE', #376 ) ;
#428 = DIRECTION ( 'NONE',  ( -0.000000000000000000, -0.000000000000000000, 1.000000000000000000 ) ) ;
#429 = LINE ( 'NONE', #728, #916 ) ;
#430 = EDGE_LOOP ( 'NONE', ( #760, #613, #815, #86 ) ) ;
#431 = ORIENTED_EDGE ( 'NONE', *, *, #863, .T. ) ;
#432 = ADVANCED_FACE ( 'NONE', ( #904 ), #329, .F. ) ;
#433 = DIRECTION ( 'NONE',  ( -0.000000000000000000, -0.000000000000000000, 1.000000000000000000 ) ) ;
#434 = EDGE_LOOP ( 'NONE', ( #207, #387, #144, #623 ) ) ;
#435 = CIRCLE ( 'NONE', #825, 3.749999999999997335 ) ;
#436 = ORIENTED_EDGE ( 'NONE', *, *, #289, .T. ) ;
#437 = AXIS2_PLACEMENT_3D ( 'NONE', #866, #499, #506 ) ;
#438 = EDGE_CURVE ( 'NONE', #943, #470, #456, .T. ) ;
#439 = LINE ( 'NONE', #142, #676 ) ;
#440 = CIRCLE ( 'NONE', #192, 2.075000000000000178 ) ;
#441 = AXIS2_PLACEMENT_3D ( 'NONE', #933, #861, #413 ) ;
#442 = ORIENTED_EDGE ( 'NONE', *, *, #53, .F. ) ;
#443 = VERTEX_POINT ( 'NONE', #8 ) ;
#444 = VECTOR ( 'NONE', #264, 999.9999999999998863 ) ;
#445 = DIRECTION ( 'NONE',  ( 0.7880107536067256779, 0.000000000000000000, 0.6156614753256535177 ) ) ;
#446 = CARTESIAN_POINT ( 'NONE',  ( -19.22163806644831041, -7.500000000000000000, 5.000000000000002665 ) ) ;
#447 = CIRCLE ( 'NONE', #108, 3.249999999999999112 ) ;
#448 = VERTEX_POINT ( 'NONE', #758 ) ;
#449 = EDGE_LOOP ( 'NONE', ( #659, #482, #743, #137 ) ) ;
#450 = DIRECTION ( 'NONE',  ( -0.000000000000000000, -0.000000000000000000, 1.000000000000000000 ) ) ;
#451 = CARTESIAN_POINT ( 'NONE',  ( 14.97220431852780109, 10.00000000000000000, 11.69756803118741395 ) ) ;
#452 = ADVANCED_FACE ( 'NONE', ( #94 ), #241, .F. ) ;
#453 = EDGE_LOOP ( 'NONE', ( #662, #897, #77, #616 ) ) ;
#454 = ORIENTED_EDGE ( 'NONE', *, *, #791, .F. ) ;
#455 = CIRCLE ( 'NONE', #239, 0.5000000000000000000 ) ;
#456 = LINE ( 'NONE', #167, #874 ) ;
#457 = DIRECTION ( 'NONE',  ( 0.5572077475232376509, -0.7071067811865476838, 0.4353384041180835551 ) ) ;
#458 = CONICAL_SURFACE ( 'NONE', #580, 2.075000000000000178, 0.7853981633975003485 ) ;
#459 = ORIENTED_EDGE ( 'NONE', *, *, #245, .F. ) ;
#460 = EDGE_CURVE ( 'NONE', #890, #832, #630, .T. ) ;
#461 = AXIS2_PLACEMENT_3D ( 'NONE', #824, #597, #304 ) ;
#462 = CYLINDRICAL_SURFACE ( 'NONE', #122, 2.049999999999999822 ) ;
#463 = ORIENTED_EDGE ( 'NONE', *, *, #474, .F. ) ;
#464 = ADVANCED_FACE ( 'NONE', ( #611 ), #313, .F. ) ;
#465 = CARTESIAN_POINT ( 'NONE',  ( -19.22163806644831041, -7.500000000000000000, 5.000000000000002665 ) ) ;
#466 = PRESENTATION_STYLE_ASSIGNMENT (( #755 ) ) ;
#467 = EDGE_LOOP ( 'NONE', ( #650, #291 ) ) ;
#468 = CARTESIAN_POINT ( 'NONE',  ( 11.08168196329857302, 4.592425496802572986E-16, -4.032223315281922460 ) ) ;
#469 = LINE ( 'NONE', #779, #88 ) ;
#470 = VERTEX_POINT ( 'NONE', #842 ) ;
#471 = CARTESIAN_POINT ( 'NONE',  ( 7.880107536067257001, 0.000000000000000000, 6.156614753256533845 ) ) ;
#472 = CARTESIAN_POINT ( 'NONE',  ( -4.221638066448313964, -7.500000000000000000, 5.000000000000002665 ) ) ;
#473 = CIRCLE ( 'NONE', #296, 2.049999999999999378 ) ;
#474 = EDGE_CURVE ( 'NONE', #518, #138, #693, .T. ) ;
#475 = CARTESIAN_POINT ( 'NONE',  ( 0.000000000000000000, 10.00000000000000000, 0.000000000000000000 ) ) ;
#476 = CYLINDRICAL_SURFACE ( 'NONE', #441, 2.049999999999999822 ) ;
#477 = AXIS2_PLACEMENT_3D ( 'NONE', #695, #481, #564 ) ;
#478 = DIRECTION ( 'NONE',  ( 0.6156614753256534067, 0.000000000000000000, -0.7880107536067257890 ) ) ;
#479 = DIRECTION ( 'NONE',  ( 1.000000000000000000, 0.000000000000000000, 0.000000000000000000 ) ) ;
#480 = UNCERTAINTY_MEASURE_WITH_UNIT (LENGTH_MEASURE( 1.000000000000000082E-05 ), #661, 'distance_accuracy_value', 'NONE');
#481 = DIRECTION ( 'NONE',  ( -0.000000000000000000, -0.000000000000000000, 1.000000000000000000 ) ) ;
#482 = ORIENTED_EDGE ( 'NONE', *, *, #498, .T. ) ;
#483 = AXIS2_PLACEMENT_3D ( 'NONE', #598, #457, #889 ) ;
#484 = DIRECTION ( 'NONE',  ( 1.000000000000000000, 0.000000000000000000, 0.000000000000000000 ) ) ;
#485 = CARTESIAN_POINT ( 'NONE',  ( 13.72889155166096486, 0.000000000000000000, -1.329487406007360040 ) ) ;
#486 = CARTESIAN_POINT ( 'NONE',  ( -21.27163806644831112, -7.500000000000000000, 5.000000000000002665 ) ) ;
#487 = COLOUR_RGB ( '',1.000000000000000000, 1.000000000000000000, 1.000000000000000000 ) ;
#488 = CARTESIAN_POINT ( 'NONE',  ( 0.000000000000000000, -10.00000000000000000, 0.000000000000000000 ) ) ;
#489 = CARTESIAN_POINT ( 'NONE',  ( -21.27163806644831112, 7.500000000000000000, 4.975000000000004974 ) ) ;
#490 = DIRECTION ( 'NONE',  ( 1.000000000000000000, 0.000000000000000000, 0.000000000000000000 ) ) ;
#491 = AXIS2_PLACEMENT_3D ( 'NONE', #325, #629, #52 ) ;
#492 = AXIS2_PLACEMENT_3D ( 'NONE', #614, #908, #32 ) ;
#493 = EDGE_CURVE ( 'NONE', #176, #20, #571, .T. ) ;
#494 = CARTESIAN_POINT ( 'NONE',  ( 14.03672228932379262, 0.000000000000000000, -1.723492782810723378 ) ) ;
#495 = VERTEX_POINT ( 'NONE', #177 ) ;
#496 = CARTESIAN_POINT ( 'NONE',  ( 12.68190769550624886, -8.999999999999992895, 16.25328327454669974 ) ) ;
#497 = DIRECTION ( 'NONE',  ( -1.000000000000000000, -9.650348470981698985E-17, 0.000000000000000000 ) ) ;
#498 = EDGE_CURVE ( 'NONE', #946, #307, #847, .T. ) ;
#499 = DIRECTION ( 'NONE',  ( -0.000000000000000000, -0.000000000000000000, 1.000000000000000000 ) ) ;
#500 = CIRCLE ( 'NONE', #610, 2.049999999999999822 ) ;
#501 = VECTOR ( 'NONE', #266, 1000.000000000000000 ) ;
#502 = AXIS2_PLACEMENT_3D ( 'NONE', #712, #621, #550 ) ;
#503 = CARTESIAN_POINT ( 'NONE',  ( 0.000000000000000000, 0.000000000000000000, 0.000000000000000000 ) ) ;
#504 = ADVANCED_BREP_SHAPE_REPRESENTATION ( 'µ¯»É×ù2', ( #709, #116 ), #22 ) ;
#505 = ORIENTED_EDGE ( 'NONE', *, *, #270, .F. ) ;
#506 = DIRECTION ( 'NONE',  ( 1.000000000000000000, 0.000000000000000000, 0.000000000000000000 ) ) ;
#507 = LINE ( 'NONE', #723, #344 ) ;
#508 = EDGE_CURVE ( 'NONE', #731, #840, #447, .T. ) ;
#509 = EDGE_LOOP ( 'NONE', ( #822, #229, #217, #214 ) ) ;
#510 = ORIENTED_EDGE ( 'NONE', *, *, #262, .F. ) ;
#511 = APPLICATION_PROTOCOL_DEFINITION ( 'draft international standard', 'automotive_design', 1998, #607 ) ;
#512 = DIRECTION ( 'NONE',  ( -0.7880107536067260110, 0.000000000000000000, -0.6156614753256532957 ) ) ;
#513 = DIRECTION ( 'NONE',  ( -0.000000000000000000, -0.000000000000000000, 1.000000000000000000 ) ) ;
#514 = ORIENTED_EDGE ( 'NONE', *, *, #301, .F. ) ;
#515 = ORIENTED_EDGE ( 'NONE', *, *, #11, .F. ) ;
#516 = VECTOR ( 'NONE', #293, 1000.000000000000000 ) ;
#517 = FACE_OUTER_BOUND ( 'NONE', #531, .T. ) ;
#518 = VERTEX_POINT ( 'NONE', #703 ) ;
#519 = VERTEX_POINT ( 'NONE', #774 ) ;
#520 = EDGE_CURVE ( 'NONE', #55, #169, #838, .T. ) ;
#521 = DIRECTION ( 'NONE',  ( 1.000000000000000000, 0.000000000000000000, 0.000000000000000000 ) ) ;
#522 = LINE ( 'NONE', #79, #651 ) ;
#523 = CIRCLE ( 'NONE', #783, 2.075000000000000622 ) ;
#524 = ORIENTED_EDGE ( 'NONE', *, *, #219, .T. ) ;
#525 = EDGE_LOOP ( 'NONE', ( #752, #565, #431, #454 ) ) ;
#526 = EDGE_CURVE ( 'NONE', #906, #20, #174, .T. ) ;
#527 = CARTESIAN_POINT ( 'NONE',  ( -21.27163806644831112, 7.500000000000000000, 0.000000000000000000 ) ) ;
#528 = LINE ( 'NONE', #820, #773 ) ;
#529 = VECTOR ( 'NONE', #193, 1000.000000000000000 ) ;
#530 = ORIENTED_EDGE ( 'NONE', *, *, #47, .F. ) ;
#531 = EDGE_LOOP ( 'NONE', ( #148, #790, #436, #686 ) ) ;
#532 = PLANE ( 'NONE',  #542 ) ;
#533 = CARTESIAN_POINT ( 'NONE',  ( 15.76021507213451400, 9.000000000000000000, 12.31322950651306769 ) ) ;
#534 = ADVANCED_FACE ( 'NONE', ( #393, #27 ), #256, .F. ) ;
#535 = ORIENTED_EDGE ( 'NONE', *, *, #887, .T. ) ;
#536 = AXIS2_PLACEMENT_3D ( 'NONE', #563, #856, #261 ) ;
#537 = DIRECTION ( 'NONE',  ( -0.7071067811865843211, 8.659560562355383988E-17, 0.7071067811865107133 ) ) ;
#538 = DIRECTION ( 'NONE',  ( -0.000000000000000000, -0.000000000000000000, 1.000000000000000000 ) ) ;
#539 = CIRCLE ( 'NONE', #408, 2.049999999999999822 ) ;
#540 = ORIENTED_EDGE ( 'NONE', *, *, #608, .F. ) ;
#541 = ADVANCED_FACE ( 'NONE', ( #769 ), #231, .F. ) ;
#542 = AXIS2_PLACEMENT_3D ( 'NONE', #754, #157, #161 ) ;
#543 = CARTESIAN_POINT ( 'NONE',  ( -19.22163806644831041, -7.500000000000000000, 4.975000000000004974 ) ) ;
#544 = VERTEX_POINT ( 'NONE', #322 ) ;
#545 = CARTESIAN_POINT ( 'NONE',  ( 15.76021507213451400, -8.999999999999992895, 12.31322950651306769 ) ) ;
#546 = DIRECTION ( 'NONE',  ( 1.000000000000000000, 0.000000000000000000, 0.000000000000000000 ) ) ;
#547 = EDGE_LOOP ( 'NONE', ( #604, #892 ) ) ;
#548 = EDGE_CURVE ( 'NONE', #906, #448, #398, .T. ) ;
#549 = DIRECTION ( 'NONE',  ( 0.7880107536067257890, 0.000000000000000000, 0.6156614753256534067 ) ) ;
#550 = DIRECTION ( 'NONE',  ( 1.000000000000000000, 0.000000000000000000, 0.000000000000000000 ) ) ;
#551 = AXIS2_PLACEMENT_3D ( 'NONE', #666, #56, #521 ) ;
#552 = AXIS2_PLACEMENT_3D ( 'NONE', #494, #319, #914 ) ;
#553 = LINE ( 'NONE', #845, #281 ) ;
#554 = CARTESIAN_POINT ( 'NONE',  ( -2.146638066448313786, -7.500000000000000000, 5.000000000000002665 ) ) ;
#555 = DIRECTION ( 'NONE',  ( 0.7880107536067257890, 0.000000000000000000, 0.6156614753256532957 ) ) ;
#556 = CARTESIAN_POINT ( 'NONE',  ( -19.22163806644831041, 7.500000000000000000, 0.000000000000000000 ) ) ;
#557 = EDGE_CURVE ( 'NONE', #373, #748, #850, .T. ) ;
#558 = DIRECTION ( 'NONE',  ( 0.7880107536067256779, 0.000000000000000000, 0.6156614753256535177 ) ) ;
#559 = FACE_OUTER_BOUND ( 'NONE', #647, .T. ) ;
#560 = LINE ( 'NONE', #251, #19 ) ;
#561 = CARTESIAN_POINT ( 'NONE',  ( -6.271638066448312898, -7.500000000000000000, 0.000000000000000000 ) ) ;
#562 = ORIENTED_EDGE ( 'NONE', *, *, #438, .T. ) ;
#563 = CARTESIAN_POINT ( 'NONE',  ( -4.221638066448313964, 7.500000000000000000, 5.000000000000002665 ) ) ;
#564 = DIRECTION ( 'NONE',  ( 1.000000000000000000, 0.000000000000000000, 0.000000000000000000 ) ) ;
#565 = ORIENTED_EDGE ( 'NONE', *, *, #844, .T. ) ;
#566 = AXIS2_PLACEMENT_3D ( 'NONE', #722, #868, #584 ) ;
#567 = ADVANCED_FACE ( 'NONE', ( #932 ), #336, .T. ) ;
#568 = AXIS2_PLACEMENT_3D ( 'NONE', #143, #206, #200 ) ;
#569 = DIRECTION ( 'NONE',  ( -0.000000000000000000, -0.000000000000000000, 1.000000000000000000 ) ) ;
#570 = DIRECTION ( 'NONE',  ( 1.000000000000000000, 0.000000000000000000, 0.000000000000000000 ) ) ;
#571 = CIRCLE ( 'NONE', #910, 3.749999999999997335 ) ;
#572 = FILL_AREA_STYLE_COLOUR ( '', #487 ) ;
#573 = CARTESIAN_POINT ( 'NONE',  ( -4.221638066448313964, -7.500000000000000000, 4.975000000000004974 ) ) ;
#574 = CARTESIAN_POINT ( 'NONE',  ( -1.721638066448313076, -10.00000000000000000, 5.000000000000002665 ) ) ;
#575 = EDGE_CURVE ( 'NONE', #425, #470, #40, .T. ) ;
#576 = ORIENTED_EDGE ( 'NONE', *, *, #310, .T. ) ;
#577 = DIRECTION ( 'NONE',  ( -0.000000000000000000, -0.000000000000000000, 1.000000000000000000 ) ) ;
#578 = DIRECTION ( 'NONE',  ( 1.000000000000000000, 0.000000000000000000, 0.000000000000000000 ) ) ;
#579 = EDGE_LOOP ( 'NONE', ( #751, #658 ) ) ;
#580 = AXIS2_PLACEMENT_3D ( 'NONE', #472, #775, #546 ) ;
#581 = VERTEX_POINT ( 'NONE', #561 ) ;
#582 = AXIS2_PLACEMENT_3D ( 'NONE', #341, #944, #512 ) ;
#583 = VERTEX_POINT ( 'NONE', #330 ) ;
#584 = DIRECTION ( 'NONE',  ( -0.7880107536067257890, 0.000000000000000000, -0.6156614753256534067 ) ) ;
#585 = FACE_OUTER_BOUND ( 'NONE', #525, .T. ) ;
#586 = CONICAL_SURFACE ( 'NONE', #461, 2.075000000000000178, 0.7853981633975003485 ) ;
#587 = VERTEX_POINT ( 'NONE', #780 ) ;
#588 = VERTEX_POINT ( 'NONE', #114 ) ;
#589 = CARTESIAN_POINT ( 'NONE',  ( 15.76021507213451400, -8.999999999999992895, 12.31322950651306769 ) ) ;
#590 = EDGE_LOOP ( 'NONE', ( #244, #391 ) ) ;
#591 = ORIENTED_EDGE ( 'NONE', *, *, #493, .T. ) ;
#592 = DIRECTION ( 'NONE',  ( -0.000000000000000000, -1.000000000000000000, -0.000000000000000000 ) ) ;
#593 = CARTESIAN_POINT ( 'NONE',  ( -17.17163806644831325, 7.500000000000000000, 0.000000000000000000 ) ) ;
#594 = ORIENTED_EDGE ( 'NONE', *, *, #645, .F. ) ;
#595 = VERTEX_POINT ( 'NONE', #771 ) ;
#596 = EDGE_CURVE ( 'NONE', #138, #154, #259, .T. ) ;
#597 = DIRECTION ( 'NONE',  ( -0.000000000000000000, -0.000000000000000000, 1.000000000000000000 ) ) ;
#598 = CARTESIAN_POINT ( 'NONE',  ( 15.76021507213451400, -8.999999999999992895, 12.31322950651306769 ) ) ;
#599 = EDGE_LOOP ( 'NONE', ( #3, #10, #379, #726 ) ) ;
#600 = VERTEX_POINT ( 'NONE', #45 ) ;
#601 = AXIS2_PLACEMENT_3D ( 'NONE', #649, #945, #578 ) ;
#602 = CARTESIAN_POINT ( 'NONE',  ( 14.03672228932379262, 0.000000000000000000, -1.723492782810723378 ) ) ;
#603 = CARTESIAN_POINT ( 'NONE',  ( -21.72163806644831396, -10.00000000000000000, 2.816687638038912352E-15 ) ) ;
#604 = ORIENTED_EDGE ( 'NONE', *, *, #941, .F. ) ;
#605 = DIRECTION ( 'NONE',  ( 1.000000000000000000, 0.000000000000000000, 0.000000000000000000 ) ) ;
#606 = DIRECTION ( 'NONE',  ( -0.6156614753256530737, 0.000000000000000000, 0.7880107536067260110 ) ) ;
#607 = APPLICATION_CONTEXT ( 'automotive_design' ) ;
#608 = EDGE_CURVE ( 'NONE', #832, #890, #893, .T. ) ;
#609 = ORIENTED_EDGE ( 'NONE', *, *, #918, .T. ) ;
#610 = AXIS2_PLACEMENT_3D ( 'NONE', #803, #809, #799 ) ;
#611 = FACE_OUTER_BOUND ( 'NONE', #164, .T. ) ;
#612 =( LENGTH_UNIT ( ) NAMED_UNIT ( * ) SI_UNIT ( .MILLI., .METRE. ) );
#613 = ORIENTED_EDGE ( 'NONE', *, *, #59, .T. ) ;
#614 = CARTESIAN_POINT ( 'NONE',  ( -19.22163806644831041, -7.500000000000000000, 5.000000000000002665 ) ) ;
#615 = DIRECTION ( 'NONE',  ( -0.000000000000000000, -0.000000000000000000, 1.000000000000000000 ) ) ;
#616 = ORIENTED_EDGE ( 'NONE', *, *, #75, .F. ) ;
#617 = AXIS2_PLACEMENT_3D ( 'NONE', #106, #625, #698 ) ;
#618 = ADVANCED_FACE ( 'NONE', ( #788 ), #857, .F. ) ;
#619 = APPLICATION_CONTEXT ( 'automotive_design' ) ;
#620 = DIRECTION ( 'NONE',  ( -0.7880107536067256779, 0.000000000000000000, -0.6156614753256534067 ) ) ;
#621 = DIRECTION ( 'NONE',  ( -0.000000000000000000, -0.000000000000000000, 1.000000000000000000 ) ) ;
#622 = DIRECTION ( 'NONE',  ( 0.7071067811865843211, 0.000000000000000000, 0.7071067811865107133 ) ) ;
#623 = ORIENTED_EDGE ( 'NONE', *, *, #869, .T. ) ;
#624 = EDGE_CURVE ( 'NONE', #581, #427, #87, .T. ) ;
#625 = DIRECTION ( 'NONE',  ( -0.000000000000000000, -0.000000000000000000, 1.000000000000000000 ) ) ;
#626 = CARTESIAN_POINT ( 'NONE',  ( 0.000000000000000000, 10.00000000000000000, 0.000000000000000000 ) ) ;
#627 = VECTOR ( 'NONE', #865, 1000.000000000000000 ) ;
#628 = DIRECTION ( 'NONE',  ( 0.7071067811865843211, 0.000000000000000000, 0.7071067811865107133 ) ) ;
#629 = DIRECTION ( 'NONE',  ( -0.000000000000000000, -0.000000000000000000, 1.000000000000000000 ) ) ;
#630 = CIRCLE ( 'NONE', #209, 2.049999999999999822 ) ;
#631 = FACE_OUTER_BOUND ( 'NONE', #287, .T. ) ;
#632 = EDGE_CURVE ( 'NONE', #311, #495, #707, .T. ) ;
#633 = CARTESIAN_POINT ( 'NONE',  ( -2.146638066448313786, 7.500000000000000000, 5.000000000000002665 ) ) ;
#634 = PLANE ( 'NONE',  #891 ) ;
#635 = DIRECTION ( 'NONE',  ( 0.7880107536067257890, 0.000000000000000000, 0.6156614753256532957 ) ) ;
#636 = EDGE_CURVE ( 'NONE', #518, #595, #925, .T. ) ;
#637 = DIRECTION ( 'NONE',  ( -0.7880107536067259000, 0.000000000000000000, -0.6156614753256532957 ) ) ;
#638 = FACE_OUTER_BOUND ( 'NONE', #370, .T. ) ;
#639 = CARTESIAN_POINT ( 'NONE',  ( -21.72163806644831396, -10.00000000000000000, 5.000000000000002665 ) ) ;
#640 = VERTEX_POINT ( 'NONE', #30 ) ;
#641 = CONICAL_SURFACE ( 'NONE', #73, 2.075000000000000622, 0.7853981633975003485 ) ;
#642 = AXIS2_PLACEMENT_3D ( 'NONE', #323, #615, #848 ) ;
#643 = CARTESIAN_POINT ( 'NONE',  ( -21.72163806644831396, 10.00000000000000000, 5.000000000000002665 ) ) ;
#644 = ORIENTED_EDGE ( 'NONE', *, *, #249, .F. ) ;
#645 = EDGE_CURVE ( 'NONE', #587, #311, #412, .T. ) ;
#646 = AXIS2_PLACEMENT_3D ( 'NONE', #485, #415, #637 ) ;
#647 = EDGE_LOOP ( 'NONE', ( #276, #540, #96, #66 ) ) ;
#648 = CARTESIAN_POINT ( 'NONE',  ( 16.28992650088282446, 3.980102097228896259E-16, 0.6714123888010121721 ) ) ;
#649 = CARTESIAN_POINT ( 'NONE',  ( -4.221638066448313964, -7.500000000000000000, 5.000000000000002665 ) ) ;
#650 = ORIENTED_EDGE ( 'NONE', *, *, #608, .T. ) ;
#651 = VECTOR ( 'NONE', #372, 1000.000000000000000 ) ;
#652 = EDGE_LOOP ( 'NONE', ( #720, #303, #210, #591 ) ) ;
#653 = FILL_AREA_STYLE ('',( #572 ) ) ;
#654 = VECTOR ( 'NONE', #107, 1000.000000000000000 ) ;
#655 = ORIENTED_EDGE ( 'NONE', *, *, #275, .T. ) ;
#656 = FACE_OUTER_BOUND ( 'NONE', #915, .T. ) ;
#657 = DIRECTION ( 'NONE',  ( -0.6156614753256534067, -0.000000000000000000, 0.7880107536067257890 ) ) ;
#658 = ORIENTED_EDGE ( 'NONE', *, *, #894, .T. ) ;
#659 = ORIENTED_EDGE ( 'NONE', *, *, #159, .T. ) ;
#660 = STYLED_ITEM ( 'NONE', ( #339 ), #504 ) ;
#661 =( LENGTH_UNIT ( ) NAMED_UNIT ( * ) SI_UNIT ( .MILLI., .METRE. ) );
#662 = ORIENTED_EDGE ( 'NONE', *, *, #275, .F. ) ;
#663 = CARTESIAN_POINT ( 'NONE',  ( 11.16785660243910705, 0.000000000000000000, -3.330387200815733806 ) ) ;
#664 = ORIENTED_EDGE ( 'NONE', *, *, #474, .T. ) ;
#665 = VERTEX_POINT ( 'NONE', #489 ) ;
#666 = CARTESIAN_POINT ( 'NONE',  ( -4.221638066448313964, 7.500000000000000000, 0.000000000000000000 ) ) ;
#667 = CARTESIAN_POINT ( 'NONE',  ( -4.221638066448313964, -7.500000000000000000, 5.000000000000002665 ) ) ;
#668 = EDGE_CURVE ( 'NONE', #583, #600, #929, .T. ) ;
#669 = ORIENTED_EDGE ( 'NONE', *, *, #557, .F. ) ;
#670 = ORIENTED_EDGE ( 'NONE', *, *, #596, .F. ) ;
#671 = DIRECTION ( 'NONE',  ( -0.6156614753256534067, -0.000000000000000000, 0.7880107536067257890 ) ) ;
#672 = FILL_AREA_STYLE_COLOUR ( '', #203 ) ;
#673 = EDGE_LOOP ( 'NONE', ( #524, #510, #798, #880 ) ) ;
#674 = ORIENTED_EDGE ( 'NONE', *, *, #426, .T. ) ;
#675 = ADVANCED_FACE ( 'NONE', ( #396 ), #196, .T. ) ;
#676 = VECTOR ( 'NONE', #283, 1000.000000000000000 ) ;
#677 = VECTOR ( 'NONE', #628, 1000.000000000000000 ) ;
#678 = FACE_OUTER_BOUND ( 'NONE', #879, .T. ) ;
#679 = FACE_OUTER_BOUND ( 'NONE', #885, .T. ) ;
#680 = ORIENTED_EDGE ( 'NONE', *, *, #414, .F. ) ;
#681 = EDGE_CURVE ( 'NONE', #4, #374, #252, .T. ) ;
#682 = DIRECTION ( 'NONE',  ( 1.000000000000000000, 0.000000000000000000, 0.000000000000000000 ) ) ;
#683 = EDGE_LOOP ( 'NONE', ( #222, #680, #133, #158 ) ) ;
#684 = DIRECTION ( 'NONE',  ( -0.000000000000000000, -0.000000000000000000, 1.000000000000000000 ) ) ;
#685 = FACE_OUTER_BOUND ( 'NONE', #85, .T. ) ;
#686 = ORIENTED_EDGE ( 'NONE', *, *, #632, .F. ) ;
#687 = VECTOR ( 'NONE', #68, 1000.000000000000000 ) ;
#688 = DIRECTION ( 'NONE',  ( -0.000000000000000000, -1.000000000000000000, -0.000000000000000000 ) ) ;
#689 = CARTESIAN_POINT ( 'NONE',  ( -21.27163806644831112, -7.500000000000000000, 4.975000000000004974 ) ) ;
#690 = EDGE_CURVE ( 'NONE', #581, #519, #553, .T. ) ;
#691 = EDGE_LOOP ( 'NONE', ( #364, #747 ) ) ;
#692 = VECTOR ( 'NONE', #855, 1000.000000000000000 ) ;
#693 = LINE ( 'NONE', #182, #862 ) ;
#694 = CARTESIAN_POINT ( 'NONE',  ( 11.89389694189951641, -10.00000000000000000, 15.63762179922104067 ) ) ;
#695 = CARTESIAN_POINT ( 'NONE',  ( -19.22163806644831041, -7.500000000000000000, 0.000000000000000000 ) ) ;
#696 = ORIENTED_EDGE ( 'NONE', *, *, #343, .F. ) ;
#697 = EDGE_CURVE ( 'NONE', #294, #588, #124, .T. ) ;
#698 = DIRECTION ( 'NONE',  ( 1.000000000000000000, 0.000000000000000000, 0.000000000000000000 ) ) ;
#699 = FACE_BOUND ( 'NONE', #467, .T. ) ;
#700 = DIRECTION ( 'NONE',  ( -0.000000000000000000, -0.000000000000000000, 1.000000000000000000 ) ) ;
#701 = CARTESIAN_POINT ( 'NONE',  ( 4.925067210042038290, 4.592425496802572986E-16, 3.847884220785334541 ) ) ;
#702 = ADVANCED_FACE ( 'NONE', ( #401 ), #324, .F. ) ;
#703 = CARTESIAN_POINT ( 'NONE',  ( 14.97220431852779754, 10.00000000000000000, 11.69756803118742106 ) ) ;
#704 = DIRECTION ( 'NONE',  ( 1.296719717648562672E-16, -0.000000000000000000, 1.000000000000000000 ) ) ;
#705 = AXIS2_PLACEMENT_3D ( 'NONE', #643, #51, #273 ) ;
#706 = VECTOR ( 'NONE', #188, 1000.000000000000000 ) ;
#707 = LINE ( 'NONE', #633, #129 ) ;
#708 = CARTESIAN_POINT ( 'NONE',  ( 14.03672228932379262, 0.000000000000000000, -1.723492782810723378 ) ) ;
#709 = MANIFOLD_SOLID_BREP ( 'µ¹½Ç1', #742 ) ;
#710 = AXIS2_PLACEMENT_3D ( 'NONE', #1, #246, #682 ) ;
#711 = EDGE_CURVE ( 'NONE', #595, #55, #237, .T. ) ;
#712 = CARTESIAN_POINT ( 'NONE',  ( -19.22163806644831041, 7.500000000000000000, 4.975000000000004974 ) ) ;
#713 = CARTESIAN_POINT ( 'NONE',  ( -6.296638066448314142, 7.500000000000000000, 5.000000000000002665 ) ) ;
#714 = DIRECTION ( 'NONE',  ( 0.7071067811865843211, 0.000000000000000000, 0.7071067811865107133 ) ) ;
#715 = PRODUCT_CONTEXT ( 'NONE', #619, 'mechanical' ) ;
#716 = CARTESIAN_POINT ( 'NONE',  ( -21.72163806644831396, 10.00000000000000000, 2.816687638038912352E-15 ) ) ;
#717 = LINE ( 'NONE', #115, #224 ) ;
#718 =( NAMED_UNIT ( * ) PLANE_ANGLE_UNIT ( ) SI_UNIT ( $, .RADIAN. ) );
#719 = PLANE ( 'NONE',  #705 ) ;
#720 = ORIENTED_EDGE ( 'NONE', *, *, #526, .F. ) ;
#721 = ORIENTED_EDGE ( 'NONE', *, *, #103, .F. ) ;
#722 = CARTESIAN_POINT ( 'NONE',  ( 13.72889155166096486, 0.000000000000000000, -1.329487406007360706 ) ) ;
#723 = CARTESIAN_POINT ( 'NONE',  ( 12.68190769550624886, 10.00000000000000000, 16.25328327454669974 ) ) ;
#724 = ORIENTED_EDGE ( 'NONE', *, *, #498, .F. ) ;
#725 = ADVANCED_FACE ( 'NONE', ( #835 ), #15, .F. ) ;
#726 = ORIENTED_EDGE ( 'NONE', *, *, #310, .F. ) ;
#727 = DIRECTION ( 'NONE',  ( 1.000000000000000000, 0.000000000000000000, 0.000000000000000000 ) ) ;
#728 = CARTESIAN_POINT ( 'NONE',  ( 16.99176261534901045, 0.000000000000000000, 0.5852377496604758145 ) ) ;
#729 = ORIENTED_EDGE ( 'NONE', *, *, #624, .T. ) ;
#730 = VECTOR ( 'NONE', #368, 1000.000000000000114 ) ;
#731 = VERTEX_POINT ( 'NONE', #168 ) ;
#732 = EDGE_CURVE ( 'NONE', #307, #369, #759, .T. ) ;
#733 = SHAPE_DEFINITION_REPRESENTATION ( #761, #504 ) ;
#734 = VERTEX_POINT ( 'NONE', #309 ) ;
#735 = DIRECTION ( 'NONE',  ( 1.000000000000000000, 0.000000000000000000, 0.000000000000000000 ) ) ;
#736 = VERTEX_POINT ( 'NONE', #171 ) ;
#737 = EDGE_LOOP ( 'NONE', ( #811, #911, #213, #670, #463, #99 ) ) ;
#738 = AXIS2_PLACEMENT_3D ( 'NONE', #626, #704, #853 ) ;
#739 = EDGE_CURVE ( 'NONE', #583, #311, #306, .T. ) ;
#740 = DIRECTION ( 'NONE',  ( 1.000000000000000000, 0.000000000000000000, 0.000000000000000000 ) ) ;
#741 = VERTEX_POINT ( 'NONE', #593 ) ;
#742 = CLOSED_SHELL ( 'NONE', ( #151, #327, #541, #146, #258, #833, #390, #89, #80, #464, #534, #878, #18, #316, #234, #702, #351, #859, #6, #725, #767, #901, #618, #432, #418, #452, #567, #675, #321, #808, #338 ) ) ;
#743 = ORIENTED_EDGE ( 'NONE', *, *, #821, .F. ) ;
#744 = AXIS2_PLACEMENT_3D ( 'NONE', #184, #263, #558 ) ;
#745 = CARTESIAN_POINT ( 'NONE',  ( -19.22163806644831041, 7.500000000000000000, 0.000000000000000000 ) ) ;
#746 = DIRECTION ( 'NONE',  ( 1.000000000000000000, 0.000000000000000000, 0.000000000000000000 ) ) ;
#747 = ORIENTED_EDGE ( 'NONE', *, *, #907, .F. ) ;
#748 = VERTEX_POINT ( 'NONE', #385 ) ;
#749 = FACE_OUTER_BOUND ( 'NONE', #453, .T. ) ;
#750 = CARTESIAN_POINT ( 'NONE',  ( -4.221638066448313964, 7.500000000000000000, 4.975000000000004974 ) ) ;
#751 = ORIENTED_EDGE ( 'NONE', *, *, #359, .T. ) ;
#752 = ORIENTED_EDGE ( 'NONE', *, *, #894, .F. ) ;
#753 = VECTOR ( 'NONE', #353, 999.9999999999998863 ) ;
#754 = CARTESIAN_POINT ( 'NONE',  ( 0.000000000000000000, 10.00000000000000000, 0.000000000000000000 ) ) ;
#755 = SURFACE_STYLE_USAGE ( .BOTH. , #896 ) ;
#756 = PRODUCT ( 'µ¯»É×ù2', 'µ¯»É×ù2', '', ( #715 ) ) ;
#757 = ORIENTED_EDGE ( 'NONE', *, *, #849, .T. ) ;
#758 = CARTESIAN_POINT ( 'NONE',  ( 16.68393187768618802, 0.000000000000000000, 0.9792431264638392641 ) ) ;
#759 = LINE ( 'NONE', #382, #730 ) ;
#760 = ORIENTED_EDGE ( 'NONE', *, *, #863, .F. ) ;
#761 = PRODUCT_DEFINITION_SHAPE ( 'NONE', 'NONE',  #7 ) ;
#762 = DIRECTION ( 'NONE',  ( -0.000000000000000000, -0.000000000000000000, 1.000000000000000000 ) ) ;
#763 = DIRECTION ( 'NONE',  ( -0.6156614753256530737, 0.000000000000000000, 0.7880107536067260110 ) ) ;
#764 = EDGE_LOOP ( 'NONE', ( #826, #867, #655, #505 ) ) ;
#765 = DIRECTION ( 'NONE',  ( 0.6156614753256530737, 0.000000000000000000, -0.7880107536067260110 ) ) ;
#766 = CARTESIAN_POINT ( 'NONE',  ( 10.77385122563574527, 4.592425496802572986E-16, -3.638217938478558899 ) ) ;
#767 = ADVANCED_FACE ( 'NONE', ( #685 ), #17, .F. ) ;
#768 = ORIENTED_EDGE ( 'NONE', *, *, #59, .F. ) ;
#769 = FACE_OUTER_BOUND ( 'NONE', #430, .T. ) ;
#770 = DIRECTION ( 'NONE',  ( 1.000000000000000000, 0.000000000000000000, 0.000000000000000000 ) ) ;
#771 = CARTESIAN_POINT ( 'NONE',  ( 15.76021507213451400, 9.000000000000000000, 12.31322950651306769 ) ) ;
#772 = CARTESIAN_POINT ( 'NONE',  ( -19.22163806644831041, 7.500000000000000000, 5.000000000000002665 ) ) ;
#773 = VECTOR ( 'NONE', #84, 1000.000000000000000 ) ;
#774 = CARTESIAN_POINT ( 'NONE',  ( -6.271638066448313786, -7.500000000000000000, 4.975000000000004974 ) ) ;
#775 = DIRECTION ( 'NONE',  ( -0.000000000000000000, -0.000000000000000000, 1.000000000000000000 ) ) ;
#776 = DIRECTION ( 'NONE',  ( 0.7071067811865843211, 0.000000000000000000, 0.7071067811865107133 ) ) ;
#777 = CARTESIAN_POINT ( 'NONE',  ( 12.68190769550624886, 9.000000000000000000, 16.25328327454669974 ) ) ;
#778 = EDGE_CURVE ( 'NONE', #872, #583, #814, .T. ) ;
#779 = CARTESIAN_POINT ( 'NONE',  ( 0.000000000000000000, -10.00000000000000000, 0.000000000000000000 ) ) ;
#780 = CARTESIAN_POINT ( 'NONE',  ( -2.171638066448314586, 7.500000000000000000, 0.000000000000000000 ) ) ;
#781 = ORIENTED_EDGE ( 'NONE', *, *, #159, .F. ) ;
#782 = VECTOR ( 'NONE', #537, 1000.000000000000000 ) ;
#783 = AXIS2_PLACEMENT_3D ( 'NONE', #772, #49, #786 ) ;
#784 = DIRECTION ( 'NONE',  ( 0.000000000000000000, 0.000000000000000000, 1.000000000000000000 ) ) ;
#785 = CARTESIAN_POINT ( 'NONE',  ( -17.14663806644831112, 7.500000000000000000, 5.000000000000002665 ) ) ;
#786 = DIRECTION ( 'NONE',  ( 1.000000000000000000, 0.000000000000000000, 0.000000000000000000 ) ) ;
#787 = EDGE_CURVE ( 'NONE', #169, #518, #221, .T. ) ;
#788 = FACE_OUTER_BOUND ( 'NONE', #14, .T. ) ;
#789 = DIRECTION ( 'NONE',  ( -0.7071067811865843211, 8.659560562355383988E-17, 0.7071067811865107133 ) ) ;
#790 = ORIENTED_EDGE ( 'NONE', *, *, #668, .T. ) ;
#791 = EDGE_CURVE ( 'NONE', #741, #4, #522, .T. ) ;
#792 = CARTESIAN_POINT ( 'NONE',  ( -21.72163806644831396, 10.00000000000000000, 5.000000000000002665 ) ) ;
#793 = CARTESIAN_POINT ( 'NONE',  ( -21.72163806644831396, 10.00000000000000000, 5.000000000000002665 ) ) ;
#794 = CIRCLE ( 'NONE', #254, 2.049999999999999378 ) ;
#795 = MECHANICAL_DESIGN_GEOMETRIC_PRESENTATION_REPRESENTATION (  '', ( #917 ), #806 ) ;
#796 = ORIENTED_EDGE ( 'NONE', *, *, #93, .F. ) ;
#797 = AXIS2_PLACEMENT_3D ( 'NONE', #23, #302, #381 ) ;
#798 = ORIENTED_EDGE ( 'NONE', *, *, #697, .F. ) ;
#799 = DIRECTION ( 'NONE',  ( 1.000000000000000000, 0.000000000000000000, 0.000000000000000000 ) ) ;
#800 = CARTESIAN_POINT ( 'NONE',  ( -4.221638066448313964, -7.500000000000000000, 4.975000000000004974 ) ) ;
#801 = VERTEX_POINT ( 'NONE', #603 ) ;
#802 = ORIENTED_EDGE ( 'NONE', *, *, #270, .T. ) ;
#803 = CARTESIAN_POINT ( 'NONE',  ( -19.22163806644831041, -7.500000000000000000, 4.975000000000004974 ) ) ;
#804 = CARTESIAN_POINT ( 'NONE',  ( 0.000000000000000000, -10.00000000000000000, 0.000000000000000000 ) ) ;
#805 = ORIENTED_EDGE ( 'NONE', *, *, #837, .T. ) ;
#806 =( GEOMETRIC_REPRESENTATION_CONTEXT ( 3 ) GLOBAL_UNCERTAINTY_ASSIGNED_CONTEXT ( ( #44 ) ) GLOBAL_UNIT_ASSIGNED_CONTEXT ( ( #612, #162, #900 ) ) REPRESENTATION_CONTEXT ( 'NONE', 'WORKASPACE' ) );
#807 = ORIENTED_EDGE ( 'NONE', *, *, #668, .F. ) ;
#808 = ADVANCED_FACE ( 'NONE', ( #298 ), #233, .T. ) ;
#809 = DIRECTION ( 'NONE',  ( -0.000000000000000000, -0.000000000000000000, 1.000000000000000000 ) ) ;
#810 = ORIENTED_EDGE ( 'NONE', *, *, #636, .F. ) ;
#811 = ORIENTED_EDGE ( 'NONE', *, *, #821, .T. ) ;
#812 = VECTOR ( 'NONE', #714, 1000.000000000000000 ) ;
#813 = CYLINDRICAL_SURFACE ( 'NONE', #358, 3.749999999999997780 ) ;
#814 = LINE ( 'NONE', #377, #516 ) ;
#815 = ORIENTED_EDGE ( 'NONE', *, *, #47, .T. ) ;
#816 = CIRCLE ( 'NONE', #395, 2.075000000000000622 ) ;
#817 = ORIENTED_EDGE ( 'NONE', *, *, #787, .F. ) ;
#818 = VECTOR ( 'NONE', #404, 1000.000000000000114 ) ;
#819 = DIRECTION ( 'NONE',  ( -0.000000000000000000, -0.000000000000000000, 1.000000000000000000 ) ) ;
#820 = CARTESIAN_POINT ( 'NONE',  ( 15.76021507213451400, 10.00000000000000000, 12.31322950651306769 ) ) ;
#821 = EDGE_CURVE ( 'NONE', #595, #307, #528, .T. ) ;
#822 = ORIENTED_EDGE ( 'NONE', *, *, #284, .F. ) ;
#823 = ORIENTED_EDGE ( 'NONE', *, *, #632, .T. ) ;
#824 = CARTESIAN_POINT ( 'NONE',  ( -4.221638066448313964, -7.500000000000000000, 5.000000000000002665 ) ) ;
#825 = AXIS2_PLACEMENT_3D ( 'NONE', #920, #332, #635 ) ;
#826 = ORIENTED_EDGE ( 'NONE', *, *, #624, .F. ) ;
#827 = VECTOR ( 'NONE', #183, 1000.000000000000114 ) ;
#828 = TOROIDAL_SURFACE ( 'NONE', #566, 3.249999999999998668, 0.5000000000000000000 ) ;
#829 = DIRECTION ( 'NONE',  ( 1.000000000000000000, 0.000000000000000000, 0.000000000000000000 ) ) ;
#830 = DIRECTION ( 'NONE',  ( 1.000000000000000000, 0.000000000000000000, 0.000000000000000000 ) ) ;
#831 = CIRCLE ( 'NONE', #710, 2.049999999999999378 ) ;
#832 = VERTEX_POINT ( 'NONE', #9 ) ;
#833 = ADVANCED_FACE ( 'NONE', ( #679 ), #843, .F. ) ;
#834 = DIRECTION ( 'NONE',  ( 1.000000000000000000, 0.000000000000000000, 0.000000000000000000 ) ) ;
#835 = FACE_OUTER_BOUND ( 'NONE', #683, .T. ) ;
#836 = ORIENTED_EDGE ( 'NONE', *, *, #778, .T. ) ;
#837 = EDGE_CURVE ( 'NONE', #20, #176, #435, .T. ) ;
#838 = LINE ( 'NONE', #399, #818 ) ;
#839 = CARTESIAN_POINT ( 'NONE',  ( -4.221638066448313964, -7.500000000000000000, 5.000000000000002665 ) ) ;
#840 = VERTEX_POINT ( 'NONE', #33 ) ;
#841 = VECTOR ( 'NONE', #592, 1000.000000000000000 ) ;
#842 = CARTESIAN_POINT ( 'NONE',  ( -1.721638066448313076, -10.00000000000000000, 5.000000000000002665 ) ) ;
#843 = CYLINDRICAL_SURFACE ( 'NONE', #536, 2.049999999999998934 ) ;
#844 = EDGE_CURVE ( 'NONE', #337, #665, #560, .T. ) ;
#845 = CARTESIAN_POINT ( 'NONE',  ( -6.271638066448312898, -7.500000000000000000, 5.000000000000002665 ) ) ;
#846 = ORIENTED_EDGE ( 'NONE', *, *, #520, .F. ) ;
#847 = LINE ( 'NONE', #545, #272 ) ;
#848 = DIRECTION ( 'NONE',  ( 1.000000000000000000, 0.000000000000000000, 0.000000000000000000 ) ) ;
#849 = EDGE_CURVE ( 'NONE', #138, #294, #928, .T. ) ;
#850 = LINE ( 'NONE', #921, #940 ) ;
#851 = LINE ( 'NONE', #342, #692 ) ;
#852 = VECTOR ( 'NONE', #905, 1000.000000000000114 ) ;
#853 = DIRECTION ( 'NONE',  ( 1.000000000000000000, 0.000000000000000000, -1.296719717648562672E-16 ) ) ;
#854 = CARTESIAN_POINT ( 'NONE',  ( -4.221638066448313964, 7.500000000000000000, 5.000000000000002665 ) ) ;
#855 = DIRECTION ( 'NONE',  ( -1.000000000000000000, 0.000000000000000000, 1.296719717648562425E-16 ) ) ;
#856 = DIRECTION ( 'NONE',  ( -0.000000000000000000, -0.000000000000000000, 1.000000000000000000 ) ) ;
#857 = CYLINDRICAL_SURFACE ( 'NONE', #423, 2.049999999999998934 ) ;
#858 = FACE_OUTER_BOUND ( 'NONE', #673, .T. ) ;
#859 = ADVANCED_FACE ( 'NONE', ( #191 ), #400, .T. ) ;
#860 = DIRECTION ( 'NONE',  ( 1.000000000000000000, 0.000000000000000000, 0.000000000000000000 ) ) ;
#861 = DIRECTION ( 'NONE',  ( -0.000000000000000000, -0.000000000000000000, 1.000000000000000000 ) ) ;
#862 = VECTOR ( 'NONE', #919, 1000.000000000000000 ) ;
#863 = EDGE_CURVE ( 'NONE', #665, #4, #102, .T. ) ;
#864 = SURFACE_STYLE_USAGE ( .BOTH. , #942 ) ;
#865 = DIRECTION ( 'NONE',  ( -0.7071067811865843211, 8.659560562355383988E-17, 0.7071067811865107133 ) ) ;
#866 = CARTESIAN_POINT ( 'NONE',  ( -4.221638066448313964, -7.500000000000000000, 0.000000000000000000 ) ) ;
#867 = ORIENTED_EDGE ( 'NONE', *, *, #690, .T. ) ;
#868 = DIRECTION ( 'NONE',  ( 0.6156614753256534067, 0.000000000000000000, -0.7880107536067257890 ) ) ;
#869 = EDGE_CURVE ( 'NONE', #4, #665, #225, .T. ) ;
#870 = CARTESIAN_POINT ( 'NONE',  ( -19.22163806644831041, 7.500000000000000000, 5.000000000000002665 ) ) ;
#871 = AXIS2_PLACEMENT_3D ( 'NONE', #648, #74, #497 ) ;
#872 = VERTEX_POINT ( 'NONE', #43 ) ;
#873 = ORIENTED_EDGE ( 'NONE', *, *, #165, .T. ) ;
#874 = VECTOR ( 'NONE', #688, 1000.000000000000000 ) ;
#875 = VERTEX_POINT ( 'NONE', #98 ) ;
#876 = LINE ( 'NONE', #292, #687 ) ;
#877 = CARTESIAN_POINT ( 'NONE',  ( 0.000000000000000000, 10.00000000000000000, 0.000000000000000000 ) ) ;
#878 = ADVANCED_FACE ( 'NONE', ( #257, #909, #187, #699, #631 ), #389, .F. ) ;
#879 = EDGE_LOOP ( 'NONE', ( #282, #300, #664, #757, #31, #67 ) ) ;
#880 = ORIENTED_EDGE ( 'NONE', *, *, #948, .T. ) ;
#881 = CARTESIAN_POINT ( 'NONE',  ( -19.22163806644831041, -7.500000000000000000, 5.000000000000002665 ) ) ;
#882 = ORIENTED_EDGE ( 'NONE', *, *, #690, .F. ) ;
#883 = ORIENTED_EDGE ( 'NONE', *, *, #732, .F. ) ;
#884 = FACE_BOUND ( 'NONE', #691, .T. ) ;
#885 = EDGE_LOOP ( 'NONE', ( #515, #836, #315, #594 ) ) ;
#886 = VERTEX_POINT ( 'NONE', #689 ) ;
#887 = EDGE_CURVE ( 'NONE', #640, #946, #25, .T. ) ;
#888 = CARTESIAN_POINT ( 'NONE',  ( -19.22163806644831041, 7.500000000000000000, 5.000000000000002665 ) ) ;
#889 = DIRECTION ( 'NONE',  ( -0.6156614753256530737, 0.000000000000000000, 0.7880107536067260110 ) ) ;
#890 = VERTEX_POINT ( 'NONE', #178 ) ;
#891 = AXIS2_PLACEMENT_3D ( 'NONE', #926, #570, #197 ) ;
#892 = ORIENTED_EDGE ( 'NONE', *, *, #289, .F. ) ;
#893 = CIRCLE ( 'NONE', #477, 2.049999999999999822 ) ;
#894 = EDGE_CURVE ( 'NONE', #337, #741, #539, .T. ) ;
#895 = FACE_OUTER_BOUND ( 'NONE', #104, .T. ) ;
#896 = SURFACE_SIDE_STYLE ('',( #305 ) ) ;
#897 = ORIENTED_EDGE ( 'NONE', *, *, #284, .T. ) ;
#898 = VECTOR ( 'NONE', #606, 1000.000000000000114 ) ;
#899 = FACE_OUTER_BOUND ( 'NONE', #434, .T. ) ;
#900 =( NAMED_UNIT ( * ) SI_UNIT ( $, .STERADIAN. ) SOLID_ANGLE_UNIT ( ) );
#901 = ADVANCED_FACE ( 'NONE', ( #247 ), #458, .F. ) ;
#902 = ORIENTED_EDGE ( 'NONE', *, *, #403, .T. ) ;
#903 = CIRCLE ( 'NONE', #117, 2.075000000000000622 ) ;
#904 = FACE_OUTER_BOUND ( 'NONE', #145, .T. ) ;
#905 = DIRECTION ( 'NONE',  ( 0.6156614753256531847, 0.000000000000000000, -0.7880107536067260110 ) ) ;
#906 = VERTEX_POINT ( 'NONE', #766 ) ;
#907 = EDGE_CURVE ( 'NONE', #734, #875, #440, .T. ) ;
#908 = DIRECTION ( 'NONE',  ( -0.000000000000000000, -0.000000000000000000, 1.000000000000000000 ) ) ;
#909 = FACE_BOUND ( 'NONE', #253, .T. ) ;
#910 = AXIS2_PLACEMENT_3D ( 'NONE', #471, #112, #555 ) ;
#911 = ORIENTED_EDGE ( 'NONE', *, *, #732, .T. ) ;
#912 = CARTESIAN_POINT ( 'NONE',  ( 0.000000000000000000, 10.00000000000000000, 0.000000000000000000 ) ) ;
#913 = DIRECTION ( 'NONE',  ( -0.000000000000000000, -0.000000000000000000, 1.000000000000000000 ) ) ;
#914 = DIRECTION ( 'NONE',  ( -0.7880107536067257890, 0.000000000000000000, -0.6156614753256534067 ) ) ;
#915 = EDGE_LOOP ( 'NONE', ( #609, #962, #805, #248 ) ) ;
#916 = VECTOR ( 'NONE', #657, 1000.000000000000000 ) ;
#917 = STYLED_ITEM ( 'NONE', ( #466 ), #709 ) ;
#918 = EDGE_CURVE ( 'NONE', #448, #906, #39, .T. ) ;
#919 = DIRECTION ( 'NONE',  ( -0.7880107536067257890, -0.000000000000000000, -0.6156614753256534067 ) ) ;
#920 = CARTESIAN_POINT ( 'NONE',  ( 7.880107536067257001, 0.000000000000000000, 6.156614753256533845 ) ) ;
#921 = CARTESIAN_POINT ( 'NONE',  ( -17.14663806644831112, -7.500000000000000000, 5.000000000000002665 ) ) ;
#922 = LINE ( 'NONE', #125, #444 ) ;
#923 = CIRCLE ( 'NONE', #411, 2.049999999999999822 ) ;
#924 = DIRECTION ( 'NONE',  ( -0.7880107536067259000, 0.000000000000000000, -0.6156614753256532957 ) ) ;
#925 = LINE ( 'NONE', #120, #706 ) ;
#926 = CARTESIAN_POINT ( 'NONE',  ( -21.72163806644831396, 10.00000000000000000, 2.816687638038912352E-15 ) ) ;
#927 = AXIS2_PLACEMENT_3D ( 'NONE', #667, #960, #746 ) ;
#928 = LINE ( 'NONE', #265, #654 ) ;
#929 = LINE ( 'NONE', #713, #501 ) ;
#930 = DIRECTION ( 'NONE',  ( 0.6156614753256534067, 0.000000000000000000, -0.7880107536067257890 ) ) ;
#931 = PRODUCT_DEFINITION_CONTEXT ( 'detailed design', #607, 'design' ) ;
#932 = FACE_OUTER_BOUND ( 'NONE', #652, .T. ) ;
#933 = CARTESIAN_POINT ( 'NONE',  ( -19.22163806644831041, -7.500000000000000000, 5.000000000000002665 ) ) ;
#934 = EDGE_CURVE ( 'NONE', #369, #154, #469, .T. ) ;
#935 = AXIS2_PLACEMENT_3D ( 'NONE', #488, #314, #38 ) ;
#936 = EDGE_CURVE ( 'NONE', #369, #640, #101, .T. ) ;
#937 = VECTOR ( 'NONE', #131, 1000.000000000000000 ) ;
#938 = FACE_OUTER_BOUND ( 'NONE', #269, .T. ) ;
#939 = DIRECTION ( 'NONE',  ( 1.000000000000000000, 0.000000000000000000, 0.000000000000000000 ) ) ;
#940 = VECTOR ( 'NONE', #776, 1000.000000000000000 ) ;
#941 = EDGE_CURVE ( 'NONE', #495, #600, #356, .T. ) ;
#942 = SURFACE_SIDE_STYLE ('',( #60 ) ) ;
#943 = VERTEX_POINT ( 'NONE', #345 ) ;
#944 = DIRECTION ( 'NONE',  ( 0.6156614753256532957, 0.000000000000000000, -0.7880107536067260110 ) ) ;
#945 = DIRECTION ( 'NONE',  ( -0.000000000000000000, -0.000000000000000000, 1.000000000000000000 ) ) ;
#946 = VERTEX_POINT ( 'NONE', #496 ) ;
#947 = EDGE_LOOP ( 'NONE', ( #71, #530 ) ) ;
#948 = EDGE_CURVE ( 'NONE', #294, #801, #54, .T. ) ;
#949 = VECTOR ( 'NONE', #28, 1000.000000000000114 ) ;
#950 = ORIENTED_EDGE ( 'NONE', *, *, #645, .T. ) ;
#951 = CARTESIAN_POINT ( 'NONE',  ( -6.296638066448314142, -7.500000000000000000, 5.000000000000002665 ) ) ;
#952 = CARTESIAN_POINT ( 'NONE',  ( 10.83514786209247660, 0.000000000000000000, 8.465345285727732261 ) ) ;
#953 = AXIS2_PLACEMENT_3D ( 'NONE', #297, #152, #232 ) ;
#954 = ORIENTED_EDGE ( 'NONE', *, *, #11, .T. ) ;
#955 = ORIENTED_EDGE ( 'NONE', *, *, #934, .F. ) ;
#956 = LINE ( 'NONE', #216, #128 ) ;
#957 = ORIENTED_EDGE ( 'NONE', *, *, #460, .F. ) ;
#958 = ORIENTED_EDGE ( 'NONE', *, *, #186, .T. ) ;
#959 = FACE_BOUND ( 'NONE', #547, .T. ) ;
#960 = DIRECTION ( 'NONE',  ( -0.000000000000000000, -0.000000000000000000, 1.000000000000000000 ) ) ;
#961 = ORIENTED_EDGE ( 'NONE', *, *, #343, .T. ) ;
#962 = ORIENTED_EDGE ( 'NONE', *, *, #526, .T. ) ;
ENDSEC;
END-ISO-10303-21;
