ISO-10303-21;
HEADER;
FILE_DESCRIPTION (( 'STEP AP214' ),
    '1' );
FILE_NAME ('·ö´Ð.step',
    '2023-08-15T03:00:09',
    ( '' ),
    ( '' ),
    'SwSTEP 2.0',
    'SolidWorks 2022',
    '' );
FILE_SCHEMA (( 'AUTOMOTIVE_DESIGN' ));
ENDSEC;

DATA;
#1 = ORIENTED_EDGE ( 'NONE', *, *, #910, .F. ) ;
#2 = B_SPLINE_CURVE_WITH_KNOTS ( 'NONE', 2,
 ( #92, #847, #242 ),
 .UNSPECIFIED., .F., .F.,
 ( 3, 3 ),
 ( 0.000000000000000000, 1.000000000000000000 ),
 .UNSPECIFIED. ) ;
#3 = CARTESIAN_POINT ( 'NONE',  ( -82.36167564606721214, -4.713858918660789321, 4.979472381382580970 ) ) ;
#4 = EDGE_CURVE ( 'NONE', #647, #218, #540, .T. ) ;
#5 = EDGE_CURVE ( 'NONE', #364, #167, #87, .T. ) ;
#6 = STYLED_ITEM ( 'NONE', ( #940 ), #51 ) ;
#7 = ORIENTED_EDGE ( 'NONE', *, *, #34, .F. ) ;
#8 = LINE ( 'NONE', #624, #589 ) ;
#9 = EDGE_CURVE ( 'NONE', #722, #539, #368, .T. ) ;
#10 = ORIENTED_EDGE ( 'NONE', *, *, #564, .F. ) ;
#11 = DIRECTION ( 'NONE',  ( 1.267794691205739560E-15, -6.972870801631567776E-15, 1.000000000000000000 ) ) ;
#12 = PLANE ( 'NONE',  #74 ) ;
#13 = CARTESIAN_POINT ( 'NONE',  ( 29.99999999999998579, -7.263400000000032719, 9.000000000000010658 ) ) ;
#14 = ORIENTED_EDGE ( 'NONE', *, *, #119, .T. ) ;
#15 = CARTESIAN_POINT ( 'NONE',  ( -73.93830074584427337, -7.263400000000019396, 9.000000000000010658 ) ) ;
#16 = DIRECTION ( 'NONE',  ( -3.469446951953614189E-16, 1.000000000000000000, -0.000000000000000000 ) ) ;
#17 = CARTESIAN_POINT ( 'NONE',  ( -73.93830074584427337, -7.263400000000019396, 11.00000000000001066 ) ) ;
#18 = AXIS2_PLACEMENT_3D ( 'NONE', #805, #591, #952 ) ;
#19 = ORIENTED_EDGE ( 'NONE', *, *, #461, .T. ) ;
#20 = LINE ( 'NONE', #112, #792 ) ;
#21 = APPLICATION_CONTEXT ( 'automotive_design' ) ;
#22 = AXIS2_PLACEMENT_3D ( 'NONE', #875, #882, #248 ) ;
#23 = DIRECTION ( 'NONE',  ( -0.3420201433256731538, -0.9396926207859067626, -6.554929328128280303E-15 ) ) ;
#24 = ORIENTED_EDGE ( 'NONE', *, *, #582, .F. ) ;
#25 = UNCERTAINTY_MEASURE_WITH_UNIT (LENGTH_MEASURE( 1.000000000000000082E-05 ), #476, 'distance_accuracy_value', 'NONE');
#26 = LINE ( 'NONE', #91, #728 ) ;
#27 = VECTOR ( 'NONE', #369, 1000.000000000000114 ) ;
#28 = LINE ( 'NONE', #38, #668 ) ;
#29 = EDGE_CURVE ( 'NONE', #238, #902, #778, .T. ) ;
#30 = DIRECTION ( 'NONE',  ( 3.469446951953614189E-16, -1.000000000000000000, 0.000000000000000000 ) ) ;
#31 = EDGE_LOOP ( 'NONE', ( #818, #264, #780, #280 ) ) ;
#32 = SURFACE_SIDE_STYLE ('',( #395 ) ) ;
#33 = DIRECTION ( 'NONE',  ( -0.9396926207859072067, 0.3420201433256719326, 0.000000000000000000 ) ) ;
#34 = EDGE_CURVE ( 'NONE', #432, #980, #230, .T. ) ;
#35 = DIRECTION ( 'NONE',  ( 1.000000000000000000, 0.000000000000000000, 0.000000000000000000 ) ) ;
#36 = ORIENTED_EDGE ( 'NONE', *, *, #522, .T. ) ;
#37 = AXIS2_PLACEMENT_3D ( 'NONE', #786, #97, #640 ) ;
#38 = CARTESIAN_POINT ( 'NONE',  ( -83.22576356896708205, -4.399356634936334665, 6.755546809730303082 ) ) ;
#39 = VECTOR ( 'NONE', #430, 1000.000000000000000 ) ;
#40 = CARTESIAN_POINT ( 'NONE',  ( -70.00000000000000000, 3.556992370228188705, 11.00000000000008527 ) ) ;
#41 = EDGE_CURVE ( 'NONE', #218, #171, #151, .T. ) ;
#42 = ORIENTED_EDGE ( 'NONE', *, *, #221, .F. ) ;
#43 = DIRECTION ( 'NONE',  ( 0.000000000000000000, -7.065124121545603300E-15, 1.000000000000000000 ) ) ;
#44 = DIRECTION ( 'NONE',  ( 0.3420201433256723211, 0.9396926207859072067, 2.304090018050247374E-15 ) ) ;
#45 = EDGE_LOOP ( 'NONE', ( #973, #636, #342, #664 ) ) ;
#46 = EDGE_CURVE ( 'NONE', #371, #160, #775, .T. ) ;
#47 = CARTESIAN_POINT ( 'NONE',  ( -157.9869750792975651, 35.58163230221522610, -9.275152729539058782 ) ) ;
#48 = PLANE ( 'NONE',  #86 ) ;
#49 = PLANE ( 'NONE',  #547 ) ;
#50 = ORIENTED_EDGE ( 'NONE', *, *, #481, .F. ) ;
#51 = ADVANCED_BREP_SHAPE_REPRESENTATION ( '·ö´Ð', ( #489, #316 ), #859 ) ;
#52 = LINE ( 'NONE', #351, #983 ) ;
#53 = LINE ( 'NONE', #201, #732 ) ;
#54 = DIRECTION ( 'NONE',  ( 1.000000000000000000, 0.000000000000000000, -1.177520686924250585E-15 ) ) ;
#55 = VERTEX_POINT ( 'NONE', #83 ) ;
#56 = ORIENTED_EDGE ( 'NONE', *, *, #718, .F. ) ;
#57 = FACE_OUTER_BOUND ( 'NONE', #615, .T. ) ;
#58 = LINE ( 'NONE', #515, #556 ) ;
#59 = EDGE_CURVE ( 'NONE', #705, #274, #321, .T. ) ;
#60 = CARTESIAN_POINT ( 'NONE',  ( -157.9869750792975651, 35.58163230221522610, -9.275152729539058782 ) ) ;
#61 = ORIENTED_EDGE ( 'NONE', *, *, #433, .F. ) ;
#62 = ORIENTED_EDGE ( 'NONE', *, *, #9, .F. ) ;
#63 = DIRECTION ( 'NONE',  ( 1.000000000000000000, -6.400829601191897214E-45, 9.195367821350247611E-31 ) ) ;
#64 = LINE ( 'NONE', #820, #812 ) ;
#65 = CARTESIAN_POINT ( 'NONE',  ( 29.99999999999998934, -7.263400000000031831, 8.999999999999939604 ) ) ;
#66 = ORIENTED_EDGE ( 'NONE', *, *, #107, .F. ) ;
#67 = ORIENTED_EDGE ( 'NONE', *, *, #461, .F. ) ;
#68 = CARTESIAN_POINT ( 'NONE',  ( 29.99999999999999645, -7.263399999999999856, -2.000000000000000888 ) ) ;
#69 = DIRECTION ( 'NONE',  ( 0.3420201433256730428, 0.9396926207859067626, 6.423897871976612983E-15 ) ) ;
#70 = AXIS2_PLACEMENT_3D ( 'NONE', #631, #178, #779 ) ;
#71 = CARTESIAN_POINT ( 'NONE',  ( 29.99999999999999645, -7.263400000000031831, 8.999999999999939604 ) ) ;
#72 = ADVANCED_FACE ( 'NONE', ( #304 ), #391, .T. ) ;
#73 = ORIENTED_EDGE ( 'NONE', *, *, #803, .T. ) ;
#74 = AXIS2_PLACEMENT_3D ( 'NONE', #629, #707, #554 ) ;
#75 = DIRECTION ( 'NONE',  ( 0.000000000000000000, -3.469446951953612611E-15, 1.000000000000000000 ) ) ;
#76 = DIRECTION ( 'NONE',  ( -1.267794691205739560E-15, 0.000000000000000000, -1.000000000000000000 ) ) ;
#77 = CIRCLE ( 'NONE', #159, 2.736600000000000588 ) ;
#78 = EDGE_CURVE ( 'NONE', #470, #314, #691, .T. ) ;
#79 = EDGE_LOOP ( 'NONE', ( #939, #641, #310, #98 ) ) ;
#80 = CARTESIAN_POINT ( 'NONE',  ( 29.99999999999998934, 10.00000000000000178, 0.000000000000000000 ) ) ;
#81 = DIRECTION ( 'NONE',  ( -0.3420201433256723211, -0.9396926207859072067, -2.304090018050247374E-15 ) ) ;
#82 = ORIENTED_EDGE ( 'NONE', *, *, #131, .T. ) ;
#83 = CARTESIAN_POINT ( 'NONE',  ( -73.93830074584425915, -7.263400000000018508, 11.00000000000001066 ) ) ;
#84 = ORIENTED_EDGE ( 'NONE', *, *, #787, .T. ) ;
#85 = CARTESIAN_POINT ( 'NONE',  ( 0.000000000000000000, 0.000000000000000000, 0.000000000000000000 ) ) ;
#86 = AXIS2_PLACEMENT_3D ( 'NONE', #374, #532, #913 ) ;
#87 = LINE ( 'NONE', #474, #399 ) ;
#88 = EDGE_CURVE ( 'NONE', #306, #915, #2, .T. ) ;
#89 = CARTESIAN_POINT ( 'NONE',  ( -78.68947788760884521, 6.719703672632240554, 5.867509595556052560 ) ) ;
#90 = ORIENTED_EDGE ( 'NONE', *, *, #543, .T. ) ;
#91 = CARTESIAN_POINT ( 'NONE',  ( -30.00000000000001066, 10.00000000000000178, -2.000000000000000000 ) ) ;
#92 = CARTESIAN_POINT ( 'NONE',  ( -83.22576356896708205, -4.399356634936334665, 6.755546809730303082 ) ) ;
#93 = CARTESIAN_POINT ( 'NONE',  ( -75.02509015734338504, -6.867841003298652325, 10.74360189000452692 ) ) ;
#94 = VERTEX_POINT ( 'NONE', #157 ) ;
#95 = CARTESIAN_POINT ( 'NONE',  ( 29.99999999999999645, -7.263400000000026502, 8.263399999999951007 ) ) ;
#96 = B_SPLINE_SURFACE_WITH_KNOTS ( 'NONE', 2, 1, ( 
 ( #692, #988 ),
 ( #448, #917 ),
 ( #756, #761 ) ),
 .UNSPECIFIED., .F., .F., .F.,
 ( 3, 3 ),
 ( 2, 2 ),
 ( 0.000000000000000000, 1.000000000000000000 ),
 ( 0.000000000000000000, 1.000000000000000000 ),
 .UNSPECIFIED. ) ;
#97 = DIRECTION ( 'NONE',  ( -0.3420201433256723211, -0.9396926207859070956, -2.304090018050247374E-15 ) ) ;
#98 = ORIENTED_EDGE ( 'NONE', *, *, #817, .F. ) ;
#99 = EDGE_CURVE ( 'NONE', #539, #478, #703, .T. ) ;
#100 = CARTESIAN_POINT ( 'NONE',  ( -157.7183052107951653, 35.48384446723611774, -7.295694712533140169 ) ) ;
#101 = VECTOR ( 'NONE', #315, 1000.000000000000000 ) ;
#102 = CARTESIAN_POINT ( 'NONE',  ( -70.00000000000000000, 3.556992370228197586, 8.263400000000089562 ) ) ;
#103 = VECTOR ( 'NONE', #235, 1000.000000000000114 ) ;
#104 = CARTESIAN_POINT ( 'NONE',  ( -70.29252688756496070, 3.663463450024376122, 8.930986315931251696 ) ) ;
#105 = ORIENTED_EDGE ( 'NONE', *, *, #387, .T. ) ;
#106 = CYLINDRICAL_SURFACE ( 'NONE', #133, 2.736600000000000588 ) ;
#107 = EDGE_CURVE ( 'NONE', #287, #371, #770, .T. ) ;
#108 = VECTOR ( 'NONE', #30, 1000.000000000000000 ) ;
#109 = FACE_OUTER_BOUND ( 'NONE', #751, .T. ) ;
#110 = LINE ( 'NONE', #959, #634 ) ;
#111 = ORIENTED_EDGE ( 'NONE', *, *, #754, .T. ) ;
#112 = CARTESIAN_POINT ( 'NONE',  ( -30.00000000000000355, -8.000000000000000000, 0.7365999999999970349 ) ) ;
#113 = EDGE_CURVE ( 'NONE', #903, #989, #772, .T. ) ;
#114 = EDGE_LOOP ( 'NONE', ( #224, #130, #149, #486 ) ) ;
#115 = CARTESIAN_POINT ( 'NONE',  ( -1.011490460348532912E-29, -6.901253452356823130E-14, 9.000000000000062172 ) ) ;
#116 = ORIENTED_EDGE ( 'NONE', *, *, #447, .F. ) ;
#117 = CYLINDRICAL_SURFACE ( 'NONE', #586, 0.7366000000000004766 ) ;
#118 = AXIS2_PLACEMENT_3D ( 'NONE', #435, #916, #206 ) ;
#119 = EDGE_CURVE ( 'NONE', #548, #358, #621, .T. ) ;
#120 = DIRECTION ( 'NONE',  ( -0.3420201433256721546, -0.9396926207859070956, -6.033938902194580853E-15 ) ) ;
#121 = ORIENTED_EDGE ( 'NONE', *, *, #278, .T. ) ;
#122 = LINE ( 'NONE', #514, #460 ) ;
#123 = DIRECTION ( 'NONE',  ( 0.9396926207859067626, -0.3420201433256730428, 0.000000000000000000 ) ) ;
#124 = DIRECTION ( 'NONE',  ( 9.195367821350247611E-31, 6.904675311588638925E-15, -1.000000000000000000 ) ) ;
#125 = EDGE_LOOP ( 'NONE', ( #837, #953, #143, #693 ) ) ;
#126 = UNCERTAINTY_MEASURE_WITH_UNIT (LENGTH_MEASURE( 1.000000000000000082E-05 ), #320, 'distance_accuracy_value', 'NONE');
#127 = CARTESIAN_POINT ( 'NONE',  ( -70.00000000000000000, 3.556992370228198030, 8.263400000000089562 ) ) ;
#128 = CARTESIAN_POINT ( 'NONE',  ( -30.00000000000001066, 10.00000000000000178, 0.000000000000000000 ) ) ;
#129 = LINE ( 'NONE', #436, #27 ) ;
#130 = ORIENTED_EDGE ( 'NONE', *, *, #683, .F. ) ;
#131 = EDGE_CURVE ( 'NONE', #671, #980, #546, .T. ) ;
#132 = AXIS2_PLACEMENT_3D ( 'NONE', #783, #842, #704 ) ;
#133 = AXIS2_PLACEMENT_3D ( 'NONE', #163, #553, #870 ) ;
#134 = DIRECTION ( 'NONE',  ( -1.000000000000000000, -0.000000000000000000, 1.177520686924250585E-15 ) ) ;
#135 = LINE ( 'NONE', #738, #653 ) ;
#136 = DIRECTION ( 'NONE',  ( 0.000000000000000000, 0.000000000000000000, -1.000000000000000000 ) ) ;
#137 = ORIENTED_EDGE ( 'NONE', *, *, #638, .T. ) ;
#138 = ORIENTED_EDGE ( 'NONE', *, *, #107, .T. ) ;
#139 = CARTESIAN_POINT ( 'NONE',  ( -70.00000000000000000, 3.556992370228190481, 11.00000000000004796 ) ) ;
#140 = EDGE_CURVE ( 'NONE', #671, #478, #8, .T. ) ;
#141 = CARTESIAN_POINT ( 'NONE',  ( 29.99999999999999289, 3.556992370228188705, 11.00000000000008527 ) ) ;
#142 = FACE_OUTER_BOUND ( 'NONE', #188, .T. ) ;
#143 = ORIENTED_EDGE ( 'NONE', *, *, #250, .F. ) ;
#144 = VERTEX_POINT ( 'NONE', #857 ) ;
#145 = DIRECTION ( 'NONE',  ( -1.000000000000000000, 0.000000000000000000, 0.000000000000000000 ) ) ;
#146 = DIRECTION ( 'NONE',  ( -0.9396926207859072067, 0.3420201433256720991, -6.338973456028762880E-15 ) ) ;
#147 = EDGE_CURVE ( 'NONE', #545, #405, #480, .T. ) ;
#148 = CARTESIAN_POINT ( 'NONE',  ( -70.00000000000000000, 3.556992370228202471, 9.000000000000085265 ) ) ;
#149 = ORIENTED_EDGE ( 'NONE', *, *, #267, .T. ) ;
#150 = LINE ( 'NONE', #865, #259 ) ;
#151 = LINE ( 'NONE', #311, #932 ) ;
#152 = PLANE ( 'NONE',  #608 ) ;
#153 = ADVANCED_FACE ( 'NONE', ( #396 ), #12, .F. ) ;
#154 = AXIS2_PLACEMENT_3D ( 'NONE', #102, #867, #33 ) ;
#155 = ORIENTED_EDGE ( 'NONE', *, *, #41, .T. ) ;
#156 = CIRCLE ( 'NONE', #22, 0.7366000000000004766 ) ;
#157 = CARTESIAN_POINT ( 'NONE',  ( -82.19573467200339678, -4.257939839458139808, 4.979472381382584523 ) ) ;
#158 = DIRECTION ( 'NONE',  ( 0.3971312619670972488, -0.1445439584525927412, -0.9063077870366534894 ) ) ;
#159 = AXIS2_PLACEMENT_3D ( 'NONE', #914, #835, #136 ) ;
#160 = VERTEX_POINT ( 'NONE', #723 ) ;
#161 = DIRECTION ( 'NONE',  ( -0.3971312619670971378, 0.1445439584525927967, 0.9063077870366533784 ) ) ;
#162 = ORIENTED_EDGE ( 'NONE', *, *, #790, .F. ) ;
#163 = CARTESIAN_POINT ( 'NONE',  ( 29.99999999999999645, -7.263399999999999856, 0.7365999999999995884 ) ) ;
#164 = ADVANCED_FACE ( 'NONE', ( #186 ), #807, .F. ) ;
#165 = DIRECTION ( 'NONE',  ( -0.8516507396391473916, 0.3099755192194523223, -0.4226182617406918918 ) ) ;
#166 = PLANE ( 'NONE',  #132 ) ;
#167 = VERTEX_POINT ( 'NONE', #945 ) ;
#168 = AXIS2_PLACEMENT_3D ( 'NONE', #907, #453, #76 ) ;
#169 = DIRECTION ( 'NONE',  ( 0.000000000000000000, 0.000000000000000000, -1.000000000000000000 ) ) ;
#170 = LINE ( 'NONE', #929, #568 ) ;
#171 = VERTEX_POINT ( 'NONE', #785 ) ;
#172 = FACE_OUTER_BOUND ( 'NONE', #529, .T. ) ;
#173 = LINE ( 'NONE', #567, #353 ) ;
#174 = ADVANCED_FACE ( 'NONE', ( #559 ), #117, .F. ) ;
#175 = ORIENTED_EDGE ( 'NONE', *, *, #962, .T. ) ;
#176 =( LENGTH_UNIT ( ) NAMED_UNIT ( * ) SI_UNIT ( .MILLI., .METRE. ) );
#177 = DIRECTION ( 'NONE',  ( 0.3420201433256730428, 0.9396926207859067626, 6.423897871976612983E-15 ) ) ;
#178 = DIRECTION ( 'NONE',  ( -1.000000000000000000, 0.000000000000000000, 0.000000000000000000 ) ) ;
#179 = EDGE_CURVE ( 'NONE', #902, #918, #183, .T. ) ;
#180 = ORIENTED_EDGE ( 'NONE', *, *, #34, .T. ) ;
#181 = EDGE_CURVE ( 'NONE', #545, #364, #879, .T. ) ;
#182 = DIRECTION ( 'NONE',  ( 3.469446951953614189E-16, -1.000000000000000000, 0.000000000000000000 ) ) ;
#183 = LINE ( 'NONE', #802, #665 ) ;
#184 = DIRECTION ( 'NONE',  ( 0.000000000000000000, -7.065124121545599355E-15, 1.000000000000000000 ) ) ;
#185 = VERTEX_POINT ( 'NONE', #942 ) ;
#186 = FACE_OUTER_BOUND ( 'NONE', #935, .T. ) ;
#187 = CARTESIAN_POINT ( 'NONE',  ( -79.08660914957614807, 6.864247631084906764, 6.773817382593170677 ) ) ;
#188 = EDGE_LOOP ( 'NONE', ( #82, #684, #948, #881, #449, #836 ) ) ;
#189 = CARTESIAN_POINT ( 'NONE',  ( -73.93830074584427337, -7.263400000000019396, 9.000000000000010658 ) ) ;
#190 = EDGE_CURVE ( 'NONE', #314, #501, #796, .T. ) ;
#191 = EDGE_LOOP ( 'NONE', ( #809, #292, #512, #580, #50 ) ) ;
#192 = DIRECTION ( 'NONE',  ( 1.000000000000000000, 0.000000000000000000, -0.000000000000000000 ) ) ;
#193 = B_SPLINE_CURVE_WITH_KNOTS ( 'NONE', 2,
 ( #856, #861, #100 ),
 .UNSPECIFIED., .F., .F.,
 ( 3, 3 ),
 ( 0.000000000000000000, 1.000000000000000000 ),
 .UNSPECIFIED. ) ;
#194 = ORIENTED_EDGE ( 'NONE', *, *, #910, .T. ) ;
#195 = CARTESIAN_POINT ( 'NONE',  ( 29.99999999999999645, -7.263399999999999856, -8.673617379884035472E-16 ) ) ;
#196 = PLANE ( 'NONE',  #927 ) ;
#197 = CIRCLE ( 'NONE', #154, 0.7365999999999611747 ) ;
#198 = ORIENTED_EDGE ( 'NONE', *, *, #227, .F. ) ;
#199 = DIRECTION ( 'NONE',  ( 0.3420201433256730428, 0.9396926207859067626, 6.423897871976612983E-15 ) ) ;
#200 = CIRCLE ( 'NONE', #769, 2.736599999999961952 ) ;
#201 = CARTESIAN_POINT ( 'NONE',  ( 29.99999999999999289, 3.556992370228188705, 11.00000000000008527 ) ) ;
#202 = CARTESIAN_POINT ( 'NONE',  ( 29.99999999999999645, -9.999999999999998224, -6.982962677686266711E-15 ) ) ;
#203 = EDGE_CURVE ( 'NONE', #545, #705, #197, .T. ) ;
#204 = ORIENTED_EDGE ( 'NONE', *, *, #335, .F. ) ;
#205 = CARTESIAN_POINT ( 'NONE',  ( -30.00000000000000000, -7.263400000000024725, 11.00000000000001066 ) ) ;
#206 = DIRECTION ( 'NONE',  ( 0.000000000000000000, 0.000000000000000000, 1.000000000000000000 ) ) ;
#207 = VECTOR ( 'NONE', #16, 1000.000000000000000 ) ;
#208 = CARTESIAN_POINT ( 'NONE',  ( -162.0912167992056538, 24.30532085278434096, -9.275152729539135166 ) ) ;
#209 = ORIENTED_EDGE ( 'NONE', *, *, #657, .T. ) ;
#210 = ADVANCED_FACE ( 'NONE', ( #648 ), #263, .F. ) ;
#211 = ORIENTED_EDGE ( 'NONE', *, *, #504, .T. ) ;
#212 = VECTOR ( 'NONE', #625, 1000.000000000000000 ) ;
#213 =( GEOMETRIC_REPRESENTATION_CONTEXT ( 3 ) GLOBAL_UNCERTAINTY_ASSIGNED_CONTEXT ( ( #126 ) ) GLOBAL_UNIT_ASSIGNED_CONTEXT ( ( #320, #562, #633 ) ) REPRESENTATION_CONTEXT ( 'NONE', 'WORKASPACE' ) );
#214 = LINE ( 'NONE', #819, #712 ) ;
#215 = CARTESIAN_POINT ( 'NONE',  ( 29.99999999999998934, 10.00000000000000178, 0.000000000000000000 ) ) ;
#216 = FACE_OUTER_BOUND ( 'NONE', #270, .T. ) ;
#217 = VECTOR ( 'NONE', #588, 1000.000000000000000 ) ;
#218 = VERTEX_POINT ( 'NONE', #499 ) ;
#219 = ORIENTED_EDGE ( 'NONE', *, *, #278, .F. ) ;
#220 = DIRECTION ( 'NONE',  ( 1.177520686924250585E-15, 0.000000000000000000, 1.000000000000000000 ) ) ;
#221 = EDGE_CURVE ( 'NONE', #722, #55, #719, .T. ) ;
#222 = CARTESIAN_POINT ( 'NONE',  ( -30.00000000000000355, -7.263399999999985646, -2.000000000000000000 ) ) ;
#223 = CARTESIAN_POINT ( 'NONE',  ( -30.00000000000000355, -7.263399999999999856, 0.7365999999999995884 ) ) ;
#224 = ORIENTED_EDGE ( 'NONE', *, *, #468, .F. ) ;
#225 = DIRECTION ( 'NONE',  ( 0.000000000000000000, 0.000000000000000000, -1.000000000000000000 ) ) ;
#226 = CARTESIAN_POINT ( 'NONE',  ( 29.99999999999999645, -8.000000000000017764, 8.263400000000009626 ) ) ;
#227 = EDGE_CURVE ( 'NONE', #647, #381, #20, .T. ) ;
#228 = FACE_OUTER_BOUND ( 'NONE', #829, .T. ) ;
#229 = ORIENTED_EDGE ( 'NONE', *, *, #522, .F. ) ;
#230 = LINE ( 'NONE', #923, #417 ) ;
#231 = DIRECTION ( 'NONE',  ( 0.4445129523522169945, 0.000000000000000000, -0.8957724237724198346 ) ) ;
#232 = AXIS2_PLACEMENT_3D ( 'NONE', #407, #791, #713 ) ;
#233 = EDGE_LOOP ( 'NONE', ( #66, #735, #198, #300 ) ) ;
#234 = CIRCLE ( 'NONE', #891, 0.7365999999999900405 ) ;
#235 = DIRECTION ( 'NONE',  ( 0.1343349342512038802, -0.04889391748955428108, 0.9897290085029585294 ) ) ;
#236 = AXIS2_PLACEMENT_3D ( 'NONE', #569, #265, #415 ) ;
#237 = EDGE_CURVE ( 'NONE', #306, #903, #28, .T. ) ;
#238 = VERTEX_POINT ( 'NONE', #326 ) ;
#239 = CARTESIAN_POINT ( 'NONE',  ( -30.00000000000001066, 10.00000000000000178, -2.000000000000000000 ) ) ;
#240 = SURFACE_STYLE_FILL_AREA ( #322 ) ;
#241 = ORIENTED_EDGE ( 'NONE', *, *, #414, .F. ) ;
#242 = CARTESIAN_POINT ( 'NONE',  ( -161.8225469307032540, 24.20753301780523259, -7.295694712533217441 ) ) ;
#243 = AXIS2_PLACEMENT_3D ( 'NONE', #127, #752, #825 ) ;
#244 = FACE_OUTER_BOUND ( 'NONE', #467, .T. ) ;
#245 = ORIENTED_EDGE ( 'NONE', *, *, #319, .F. ) ;
#246 = CARTESIAN_POINT ( 'NONE',  ( 29.99999999999998934, 10.00000000000000178, -2.000000000000000000 ) ) ;
#247 = AXIS2_PLACEMENT_3D ( 'NONE', #771, #158, #465 ) ;
#248 = DIRECTION ( 'NONE',  ( 0.000000000000000000, 0.000000000000000000, -1.000000000000000000 ) ) ;
#249 = AXIS2_PLACEMENT_3D ( 'NONE', #577, #642, #268 ) ;
#250 = EDGE_CURVE ( 'NONE', #989, #915, #637, .T. ) ;
#251 = CARTESIAN_POINT ( 'NONE',  ( -30.00000000000001066, 10.00000000000000178, -2.000000000000000000 ) ) ;
#252 = ORIENTED_EDGE ( 'NONE', *, *, #498, .F. ) ;
#253 = DIRECTION ( 'NONE',  ( 0.1343349342512038802, -0.04889391748955428108, 0.9897290085029585294 ) ) ;
#254 = ADVANCED_FACE ( 'NONE', ( #331 ), #654, .T. ) ;
#255 = LINE ( 'NONE', #13, #437 ) ;
#256 = ORIENTED_EDGE ( 'NONE', *, *, #9, .T. ) ;
#257 = DIRECTION ( 'NONE',  ( 1.000000000000000000, -1.251745119601279247E-16, 5.524741976377271179E-32 ) ) ;
#258 = CARTESIAN_POINT ( 'NONE',  ( 29.99999999999999289, 3.556992370228202471, 9.000000000000085265 ) ) ;
#259 = VECTOR ( 'NONE', #764, 1000.000000000000000 ) ;
#260 = COLOUR_RGB ( '',0.2862745098039215508, 0.6627450980392156632, 0.3294117647058823484 ) ;
#261 = FACE_OUTER_BOUND ( 'NONE', #31, .T. ) ;
#262 = EDGE_LOOP ( 'NONE', ( #972, #162, #105, #428 ) ) ;
#263 = PLANE ( 'NONE',  #232 ) ;
#264 = ORIENTED_EDGE ( 'NONE', *, *, #570, .F. ) ;
#265 = DIRECTION ( 'NONE',  ( 1.000000000000000000, -0.000000000000000000, -0.000000000000000000 ) ) ;
#266 = ORIENTED_EDGE ( 'NONE', *, *, #29, .F. ) ;
#267 = EDGE_CURVE ( 'NONE', #725, #390, #173, .T. ) ;
#268 = DIRECTION ( 'NONE',  ( 0.9396926207859067626, -0.3420201433256729873, 0.000000000000000000 ) ) ;
#269 = PLANE ( 'NONE',  #895 ) ;
#270 = EDGE_LOOP ( 'NONE', ( #866, #768, #530, #845 ) ) ;
#271 = PLANE ( 'NONE',  #906 ) ;
#272 = VECTOR ( 'NONE', #694, 1000.000000000000000 ) ;
#273 = DIRECTION ( 'NONE',  ( 3.002032744168973188E-16, -1.000000000000000000, -6.904675311588638925E-15 ) ) ;
#274 = VERTEX_POINT ( 'NONE', #258 ) ;
#275 = DIRECTION ( 'NONE',  ( 0.000000000000000000, 0.000000000000000000, 1.000000000000000000 ) ) ;
#276 = DIRECTION ( 'NONE',  ( 1.000000000000000000, -1.251745119601279247E-16, 0.000000000000000000 ) ) ;
#277 = CARTESIAN_POINT ( 'NONE',  ( -79.08660914957614807, 6.864247631084904988, 6.773817382593170677 ) ) ;
#278 = EDGE_CURVE ( 'NONE', #381, #238, #156, .T. ) ;
#279 = FACE_OUTER_BOUND ( 'NONE', #697, .T. ) ;
#280 = ORIENTED_EDGE ( 'NONE', *, *, #787, .F. ) ;
#281 = DIRECTION ( 'NONE',  ( 1.000000000000000000, 0.000000000000000000, -1.177520686924250585E-15 ) ) ;
#282 = CIRCLE ( 'NONE', #720, 2.736599999999989929 ) ;
#283 = DIRECTION ( 'NONE',  ( -3.944304526105059027E-31, 6.960928290796745966E-15, -1.000000000000000000 ) ) ;
#284 = EDGE_CURVE ( 'NONE', #306, #731, #563, .T. ) ;
#285 = FACE_OUTER_BOUND ( 'NONE', #365, .T. ) ;
#286 = ADVANCED_FACE ( 'NONE', ( #109 ), #413, .T. ) ;
#287 = VERTEX_POINT ( 'NONE', #742 ) ;
#288 = EDGE_LOOP ( 'NONE', ( #908, #715, #303, #956, #204, #660 ) ) ;
#289 = DIRECTION ( 'NONE',  ( 0.000000000000000000, 0.000000000000000000, -1.000000000000000000 ) ) ;
#290 = DIRECTION ( 'NONE',  ( 3.002032744168973188E-16, -1.000000000000000000, -6.904675311588638925E-15 ) ) ;
#291 = PLANE ( 'NONE',  #985 ) ;
#292 = ORIENTED_EDGE ( 'NONE', *, *, #803, .F. ) ;
#293 = EDGE_CURVE ( 'NONE', #405, #877, #746, .T. ) ;
#294 = ORIENTED_EDGE ( 'NONE', *, *, #498, .T. ) ;
#295 = CARTESIAN_POINT ( 'NONE',  ( -82.19573467200339678, -4.257939839458139808, 4.979472381382584523 ) ) ;
#296 = DIRECTION ( 'NONE',  ( 0.000000000000000000, 6.960928290796745966E-15, -1.000000000000000000 ) ) ;
#297 = DIRECTION ( 'NONE',  ( 1.000000000000000000, 0.000000000000000000, -1.177520686924250585E-15 ) ) ;
#298 = VECTOR ( 'NONE', #69, 1000.000000000000227 ) ;
#299 = ADVANCED_FACE ( 'NONE', ( #429 ), #904, .T. ) ;
#300 = ORIENTED_EDGE ( 'NONE', *, *, #710, .T. ) ;
#301 = LINE ( 'NONE', #963, #217 ) ;
#302 = CARTESIAN_POINT ( 'NONE',  ( -82.36167564606721214, -4.713858918660789321, 4.979472381382580970 ) ) ;
#303 = ORIENTED_EDGE ( 'NONE', *, *, #113, .T. ) ;
#304 = FACE_OUTER_BOUND ( 'NONE', #979, .T. ) ;
#305 = DIRECTION ( 'NONE',  ( 0.8516507396391473916, -0.3099755192194525444, 0.4226182617406920583 ) ) ;
#306 = VERTEX_POINT ( 'NONE', #594 ) ;
#307 = VECTOR ( 'NONE', #145, 1000.000000000000000 ) ;
#308 = DIRECTION ( 'NONE',  ( -0.3420201433256743195, -0.9396926207859063185, -3.884867877709783697E-15 ) ) ;
#309 = EDGE_CURVE ( 'NONE', #238, #144, #508, .T. ) ;
#310 = ORIENTED_EDGE ( 'NONE', *, *, #925, .F. ) ;
#311 = CARTESIAN_POINT ( 'NONE',  ( -30.00000000000000355, -10.00000000000003730, 11.00000000000000000 ) ) ;
#312 = ADVANCED_FACE ( 'NONE', ( #57 ), #814, .F. ) ;
#313 = CARTESIAN_POINT ( 'NONE',  ( 29.99999999999998934, -8.000000000000017764, 8.263400000000009626 ) ) ;
#314 = VERTEX_POINT ( 'NONE', #912 ) ;
#315 = DIRECTION ( 'NONE',  ( -1.000000000000000000, -0.000000000000000000, 1.177520686924250585E-15 ) ) ;
#316 = AXIS2_PLACEMENT_3D ( 'NONE', #85, #275, #824 ) ;
#317 = DIRECTION ( 'NONE',  ( 0.000000000000000000, -0.000000000000000000, 1.000000000000000000 ) ) ;
#318 = ORIENTED_EDGE ( 'NONE', *, *, #468, .T. ) ;
#319 = EDGE_CURVE ( 'NONE', #763, #287, #234, .T. ) ;
#320 =( LENGTH_UNIT ( ) NAMED_UNIT ( * ) SI_UNIT ( .MILLI., .METRE. ) );
#321 = LINE ( 'NONE', #698, #630 ) ;
#322 = FILL_AREA_STYLE ('',( #565 ) ) ;
#323 = ORIENTED_EDGE ( 'NONE', *, *, #221, .T. ) ;
#324 = FILL_AREA_STYLE ('',( #944 ) ) ;
#325 = EDGE_CURVE ( 'NONE', #915, #358, #122, .T. ) ;
#326 = CARTESIAN_POINT ( 'NONE',  ( 29.99999999999999645, -7.263399999999999856, 0.000000000000000000 ) ) ;
#327 = VECTOR ( 'NONE', #440, 1000.000000000000227 ) ;
#328 = DIRECTION ( 'NONE',  ( 0.000000000000000000, 1.000000000000000000, 0.000000000000000000 ) ) ;
#329 = ORIENTED_EDGE ( 'NONE', *, *, #190, .F. ) ;
#330 = CARTESIAN_POINT ( 'NONE',  ( -82.88854234709104674, -4.005778467655057185, 6.403491816067846010 ) ) ;
#331 = FACE_OUTER_BOUND ( 'NONE', #125, .T. ) ;
#332 = FACE_OUTER_BOUND ( 'NONE', #262, .T. ) ;
#333 = ORIENTED_EDGE ( 'NONE', *, *, #5, .T. ) ;
#334 = DIRECTION ( 'NONE',  ( -1.251745119601279247E-16, -1.000000000000000000, 0.000000000000000000 ) ) ;
#335 = EDGE_CURVE ( 'NONE', #405, #548, #528, .T. ) ;
#336 = VECTOR ( 'NONE', #714, 1000.000000000000000 ) ;
#337 = DIRECTION ( 'NONE',  ( 0.000000000000000000, 1.000000000000000000, 6.904675311588638925E-15 ) ) ;
#338 = EDGE_LOOP ( 'NONE', ( #811, #252, #571, #209 ) ) ;
#339 = CARTESIAN_POINT ( 'NONE',  ( -162.0912167992056538, 24.30532085278434096, -9.275152729539135166 ) ) ;
#340 = AXIS2_PLACEMENT_3D ( 'NONE', #542, #81, #146 ) ;
#341 = PLANE ( 'NONE',  #798 ) ;
#342 = ORIENTED_EDGE ( 'NONE', *, *, #250, .T. ) ;
#343 = CARTESIAN_POINT ( 'NONE',  ( 29.99999999999999645, -7.263399999999999856, 0.7365999999999995884 ) ) ;
#344 = DIRECTION ( 'NONE',  ( -0.9300410458679825298, 0.3385072573417574060, 0.1429562510971472133 ) ) ;
#345 = ORIENTED_EDGE ( 'NONE', *, *, #237, .T. ) ;
#346 = EDGE_CURVE ( 'NONE', #94, #877, #976, .T. ) ;
#347 = CARTESIAN_POINT ( 'NONE',  ( 29.99999999999999645, -10.00000000000000000, 0.7365999999999900405 ) ) ;
#348 = DIRECTION ( 'NONE',  ( 0.000000000000000000, 0.000000000000000000, -1.000000000000000000 ) ) ;
#349 = CARTESIAN_POINT ( 'NONE',  ( 0.000000000000000000, -7.999999999999998224, -3.469446951953612296E-14 ) ) ;
#350 = VERTEX_POINT ( 'NONE', #347 ) ;
#351 = CARTESIAN_POINT ( 'NONE',  ( 29.99999999999999289, 3.556992370228188705, 11.00000000000008527 ) ) ;
#352 = EDGE_CURVE ( 'NONE', #989, #548, #214, .T. ) ;
#353 = VECTOR ( 'NONE', #423, 1000.000000000000000 ) ;
#354 = PLANE ( 'NONE',  #424 ) ;
#355 = EDGE_CURVE ( 'NONE', #873, #350, #666, .T. ) ;
#356 = CARTESIAN_POINT ( 'NONE',  ( 0.000000000000000000, -9.999999999999998224, -4.167743219722238967E-14 ) ) ;
#357 = VECTOR ( 'NONE', #165, 1000.000000000000227 ) ;
#358 = VERTEX_POINT ( 'NONE', #680 ) ;
#359 = EDGE_LOOP ( 'NONE', ( #679, #333, #419, #740 ) ) ;
#360 = CARTESIAN_POINT ( 'NONE',  ( 0.000000000000000000, 0.000000000000000000, -2.000000000000000000 ) ) ;
#361 = AXIS2_PLACEMENT_3D ( 'NONE', #840, #363, #380 ) ;
#362 = DIRECTION ( 'NONE',  ( 9.195367821350247611E-31, 6.904675311588638925E-15, -1.000000000000000000 ) ) ;
#363 = DIRECTION ( 'NONE',  ( 0.3420201433256737089, 0.9396926207859066515, 6.722053469410129069E-15 ) ) ;
#364 = VERTEX_POINT ( 'NONE', #661 ) ;
#365 = EDGE_LOOP ( 'NONE', ( #266, #194, #454, #491 ) ) ;
#366 = FACE_OUTER_BOUND ( 'NONE', #673, .T. ) ;
#367 = DIRECTION ( 'NONE',  ( 1.000000000000000000, 3.002032744168973188E-16, 2.089693465878399717E-30 ) ) ;
#368 = CIRCLE ( 'NONE', #645, 0.7365999999999611747 ) ;
#369 = DIRECTION ( 'NONE',  ( 0.4320439614499340664, -0.1572511418622276058, -0.8880372141738618330 ) ) ;
#370 = VERTEX_POINT ( 'NONE', #139 ) ;
#371 = VERTEX_POINT ( 'NONE', #587 ) ;
#372 = VECTOR ( 'NONE', #23, 1000.000000000000114 ) ;
#373 = PLANE ( 'NONE',  #808 ) ;
#374 = CARTESIAN_POINT ( 'NONE',  ( -83.22576356896708205, -4.399356634936334665, 6.755546809730303082 ) ) ;
#375 = PLANE ( 'NONE',  #361 ) ;
#376 = AXIS2_PLACEMENT_3D ( 'NONE', #141, #367, #681 ) ;
#377 = VECTOR ( 'NONE', #418, 1000.000000000000000 ) ;
#378 = ORIENTED_EDGE ( 'NONE', *, *, #897, .T. ) ;
#379 = DIRECTION ( 'NONE',  ( -0.3420201433256723211, -0.9396926207859072067, -2.304090018050247374E-15 ) ) ;
#380 = DIRECTION ( 'NONE',  ( -0.9396926207859065405, 0.3420201433256736534, 0.000000000000000000 ) ) ;
#381 = VERTEX_POINT ( 'NONE', #445 ) ;
#382 = ADVANCED_FACE ( 'NONE', ( #451 ), #606, .F. ) ;
#383 = CARTESIAN_POINT ( 'NONE',  ( -30.00000000000000355, -10.00000000000000000, 0.7365999999999900405 ) ) ;
#384 = ORIENTED_EDGE ( 'NONE', *, *, #190, .T. ) ;
#385 = STYLED_ITEM ( 'NONE', ( #868 ), #489 ) ;
#386 = CARTESIAN_POINT ( 'NONE',  ( -30.00000000000000355, -7.263400000000026502, 8.263400000000022061 ) ) ;
#387 = EDGE_CURVE ( 'NONE', #370, #185, #52, .T. ) ;
#388 = SURFACE_SIDE_STYLE ('',( #240 ) ) ;
#389 = VECTOR ( 'NONE', #406, 1000.000000000000000 ) ;
#390 = VERTEX_POINT ( 'NONE', #205 ) ;
#391 = PLANE ( 'NONE',  #541 ) ;
#392 = ADVANCED_FACE ( 'NONE', ( #366 ), #271, .F. ) ;
#393 =( NAMED_UNIT ( * ) PLANE_ANGLE_UNIT ( ) SI_UNIT ( $, .RADIAN. ) );
#394 = ORIENTED_EDGE ( 'NONE', *, *, #676, .F. ) ;
#395 = SURFACE_STYLE_FILL_AREA ( #324 ) ;
#396 = FACE_OUTER_BOUND ( 'NONE', #411, .T. ) ;
#397 = FACE_OUTER_BOUND ( 'NONE', #788, .T. ) ;
#398 = EDGE_CURVE ( 'NONE', #470, #926, #838, .T. ) ;
#399 = VECTOR ( 'NONE', #853, 1000.000000000000227 ) ;
#400 = EDGE_LOOP ( 'NONE', ( #627, #7, #394, #517, #345, #416 ) ) ;
#401 = LINE ( 'NONE', #15, #951 ) ;
#402 = CARTESIAN_POINT ( 'NONE',  ( -30.00000000000001066, 10.00000000000000178, -2.000000000000000000 ) ) ;
#403 = VECTOR ( 'NONE', #434, 1000.000000000000000 ) ;
#404 = PLANE ( 'NONE',  #37 ) ;
#405 = VERTEX_POINT ( 'NONE', #581 ) ;
#406 = DIRECTION ( 'NONE',  ( 0.000000000000000000, 0.000000000000000000, 1.000000000000000000 ) ) ;
#407 = CARTESIAN_POINT ( 'NONE',  ( -15.43113150792899724, 5.616472549933333447, 34.86575135976880802 ) ) ;
#408 = VECTOR ( 'NONE', #177, 1000.000000000000227 ) ;
#409 = DIRECTION ( 'NONE',  ( 0.3420201433256737644, 0.9396926207859064295, 6.488272439222473026E-15 ) ) ;
#410 = VECTOR ( 'NONE', #688, 1000.000000000000000 ) ;
#411 = EDGE_LOOP ( 'NONE', ( #831, #966, #890, #605 ) ) ;
#412 = CARTESIAN_POINT ( 'NONE',  ( -162.0912167992056538, 24.30532085278434096, -9.275152729539135166 ) ) ;
#413 = PLANE ( 'NONE',  #716 ) ;
#414 = EDGE_CURVE ( 'NONE', #167, #671, #658, .T. ) ;
#415 = DIRECTION ( 'NONE',  ( 0.000000000000000000, 0.000000000000000000, -1.000000000000000000 ) ) ;
#416 = ORIENTED_EDGE ( 'NONE', *, *, #833, .T. ) ;
#417 = VECTOR ( 'NONE', #308, 1000.000000000000114 ) ;
#418 = DIRECTION ( 'NONE',  ( -1.000000000000000000, -0.000000000000000000, -0.000000000000000000 ) ) ;
#419 = ORIENTED_EDGE ( 'NONE', *, *, #414, .T. ) ;
#420 = MECHANICAL_DESIGN_GEOMETRIC_PRESENTATION_REPRESENTATION (  '', ( #6 ), #213 ) ;
#421 = FACE_OUTER_BOUND ( 'NONE', #233, .T. ) ;
#422 = EDGE_LOOP ( 'NONE', ( #943, #294, #709, #121 ) ) ;
#423 = DIRECTION ( 'NONE',  ( -1.000000000000000000, 1.251745119601279247E-16, -5.524741976377271179E-32 ) ) ;
#424 = AXIS2_PLACEMENT_3D ( 'NONE', #743, #362, #601 ) ;
#425 = ORIENTED_EDGE ( 'NONE', *, *, #564, .T. ) ;
#426 = CARTESIAN_POINT ( 'NONE',  ( -30.00000000000000355, -7.263400000000031831, 9.000000000000010658 ) ) ;
#427 = ADVANCED_FACE ( 'NONE', ( #397 ), #373, .T. ) ;
#428 = ORIENTED_EDGE ( 'NONE', *, *, #878, .T. ) ;
#429 = FACE_OUTER_BOUND ( 'NONE', #462, .T. ) ;
#430 = DIRECTION ( 'NONE',  ( 0.3420201433256721546, 0.9396926207859070956, 6.033938902194580853E-15 ) ) ;
#431 = LINE ( 'NONE', #187, #496 ) ;
#432 = VERTEX_POINT ( 'NONE', #89 ) ;
#433 = EDGE_CURVE ( 'NONE', #763, #725, #255, .T. ) ;
#434 = DIRECTION ( 'NONE',  ( -0.000000000000000000, 3.469446951953612611E-15, -1.000000000000000000 ) ) ;
#435 = CARTESIAN_POINT ( 'NONE',  ( 29.99999999999999645, -7.263399999999999856, 0.7365999999999995884 ) ) ;
#436 = CARTESIAN_POINT ( 'NONE',  ( -79.12152184905900754, 6.876954814494549595, 6.755546809730380353 ) ) ;
#437 = VECTOR ( 'NONE', #611, 1000.000000000000000 ) ;
#438 = ORIENTED_EDGE ( 'NONE', *, *, #962, .F. ) ;
#439 = UNCERTAINTY_MEASURE_WITH_UNIT (LENGTH_MEASURE( 1.000000000000000082E-05 ), #176, 'distance_accuracy_value', 'NONE');
#440 = DIRECTION ( 'NONE',  ( -0.3420201433256730428, -0.9396926207859067626, -6.423897871976612983E-15 ) ) ;
#441 = FACE_OUTER_BOUND ( 'NONE', #886, .T. ) ;
#442 = FACE_OUTER_BOUND ( 'NONE', #521, .T. ) ;
#443 = ORIENTED_EDGE ( 'NONE', *, *, #335, .T. ) ;
#444 = EDGE_LOOP ( 'NONE', ( #425, #56, #930, #36, #773 ) ) ;
#445 = CARTESIAN_POINT ( 'NONE',  ( 29.99999999999999645, -8.000000000000000000, 0.7365999999999970349 ) ) ;
#446 = LINE ( 'NONE', #667, #830 ) ;
#447 = EDGE_CURVE ( 'NONE', #144, #926, #550, .T. ) ;
#448 = CARTESIAN_POINT ( 'NONE',  ( -120.3082563002629541, 9.097566931648504607, -13.67872195315677253 ) ) ;
#449 = ORIENTED_EDGE ( 'NONE', *, *, #99, .T. ) ;
#450 = ORIENTED_EDGE ( 'NONE', *, *, #931, .F. ) ;
#451 = FACE_OUTER_BOUND ( 'NONE', #575, .T. ) ;
#452 = LINE ( 'NONE', #969, #298 ) ;
#453 = DIRECTION ( 'NONE',  ( -1.000000000000000000, -0.000000000000000000, 1.177520686924250585E-15 ) ) ;
#454 = ORIENTED_EDGE ( 'NONE', *, *, #78, .T. ) ;
#455 = CIRCLE ( 'NONE', #70, 0.7366000000000004766 ) ;
#456 = CARTESIAN_POINT ( 'NONE',  ( -30.00000000000000355, -7.263399999999999856, -8.673617379884035472E-16 ) ) ;
#457 = CARTESIAN_POINT ( 'NONE',  ( -157.9869750792975651, 35.58163230221522610, -9.275152729539058782 ) ) ;
#458 = VECTOR ( 'NONE', #463, 1000.000000000000000 ) ;
#459 = DIRECTION ( 'NONE',  ( -1.267794691205739560E-15, 0.000000000000000000, -1.000000000000000000 ) ) ;
#460 = VECTOR ( 'NONE', #199, 1000.000000000000227 ) ;
#461 = EDGE_CURVE ( 'NONE', #501, #918, #170, .T. ) ;
#462 = EDGE_LOOP ( 'NONE', ( #860, #745, #378, #111 ) ) ;
#463 = DIRECTION ( 'NONE',  ( -3.469446951953614189E-16, 1.000000000000000000, -0.000000000000000000 ) ) ;
#464 = VECTOR ( 'NONE', #885, 1000.000000000000114 ) ;
#465 = DIRECTION ( 'NONE',  ( -0.9159264990534696782, 0.000000000000000000, -0.4013460456160672374 ) ) ;
#466 = ADVANCED_FACE ( 'NONE', ( #700 ), #166, .T. ) ;
#467 = EDGE_LOOP ( 'NONE', ( #604, #62, #323, #84 ) ) ;
#468 = EDGE_CURVE ( 'NONE', #873, #171, #938, .T. ) ;
#469 = DIRECTION ( 'NONE',  ( 0.3971312619670972488, -0.1445439584525928245, -0.9063077870366533784 ) ) ;
#470 = VERTEX_POINT ( 'NONE', #535 ) ;
#471 = CARTESIAN_POINT ( 'NONE',  ( -82.62777863345317542, -4.100688697595956000, 5.867509595556145818 ) ) ;
#472 = MECHANICAL_DESIGN_GEOMETRIC_PRESENTATION_REPRESENTATION (  '', ( #385 ), #649 ) ;
#473 = AXIS2_PLACEMENT_3D ( 'NONE', #706, #493, #11 ) ;
#474 = CARTESIAN_POINT ( 'NONE',  ( -22.47638068709882120, -13.74019048426669976, 34.86575135976867301 ) ) ;
#475 = EDGE_CURVE ( 'NONE', #287, #381, #150, .T. ) ;
#476 =( LENGTH_UNIT ( ) NAMED_UNIT ( * ) SI_UNIT ( .MILLI., .METRE. ) );
#477 = VECTOR ( 'NONE', #975, 1000.000000000000000 ) ;
#478 = VERTEX_POINT ( 'NONE', #93 ) ;
#479 = APPLICATION_PROTOCOL_DEFINITION ( 'draft international standard', 'automotive_design', 1998, #21 ) ;
#480 = LINE ( 'NONE', #781, #357 ) ;
#481 = EDGE_CURVE ( 'NONE', #390, #55, #934, .T. ) ;
#482 = DIRECTION ( 'NONE',  ( -1.000000000000000000, 1.251745119601279247E-16, -5.524741976377271179E-32 ) ) ;
#483 = ORIENTED_EDGE ( 'NONE', *, *, #878, .F. ) ;
#484 = DIRECTION ( 'NONE',  ( 1.000000000000000000, -0.000000000000000000, -0.000000000000000000 ) ) ;
#485 =( NAMED_UNIT ( * ) SI_UNIT ( $, .STERADIAN. ) SOLID_ANGLE_UNIT ( ) );
#486 = ORIENTED_EDGE ( 'NONE', *, *, #754, .F. ) ;
#487 = B_SPLINE_SURFACE_WITH_KNOTS ( 'NONE', 2, 1, ( 
 ( #302, #749 ),
 ( #984, #670 ),
 ( #208, #60 ) ),
 .UNSPECIFIED., .F., .F., .F.,
 ( 3, 3 ),
 ( 2, 2 ),
 ( 0.000000000000000000, 1.000000000000000000 ),
 ( 0.000000000000000000, 1.000000000000000000 ),
 .UNSPECIFIED. ) ;
#488 = DIRECTION ( 'NONE',  ( 0.000000000000000000, -1.000000000000000000, -3.532562060772751952E-15 ) ) ;
#489 = MANIFOLD_SOLID_BREP ( 'Í¹Ì¨-À­Éì1', #884 ) ;
#490 = CARTESIAN_POINT ( 'NONE',  ( -30.00000000000001066, 10.00000000000000178, -2.000000000000000000 ) ) ;
#491 = ORIENTED_EDGE ( 'NONE', *, *, #931, .T. ) ;
#492 = ADVANCED_FACE ( 'NONE', ( #244 ), #404, .T. ) ;
#493 = DIRECTION ( 'NONE',  ( 1.000000000000000000, 0.000000000000000000, -1.177520686924250585E-15 ) ) ;
#494 = DIRECTION ( 'NONE',  ( 0.4320439614499340664, -0.1572511418622276058, -0.8880372141738618330 ) ) ;
#495 = CARTESIAN_POINT ( 'NONE',  ( 29.99999999999999289, 3.556992370228188705, 11.00000000000008527 ) ) ;
#496 = VECTOR ( 'NONE', #500, 1000.000000000000000 ) ;
#497 = ORIENTED_EDGE ( 'NONE', *, *, #355, .T. ) ;
#498 = EDGE_CURVE ( 'NONE', #144, #647, #455, .T. ) ;
#499 = CARTESIAN_POINT ( 'NONE',  ( -30.00000000000000355, -10.00000000000000000, 0.7365999999999899295 ) ) ;
#500 = DIRECTION ( 'NONE',  ( 0.3971312619670972488, -0.1445439584525928522, -0.9063077870366533784 ) ) ;
#501 = VERTEX_POINT ( 'NONE', #490 ) ;
#502 = AXIS2_PLACEMENT_3D ( 'NONE', #386, #991, #169 ) ;
#503 = CARTESIAN_POINT ( 'NONE',  ( -70.29252688756497491, 3.663463450024384560, 8.930986315931288999 ) ) ;
#504 = EDGE_CURVE ( 'NONE', #287, #873, #793, .T. ) ;
#505 = ORIENTED_EDGE ( 'NONE', *, *, #894, .F. ) ;
#506 = PLANE ( 'NONE',  #593 ) ;
#507 = ORIENTED_EDGE ( 'NONE', *, *, #897, .F. ) ;
#508 = LINE ( 'NONE', #195, #937 ) ;
#509 = CARTESIAN_POINT ( 'NONE',  ( 29.99999999999999645, -8.000000000000000000, 0.7365999999999970349 ) ) ;
#510 = AXIS2_PLACEMENT_3D ( 'NONE', #95, #950, #43 ) ;
#511 = CARTESIAN_POINT ( 'NONE',  ( 0.000000000000000000, 0.000000000000000000, 0.000000000000000000 ) ) ;
#512 = ORIENTED_EDGE ( 'NONE', *, *, #387, .F. ) ;
#513 = VECTOR ( 'NONE', #273, 1000.000000000000000 ) ;
#514 = CARTESIAN_POINT ( 'NONE',  ( -161.8225469307032540, 24.20753301780523259, -7.295694712533217441 ) ) ;
#515 = CARTESIAN_POINT ( 'NONE',  ( -74.09175282192254031, -7.207548011921184106, 9.000000000000017764 ) ) ;
#516 = DIRECTION ( 'NONE',  ( -0.000000000000000000, 0.000000000000000000, -1.000000000000000000 ) ) ;
#517 = ORIENTED_EDGE ( 'NONE', *, *, #284, .F. ) ;
#518 = CARTESIAN_POINT ( 'NONE',  ( -115.8886773448041367, 20.25910501358314519, -15.74418468931948212 ) ) ;
#519 = DIRECTION ( 'NONE',  ( 0.000000000000000000, -1.000000000000000000, -3.491481338843133355E-15 ) ) ;
#520 = DIRECTION ( 'NONE',  ( 1.000000000000000000, 3.469446951953614189E-16, -0.000000000000000000 ) ) ;
#521 = EDGE_LOOP ( 'NONE', ( #561, #318, #652, #678 ) ) ;
#522 = EDGE_CURVE ( 'NONE', #722, #705, #685, .T. ) ;
#523 = ORIENTED_EDGE ( 'NONE', *, *, #203, .T. ) ;
#524 = DIRECTION ( 'NONE',  ( 0.3420201433256730428, 0.9396926207859067626, 6.423897871976612983E-15 ) ) ;
#525 = CARTESIAN_POINT ( 'NONE',  ( -82.36167564606721214, -4.713858918660789321, 4.979472381382580970 ) ) ;
#526 = CIRCLE ( 'NONE', #168, 2.736599999999989929 ) ;
#527 = DIRECTION ( 'NONE',  ( 0.000000000000000000, -1.000000000000000000, -3.469446951953612611E-15 ) ) ;
#528 = B_SPLINE_CURVE_WITH_KNOTS ( 'NONE', 2,
 ( #961, #518, #47 ),
 .UNSPECIFIED., .F., .F.,
 ( 3, 3 ),
 ( 0.0002303585414737796923, 1.000000000000000000 ),
 .UNSPECIFIED. ) ;
#529 = EDGE_LOOP ( 'NONE', ( #841, #960, #505, #632 ) ) ;
#530 = ORIENTED_EDGE ( 'NONE', *, *, #88, .F. ) ;
#531 = DIRECTION ( 'NONE',  ( 1.177520686924250585E-15, 0.000000000000000000, 1.000000000000000000 ) ) ;
#532 = DIRECTION ( 'NONE',  ( 0.8344820171424508493, -0.3037266152702784994, 0.4597715805074586437 ) ) ;
#533 = DIRECTION ( 'NONE',  ( -1.000000000000000000, 0.000000000000000000, 0.000000000000000000 ) ) ;
#534 = ORIENTED_EDGE ( 'NONE', *, *, #309, .F. ) ;
#535 = CARTESIAN_POINT ( 'NONE',  ( 29.99999999999999645, -7.263399999999999856, -2.000000000000000888 ) ) ;
#536 = CARTESIAN_POINT ( 'NONE',  ( -119.9832191277842384, 8.979263075836222185, -15.74567522944520626 ) ) ;
#537 = ADVANCED_FACE ( 'NONE', ( #261 ), #955, .T. ) ;
#538 = CARTESIAN_POINT ( 'NONE',  ( -83.02490989542039301, -3.956144739143315991, 6.773817382593097847 ) ) ;
#539 = VERTEX_POINT ( 'NONE', #734 ) ;
#540 = LINE ( 'NONE', #383, #272 ) ;
#541 = AXIS2_PLACEMENT_3D ( 'NONE', #239, #776, #919 ) ;
#542 = CARTESIAN_POINT ( 'NONE',  ( -73.93830074584424494, -7.263400000000024725, 8.263400000000062917 ) ) ;
#543 = EDGE_CURVE ( 'NONE', #160, #390, #947, .T. ) ;
#544 = EDGE_CURVE ( 'NONE', #364, #478, #110, .T. ) ;
#545 = VERTEX_POINT ( 'NONE', #104 ) ;
#546 = LINE ( 'NONE', #549, #622 ) ;
#547 = AXIS2_PLACEMENT_3D ( 'NONE', #349, #730, #663 ) ;
#548 = VERTEX_POINT ( 'NONE', #574 ) ;
#549 = CARTESIAN_POINT ( 'NONE',  ( -83.02490989542039301, -3.956144739143315991, 6.773817382593092518 ) ) ;
#550 = LINE ( 'NONE', #456, #603 ) ;
#551 = PRODUCT ( '·ö´Ð', '·ö´Ð', '', ( #801 ) ) ;
#552 = EDGE_LOOP ( 'NONE', ( #623, #534, #690, #911 ) ) ;
#553 = DIRECTION ( 'NONE',  ( 1.000000000000000000, -0.000000000000000000, -0.000000000000000000 ) ) ;
#554 = DIRECTION ( 'NONE',  ( 0.9396926207859069846, -0.3420201433256722656, 0.000000000000000000 ) ) ;
#555 = CARTESIAN_POINT ( 'NONE',  ( -62.95475082083015650, 22.91365540442826187, 9.000000000000220268 ) ) ;
#556 = VECTOR ( 'NONE', #607, 1000.000000000000227 ) ;
#557 = ORIENTED_EDGE ( 'NONE', *, *, #863, .T. ) ;
#558 = CYLINDRICAL_SURFACE ( 'NONE', #473, 2.736599999999989929 ) ;
#559 = FACE_OUTER_BOUND ( 'NONE', #422, .T. ) ;
#560 = DIRECTION ( 'NONE',  ( 0.000000000000000000, 0.000000000000000000, 1.000000000000000000 ) ) ;
#561 = ORIENTED_EDGE ( 'NONE', *, *, #355, .F. ) ;
#562 =( NAMED_UNIT ( * ) PLANE_ANGLE_UNIT ( ) SI_UNIT ( $, .RADIAN. ) );
#563 = LINE ( 'NONE', #871, #408 ) ;
#564 = EDGE_CURVE ( 'NONE', #274, #763, #724, .T. ) ;
#565 = FILL_AREA_STYLE_COLOUR ( '', #827 ) ;
#566 = ORIENTED_EDGE ( 'NONE', *, *, #147, .T. ) ;
#567 = CARTESIAN_POINT ( 'NONE',  ( -73.93830074584427337, -7.263400000000019396, 11.00000000000001066 ) ) ;
#568 = VECTOR ( 'NONE', #560, 1000.000000000000000 ) ;
#569 = CARTESIAN_POINT ( 'NONE',  ( 29.99999999999999645, -7.263399999999999856, 0.7365999999999995884 ) ) ;
#570 = EDGE_CURVE ( 'NONE', #364, #370, #200, .T. ) ;
#571 = ORIENTED_EDGE ( 'NONE', *, *, #447, .T. ) ;
#572 = APPLICATION_PROTOCOL_DEFINITION ( 'draft international standard', 'automotive_design', 1998, #578 ) ;
#573 = CARTESIAN_POINT ( 'NONE',  ( -73.93830074584425915, -7.263400000000018508, 11.00000000000009592 ) ) ;
#574 = CARTESIAN_POINT ( 'NONE',  ( -157.9869750792975651, 35.58163230221522610, -9.275152729539058782 ) ) ;
#575 = EDGE_LOOP ( 'NONE', ( #229, #256, #777, #523 ) ) ;
#576 = ADVANCED_FACE ( 'NONE', ( #650 ), #739, .T. ) ;
#577 = CARTESIAN_POINT ( 'NONE',  ( -121.1048326752103321, 9.387497021448998780, -8.946757701761741899 ) ) ;
#578 = APPLICATION_CONTEXT ( 'automotive_design' ) ;
#579 = LINE ( 'NONE', #40, #464 ) ;
#580 = ORIENTED_EDGE ( 'NONE', *, *, #644, .F. ) ;
#581 = CARTESIAN_POINT ( 'NONE',  ( -78.27476705200196250, 6.568761272643672378, 4.969925394971535404 ) ) ;
#582 = EDGE_CURVE ( 'NONE', #918, #144, #876, .T. ) ;
#583 = VECTOR ( 'NONE', #184, 1000.000000000000000 ) ;
#584 = FACE_OUTER_BOUND ( 'NONE', #552, .T. ) ;
#585 = ORIENTED_EDGE ( 'NONE', *, *, #78, .F. ) ;
#586 = AXIS2_PLACEMENT_3D ( 'NONE', #343, #484, #488 ) ;
#587 = CARTESIAN_POINT ( 'NONE',  ( -30.00000000000000355, -8.000000000000017764, 8.263400000000080681 ) ) ;
#588 = DIRECTION ( 'NONE',  ( 1.000000000000000000, 0.000000000000000000, 0.000000000000000000 ) ) ;
#589 = VECTOR ( 'NONE', #928, 1000.000000000000227 ) ;
#590 = ORIENTED_EDGE ( 'NONE', *, *, #4, .T. ) ;
#591 = DIRECTION ( 'NONE',  ( 0.3420201433256723211, 0.9396926207859072067, 2.304090018050247374E-15 ) ) ;
#592 = ORIENTED_EDGE ( 'NONE', *, *, #683, .T. ) ;
#593 = AXIS2_PLACEMENT_3D ( 'NONE', #495, #646, #799 ) ;
#594 = CARTESIAN_POINT ( 'NONE',  ( -83.22576356896708205, -4.399356634936334665, 6.755546809730303082 ) ) ;
#595 = FACE_OUTER_BOUND ( 'NONE', #400, .T. ) ;
#596 = PLANE ( 'NONE',  #852 ) ;
#597 = EDGE_CURVE ( 'NONE', #350, #470, #672, .T. ) ;
#598 = ORIENTED_EDGE ( 'NONE', *, *, #863, .F. ) ;
#599 = ORIENTED_EDGE ( 'NONE', *, *, #957, .T. ) ;
#600 = CARTESIAN_POINT ( 'NONE',  ( -82.21306779787954611, -4.251631097572422746, 4.969925394954037401 ) ) ;
#601 = DIRECTION ( 'NONE',  ( 0.000000000000000000, 1.000000000000000000, 6.904675311588638925E-15 ) ) ;
#602 = DIRECTION ( 'NONE',  ( 0.000000000000000000, 0.000000000000000000, 1.000000000000000000 ) ) ;
#603 = VECTOR ( 'NONE', #225, 1000.000000000000000 ) ;
#604 = ORIENTED_EDGE ( 'NONE', *, *, #99, .F. ) ;
#605 = ORIENTED_EDGE ( 'NONE', *, *, #790, .T. ) ;
#606 = CYLINDRICAL_SURFACE ( 'NONE', #243, 0.7365999999999625070 ) ;
#607 = DIRECTION ( 'NONE',  ( 0.8516507396391471696, -0.3099755192194529330, 0.4226182617406918918 ) ) ;
#608 = AXIS2_PLACEMENT_3D ( 'NONE', #992, #305, #231 ) ;
#609 = CARTESIAN_POINT ( 'NONE',  ( 29.99999999999999289, -7.263400000000046042, 10.99999999999993960 ) ) ;
#610 = ORIENTED_EDGE ( 'NONE', *, *, #131, .F. ) ;
#611 = DIRECTION ( 'NONE',  ( -2.089693465878399717E-30, 2.615763597375969083E-46, 1.000000000000000000 ) ) ;
#612 = ADVANCED_FACE ( 'NONE', ( #332 ), #506, .T. ) ;
#613 = LINE ( 'NONE', #246, #389 ) ;
#614 = LINE ( 'NONE', #71, #970 ) ;
#615 = EDGE_LOOP ( 'NONE', ( #757, #438, #329, #585 ) ) ;
#616 = CARTESIAN_POINT ( 'NONE',  ( 29.99999999999998934, 10.00000000000000178, -2.000000000000000000 ) ) ;
#617 = ADVANCED_FACE ( 'NONE', ( #584 ), #196, .T. ) ;
#618 = PRODUCT_RELATED_PRODUCT_CATEGORY ( 'part', '', ( #551 ) ) ;
#619 = CARTESIAN_POINT ( 'NONE',  ( -30.00000000000000355, -7.999999999999998224, -3.469446951953612296E-14 ) ) ;
#620 = ORIENTED_EDGE ( 'NONE', *, *, #46, .T. ) ;
#621 = LINE ( 'NONE', #457, #103 ) ;
#622 = VECTOR ( 'NONE', #469, 1000.000000000000000 ) ;
#623 = ORIENTED_EDGE ( 'NONE', *, *, #582, .T. ) ;
#624 = CARTESIAN_POINT ( 'NONE',  ( -26.41468143294310877, -24.56058285449495315, 34.86575135976858775 ) ) ;
#625 = DIRECTION ( 'NONE',  ( 9.412636165889404214E-29, -1.000000000000000000, 8.007140671085006450E-14 ) ) ;
#626 = ADVANCED_FACE ( 'NONE', ( #880 ), #269, .T. ) ;
#627 = ORIENTED_EDGE ( 'NONE', *, *, #964, .F. ) ;
#628 = SURFACE_STYLE_USAGE ( .BOTH. , #32 ) ;
#629 = CARTESIAN_POINT ( 'NONE',  ( -70.00000000000000000, 3.556992370228197586, 8.263400000000089562 ) ) ;
#630 = VECTOR ( 'NONE', #933, 1000.000000000000000 ) ;
#631 = CARTESIAN_POINT ( 'NONE',  ( -30.00000000000000355, -7.263399999999999856, 0.7365999999999995884 ) ) ;
#632 = ORIENTED_EDGE ( 'NONE', *, *, #657, .F. ) ;
#633 =( NAMED_UNIT ( * ) SI_UNIT ( $, .STERADIAN. ) SOLID_ANGLE_UNIT ( ) );
#634 = VECTOR ( 'NONE', #120, 1000.000000000000000 ) ;
#635 = CARTESIAN_POINT ( 'NONE',  ( -75.02509015734339926, -6.867841003298662983, 10.74360189000452692 ) ) ;
#636 = ORIENTED_EDGE ( 'NONE', *, *, #352, .F. ) ;
#637 = LINE ( 'NONE', #339, #813 ) ;
#638 = EDGE_CURVE ( 'NONE', #167, #432, #431, .T. ) ;
#639 = AXIS2_PLACEMENT_3D ( 'NONE', #356, #527, #682 ) ;
#640 = DIRECTION ( 'NONE',  ( 0.9396926207859069846, -0.3420201433256722656, 0.000000000000000000 ) ) ;
#641 = ORIENTED_EDGE ( 'NONE', *, *, #147, .F. ) ;
#642 = DIRECTION ( 'NONE',  ( -0.3420201433256730428, -0.9396926207859068736, -6.715978296608006412E-15 ) ) ;
#643 = ADVANCED_FACE ( 'NONE', ( #421 ), #49, .F. ) ;
#644 = EDGE_CURVE ( 'NONE', #55, #370, #579, .T. ) ;
#645 = AXIS2_PLACEMENT_3D ( 'NONE', #862, #379, #765 ) ;
#646 = DIRECTION ( 'NONE',  ( 0.000000000000000000, 1.000000000000000000, 6.960928290796745966E-15 ) ) ;
#647 = VERTEX_POINT ( 'NONE', #965 ) ;
#648 = FACE_OUTER_BOUND ( 'NONE', #359, .T. ) ;
#649 =( GEOMETRIC_REPRESENTATION_CONTEXT ( 3 ) GLOBAL_UNCERTAINTY_ASSIGNED_CONTEXT ( ( #25 ) ) GLOBAL_UNIT_ASSIGNED_CONTEXT ( ( #476, #393, #485 ) ) REPRESENTATION_CONTEXT ( 'NONE', 'WORKASPACE' ) );
#650 = FACE_OUTER_BOUND ( 'NONE', #45, .T. ) ;
#651 = ADVANCED_FACE ( 'NONE', ( #279 ), #341, .T. ) ;
#652 = ORIENTED_EDGE ( 'NONE', *, *, #41, .F. ) ;
#653 = VECTOR ( 'NONE', #296, 1000.000000000000000 ) ;
#654 = PLANE ( 'NONE',  #249 ) ;
#655 = DIRECTION ( 'NONE',  ( -0.000000000000000000, 0.000000000000000000, 1.000000000000000000 ) ) ;
#656 = ORIENTED_EDGE ( 'NONE', *, *, #179, .F. ) ;
#657 = EDGE_CURVE ( 'NONE', #926, #218, #77, .T. ) ;
#658 = LINE ( 'NONE', #958, #372 ) ;
#659 = CARTESIAN_POINT ( 'NONE',  ( -30.00000000000001066, 10.00000000000000178, 0.000000000000000000 ) ) ;
#660 = ORIENTED_EDGE ( 'NONE', *, *, #293, .T. ) ;
#661 = CARTESIAN_POINT ( 'NONE',  ( -71.08678941149918273, 3.952551366929564214, 10.74360189000459620 ) ) ;
#662 = DIRECTION ( 'NONE',  ( -0.3420201433256730983, -0.9396926207859068736, -6.423897871976612983E-15 ) ) ;
#663 = DIRECTION ( 'NONE',  ( 0.000000000000000000, 3.469446951953612611E-15, -1.000000000000000000 ) ) ;
#664 = ORIENTED_EDGE ( 'NONE', *, *, #325, .T. ) ;
#665 = VECTOR ( 'NONE', #954, 1000.000000000000000 ) ;
#666 = LINE ( 'NONE', #832, #403 ) ;
#667 = CARTESIAN_POINT ( 'NONE',  ( -70.00000000000000000, 3.556992370228188705, 11.00000000000008527 ) ) ;
#668 = VECTOR ( 'NONE', #494, 1000.000000000000114 ) ;
#669 = ADVANCED_FACE ( 'NONE', ( #442 ), #971, .T. ) ;
#670 = CARTESIAN_POINT ( 'NONE',  ( -115.8789774078761781, 20.25557452526710733, -15.74567522944512987 ) ) ;
#671 = VERTEX_POINT ( 'NONE', #538 ) ;
#672 = CIRCLE ( 'NONE', #236, 2.736600000000000588 ) ;
#673 = EDGE_LOOP ( 'NONE', ( #245, #701, #592, #869 ) ) ;
#674 = DIRECTION ( 'NONE',  ( 1.000000000000000000, 0.000000000000000000, 0.000000000000000000 ) ) ;
#675 = LINE ( 'NONE', #753, #477 ) ;
#676 = EDGE_CURVE ( 'NONE', #731, #432, #129, .T. ) ;
#677 = CARTESIAN_POINT ( 'NONE',  ( -79.12152184905900754, 6.876954814494549595, 6.755546809730380353 ) ) ;
#678 = ORIENTED_EDGE ( 'NONE', *, *, #894, .T. ) ;
#679 = ORIENTED_EDGE ( 'NONE', *, *, #544, .F. ) ;
#680 = CARTESIAN_POINT ( 'NONE',  ( -157.7183052107951653, 35.48384446723611774, -7.295694712533140169 ) ) ;
#681 = DIRECTION ( 'NONE',  ( -3.002032744168973188E-16, 1.000000000000000000, 0.000000000000000000 ) ) ;
#682 = DIRECTION ( 'NONE',  ( 0.000000000000000000, 3.469446951953612611E-15, -1.000000000000000000 ) ) ;
#683 = EDGE_CURVE ( 'NONE', #725, #873, #282, .T. ) ;
#684 = ORIENTED_EDGE ( 'NONE', *, *, #964, .T. ) ;
#685 = LINE ( 'NONE', #555, #727 ) ;
#686 = FACE_OUTER_BOUND ( 'NONE', #800, .T. ) ;
#687 = AXIS2_PLACEMENT_3D ( 'NONE', #277, #662, #123 ) ;
#688 = DIRECTION ( 'NONE',  ( -0.000000000000000000, -3.469446951953612611E-15, 1.000000000000000000 ) ) ;
#689 = ADVANCED_FACE ( 'NONE', ( #767 ), #487, .T. ) ;
#690 = ORIENTED_EDGE ( 'NONE', *, *, #29, .T. ) ;
#691 = LINE ( 'NONE', #616, #458 ) ;
#692 = CARTESIAN_POINT ( 'NONE',  ( -83.22576356896708205, -4.399356634936334665, 6.755546809730303082 ) ) ;
#693 = ORIENTED_EDGE ( 'NONE', *, *, #113, .F. ) ;
#694 = DIRECTION ( 'NONE',  ( 0.000000000000000000, -1.000000000000000000, -3.491481338843133355E-15 ) ) ;
#695 = VECTOR ( 'NONE', #482, 1000.000000000000000 ) ;
#696 = VECTOR ( 'NONE', #795, 999.9999999999998863 ) ;
#697 = EDGE_LOOP ( 'NONE', ( #758, #211, #497, #598 ) ) ;
#698 = CARTESIAN_POINT ( 'NONE',  ( -1.011490460348532912E-29, 3.556992370228202471, 9.000000000000085265 ) ) ;
#699 = ADVANCED_FACE ( 'NONE', ( #285 ), #596, .T. ) ;
#700 = FACE_OUTER_BOUND ( 'NONE', #986, .T. ) ;
#701 = ORIENTED_EDGE ( 'NONE', *, *, #433, .T. ) ;
#702 =( NAMED_UNIT ( * ) SI_UNIT ( $, .STERADIAN. ) SOLID_ANGLE_UNIT ( ) );
#703 = LINE ( 'NONE', #635, #846 ) ;
#704 = DIRECTION ( 'NONE',  ( 0.000000000000000000, 0.000000000000000000, 1.000000000000000000 ) ) ;
#705 = VERTEX_POINT ( 'NONE', #148 ) ;
#706 = CARTESIAN_POINT ( 'NONE',  ( 29.99999999999999645, -7.263400000000026502, 8.263399999999951007 ) ) ;
#707 = DIRECTION ( 'NONE',  ( -0.3420201433256723211, -0.9396926207859070956, -2.304090018050247374E-15 ) ) ;
#708 = CARTESIAN_POINT ( 'NONE',  ( 29.99999999999999645, -10.00000000000001599, 8.263400000000167722 ) ) ;
#709 = ORIENTED_EDGE ( 'NONE', *, *, #227, .T. ) ;
#710 = EDGE_CURVE ( 'NONE', #647, #371, #828, .T. ) ;
#711 = LINE ( 'NONE', #330, #696 ) ;
#712 = VECTOR ( 'NONE', #524, 1000.000000000000227 ) ;
#713 = DIRECTION ( 'NONE',  ( -0.9159264990534696782, 0.000000000000000000, -0.4013460456160672374 ) ) ;
#714 = DIRECTION ( 'NONE',  ( -1.000000000000000000, -0.000000000000000000, 1.177520686924250585E-15 ) ) ;
#715 = ORIENTED_EDGE ( 'NONE', *, *, #833, .F. ) ;
#716 = AXIS2_PLACEMENT_3D ( 'NONE', #189, #334, #276 ) ;
#717 =( NAMED_UNIT ( * ) PLANE_ANGLE_UNIT ( ) SI_UNIT ( $, .RADIAN. ) );
#718 = EDGE_CURVE ( 'NONE', #160, #763, #614, .T. ) ;
#719 = LINE ( 'NONE', #573, #766 ) ;
#720 = AXIS2_PLACEMENT_3D ( 'NONE', #744, #54, #459 ) ;
#721 = CARTESIAN_POINT ( 'NONE',  ( -70.00000000000000000, 3.556992370228197586, 8.263400000000089562 ) ) ;
#722 = VERTEX_POINT ( 'NONE', #921 ) ;
#723 = CARTESIAN_POINT ( 'NONE',  ( -30.00000000000000355, -7.263400000000031831, 9.000000000000010658 ) ) ;
#724 = LINE ( 'NONE', #896, #513 ) ;
#725 = VERTEX_POINT ( 'NONE', #609 ) ;
#726 = DIRECTION ( 'NONE',  ( 1.000000000000000000, -0.000000000000000000, -0.000000000000000000 ) ) ;
#727 = VECTOR ( 'NONE', #409, 1000.000000000000114 ) ;
#728 = VECTOR ( 'NONE', #182, 1000.000000000000000 ) ;
#729 = ADVANCED_FACE ( 'NONE', ( #142 ), #375, .F. ) ;
#730 = DIRECTION ( 'NONE',  ( 0.000000000000000000, -1.000000000000000000, -3.469446951953612611E-15 ) ) ;
#731 = VERTEX_POINT ( 'NONE', #677 ) ;
#732 = VECTOR ( 'NONE', #290, 1000.000000000000000 ) ;
#733 = DIRECTION ( 'NONE',  ( 2.533570700711570030E-15, -3.171384759780501079E-31, 1.000000000000000000 ) ) ;
#734 = CARTESIAN_POINT ( 'NONE',  ( -74.23082763340920565, -7.156928920203849742, 8.930986315931225050 ) ) ;
#735 = ORIENTED_EDGE ( 'NONE', *, *, #475, .T. ) ;
#736 = SHAPE_DEFINITION_REPRESENTATION ( #797, #51 ) ;
#737 = DIRECTION ( 'NONE',  ( -1.000000000000000000, -0.000000000000000000, 1.177520686924250585E-15 ) ) ;
#738 = CARTESIAN_POINT ( 'NONE',  ( 29.99999999999999289, 3.556992370228188705, 11.00000000000008527 ) ) ;
#739 = PLANE ( 'NONE',  #941 ) ;
#740 = ORIENTED_EDGE ( 'NONE', *, *, #140, .T. ) ;
#741 = ADVANCED_FACE ( 'NONE', ( #977 ), #291, .T. ) ;
#742 = CARTESIAN_POINT ( 'NONE',  ( 29.99999999999998934, -8.000000000000017764, 8.263400000000009626 ) ) ;
#743 = CARTESIAN_POINT ( 'NONE',  ( -1.011490460348532912E-29, -8.293439110516172639E-14, 11.00000000000006217 ) ) ;
#744 = CARTESIAN_POINT ( 'NONE',  ( 29.99999999999998934, -7.263400000000026502, 8.263399999999951007 ) ) ;
#745 = ORIENTED_EDGE ( 'NONE', *, *, #46, .F. ) ;
#746 = LINE ( 'NONE', #759, #327 ) ;
#747 = PRODUCT_DEFINITION ( 'Î´Öª', '', #755, #789 ) ;
#748 = PLANE ( 'NONE',  #687 ) ;
#749 = CARTESIAN_POINT ( 'NONE',  ( -78.25743392615913763, 6.562452530770092274, 4.979472381382658241 ) ) ;
#750 = ORIENTED_EDGE ( 'NONE', *, *, #181, .F. ) ;
#751 = EDGE_LOOP ( 'NONE', ( #599, #90, #898, #42 ) ) ;
#752 = DIRECTION ( 'NONE',  ( 0.3420201433256723211, 0.9396926207859072067, 2.304090018050247374E-15 ) ) ;
#753 = CARTESIAN_POINT ( 'NONE',  ( -30.00000000000000355, -8.000000000000017764, 8.263400000000080681 ) ) ;
#754 = EDGE_CURVE ( 'NONE', #171, #390, #526, .T. ) ;
#755 = PRODUCT_DEFINITION_FORMATION_WITH_SPECIFIED_SOURCE ( 'ÈÎºÎ', '', #551, .NOT_KNOWN. ) ;
#756 = CARTESIAN_POINT ( 'NONE',  ( -161.8225469307032540, 24.20753301780523259, -7.295694712533217441 ) ) ;
#757 = ORIENTED_EDGE ( 'NONE', *, *, #398, .T. ) ;
#758 = ORIENTED_EDGE ( 'NONE', *, *, #475, .F. ) ;
#759 = CARTESIAN_POINT ( 'NONE',  ( -82.37900877194303462, -4.707550176775202821, 4.969925394953301101 ) ) ;
#760 = PLANE ( 'NONE',  #118 ) ;
#761 = CARTESIAN_POINT ( 'NONE',  ( -157.7183052107951653, 35.48384446723611774, -7.295694712533140169 ) ) ;
#762 = ADVANCED_FACE ( 'NONE', ( #216 ), #96, .F. ) ;
#763 = VERTEX_POINT ( 'NONE', #65 ) ;
#764 = DIRECTION ( 'NONE',  ( -0.000000000000000000, 3.469446951953612611E-15, -1.000000000000000000 ) ) ;
#765 = DIRECTION ( 'NONE',  ( -0.9396926207859072067, 0.3420201433256719326, -4.239074472927528272E-14 ) ) ;
#766 = VECTOR ( 'NONE', #733, 1000.000000000000000 ) ;
#767 = FACE_OUTER_BOUND ( 'NONE', #288, .T. ) ;
#768 = ORIENTED_EDGE ( 'NONE', *, *, #325, .F. ) ;
#769 = AXIS2_PLACEMENT_3D ( 'NONE', #721, #44, #889 ) ;
#770 = LINE ( 'NONE', #226, #101 ) ;
#771 = CARTESIAN_POINT ( 'NONE',  ( -14.63686898399480185, 5.327384633028147576, 33.05313578569550259 ) ) ;
#772 = B_SPLINE_CURVE_WITH_KNOTS ( 'NONE', 2,
 ( #3, #536, #843 ),
 .UNSPECIFIED., .F., .F.,
 ( 3, 3 ),
 ( 0.000000000000000000, 1.000000000000000000 ),
 .UNSPECIFIED. ) ;
#773 = ORIENTED_EDGE ( 'NONE', *, *, #59, .T. ) ;
#774 = ADVANCED_FACE ( 'NONE', ( #228 ), #152, .F. ) ;
#775 = CIRCLE ( 'NONE', #502, 0.7365999999999900405 ) ;
#776 = DIRECTION ( 'NONE',  ( -1.000000000000000000, -3.469446951953614189E-16, 0.000000000000000000 ) ) ;
#777 = ORIENTED_EDGE ( 'NONE', *, *, #925, .T. ) ;
#778 = LINE ( 'NONE', #80, #207 ) ;
#779 = DIRECTION ( 'NONE',  ( 0.000000000000000000, 0.000000000000000000, -1.000000000000000000 ) ) ;
#780 = ORIENTED_EDGE ( 'NONE', *, *, #544, .T. ) ;
#781 = CARTESIAN_POINT ( 'NONE',  ( -78.29234662564195446, 6.575159714179719117, 4.961201808519861700 ) ) ;
#782 = ADVANCED_FACE ( 'NONE', ( #821 ), #849, .T. ) ;
#783 = CARTESIAN_POINT ( 'NONE',  ( -30.00000000000000355, -10.00000000000003730, 11.00000000000000000 ) ) ;
#784 = EDGE_LOOP ( 'NONE', ( #219, #557, #922, #1 ) ) ;
#785 = CARTESIAN_POINT ( 'NONE',  ( -30.00000000000000355, -10.00000000000002842, 8.263400000000073575 ) ) ;
#786 = CARTESIAN_POINT ( 'NONE',  ( -73.93830074584424494, -7.263400000000030055, 8.263400000000062917 ) ) ;
#787 = EDGE_CURVE ( 'NONE', #55, #478, #864, .T. ) ;
#788 = EDGE_LOOP ( 'NONE', ( #656, #450, #384, #19 ) ) ;
#789 = PRODUCT_DEFINITION_CONTEXT ( 'detailed design', #578, 'design' ) ;
#790 = EDGE_CURVE ( 'NONE', #370, #705, #446, .T. ) ;
#791 = DIRECTION ( 'NONE',  ( 0.3971312619670972488, -0.1445439584525927412, -0.9063077870366534894 ) ) ;
#792 = VECTOR ( 'NONE', #726, 1000.000000000000000 ) ;
#793 = LINE ( 'NONE', #313, #212 ) ;
#794 = ORIENTED_EDGE ( 'NONE', *, *, #718, .T. ) ;
#795 = DIRECTION ( 'NONE',  ( 0.4320439614499344549, -0.1572511418622269674, -0.8880372141738619440 ) ) ;
#796 = LINE ( 'NONE', #402, #377 ) ;
#797 = PRODUCT_DEFINITION_SHAPE ( 'NONE', 'NONE',  #747 ) ;
#798 = AXIS2_PLACEMENT_3D ( 'NONE', #202, #192, #516 ) ;
#799 = DIRECTION ( 'NONE',  ( 0.000000000000000000, -6.960928290796745966E-15, 1.000000000000000000 ) ) ;
#800 = EDGE_LOOP ( 'NONE', ( #73, #61, #10, #483 ) ) ;
#801 = PRODUCT_CONTEXT ( 'NONE', #21, 'mechanical' ) ;
#802 = CARTESIAN_POINT ( 'NONE',  ( -30.00000000000001066, 10.00000000000000178, 0.000000000000000000 ) ) ;
#803 = EDGE_CURVE ( 'NONE', #185, #725, #53, .T. ) ;
#804 = ORIENTED_EDGE ( 'NONE', *, *, #5, .F. ) ;
#805 = CARTESIAN_POINT ( 'NONE',  ( -70.00000000000000000, 3.556992370228198030, 8.263400000000089562 ) ) ;
#806 = ORIENTED_EDGE ( 'NONE', *, *, #710, .F. ) ;
#807 = CYLINDRICAL_SURFACE ( 'NONE', #510, 0.7365999999999900405 ) ;
#808 = AXIS2_PLACEMENT_3D ( 'NONE', #251, #328, #317 ) ;
#809 = ORIENTED_EDGE ( 'NONE', *, *, #267, .F. ) ;
#810 = CARTESIAN_POINT ( 'NONE',  ( -162.0912167992056538, 24.30532085278434096, -9.275152729539135166 ) ) ;
#811 = ORIENTED_EDGE ( 'NONE', *, *, #4, .F. ) ;
#812 = VECTOR ( 'NONE', #348, 1000.000000000000000 ) ;
#813 = VECTOR ( 'NONE', #253, 1000.000000000000114 ) ;
#814 = PLANE ( 'NONE',  #848 ) ;
#815 = LINE ( 'NONE', #509, #909 ) ;
#816 = DIRECTION ( 'NONE',  ( -0.3420201433256722101, -0.9396926207859069846, 0.000000000000000000 ) ) ;
#817 = EDGE_CURVE ( 'NONE', #877, #539, #58, .T. ) ;
#818 = ORIENTED_EDGE ( 'NONE', *, *, #644, .T. ) ;
#819 = CARTESIAN_POINT ( 'NONE',  ( -162.0912167992056538, 24.30532085278434096, -9.275152729539135166 ) ) ;
#820 = CARTESIAN_POINT ( 'NONE',  ( 29.99999999999999645, -7.263399999999999856, -8.673617379884035472E-16 ) ) ;
#821 = FACE_OUTER_BOUND ( 'NONE', #79, .T. ) ;
#822 = ORIENTED_EDGE ( 'NONE', *, *, #676, .T. ) ;
#823 = ADVANCED_FACE ( 'NONE', ( #839 ), #354, .F. ) ;
#824 = DIRECTION ( 'NONE',  ( 1.000000000000000000, 0.000000000000000000, 0.000000000000000000 ) ) ;
#825 = DIRECTION ( 'NONE',  ( -0.3971312619671032440, 0.1445439584525956278, 0.9063077870366503808 ) ) ;
#826 = CARTESIAN_POINT ( 'NONE',  ( -82.21306779787954611, -4.251631097572422746, 4.969925394954037401 ) ) ;
#827 = COLOUR_RGB ( '',0.2862745098039215508, 0.6627450980392156632, 0.3294117647058823484 ) ;
#828 = LINE ( 'NONE', #619, #410 ) ;
#829 = EDGE_LOOP ( 'NONE', ( #137, #180, #610, #241 ) ) ;
#830 = VECTOR ( 'NONE', #283, 1000.000000000000000 ) ;
#831 = ORIENTED_EDGE ( 'NONE', *, *, #203, .F. ) ;
#832 = CARTESIAN_POINT ( 'NONE',  ( 29.99999999999999645, -9.999999999999998224, -6.982962677686266711E-15 ) ) ;
#833 = EDGE_CURVE ( 'NONE', #903, #94, #452, .T. ) ;
#834 = PLANE ( 'NONE',  #376 ) ;
#835 = DIRECTION ( 'NONE',  ( -1.000000000000000000, 0.000000000000000000, 0.000000000000000000 ) ) ;
#836 = ORIENTED_EDGE ( 'NONE', *, *, #140, .F. ) ;
#837 = ORIENTED_EDGE ( 'NONE', *, *, #237, .F. ) ;
#838 = LINE ( 'NONE', #68, #307 ) ;
#839 = FACE_OUTER_BOUND ( 'NONE', #191, .T. ) ;
#840 = CARTESIAN_POINT ( 'NONE',  ( -74.88601534585673392, -6.918460095015998235, 10.81261557407332496 ) ) ;
#841 = ORIENTED_EDGE ( 'NONE', *, *, #398, .F. ) ;
#842 = DIRECTION ( 'NONE',  ( -1.000000000000000000, 0.000000000000000000, 0.000000000000000000 ) ) ;
#843 = CARTESIAN_POINT ( 'NONE',  ( -162.0912167992056538, 24.30532085278434096, -9.275152729539135166 ) ) ;
#844 = DIRECTION ( 'NONE',  ( -3.469446951953614189E-16, 1.000000000000000000, 0.000000000000000000 ) ) ;
#845 = ORIENTED_EDGE ( 'NONE', *, *, #284, .T. ) ;
#846 = VECTOR ( 'NONE', #161, 1000.000000000000114 ) ;
#847 = CARTESIAN_POINT ( 'NONE',  ( -120.3082563002629541, 9.097566931648504607, -13.67872195315677253 ) ) ;
#848 = AXIS2_PLACEMENT_3D ( 'NONE', #360, #968, #674 ) ;
#849 = PLANE ( 'NONE',  #247 ) ;
#850 = ADVANCED_FACE ( 'NONE', ( #595 ), #48, .T. ) ;
#851 = ORIENTED_EDGE ( 'NONE', *, *, #319, .T. ) ;
#852 = AXIS2_PLACEMENT_3D ( 'NONE', #901, #520, #844 ) ;
#853 = DIRECTION ( 'NONE',  ( -0.8516507396391473916, 0.3099755192194523223, -0.4226182617406918918 ) ) ;
#854 = ADVANCED_FACE ( 'NONE', ( #900 ), #760, .F. ) ;
#855 = ORIENTED_EDGE ( 'NONE', *, *, #946, .F. ) ;
#856 = CARTESIAN_POINT ( 'NONE',  ( -79.12152184905900754, 6.876954814494549595, 6.755546809730380353 ) ) ;
#857 = CARTESIAN_POINT ( 'NONE',  ( -30.00000000000000355, -7.263399999999999856, -8.673617379884035472E-16 ) ) ;
#858 = PRESENTATION_LAYER_ASSIGNMENT (  '', '', ( #385 ) ) ;
#859 =( GEOMETRIC_REPRESENTATION_CONTEXT ( 3 ) GLOBAL_UNCERTAINTY_ASSIGNED_CONTEXT ( ( #439 ) ) GLOBAL_UNIT_ASSIGNED_CONTEXT ( ( #176, #717, #702 ) ) REPRESENTATION_CONTEXT ( 'NONE', 'WORKASPACE' ) );
#860 = ORIENTED_EDGE ( 'NONE', *, *, #543, .F. ) ;
#861 = CARTESIAN_POINT ( 'NONE',  ( -116.2040145803548796, 20.37387838107938975, -13.67872195315669615 ) ) ;
#862 = CARTESIAN_POINT ( 'NONE',  ( -73.93830074584424494, -7.263400000000030055, 8.263400000000062917 ) ) ;
#863 = EDGE_CURVE ( 'NONE', #381, #350, #815, .T. ) ;
#864 = CIRCLE ( 'NONE', #340, 2.736599999999961952 ) ;
#865 = CARTESIAN_POINT ( 'NONE',  ( 29.99999999999999645, -7.999999999999998224, -3.469446951953612296E-14 ) ) ;
#866 = ORIENTED_EDGE ( 'NONE', *, *, #946, .T. ) ;
#867 = DIRECTION ( 'NONE',  ( 0.3420201433256723211, 0.9396926207859072067, 2.304090018050247374E-15 ) ) ;
#868 = PRESENTATION_STYLE_ASSIGNMENT (( #872 ) ) ;
#869 = ORIENTED_EDGE ( 'NONE', *, *, #504, .F. ) ;
#870 = DIRECTION ( 'NONE',  ( 0.000000000000000000, -1.000000000000000000, -3.486435400815770477E-15 ) ) ;
#871 = CARTESIAN_POINT ( 'NONE',  ( -83.22576356896708205, -4.399356634936334665, 6.755546809730303082 ) ) ;
#872 = SURFACE_STYLE_USAGE ( .BOTH. , #388 ) ;
#873 = VERTEX_POINT ( 'NONE', #905 ) ;
#874 = FACE_OUTER_BOUND ( 'NONE', #114, .T. ) ;
#875 = CARTESIAN_POINT ( 'NONE',  ( 29.99999999999999645, -7.263399999999999856, 0.7365999999999995884 ) ) ;
#876 = LINE ( 'NONE', #659, #108 ) ;
#877 = VERTEX_POINT ( 'NONE', #826 ) ;
#878 = EDGE_CURVE ( 'NONE', #185, #274, #135, .T. ) ;
#879 = LINE ( 'NONE', #503, #924 ) ;
#880 = FACE_OUTER_BOUND ( 'NONE', #444, .T. ) ;
#881 = ORIENTED_EDGE ( 'NONE', *, *, #817, .T. ) ;
#882 = DIRECTION ( 'NONE',  ( 1.000000000000000000, -0.000000000000000000, -0.000000000000000000 ) ) ;
#883 = ORIENTED_EDGE ( 'NONE', *, *, #638, .F. ) ;
#884 = CLOSED_SHELL ( 'NONE', ( #651, #669, #643, #699, #312, #617, #72, #427, #741, #854, #978, #174, #466, #299, #392, #990, #164, #920, #823, #626, #612, #286, #492, #153, #537, #382, #888, #729, #210, #782, #774, #689, #850, #762, #576, #254 ) ) ;
#885 = DIRECTION ( 'NONE',  ( 0.3420201433256737644, 0.9396926207859064295, 6.488272439222473026E-15 ) ) ;
#886 = EDGE_LOOP ( 'NONE', ( #822, #883, #804, #750, #566, #443, #14, #855 ) ) ;
#887 = CARTESIAN_POINT ( 'NONE',  ( -30.00000000000000355, -7.263400000000026502, 8.263400000000022061 ) ) ;
#888 = ADVANCED_FACE ( 'NONE', ( #441 ), #748, .F. ) ;
#889 = DIRECTION ( 'NONE',  ( -0.9396926207859072067, 0.3420201433256719326, 0.000000000000000000 ) ) ;
#890 = ORIENTED_EDGE ( 'NONE', *, *, #570, .T. ) ;
#891 = AXIS2_PLACEMENT_3D ( 'NONE', #974, #281, #289 ) ;
#892 = DIRECTION ( 'NONE',  ( -1.000000000000000000, 0.000000000000000000, 0.000000000000000000 ) ) ;
#893 = CARTESIAN_POINT ( 'NONE',  ( -161.8225469307032540, 24.20753301780523259, -7.295694712533217441 ) ) ;
#894 = EDGE_CURVE ( 'NONE', #218, #350, #301, .T. ) ;
#895 = AXIS2_PLACEMENT_3D ( 'NONE', #115, #124, #337 ) ;
#896 = CARTESIAN_POINT ( 'NONE',  ( 29.99999999999999289, -6.000643629106131213E-14, 9.000000000000062172 ) ) ;
#897 = EDGE_CURVE ( 'NONE', #371, #171, #675, .T. ) ;
#898 = ORIENTED_EDGE ( 'NONE', *, *, #481, .T. ) ;
#899 = CARTESIAN_POINT ( 'NONE',  ( -82.20440111590431798, -4.254785511841265411, 4.974698166598043869 ) ) ;
#900 = FACE_OUTER_BOUND ( 'NONE', #784, .T. ) ;
#901 = CARTESIAN_POINT ( 'NONE',  ( 29.99999999999998934, 10.00000000000000178, -2.000000000000000000 ) ) ;
#902 = VERTEX_POINT ( 'NONE', #215 ) ;
#903 = VERTEX_POINT ( 'NONE', #525 ) ;
#904 = PLANE ( 'NONE',  #967 ) ;
#905 = CARTESIAN_POINT ( 'NONE',  ( 29.99999999999998934, -10.00000000000001599, 8.263400000000169499 ) ) ;
#906 = AXIS2_PLACEMENT_3D ( 'NONE', #981, #134, #220 ) ;
#907 = CARTESIAN_POINT ( 'NONE',  ( -30.00000000000000355, -7.263400000000026502, 8.263400000000022061 ) ) ;
#908 = ORIENTED_EDGE ( 'NONE', *, *, #346, .F. ) ;
#909 = VECTOR ( 'NONE', #519, 1000.000000000000000 ) ;
#910 = EDGE_CURVE ( 'NONE', #238, #470, #64, .T. ) ;
#911 = ORIENTED_EDGE ( 'NONE', *, *, #179, .T. ) ;
#912 = CARTESIAN_POINT ( 'NONE',  ( 29.99999999999998934, 10.00000000000000178, -2.000000000000000000 ) ) ;
#913 = DIRECTION ( 'NONE',  ( 0.4825684893382677920, 0.000000000000000000, -0.8758582380144530610 ) ) ;
#914 = CARTESIAN_POINT ( 'NONE',  ( -30.00000000000000355, -7.263399999999999856, 0.7365999999999995884 ) ) ;
#915 = VERTEX_POINT ( 'NONE', #893 ) ;
#916 = DIRECTION ( 'NONE',  ( -1.000000000000000000, 0.000000000000000000, 0.000000000000000000 ) ) ;
#917 = CARTESIAN_POINT ( 'NONE',  ( -116.2040145803548654, 20.37387838107938975, -13.67872195315669615 ) ) ;
#918 = VERTEX_POINT ( 'NONE', #128 ) ;
#919 = DIRECTION ( 'NONE',  ( 3.469446951953614189E-16, -1.000000000000000000, 0.000000000000000000 ) ) ;
#920 = ADVANCED_FACE ( 'NONE', ( #686 ), #834, .T. ) ;
#921 = CARTESIAN_POINT ( 'NONE',  ( -73.93830074584425915, -7.263400000000021173, 9.000000000000010658 ) ) ;
#922 = ORIENTED_EDGE ( 'NONE', *, *, #597, .T. ) ;
#923 = CARTESIAN_POINT ( 'NONE',  ( -82.62777863345317542, -4.100688697595959553, 5.867509595556144930 ) ) ;
#924 = VECTOR ( 'NONE', #936, 1000.000000000000227 ) ;
#925 = EDGE_CURVE ( 'NONE', #539, #545, #987, .T. ) ;
#926 = VERTEX_POINT ( 'NONE', #222 ) ;
#927 = AXIS2_PLACEMENT_3D ( 'NONE', #511, #655, #35 ) ;
#928 = DIRECTION ( 'NONE',  ( 0.8516507396391471696, -0.3099755192194529330, 0.4226182617406918918 ) ) ;
#929 = CARTESIAN_POINT ( 'NONE',  ( -30.00000000000001066, 10.00000000000000178, -2.000000000000000000 ) ) ;
#930 = ORIENTED_EDGE ( 'NONE', *, *, #957, .F. ) ;
#931 = EDGE_CURVE ( 'NONE', #314, #902, #613, .T. ) ;
#932 = VECTOR ( 'NONE', #75, 1000.000000000000000 ) ;
#933 = DIRECTION ( 'NONE',  ( 1.000000000000000000, -6.400829601191897214E-45, 9.195367821350247611E-31 ) ) ;
#934 = LINE ( 'NONE', #17, #695 ) ;
#935 = EDGE_LOOP ( 'NONE', ( #138, #620, #794, #851 ) ) ;
#936 = DIRECTION ( 'NONE',  ( -0.3971312619670971933, 0.1445439584525928245, 0.9063077870366533784 ) ) ;
#937 = VECTOR ( 'NONE', #892, 1000.000000000000000 ) ;
#938 = LINE ( 'NONE', #708, #336 ) ;
#939 = ORIENTED_EDGE ( 'NONE', *, *, #293, .F. ) ;
#940 = PRESENTATION_STYLE_ASSIGNMENT (( #628 ) ) ;
#941 = AXIS2_PLACEMENT_3D ( 'NONE', #810, #344, #816 ) ;
#942 = CARTESIAN_POINT ( 'NONE',  ( 29.99999999999999289, 3.556992370228188705, 11.00000000000008527 ) ) ;
#943 = ORIENTED_EDGE ( 'NONE', *, *, #309, .T. ) ;
#944 = FILL_AREA_STYLE_COLOUR ( '', #260 ) ;
#945 = CARTESIAN_POINT ( 'NONE',  ( -79.08660914957613386, 6.864247631084896106, 6.773817382593178671 ) ) ;
#946 = EDGE_CURVE ( 'NONE', #731, #358, #193, .T. ) ;
#947 = LINE ( 'NONE', #426, #583 ) ;
#948 = ORIENTED_EDGE ( 'NONE', *, *, #346, .T. ) ;
#949 = PRESENTATION_LAYER_ASSIGNMENT (  '', '', ( #6 ) ) ;
#950 = DIRECTION ( 'NONE',  ( 1.000000000000000000, 0.000000000000000000, -1.177520686924250585E-15 ) ) ;
#951 = VECTOR ( 'NONE', #257, 1000.000000000000000 ) ;
#952 = DIRECTION ( 'NONE',  ( -0.3971312619670979704, 0.1445439584525957388, 0.9063077870366527122 ) ) ;
#953 = ORIENTED_EDGE ( 'NONE', *, *, #88, .T. ) ;
#954 = DIRECTION ( 'NONE',  ( -1.000000000000000000, -0.000000000000000000, -0.000000000000000000 ) ) ;
#955 = CYLINDRICAL_SURFACE ( 'NONE', #18, 2.736599999999961508 ) ;
#956 = ORIENTED_EDGE ( 'NONE', *, *, #352, .T. ) ;
#957 = EDGE_CURVE ( 'NONE', #722, #160, #401, .T. ) ;
#958 = CARTESIAN_POINT ( 'NONE',  ( -72.04135997040630457, 26.22091066528493641, 6.773817382593312786 ) ) ;
#959 = CARTESIAN_POINT ( 'NONE',  ( -75.02509015734339926, -6.867841003298661207, 10.74360189000452692 ) ) ;
#960 = ORIENTED_EDGE ( 'NONE', *, *, #597, .F. ) ;
#961 = CARTESIAN_POINT ( 'NONE',  ( -78.27476705200196250, 6.568761272643672378, 4.969925394971535404 ) ) ;
#962 = EDGE_CURVE ( 'NONE', #501, #926, #26, .T. ) ;
#963 = CARTESIAN_POINT ( 'NONE',  ( 0.000000000000000000, -10.00000000000000000, 0.7365999999999900405 ) ) ;
#964 = EDGE_CURVE ( 'NONE', #980, #94, #711, .T. ) ;
#965 = CARTESIAN_POINT ( 'NONE',  ( -30.00000000000000355, -8.000000000000000000, 0.7365999999999970349 ) ) ;
#966 = ORIENTED_EDGE ( 'NONE', *, *, #181, .T. ) ;
#967 = AXIS2_PLACEMENT_3D ( 'NONE', #887, #737, #531 ) ;
#968 = DIRECTION ( 'NONE',  ( -0.000000000000000000, 0.000000000000000000, 1.000000000000000000 ) ) ;
#969 = CARTESIAN_POINT ( 'NONE',  ( -82.36167564606721214, -4.713858918660789321, 4.979472381382580970 ) ) ;
#970 = VECTOR ( 'NONE', #297, 1000.000000000000000 ) ;
#971 = PLANE ( 'NONE',  #639 ) ;
#972 = ORIENTED_EDGE ( 'NONE', *, *, #59, .F. ) ;
#973 = ORIENTED_EDGE ( 'NONE', *, *, #119, .F. ) ;
#974 = CARTESIAN_POINT ( 'NONE',  ( 29.99999999999998934, -7.263400000000026502, 8.263399999999951007 ) ) ;
#975 = DIRECTION ( 'NONE',  ( 0.000000000000000000, -1.000000000000000000, 8.071276063373097835E-14 ) ) ;
#976 = B_SPLINE_CURVE_WITH_KNOTS ( 'NONE', 2,
 ( #295, #899, #600 ),
 .UNSPECIFIED., .F., .F.,
 ( 3, 3 ),
 ( 0.000000000000000000, 0.0002303585419119676440 ),
 .UNSPECIFIED. ) ;
#977 = FACE_OUTER_BOUND ( 'NONE', #338, .T. ) ;
#978 = ADVANCED_FACE ( 'NONE', ( #172 ), #106, .T. ) ;
#979 = EDGE_LOOP ( 'NONE', ( #116, #24, #67, #175 ) ) ;
#980 = VERTEX_POINT ( 'NONE', #471 ) ;
#981 = CARTESIAN_POINT ( 'NONE',  ( 29.99999999999998934, -7.263400000000026502, 8.263399999999951007 ) ) ;
#982 = CARTESIAN_POINT ( 'NONE',  ( -74.23082763340921986, -7.156928920203847078, 8.930986315931217945 ) ) ;
#983 = VECTOR ( 'NONE', #63, 1000.000000000000000 ) ;
#984 = CARTESIAN_POINT ( 'NONE',  ( -119.9832191277842384, 8.979263075836222185, -15.74567522944520626 ) ) ;
#985 = AXIS2_PLACEMENT_3D ( 'NONE', #223, #533, #602 ) ;
#986 = EDGE_LOOP ( 'NONE', ( #507, #806, #590, #155 ) ) ;
#987 = LINE ( 'NONE', #982, #39 ) ;
#988 = CARTESIAN_POINT ( 'NONE',  ( -79.12152184905899333, 6.876954814494551371, 6.755546809730380353 ) ) ;
#989 = VERTEX_POINT ( 'NONE', #412 ) ;
#990 = ADVANCED_FACE ( 'NONE', ( #874 ), #558, .T. ) ;
#991 = DIRECTION ( 'NONE',  ( -1.000000000000000000, -0.000000000000000000, 1.177520686924250585E-15 ) ) ;
#992 = CARTESIAN_POINT ( 'NONE',  ( -83.02490989542039301, -3.956144739143315991, 6.773817382593096070 ) ) ;
ENDSEC;
END-ISO-10303-21;
