ISO-10303-21;
HEADER;
FILE_DESCRIPTION (( 'STEP AP214' ),
    '1' );
FILE_NAME ('收集装置.step',
    '2023-08-15T03:00:21',
    ( '' ),
    ( '' ),
    'SwSTEP 2.0',
    'SolidWorks 2022',
    '' );
FILE_SCHEMA (( 'AUTOMOTIVE_DESIGN' ));
ENDSEC;

DATA;
#1 = ADVANCED_FACE ( 'NONE', ( #362 ), #613, .T. ) ;
#2 = PLANE ( 'NONE',  #766 ) ;
#3 = ORIENTED_EDGE ( 'NONE', *, *, #1107, .T. ) ;
#4 = CARTESIAN_POINT ( 'NONE',  ( -123.0000000000003268, 98.00000000000001421, 0.000000000000000000 ) ) ;
#5 = FACE_OUTER_BOUND ( 'NONE', #974, .T. ) ;
#6 = AXIS2_PLACEMENT_3D ( 'NONE', #269, #1143, #977 ) ;
#7 = CARTESIAN_POINT ( 'NONE',  ( -125.0000000000003268, 98.00000000000000000, 109.9999999999999858 ) ) ;
#8 = AXIS2_PLACEMENT_3D ( 'NONE', #829, #638, #32 ) ;
#9 = CARTESIAN_POINT ( 'NONE',  ( 122.2633999999999617, 98.00000000000001421, -110.0000000000000142 ) ) ;
#10 = EDGE_CURVE ( 'NONE', #1023, #190, #177, .T. ) ;
#11 = ORIENTED_EDGE ( 'NONE', *, *, #722, .T. ) ;
#12 = EDGE_LOOP ( 'NONE', ( #805, #216, #271, #656 ) ) ;
#13 = LINE ( 'NONE', #972, #313 ) ;
#14 = LINE ( 'NONE', #104, #784 ) ;
#15 = AXIS2_PLACEMENT_3D ( 'NONE', #809, #459, #465 ) ;
#16 = CARTESIAN_POINT ( 'NONE',  ( 124.9999999999999716, -2.000000000000000000, 107.2633999999999759 ) ) ;
#17 = ORIENTED_EDGE ( 'NONE', *, *, #845, .F. ) ;
#18 = VERTEX_POINT ( 'NONE', #806 ) ;
#19 = DIRECTION ( 'NONE',  ( -1.000000000000000000, 0.000000000000000000, -0.000000000000000000 ) ) ;
#20 = EDGE_CURVE ( 'NONE', #467, #251, #714, .T. ) ;
#21 = DIRECTION ( 'NONE',  ( -1.000000000000000000, 0.000000000000000000, 0.000000000000000000 ) ) ;
#22 = CYLINDRICAL_SURFACE ( 'NONE', #202, 0.7366000000000039183 ) ;
#23 = LINE ( 'NONE', #114, #763 ) ;
#24 = ORIENTED_EDGE ( 'NONE', *, *, #861, .T. ) ;
#25 = ORIENTED_EDGE ( 'NONE', *, *, #565, .F. ) ;
#26 = DIRECTION ( 'NONE',  ( 1.000000000000000000, -0.000000000000000000, -0.000000000000000000 ) ) ;
#27 = DIRECTION ( 'NONE',  ( 0.000000000000000000, 0.000000000000000000, -1.000000000000000000 ) ) ;
#28 = DIRECTION ( 'NONE',  ( 1.000000000000000000, -3.540251991789401517E-15, 6.387540564961450982E-17 ) ) ;
#29 = CARTESIAN_POINT ( 'NONE',  ( -122.2633999999999901, -1.999999999999997335, 109.9999999999999858 ) ) ;
#30 = DIRECTION ( 'NONE',  ( 0.000000000000000000, 0.000000000000000000, 1.000000000000000000 ) ) ;
#31 = ORIENTED_EDGE ( 'NONE', *, *, #599, .F. ) ;
#32 = DIRECTION ( 'NONE',  ( 1.000000000000000000, 0.000000000000000000, 0.000000000000000000 ) ) ;
#33 = PLANE ( 'NONE',  #776 ) ;
#34 = EDGE_CURVE ( 'NONE', #713, #249, #194, .T. ) ;
#35 = EDGE_CURVE ( 'NONE', #1130, #549, #627, .T. ) ;
#36 = DIRECTION ( 'NONE',  ( -1.000000000000000000, -3.398641912117825677E-15, 0.000000000000000000 ) ) ;
#37 = ORIENTED_EDGE ( 'NONE', *, *, #460, .T. ) ;
#38 = CARTESIAN_POINT ( 'NONE',  ( -122.2633999999999901, 0.7366000000000063608, 109.9999999999999858 ) ) ;
#39 = VECTOR ( 'NONE', #136, 1000.000000000000000 ) ;
#40 =( NAMED_UNIT ( * ) SI_UNIT ( $, .STERADIAN. ) SOLID_ANGLE_UNIT ( ) );
#41 = CARTESIAN_POINT ( 'NONE',  ( 122.2633999999999617, 0.7366000000000177961, -108.0000000000000142 ) ) ;
#42 = ORIENTED_EDGE ( 'NONE', *, *, #34, .T. ) ;
#43 = DIRECTION ( 'NONE',  ( -1.000000000000000000, -3.385371974907204777E-15, 0.000000000000000000 ) ) ;
#44 = DIRECTION ( 'NONE',  ( 0.000000000000000000, 0.000000000000000000, -1.000000000000000000 ) ) ;
#45 = DIRECTION ( 'NONE',  ( 0.000000000000000000, -1.000000000000000000, 0.000000000000000000 ) ) ;
#46 = AXIS2_PLACEMENT_3D ( 'NONE', #289, #200, #119 ) ;
#47 = EDGE_CURVE ( 'NONE', #251, #326, #608, .T. ) ;
#48 = EDGE_LOOP ( 'NONE', ( #1127, #969, #703, #844 ) ) ;
#49 = LINE ( 'NONE', #227, #943 ) ;
#50 = ORIENTED_EDGE ( 'NONE', *, *, #152, .T. ) ;
#51 = LINE ( 'NONE', #586, #370 ) ;
#52 = EDGE_LOOP ( 'NONE', ( #80, #533, #1121, #261 ) ) ;
#53 =( LENGTH_UNIT ( ) NAMED_UNIT ( * ) SI_UNIT ( .MILLI., .METRE. ) );
#54 = DIRECTION ( 'NONE',  ( 0.000000000000000000, 0.000000000000000000, -1.000000000000000000 ) ) ;
#55 = ORIENTED_EDGE ( 'NONE', *, *, #1026, .F. ) ;
#56 = DIRECTION ( 'NONE',  ( 0.000000000000000000, 0.000000000000000000, 1.000000000000000000 ) ) ;
#57 = VERTEX_POINT ( 'NONE', #993 ) ;
#58 = FILL_AREA_STYLE_COLOUR ( '', #950 ) ;
#59 = CARTESIAN_POINT ( 'NONE',  ( 122.2633999999999617, -1.999999999999990452, -110.0000000000000142 ) ) ;
#60 = ORIENTED_EDGE ( 'NONE', *, *, #157, .T. ) ;
#61 = VECTOR ( 'NONE', #239, 1000.000000000000000 ) ;
#62 =( LENGTH_UNIT ( ) NAMED_UNIT ( * ) SI_UNIT ( .MILLI., .METRE. ) );
#63 = CIRCLE ( 'NONE', #868, 0.7366000000000039183 ) ;
#64 = DIRECTION ( 'NONE',  ( 0.000000000000000000, 0.000000000000000000, -1.000000000000000000 ) ) ;
#65 = DIRECTION ( 'NONE',  ( -0.000000000000000000, -0.000000000000000000, -1.000000000000000000 ) ) ;
#66 = ADVANCED_FACE ( 'NONE', ( #1097 ), #920, .T. ) ;
#67 = VERTEX_POINT ( 'NONE', #7 ) ;
#68 = ADVANCED_FACE ( 'NONE', ( #280 ), #451, .T. ) ;
#69 = DIRECTION ( 'NONE',  ( -1.000000000000000000, -3.491481338843133355E-15, 0.000000000000000000 ) ) ;
#70 = LINE ( 'NONE', #878, #173 ) ;
#71 = EDGE_LOOP ( 'NONE', ( #355, #945, #700, #1080, #783, #197 ) ) ;
#72 = PLANE ( 'NONE',  #1039 ) ;
#73 = CARTESIAN_POINT ( 'NONE',  ( 0.000000000000000000, 0.000000000000000000, -108.0000000000000142 ) ) ;
#74 = VERTEX_POINT ( 'NONE', #210 ) ;
#75 = EDGE_CURVE ( 'NONE', #67, #190, #180, .T. ) ;
#76 = LINE ( 'NONE', #612, #889 ) ;
#77 = EDGE_LOOP ( 'NONE', ( #801, #124, #310, #1048 ) ) ;
#78 = DIRECTION ( 'NONE',  ( 1.000000000000000000, 0.000000000000000000, 0.000000000000000000 ) ) ;
#79 = VERTEX_POINT ( 'NONE', #186 ) ;
#80 = ORIENTED_EDGE ( 'NONE', *, *, #494, .F. ) ;
#81 = LINE ( 'NONE', #443, #455 ) ;
#82 = VERTEX_POINT ( 'NONE', #560 ) ;
#83 = PLANE ( 'NONE',  #924 ) ;
#84 = ORIENTED_EDGE ( 'NONE', *, *, #669, .F. ) ;
#85 = DIRECTION ( 'NONE',  ( -0.000000000000000000, -0.000000000000000000, 1.000000000000000000 ) ) ;
#86 = ORIENTED_EDGE ( 'NONE', *, *, #957, .T. ) ;
#87 = FACE_OUTER_BOUND ( 'NONE', #306, .T. ) ;
#88 = EDGE_CURVE ( 'NONE', #336, #247, #391, .T. ) ;
#89 = DIRECTION ( 'NONE',  ( 1.000000000000000000, 0.000000000000000000, -0.000000000000000000 ) ) ;
#90 = CARTESIAN_POINT ( 'NONE',  ( 122.2633999999999617, 0.7366000000000134662, 107.2633999999999759 ) ) ;
#91 = VERTEX_POINT ( 'NONE', #621 ) ;
#92 = DIRECTION ( 'NONE',  ( -3.398641912117825677E-15, 1.000000000000000000, -0.000000000000000000 ) ) ;
#93 = AXIS2_PLACEMENT_3D ( 'NONE', #1021, #220, #189 ) ;
#94 = PLANE ( 'NONE',  #575 ) ;
#95 = VECTOR ( 'NONE', #645, 1000.000000000000000 ) ;
#96 = FACE_OUTER_BOUND ( 'NONE', #151, .T. ) ;
#97 = DIRECTION ( 'NONE',  ( 0.000000000000000000, 0.000000000000000000, -1.000000000000000000 ) ) ;
#98 = EDGE_CURVE ( 'NONE', #127, #644, #458, .T. ) ;
#99 = ORIENTED_EDGE ( 'NONE', *, *, #687, .T. ) ;
#100 = EDGE_LOOP ( 'NONE', ( #904, #282, #50, #86 ) ) ;
#101 = EDGE_CURVE ( 'NONE', #583, #774, #626, .T. ) ;
#102 = PLANE ( 'NONE',  #762 ) ;
#103 =( GEOMETRIC_REPRESENTATION_CONTEXT ( 3 ) GLOBAL_UNCERTAINTY_ASSIGNED_CONTEXT ( ( #590 ) ) GLOBAL_UNIT_ASSIGNED_CONTEXT ( ( #62, #347, #1131 ) ) REPRESENTATION_CONTEXT ( 'NONE', 'WORKASPACE' ) );
#104 = CARTESIAN_POINT ( 'NONE',  ( -125.0000000000000000, 0.7365999999999970349, 0.000000000000000000 ) ) ;
#105 = CARTESIAN_POINT ( 'NONE',  ( -122.2633999999999901, 2.493664996716671637E-15, 109.9999999999999858 ) ) ;
#106 = VECTOR ( 'NONE', #732, 1000.000000000000000 ) ;
#107 = ORIENTED_EDGE ( 'NONE', *, *, #243, .F. ) ;
#108 = ORIENTED_EDGE ( 'NONE', *, *, #764, .F. ) ;
#109 = DIRECTION ( 'NONE',  ( -3.398641912117825677E-15, 1.000000000000000000, 0.000000000000000000 ) ) ;
#110 = ADVANCED_FACE ( 'NONE', ( #471 ), #94, .T. ) ;
#111 = LINE ( 'NONE', #389, #290 ) ;
#112 = DIRECTION ( 'NONE',  ( 0.000000000000000000, 0.000000000000000000, 1.000000000000000000 ) ) ;
#113 = CARTESIAN_POINT ( 'NONE',  ( -122.2633999999999901, 98.00000000000000000, 110.0000000000003268 ) ) ;
#114 = CARTESIAN_POINT ( 'NONE',  ( -122.2633999999999901, 2.493664996716660198E-15, -110.0000000000000142 ) ) ;
#115 = VERTEX_POINT ( 'NONE', #838 ) ;
#116 = EDGE_CURVE ( 'NONE', #91, #1120, #14, .T. ) ;
#117 = CARTESIAN_POINT ( 'NONE',  ( -125.0000000000000000, -6.982962677686266711E-15, 109.9999999999999858 ) ) ;
#118 = ADVANCED_FACE ( 'NONE', ( #365 ), #378, .T. ) ;
#119 = DIRECTION ( 'NONE',  ( 1.000000000000000000, -3.526053984915943170E-15, 0.000000000000000000 ) ) ;
#120 = DIRECTION ( 'NONE',  ( 0.000000000000000000, -1.000000000000000000, 0.000000000000000000 ) ) ;
#121 = VECTOR ( 'NONE', #769, 1000.000000000000000 ) ;
#122 = AXIS2_PLACEMENT_3D ( 'NONE', #987, #78, #170 ) ;
#123 = PLANE ( 'NONE',  #933 ) ;
#124 = ORIENTED_EDGE ( 'NONE', *, *, #332, .F. ) ;
#125 = CARTESIAN_POINT ( 'NONE',  ( 124.9999999999999716, 0.7366000000000036962, 8.031476330003347108E-15 ) ) ;
#126 = CARTESIAN_POINT ( 'NONE',  ( -125.0000000000003268, 98.00000000000000000, 109.9999999999999858 ) ) ;
#127 = VERTEX_POINT ( 'NONE', #831 ) ;
#128 = DIRECTION ( 'NONE',  ( -1.000000000000000000, -3.407198232615405764E-15, 0.000000000000000000 ) ) ;
#129 = DIRECTION ( 'NONE',  ( 3.540251991789401517E-15, 1.000000000000000000, 9.045401283096187404E-33 ) ) ;
#130 = ORIENTED_EDGE ( 'NONE', *, *, #578, .F. ) ;
#131 = EDGE_CURVE ( 'NONE', #265, #251, #998, .T. ) ;
#132 = ORIENTED_EDGE ( 'NONE', *, *, #814, .F. ) ;
#133 = CARTESIAN_POINT ( 'NONE',  ( -125.0000000000000000, -6.982962677686266711E-15, 109.9999999999999858 ) ) ;
#134 = CARTESIAN_POINT ( 'NONE',  ( -122.2633999999999901, 98.00000000000000000, 110.0000000000003268 ) ) ;
#135 = PRODUCT ( '收集装置', '收集装置', '', ( #1049 ) ) ;
#136 = DIRECTION ( 'NONE',  ( -0.000000000000000000, 1.000000000000000000, 3.540251991789401517E-15 ) ) ;
#137 = AXIS2_PLACEMENT_3D ( 'NONE', #673, #1037, #409 ) ;
#138 = ORIENTED_EDGE ( 'NONE', *, *, #722, .F. ) ;
#139 = PLANE ( 'NONE',  #981 ) ;
#140 = CARTESIAN_POINT ( 'NONE',  ( -125.0000000000003268, 98.00000000000000000, -110.0000000000000142 ) ) ;
#141 = VERTEX_POINT ( 'NONE', #823 ) ;
#142 = CARTESIAN_POINT ( 'NONE',  ( -123.0000000000003268, 98.00000000000001421, 109.9999999999999858 ) ) ;
#143 = DIRECTION ( 'NONE',  ( -1.000000000000000000, -3.398641912117825677E-15, 0.000000000000000000 ) ) ;
#144 = VECTOR ( 'NONE', #463, 1000.000000000000000 ) ;
#145 = EDGE_LOOP ( 'NONE', ( #260, #99, #441, #410 ) ) ;
#146 = AXIS2_PLACEMENT_3D ( 'NONE', #708, #21, #112 ) ;
#147 = CARTESIAN_POINT ( 'NONE',  ( 122.2633999999999617, 0.7366000000000126890, -108.0000000000000142 ) ) ;
#148 = CARTESIAN_POINT ( 'NONE',  ( 124.9999999999999716, 0.7366000000000108017, -110.0000000000000142 ) ) ;
#149 = AXIS2_PLACEMENT_3D ( 'NONE', #731, #893, #914 ) ;
#150 = FACE_OUTER_BOUND ( 'NONE', #1062, .T. ) ;
#151 = EDGE_LOOP ( 'NONE', ( #851, #543, #568, #879 ) ) ;
#152 = EDGE_CURVE ( 'NONE', #228, #467, #1071, .T. ) ;
#153 = CARTESIAN_POINT ( 'NONE',  ( -125.0000000000003268, 98.00000000000000000, 109.9999999999999858 ) ) ;
#154 = DIRECTION ( 'NONE',  ( -1.000000000000000000, 0.000000000000000000, -0.000000000000000000 ) ) ;
#155 = DIRECTION ( 'NONE',  ( -1.000000000000000000, -0.000000000000000000, -0.000000000000000000 ) ) ;
#156 = EDGE_CURVE ( 'NONE', #713, #870, #297, .T. ) ;
#157 = EDGE_CURVE ( 'NONE', #326, #182, #802, .T. ) ;
#158 = VERTEX_POINT ( 'NONE', #218 ) ;
#159 = AXIS2_PLACEMENT_3D ( 'NONE', #752, #314, #343 ) ;
#160 = VECTOR ( 'NONE', #444, 1000.000000000000000 ) ;
#161 = DIRECTION ( 'NONE',  ( 3.521178144991350616E-32, 3.491481338843133355E-15, -1.000000000000000000 ) ) ;
#162 = ORIENTED_EDGE ( 'NONE', *, *, #334, .T. ) ;
#163 = FACE_OUTER_BOUND ( 'NONE', #77, .T. ) ;
#164 = FACE_OUTER_BOUND ( 'NONE', #556, .T. ) ;
#165 = AXIS2_PLACEMENT_3D ( 'NONE', #292, #89, #716 ) ;
#166 = EDGE_CURVE ( 'NONE', #505, #326, #401, .T. ) ;
#167 = ORIENTED_EDGE ( 'NONE', *, *, #406, .T. ) ;
#168 = EDGE_CURVE ( 'NONE', #478, #827, #678, .T. ) ;
#169 = CARTESIAN_POINT ( 'NONE',  ( 122.2633999999999617, 9.540979117872439019E-15, -110.0000000000000142 ) ) ;
#170 = DIRECTION ( 'NONE',  ( 0.000000000000000000, -3.532562060772735386E-15, 1.000000000000000000 ) ) ;
#171 = EDGE_LOOP ( 'NONE', ( #629, #522, #1142, #773 ) ) ;
#172 = DIRECTION ( 'NONE',  ( 1.000000000000000000, 0.000000000000000000, -0.000000000000000000 ) ) ;
#173 = VECTOR ( 'NONE', #603, 1000.000000000000000 ) ;
#174 = CARTESIAN_POINT ( 'NONE',  ( -122.2633999999999901, 2.493664996716660198E-15, -110.0000000000000142 ) ) ;
#175 = LINE ( 'NONE', #537, #835 ) ;
#176 = AXIS2_PLACEMENT_3D ( 'NONE', #411, #944, #64 ) ;
#177 = LINE ( 'NONE', #4, #683 ) ;
#178 = ORIENTED_EDGE ( 'NONE', *, *, #538, .F. ) ;
#179 = DIRECTION ( 'NONE',  ( 0.000000000000000000, -0.000000000000000000, -1.000000000000000000 ) ) ;
#180 = LINE ( 'NONE', #906, #1046 ) ;
#181 = DIRECTION ( 'NONE',  ( 0.000000000000000000, 0.000000000000000000, 1.000000000000000000 ) ) ;
#182 = VERTEX_POINT ( 'NONE', #493 ) ;
#183 = CARTESIAN_POINT ( 'NONE',  ( 124.9999999999999716, 0.7366000000000039183, 108.0000000000000000 ) ) ;
#184 = AXIS2_PLACEMENT_3D ( 'NONE', #833, #825, #461 ) ;
#185 = ADVANCED_FACE ( 'NONE', ( #1043 ), #770, .T. ) ;
#186 = CARTESIAN_POINT ( 'NONE',  ( 124.9999999999999716, 0.7366000000000013648, 107.9999999999999858 ) ) ;
#187 = ADVANCED_FACE ( 'NONE', ( #312 ), #858, .T. ) ;
#188 = CARTESIAN_POINT ( 'NONE',  ( -122.2633999999999901, 0.7366000000000126890, -107.2634000000000043 ) ) ;
#189 = DIRECTION ( 'NONE',  ( -1.000000000000000000, 0.000000000000000000, 0.000000000000000000 ) ) ;
#190 = VERTEX_POINT ( 'NONE', #142 ) ;
#191 = ORIENTED_EDGE ( 'NONE', *, *, #811, .T. ) ;
#192 = CARTESIAN_POINT ( 'NONE',  ( -122.2633999999999901, 98.00000000000001421, -110.0000000000000142 ) ) ;
#193 = MECHANICAL_DESIGN_GEOMETRIC_PRESENTATION_REPRESENTATION (  '', ( #792 ), #544 ) ;
#194 = LINE ( 'NONE', #816, #480 ) ;
#195 = LINE ( 'NONE', #126, #1155 ) ;
#196 = ORIENTED_EDGE ( 'NONE', *, *, #484, .F. ) ;
#197 = ORIENTED_EDGE ( 'NONE', *, *, #447, .T. ) ;
#198 = DIRECTION ( 'NONE',  ( -0.000000000000000000, 0.000000000000000000, 1.000000000000000000 ) ) ;
#199 = AXIS2_PLACEMENT_3D ( 'NONE', #469, #26, #1109 ) ;
#200 = DIRECTION ( 'NONE',  ( -0.000000000000000000, -0.000000000000000000, -1.000000000000000000 ) ) ;
#201 = DIRECTION ( 'NONE',  ( -1.000000000000000000, 0.000000000000000000, 0.000000000000000000 ) ) ;
#202 = AXIS2_PLACEMENT_3D ( 'NONE', #1006, #285, #709 ) ;
#203 = EDGE_CURVE ( 'NONE', #18, #115, #1104, .T. ) ;
#204 = LINE ( 'NONE', #642, #415 ) ;
#205 = VECTOR ( 'NONE', #464, 1000.000000000000000 ) ;
#206 = EDGE_CURVE ( 'NONE', #478, #79, #76, .T. ) ;
#207 = ORIENTED_EDGE ( 'NONE', *, *, #203, .F. ) ;
#208 = LINE ( 'NONE', #125, #144 ) ;
#209 = LINE ( 'NONE', #308, #637 ) ;
#210 = CARTESIAN_POINT ( 'NONE',  ( 122.2633999999999617, 98.00000000000001421, -108.0000000000000142 ) ) ;
#211 = CARTESIAN_POINT ( 'NONE',  ( 122.2633999999999617, 0.7366000000000126890, -110.0000000000000142 ) ) ;
#212 = ORIENTED_EDGE ( 'NONE', *, *, #403, .F. ) ;
#213 = CARTESIAN_POINT ( 'NONE',  ( 124.9999999999999574, 0.7365999999999900405, 107.2633999999999759 ) ) ;
#214 = EDGE_CURVE ( 'NONE', #991, #795, #800, .T. ) ;
#215 = FILL_AREA_STYLE_COLOUR ( '', #616 ) ;
#216 = ORIENTED_EDGE ( 'NONE', *, *, #875, .T. ) ;
#217 = AXIS2_PLACEMENT_3D ( 'NONE', #782, #682, #54 ) ;
#218 = CARTESIAN_POINT ( 'NONE',  ( 122.2633999999999617, -1.999999999999991340, -107.2634000000000043 ) ) ;
#219 = AXIS2_PLACEMENT_3D ( 'NONE', #1018, #222, #128 ) ;
#220 = DIRECTION ( 'NONE',  ( -0.000000000000000000, -0.000000000000000000, -1.000000000000000000 ) ) ;
#221 = ORIENTED_EDGE ( 'NONE', *, *, #168, .T. ) ;
#222 = DIRECTION ( 'NONE',  ( -0.000000000000000000, -0.000000000000000000, 1.000000000000000000 ) ) ;
#223 = EDGE_CURVE ( 'NONE', #942, #127, #1047, .T. ) ;
#224 = LINE ( 'NONE', #395, #852 ) ;
#225 = ORIENTED_EDGE ( 'NONE', *, *, #1107, .F. ) ;
#226 = CARTESIAN_POINT ( 'NONE',  ( -123.0000000000003268, 98.00000000000000000, -110.0000000000000142 ) ) ;
#227 = CARTESIAN_POINT ( 'NONE',  ( 124.9999999999999858, 98.00000000000000000, 110.0000000000003268 ) ) ;
#228 = VERTEX_POINT ( 'NONE', #9 ) ;
#229 = ADVANCED_FACE ( 'NONE', ( #990 ), #741, .F. ) ;
#230 = ORIENTED_EDGE ( 'NONE', *, *, #332, .T. ) ;
#231 = CARTESIAN_POINT ( 'NONE',  ( 124.9999999999999858, 98.00000000000000000, 110.0000000000003268 ) ) ;
#232 = CARTESIAN_POINT ( 'NONE',  ( 124.9999999999999716, -2.000000000000000000, 107.2633999999999759 ) ) ;
#233 = DIRECTION ( 'NONE',  ( -1.000000000000000000, 5.348508853524183261E-15, 0.000000000000000000 ) ) ;
#234 = VECTOR ( 'NONE', #1129, 1000.000000000000000 ) ;
#235 = EDGE_LOOP ( 'NONE', ( #601, #1149, #877, #323 ) ) ;
#236 = DIRECTION ( 'NONE',  ( 0.000000000000000000, -0.000000000000000000, 1.000000000000000000 ) ) ;
#237 = EDGE_LOOP ( 'NONE', ( #225, #885, #984, #923 ) ) ;
#238 = DIRECTION ( 'NONE',  ( -0.000000000000000000, 0.000000000000000000, 1.000000000000000000 ) ) ;
#239 = DIRECTION ( 'NONE',  ( -1.000000000000000000, -0.000000000000000000, -0.000000000000000000 ) ) ;
#240 = PRODUCT_DEFINITION_FORMATION_WITH_SPECIFIED_SOURCE ( '任何', '', #135, .NOT_KNOWN. ) ;
#241 = ADVANCED_FACE ( 'NONE', ( #374 ), #2, .T. ) ;
#242 = EDGE_LOOP ( 'NONE', ( #162, #380, #928, #448 ) ) ;
#243 = EDGE_CURVE ( 'NONE', #1075, #670, #1152, .T. ) ;
#244 = DIRECTION ( 'NONE',  ( 1.000000000000000000, 0.000000000000000000, -0.000000000000000000 ) ) ;
#245 = AXIS2_PLACEMENT_3D ( 'NONE', #854, #839, #1114 ) ;
#246 = PRODUCT_DEFINITION_CONTEXT ( 'detailed design', #359, 'design' ) ;
#247 = VERTEX_POINT ( 'NONE', #916 ) ;
#248 = CARTESIAN_POINT ( 'NONE',  ( 0.000000000000000000, 0.000000000000000000, 0.000000000000000000 ) ) ;
#249 = VERTEX_POINT ( 'NONE', #832 ) ;
#250 = CARTESIAN_POINT ( 'NONE',  ( -122.2633999999999901, 0.7366000000000063608, 109.9999999999999858 ) ) ;
#251 = VERTEX_POINT ( 'NONE', #293 ) ;
#252 = DIRECTION ( 'NONE',  ( -1.000000000000000000, -0.000000000000000000, -0.000000000000000000 ) ) ;
#253 = ORIENTED_EDGE ( 'NONE', *, *, #997, .T. ) ;
#254 = CIRCLE ( 'NONE', #137, 2.736600000000005473 ) ;
#255 = AXIS2_PLACEMENT_3D ( 'NONE', #1041, #154, #238 ) ;
#256 = CARTESIAN_POINT ( 'NONE',  ( 122.2633999999999617, 9.540979117872439019E-15, -109.8990023979348791 ) ) ;
#257 = ADVANCED_FACE ( 'NONE', ( #1084 ), #824, .T. ) ;
#258 = ADVANCED_FACE ( 'NONE', ( #96 ), #22, .F. ) ;
#259 = CIRCLE ( 'NONE', #199, 2.736600000000005473 ) ;
#260 = ORIENTED_EDGE ( 'NONE', *, *, #452, .F. ) ;
#261 = ORIENTED_EDGE ( 'NONE', *, *, #156, .F. ) ;
#262 = AXIS2_PLACEMENT_3D ( 'NONE', #188, #1073, #181 ) ;
#263 = LINE ( 'NONE', #174, #962 ) ;
#264 = LINE ( 'NONE', #534, #160 ) ;
#265 = VERTEX_POINT ( 'NONE', #211 ) ;
#266 = VECTOR ( 'NONE', #36, 1000.000000000000000 ) ;
#267 = EDGE_LOOP ( 'NONE', ( #1028, #705, #414, #855 ) ) ;
#268 = DIRECTION ( 'NONE',  ( 3.540251991789401517E-15, 1.000000000000000000, 0.000000000000000000 ) ) ;
#269 = CARTESIAN_POINT ( 'NONE',  ( 122.2633999999999617, 0.7366000000000134662, -110.0000000000000142 ) ) ;
#270 = DIRECTION ( 'NONE',  ( 0.000000000000000000, 1.000000000000000000, 3.491481338843133355E-15 ) ) ;
#271 = ORIENTED_EDGE ( 'NONE', *, *, #482, .T. ) ;
#272 = VECTOR ( 'NONE', #882, 1000.000000000000000 ) ;
#273 = CARTESIAN_POINT ( 'NONE',  ( 0.000000000000000000, -2.000000000000000000, 0.000000000000000000 ) ) ;
#274 = AXIS2_PLACEMENT_3D ( 'NONE', #273, #1058, #179 ) ;
#275 = DIRECTION ( 'NONE',  ( -1.000000000000000000, 3.491481338843133355E-15, -6.387540564961450982E-17 ) ) ;
#276 = LINE ( 'NONE', #113, #106 ) ;
#277 = PLANE ( 'NONE',  #510 ) ;
#278 = EDGE_CURVE ( 'NONE', #158, #820, #358, .T. ) ;
#279 = EDGE_CURVE ( 'NONE', #549, #697, #442, .T. ) ;
#280 = FACE_OUTER_BOUND ( 'NONE', #619, .T. ) ;
#281 = CARTESIAN_POINT ( 'NONE',  ( -122.2633999999999901, 0.7366000000000063608, -110.0000000000000142 ) ) ;
#282 = ORIENTED_EDGE ( 'NONE', *, *, #1065, .F. ) ;
#283 = CARTESIAN_POINT ( 'NONE',  ( -123.0000000000000000, -4.248302390147282041E-13, -110.0000000000000142 ) ) ;
#284 = CARTESIAN_POINT ( 'NONE',  ( 124.9999999999999858, -6.982962677686254878E-15, 109.9999999999999858 ) ) ;
#285 = DIRECTION ( 'NONE',  ( -1.000000000000000000, 0.000000000000000000, 0.000000000000000000 ) ) ;
#286 = CARTESIAN_POINT ( 'NONE',  ( -0.000000000000000000, 98.00000000000001421, -108.0000000000000142 ) ) ;
#287 = ORIENTED_EDGE ( 'NONE', *, *, #317, .F. ) ;
#288 = DIRECTION ( 'NONE',  ( 6.387540564961450982E-17, 2.230197868366643873E-31, -1.000000000000000000 ) ) ;
#289 = CARTESIAN_POINT ( 'NONE',  ( 122.2633999999999617, 0.7366000000000134662, -110.0000000000000142 ) ) ;
#290 = VECTOR ( 'NONE', #44, 1000.000000000000000 ) ;
#291 = ADVANCED_FACE ( 'NONE', ( #298 ), #1014, .T. ) ;
#292 = CARTESIAN_POINT ( 'NONE',  ( -122.2633999999999901, 2.493664996716660198E-15, -110.0000000000000142 ) ) ;
#293 = CARTESIAN_POINT ( 'NONE',  ( -122.2633999999999901, 0.7366000000000317849, -110.0000000000000142 ) ) ;
#294 = EDGE_LOOP ( 'NONE', ( #1132, #788, #1113, #376 ) ) ;
#295 = CARTESIAN_POINT ( 'NONE',  ( 124.9999999999999716, -6.982962677686217801E-15, -110.0000000000000142 ) ) ;
#296 = VECTOR ( 'NONE', #474, 1000.000000000000000 ) ;
#297 = LINE ( 'NONE', #648, #500 ) ;
#298 = FACE_OUTER_BOUND ( 'NONE', #267, .T. ) ;
#299 = CARTESIAN_POINT ( 'NONE',  ( 122.2633999999999617, 98.00000000000001421, -110.0000000000000142 ) ) ;
#300 = AXIS2_PLACEMENT_3D ( 'NONE', #574, #759, #579 ) ;
#301 = VERTEX_POINT ( 'NONE', #385 ) ;
#302 = DIRECTION ( 'NONE',  ( -0.000000000000000000, -0.000000000000000000, 1.000000000000000000 ) ) ;
#303 =( LENGTH_UNIT ( ) NAMED_UNIT ( * ) SI_UNIT ( .MILLI., .METRE. ) );
#304 = CARTESIAN_POINT ( 'NONE',  ( 124.9999999999999716, 0.000000000000000000, 107.2633999999999759 ) ) ;
#305 = EDGE_CURVE ( 'NONE', #873, #827, #276, .T. ) ;
#306 = EDGE_LOOP ( 'NONE', ( #674, #826, #965, #499 ) ) ;
#307 = CARTESIAN_POINT ( 'NONE',  ( -122.2633999999999901, 0.7366000000000063608, 109.9999999999999858 ) ) ;
#308 = CARTESIAN_POINT ( 'NONE',  ( -122.2633999999999901, 8.782037597132585915E-15, -107.2634000000000043 ) ) ;
#309 = CARTESIAN_POINT ( 'NONE',  ( -122.2633999999999901, -1.999999999999997335, 109.9999999999999858 ) ) ;
#310 = ORIENTED_EDGE ( 'NONE', *, *, #416, .T. ) ;
#311 = CIRCLE ( 'NONE', #527, 0.7366000000000039183 ) ;
#312 = FACE_OUTER_BOUND ( 'NONE', #799, .T. ) ;
#313 = VECTOR ( 'NONE', #803, 1000.000000000000000 ) ;
#314 = DIRECTION ( 'NONE',  ( -1.000000000000000000, -3.398641912117825677E-15, 0.000000000000000000 ) ) ;
#315 = EDGE_LOOP ( 'NONE', ( #754, #1002, #331, #813 ) ) ;
#316 = CARTESIAN_POINT ( 'NONE',  ( -122.2633999999999901, 0.7366000000000039183, 107.2633999999999759 ) ) ;
#317 = EDGE_CURVE ( 'NONE', #301, #182, #1090, .T. ) ;
#318 = CARTESIAN_POINT ( 'NONE',  ( 124.9999999999999716, 0.7366000000000039183, 109.9999999999999858 ) ) ;
#319 = AXIS2_PLACEMENT_3D ( 'NONE', #133, #236, #506 ) ;
#320 = ORIENTED_EDGE ( 'NONE', *, *, #649, .F. ) ;
#321 = ADVANCED_FACE ( 'NONE', ( #921 ), #123, .T. ) ;
#322 = DIRECTION ( 'NONE',  ( 3.540251991789401517E-15, 1.000000000000000000, 9.045401283096187404E-33 ) ) ;
#323 = ORIENTED_EDGE ( 'NONE', *, *, #214, .T. ) ;
#324 = FACE_OUTER_BOUND ( 'NONE', #100, .T. ) ;
#325 = DIRECTION ( 'NONE',  ( 0.000000000000000000, -0.000000000000000000, -1.000000000000000000 ) ) ;
#326 = VERTEX_POINT ( 'NONE', #402 ) ;
#327 = DIRECTION ( 'NONE',  ( -3.570363616888576540E-32, -3.540251991789401517E-15, 1.000000000000000000 ) ) ;
#328 = CARTESIAN_POINT ( 'NONE',  ( -122.2633999999999901, 98.00000000000001421, -110.0000000000000142 ) ) ;
#329 = ORIENTED_EDGE ( 'NONE', *, *, #699, .F. ) ;
#330 = DIRECTION ( 'NONE',  ( 0.000000000000000000, 1.000000000000000000, -6.123233995736766036E-17 ) ) ;
#331 = ORIENTED_EDGE ( 'NONE', *, *, #910, .F. ) ;
#332 = EDGE_CURVE ( 'NONE', #587, #1023, #204, .T. ) ;
#333 = AXIS2_PLACEMENT_3D ( 'NONE', #153, #872, #69 ) ;
#334 = EDGE_CURVE ( 'NONE', #697, #158, #747, .T. ) ;
#335 = VECTOR ( 'NONE', #92, 1000.000000000000000 ) ;
#336 = VERTEX_POINT ( 'NONE', #105 ) ;
#337 = ORIENTED_EDGE ( 'NONE', *, *, #538, .T. ) ;
#338 = CARTESIAN_POINT ( 'NONE',  ( 122.2633999999999617, 9.540979117872439019E-15, 107.2633999999999759 ) ) ;
#339 = VECTOR ( 'NONE', #384, 1000.000000000000000 ) ;
#340 = ORIENTED_EDGE ( 'NONE', *, *, #1066, .T. ) ;
#341 = PRODUCT_DEFINITION_SHAPE ( 'NONE', 'NONE',  #894 ) ;
#342 = VECTOR ( 'NONE', #539, 1000.000000000000000 ) ;
#343 = DIRECTION ( 'NONE',  ( 3.398641912117825677E-15, -1.000000000000000000, 0.000000000000000000 ) ) ;
#344 = DIRECTION ( 'NONE',  ( 0.000000000000000000, -0.000000000000000000, 1.000000000000000000 ) ) ;
#345 = APPLICATION_CONTEXT ( 'automotive_design' ) ;
#346 = ORIENTED_EDGE ( 'NONE', *, *, #152, .F. ) ;
#347 =( NAMED_UNIT ( * ) PLANE_ANGLE_UNIT ( ) SI_UNIT ( $, .RADIAN. ) );
#348 = EDGE_CURVE ( 'NONE', #115, #606, #466, .T. ) ;
#349 = DIRECTION ( 'NONE',  ( 0.000000000000000000, -1.000000000000000000, -3.540251991789401517E-15 ) ) ;
#350 = PLANE ( 'NONE',  #735 ) ;
#351 = ORIENTED_EDGE ( 'NONE', *, *, #861, .F. ) ;
#352 = VECTOR ( 'NONE', #30, 1000.000000000000000 ) ;
#353 = ORIENTED_EDGE ( 'NONE', *, *, #482, .F. ) ;
#354 = LINE ( 'NONE', #183, #1072 ) ;
#355 = ORIENTED_EDGE ( 'NONE', *, *, #791, .T. ) ;
#356 = ORIENTED_EDGE ( 'NONE', *, *, #1016, .F. ) ;
#357 = DIRECTION ( 'NONE',  ( 1.000000000000000000, -3.540251991789401517E-15, 6.387540564961450982E-17 ) ) ;
#358 = CIRCLE ( 'NONE', #798, 2.736600000000005473 ) ;
#359 = APPLICATION_CONTEXT ( 'automotive_design' ) ;
#360 = DIRECTION ( 'NONE',  ( -3.570363616888576540E-32, -3.540251991789401517E-15, 1.000000000000000000 ) ) ;
#361 = FACE_OUTER_BOUND ( 'NONE', #727, .T. ) ;
#362 = FACE_OUTER_BOUND ( 'NONE', #294, .T. ) ;
#363 = ORIENTED_EDGE ( 'NONE', *, *, #419, .F. ) ;
#364 = DIRECTION ( 'NONE',  ( 0.000000000000000000, 0.000000000000000000, -1.000000000000000000 ) ) ;
#365 = FACE_OUTER_BOUND ( 'NONE', #960, .T. ) ;
#366 = ADVANCED_FACE ( 'NONE', ( #541 ), #628, .T. ) ;
#367 = DIRECTION ( 'NONE',  ( -1.000000000000000000, -3.398641912117825677E-15, 0.000000000000000000 ) ) ;
#368 = EDGE_CURVE ( 'NONE', #74, #768, #733, .T. ) ;
#369 = EDGE_CURVE ( 'NONE', #18, #301, #819, .T. ) ;
#370 = VECTOR ( 'NONE', #143, 1000.000000000000000 ) ;
#371 = CARTESIAN_POINT ( 'NONE',  ( -125.0000000000003268, 98.00000000000000000, -110.0000000000000142 ) ) ;
#372 = VECTOR ( 'NONE', #1003, 1000.000000000000000 ) ;
#373 = CARTESIAN_POINT ( 'NONE',  ( 125.0000000000003268, 98.00000000000000000, -110.0000000000000142 ) ) ;
#374 = FACE_OUTER_BOUND ( 'NONE', #890, .T. ) ;
#375 = ORIENTED_EDGE ( 'NONE', *, *, #334, .F. ) ;
#376 = ORIENTED_EDGE ( 'NONE', *, *, #88, .T. ) ;
#377 = PLANE ( 'NONE',  #476 ) ;
#378 = PLANE ( 'NONE',  #935 ) ;
#379 = DIRECTION ( 'NONE',  ( -1.000000000000000000, -0.000000000000000000, -0.000000000000000000 ) ) ;
#380 = ORIENTED_EDGE ( 'NONE', *, *, #278, .T. ) ;
#381 = EDGE_LOOP ( 'NONE', ( #1035, #60, #25, #178 ) ) ;
#382 = EDGE_CURVE ( 'NONE', #1101, #1120, #655, .T. ) ;
#383 = LINE ( 'NONE', #736, #95 ) ;
#384 = DIRECTION ( 'NONE',  ( 0.000000000000000000, -1.000000000000000000, 0.000000000000000000 ) ) ;
#385 = CARTESIAN_POINT ( 'NONE',  ( -122.2633999999999901, -2.000000000000000000, 107.2633999999999759 ) ) ;
#386 = DIRECTION ( 'NONE',  ( 0.000000000000000000, 2.297877877810389714E-15, 1.000000000000000000 ) ) ;
#387 = ORIENTED_EDGE ( 'NONE', *, *, #1065, .T. ) ;
#388 = LINE ( 'NONE', #486, #457 ) ;
#389 = CARTESIAN_POINT ( 'NONE',  ( -122.2633999999999901, 2.493664996716660198E-15, 109.9999999999999858 ) ) ;
#390 = AXIS2_PLACEMENT_3D ( 'NONE', #1034, #252, #427 ) ;
#391 = LINE ( 'NONE', #739, #843 ) ;
#392 = CARTESIAN_POINT ( 'NONE',  ( 122.2633999999999617, 0.7366000000000134662, 107.2633999999999759 ) ) ;
#393 = EDGE_LOOP ( 'NONE', ( #514, #652, #11, #780 ) ) ;
#394 = LINE ( 'NONE', #1094, #817 ) ;
#395 = CARTESIAN_POINT ( 'NONE',  ( 122.2633999999999617, 0.000000000000000000, -108.0000000000000142 ) ) ;
#396 = VECTOR ( 'NONE', #907, 1000.000000000000000 ) ;
#397 = ORIENTED_EDGE ( 'NONE', *, *, #779, .F. ) ;
#398 = LINE ( 'NONE', #213, #758 ) ;
#399 = LINE ( 'NONE', #666, #696 ) ;
#400 = EDGE_LOOP ( 'NONE', ( #404, #605, #785, #387 ) ) ;
#401 = LINE ( 'NONE', #751, #954 ) ;
#402 = CARTESIAN_POINT ( 'NONE',  ( -122.2633999999999901, 2.725745152214041720E-15, -109.8990023979348791 ) ) ;
#403 = EDGE_CURVE ( 'NONE', #820, #583, #1085, .T. ) ;
#404 = ORIENTED_EDGE ( 'NONE', *, *, #687, .F. ) ;
#405 = DIRECTION ( 'NONE',  ( 1.000000000000000000, -3.540251991789401517E-15, 6.387540564961450982E-17 ) ) ;
#406 = EDGE_CURVE ( 'NONE', #336, #942, #1001, .T. ) ;
#407 = DIRECTION ( 'NONE',  ( -0.000000000000000000, 1.000000000000000000, -0.000000000000000000 ) ) ;
#408 = VECTOR ( 'NONE', #1012, 1000.000000000000000 ) ;
#409 = DIRECTION ( 'NONE',  ( 0.000000000000000000, 0.000000000000000000, -1.000000000000000000 ) ) ;
#410 = ORIENTED_EDGE ( 'NONE', *, *, #610, .T. ) ;
#411 = CARTESIAN_POINT ( 'NONE',  ( -122.2633999999999901, 0.7366000000000126890, -107.2634000000000043 ) ) ;
#412 = EDGE_LOOP ( 'NONE', ( #668, #340, #614, #42 ) ) ;
#413 = DIRECTION ( 'NONE',  ( 0.000000000000000000, 0.000000000000000000, 1.000000000000000000 ) ) ;
#414 = ORIENTED_EDGE ( 'NONE', *, *, #1141, .F. ) ;
#415 = VECTOR ( 'NONE', #846, 1000.000000000000000 ) ;
#416 = EDGE_CURVE ( 'NONE', #587, #67, #195, .T. ) ;
#417 = CARTESIAN_POINT ( 'NONE',  ( 124.9999999999999716, 0.000000000000000000, 107.2633999999999759 ) ) ;
#418 = DIRECTION ( 'NONE',  ( -0.000000000000000000, -0.000000000000000000, 1.000000000000000000 ) ) ;
#419 = EDGE_CURVE ( 'NONE', #326, #670, #23, .T. ) ;
#420 = DIRECTION ( 'NONE',  ( -1.000000000000000000, -8.716088502039410416E-16, 0.000000000000000000 ) ) ;
#421 = ORIENTED_EDGE ( 'NONE', *, *, #875, .F. ) ;
#422 = SURFACE_STYLE_FILL_AREA ( #581 ) ;
#423 = LINE ( 'NONE', #671, #1040 ) ;
#424 = AXIS2_PLACEMENT_3D ( 'NONE', #971, #360, #349 ) ;
#425 = AXIS2_PLACEMENT_3D ( 'NONE', #862, #244, #593 ) ;
#426 = EDGE_LOOP ( 'NONE', ( #986, #495, #3, #24 ) ) ;
#427 = DIRECTION ( 'NONE',  ( 0.000000000000000000, 0.000000000000000000, -1.000000000000000000 ) ) ;
#428 = EDGE_CURVE ( 'NONE', #583, #606, #1106, .T. ) ;
#429 = ORIENTED_EDGE ( 'NONE', *, *, #369, .F. ) ;
#430 = PRESENTATION_STYLE_ASSIGNMENT (( #761 ) ) ;
#431 = VECTOR ( 'NONE', #650, 1000.000000000000000 ) ;
#432 = FACE_OUTER_BOUND ( 'NONE', #436, .T. ) ;
#433 = ORIENTED_EDGE ( 'NONE', *, *, #565, .T. ) ;
#434 = EDGE_CURVE ( 'NONE', #606, #57, #492, .T. ) ;
#435 = PLANE ( 'NONE',  #274 ) ;
#436 = EDGE_LOOP ( 'NONE', ( #212, #847, #454, #462 ) ) ;
#437 = VECTOR ( 'NONE', #129, 1000.000000000000000 ) ;
#438 = DIRECTION ( 'NONE',  ( -1.000000000000000000, 0.000000000000000000, -0.000000000000000000 ) ) ;
#439 = STYLED_ITEM ( 'NONE', ( #430 ), #887 ) ;
#440 = ORIENTED_EDGE ( 'NONE', *, *, #348, .T. ) ;
#441 = ORIENTED_EDGE ( 'NONE', *, *, #368, .T. ) ;
#442 = CIRCLE ( 'NONE', #822, 2.736600000000005473 ) ;
#443 = CARTESIAN_POINT ( 'NONE',  ( 122.9999999999999716, 0.7366000000000039183, 107.2633999999999759 ) ) ;
#444 = DIRECTION ( 'NONE',  ( -0.000000000000000000, -0.000000000000000000, 1.000000000000000000 ) ) ;
#445 = EDGE_CURVE ( 'NONE', #265, #228, #1078, .T. ) ;
#446 = AXIS2_PLACEMENT_3D ( 'NONE', #767, #327, #946 ) ;
#447 = EDGE_CURVE ( 'NONE', #1130, #542, #810, .T. ) ;
#448 = ORIENTED_EDGE ( 'NONE', *, *, #658, .T. ) ;
#449 = EDGE_LOOP ( 'NONE', ( #511, #938, #351, #397 ) ) ;
#450 = DIRECTION ( 'NONE',  ( 0.000000000000000000, 0.000000000000000000, -1.000000000000000000 ) ) ;
#451 = PLANE ( 'NONE',  #146 ) ;
#452 = EDGE_CURVE ( 'NONE', #774, #1075, #569, .T. ) ;
#453 = CARTESIAN_POINT ( 'NONE',  ( -125.0000000000000000, -4.318132016924144456E-13, 0.000000000000000000 ) ) ;
#454 = ORIENTED_EDGE ( 'NONE', *, *, #528, .F. ) ;
#455 = VECTOR ( 'NONE', #706, 1000.000000000000000 ) ;
#456 = CARTESIAN_POINT ( 'NONE',  ( 124.9999999999999858, 98.00000000000000000, 110.0000000000003268 ) ) ;
#457 = VECTOR ( 'NONE', #109, 1000.000000000000000 ) ;
#458 = LINE ( 'NONE', #477, #342 ) ;
#459 = DIRECTION ( 'NONE',  ( -1.000000000000000000, -0.000000000000000000, -0.000000000000000000 ) ) ;
#460 = EDGE_CURVE ( 'NONE', #1061, #91, #51, .T. ) ;
#461 = DIRECTION ( 'NONE',  ( 0.000000000000000000, -3.526053984915943170E-15, 1.000000000000000000 ) ) ;
#462 = ORIENTED_EDGE ( 'NONE', *, *, #101, .F. ) ;
#463 = DIRECTION ( 'NONE',  ( 6.387540564961473169E-17, 6.387540564961454680E-17, -1.000000000000000000 ) ) ;
#464 = DIRECTION ( 'NONE',  ( -1.000000000000000000, 0.000000000000000000, 0.000000000000000000 ) ) ;
#465 = DIRECTION ( 'NONE',  ( 0.000000000000000000, -5.348508853524183261E-15, -1.000000000000000000 ) ) ;
#466 = LINE ( 'NONE', #304, #431 ) ;
#467 = VERTEX_POINT ( 'NONE', #328 ) ;
#468 = ORIENTED_EDGE ( 'NONE', *, *, #738, .T. ) ;
#469 = CARTESIAN_POINT ( 'NONE',  ( 122.2633999999999617, 0.7366000000000126890, -107.2634000000000043 ) ) ;
#470 = DIRECTION ( 'NONE',  ( 0.000000000000000000, 1.000000000000000000, 3.540251991789401517E-15 ) ) ;
#471 = FACE_OUTER_BOUND ( 'NONE', #237, .T. ) ;
#472 = DIRECTION ( 'NONE',  ( 1.000000000000000000, -0.000000000000000000, -0.000000000000000000 ) ) ;
#473 = DIRECTION ( 'NONE',  ( 0.000000000000000000, 0.000000000000000000, 1.000000000000000000 ) ) ;
#474 = DIRECTION ( 'NONE',  ( 3.398641912117825677E-15, -1.000000000000000000, -0.000000000000000000 ) ) ;
#475 = VECTOR ( 'NONE', #602, 1000.000000000000000 ) ;
#476 = AXIS2_PLACEMENT_3D ( 'NONE', #1157, #996, #1150 ) ;
#477 = CARTESIAN_POINT ( 'NONE',  ( -3.997823541477260254E-30, 0.7366000000000039183, 109.9999999999999858 ) ) ;
#478 = VERTEX_POINT ( 'NONE', #489 ) ;
#479 = CARTESIAN_POINT ( 'NONE',  ( -123.0000000000000000, 0.7366000000000039183, -110.0000000000000142 ) ) ;
#480 = VECTOR ( 'NONE', #275, 1000.000000000000000 ) ;
#481 = LINE ( 'NONE', #134, #1055 ) ;
#482 = EDGE_CURVE ( 'NONE', #644, #795, #254, .T. ) ;
#483 = CARTESIAN_POINT ( 'NONE',  ( 122.2633999999999617, 9.540979117872439019E-15, -110.0000000000000142 ) ) ;
#484 = EDGE_CURVE ( 'NONE', #115, #141, #756, .T. ) ;
#485 = ORIENTED_EDGE ( 'NONE', *, *, #348, .F. ) ;
#486 = CARTESIAN_POINT ( 'NONE',  ( -125.0000000000003268, 98.00000000000000000, -110.0000000000000142 ) ) ;
#487 = CARTESIAN_POINT ( 'NONE',  ( 122.9999999999999716, -4.425314989736750906E-13, 107.2633999999999759 ) ) ;
#488 = CARTESIAN_POINT ( 'NONE',  ( 0.000000000000000000, 0.000000000000000000, 0.000000000000000000 ) ) ;
#489 = CARTESIAN_POINT ( 'NONE',  ( -122.2633999999999901, 0.7366000000000013648, 107.9999999999999858 ) ) ;
#490 = ORIENTED_EDGE ( 'NONE', *, *, #948, .F. ) ;
#491 = SURFACE_SIDE_STYLE ('',( #1027 ) ) ;
#492 = CIRCLE ( 'NONE', #980, 0.7366000000000039183 ) ;
#493 = CARTESIAN_POINT ( 'NONE',  ( -122.2633999999999901, -1.999999999999991340, -107.2634000000000043 ) ) ;
#494 = EDGE_CURVE ( 'NONE', #141, #713, #771, .T. ) ;
#495 = ORIENTED_EDGE ( 'NONE', *, *, #711, .T. ) ;
#496 = DIRECTION ( 'NONE',  ( -1.000000000000000000, 3.491481338843133355E-15, -6.387540564961450982E-17 ) ) ;
#497 = CARTESIAN_POINT ( 'NONE',  ( -122.2633999999999901, -1.999999999999991340, -107.2634000000000043 ) ) ;
#498 = CARTESIAN_POINT ( 'NONE',  ( 122.2633999999999617, 0.7366000000000134662, 107.2633999999999759 ) ) ;
#499 = ORIENTED_EDGE ( 'NONE', *, *, #88, .F. ) ;
#500 = VECTOR ( 'NONE', #1013, 1000.000000000000000 ) ;
#501 = FACE_OUTER_BOUND ( 'NONE', #426, .T. ) ;
#502 = FACE_OUTER_BOUND ( 'NONE', #12, .T. ) ;
#503 = CARTESIAN_POINT ( 'NONE',  ( 122.2633999999999617, 9.540979117872439019E-15, -107.2634000000000043 ) ) ;
#504 = PLANE ( 'NONE',  #159 ) ;
#505 = VERTEX_POINT ( 'NONE', #955 ) ;
#506 = DIRECTION ( 'NONE',  ( 1.000000000000000000, 0.000000000000000000, -0.000000000000000000 ) ) ;
#507 = DIRECTION ( 'NONE',  ( -3.540251991789401517E-15, -1.000000000000000000, -4.379057701015053347E-47 ) ) ;
#508 = ADVANCED_FACE ( 'NONE', ( #150 ), #504, .F. ) ;
#509 = AXIS2_PLACEMENT_3D ( 'NONE', #947, #413, #233 ) ;
#510 = AXIS2_PLACEMENT_3D ( 'NONE', #625, #609, #438 ) ;
#511 = ORIENTED_EDGE ( 'NONE', *, *, #778, .T. ) ;
#512 = PLANE ( 'NONE',  #255 ) ;
#513 = ADVANCED_FACE ( 'NONE', ( #163 ), #702, .T. ) ;
#514 = ORIENTED_EDGE ( 'NONE', *, *, #317, .T. ) ;
#515 = ADVANCED_FACE ( 'NONE', ( #1148 ), #689, .F. ) ;
#516 = FACE_OUTER_BOUND ( 'NONE', #400, .T. ) ;
#517 = PLANE ( 'NONE',  #6 ) ;
#518 = ORIENTED_EDGE ( 'NONE', *, *, #1056, .T. ) ;
#519 = CYLINDRICAL_SURFACE ( 'NONE', #176, 2.736600000000005473 ) ;
#520 = ORIENTED_EDGE ( 'NONE', *, *, #1026, .T. ) ;
#521 = EDGE_CURVE ( 'NONE', #1101, #336, #311, .T. ) ;
#522 = ORIENTED_EDGE ( 'NONE', *, *, #223, .T. ) ;
#523 = ORIENTED_EDGE ( 'NONE', *, *, #562, .T. ) ;
#524 = DIRECTION ( 'NONE',  ( -1.000000000000000000, 0.000000000000000000, 0.000000000000000000 ) ) ;
#525 = PRESENTATION_LAYER_ASSIGNMENT (  '', '', ( #792 ) ) ;
#526 = ORIENTED_EDGE ( 'NONE', *, *, #610, .F. ) ;
#527 = AXIS2_PLACEMENT_3D ( 'NONE', #250, #786, #1068 ) ;
#528 = EDGE_CURVE ( 'NONE', #774, #265, #694, .T. ) ;
#529 = ORIENTED_EDGE ( 'NONE', *, *, #460, .F. ) ;
#530 = DIRECTION ( 'NONE',  ( -1.000000000000000000, -0.000000000000000000, -0.000000000000000000 ) ) ;
#531 = ADVANCED_FACE ( 'NONE', ( #966 ), #517, .F. ) ;
#532 = AXIS2_PLACEMENT_3D ( 'NONE', #976, #172, #1067 ) ;
#533 = ORIENTED_EDGE ( 'NONE', *, *, #1138, .T. ) ;
#534 = CARTESIAN_POINT ( 'NONE',  ( -123.0000000000000000, 0.7366000000000039183, -110.0000000000000142 ) ) ;
#535 = DIRECTION ( 'NONE',  ( 0.000000000000000000, 0.000000000000000000, 1.000000000000000000 ) ) ;
#536 = DIRECTION ( 'NONE',  ( 0.000000000000000000, 0.000000000000000000, 1.000000000000000000 ) ) ;
#537 = CARTESIAN_POINT ( 'NONE',  ( -123.0000000000000000, -4.248302390147282041E-13, 109.9999999999999858 ) ) ;
#538 = EDGE_CURVE ( 'NONE', #505, #1017, #263, .T. ) ;
#539 = DIRECTION ( 'NONE',  ( 1.000000000000000000, 0.000000000000000000, 3.570363616888576540E-32 ) ) ;
#540 = CARTESIAN_POINT ( 'NONE',  ( -122.2633999999999901, 0.7366000000000126890, -107.2634000000000043 ) ) ;
#541 = FACE_OUTER_BOUND ( 'NONE', #750, .T. ) ;
#542 = VERTEX_POINT ( 'NONE', #169 ) ;
#543 = ORIENTED_EDGE ( 'NONE', *, *, #101, .T. ) ;
#544 =( GEOMETRIC_REPRESENTATION_CONTEXT ( 3 ) GLOBAL_UNCERTAINTY_ASSIGNED_CONTEXT ( ( #793 ) ) GLOBAL_UNIT_ASSIGNED_CONTEXT ( ( #303, #837, #40 ) ) REPRESENTATION_CONTEXT ( 'NONE', 'WORKASPACE' ) );
#545 = PLANE ( 'NONE',  #617 ) ;
#546 = CARTESIAN_POINT ( 'NONE',  ( 0.000000000000000000, 0.7366000000000317849, -110.0000000000000142 ) ) ;
#547 = DIRECTION ( 'NONE',  ( 0.000000000000000000, 0.000000000000000000, -1.000000000000000000 ) ) ;
#548 = EDGE_CURVE ( 'NONE', #57, #1130, #81, .T. ) ;
#549 = VERTEX_POINT ( 'NONE', #148 ) ;
#550 = ORIENTED_EDGE ( 'NONE', *, *, #968, .T. ) ;
#551 = DIRECTION ( 'NONE',  ( 0.000000000000000000, 6.982962677686266711E-15, -1.000000000000000000 ) ) ;
#552 = DIRECTION ( 'NONE',  ( 0.000000000000000000, -1.000000000000000000, 0.000000000000000000 ) ) ;
#553 = DIRECTION ( 'NONE',  ( -1.000000000000000000, 0.000000000000000000, 0.000000000000000000 ) ) ;
#554 = CARTESIAN_POINT ( 'NONE',  ( 122.2633999999999617, 0.7366000000000134662, -110.0000000000000142 ) ) ;
#555 = DIRECTION ( 'NONE',  ( 0.000000000000000000, 0.000000000000000000, 1.000000000000000000 ) ) ;
#556 = EDGE_LOOP ( 'NONE', ( #31, #1137, #728, #1057, #576, #1032 ) ) ;
#557 = FACE_OUTER_BOUND ( 'NONE', #1053, .T. ) ;
#558 = ADVANCED_FACE ( 'NONE', ( #684 ), #940, .F. ) ;
#559 = LINE ( 'NONE', #487, #437 ) ;
#560 = CARTESIAN_POINT ( 'NONE',  ( 123.0000000000003268, 98.00000000000001421, -110.0000000000000142 ) ) ;
#561 = ORIENTED_EDGE ( 'NONE', *, *, #948, .T. ) ;
#562 = EDGE_CURVE ( 'NONE', #606, #623, #572, .T. ) ;
#563 = CARTESIAN_POINT ( 'NONE',  ( -125.0000000000000000, 0.7365999999999970349, 109.9999999999999858 ) ) ;
#564 = CIRCLE ( 'NONE', #217, 0.7366000000000039183 ) ;
#565 = EDGE_CURVE ( 'NONE', #1017, #182, #1112, .T. ) ;
#566 = CYLINDRICAL_SURFACE ( 'NONE', #46, 2.736600000000005473 ) ;
#567 = VECTOR ( 'NONE', #161, 1000.000000000000000 ) ;
#568 = ORIENTED_EDGE ( 'NONE', *, *, #452, .T. ) ;
#569 = LINE ( 'NONE', #41, #61 ) ;
#570 = ORIENTED_EDGE ( 'NONE', *, *, #428, .F. ) ;
#571 = CARTESIAN_POINT ( 'NONE',  ( -122.2633999999999901, 0.7366000000000126890, -108.0000000000000142 ) ) ;
#572 = LINE ( 'NONE', #959, #1115 ) ;
#573 = ORIENTED_EDGE ( 'NONE', *, *, #116, .F. ) ;
#574 = CARTESIAN_POINT ( 'NONE',  ( -122.2633999999999901, 0.7366000000000126890, -107.2634000000000043 ) ) ;
#575 = AXIS2_PLACEMENT_3D ( 'NONE', #373, #1077, #639 ) ;
#576 = ORIENTED_EDGE ( 'NONE', *, *, #1110, .F. ) ;
#577 = DIRECTION ( 'NONE',  ( 1.000000000000000000, -0.000000000000000000, -0.000000000000000000 ) ) ;
#578 = EDGE_CURVE ( 'NONE', #795, #18, #667, .T. ) ;
#579 = DIRECTION ( 'NONE',  ( 0.000000000000000000, 0.000000000000000000, 1.000000000000000000 ) ) ;
#580 = ORIENTED_EDGE ( 'NONE', *, *, #892, .T. ) ;
#581 = FILL_AREA_STYLE ('',( #58 ) ) ;
#582 = DIRECTION ( 'NONE',  ( 1.000000000000000000, 0.000000000000000000, 0.000000000000000000 ) ) ;
#583 = VERTEX_POINT ( 'NONE', #503 ) ;
#584 = VECTOR ( 'NONE', #830, 1000.000000000000000 ) ;
#585 = DIRECTION ( 'NONE',  ( 0.000000000000000000, 2.297877877810389714E-15, 1.000000000000000000 ) ) ;
#586 = CARTESIAN_POINT ( 'NONE',  ( -125.0000000000000000, 0.7366000000000039183, -110.0000000000000142 ) ) ;
#587 = VERTEX_POINT ( 'NONE', #140 ) ;
#588 = DIRECTION ( 'NONE',  ( 0.000000000000000000, 0.000000000000000000, -1.000000000000000000 ) ) ;
#589 = CARTESIAN_POINT ( 'NONE',  ( 125.0000000000002984, 98.00000000000000000, 107.2633999999999759 ) ) ;
#590 = UNCERTAINTY_MEASURE_WITH_UNIT (LENGTH_MEASURE( 1.000000000000000082E-05 ), #62, 'distance_accuracy_value', 'NONE');
#591 = ORIENTED_EDGE ( 'NONE', *, *, #1050, .F. ) ;
#592 = CARTESIAN_POINT ( 'NONE',  ( 122.9999999999999716, -4.425314989736750906E-13, 7.856674894902582613E-15 ) ) ;
#593 = DIRECTION ( 'NONE',  ( -0.000000000000000000, 0.000000000000000000, -1.000000000000000000 ) ) ;
#594 = CARTESIAN_POINT ( 'NONE',  ( 122.2633999999999617, 0.7366000000000134662, -110.0000000000000142 ) ) ;
#595 = ORIENTED_EDGE ( 'NONE', *, *, #936, .T. ) ;
#596 = DIRECTION ( 'NONE',  ( 1.000000000000000000, 0.000000000000000000, 0.000000000000000000 ) ) ;
#597 = CARTESIAN_POINT ( 'NONE',  ( 124.9999999999999716, -2.000000000000000000, 107.2633999999999759 ) ) ;
#598 = ADVANCED_FACE ( 'NONE', ( #1125 ), #863, .F. ) ;
#599 = EDGE_CURVE ( 'NONE', #182, #158, #672, .T. ) ;
#600 = AXIS2_PLACEMENT_3D ( 'NONE', #488, #45, #325 ) ;
#601 = ORIENTED_EDGE ( 'NONE', *, *, #578, .T. ) ;
#602 = DIRECTION ( 'NONE',  ( 0.000000000000000000, 6.982962677686266711E-15, -1.000000000000000000 ) ) ;
#603 = DIRECTION ( 'NONE',  ( -3.521178144991350616E-32, 0.000000000000000000, 1.000000000000000000 ) ) ;
#604 = AXIS2_PLACEMENT_3D ( 'NONE', #295, #848, #1008 ) ;
#605 = ORIENTED_EDGE ( 'NONE', *, *, #528, .T. ) ;
#606 = VERTEX_POINT ( 'NONE', #1096 ) ;
#607 = CARTESIAN_POINT ( 'NONE',  ( -122.2633999999999901, 2.493664996716660198E-15, 107.2633999999999759 ) ) ;
#608 = CIRCLE ( 'NONE', #647, 2.736600000000005473 ) ;
#609 = DIRECTION ( 'NONE',  ( 0.000000000000000000, 0.000000000000000000, -1.000000000000000000 ) ) ;
#610 = EDGE_CURVE ( 'NONE', #768, #1075, #842, .T. ) ;
#611 = ORIENTED_EDGE ( 'NONE', *, *, #484, .T. ) ;
#612 = CARTESIAN_POINT ( 'NONE',  ( -122.2633999999999901, 0.7366000000000039183, 108.0000000000000000 ) ) ;
#613 = PLANE ( 'NONE',  #532 ) ;
#614 = ORIENTED_EDGE ( 'NONE', *, *, #494, .T. ) ;
#615 = CARTESIAN_POINT ( 'NONE',  ( 124.9999999999999716, 0.000000000000000000, 107.2633999999999759 ) ) ;
#616 = COLOUR_RGB ( '',1.000000000000000000, 1.000000000000000000, 1.000000000000000000 ) ;
#617 = AXIS2_PLACEMENT_3D ( 'NONE', #73, #715, #524 ) ;
#618 = ADVANCED_FACE ( 'NONE', ( #501 ), #681, .F. ) ;
#619 = EDGE_LOOP ( 'NONE', ( #701, #55, #526, #692 ) ) ;
#620 = DIRECTION ( 'NONE',  ( -1.000000000000000000, 0.000000000000000000, -0.000000000000000000 ) ) ;
#621 = CARTESIAN_POINT ( 'NONE',  ( -125.0000000000000000, 0.7365999999999970349, -110.0000000000000142 ) ) ;
#622 = ORIENTED_EDGE ( 'NONE', *, *, #223, .F. ) ;
#623 = VERTEX_POINT ( 'NONE', #607 ) ;
#624 = ADVANCED_FACE ( 'NONE', ( #516 ), #72, .T. ) ;
#625 = CARTESIAN_POINT ( 'NONE',  ( -122.2633999999999901, 0.7366000000000063608, 109.9999999999999858 ) ) ;
#626 = CIRCLE ( 'NONE', #149, 0.7366000000000039183 ) ;
#627 = LINE ( 'NONE', #989, #1102 ) ;
#628 = CYLINDRICAL_SURFACE ( 'NONE', #184, 2.736600000000005473 ) ;
#629 = ORIENTED_EDGE ( 'NONE', *, *, #691, .F. ) ;
#630 = FACE_OUTER_BOUND ( 'NONE', #760, .T. ) ;
#631 = EDGE_CURVE ( 'NONE', #127, #873, #481, .T. ) ;
#632 = DIRECTION ( 'NONE',  ( 3.521178144991350616E-32, 0.000000000000000000, -1.000000000000000000 ) ) ;
#633 = DIRECTION ( 'NONE',  ( 0.000000000000000000, 0.000000000000000000, 1.000000000000000000 ) ) ;
#634 = DIRECTION ( 'NONE',  ( -1.000000000000000000, -0.000000000000000000, -0.000000000000000000 ) ) ;
#635 = ORIENTED_EDGE ( 'NONE', *, *, #305, .T. ) ;
#636 = ORIENTED_EDGE ( 'NONE', *, *, #47, .T. ) ;
#637 = VECTOR ( 'NONE', #577, 1000.000000000000000 ) ;
#638 = DIRECTION ( 'NONE',  ( 0.000000000000000000, 0.000000000000000000, -1.000000000000000000 ) ) ;
#639 = DIRECTION ( 'NONE',  ( -1.000000000000000000, 3.491481338843133355E-15, 0.000000000000000000 ) ) ;
#640 = MANIFOLD_SOLID_BREP ( '边线-法兰4', #1059 ) ;
#641 = DIRECTION ( 'NONE',  ( 1.000000000000000000, 0.000000000000000000, -0.000000000000000000 ) ) ;
#642 = CARTESIAN_POINT ( 'NONE',  ( -125.0000000000003268, 98.00000000000000000, -110.0000000000000142 ) ) ;
#643 =( GEOMETRIC_REPRESENTATION_CONTEXT ( 3 ) GLOBAL_UNCERTAINTY_ASSIGNED_CONTEXT ( ( #772 ) ) GLOBAL_UNIT_ASSIGNED_CONTEXT ( ( #53, #680, #781 ) ) REPRESENTATION_CONTEXT ( 'NONE', 'WORKASPACE' ) );
#644 = VERTEX_POINT ( 'NONE', #318 ) ;
#645 = DIRECTION ( 'NONE',  ( 0.000000000000000000, -0.000000000000000000, 1.000000000000000000 ) ) ;
#646 = PRESENTATION_STYLE_ASSIGNMENT (( #1004 ) ) ;
#647 = AXIS2_PLACEMENT_3D ( 'NONE', #899, #201, #535 ) ;
#648 = CARTESIAN_POINT ( 'NONE',  ( 125.0000000000003268, 98.00000000000000000, -110.0000000000000142 ) ) ;
#649 = EDGE_CURVE ( 'NONE', #247, #301, #730, .T. ) ;
#650 = DIRECTION ( 'NONE',  ( -1.000000000000000000, -0.000000000000000000, -0.000000000000000000 ) ) ;
#651 = ADVANCED_FACE ( 'NONE', ( #1011 ), #566, .T. ) ;
#652 = ORIENTED_EDGE ( 'NONE', *, *, #599, .T. ) ;
#653 = CARTESIAN_POINT ( 'NONE',  ( -122.2633999999999901, 0.7366000000000177961, -108.0000000000000142 ) ) ;
#654 = DIRECTION ( 'NONE',  ( 1.000000000000000000, 0.000000000000000000, 6.387540564961450982E-17 ) ) ;
#655 = LINE ( 'NONE', #725, #266 ) ;
#656 = ORIENTED_EDGE ( 'NONE', *, *, #214, .F. ) ;
#657 = DIRECTION ( 'NONE',  ( 1.000000000000000000, 0.000000000000000000, 0.000000000000000000 ) ) ;
#658 = EDGE_CURVE ( 'NONE', #542, #697, #399, .T. ) ;
#659 = AXIS2_PLACEMENT_3D ( 'NONE', #592, #357, #268 ) ;
#660 = CARTESIAN_POINT ( 'NONE',  ( 124.9999999999999858, 98.00000000000001421, 108.0000000000003268 ) ) ;
#661 = CIRCLE ( 'NONE', #812, 2.736600000000005473 ) ;
#662 = EDGE_LOOP ( 'NONE', ( #375, #734, #985, #196, #207, #138 ) ) ;
#663 = DIRECTION ( 'NONE',  ( 1.000000000000000000, -3.540251991789401517E-15, 6.387540564961450982E-17 ) ) ;
#664 = PRESENTATION_LAYER_ASSIGNMENT (  '', '', ( #439 ) ) ;
#665 = EDGE_CURVE ( 'NONE', #688, #79, #1111, .T. ) ;
#666 = CARTESIAN_POINT ( 'NONE',  ( 122.2633999999999617, 9.540979117872439019E-15, -110.0000000000000142 ) ) ;
#667 = LINE ( 'NONE', #232, #834 ) ;
#668 = ORIENTED_EDGE ( 'NONE', *, *, #711, .F. ) ;
#669 = EDGE_CURVE ( 'NONE', #670, #583, #209, .T. ) ;
#670 = VERTEX_POINT ( 'NONE', #931 ) ;
#671 = CARTESIAN_POINT ( 'NONE',  ( 125.0000000000003268, 98.00000000000000000, -110.0000000000000142 ) ) ;
#672 = LINE ( 'NONE', #497, #272 ) ;
#673 = CARTESIAN_POINT ( 'NONE',  ( 124.9999999999999716, 0.7366000000000039183, 107.2633999999999759 ) ) ;
#674 = ORIENTED_EDGE ( 'NONE', *, *, #521, .F. ) ;
#675 = DIRECTION ( 'NONE',  ( 0.000000000000000000, 0.000000000000000000, 1.000000000000000000 ) ) ;
#676 = CARTESIAN_POINT ( 'NONE',  ( -122.2633999999999901, 98.00000000000001421, 108.0000000000003268 ) ) ;
#677 = AXIS2_PLACEMENT_3D ( 'NONE', #38, #912, #43 ) ;
#678 = LINE ( 'NONE', #941, #39 ) ;
#679 = ORIENTED_EDGE ( 'NONE', *, *, #166, .F. ) ;
#680 =( NAMED_UNIT ( * ) PLANE_ANGLE_UNIT ( ) SI_UNIT ( $, .RADIAN. ) );
#681 = PLANE ( 'NONE',  #659 ) ;
#682 = DIRECTION ( 'NONE',  ( 1.000000000000000000, 0.000000000000000000, 0.000000000000000000 ) ) ;
#683 = VECTOR ( 'NONE', #85, 1000.000000000000000 ) ;
#684 = FACE_OUTER_BOUND ( 'NONE', #71, .T. ) ;
#685 = ORIENTED_EDGE ( 'NONE', *, *, #1016, .T. ) ;
#686 = APPLICATION_PROTOCOL_DEFINITION ( 'draft international standard', 'automotive_design', 1998, #345 ) ;
#687 = EDGE_CURVE ( 'NONE', #774, #74, #224, .T. ) ;
#688 = VERTEX_POINT ( 'NONE', #660 ) ;
#689 = PLANE ( 'NONE',  #424 ) ;
#690 = LINE ( 'NONE', #1140, #121 ) ;
#691 = EDGE_CURVE ( 'NONE', #942, #623, #111, .T. ) ;
#692 = ORIENTED_EDGE ( 'NONE', *, *, #957, .F. ) ;
#693 = SURFACE_SIDE_STYLE ('',( #422 ) ) ;
#694 = LINE ( 'NONE', #1063, #475 ) ;
#695 = FACE_OUTER_BOUND ( 'NONE', #235, .T. ) ;
#696 = VECTOR ( 'NONE', #552, 1000.000000000000000 ) ;
#697 = VERTEX_POINT ( 'NONE', #1095 ) ;
#698 = LINE ( 'NONE', #192, #777 ) ;
#699 = EDGE_CURVE ( 'NONE', #873, #956, #49, .T. ) ;
#700 = ORIENTED_EDGE ( 'NONE', *, *, #428, .T. ) ;
#701 = ORIENTED_EDGE ( 'NONE', *, *, #20, .T. ) ;
#702 = PLANE ( 'NONE',  #333 ) ;
#703 = ORIENTED_EDGE ( 'NONE', *, *, #279, .T. ) ;
#704 = DIRECTION ( 'NONE',  ( -3.521178144991350616E-32, 0.000000000000000000, 1.000000000000000000 ) ) ;
#705 = ORIENTED_EDGE ( 'NONE', *, *, #116, .T. ) ;
#706 = DIRECTION ( 'NONE',  ( 6.387540564961473169E-17, 6.387540564961454680E-17, -1.000000000000000000 ) ) ;
#707 = CARTESIAN_POINT ( 'NONE',  ( -122.2633999999999901, 98.00000000000000000, 110.0000000000003268 ) ) ;
#708 = CARTESIAN_POINT ( 'NONE',  ( -122.2633999999999901, 2.493664996716660198E-15, -110.0000000000000142 ) ) ;
#709 = DIRECTION ( 'NONE',  ( 0.000000000000000000, 0.000000000000000000, -1.000000000000000000 ) ) ;
#710 = VECTOR ( 'NONE', #418, 1000.000000000000000 ) ;
#711 = EDGE_CURVE ( 'NONE', #57, #249, #559, .T. ) ;
#712 = VECTOR ( 'NONE', #1064, 1000.000000000000000 ) ;
#713 = VERTEX_POINT ( 'NONE', #926 ) ;
#714 = LINE ( 'NONE', #808, #339 ) ;
#715 = DIRECTION ( 'NONE',  ( 0.000000000000000000, 0.000000000000000000, -1.000000000000000000 ) ) ;
#716 = DIRECTION ( 'NONE',  ( -0.000000000000000000, 0.000000000000000000, -1.000000000000000000 ) ) ;
#717 = ORIENTED_EDGE ( 'NONE', *, *, #968, .F. ) ;
#718 = ORIENTED_EDGE ( 'NONE', *, *, #168, .F. ) ;
#719 = CARTESIAN_POINT ( 'NONE',  ( -122.2633999999999901, 2.493664996716660198E-15, 109.8990023979348507 ) ) ;
#720 = ADVANCED_FACE ( 'NONE', ( #919 ), #33, .T. ) ;
#721 = VECTOR ( 'NONE', #547, 1000.000000000000000 ) ;
#722 = EDGE_CURVE ( 'NONE', #158, #18, #1019, .T. ) ;
#723 = DIRECTION ( 'NONE',  ( 1.000000000000000000, 3.491481338843133355E-15, 0.000000000000000000 ) ) ;
#724 = DIRECTION ( 'NONE',  ( -0.000000000000000000, 0.000000000000000000, -1.000000000000000000 ) ) ;
#725 = CARTESIAN_POINT ( 'NONE',  ( -123.0000000000000000, 0.7366000000000039183, 109.9999999999999858 ) ) ;
#726 = VECTOR ( 'NONE', #634, 1000.000000000000000 ) ;
#727 = EDGE_LOOP ( 'NONE', ( #888, #1038, #1020, #953 ) ) ;
#728 = ORIENTED_EDGE ( 'NONE', *, *, #47, .F. ) ;
#729 = CARTESIAN_POINT ( 'NONE',  ( 124.9999999999999716, -4.495144616513613321E-13, 7.984425706201812471E-15 ) ) ;
#730 = LINE ( 'NONE', #939, #867 ) ;
#731 = CARTESIAN_POINT ( 'NONE',  ( 122.2633999999999617, 0.7366000000000126890, -107.2634000000000043 ) ) ;
#732 = DIRECTION ( 'NONE',  ( 3.521178144991350616E-32, 3.491481338843133355E-15, -1.000000000000000000 ) ) ;
#733 = LINE ( 'NONE', #286, #726 ) ;
#734 = ORIENTED_EDGE ( 'NONE', *, *, #279, .F. ) ;
#735 = AXIS2_PLACEMENT_3D ( 'NONE', #1052, #765, #344 ) ;
#736 = CARTESIAN_POINT ( 'NONE',  ( 122.2633999999999617, 98.00000000000001421, -110.0000000000000142 ) ) ;
#737 = CARTESIAN_POINT ( 'NONE',  ( 122.2633999999999617, 98.00000000000001421, -110.0000000000000142 ) ) ;
#738 = EDGE_CURVE ( 'NONE', #478, #127, #70, .T. ) ;
#739 = CARTESIAN_POINT ( 'NONE',  ( -122.2633999999999901, 2.493664996716660198E-15, 109.9999999999999858 ) ) ;
#740 = ADVANCED_FACE ( 'NONE', ( #324 ), #350, .T. ) ;
#741 = PLANE ( 'NONE',  #929 ) ;
#742 = CARTESIAN_POINT ( 'NONE',  ( 122.2633999999999617, 9.540979117872439019E-15, -110.0000000000000142 ) ) ;
#743 = CARTESIAN_POINT ( 'NONE',  ( 122.9999999999999716, 0.7366000000000108017, -110.0000000000000142 ) ) ;
#744 = CARTESIAN_POINT ( 'NONE',  ( 125.0000000000002984, 98.00000000000000000, 107.2633999999999759 ) ) ;
#745 = ORIENTED_EDGE ( 'NONE', *, *, #562, .F. ) ;
#746 = AXIS2_PLACEMENT_3D ( 'NONE', #498, #56, #420 ) ;
#747 = LINE ( 'NONE', #909, #1009 ) ;
#748 = EDGE_LOOP ( 'NONE', ( #840, #221, #595, #1086 ) ) ;
#749 = DIRECTION ( 'NONE',  ( 3.540251991789401517E-15, 1.000000000000000000, 0.000000000000000000 ) ) ;
#750 = EDGE_LOOP ( 'NONE', ( #130, #353, #884, #622, #108, #429 ) ) ;
#751 = CARTESIAN_POINT ( 'NONE',  ( -122.2633999999999901, 2.493664996716660198E-15, -110.0000000000000142 ) ) ;
#752 = CARTESIAN_POINT ( 'NONE',  ( -123.0000000000000000, -4.248302390147282041E-13, 0.000000000000000000 ) ) ;
#753 = EDGE_CURVE ( 'NONE', #991, #115, #1133, .T. ) ;
#754 = ORIENTED_EDGE ( 'NONE', *, *, #1141, .T. ) ;
#755 = FACE_OUTER_BOUND ( 'NONE', #52, .T. ) ;
#756 = CIRCLE ( 'NONE', #509, 2.736600000000005473 ) ;
#757 = DIRECTION ( 'NONE',  ( 1.000000000000000000, 0.000000000000000000, -0.000000000000000000 ) ) ;
#758 = VECTOR ( 'NONE', #405, 1000.000000000000000 ) ;
#759 = DIRECTION ( 'NONE',  ( -1.000000000000000000, 0.000000000000000000, 0.000000000000000000 ) ) ;
#760 = EDGE_LOOP ( 'NONE', ( #876, #440, #523, #253, #1116, #191 ) ) ;
#761 = SURFACE_STYLE_USAGE ( .BOTH. , #693 ) ;
#762 = AXIS2_PLACEMENT_3D ( 'NONE', #729, #663, #749 ) ;
#763 = VECTOR ( 'NONE', #386, 1000.000000000000000 ) ;
#764 = EDGE_CURVE ( 'NONE', #301, #942, #883, .T. ) ;
#765 = DIRECTION ( 'NONE',  ( 0.000000000000000000, 1.000000000000000000, 0.000000000000000000 ) ) ;
#766 = AXIS2_PLACEMENT_3D ( 'NONE', #281, #818, #1099 ) ;
#767 = CARTESIAN_POINT ( 'NONE',  ( -3.997823541477260254E-30, -3.964106817745203697E-13, 109.9999999999999858 ) ) ;
#768 = VERTEX_POINT ( 'NONE', #874 ) ;
#769 = DIRECTION ( 'NONE',  ( -3.540251991789401517E-15, -1.000000000000000000, -4.379057701015053347E-47 ) ) ;
#770 = PLANE ( 'NONE',  #245 ) ;
#771 = LINE ( 'NONE', #589, #1145 ) ;
#772 = UNCERTAINTY_MEASURE_WITH_UNIT (LENGTH_MEASURE( 1.000000000000000082E-05 ), #53, 'distance_accuracy_value', 'NONE');
#773 = ORIENTED_EDGE ( 'NONE', *, *, #997, .F. ) ;
#774 = VERTEX_POINT ( 'NONE', #147 ) ;
#775 = LINE ( 'NONE', #1135, #1070 ) ;
#776 = AXIS2_PLACEMENT_3D ( 'NONE', #744, #1105, #654 ) ;
#777 = VECTOR ( 'NONE', #796, 1000.000000000000000 ) ;
#778 = EDGE_CURVE ( 'NONE', #870, #549, #690, .T. ) ;
#779 = EDGE_CURVE ( 'NONE', #870, #82, #423, .T. ) ;
#780 = ORIENTED_EDGE ( 'NONE', *, *, #369, .T. ) ;
#781 =( NAMED_UNIT ( * ) SI_UNIT ( $, .STERADIAN. ) SOLID_ANGLE_UNIT ( ) );
#782 = CARTESIAN_POINT ( 'NONE',  ( 124.9999999999999716, 0.7366000000000039183, 107.2633999999999759 ) ) ;
#783 = ORIENTED_EDGE ( 'NONE', *, *, #548, .T. ) ;
#784 = VECTOR ( 'NONE', #1083, 1000.000000000000000 ) ;
#785 = ORIENTED_EDGE ( 'NONE', *, *, #445, .T. ) ;
#786 = DIRECTION ( 'NONE',  ( -0.000000000000000000, -0.000000000000000000, 1.000000000000000000 ) ) ;
#787 = FACE_OUTER_BOUND ( 'NONE', #896, .T. ) ;
#788 = ORIENTED_EDGE ( 'NONE', *, *, #764, .T. ) ;
#789 = ADVANCED_FACE ( 'NONE', ( #695 ), #1054, .T. ) ;
#790 = CARTESIAN_POINT ( 'NONE',  ( 125.0000000000003268, 98.00000000000000000, -110.0000000000000142 ) ) ;
#791 = EDGE_CURVE ( 'NONE', #542, #820, #775, .T. ) ;
#792 = STYLED_ITEM ( 'NONE', ( #646 ), #640 ) ;
#793 = UNCERTAINTY_MEASURE_WITH_UNIT (LENGTH_MEASURE( 1.000000000000000082E-05 ), #303, 'distance_accuracy_value', 'NONE');
#794 = ORIENTED_EDGE ( 'NONE', *, *, #98, .T. ) ;
#795 = VERTEX_POINT ( 'NONE', #597 ) ;
#796 = DIRECTION ( 'NONE',  ( 0.000000000000000000, -0.000000000000000000, 1.000000000000000000 ) ) ;
#797 = CIRCLE ( 'NONE', #856, 2.736600000000005473 ) ;
#798 = AXIS2_PLACEMENT_3D ( 'NONE', #895, #472, #633 ) ;
#799 = EDGE_LOOP ( 'NONE', ( #1074, #794, #911, #329 ) ) ;
#800 = LINE ( 'NONE', #983, #396 ) ;
#801 = ORIENTED_EDGE ( 'NONE', *, *, #10, .F. ) ;
#802 = CIRCLE ( 'NONE', #300, 2.736600000000005473 ) ;
#803 = DIRECTION ( 'NONE',  ( 0.000000000000000000, -1.000000000000000000, -3.540251991789401517E-15 ) ) ;
#804 = DIRECTION ( 'NONE',  ( 1.000000000000000000, 0.000000000000000000, -0.000000000000000000 ) ) ;
#805 = ORIENTED_EDGE ( 'NONE', *, *, #811, .F. ) ;
#806 = CARTESIAN_POINT ( 'NONE',  ( 122.2633999999999617, -1.999999999999990452, 107.2633999999999759 ) ) ;
#807 = CYLINDRICAL_SURFACE ( 'NONE', #122, 0.7366000000000039183 ) ;
#808 = CARTESIAN_POINT ( 'NONE',  ( -122.2633999999999901, 2.493664996716660198E-15, -110.0000000000000142 ) ) ;
#809 = CARTESIAN_POINT ( 'NONE',  ( -122.2633999999999901, 0.7366000000000039183, 107.2633999999999759 ) ) ;
#810 = CIRCLE ( 'NONE', #93, 0.7366000000000039183 ) ;
#811 = EDGE_CURVE ( 'NONE', #79, #991, #564, .T. ) ;
#812 = AXIS2_PLACEMENT_3D ( 'NONE', #1045, #588, #582 ) ;
#813 = ORIENTED_EDGE ( 'NONE', *, *, #75, .F. ) ;
#814 = EDGE_CURVE ( 'NONE', #956, #688, #961, .T. ) ;
#815 = CARTESIAN_POINT ( 'NONE',  ( 124.9999999999999858, 98.00000000000000000, 110.0000000000003268 ) ) ;
#816 = CARTESIAN_POINT ( 'NONE',  ( 125.0000000000002984, 98.00000000000000000, 107.2633999999999759 ) ) ;
#817 = VECTOR ( 'NONE', #288, 1000.000000000000000 ) ;
#818 = DIRECTION ( 'NONE',  ( 0.000000000000000000, 0.000000000000000000, -1.000000000000000000 ) ) ;
#819 = LINE ( 'NONE', #16, #973 ) ;
#820 = VERTEX_POINT ( 'NONE', #256 ) ;
#821 = CARTESIAN_POINT ( 'NONE',  ( -122.2633999999999901, 2.493664996716660198E-15, 109.9999999999999858 ) ) ;
#822 = AXIS2_PLACEMENT_3D ( 'NONE', #554, #1000, #994 ) ;
#823 = CARTESIAN_POINT ( 'NONE',  ( 124.9999999999999716, 0.7366000000000038073, 107.2633999999999759 ) ) ;
#824 = PLANE ( 'NONE',  #1060 ) ;
#825 = DIRECTION ( 'NONE',  ( 1.000000000000000000, 0.000000000000000000, 0.000000000000000000 ) ) ;
#826 = ORIENTED_EDGE ( 'NONE', *, *, #382, .T. ) ;
#827 = VERTEX_POINT ( 'NONE', #676 ) ;
#828 = ADVANCED_FACE ( 'NONE', ( #502 ), #512, .F. ) ;
#829 = CARTESIAN_POINT ( 'NONE',  ( -122.2633999999999901, 0.7366000000000063608, -110.0000000000000142 ) ) ;
#830 = DIRECTION ( 'NONE',  ( -0.000000000000000000, -1.000000000000000000, -3.540251991789401517E-15 ) ) ;
#831 = CARTESIAN_POINT ( 'NONE',  ( -122.2633999999999901, 0.7365999999999942593, 109.9999999999999858 ) ) ;
#832 = CARTESIAN_POINT ( 'NONE',  ( 123.0000000000002984, 98.00000000000001421, 107.2633999999999759 ) ) ;
#833 = CARTESIAN_POINT ( 'NONE',  ( 124.9999999999999716, 0.7366000000000039183, 107.2633999999999759 ) ) ;
#834 = VECTOR ( 'NONE', #932, 1000.000000000000000 ) ;
#835 = VECTOR ( 'NONE', #1069, 1000.000000000000000 ) ;
#836 = FACE_OUTER_BOUND ( 'NONE', #171, .T. ) ;
#837 =( NAMED_UNIT ( * ) PLANE_ANGLE_UNIT ( ) SI_UNIT ( $, .RADIAN. ) );
#838 = CARTESIAN_POINT ( 'NONE',  ( 124.8990023979348365, 0.000000000000000000, 107.2633999999999759 ) ) ;
#839 = DIRECTION ( 'NONE',  ( -1.000000000000000000, 1.246585794125093943E-46, -3.521178144991350616E-32 ) ) ;
#840 = ORIENTED_EDGE ( 'NONE', *, *, #206, .F. ) ;
#841 = PLANE ( 'NONE',  #1117 ) ;
#842 = LINE ( 'NONE', #898, #408 ) ;
#843 = VECTOR ( 'NONE', #120, 1000.000000000000000 ) ;
#844 = ORIENTED_EDGE ( 'NONE', *, *, #658, .F. ) ;
#845 = EDGE_CURVE ( 'NONE', #1017, #91, #661, .T. ) ;
#846 = DIRECTION ( 'NONE',  ( 1.000000000000000000, 3.491481338843133355E-15, 0.000000000000000000 ) ) ;
#847 = ORIENTED_EDGE ( 'NONE', *, *, #1110, .T. ) ;
#848 = DIRECTION ( 'NONE',  ( 6.387540564961450982E-17, -2.261350320774036779E-31, -1.000000000000000000 ) ) ;
#849 = DIRECTION ( 'NONE',  ( -0.000000000000000000, 0.000000000000000000, -1.000000000000000000 ) ) ;
#850 = ADVANCED_FACE ( 'NONE', ( #432 ), #857, .T. ) ;
#851 = ORIENTED_EDGE ( 'NONE', *, *, #669, .T. ) ;
#852 = VECTOR ( 'NONE', #407, 1000.000000000000000 ) ;
#853 = ORIENTED_EDGE ( 'NONE', *, *, #845, .T. ) ;
#854 = CARTESIAN_POINT ( 'NONE',  ( -122.2633999999999901, 98.00000000000000000, 110.0000000000003268 ) ) ;
#855 = ORIENTED_EDGE ( 'NONE', *, *, #416, .F. ) ;
#856 = AXIS2_PLACEMENT_3D ( 'NONE', #307, #302, #657 ) ;
#857 = PLANE ( 'NONE',  #425 ) ;
#858 = PLANE ( 'NONE',  #446 ) ;
#859 = AXIS2_PLACEMENT_3D ( 'NONE', #453, #367, #900 ) ;
#860 = EDGE_LOOP ( 'NONE', ( #84, #356, #745, #570 ) ) ;
#861 = EDGE_CURVE ( 'NONE', #82, #1130, #958, .T. ) ;
#862 = CARTESIAN_POINT ( 'NONE',  ( 122.2633999999999617, 0.7366000000000126890, -107.2634000000000043 ) ) ;
#863 = PLANE ( 'NONE',  #600 ) ;
#864 = ADVANCED_FACE ( 'NONE', ( #164 ), #519, .T. ) ;
#865 = ORIENTED_EDGE ( 'NONE', *, *, #20, .F. ) ;
#866 = DIRECTION ( 'NONE',  ( -2.134825977021522402E-31, -6.123233995736766036E-17, -1.000000000000000000 ) ) ;
#867 = VECTOR ( 'NONE', #27, 1000.000000000000000 ) ;
#868 = AXIS2_PLACEMENT_3D ( 'NONE', #979, #530, #450 ) ;
#869 = ADVANCED_FACE ( 'NONE', ( #787 ), #139, .T. ) ;
#870 = VERTEX_POINT ( 'NONE', #790 ) ;
#871 = PLANE ( 'NONE',  #319 ) ;
#872 = DIRECTION ( 'NONE',  ( -3.491481338843133355E-15, 1.000000000000000000, 0.000000000000000000 ) ) ;
#873 = VERTEX_POINT ( 'NONE', #707 ) ;
#874 = CARTESIAN_POINT ( 'NONE',  ( -122.2633999999999901, 98.00000000000001421, -108.0000000000000142 ) ) ;
#875 = EDGE_CURVE ( 'NONE', #79, #644, #354, .T. ) ;
#876 = ORIENTED_EDGE ( 'NONE', *, *, #753, .T. ) ;
#877 = ORIENTED_EDGE ( 'NONE', *, *, #753, .F. ) ;
#878 = CARTESIAN_POINT ( 'NONE',  ( -122.2633999999999901, 0.7366000000000039183, 110.0000000000003268 ) ) ;
#879 = ORIENTED_EDGE ( 'NONE', *, *, #243, .T. ) ;
#880 = ORIENTED_EDGE ( 'NONE', *, *, #1066, .F. ) ;
#881 = FACE_OUTER_BOUND ( 'NONE', #145, .T. ) ;
#882 = DIRECTION ( 'NONE',  ( 1.000000000000000000, -0.000000000000000000, -0.000000000000000000 ) ) ;
#883 = CIRCLE ( 'NONE', #390, 2.736600000000005473 ) ;
#884 = ORIENTED_EDGE ( 'NONE', *, *, #98, .F. ) ;
#885 = ORIENTED_EDGE ( 'NONE', *, *, #34, .F. ) ;
#886 = DIRECTION ( 'NONE',  ( 0.000000000000000000, -3.491481338843133355E-15, 1.000000000000000000 ) ) ;
#887 = ADVANCED_BREP_SHAPE_REPRESENTATION ( '收集装置', ( #640, #1147 ), #103 ) ;
#888 = ORIENTED_EDGE ( 'NONE', *, *, #936, .F. ) ;
#889 = VECTOR ( 'NONE', #975, 1000.000000000000000 ) ;
#890 = EDGE_LOOP ( 'NONE', ( #529, #591, #337, #853 ) ) ;
#891 = CARTESIAN_POINT ( 'NONE',  ( -3.927399978577433340E-30, 98.00000000000001421, 108.0000000000003268 ) ) ;
#892 = EDGE_CURVE ( 'NONE', #956, #644, #13, .T. ) ;
#893 = DIRECTION ( 'NONE',  ( 1.000000000000000000, -0.000000000000000000, -0.000000000000000000 ) ) ;
#894 = PRODUCT_DEFINITION ( '未知', '', #240, #246 ) ;
#895 = CARTESIAN_POINT ( 'NONE',  ( 122.2633999999999617, 0.7366000000000126890, -107.2634000000000043 ) ) ;
#896 = EDGE_LOOP ( 'NONE', ( #490, #37, #518, #230 ) ) ;
#897 = LINE ( 'NONE', #283, #335 ) ;
#898 = CARTESIAN_POINT ( 'NONE',  ( -122.2633999999999901, 0.000000000000000000, -108.0000000000000142 ) ) ;
#899 = CARTESIAN_POINT ( 'NONE',  ( -122.2633999999999901, 0.7366000000000126890, -107.2634000000000043 ) ) ;
#900 = DIRECTION ( 'NONE',  ( 3.398641912117825677E-15, -1.000000000000000000, 0.000000000000000000 ) ) ;
#901 = AXIS2_PLACEMENT_3D ( 'NONE', #594, #65, #1042 ) ;
#902 = CARTESIAN_POINT ( 'NONE',  ( 0.000000000000000000, 0.000000000000000000, -110.0000000000000142 ) ) ;
#903 = VECTOR ( 'NONE', #507, 1000.000000000000000 ) ;
#904 = ORIENTED_EDGE ( 'NONE', *, *, #368, .F. ) ;
#905 = CYLINDRICAL_SURFACE ( 'NONE', #677, 0.7366000000000039183 ) ;
#906 = CARTESIAN_POINT ( 'NONE',  ( -125.0000000000003268, 98.00000000000000000, 109.9999999999999858 ) ) ;
#907 = DIRECTION ( 'NONE',  ( 0.000000000000000000, -1.000000000000000000, 0.000000000000000000 ) ) ;
#908 = ADVANCED_FACE ( 'NONE', ( #881 ), #545, .F. ) ;
#909 = CARTESIAN_POINT ( 'NONE',  ( 122.2633999999999617, -1.999999999999990452, -110.0000000000000142 ) ) ;
#910 = EDGE_CURVE ( 'NONE', #190, #1101, #175, .T. ) ;
#911 = ORIENTED_EDGE ( 'NONE', *, *, #892, .F. ) ;
#912 = DIRECTION ( 'NONE',  ( -0.000000000000000000, -0.000000000000000000, 1.000000000000000000 ) ) ;
#913 = CARTESIAN_POINT ( 'NONE',  ( 124.9999999999999858, -3.894277190968340777E-13, 107.9999999999999858 ) ) ;
#914 = DIRECTION ( 'NONE',  ( 0.000000000000000000, 0.000000000000000000, 1.000000000000000000 ) ) ;
#915 = VECTOR ( 'NONE', #555, 1000.000000000000000 ) ;
#916 = CARTESIAN_POINT ( 'NONE',  ( -122.2633999999999901, -1.999999999999997335, 109.9999999999999858 ) ) ;
#917 = DIRECTION ( 'NONE',  ( 0.000000000000000000, 0.000000000000000000, -1.000000000000000000 ) ) ;
#918 = LINE ( 'NONE', #117, #296 ) ;
#919 = FACE_OUTER_BOUND ( 'NONE', #412, .T. ) ;
#920 = PLANE ( 'NONE',  #165 ) ;
#921 = FACE_OUTER_BOUND ( 'NONE', #1079, .T. ) ;
#922 = AXIS2_PLACEMENT_3D ( 'NONE', #338, #866, #330 ) ;
#923 = ORIENTED_EDGE ( 'NONE', *, *, #779, .T. ) ;
#924 = AXIS2_PLACEMENT_3D ( 'NONE', #815, #270, #886 ) ;
#925 = LINE ( 'NONE', #653, #1024 ) ;
#926 = CARTESIAN_POINT ( 'NONE',  ( 125.0000000000003268, 98.00000000000000000, 107.2633999999999759 ) ) ;
#927 = DIRECTION ( 'NONE',  ( 0.000000000000000000, 1.000000000000000000, 0.000000000000000000 ) ) ;
#928 = ORIENTED_EDGE ( 'NONE', *, *, #791, .F. ) ;
#929 = AXIS2_PLACEMENT_3D ( 'NONE', #540, #804, #724 ) ;
#930 = FACE_OUTER_BOUND ( 'NONE', #315, .T. ) ;
#931 = CARTESIAN_POINT ( 'NONE',  ( -122.2633999999999901, 8.782037597132585915E-15, -107.2634000000000043 ) ) ;
#932 = DIRECTION ( 'NONE',  ( -1.000000000000000000, -0.000000000000000000, -0.000000000000000000 ) ) ;
#933 = AXIS2_PLACEMENT_3D ( 'NONE', #902, #97, #1007 ) ;
#934 = ORIENTED_EDGE ( 'NONE', *, *, #665, .F. ) ;
#935 = AXIS2_PLACEMENT_3D ( 'NONE', #284, #1005, #632 ) ;
#936 = EDGE_CURVE ( 'NONE', #827, #688, #1144, .T. ) ;
#937 = ADVANCED_FACE ( 'NONE', ( #1082 ), #377, .T. ) ;
#938 = ORIENTED_EDGE ( 'NONE', *, *, #35, .F. ) ;
#939 = CARTESIAN_POINT ( 'NONE',  ( -122.2633999999999901, -1.999999999999997335, 109.9999999999999858 ) ) ;
#940 = CYLINDRICAL_SURFACE ( 'NONE', #901, 0.7366000000000039183 ) ;
#941 = CARTESIAN_POINT ( 'NONE',  ( -122.2633999999999901, -3.894277190968340777E-13, 107.9999999999999858 ) ) ;
#942 = VERTEX_POINT ( 'NONE', #719 ) ;
#943 = VECTOR ( 'NONE', #1088, 1000.000000000000000 ) ;
#944 = DIRECTION ( 'NONE',  ( -1.000000000000000000, 0.000000000000000000, 0.000000000000000000 ) ) ;
#945 = ORIENTED_EDGE ( 'NONE', *, *, #403, .T. ) ;
#946 = DIRECTION ( 'NONE',  ( 0.000000000000000000, -1.000000000000000000, -3.540251991789401517E-15 ) ) ;
#947 = CARTESIAN_POINT ( 'NONE',  ( 122.2633999999999617, 0.7366000000000134662, 107.2633999999999759 ) ) ;
#948 = EDGE_CURVE ( 'NONE', #1061, #1023, #897, .T. ) ;
#949 = ORIENTED_EDGE ( 'NONE', *, *, #1151, .F. ) ;
#950 = COLOUR_RGB ( '',1.000000000000000000, 1.000000000000000000, 1.000000000000000000 ) ;
#951 = ADVANCED_FACE ( 'NONE', ( #630 ), #807, .F. ) ;
#952 = DIRECTION ( 'NONE',  ( 0.000000000000000000, 0.000000000000000000, 1.000000000000000000 ) ) ;
#953 = ORIENTED_EDGE ( 'NONE', *, *, #814, .T. ) ;
#954 = VECTOR ( 'NONE', #585, 1000.000000000000000 ) ;
#955 = CARTESIAN_POINT ( 'NONE',  ( -122.2633999999999901, 2.493664996716660198E-15, -110.0000000000000142 ) ) ;
#956 = VERTEX_POINT ( 'NONE', #456 ) ;
#957 = EDGE_CURVE ( 'NONE', #467, #768, #698, .T. ) ;
#958 = LINE ( 'NONE', #1124, #903 ) ;
#959 = CARTESIAN_POINT ( 'NONE',  ( 124.9999999999999716, 0.000000000000000000, 107.2633999999999759 ) ) ;
#960 = EDGE_LOOP ( 'NONE', ( #580, #421, #934, #132 ) ) ;
#961 = LINE ( 'NONE', #231, #567 ) ;
#962 = VECTOR ( 'NONE', #1156, 1000.000000000000000 ) ;
#963 = ADVANCED_FACE ( 'NONE', ( #1076 ), #435, .T. ) ;
#964 = CIRCLE ( 'NONE', #8, 0.7366000000000039183 ) ;
#965 = ORIENTED_EDGE ( 'NONE', *, *, #1151, .T. ) ;
#966 = FACE_OUTER_BOUND ( 'NONE', #48, .T. ) ;
#967 = DIRECTION ( 'NONE',  ( 0.000000000000000000, 0.000000000000000000, 1.000000000000000000 ) ) ;
#968 = EDGE_CURVE ( 'NONE', #1061, #1101, #264, .T. ) ;
#969 = ORIENTED_EDGE ( 'NONE', *, *, #35, .T. ) ;
#970 = EDGE_LOOP ( 'NONE', ( #718, #468, #1139, #635 ) ) ;
#971 = CARTESIAN_POINT ( 'NONE',  ( -3.927399978577433340E-30, -3.894277190968340777E-13, 107.9999999999999858 ) ) ;
#972 = CARTESIAN_POINT ( 'NONE',  ( 124.9999999999999858, -6.982962677686254878E-15, 109.9999999999999858 ) ) ;
#973 = VECTOR ( 'NONE', #379, 1000.000000000000000 ) ;
#974 = EDGE_LOOP ( 'NONE', ( #320, #949, #573, #17, #433, #287 ) ) ;
#975 = DIRECTION ( 'NONE',  ( 1.000000000000000000, -0.000000000000000000, 3.570363616888576540E-32 ) ) ;
#976 = CARTESIAN_POINT ( 'NONE',  ( -122.2633999999999901, 0.000000000000000000, 107.2633999999999759 ) ) ;
#977 = DIRECTION ( 'NONE',  ( 1.000000000000000000, 0.000000000000000000, -0.000000000000000000 ) ) ;
#978 = ORIENTED_EDGE ( 'NONE', *, *, #131, .T. ) ;
#979 = CARTESIAN_POINT ( 'NONE',  ( -122.2633999999999901, 0.7366000000000039183, 107.2633999999999759 ) ) ;
#980 = AXIS2_PLACEMENT_3D ( 'NONE', #392, #1100, #995 ) ;
#981 = AXIS2_PLACEMENT_3D ( 'NONE', #371, #364, #620 ) ;
#982 = ADVANCED_FACE ( 'NONE', ( #87 ), #277, .F. ) ;
#983 = CARTESIAN_POINT ( 'NONE',  ( 124.9999999999999716, 0.000000000000000000, 107.2633999999999759 ) ) ;
#984 = ORIENTED_EDGE ( 'NONE', *, *, #156, .T. ) ;
#985 = ORIENTED_EDGE ( 'NONE', *, *, #1138, .F. ) ;
#986 = ORIENTED_EDGE ( 'NONE', *, *, #548, .F. ) ;
#987 = CARTESIAN_POINT ( 'NONE',  ( 124.9999999999999716, 0.7366000000000039183, 107.2633999999999759 ) ) ;
#988 = ADVANCED_FACE ( 'NONE', ( #361 ), #83, .T. ) ;
#989 = CARTESIAN_POINT ( 'NONE',  ( 122.9999999999999858, 0.7366000000000177961, -110.0000000000000142 ) ) ;
#990 = FACE_OUTER_BOUND ( 'NONE', #1033, .T. ) ;
#991 = VERTEX_POINT ( 'NONE', #615 ) ;
#992 = CYLINDRICAL_SURFACE ( 'NONE', #219, 2.736600000000005473 ) ;
#993 = CARTESIAN_POINT ( 'NONE',  ( 122.9999999999999716, 0.7366000000000108017, 107.2633999999999759 ) ) ;
#994 = DIRECTION ( 'NONE',  ( -1.000000000000000000, 0.000000000000000000, 0.000000000000000000 ) ) ;
#995 = DIRECTION ( 'NONE',  ( -1.000000000000000000, 0.000000000000000000, 0.000000000000000000 ) ) ;
#996 = DIRECTION ( 'NONE',  ( -1.000000000000000000, 0.000000000000000000, -0.000000000000000000 ) ) ;
#997 = EDGE_CURVE ( 'NONE', #623, #478, #63, .T. ) ;
#998 = LINE ( 'NONE', #546, #205 ) ;
#999 = ADVANCED_FACE ( 'NONE', ( #5 ), #992, .T. ) ;
#1000 = DIRECTION ( 'NONE',  ( -0.000000000000000000, -0.000000000000000000, -1.000000000000000000 ) ) ;
#1001 = LINE ( 'NONE', #1092, #1158 ) ;
#1002 = ORIENTED_EDGE ( 'NONE', *, *, #382, .F. ) ;
#1003 = DIRECTION ( 'NONE',  ( 0.000000000000000000, 0.000000000000000000, -1.000000000000000000 ) ) ;
#1004 = SURFACE_STYLE_USAGE ( .BOTH. , #491 ) ;
#1005 = DIRECTION ( 'NONE',  ( 1.000000000000000000, -1.246585794125093943E-46, 3.521178144991350616E-32 ) ) ;
#1006 = CARTESIAN_POINT ( 'NONE',  ( -122.2633999999999901, 0.7366000000000126890, -107.2634000000000043 ) ) ;
#1007 = DIRECTION ( 'NONE',  ( -1.000000000000000000, 0.000000000000000000, 0.000000000000000000 ) ) ;
#1008 = DIRECTION ( 'NONE',  ( -1.000000000000000000, 0.000000000000000000, -6.387540564961450982E-17 ) ) ;
#1009 = VECTOR ( 'NONE', #1015, 1000.000000000000000 ) ;
#1010 = VECTOR ( 'NONE', #553, 1000.000000000000000 ) ;
#1011 = FACE_OUTER_BOUND ( 'NONE', #662, .T. ) ;
#1012 = DIRECTION ( 'NONE',  ( -0.000000000000000000, -1.000000000000000000, -0.000000000000000000 ) ) ;
#1013 = DIRECTION ( 'NONE',  ( 6.387540564961450982E-17, 2.230197868366643873E-31, -1.000000000000000000 ) ) ;
#1014 = PLANE ( 'NONE',  #859 ) ;
#1015 = DIRECTION ( 'NONE',  ( 0.000000000000000000, 0.000000000000000000, 1.000000000000000000 ) ) ;
#1016 = EDGE_CURVE ( 'NONE', #623, #670, #1118, .T. ) ;
#1017 = VERTEX_POINT ( 'NONE', #1087 ) ;
#1018 = CARTESIAN_POINT ( 'NONE',  ( -122.2633999999999901, 0.7366000000000063608, 109.9999999999999858 ) ) ;
#1019 = LINE ( 'NONE', #59, #1091 ) ;
#1020 = ORIENTED_EDGE ( 'NONE', *, *, #699, .T. ) ;
#1021 = CARTESIAN_POINT ( 'NONE',  ( 122.2633999999999617, 0.7366000000000134662, -110.0000000000000142 ) ) ;
#1022 = VECTOR ( 'NONE', #927, 1000.000000000000000 ) ;
#1023 = VERTEX_POINT ( 'NONE', #226 ) ;
#1024 = VECTOR ( 'NONE', #551, 1000.000000000000000 ) ;
#1025 = FACE_OUTER_BOUND ( 'NONE', #449, .T. ) ;
#1026 = EDGE_CURVE ( 'NONE', #1075, #251, #925, .T. ) ;
#1027 = SURFACE_STYLE_FILL_AREA ( #1119 ) ;
#1028 = ORIENTED_EDGE ( 'NONE', *, *, #1056, .F. ) ;
#1029 = ADVANCED_FACE ( 'NONE', ( #836 ), #841, .T. ) ;
#1030 = ORIENTED_EDGE ( 'NONE', *, *, #1050, .T. ) ;
#1031 = CARTESIAN_POINT ( 'NONE',  ( -123.0000000000000000, 0.7366000000000039183, 109.9999999999999858 ) ) ;
#1032 = ORIENTED_EDGE ( 'NONE', *, *, #278, .F. ) ;
#1033 = EDGE_LOOP ( 'NONE', ( #636, #1108, #107, #520 ) ) ;
#1034 = CARTESIAN_POINT ( 'NONE',  ( -122.2633999999999901, 0.7366000000000039183, 107.2633999999999759 ) ) ;
#1035 = ORIENTED_EDGE ( 'NONE', *, *, #166, .T. ) ;
#1036 = ADVANCED_FACE ( 'NONE', ( #557 ), #905, .F. ) ;
#1037 = DIRECTION ( 'NONE',  ( 1.000000000000000000, 0.000000000000000000, 0.000000000000000000 ) ) ;
#1038 = ORIENTED_EDGE ( 'NONE', *, *, #305, .F. ) ;
#1039 = AXIS2_PLACEMENT_3D ( 'NONE', #737, #757, #849 ) ;
#1040 = VECTOR ( 'NONE', #496, 1000.000000000000000 ) ;
#1041 = CARTESIAN_POINT ( 'NONE',  ( 124.9999999999999716, 0.7366000000000039183, 107.2633999999999759 ) ) ;
#1042 = DIRECTION ( 'NONE',  ( 1.000000000000000000, -3.532562060772735386E-15, 0.000000000000000000 ) ) ;
#1043 = FACE_OUTER_BOUND ( 'NONE', #970, .T. ) ;
#1044 = ORIENTED_EDGE ( 'NONE', *, *, #521, .T. ) ;
#1045 = CARTESIAN_POINT ( 'NONE',  ( -122.2633999999999901, 0.7366000000000063608, -110.0000000000000142 ) ) ;
#1046 = VECTOR ( 'NONE', #723, 1000.000000000000000 ) ;
#1047 = CIRCLE ( 'NONE', #15, 2.736600000000005473 ) ;
#1048 = ORIENTED_EDGE ( 'NONE', *, *, #75, .T. ) ;
#1049 = PRODUCT_CONTEXT ( 'NONE', #345, 'mechanical' ) ;
#1050 = EDGE_CURVE ( 'NONE', #505, #1061, #964, .T. ) ;
#1051 = ORIENTED_EDGE ( 'NONE', *, *, #691, .T. ) ;
#1052 = CARTESIAN_POINT ( 'NONE',  ( -122.2633999999999901, 98.00000000000001421, -110.0000000000000142 ) ) ;
#1053 = EDGE_LOOP ( 'NONE', ( #167, #1051, #685, #363, #679, #1030, #550, #1044 ) ) ;
#1054 = PLANE ( 'NONE',  #922 ) ;
#1055 = VECTOR ( 'NONE', #470, 1000.000000000000000 ) ;
#1056 = EDGE_CURVE ( 'NONE', #91, #587, #388, .T. ) ;
#1057 = ORIENTED_EDGE ( 'NONE', *, *, #131, .F. ) ;
#1058 = DIRECTION ( 'NONE',  ( 0.000000000000000000, -1.000000000000000000, 0.000000000000000000 ) ) ;
#1059 = CLOSED_SHELL ( 'NONE', ( #66, #937, #963, #598, #789, #1, #241, #982, #999, #1036, #1153, #869, #291, #508, #513, #1029, #828, #366, #951, #118, #185, #187, #515, #988, #257, #531, #651, #558, #1123, #720, #1081, #618, #110, #850, #229, #864, #258, #68, #624, #321, #908, #740 ) ) ;
#1060 = AXIS2_PLACEMENT_3D ( 'NONE', #90, #536, #641 ) ;
#1061 = VERTEX_POINT ( 'NONE', #479 ) ;
#1062 = EDGE_LOOP ( 'NONE', ( #717, #561, #1134, #1154 ) ) ;
#1063 = CARTESIAN_POINT ( 'NONE',  ( 122.2633999999999617, 0.7366000000000316739, -110.0000000000006963 ) ) ;
#1064 = DIRECTION ( 'NONE',  ( 1.000000000000000000, -1.246585794125093943E-46, 3.570363616888576540E-32 ) ) ;
#1065 = EDGE_CURVE ( 'NONE', #228, #74, #383, .T. ) ;
#1066 = EDGE_CURVE ( 'NONE', #57, #141, #398, .T. ) ;
#1067 = DIRECTION ( 'NONE',  ( -0.000000000000000000, 0.000000000000000000, -1.000000000000000000 ) ) ;
#1068 = DIRECTION ( 'NONE',  ( 1.000000000000000000, 0.000000000000000000, 0.000000000000000000 ) ) ;
#1069 = DIRECTION ( 'NONE',  ( 3.398641912117825677E-15, -1.000000000000000000, -0.000000000000000000 ) ) ;
#1070 = VECTOR ( 'NONE', #967, 1000.000000000000000 ) ;
#1071 = LINE ( 'NONE', #1089, #1010 ) ;
#1072 = VECTOR ( 'NONE', #704, 1000.000000000000000 ) ;
#1073 = DIRECTION ( 'NONE',  ( -1.000000000000000000, 0.000000000000000000, 0.000000000000000000 ) ) ;
#1074 = ORIENTED_EDGE ( 'NONE', *, *, #631, .F. ) ;
#1075 = VERTEX_POINT ( 'NONE', #571 ) ;
#1076 = FACE_OUTER_BOUND ( 'NONE', #393, .T. ) ;
#1077 = DIRECTION ( 'NONE',  ( 3.491481338843133355E-15, 1.000000000000000000, 4.460395736733286871E-31 ) ) ;
#1078 = LINE ( 'NONE', #299, #1022 ) ;
#1079 = EDGE_LOOP ( 'NONE', ( #1146, #978, #865, #346 ) ) ;
#1080 = ORIENTED_EDGE ( 'NONE', *, *, #434, .T. ) ;
#1081 = ADVANCED_FACE ( 'NONE', ( #755 ), #102, .T. ) ;
#1082 = FACE_OUTER_BOUND ( 'NONE', #242, .T. ) ;
#1083 = DIRECTION ( 'NONE',  ( 0.000000000000000000, 0.000000000000000000, 1.000000000000000000 ) ) ;
#1084 = FACE_OUTER_BOUND ( 'NONE', #1093, .T. ) ;
#1085 = LINE ( 'NONE', #742, #915 ) ;
#1086 = ORIENTED_EDGE ( 'NONE', *, *, #665, .T. ) ;
#1087 = CARTESIAN_POINT ( 'NONE',  ( -122.2633999999999901, -1.999999999999997335, -110.0000000000000142 ) ) ;
#1088 = DIRECTION ( 'NONE',  ( 1.000000000000000000, -1.246585794125093943E-46, 3.570363616888576540E-32 ) ) ;
#1089 = CARTESIAN_POINT ( 'NONE',  ( -122.2633999999999901, 98.00000000000001421, -110.0000000000000142 ) ) ;
#1090 = LINE ( 'NONE', #29, #721 ) ;
#1091 = VECTOR ( 'NONE', #952, 1000.000000000000000 ) ;
#1092 = CARTESIAN_POINT ( 'NONE',  ( -122.2633999999999901, 2.493664996716660198E-15, 109.9999999999999858 ) ) ;
#1093 = EDGE_LOOP ( 'NONE', ( #485, #611, #880, #1126 ) ) ;
#1094 = CARTESIAN_POINT ( 'NONE',  ( 123.0000000000003126, 98.00000000000001421, 7.856674894902626789E-15 ) ) ;
#1095 = CARTESIAN_POINT ( 'NONE',  ( 122.2633999999999617, -1.999999999999990452, -110.0000000000000142 ) ) ;
#1096 = CARTESIAN_POINT ( 'NONE',  ( 122.2633999999999617, 0.000000000000000000, 107.2633999999999759 ) ) ;
#1097 = FACE_OUTER_BOUND ( 'NONE', #381, .T. ) ;
#1098 = MECHANICAL_DESIGN_GEOMETRIC_PRESENTATION_REPRESENTATION (  '', ( #439 ), #643 ) ;
#1099 = DIRECTION ( 'NONE',  ( -1.000000000000000000, 0.000000000000000000, -0.000000000000000000 ) ) ;
#1100 = DIRECTION ( 'NONE',  ( 0.000000000000000000, 0.000000000000000000, 1.000000000000000000 ) ) ;
#1101 = VERTEX_POINT ( 'NONE', #1031 ) ;
#1102 = VECTOR ( 'NONE', #28, 1000.000000000000000 ) ;
#1103 = PLANE ( 'NONE',  #604 ) ;
#1104 = CIRCLE ( 'NONE', #746, 2.736600000000005473 ) ;
#1105 = DIRECTION ( 'NONE',  ( -6.387540564961450982E-17, 2.170896307943075781E-31, 1.000000000000000000 ) ) ;
#1106 = LINE ( 'NONE', #483, #352 ) ;
#1107 = EDGE_CURVE ( 'NONE', #249, #82, #394, .T. ) ;
#1108 = ORIENTED_EDGE ( 'NONE', *, *, #419, .T. ) ;
#1109 = DIRECTION ( 'NONE',  ( 0.000000000000000000, 5.348508853524183261E-15, 1.000000000000000000 ) ) ;
#1110 = EDGE_CURVE ( 'NONE', #820, #265, #259, .T. ) ;
#1111 = LINE ( 'NONE', #913, #584 ) ;
#1112 = LINE ( 'NONE', #309, #710 ) ;
#1113 = ORIENTED_EDGE ( 'NONE', *, *, #406, .F. ) ;
#1114 = DIRECTION ( 'NONE',  ( -3.521178144991350616E-32, 0.000000000000000000, 1.000000000000000000 ) ) ;
#1115 = VECTOR ( 'NONE', #155, 1000.000000000000000 ) ;
#1116 = ORIENTED_EDGE ( 'NONE', *, *, #206, .T. ) ;
#1117 = AXIS2_PLACEMENT_3D ( 'NONE', #316, #19, #198 ) ;
#1118 = LINE ( 'NONE', #821, #372 ) ;
#1119 = FILL_AREA_STYLE ('',( #215 ) ) ;
#1120 = VERTEX_POINT ( 'NONE', #563 ) ;
#1121 = ORIENTED_EDGE ( 'NONE', *, *, #778, .F. ) ;
#1122 = APPLICATION_PROTOCOL_DEFINITION ( 'draft international standard', 'automotive_design', 1998, #359 ) ;
#1123 = ADVANCED_FACE ( 'NONE', ( #1025 ), #1103, .T. ) ;
#1124 = CARTESIAN_POINT ( 'NONE',  ( 122.9999999999999858, -4.425314989736751411E-13, -110.0000000000000142 ) ) ;
#1125 = FACE_OUTER_BOUND ( 'NONE', #860, .T. ) ;
#1126 = ORIENTED_EDGE ( 'NONE', *, *, #434, .F. ) ;
#1127 = ORIENTED_EDGE ( 'NONE', *, *, #447, .F. ) ;
#1128 = SHAPE_DEFINITION_REPRESENTATION ( #341, #887 ) ;
#1129 = DIRECTION ( 'NONE',  ( -1.000000000000000000, -0.000000000000000000, -0.000000000000000000 ) ) ;
#1130 = VERTEX_POINT ( 'NONE', #743 ) ;
#1131 =( NAMED_UNIT ( * ) SI_UNIT ( $, .STERADIAN. ) SOLID_ANGLE_UNIT ( ) );
#1132 = ORIENTED_EDGE ( 'NONE', *, *, #649, .T. ) ;
#1133 = LINE ( 'NONE', #417, #234 ) ;
#1134 = ORIENTED_EDGE ( 'NONE', *, *, #10, .T. ) ;
#1135 = CARTESIAN_POINT ( 'NONE',  ( 122.2633999999999617, 9.540979117872439019E-15, -110.0000000000000142 ) ) ;
#1136 = PRODUCT_RELATED_PRODUCT_CATEGORY ( 'part', '', ( #135 ) ) ;
#1137 = ORIENTED_EDGE ( 'NONE', *, *, #157, .F. ) ;
#1138 = EDGE_CURVE ( 'NONE', #141, #549, #208, .T. ) ;
#1139 = ORIENTED_EDGE ( 'NONE', *, *, #631, .T. ) ;
#1140 = CARTESIAN_POINT ( 'NONE',  ( 124.9999999999999716, -6.982962677686217801E-15, -110.0000000000000142 ) ) ;
#1141 = EDGE_CURVE ( 'NONE', #67, #1120, #918, .T. ) ;
#1142 = ORIENTED_EDGE ( 'NONE', *, *, #738, .F. ) ;
#1143 = DIRECTION ( 'NONE',  ( 0.000000000000000000, 0.000000000000000000, 1.000000000000000000 ) ) ;
#1144 = LINE ( 'NONE', #891, #712 ) ;
#1145 = VECTOR ( 'NONE', #322, 1000.000000000000000 ) ;
#1146 = ORIENTED_EDGE ( 'NONE', *, *, #445, .F. ) ;
#1148 = FACE_OUTER_BOUND ( 'NONE', #748, .T. ) ;
#1147 = AXIS2_PLACEMENT_3D ( 'NONE', #248, #675, #596 ) ;
#1149 = ORIENTED_EDGE ( 'NONE', *, *, #203, .T. ) ;
#1150 = DIRECTION ( 'NONE',  ( -0.000000000000000000, 0.000000000000000000, 1.000000000000000000 ) ) ;
#1151 = EDGE_CURVE ( 'NONE', #1120, #247, #797, .T. ) ;
#1152 = CIRCLE ( 'NONE', #262, 0.7366000000000039183 ) ;
#1153 = ADVANCED_FACE ( 'NONE', ( #930 ), #871, .T. ) ;
#1154 = ORIENTED_EDGE ( 'NONE', *, *, #910, .T. ) ;
#1155 = VECTOR ( 'NONE', #473, 1000.000000000000000 ) ;
#1156 = DIRECTION ( 'NONE',  ( 0.000000000000000000, -1.000000000000000000, 0.000000000000000000 ) ) ;
#1157 = CARTESIAN_POINT ( 'NONE',  ( 122.2633999999999617, 8.782037597132585915E-15, -107.2634000000000043 ) ) ;
#1158 = VECTOR ( 'NONE', #917, 1000.000000000000000 ) ;
ENDSEC;
END-ISO-10303-21;
