ISO-10303-21;
HEADER;
FILE_DESCRIPTION (( 'STEP AP214' ),
    '1' );
FILE_NAME ('À…Õ¡≤˘µ∂πÃ∂®.step',
    '2023-08-15T03:00:53',
    ( '' ),
    ( '' ),
    'SwSTEP 2.0',
    'SolidWorks 2022',
    '' );
FILE_SCHEMA (( 'AUTOMOTIVE_DESIGN' ));
ENDSEC;

DATA;
#1 = LINE ( 'NONE', #340, #410 ) ;
#2 =( NAMED_UNIT ( * ) SI_UNIT ( $, .STERADIAN. ) SOLID_ANGLE_UNIT ( ) );
#3 = EDGE_CURVE ( 'NONE', #56, #473, #361, .T. ) ;
#4 = CARTESIAN_POINT ( 'NONE',  ( -30.00000000000000000, 0.000000000000000000, -10.00000000000000000 ) ) ;
#5 = AXIS2_PLACEMENT_3D ( 'NONE', #80, #82, #344 ) ;
#6 = CARTESIAN_POINT ( 'NONE',  ( -30.00000000000000000, 0.000000000000000000, 10.00000000000000000 ) ) ;
#7 = VECTOR ( 'NONE', #323, 1000.000000000000000 ) ;
#8 = CARTESIAN_POINT ( 'NONE',  ( 1.224646799147353256E-15, 10.00000000000000000, -10.00000000000000000 ) ) ;
#9 = CARTESIAN_POINT ( 'NONE',  ( -25.96077405476660616, 3.704449067740299473, 10.00000000000000000 ) ) ;
#10 = EDGE_CURVE ( 'NONE', #358, #288, #265, .T. ) ;
#11 = ORIENTED_EDGE ( 'NONE', *, *, #124, .T. ) ;
#12 =( NAMED_UNIT ( * ) PLANE_ANGLE_UNIT ( ) SI_UNIT ( $, .RADIAN. ) );
#13 = PLANE ( 'NONE',  #24 ) ;
#14 = ORIENTED_EDGE ( 'NONE', *, *, #3, .F. ) ;
#15 = LINE ( 'NONE', #20, #137 ) ;
#16 = VECTOR ( 'NONE', #27, 1000.000000000000000 ) ;
#17 = VERTEX_POINT ( 'NONE', #118 ) ;
#18 = DIRECTION ( 'NONE',  ( -1.000000000000000000, 0.000000000000000000, 0.000000000000000000 ) ) ;
#19 = PRODUCT_DEFINITION ( 'Œ¥÷™', '', #131, #312 ) ;
#20 = CARTESIAN_POINT ( 'NONE',  ( 1.224646799147353256E-15, -10.00000000000000000, 10.00000000000000000 ) ) ;
#21 = CIRCLE ( 'NONE', #73, 5.000000000000000888 ) ;
#22 = ORIENTED_EDGE ( 'NONE', *, *, #306, .F. ) ;
#23 = CARTESIAN_POINT ( 'NONE',  ( -27.50000000000000000, 3.061616997868381662E-16, 10.00000000000000000 ) ) ;
#24 = AXIS2_PLACEMENT_3D ( 'NONE', #98, #423, #49 ) ;
#25 = ADVANCED_FACE ( 'NONE', ( #199 ), #414, .F. ) ;
#26 = ORIENTED_EDGE ( 'NONE', *, *, #424, .F. ) ;
#27 = DIRECTION ( 'NONE',  ( -0.000000000000000000, -0.000000000000000000, -1.000000000000000000 ) ) ;
#28 = ORIENTED_EDGE ( 'NONE', *, *, #348, .T. ) ;
#29 = CARTESIAN_POINT ( 'NONE',  ( -1.999999999999998668, 7.644286286171885436, -10.00000000000000000 ) ) ;
#30 = ORIENTED_EDGE ( 'NONE', *, *, #155, .T. ) ;
#31 = LINE ( 'NONE', #443, #395 ) ;
#32 = VERTEX_POINT ( 'NONE', #112 ) ;
#33 = AXIS2_PLACEMENT_3D ( 'NONE', #293, #106, #260 ) ;
#34 = UNCERTAINTY_MEASURE_WITH_UNIT (LENGTH_MEASURE( 1.000000000000000082E-05 ), #231, 'distance_accuracy_value', 'NONE');
#35 = EDGE_CURVE ( 'NONE', #471, #444, #342, .T. ) ;
#36 = ORIENTED_EDGE ( 'NONE', *, *, #400, .T. ) ;
#37 = CARTESIAN_POINT ( 'NONE',  ( 1.224646799147353256E-15, -10.00000000000000000, -10.00000000000000000 ) ) ;
#38 = VECTOR ( 'NONE', #233, 1000.000000000000227 ) ;
#39 = DIRECTION ( 'NONE',  ( 0.000000000000000000, 0.000000000000000000, 1.000000000000000000 ) ) ;
#40 = APPLICATION_CONTEXT ( 'automotive_design' ) ;
#41 = EDGE_CURVE ( 'NONE', #51, #32, #150, .T. ) ;
#42 = LINE ( 'NONE', #417, #254 ) ;
#43 = FACE_OUTER_BOUND ( 'NONE', #101, .T. ) ;
#44 = PRESENTATION_STYLE_ASSIGNMENT (( #381 ) ) ;
#45 = DIRECTION ( 'NONE',  ( 0.9867496997597597908, -0.1622498999199198377, 0.000000000000000000 ) ) ;
#46 = STYLED_ITEM ( 'NONE', ( #457 ), #171 ) ;
#47 = DIRECTION ( 'NONE',  ( 0.000000000000000000, 0.000000000000000000, 1.000000000000000000 ) ) ;
#48 = CIRCLE ( 'NONE', #386, 5.000000000000000888 ) ;
#49 = DIRECTION ( 'NONE',  ( 0.9867496997597596797, 0.1622498999199198655, 0.000000000000000000 ) ) ;
#50 = EDGE_CURVE ( 'NONE', #56, #240, #42, .T. ) ;
#51 = VERTEX_POINT ( 'NONE', #117 ) ;
#52 =( LENGTH_UNIT ( ) NAMED_UNIT ( * ) SI_UNIT ( .MILLI., .METRE. ) );
#53 = DIRECTION ( 'NONE',  ( -0.000000000000000000, -0.000000000000000000, 1.000000000000000000 ) ) ;
#54 = ORIENTED_EDGE ( 'NONE', *, *, #330, .F. ) ;
#55 = FACE_OUTER_BOUND ( 'NONE', #221, .T. ) ;
#56 = VERTEX_POINT ( 'NONE', #449 ) ;
#57 = EDGE_CURVE ( 'NONE', #444, #290, #486, .T. ) ;
#58 = FACE_OUTER_BOUND ( 'NONE', #367, .T. ) ;
#59 = ORIENTED_EDGE ( 'NONE', *, *, #168, .T. ) ;
#60 = DIRECTION ( 'NONE',  ( -0.000000000000000000, -0.000000000000000000, -1.000000000000000000 ) ) ;
#61 = DIRECTION ( 'NONE',  ( -0.9867496997597596797, -0.1622498999199198655, 0.000000000000000000 ) ) ;
#62 = ORIENTED_EDGE ( 'NONE', *, *, #41, .F. ) ;
#63 = CARTESIAN_POINT ( 'NONE',  ( -35.00000000000000000, 0.000000000000000000, -10.00000000000000000 ) ) ;
#64 = ORIENTED_EDGE ( 'NONE', *, *, #77, .F. ) ;
#65 = DIRECTION ( 'NONE',  ( 1.000000000000000000, 0.000000000000000000, 0.000000000000000000 ) ) ;
#66 = COLOUR_RGB ( '',1.000000000000000000, 1.000000000000000000, 1.000000000000000000 ) ;
#67 = ORIENTED_EDGE ( 'NONE', *, *, #337, .T. ) ;
#68 = DIRECTION ( 'NONE',  ( 0.000000000000000000, 0.000000000000000000, 1.000000000000000000 ) ) ;
#69 = AXIS2_PLACEMENT_3D ( 'NONE', #4, #376, #154 ) ;
#70 = VERTEX_POINT ( 'NONE', #116 ) ;
#71 = LINE ( 'NONE', #258, #336 ) ;
#72 = EDGE_CURVE ( 'NONE', #132, #369, #159, .T. ) ;
#73 = AXIS2_PLACEMENT_3D ( 'NONE', #6, #47, #204 ) ;
#74 = EDGE_LOOP ( 'NONE', ( #54, #279, #339, #64 ) ) ;
#75 = FACE_OUTER_BOUND ( 'NONE', #103, .T. ) ;
#76 = DIRECTION ( 'NONE',  ( -0.9867496997597596797, 0.1622498999199198655, 0.000000000000000000 ) ) ;
#77 = EDGE_CURVE ( 'NONE', #17, #261, #418, .T. ) ;
#78 = CARTESIAN_POINT ( 'NONE',  ( -30.00000000000000000, 0.000000000000000000, 10.00000000000000000 ) ) ;
#79 = SURFACE_STYLE_FILL_AREA ( #234 ) ;
#80 = CARTESIAN_POINT ( 'NONE',  ( -30.00000000000000000, 0.000000000000000000, 10.00000000000000000 ) ) ;
#81 = AXIS2_PLACEMENT_3D ( 'NONE', #255, #68, #363 ) ;
#82 = DIRECTION ( 'NONE',  ( 0.000000000000000000, 0.000000000000000000, 1.000000000000000000 ) ) ;
#83 = ADVANCED_FACE ( 'NONE', ( #272, #43, #269 ), #341, .T. ) ;
#84 = FACE_OUTER_BOUND ( 'NONE', #477, .T. ) ;
#85 = ORIENTED_EDGE ( 'NONE', *, *, #348, .F. ) ;
#86 = VECTOR ( 'NONE', #389, 1000.000000000000227 ) ;
#87 = CARTESIAN_POINT ( 'NONE',  ( -30.00000000000000000, 0.000000000000000000, -10.00000000000000000 ) ) ;
#88 = ORIENTED_EDGE ( 'NONE', *, *, #232, .T. ) ;
#89 = CARTESIAN_POINT ( 'NONE',  ( -1.999999999999998668, -7.644286286171886324, -10.00000000000000000 ) ) ;
#90 = CARTESIAN_POINT ( 'NONE',  ( -30.00000000000000000, 0.000000000000000000, 10.00000000000000000 ) ) ;
#91 = AXIS2_PLACEMENT_3D ( 'NONE', #452, #194, #267 ) ;
#92 = ADVANCED_BREP_SHAPE_REPRESENTATION ( 'À…Õ¡≤˘µ∂πÃ∂®', ( #171, #91 ), #322 ) ;
#93 = ADVANCED_FACE ( 'NONE', ( #75 ), #415, .F. ) ;
#94 = EDGE_LOOP ( 'NONE', ( #111, #185, #460, #436 ) ) ;
#95 = DIRECTION ( 'NONE',  ( 0.000000000000000000, 0.000000000000000000, 1.000000000000000000 ) ) ;
#96 = VECTOR ( 'NONE', #162, 1000.000000000000000 ) ;
#97 = VERTEX_POINT ( 'NONE', #161 ) ;
#98 = CARTESIAN_POINT ( 'NONE',  ( 1.224646799147353256E-15, 10.00000000000000000, 10.00000000000000000 ) ) ;
#99 = ORIENTED_EDGE ( 'NONE', *, *, #192, .T. ) ;
#100 = DIRECTION ( 'NONE',  ( 1.000000000000000000, 0.000000000000000000, 0.000000000000000000 ) ) ;
#101 = EDGE_LOOP ( 'NONE', ( #219, #226, #404, #243, #257 ) ) ;
#102 = LINE ( 'NONE', #23, #16 ) ;
#103 = EDGE_LOOP ( 'NONE', ( #59, #188, #463, #105 ) ) ;
#104 = DIRECTION ( 'NONE',  ( -1.000000000000000000, 0.000000000000000000, 0.000000000000000000 ) ) ;
#105 = ORIENTED_EDGE ( 'NONE', *, *, #77, .T. ) ;
#106 = DIRECTION ( 'NONE',  ( 0.000000000000000000, 0.000000000000000000, 1.000000000000000000 ) ) ;
#107 = EDGE_CURVE ( 'NONE', #369, #138, #1, .T. ) ;
#108 = ORIENTED_EDGE ( 'NONE', *, *, #139, .F. ) ;
#109 = FACE_OUTER_BOUND ( 'NONE', #247, .T. ) ;
#110 = PRESENTATION_LAYER_ASSIGNMENT (  '', '', ( #46 ) ) ;
#111 = ORIENTED_EDGE ( 'NONE', *, *, #306, .T. ) ;
#112 = CARTESIAN_POINT ( 'NONE',  ( -1.999999999999998668, 7.644286286171885436, -10.00000000000000000 ) ) ;
#113 = PRODUCT_CONTEXT ( 'NONE', #476, 'mechanical' ) ;
#114 = AXIS2_PLACEMENT_3D ( 'NONE', #426, #203, #207 ) ;
#115 = CARTESIAN_POINT ( 'NONE',  ( -30.00000000000000000, 0.000000000000000000, -10.00000000000000000 ) ) ;
#116 = CARTESIAN_POINT ( 'NONE',  ( -30.81124949959960091, 4.933748498798800064, -10.00000000000000000 ) ) ;
#117 = CARTESIAN_POINT ( 'NONE',  ( -2.000000000000001776, -7.644286286171884548, -10.00000000000000000 ) ) ;
#118 = CARTESIAN_POINT ( 'NONE',  ( -30.81124949959960446, -4.933748498798800064, 10.00000000000000000 ) ) ;
#119 = DIRECTION ( 'NONE',  ( -0.000000000000000000, -0.000000000000000000, 1.000000000000000000 ) ) ;
#120 = SHAPE_DEFINITION_REPRESENTATION ( #268, #92 ) ;
#121 = LINE ( 'NONE', #37, #134 ) ;
#122 = VECTOR ( 'NONE', #289, 1000.000000000000000 ) ;
#123 = APPLICATION_PROTOCOL_DEFINITION ( 'draft international standard', 'automotive_design', 1998, #476 ) ;
#124 = EDGE_CURVE ( 'NONE', #407, #56, #160, .T. ) ;
#125 = CARTESIAN_POINT ( 'NONE',  ( -25.96077405476660616, -3.704449067740299473, 10.00000000000000000 ) ) ;
#126 = CARTESIAN_POINT ( 'NONE',  ( -30.00000000000000000, 0.000000000000000000, 10.00000000000000000 ) ) ;
#127 = CARTESIAN_POINT ( 'NONE',  ( 1.224646799147353256E-15, -10.00000000000000000, -10.00000000000000000 ) ) ;
#128 = FACE_OUTER_BOUND ( 'NONE', #466, .T. ) ;
#129 = EDGE_CURVE ( 'NONE', #444, #97, #230, .T. ) ;
#130 = LINE ( 'NONE', #421, #448 ) ;
#131 = PRODUCT_DEFINITION_FORMATION_WITH_SPECIFIED_SOURCE ( '»Œ∫Œ', '', #242, .NOT_KNOWN. ) ;
#132 = VERTEX_POINT ( 'NONE', #453 ) ;
#133 = DIRECTION ( 'NONE',  ( 0.000000000000000000, 0.000000000000000000, 1.000000000000000000 ) ) ;
#134 = VECTOR ( 'NONE', #191, 1000.000000000000227 ) ;
#135 = ORIENTED_EDGE ( 'NONE', *, *, #35, .F. ) ;
#136 = LINE ( 'NONE', #319, #179 ) ;
#137 = VECTOR ( 'NONE', #60, 1000.000000000000000 ) ;
#138 = VERTEX_POINT ( 'NONE', #379 ) ;
#139 = EDGE_CURVE ( 'NONE', #70, #398, #383, .T. ) ;
#140 = CYLINDRICAL_SURFACE ( 'NONE', #419, 5.480719764057322863 ) ;
#141 = EDGE_LOOP ( 'NONE', ( #36, #425 ) ) ;
#142 = CARTESIAN_POINT ( 'NONE',  ( -30.00000000000000000, 0.000000000000000000, 10.00000000000000000 ) ) ;
#143 = AXIS2_PLACEMENT_3D ( 'NONE', #78, #39, #227 ) ;
#144 = ORIENTED_EDGE ( 'NONE', *, *, #3, .T. ) ;
#145 = FACE_OUTER_BOUND ( 'NONE', #245, .T. ) ;
#146 = EDGE_CURVE ( 'NONE', #32, #358, #304, .T. ) ;
#147 = AXIS2_PLACEMENT_3D ( 'NONE', #408, #287, #65 ) ;
#148 = EDGE_LOOP ( 'NONE', ( #295, #433, #135, #67 ) ) ;
#149 = EDGE_LOOP ( 'NONE', ( #351, #334, #409, #214 ) ) ;
#150 = LINE ( 'NONE', #229, #459 ) ;
#151 = VECTOR ( 'NONE', #152, 1000.000000000000227 ) ;
#152 = DIRECTION ( 'NONE',  ( -0.9867496997597596797, -0.1622498999199198655, 0.000000000000000000 ) ) ;
#153 = DIRECTION ( 'NONE',  ( -0.000000000000000000, -0.000000000000000000, 1.000000000000000000 ) ) ;
#154 = DIRECTION ( 'NONE',  ( 1.000000000000000000, 0.000000000000000000, 0.000000000000000000 ) ) ;
#155 = EDGE_CURVE ( 'NONE', #473, #51, #310, .T. ) ;
#156 =( NAMED_UNIT ( * ) PLANE_ANGLE_UNIT ( ) SI_UNIT ( $, .RADIAN. ) );
#157 = PRESENTATION_LAYER_ASSIGNMENT (  '', '', ( #307 ) ) ;
#158 = DIRECTION ( 'NONE',  ( -0.000000000000000000, -0.000000000000000000, -1.000000000000000000 ) ) ;
#159 = CIRCLE ( 'NONE', #143, 2.499999999999998668 ) ;
#160 = CIRCLE ( 'NONE', #198, 5.480719764057322863 ) ;
#161 = CARTESIAN_POINT ( 'NONE',  ( 1.224646799147353256E-15, 10.00000000000000000, -10.00000000000000000 ) ) ;
#162 = DIRECTION ( 'NONE',  ( -0.000000000000000000, 1.000000000000000000, -0.000000000000000000 ) ) ;
#163 = AXIS2_PLACEMENT_3D ( 'NONE', #29, #478, #61 ) ;
#164 = CARTESIAN_POINT ( 'NONE',  ( -35.00000000000000000, 0.000000000000000000, 10.00000000000000000 ) ) ;
#165 = FACE_OUTER_BOUND ( 'NONE', #148, .T. ) ;
#166 = ORIENTED_EDGE ( 'NONE', *, *, #218, .F. ) ;
#167 = LINE ( 'NONE', #209, #7 ) ;
#168 = EDGE_CURVE ( 'NONE', #261, #190, #121, .T. ) ;
#169 = DIRECTION ( 'NONE',  ( 0.000000000000000000, 0.000000000000000000, 1.000000000000000000 ) ) ;
#170 = DIRECTION ( 'NONE',  ( 1.000000000000000000, 0.000000000000000000, 0.000000000000000000 ) ) ;
#171 = MANIFOLD_SOLID_BREP ( '«–≥˝-¿≠…Ï1', #175 ) ;
#172 = ORIENTED_EDGE ( 'NONE', *, *, #455, .F. ) ;
#173 = DIRECTION ( 'NONE',  ( -0.000000000000000000, -0.000000000000000000, 1.000000000000000000 ) ) ;
#174 = ORIENTED_EDGE ( 'NONE', *, *, #455, .T. ) ;
#175 = CLOSED_SHELL ( 'NONE', ( #228, #382, #475, #83, #483, #93, #256, #313, #371, #25, #434, #450, #297, #320 ) ) ;
#176 = PLANE ( 'NONE',  #347 ) ;
#177 = AXIS2_PLACEMENT_3D ( 'NONE', #308, #375, #76 ) ;
#178 = CARTESIAN_POINT ( 'NONE',  ( -30.00000000000000000, 0.000000000000000000, -10.00000000000000000 ) ) ;
#179 = VECTOR ( 'NONE', #464, 1000.000000000000227 ) ;
#180 = EDGE_LOOP ( 'NONE', ( #469, #206, #286, #259 ) ) ;
#181 = PLANE ( 'NONE',  #163 ) ;
#182 = ORIENTED_EDGE ( 'NONE', *, *, #192, .F. ) ;
#183 = CARTESIAN_POINT ( 'NONE',  ( -25.96077405476660616, -3.704449067740300805, -10.00000000000000000 ) ) ;
#184 = EDGE_CURVE ( 'NONE', #190, #97, #485, .T. ) ;
#185 = ORIENTED_EDGE ( 'NONE', *, *, #390, .T. ) ;
#186 = DIRECTION ( 'NONE',  ( -1.000000000000000000, 0.000000000000000000, 0.000000000000000000 ) ) ;
#187 = AXIS2_PLACEMENT_3D ( 'NONE', #178, #252, #217 ) ;
#188 = ORIENTED_EDGE ( 'NONE', *, *, #337, .F. ) ;
#189 = FACE_BOUND ( 'NONE', #141, .T. ) ;
#190 = VERTEX_POINT ( 'NONE', #127 ) ;
#191 = DIRECTION ( 'NONE',  ( 0.9867496997597596797, -0.1622498999199198655, -0.000000000000000000 ) ) ;
#192 = EDGE_CURVE ( 'NONE', #51, #318, #202, .T. ) ;
#193 = DIRECTION ( 'NONE',  ( 1.000000000000000000, 0.000000000000000000, 0.000000000000000000 ) ) ;
#194 = DIRECTION ( 'NONE',  ( 0.000000000000000000, 0.000000000000000000, 1.000000000000000000 ) ) ;
#195 = CARTESIAN_POINT ( 'NONE',  ( -30.81124949959960446, -4.933748498798800064, 10.00000000000000000 ) ) ;
#196 = DIRECTION ( 'NONE',  ( -0.000000000000000000, 1.000000000000000000, -0.000000000000000000 ) ) ;
#197 = EDGE_CURVE ( 'NONE', #290, #70, #384, .T. ) ;
#198 = AXIS2_PLACEMENT_3D ( 'NONE', #299, #158, #193 ) ;
#199 = FACE_OUTER_BOUND ( 'NONE', #180, .T. ) ;
#200 = UNCERTAINTY_MEASURE_WITH_UNIT (LENGTH_MEASURE( 1.000000000000000082E-05 ), #296, 'distance_accuracy_value', 'NONE');
#201 = AXIS2_PLACEMENT_3D ( 'NONE', #87, #173, #350 ) ;
#202 = LINE ( 'NONE', #89, #236 ) ;
#203 = DIRECTION ( 'NONE',  ( -0.1622498999199198655, -0.9867496997597597908, 0.000000000000000000 ) ) ;
#204 = DIRECTION ( 'NONE',  ( 1.000000000000000000, 0.000000000000000000, 0.000000000000000000 ) ) ;
#205 = DIRECTION ( 'NONE',  ( 1.000000000000000000, -0.000000000000000000, 0.000000000000000000 ) ) ;
#206 = ORIENTED_EDGE ( 'NONE', *, *, #72, .T. ) ;
#207 = DIRECTION ( 'NONE',  ( 0.9867496997597597908, -0.1622498999199198655, 0.000000000000000000 ) ) ;
#208 = VERTEX_POINT ( 'NONE', #125 ) ;
#209 = CARTESIAN_POINT ( 'NONE',  ( -35.00000000000000000, 0.000000000000000000, 10.00000000000000000 ) ) ;
#210 = AXIS2_PLACEMENT_3D ( 'NONE', #482, #472, #104 ) ;
#211 = VERTEX_POINT ( 'NONE', #164 ) ;
#212 = CARTESIAN_POINT ( 'NONE',  ( -1.999999999999998668, 7.644286286171885436, -10.00000000000000000 ) ) ;
#213 = EDGE_CURVE ( 'NONE', #290, #211, #21, .T. ) ;
#214 = ORIENTED_EDGE ( 'NONE', *, *, #424, .T. ) ;
#215 = FACE_OUTER_BOUND ( 'NONE', #94, .T. ) ;
#216 = ORIENTED_EDGE ( 'NONE', *, *, #440, .F. ) ;
#217 = DIRECTION ( 'NONE',  ( 1.000000000000000000, 0.000000000000000000, 0.000000000000000000 ) ) ;
#218 = EDGE_CURVE ( 'NONE', #211, #398, #167, .T. ) ;
#219 = ORIENTED_EDGE ( 'NONE', *, *, #364, .T. ) ;
#220 = DIRECTION ( 'NONE',  ( -0.000000000000000000, -0.000000000000000000, 1.000000000000000000 ) ) ;
#221 = EDGE_LOOP ( 'NONE', ( #14, #327, #28, #387 ) ) ;
#222 = COLOUR_RGB ( '',1.000000000000000000, 1.000000000000000000, 1.000000000000000000 ) ;
#223 = ORIENTED_EDGE ( 'NONE', *, *, #270, .F. ) ;
#224 = FACE_BOUND ( 'NONE', #372, .T. ) ;
#225 = CIRCLE ( 'NONE', #303, 5.000000000000000888 ) ;
#226 = ORIENTED_EDGE ( 'NONE', *, *, #35, .T. ) ;
#227 = DIRECTION ( 'NONE',  ( 1.000000000000000000, 0.000000000000000000, 0.000000000000000000 ) ) ;
#228 = ADVANCED_FACE ( 'NONE', ( #55 ), #397, .T. ) ;
#229 = CARTESIAN_POINT ( 'NONE',  ( -1.999999999999998668, -7.644286286171886324, -10.00000000000000000 ) ) ;
#230 = LINE ( 'NONE', #266, #300 ) ;
#231 =( LENGTH_UNIT ( ) NAMED_UNIT ( * ) SI_UNIT ( .MILLI., .METRE. ) );
#232 = EDGE_CURVE ( 'NONE', #32, #407, #385, .T. ) ;
#233 = DIRECTION ( 'NONE',  ( -0.9867496997597596797, -0.1622498999199198655, 0.000000000000000000 ) ) ;
#234 = FILL_AREA_STYLE ('',( #454 ) ) ;
#235 = DIRECTION ( 'NONE',  ( -0.000000000000000000, -0.000000000000000000, -1.000000000000000000 ) ) ;
#236 = VECTOR ( 'NONE', #237, 1000.000000000000000 ) ;
#237 = DIRECTION ( 'NONE',  ( -0.000000000000000000, -0.000000000000000000, 1.000000000000000000 ) ) ;
#238 = CYLINDRICAL_SURFACE ( 'NONE', #442, 5.000000000000004441 ) ;
#239 = CIRCLE ( 'NONE', #264, 2.499999999999998668 ) ;
#240 = VERTEX_POINT ( 'NONE', #241 ) ;
#241 = CARTESIAN_POINT ( 'NONE',  ( -24.51928023594267714, 0.000000000000000000, 10.00000000000000000 ) ) ;
#242 = PRODUCT ( 'À…Õ¡≤˘µ∂πÃ∂®', 'À…Õ¡≤˘µ∂πÃ∂®', '', ( #113 ) ) ;
#243 = ORIENTED_EDGE ( 'NONE', *, *, #213, .T. ) ;
#244 = DIRECTION ( 'NONE',  ( 0.000000000000000000, 0.000000000000000000, 1.000000000000000000 ) ) ;
#245 = EDGE_LOOP ( 'NONE', ( #373, #430, #321, #365 ) ) ;
#246 = CARTESIAN_POINT ( 'NONE',  ( -1.999999999999998668, 7.644286286171885436, 10.00000000000000000 ) ) ;
#247 = EDGE_LOOP ( 'NONE', ( #412, #223, #108, #391, #402 ) ) ;
#248 = PRODUCT_RELATED_PRODUCT_CATEGORY ( 'part', '', ( #242 ) ) ;
#249 = DIRECTION ( 'NONE',  ( 1.000000000000000000, 0.000000000000000000, 0.000000000000000000 ) ) ;
#250 = AXIS2_PLACEMENT_3D ( 'NONE', #142, #405, #186 ) ;
#251 = ORIENTED_EDGE ( 'NONE', *, *, #155, .F. ) ;
#252 = DIRECTION ( 'NONE',  ( 0.000000000000000000, 0.000000000000000000, 1.000000000000000000 ) ) ;
#253 = ORIENTED_EDGE ( 'NONE', *, *, #10, .F. ) ;
#254 = VECTOR ( 'NONE', #153, 1000.000000000000000 ) ;
#255 = CARTESIAN_POINT ( 'NONE',  ( -30.00000000000000000, 0.000000000000000000, -10.00000000000000000 ) ) ;
#256 = ADVANCED_FACE ( 'NONE', ( #165 ), #360, .F. ) ;
#257 = ORIENTED_EDGE ( 'NONE', *, *, #330, .T. ) ;
#258 = CARTESIAN_POINT ( 'NONE',  ( -25.96077405476660616, -3.704449067740300805, -10.00000000000000000 ) ) ;
#259 = ORIENTED_EDGE ( 'NONE', *, *, #406, .F. ) ;
#260 = DIRECTION ( 'NONE',  ( 1.000000000000000000, 0.000000000000000000, -0.000000000000000000 ) ) ;
#261 = VERTEX_POINT ( 'NONE', #352 ) ;
#262 = EDGE_LOOP ( 'NONE', ( #26, #253, #216, #172, #85 ) ) ;
#263 = DIRECTION ( 'NONE',  ( -1.000000000000000000, 0.000000000000000000, 0.000000000000000000 ) ) ;
#264 = AXIS2_PLACEMENT_3D ( 'NONE', #126, #95, #276 ) ;
#265 = LINE ( 'NONE', #484, #151 ) ;
#266 = CARTESIAN_POINT ( 'NONE',  ( 1.224646799147353256E-15, 10.00000000000000000, 10.00000000000000000 ) ) ;
#267 = DIRECTION ( 'NONE',  ( 1.000000000000000000, 0.000000000000000000, 0.000000000000000000 ) ) ;
#268 = PRODUCT_DEFINITION_SHAPE ( 'NONE', 'NONE',  #19 ) ;
#269 = FACE_BOUND ( 'NONE', #354, .T. ) ;
#270 = EDGE_CURVE ( 'NONE', #398, #261, #48, .T. ) ;
#271 = DIRECTION ( 'NONE',  ( 0.000000000000000000, 1.000000000000000000, 0.000000000000000000 ) ) ;
#272 = FACE_BOUND ( 'NONE', #262, .T. ) ;
#273 = FILL_AREA_STYLE_COLOUR ( '', #222 ) ;
#274 = AXIS2_PLACEMENT_3D ( 'NONE', #346, #302, #263 ) ;
#275 = SURFACE_SIDE_STYLE ('',( #311 ) ) ;
#276 = DIRECTION ( 'NONE',  ( 1.000000000000000000, 0.000000000000000000, 0.000000000000000000 ) ) ;
#277 = EDGE_LOOP ( 'NONE', ( #422, #298, #396, #441 ) ) ;
#278 = DIRECTION ( 'NONE',  ( 1.000000000000000000, 0.000000000000000000, 0.000000000000000000 ) ) ;
#279 = ORIENTED_EDGE ( 'NONE', *, *, #218, .T. ) ;
#280 = DIRECTION ( 'NONE',  ( 0.9867496997597596797, -0.1622498999199198655, -0.000000000000000000 ) ) ;
#281 = EDGE_CURVE ( 'NONE', #407, #288, #284, .T. ) ;
#282 = ORIENTED_EDGE ( 'NONE', *, *, #440, .T. ) ;
#283 = MECHANICAL_DESIGN_GEOMETRIC_PRESENTATION_REPRESENTATION (  '', ( #46 ), #445 ) ;
#284 = LINE ( 'NONE', #467, #432 ) ;
#285 = AXIS2_PLACEMENT_3D ( 'NONE', #317, #18, #133 ) ;
#286 = ORIENTED_EDGE ( 'NONE', *, *, #107, .T. ) ;
#287 = DIRECTION ( 'NONE',  ( -0.000000000000000000, -0.000000000000000000, -1.000000000000000000 ) ) ;
#288 = VERTEX_POINT ( 'NONE', #9 ) ;
#289 = DIRECTION ( 'NONE',  ( 0.000000000000000000, 1.000000000000000000, 0.000000000000000000 ) ) ;
#290 = VERTEX_POINT ( 'NONE', #470 ) ;
#291 = CARTESIAN_POINT ( 'NONE',  ( 1.224646799147353256E-15, -10.00000000000000000, 10.00000000000000000 ) ) ;
#292 = VERTEX_POINT ( 'NONE', #356 ) ;
#293 = CARTESIAN_POINT ( 'NONE',  ( -30.00000000000000000, 0.000000000000000000, -10.00000000000000000 ) ) ;
#294 = CIRCLE ( 'NONE', #81, 2.499999999999998668 ) ;
#295 = ORIENTED_EDGE ( 'NONE', *, *, #184, .T. ) ;
#296 =( LENGTH_UNIT ( ) NAMED_UNIT ( * ) SI_UNIT ( .MILLI., .METRE. ) );
#297 = ADVANCED_FACE ( 'NONE', ( #58 ), #176, .F. ) ;
#298 = ORIENTED_EDGE ( 'NONE', *, *, #197, .F. ) ;
#299 = CARTESIAN_POINT ( 'NONE',  ( -30.00000000000000000, 0.000000000000000000, -10.00000000000000000 ) ) ;
#300 = VECTOR ( 'NONE', #235, 1000.000000000000000 ) ;
#301 = DIRECTION ( 'NONE',  ( -0.000000000000000000, -0.000000000000000000, -1.000000000000000000 ) ) ;
#302 = DIRECTION ( 'NONE',  ( -0.000000000000000000, -0.000000000000000000, -1.000000000000000000 ) ) ;
#303 = AXIS2_PLACEMENT_3D ( 'NONE', #90, #244, #249 ) ;
#304 = LINE ( 'NONE', #451, #468 ) ;
#305 =( NAMED_UNIT ( * ) SI_UNIT ( $, .STERADIAN. ) SOLID_ANGLE_UNIT ( ) );
#306 = EDGE_CURVE ( 'NONE', #369, #132, #239, .T. ) ;
#307 = STYLED_ITEM ( 'NONE', ( #44 ), #92 ) ;
#308 = CARTESIAN_POINT ( 'NONE',  ( 1.224646799147353256E-15, -10.00000000000000000, 10.00000000000000000 ) ) ;
#309 = APPLICATION_PROTOCOL_DEFINITION ( 'draft international standard', 'automotive_design', 1998, #40 ) ;
#310 = LINE ( 'NONE', #456, #429 ) ;
#311 = SURFACE_STYLE_FILL_AREA ( #316 ) ;
#312 = PRODUCT_DEFINITION_CONTEXT ( 'detailed design', #40, 'design' ) ;
#313 = ADVANCED_FACE ( 'NONE', ( #431 ), #13, .F. ) ;
#314 = SURFACE_STYLE_USAGE ( .BOTH. , #275 ) ;
#315 = CARTESIAN_POINT ( 'NONE',  ( -30.00000000000000000, 0.000000000000000000, -10.00000000000000000 ) ) ;
#316 = FILL_AREA_STYLE ('',( #273 ) ) ;
#317 = CARTESIAN_POINT ( 'NONE',  ( 1.224646799147353256E-15, 10.00000000000000000, 10.00000000000000000 ) ) ;
#318 = VERTEX_POINT ( 'NONE', #462 ) ;
#319 = CARTESIAN_POINT ( 'NONE',  ( 1.224646799147353256E-15, 10.00000000000000000, -10.00000000000000000 ) ) ;
#320 = ADVANCED_FACE ( 'NONE', ( #128 ), #392, .F. ) ;
#321 = ORIENTED_EDGE ( 'NONE', *, *, #232, .F. ) ;
#322 =( GEOMETRIC_REPRESENTATION_CONTEXT ( 3 ) GLOBAL_UNCERTAINTY_ASSIGNED_CONTEXT ( ( #200 ) ) GLOBAL_UNIT_ASSIGNED_CONTEXT ( ( #296, #411, #305 ) ) REPRESENTATION_CONTEXT ( 'NONE', 'WORKASPACE' ) );
#323 = DIRECTION ( 'NONE',  ( -0.000000000000000000, -0.000000000000000000, -1.000000000000000000 ) ) ;
#324 = ORIENTED_EDGE ( 'NONE', *, *, #72, .F. ) ;
#325 = DIRECTION ( 'NONE',  ( -0.000000000000000000, -0.000000000000000000, -1.000000000000000000 ) ) ;
#326 = AXIS2_PLACEMENT_3D ( 'NONE', #428, #325, #170 ) ;
#327 = ORIENTED_EDGE ( 'NONE', *, *, #50, .T. ) ;
#328 = FACE_OUTER_BOUND ( 'NONE', #149, .T. ) ;
#329 = ORIENTED_EDGE ( 'NONE', *, *, #197, .T. ) ;
#330 = EDGE_CURVE ( 'NONE', #211, #17, #225, .T. ) ;
#331 = CARTESIAN_POINT ( 'NONE',  ( -30.00000000000000000, 0.000000000000000000, -10.00000000000000000 ) ) ;
#332 = ORIENTED_EDGE ( 'NONE', *, *, #416, .T. ) ;
#333 = PLANE ( 'NONE',  #33 ) ;
#334 = ORIENTED_EDGE ( 'NONE', *, *, #124, .F. ) ;
#335 = FACE_OUTER_BOUND ( 'NONE', #74, .T. ) ;
#336 = VECTOR ( 'NONE', #220, 1000.000000000000000 ) ;
#337 = EDGE_CURVE ( 'NONE', #471, #190, #15, .T. ) ;
#338 = DIRECTION ( 'NONE',  ( -0.000000000000000000, -0.000000000000000000, 1.000000000000000000 ) ) ;
#339 = ORIENTED_EDGE ( 'NONE', *, *, #270, .T. ) ;
#340 = CARTESIAN_POINT ( 'NONE',  ( -32.50000000000000000, 0.000000000000000000, 10.00000000000000000 ) ) ;
#341 = PLANE ( 'NONE',  #5 ) ;
#342 = LINE ( 'NONE', #374, #401 ) ;
#343 = MECHANICAL_DESIGN_GEOMETRIC_PRESENTATION_REPRESENTATION (  '', ( #307 ), #465 ) ;
#344 = DIRECTION ( 'NONE',  ( 1.000000000000000000, 0.000000000000000000, -0.000000000000000000 ) ) ;
#345 = VECTOR ( 'NONE', #446, 1000.000000000000000 ) ;
#346 = CARTESIAN_POINT ( 'NONE',  ( -30.00000000000000000, 0.000000000000000000, 10.00000000000000000 ) ) ;
#347 = AXIS2_PLACEMENT_3D ( 'NONE', #359, #205, #458 ) ;
#348 = EDGE_CURVE ( 'NONE', #240, #208, #413, .T. ) ;
#349 = DIRECTION ( 'NONE',  ( -0.000000000000000000, -0.000000000000000000, -1.000000000000000000 ) ) ;
#350 = DIRECTION ( 'NONE',  ( 1.000000000000000000, 0.000000000000000000, 0.000000000000000000 ) ) ;
#351 = ORIENTED_EDGE ( 'NONE', *, *, #50, .F. ) ;
#352 = CARTESIAN_POINT ( 'NONE',  ( -30.81124949959960446, -4.933748498798800064, -10.00000000000000000 ) ) ;
#353 = AXIS2_PLACEMENT_3D ( 'NONE', #115, #301, #447 ) ;
#354 = EDGE_LOOP ( 'NONE', ( #22, #324 ) ) ;
#355 = EDGE_CURVE ( 'NONE', #97, #70, #136, .T. ) ;
#356 = CARTESIAN_POINT ( 'NONE',  ( -27.50000000000000000, 3.061616997868381662E-16, -10.00000000000000000 ) ) ;
#357 = CIRCLE ( 'NONE', #187, 2.499999999999998668 ) ;
#358 = VERTEX_POINT ( 'NONE', #246 ) ;
#359 = CARTESIAN_POINT ( 'NONE',  ( -1.999999999999998668, -7.644286286171886324, -10.00000000000000000 ) ) ;
#360 = PLANE ( 'NONE',  #285 ) ;
#361 = CIRCLE ( 'NONE', #353, 5.480719764057322863 ) ;
#362 = VECTOR ( 'NONE', #349, 1000.000000000000000 ) ;
#363 = DIRECTION ( 'NONE',  ( 1.000000000000000000, 0.000000000000000000, 0.000000000000000000 ) ) ;
#364 = EDGE_CURVE ( 'NONE', #17, #471, #130, .T. ) ;
#365 = ORIENTED_EDGE ( 'NONE', *, *, #146, .T. ) ;
#366 = DIRECTION ( 'NONE',  ( -0.000000000000000000, -0.000000000000000000, -1.000000000000000000 ) ) ;
#367 = EDGE_LOOP ( 'NONE', ( #282, #393, #62, #99 ) ) ;
#368 = CARTESIAN_POINT ( 'NONE',  ( -1.999999999999998668, -7.644286286171886324, 10.00000000000000000 ) ) ;
#369 = VERTEX_POINT ( 'NONE', #394 ) ;
#370 = CARTESIAN_POINT ( 'NONE',  ( -25.96077405476660616, 3.704449067740299473, -10.00000000000000000 ) ) ;
#371 = ADVANCED_FACE ( 'NONE', ( #84 ), #238, .T. ) ;
#372 = EDGE_LOOP ( 'NONE', ( #88, #11, #144, #30, #479 ) ) ;
#373 = ORIENTED_EDGE ( 'NONE', *, *, #10, .T. ) ;
#374 = CARTESIAN_POINT ( 'NONE',  ( 1.224646799147353256E-15, 10.00000000000000000, 10.00000000000000000 ) ) ;
#375 = DIRECTION ( 'NONE',  ( 0.1622498999199198932, 0.9867496997597597908, -0.000000000000000000 ) ) ;
#376 = DIRECTION ( 'NONE',  ( 0.000000000000000000, 0.000000000000000000, 1.000000000000000000 ) ) ;
#377 = DIRECTION ( 'NONE',  ( -0.000000000000000000, -0.000000000000000000, -1.000000000000000000 ) ) ;
#378 = SURFACE_SIDE_STYLE ('',( #79 ) ) ;
#379 = CARTESIAN_POINT ( 'NONE',  ( -32.50000000000000000, 0.000000000000000000, -10.00000000000000000 ) ) ;
#380 = UNCERTAINTY_MEASURE_WITH_UNIT (LENGTH_MEASURE( 1.000000000000000082E-05 ), #52, 'distance_accuracy_value', 'NONE');
#381 = SURFACE_STYLE_USAGE ( .BOTH. , #378 ) ;
#382 = ADVANCED_FACE ( 'NONE', ( #215 ), #403, .F. ) ;
#383 = CIRCLE ( 'NONE', #69, 5.000000000000000888 ) ;
#384 = LINE ( 'NONE', #388, #362 ) ;
#385 = LINE ( 'NONE', #212, #86 ) ;
#386 = AXIS2_PLACEMENT_3D ( 'NONE', #315, #169, #278 ) ;
#387 = ORIENTED_EDGE ( 'NONE', *, *, #416, .F. ) ;
#388 = CARTESIAN_POINT ( 'NONE',  ( -30.81124949959960091, 4.933748498798800064, 10.00000000000000000 ) ) ;
#389 = DIRECTION ( 'NONE',  ( -0.9867496997597596797, -0.1622498999199198655, 0.000000000000000000 ) ) ;
#390 = EDGE_CURVE ( 'NONE', #132, #292, #102, .T. ) ;
#391 = ORIENTED_EDGE ( 'NONE', *, *, #355, .F. ) ;
#392 = PLANE ( 'NONE',  #114 ) ;
#393 = ORIENTED_EDGE ( 'NONE', *, *, #146, .F. ) ;
#394 = CARTESIAN_POINT ( 'NONE',  ( -32.50000000000000000, 0.000000000000000000, 10.00000000000000000 ) ) ;
#395 = VECTOR ( 'NONE', #399, 1000.000000000000114 ) ;
#396 = ORIENTED_EDGE ( 'NONE', *, *, #57, .F. ) ;
#397 = CYLINDRICAL_SURFACE ( 'NONE', #201, 5.480719764057322863 ) ;
#398 = VERTEX_POINT ( 'NONE', #63 ) ;
#399 = DIRECTION ( 'NONE',  ( 0.9867496997597597908, -0.1622498999199198377, 0.000000000000000000 ) ) ;
#400 = EDGE_CURVE ( 'NONE', #138, #292, #294, .T. ) ;
#401 = VECTOR ( 'NONE', #196, 1000.000000000000000 ) ;
#402 = ORIENTED_EDGE ( 'NONE', *, *, #184, .F. ) ;
#403 = CYLINDRICAL_SURFACE ( 'NONE', #210, 2.500000000000002220 ) ;
#404 = ORIENTED_EDGE ( 'NONE', *, *, #57, .T. ) ;
#405 = DIRECTION ( 'NONE',  ( -0.000000000000000000, -0.000000000000000000, -1.000000000000000000 ) ) ;
#406 = EDGE_CURVE ( 'NONE', #292, #138, #357, .T. ) ;
#407 = VERTEX_POINT ( 'NONE', #370 ) ;
#408 = CARTESIAN_POINT ( 'NONE',  ( -30.00000000000000000, 0.000000000000000000, 10.00000000000000000 ) ) ;
#409 = ORIENTED_EDGE ( 'NONE', *, *, #281, .T. ) ;
#410 = VECTOR ( 'NONE', #377, 1000.000000000000000 ) ;
#411 =( NAMED_UNIT ( * ) PLANE_ANGLE_UNIT ( ) SI_UNIT ( $, .RADIAN. ) );
#412 = ORIENTED_EDGE ( 'NONE', *, *, #168, .F. ) ;
#413 = CIRCLE ( 'NONE', #326, 5.480719764057322863 ) ;
#414 = CYLINDRICAL_SURFACE ( 'NONE', #274, 2.500000000000002220 ) ;
#415 = PLANE ( 'NONE',  #177 ) ;
#416 = EDGE_CURVE ( 'NONE', #473, #208, #71, .T. ) ;
#417 = CARTESIAN_POINT ( 'NONE',  ( -24.51928023594267714, 0.000000000000000000, -10.00000000000000000 ) ) ;
#418 = LINE ( 'NONE', #195, #345 ) ;
#419 = AXIS2_PLACEMENT_3D ( 'NONE', #331, #338, #100 ) ;
#420 = CARTESIAN_POINT ( 'NONE',  ( 1.224646799147353256E-15, 10.00000000000000000, 10.00000000000000000 ) ) ;
#421 = CARTESIAN_POINT ( 'NONE',  ( 1.224646799147353256E-15, -10.00000000000000000, 10.00000000000000000 ) ) ;
#422 = ORIENTED_EDGE ( 'NONE', *, *, #355, .T. ) ;
#423 = DIRECTION ( 'NONE',  ( 0.1622498999199198932, -0.9867496997597597908, 0.000000000000000000 ) ) ;
#424 = EDGE_CURVE ( 'NONE', #288, #240, #480, .T. ) ;
#425 = ORIENTED_EDGE ( 'NONE', *, *, #406, .T. ) ;
#426 = CARTESIAN_POINT ( 'NONE',  ( -25.96077405476660616, -3.704449067740300805, -10.00000000000000000 ) ) ;
#427 = ORIENTED_EDGE ( 'NONE', *, *, #213, .F. ) ;
#428 = CARTESIAN_POINT ( 'NONE',  ( -30.00000000000000000, 0.000000000000000000, 10.00000000000000000 ) ) ;
#429 = VECTOR ( 'NONE', #45, 1000.000000000000114 ) ;
#430 = ORIENTED_EDGE ( 'NONE', *, *, #281, .F. ) ;
#431 = FACE_OUTER_BOUND ( 'NONE', #277, .T. ) ;
#432 = VECTOR ( 'NONE', #53, 1000.000000000000000 ) ;
#433 = ORIENTED_EDGE ( 'NONE', *, *, #129, .F. ) ;
#434 = ADVANCED_FACE ( 'NONE', ( #328 ), #140, .T. ) ;
#435 = CYLINDRICAL_SURFACE ( 'NONE', #250, 5.000000000000004441 ) ;
#436 = ORIENTED_EDGE ( 'NONE', *, *, #107, .F. ) ;
#437 = DIRECTION ( 'NONE',  ( -1.000000000000000000, 0.000000000000000000, 0.000000000000000000 ) ) ;
#438 = ORIENTED_EDGE ( 'NONE', *, *, #139, .T. ) ;
#439 = LINE ( 'NONE', #368, #122 ) ;
#440 = EDGE_CURVE ( 'NONE', #318, #358, #439, .T. ) ;
#441 = ORIENTED_EDGE ( 'NONE', *, *, #129, .T. ) ;
#442 = AXIS2_PLACEMENT_3D ( 'NONE', #474, #366, #437 ) ;
#443 = CARTESIAN_POINT ( 'NONE',  ( -25.96077405476660616, -3.704449067740300805, 10.00000000000000000 ) ) ;
#444 = VERTEX_POINT ( 'NONE', #481 ) ;
#445 =( GEOMETRIC_REPRESENTATION_CONTEXT ( 3 ) GLOBAL_UNCERTAINTY_ASSIGNED_CONTEXT ( ( #380 ) ) GLOBAL_UNIT_ASSIGNED_CONTEXT ( ( #52, #12, #461 ) ) REPRESENTATION_CONTEXT ( 'NONE', 'WORKASPACE' ) );
#446 = DIRECTION ( 'NONE',  ( -0.000000000000000000, -0.000000000000000000, -1.000000000000000000 ) ) ;
#447 = DIRECTION ( 'NONE',  ( 1.000000000000000000, 0.000000000000000000, 0.000000000000000000 ) ) ;
#448 = VECTOR ( 'NONE', #280, 1000.000000000000227 ) ;
#449 = CARTESIAN_POINT ( 'NONE',  ( -24.51928023594267714, 0.000000000000000000, -10.00000000000000000 ) ) ;
#450 = ADVANCED_FACE ( 'NONE', ( #145 ), #181, .F. ) ;
#451 = CARTESIAN_POINT ( 'NONE',  ( -1.999999999999998668, 7.644286286171885436, -10.00000000000000000 ) ) ;
#452 = CARTESIAN_POINT ( 'NONE',  ( 0.000000000000000000, 0.000000000000000000, 0.000000000000000000 ) ) ;
#453 = CARTESIAN_POINT ( 'NONE',  ( -27.50000000000000000, 3.061616997868381662E-16, 10.00000000000000000 ) ) ;
#454 = FILL_AREA_STYLE_COLOUR ( '', #66 ) ;
#455 = EDGE_CURVE ( 'NONE', #208, #318, #31, .T. ) ;
#456 = CARTESIAN_POINT ( 'NONE',  ( -25.96077405476660616, -3.704449067740300805, -10.00000000000000000 ) ) ;
#457 = PRESENTATION_STYLE_ASSIGNMENT (( #314 ) ) ;
#458 = DIRECTION ( 'NONE',  ( 0.000000000000000000, 0.000000000000000000, -1.000000000000000000 ) ) ;
#459 = VECTOR ( 'NONE', #271, 1000.000000000000000 ) ;
#460 = ORIENTED_EDGE ( 'NONE', *, *, #400, .F. ) ;
#461 =( NAMED_UNIT ( * ) SI_UNIT ( $, .STERADIAN. ) SOLID_ANGLE_UNIT ( ) );
#462 = CARTESIAN_POINT ( 'NONE',  ( -1.999999999999998668, -7.644286286171886324, 10.00000000000000000 ) ) ;
#463 = ORIENTED_EDGE ( 'NONE', *, *, #364, .F. ) ;
#464 = DIRECTION ( 'NONE',  ( -0.9867496997597596797, -0.1622498999199198655, 0.000000000000000000 ) ) ;
#465 =( GEOMETRIC_REPRESENTATION_CONTEXT ( 3 ) GLOBAL_UNCERTAINTY_ASSIGNED_CONTEXT ( ( #34 ) ) GLOBAL_UNIT_ASSIGNED_CONTEXT ( ( #231, #156, #2 ) ) REPRESENTATION_CONTEXT ( 'NONE', 'WORKASPACE' ) );
#466 = EDGE_LOOP ( 'NONE', ( #174, #182, #251, #332 ) ) ;
#467 = CARTESIAN_POINT ( 'NONE',  ( -25.96077405476660616, 3.704449067740299473, -10.00000000000000000 ) ) ;
#468 = VECTOR ( 'NONE', #119, 1000.000000000000000 ) ;
#469 = ORIENTED_EDGE ( 'NONE', *, *, #390, .F. ) ;
#470 = CARTESIAN_POINT ( 'NONE',  ( -30.81124949959960091, 4.933748498798800064, 10.00000000000000000 ) ) ;
#471 = VERTEX_POINT ( 'NONE', #291 ) ;
#472 = DIRECTION ( 'NONE',  ( -0.000000000000000000, -0.000000000000000000, -1.000000000000000000 ) ) ;
#473 = VERTEX_POINT ( 'NONE', #183 ) ;
#474 = CARTESIAN_POINT ( 'NONE',  ( -30.00000000000000000, 0.000000000000000000, 10.00000000000000000 ) ) ;
#475 = ADVANCED_FACE ( 'NONE', ( #335 ), #435, .T. ) ;
#476 = APPLICATION_CONTEXT ( 'automotive_design' ) ;
#477 = EDGE_LOOP ( 'NONE', ( #166, #427, #329, #438 ) ) ;
#478 = DIRECTION ( 'NONE',  ( -0.1622498999199198932, 0.9867496997597597908, 0.000000000000000000 ) ) ;
#479 = ORIENTED_EDGE ( 'NONE', *, *, #41, .T. ) ;
#480 = CIRCLE ( 'NONE', #147, 5.480719764057322863 ) ;
#481 = CARTESIAN_POINT ( 'NONE',  ( 1.224646799147353256E-15, 10.00000000000000000, 10.00000000000000000 ) ) ;
#482 = CARTESIAN_POINT ( 'NONE',  ( -30.00000000000000000, 0.000000000000000000, 10.00000000000000000 ) ) ;
#483 = ADVANCED_FACE ( 'NONE', ( #224, #109, #189 ), #333, .F. ) ;
#484 = CARTESIAN_POINT ( 'NONE',  ( -1.999999999999998668, 7.644286286171885436, 10.00000000000000000 ) ) ;
#485 = LINE ( 'NONE', #8, #96 ) ;
#486 = LINE ( 'NONE', #420, #38 ) ;
ENDSEC;
END-ISO-10303-21;
