ISO-10303-21;
HEADER;
FILE_DESCRIPTION (( 'STEP AP214' ),
    '1' );
FILE_NAME ('Æø¸××ù.step',
    '2023-08-15T03:03:24',
    ( '' ),
    ( '' ),
    'SwSTEP 2.0',
    'SolidWorks 2022',
    '' );
FILE_SCHEMA (( 'AUTOMOTIVE_DESIGN' ));
ENDSEC;

DATA;
#1 = DIRECTION ( 'NONE',  ( -0.9613992697926128095, -0.2751571260974914890, 0.000000000000000000 ) ) ;
#2 = PLANE ( 'NONE',  #286 ) ;
#3 = EDGE_CURVE ( 'NONE', #884, #32, #691, .T. ) ;
#4 = DIRECTION ( 'NONE',  ( -1.000000000000000000, 5.204170427930416550E-15, 0.000000000000000000 ) ) ;
#5 = EDGE_LOOP ( 'NONE', ( #895, #685, #602, #448 ) ) ;
#6 = DIRECTION ( 'NONE',  ( 1.000000000000000000, 1.734723475976806848E-16, -0.000000000000000000 ) ) ;
#7 = AXIS2_PLACEMENT_3D ( 'NONE', #756, #480, #354 ) ;
#8 = CARTESIAN_POINT ( 'NONE',  ( -9.500000000000001776, 4.929856931646925844, 0.000000000000000000 ) ) ;
#9 = AXIS2_PLACEMENT_3D ( 'NONE', #245, #232, #42 ) ;
#10 = DIRECTION ( 'NONE',  ( -1.000000000000000000, 0.000000000000000000, 0.000000000000000000 ) ) ;
#11 = ORIENTED_EDGE ( 'NONE', *, *, #717, .F. ) ;
#12 = CARTESIAN_POINT ( 'NONE',  ( 9.980699634896303962, 5.067435494695669895, 20.00000000000000000 ) ) ;
#13 = DIRECTION ( 'NONE',  ( -0.2751571260974914335, -0.9613992697926129205, -0.000000000000000000 ) ) ;
#14 = DIRECTION ( 'NONE',  ( 0.000000000000000000, 0.000000000000000000, -1.000000000000000000 ) ) ;
#15 = VERTEX_POINT ( 'NONE', #561 ) ;
#16 = CARTESIAN_POINT ( 'NONE',  ( 9.499999999999998224, -4.499999999999997335, 20.00000000000000000 ) ) ;
#17 = DIRECTION ( 'NONE',  ( 0.9613992697926138087, -0.2751571260974883248, 0.000000000000000000 ) ) ;
#18 = EDGE_LOOP ( 'NONE', ( #92, #643, #107, #770, #666, #34 ) ) ;
#19 = FACE_OUTER_BOUND ( 'NONE', #555, .T. ) ;
#20 = EDGE_CURVE ( 'NONE', #805, #40, #728, .T. ) ;
#21 = DIRECTION ( 'NONE',  ( 0.9613992697926138087, 0.2751571260974883248, 0.000000000000000000 ) ) ;
#22 = CIRCLE ( 'NONE', #541, 5.000000000000000888 ) ;
#23 = AXIS2_PLACEMENT_3D ( 'NONE', #842, #497, #849 ) ;
#24 = EDGE_LOOP ( 'NONE', ( #402, #662, #74, #389 ) ) ;
#25 = CARTESIAN_POINT ( 'NONE',  ( 9.499999999999998224, -4.499999999999997335, 0.5000000000000004441 ) ) ;
#26 = DIRECTION ( 'NONE',  ( 1.000000000000000000, 0.000000000000000000, 0.000000000000000000 ) ) ;
#27 = EDGE_CURVE ( 'NONE', #715, #672, #494, .T. ) ;
#28 = AXIS2_PLACEMENT_3D ( 'NONE', #789, #720, #363 ) ;
#29 = VERTEX_POINT ( 'NONE', #631 ) ;
#30 = DIRECTION ( 'NONE',  ( -0.000000000000000000, -0.000000000000000000, -1.000000000000000000 ) ) ;
#31 = EDGE_CURVE ( 'NONE', #124, #715, #375, .T. ) ;
#32 = VERTEX_POINT ( 'NONE', #567 ) ;
#33 = AXIS2_PLACEMENT_3D ( 'NONE', #423, #351, #894 ) ;
#34 = ORIENTED_EDGE ( 'NONE', *, *, #520, .T. ) ;
#35 = CARTESIAN_POINT ( 'NONE',  ( 0.000000000000000000, 0.000000000000000000, 0.000000000000000000 ) ) ;
#36 = COLOUR_RGB ( '',1.000000000000000000, 1.000000000000000000, 1.000000000000000000 ) ;
#37 = AXIS2_PLACEMENT_3D ( 'NONE', #550, #122, #47 ) ;
#38 = VERTEX_POINT ( 'NONE', #749 ) ;
#39 = CARTESIAN_POINT ( 'NONE',  ( -9.500000000000000000, -4.499999999999997335, 19.50000000000000000 ) ) ;
#40 = VERTEX_POINT ( 'NONE', #774 ) ;
#41 = FACE_OUTER_BOUND ( 'NONE', #837, .T. ) ;
#42 = DIRECTION ( 'NONE',  ( 0.000000000000000000, 1.000000000000000000, 5.204170427930416550E-15 ) ) ;
#43 = ORIENTED_EDGE ( 'NONE', *, *, #855, .F. ) ;
#44 = EDGE_CURVE ( 'NONE', #15, #412, #109, .T. ) ;
#45 = DIRECTION ( 'NONE',  ( 0.000000000000000000, 0.000000000000000000, 1.000000000000000000 ) ) ;
#46 = ORIENTED_EDGE ( 'NONE', *, *, #719, .T. ) ;
#47 = DIRECTION ( 'NONE',  ( 1.000000000000000000, 0.000000000000000000, 0.000000000000000000 ) ) ;
#48 = DIRECTION ( 'NONE',  ( 0.000000000000000000, -1.734723475976807094E-15, 1.000000000000000000 ) ) ;
#49 = ORIENTED_EDGE ( 'NONE', *, *, #428, .T. ) ;
#50 = CIRCLE ( 'NONE', #384, 6.499999999999999112 ) ;
#51 = LINE ( 'NONE', #406, #131 ) ;
#52 = ORIENTED_EDGE ( 'NONE', *, *, #776, .T. ) ;
#53 = DIRECTION ( 'NONE',  ( -1.000000000000000000, 0.000000000000000000, 0.000000000000000000 ) ) ;
#54 = CYLINDRICAL_SURFACE ( 'NONE', #156, 0.5000000000000004441 ) ;
#55 = ORIENTED_EDGE ( 'NONE', *, *, #798, .F. ) ;
#56 = DIRECTION ( 'NONE',  ( 0.2751571260974884914, -0.9613992697926135866, 0.000000000000000000 ) ) ;
#57 = DIRECTION ( 'NONE',  ( 1.000000000000000000, 0.000000000000000000, 0.000000000000000000 ) ) ;
#58 = DIRECTION ( 'NONE',  ( -1.000000000000000000, 0.000000000000000000, 0.000000000000000000 ) ) ;
#59 = EDGE_CURVE ( 'NONE', #115, #141, #396, .T. ) ;
#60 = DIRECTION ( 'NONE',  ( 0.000000000000000000, -1.000000000000000000, -6.938893903907233900E-15 ) ) ;
#61 = ORIENTED_EDGE ( 'NONE', *, *, #781, .T. ) ;
#62 = DIRECTION ( 'NONE',  ( 1.000000000000000000, 0.000000000000000000, 0.000000000000000000 ) ) ;
#63 = CARTESIAN_POINT ( 'NONE',  ( 5.000000000000000888, 14.49999999999999112, 20.00000000000000000 ) ) ;
#64 = ADVANCED_FACE ( 'NONE', ( #192 ), #478, .T. ) ;
#65 = CIRCLE ( 'NONE', #747, 0.5000000000000000000 ) ;
#66 = SURFACE_SIDE_STYLE ('',( #784 ) ) ;
#67 = CIRCLE ( 'NONE', #853, 0.5000000000000004441 ) ;
#68 = CARTESIAN_POINT ( 'NONE',  ( -9.500000000000000000, -4.499999999999997335, 20.00000000000000000 ) ) ;
#69 = DIRECTION ( 'NONE',  ( 0.9613992697926138087, -0.2751571260974883248, 0.000000000000000000 ) ) ;
#70 = DIRECTION ( 'NONE',  ( -0.2751571260974910449, 0.9613992697926131425, 0.000000000000000000 ) ) ;
#71 = EDGE_CURVE ( 'NONE', #412, #124, #51, .T. ) ;
#72 = MECHANICAL_DESIGN_GEOMETRIC_PRESENTATION_REPRESENTATION (  '', ( #473 ), #96 ) ;
#73 = LINE ( 'NONE', #498, #570 ) ;
#74 = ORIENTED_EDGE ( 'NONE', *, *, #253, .T. ) ;
#75 = DIRECTION ( 'NONE',  ( -1.000000000000000000, -6.938893903907222067E-15, 0.000000000000000000 ) ) ;
#76 = CARTESIAN_POINT ( 'NONE',  ( -9.500000000000000000, -4.999999999999997335, 20.00000000000000000 ) ) ;
#77 = CARTESIAN_POINT ( 'NONE',  ( -9.500000000000000000, -4.999999999999997335, 0.5000000000000004441 ) ) ;
#78 = FACE_BOUND ( 'NONE', #204, .T. ) ;
#79 = AXIS2_PLACEMENT_3D ( 'NONE', #831, #836, #285 ) ;
#80 = CARTESIAN_POINT ( 'NONE',  ( 6.729794888548295440, 16.42609988268240784, 19.50000000000000000 ) ) ;
#81 = DIRECTION ( 'NONE',  ( 1.734723475976806848E-16, -1.000000000000000000, 0.000000000000000000 ) ) ;
#82 = ORIENTED_EDGE ( 'NONE', *, *, #450, .T. ) ;
#83 = CARTESIAN_POINT ( 'NONE',  ( 6.249095253651987036, 16.28852131963366290, 20.00000000000000000 ) ) ;
#84 = CYLINDRICAL_SURFACE ( 'NONE', #790, 0.5000000000000004441 ) ;
#85 = VECTOR ( 'NONE', #180, 1000.000000000000000 ) ;
#86 =( GEOMETRIC_REPRESENTATION_CONTEXT ( 3 ) GLOBAL_UNCERTAINTY_ASSIGNED_CONTEXT ( ( #514 ) ) GLOBAL_UNIT_ASSIGNED_CONTEXT ( ( #664, #464, #161 ) ) REPRESENTATION_CONTEXT ( 'NONE', 'WORKASPACE' ) );
#87 = ADVANCED_FACE ( 'NONE', ( #328 ), #126, .T. ) ;
#88 = EDGE_LOOP ( 'NONE', ( #696, #374, #453, #592 ) ) ;
#89 = DIRECTION ( 'NONE',  ( 1.000000000000000000, 0.000000000000000000, 0.000000000000000000 ) ) ;
#90 = FILL_AREA_STYLE ('',( #738 ) ) ;
#91 = EDGE_CURVE ( 'NONE', #248, #805, #828, .T. ) ;
#92 = ORIENTED_EDGE ( 'NONE', *, *, #559, .T. ) ;
#93 = DIRECTION ( 'NONE',  ( -0.000000000000000000, -0.000000000000000000, 1.000000000000000000 ) ) ;
#94 = DIRECTION ( 'NONE',  ( 0.000000000000000000, 0.000000000000000000, 1.000000000000000000 ) ) ;
#95 = VECTOR ( 'NONE', #795, 1000.000000000000000 ) ;
#96 =( GEOMETRIC_REPRESENTATION_CONTEXT ( 3 ) GLOBAL_UNCERTAINTY_ASSIGNED_CONTEXT ( ( #163 ) ) GLOBAL_UNIT_ASSIGNED_CONTEXT ( ( #511, #302, #911 ) ) REPRESENTATION_CONTEXT ( 'NONE', 'WORKASPACE' ) );
#97 = ORIENTED_EDGE ( 'NONE', *, *, #300, .T. ) ;
#98 = CARTESIAN_POINT ( 'NONE',  ( 6.249095253651987925, 16.28852131963366290, 0.5000000000000004441 ) ) ;
#99 = ADVANCED_FACE ( 'NONE', ( #683 ), #352, .F. ) ;
#100 = VECTOR ( 'NONE', #264, 1000.000000000000000 ) ;
#101 = AXIS2_PLACEMENT_3D ( 'NONE', #892, #397, #830 ) ;
#102 = ORIENTED_EDGE ( 'NONE', *, *, #71, .F. ) ;
#103 = ORIENTED_EDGE ( 'NONE', *, *, #20, .T. ) ;
#104 = FACE_OUTER_BOUND ( 'NONE', #5, .T. ) ;
#105 = ADVANCED_FACE ( 'NONE', ( #333 ), #275, .T. ) ;
#106 = VECTOR ( 'NONE', #130, 1000.000000000000000 ) ;
#107 = ORIENTED_EDGE ( 'NONE', *, *, #59, .T. ) ;
#108 = CARTESIAN_POINT ( 'NONE',  ( 9.499999999999998224, 4.929856931646925844, 20.00000000000000000 ) ) ;
#109 = LINE ( 'NONE', #134, #535 ) ;
#110 = LINE ( 'NONE', #211, #460 ) ;
#111 = AXIS2_PLACEMENT_3D ( 'NONE', #714, #225, #17 ) ;
#112 = FACE_OUTER_BOUND ( 'NONE', #868, .T. ) ;
#113 = AXIS2_PLACEMENT_3D ( 'NONE', #108, #490, #395 ) ;
#114 = ADVANCED_FACE ( 'NONE', ( #256 ), #198, .F. ) ;
#115 = VERTEX_POINT ( 'NONE', #822 ) ;
#116 = CYLINDRICAL_SURFACE ( 'NONE', #569, 0.5000000000000000000 ) ;
#117 = ORIENTED_EDGE ( 'NONE', *, *, #484, .F. ) ;
#118 = CARTESIAN_POINT ( 'NONE',  ( -10.00000000000000178, 4.929856931646926732, 19.50000000000000000 ) ) ;
#119 = ORIENTED_EDGE ( 'NONE', *, *, #671, .T. ) ;
#120 = DIRECTION ( 'NONE',  ( 0.000000000000000000, 0.000000000000000000, 1.000000000000000000 ) ) ;
#121 = ORIENTED_EDGE ( 'NONE', *, *, #817, .F. ) ;
#122 = DIRECTION ( 'NONE',  ( 0.000000000000000000, 1.000000000000000000, 0.000000000000000000 ) ) ;
#123 = DIRECTION ( 'NONE',  ( -1.734723475976806848E-16, 1.000000000000000000, -0.000000000000000000 ) ) ;
#124 = VERTEX_POINT ( 'NONE', #834 ) ;
#125 = VECTOR ( 'NONE', #288, 1000.000000000000000 ) ;
#126 = SPHERICAL_SURFACE ( 'NONE', #287, 0.5000000000000000000 ) ;
#127 = DIRECTION ( 'NONE',  ( 1.000000000000000000, -3.469446951953611033E-15, 0.000000000000000000 ) ) ;
#128 = ADVANCED_FACE ( 'NONE', ( #254 ), #116, .T. ) ;
#129 = FACE_OUTER_BOUND ( 'NONE', #394, .T. ) ;
#130 = DIRECTION ( 'NONE',  ( 0.000000000000000000, 0.000000000000000000, -1.000000000000000000 ) ) ;
#131 = VECTOR ( 'NONE', #760, 1000.000000000000000 ) ;
#132 = COLOUR_RGB ( '',1.000000000000000000, 1.000000000000000000, 1.000000000000000000 ) ;
#133 = DIRECTION ( 'NONE',  ( 0.000000000000000000, 0.000000000000000000, 1.000000000000000000 ) ) ;
#134 = CARTESIAN_POINT ( 'NONE',  ( -10.00000000000000178, 5.000000000000004441, 0.5000000000000004441 ) ) ;
#135 = CARTESIAN_POINT ( 'NONE',  ( 0.000000000000000000, 14.49999999999999112, 20.00000000000000000 ) ) ;
#136 = UNCERTAINTY_MEASURE_WITH_UNIT (LENGTH_MEASURE( 1.000000000000000082E-05 ), #533, 'distance_accuracy_value', 'NONE');
#137 = ORIENTED_EDGE ( 'NONE', *, *, #870, .F. ) ;
#138 = CARTESIAN_POINT ( 'NONE',  ( 6.249095253651987036, 16.28852131963366290, 19.50000000000000000 ) ) ;
#139 = DIRECTION ( 'NONE',  ( -0.000000000000000000, -0.000000000000000000, 1.000000000000000000 ) ) ;
#140 = AXIS2_PLACEMENT_3D ( 'NONE', #647, #438, #10 ) ;
#141 = VERTEX_POINT ( 'NONE', #263 ) ;
#142 = CIRCLE ( 'NONE', #183, 0.5000000000000004441 ) ;
#143 = DIRECTION ( 'NONE',  ( 0.2751571260974914335, 0.9613992697926129205, -0.000000000000000000 ) ) ;
#144 = ORIENTED_EDGE ( 'NONE', *, *, #526, .T. ) ;
#145 = CARTESIAN_POINT ( 'NONE',  ( 9.499999999999998224, 4.929856931646922291, 19.50000000000000000 ) ) ;
#146 = EDGE_CURVE ( 'NONE', #332, #40, #344, .T. ) ;
#147 = CIRCLE ( 'NONE', #509, 0.5000000000000004441 ) ;
#148 = LINE ( 'NONE', #12, #429 ) ;
#149 = DIRECTION ( 'NONE',  ( -1.734723475976806848E-16, 1.000000000000000000, -0.000000000000000000 ) ) ;
#150 = DIRECTION ( 'NONE',  ( 1.000000000000000000, 0.000000000000000000, -0.000000000000000000 ) ) ;
#151 = ORIENTED_EDGE ( 'NONE', *, *, #711, .F. ) ;
#152 = CARTESIAN_POINT ( 'NONE',  ( 5.000000000000000888, 14.49999999999999112, 20.00000000000000000 ) ) ;
#153 = CARTESIAN_POINT ( 'NONE',  ( -6.249095253651987925, 16.28852131963366645, 0.5000000000000004441 ) ) ;
#154 = FACE_OUTER_BOUND ( 'NONE', #741, .T. ) ;
#155 = LINE ( 'NONE', #358, #661 ) ;
#156 = AXIS2_PLACEMENT_3D ( 'NONE', #206, #481, #763 ) ;
#157 = CARTESIAN_POINT ( 'NONE',  ( 9.999999999999998224, 5.000000000000004441, 0.5000000000000004441 ) ) ;
#158 = EDGE_CURVE ( 'NONE', #38, #347, #858, .T. ) ;
#159 = VERTEX_POINT ( 'NONE', #902 ) ;
#160 = DIRECTION ( 'NONE',  ( 0.2751571260974914335, -0.9613992697926128095, 0.000000000000000000 ) ) ;
#161 =( NAMED_UNIT ( * ) SI_UNIT ( $, .STERADIAN. ) SOLID_ANGLE_UNIT ( ) );
#162 = AXIS2_PLACEMENT_3D ( 'NONE', #467, #697, #838 ) ;
#163 = UNCERTAINTY_MEASURE_WITH_UNIT (LENGTH_MEASURE( 1.000000000000000082E-05 ), #511, 'distance_accuracy_value', 'NONE');
#164 = ORIENTED_EDGE ( 'NONE', *, *, #447, .F. ) ;
#165 = CARTESIAN_POINT ( 'NONE',  ( 9.499999999999998224, 4.929856931646922291, 20.00000000000000000 ) ) ;
#166 = ADVANCED_FACE ( 'NONE', ( #897 ), #270, .F. ) ;
#167 = ORIENTED_EDGE ( 'NONE', *, *, #146, .T. ) ;
#168 = CARTESIAN_POINT ( 'NONE',  ( 9.499999999999998224, 14.49999999999999112, 0.000000000000000000 ) ) ;
#169 = DIRECTION ( 'NONE',  ( 0.9613992697926138087, -0.2751571260974883248, 0.000000000000000000 ) ) ;
#170 = CIRCLE ( 'NONE', #182, 0.5000000000000004441 ) ;
#171 = VECTOR ( 'NONE', #445, 1000.000000000000114 ) ;
#172 = PRODUCT_DEFINITION_CONTEXT ( 'detailed design', #833, 'design' ) ;
#173 = ORIENTED_EDGE ( 'NONE', *, *, #893, .F. ) ;
#174 = EDGE_CURVE ( 'NONE', #558, #32, #419, .T. ) ;
#175 = CIRCLE ( 'NONE', #753, 6.999999999999999112 ) ;
#176 = EDGE_LOOP ( 'NONE', ( #826, #274, #482, #778 ) ) ;
#177 =( NAMED_UNIT ( * ) SI_UNIT ( $, .STERADIAN. ) SOLID_ANGLE_UNIT ( ) );
#178 = EDGE_CURVE ( 'NONE', #736, #248, #702, .T. ) ;
#179 = ORIENTED_EDGE ( 'NONE', *, *, #622, .F. ) ;
#180 = DIRECTION ( 'NONE',  ( 0.000000000000000000, -0.000000000000000000, 1.000000000000000000 ) ) ;
#181 = EDGE_CURVE ( 'NONE', #29, #489, #582, .T. ) ;
#182 = AXIS2_PLACEMENT_3D ( 'NONE', #452, #93, #557 ) ;
#183 = AXIS2_PLACEMENT_3D ( 'NONE', #296, #792, #635 ) ;
#184 = CARTESIAN_POINT ( 'NONE',  ( 0.000000000000000000, -4.499999999999999112, 19.50000000000000000 ) ) ;
#185 = ORIENTED_EDGE ( 'NONE', *, *, #476, .F. ) ;
#186 = CARTESIAN_POINT ( 'NONE',  ( -10.00000000000000178, 5.000000000000004441, 0.5000000000000004441 ) ) ;
#187 = VERTEX_POINT ( 'NONE', #152 ) ;
#188 = CYLINDRICAL_SURFACE ( 'NONE', #370, 0.5000000000000000000 ) ;
#189 = AXIS2_PLACEMENT_3D ( 'NONE', #326, #604, #392 ) ;
#190 = DIRECTION ( 'NONE',  ( 1.000000000000000000, 0.000000000000000000, 0.000000000000000000 ) ) ;
#191 = ORIENTED_EDGE ( 'NONE', *, *, #476, .T. ) ;
#192 = FACE_OUTER_BOUND ( 'NONE', #873, .T. ) ;
#193 = EDGE_LOOP ( 'NONE', ( #144, #191, #43, #463 ) ) ;
#194 = DIRECTION ( 'NONE',  ( -1.000000000000000000, 0.000000000000000000, 0.000000000000000000 ) ) ;
#195 = FACE_OUTER_BOUND ( 'NONE', #307, .T. ) ;
#196 = ORIENTED_EDGE ( 'NONE', *, *, #240, .T. ) ;
#197 = EDGE_CURVE ( 'NONE', #32, #15, #175, .T. ) ;
#198 = PLANE ( 'NONE',  #162 ) ;
#199 = CARTESIAN_POINT ( 'NONE',  ( -9.500000000000001776, 4.929856931646926732, 19.50000000000000000 ) ) ;
#200 = CARTESIAN_POINT ( 'NONE',  ( 9.499999999999998224, 5.000000000000004441, 20.00000000000000000 ) ) ;
#201 = DIRECTION ( 'NONE',  ( 0.2751571260974885469, 0.9613992697926136977, -0.000000000000000000 ) ) ;
#202 = ORIENTED_EDGE ( 'NONE', *, *, #878, .F. ) ;
#203 = DIRECTION ( 'NONE',  ( 0.000000000000000000, 0.000000000000000000, 1.000000000000000000 ) ) ;
#204 = EDGE_LOOP ( 'NONE', ( #845, #813 ) ) ;
#205 = CARTESIAN_POINT ( 'NONE',  ( 9.499999999999998224, -4.499999999999997335, 0.5000000000000000000 ) ) ;
#206 = CARTESIAN_POINT ( 'NONE',  ( -9.500000000000001776, 4.929856931646926732, 20.00000000000000000 ) ) ;
#207 = PRESENTATION_LAYER_ASSIGNMENT (  '', '', ( #473 ) ) ;
#208 = CIRCLE ( 'NONE', #101, 0.5000000000000004441 ) ;
#209 = VERTEX_POINT ( 'NONE', #228 ) ;
#210 = VERTEX_POINT ( 'NONE', #366 ) ;
#211 = CARTESIAN_POINT ( 'NONE',  ( -6.729794888548297216, 16.42609988268241139, 19.50000000000000000 ) ) ;
#212 = CARTESIAN_POINT ( 'NONE',  ( 0.000000000000000000, 14.49999999999999112, 20.00000000000000000 ) ) ;
#213 = ORIENTED_EDGE ( 'NONE', *, *, #178, .T. ) ;
#214 = CARTESIAN_POINT ( 'NONE',  ( -10.00000000000000000, -4.999999999999997335, 0.5000000000000004441 ) ) ;
#215 = DIRECTION ( 'NONE',  ( 0.9613992697926136977, -0.2751571260974886024, 0.000000000000000000 ) ) ;
#216 = EDGE_CURVE ( 'NONE', #832, #546, #718, .T. ) ;
#217 = CIRCLE ( 'NONE', #734, 0.5000000000000004441 ) ;
#218 = PRESENTATION_STYLE_ASSIGNMENT (( #362 ) ) ;
#219 = CIRCLE ( 'NONE', #735, 0.5000000000000003331 ) ;
#220 = CARTESIAN_POINT ( 'NONE',  ( -10.00000000000000178, 5.000000000000004441, 19.50000000000000000 ) ) ;
#221 = CARTESIAN_POINT ( 'NONE',  ( -6.249095253651989701, 16.28852131963366645, 0.000000000000000000 ) ) ;
#222 = ORIENTED_EDGE ( 'NONE', *, *, #901, .F. ) ;
#223 = MANIFOLD_SOLID_BREP ( 'Ô²½Ç1', #772 ) ;
#224 = VECTOR ( 'NONE', #432, 1000.000000000000000 ) ;
#225 = DIRECTION ( 'NONE',  ( 0.2751571260974882693, 0.9613992697926139197, -0.000000000000000000 ) ) ;
#226 = CARTESIAN_POINT ( 'NONE',  ( 9.999999999999998224, -4.499999999999997335, 20.00000000000000000 ) ) ;
#227 = ORIENTED_EDGE ( 'NONE', *, *, #447, .T. ) ;
#228 = CARTESIAN_POINT ( 'NONE',  ( -9.500000000000000000, -4.499999999999997335, 0.000000000000000000 ) ) ;
#229 = EDGE_CURVE ( 'NONE', #439, #159, #708, .T. ) ;
#230 = DIRECTION ( 'NONE',  ( 0.000000000000000000, 0.000000000000000000, -1.000000000000000000 ) ) ;
#231 = ORIENTED_EDGE ( 'NONE', *, *, #27, .F. ) ;
#232 = DIRECTION ( 'NONE',  ( 1.000000000000000000, -0.000000000000000000, 0.000000000000000000 ) ) ;
#233 = AXIS2_PLACEMENT_3D ( 'NONE', #724, #81, #373 ) ;
#234 = CYLINDRICAL_SURFACE ( 'NONE', #536, 0.4999999999999998335 ) ;
#235 = EDGE_LOOP ( 'NONE', ( #252, #611, #681, #164 ) ) ;
#236 = CARTESIAN_POINT ( 'NONE',  ( 9.980699634896303962, 5.067435494695669895, 19.50000000000000000 ) ) ;
#237 = AXIS2_PLACEMENT_3D ( 'NONE', #367, #143, #573 ) ;
#238 = PRESENTATION_STYLE_ASSIGNMENT (( #462 ) ) ;
#239 = AXIS2_PLACEMENT_3D ( 'NONE', #560, #538, #120 ) ;
#240 = EDGE_CURVE ( 'NONE', #672, #40, #722, .T. ) ;
#241 = ORIENTED_EDGE ( 'NONE', *, *, #825, .T. ) ;
#242 = DIRECTION ( 'NONE',  ( 1.000000000000000000, 0.000000000000000000, 0.000000000000000000 ) ) ;
#243 = APPLICATION_PROTOCOL_DEFINITION ( 'draft international standard', 'automotive_design', 1998, #862 ) ;
#244 = ORIENTED_EDGE ( 'NONE', *, *, #158, .F. ) ;
#245 = CARTESIAN_POINT ( 'NONE',  ( 9.499999999999998224, 4.929856931646924068, 0.5000000000000000000 ) ) ;
#246 = AXIS2_PLACEMENT_3D ( 'NONE', #421, #265, #679 ) ;
#247 = AXIS2_PLACEMENT_3D ( 'NONE', #138, #70, #1 ) ;
#248 = VERTEX_POINT ( 'NONE', #713 ) ;
#249 = EDGE_CURVE ( 'NONE', #805, #332, #67, .T. ) ;
#250 = SHAPE_DEFINITION_REPRESENTATION ( #310, #418 ) ;
#251 = VECTOR ( 'NONE', #819, 1000.000000000000114 ) ;
#252 = ORIENTED_EDGE ( 'NONE', *, *, #146, .F. ) ;
#253 = EDGE_CURVE ( 'NONE', #347, #558, #148, .T. ) ;
#254 = FACE_OUTER_BOUND ( 'NONE', #900, .T. ) ;
#255 = ORIENTED_EDGE ( 'NONE', *, *, #44, .T. ) ;
#256 = FACE_OUTER_BOUND ( 'NONE', #629, .T. ) ;
#257 = EDGE_LOOP ( 'NONE', ( #103, #276, #231, #55 ) ) ;
#258 = CARTESIAN_POINT ( 'NONE',  ( -6.249095253651989701, 16.28852131963366645, 0.000000000000000000 ) ) ;
#259 = CIRCLE ( 'NONE', #33, 0.5000000000000000000 ) ;
#260 = CIRCLE ( 'NONE', #247, 0.5000000000000003331 ) ;
#261 = CYLINDRICAL_SURFACE ( 'NONE', #444, 0.5000000000000004441 ) ;
#262 = ORIENTED_EDGE ( 'NONE', *, *, #289, .F. ) ;
#263 = CARTESIAN_POINT ( 'NONE',  ( 9.499999999999998224, 4.929856931646926732, 0.000000000000000000 ) ) ;
#264 = DIRECTION ( 'NONE',  ( -0.000000000000000000, -0.000000000000000000, -1.000000000000000000 ) ) ;
#265 = DIRECTION ( 'NONE',  ( 1.000000000000000000, 0.000000000000000000, 0.000000000000000000 ) ) ;
#266 = VECTOR ( 'NONE', #139, 1000.000000000000000 ) ;
#267 = ADVANCED_FACE ( 'NONE', ( #431 ), #435, .F. ) ;
#268 = FACE_OUTER_BOUND ( 'NONE', #18, .T. ) ;
#269 = EDGE_LOOP ( 'NONE', ( #518, #537, #620 ) ) ;
#270 = PLANE ( 'NONE',  #239 ) ;
#271 = EDGE_LOOP ( 'NONE', ( #726, #301, #764, #255 ) ) ;
#272 = CYLINDRICAL_SURFACE ( 'NONE', #613, 0.5000000000000004441 ) ;
#273 = CARTESIAN_POINT ( 'NONE',  ( -6.249095253651989701, 16.28852131963366645, 19.50000000000000000 ) ) ;
#274 = ORIENTED_EDGE ( 'NONE', *, *, #846, .F. ) ;
#275 = SPHERICAL_SURFACE ( 'NONE', #739, 0.5000000000000000000 ) ;
#276 = ORIENTED_EDGE ( 'NONE', *, *, #240, .F. ) ;
#277 = DIRECTION ( 'NONE',  ( 1.000000000000000000, 0.000000000000000000, 0.000000000000000000 ) ) ;
#278 = CYLINDRICAL_SURFACE ( 'NONE', #456, 6.999999999999999112 ) ;
#279 = AXIS2_PLACEMENT_3D ( 'NONE', #593, #382, #869 ) ;
#280 = ORIENTED_EDGE ( 'NONE', *, *, #865, .T. ) ;
#281 = DIRECTION ( 'NONE',  ( 0.000000000000000000, 0.000000000000000000, 1.000000000000000000 ) ) ;
#282 = EDGE_CURVE ( 'NONE', #546, #707, #797, .T. ) ;
#283 = ORIENTED_EDGE ( 'NONE', *, *, #719, .F. ) ;
#284 = DIRECTION ( 'NONE',  ( 0.000000000000000000, 0.000000000000000000, 1.000000000000000000 ) ) ;
#285 = DIRECTION ( 'NONE',  ( 1.000000000000000000, 0.000000000000000000, 0.000000000000000000 ) ) ;
#286 = AXIS2_PLACEMENT_3D ( 'NONE', #425, #215, #298 ) ;
#287 = AXIS2_PLACEMENT_3D ( 'NONE', #890, #554, #60 ) ;
#288 = DIRECTION ( 'NONE',  ( 1.734723475976806848E-16, -1.000000000000000000, 0.000000000000000000 ) ) ;
#289 = EDGE_CURVE ( 'NONE', #413, #755, #142, .T. ) ;
#290 = DIRECTION ( 'NONE',  ( 0.000000000000000000, 1.000000000000000000, 0.000000000000000000 ) ) ;
#291 = SPHERICAL_SURFACE ( 'NONE', #487, 0.5000000000000000000 ) ;
#292 = CARTESIAN_POINT ( 'NONE',  ( 9.499999999999998224, -4.499999999999997335, 0.5000000000000000000 ) ) ;
#293 = CARTESIAN_POINT ( 'NONE',  ( 9.999999999999998224, 4.929856931646925844, 20.00000000000000000 ) ) ;
#294 = CARTESIAN_POINT ( 'NONE',  ( 9.499999999999998224, -4.499999999999999112, 19.50000000000000000 ) ) ;
#295 = VECTOR ( 'NONE', #123, 1000.000000000000000 ) ;
#296 = CARTESIAN_POINT ( 'NONE',  ( 9.499999999999998224, -4.499999999999997335, 19.50000000000000000 ) ) ;
#297 = VECTOR ( 'NONE', #524, 1000.000000000000000 ) ;
#298 = DIRECTION ( 'NONE',  ( 0.2751571260974885469, 0.9613992697926135866, 0.000000000000000000 ) ) ;
#299 = LINE ( 'NONE', #226, #95 ) ;
#300 = EDGE_CURVE ( 'NONE', #816, #489, #155, .T. ) ;
#301 = ORIENTED_EDGE ( 'NONE', *, *, #711, .T. ) ;
#302 =( NAMED_UNIT ( * ) PLANE_ANGLE_UNIT ( ) SI_UNIT ( $, .RADIAN. ) );
#303 = LINE ( 'NONE', #157, #804 ) ;
#304 = ORIENTED_EDGE ( 'NONE', *, *, #597, .F. ) ;
#305 = DIRECTION ( 'NONE',  ( 0.000000000000000000, 0.000000000000000000, -1.000000000000000000 ) ) ;
#306 = CARTESIAN_POINT ( 'NONE',  ( 9.499999999999998224, 4.929856931646925844, 19.50000000000000000 ) ) ;
#307 = EDGE_LOOP ( 'NONE', ( #903, #879, #318, #102 ) ) ;
#308 = CYLINDRICAL_SURFACE ( 'NONE', #279, 0.5000000000000003331 ) ;
#309 = AXIS2_PLACEMENT_3D ( 'NONE', #508, #513, #150 ) ;
#310 = PRODUCT_DEFINITION_SHAPE ( 'NONE', 'NONE',  #551 ) ;
#311 = ADVANCED_FACE ( 'NONE', ( #630 ), #566, .T. ) ;
#312 = CARTESIAN_POINT ( 'NONE',  ( -9.519300365103696038, 4.862421436951260389, 0.5000000000000004441 ) ) ;
#313 = ORIENTED_EDGE ( 'NONE', *, *, #390, .T. ) ;
#314 = DIRECTION ( 'NONE',  ( 0.000000000000000000, 0.000000000000000000, -1.000000000000000000 ) ) ;
#315 = PRESENTATION_LAYER_ASSIGNMENT (  '', '', ( #881 ) ) ;
#316 = AXIS2_PLACEMENT_3D ( 'NONE', #35, #94, #26 ) ;
#317 = EDGE_CURVE ( 'NONE', #159, #884, #260, .T. ) ;
#318 = ORIENTED_EDGE ( 'NONE', *, *, #31, .F. ) ;
#319 = SPHERICAL_SURFACE ( 'NONE', #9, 0.5000000000000000000 ) ;
#320 =( NAMED_UNIT ( * ) PLANE_ANGLE_UNIT ( ) SI_UNIT ( $, .RADIAN. ) );
#321 = EDGE_CURVE ( 'NONE', #458, #783, #457, .T. ) ;
#322 = ORIENTED_EDGE ( 'NONE', *, *, #216, .T. ) ;
#323 = AXIS2_PLACEMENT_3D ( 'NONE', #294, #577, #403 ) ;
#324 = EDGE_CURVE ( 'NONE', #712, #115, #50, .T. ) ;
#325 = EDGE_LOOP ( 'NONE', ( #119, #670, #818, #364 ) ) ;
#326 = CARTESIAN_POINT ( 'NONE',  ( 9.499999999999998224, 14.49999999999999112, 19.50000000000000000 ) ) ;
#327 = EDGE_LOOP ( 'NONE', ( #334, #280, #283 ) ) ;
#328 = FACE_OUTER_BOUND ( 'NONE', #829, .T. ) ;
#329 = ORIENTED_EDGE ( 'NONE', *, *, #893, .T. ) ;
#330 = SPHERICAL_SURFACE ( 'NONE', #337, 0.5000000000000000000 ) ;
#331 = CARTESIAN_POINT ( 'NONE',  ( 9.999999999999998224, -4.999999999999999112, 19.50000000000000000 ) ) ;
#332 = VERTEX_POINT ( 'NONE', #874 ) ;
#333 = FACE_OUTER_BOUND ( 'NONE', #732, .T. ) ;
#334 = ORIENTED_EDGE ( 'NONE', *, *, #484, .T. ) ;
#335 = ADVANCED_FACE ( 'NONE', ( #112 ), #599, .T. ) ;
#336 = DIRECTION ( 'NONE',  ( 0.000000000000000000, 0.000000000000000000, -1.000000000000000000 ) ) ;
#337 = AXIS2_PLACEMENT_3D ( 'NONE', #205, #908, #194 ) ;
#338 = CARTESIAN_POINT ( 'NONE',  ( -10.00000000000000178, 4.929856931646926732, 20.00000000000000000 ) ) ;
#339 = ORIENTED_EDGE ( 'NONE', *, *, #216, .F. ) ;
#340 = DIRECTION ( 'NONE',  ( -1.000000000000000000, 0.000000000000000000, 0.000000000000000000 ) ) ;
#341 = ORIENTED_EDGE ( 'NONE', *, *, #229, .T. ) ;
#342 = CARTESIAN_POINT ( 'NONE',  ( -6.249095253651989701, 16.28852131963366645, 20.00000000000000000 ) ) ;
#343 = EDGE_CURVE ( 'NONE', #546, #783, #812, .T. ) ;
#344 = CIRCLE ( 'NONE', #415, 0.5000000000000004441 ) ;
#345 = CIRCLE ( 'NONE', #844, 5.000000000000000888 ) ;
#346 = DIRECTION ( 'NONE',  ( 0.000000000000000000, 0.000000000000000000, 1.000000000000000000 ) ) ;
#347 = VERTEX_POINT ( 'NONE', #236 ) ;
#348 = CARTESIAN_POINT ( 'NONE',  ( 9.499999999999998224, 5.000000000000004441, 0.5000000000000004441 ) ) ;
#349 = ORIENTED_EDGE ( 'NONE', *, *, #59, .F. ) ;
#350 = CARTESIAN_POINT ( 'NONE',  ( 0.000000000000000000, 14.49999999999999112, 20.00000000000000000 ) ) ;
#351 = DIRECTION ( 'NONE',  ( -1.000000000000000000, -0.000000000000000000, -0.000000000000000000 ) ) ;
#352 = PLANE ( 'NONE',  #815 ) ;
#353 = ORIENTED_EDGE ( 'NONE', *, *, #324, .F. ) ;
#354 = DIRECTION ( 'NONE',  ( 1.000000000000000000, -9.912705577010326536E-16, 0.000000000000000000 ) ) ;
#355 = DIRECTION ( 'NONE',  ( 1.000000000000000000, 0.000000000000000000, 0.000000000000000000 ) ) ;
#356 = CIRCLE ( 'NONE', #591, 0.5000000000000004441 ) ;
#357 = EDGE_CURVE ( 'NONE', #115, #32, #219, .T. ) ;
#358 = CARTESIAN_POINT ( 'NONE',  ( -5.000000000000000888, 14.49999999999999112, 20.00000000000000000 ) ) ;
#359 = CARTESIAN_POINT ( 'NONE',  ( 0.000000000000000000, 14.49999999999999112, 20.00000000000000000 ) ) ;
#360 = CARTESIAN_POINT ( 'NONE',  ( 9.499999999999998224, -4.999999999999997335, 0.5000000000000004441 ) ) ;
#361 = AXIS2_PLACEMENT_3D ( 'NONE', #135, #694, #408 ) ;
#362 = SURFACE_STYLE_USAGE ( .BOTH. , #66 ) ;
#363 = DIRECTION ( 'NONE',  ( 1.000000000000000000, 0.000000000000000000, 0.000000000000000000 ) ) ;
#364 = ORIENTED_EDGE ( 'NONE', *, *, #91, .F. ) ;
#365 = FACE_OUTER_BOUND ( 'NONE', #688, .T. ) ;
#366 = CARTESIAN_POINT ( 'NONE',  ( 9.999999999999998224, 4.929856931646925844, 0.5000000000000004441 ) ) ;
#367 = CARTESIAN_POINT ( 'NONE',  ( -6.249095253651989701, 16.28852131963366645, 19.50000000000000000 ) ) ;
#368 = ADVANCED_FACE ( 'NONE', ( #528 ), #876, .T. ) ;
#369 = CYLINDRICAL_SURFACE ( 'NONE', #140, 5.000000000000000888 ) ;
#370 = AXIS2_PLACEMENT_3D ( 'NONE', #493, #277, #336 ) ;
#371 = LINE ( 'NONE', #220, #729 ) ;
#372 = EDGE_CURVE ( 'NONE', #141, #783, #809, .T. ) ;
#373 = DIRECTION ( 'NONE',  ( 1.000000000000000000, 0.000000000000000000, 0.000000000000000000 ) ) ;
#374 = ORIENTED_EDGE ( 'NONE', *, *, #674, .T. ) ;
#375 = CIRCLE ( 'NONE', #459, 0.5000000000000004441 ) ;
#376 = CIRCLE ( 'NONE', #111, 0.4999999999999998335 ) ;
#377 = DIRECTION ( 'NONE',  ( -0.2751571260974884914, 0.9613992697926136977, 0.000000000000000000 ) ) ;
#378 = DIRECTION ( 'NONE',  ( -1.000000000000000000, 1.734723475976805517E-15, 0.000000000000000000 ) ) ;
#379 = ORIENTED_EDGE ( 'NONE', *, *, #745, .F. ) ;
#380 = SURFACE_STYLE_FILL_AREA ( #90 ) ;
#381 = ORIENTED_EDGE ( 'NONE', *, *, #759, .T. ) ;
#382 = DIRECTION ( 'NONE',  ( 0.2751571260974884914, -0.9613992697926136977, 0.000000000000000000 ) ) ;
#383 = EDGE_CURVE ( 'NONE', #587, #15, #659, .T. ) ;
#384 = AXIS2_PLACEMENT_3D ( 'NONE', #454, #733, #190 ) ;
#385 = ORIENTED_EDGE ( 'NONE', *, *, #742, .F. ) ;
#386 = FACE_OUTER_BOUND ( 'NONE', #327, .T. ) ;
#387 = PRODUCT_RELATED_PRODUCT_CATEGORY ( 'part', '', ( #673 ) ) ;
#388 = MECHANICAL_DESIGN_GEOMETRIC_PRESENTATION_REPRESENTATION (  '', ( #881 ), #86 ) ;
#389 = ORIENTED_EDGE ( 'NONE', *, *, #174, .T. ) ;
#390 = EDGE_CURVE ( 'NONE', #707, #332, #806, .T. ) ;
#391 = ORIENTED_EDGE ( 'NONE', *, *, #817, .T. ) ;
#392 = DIRECTION ( 'NONE',  ( 0.000000000000000000, 0.000000000000000000, -1.000000000000000000 ) ) ;
#393 = ADVANCED_FACE ( 'NONE', ( #19 ), #821, .T. ) ;
#394 = EDGE_LOOP ( 'NONE', ( #500, #339, #618, #137 ) ) ;
#395 = DIRECTION ( 'NONE',  ( -1.000000000000000000, 0.000000000000000000, 0.000000000000000000 ) ) ;
#396 = LINE ( 'NONE', #639, #843 ) ;
#397 = DIRECTION ( 'NONE',  ( -0.000000000000000000, -0.000000000000000000, 1.000000000000000000 ) ) ;
#398 = PRODUCT_DEFINITION_FORMATION_WITH_SPECIFIED_SOURCE ( 'ÈÎºÎ', '', #673, .NOT_KNOWN. ) ;
#399 = DIRECTION ( 'NONE',  ( 0.000000000000000000, 0.000000000000000000, 1.000000000000000000 ) ) ;
#400 = ORIENTED_EDGE ( 'NONE', *, *, #343, .T. ) ;
#401 = ADVANCED_FACE ( 'NONE', ( #386 ), #319, .T. ) ;
#402 = ORIENTED_EDGE ( 'NONE', *, *, #3, .F. ) ;
#403 = DIRECTION ( 'NONE',  ( 0.000000000000000000, 0.000000000000000000, -1.000000000000000000 ) ) ;
#404 = LINE ( 'NONE', #777, #648 ) ;
#405 = ORIENTED_EDGE ( 'NONE', *, *, #441, .F. ) ;
#406 = CARTESIAN_POINT ( 'NONE',  ( -9.980699634896307515, 5.067435494695670783, 20.00000000000000000 ) ) ;
#407 = ORIENTED_EDGE ( 'NONE', *, *, #622, .T. ) ;
#408 = DIRECTION ( 'NONE',  ( -1.000000000000000000, 0.000000000000000000, 0.000000000000000000 ) ) ;
#409 = CIRCLE ( 'NONE', #7, 6.999999999999999112 ) ;
#410 = AXIS2_PLACEMENT_3D ( 'NONE', #864, #519, #89 ) ;
#411 = CARTESIAN_POINT ( 'NONE',  ( -5.000000000000000888, 14.49999999999999112, 0.000000000000000000 ) ) ;
#412 = VERTEX_POINT ( 'NONE', #531 ) ;
#413 = VERTEX_POINT ( 'NONE', #802 ) ;
#414 = CARTESIAN_POINT ( 'NONE',  ( 9.499999999999998224, -4.499999999999997335, 19.50000000000000000 ) ) ;
#415 = AXIS2_PLACEMENT_3D ( 'NONE', #619, #340, #203 ) ;
#416 = CIRCLE ( 'NONE', #871, 6.499999999999999112 ) ;
#417 = DIRECTION ( 'NONE',  ( 1.000000000000000000, 0.000000000000000000, -0.000000000000000000 ) ) ;
#418 = ADVANCED_BREP_SHAPE_REPRESENTATION ( 'Æø¸××ù', ( #223, #316 ), #896 ) ;
#419 = LINE ( 'NONE', #689, #251 ) ;
#420 = DIRECTION ( 'NONE',  ( -0.2751571260974885469, -0.9613992697926135866, 0.000000000000000000 ) ) ;
#421 = CARTESIAN_POINT ( 'NONE',  ( -9.500000000000001776, 4.929856931646926732, 0.5000000000000000000 ) ) ;
#422 = ADVANCED_FACE ( 'NONE', ( #468 ), #261, .T. ) ;
#423 = CARTESIAN_POINT ( 'NONE',  ( -9.500000000000000000, -4.499999999999997335, 0.5000000000000000000 ) ) ;
#424 = ORIENTED_EDGE ( 'NONE', *, *, #428, .F. ) ;
#425 = CARTESIAN_POINT ( 'NONE',  ( -10.00000000000000178, 5.000000000000004441, 20.00000000000000000 ) ) ;
#426 = FACE_OUTER_BOUND ( 'NONE', #746, .T. ) ;
#427 = VECTOR ( 'NONE', #545, 1000.000000000000000 ) ;
#428 = EDGE_CURVE ( 'NONE', #38, #755, #680, .T. ) ;
#429 = VECTOR ( 'NONE', #644, 1000.000000000000000 ) ;
#430 = ORIENTED_EDGE ( 'NONE', *, *, #20, .F. ) ;
#431 = FACE_OUTER_BOUND ( 'NONE', #907, .T. ) ;
#432 = DIRECTION ( 'NONE',  ( -0.000000000000000000, 0.000000000000000000, -1.000000000000000000 ) ) ;
#433 = ORIENTED_EDGE ( 'NONE', *, *, #742, .T. ) ;
#434 = DIRECTION ( 'NONE',  ( -6.938893903907221278E-15, 1.000000000000000000, 0.000000000000000000 ) ) ;
#435 = PLANE ( 'NONE',  #506 ) ;
#436 = ADVANCED_FACE ( 'NONE', ( #731 ), #308, .T. ) ;
#437 = DIRECTION ( 'NONE',  ( -0.000000000000000000, 0.000000000000000000, -1.000000000000000000 ) ) ;
#438 = DIRECTION ( 'NONE',  ( -0.000000000000000000, -0.000000000000000000, -1.000000000000000000 ) ) ;
#439 = VERTEX_POINT ( 'NONE', #165 ) ;
#440 = DIRECTION ( 'NONE',  ( -0.000000000000000000, -0.000000000000000000, 1.000000000000000000 ) ) ;
#441 = EDGE_CURVE ( 'NONE', #546, #458, #170, .T. ) ;
#442 = DIRECTION ( 'NONE',  ( 0.9613992697926128095, -0.2751571260974914890, 0.000000000000000000 ) ) ;
#443 = CYLINDRICAL_SURFACE ( 'NONE', #233, 0.5000000000000004441 ) ;
#444 = AXIS2_PLACEMENT_3D ( 'NONE', #184, #751, #399 ) ;
#445 = DIRECTION ( 'NONE',  ( -0.2751571260974884914, 0.9613992697926135866, 0.000000000000000000 ) ) ;
#446 = DIRECTION ( 'NONE',  ( 0.000000000000000000, 1.000000000000000000, -0.000000000000000000 ) ) ;
#447 = EDGE_CURVE ( 'NONE', #40, #413, #404, .T. ) ;
#448 = ORIENTED_EDGE ( 'NONE', *, *, #44, .F. ) ;
#449 = DIRECTION ( 'NONE',  ( 0.9613992697926128095, 0.2751571260974914890, 0.000000000000000000 ) ) ;
#450 = EDGE_CURVE ( 'NONE', #412, #808, #725, .T. ) ;
#451 = ORIENTED_EDGE ( 'NONE', *, *, #357, .F. ) ;
#452 = CARTESIAN_POINT ( 'NONE',  ( 9.499999999999998224, -4.499999999999997335, 0.5000000000000004441 ) ) ;
#453 = ORIENTED_EDGE ( 'NONE', *, *, #3, .T. ) ;
#454 = CARTESIAN_POINT ( 'NONE',  ( 0.000000000000000000, 14.49999999999999112, 0.000000000000000000 ) ) ;
#455 = EDGE_CURVE ( 'NONE', #715, #736, #503, .T. ) ;
#456 = AXIS2_PLACEMENT_3D ( 'NONE', #212, #563, #695 ) ;
#457 = CIRCLE ( 'NONE', #710, 0.5000000000000000000 ) ;
#458 = VERTEX_POINT ( 'NONE', #628 ) ;
#459 = AXIS2_PLACEMENT_3D ( 'NONE', #542, #485, #57 ) ;
#460 = VECTOR ( 'NONE', #700, 1000.000000000000114 ) ;
#461 = EDGE_CURVE ( 'NONE', #209, #832, #259, .T. ) ;
#462 = SURFACE_STYLE_USAGE ( .BOTH. , #803 ) ;
#463 = ORIENTED_EDGE ( 'NONE', *, *, #300, .F. ) ;
#464 =( NAMED_UNIT ( * ) PLANE_ANGLE_UNIT ( ) SI_UNIT ( $, .RADIAN. ) );
#465 = ADVANCED_FACE ( 'NONE', ( #268, #687 ), #909, .F. ) ;
#466 = ORIENTED_EDGE ( 'NONE', *, *, #781, .F. ) ;
#467 = CARTESIAN_POINT ( 'NONE',  ( -10.00000000000000000, -4.999999999999997335, 20.00000000000000000 ) ) ;
#468 = FACE_OUTER_BOUND ( 'NONE', #235, .T. ) ;
#469 = ORIENTED_EDGE ( 'NONE', *, *, #692, .F. ) ;
#470 = DIRECTION ( 'NONE',  ( 1.734723475976806848E-16, -1.000000000000000000, 0.000000000000000000 ) ) ;
#471 = CIRCLE ( 'NONE', #595, 0.4999999999999998335 ) ;
#472 = CARTESIAN_POINT ( 'NONE',  ( 6.729794888548295440, 16.42609988268240784, 20.00000000000000000 ) ) ;
#473 = STYLED_ITEM ( 'NONE', ( #218 ), #223 ) ;
#474 = DIRECTION ( 'NONE',  ( -0.2751571260974885469, -0.9613992697926135866, 0.000000000000000000 ) ) ;
#475 = DIRECTION ( 'NONE',  ( -0.000000000000000000, 1.000000000000000000, -0.000000000000000000 ) ) ;
#476 = EDGE_CURVE ( 'NONE', #187, #29, #488, .T. ) ;
#477 = ORIENTED_EDGE ( 'NONE', *, *, #317, .T. ) ;
#478 = CYLINDRICAL_SURFACE ( 'NONE', #113, 0.5000000000000004441 ) ;
#479 = ORIENTED_EDGE ( 'NONE', *, *, #640, .F. ) ;
#480 = DIRECTION ( 'NONE',  ( -0.000000000000000000, -0.000000000000000000, -1.000000000000000000 ) ) ;
#481 = DIRECTION ( 'NONE',  ( 0.000000000000000000, 0.000000000000000000, -1.000000000000000000 ) ) ;
#482 = ORIENTED_EDGE ( 'NONE', *, *, #317, .F. ) ;
#483 = CARTESIAN_POINT ( 'NONE',  ( 6.729794888548294551, 16.42609988268240784, 20.00000000000000000 ) ) ;
#484 = EDGE_CURVE ( 'NONE', #210, #141, #65, .T. ) ;
#485 = DIRECTION ( 'NONE',  ( 0.000000000000000000, 0.000000000000000000, 1.000000000000000000 ) ) ;
#486 = CYLINDRICAL_SURFACE ( 'NONE', #361, 5.000000000000000888 ) ;
#487 = AXIS2_PLACEMENT_3D ( 'NONE', #574, #581, #14 ) ;
#488 = LINE ( 'NONE', #63, #690 ) ;
#489 = VERTEX_POINT ( 'NONE', #411 ) ;
#490 = DIRECTION ( 'NONE',  ( 0.000000000000000000, 0.000000000000000000, -1.000000000000000000 ) ) ;
#491 = ORIENTED_EDGE ( 'NONE', *, *, #289, .T. ) ;
#492 = ADVANCED_FACE ( 'NONE', ( #634 ), #278, .T. ) ;
#493 = CARTESIAN_POINT ( 'NONE',  ( -10.00000000000000000, -4.499999999999997335, 0.5000000000000004441 ) ) ;
#494 = CIRCLE ( 'NONE', #523, 0.5000000000000004441 ) ;
#495 = CARTESIAN_POINT ( 'NONE',  ( 0.000000000000000000, 14.49999999999999112, 20.00000000000000000 ) ) ;
#496 = ORIENTED_EDGE ( 'NONE', *, *, #455, .T. ) ;
#497 = DIRECTION ( 'NONE',  ( 1.000000000000000000, 0.000000000000000000, 0.000000000000000000 ) ) ;
#498 = CARTESIAN_POINT ( 'NONE',  ( 9.999999999999998224, 5.000000000000004441, 19.50000000000000000 ) ) ;
#499 = LINE ( 'NONE', #571, #295 ) ;
#500 = ORIENTED_EDGE ( 'NONE', *, *, #343, .F. ) ;
#501 = FILL_AREA_STYLE_COLOUR ( '', #36 ) ;
#502 = DIRECTION ( 'NONE',  ( 0.000000000000000000, 0.000000000000000000, 1.000000000000000000 ) ) ;
#503 = LINE ( 'NONE', #338, #106 ) ;
#504 = AXIS2_PLACEMENT_3D ( 'NONE', #273, #201, #701 ) ;
#505 = ADVANCED_FACE ( 'NONE', ( #705 ), #800, .T. ) ;
#506 = AXIS2_PLACEMENT_3D ( 'NONE', #651, #6, #572 ) ;
#507 = CARTESIAN_POINT ( 'NONE',  ( -9.500000000000001776, 4.929856931646925844, 0.5000000000000000000 ) ) ;
#508 = CARTESIAN_POINT ( 'NONE',  ( 0.000000000000000000, 14.49999999999999112, 20.00000000000000000 ) ) ;
#509 = AXIS2_PLACEMENT_3D ( 'NONE', #507, #580, #378 ) ;
#510 = ADVANCED_FACE ( 'NONE', ( #195 ), #54, .T. ) ;
#511 =( LENGTH_UNIT ( ) NAMED_UNIT ( * ) SI_UNIT ( .MILLI., .METRE. ) );
#512 = CARTESIAN_POINT ( 'NONE',  ( 0.000000000000000000, -4.499999999999999112, 0.000000000000000000 ) ) ;
#513 = DIRECTION ( 'NONE',  ( 0.000000000000000000, 0.000000000000000000, 1.000000000000000000 ) ) ;
#514 = UNCERTAINTY_MEASURE_WITH_UNIT (LENGTH_MEASURE( 1.000000000000000082E-05 ), #664, 'distance_accuracy_value', 'NONE');
#515 = ORIENTED_EDGE ( 'NONE', *, *, #249, .T. ) ;
#516 = DIRECTION ( 'NONE',  ( 1.000000000000000000, 0.000000000000000000, 0.000000000000000000 ) ) ;
#517 = DIRECTION ( 'NONE',  ( -1.000000000000000000, 0.000000000000000000, 0.000000000000000000 ) ) ;
#518 = ORIENTED_EDGE ( 'NONE', *, *, #31, .T. ) ;
#519 = DIRECTION ( 'NONE',  ( 0.000000000000000000, 0.000000000000000000, 1.000000000000000000 ) ) ;
#520 = EDGE_CURVE ( 'NONE', #209, #808, #499, .T. ) ;
#521 = CIRCLE ( 'NONE', #773, 0.4999999999999996114 ) ;
#522 = ORIENTED_EDGE ( 'NONE', *, *, #646, .T. ) ;
#523 = AXIS2_PLACEMENT_3D ( 'NONE', #199, #898, #699 ) ;
#524 = DIRECTION ( 'NONE',  ( -1.000000000000000000, 0.000000000000000000, -0.000000000000000000 ) ) ;
#525 = PRODUCT_CONTEXT ( 'NONE', #862, 'mechanical' ) ;
#526 = EDGE_CURVE ( 'NONE', #816, #187, #22, .T. ) ;
#527 = ORIENTED_EDGE ( 'NONE', *, *, #181, .F. ) ;
#528 = FACE_OUTER_BOUND ( 'NONE', #767, .T. ) ;
#529 = ADVANCED_FACE ( 'NONE', ( #782 ), #899, .T. ) ;
#530 = ORIENTED_EDGE ( 'NONE', *, *, #671, .F. ) ;
#531 = CARTESIAN_POINT ( 'NONE',  ( -9.980699634896307515, 5.067435494695670783, 0.5000000000000004441 ) ) ;
#532 = AXIS2_PLACEMENT_3D ( 'NONE', #16, #305, #667 ) ;
#533 =( LENGTH_UNIT ( ) NAMED_UNIT ( * ) SI_UNIT ( .MILLI., .METRE. ) );
#534 = ORIENTED_EDGE ( 'NONE', *, *, #372, .F. ) ;
#535 = VECTOR ( 'NONE', #420, 1000.000000000000114 ) ;
#536 = AXIS2_PLACEMENT_3D ( 'NONE', #312, #594, #169 ) ;
#537 = ORIENTED_EDGE ( 'NONE', *, *, #27, .T. ) ;
#538 = DIRECTION ( 'NONE',  ( -1.000000000000000000, 0.000000000000000000, 0.000000000000000000 ) ) ;
#539 = ORIENTED_EDGE ( 'NONE', *, *, #798, .T. ) ;
#540 = DIRECTION ( 'NONE',  ( 0.000000000000000000, 0.000000000000000000, 1.000000000000000000 ) ) ;
#541 = AXIS2_PLACEMENT_3D ( 'NONE', #495, #346, #355 ) ;
#542 = CARTESIAN_POINT ( 'NONE',  ( -9.500000000000001776, 4.929856931646926732, 19.50000000000000000 ) ) ;
#543 = CARTESIAN_POINT ( 'NONE',  ( -9.500000000000001776, 4.929856931646926732, 20.00000000000000000 ) ) ;
#544 = ADVANCED_FACE ( 'NONE', ( #426 ), #291, .T. ) ;
#545 = DIRECTION ( 'NONE',  ( -0.000000000000000000, -1.000000000000000000, -0.000000000000000000 ) ) ;
#546 = VERTEX_POINT ( 'NONE', #360 ) ;
#547 = DIRECTION ( 'NONE',  ( 1.000000000000000000, 0.000000000000000000, 0.000000000000000000 ) ) ;
#548 = CIRCLE ( 'NONE', #237, 0.5000000000000003331 ) ;
#549 = DIRECTION ( 'NONE',  ( 3.469446951953610639E-15, 1.000000000000000000, -0.000000000000000000 ) ) ;
#550 = CARTESIAN_POINT ( 'NONE',  ( -9.500000000000001776, 4.929856931646926732, 19.50000000000000000 ) ) ;
#551 = PRODUCT_DEFINITION ( 'Î´Öª', '', #398, #172 ) ;
#552 = DIRECTION ( 'NONE',  ( -0.000000000000000000, -0.000000000000000000, -1.000000000000000000 ) ) ;
#553 = ORIENTED_EDGE ( 'NONE', *, *, #357, .T. ) ;
#554 = DIRECTION ( 'NONE',  ( 1.000000000000000000, 0.000000000000000000, 0.000000000000000000 ) ) ;
#555 = EDGE_LOOP ( 'NONE', ( #477, #598, #61, #385 ) ) ;
#556 = LINE ( 'NONE', #632, #877 ) ;
#557 = DIRECTION ( 'NONE',  ( -1.000000000000000000, 0.000000000000000000, 0.000000000000000000 ) ) ;
#558 = VERTEX_POINT ( 'NONE', #860 ) ;
#559 = EDGE_CURVE ( 'NONE', #808, #712, #716, .T. ) ;
#560 = CARTESIAN_POINT ( 'NONE',  ( 9.999999999999998224, 5.000000000000004441, 20.00000000000000000 ) ) ;
#561 = CARTESIAN_POINT ( 'NONE',  ( -6.729794888548296328, 16.42609988268241139, 0.5000000000000004441 ) ) ;
#562 = FACE_OUTER_BOUND ( 'NONE', #801, .T. ) ;
#563 = DIRECTION ( 'NONE',  ( -0.000000000000000000, -0.000000000000000000, -1.000000000000000000 ) ) ;
#564 = EDGE_LOOP ( 'NONE', ( #202, #596, #451, #353 ) ) ;
#565 = ADVANCED_FACE ( 'NONE', ( #791, #78 ), #787, .T. ) ;
#566 = SPHERICAL_SURFACE ( 'NONE', #23, 0.5000000000000000000 ) ;
#567 = CARTESIAN_POINT ( 'NONE',  ( 6.729794888548295440, 16.42609988268240784, 0.5000000000000004441 ) ) ;
#568 = FACE_OUTER_BOUND ( 'NONE', #269, .T. ) ;
#569 = AXIS2_PLACEMENT_3D ( 'NONE', #348, #607, #133 ) ;
#570 = VECTOR ( 'NONE', #794, 1000.000000000000114 ) ;
#571 = CARTESIAN_POINT ( 'NONE',  ( -9.500000000000003553, 14.49999999999998934, 0.000000000000000000 ) ) ;
#572 = DIRECTION ( 'NONE',  ( -1.734723475976806848E-16, 1.000000000000000000, 0.000000000000000000 ) ) ;
#573 = DIRECTION ( 'NONE',  ( -0.9613992697926128095, 0.2751571260974914890, 0.000000000000000000 ) ) ;
#574 = CARTESIAN_POINT ( 'NONE',  ( -9.500000000000000000, -4.499999999999997335, 0.5000000000000000000 ) ) ;
#575 = DIRECTION ( 'NONE',  ( 1.000000000000000000, 0.000000000000000000, 0.000000000000000000 ) ) ;
#576 = LINE ( 'NONE', #512, #665 ) ;
#577 = DIRECTION ( 'NONE',  ( 1.000000000000000000, 0.000000000000000000, -0.000000000000000000 ) ) ;
#578 = ORIENTED_EDGE ( 'NONE', *, *, #520, .F. ) ;
#579 = DIRECTION ( 'NONE',  ( 1.000000000000000000, 0.000000000000000000, 0.000000000000000000 ) ) ;
#580 = DIRECTION ( 'NONE',  ( 1.734723475976805319E-15, 1.000000000000000000, 0.000000000000000000 ) ) ;
#581 = DIRECTION ( 'NONE',  ( 1.000000000000000000, 0.000000000000000000, 0.000000000000000000 ) ) ;
#582 = CIRCLE ( 'NONE', #603, 5.000000000000000888 ) ;
#583 = CIRCLE ( 'NONE', #827, 0.5000000000000000000 ) ;
#584 = ORIENTED_EDGE ( 'NONE', *, *, #181, .T. ) ;
#585 = FILL_AREA_STYLE ('',( #501 ) ) ;
#586 = DIRECTION ( 'NONE',  ( -1.000000000000000000, -0.000000000000000000, 0.000000000000000000 ) ) ;
#587 = VERTEX_POINT ( 'NONE', #652 ) ;
#588 = DIRECTION ( 'NONE',  ( -0.000000000000000000, -1.000000000000000000, 0.000000000000000000 ) ) ;
#589 = ADVANCED_FACE ( 'NONE', ( #365 ), #369, .F. ) ;
#590 = LINE ( 'NONE', #293, #266 ) ;
#591 = AXIS2_PLACEMENT_3D ( 'NONE', #145, #434, #75 ) ;
#592 = ORIENTED_EDGE ( 'NONE', *, *, #197, .T. ) ;
#593 = CARTESIAN_POINT ( 'NONE',  ( 6.249095253651987036, 16.28852131963366290, 19.50000000000000000 ) ) ;
#594 = DIRECTION ( 'NONE',  ( -0.2751571260974885469, -0.9613992697926136977, 0.000000000000000000 ) ) ;
#595 = AXIS2_PLACEMENT_3D ( 'NONE', #306, #780, #21 ) ;
#596 = ORIENTED_EDGE ( 'NONE', *, *, #197, .F. ) ;
#597 = EDGE_CURVE ( 'NONE', #755, #458, #299, .T. ) ;
#598 = ORIENTED_EDGE ( 'NONE', *, *, #674, .F. ) ;
#599 = CYLINDRICAL_SURFACE ( 'NONE', #615, 0.5000000000000003331 ) ;
#600 = ORIENTED_EDGE ( 'NONE', *, *, #174, .F. ) ;
#601 = CIRCLE ( 'NONE', #323, 0.5000000000000004441 ) ;
#602 = ORIENTED_EDGE ( 'NONE', *, *, #450, .F. ) ;
#603 = AXIS2_PLACEMENT_3D ( 'NONE', #612, #45, #547 ) ;
#604 = DIRECTION ( 'NONE',  ( 0.000000000000000000, -1.000000000000000000, 0.000000000000000000 ) ) ;
#605 = ORIENTED_EDGE ( 'NONE', *, *, #321, .F. ) ;
#606 = ADVANCED_FACE ( 'NONE', ( #154 ), #443, .T. ) ;
#607 = DIRECTION ( 'NONE',  ( 0.000000000000000000, 1.000000000000000000, -0.000000000000000000 ) ) ;
#608 = ORIENTED_EDGE ( 'NONE', *, *, #441, .T. ) ;
#609 = CARTESIAN_POINT ( 'NONE',  ( -9.500000000000000000, -4.499999999999997335, 0.5000000000000004441 ) ) ;
#610 = CARTESIAN_POINT ( 'NONE',  ( -10.00000000000000000, -4.999999999999997335, 19.50000000000000000 ) ) ;
#611 = ORIENTED_EDGE ( 'NONE', *, *, #390, .F. ) ;
#612 = CARTESIAN_POINT ( 'NONE',  ( 0.000000000000000000, 14.49999999999999112, 0.000000000000000000 ) ) ;
#613 = AXIS2_PLACEMENT_3D ( 'NONE', #686, #824, #53 ) ;
#614 = EDGE_LOOP ( 'NONE', ( #891, #49, #703, #329 ) ) ;
#615 = AXIS2_PLACEMENT_3D ( 'NONE', #98, #377, #887 ) ;
#616 = DIRECTION ( 'NONE',  ( 0.000000000000000000, 1.000000000000000000, -0.000000000000000000 ) ) ;
#617 = CARTESIAN_POINT ( 'NONE',  ( -9.500000000000001776, 4.929856931646926732, 0.5000000000000004441 ) ) ;
#618 = ORIENTED_EDGE ( 'NONE', *, *, #461, .F. ) ;
#619 = CARTESIAN_POINT ( 'NONE',  ( -9.500000000000000000, -4.499999999999997335, 19.50000000000000000 ) ) ;
#620 = ORIENTED_EDGE ( 'NONE', *, *, #825, .F. ) ;
#621 = DIRECTION ( 'NONE',  ( -0.000000000000000000, 0.000000000000000000, 1.000000000000000000 ) ) ;
#622 = EDGE_CURVE ( 'NONE', #439, #38, #356, .T. ) ;
#623 = DIRECTION ( 'NONE',  ( 1.000000000000000000, -0.000000000000000000, 0.000000000000000000 ) ) ;
#624 = EDGE_LOOP ( 'NONE', ( #341, #433, #835, #196, #227, #655 ) ) ;
#625 = DIRECTION ( 'NONE',  ( 1.000000000000000000, 0.000000000000000000, 0.000000000000000000 ) ) ;
#626 = CARTESIAN_POINT ( 'NONE',  ( -9.500000000000000000, -4.499999999999999112, 19.50000000000000000 ) ) ;
#627 = DIRECTION ( 'NONE',  ( 1.000000000000000000, 0.000000000000000000, 0.000000000000000000 ) ) ;
#628 = CARTESIAN_POINT ( 'NONE',  ( 9.999999999999998224, -4.499999999999997335, 0.5000000000000004441 ) ) ;
#629 = EDGE_LOOP ( 'NONE', ( #820, #313, #381, #322 ) ) ;
#630 = FACE_OUTER_BOUND ( 'NONE', #758, .T. ) ;
#631 = CARTESIAN_POINT ( 'NONE',  ( 5.000000000000000888, 14.49999999999999112, 0.000000000000000000 ) ) ;
#632 = CARTESIAN_POINT ( 'NONE',  ( -9.519300365103696038, 4.862421436951260389, 20.00000000000000000 ) ) ;
#633 = VECTOR ( 'NONE', #721, 1000.000000000000114 ) ;
#634 = FACE_OUTER_BOUND ( 'NONE', #88, .T. ) ;
#635 = DIRECTION ( 'NONE',  ( 0.000000000000000000, 3.469446951953611033E-15, -1.000000000000000000 ) ) ;
#636 = CARTESIAN_POINT ( 'NONE',  ( -9.500000000000000000, -4.499999999999997335, 0.5000000000000004441 ) ) ;
#637 = DIRECTION ( 'NONE',  ( 0.000000000000000000, 0.000000000000000000, 1.000000000000000000 ) ) ;
#638 = CARTESIAN_POINT ( 'NONE',  ( 9.499999999999996447, -4.999999999999997335, 20.00000000000000000 ) ) ;
#639 = CARTESIAN_POINT ( 'NONE',  ( 6.249095253651987036, 16.28852131963366290, 0.000000000000000000 ) ) ;
#640 = EDGE_CURVE ( 'NONE', #412, #736, #867, .T. ) ;
#641 = DIRECTION ( 'NONE',  ( 0.9613992697926142528, 0.2751571260974866595, 0.000000000000000000 ) ) ;
#642 = DIRECTION ( 'NONE',  ( -0.000000000000000000, -0.000000000000000000, 1.000000000000000000 ) ) ;
#643 = ORIENTED_EDGE ( 'NONE', *, *, #324, .T. ) ;
#644 = DIRECTION ( 'NONE',  ( 0.000000000000000000, 0.000000000000000000, -1.000000000000000000 ) ) ;
#645 = DIRECTION ( 'NONE',  ( 0.2751571260974866040, -0.9613992697926142528, 0.000000000000000000 ) ) ;
#646 = EDGE_CURVE ( 'NONE', #413, #707, #601, .T. ) ;
#647 = CARTESIAN_POINT ( 'NONE',  ( 0.000000000000000000, 14.49999999999999112, 20.00000000000000000 ) ) ;
#648 = VECTOR ( 'NONE', #623, 1000.000000000000000 ) ;
#649 = VECTOR ( 'NONE', #440, 1000.000000000000000 ) ;
#650 = ORIENTED_EDGE ( 'NONE', *, *, #321, .T. ) ;
#651 = CARTESIAN_POINT ( 'NONE',  ( -10.00000000000000178, 5.000000000000004441, 20.00000000000000000 ) ) ;
#652 = CARTESIAN_POINT ( 'NONE',  ( -6.729794888548296328, 16.42609988268241139, 19.50000000000000000 ) ) ;
#653 = AXIS2_PLACEMENT_3D ( 'NONE', #626, #549, #127 ) ;
#654 = ADVANCED_FACE ( 'NONE', ( #840 ), #272, .T. ) ;
#655 = ORIENTED_EDGE ( 'NONE', *, *, #717, .T. ) ;
#656 = CARTESIAN_POINT ( 'NONE',  ( 6.249095253651988813, 16.28852131963366290, 0.5000000000000000000 ) ) ;
#657 = FACE_OUTER_BOUND ( 'NONE', #271, .T. ) ;
#658 = VERTEX_POINT ( 'NONE', #342 ) ;
#659 = LINE ( 'NONE', #737, #768 ) ;
#660 = AXIS2_PLACEMENT_3D ( 'NONE', #854, #642, #4 ) ;
#661 = VECTOR ( 'NONE', #779, 1000.000000000000000 ) ;
#662 = ORIENTED_EDGE ( 'NONE', *, *, #846, .T. ) ;
#663 = EDGE_CURVE ( 'NONE', #707, #755, #217, .T. ) ;
#664 =( LENGTH_UNIT ( ) NAMED_UNIT ( * ) SI_UNIT ( .MILLI., .METRE. ) );
#665 = VECTOR ( 'NONE', #586, 1000.000000000000000 ) ;
#666 = ORIENTED_EDGE ( 'NONE', *, *, #870, .T. ) ;
#667 = DIRECTION ( 'NONE',  ( -1.000000000000000000, 0.000000000000000000, 0.000000000000000000 ) ) ;
#668 = APPLICATION_PROTOCOL_DEFINITION ( 'draft international standard', 'automotive_design', 1998, #833 ) ;
#669 = ADVANCED_FACE ( 'NONE', ( #41 ), #330, .T. ) ;
#670 = ORIENTED_EDGE ( 'NONE', *, *, #759, .F. ) ;
#671 = EDGE_CURVE ( 'NONE', #248, #832, #851, .T. ) ;
#672 = VERTEX_POINT ( 'NONE', #543 ) ;
#673 = PRODUCT ( 'Æø¸××ù', 'Æø¸××ù', '', ( #525 ) ) ;
#674 = EDGE_CURVE ( 'NONE', #587, #884, #409, .T. ) ;
#675 = ORIENTED_EDGE ( 'NONE', *, *, #855, .T. ) ;
#676 = AXIS2_PLACEMENT_3D ( 'NONE', #153, #13, #442 ) ;
#677 = DIRECTION ( 'NONE',  ( -0.9613992697926136977, -0.2751571260974885469, 0.000000000000000000 ) ) ;
#678 = ORIENTED_EDGE ( 'NONE', *, *, #461, .T. ) ;
#679 = DIRECTION ( 'NONE',  ( 0.000000000000000000, 1.000000000000000000, -1.734723475976808475E-15 ) ) ;
#680 = LINE ( 'NONE', #331, #427 ) ;
#681 = ORIENTED_EDGE ( 'NONE', *, *, #646, .F. ) ;
#682 = ADVANCED_FACE ( 'NONE', ( #129 ), #188, .T. ) ;
#683 = FACE_OUTER_BOUND ( 'NONE', #24, .T. ) ;
#684 = ADVANCED_FACE ( 'NONE', ( #562 ), #775, .T. ) ;
#685 = ORIENTED_EDGE ( 'NONE', *, *, #559, .F. ) ;
#686 = CARTESIAN_POINT ( 'NONE',  ( -9.500000000000003553, 14.49999999999998934, 19.50000000000000000 ) ) ;
#687 = FACE_BOUND ( 'NONE', #863, .T. ) ;
#688 = EDGE_LOOP ( 'NONE', ( #185, #743, #97, #527 ) ) ;
#689 = CARTESIAN_POINT ( 'NONE',  ( 6.729794888548294551, 16.42609988268240784, 0.5000000000000004441 ) ) ;
#690 = VECTOR ( 'NONE', #552, 1000.000000000000000 ) ;
#691 = LINE ( 'NONE', #472, #100 ) ;
#692 = EDGE_CURVE ( 'NONE', #658, #672, #556, .T. ) ;
#693 = VECTOR ( 'NONE', #588, 1000.000000000000000 ) ;
#694 = DIRECTION ( 'NONE',  ( -0.000000000000000000, -0.000000000000000000, -1.000000000000000000 ) ) ;
#695 = DIRECTION ( 'NONE',  ( -1.000000000000000000, 0.000000000000000000, 0.000000000000000000 ) ) ;
#696 = ORIENTED_EDGE ( 'NONE', *, *, #383, .F. ) ;
#697 = DIRECTION ( 'NONE',  ( 0.000000000000000000, 1.000000000000000000, 0.000000000000000000 ) ) ;
#698 = CIRCLE ( 'NONE', #676, 0.5000000000000003331 ) ;
#699 = DIRECTION ( 'NONE',  ( 0.000000000000000000, 0.000000000000000000, 1.000000000000000000 ) ) ;
#700 = DIRECTION ( 'NONE',  ( 0.2751571260974885469, 0.9613992697926135866, -0.000000000000000000 ) ) ;
#701 = DIRECTION ( 'NONE',  ( -0.9613992697926128095, 0.2751571260974914890, 0.000000000000000000 ) ) ;
#702 = LINE ( 'NONE', #186, #880 ) ;
#703 = ORIENTED_EDGE ( 'NONE', *, *, #597, .T. ) ;
#704 = DIRECTION ( 'NONE',  ( 0.000000000000000000, 0.000000000000000000, 1.000000000000000000 ) ) ;
#705 = FACE_OUTER_BOUND ( 'NONE', #564, .T. ) ;
#706 = ADVANCED_FACE ( 'NONE', ( #568 ), #886, .T. ) ;
#707 = VERTEX_POINT ( 'NONE', #847 ) ;
#708 = LINE ( 'NONE', #83, #171 ) ;
#709 = FACE_OUTER_BOUND ( 'NONE', #325, .T. ) ;
#710 = AXIS2_PLACEMENT_3D ( 'NONE', #292, #475, #757 ) ;
#711 = EDGE_CURVE ( 'NONE', #124, #587, #110, .T. ) ;
#712 = VERTEX_POINT ( 'NONE', #258 ) ;
#713 = CARTESIAN_POINT ( 'NONE',  ( -10.00000000000000000, -4.499999999999997335, 0.5000000000000004441 ) ) ;
#714 = CARTESIAN_POINT ( 'NONE',  ( -9.500000000000001776, 4.929856931646926732, 19.50000000000000000 ) ) ;
#715 = VERTEX_POINT ( 'NONE', #118 ) ;
#716 = LINE ( 'NONE', #221, #633 ) ;
#717 = EDGE_CURVE ( 'NONE', #413, #439, #750, .T. ) ;
#718 = LINE ( 'NONE', #214, #872 ) ;
#719 = EDGE_CURVE ( 'NONE', #210, #558, #208, .T. ) ;
#720 = DIRECTION ( 'NONE',  ( 0.000000000000000000, 0.000000000000000000, 1.000000000000000000 ) ) ;
#721 = DIRECTION ( 'NONE',  ( 0.2751571260974885469, 0.9613992697926135866, -0.000000000000000000 ) ) ;
#722 = LINE ( 'NONE', #76, #125 ) ;
#723 = ADVANCED_FACE ( 'NONE', ( #762 ), #486, .F. ) ;
#724 = CARTESIAN_POINT ( 'NONE',  ( -9.500000000000001776, 5.000000000000004441, 0.5000000000000004441 ) ) ;
#725 = CIRCLE ( 'NONE', #766, 0.4999999999999998335 ) ;
#726 = ORIENTED_EDGE ( 'NONE', *, *, #71, .T. ) ;
#727 = CARTESIAN_POINT ( 'NONE',  ( -10.00000000000000000, -4.499999999999997335, 19.50000000000000000 ) ) ;
#728 = CIRCLE ( 'NONE', #653, 0.5000000000000004441 ) ;
#729 = VECTOR ( 'NONE', #149, 1000.000000000000000 ) ;
#730 = ORIENTED_EDGE ( 'NONE', *, *, #776, .F. ) ;
#731 = FACE_OUTER_BOUND ( 'NONE', #176, .T. ) ;
#732 = EDGE_LOOP ( 'NONE', ( #515, #167, #430 ) ) ;
#733 = DIRECTION ( 'NONE',  ( -0.000000000000000000, -0.000000000000000000, -1.000000000000000000 ) ) ;
#734 = AXIS2_PLACEMENT_3D ( 'NONE', #414, #621, #627 ) ;
#735 = AXIS2_PLACEMENT_3D ( 'NONE', #656, #160, #449 ) ;
#736 = VERTEX_POINT ( 'NONE', #769 ) ;
#737 = CARTESIAN_POINT ( 'NONE',  ( -6.729794888548296328, 16.42609988268241139, 20.00000000000000000 ) ) ;
#738 = FILL_AREA_STYLE_COLOUR ( '', #132 ) ;
#739 = AXIS2_PLACEMENT_3D ( 'NONE', #39, #748, #883 ) ;
#740 = CIRCLE ( 'NONE', #28, 5.000000000000000888 ) ;
#741 = EDGE_LOOP ( 'NONE', ( #52, #888, #121, #578 ) ) ;
#742 = EDGE_CURVE ( 'NONE', #159, #658, #416, .T. ) ;
#743 = ORIENTED_EDGE ( 'NONE', *, *, #811, .T. ) ;
#744 = CYLINDRICAL_SURFACE ( 'NONE', #189, 0.5000000000000004441 ) ;
#745 = EDGE_CURVE ( 'NONE', #210, #38, #590, .T. ) ;
#746 = EDGE_LOOP ( 'NONE', ( #730, #678, #530 ) ) ;
#747 = AXIS2_PLACEMENT_3D ( 'NONE', #904, #914, #48 ) ;
#748 = DIRECTION ( 'NONE',  ( 1.000000000000000000, 0.000000000000000000, 0.000000000000000000 ) ) ;
#749 = CARTESIAN_POINT ( 'NONE',  ( 9.999999999999998224, 4.929856931646925844, 19.50000000000000000 ) ) ;
#750 = LINE ( 'NONE', #200, #859 ) ;
#751 = DIRECTION ( 'NONE',  ( -1.000000000000000000, 0.000000000000000000, 0.000000000000000000 ) ) ;
#752 = ORIENTED_EDGE ( 'NONE', *, *, #253, .F. ) ;
#753 = AXIS2_PLACEMENT_3D ( 'NONE', #861, #281, #575 ) ;
#754 = DIRECTION ( 'NONE',  ( 0.2751571260974884914, -0.9613992697926135866, -0.000000000000000000 ) ) ;
#755 = VERTEX_POINT ( 'NONE', #857 ) ;
#756 = CARTESIAN_POINT ( 'NONE',  ( 0.000000000000000000, 14.49999999999999112, 19.50000000000000000 ) ) ;
#757 = DIRECTION ( 'NONE',  ( 0.000000000000000000, 0.000000000000000000, -1.000000000000000000 ) ) ;
#758 = EDGE_LOOP ( 'NONE', ( #522, #885, #262 ) ) ;
#759 = EDGE_CURVE ( 'NONE', #332, #832, #786, .T. ) ;
#760 = DIRECTION ( 'NONE',  ( -0.000000000000000000, -0.000000000000000000, 1.000000000000000000 ) ) ;
#761 = ORIENTED_EDGE ( 'NONE', *, *, #158, .T. ) ;
#762 = FACE_OUTER_BOUND ( 'NONE', #193, .T. ) ;
#763 = DIRECTION ( 'NONE',  ( -1.000000000000000000, 0.000000000000000000, 0.000000000000000000 ) ) ;
#764 = ORIENTED_EDGE ( 'NONE', *, *, #383, .T. ) ;
#765 = CARTESIAN_POINT ( 'NONE',  ( 9.499999999999998224, 4.929856931646925844, 19.50000000000000000 ) ) ;
#766 = AXIS2_PLACEMENT_3D ( 'NONE', #617, #848, #69 ) ;
#767 = EDGE_LOOP ( 'NONE', ( #608, #304, #796, #906 ) ) ;
#768 = VECTOR ( 'NONE', #30, 1000.000000000000000 ) ;
#769 = CARTESIAN_POINT ( 'NONE',  ( -10.00000000000000178, 4.929856931646926732, 0.5000000000000004441 ) ) ;
#770 = ORIENTED_EDGE ( 'NONE', *, *, #372, .T. ) ;
#771 = CARTESIAN_POINT ( 'NONE',  ( -10.00000000000000000, -4.499999999999997335, 20.00000000000000000 ) ) ;
#772 = CLOSED_SHELL ( 'NONE', ( #723, #565, #465, #166, #99, #492, #793, #267, #114, #589, #682, #669, #544, #505, #335, #128, #368, #422, #807, #606, #905, #401, #311, #105, #684, #64, #910, #654, #510, #87, #706, #436, #529, #393 ) ) ;
#773 = AXIS2_PLACEMENT_3D ( 'NONE', #799, #645, #641 ) ;
#774 = CARTESIAN_POINT ( 'NONE',  ( -9.500000000000000000, -4.499999999999999112, 20.00000000000000000 ) ) ;
#775 = SPHERICAL_SURFACE ( 'NONE', #246, 0.5000000000000000000 ) ;
#776 = EDGE_CURVE ( 'NONE', #209, #248, #583, .T. ) ;
#777 = CARTESIAN_POINT ( 'NONE',  ( 9.999999999999998224, -4.499999999999999112, 20.00000000000000000 ) ) ;
#778 = ORIENTED_EDGE ( 'NONE', *, *, #229, .F. ) ;
#779 = DIRECTION ( 'NONE',  ( -0.000000000000000000, -0.000000000000000000, -1.000000000000000000 ) ) ;
#780 = DIRECTION ( 'NONE',  ( -0.2751571260974882693, 0.9613992697926139197, 6.671047532384822611E-15 ) ) ;
#781 = EDGE_CURVE ( 'NONE', #587, #658, #548, .T. ) ;
#782 = FACE_OUTER_BOUND ( 'NONE', #882, .T. ) ;
#783 = VERTEX_POINT ( 'NONE', #850 ) ;
#784 = SURFACE_STYLE_FILL_AREA ( #585 ) ;
#785 = AXIS2_PLACEMENT_3D ( 'NONE', #841, #637, #417 ) ;
#786 = LINE ( 'NONE', #913, #224 ) ;
#787 = PLANE ( 'NONE',  #309 ) ;
#788 = DIRECTION ( 'NONE',  ( 0.000000000000000000, 0.000000000000000000, 1.000000000000000000 ) ) ;
#789 = CARTESIAN_POINT ( 'NONE',  ( 0.000000000000000000, 14.49999999999999112, 0.000000000000000000 ) ) ;
#790 = AXIS2_PLACEMENT_3D ( 'NONE', #68, #437, #517 ) ;
#791 = FACE_OUTER_BOUND ( 'NONE', #624, .T. ) ;
#792 = DIRECTION ( 'NONE',  ( -0.000000000000000000, 1.000000000000000000, 3.469446951953610639E-15 ) ) ;
#793 = ADVANCED_FACE ( 'NONE', ( #657 ), #2, .F. ) ;
#794 = DIRECTION ( 'NONE',  ( 0.2751571260974884914, -0.9613992697926135866, -0.000000000000000000 ) ) ;
#795 = DIRECTION ( 'NONE',  ( 0.000000000000000000, 0.000000000000000000, -1.000000000000000000 ) ) ;
#796 = ORIENTED_EDGE ( 'NONE', *, *, #663, .F. ) ;
#797 = LINE ( 'NONE', #638, #649 ) ;
#798 = EDGE_CURVE ( 'NONE', #805, #715, #371, .T. ) ;
#799 = CARTESIAN_POINT ( 'NONE',  ( 9.499999999999998224, 4.929856931646926732, 0.5000000000000000000 ) ) ;
#800 = TOROIDAL_SURFACE ( 'NONE', #79, 6.499999999999999112, 0.5000000000000000000 ) ;
#801 = EDGE_LOOP ( 'NONE', ( #82, #391, #479 ) ) ;
#802 = CARTESIAN_POINT ( 'NONE',  ( 9.499999999999998224, -4.499999999999999112, 20.00000000000000000 ) ) ;
#803 = SURFACE_SIDE_STYLE ('',( #380 ) ) ;
#804 = VECTOR ( 'NONE', #446, 1000.000000000000000 ) ;
#805 = VERTEX_POINT ( 'NONE', #727 ) ;
#806 = LINE ( 'NONE', #610, #297 ) ;
#807 = ADVANCED_FACE ( 'NONE', ( #709 ), #84, .T. ) ;
#808 = VERTEX_POINT ( 'NONE', #8 ) ;
#809 = LINE ( 'NONE', #168, #693 ) ;
#810 = AXIS2_PLACEMENT_3D ( 'NONE', #609, #284, #58 ) ;
#811 = EDGE_CURVE ( 'NONE', #187, #816, #345, .T. ) ;
#812 = CIRCLE ( 'NONE', #889, 0.5000000000000000000 ) ;
#813 = ORIENTED_EDGE ( 'NONE', *, *, #811, .F. ) ;
#814 = FACE_OUTER_BOUND ( 'NONE', #839, .T. ) ;
#815 = AXIS2_PLACEMENT_3D ( 'NONE', #483, #677, #56 ) ;
#816 = VERTEX_POINT ( 'NONE', #852 ) ;
#817 = EDGE_CURVE ( 'NONE', #808, #736, #147, .T. ) ;
#818 = ORIENTED_EDGE ( 'NONE', *, *, #249, .F. ) ;
#819 = DIRECTION ( 'NONE',  ( -0.2751571260974884914, 0.9613992697926135866, 0.000000000000000000 ) ) ;
#820 = ORIENTED_EDGE ( 'NONE', *, *, #282, .T. ) ;
#821 = TOROIDAL_SURFACE ( 'NONE', #410, 6.499999999999999112, 0.5000000000000000000 ) ;
#822 = CARTESIAN_POINT ( 'NONE',  ( 6.249095253651988813, 16.28852131963366290, 0.000000000000000000 ) ) ;
#823 = ORIENTED_EDGE ( 'NONE', *, *, #865, .F. ) ;
#824 = DIRECTION ( 'NONE',  ( -1.734723475976806848E-16, 1.000000000000000000, 0.000000000000000000 ) ) ;
#825 = EDGE_CURVE ( 'NONE', #124, #672, #376, .T. ) ;
#826 = ORIENTED_EDGE ( 'NONE', *, *, #901, .T. ) ;
#827 = AXIS2_PLACEMENT_3D ( 'NONE', #636, #290, #230 ) ;
#828 = LINE ( 'NONE', #771, #85 ) ;
#829 = EDGE_LOOP ( 'NONE', ( #407, #761, #222 ) ) ;
#830 = DIRECTION ( 'NONE',  ( -1.000000000000000000, 0.000000000000000000, 0.000000000000000000 ) ) ;
#831 = CARTESIAN_POINT ( 'NONE',  ( 0.000000000000000000, 14.49999999999999112, 0.5000000000000004441 ) ) ;
#832 = VERTEX_POINT ( 'NONE', #77 ) ;
#833 = APPLICATION_CONTEXT ( 'automotive_design' ) ;
#834 = CARTESIAN_POINT ( 'NONE',  ( -9.980699634896307515, 5.067435494695670783, 19.50000000000000000 ) ) ;
#835 = ORIENTED_EDGE ( 'NONE', *, *, #692, .T. ) ;
#836 = DIRECTION ( 'NONE',  ( 0.000000000000000000, 0.000000000000000000, 1.000000000000000000 ) ) ;
#837 = EDGE_LOOP ( 'NONE', ( #405, #400, #605 ) ) ;
#838 = DIRECTION ( 'NONE',  ( 0.000000000000000000, -0.000000000000000000, 1.000000000000000000 ) ) ;
#839 = EDGE_LOOP ( 'NONE', ( #491, #424, #179, #11 ) ) ;
#840 = FACE_OUTER_BOUND ( 'NONE', #257, .T. ) ;
#841 = CARTESIAN_POINT ( 'NONE',  ( 0.000000000000000000, 14.49999999999999112, 0.000000000000000000 ) ) ;
#842 = CARTESIAN_POINT ( 'NONE',  ( 9.499999999999998224, -4.499999999999997335, 19.50000000000000000 ) ) ;
#843 = VECTOR ( 'NONE', #754, 1000.000000000000114 ) ;
#844 = AXIS2_PLACEMENT_3D ( 'NONE', #359, #502, #866 ) ;
#845 = ORIENTED_EDGE ( 'NONE', *, *, #526, .F. ) ;
#846 = EDGE_CURVE ( 'NONE', #884, #347, #73, .T. ) ;
#847 = CARTESIAN_POINT ( 'NONE',  ( 9.499999999999998224, -4.999999999999997335, 19.50000000000000000 ) ) ;
#848 = DIRECTION ( 'NONE',  ( -0.2751571260974882693, -0.9613992697926139197, 1.667761883096205653E-15 ) ) ;
#849 = DIRECTION ( 'NONE',  ( 0.000000000000000000, 0.000000000000000000, -1.000000000000000000 ) ) ;
#850 = CARTESIAN_POINT ( 'NONE',  ( 9.499999999999998224, -4.499999999999997335, 0.000000000000000000 ) ) ;
#851 = CIRCLE ( 'NONE', #810, 0.5000000000000004441 ) ;
#852 = CARTESIAN_POINT ( 'NONE',  ( -5.000000000000000888, 14.49999999999999112, 20.00000000000000000 ) ) ;
#853 = AXIS2_PLACEMENT_3D ( 'NONE', #856, #788, #516 ) ;
#854 = CARTESIAN_POINT ( 'NONE',  ( -9.500000000000001776, 4.929856931646926732, 0.5000000000000004441 ) ) ;
#855 = EDGE_CURVE ( 'NONE', #489, #29, #740, .T. ) ;
#856 = CARTESIAN_POINT ( 'NONE',  ( -9.500000000000000000, -4.499999999999997335, 19.50000000000000000 ) ) ;
#857 = CARTESIAN_POINT ( 'NONE',  ( 9.999999999999998224, -4.499999999999997335, 19.50000000000000000 ) ) ;
#858 = CIRCLE ( 'NONE', #912, 0.5000000000000004441 ) ;
#859 = VECTOR ( 'NONE', #616, 1000.000000000000000 ) ;
#860 = CARTESIAN_POINT ( 'NONE',  ( 9.980699634896303962, 5.067435494695669895, 0.5000000000000004441 ) ) ;
#861 = CARTESIAN_POINT ( 'NONE',  ( 0.000000000000000000, 14.49999999999999112, 0.5000000000000004441 ) ) ;
#862 = APPLICATION_CONTEXT ( 'automotive_design' ) ;
#863 = EDGE_LOOP ( 'NONE', ( #675, #584 ) ) ;
#864 = CARTESIAN_POINT ( 'NONE',  ( 0.000000000000000000, 14.49999999999999112, 19.50000000000000000 ) ) ;
#865 = EDGE_CURVE ( 'NONE', #141, #558, #521, .T. ) ;
#866 = DIRECTION ( 'NONE',  ( 1.000000000000000000, 0.000000000000000000, 0.000000000000000000 ) ) ;
#867 = CIRCLE ( 'NONE', #660, 0.5000000000000004441 ) ;
#868 = EDGE_LOOP ( 'NONE', ( #553, #600, #823, #349 ) ) ;
#869 = DIRECTION ( 'NONE',  ( 0.9613992697926128095, 0.2751571260974914890, 0.000000000000000000 ) ) ;
#870 = EDGE_CURVE ( 'NONE', #783, #209, #576, .T. ) ;
#871 = AXIS2_PLACEMENT_3D ( 'NONE', #350, #704, #62 ) ;
#872 = VECTOR ( 'NONE', #579, 1000.000000000000000 ) ;
#873 = EDGE_LOOP ( 'NONE', ( #46, #752, #244, #379 ) ) ;
#874 = CARTESIAN_POINT ( 'NONE',  ( -9.500000000000000000, -4.999999999999997335, 19.50000000000000000 ) ) ;
#875 = ORIENTED_EDGE ( 'NONE', *, *, #91, .T. ) ;
#876 = CYLINDRICAL_SURFACE ( 'NONE', #532, 0.5000000000000004441 ) ;
#877 = VECTOR ( 'NONE', #474, 1000.000000000000114 ) ;
#878 = EDGE_CURVE ( 'NONE', #15, #712, #698, .T. ) ;
#879 = ORIENTED_EDGE ( 'NONE', *, *, #455, .F. ) ;
#880 = VECTOR ( 'NONE', #470, 1000.000000000000000 ) ;
#881 = STYLED_ITEM ( 'NONE', ( #238 ), #418 ) ;
#882 = EDGE_LOOP ( 'NONE', ( #241, #469, #466, #151 ) ) ;
#883 = DIRECTION ( 'NONE',  ( 0.000000000000000000, 0.000000000000000000, -1.000000000000000000 ) ) ;
#884 = VERTEX_POINT ( 'NONE', #80 ) ;
#885 = ORIENTED_EDGE ( 'NONE', *, *, #663, .T. ) ;
#886 = SPHERICAL_SURFACE ( 'NONE', #37, 0.5000000000000000000 ) ;
#887 = DIRECTION ( 'NONE',  ( -0.9613992697926128095, -0.2751571260974914890, 0.000000000000000000 ) ) ;
#888 = ORIENTED_EDGE ( 'NONE', *, *, #178, .F. ) ;
#889 = AXIS2_PLACEMENT_3D ( 'NONE', #25, #242, #314 ) ;
#890 = CARTESIAN_POINT ( 'NONE',  ( 9.499999999999998224, 4.929856931646924956, 19.50000000000000000 ) ) ;
#891 = ORIENTED_EDGE ( 'NONE', *, *, #745, .T. ) ;
#892 = CARTESIAN_POINT ( 'NONE',  ( 9.499999999999998224, 4.929856931646925844, 0.5000000000000004441 ) ) ;
#893 = EDGE_CURVE ( 'NONE', #458, #210, #303, .T. ) ;
#894 = DIRECTION ( 'NONE',  ( 0.000000000000000000, 0.000000000000000000, 1.000000000000000000 ) ) ;
#895 = ORIENTED_EDGE ( 'NONE', *, *, #878, .T. ) ;
#896 =( GEOMETRIC_REPRESENTATION_CONTEXT ( 3 ) GLOBAL_UNCERTAINTY_ASSIGNED_CONTEXT ( ( #136 ) ) GLOBAL_UNIT_ASSIGNED_CONTEXT ( ( #533, #320, #177 ) ) REPRESENTATION_CONTEXT ( 'NONE', 'WORKASPACE' ) );
#897 = FACE_OUTER_BOUND ( 'NONE', #614, .T. ) ;
#898 = DIRECTION ( 'NONE',  ( 0.000000000000000000, 1.000000000000000000, -0.000000000000000000 ) ) ;
#899 = CYLINDRICAL_SURFACE ( 'NONE', #504, 0.5000000000000003331 ) ;
#900 = EDGE_LOOP ( 'NONE', ( #650, #534, #117, #173 ) ) ;
#901 = EDGE_CURVE ( 'NONE', #439, #347, #471, .T. ) ;
#902 = CARTESIAN_POINT ( 'NONE',  ( 6.249095253651987036, 16.28852131963366290, 20.00000000000000000 ) ) ;
#903 = ORIENTED_EDGE ( 'NONE', *, *, #640, .T. ) ;
#904 = CARTESIAN_POINT ( 'NONE',  ( 9.499999999999998224, 4.929856931646925844, 0.5000000000000004441 ) ) ;
#905 = ADVANCED_FACE ( 'NONE', ( #104 ), #234, .T. ) ;
#906 = ORIENTED_EDGE ( 'NONE', *, *, #282, .F. ) ;
#907 = EDGE_LOOP ( 'NONE', ( #875, #539, #496, #213 ) ) ;
#908 = DIRECTION ( 'NONE',  ( 0.000000000000000000, 1.000000000000000000, 0.000000000000000000 ) ) ;
#909 = PLANE ( 'NONE',  #785 ) ;
#910 = ADVANCED_FACE ( 'NONE', ( #814 ), #744, .T. ) ;
#911 =( NAMED_UNIT ( * ) SI_UNIT ( $, .STERADIAN. ) SOLID_ANGLE_UNIT ( ) );
#912 = AXIS2_PLACEMENT_3D ( 'NONE', #765, #540, #625 ) ;
#913 = CARTESIAN_POINT ( 'NONE',  ( -9.500000000000000000, -4.999999999999997335, 20.00000000000000000 ) ) ;
#914 = DIRECTION ( 'NONE',  ( -0.000000000000000000, 1.000000000000000000, 1.734723475976805319E-15 ) ) ;
ENDSEC;
END-ISO-10303-21;
