ISO-10303-21;
HEADER;
FILE_DESCRIPTION (( 'STEP AP214' ),
    '1' );
FILE_NAME ('Æø¸××ù2.step',
    '2023-08-15T03:03:30',
    ( '' ),
    ( '' ),
    'SwSTEP 2.0',
    'SolidWorks 2022',
    '' );
FILE_SCHEMA (( 'AUTOMOTIVE_DESIGN' ));
ENDSEC;

DATA;
#1 = CARTESIAN_POINT ( 'NONE',  ( -9.980699634896318173, 5.067435494695663678, 0.5000000000000004441 ) ) ;
#2 = VERTEX_POINT ( 'NONE', #182 ) ;
#3 = DIRECTION ( 'NONE',  ( -5.204170427930416550E-15, 1.000000000000000000, 0.000000000000000000 ) ) ;
#4 = CARTESIAN_POINT ( 'NONE',  ( 9.499999999999987566, 4.999999999999997335, 0.5000000000000004441 ) ) ;
#5 = EDGE_LOOP ( 'NONE', ( #472, #707 ) ) ;
#6 = AXIS2_PLACEMENT_3D ( 'NONE', #18, #81, #351 ) ;
#7 = CARTESIAN_POINT ( 'NONE',  ( -6.729794888548291887, 16.42609988268240784, 19.50000000000000000 ) ) ;
#8 = DIRECTION ( 'NONE',  ( 0.000000000000000000, 0.000000000000000000, -1.000000000000000000 ) ) ;
#9 = ORIENTED_EDGE ( 'NONE', *, *, #129, .F. ) ;
#10 = AXIS2_PLACEMENT_3D ( 'NONE', #61, #404, #267 ) ;
#11 = CARTESIAN_POINT ( 'NONE',  ( -9.980699634896318173, 5.067435494695663678, 20.00000000000000000 ) ) ;
#12 = DIRECTION ( 'NONE',  ( -0.2751571260974896016, -0.9613992697926133646, 0.000000000000000000 ) ) ;
#13 = AXIS2_PLACEMENT_3D ( 'NONE', #409, #8, #205 ) ;
#14 = DIRECTION ( 'NONE',  ( -1.734723475976806848E-16, 1.000000000000000000, -0.000000000000000000 ) ) ;
#15 = DIRECTION ( 'NONE',  ( 0.2751571260974914335, 0.9613992697926129205, -0.000000000000000000 ) ) ;
#16 = EDGE_LOOP ( 'NONE', ( #494, #567, #786, #49 ) ) ;
#17 = EDGE_CURVE ( 'NONE', #156, #346, #609, .T. ) ;
#18 = CARTESIAN_POINT ( 'NONE',  ( 6.249095253651994142, 16.28852131963365579, 0.5000000000000004441 ) ) ;
#19 = DIRECTION ( 'NONE',  ( 1.734723475976806848E-16, -1.000000000000000000, 0.000000000000000000 ) ) ;
#20 = CARTESIAN_POINT ( 'NONE',  ( 0.000000000000000000, 14.49999999999998579, 19.50000000000000000 ) ) ;
#21 = CARTESIAN_POINT ( 'NONE',  ( -10.00000000000001066, -5.000000000000004441, 20.00000000000000000 ) ) ;
#22 = ORIENTED_EDGE ( 'NONE', *, *, #53, .T. ) ;
#23 = DIRECTION ( 'NONE',  ( -0.000000000000000000, -0.000000000000000000, 1.000000000000000000 ) ) ;
#24 = VECTOR ( 'NONE', #26, 1000.000000000000000 ) ;
#25 = CARTESIAN_POINT ( 'NONE',  ( -10.00000000000001243, 4.929856931646917850, 20.00000000000000000 ) ) ;
#26 = DIRECTION ( 'NONE',  ( -0.000000000000000000, -0.000000000000000000, 1.000000000000000000 ) ) ;
#27 = DIRECTION ( 'NONE',  ( 1.000000000000000000, 0.000000000000000000, 0.000000000000000000 ) ) ;
#28 = ORIENTED_EDGE ( 'NONE', *, *, #57, .T. ) ;
#29 = AXIS2_PLACEMENT_3D ( 'NONE', #272, #687, #143 ) ;
#30 = LINE ( 'NONE', #169, #902 ) ;
#31 = EDGE_CURVE ( 'NONE', #47, #398, #389, .T. ) ;
#32 = DIRECTION ( 'NONE',  ( 0.000000000000000000, 0.000000000000000000, -1.000000000000000000 ) ) ;
#33 = ORIENTED_EDGE ( 'NONE', *, *, #433, .T. ) ;
#34 = CARTESIAN_POINT ( 'NONE',  ( 9.999999999999987566, -4.500000000000003553, 19.50000000000000000 ) ) ;
#35 = VECTOR ( 'NONE', #19, 1000.000000000000000 ) ;
#36 = CYLINDRICAL_SURFACE ( 'NONE', #698, 0.5000000000000004441 ) ;
#37 = EDGE_CURVE ( 'NONE', #85, #466, #679, .T. ) ;
#38 = EDGE_LOOP ( 'NONE', ( #227, #894, #9 ) ) ;
#39 = ORIENTED_EDGE ( 'NONE', *, *, #532, .F. ) ;
#40 = LINE ( 'NONE', #533, #821 ) ;
#41 = ORIENTED_EDGE ( 'NONE', *, *, #414, .F. ) ;
#42 = CARTESIAN_POINT ( 'NONE',  ( 0.000000000000000000, 14.49999999999998579, 20.00000000000000000 ) ) ;
#43 = CARTESIAN_POINT ( 'NONE',  ( -10.00000000000001066, -4.500000000000003553, 19.50000000000000000 ) ) ;
#44 = DIRECTION ( 'NONE',  ( 1.734723475976806848E-16, -1.000000000000000000, 0.000000000000000000 ) ) ;
#45 = VERTEX_POINT ( 'NONE', #819 ) ;
#46 = EDGE_CURVE ( 'NONE', #166, #150, #527, .T. ) ;
#47 = VERTEX_POINT ( 'NONE', #43 ) ;
#48 = CARTESIAN_POINT ( 'NONE',  ( 9.499999999999987566, 14.49999999999998579, 0.000000000000000000 ) ) ;
#49 = ORIENTED_EDGE ( 'NONE', *, *, #859, .F. ) ;
#50 = ORIENTED_EDGE ( 'NONE', *, *, #319, .T. ) ;
#51 = CARTESIAN_POINT ( 'NONE',  ( 9.499999999999987566, -4.500000000000003553, 19.50000000000000000 ) ) ;
#52 = DIRECTION ( 'NONE',  ( 0.000000000000000000, 0.000000000000000000, -1.000000000000000000 ) ) ;
#53 = EDGE_CURVE ( 'NONE', #673, #259, #822, .T. ) ;
#54 = EDGE_LOOP ( 'NONE', ( #524, #749, #161 ) ) ;
#55 = FACE_OUTER_BOUND ( 'NONE', #193, .T. ) ;
#56 = AXIS2_PLACEMENT_3D ( 'NONE', #476, #322, #382 ) ;
#57 = EDGE_CURVE ( 'NONE', #755, #112, #672, .T. ) ;
#58 = AXIS2_PLACEMENT_3D ( 'NONE', #565, #15, #89 ) ;
#59 = DIRECTION ( 'NONE',  ( 0.2751571260974896016, 0.9613992697926133646, -0.000000000000000000 ) ) ;
#60 = DIRECTION ( 'NONE',  ( 0.000000000000000000, 0.000000000000000000, 1.000000000000000000 ) ) ;
#61 = CARTESIAN_POINT ( 'NONE',  ( 9.999999999999987566, 4.999999999999997335, 20.00000000000000000 ) ) ;
#62 = DIRECTION ( 'NONE',  ( -0.000000000000000000, -0.000000000000000000, 1.000000000000000000 ) ) ;
#63 = STYLED_ITEM ( 'NONE', ( #284 ), #801 ) ;
#64 = DIRECTION ( 'NONE',  ( -1.000000000000000000, 0.000000000000000000, 0.000000000000000000 ) ) ;
#65 = AXIS2_PLACEMENT_3D ( 'NONE', #481, #197, #408 ) ;
#66 = CARTESIAN_POINT ( 'NONE',  ( 0.000000000000000000, 14.49999999999998579, 0.000000000000000000 ) ) ;
#67 = EDGE_LOOP ( 'NONE', ( #538, #605, #807, #39 ) ) ;
#68 = EDGE_CURVE ( 'NONE', #755, #251, #93, .T. ) ;
#69 = CARTESIAN_POINT ( 'NONE',  ( -9.500000000000010658, -5.000000000000004441, 20.00000000000000000 ) ) ;
#70 = DIRECTION ( 'NONE',  ( 0.9613992697926148079, 0.2751571260974851052, 0.000000000000000000 ) ) ;
#71 = ORIENTED_EDGE ( 'NONE', *, *, #378, .T. ) ;
#72 = VECTOR ( 'NONE', #163, 1000.000000000000000 ) ;
#73 = DIRECTION ( 'NONE',  ( -0.000000000000000000, -0.000000000000000000, -1.000000000000000000 ) ) ;
#74 = FACE_OUTER_BOUND ( 'NONE', #16, .T. ) ;
#75 = ORIENTED_EDGE ( 'NONE', *, *, #898, .T. ) ;
#76 = DIRECTION ( 'NONE',  ( -0.000000000000000000, -0.000000000000000000, -1.000000000000000000 ) ) ;
#77 = DIRECTION ( 'NONE',  ( -0.000000000000000000, 1.000000000000000000, 1.734723475976805319E-15 ) ) ;
#78 = EDGE_CURVE ( 'NONE', #466, #630, #115, .T. ) ;
#79 = CYLINDRICAL_SURFACE ( 'NONE', #747, 5.000000000000000888 ) ;
#80 = ORIENTED_EDGE ( 'NONE', *, *, #231, .T. ) ;
#81 = DIRECTION ( 'NONE',  ( -0.2751571260974872701, 0.9613992697926140307, 0.000000000000000000 ) ) ;
#82 = LINE ( 'NONE', #308, #35 ) ;
#83 = FACE_OUTER_BOUND ( 'NONE', #385, .T. ) ;
#84 = LINE ( 'NONE', #160, #688 ) ;
#85 = VERTEX_POINT ( 'NONE', #570 ) ;
#86 = EDGE_CURVE ( 'NONE', #429, #354, #865, .T. ) ;
#87 = CARTESIAN_POINT ( 'NONE',  ( -10.00000000000001066, -4.500000000000003553, 0.5000000000000004441 ) ) ;
#88 = DIRECTION ( 'NONE',  ( 1.000000000000000000, 0.000000000000000000, 0.000000000000000000 ) ) ;
#89 = DIRECTION ( 'NONE',  ( 0.9613992697926128095, -0.2751571260974914890, 0.000000000000000000 ) ) ;
#90 = ORIENTED_EDGE ( 'NONE', *, *, #590, .T. ) ;
#91 = EDGE_CURVE ( 'NONE', #474, #466, #748, .T. ) ;
#92 =( GEOMETRIC_REPRESENTATION_CONTEXT ( 3 ) GLOBAL_UNCERTAINTY_ASSIGNED_CONTEXT ( ( #818 ) ) GLOBAL_UNIT_ASSIGNED_CONTEXT ( ( #530, #320, #98 ) ) REPRESENTATION_CONTEXT ( 'NONE', 'WORKASPACE' ) );
#93 = LINE ( 'NONE', #729, #505 ) ;
#94 = DIRECTION ( 'NONE',  ( -0.000000000000000000, -0.000000000000000000, 1.000000000000000000 ) ) ;
#95 = DIRECTION ( 'NONE',  ( -1.000000000000000000, 0.000000000000000000, 0.000000000000000000 ) ) ;
#96 = VERTEX_POINT ( 'NONE', #87 ) ;
#97 = AXIS2_PLACEMENT_3D ( 'NONE', #657, #165, #443 ) ;
#98 =( NAMED_UNIT ( * ) SI_UNIT ( $, .STERADIAN. ) SOLID_ANGLE_UNIT ( ) );
#99 = ADVANCED_FACE ( 'NONE', ( #855 ), #660, .F. ) ;
#100 = DIRECTION ( 'NONE',  ( 0.9613992697926148079, 0.2751571260974851052, 0.000000000000000000 ) ) ;
#101 = DIRECTION ( 'NONE',  ( 1.000000000000000000, 0.000000000000000000, 0.000000000000000000 ) ) ;
#102 = VECTOR ( 'NONE', #349, 1000.000000000000000 ) ;
#103 = ORIENTED_EDGE ( 'NONE', *, *, #735, .T. ) ;
#104 =( NAMED_UNIT ( * ) PLANE_ANGLE_UNIT ( ) SI_UNIT ( $, .RADIAN. ) );
#105 = DIRECTION ( 'NONE',  ( 0.000000000000000000, 0.000000000000000000, 1.000000000000000000 ) ) ;
#106 = AXIS2_PLACEMENT_3D ( 'NONE', #522, #174, #794 ) ;
#107 = DIRECTION ( 'NONE',  ( 0.000000000000000000, 1.000000000000000000, 1.734723475976805517E-15 ) ) ;
#108 = ORIENTED_EDGE ( 'NONE', *, *, #583, .T. ) ;
#109 = ORIENTED_EDGE ( 'NONE', *, *, #315, .F. ) ;
#110 = DIRECTION ( 'NONE',  ( 0.9613992697926148079, 0.2751571260974846056, 0.000000000000000000 ) ) ;
#111 = TOROIDAL_SURFACE ( 'NONE', #239, 6.500000000000000888, 0.5000000000000000000 ) ;
#112 = VERTEX_POINT ( 'NONE', #34 ) ;
#113 = ADVANCED_FACE ( 'NONE', ( #235 ), #638, .T. ) ;
#114 = VECTOR ( 'NONE', #76, 1000.000000000000000 ) ;
#115 = CIRCLE ( 'NONE', #228, 0.4999999999999993339 ) ;
#116 = CARTESIAN_POINT ( 'NONE',  ( -5.000000000000000888, 14.49999999999998579, 20.00000000000000000 ) ) ;
#117 = LINE ( 'NONE', #48, #468 ) ;
#118 = EDGE_LOOP ( 'NONE', ( #177, #178, #886, #477 ) ) ;
#119 = PRODUCT_DEFINITION_CONTEXT ( 'detailed design', #639, 'design' ) ;
#120 = ADVANCED_FACE ( 'NONE', ( #713 ), #805, .T. ) ;
#121 = ORIENTED_EDGE ( 'NONE', *, *, #179, .F. ) ;
#122 = CARTESIAN_POINT ( 'NONE',  ( 9.999999999999987566, -4.500000000000003553, 20.00000000000000000 ) ) ;
#123 = ORIENTED_EDGE ( 'NONE', *, *, #488, .F. ) ;
#124 = ADVANCED_FACE ( 'NONE', ( #312 ), #798, .F. ) ;
#125 = DIRECTION ( 'NONE',  ( -0.000000000000000000, -0.000000000000000000, 1.000000000000000000 ) ) ;
#126 = ORIENTED_EDGE ( 'NONE', *, *, #395, .T. ) ;
#127 = AXIS2_PLACEMENT_3D ( 'NONE', #368, #101, #799 ) ;
#128 = ORIENTED_EDGE ( 'NONE', *, *, #139, .F. ) ;
#129 = EDGE_CURVE ( 'NONE', #251, #670, #475, .T. ) ;
#130 = DIRECTION ( 'NONE',  ( 1.000000000000000000, 0.000000000000000000, -0.000000000000000000 ) ) ;
#131 = AXIS2_PLACEMENT_3D ( 'NONE', #253, #610, #110 ) ;
#132 = DIRECTION ( 'NONE',  ( 1.000000000000000000, 0.000000000000000000, 0.000000000000000000 ) ) ;
#133 = CIRCLE ( 'NONE', #885, 5.000000000000000888 ) ;
#134 = CARTESIAN_POINT ( 'NONE',  ( 9.980699634896295080, 5.067435494695663678, 19.50000000000000000 ) ) ;
#135 = EDGE_CURVE ( 'NONE', #145, #398, #30, .T. ) ;
#136 = CARTESIAN_POINT ( 'NONE',  ( -6.249095253651984372, 16.28852131963366645, 19.50000000000000000 ) ) ;
#137 = FACE_OUTER_BOUND ( 'NONE', #425, .T. ) ;
#138 = DIRECTION ( 'NONE',  ( 0.2751571260974872701, -0.9613992697926140307, 0.000000000000000000 ) ) ;
#139 = EDGE_CURVE ( 'NONE', #375, #96, #82, .T. ) ;
#140 = SPHERICAL_SURFACE ( 'NONE', #909, 0.5000000000000000000 ) ;
#141 = DIRECTION ( 'NONE',  ( 0.000000000000000000, -0.000000000000000000, 1.000000000000000000 ) ) ;
#142 = ORIENTED_EDGE ( 'NONE', *, *, #91, .T. ) ;
#143 = DIRECTION ( 'NONE',  ( -1.000000000000000000, 0.000000000000000000, 0.000000000000000000 ) ) ;
#144 = CARTESIAN_POINT ( 'NONE',  ( -6.249095253651985260, 16.28852131963366290, 20.00000000000000000 ) ) ;
#145 = VERTEX_POINT ( 'NONE', #594 ) ;
#146 = VECTOR ( 'NONE', #141, 1000.000000000000000 ) ;
#147 = DIRECTION ( 'NONE',  ( -1.000000000000000000, 0.000000000000000000, 0.000000000000000000 ) ) ;
#148 = EDGE_CURVE ( 'NONE', #450, #112, #877, .T. ) ;
#149 = DIRECTION ( 'NONE',  ( 0.000000000000000000, 0.000000000000000000, -1.000000000000000000 ) ) ;
#150 = VERTEX_POINT ( 'NONE', #431 ) ;
#151 = CARTESIAN_POINT ( 'NONE',  ( 9.499999999999987566, -4.500000000000003553, 19.50000000000000000 ) ) ;
#153 = EDGE_CURVE ( 'NONE', #150, #96, #738, .T. ) ;
#152 = CARTESIAN_POINT ( 'NONE',  ( 9.499999999999987566, 4.929856931646920515, 0.5000000000000004441 ) ) ;
#154 = DIRECTION ( 'NONE',  ( -0.2751571260974872701, 0.9613992697926140307, 0.000000000000000000 ) ) ;
#155 = CARTESIAN_POINT ( 'NONE',  ( -9.500000000000010658, -5.000000000000004441, 19.50000000000000000 ) ) ;
#156 = VERTEX_POINT ( 'NONE', #363 ) ;
#157 = CLOSED_SHELL ( 'NONE', ( #420, #262, #633, #574, #211, #791, #99, #124, #338, #908, #366, #678, #815, #869, #741, #201, #287, #654, #113, #405, #120, #519, #352, #500, #914, #600, #478, #537, #771, #674, #467, #310, #279, #802 ) ) ;
#158 = LINE ( 'NONE', #25, #423 ) ;
#159 = CARTESIAN_POINT ( 'NONE',  ( 0.000000000000000000, 14.49999999999998579, 0.5000000000000004441 ) ) ;
#160 = CARTESIAN_POINT ( 'NONE',  ( -6.729794888548291887, 16.42609988268240784, 20.00000000000000000 ) ) ;
#161 = ORIENTED_EDGE ( 'NONE', *, *, #57, .F. ) ;
#162 = EDGE_CURVE ( 'NONE', #112, #444, #866, .T. ) ;
#163 = DIRECTION ( 'NONE',  ( 1.000000000000000000, 0.000000000000000000, 0.000000000000000000 ) ) ;
#164 = DIRECTION ( 'NONE',  ( 0.2751571260974872701, -0.9613992697926140307, -0.000000000000000000 ) ) ;
#165 = DIRECTION ( 'NONE',  ( 1.734723475976806848E-16, -1.000000000000000000, 0.000000000000000000 ) ) ;
#166 = VERTEX_POINT ( 'NONE', #789 ) ;
#167 = PRODUCT_RELATED_PRODUCT_CATEGORY ( 'part', '', ( #473 ) ) ;
#168 = VECTOR ( 'NONE', #164, 1000.000000000000000 ) ;
#169 = CARTESIAN_POINT ( 'NONE',  ( -10.00000000000001066, -5.000000000000004441, 19.50000000000000000 ) ) ;
#170 = DIRECTION ( 'NONE',  ( -1.000000000000000000, 1.734723475976805517E-15, 0.000000000000000000 ) ) ;
#171 = ORIENTED_EDGE ( 'NONE', *, *, #348, .T. ) ;
#172 = CIRCLE ( 'NONE', #358, 5.000000000000000888 ) ;
#173 = SURFACE_STYLE_FILL_AREA ( #391 ) ;
#174 = DIRECTION ( 'NONE',  ( 0.000000000000000000, 1.000000000000000000, 0.000000000000000000 ) ) ;
#175 = FACE_OUTER_BOUND ( 'NONE', #591, .T. ) ;
#176 = CIRCLE ( 'NONE', #212, 0.5000000000000004441 ) ;
#177 = ORIENTED_EDGE ( 'NONE', *, *, #809, .T. ) ;
#178 = ORIENTED_EDGE ( 'NONE', *, *, #735, .F. ) ;
#179 = EDGE_CURVE ( 'NONE', #429, #375, #158, .T. ) ;
#180 = DIRECTION ( 'NONE',  ( 0.000000000000000000, -1.000000000000000000, 0.000000000000000000 ) ) ;
#181 = ORIENTED_EDGE ( 'NONE', *, *, #46, .T. ) ;
#182 = CARTESIAN_POINT ( 'NONE',  ( 5.000000000000000888, 14.49999999999998579, 0.000000000000000000 ) ) ;
#183 = DIRECTION ( 'NONE',  ( -0.2751571260974914335, -0.9613992697926129205, 4.773215262236285328E-16 ) ) ;
#184 = AXIS2_PLACEMENT_3D ( 'NONE', #495, #853, #218 ) ;
#185 = EDGE_CURVE ( 'NONE', #895, #797, #367, .T. ) ;
#186 = ORIENTED_EDGE ( 'NONE', *, *, #624, .F. ) ;
#187 = VECTOR ( 'NONE', #260, 1000.000000000000000 ) ;
#188 = AXIS2_PLACEMENT_3D ( 'NONE', #301, #296, #723 ) ;
#189 = CARTESIAN_POINT ( 'NONE',  ( 0.000000000000000000, -4.500000000000003553, 0.000000000000000000 ) ) ;
#190 = CARTESIAN_POINT ( 'NONE',  ( -9.500000000000010658, -4.500000000000003553, 19.50000000000000000 ) ) ;
#191 = EDGE_LOOP ( 'NONE', ( #647, #884, #864, #323 ) ) ;
#192 = EDGE_CURVE ( 'NONE', #96, #47, #555, .T. ) ;
#193 = EDGE_LOOP ( 'NONE', ( #108, #439, #350, #769, #181, #206 ) ) ;
#194 = DIRECTION ( 'NONE',  ( -0.2751571260974896016, -0.9613992697926133646, 0.000000000000000000 ) ) ;
#195 = AXIS2_PLACEMENT_3D ( 'NONE', #337, #60, #132 ) ;
#196 = ORIENTED_EDGE ( 'NONE', *, *, #244, .T. ) ;
#197 = DIRECTION ( 'NONE',  ( -1.000000000000000000, 0.000000000000000000, 0.000000000000000000 ) ) ;
#198 = CARTESIAN_POINT ( 'NONE',  ( 0.000000000000000000, 14.49999999999998579, 20.00000000000000000 ) ) ;
#199 = DIRECTION ( 'NONE',  ( 0.000000000000000000, 1.000000000000000000, -0.000000000000000000 ) ) ;
#200 = DIRECTION ( 'NONE',  ( 0.000000000000000000, -1.000000000000000000, 0.000000000000000000 ) ) ;
#201 = ADVANCED_FACE ( 'NONE', ( #269 ), #424, .T. ) ;
#202 = CARTESIAN_POINT ( 'NONE',  ( 0.000000000000000000, 14.49999999999998579, 20.00000000000000000 ) ) ;
#203 = ORIENTED_EDGE ( 'NONE', *, *, #693, .F. ) ;
#204 = DIRECTION ( 'NONE',  ( 0.000000000000000000, 0.000000000000000000, 1.000000000000000000 ) ) ;
#205 = DIRECTION ( 'NONE',  ( -1.000000000000000000, 0.000000000000000000, 0.000000000000000000 ) ) ;
#206 = ORIENTED_EDGE ( 'NONE', *, *, #839, .T. ) ;
#207 = SPHERICAL_SURFACE ( 'NONE', #451, 0.5000000000000000000 ) ;
#208 = VECTOR ( 'NONE', #59, 1000.000000000000000 ) ;
#209 = CARTESIAN_POINT ( 'NONE',  ( -9.500000000000012434, 4.929856931646917850, 0.000000000000000000 ) ) ;
#210 = ORIENTED_EDGE ( 'NONE', *, *, #717, .F. ) ;
#211 = ADVANCED_FACE ( 'NONE', ( #758 ), #706, .F. ) ;
#212 = AXIS2_PLACEMENT_3D ( 'NONE', #792, #779, #650 ) ;
#213 = DIRECTION ( 'NONE',  ( -0.000000000000000000, -0.000000000000000000, -1.000000000000000000 ) ) ;
#214 = FACE_OUTER_BOUND ( 'NONE', #460, .T. ) ;
#215 = STYLED_ITEM ( 'NONE', ( #440 ), #484 ) ;
#216 = EDGE_LOOP ( 'NONE', ( #293, #196, #41 ) ) ;
#217 = AXIS2_PLACEMENT_3D ( 'NONE', #4, #199, #692 ) ;
#218 = DIRECTION ( 'NONE',  ( -1.000000000000000000, 0.000000000000000000, 0.000000000000000000 ) ) ;
#219 = DIRECTION ( 'NONE',  ( -0.2751571260974866595, 0.9613992697926143638, 5.003285649288619522E-15 ) ) ;
#220 = DIRECTION ( 'NONE',  ( -0.000000000000000000, 1.000000000000000000, -0.000000000000000000 ) ) ;
#221 = ORIENTED_EDGE ( 'NONE', *, *, #669, .F. ) ;
#222 = ORIENTED_EDGE ( 'NONE', *, *, #488, .T. ) ;
#223 = VECTOR ( 'NONE', #14, 1000.000000000000000 ) ;
#224 = DIRECTION ( 'NONE',  ( -1.000000000000000000, 0.000000000000000000, 0.000000000000000000 ) ) ;
#225 = DIRECTION ( 'NONE',  ( -0.2751571260974898236, -0.9613992697926134756, 1.667761883096204864E-15 ) ) ;
#226 = DIRECTION ( 'NONE',  ( 0.000000000000000000, 0.000000000000000000, -1.000000000000000000 ) ) ;
#227 = ORIENTED_EDGE ( 'NONE', *, *, #693, .T. ) ;
#228 = AXIS2_PLACEMENT_3D ( 'NONE', #861, #372, #100 ) ;
#229 = CARTESIAN_POINT ( 'NONE',  ( -9.519300365103704920, 4.862421436951252396, 0.5000000000000004441 ) ) ;
#230 = CARTESIAN_POINT ( 'NONE',  ( 9.999999999999987566, 4.999999999999999112, 19.50000000000000000 ) ) ;
#231 = EDGE_CURVE ( 'NONE', #754, #156, #592, .T. ) ;
#232 = DIRECTION ( 'NONE',  ( -0.000000000000000000, -0.000000000000000000, -1.000000000000000000 ) ) ;
#233 = VERTEX_POINT ( 'NONE', #209 ) ;
#234 = SURFACE_STYLE_USAGE ( .BOTH. , #452 ) ;
#235 = FACE_OUTER_BOUND ( 'NONE', #191, .T. ) ;
#236 = DIRECTION ( 'NONE',  ( 0.9613992697926132536, -0.2751571260974898792, 0.000000000000000000 ) ) ;
#237 = ORIENTED_EDGE ( 'NONE', *, *, #544, .F. ) ;
#238 = DIRECTION ( 'NONE',  ( 1.000000000000000000, 0.000000000000000000, 0.000000000000000000 ) ) ;
#239 = AXIS2_PLACEMENT_3D ( 'NONE', #20, #730, #589 ) ;
#240 = DIRECTION ( 'NONE',  ( -0.000000000000000000, -1.000000000000000000, -0.000000000000000000 ) ) ;
#241 = CARTESIAN_POINT ( 'NONE',  ( -9.500000000000010658, -5.000000000000006217, 20.00000000000000000 ) ) ;
#242 = EDGE_LOOP ( 'NONE', ( #543, #596, #71, #419 ) ) ;
#243 = CIRCLE ( 'NONE', #759, 0.5000000000000004441 ) ;
#244 = EDGE_CURVE ( 'NONE', #150, #895, #336, .T. ) ;
#245 = DIRECTION ( 'NONE',  ( 1.000000000000000000, 0.000000000000000000, 0.000000000000000000 ) ) ;
#246 = CARTESIAN_POINT ( 'NONE',  ( 9.499999999999987566, 4.929856931646920515, 0.5000000000000000000 ) ) ;
#247 = AXIS2_PLACEMENT_3D ( 'NONE', #857, #577, #32 ) ;
#248 = ORIENTED_EDGE ( 'NONE', *, *, #46, .F. ) ;
#249 = ORIENTED_EDGE ( 'NONE', *, *, #68, .T. ) ;
#250 = SPHERICAL_SURFACE ( 'NONE', #613, 0.5000000000000000000 ) ;
#251 = VERTEX_POINT ( 'NONE', #280 ) ;
#252 = ORIENTED_EDGE ( 'NONE', *, *, #551, .T. ) ;
#253 = CARTESIAN_POINT ( 'NONE',  ( 6.249095253651990589, 16.28852131963365579, 0.5000000000000000000 ) ) ;
#254 = COLOUR_RGB ( '',1.000000000000000000, 1.000000000000000000, 1.000000000000000000 ) ;
#255 = EDGE_CURVE ( 'NONE', #739, #281, #854, .T. ) ;
#256 = ORIENTED_EDGE ( 'NONE', *, *, #683, .T. ) ;
#257 = ORIENTED_EDGE ( 'NONE', *, *, #669, .T. ) ;
#258 = AXIS2_PLACEMENT_3D ( 'NONE', #725, #364, #95 ) ;
#259 = VERTEX_POINT ( 'NONE', #273 ) ;
#260 = DIRECTION ( 'NONE',  ( 1.000000000000000000, -0.000000000000000000, 0.000000000000000000 ) ) ;
#261 = ORIENTED_EDGE ( 'NONE', *, *, #903, .T. ) ;
#262 = ADVANCED_FACE ( 'NONE', ( #618, #768 ), #626, .T. ) ;
#263 = CARTESIAN_POINT ( 'NONE',  ( 9.980699634896295080, 5.067435494695663678, 0.5000000000000004441 ) ) ;
#264 = AXIS2_PLACEMENT_3D ( 'NONE', #582, #219, #656 ) ;
#265 = APPLICATION_CONTEXT ( 'automotive_design' ) ;
#266 = VERTEX_POINT ( 'NONE', #1 ) ;
#267 = DIRECTION ( 'NONE',  ( 0.000000000000000000, 0.000000000000000000, 1.000000000000000000 ) ) ;
#268 = AXIS2_PLACEMENT_3D ( 'NONE', #502, #225, #236 ) ;
#269 = FACE_OUTER_BOUND ( 'NONE', #325, .T. ) ;
#270 = EDGE_CURVE ( 'NONE', #742, #281, #380, .T. ) ;
#271 = VECTOR ( 'NONE', #44, 1000.000000000000000 ) ;
#272 = CARTESIAN_POINT ( 'NONE',  ( 9.499999999999987566, 4.929856931646920515, 20.00000000000000000 ) ) ;
#273 = CARTESIAN_POINT ( 'NONE',  ( -6.729794888548291887, 16.42609988268240784, 0.5000000000000004441 ) ) ;
#274 = ORIENTED_EDGE ( 'NONE', *, *, #551, .F. ) ;
#275 = CARTESIAN_POINT ( 'NONE',  ( 9.499999999999987566, 4.929856931646917850, 19.50000000000000000 ) ) ;
#276 = CARTESIAN_POINT ( 'NONE',  ( -6.249095253651985260, 16.28852131963366290, 19.50000000000000000 ) ) ;
#277 = ORIENTED_EDGE ( 'NONE', *, *, #162, .T. ) ;
#278 = DIRECTION ( 'NONE',  ( 0.2751571260974896016, 0.9613992697926133646, -0.000000000000000000 ) ) ;
#279 = ADVANCED_FACE ( 'NONE', ( #837 ), #696, .T. ) ;
#280 = CARTESIAN_POINT ( 'NONE',  ( 9.499999999999987566, 4.929856931646917850, 20.00000000000000000 ) ) ;
#281 = VERTEX_POINT ( 'NONE', #144 ) ;
#282 = AXIS2_PLACEMENT_3D ( 'NONE', #563, #781, #289 ) ;
#283 = CARTESIAN_POINT ( 'NONE',  ( 0.000000000000000000, 14.49999999999998579, 20.00000000000000000 ) ) ;
#284 = PRESENTATION_STYLE_ASSIGNMENT (( #437 ) ) ;
#285 = AXIS2_PLACEMENT_3D ( 'NONE', #317, #598, #459 ) ;
#286 = DIRECTION ( 'NONE',  ( -0.9613992697926128095, 0.2751571260974914890, 0.000000000000000000 ) ) ;
#287 = ADVANCED_FACE ( 'NONE', ( #560 ), #773, .T. ) ;
#288 = ORIENTED_EDGE ( 'NONE', *, *, #824, .T. ) ;
#289 = DIRECTION ( 'NONE',  ( 0.000000000000000000, 0.000000000000000000, -1.000000000000000000 ) ) ;
#290 = DIRECTION ( 'NONE',  ( 0.9613992697926132536, -0.2751571260974898792, 0.000000000000000000 ) ) ;
#291 = FILL_AREA_STYLE ('',( #778 ) ) ;
#292 = DIRECTION ( 'NONE',  ( -0.000000000000000000, -0.000000000000000000, -1.000000000000000000 ) ) ;
#293 = ORIENTED_EDGE ( 'NONE', *, *, #153, .F. ) ;
#294 = EDGE_CURVE ( 'NONE', #266, #375, #526, .T. ) ;
#295 = CYLINDRICAL_SURFACE ( 'NONE', #880, 7.000000000000000000 ) ;
#296 = DIRECTION ( 'NONE',  ( 0.9613992697926133646, -0.2751571260974896016, 0.000000000000000000 ) ) ;
#297 = DIRECTION ( 'NONE',  ( 0.000000000000000000, 1.000000000000000000, 0.000000000000000000 ) ) ;
#298 = EDGE_LOOP ( 'NONE', ( #329, #128, #731, #643 ) ) ;
#299 = VECTOR ( 'NONE', #23, 1000.000000000000000 ) ;
#300 = EDGE_CURVE ( 'NONE', #456, #85, #849, .T. ) ;
#301 = CARTESIAN_POINT ( 'NONE',  ( -10.00000000000001243, 4.999999999999997335, 20.00000000000000000 ) ) ;
#302 =( LENGTH_UNIT ( ) NAMED_UNIT ( * ) SI_UNIT ( .MILLI., .METRE. ) );
#303 = DIRECTION ( 'NONE',  ( 0.000000000000000000, 0.000000000000000000, -1.000000000000000000 ) ) ;
#304 = EDGE_LOOP ( 'NONE', ( #829, #498, #599, #874 ) ) ;
#305 = VECTOR ( 'NONE', #194, 1000.000000000000000 ) ;
#306 = AXIS2_PLACEMENT_3D ( 'NONE', #392, #734, #245 ) ;
#307 =( NAMED_UNIT ( * ) SI_UNIT ( $, .STERADIAN. ) SOLID_ANGLE_UNIT ( ) );
#308 = CARTESIAN_POINT ( 'NONE',  ( -10.00000000000001243, 4.999999999999997335, 0.5000000000000004441 ) ) ;
#309 = SURFACE_SIDE_STYLE ('',( #790 ) ) ;
#310 = ADVANCED_FACE ( 'NONE', ( #74 ), #765, .T. ) ;
#311 = EDGE_LOOP ( 'NONE', ( #383, #823, #531, #518 ) ) ;
#312 = FACE_OUTER_BOUND ( 'NONE', #311, .T. ) ;
#313 = CARTESIAN_POINT ( 'NONE',  ( -6.249095253651985260, 16.28852131963366290, 0.000000000000000000 ) ) ;
#314 = EDGE_LOOP ( 'NONE', ( #892, #387, #852, #237 ) ) ;
#315 = EDGE_CURVE ( 'NONE', #346, #2, #133, .T. ) ;
#316 = DIRECTION ( 'NONE',  ( -0.000000000000000000, 1.000000000000000000, -0.000000000000000000 ) ) ;
#317 = CARTESIAN_POINT ( 'NONE',  ( 9.499999999999987566, -4.500000000000003553, 0.5000000000000000000 ) ) ;
#318 = ORIENTED_EDGE ( 'NONE', *, *, #135, .T. ) ;
#319 = EDGE_CURVE ( 'NONE', #45, #673, #345, .T. ) ;
#320 =( NAMED_UNIT ( * ) PLANE_ANGLE_UNIT ( ) SI_UNIT ( $, .RADIAN. ) );
#321 = CARTESIAN_POINT ( 'NONE',  ( 6.249095253651994142, 16.28852131963365224, 0.000000000000000000 ) ) ;
#322 = DIRECTION ( 'NONE',  ( -1.734723475976806848E-16, 1.000000000000000000, 0.000000000000000000 ) ) ;
#323 = ORIENTED_EDGE ( 'NONE', *, *, #192, .F. ) ;
#324 = EDGE_CURVE ( 'NONE', #737, #354, #615, .T. ) ;
#325 = EDGE_LOOP ( 'NONE', ( #252, #912, #381, #826 ) ) ;
#326 = DIRECTION ( 'NONE',  ( -0.000000000000000000, -1.000000000000000000, 0.000000000000000000 ) ) ;
#327 = ORIENTED_EDGE ( 'NONE', *, *, #835, .T. ) ;
#328 = ORIENTED_EDGE ( 'NONE', *, *, #78, .F. ) ;
#329 = ORIENTED_EDGE ( 'NONE', *, *, #153, .T. ) ;
#330 = MECHANICAL_DESIGN_GEOMETRIC_PRESENTATION_REPRESENTATION (  '', ( #63 ), #842 ) ;
#331 = ORIENTED_EDGE ( 'NONE', *, *, #395, .F. ) ;
#332 = AXIS2_PLACEMENT_3D ( 'NONE', #386, #671, #603 ) ;
#333 = CARTESIAN_POINT ( 'NONE',  ( 9.499999999999987566, 4.929856931646919627, 19.50000000000000000 ) ) ;
#334 = CIRCLE ( 'NONE', #453, 0.5000000000000004441 ) ;
#335 = LINE ( 'NONE', #410, #728 ) ;
#336 = CIRCLE ( 'NONE', #828, 0.5000000000000000000 ) ;
#337 = CARTESIAN_POINT ( 'NONE',  ( 0.000000000000000000, 14.49999999999998579, 20.00000000000000000 ) ) ;
#338 = ADVANCED_FACE ( 'NONE', ( #428 ), #720, .F. ) ;
#339 = FACE_BOUND ( 'NONE', #5, .T. ) ;
#340 = AXIS2_PLACEMENT_3D ( 'NONE', #371, #238, #744 ) ;
#341 = DIRECTION ( 'NONE',  ( 1.000000000000000000, 0.000000000000000000, -0.000000000000000000 ) ) ;
#342 = CIRCLE ( 'NONE', #332, 5.000000000000000888 ) ;
#343 = AXIS2_PLACEMENT_3D ( 'NONE', #152, #77, #436 ) ;
#344 = CARTESIAN_POINT ( 'NONE',  ( 9.499999999999987566, -4.500000000000003553, 0.5000000000000000000 ) ) ;
#345 = LINE ( 'NONE', #487, #102 ) ;
#346 = VERTEX_POINT ( 'NONE', #508 ) ;
#347 = CARTESIAN_POINT ( 'NONE',  ( -6.729794888548291887, 16.42609988268240784, 19.50000000000000000 ) ) ;
#348 = EDGE_CURVE ( 'NONE', #737, #429, #176, .T. ) ;
#349 = DIRECTION ( 'NONE',  ( -0.000000000000000000, -0.000000000000000000, -1.000000000000000000 ) ) ;
#350 = ORIENTED_EDGE ( 'NONE', *, *, #37, .T. ) ;
#351 = DIRECTION ( 'NONE',  ( -0.9613992697926148079, -0.2751571260974851052, 0.000000000000000000 ) ) ;
#352 = ADVANCED_FACE ( 'NONE', ( #369 ), #434, .T. ) ;
#353 = DIRECTION ( 'NONE',  ( 0.000000000000000000, 0.000000000000000000, 1.000000000000000000 ) ) ;
#354 = VERTEX_POINT ( 'NONE', #863 ) ;
#355 = CARTESIAN_POINT ( 'NONE',  ( -9.980699634896318173, 5.067435494695663678, 19.50000000000000000 ) ) ;
#356 = DIRECTION ( 'NONE',  ( 0.000000000000000000, 0.000000000000000000, -1.000000000000000000 ) ) ;
#357 = CARTESIAN_POINT ( 'NONE',  ( -9.500000000000012434, 4.929856931646917850, 0.5000000000000000000 ) ) ;
#358 = AXIS2_PLACEMENT_3D ( 'NONE', #198, #760, #691 ) ;
#359 = CARTESIAN_POINT ( 'NONE',  ( 0.000000000000000000, 14.49999999999998579, 20.00000000000000000 ) ) ;
#360 = ORIENTED_EDGE ( 'NONE', *, *, #300, .F. ) ;
#361 = AXIS2_PLACEMENT_3D ( 'NONE', #418, #911, #485 ) ;
#362 = CARTESIAN_POINT ( 'NONE',  ( 9.499999999999987566, -4.500000000000003553, 20.00000000000000000 ) ) ;
#363 = CARTESIAN_POINT ( 'NONE',  ( -5.000000000000000888, 14.49999999999998579, 20.00000000000000000 ) ) ;
#364 = DIRECTION ( 'NONE',  ( 0.000000000000000000, 0.000000000000000000, 1.000000000000000000 ) ) ;
#365 = ORIENTED_EDGE ( 'NONE', *, *, #722, .F. ) ;
#366 = ADVANCED_FACE ( 'NONE', ( #868 ), #438, .T. ) ;
#367 = LINE ( 'NONE', #648, #72 ) ;
#368 = CARTESIAN_POINT ( 'NONE',  ( 9.499999999999987566, -4.500000000000003553, 0.5000000000000004441 ) ) ;
#369 = FACE_OUTER_BOUND ( 'NONE', #54, .T. ) ;
#370 = EDGE_LOOP ( 'NONE', ( #210, #80, #780, #904 ) ) ;
#371 = CARTESIAN_POINT ( 'NONE',  ( -9.500000000000012434, 4.929856931646917850, 0.5000000000000000000 ) ) ;
#372 = DIRECTION ( 'NONE',  ( 0.2751571260974850497, -0.9613992697926146969, 0.000000000000000000 ) ) ;
#373 =( NAMED_UNIT ( * ) SI_UNIT ( $, .STERADIAN. ) SOLID_ANGLE_UNIT ( ) );
#374 = CARTESIAN_POINT ( 'NONE',  ( -10.00000000000001243, 4.929856931646917850, 0.5000000000000004441 ) ) ;
#375 = VERTEX_POINT ( 'NONE', #374 ) ;
#376 = CIRCLE ( 'NONE', #490, 0.5000000000000004441 ) ;
#377 = DIRECTION ( 'NONE',  ( 0.000000000000000000, 1.000000000000000000, 1.734723475976805319E-15 ) ) ;
#378 = EDGE_CURVE ( 'NONE', #670, #630, #572, .T. ) ;
#379 = ORIENTED_EDGE ( 'NONE', *, *, #875, .T. ) ;
#380 = CIRCLE ( 'NONE', #457, 0.5000000000000003331 ) ;
#381 = ORIENTED_EDGE ( 'NONE', *, *, #91, .F. ) ;
#382 = DIRECTION ( 'NONE',  ( -1.000000000000000000, 0.000000000000000000, 0.000000000000000000 ) ) ;
#383 = ORIENTED_EDGE ( 'NONE', *, *, #192, .T. ) ;
#384 = FACE_OUTER_BOUND ( 'NONE', #766, .T. ) ;
#385 = EDGE_LOOP ( 'NONE', ( #668, #721, #123, #360 ) ) ;
#386 = CARTESIAN_POINT ( 'NONE',  ( 0.000000000000000000, 14.49999999999998579, 0.000000000000000000 ) ) ;
#387 = ORIENTED_EDGE ( 'NONE', *, *, #446, .F. ) ;
#388 = CIRCLE ( 'NONE', #131, 0.5000000000000002220 ) ;
#389 = CIRCLE ( 'NONE', #306, 0.5000000000000004441 ) ;
#390 = EDGE_CURVE ( 'NONE', #47, #489, #334, .T. ) ;
#391 = FILL_AREA_STYLE ('',( #803 ) ) ;
#392 = CARTESIAN_POINT ( 'NONE',  ( -9.500000000000010658, -4.500000000000003553, 19.50000000000000000 ) ) ;
#393 = SPHERICAL_SURFACE ( 'NONE', #787, 0.5000000000000000000 ) ;
#394 = ORIENTED_EDGE ( 'NONE', *, *, #390, .F. ) ;
#395 = EDGE_CURVE ( 'NONE', #742, #259, #84, .T. ) ;
#396 = ORIENTED_EDGE ( 'NONE', *, *, #231, .F. ) ;
#397 = DIRECTION ( 'NONE',  ( 1.000000000000000000, 0.000000000000000000, 0.000000000000000000 ) ) ;
#398 = VERTEX_POINT ( 'NONE', #155 ) ;
#399 = DIRECTION ( 'NONE',  ( 0.000000000000000000, -1.000000000000000000, 0.000000000000000000 ) ) ;
#400 = AXIS2_PLACEMENT_3D ( 'NONE', #631, #73, #421 ) ;
#401 = ORIENTED_EDGE ( 'NONE', *, *, #162, .F. ) ;
#402 = ORIENTED_EDGE ( 'NONE', *, *, #348, .F. ) ;
#403 = AXIS2_PLACEMENT_3D ( 'NONE', #275, #3, #553 ) ;
#404 = DIRECTION ( 'NONE',  ( -1.000000000000000000, 0.000000000000000000, 0.000000000000000000 ) ) ;
#405 = ADVANCED_FACE ( 'NONE', ( #710 ), #512, .T. ) ;
#406 = AXIS2_PLACEMENT_3D ( 'NONE', #549, #62, #621 ) ;
#407 = CARTESIAN_POINT ( 'NONE',  ( 0.000000000000000000, 14.49999999999998579, 20.00000000000000000 ) ) ;
#408 = DIRECTION ( 'NONE',  ( 0.000000000000000000, 0.000000000000000000, 1.000000000000000000 ) ) ;
#409 = CARTESIAN_POINT ( 'NONE',  ( 9.499999999999987566, -4.500000000000003553, 20.00000000000000000 ) ) ;
#410 = CARTESIAN_POINT ( 'NONE',  ( -9.519300365103704920, 4.862421436951251508, 20.00000000000000000 ) ) ;
#411 = CIRCLE ( 'NONE', #743, 0.5000000000000004441 ) ;
#412 = DIRECTION ( 'NONE',  ( -1.000000000000000000, -0.000000000000000000, -0.000000000000000000 ) ) ;
#413 = EDGE_LOOP ( 'NONE', ( #33, #401, #513, #635 ) ) ;
#414 = EDGE_CURVE ( 'NONE', #96, #895, #897, .T. ) ;
#415 = CIRCLE ( 'NONE', #636, 0.5000000000000003331 ) ;
#416 = VECTOR ( 'NONE', #602, 1000.000000000000000 ) ;
#417 = LINE ( 'NONE', #347, #881 ) ;
#418 = CARTESIAN_POINT ( 'NONE',  ( 0.000000000000000000, 14.49999999999998579, 0.000000000000000000 ) ) ;
#419 = ORIENTED_EDGE ( 'NONE', *, *, #624, .T. ) ;
#420 = ADVANCED_FACE ( 'NONE', ( #214 ), #79, .F. ) ;
#421 = DIRECTION ( 'NONE',  ( 1.000000000000000000, 1.734723475976807094E-15, 0.000000000000000000 ) ) ;
#422 = PRESENTATION_LAYER_ASSIGNMENT (  '', '', ( #215 ) ) ;
#423 = VECTOR ( 'NONE', #718, 1000.000000000000000 ) ;
#424 = CYLINDRICAL_SURFACE ( 'NONE', #217, 0.5000000000000000000 ) ;
#425 = EDGE_LOOP ( 'NONE', ( #75, #651, #889, #604 ) ) ;
#426 = FACE_OUTER_BOUND ( 'NONE', #816, .T. ) ;
#427 = FACE_OUTER_BOUND ( 'NONE', #118, .T. ) ;
#428 = FACE_OUTER_BOUND ( 'NONE', #658, .T. ) ;
#429 = VERTEX_POINT ( 'NONE', #641 ) ;
#430 = DIRECTION ( 'NONE',  ( -0.000000000000000000, 0.000000000000000000, 1.000000000000000000 ) ) ;
#431 = CARTESIAN_POINT ( 'NONE',  ( -9.500000000000010658, -4.500000000000003553, 0.000000000000000000 ) ) ;
#432 = DIRECTION ( 'NONE',  ( 0.000000000000000000, 0.000000000000000000, -1.000000000000000000 ) ) ;
#433 = EDGE_CURVE ( 'NONE', #797, #444, #376, .T. ) ;
#434 = SPHERICAL_SURFACE ( 'NONE', #247, 0.5000000000000000000 ) ;
#435 = EDGE_LOOP ( 'NONE', ( #142, #529, #675 ) ) ;
#436 = DIRECTION ( 'NONE',  ( 0.000000000000000000, -1.734723475976807094E-15, 1.000000000000000000 ) ) ;
#437 = SURFACE_STYLE_USAGE ( .BOTH. , #309 ) ;
#438 = CYLINDRICAL_SURFACE ( 'NONE', #482, 0.5000000000000000000 ) ;
#439 = ORIENTED_EDGE ( 'NONE', *, *, #300, .T. ) ;
#440 = PRESENTATION_STYLE_ASSIGNMENT (( #234 ) ) ;
#441 = DIRECTION ( 'NONE',  ( -1.734723475976806848E-16, 1.000000000000000000, 0.000000000000000000 ) ) ;
#442 = CARTESIAN_POINT ( 'NONE',  ( -9.500000000000010658, -5.000000000000004441, 0.5000000000000004441 ) ) ;
#443 = DIRECTION ( 'NONE',  ( 1.000000000000000000, 0.000000000000000000, 0.000000000000000000 ) ) ;
#444 = VERTEX_POINT ( 'NONE', #811 ) ;
#445 = AXIS2_PLACEMENT_3D ( 'NONE', #507, #564, #432 ) ;
#446 = EDGE_CURVE ( 'NONE', #354, #489, #883, .T. ) ;
#447 = CYLINDRICAL_SURFACE ( 'NONE', #652, 5.000000000000000888 ) ;
#448 = DIRECTION ( 'NONE',  ( 0.000000000000000000, 1.000000000000000000, -0.000000000000000000 ) ) ;
#449 = CARTESIAN_POINT ( 'NONE',  ( -9.500000000000014211, 14.49999999999998401, 0.000000000000000000 ) ) ;
#450 = VERTEX_POINT ( 'NONE', #606 ) ;
#451 = AXIS2_PLACEMENT_3D ( 'NONE', #344, #757, #772 ) ;
#452 = SURFACE_SIDE_STYLE ('',( #173 ) ) ;
#453 = AXIS2_PLACEMENT_3D ( 'NONE', #715, #220, #226 ) ;
#454 = CARTESIAN_POINT ( 'NONE',  ( 9.999999999999987566, -5.000000000000004441, 19.50000000000000000 ) ) ;
#455 = LINE ( 'NONE', #825, #305 ) ;
#456 = VERTEX_POINT ( 'NONE', #313 ) ;
#457 = AXIS2_PLACEMENT_3D ( 'NONE', #276, #906, #286 ) ;
#458 = ORIENTED_EDGE ( 'NONE', *, *, #86, .T. ) ;
#459 = DIRECTION ( 'NONE',  ( 0.000000000000000000, 0.000000000000000000, -1.000000000000000000 ) ) ;
#460 = EDGE_LOOP ( 'NONE', ( #257, #888, #109, #870 ) ) ;
#461 = DIRECTION ( 'NONE',  ( -1.000000000000000000, 0.000000000000000000, 0.000000000000000000 ) ) ;
#462 = PRODUCT_DEFINITION_SHAPE ( 'NONE', 'NONE',  #775 ) ;
#463 = CIRCLE ( 'NONE', #400, 7.000000000000000000 ) ;
#464 = ORIENTED_EDGE ( 'NONE', *, *, #514, .F. ) ;
#465 = DIRECTION ( 'NONE',  ( 0.9613992697926128095, -0.2751571260974914890, 0.000000000000000000 ) ) ;
#466 = VERTEX_POINT ( 'NONE', #523 ) ;
#467 = ADVANCED_FACE ( 'NONE', ( #528 ), #393, .T. ) ;
#468 = VECTOR ( 'NONE', #326, 1000.000000000000000 ) ;
#469 = UNCERTAINTY_MEASURE_WITH_UNIT (LENGTH_MEASURE( 1.000000000000000082E-05 ), #302, 'distance_accuracy_value', 'NONE');
#470 = DIRECTION ( 'NONE',  ( 1.000000000000000000, 0.000000000000000000, 0.000000000000000000 ) ) ;
#471 = DIRECTION ( 'NONE',  ( 0.000000000000000000, 0.000000000000000000, -1.000000000000000000 ) ) ;
#472 = ORIENTED_EDGE ( 'NONE', *, *, #315, .T. ) ;
#473 = PRODUCT ( 'Æø¸××ù2', 'Æø¸××ù2', '', ( #659 ) ) ;
#474 = VERTEX_POINT ( 'NONE', #740 ) ;
#475 = CIRCLE ( 'NONE', #264, 0.4999999999999996114 ) ;
#476 = CARTESIAN_POINT ( 'NONE',  ( -9.500000000000014211, 14.49999999999998401, 19.50000000000000000 ) ) ;
#477 = ORIENTED_EDGE ( 'NONE', *, *, #255, .F. ) ;
#478 = ADVANCED_FACE ( 'NONE', ( #175 ), #36, .T. ) ;
#479 = DIRECTION ( 'NONE',  ( 1.000000000000000000, 0.000000000000000000, 0.000000000000000000 ) ) ;
#480 = CARTESIAN_POINT ( 'NONE',  ( 6.729794888548300769, 16.42609988268240073, 20.00000000000000000 ) ) ;
#481 = CARTESIAN_POINT ( 'NONE',  ( -9.500000000000010658, -4.500000000000003553, 19.50000000000000000 ) ) ;
#482 = AXIS2_PLACEMENT_3D ( 'NONE', #497, #27, #303 ) ;
#483 = CARTESIAN_POINT ( 'NONE',  ( -9.500000000000010658, -4.500000000000003553, 0.5000000000000000000 ) ) ;
#484 = ADVANCED_BREP_SHAPE_REPRESENTATION ( 'Æø¸××ù2', ( #801, #763 ), #92 ) ;
#485 = DIRECTION ( 'NONE',  ( 1.000000000000000000, 0.000000000000000000, 0.000000000000000000 ) ) ;
#486 = DIRECTION ( 'NONE',  ( 1.000000000000000000, 0.000000000000000000, 0.000000000000000000 ) ) ;
#487 = CARTESIAN_POINT ( 'NONE',  ( 6.729794888548297216, 16.42609988268240073, 20.00000000000000000 ) ) ;
#488 = EDGE_CURVE ( 'NONE', #85, #673, #388, .T. ) ;
#489 = VERTEX_POINT ( 'NONE', #896 ) ;
#490 = AXIS2_PLACEMENT_3D ( 'NONE', #785, #125, #820 ) ;
#491 = CYLINDRICAL_SURFACE ( 'NONE', #29, 0.5000000000000004441 ) ;
#492 = DIRECTION ( 'NONE',  ( 0.000000000000000000, 0.000000000000000000, 1.000000000000000000 ) ) ;
#493 = AXIS2_PLACEMENT_3D ( 'NONE', #136, #833, #629 ) ;
#494 = ORIENTED_EDGE ( 'NONE', *, *, #129, .T. ) ;
#495 = CARTESIAN_POINT ( 'NONE',  ( -9.500000000000012434, 4.929856931646917850, 20.00000000000000000 ) ) ;
#496 = VECTOR ( 'NONE', #240, 1000.000000000000000 ) ;
#497 = CARTESIAN_POINT ( 'NONE',  ( -10.00000000000001066, -4.500000000000003553, 0.5000000000000004441 ) ) ;
#498 = ORIENTED_EDGE ( 'NONE', *, *, #611, .F. ) ;
#499 = DIRECTION ( 'NONE',  ( -0.000000000000000000, -0.000000000000000000, 1.000000000000000000 ) ) ;
#500 = ADVANCED_FACE ( 'NONE', ( #676 ), #746, .T. ) ;
#501 = DIRECTION ( 'NONE',  ( -1.000000000000000000, 0.000000000000000000, -0.000000000000000000 ) ) ;
#502 = CARTESIAN_POINT ( 'NONE',  ( -9.500000000000012434, 4.929856931646917850, 0.5000000000000004441 ) ) ;
#503 = DIRECTION ( 'NONE',  ( -1.000000000000000000, 0.000000000000000000, 0.000000000000000000 ) ) ;
#504 = ORIENTED_EDGE ( 'NONE', *, *, #294, .T. ) ;
#505 = VECTOR ( 'NONE', #448, 1000.000000000000000 ) ;
#506 = CARTESIAN_POINT ( 'NONE',  ( 9.999999999999987566, -4.500000000000003553, 20.00000000000000000 ) ) ;
#507 = CARTESIAN_POINT ( 'NONE',  ( -9.500000000000010658, -4.500000000000003553, 0.5000000000000000000 ) ) ;
#508 = CARTESIAN_POINT ( 'NONE',  ( -5.000000000000000888, 14.49999999999998579, 0.000000000000000000 ) ) ;
#509 = EDGE_LOOP ( 'NONE', ( #793, #810, #561, #248 ) ) ;
#510 = SPHERICAL_SURFACE ( 'NONE', #340, 0.5000000000000000000 ) ;
#511 = DIRECTION ( 'NONE',  ( 0.000000000000000000, 0.000000000000000000, -1.000000000000000000 ) ) ;
#512 = CYLINDRICAL_SURFACE ( 'NONE', #97, 0.5000000000000004441 ) ;
#513 = ORIENTED_EDGE ( 'NONE', *, *, #750, .F. ) ;
#514 = EDGE_CURVE ( 'NONE', #489, #755, #806, .T. ) ;
#515 = CARTESIAN_POINT ( 'NONE',  ( 0.000000000000000000, 0.000000000000000000, 0.000000000000000000 ) ) ;
#516 = CARTESIAN_POINT ( 'NONE',  ( -10.00000000000001243, 4.999999999999997335, 20.00000000000000000 ) ) ;
#517 =( NAMED_UNIT ( * ) PLANE_ANGLE_UNIT ( ) SI_UNIT ( $, .RADIAN. ) );
#518 = ORIENTED_EDGE ( 'NONE', *, *, #139, .T. ) ;
#519 = ADVANCED_FACE ( 'NONE', ( #542 ), #250, .T. ) ;
#520 = PRESENTATION_LAYER_ASSIGNMENT (  '', '', ( #63 ) ) ;
#521 = CARTESIAN_POINT ( 'NONE',  ( 9.499999999999985789, -5.000000000000004441, 20.00000000000000000 ) ) ;
#522 = CARTESIAN_POINT ( 'NONE',  ( -9.500000000000010658, -4.500000000000003553, 0.5000000000000004441 ) ) ;
#523 = CARTESIAN_POINT ( 'NONE',  ( 9.499999999999987566, 4.929856931646921403, 0.000000000000000000 ) ) ;
#524 = ORIENTED_EDGE ( 'NONE', *, *, #722, .T. ) ;
#525 = CIRCLE ( 'NONE', #65, 0.5000000000000004441 ) ;
#526 = CIRCLE ( 'NONE', #406, 0.5000000000000004441 ) ;
#527 = LINE ( 'NONE', #189, #540 ) ;
#528 = FACE_OUTER_BOUND ( 'NONE', #751, .T. ) ;
#529 = ORIENTED_EDGE ( 'NONE', *, *, #78, .T. ) ;
#530 =( LENGTH_UNIT ( ) NAMED_UNIT ( * ) SI_UNIT ( .MILLI., .METRE. ) );
#531 = ORIENTED_EDGE ( 'NONE', *, *, #179, .T. ) ;
#532 = EDGE_CURVE ( 'NONE', #259, #266, #455, .T. ) ;
#533 = CARTESIAN_POINT ( 'NONE',  ( -10.00000000000001243, 4.999999999999997335, 19.50000000000000000 ) ) ;
#534 = ORIENTED_EDGE ( 'NONE', *, *, #185, .T. ) ;
#535 = AXIS2_PLACEMENT_3D ( 'NONE', #151, #430, #776 ) ;
#536 = DIRECTION ( 'NONE',  ( -0.000000000000000000, -0.000000000000000000, -1.000000000000000000 ) ) ;
#537 = ADVANCED_FACE ( 'NONE', ( #680 ), #736, .T. ) ;
#538 = ORIENTED_EDGE ( 'NONE', *, *, #559, .T. ) ;
#539 = VECTOR ( 'NONE', #695, 1000.000000000000000 ) ;
#540 = VECTOR ( 'NONE', #882, 1000.000000000000000 ) ;
#541 = ORIENTED_EDGE ( 'NONE', *, *, #294, .F. ) ;
#542 = FACE_OUTER_BOUND ( 'NONE', #435, .T. ) ;
#543 = ORIENTED_EDGE ( 'NONE', *, *, #319, .F. ) ;
#544 = EDGE_CURVE ( 'NONE', #47, #429, #40, .T. ) ;
#545 = EDGE_LOOP ( 'NONE', ( #702, #752, #274 ) ) ;
#546 = AXIS2_PLACEMENT_3D ( 'NONE', #202, #492, #840 ) ;
#547 = CYLINDRICAL_SURFACE ( 'NONE', #804, 0.5000000000000004441 ) ;
#548 = FACE_OUTER_BOUND ( 'NONE', #612, .T. ) ;
#549 = CARTESIAN_POINT ( 'NONE',  ( -9.500000000000012434, 4.929856931646917850, 0.5000000000000004441 ) ) ;
#550 = DIRECTION ( 'NONE',  ( -0.2751571260974896016, -0.9613992697926133646, 0.000000000000000000 ) ) ;
#551 = EDGE_CURVE ( 'NONE', #444, #166, #847, .T. ) ;
#552 = CARTESIAN_POINT ( 'NONE',  ( -10.00000000000001066, -4.500000000000003553, 20.00000000000000000 ) ) ;
#553 = DIRECTION ( 'NONE',  ( -1.000000000000000000, -5.204170427930416550E-15, 0.000000000000000000 ) ) ;
#554 = EDGE_CURVE ( 'NONE', #2, #346, #342, .T. ) ;
#555 = LINE ( 'NONE', #552, #146 ) ;
#556 = ORIENTED_EDGE ( 'NONE', *, *, #68, .F. ) ;
#557 = LINE ( 'NONE', #843, #114 ) ;
#558 = CIRCLE ( 'NONE', #268, 0.5000000000000001110 ) ;
#559 = EDGE_CURVE ( 'NONE', #259, #456, #415, .T. ) ;
#560 = FACE_OUTER_BOUND ( 'NONE', #413, .T. ) ;
#561 = ORIENTED_EDGE ( 'NONE', *, *, #244, .F. ) ;
#562 = AXIS2_PLACEMENT_3D ( 'NONE', #700, #620, #130 ) ;
#563 = CARTESIAN_POINT ( 'NONE',  ( 9.499999999999987566, -4.500000000000003553, 19.50000000000000000 ) ) ;
#564 = DIRECTION ( 'NONE',  ( 1.000000000000000000, 0.000000000000000000, 0.000000000000000000 ) ) ;
#565 = CARTESIAN_POINT ( 'NONE',  ( -9.500000000000012434, 4.929856931646917850, 19.50000000000000000 ) ) ;
#566 = AXIS2_PLACEMENT_3D ( 'NONE', #21, #297, #585 ) ;
#567 = ORIENTED_EDGE ( 'NONE', *, *, #890, .F. ) ;
#568 = EDGE_CURVE ( 'NONE', #466, #166, #117, .T. ) ;
#569 = CYLINDRICAL_SURFACE ( 'NONE', #184, 0.5000000000000004441 ) ;
#570 = CARTESIAN_POINT ( 'NONE',  ( 6.249095253651994142, 16.28852131963365579, 0.000000000000000000 ) ) ;
#571 = LINE ( 'NONE', #850, #860 ) ;
#572 = LINE ( 'NONE', #796, #732 ) ;
#573 = ORIENTED_EDGE ( 'NONE', *, *, #611, .T. ) ;
#574 = ADVANCED_FACE ( 'NONE', ( #891 ), #764, .F. ) ;
#575 = CYLINDRICAL_SURFACE ( 'NONE', #6, 0.4999999999999993339 ) ;
#576 = CARTESIAN_POINT ( 'NONE',  ( -9.500000000000012434, 4.929856931646917850, 19.50000000000000000 ) ) ;
#577 = DIRECTION ( 'NONE',  ( 1.000000000000000000, 0.000000000000000000, 0.000000000000000000 ) ) ;
#578 = ORIENTED_EDGE ( 'NONE', *, *, #845, .T. ) ;
#579 = AXIS2_PLACEMENT_3D ( 'NONE', #159, #719, #88 ) ;
#580 = DIRECTION ( 'NONE',  ( -1.000000000000000000, 0.000000000000000000, 0.000000000000000000 ) ) ;
#581 = AXIS2_PLACEMENT_3D ( 'NONE', #51, #316, #356 ) ;
#582 = CARTESIAN_POINT ( 'NONE',  ( 9.499999999999987566, 4.929856931646920515, 19.50000000000000000 ) ) ;
#583 = EDGE_CURVE ( 'NONE', #233, #456, #614, .T. ) ;
#584 = DIRECTION ( 'NONE',  ( 0.000000000000000000, 1.000000000000000000, -0.000000000000000000 ) ) ;
#585 = DIRECTION ( 'NONE',  ( 0.000000000000000000, -0.000000000000000000, 1.000000000000000000 ) ) ;
#586 = ORIENTED_EDGE ( 'NONE', *, *, #31, .T. ) ;
#587 = DIRECTION ( 'NONE',  ( -0.000000000000000000, -0.000000000000000000, -1.000000000000000000 ) ) ;
#588 = CARTESIAN_POINT ( 'NONE',  ( -9.500000000000010658, -4.500000000000003553, 20.00000000000000000 ) ) ;
#589 = DIRECTION ( 'NONE',  ( 1.000000000000000000, 0.000000000000000000, 0.000000000000000000 ) ) ;
#590 = EDGE_CURVE ( 'NONE', #398, #489, #525, .T. ) ;
#591 = EDGE_LOOP ( 'NONE', ( #28, #879, #203, #556 ) ) ;
#592 = CIRCLE ( 'NONE', #195, 5.000000000000000888 ) ;
#593 = DIRECTION ( 'NONE',  ( 1.000000000000000000, 0.000000000000000000, 0.000000000000000000 ) ) ;
#594 = CARTESIAN_POINT ( 'NONE',  ( 9.499999999999987566, -5.000000000000004441, 19.50000000000000000 ) ) ;
#595 = DIRECTION ( 'NONE',  ( 1.000000000000000000, -0.000000000000000000, 0.000000000000000000 ) ) ;
#596 = ORIENTED_EDGE ( 'NONE', *, *, #890, .T. ) ;
#597 = ORIENTED_EDGE ( 'NONE', *, *, #761, .T. ) ;
#598 = DIRECTION ( 'NONE',  ( -0.000000000000000000, 1.000000000000000000, -0.000000000000000000 ) ) ;
#599 = ORIENTED_EDGE ( 'NONE', *, *, #270, .F. ) ;
#600 = ADVANCED_FACE ( 'NONE', ( #137 ), #491, .T. ) ;
#601 = FACE_OUTER_BOUND ( 'NONE', #370, .T. ) ;
#602 = DIRECTION ( 'NONE',  ( 0.2751571260974872701, -0.9613992697926140307, -0.000000000000000000 ) ) ;
#603 = DIRECTION ( 'NONE',  ( 1.000000000000000000, 0.000000000000000000, 0.000000000000000000 ) ) ;
#604 = ORIENTED_EDGE ( 'NONE', *, *, #875, .F. ) ;
#605 = ORIENTED_EDGE ( 'NONE', *, *, #583, .F. ) ;
#606 = CARTESIAN_POINT ( 'NONE',  ( 9.999999999999987566, 4.929856931646920515, 19.50000000000000000 ) ) ;
#607 = EDGE_LOOP ( 'NONE', ( #800, #774, #573, #685, #745, #249 ) ) ;
#608 = CIRCLE ( 'NONE', #127, 0.5000000000000000000 ) ;
#609 = LINE ( 'NONE', #116, #788 ) ;
#610 = DIRECTION ( 'NONE',  ( 0.2751571260974850497, -0.9613992697926146969, 0.000000000000000000 ) ) ;
#611 = EDGE_CURVE ( 'NONE', #281, #354, #335, .T. ) ;
#612 = EDGE_LOOP ( 'NONE', ( #841, #697, #365, #464 ) ) ;
#613 = AXIS2_PLACEMENT_3D ( 'NONE', #246, #595, #107 ) ;
#614 = LINE ( 'NONE', #900, #208 ) ;
#615 = CIRCLE ( 'NONE', #58, 0.5000000000000003331 ) ;
#616 = VECTOR ( 'NONE', #511, 1000.000000000000000 ) ;
#617 = LINE ( 'NONE', #684, #539 ) ;
#618 = FACE_OUTER_BOUND ( 'NONE', #607, .T. ) ;
#619 = TOROIDAL_SURFACE ( 'NONE', #579, 6.500000000000000888, 0.5000000000000000000 ) ;
#620 = DIRECTION ( 'NONE',  ( 0.000000000000000000, 0.000000000000000000, 1.000000000000000000 ) ) ;
#621 = DIRECTION ( 'NONE',  ( -1.000000000000000000, 3.469446951953611033E-15, 0.000000000000000000 ) ) ;
#622 = CIRCLE ( 'NONE', #282, 0.5000000000000004441 ) ;
#623 = AXIS2_PLACEMENT_3D ( 'NONE', #576, #377, #645 ) ;
#624 = EDGE_CURVE ( 'NONE', #630, #673, #617, .T. ) ;
#625 = LINE ( 'NONE', #69, #655 ) ;
#626 = PLANE ( 'NONE',  #777 ) ;
#627 = ORIENTED_EDGE ( 'NONE', *, *, #37, .F. ) ;
#628 = PLANE ( 'NONE',  #562 ) ;
#629 = DIRECTION ( 'NONE',  ( -0.9613992697926128095, 0.2751571260974914890, 0.000000000000000000 ) ) ;
#630 = VERTEX_POINT ( 'NONE', #263 ) ;
#631 = CARTESIAN_POINT ( 'NONE',  ( 0.000000000000000000, 14.49999999999998579, 19.50000000000000000 ) ) ;
#632 = AXIS2_PLACEMENT_3D ( 'NONE', #357, #640, #170 ) ;
#633 = ADVANCED_FACE ( 'NONE', ( #55, #339 ), #628, .F. ) ;
#634 = DIRECTION ( 'NONE',  ( 1.000000000000000000, 0.000000000000000000, 0.000000000000000000 ) ) ;
#635 = ORIENTED_EDGE ( 'NONE', *, *, #903, .F. ) ;
#636 = AXIS2_PLACEMENT_3D ( 'NONE', #814, #183, #465 ) ;
#637 = FACE_OUTER_BOUND ( 'NONE', #666, .T. ) ;
#638 = CYLINDRICAL_SURFACE ( 'NONE', #664, 0.5000000000000004441 ) ;
#639 = APPLICATION_CONTEXT ( 'automotive_design' ) ;
#640 = DIRECTION ( 'NONE',  ( 1.734723475976805319E-15, 1.000000000000000000, 0.000000000000000000 ) ) ;
#641 = CARTESIAN_POINT ( 'NONE',  ( -10.00000000000001243, 4.929856931646917850, 19.50000000000000000 ) ) ;
#642 = AXIS2_PLACEMENT_3D ( 'NONE', #844, #138, #70 ) ;
#643 = ORIENTED_EDGE ( 'NONE', *, *, #839, .F. ) ;
#644 = LINE ( 'NONE', #11, #907 ) ;
#645 = DIRECTION ( 'NONE',  ( 0.000000000000000000, -1.734723475976805517E-15, 1.000000000000000000 ) ) ;
#646 = CARTESIAN_POINT ( 'NONE',  ( 9.999999999999987566, 4.929856931646920515, 20.00000000000000000 ) ) ;
#647 = ORIENTED_EDGE ( 'NONE', *, *, #414, .T. ) ;
#648 = CARTESIAN_POINT ( 'NONE',  ( -10.00000000000001066, -5.000000000000004441, 0.5000000000000004441 ) ) ;
#649 = LINE ( 'NONE', #646, #24 ) ;
#650 = DIRECTION ( 'NONE',  ( 1.000000000000000000, 0.000000000000000000, 0.000000000000000000 ) ) ;
#651 = ORIENTED_EDGE ( 'NONE', *, *, #378, .F. ) ;
#652 = AXIS2_PLACEMENT_3D ( 'NONE', #42, #587, #461 ) ;
#653 = APPLICATION_PROTOCOL_DEFINITION ( 'draft international standard', 'automotive_design', 1998, #265 ) ;
#654 = ADVANCED_FACE ( 'NONE', ( #548 ), #547, .T. ) ;
#655 = VECTOR ( 'NONE', #913, 1000.000000000000000 ) ;
#656 = DIRECTION ( 'NONE',  ( 0.9613992697926142528, 0.2751571260974866595, 0.000000000000000000 ) ) ;
#657 = CARTESIAN_POINT ( 'NONE',  ( -9.500000000000012434, 4.999999999999997335, 0.5000000000000004441 ) ) ;
#658 = EDGE_LOOP ( 'NONE', ( #261, #318, #256, #534 ) ) ;
#659 = PRODUCT_CONTEXT ( 'NONE', #265, 'mechanical' ) ;
#660 = PLANE ( 'NONE',  #188 ) ;
#661 = FACE_OUTER_BOUND ( 'NONE', #216, .T. ) ;
#662 = EDGE_LOOP ( 'NONE', ( #586, #90, #394 ) ) ;
#663 = AXIS2_PLACEMENT_3D ( 'NONE', #480, #762, #701 ) ;
#664 = AXIS2_PLACEMENT_3D ( 'NONE', #588, #871, #224 ) ;
#665 = APPLICATION_PROTOCOL_DEFINITION ( 'draft international standard', 'automotive_design', 1998, #639 ) ;
#666 = EDGE_LOOP ( 'NONE', ( #222, #186, #328, #627 ) ) ;
#667 = CARTESIAN_POINT ( 'NONE',  ( -9.500000000000012434, 4.929856931646917850, 19.50000000000000000 ) ) ;
#668 = ORIENTED_EDGE ( 'NONE', *, *, #559, .F. ) ;
#669 = EDGE_CURVE ( 'NONE', #156, #754, #172, .T. ) ;
#670 = VERTEX_POINT ( 'NONE', #134 ) ;
#671 = DIRECTION ( 'NONE',  ( 0.000000000000000000, 0.000000000000000000, 1.000000000000000000 ) ) ;
#672 = CIRCLE ( 'NONE', #581, 0.5000000000000004441 ) ;
#673 = VERTEX_POINT ( 'NONE', #767 ) ;
#674 = ADVANCED_FACE ( 'NONE', ( #830 ), #140, .T. ) ;
#675 = ORIENTED_EDGE ( 'NONE', *, *, #898, .F. ) ;
#676 = FACE_OUTER_BOUND ( 'NONE', #662, .T. ) ;
#677 = ORIENTED_EDGE ( 'NONE', *, *, #324, .F. ) ;
#678 = ADVANCED_FACE ( 'NONE', ( #836 ), #207, .T. ) ;
#679 = LINE ( 'NONE', #321, #416 ) ;
#680 = FACE_OUTER_BOUND ( 'NONE', #314, .T. ) ;
#681 = EDGE_LOOP ( 'NONE', ( #597, #716, #126, #711 ) ) ;
#682 = COLOUR_RGB ( '',1.000000000000000000, 1.000000000000000000, 1.000000000000000000 ) ;
#683 = EDGE_CURVE ( 'NONE', #398, #895, #625, .T. ) ;
#684 = CARTESIAN_POINT ( 'NONE',  ( 6.729794888548300769, 16.42609988268240073, 0.5000000000000004441 ) ) ;
#685 = ORIENTED_EDGE ( 'NONE', *, *, #446, .T. ) ;
#686 = CIRCLE ( 'NONE', #403, 0.5000000000000004441 ) ;
#687 = DIRECTION ( 'NONE',  ( 0.000000000000000000, 0.000000000000000000, -1.000000000000000000 ) ) ;
#688 = VECTOR ( 'NONE', #232, 1000.000000000000000 ) ;
#689 = DIRECTION ( 'NONE',  ( 0.000000000000000000, 0.000000000000000000, 1.000000000000000000 ) ) ;
#690 =( GEOMETRIC_REPRESENTATION_CONTEXT ( 3 ) GLOBAL_UNCERTAINTY_ASSIGNED_CONTEXT ( ( #834 ) ) GLOBAL_UNIT_ASSIGNED_CONTEXT ( ( #733, #104, #307 ) ) REPRESENTATION_CONTEXT ( 'NONE', 'WORKASPACE' ) );
#691 = DIRECTION ( 'NONE',  ( 1.000000000000000000, 0.000000000000000000, 0.000000000000000000 ) ) ;
#692 = DIRECTION ( 'NONE',  ( 0.000000000000000000, 0.000000000000000000, 1.000000000000000000 ) ) ;
#693 = EDGE_CURVE ( 'NONE', #251, #450, #686, .T. ) ;
#694 = AXIS2_PLACEMENT_3D ( 'NONE', #709, #862, #714 ) ;
#695 = DIRECTION ( 'NONE',  ( -0.2751571260974872701, 0.9613992697926140307, 0.000000000000000000 ) ) ;
#696 = CYLINDRICAL_SURFACE ( 'NONE', #493, 0.5000000000000003331 ) ;
#697 = ORIENTED_EDGE ( 'NONE', *, *, #135, .F. ) ;
#698 = AXIS2_PLACEMENT_3D ( 'NONE', #878, #180, #52 ) ;
#699 = EDGE_CURVE ( 'NONE', #450, #670, #243, .T. ) ;
#700 = CARTESIAN_POINT ( 'NONE',  ( 0.000000000000000000, 14.49999999999998579, 0.000000000000000000 ) ) ;
#701 = DIRECTION ( 'NONE',  ( 0.2751571260974872701, -0.9613992697926140307, 0.000000000000000000 ) ) ;
#702 = ORIENTED_EDGE ( 'NONE', *, *, #433, .F. ) ;
#703 = FACE_OUTER_BOUND ( 'NONE', #899, .T. ) ;
#704 = AXIS2_PLACEMENT_3D ( 'NONE', #229, #12, #290 ) ;
#705 = EDGE_CURVE ( 'NONE', #737, #742, #417, .T. ) ;
#706 = PLANE ( 'NONE',  #663 ) ;
#707 = ORIENTED_EDGE ( 'NONE', *, *, #554, .T. ) ;
#708 = CARTESIAN_POINT ( 'NONE',  ( 9.499999999999987566, -5.000000000000004441, 0.5000000000000004441 ) ) ;
#709 = CARTESIAN_POINT ( 'NONE',  ( 6.249095253651993254, 16.28852131963365579, 19.50000000000000000 ) ) ;
#710 = FACE_OUTER_BOUND ( 'NONE', #298, .T. ) ;
#711 = ORIENTED_EDGE ( 'NONE', *, *, #532, .T. ) ;
#712 = CARTESIAN_POINT ( 'NONE',  ( 5.000000000000000888, 14.49999999999998579, 20.00000000000000000 ) ) ;
#713 = FACE_OUTER_BOUND ( 'NONE', #67, .T. ) ;
#714 = DIRECTION ( 'NONE',  ( -0.9613992697926148079, -0.2751571260974846056, 0.000000000000000000 ) ) ;
#715 = CARTESIAN_POINT ( 'NONE',  ( -9.500000000000010658, -4.500000000000003553, 19.50000000000000000 ) ) ;
#716 = ORIENTED_EDGE ( 'NONE', *, *, #705, .T. ) ;
#717 = EDGE_CURVE ( 'NONE', #754, #2, #557, .T. ) ;
#718 = DIRECTION ( 'NONE',  ( 0.000000000000000000, 0.000000000000000000, -1.000000000000000000 ) ) ;
#719 = DIRECTION ( 'NONE',  ( 0.000000000000000000, 0.000000000000000000, 1.000000000000000000 ) ) ;
#720 = PLANE ( 'NONE',  #566 ) ;
#721 = ORIENTED_EDGE ( 'NONE', *, *, #53, .F. ) ;
#722 = EDGE_CURVE ( 'NONE', #755, #145, #622, .T. ) ;
#723 = DIRECTION ( 'NONE',  ( 0.2751571260974896016, 0.9613992697926133646, 0.000000000000000000 ) ) ;
#724 = CARTESIAN_POINT ( 'NONE',  ( 9.499999999999987566, 4.929856931646920515, 0.5000000000000004441 ) ) ;
#725 = CARTESIAN_POINT ( 'NONE',  ( -9.500000000000010658, -4.500000000000003553, 0.5000000000000004441 ) ) ;
#726 = ORIENTED_EDGE ( 'NONE', *, *, #761, .F. ) ;
#727 = DIRECTION ( 'NONE',  ( 0.000000000000000000, 0.000000000000000000, 1.000000000000000000 ) ) ;
#728 = VECTOR ( 'NONE', #550, 1000.000000000000000 ) ;
#729 = CARTESIAN_POINT ( 'NONE',  ( 9.499999999999987566, 4.999999999999997335, 20.00000000000000000 ) ) ;
#730 = DIRECTION ( 'NONE',  ( 0.000000000000000000, 0.000000000000000000, 1.000000000000000000 ) ) ;
#731 = ORIENTED_EDGE ( 'NONE', *, *, #835, .F. ) ;
#732 = VECTOR ( 'NONE', #149, 1000.000000000000000 ) ;
#733 =( LENGTH_UNIT ( ) NAMED_UNIT ( * ) SI_UNIT ( .MILLI., .METRE. ) );
#734 = DIRECTION ( 'NONE',  ( 0.000000000000000000, 0.000000000000000000, 1.000000000000000000 ) ) ;
#735 = EDGE_CURVE ( 'NONE', #742, #45, #463, .T. ) ;
#736 = CYLINDRICAL_SURFACE ( 'NONE', #56, 0.5000000000000004441 ) ;
#737 = VERTEX_POINT ( 'NONE', #355 ) ;
#738 = CIRCLE ( 'NONE', #106, 0.5000000000000000000 ) ;
#739 = VERTEX_POINT ( 'NONE', #848 ) ;
#740 = CARTESIAN_POINT ( 'NONE',  ( 9.999999999999987566, 4.929856931646920515, 0.5000000000000004441 ) ) ;
#741 = ADVANCED_FACE ( 'NONE', ( #637 ), #575, .T. ) ;
#742 = VERTEX_POINT ( 'NONE', #7 ) ;
#743 = AXIS2_PLACEMENT_3D ( 'NONE', #724, #94, #580 ) ;
#744 = DIRECTION ( 'NONE',  ( 0.000000000000000000, 1.000000000000000000, -1.734723475976808475E-15 ) ) ;
#745 = ORIENTED_EDGE ( 'NONE', *, *, #514, .T. ) ;
#746 = SPHERICAL_SURFACE ( 'NONE', #770, 0.5000000000000000000 ) ;
#747 = AXIS2_PLACEMENT_3D ( 'NONE', #359, #292, #503 ) ;
#748 = CIRCLE ( 'NONE', #343, 0.5000000000000000000 ) ;
#749 = ORIENTED_EDGE ( 'NONE', *, *, #750, .T. ) ;
#750 = EDGE_CURVE ( 'NONE', #145, #112, #782, .T. ) ;
#751 = EDGE_LOOP ( 'NONE', ( #171, #458, #677 ) ) ;
#752 = ORIENTED_EDGE ( 'NONE', *, *, #831, .T. ) ;
#753 = DIRECTION ( 'NONE',  ( -1.734723475976806848E-16, 1.000000000000000000, -0.000000000000000000 ) ) ;
#754 = VERTEX_POINT ( 'NONE', #712 ) ;
#755 = VERTEX_POINT ( 'NONE', #362 ) ;
#756 = VECTOR ( 'NONE', #154, 1000.000000000000000 ) ;
#757 = DIRECTION ( 'NONE',  ( 0.000000000000000000, 1.000000000000000000, 0.000000000000000000 ) ) ;
#758 = FACE_OUTER_BOUND ( 'NONE', #242, .T. ) ;
#759 = AXIS2_PLACEMENT_3D ( 'NONE', #838, #204, #486 ) ;
#760 = DIRECTION ( 'NONE',  ( 0.000000000000000000, 0.000000000000000000, 1.000000000000000000 ) ) ;
#761 = EDGE_CURVE ( 'NONE', #266, #737, #644, .T. ) ;
#762 = DIRECTION ( 'NONE',  ( -0.9613992697926140307, -0.2751571260974872701, 0.000000000000000000 ) ) ;
#763 = AXIS2_PLACEMENT_3D ( 'NONE', #515, #727, #593 ) ;
#764 = PLANE ( 'NONE',  #10 ) ;
#765 = CYLINDRICAL_SURFACE ( 'NONE', #642, 0.4999999999999993339 ) ;
#766 = EDGE_LOOP ( 'NONE', ( #288, #327, #541 ) ) ;
#767 = CARTESIAN_POINT ( 'NONE',  ( 6.729794888548297216, 16.42609988268240073, 0.5000000000000004441 ) ) ;
#768 = FACE_BOUND ( 'NONE', #846, .T. ) ;
#769 = ORIENTED_EDGE ( 'NONE', *, *, #568, .T. ) ;
#770 = AXIS2_PLACEMENT_3D ( 'NONE', #190, #397, #471 ) ;
#771 = ADVANCED_FACE ( 'NONE', ( #703 ), #569, .T. ) ;
#772 = DIRECTION ( 'NONE',  ( -1.000000000000000000, 0.000000000000000000, 0.000000000000000000 ) ) ;
#773 = CYLINDRICAL_SURFACE ( 'NONE', #13, 0.5000000000000004441 ) ;
#774 = ORIENTED_EDGE ( 'NONE', *, *, #255, .T. ) ;
#775 = PRODUCT_DEFINITION ( 'Î´Öª', '', #901, #119 ) ;
#776 = DIRECTION ( 'NONE',  ( 1.000000000000000000, 0.000000000000000000, 0.000000000000000000 ) ) ;
#777 = AXIS2_PLACEMENT_3D ( 'NONE', #407, #689, #341 ) ;
#778 = FILL_AREA_STYLE_COLOUR ( '', #254 ) ;
#779 = DIRECTION ( 'NONE',  ( 0.000000000000000000, 0.000000000000000000, 1.000000000000000000 ) ) ;
#780 = ORIENTED_EDGE ( 'NONE', *, *, #17, .T. ) ;
#781 = DIRECTION ( 'NONE',  ( 1.000000000000000000, 0.000000000000000000, -0.000000000000000000 ) ) ;
#782 = CIRCLE ( 'NONE', #535, 0.5000000000000004441 ) ;
#783 = DIRECTION ( 'NONE',  ( 1.000000000000000000, 1.734723475976806848E-16, -0.000000000000000000 ) ) ;
#784 = CARTESIAN_POINT ( 'NONE',  ( 6.249095253651993254, 16.28852131963365579, 20.00000000000000000 ) ) ;
#785 = CARTESIAN_POINT ( 'NONE',  ( 9.499999999999987566, -4.500000000000003553, 0.5000000000000004441 ) ) ;
#786 = ORIENTED_EDGE ( 'NONE', *, *, #809, .F. ) ;
#787 = AXIS2_PLACEMENT_3D ( 'NONE', #667, #887, #399 ) ;
#788 = VECTOR ( 'NONE', #536, 1000.000000000000000 ) ;
#789 = CARTESIAN_POINT ( 'NONE',  ( 9.499999999999987566, -4.500000000000003553, 0.000000000000000000 ) ) ;
#790 = SURFACE_STYLE_FILL_AREA ( #291 ) ;
#791 = ADVANCED_FACE ( 'NONE', ( #426 ), #295, .T. ) ;
#792 = CARTESIAN_POINT ( 'NONE',  ( -9.500000000000012434, 4.929856931646917850, 19.50000000000000000 ) ) ;
#793 = ORIENTED_EDGE ( 'NONE', *, *, #831, .F. ) ;
#794 = DIRECTION ( 'NONE',  ( 0.000000000000000000, 0.000000000000000000, -1.000000000000000000 ) ) ;
#795 = LINE ( 'NONE', #449, #223 ) ;
#796 = CARTESIAN_POINT ( 'NONE',  ( 9.980699634896295080, 5.067435494695663678, 20.00000000000000000 ) ) ;
#797 = VERTEX_POINT ( 'NONE', #708 ) ;
#798 = PLANE ( 'NONE',  #872 ) ;
#799 = DIRECTION ( 'NONE',  ( 0.000000000000000000, 0.000000000000000000, -1.000000000000000000 ) ) ;
#800 = ORIENTED_EDGE ( 'NONE', *, *, #859, .T. ) ;
#801 = MANIFOLD_SOLID_BREP ( 'Ô²½Ç1', #157 ) ;
#802 = ADVANCED_FACE ( 'NONE', ( #427 ), #111, .T. ) ;
#803 = FILL_AREA_STYLE_COLOUR ( '', #682 ) ;
#804 = AXIS2_PLACEMENT_3D ( 'NONE', #905, #64, #832 ) ;
#805 = CYLINDRICAL_SURFACE ( 'NONE', #704, 0.5000000000000001110 ) ;
#806 = LINE ( 'NONE', #122, #187 ) ;
#807 = ORIENTED_EDGE ( 'NONE', *, *, #824, .F. ) ;
#808 = SHAPE_DEFINITION_REPRESENTATION ( #462, #484 ) ;
#809 = EDGE_CURVE ( 'NONE', #739, #45, #817, .T. ) ;
#810 = ORIENTED_EDGE ( 'NONE', *, *, #185, .F. ) ;
#811 = CARTESIAN_POINT ( 'NONE',  ( 9.999999999999987566, -4.500000000000003553, 0.5000000000000004441 ) ) ;
#812 = ORIENTED_EDGE ( 'NONE', *, *, #148, .T. ) ;
#813 = CARTESIAN_POINT ( 'NONE',  ( 0.000000000000000000, 14.49999999999998579, 0.5000000000000004441 ) ) ;
#814 = CARTESIAN_POINT ( 'NONE',  ( -6.249095253651987925, 16.28852131963366290, 0.5000000000000004441 ) ) ;
#815 = ADVANCED_FACE ( 'NONE', ( #661 ), #873, .T. ) ;
#816 = EDGE_LOOP ( 'NONE', ( #331, #103, #50, #22 ) ) ;
#817 = CIRCLE ( 'NONE', #694, 0.5000000000000002220 ) ;
#818 = UNCERTAINTY_MEASURE_WITH_UNIT (LENGTH_MEASURE( 1.000000000000000082E-05 ), #530, 'distance_accuracy_value', 'NONE');
#819 = CARTESIAN_POINT ( 'NONE',  ( 6.729794888548297216, 16.42609988268240073, 19.50000000000000000 ) ) ;
#820 = DIRECTION ( 'NONE',  ( -1.000000000000000000, 0.000000000000000000, 0.000000000000000000 ) ) ;
#821 = VECTOR ( 'NONE', #753, 1000.000000000000000 ) ;
#822 = CIRCLE ( 'NONE', #910, 7.000000000000000000 ) ;
#823 = ORIENTED_EDGE ( 'NONE', *, *, #544, .T. ) ;
#824 = EDGE_CURVE ( 'NONE', #266, #233, #558, .T. ) ;
#825 = CARTESIAN_POINT ( 'NONE',  ( -10.00000000000001243, 4.999999999999997335, 0.5000000000000004441 ) ) ;
#826 = ORIENTED_EDGE ( 'NONE', *, *, #845, .F. ) ;
#827 = MECHANICAL_DESIGN_GEOMETRIC_PRESENTATION_REPRESENTATION (  '', ( #215 ), #690 ) ;
#828 = AXIS2_PLACEMENT_3D ( 'NONE', #483, #412, #851 ) ;
#829 = ORIENTED_EDGE ( 'NONE', *, *, #324, .T. ) ;
#830 = FACE_OUTER_BOUND ( 'NONE', #38, .T. ) ;
#831 = EDGE_CURVE ( 'NONE', #797, #166, #608, .T. ) ;
#832 = DIRECTION ( 'NONE',  ( 0.000000000000000000, 0.000000000000000000, 1.000000000000000000 ) ) ;
#833 = DIRECTION ( 'NONE',  ( 0.2751571260974896016, 0.9613992697926133646, -0.000000000000000000 ) ) ;
#834 = UNCERTAINTY_MEASURE_WITH_UNIT (LENGTH_MEASURE( 1.000000000000000082E-05 ), #733, 'distance_accuracy_value', 'NONE');
#835 = EDGE_CURVE ( 'NONE', #233, #375, #893, .T. ) ;
#836 = FACE_OUTER_BOUND ( 'NONE', #545, .T. ) ;
#837 = FACE_OUTER_BOUND ( 'NONE', #304, .T. ) ;
#838 = CARTESIAN_POINT ( 'NONE',  ( 9.499999999999987566, 4.929856931646920515, 19.50000000000000000 ) ) ;
#839 = EDGE_CURVE ( 'NONE', #150, #233, #795, .T. ) ;
#840 = DIRECTION ( 'NONE',  ( 1.000000000000000000, 0.000000000000000000, 0.000000000000000000 ) ) ;
#841 = ORIENTED_EDGE ( 'NONE', *, *, #590, .F. ) ;
#842 =( GEOMETRIC_REPRESENTATION_CONTEXT ( 3 ) GLOBAL_UNCERTAINTY_ASSIGNED_CONTEXT ( ( #469 ) ) GLOBAL_UNIT_ASSIGNED_CONTEXT ( ( #302, #517, #373 ) ) REPRESENTATION_CONTEXT ( 'NONE', 'WORKASPACE' ) );
#843 = CARTESIAN_POINT ( 'NONE',  ( 5.000000000000000888, 14.49999999999998579, 20.00000000000000000 ) ) ;
#844 = CARTESIAN_POINT ( 'NONE',  ( 6.249095253651994142, 16.28852131963365224, 19.50000000000000000 ) ) ;
#845 = EDGE_CURVE ( 'NONE', #444, #474, #571, .T. ) ;
#846 = EDGE_LOOP ( 'NONE', ( #221, #396 ) ) ;
#847 = CIRCLE ( 'NONE', #285, 0.5000000000000000000 ) ;
#848 = CARTESIAN_POINT ( 'NONE',  ( 6.249095253651993254, 16.28852131963365579, 20.00000000000000000 ) ) ;
#849 = CIRCLE ( 'NONE', #361, 6.500000000000000888 ) ;
#850 = CARTESIAN_POINT ( 'NONE',  ( 9.999999999999987566, 4.999999999999997335, 0.5000000000000004441 ) ) ;
#851 = DIRECTION ( 'NONE',  ( 0.000000000000000000, 0.000000000000000000, 1.000000000000000000 ) ) ;
#852 = ORIENTED_EDGE ( 'NONE', *, *, #86, .F. ) ;
#853 = DIRECTION ( 'NONE',  ( 0.000000000000000000, 0.000000000000000000, -1.000000000000000000 ) ) ;
#854 = CIRCLE ( 'NONE', #546, 6.500000000000000888 ) ;
#855 = FACE_OUTER_BOUND ( 'NONE', #681, .T. ) ;
#856 = LINE ( 'NONE', #784, #756 ) ;
#857 = CARTESIAN_POINT ( 'NONE',  ( 9.499999999999987566, -4.500000000000003553, 19.50000000000000000 ) ) ;
#858 = EDGE_LOOP ( 'NONE', ( #379, #812, #277, #578 ) ) ;
#859 = EDGE_CURVE ( 'NONE', #251, #739, #856, .T. ) ;
#860 = VECTOR ( 'NONE', #584, 1000.000000000000000 ) ;
#861 = CARTESIAN_POINT ( 'NONE',  ( 9.499999999999987566, 4.929856931646921403, 0.5000000000000000000 ) ) ;
#862 = DIRECTION ( 'NONE',  ( -0.2751571260974845501, 0.9613992697926148079, 0.000000000000000000 ) ) ;
#863 = CARTESIAN_POINT ( 'NONE',  ( -9.500000000000012434, 4.929856931646917850, 20.00000000000000000 ) ) ;
#864 = ORIENTED_EDGE ( 'NONE', *, *, #31, .F. ) ;
#865 = CIRCLE ( 'NONE', #623, 0.5000000000000004441 ) ;
#866 = LINE ( 'NONE', #506, #616 ) ;
#867 = LINE ( 'NONE', #230, #168 ) ;
#868 = FACE_OUTER_BOUND ( 'NONE', #509, .T. ) ;
#869 = ADVANCED_FACE ( 'NONE', ( #83 ), #619, .T. ) ;
#870 = ORIENTED_EDGE ( 'NONE', *, *, #17, .F. ) ;
#871 = DIRECTION ( 'NONE',  ( -0.000000000000000000, 0.000000000000000000, -1.000000000000000000 ) ) ;
#872 = AXIS2_PLACEMENT_3D ( 'NONE', #516, #783, #441 ) ;
#873 = SPHERICAL_SURFACE ( 'NONE', #445, 0.5000000000000000000 ) ;
#874 = ORIENTED_EDGE ( 'NONE', *, *, #705, .F. ) ;
#875 = EDGE_CURVE ( 'NONE', #474, #450, #649, .T. ) ;
#876 = LINE ( 'NONE', #521, #299 ) ;
#877 = LINE ( 'NONE', #454, #496 ) ;
#878 = CARTESIAN_POINT ( 'NONE',  ( 9.499999999999987566, 14.49999999999998579, 19.50000000000000000 ) ) ;
#879 = ORIENTED_EDGE ( 'NONE', *, *, #148, .F. ) ;
#880 = AXIS2_PLACEMENT_3D ( 'NONE', #283, #213, #147 ) ;
#881 = VECTOR ( 'NONE', #278, 1000.000000000000000 ) ;
#882 = DIRECTION ( 'NONE',  ( -1.000000000000000000, -0.000000000000000000, 0.000000000000000000 ) ) ;
#883 = LINE ( 'NONE', #241, #271 ) ;
#884 = ORIENTED_EDGE ( 'NONE', *, *, #683, .F. ) ;
#885 = AXIS2_PLACEMENT_3D ( 'NONE', #66, #353, #634 ) ;
#886 = ORIENTED_EDGE ( 'NONE', *, *, #270, .T. ) ;
#887 = DIRECTION ( 'NONE',  ( 1.000000000000000000, 0.000000000000000000, 0.000000000000000000 ) ) ;
#888 = ORIENTED_EDGE ( 'NONE', *, *, #717, .T. ) ;
#889 = ORIENTED_EDGE ( 'NONE', *, *, #699, .F. ) ;
#890 = EDGE_CURVE ( 'NONE', #45, #670, #867, .T. ) ;
#891 = FACE_OUTER_BOUND ( 'NONE', #858, .T. ) ;
#892 = ORIENTED_EDGE ( 'NONE', *, *, #390, .T. ) ;
#893 = CIRCLE ( 'NONE', #632, 0.5000000000000004441 ) ;
#894 = ORIENTED_EDGE ( 'NONE', *, *, #699, .T. ) ;
#895 = VERTEX_POINT ( 'NONE', #442 ) ;
#896 = CARTESIAN_POINT ( 'NONE',  ( -9.500000000000010658, -4.500000000000003553, 20.00000000000000000 ) ) ;
#897 = CIRCLE ( 'NONE', #258, 0.5000000000000004441 ) ;
#898 = EDGE_CURVE ( 'NONE', #474, #630, #411, .T. ) ;
#899 = EDGE_LOOP ( 'NONE', ( #504, #121, #402, #726 ) ) ;
#900 = CARTESIAN_POINT ( 'NONE',  ( -6.249095253651984372, 16.28852131963366645, 0.000000000000000000 ) ) ;
#901 = PRODUCT_DEFINITION_FORMATION_WITH_SPECIFIED_SOURCE ( 'ÈÎºÎ', '', #473, .NOT_KNOWN. ) ;
#902 = VECTOR ( 'NONE', #501, 1000.000000000000000 ) ;
#903 = EDGE_CURVE ( 'NONE', #797, #145, #876, .T. ) ;
#904 = ORIENTED_EDGE ( 'NONE', *, *, #554, .F. ) ;
#905 = CARTESIAN_POINT ( 'NONE',  ( 0.000000000000000000, -4.500000000000003553, 19.50000000000000000 ) ) ;
#906 = DIRECTION ( 'NONE',  ( 0.2751571260974914335, 0.9613992697926129205, -0.000000000000000000 ) ) ;
#907 = VECTOR ( 'NONE', #499, 1000.000000000000000 ) ;
#908 = ADVANCED_FACE ( 'NONE', ( #601 ), #447, .F. ) ;
#909 = AXIS2_PLACEMENT_3D ( 'NONE', #333, #479, #200 ) ;
#910 = AXIS2_PLACEMENT_3D ( 'NONE', #813, #105, #470 ) ;
#911 = DIRECTION ( 'NONE',  ( -0.000000000000000000, -0.000000000000000000, -1.000000000000000000 ) ) ;
#912 = ORIENTED_EDGE ( 'NONE', *, *, #568, .F. ) ;
#913 = DIRECTION ( 'NONE',  ( -0.000000000000000000, 0.000000000000000000, -1.000000000000000000 ) ) ;
#914 = ADVANCED_FACE ( 'NONE', ( #384 ), #510, .T. ) ;
ENDSEC;
END-ISO-10303-21;
