ISO-10303-21;
HEADER;
FILE_DESCRIPTION (( 'STEP AP214' ),
    '1' );
FILE_NAME ('气缸座 3.step',
    '2023-08-15T03:03:17',
    ( '' ),
    ( '' ),
    'SwSTEP 2.0',
    'SolidWorks 2022',
    '' );
FILE_SCHEMA (( 'AUTOMOTIVE_DESIGN' ));
ENDSEC;

DATA;
#1 = EDGE_CURVE ( 'NONE', #827, #344, #1095, .T. ) ;
#2 = AXIS2_PLACEMENT_3D ( 'NONE', #1023, #1128, #24 ) ;
#3 = ORIENTED_EDGE ( 'NONE', *, *, #576, .T. ) ;
#4 = DIRECTION ( 'NONE',  ( -0.000000000000000000, -0.000000000000000000, -1.000000000000000000 ) ) ;
#5 = CIRCLE ( 'NONE', #949, 0.5000000000000004441 ) ;
#6 = ORIENTED_EDGE ( 'NONE', *, *, #699, .F. ) ;
#7 = CARTESIAN_POINT ( 'NONE',  ( 9.499999999999996447, 4.500000000000000000, -9.500000000000000000 ) ) ;
#8 = EDGE_LOOP ( 'NONE', ( #843, #989, #712, #494, #1105, #979, #814, #142 ) ) ;
#9 = CARTESIAN_POINT ( 'NONE',  ( 0.000000000000000000, 9.500000000000000000, 10.00000000000000000 ) ) ;
#10 = VECTOR ( 'NONE', #1097, 1000.000000000000000 ) ;
#11 = VECTOR ( 'NONE', #72, 1000.000000000000000 ) ;
#12 = DIRECTION ( 'NONE',  ( -1.000000000000000000, -0.000000000000000000, -0.000000000000000000 ) ) ;
#13 = EDGE_LOOP ( 'NONE', ( #39, #1040, #620, #262, #1129, #121, #239, #725 ) ) ;
#14 = DIRECTION ( 'NONE',  ( 3.854941057726238097E-16, -1.000000000000000000, -0.000000000000000000 ) ) ;
#15 = EDGE_CURVE ( 'NONE', #1004, #1009, #1254, .T. ) ;
#16 = ORIENTED_EDGE ( 'NONE', *, *, #896, .T. ) ;
#17 = EDGE_CURVE ( 'NONE', #28, #207, #363, .T. ) ;
#18 = DIRECTION ( 'NONE',  ( 1.000000000000000000, 0.000000000000000000, 0.000000000000000000 ) ) ;
#19 = DIRECTION ( 'NONE',  ( 0.000000000000000000, 0.000000000000000000, 1.000000000000000000 ) ) ;
#20 = VERTEX_POINT ( 'NONE', #173 ) ;
#21 = CYLINDRICAL_SURFACE ( 'NONE', #1184, 0.5000000000000004441 ) ;
#22 = VECTOR ( 'NONE', #58, 1000.000000000000000 ) ;
#23 = VERTEX_POINT ( 'NONE', #535 ) ;
#24 = DIRECTION ( 'NONE',  ( 1.000000000000000000, 0.000000000000000000, -0.000000000000000000 ) ) ;
#25 = ADVANCED_FACE ( 'NONE', ( #734 ), #635, .T. ) ;
#26 = ORIENTED_EDGE ( 'NONE', *, *, #655, .F. ) ;
#27 = FACE_OUTER_BOUND ( 'NONE', #1209, .T. ) ;
#28 = VERTEX_POINT ( 'NONE', #249 ) ;
#29 = CARTESIAN_POINT ( 'NONE',  ( 9.500000000000000000, -4.000000000000000888, -9.500000000000000000 ) ) ;
#30 = EDGE_LOOP ( 'NONE', ( #219, #499, #6 ) ) ;
#31 = CARTESIAN_POINT ( 'NONE',  ( -10.00000000000000178, -4.500000000000000000, 10.00000000000000000 ) ) ;
#32 = ORIENTED_EDGE ( 'NONE', *, *, #464, .F. ) ;
#33 = CIRCLE ( 'NONE', #630, 0.5000000000000002220 ) ;
#34 = VERTEX_POINT ( 'NONE', #524 ) ;
#35 = EDGE_CURVE ( 'NONE', #1185, #101, #495, .T. ) ;
#36 = SURFACE_SIDE_STYLE ('',( #497 ) ) ;
#37 = ORIENTED_EDGE ( 'NONE', *, *, #211, .T. ) ;
#38 = CARTESIAN_POINT ( 'NONE',  ( 9.499999999999996447, 4.390653003321138392, 10.00000000000000000 ) ) ;
#39 = ORIENTED_EDGE ( 'NONE', *, *, #720, .F. ) ;
#40 = CARTESIAN_POINT ( 'NONE',  ( 0.000000000000000000, 9.500000000000000000, -6.000000000000000000 ) ) ;
#41 = ORIENTED_EDGE ( 'NONE', *, *, #750, .F. ) ;
#42 = EDGE_LOOP ( 'NONE', ( #543, #32, #1026, #1188 ) ) ;
#43 = CARTESIAN_POINT ( 'NONE',  ( -10.00000000000000178, -4.000000000000000000, -9.500000000000000000 ) ) ;
#44 = ADVANCED_FACE ( 'NONE', ( #1119 ), #746, .F. ) ;
#45 = ORIENTED_EDGE ( 'NONE', *, *, #158, .F. ) ;
#46 = CARTESIAN_POINT ( 'NONE',  ( 9.500000000000000000, -4.000000000000000000, 9.500000000000000000 ) ) ;
#47 = ORIENTED_EDGE ( 'NONE', *, *, #966, .T. ) ;
#48 = CARTESIAN_POINT ( 'NONE',  ( -5.906627450641153132, 12.21325490128230307, 10.00000000000000000 ) ) ;
#49 = ORIENTED_EDGE ( 'NONE', *, *, #1191, .T. ) ;
#50 = DIRECTION ( 'NONE',  ( 0.4174238309665072588, 0.9087119154832542511, 7.241149190097740146E-16 ) ) ;
#51 = VECTOR ( 'NONE', #542, 1000.000000000000000 ) ;
#52 = VERTEX_POINT ( 'NONE', #270 ) ;
#53 = AXIS2_PLACEMENT_3D ( 'NONE', #762, #168, #1126 ) ;
#54 = ORIENTED_EDGE ( 'NONE', *, *, #260, .T. ) ;
#55 = DIRECTION ( 'NONE',  ( -0.000000000000000000, 1.000000000000000000, -0.000000000000000000 ) ) ;
#56 = ADVANCED_FACE ( 'NONE', ( #632 ), #445, .F. ) ;
#57 = APPLICATION_CONTEXT ( 'automotive_design' ) ;
#58 = DIRECTION ( 'NONE',  ( 1.927470528863119049E-16, -1.000000000000000000, 0.000000000000000000 ) ) ;
#59 = DIRECTION ( 'NONE',  ( 1.000000000000000000, 1.734723475976805517E-15, 0.000000000000000000 ) ) ;
#60 = CARTESIAN_POINT ( 'NONE',  ( -9.954355957741631400, 4.599364918804390356, 9.500000000000000000 ) ) ;
#61 = VERTEX_POINT ( 'NONE', #701 ) ;
#62 = AXIS2_PLACEMENT_3D ( 'NONE', #156, #916, #708 ) ;
#63 = ORIENTED_EDGE ( 'NONE', *, *, #994, .F. ) ;
#64 = DIRECTION ( 'NONE',  ( -0.4174238309665074254, 0.9087119154832541401, 0.000000000000000000 ) ) ;
#65 = VECTOR ( 'NONE', #429, 1000.000000000000000 ) ;
#66 = EDGE_CURVE ( 'NONE', #23, #459, #213, .T. ) ;
#67 = LINE ( 'NONE', #846, #1167 ) ;
#68 = VERTEX_POINT ( 'NONE', #993 ) ;
#69 = CARTESIAN_POINT ( 'NONE',  ( 9.954355957741624294, 4.599364918804392133, -9.500000000000000000 ) ) ;
#70 = EDGE_CURVE ( 'NONE', #247, #1225, #1022, .T. ) ;
#71 = DIRECTION ( 'NONE',  ( 1.000000000000000000, 0.000000000000000000, 0.000000000000000000 ) ) ;
#72 = DIRECTION ( 'NONE',  ( -0.000000000000000000, -0.000000000000000000, -1.000000000000000000 ) ) ;
#73 = DIRECTION ( 'NONE',  ( 0.000000000000000000, 0.000000000000000000, 1.000000000000000000 ) ) ;
#74 = CARTESIAN_POINT ( 'NONE',  ( -5.906627450641152244, 12.21325490128230307, 9.500000000000000000 ) ) ;
#75 = AXIS2_PLACEMENT_3D ( 'NONE', #84, #852, #644 ) ;
#76 = ADVANCED_FACE ( 'NONE', ( #334 ), #498, .T. ) ;
#77 = CARTESIAN_POINT ( 'NONE',  ( 5.906627450641151356, 12.21325490128229774, 10.00000000000000000 ) ) ;
#78 = AXIS2_PLACEMENT_3D ( 'NONE', #150, #64, #1043 ) ;
#79 = DIRECTION ( 'NONE',  ( 0.000000000000000000, 0.000000000000000000, -1.000000000000000000 ) ) ;
#80 = CIRCLE ( 'NONE', #408, 0.5000000000000002220 ) ;
#81 = DIRECTION ( 'NONE',  ( 1.000000000000000000, 0.000000000000000000, 0.000000000000000000 ) ) ;
#82 = AXIS2_PLACEMENT_3D ( 'NONE', #772, #874, #81 ) ;
#83 = DIRECTION ( 'NONE',  ( -0.000000000000000000, 1.000000000000000000, -1.734723475976805319E-15 ) ) ;
#84 = CARTESIAN_POINT ( 'NONE',  ( 9.999999999999996447, 4.500000000000000000, 10.00000000000000000 ) ) ;
#85 = ORIENTED_EDGE ( 'NONE', *, *, #577, .F. ) ;
#86 = CARTESIAN_POINT ( 'NONE',  ( 5.906627450641151356, 12.21325490128229774, 9.500000000000000000 ) ) ;
#87 = EDGE_CURVE ( 'NONE', #728, #182, #116, .T. ) ;
#88 = DIRECTION ( 'NONE',  ( -0.000000000000000000, -0.000000000000000000, -1.000000000000000000 ) ) ;
#89 = ORIENTED_EDGE ( 'NONE', *, *, #280, .F. ) ;
#90 = SURFACE_SIDE_STYLE ('',( #1168 ) ) ;
#91 = DIRECTION ( 'NONE',  ( 0.9087119154832542511, -0.4174238309665073143, 0.000000000000000000 ) ) ;
#92 = ADVANCED_FACE ( 'NONE', ( #27 ), #789, .T. ) ;
#93 = VECTOR ( 'NONE', #969, 1000.000000000000000 ) ;
#94 = FACE_OUTER_BOUND ( 'NONE', #252, .T. ) ;
#95 = FACE_OUTER_BOUND ( 'NONE', #8, .T. ) ;
#96 = DIRECTION ( 'NONE',  ( 0.000000000000000000, 0.000000000000000000, 1.000000000000000000 ) ) ;
#97 = ADVANCED_FACE ( 'NONE', ( #622 ), #1102, .T. ) ;
#98 = CIRCLE ( 'NONE', #253, 0.5000000000000004441 ) ;
#99 = LINE ( 'NONE', #885, #292 ) ;
#100 = ORIENTED_EDGE ( 'NONE', *, *, #423, .T. ) ;
#101 = VERTEX_POINT ( 'NONE', #317 ) ;
#102 = CIRCLE ( 'NONE', #824, 0.5000000000000004441 ) ;
#103 = CARTESIAN_POINT ( 'NONE',  ( 5.906627450641151356, 12.21325490128229951, -10.00000000000000000 ) ) ;
#104 = EDGE_CURVE ( 'NONE', #476, #28, #235, .T. ) ;
#105 =( LENGTH_UNIT ( ) NAMED_UNIT ( * ) SI_UNIT ( .MILLI., .METRE. ) );
#106 = EDGE_CURVE ( 'NONE', #795, #825, #786, .T. ) ;
#107 = ORIENTED_EDGE ( 'NONE', *, *, #1027, .F. ) ;
#108 = FACE_BOUND ( 'NONE', #737, .T. ) ;
#109 = DIRECTION ( 'NONE',  ( 0.4174238309665073698, -0.9087119154832540291, -0.000000000000000000 ) ) ;
#110 = ORIENTED_EDGE ( 'NONE', *, *, #889, .T. ) ;
#111 = AXIS2_PLACEMENT_3D ( 'NONE', #256, #739, #1092 ) ;
#112 = PLANE ( 'NONE',  #935 ) ;
#113 = APPLICATION_CONTEXT ( 'automotive_design' ) ;
#114 = AXIS2_PLACEMENT_3D ( 'NONE', #1141, #174, #645 ) ;
#115 = LINE ( 'NONE', #794, #1093 ) ;
#116 = LINE ( 'NONE', #900, #395 ) ;
#117 = ORIENTED_EDGE ( 'NONE', *, *, #357, .F. ) ;
#118 = DIRECTION ( 'NONE',  ( 0.000000000000000000, 0.000000000000000000, 1.000000000000000000 ) ) ;
#119 = CARTESIAN_POINT ( 'NONE',  ( 6.360983408382778315, 12.42196681676555414, -6.000000000000000000 ) ) ;
#120 = EDGE_CURVE ( 'NONE', #1004, #736, #1170, .T. ) ;
#121 = ORIENTED_EDGE ( 'NONE', *, *, #603, .T. ) ;
#122 = DIRECTION ( 'NONE',  ( 0.000000000000000000, 0.000000000000000000, 1.000000000000000000 ) ) ;
#123 = EDGE_LOOP ( 'NONE', ( #152, #890, #545, #1000 ) ) ;
#124 = CARTESIAN_POINT ( 'NONE',  ( -5.000000000000003553, 9.500000000000000000, -6.000000000000000000 ) ) ;
#125 = ORIENTED_EDGE ( 'NONE', *, *, #379, .F. ) ;
#126 = CARTESIAN_POINT ( 'NONE',  ( -9.500000000000005329, 9.499999999999998224, -10.00000000000000000 ) ) ;
#127 = ORIENTED_EDGE ( 'NONE', *, *, #1098, .F. ) ;
#128 = CYLINDRICAL_SURFACE ( 'NONE', #399, 0.5000000000000004441 ) ;
#129 = VERTEX_POINT ( 'NONE', #311 ) ;
#130 = CIRCLE ( 'NONE', #831, 0.5000000000000002220 ) ;
#131 = DIRECTION ( 'NONE',  ( 0.000000000000000000, 1.000000000000000000, -3.469446951953610639E-15 ) ) ;
#132 = ORIENTED_EDGE ( 'NONE', *, *, #1130, .F. ) ;
#133 = CARTESIAN_POINT ( 'NONE',  ( -5.906627450641152244, 12.21325490128230307, -9.500000000000000000 ) ) ;
#134 = VERTEX_POINT ( 'NONE', #894 ) ;
#135 = DIRECTION ( 'NONE',  ( -0.000000000000000000, -0.000000000000000000, 1.000000000000000000 ) ) ;
#136 = DIRECTION ( 'NONE',  ( 0.000000000000000000, 0.000000000000000000, -1.000000000000000000 ) ) ;
#137 = EDGE_LOOP ( 'NONE', ( #63, #232, #917 ) ) ;
#138 = EDGE_CURVE ( 'NONE', #558, #304, #811, .T. ) ;
#139 = CIRCLE ( 'NONE', #295, 5.000000000000003553 ) ;
#140 = ORIENTED_EDGE ( 'NONE', *, *, #400, .T. ) ;
#141 = DIRECTION ( 'NONE',  ( 1.000000000000000000, 0.000000000000000000, 0.000000000000000000 ) ) ;
#142 = ORIENTED_EDGE ( 'NONE', *, *, #682, .F. ) ;
#143 = FACE_OUTER_BOUND ( 'NONE', #323, .T. ) ;
#144 = DIRECTION ( 'NONE',  ( 0.000000000000000000, 1.000000000000000000, 0.000000000000000000 ) ) ;
#145 = DIRECTION ( 'NONE',  ( 0.000000000000000000, 0.000000000000000000, 1.000000000000000000 ) ) ;
#146 = ORIENTED_EDGE ( 'NONE', *, *, #1005, .T. ) ;
#147 = DIRECTION ( 'NONE',  ( 1.000000000000000000, 0.000000000000000000, 0.000000000000000000 ) ) ;
#148 = ADVANCED_FACE ( 'NONE', ( #1187 ), #981, .T. ) ;
#149 = ORIENTED_EDGE ( 'NONE', *, *, #817, .F. ) ;
#150 = CARTESIAN_POINT ( 'NONE',  ( 5.906627450641151356, 12.21325490128229951, -9.500000000000000000 ) ) ;
#151 = CARTESIAN_POINT ( 'NONE',  ( 5.000000000000003553, 9.500000000000000000, 10.00000000000000000 ) ) ;
#152 = ORIENTED_EDGE ( 'NONE', *, *, #138, .F. ) ;
#153 = DIRECTION ( 'NONE',  ( 0.9087119154832539181, -0.4174238309665077029, 0.000000000000000000 ) ) ;
#154 = AXIS2_PLACEMENT_3D ( 'NONE', #634, #1214, #248 ) ;
#155 = ORIENTED_EDGE ( 'NONE', *, *, #682, .T. ) ;
#156 = CARTESIAN_POINT ( 'NONE',  ( 6.360983408382778315, 12.42196681676555414, 10.00000000000000000 ) ) ;
#157 = MECHANICAL_DESIGN_GEOMETRIC_PRESENTATION_REPRESENTATION (  '', ( #305 ), #653 ) ;
#158 = EDGE_CURVE ( 'NONE', #476, #459, #1193, .T. ) ;
#159 = ORIENTED_EDGE ( 'NONE', *, *, #582, .F. ) ;
#160 = CARTESIAN_POINT ( 'NONE',  ( -10.00000000000000178, -4.000000000000000888, 10.00000000000000000 ) ) ;
#161 = CARTESIAN_POINT ( 'NONE',  ( 0.000000000000000000, 9.500000000000000000, 10.00000000000000000 ) ) ;
#162 = EDGE_CURVE ( 'NONE', #551, #61, #887, .T. ) ;
#163 = CARTESIAN_POINT ( 'NONE',  ( 6.360983408382779203, 12.42196681676555414, -6.000000000000000000 ) ) ;
#164 = ORIENTED_EDGE ( 'NONE', *, *, #749, .T. ) ;
#165 = LINE ( 'NONE', #559, #562 ) ;
#166 = CIRCLE ( 'NONE', #1156, 5.000000000000003553 ) ;
#167 = AXIS2_PLACEMENT_3D ( 'NONE', #867, #779, #1260 ) ;
#168 = DIRECTION ( 'NONE',  ( -0.000000000000000000, -0.000000000000000000, 1.000000000000000000 ) ) ;
#169 = UNCERTAINTY_MEASURE_WITH_UNIT (LENGTH_MEASURE( 1.000000000000000082E-05 ), #105, 'distance_accuracy_value', 'NONE');
#170 = AXIS2_PLACEMENT_3D ( 'NONE', #1175, #426, #1108 ) ;
#171 = EDGE_CURVE ( 'NONE', #247, #1080, #276, .T. ) ;
#172 = CYLINDRICAL_SURFACE ( 'NONE', #951, 0.5000000000000004441 ) ;
#173 = CARTESIAN_POINT ( 'NONE',  ( 6.360983408382780091, 12.42196681676555414, 9.500000000000000000 ) ) ;
#174 = DIRECTION ( 'NONE',  ( 0.4174238309665072588, -0.9087119154832542511, 0.000000000000000000 ) ) ;
#175 = DIRECTION ( 'NONE',  ( 1.000000000000000000, 0.000000000000000000, 0.000000000000000000 ) ) ;
#176 = DIRECTION ( 'NONE',  ( 1.000000000000000000, 0.000000000000000000, 0.000000000000000000 ) ) ;
#177 = DIRECTION ( 'NONE',  ( -0.4174238309665078139, -0.9087119154832540291, 0.000000000000000000 ) ) ;
#178 = VECTOR ( 'NONE', #904, 1000.000000000000000 ) ;
#179 = CARTESIAN_POINT ( 'NONE',  ( 9.500000000000000000, -4.000000000000000888, 9.500000000000000000 ) ) ;
#180 = AXIS2_PLACEMENT_3D ( 'NONE', #1211, #460, #1142 ) ;
#181 = DIRECTION ( 'NONE',  ( -0.000000000000000000, -0.000000000000000000, 1.000000000000000000 ) ) ;
#182 = VERTEX_POINT ( 'NONE', #1025 ) ;
#183 = CARTESIAN_POINT ( 'NONE',  ( 0.000000000000000000, 9.500000000000000000, -10.00000000000000000 ) ) ;
#184 = EDGE_CURVE ( 'NONE', #247, #816, #359, .T. ) ;
#185 = AXIS2_PLACEMENT_3D ( 'NONE', #183, #191, #962 ) ;
#186 = ORIENTED_EDGE ( 'NONE', *, *, #1256, .F. ) ;
#187 = CARTESIAN_POINT ( 'NONE',  ( -9.500000000000003553, 4.390653003321136616, 10.00000000000000000 ) ) ;
#188 = LINE ( 'NONE', #692, #1048 ) ;
#189 = AXIS2_PLACEMENT_3D ( 'NONE', #506, #228, #755 ) ;
#190 = CARTESIAN_POINT ( 'NONE',  ( -9.500000000000001776, -4.500000000000000000, 10.00000000000000000 ) ) ;
#191 = DIRECTION ( 'NONE',  ( 0.000000000000000000, 0.000000000000000000, 1.000000000000000000 ) ) ;
#192 = VECTOR ( 'NONE', #600, 1000.000000000000000 ) ;
#193 = CYLINDRICAL_SURFACE ( 'NONE', #1038, 0.5000000000000002220 ) ;
#194 = CARTESIAN_POINT ( 'NONE',  ( 6.360983408382780091, 12.42196681676555414, -9.500000000000000000 ) ) ;
#195 = VECTOR ( 'NONE', #181, 1000.000000000000000 ) ;
#196 = DIRECTION ( 'NONE',  ( 0.9087119154832542511, 0.4174238309665073143, 0.000000000000000000 ) ) ;
#197 = EDGE_CURVE ( 'NONE', #795, #802, #1100, .T. ) ;
#198 = CARTESIAN_POINT ( 'NONE',  ( 9.999999999999996447, 4.390653003321138392, 10.00000000000000000 ) ) ;
#199 = EDGE_CURVE ( 'NONE', #946, #827, #98, .T. ) ;
#200 = VECTOR ( 'NONE', #855, 1000.000000000000000 ) ;
#201 = CIRCLE ( 'NONE', #628, 0.5000000000000004441 ) ;
#202 =( LENGTH_UNIT ( ) NAMED_UNIT ( * ) SI_UNIT ( .MILLI., .METRE. ) );
#203 = FACE_OUTER_BOUND ( 'NONE', #13, .T. ) ;
#204 = EDGE_CURVE ( 'NONE', #28, #626, #662, .T. ) ;
#205 = AXIS2_PLACEMENT_3D ( 'NONE', #882, #4, #402 ) ;
#206 = LINE ( 'NONE', #1066, #93 ) ;
#207 = VERTEX_POINT ( 'NONE', #544 ) ;
#208 = CARTESIAN_POINT ( 'NONE',  ( -9.500000000000003553, 4.390653003321134840, -9.500000000000000000 ) ) ;
#209 = DIRECTION ( 'NONE',  ( -0.4174238309665077029, -0.9087119154832539181, 0.000000000000000000 ) ) ;
#210 = ORIENTED_EDGE ( 'NONE', *, *, #1162, .F. ) ;
#211 = EDGE_CURVE ( 'NONE', #1080, #565, #223, .T. ) ;
#212 = SHAPE_DEFINITION_REPRESENTATION ( #484, #341 ) ;
#213 = LINE ( 'NONE', #801, #876 ) ;
#214 = ORIENTED_EDGE ( 'NONE', *, *, #138, .T. ) ;
#215 = VECTOR ( 'NONE', #453, 1000.000000000000000 ) ;
#216 = ADVANCED_FACE ( 'NONE', ( #666 ), #1122, .F. ) ;
#217 = DIRECTION ( 'NONE',  ( 0.000000000000000000, 0.000000000000000000, -1.000000000000000000 ) ) ;
#218 = LINE ( 'NONE', #608, #1060 ) ;
#219 = ORIENTED_EDGE ( 'NONE', *, *, #799, .T. ) ;
#220 = CIRCLE ( 'NONE', #677, 5.000000000000003553 ) ;
#221 = CARTESIAN_POINT ( 'NONE',  ( -9.500000000000001776, -4.500000000000000000, -9.500000000000000000 ) ) ;
#222 = VECTOR ( 'NONE', #410, 1000.000000000000000 ) ;
#223 = CIRCLE ( 'NONE', #974, 0.5000000000000002220 ) ;
#224 = FILL_AREA_STYLE_COLOUR ( '', #1166 ) ;
#225 = EDGE_CURVE ( 'NONE', #34, #922, #761, .T. ) ;
#226 = ORIENTED_EDGE ( 'NONE', *, *, #1, .F. ) ;
#227 = CARTESIAN_POINT ( 'NONE',  ( 5.906627450641151356, 12.21325490128229774, 10.00000000000000000 ) ) ;
#228 = DIRECTION ( 'NONE',  ( -0.000000000000000000, -0.000000000000000000, -1.000000000000000000 ) ) ;
#229 = ORIENTED_EDGE ( 'NONE', *, *, #389, .F. ) ;
#230 = DIRECTION ( 'NONE',  ( -1.000000000000000000, 0.000000000000000000, 0.000000000000000000 ) ) ;
#231 = DIRECTION ( 'NONE',  ( -1.000000000000000000, 0.000000000000000000, 0.000000000000000000 ) ) ;
#232 = ORIENTED_EDGE ( 'NONE', *, *, #792, .T. ) ;
#233 = ORIENTED_EDGE ( 'NONE', *, *, #1081, .T. ) ;
#234 = DIRECTION ( 'NONE',  ( 1.000000000000000000, 0.000000000000000000, 0.000000000000000000 ) ) ;
#235 = LINE ( 'NONE', #696, #65 ) ;
#236 = VERTEX_POINT ( 'NONE', #944 ) ;
#237 = ADVANCED_FACE ( 'NONE', ( #1051 ), #356, .T. ) ;
#238 = CARTESIAN_POINT ( 'NONE',  ( 10.00000000000000000, -4.000000000000000888, -9.500000000000000000 ) ) ;
#239 = ORIENTED_EDGE ( 'NONE', *, *, #104, .T. ) ;
#240 = ORIENTED_EDGE ( 'NONE', *, *, #879, .T. ) ;
#241 = AXIS2_PLACEMENT_3D ( 'NONE', #880, #683, #291 ) ;
#242 = AXIS2_PLACEMENT_3D ( 'NONE', #902, #996, #234 ) ;
#243 = EDGE_LOOP ( 'NONE', ( #847, #1198, #369, #318, #110, #1173 ) ) ;
#244 = AXIS2_PLACEMENT_3D ( 'NONE', #1222, #557, #938 ) ;
#245 = DIRECTION ( 'NONE',  ( 0.000000000000000000, 0.000000000000000000, 1.000000000000000000 ) ) ;
#246 = DIRECTION ( 'NONE',  ( -1.000000000000000000, 0.000000000000000000, 0.000000000000000000 ) ) ;
#247 = VERTEX_POINT ( 'NONE', #60 ) ;
#248 = DIRECTION ( 'NONE',  ( 1.000000000000000000, 0.000000000000000000, 0.000000000000000000 ) ) ;
#249 = CARTESIAN_POINT ( 'NONE',  ( -10.00000000000000355, 2.000000000000003553, 6.000000000000000000 ) ) ;
#250 = CARTESIAN_POINT ( 'NONE',  ( 0.000000000000000000, 9.500000000000000000, 6.000000000000000000 ) ) ;
#251 = TOROIDAL_SURFACE ( 'NONE', #82, 6.500000000000002665, 0.5000000000000000000 ) ;
#252 = EDGE_LOOP ( 'NONE', ( #342, #744, #910, #629 ) ) ;
#253 = AXIS2_PLACEMENT_3D ( 'NONE', #375, #145, #748 ) ;
#254 = ORIENTED_EDGE ( 'NONE', *, *, #950, .F. ) ;
#255 = DIRECTION ( 'NONE',  ( 1.000000000000000000, 0.000000000000000000, 0.000000000000000000 ) ) ;
#256 = CARTESIAN_POINT ( 'NONE',  ( -9.500000000000003553, 4.390653003321136616, 9.500000000000000000 ) ) ;
#257 = EDGE_LOOP ( 'NONE', ( #1123, #757, #1030, #769 ) ) ;
#258 = DIRECTION ( 'NONE',  ( 0.4174238309665077029, 0.9087119154832539181, -0.000000000000000000 ) ) ;
#259 = ORIENTED_EDGE ( 'NONE', *, *, #1016, .F. ) ;
#260 = EDGE_CURVE ( 'NONE', #1077, #420, #139, .T. ) ;
#261 = EDGE_CURVE ( 'NONE', #825, #61, #165, .T. ) ;
#262 = ORIENTED_EDGE ( 'NONE', *, *, #1143, .T. ) ;
#263 = DIRECTION ( 'NONE',  ( 0.000000000000000000, 0.000000000000000000, 1.000000000000000000 ) ) ;
#264 = CARTESIAN_POINT ( 'NONE',  ( -10.00000000000000178, -4.500000000000000000, 9.500000000000000000 ) ) ;
#265 = EDGE_LOOP ( 'NONE', ( #1035, #1197, #229, #1241 ) ) ;
#266 = DIRECTION ( 'NONE',  ( 0.4174238309665077029, 0.9087119154832539181, 0.000000000000000000 ) ) ;
#267 = CARTESIAN_POINT ( 'NONE',  ( 0.000000000000000000, 9.500000000000000000, 10.00000000000000000 ) ) ;
#268 = VECTOR ( 'NONE', #1220, 1000.000000000000000 ) ;
#269 = DIRECTION ( 'NONE',  ( 0.000000000000000000, 0.000000000000000000, -1.000000000000000000 ) ) ;
#270 = CARTESIAN_POINT ( 'NONE',  ( 5.000000000000003553, 9.500000000000000000, 6.000000000000000000 ) ) ;
#271 = DIRECTION ( 'NONE',  ( 1.000000000000000000, 0.000000000000000000, -0.000000000000000000 ) ) ;
#272 = VERTEX_POINT ( 'NONE', #69 ) ;
#273 = DIRECTION ( 'NONE',  ( 0.000000000000000000, 0.000000000000000000, 1.000000000000000000 ) ) ;
#274 = FACE_OUTER_BOUND ( 'NONE', #511, .T. ) ;
#275 = CYLINDRICAL_SURFACE ( 'NONE', #1086, 0.5000000000000002220 ) ;
#276 = LINE ( 'NONE', #1046, #679 ) ;
#277 = CARTESIAN_POINT ( 'NONE',  ( -9.500000000000001776, -4.000000000000000000, -9.500000000000000000 ) ) ;
#278 = CARTESIAN_POINT ( 'NONE',  ( -10.00000000000000355, 4.390653003321136616, -6.000000000000000000 ) ) ;
#279 = DIRECTION ( 'NONE',  ( 0.000000000000000000, 0.000000000000000000, -1.000000000000000000 ) ) ;
#280 = EDGE_CURVE ( 'NONE', #1103, #34, #463, .T. ) ;
#281 = CARTESIAN_POINT ( 'NONE',  ( -9.954355957741631400, 4.599364918804390356, 6.000000000000000000 ) ) ;
#282 = CIRCLE ( 'NONE', #982, 0.5000000000000002220 ) ;
#283 = CIRCLE ( 'NONE', #983, 0.5000000000000002220 ) ;
#284 = SURFACE_STYLE_USAGE ( .BOTH. , #90 ) ;
#285 = PRESENTATION_LAYER_ASSIGNMENT (  '', '', ( #986 ) ) ;
#286 = UNCERTAINTY_MEASURE_WITH_UNIT (LENGTH_MEASURE( 1.000000000000000082E-05 ), #1248, 'distance_accuracy_value', 'NONE');
#287 = CARTESIAN_POINT ( 'NONE',  ( 9.999999999999996447, 4.500000000000000000, -6.000000000000000000 ) ) ;
#288 =( GEOMETRIC_REPRESENTATION_CONTEXT ( 3 ) GLOBAL_UNCERTAINTY_ASSIGNED_CONTEXT ( ( #169 ) ) GLOBAL_UNIT_ASSIGNED_CONTEXT ( ( #105, #1115, #1082 ) ) REPRESENTATION_CONTEXT ( 'NONE', 'WORKASPACE' ) );
#289 = CARTESIAN_POINT ( 'NONE',  ( 9.499999999999996447, 4.390653003321138392, 6.000000000000000000 ) ) ;
#290 = CIRCLE ( 'NONE', #1076, 12.50000000000000000 ) ;
#291 = DIRECTION ( 'NONE',  ( 1.000000000000000000, 0.000000000000000000, -0.000000000000000000 ) ) ;
#292 = VECTOR ( 'NONE', #490, 1000.000000000000000 ) ;
#293 = DIRECTION ( 'NONE',  ( 0.000000000000000000, 0.000000000000000000, -1.000000000000000000 ) ) ;
#294 = PRODUCT ( '气缸座 3', '气缸座 3', '', ( #899 ) ) ;
#295 = AXIS2_PLACEMENT_3D ( 'NONE', #456, #652, #1041 ) ;
#296 = ADVANCED_FACE ( 'NONE', ( #589 ), #377, .T. ) ;
#297 = ADVANCED_FACE ( 'NONE', ( #1258 ), #251, .T. ) ;
#298 = CARTESIAN_POINT ( 'NONE',  ( 6.360983408382778315, 12.42196681676555414, 6.000000000000000000 ) ) ;
#299 = DIRECTION ( 'NONE',  ( -1.000000000000000000, 0.000000000000000000, 0.000000000000000000 ) ) ;
#300 = DIRECTION ( 'NONE',  ( 0.000000000000000000, 0.000000000000000000, 1.000000000000000000 ) ) ;
#301 = CARTESIAN_POINT ( 'NONE',  ( -9.500000000000003553, 4.390653003321138392, 10.00000000000000000 ) ) ;
#302 = ADVANCED_FACE ( 'NONE', ( #1053 ), #376, .T. ) ;
#303 = CYLINDRICAL_SURFACE ( 'NONE', #1158, 5.000000000000003553 ) ;
#304 = VERTEX_POINT ( 'NONE', #860 ) ;
#305 = STYLED_ITEM ( 'NONE', ( #585 ), #1233 ) ;
#306 = CIRCLE ( 'NONE', #242, 5.000000000000003553 ) ;
#307 = CIRCLE ( 'NONE', #1014, 0.5000000000000004441 ) ;
#308 = CIRCLE ( 'NONE', #588, 0.5000000000000004441 ) ;
#309 = ORIENTED_EDGE ( 'NONE', *, *, #1109, .F. ) ;
#310 = DIRECTION ( 'NONE',  ( 1.000000000000000000, -0.000000000000000000, 0.000000000000000000 ) ) ;
#311 = CARTESIAN_POINT ( 'NONE',  ( 6.360983408382779203, 12.42196681676555414, 6.000000000000000000 ) ) ;
#312 = ORIENTED_EDGE ( 'NONE', *, *, #837, .F. ) ;
#313 = EDGE_CURVE ( 'NONE', #933, #355, #605, .T. ) ;
#314 = EDGE_LOOP ( 'NONE', ( #818, #612, #37, #210 ) ) ;
#315 = AXIS2_PLACEMENT_3D ( 'NONE', #988, #819, #540 ) ;
#316 = CARTESIAN_POINT ( 'NONE',  ( 10.00000000000000000, -4.499999999999999112, 9.500000000000000000 ) ) ;
#317 = CARTESIAN_POINT ( 'NONE',  ( -5.000000000000003553, 9.500000000000000000, 6.000000000000000000 ) ) ;
#318 = ORIENTED_EDGE ( 'NONE', *, *, #567, .T. ) ;
#319 = EDGE_CURVE ( 'NONE', #551, #697, #1149, .T. ) ;
#320 = VECTOR ( 'NONE', #471, 1000.000000000000000 ) ;
#321 = ORIENTED_EDGE ( 'NONE', *, *, #1159, .F. ) ;
#322 = LINE ( 'NONE', #316, #539 ) ;
#323 = EDGE_LOOP ( 'NONE', ( #89, #240, #719, #881 ) ) ;
#324 = DIRECTION ( 'NONE',  ( -1.734723475976805319E-15, 1.000000000000000000, 0.000000000000000000 ) ) ;
#325 = VERTEX_POINT ( 'NONE', #478 ) ;
#326 = LINE ( 'NONE', #1087, #10 ) ;
#327 = ORIENTED_EDGE ( 'NONE', *, *, #906, .T. ) ;
#328 = DIRECTION ( 'NONE',  ( -1.000000000000000000, 0.000000000000000000, 0.000000000000000000 ) ) ;
#329 = DIRECTION ( 'NONE',  ( -0.9087119154832542511, 0.4174238309665073143, 0.000000000000000000 ) ) ;
#330 = ORIENTED_EDGE ( 'NONE', *, *, #516, .T. ) ;
#331 = SPHERICAL_SURFACE ( 'NONE', #111, 0.5000000000000000000 ) ;
#332 = VERTEX_POINT ( 'NONE', #865 ) ;
#333 = VECTOR ( 'NONE', #109, 1000.000000000000000 ) ;
#334 = FACE_OUTER_BOUND ( 'NONE', #458, .T. ) ;
#335 = EDGE_CURVE ( 'NONE', #332, #68, #308, .T. ) ;
#336 = ORIENTED_EDGE ( 'NONE', *, *, #197, .T. ) ;
#337 = CARTESIAN_POINT ( 'NONE',  ( 6.360983408382780091, 12.42196681676555414, 10.00000000000000000 ) ) ;
#338 = ORIENTED_EDGE ( 'NONE', *, *, #106, .F. ) ;
#339 = LINE ( 'NONE', #1013, #549 ) ;
#340 = ORIENTED_EDGE ( 'NONE', *, *, #1052, .T. ) ;
#341 = ADVANCED_BREP_SHAPE_REPRESENTATION ( '气缸座 3', ( #1233, #526 ), #371 ) ;
#342 = ORIENTED_EDGE ( 'NONE', *, *, #576, .F. ) ;
#343 = FACE_OUTER_BOUND ( 'NONE', #243, .T. ) ;
#344 = VERTEX_POINT ( 'NONE', #1068 ) ;
#345 = FACE_BOUND ( 'NONE', #1172, .T. ) ;
#346 = CARTESIAN_POINT ( 'NONE',  ( -10.00000000000000355, 2.000000000000003553, -6.000000000000000000 ) ) ;
#347 = ORIENTED_EDGE ( 'NONE', *, *, #211, .F. ) ;
#348 = AXIS2_PLACEMENT_3D ( 'NONE', #179, #83, #571 ) ;
#349 = PRODUCT_DEFINITION_FORMATION_WITH_SPECIFIED_SOURCE ( '任何', '', #294, .NOT_KNOWN. ) ;
#350 = ORIENTED_EDGE ( 'NONE', *, *, #225, .F. ) ;
#351 = PLANE ( 'NONE',  #854 ) ;
#352 = CARTESIAN_POINT ( 'NONE',  ( 0.000000000000000000, 9.500000000000000000, 10.00000000000000000 ) ) ;
#353 = ADVANCED_FACE ( 'NONE', ( #94 ), #580, .T. ) ;
#354 = CARTESIAN_POINT ( 'NONE',  ( -9.500000000000003553, 4.390653003321136616, 10.00000000000000000 ) ) ;
#355 = VERTEX_POINT ( 'NONE', #1224 ) ;
#356 = CYLINDRICAL_SURFACE ( 'NONE', #842, 0.5000000000000004441 ) ;
#357 = EDGE_CURVE ( 'NONE', #355, #933, #166, .T. ) ;
#358 = ORIENTED_EDGE ( 'NONE', *, *, #792, .F. ) ;
#359 = CIRCLE ( 'NONE', #1063, 0.5000000000000004441 ) ;
#360 = ORIENTED_EDGE ( 'NONE', *, *, #1034, .F. ) ;
#361 = CARTESIAN_POINT ( 'NONE',  ( 9.500000000000001776, -4.500000000000000000, 10.00000000000000000 ) ) ;
#362 = CARTESIAN_POINT ( 'NONE',  ( -9.545644042258375706, 4.291288084516746260, -9.500000000000000000 ) ) ;
#363 = LINE ( 'NONE', #346, #872 ) ;
#364 = ADVANCED_FACE ( 'NONE', ( #850 ), #765, .T. ) ;
#365 = DIRECTION ( 'NONE',  ( 0.000000000000000000, 0.000000000000000000, 1.000000000000000000 ) ) ;
#366 = DIRECTION ( 'NONE',  ( 1.000000000000000000, 0.000000000000000000, 0.000000000000000000 ) ) ;
#367 = DIRECTION ( 'NONE',  ( 0.000000000000000000, 0.000000000000000000, 1.000000000000000000 ) ) ;
#368 = DIRECTION ( 'NONE',  ( 0.000000000000000000, 0.000000000000000000, 1.000000000000000000 ) ) ;
#369 = ORIENTED_EDGE ( 'NONE', *, *, #441, .T. ) ;
#370 = DIRECTION ( 'NONE',  ( 0.000000000000000000, 0.000000000000000000, -1.000000000000000000 ) ) ;
#371 =( GEOMETRIC_REPRESENTATION_CONTEXT ( 3 ) GLOBAL_UNCERTAINTY_ASSIGNED_CONTEXT ( ( #643 ) ) GLOBAL_UNIT_ASSIGNED_CONTEXT ( ( #202, #727, #619 ) ) REPRESENTATION_CONTEXT ( 'NONE', 'WORKASPACE' ) );
#372 = DIRECTION ( 'NONE',  ( 1.000000000000000000, 0.000000000000000000, 0.000000000000000000 ) ) ;
#373 = VECTOR ( 'NONE', #948, 1000.000000000000227 ) ;
#374 = LINE ( 'NONE', #1144, #373 ) ;
#375 = CARTESIAN_POINT ( 'NONE',  ( -9.500000000000001776, -4.000000000000000000, 9.500000000000000000 ) ) ;
#376 = TOROIDAL_SURFACE ( 'NONE', #856, 6.500000000000002665, 0.5000000000000000000 ) ;
#377 = SPHERICAL_SURFACE ( 'NONE', #1174, 0.5000000000000000000 ) ;
#378 = CYLINDRICAL_SURFACE ( 'NONE', #180, 0.5000000000000004441 ) ;
#379 = EDGE_CURVE ( 'NONE', #1112, #20, #33, .T. ) ;
#380 = DIRECTION ( 'NONE',  ( -0.000000000000000000, -0.000000000000000000, -1.000000000000000000 ) ) ;
#381 = FACE_OUTER_BOUND ( 'NONE', #257, .T. ) ;
#382 = DIRECTION ( 'NONE',  ( -0.000000000000000000, 0.000000000000000000, -1.000000000000000000 ) ) ;
#383 = CARTESIAN_POINT ( 'NONE',  ( 9.499999999999996447, 4.390653003321138392, -9.500000000000000000 ) ) ;
#384 = ORIENTED_EDGE ( 'NONE', *, *, #335, .F. ) ;
#385 = CARTESIAN_POINT ( 'NONE',  ( 9.999999999999996447, 4.500000000000000000, -9.500000000000000000 ) ) ;
#386 = EDGE_LOOP ( 'NONE', ( #47, #892, #647, #592 ) ) ;
#387 = LINE ( 'NONE', #785, #877 ) ;
#388 = ADVANCED_FACE ( 'NONE', ( #381 ), #477, .F. ) ;
#389 = EDGE_CURVE ( 'NONE', #816, #1225, #771, .T. ) ;
#390 = CIRCLE ( 'NONE', #886, 0.5000000000000004441 ) ;
#391 = CLOSED_SHELL ( 'NONE', ( #56, #849, #639, #1065, #353, #216, #871, #841, #1064, #537, #964, #937, #388, #1171, #525, #597, #44, #396, #25, #296, #297, #1070, #76, #92, #777, #1232, #237, #657, #434, #971, #97, #1230, #925, #364, #1029, #1201, #828, #483, #1213, #148, #302, #1096, #546, #1183 ) ) ;
#392 = CARTESIAN_POINT ( 'NONE',  ( 0.000000000000000000, -4.000000000000000000, -10.00000000000000000 ) ) ;
#393 = AXIS2_PLACEMENT_3D ( 'NONE', #591, #88, #299 ) ;
#394 = FACE_OUTER_BOUND ( 'NONE', #707, .T. ) ;
#395 = VECTOR ( 'NONE', #985, 1000.000000000000227 ) ;
#396 = ADVANCED_FACE ( 'NONE', ( #907 ), #1199, .T. ) ;
#397 = DIRECTION ( 'NONE',  ( 1.000000000000000000, 0.000000000000000000, 0.000000000000000000 ) ) ;
#398 = SPHERICAL_SURFACE ( 'NONE', #167, 0.5000000000000000000 ) ;
#399 = AXIS2_PLACEMENT_3D ( 'NONE', #354, #891, #230 ) ;
#400 = EDGE_CURVE ( 'NONE', #901, #551, #115, .T. ) ;
#401 = DIRECTION ( 'NONE',  ( 0.4174238309665044833, 0.9087119154832555834, -0.000000000000000000 ) ) ;
#402 = DIRECTION ( 'NONE',  ( 1.000000000000000000, 0.000000000000000000, 0.000000000000000000 ) ) ;
#403 = DIRECTION ( 'NONE',  ( 0.000000000000000000, 0.000000000000000000, -1.000000000000000000 ) ) ;
#404 = ORIENTED_EDGE ( 'NONE', *, *, #603, .F. ) ;
#405 = AXIS2_PLACEMENT_3D ( 'NONE', #1049, #927, #176 ) ;
#406 = CIRCLE ( 'NONE', #244, 0.5000000000000004441 ) ;
#407 = CARTESIAN_POINT ( 'NONE',  ( -5.000000000000003553, 9.500000000000000000, 10.00000000000000000 ) ) ;
#408 = AXIS2_PLACEMENT_3D ( 'NONE', #1164, #965, #91 ) ;
#409 = DIRECTION ( 'NONE',  ( -1.000000000000000000, 0.000000000000000000, 0.000000000000000000 ) ) ;
#410 = DIRECTION ( 'NONE',  ( -0.000000000000000000, -0.000000000000000000, 1.000000000000000000 ) ) ;
#411 = AXIS2_PLACEMENT_3D ( 'NONE', #1020, #1118, #520 ) ;
#412 = EDGE_LOOP ( 'NONE', ( #146, #898, #844, #1094 ) ) ;
#413 = CARTESIAN_POINT ( 'NONE',  ( -9.954355957741631400, 4.599364918804390356, 10.00000000000000000 ) ) ;
#414 = ORIENTED_EDGE ( 'NONE', *, *, #319, .T. ) ;
#415 = DIRECTION ( 'NONE',  ( 1.927470528863119049E-16, -1.000000000000000000, 0.000000000000000000 ) ) ;
#416 = APPLICATION_PROTOCOL_DEFINITION ( 'draft international standard', 'automotive_design', 1998, #113 ) ;
#417 = ORIENTED_EDGE ( 'NONE', *, *, #655, .T. ) ;
#418 = CARTESIAN_POINT ( 'NONE',  ( -9.500000000000005329, 9.499999999999998224, 9.500000000000000000 ) ) ;
#419 = CARTESIAN_POINT ( 'NONE',  ( 9.499999999999996447, 4.390653003321139281, -9.500000000000000000 ) ) ;
#420 = VERTEX_POINT ( 'NONE', #124 ) ;
#421 = CARTESIAN_POINT ( 'NONE',  ( 9.499999999999996447, 4.500000000000000000, 10.00000000000000000 ) ) ;
#422 = AXIS2_PLACEMENT_3D ( 'NONE', #563, #851, #942 ) ;
#423 = EDGE_CURVE ( 'NONE', #272, #802, #326, .T. ) ;
#424 = ORIENTED_EDGE ( 'NONE', *, *, #1154, .T. ) ;
#425 = EDGE_CURVE ( 'NONE', #1219, #602, #390, .T. ) ;
#426 = DIRECTION ( 'NONE',  ( 0.000000000000000000, 0.000000000000000000, -1.000000000000000000 ) ) ;
#427 = EDGE_LOOP ( 'NONE', ( #1019, #518, #616, #3, #214, #446, #895, #1217 ) ) ;
#428 = DIRECTION ( 'NONE',  ( -1.000000000000000000, 0.000000000000000000, 0.000000000000000000 ) ) ;
#429 = DIRECTION ( 'NONE',  ( 1.927470528863119049E-16, -1.000000000000000000, 0.000000000000000000 ) ) ;
#430 = EDGE_LOOP ( 'NONE', ( #787, #609 ) ) ;
#431 = CARTESIAN_POINT ( 'NONE',  ( -9.500000000000001776, -4.500000000000000888, 10.00000000000000000 ) ) ;
#432 = EDGE_LOOP ( 'NONE', ( #702, #805, #721, #797 ) ) ;
#433 = EDGE_LOOP ( 'NONE', ( #976, #905, #347, #617 ) ) ;
#434 = ADVANCED_FACE ( 'NONE', ( #613 ), #804, .T. ) ;
#435 = EDGE_LOOP ( 'NONE', ( #1110, #327, #100, #259 ) ) ;
#436 = DIRECTION ( 'NONE',  ( -1.000000000000000000, 0.000000000000000000, 0.000000000000000000 ) ) ;
#437 = ORIENTED_EDGE ( 'NONE', *, *, #731, .T. ) ;
#438 = CARTESIAN_POINT ( 'NONE',  ( 9.499999999999996447, 4.390653003321137504, 9.500000000000000000 ) ) ;
#439 = EDGE_LOOP ( 'NONE', ( #226, #995, #26, #1202 ) ) ;
#440 = ORIENTED_EDGE ( 'NONE', *, *, #162, .T. ) ;
#441 = EDGE_CURVE ( 'NONE', #565, #1225, #218, .T. ) ;
#442 = VERTEX_POINT ( 'NONE', #671 ) ;
#443 = LINE ( 'NONE', #631, #675 ) ;
#444 = VECTOR ( 'NONE', #550, 1000.000000000000000 ) ;
#445 = CYLINDRICAL_SURFACE ( 'NONE', #859, 5.000000000000003553 ) ;
#446 = ORIENTED_EDGE ( 'NONE', *, *, #879, .F. ) ;
#447 = DIRECTION ( 'NONE',  ( 1.000000000000000000, 0.000000000000000000, 0.000000000000000000 ) ) ;
#448 = ORIENTED_EDGE ( 'NONE', *, *, #389, .T. ) ;
#449 = DIRECTION ( 'NONE',  ( -0.9087119154832542511, 0.4174238309665073143, 0.000000000000000000 ) ) ;
#450 = VECTOR ( 'NONE', #512, 1000.000000000000000 ) ;
#451 = ORIENTED_EDGE ( 'NONE', *, *, #763, .T. ) ;
#452 = ORIENTED_EDGE ( 'NONE', *, *, #688, .T. ) ;
#453 = DIRECTION ( 'NONE',  ( 0.000000000000000000, -0.000000000000000000, 1.000000000000000000 ) ) ;
#454 = DIRECTION ( 'NONE',  ( -0.4174238309665072588, 0.9087119154832542511, 1.576363892688652072E-15 ) ) ;
#455 = CARTESIAN_POINT ( 'NONE',  ( 9.500000000000000000, -4.000000000000000000, -9.500000000000000000 ) ) ;
#456 = CARTESIAN_POINT ( 'NONE',  ( 0.000000000000000000, 9.500000000000000000, -6.000000000000000000 ) ) ;
#457 = AXIS2_PLACEMENT_3D ( 'NONE', #438, #324, #920 ) ;
#458 = EDGE_LOOP ( 'NONE', ( #440, #1002, #1024, #1204 ) ) ;
#459 = VERTEX_POINT ( 'NONE', #281 ) ;
#460 = DIRECTION ( 'NONE',  ( 0.000000000000000000, 0.000000000000000000, -1.000000000000000000 ) ) ;
#461 = DIRECTION ( 'NONE',  ( -0.000000000000000000, 1.000000000000000000, 0.000000000000000000 ) ) ;
#462 = EDGE_LOOP ( 'NONE', ( #452, #312, #125, #360 ) ) ;
#463 = LINE ( 'NONE', #848, #474 ) ;
#464 = EDGE_CURVE ( 'NONE', #827, #602, #1058, .T. ) ;
#465 = CARTESIAN_POINT ( 'NONE',  ( 0.000000000000000000, 9.500000000000000000, 6.000000000000000000 ) ) ;
#466 = LINE ( 'NONE', #857, #587 ) ;
#467 = CARTESIAN_POINT ( 'NONE',  ( -10.00000000000000355, 4.500000000000000000, 10.00000000000000000 ) ) ;
#468 = EDGE_CURVE ( 'NONE', #420, #1077, #220, .T. ) ;
#469 = VECTOR ( 'NONE', #488, 1000.000000000000000 ) ;
#470 = LINE ( 'NONE', #361, #200 ) ;
#471 = DIRECTION ( 'NONE',  ( -3.854941057726238097E-16, 1.000000000000000000, 0.000000000000000000 ) ) ;
#472 = CARTESIAN_POINT ( 'NONE',  ( 0.000000000000000000, 9.500000000000000000, 9.500000000000000000 ) ) ;
#473 = FACE_OUTER_BOUND ( 'NONE', #30, .T. ) ;
#474 = VECTOR ( 'NONE', #370, 1000.000000000000000 ) ;
#475 = CARTESIAN_POINT ( 'NONE',  ( 9.500000000000000000, -4.000000000000000000, 9.500000000000000000 ) ) ;
#476 = VERTEX_POINT ( 'NONE', #923 ) ;
#477 = PLANE ( 'NONE',  #62 ) ;
#478 = CARTESIAN_POINT ( 'NONE',  ( -6.360983408382780091, 12.42196681676555770, -9.500000000000000000 ) ) ;
#479 = ORIENTED_EDGE ( 'NONE', *, *, #513, .T. ) ;
#480 = DIRECTION ( 'NONE',  ( -1.000000000000000000, -0.000000000000000000, 0.000000000000000000 ) ) ;
#481 = EDGE_CURVE ( 'NONE', #1080, #20, #759, .T. ) ;
#482 = CARTESIAN_POINT ( 'NONE',  ( -9.500000000000001776, -4.500000000000000000, 9.500000000000000000 ) ) ;
#483 = ADVANCED_FACE ( 'NONE', ( #1111 ), #331, .T. ) ;
#484 = PRODUCT_DEFINITION_SHAPE ( 'NONE', 'NONE',  #678 ) ;
#485 = DIRECTION ( 'NONE',  ( -0.000000000000000000, -0.000000000000000000, -1.000000000000000000 ) ) ;
#486 = DIRECTION ( 'NONE',  ( 0.000000000000000000, 1.000000000000000000, -3.469446951953611033E-15 ) ) ;
#487 = DIRECTION ( 'NONE',  ( -0.000000000000000000, -0.000000000000000000, -1.000000000000000000 ) ) ;
#488 = DIRECTION ( 'NONE',  ( -0.4174238309665073698, 0.9087119154832540291, 0.000000000000000000 ) ) ;
#489 = AXIS2_PLACEMENT_3D ( 'NONE', #586, #96, #1075 ) ;
#490 = DIRECTION ( 'NONE',  ( 0.4174238309665073698, -0.9087119154832540291, -0.000000000000000000 ) ) ;
#491 = FACE_OUTER_BOUND ( 'NONE', #462, .T. ) ;
#492 = DIRECTION ( 'NONE',  ( -0.4174238309665077029, -0.9087119154832539181, 0.000000000000000000 ) ) ;
#493 = DIRECTION ( 'NONE',  ( 1.000000000000000000, 1.927470528863119049E-16, -0.000000000000000000 ) ) ;
#494 = ORIENTED_EDGE ( 'NONE', *, *, #66, .F. ) ;
#495 = LINE ( 'NONE', #407, #11 ) ;
#496 = EDGE_CURVE ( 'NONE', #207, #807, #290, .T. ) ;
#497 = SURFACE_STYLE_FILL_AREA ( #1200 ) ;
#498 = CYLINDRICAL_SURFACE ( 'NONE', #774, 0.5000000000000004441 ) ;
#499 = ORIENTED_EDGE ( 'NONE', *, *, #817, .T. ) ;
#500 = CARTESIAN_POINT ( 'NONE',  ( 9.999999999999998224, 1.999999999999994005, -6.000000000000000000 ) ) ;
#501 = CARTESIAN_POINT ( 'NONE',  ( -5.906627450641154020, 12.21325490128230129, 9.500000000000000000 ) ) ;
#502 = AXIS2_PLACEMENT_3D ( 'NONE', #1133, #263, #71 ) ;
#503 = AXIS2_PLACEMENT_3D ( 'NONE', #43, #147, #800 ) ;
#504 = ORIENTED_EDGE ( 'NONE', *, *, #184, .T. ) ;
#505 = CARTESIAN_POINT ( 'NONE',  ( 0.000000000000000000, 9.500000000000000000, 10.00000000000000000 ) ) ;
#506 = CARTESIAN_POINT ( 'NONE',  ( -9.500000000000003553, 4.390653003321136616, 6.000000000000000000 ) ) ;
#507 = EDGE_LOOP ( 'NONE', ( #822, #987, #780, #835 ) ) ;
#508 = CARTESIAN_POINT ( 'NONE',  ( -6.360983408382779203, 12.42196681676555770, -6.000000000000000000 ) ) ;
#509 = AXIS2_PLACEMENT_3D ( 'NONE', #467, #153, #266 ) ;
#510 = CIRCLE ( 'NONE', #411, 0.5000000000000004441 ) ;
#511 = EDGE_LOOP ( 'NONE', ( #336, #912, #638, #338 ) ) ;
#512 = DIRECTION ( 'NONE',  ( -0.000000000000000000, -0.000000000000000000, -1.000000000000000000 ) ) ;
#513 = EDGE_CURVE ( 'NONE', #236, #134, #991, .T. ) ;
#514 = DIRECTION ( 'NONE',  ( -0.4174238309665073698, 0.9087119154832540291, 0.000000000000000000 ) ) ;
#515 = ORIENTED_EDGE ( 'NONE', *, *, #994, .T. ) ;
#516 = EDGE_CURVE ( 'NONE', #129, #23, #1252, .T. ) ;
#517 = DIRECTION ( 'NONE',  ( 0.4174238309665077029, 0.9087119154832539181, 0.000000000000000000 ) ) ;
#518 = ORIENTED_EDGE ( 'NONE', *, *, #15, .F. ) ;
#519 = ORIENTED_EDGE ( 'NONE', *, *, #896, .F. ) ;
#520 = DIRECTION ( 'NONE',  ( 1.000000000000000000, 0.000000000000000000, 0.000000000000000000 ) ) ;
#521 = EDGE_LOOP ( 'NONE', ( #1208, #164, #117, #519 ) ) ;
#522 = LINE ( 'NONE', #431, #596 ) ;
#523 = CIRCLE ( 'NONE', #967, 6.500000000000002665 ) ;
#524 = CARTESIAN_POINT ( 'NONE',  ( -10.00000000000000355, 4.390653003321136616, -9.500000000000000000 ) ) ;
#525 = ADVANCED_FACE ( 'NONE', ( #1104 ), #112, .F. ) ;
#526 = AXIS2_PLACEMENT_3D ( 'NONE', #529, #19, #909 ) ;
#527 = EDGE_LOOP ( 'NONE', ( #623, #254, #1021, #159 ) ) ;
#528 = DIRECTION ( 'NONE',  ( 0.000000000000000000, 3.469446951953611033E-15, 1.000000000000000000 ) ) ;
#529 = CARTESIAN_POINT ( 'NONE',  ( 0.000000000000000000, 0.000000000000000000, 0.000000000000000000 ) ) ;
#530 = ORIENTED_EDGE ( 'NONE', *, *, #15, .T. ) ;
#531 = AXIS2_PLACEMENT_3D ( 'NONE', #419, #1090, #714 ) ;
#532 = DIRECTION ( 'NONE',  ( 1.000000000000000000, 0.000000000000000000, -0.000000000000000000 ) ) ;
#533 = ORIENTED_EDGE ( 'NONE', *, *, #87, .T. ) ;
#534 = CARTESIAN_POINT ( 'NONE',  ( 9.954355957741624294, 4.599364918804392133, 9.500000000000000000 ) ) ;
#535 = CARTESIAN_POINT ( 'NONE',  ( -6.360983408382779203, 12.42196681676555770, 6.000000000000000000 ) ) ;
#536 = ORIENTED_EDGE ( 'NONE', *, *, #688, .F. ) ;
#537 = ADVANCED_FACE ( 'NONE', ( #143 ), #128, .T. ) ;
#538 = ORIENTED_EDGE ( 'NONE', *, *, #950, .T. ) ;
#539 = VECTOR ( 'NONE', #14, 1000.000000000000000 ) ;
#540 = DIRECTION ( 'NONE',  ( 1.000000000000000000, 0.000000000000000000, -0.000000000000000000 ) ) ;
#541 = EDGE_LOOP ( 'NONE', ( #691, #1114, #651 ) ) ;
#542 = DIRECTION ( 'NONE',  ( -0.000000000000000000, -0.000000000000000000, -1.000000000000000000 ) ) ;
#543 = ORIENTED_EDGE ( 'NONE', *, *, #870, .T. ) ;
#544 = CARTESIAN_POINT ( 'NONE',  ( -10.00000000000000355, 2.000000000000003553, -6.000000000000000000 ) ) ;
#545 = ORIENTED_EDGE ( 'NONE', *, *, #791, .T. ) ;
#546 = ADVANCED_FACE ( 'NONE', ( #345, #990 ), #732, .T. ) ;
#547 = ORIENTED_EDGE ( 'NONE', *, *, #984, .T. ) ;
#548 = DIRECTION ( 'NONE',  ( 0.9087119154832542511, 0.4174238309665073143, 0.000000000000000000 ) ) ;
#549 = VECTOR ( 'NONE', #135, 1000.000000000000000 ) ;
#550 = DIRECTION ( 'NONE',  ( -1.000000000000000000, 0.000000000000000000, -0.000000000000000000 ) ) ;
#551 = VERTEX_POINT ( 'NONE', #238 ) ;
#552 = DIRECTION ( 'NONE',  ( 1.927470528863119049E-16, -1.000000000000000000, 0.000000000000000000 ) ) ;
#553 = AXIS2_PLACEMENT_3D ( 'NONE', #1150, #382, #766 ) ;
#554 = VERTEX_POINT ( 'NONE', #830 ) ;
#555 = EDGE_LOOP ( 'NONE', ( #1177, #330, #730, #832 ) ) ;
#556 = DIRECTION ( 'NONE',  ( -0.000000000000000000, -0.000000000000000000, -1.000000000000000000 ) ) ;
#557 = DIRECTION ( 'NONE',  ( 0.000000000000000000, 0.000000000000000000, 1.000000000000000000 ) ) ;
#558 = VERTEX_POINT ( 'NONE', #508 ) ;
#559 = CARTESIAN_POINT ( 'NONE',  ( 9.499999999999994671, 9.500000000000003553, -10.00000000000000000 ) ) ;
#560 = AXIS2_PLACEMENT_3D ( 'NONE', #1028, #1001, #776 ) ;
#561 = AXIS2_PLACEMENT_3D ( 'NONE', #659, #1223, #931 ) ;
#562 = VECTOR ( 'NONE', #939, 1000.000000000000000 ) ;
#563 = CARTESIAN_POINT ( 'NONE',  ( 0.000000000000000000, 9.500000000000000000, 10.00000000000000000 ) ) ;
#564 = CARTESIAN_POINT ( 'NONE',  ( 0.000000000000000000, -4.000000000000000000, 9.500000000000000000 ) ) ;
#565 = VERTEX_POINT ( 'NONE', #48 ) ;
#566 = CARTESIAN_POINT ( 'NONE',  ( -10.00000000000000355, 4.500000000000000000, -9.500000000000000000 ) ) ;
#567 = EDGE_CURVE ( 'NONE', #1225, #344, #522, .T. ) ;
#568 = DIRECTION ( 'NONE',  ( -0.9087119154832525858, -0.4174238309665108115, 0.000000000000000000 ) ) ;
#569 = CARTESIAN_POINT ( 'NONE',  ( 0.000000000000000000, 9.500000000000000000, 6.000000000000000000 ) ) ;
#570 = CARTESIAN_POINT ( 'NONE',  ( -9.500000000000003553, 4.390653003321136616, -9.500000000000000000 ) ) ;
#571 = DIRECTION ( 'NONE',  ( 0.000000000000000000, -1.734723475976805517E-15, -1.000000000000000000 ) ) ;
#572 = DIRECTION ( 'NONE',  ( 0.9087119154832542511, 0.4174238309665073143, 0.000000000000000000 ) ) ;
#573 = ORIENTED_EDGE ( 'NONE', *, *, #70, .F. ) ;
#574 = AXIS2_PLACEMENT_3D ( 'NONE', #1008, #131, #528 ) ;
#575 = DIRECTION ( 'NONE',  ( -0.000000000000000000, 0.000000000000000000, -1.000000000000000000 ) ) ;
#576 = EDGE_CURVE ( 'NONE', #736, #558, #1113, .T. ) ;
#577 = EDGE_CURVE ( 'NONE', #802, #325, #669, .T. ) ;
#578 = DIRECTION ( 'NONE',  ( 0.4174238309665074254, -0.9087119154832541401, 0.000000000000000000 ) ) ;
#579 = DIRECTION ( 'NONE',  ( -0.000000000000000000, -0.000000000000000000, -1.000000000000000000 ) ) ;
#580 = CYLINDRICAL_SURFACE ( 'NONE', #953, 7.000000000000002665 ) ;
#581 =( NAMED_UNIT ( * ) SI_UNIT ( $, .STERADIAN. ) SOLID_ANGLE_UNIT ( ) );
#582 = EDGE_CURVE ( 'NONE', #1132, #236, #724, .T. ) ;
#583 = CARTESIAN_POINT ( 'NONE',  ( -10.00000000000000355, 4.390653003321136616, 9.500000000000000000 ) ) ;
#584 = COLOUR_RGB ( '',1.000000000000000000, 1.000000000000000000, 1.000000000000000000 ) ;
#585 = PRESENTATION_STYLE_ASSIGNMENT (( #284 ) ) ;
#586 = CARTESIAN_POINT ( 'NONE',  ( -9.500000000000001776, -4.000000000000000000, -9.500000000000000000 ) ) ;
#587 = VECTOR ( 'NONE', #1240, 1000.000000000000000 ) ;
#588 = AXIS2_PLACEMENT_3D ( 'NONE', #289, #485, #681 ) ;
#589 = FACE_OUTER_BOUND ( 'NONE', #541, .T. ) ;
#590 = ORIENTED_EDGE ( 'NONE', *, *, #906, .F. ) ;
#591 = CARTESIAN_POINT ( 'NONE',  ( 0.000000000000000000, 9.500000000000000000, 10.00000000000000000 ) ) ;
#592 = ORIENTED_EDGE ( 'NONE', *, *, #35, .F. ) ;
#593 = EDGE_CURVE ( 'NONE', #20, #129, #806, .T. ) ;
#594 = ORIENTED_EDGE ( 'NONE', *, *, #862, .F. ) ;
#595 = LINE ( 'NONE', #980, #788 ) ;
#596 = VECTOR ( 'NONE', #415, 1000.000000000000000 ) ;
#597 = ADVANCED_FACE ( 'NONE', ( #798 ), #1181, .F. ) ;
#598 = DIRECTION ( 'NONE',  ( -3.854941057726238097E-16, 1.000000000000000000, 0.000000000000000000 ) ) ;
#599 = CIRCLE ( 'NONE', #1210, 5.000000000000003553 ) ;
#600 = DIRECTION ( 'NONE',  ( -1.927470528863119049E-16, 1.000000000000000000, -0.000000000000000000 ) ) ;
#601 = DIRECTION ( 'NONE',  ( 1.000000000000000000, 0.000000000000000000, 0.000000000000000000 ) ) ;
#602 = VERTEX_POINT ( 'NONE', #221 ) ;
#603 = EDGE_CURVE ( 'NONE', #816, #476, #610, .T. ) ;
#604 = DIRECTION ( 'NONE',  ( 0.000000000000000000, 0.000000000000000000, 1.000000000000000000 ) ) ;
#605 = CIRCLE ( 'NONE', #185, 5.000000000000003553 ) ;
#606 = EDGE_CURVE ( 'NONE', #442, #304, #339, .T. ) ;
#607 = CARTESIAN_POINT ( 'NONE',  ( 0.000000000000000000, 9.500000000000000000, 10.00000000000000000 ) ) ;
#608 = CARTESIAN_POINT ( 'NONE',  ( -9.545644042258377482, 4.291288084516743595, 10.00000000000000000 ) ) ;
#609 = ORIENTED_EDGE ( 'NONE', *, *, #313, .T. ) ;
#610 = LINE ( 'NONE', #999, #618 ) ;
#611 = VECTOR ( 'NONE', #209, 1000.000000000000227 ) ;
#612 = ORIENTED_EDGE ( 'NONE', *, *, #481, .F. ) ;
#613 = FACE_OUTER_BOUND ( 'NONE', #915, .T. ) ;
#614 = VERTEX_POINT ( 'NONE', #534 ) ;
#615 = DIRECTION ( 'NONE',  ( -0.4174238309665073698, 0.9087119154832540291, 0.000000000000000000 ) ) ;
#616 = ORIENTED_EDGE ( 'NONE', *, *, #120, .T. ) ;
#617 = ORIENTED_EDGE ( 'NONE', *, *, #171, .F. ) ;
#618 = VECTOR ( 'NONE', #1196, 1000.000000000000000 ) ;
#619 =( NAMED_UNIT ( * ) SI_UNIT ( $, .STERADIAN. ) SOLID_ANGLE_UNIT ( ) );
#620 = ORIENTED_EDGE ( 'NONE', *, *, #225, .T. ) ;
#621 = FACE_BOUND ( 'NONE', #430, .T. ) ;
#622 = FACE_OUTER_BOUND ( 'NONE', #820, .T. ) ;
#623 = ORIENTED_EDGE ( 'NONE', *, *, #1098, .T. ) ;
#624 = CARTESIAN_POINT ( 'NONE',  ( 0.000000000000000000, 9.500000000000000000, -6.000000000000000000 ) ) ;
#625 = CIRCLE ( 'NONE', #1138, 5.000000000000003553 ) ;
#626 = VERTEX_POINT ( 'NONE', #913 ) ;
#627 = ORIENTED_EDGE ( 'NONE', *, *, #184, .F. ) ;
#628 = AXIS2_PLACEMENT_3D ( 'NONE', #1227, #1139, #79 ) ;
#629 = ORIENTED_EDGE ( 'NONE', *, *, #756, .F. ) ;
#630 = AXIS2_PLACEMENT_3D ( 'NONE', #86, #1042, #568 ) ;
#631 = CARTESIAN_POINT ( 'NONE',  ( -10.00000000000000355, 4.500000000000000000, 9.500000000000000000 ) ) ;
#632 = FACE_OUTER_BOUND ( 'NONE', #386, .T. ) ;
#633 = ORIENTED_EDGE ( 'NONE', *, *, #984, .F. ) ;
#634 = CARTESIAN_POINT ( 'NONE',  ( 0.000000000000000000, 9.500000000000000000, -9.500000000000000000 ) ) ;
#635 = SPHERICAL_SURFACE ( 'NONE', #637, 0.5000000000000000000 ) ;
#636 = DIRECTION ( 'NONE',  ( 1.734723475976805319E-15, 1.000000000000000000, 0.000000000000000000 ) ) ;
#637 = AXIS2_PLACEMENT_3D ( 'NONE', #455, #144, #231 ) ;
#638 = ORIENTED_EDGE ( 'NONE', *, *, #1081, .F. ) ;
#639 = ADVANCED_FACE ( 'NONE', ( #767 ), #1039, .F. ) ;
#640 = AXIS2_PLACEMENT_3D ( 'NONE', #46, #141, #888 ) ;
#641 = ORIENTED_EDGE ( 'NONE', *, *, #400, .F. ) ;
#642 = FACE_OUTER_BOUND ( 'NONE', #435, .T. ) ;
#643 = UNCERTAINTY_MEASURE_WITH_UNIT (LENGTH_MEASURE( 1.000000000000000082E-05 ), #202, 'distance_accuracy_value', 'NONE');
#644 = DIRECTION ( 'NONE',  ( 3.854941057726238097E-16, -1.000000000000000000, 0.000000000000000000 ) ) ;
#645 = DIRECTION ( 'NONE',  ( 0.9087119154832542511, 0.4174238309665073143, 0.000000000000000000 ) ) ;
#646 = ORIENTED_EDGE ( 'NONE', *, *, #698, .T. ) ;
#647 = ORIENTED_EDGE ( 'NONE', *, *, #1052, .F. ) ;
#648 = CYLINDRICAL_SURFACE ( 'NONE', #405, 12.50000000000000000 ) ;
#649 = DIRECTION ( 'NONE',  ( -0.000000000000000000, -0.000000000000000000, -1.000000000000000000 ) ) ;
#650 = CARTESIAN_POINT ( 'NONE',  ( -9.500000000000003553, 4.390653003321134840, -10.00000000000000000 ) ) ;
#651 = ORIENTED_EDGE ( 'NONE', *, *, #870, .F. ) ;
#652 = DIRECTION ( 'NONE',  ( 0.000000000000000000, 0.000000000000000000, 1.000000000000000000 ) ) ;
#653 =( GEOMETRIC_REPRESENTATION_CONTEXT ( 3 ) GLOBAL_UNCERTAINTY_ASSIGNED_CONTEXT ( ( #286 ) ) GLOBAL_UNIT_ASSIGNED_CONTEXT ( ( #1248, #973, #581 ) ) REPRESENTATION_CONTEXT ( 'NONE', 'WORKASPACE' ) );
#654 = CARTESIAN_POINT ( 'NONE',  ( 0.000000000000000000, 9.500000000000000000, -10.00000000000000000 ) ) ;
#655 = EDGE_CURVE ( 'NONE', #1132, #864, #1207, .T. ) ;
#656 = CARTESIAN_POINT ( 'NONE',  ( 0.000000000000000000, 9.500000000000000000, -10.00000000000000000 ) ) ;
#657 = ADVANCED_FACE ( 'NONE', ( #1244 ), #275, .T. ) ;
#658 = LINE ( 'NONE', #930, #22 ) ;
#659 = CARTESIAN_POINT ( 'NONE',  ( -9.500000000000001776, -4.000000000000000000, 9.500000000000000000 ) ) ;
#660 = DIRECTION ( 'NONE',  ( 1.000000000000000000, 0.000000000000000000, 0.000000000000000000 ) ) ;
#661 = DIRECTION ( 'NONE',  ( 3.854941057726238097E-16, -1.000000000000000000, 0.000000000000000000 ) ) ;
#662 = CIRCLE ( 'NONE', #815, 12.50000000000000000 ) ;
#663 = CYLINDRICAL_SURFACE ( 'NONE', #78, 0.5000000000000002220 ) ;
#664 = EDGE_CURVE ( 'NONE', #697, #825, #102, .T. ) ;
#665 = DIRECTION ( 'NONE',  ( -0.000000000000000000, -0.000000000000000000, 1.000000000000000000 ) ) ;
#666 = FACE_OUTER_BOUND ( 'NONE', #123, .T. ) ;
#667 = DIRECTION ( 'NONE',  ( 0.000000000000000000, 0.000000000000000000, -1.000000000000000000 ) ) ;
#668 = LINE ( 'NONE', #160, #215 ) ;
#669 = CIRCLE ( 'NONE', #154, 7.000000000000002665 ) ;
#670 = DIRECTION ( 'NONE',  ( 0.9087119154832542511, -0.4174238309665073143, 0.000000000000000000 ) ) ;
#671 = CARTESIAN_POINT ( 'NONE',  ( -9.954355957741631400, 4.599364918804390356, -9.500000000000000000 ) ) ;
#672 = AXIS2_PLACEMENT_3D ( 'NONE', #569, #367, #255 ) ;
#673 = SPHERICAL_SURFACE ( 'NONE', #1250, 0.5000000000000000000 ) ;
#674 = PLANE ( 'NONE',  #716 ) ;
#675 = VECTOR ( 'NONE', #810, 1000.000000000000000 ) ;
#676 = ORIENTED_EDGE ( 'NONE', *, *, #793, .T. ) ;
#677 = AXIS2_PLACEMENT_3D ( 'NONE', #1131, #365, #1136 ) ;
#678 = PRODUCT_DEFINITION ( '未知', '', #349, #929 ) ;
#679 = VECTOR ( 'NONE', #258, 1000.000000000000227 ) ;
#680 = CARTESIAN_POINT ( 'NONE',  ( -10.00000000000000178, -4.000000000000000000, -9.500000000000000000 ) ) ;
#681 = DIRECTION ( 'NONE',  ( 1.000000000000000000, 1.734723475976805517E-15, 0.000000000000000000 ) ) ;
#682 = EDGE_CURVE ( 'NONE', #626, #68, #1236, .T. ) ;
#683 = DIRECTION ( 'NONE',  ( 0.000000000000000000, 0.000000000000000000, 1.000000000000000000 ) ) ;
#684 = LINE ( 'NONE', #287, #1255 ) ;
#685 = VECTOR ( 'NONE', #480, 1000.000000000000000 ) ;
#686 = LINE ( 'NONE', #875, #1072 ) ;
#687 = CYLINDRICAL_SURFACE ( 'NONE', #393, 5.000000000000003553 ) ;
#688 = EDGE_CURVE ( 'NONE', #236, #614, #282, .T. ) ;
#689 = VECTOR ( 'NONE', #957, 1000.000000000000000 ) ;
#690 = CARTESIAN_POINT ( 'NONE',  ( -9.500000000000001776, -4.000000000000000000, -10.00000000000000000 ) ) ;
#691 = ORIENTED_EDGE ( 'NONE', *, *, #763, .F. ) ;
#692 = CARTESIAN_POINT ( 'NONE',  ( -5.000000000000003553, 9.500000000000000000, 10.00000000000000000 ) ) ;
#693 = CARTESIAN_POINT ( 'NONE',  ( -10.00000000000000355, 4.500000000000000000, -6.000000000000000000 ) ) ;
#694 = CARTESIAN_POINT ( 'NONE',  ( -9.500000000000003553, 4.390653003321138392, 9.500000000000000000 ) ) ;
#695 = LINE ( 'NONE', #126, #192 ) ;
#696 = CARTESIAN_POINT ( 'NONE',  ( -10.00000000000000355, 4.500000000000000000, 6.000000000000000000 ) ) ;
#697 = VERTEX_POINT ( 'NONE', #1032 ) ;
#698 = EDGE_CURVE ( 'NONE', #864, #827, #863, .T. ) ;
#699 = EDGE_CURVE ( 'NONE', #442, #34, #1247, .T. ) ;
#700 = SURFACE_STYLE_USAGE ( .BOTH. , #36 ) ;
#701 = CARTESIAN_POINT ( 'NONE',  ( 9.500000000000000000, -4.000000000000000000, -10.00000000000000000 ) ) ;
#702 = ORIENTED_EDGE ( 'NONE', *, *, #496, .F. ) ;
#703 = PRESENTATION_LAYER_ASSIGNMENT (  '', '', ( #305 ) ) ;
#704 = DIRECTION ( 'NONE',  ( 0.9087119154832542511, -0.4174238309665073143, 0.000000000000000000 ) ) ;
#705 = ORIENTED_EDGE ( 'NONE', *, *, #171, .T. ) ;
#706 = DIRECTION ( 'NONE',  ( 0.000000000000000000, 1.000000000000000000, 0.000000000000000000 ) ) ;
#707 = EDGE_LOOP ( 'NONE', ( #1245, #54, #16, #754 ) ) ;
#708 = DIRECTION ( 'NONE',  ( 0.4174238309665073698, -0.9087119154832541401, 0.000000000000000000 ) ) ;
#709 = CARTESIAN_POINT ( 'NONE',  ( -9.500000000000001776, -4.000000000000000000, -9.500000000000000000 ) ) ;
#710 = PRODUCT_RELATED_PRODUCT_CATEGORY ( 'part', '', ( #294 ) ) ;
#711 = PRESENTATION_STYLE_ASSIGNMENT (( #700 ) ) ;
#712 = ORIENTED_EDGE ( 'NONE', *, *, #158, .T. ) ;
#713 = PLANE ( 'NONE',  #315 ) ;
#714 = DIRECTION ( 'NONE',  ( 0.000000000000000000, 1.000000000000000000, 0.000000000000000000 ) ) ;
#715 = ORIENTED_EDGE ( 'NONE', *, *, #468, .F. ) ;
#716 = AXIS2_PLACEMENT_3D ( 'NONE', #970, #493, #1169 ) ;
#717 = CARTESIAN_POINT ( 'NONE',  ( 0.000000000000000000, 9.500000000000000000, 6.000000000000000000 ) ) ;
#718 = AXIS2_PLACEMENT_3D ( 'NONE', #694, #401, #1074 ) ;
#719 = ORIENTED_EDGE ( 'NONE', *, *, #606, .F. ) ;
#720 = EDGE_CURVE ( 'NONE', #1103, #207, #658, .T. ) ;
#721 = ORIENTED_EDGE ( 'NONE', *, *, #204, .T. ) ;
#722 = DIRECTION ( 'NONE',  ( 1.000000000000000000, 0.000000000000000000, 0.000000000000000000 ) ) ;
#723 = ORIENTED_EDGE ( 'NONE', *, *, #1159, .T. ) ;
#724 = LINE ( 'NONE', #421, #178 ) ;
#725 = ORIENTED_EDGE ( 'NONE', *, *, #17, .T. ) ;
#726 = ORIENTED_EDGE ( 'NONE', *, *, #66, .T. ) ;
#727 =( NAMED_UNIT ( * ) PLANE_ANGLE_UNIT ( ) SI_UNIT ( $, .RADIAN. ) );
#728 = VERTEX_POINT ( 'NONE', #650 ) ;
#729 = SPHERICAL_SURFACE ( 'NONE', #640, 0.5000000000000000000 ) ;
#730 = ORIENTED_EDGE ( 'NONE', *, *, #783, .F. ) ;
#731 = EDGE_CURVE ( 'NONE', #807, #626, #1134, .T. ) ;
#732 = PLANE ( 'NONE',  #2 ) ;
#733 = VECTOR ( 'NONE', #615, 1000.000000000000000 ) ;
#734 = FACE_OUTER_BOUND ( 'NONE', #137, .T. ) ;
#735 = MECHANICAL_DESIGN_GEOMETRIC_PRESENTATION_REPRESENTATION (  '', ( #986 ), #288 ) ;
#736 = VERTEX_POINT ( 'NONE', #163 ) ;
#737 = EDGE_LOOP ( 'NONE', ( #1062, #107 ) ) ;
#738 = CARTESIAN_POINT ( 'NONE',  ( 5.000000000000003553, 9.500000000000000000, -6.000000000000000000 ) ) ;
#739 = DIRECTION ( 'NONE',  ( 1.000000000000000000, 0.000000000000000000, -0.000000000000000000 ) ) ;
#740 = CARTESIAN_POINT ( 'NONE',  ( 9.499999999999996447, 4.390653003321138392, -6.000000000000000000 ) ) ;
#741 = CARTESIAN_POINT ( 'NONE',  ( -9.500000000000003553, 4.500000000000000000, -9.500000000000000000 ) ) ;
#742 = AXIS2_PLACEMENT_3D ( 'NONE', #501, #1084, #329 ) ;
#743 = VERTEX_POINT ( 'NONE', #151 ) ;
#744 = ORIENTED_EDGE ( 'NONE', *, *, #1016, .T. ) ;
#745 = DIRECTION ( 'NONE',  ( 0.4174238309665073698, -0.9087119154832541401, 0.000000000000000000 ) ) ;
#746 = CYLINDRICAL_SURFACE ( 'NONE', #1257, 5.000000000000003553 ) ;
#747 = DIRECTION ( 'NONE',  ( -1.000000000000000000, 1.734723475976805517E-15, 0.000000000000000000 ) ) ;
#748 = DIRECTION ( 'NONE',  ( 1.000000000000000000, 0.000000000000000000, 0.000000000000000000 ) ) ;
#749 = EDGE_CURVE ( 'NONE', #1077, #933, #839, .T. ) ;
#750 = EDGE_CURVE ( 'NONE', #864, #901, #406, .T. ) ;
#751 = DIRECTION ( 'NONE',  ( -0.9087119154832541401, -0.4174238309665073698, 0.000000000000000000 ) ) ;
#752 = DIRECTION ( 'NONE',  ( -0.000000000000000000, -0.000000000000000000, -1.000000000000000000 ) ) ;
#753 = DIRECTION ( 'NONE',  ( -0.000000000000000000, -0.000000000000000000, -1.000000000000000000 ) ) ;
#754 = ORIENTED_EDGE ( 'NONE', *, *, #313, .F. ) ;
#755 = DIRECTION ( 'NONE',  ( 1.000000000000000000, 0.000000000000000000, 0.000000000000000000 ) ) ;
#756 = EDGE_CURVE ( 'NONE', #558, #325, #67, .T. ) ;
#757 = ORIENTED_EDGE ( 'NONE', *, *, #1243, .T. ) ;
#758 = FACE_BOUND ( 'NONE', #823, .T. ) ;
#759 = CIRCLE ( 'NONE', #560, 7.000000000000002665 ) ;
#760 = CARTESIAN_POINT ( 'NONE',  ( 9.999999999999998224, 1.999999999999994005, -6.000000000000000000 ) ) ;
#761 = LINE ( 'NONE', #566, #940 ) ;
#762 = CARTESIAN_POINT ( 'NONE',  ( 9.499999999999996447, 4.390653003321138392, -9.500000000000000000 ) ) ;
#763 = EDGE_CURVE ( 'NONE', #1219, #922, #201, .T. ) ;
#764 = CARTESIAN_POINT ( 'NONE',  ( 9.500000000000000000, -4.000000000000000000, -9.500000000000000000 ) ) ;
#765 = CYLINDRICAL_SURFACE ( 'NONE', #1124, 0.5000000000000004441 ) ;
#766 = DIRECTION ( 'NONE',  ( -1.000000000000000000, 0.000000000000000000, 0.000000000000000000 ) ) ;
#767 = FACE_OUTER_BOUND ( 'NONE', #955, .T. ) ;
#768 = CIRCLE ( 'NONE', #781, 0.5000000000000004441 ) ;
#769 = ORIENTED_EDGE ( 'NONE', *, *, #837, .T. ) ;
#770 = CARTESIAN_POINT ( 'NONE',  ( 10.00000000000000000, -4.000000000000000888, 9.500000000000000000 ) ) ;
#771 = CIRCLE ( 'NONE', #574, 0.5000000000000004441 ) ;
#772 = CARTESIAN_POINT ( 'NONE',  ( 0.000000000000000000, 9.500000000000000000, -9.500000000000000000 ) ) ;
#773 = LINE ( 'NONE', #298, #469 ) ;
#774 = AXIS2_PLACEMENT_3D ( 'NONE', #7, #598, #409 ) ;
#775 = DIRECTION ( 'NONE',  ( -1.000000000000000000, 0.000000000000000000, 0.000000000000000000 ) ) ;
#776 = DIRECTION ( 'NONE',  ( 1.000000000000000000, 0.000000000000000000, 0.000000000000000000 ) ) ;
#777 = ADVANCED_FACE ( 'NONE', ( #1044 ), #172, .T. ) ;
#778 = FACE_OUTER_BOUND ( 'NONE', #1215, .T. ) ;
#779 = DIRECTION ( 'NONE',  ( 0.000000000000000000, 1.000000000000000000, 0.000000000000000000 ) ) ;
#780 = ORIENTED_EDGE ( 'NONE', *, *, #35, .T. ) ;
#781 = AXIS2_PLACEMENT_3D ( 'NONE', #1226, #55, #269 ) ;
#782 = DIRECTION ( 'NONE',  ( -1.000000000000000000, 0.000000000000000000, 0.000000000000000000 ) ) ;
#783 = EDGE_CURVE ( 'NONE', #1080, #23, #466, .T. ) ;
#784 = EDGE_LOOP ( 'NONE', ( #533, #424, #1140, #1012, #49, #998 ) ) ;
#785 = CARTESIAN_POINT ( 'NONE',  ( 10.00000000000000000, -4.000000000000000000, 10.00000000000000000 ) ) ;
#786 = LINE ( 'NONE', #1011, #333 ) ;
#787 = ORIENTED_EDGE ( 'NONE', *, *, #357, .T. ) ;
#788 = VECTOR ( 'NONE', #1253, 1000.000000000000000 ) ;
#789 = CYLINDRICAL_SURFACE ( 'NONE', #170, 0.5000000000000004441 ) ;
#790 = DIRECTION ( 'NONE',  ( -1.000000000000000000, 3.469446951953611033E-15, 0.000000000000000000 ) ) ;
#791 = EDGE_CURVE ( 'NONE', #325, #442, #374, .T. ) ;
#792 = EDGE_CURVE ( 'NONE', #554, #61, #307, .T. ) ;
#793 = EDGE_CURVE ( 'NONE', #602, #554, #595, .T. ) ;
#794 = CARTESIAN_POINT ( 'NONE',  ( 10.00000000000000000, -4.000000000000000888, 10.00000000000000000 ) ) ;
#795 = VERTEX_POINT ( 'NONE', #103 ) ;
#796 = CARTESIAN_POINT ( 'NONE',  ( 9.954355957741624294, 4.599364918804392133, -6.000000000000000000 ) ) ;
#797 = ORIENTED_EDGE ( 'NONE', *, *, #731, .F. ) ;
#798 = FACE_OUTER_BOUND ( 'NONE', #1007, .T. ) ;
#799 = EDGE_CURVE ( 'NONE', #442, #728, #80, .T. ) ;
#800 = DIRECTION ( 'NONE',  ( 0.000000000000000000, 0.000000000000000000, -1.000000000000000000 ) ) ;
#801 = CARTESIAN_POINT ( 'NONE',  ( -10.00000000000000355, 4.500000000000000000, 6.000000000000000000 ) ) ;
#802 = VERTEX_POINT ( 'NONE', #194 ) ;
#803 = DIRECTION ( 'NONE',  ( -1.927470528863119049E-16, 1.000000000000000000, 0.000000000000000000 ) ) ;
#804 = SPHERICAL_SURFACE ( 'NONE', #531, 0.5000000000000000000 ) ;
#805 = ORIENTED_EDGE ( 'NONE', *, *, #17, .F. ) ;
#806 = LINE ( 'NONE', #1189, #51 ) ;
#807 = VERTEX_POINT ( 'NONE', #500 ) ;
#808 = EDGE_LOOP ( 'NONE', ( #590, #530, #594, #1116 ) ) ;
#809 = AXIS2_PLACEMENT_3D ( 'NONE', #740, #1045, #59 ) ;
#810 = DIRECTION ( 'NONE',  ( -1.927470528863119049E-16, 1.000000000000000000, -0.000000000000000000 ) ) ;
#811 = LINE ( 'NONE', #693, #611 ) ;
#812 = EDGE_LOOP ( 'NONE', ( #417, #1125, #127 ) ) ;
#813 = DIRECTION ( 'NONE',  ( 0.000000000000000000, -0.000000000000000000, 1.000000000000000000 ) ) ;
#814 = ORIENTED_EDGE ( 'NONE', *, *, #335, .T. ) ;
#815 = AXIS2_PLACEMENT_3D ( 'NONE', #250, #840, #660 ) ;
#816 = VERTEX_POINT ( 'NONE', #583 ) ;
#817 = EDGE_CURVE ( 'NONE', #728, #34, #1018, .T. ) ;
#818 = ORIENTED_EDGE ( 'NONE', *, *, #379, .T. ) ;
#819 = DIRECTION ( 'NONE',  ( 0.000000000000000000, 0.000000000000000000, 1.000000000000000000 ) ) ;
#820 = EDGE_LOOP ( 'NONE', ( #934, #1190, #132 ) ) ;
#821 = DIRECTION ( 'NONE',  ( 1.000000000000000000, 0.000000000000000000, 0.000000000000000000 ) ) ;
#822 = ORIENTED_EDGE ( 'NONE', *, *, #1238, .F. ) ;
#823 = EDGE_LOOP ( 'NONE', ( #340, #914 ) ) ;
#824 = AXIS2_PLACEMENT_3D ( 'NONE', #383, #461, #368 ) ;
#825 = VERTEX_POINT ( 'NONE', #1071 ) ;
#826 = CARTESIAN_POINT ( 'NONE',  ( -6.360983408382780091, 12.42196681676555770, 9.500000000000000000 ) ) ;
#827 = VERTEX_POINT ( 'NONE', #482 ) ;
#828 = ADVANCED_FACE ( 'NONE', ( #961 ), #398, .T. ) ;
#829 = CIRCLE ( 'NONE', #672, 5.000000000000003553 ) ;
#830 = CARTESIAN_POINT ( 'NONE',  ( 9.500000000000000000, -4.500000000000000000, -9.500000000000000000 ) ) ;
#831 = AXIS2_PLACEMENT_3D ( 'NONE', #133, #1179, #704 ) ;
#832 = ORIENTED_EDGE ( 'NONE', *, *, #481, .T. ) ;
#833 = DIRECTION ( 'NONE',  ( 0.000000000000000000, 0.000000000000000000, 1.000000000000000000 ) ) ;
#834 = EDGE_LOOP ( 'NONE', ( #451, #350, #149, #1195 ) ) ;
#835 = ORIENTED_EDGE ( 'NONE', *, *, #1182, .F. ) ;
#836 = CARTESIAN_POINT ( 'NONE',  ( 9.954355957741624294, 4.599364918804392133, 10.00000000000000000 ) ) ;
#837 = EDGE_CURVE ( 'NONE', #20, #614, #99, .T. ) ;
#838 = AXIS2_PLACEMENT_3D ( 'NONE', #208, #878, #790 ) ;
#839 = LINE ( 'NONE', #954, #968 ) ;
#840 = DIRECTION ( 'NONE',  ( 0.000000000000000000, 0.000000000000000000, 1.000000000000000000 ) ) ;
#841 = ADVANCED_FACE ( 'NONE', ( #394 ), #303, .F. ) ;
#842 = AXIS2_PLACEMENT_3D ( 'NONE', #741, #552, #932 ) ;
#843 = ORIENTED_EDGE ( 'NONE', *, *, #204, .F. ) ;
#844 = ORIENTED_EDGE ( 'NONE', *, *, #799, .F. ) ;
#845 = FACE_OUTER_BOUND ( 'NONE', #432, .T. ) ;
#846 = CARTESIAN_POINT ( 'NONE',  ( -6.360983408382780091, 12.42196681676555770, 10.00000000000000000 ) ) ;
#847 = ORIENTED_EDGE ( 'NONE', *, *, #1034, .T. ) ;
#848 = CARTESIAN_POINT ( 'NONE',  ( -10.00000000000000355, 4.390653003321136616, 10.00000000000000000 ) ) ;
#849 = ADVANCED_FACE ( 'NONE', ( #1161 ), #687, .F. ) ;
#850 = FACE_OUTER_BOUND ( 'NONE', #527, .T. ) ;
#851 = DIRECTION ( 'NONE',  ( -0.000000000000000000, -0.000000000000000000, -1.000000000000000000 ) ) ;
#852 = DIRECTION ( 'NONE',  ( -1.000000000000000000, -3.854941057726238097E-16, 0.000000000000000000 ) ) ;
#853 = CARTESIAN_POINT ( 'NONE',  ( 9.500000000000000000, -4.000000000000000000, -9.500000000000000000 ) ) ;
#854 = AXIS2_PLACEMENT_3D ( 'NONE', #1031, #751, #745 ) ;
#855 = DIRECTION ( 'NONE',  ( -0.000000000000000000, -0.000000000000000000, 1.000000000000000000 ) ) ;
#856 = AXIS2_PLACEMENT_3D ( 'NONE', #472, #300, #1246 ) ;
#857 = CARTESIAN_POINT ( 'NONE',  ( -6.360983408382780091, 12.42196681676555770, 10.00000000000000000 ) ) ;
#858 = DIRECTION ( 'NONE',  ( -0.000000000000000000, -0.000000000000000000, -1.000000000000000000 ) ) ;
#859 = AXIS2_PLACEMENT_3D ( 'NONE', #352, #649, #1037 ) ;
#860 = CARTESIAN_POINT ( 'NONE',  ( -9.954355957741631400, 4.599364918804390356, -6.000000000000000000 ) ) ;
#861 = CARTESIAN_POINT ( 'NONE',  ( -9.500000000000003553, 4.390653003321136616, -9.500000000000000000 ) ) ;
#862 = EDGE_CURVE ( 'NONE', #697, #1009, #1249, .T. ) ;
#863 = LINE ( 'NONE', #264, #444 ) ;
#864 = VERTEX_POINT ( 'NONE', #1078 ) ;
#865 = CARTESIAN_POINT ( 'NONE',  ( 9.954355957741624294, 4.599364918804392133, 6.000000000000000000 ) ) ;
#866 = AXIS2_PLACEMENT_3D ( 'NONE', #570, #665, #747 ) ;
#867 = CARTESIAN_POINT ( 'NONE',  ( 9.499999999999996447, 4.390653003321137504, 9.500000000000000000 ) ) ;
#868 = EDGE_CURVE ( 'NONE', #807, #1009, #684, .T. ) ;
#869 = CARTESIAN_POINT ( 'NONE',  ( 9.954355957741624294, 4.599364918804392133, 10.00000000000000000 ) ) ;
#870 = EDGE_CURVE ( 'NONE', #922, #602, #873, .T. ) ;
#871 = ADVANCED_FACE ( 'NONE', ( #203 ), #674, .F. ) ;
#872 = VECTOR ( 'NONE', #136, 1000.000000000000000 ) ;
#873 = CIRCLE ( 'NONE', #489, 0.5000000000000004441 ) ;
#874 = DIRECTION ( 'NONE',  ( 0.000000000000000000, 0.000000000000000000, 1.000000000000000000 ) ) ;
#875 = CARTESIAN_POINT ( 'NONE',  ( 9.999999999999996447, 4.390653003321138392, 10.00000000000000000 ) ) ;
#876 = VECTOR ( 'NONE', #492, 1000.000000000000227 ) ;
#877 = VECTOR ( 'NONE', #310, 1000.000000000000000 ) ;
#878 = DIRECTION ( 'NONE',  ( 3.469446951953610639E-15, 1.000000000000000000, 0.000000000000000000 ) ) ;
#879 = EDGE_CURVE ( 'NONE', #1103, #304, #1146, .T. ) ;
#880 = CARTESIAN_POINT ( 'NONE',  ( 0.000000000000000000, 9.500000000000000000, 6.000000000000000000 ) ) ;
#881 = ORIENTED_EDGE ( 'NONE', *, *, #699, .T. ) ;
#882 = CARTESIAN_POINT ( 'NONE',  ( -9.500000000000003553, 4.390653003321136616, -6.000000000000000000 ) ) ;
#883 = AXIS2_PLACEMENT_3D ( 'NONE', #31, #706, #813 ) ;
#884 = ORIENTED_EDGE ( 'NONE', *, *, #945, .F. ) ;
#885 = CARTESIAN_POINT ( 'NONE',  ( 9.999999999999998224, 4.499999999999997335, 9.500000000000000000 ) ) ;
#886 = AXIS2_PLACEMENT_3D ( 'NONE', #709, #12, #604 ) ;
#887 = CIRCLE ( 'NONE', #1221, 0.5000000000000004441 ) ;
#888 = DIRECTION ( 'NONE',  ( 0.000000000000000000, 0.000000000000000000, -1.000000000000000000 ) ) ;
#889 = EDGE_CURVE ( 'NONE', #344, #1132, #387, .T. ) ;
#890 = ORIENTED_EDGE ( 'NONE', *, *, #756, .T. ) ;
#891 = DIRECTION ( 'NONE',  ( 0.000000000000000000, 0.000000000000000000, -1.000000000000000000 ) ) ;
#892 = ORIENTED_EDGE ( 'NONE', *, *, #1238, .T. ) ;
#893 = FACE_OUTER_BOUND ( 'NONE', #265, .T. ) ;
#894 = CARTESIAN_POINT ( 'NONE',  ( 9.999999999999996447, 4.390653003321138392, 9.500000000000000000 ) ) ;
#895 = ORIENTED_EDGE ( 'NONE', *, *, #720, .T. ) ;
#896 = EDGE_CURVE ( 'NONE', #420, #355, #188, .T. ) ;
#897 = DIRECTION ( 'NONE',  ( 0.000000000000000000, 0.000000000000000000, 1.000000000000000000 ) ) ;
#898 = ORIENTED_EDGE ( 'NONE', *, *, #87, .F. ) ;
#899 = PRODUCT_CONTEXT ( 'NONE', #57, 'mechanical' ) ;
#900 = CARTESIAN_POINT ( 'NONE',  ( -5.906627450641152244, 12.21325490128230129, -10.00000000000000000 ) ) ;
#901 = VERTEX_POINT ( 'NONE', #770 ) ;
#902 = CARTESIAN_POINT ( 'NONE',  ( 0.000000000000000000, 9.500000000000000000, 10.00000000000000000 ) ) ;
#903 = EDGE_LOOP ( 'NONE', ( #926, #85, #1165, #1033 ) ) ;
#904 = DIRECTION ( 'NONE',  ( -3.854941057726238097E-16, 1.000000000000000000, 0.000000000000000000 ) ) ;
#905 = ORIENTED_EDGE ( 'NONE', *, *, #441, .F. ) ;
#906 = EDGE_CURVE ( 'NONE', #1004, #272, #1157, .T. ) ;
#907 = FACE_OUTER_BOUND ( 'NONE', #1212, .T. ) ;
#908 = AXIS2_PLACEMENT_3D ( 'NONE', #717, #897, #821 ) ;
#909 = DIRECTION ( 'NONE',  ( 1.000000000000000000, 0.000000000000000000, 0.000000000000000000 ) ) ;
#910 = ORIENTED_EDGE ( 'NONE', *, *, #577, .T. ) ;
#911 = FACE_OUTER_BOUND ( 'NONE', #784, .T. ) ;
#912 = ORIENTED_EDGE ( 'NONE', *, *, #423, .F. ) ;
#913 = CARTESIAN_POINT ( 'NONE',  ( 9.999999999999998224, 1.999999999999994005, 6.000000000000000000 ) ) ;
#914 = ORIENTED_EDGE ( 'NONE', *, *, #1182, .T. ) ;
#915 = EDGE_LOOP ( 'NONE', ( #1091, #233, #309 ) ) ;
#916 = DIRECTION ( 'NONE',  ( -0.9087119154832541401, -0.4174238309665073698, 0.000000000000000000 ) ) ;
#917 = ORIENTED_EDGE ( 'NONE', *, *, #162, .F. ) ;
#918 = PLANE ( 'NONE',  #960 ) ;
#919 = EDGE_LOOP ( 'NONE', ( #384, #1017, #884, #186 ) ) ;
#920 = DIRECTION ( 'NONE',  ( -1.000000000000000000, -1.734723475976805517E-15, 0.000000000000000000 ) ) ;
#921 = ORIENTED_EDGE ( 'NONE', *, *, #464, .T. ) ;
#922 = VERTEX_POINT ( 'NONE', #680 ) ;
#923 = CARTESIAN_POINT ( 'NONE',  ( -10.00000000000000355, 4.390653003321136616, 6.000000000000000000 ) ) ;
#924 = AXIS2_PLACEMENT_3D ( 'NONE', #624, #1121, #447 ) ;
#925 = ADVANCED_FACE ( 'NONE', ( #1067 ), #1010, .T. ) ;
#926 = ORIENTED_EDGE ( 'NONE', *, *, #1005, .F. ) ;
#927 = DIRECTION ( 'NONE',  ( -0.000000000000000000, -0.000000000000000000, 1.000000000000000000 ) ) ;
#928 = EDGE_CURVE ( 'NONE', #1219, #728, #695, .T. ) ;
#929 = PRODUCT_DEFINITION_CONTEXT ( 'detailed design', #113, 'design' ) ;
#930 = CARTESIAN_POINT ( 'NONE',  ( -10.00000000000000355, 4.500000000000000000, -6.000000000000000000 ) ) ;
#931 = DIRECTION ( 'NONE',  ( 0.000000000000000000, 0.000000000000000000, 1.000000000000000000 ) ) ;
#932 = DIRECTION ( 'NONE',  ( 1.000000000000000000, 0.000000000000000000, 0.000000000000000000 ) ) ;
#933 = VERTEX_POINT ( 'NONE', #1083 ) ;
#934 = ORIENTED_EDGE ( 'NONE', *, *, #199, .T. ) ;
#935 = AXIS2_PLACEMENT_3D ( 'NONE', #1006, #1205, #517 ) ;
#936 = CYLINDRICAL_SURFACE ( 'NONE', #422, 7.000000000000002665 ) ;
#937 = ADVANCED_FACE ( 'NONE', ( #911, #621 ), #713, .F. ) ;
#938 = DIRECTION ( 'NONE',  ( 1.000000000000000000, 0.000000000000000000, 0.000000000000000000 ) ) ;
#939 = DIRECTION ( 'NONE',  ( 3.854941057726238097E-16, -1.000000000000000000, -0.000000000000000000 ) ) ;
#940 = VECTOR ( 'NONE', #1145, 1000.000000000000000 ) ;
#941 = VECTOR ( 'NONE', #293, 1000.000000000000000 ) ;
#942 = DIRECTION ( 'NONE',  ( -1.000000000000000000, 0.000000000000000000, 0.000000000000000000 ) ) ;
#943 = DIRECTION ( 'NONE',  ( -1.000000000000000000, 0.000000000000000000, 0.000000000000000000 ) ) ;
#944 = CARTESIAN_POINT ( 'NONE',  ( 9.499999999999996447, 4.390653003321137504, 10.00000000000000000 ) ) ;
#945 = EDGE_CURVE ( 'NONE', #134, #614, #510, .T. ) ;
#946 = VERTEX_POINT ( 'NONE', #1203 ) ;
#947 = CARTESIAN_POINT ( 'NONE',  ( 9.499999999999996447, 4.390653003321138392, -9.500000000000000000 ) ) ;
#948 = DIRECTION ( 'NONE',  ( -0.4174238309665077029, -0.9087119154832539181, 0.000000000000000000 ) ) ;
#949 = AXIS2_PLACEMENT_3D ( 'NONE', #29, #1107, #428 ) ;
#950 = EDGE_CURVE ( 'NONE', #134, #901, #322, .T. ) ;
#951 = AXIS2_PLACEMENT_3D ( 'NONE', #564, #943, #73 ) ;
#952 = CARTESIAN_POINT ( 'NONE',  ( 9.500000000000000000, -4.000000000000000000, 10.00000000000000000 ) ) ;
#953 = AXIS2_PLACEMENT_3D ( 'NONE', #267, #858, #956 ) ;
#954 = CARTESIAN_POINT ( 'NONE',  ( 5.000000000000003553, 9.500000000000000000, 10.00000000000000000 ) ) ;
#955 = EDGE_LOOP ( 'NONE', ( #1206, #437, #155, #1180, #538, #140, #414, #1088 ) ) ;
#956 = DIRECTION ( 'NONE',  ( -1.000000000000000000, 0.000000000000000000, 0.000000000000000000 ) ) ;
#957 = DIRECTION ( 'NONE',  ( -3.854941057726238097E-16, 1.000000000000000000, 0.000000000000000000 ) ) ;
#958 = AXIS2_PLACEMENT_3D ( 'NONE', #38, #217, #436 ) ;
#959 = CYLINDRICAL_SURFACE ( 'NONE', #553, 0.5000000000000004441 ) ;
#960 = AXIS2_PLACEMENT_3D ( 'NONE', #505, #245, #532 ) ;
#961 = FACE_OUTER_BOUND ( 'NONE', #1192, .T. ) ;
#962 = DIRECTION ( 'NONE',  ( 1.000000000000000000, 0.000000000000000000, 0.000000000000000000 ) ) ;
#963 = CYLINDRICAL_SURFACE ( 'NONE', #1235, 0.5000000000000004441 ) ;
#964 = ADVANCED_FACE ( 'NONE', ( #343, #108 ), #918, .T. ) ;
#965 = DIRECTION ( 'NONE',  ( -0.4174238309665072588, -0.9087119154832542511, 3.152727785377304144E-15 ) ) ;
#966 = EDGE_CURVE ( 'NONE', #1185, #743, #306, .T. ) ;
#967 = AXIS2_PLACEMENT_3D ( 'NONE', #656, #556, #1239 ) ;
#968 = VECTOR ( 'NONE', #380, 1000.000000000000000 ) ;
#969 = DIRECTION ( 'NONE',  ( -0.000000000000000000, -0.000000000000000000, -1.000000000000000000 ) ) ;
#970 = CARTESIAN_POINT ( 'NONE',  ( -10.00000000000000355, 4.500000000000000000, 10.00000000000000000 ) ) ;
#971 = ADVANCED_FACE ( 'NONE', ( #1003 ), #729, .T. ) ;
#972 = DIRECTION ( 'NONE',  ( 1.000000000000000000, 0.000000000000000000, 0.000000000000000000 ) ) ;
#973 =( NAMED_UNIT ( * ) PLANE_ANGLE_UNIT ( ) SI_UNIT ( $, .RADIAN. ) );
#974 = AXIS2_PLACEMENT_3D ( 'NONE', #74, #50, #449 ) ;
#975 = ORIENTED_EDGE ( 'NONE', *, *, #1191, .F. ) ;
#976 = ORIENTED_EDGE ( 'NONE', *, *, #70, .T. ) ;
#977 = EDGE_CURVE ( 'NONE', #946, #816, #443, .T. ) ;
#978 = CARTESIAN_POINT ( 'NONE',  ( 5.906627450641151356, 12.21325490128229774, 9.500000000000000000 ) ) ;
#979 = ORIENTED_EDGE ( 'NONE', *, *, #1243, .F. ) ;
#980 = CARTESIAN_POINT ( 'NONE',  ( -10.00000000000000178, -4.500000000000000000, -9.500000000000000000 ) ) ;
#981 = CYLINDRICAL_SURFACE ( 'NONE', #742, 0.5000000000000002220 ) ;
#982 = AXIS2_PLACEMENT_3D ( 'NONE', #1151, #454, #572 ) ;
#983 = AXIS2_PLACEMENT_3D ( 'NONE', #947, #1137, #548 ) ;
#984 = EDGE_CURVE ( 'NONE', #459, #247, #1194, .T. ) ;
#985 = DIRECTION ( 'NONE',  ( 0.4174238309665077029, 0.9087119154832539181, -0.000000000000000000 ) ) ;
#986 = STYLED_ITEM ( 'NONE', ( #711 ), #341 ) ;
#987 = ORIENTED_EDGE ( 'NONE', *, *, #1027, .T. ) ;
#988 = CARTESIAN_POINT ( 'NONE',  ( 0.000000000000000000, 9.500000000000000000, -10.00000000000000000 ) ) ;
#989 = ORIENTED_EDGE ( 'NONE', *, *, #104, .F. ) ;
#990 = FACE_OUTER_BOUND ( 'NONE', #427, .T. ) ;
#991 = CIRCLE ( 'NONE', #457, 0.5000000000000004441 ) ;
#992 = APPLICATION_PROTOCOL_DEFINITION ( 'draft international standard', 'automotive_design', 1998, #57 ) ;
#993 = CARTESIAN_POINT ( 'NONE',  ( 9.999999999999996447, 4.390653003321138392, 6.000000000000000000 ) ) ;
#994 = EDGE_CURVE ( 'NONE', #554, #551, #5, .T. ) ;
#995 = ORIENTED_EDGE ( 'NONE', *, *, #698, .F. ) ;
#996 = DIRECTION ( 'NONE',  ( 0.000000000000000000, 0.000000000000000000, 1.000000000000000000 ) ) ;
#997 = DIRECTION ( 'NONE',  ( -0.4174238309665077029, -0.9087119154832539181, 0.000000000000000000 ) ) ;
#998 = ORIENTED_EDGE ( 'NONE', *, *, #928, .T. ) ;
#999 = CARTESIAN_POINT ( 'NONE',  ( -10.00000000000000355, 4.390653003321136616, 10.00000000000000000 ) ) ;
#1000 = ORIENTED_EDGE ( 'NONE', *, *, #606, .T. ) ;
#1001 = DIRECTION ( 'NONE',  ( -0.000000000000000000, -0.000000000000000000, -1.000000000000000000 ) ) ;
#1002 = ORIENTED_EDGE ( 'NONE', *, *, #261, .F. ) ;
#1003 = FACE_OUTER_BOUND ( 'NONE', #812, .T. ) ;
#1004 = VERTEX_POINT ( 'NONE', #796 ) ;
#1005 = EDGE_CURVE ( 'NONE', #325, #182, #130, .T. ) ;
#1006 = CARTESIAN_POINT ( 'NONE',  ( -10.00000000000000355, 4.500000000000000000, 10.00000000000000000 ) ) ;
#1007 = EDGE_LOOP ( 'NONE', ( #723, #646, #921, #676 ) ) ;
#1008 = CARTESIAN_POINT ( 'NONE',  ( -9.500000000000003553, 4.390653003321136616, 9.500000000000000000 ) ) ;
#1009 = VERTEX_POINT ( 'NONE', #1089 ) ;
#1010 = CYLINDRICAL_SURFACE ( 'NONE', #958, 0.5000000000000004441 ) ;
#1011 = CARTESIAN_POINT ( 'NONE',  ( 5.906627450641151356, 12.21325490128229774, -10.00000000000000000 ) ) ;
#1012 = ORIENTED_EDGE ( 'NONE', *, *, #261, .T. ) ;
#1013 = CARTESIAN_POINT ( 'NONE',  ( -9.954355957741631400, 4.599364918804390356, 10.00000000000000000 ) ) ;
#1014 = AXIS2_PLACEMENT_3D ( 'NONE', #764, #1148, #279 ) ;
#1015 = ORIENTED_EDGE ( 'NONE', *, *, #260, .F. ) ;
#1016 = EDGE_CURVE ( 'NONE', #736, #802, #1186, .T. ) ;
#1017 = ORIENTED_EDGE ( 'NONE', *, *, #1153, .F. ) ;
#1018 = CIRCLE ( 'NONE', #838, 0.5000000000000004441 ) ;
#1019 = ORIENTED_EDGE ( 'NONE', *, *, #868, .T. ) ;
#1020 = CARTESIAN_POINT ( 'NONE',  ( 9.499999999999996447, 4.390653003321138392, 9.500000000000000000 ) ) ;
#1021 = ORIENTED_EDGE ( 'NONE', *, *, #513, .F. ) ;
#1022 = CIRCLE ( 'NONE', #718, 0.4999999999999995559 ) ;
#1023 = CARTESIAN_POINT ( 'NONE',  ( 0.000000000000000000, 9.500000000000000000, -6.000000000000000000 ) ) ;
#1024 = ORIENTED_EDGE ( 'NONE', *, *, #664, .F. ) ;
#1025 = CARTESIAN_POINT ( 'NONE',  ( -5.906627450641151356, 12.21325490128230307, -10.00000000000000000 ) ) ;
#1026 = ORIENTED_EDGE ( 'NONE', *, *, #199, .F. ) ;
#1027 = EDGE_CURVE ( 'NONE', #743, #1185, #599, .T. ) ;
#1028 = CARTESIAN_POINT ( 'NONE',  ( 0.000000000000000000, 9.500000000000000000, 9.500000000000000000 ) ) ;
#1029 = ADVANCED_FACE ( 'NONE', ( #893 ), #21, .T. ) ;
#1030 = ORIENTED_EDGE ( 'NONE', *, *, #593, .F. ) ;
#1031 = CARTESIAN_POINT ( 'NONE',  ( 6.360983408382778315, 12.42196681676555414, 10.00000000000000000 ) ) ;
#1032 = CARTESIAN_POINT ( 'NONE',  ( 9.999999999999996447, 4.390653003321138392, -9.500000000000000000 ) ) ;
#1033 = ORIENTED_EDGE ( 'NONE', *, *, #1154, .F. ) ;
#1034 = EDGE_CURVE ( 'NONE', #236, #1112, #1101, .T. ) ;
#1035 = ORIENTED_EDGE ( 'NONE', *, *, #1130, .T. ) ;
#1036 = FACE_OUTER_BOUND ( 'NONE', #555, .T. ) ;
#1037 = DIRECTION ( 'NONE',  ( -1.000000000000000000, 0.000000000000000000, 0.000000000000000000 ) ) ;
#1038 = AXIS2_PLACEMENT_3D ( 'NONE', #978, #578, #196 ) ;
#1039 = PLANE ( 'NONE',  #75 ) ;
#1040 = ORIENTED_EDGE ( 'NONE', *, *, #280, .T. ) ;
#1041 = DIRECTION ( 'NONE',  ( 1.000000000000000000, 0.000000000000000000, 0.000000000000000000 ) ) ;
#1042 = DIRECTION ( 'NONE',  ( -0.4174238309665101454, 0.9087119154832528078, 0.000000000000000000 ) ) ;
#1043 = DIRECTION ( 'NONE',  ( -0.9087119154832542511, -0.4174238309665073143, 0.000000000000000000 ) ) ;
#1044 = FACE_OUTER_BOUND ( 'NONE', #439, .T. ) ;
#1045 = DIRECTION ( 'NONE',  ( -0.000000000000000000, -0.000000000000000000, -1.000000000000000000 ) ) ;
#1046 = CARTESIAN_POINT ( 'NONE',  ( -6.360983408382779203, 12.42196681676555770, 9.500000000000000000 ) ) ;
#1047 = AXIS2_PLACEMENT_3D ( 'NONE', #1079, #601, #403 ) ;
#1048 = VECTOR ( 'NONE', #579, 1000.000000000000000 ) ;
#1049 = CARTESIAN_POINT ( 'NONE',  ( 0.000000000000000000, 9.500000000000000000, -6.000000000000000000 ) ) ;
#1050 = DIRECTION ( 'NONE',  ( 0.000000000000000000, 0.000000000000000000, -1.000000000000000000 ) ) ;
#1051 = FACE_OUTER_BOUND ( 'NONE', #834, .T. ) ;
#1052 = EDGE_CURVE ( 'NONE', #101, #52, #829, .T. ) ;
#1053 = FACE_OUTER_BOUND ( 'NONE', #314, .T. ) ;
#1054 = AXIS2_PLACEMENT_3D ( 'NONE', #475, #271, #1050 ) ;
#1055 = LINE ( 'NONE', #836, #268 ) ;
#1056 = CARTESIAN_POINT ( 'NONE',  ( 9.999999999999996447, 4.500000000000000000, 6.000000000000000000 ) ) ;
#1057 = CIRCLE ( 'NONE', #53, 0.5000000000000004441 ) ;
#1058 = LINE ( 'NONE', #190, #1218 ) ;
#1059 = CARTESIAN_POINT ( 'NONE',  ( -5.000000000000003553, 9.500000000000000000, 10.00000000000000000 ) ) ;
#1060 = VECTOR ( 'NONE', #997, 1000.000000000000227 ) ;
#1061 = DIRECTION ( 'NONE',  ( -3.854941057726238097E-16, 1.000000000000000000, 0.000000000000000000 ) ) ;
#1062 = ORIENTED_EDGE ( 'NONE', *, *, #966, .F. ) ;
#1063 = AXIS2_PLACEMENT_3D ( 'NONE', #1229, #833, #1216 ) ;
#1064 = ADVANCED_FACE ( 'NONE', ( #1147 ), #378, .T. ) ;
#1065 = ADVANCED_FACE ( 'NONE', ( #642 ), #351, .F. ) ;
#1066 = CARTESIAN_POINT ( 'NONE',  ( 5.000000000000003553, 9.500000000000000000, 10.00000000000000000 ) ) ;
#1067 = FACE_OUTER_BOUND ( 'NONE', #919, .T. ) ;
#1068 = CARTESIAN_POINT ( 'NONE',  ( -9.500000000000001776, -4.000000000000000000, 10.00000000000000000 ) ) ;
#1069 = FILL_AREA_STYLE_COLOUR ( '', #584 ) ;
#1070 = ADVANCED_FACE ( 'NONE', ( #274 ), #663, .T. ) ;
#1071 = CARTESIAN_POINT ( 'NONE',  ( 9.499999999999996447, 4.390653003321138392, -10.00000000000000000 ) ) ;
#1072 = VECTOR ( 'NONE', #1073, 1000.000000000000000 ) ;
#1073 = DIRECTION ( 'NONE',  ( -0.000000000000000000, -0.000000000000000000, 1.000000000000000000 ) ) ;
#1074 = DIRECTION ( 'NONE',  ( 0.9087119154832554724, -0.4174238309665044278, 0.000000000000000000 ) ) ;
#1075 = DIRECTION ( 'NONE',  ( -1.000000000000000000, 0.000000000000000000, 0.000000000000000000 ) ) ;
#1076 = AXIS2_PLACEMENT_3D ( 'NONE', #40, #122, #18 ) ;
#1077 = VERTEX_POINT ( 'NONE', #738 ) ;
#1078 = CARTESIAN_POINT ( 'NONE',  ( 9.500000000000000000, -4.500000000000000000, 9.500000000000000000 ) ) ;
#1079 = CARTESIAN_POINT ( 'NONE',  ( -9.500000000000001776, -4.000000000000000000, 9.500000000000000000 ) ) ;
#1080 = VERTEX_POINT ( 'NONE', #826 ) ;
#1081 = EDGE_CURVE ( 'NONE', #825, #272, #283, .T. ) ;
#1082 =( NAMED_UNIT ( * ) SI_UNIT ( $, .STERADIAN. ) SOLID_ANGLE_UNIT ( ) );
#1083 = CARTESIAN_POINT ( 'NONE',  ( 5.000000000000003553, 9.500000000000000000, -10.00000000000000000 ) ) ;
#1084 = DIRECTION ( 'NONE',  ( 0.4174238309665078139, 0.9087119154832540291, -0.000000000000000000 ) ) ;
#1085 = ORIENTED_EDGE ( 'NONE', *, *, #793, .F. ) ;
#1086 = AXIS2_PLACEMENT_3D ( 'NONE', #362, #177, #670 ) ;
#1087 = CARTESIAN_POINT ( 'NONE',  ( 6.360983408382778315, 12.42196681676555414, -9.500000000000000000 ) ) ;
#1088 = ORIENTED_EDGE ( 'NONE', *, *, #862, .T. ) ;
#1089 = CARTESIAN_POINT ( 'NONE',  ( 9.999999999999996447, 4.390653003321138392, -6.000000000000000000 ) ) ;
#1090 = DIRECTION ( 'NONE',  ( 1.000000000000000000, -0.000000000000000000, 0.000000000000000000 ) ) ;
#1091 = ORIENTED_EDGE ( 'NONE', *, *, #664, .T. ) ;
#1092 = DIRECTION ( 'NONE',  ( 0.000000000000000000, -1.000000000000000000, 3.469446951953614189E-15 ) ) ;
#1093 = VECTOR ( 'NONE', #1178, 1000.000000000000000 ) ;
#1094 = ORIENTED_EDGE ( 'NONE', *, *, #791, .F. ) ;
#1095 = CIRCLE ( 'NONE', #561, 0.5000000000000004441 ) ;
#1096 = ADVANCED_FACE ( 'NONE', ( #845 ), #648, .F. ) ;
#1097 = DIRECTION ( 'NONE',  ( -0.4174238309665073698, 0.9087119154832540291, 0.000000000000000000 ) ) ;
#1098 = EDGE_CURVE ( 'NONE', #1132, #901, #1152, .T. ) ;
#1099 = EDGE_LOOP ( 'NONE', ( #1228, #726, #547, #705 ) ) ;
#1100 = CIRCLE ( 'NONE', #114, 0.5000000000000002220 ) ;
#1101 = LINE ( 'NONE', #227, #733 ) ;
#1102 = SPHERICAL_SURFACE ( 'NONE', #1047, 0.5000000000000000000 ) ;
#1103 = VERTEX_POINT ( 'NONE', #278 ) ;
#1104 = FACE_OUTER_BOUND ( 'NONE', #1099, .T. ) ;
#1105 = ORIENTED_EDGE ( 'NONE', *, *, #516, .F. ) ;
#1106 = ORIENTED_EDGE ( 'NONE', *, *, #945, .T. ) ;
#1107 = DIRECTION ( 'NONE',  ( -0.000000000000000000, -0.000000000000000000, 1.000000000000000000 ) ) ;
#1108 = DIRECTION ( 'NONE',  ( -1.000000000000000000, 0.000000000000000000, 0.000000000000000000 ) ) ;
#1109 = EDGE_CURVE ( 'NONE', #697, #272, #1057, .T. ) ;
#1110 = ORIENTED_EDGE ( 'NONE', *, *, #120, .F. ) ;
#1111 = FACE_OUTER_BOUND ( 'NONE', #1120, .T. ) ;
#1112 = VERTEX_POINT ( 'NONE', #77 ) ;
#1113 = CIRCLE ( 'NONE', #924, 7.000000000000002665 ) ;
#1114 = ORIENTED_EDGE ( 'NONE', *, *, #425, .T. ) ;
#1115 =( NAMED_UNIT ( * ) PLANE_ANGLE_UNIT ( ) SI_UNIT ( $, .RADIAN. ) );
#1116 = ORIENTED_EDGE ( 'NONE', *, *, #1109, .T. ) ;
#1117 = CIRCLE ( 'NONE', #502, 6.500000000000002665 ) ;
#1118 = DIRECTION ( 'NONE',  ( 0.000000000000000000, 0.000000000000000000, 1.000000000000000000 ) ) ;
#1119 = FACE_OUTER_BOUND ( 'NONE', #507, .T. ) ;
#1120 = EDGE_LOOP ( 'NONE', ( #504, #448, #573 ) ) ;
#1121 = DIRECTION ( 'NONE',  ( 0.000000000000000000, 0.000000000000000000, 1.000000000000000000 ) ) ;
#1122 = PLANE ( 'NONE',  #509 ) ;
#1123 = ORIENTED_EDGE ( 'NONE', *, *, #1153, .T. ) ;
#1124 = AXIS2_PLACEMENT_3D ( 'NONE', #1231, #661, #175 ) ;
#1125 = ORIENTED_EDGE ( 'NONE', *, *, #750, .T. ) ;
#1126 = DIRECTION ( 'NONE',  ( -1.000000000000000000, 0.000000000000000000, 0.000000000000000000 ) ) ;
#1127 = VECTOR ( 'NONE', #514, 1000.000000000000000 ) ;
#1128 = DIRECTION ( 'NONE',  ( 0.000000000000000000, 0.000000000000000000, 1.000000000000000000 ) ) ;
#1129 = ORIENTED_EDGE ( 'NONE', *, *, #977, .T. ) ;
#1130 = EDGE_CURVE ( 'NONE', #946, #344, #768, .T. ) ;
#1131 = CARTESIAN_POINT ( 'NONE',  ( 0.000000000000000000, 9.500000000000000000, -6.000000000000000000 ) ) ;
#1132 = VERTEX_POINT ( 'NONE', #952 ) ;
#1133 = CARTESIAN_POINT ( 'NONE',  ( 0.000000000000000000, 9.500000000000000000, 10.00000000000000000 ) ) ;
#1134 = LINE ( 'NONE', #760, #195 ) ;
#1135 = ORIENTED_EDGE ( 'NONE', *, *, #425, .F. ) ;
#1136 = DIRECTION ( 'NONE',  ( 1.000000000000000000, 0.000000000000000000, 0.000000000000000000 ) ) ;
#1137 = DIRECTION ( 'NONE',  ( 0.4174238309665072588, -0.9087119154832542511, 0.000000000000000000 ) ) ;
#1138 = AXIS2_PLACEMENT_3D ( 'NONE', #465, #1234, #372 ) ;
#1139 = DIRECTION ( 'NONE',  ( 0.000000000000000000, 1.000000000000000000, 0.000000000000000000 ) ) ;
#1140 = ORIENTED_EDGE ( 'NONE', *, *, #106, .T. ) ;
#1141 = CARTESIAN_POINT ( 'NONE',  ( 5.906627450641153132, 12.21325490128229951, -9.500000000000000000 ) ) ;
#1142 = DIRECTION ( 'NONE',  ( -1.000000000000000000, 0.000000000000000000, 0.000000000000000000 ) ) ;
#1143 = EDGE_CURVE ( 'NONE', #922, #946, #668, .T. ) ;
#1144 = CARTESIAN_POINT ( 'NONE',  ( -10.00000000000000355, 4.500000000000000000, -9.500000000000000000 ) ) ;
#1145 = DIRECTION ( 'NONE',  ( 1.927470528863119049E-16, -1.000000000000000000, 0.000000000000000000 ) ) ;
#1146 = CIRCLE ( 'NONE', #205, 0.5000000000000004441 ) ;
#1147 = FACE_OUTER_BOUND ( 'NONE', #808, .T. ) ;
#1148 = DIRECTION ( 'NONE',  ( 1.000000000000000000, 0.000000000000000000, 0.000000000000000000 ) ) ;
#1149 = LINE ( 'NONE', #385, #689 ) ;
#1150 = CARTESIAN_POINT ( 'NONE',  ( -9.500000000000001776, -4.000000000000000000, 10.00000000000000000 ) ) ;
#1151 = CARTESIAN_POINT ( 'NONE',  ( 9.499999999999996447, 4.390653003321138392, 9.500000000000000000 ) ) ;
#1152 = CIRCLE ( 'NONE', #348, 0.5000000000000004441 ) ;
#1153 = EDGE_CURVE ( 'NONE', #614, #332, #1055, .T. ) ;
#1154 = EDGE_CURVE ( 'NONE', #182, #795, #523, .T. ) ;
#1155 = FACE_OUTER_BOUND ( 'NONE', #42, .T. ) ;
#1156 = AXIS2_PLACEMENT_3D ( 'NONE', #654, #273, #366 ) ;
#1157 = LINE ( 'NONE', #869, #941 ) ;
#1158 = AXIS2_PLACEMENT_3D ( 'NONE', #9, #487, #775 ) ;
#1159 = EDGE_CURVE ( 'NONE', #554, #864, #470, .T. ) ;
#1160 = DIRECTION ( 'NONE',  ( 0.000000000000000000, 0.000000000000000000, -1.000000000000000000 ) ) ;
#1161 = FACE_OUTER_BOUND ( 'NONE', #521, .T. ) ;
#1162 = EDGE_CURVE ( 'NONE', #1112, #565, #1117, .T. ) ;
#1163 = FILL_AREA_STYLE ('',( #1069 ) ) ;
#1164 = CARTESIAN_POINT ( 'NONE',  ( -9.500000000000003553, 4.390653003321136616, -9.500000000000000000 ) ) ;
#1165 = ORIENTED_EDGE ( 'NONE', *, *, #197, .F. ) ;
#1166 = COLOUR_RGB ( '',1.000000000000000000, 1.000000000000000000, 1.000000000000000000 ) ;
#1167 = VECTOR ( 'NONE', #753, 1000.000000000000000 ) ;
#1168 = SURFACE_STYLE_FILL_AREA ( #1163 ) ;
#1169 = DIRECTION ( 'NONE',  ( -1.927470528863119049E-16, 1.000000000000000000, 0.000000000000000000 ) ) ;
#1170 = LINE ( 'NONE', #119, #1127 ) ;
#1171 = ADVANCED_FACE ( 'NONE', ( #1036 ), #936, .T. ) ;
#1172 = EDGE_LOOP ( 'NONE', ( #715, #1015 ) ) ;
#1173 = ORIENTED_EDGE ( 'NONE', *, *, #582, .T. ) ;
#1174 = AXIS2_PLACEMENT_3D ( 'NONE', #277, #972, #667 ) ;
#1175 = CARTESIAN_POINT ( 'NONE',  ( 9.500000000000000000, -4.000000000000000888, 10.00000000000000000 ) ) ;
#1176 = DIRECTION ( 'NONE',  ( -0.000000000000000000, -0.000000000000000000, 1.000000000000000000 ) ) ;
#1177 = ORIENTED_EDGE ( 'NONE', *, *, #593, .T. ) ;
#1178 = DIRECTION ( 'NONE',  ( 0.000000000000000000, 0.000000000000000000, -1.000000000000000000 ) ) ;
#1179 = DIRECTION ( 'NONE',  ( -0.4174238309665078694, -0.9087119154832538070, -7.241149190097750992E-16 ) ) ;
#1180 = ORIENTED_EDGE ( 'NONE', *, *, #1256, .T. ) ;
#1181 = PLANE ( 'NONE',  #883 ) ;
#1182 = EDGE_CURVE ( 'NONE', #52, #101, #625, .T. ) ;
#1183 = ADVANCED_FACE ( 'NONE', ( #758, #95 ), #1251, .F. ) ;
#1184 = AXIS2_PLACEMENT_3D ( 'NONE', #418, #803, #328 ) ;
#1185 = VERTEX_POINT ( 'NONE', #1059 ) ;
#1186 = LINE ( 'NONE', #337, #450 ) ;
#1187 = FACE_OUTER_BOUND ( 'NONE', #433, .T. ) ;
#1188 = ORIENTED_EDGE ( 'NONE', *, *, #1143, .F. ) ;
#1189 = CARTESIAN_POINT ( 'NONE',  ( 6.360983408382780091, 12.42196681676555414, 10.00000000000000000 ) ) ;
#1190 = ORIENTED_EDGE ( 'NONE', *, *, #1, .T. ) ;
#1191 = EDGE_CURVE ( 'NONE', #61, #1219, #1242, .T. ) ;
#1192 = EDGE_LOOP ( 'NONE', ( #479, #1106, #536 ) ) ;
#1193 = CIRCLE ( 'NONE', #189, 0.5000000000000004441 ) ;
#1194 = LINE ( 'NONE', #413, #1259 ) ;
#1195 = ORIENTED_EDGE ( 'NONE', *, *, #928, .F. ) ;
#1196 = DIRECTION ( 'NONE',  ( 0.000000000000000000, 0.000000000000000000, -1.000000000000000000 ) ) ;
#1197 = ORIENTED_EDGE ( 'NONE', *, *, #567, .F. ) ;
#1198 = ORIENTED_EDGE ( 'NONE', *, *, #1162, .T. ) ;
#1199 = CYLINDRICAL_SURFACE ( 'NONE', #503, 0.5000000000000004441 ) ;
#1200 = FILL_AREA_STYLE ('',( #224 ) ) ;
#1201 = ADVANCED_FACE ( 'NONE', ( #778 ), #963, .T. ) ;
#1202 = ORIENTED_EDGE ( 'NONE', *, *, #889, .F. ) ;
#1203 = CARTESIAN_POINT ( 'NONE',  ( -10.00000000000000178, -4.000000000000000000, 9.500000000000000000 ) ) ;
#1204 = ORIENTED_EDGE ( 'NONE', *, *, #319, .F. ) ;
#1205 = DIRECTION ( 'NONE',  ( 0.9087119154832539181, -0.4174238309665077029, 0.000000000000000000 ) ) ;
#1206 = ORIENTED_EDGE ( 'NONE', *, *, #868, .F. ) ;
#1207 = CIRCLE ( 'NONE', #1054, 0.5000000000000004441 ) ;
#1208 = ORIENTED_EDGE ( 'NONE', *, *, #468, .T. ) ;
#1209 = EDGE_LOOP ( 'NONE', ( #515, #641, #41, #321 ) ) ;
#1210 = AXIS2_PLACEMENT_3D ( 'NONE', #607, #118, #722 ) ;
#1211 = CARTESIAN_POINT ( 'NONE',  ( 9.499999999999996447, 4.390653003321138392, 10.00000000000000000 ) ) ;
#1212 = EDGE_LOOP ( 'NONE', ( #358, #1085, #1135, #975 ) ) ;
#1213 = ADVANCED_FACE ( 'NONE', ( #491 ), #193, .T. ) ;
#1214 = DIRECTION ( 'NONE',  ( 0.000000000000000000, 0.000000000000000000, 1.000000000000000000 ) ) ;
#1215 = EDGE_LOOP ( 'NONE', ( #45, #404, #627, #633 ) ) ;
#1216 = DIRECTION ( 'NONE',  ( 1.000000000000000000, 0.000000000000000000, 0.000000000000000000 ) ) ;
#1217 = ORIENTED_EDGE ( 'NONE', *, *, #496, .T. ) ;
#1218 = VECTOR ( 'NONE', #575, 1000.000000000000000 ) ;
#1219 = VERTEX_POINT ( 'NONE', #690 ) ;
#1220 = DIRECTION ( 'NONE',  ( 0.000000000000000000, 0.000000000000000000, -1.000000000000000000 ) ) ;
#1221 = AXIS2_PLACEMENT_3D ( 'NONE', #853, #636, #1237 ) ;
#1222 = CARTESIAN_POINT ( 'NONE',  ( 9.500000000000000000, -4.000000000000000000, 9.500000000000000000 ) ) ;
#1223 = DIRECTION ( 'NONE',  ( -1.000000000000000000, 0.000000000000000000, 0.000000000000000000 ) ) ;
#1224 = CARTESIAN_POINT ( 'NONE',  ( -5.000000000000003553, 9.500000000000000000, -10.00000000000000000 ) ) ;
#1225 = VERTEX_POINT ( 'NONE', #301 ) ;
#1226 = CARTESIAN_POINT ( 'NONE',  ( -9.500000000000001776, -4.000000000000000000, 9.500000000000000000 ) ) ;
#1227 = CARTESIAN_POINT ( 'NONE',  ( -9.500000000000001776, -4.000000000000000000, -9.500000000000000000 ) ) ;
#1228 = ORIENTED_EDGE ( 'NONE', *, *, #783, .T. ) ;
#1229 = CARTESIAN_POINT ( 'NONE',  ( -9.500000000000003553, 4.390653003321136616, 9.500000000000000000 ) ) ;
#1230 = ADVANCED_FACE ( 'NONE', ( #473 ), #673, .T. ) ;
#1231 = CARTESIAN_POINT ( 'NONE',  ( 9.499999999999994671, 9.500000000000003553, 9.500000000000000000 ) ) ;
#1232 = ADVANCED_FACE ( 'NONE', ( #1155 ), #959, .T. ) ;
#1233 = MANIFOLD_SOLID_BREP ( '切除-拉伸1', #391 ) ;
#1234 = DIRECTION ( 'NONE',  ( 0.000000000000000000, 0.000000000000000000, 1.000000000000000000 ) ) ;
#1235 = AXIS2_PLACEMENT_3D ( 'NONE', #187, #1160, #782 ) ;
#1236 = LINE ( 'NONE', #1056, #320 ) ;
#1237 = DIRECTION ( 'NONE',  ( 1.000000000000000000, -1.734723475976805517E-15, 0.000000000000000000 ) ) ;
#1238 = EDGE_CURVE ( 'NONE', #743, #52, #206, .T. ) ;
#1239 = DIRECTION ( 'NONE',  ( 1.000000000000000000, 8.006416042969876091E-16, 0.000000000000000000 ) ) ;
#1240 = DIRECTION ( 'NONE',  ( -0.000000000000000000, -0.000000000000000000, -1.000000000000000000 ) ) ;
#1241 = ORIENTED_EDGE ( 'NONE', *, *, #977, .F. ) ;
#1242 = LINE ( 'NONE', #392, #685 ) ;
#1243 = EDGE_CURVE ( 'NONE', #332, #129, #773, .T. ) ;
#1244 = FACE_OUTER_BOUND ( 'NONE', #412, .T. ) ;
#1245 = ORIENTED_EDGE ( 'NONE', *, *, #749, .F. ) ;
#1246 = DIRECTION ( 'NONE',  ( 1.000000000000000000, 0.000000000000000000, 0.000000000000000000 ) ) ;
#1247 = CIRCLE ( 'NONE', #866, 0.5000000000000004441 ) ;
#1248 =( LENGTH_UNIT ( ) NAMED_UNIT ( * ) SI_UNIT ( .MILLI., .METRE. ) );
#1249 = LINE ( 'NONE', #198, #222 ) ;
#1250 = AXIS2_PLACEMENT_3D ( 'NONE', #861, #397, #486 ) ;
#1251 = PLANE ( 'NONE',  #241 ) ;
#1252 = CIRCLE ( 'NONE', #908, 7.000000000000002665 ) ;
#1253 = DIRECTION ( 'NONE',  ( 1.000000000000000000, 0.000000000000000000, 0.000000000000000000 ) ) ;
#1254 = CIRCLE ( 'NONE', #809, 0.5000000000000004441 ) ;
#1255 = VECTOR ( 'NONE', #1061, 1000.000000000000000 ) ;
#1256 = EDGE_CURVE ( 'NONE', #68, #134, #686, .T. ) ;
#1257 = AXIS2_PLACEMENT_3D ( 'NONE', #161, #752, #246 ) ;
#1258 = FACE_OUTER_BOUND ( 'NONE', #903, .T. ) ;
#1259 = VECTOR ( 'NONE', #1176, 1000.000000000000000 ) ;
#1260 = DIRECTION ( 'NONE',  ( 1.000000000000000000, 0.000000000000000000, 0.000000000000000000 ) ) ;
ENDSEC;
END-ISO-10303-21;
