ISO-10303-21;
HEADER;
FILE_DESCRIPTION (( 'STEP AP214' ),
    '1' );
FILE_NAME ('翻土.step',
    '2023-08-15T03:04:04',
    ( '' ),
    ( '' ),
    'SwSTEP 2.0',
    'SolidWorks 2022',
    '' );
FILE_SCHEMA (( 'AUTOMOTIVE_DESIGN' ));
ENDSEC;

DATA;
#1 = VERTEX_POINT ( 'NONE', #53 ) ;
#2 = DIRECTION ( 'NONE',  ( 1.000000000000000000, 0.000000000000000000, 0.000000000000000000 ) ) ;
#3 = MECHANICAL_DESIGN_GEOMETRIC_PRESENTATION_REPRESENTATION (  '', ( #138 ), #359 ) ;
#4 = CYLINDRICAL_SURFACE ( 'NONE', #510, 1.499999999999996225 ) ;
#5 = AXIS2_PLACEMENT_3D ( 'NONE', #18, #48, #184 ) ;
#6 = DIRECTION ( 'NONE',  ( -0.000000000000000000, -0.000000000000000000, -1.000000000000000000 ) ) ;
#7 = CARTESIAN_POINT ( 'NONE',  ( 2.000000000000000000, 4.751818219635827845, -2.499999999999998668 ) ) ;
#8 = LINE ( 'NONE', #258, #140 ) ;
#9 = LINE ( 'NONE', #451, #308 ) ;
#10 = DIRECTION ( 'NONE',  ( -0.000000000000000000, -0.000000000000000000, -1.000000000000000000 ) ) ;
#11 = DIRECTION ( 'NONE',  ( -0.000000000000000000, -0.000000000000000000, -1.000000000000000000 ) ) ;
#12 = AXIS2_PLACEMENT_3D ( 'NONE', #440, #188, #106 ) ;
#13 = ADVANCED_FACE ( 'NONE', ( #45 ), #340, .F. ) ;
#14 = CARTESIAN_POINT ( 'NONE',  ( 0.000000000000000000, 32.26340000000000430, -4.500000000000000000 ) ) ;
#15 = CARTESIAN_POINT ( 'NONE',  ( 10.00000000000000000, 4.751818219635827845, -0.9999999999999988898 ) ) ;
#16 = CARTESIAN_POINT ( 'NONE',  ( 0.000000000000000000, 33.00000000000000000, 4.500000000000000000 ) ) ;
#17 = EDGE_LOOP ( 'NONE', ( #486, #481 ) ) ;
#18 = CARTESIAN_POINT ( 'NONE',  ( 2.736600000000000144, 32.26340000000000430, -4.500000000000000000 ) ) ;
#19 = ORIENTED_EDGE ( 'NONE', *, *, #515, .T. ) ;
#20 = CLOSED_SHELL ( 'NONE', ( #125, #50, #305, #303, #463, #245, #186, #372, #521, #177, #437, #60, #69, #13, #338, #442, #43, #130 ) ) ;
#21 = ORIENTED_EDGE ( 'NONE', *, *, #479, .F. ) ;
#22 = EDGE_CURVE ( 'NONE', #1, #198, #471, .T. ) ;
#23 = DIRECTION ( 'NONE',  ( 0.000000000000000000, 0.000000000000000000, 1.000000000000000000 ) ) ;
#24 = ORIENTED_EDGE ( 'NONE', *, *, #399, .T. ) ;
#25 = PRESENTATION_STYLE_ASSIGNMENT (( #236 ) ) ;
#26 = DIRECTION ( 'NONE',  ( -0.000000000000000000, -0.000000000000000000, -1.000000000000000000 ) ) ;
#27 = VERTEX_POINT ( 'NONE', #216 ) ;
#28 = LINE ( 'NONE', #144, #473 ) ;
#29 = LINE ( 'NONE', #322, #389 ) ;
#30 = EDGE_LOOP ( 'NONE', ( #139, #47, #281, #191 ) ) ;
#31 = CYLINDRICAL_SURFACE ( 'NONE', #88, 1.499999999999999778 ) ;
#32 = VERTEX_POINT ( 'NONE', #253 ) ;
#33 = PLANE ( 'NONE',  #493 ) ;
#34 = EDGE_CURVE ( 'NONE', #361, #278, #342, .T. ) ;
#35 = EDGE_LOOP ( 'NONE', ( #239, #224, #496, #355 ) ) ;
#36 = DIRECTION ( 'NONE',  ( 0.000000000000000000, 0.000000000000000000, 1.000000000000000000 ) ) ;
#37 = VERTEX_POINT ( 'NONE', #294 ) ;
#38 = PLANE ( 'NONE',  #327 ) ;
#39 = EDGE_LOOP ( 'NONE', ( #500, #424, #376, #287 ) ) ;
#40 = CARTESIAN_POINT ( 'NONE',  ( 2.000000000000000000, 4.751818219635827845, 3.999999999999997335 ) ) ;
#41 = SURFACE_STYLE_FILL_AREA ( #93 ) ;
#42 = DIRECTION ( 'NONE',  ( 0.000000000000000000, -1.000000000000000000, 0.000000000000000000 ) ) ;
#43 = ADVANCED_FACE ( 'NONE', ( #49 ), #4, .F. ) ;
#44 = VECTOR ( 'NONE', #87, 1000.000000000000000 ) ;
#45 = FACE_OUTER_BOUND ( 'NONE', #30, .T. ) ;
#46 = DIRECTION ( 'NONE',  ( -0.000000000000000000, -0.000000000000000000, -1.000000000000000000 ) ) ;
#47 = ORIENTED_EDGE ( 'NONE', *, *, #199, .F. ) ;
#48 = DIRECTION ( 'NONE',  ( 0.000000000000000000, 0.000000000000000000, 1.000000000000000000 ) ) ;
#49 = FACE_OUTER_BOUND ( 'NONE', #189, .T. ) ;
#50 = ADVANCED_FACE ( 'NONE', ( #133 ), #222, .F. ) ;
#51 = EDGE_CURVE ( 'NONE', #37, #477, #404, .T. ) ;
#52 = CARTESIAN_POINT ( 'NONE',  ( 2.736600000000000144, 35.00000000000000000, -4.500000000000000000 ) ) ;
#53 = CARTESIAN_POINT ( 'NONE',  ( 15.00000000000000000, 35.00000000000000000, 4.500000000000000000 ) ) ;
#54 = VECTOR ( 'NONE', #317, 1000.000000000000000 ) ;
#55 = AXIS2_PLACEMENT_3D ( 'NONE', #156, #254, #242 ) ;
#56 = VECTOR ( 'NONE', #97, 1000.000000000000000 ) ;
#57 = DIRECTION ( 'NONE',  ( 0.000000000000000000, 0.000000000000000000, 1.000000000000000000 ) ) ;
#58 = VERTEX_POINT ( 'NONE', #91 ) ;
#59 = CARTESIAN_POINT ( 'NONE',  ( 10.00000000000000000, 4.751818219635827845, -3.999999999999998224 ) ) ;
#60 = ADVANCED_FACE ( 'NONE', ( #259 ), #387, .T. ) ;
#61 = ORIENTED_EDGE ( 'NONE', *, *, #524, .T. ) ;
#62 = AXIS2_PLACEMENT_3D ( 'NONE', #426, #261, #505 ) ;
#63 = CARTESIAN_POINT ( 'NONE',  ( 2.000000000000000000, 4.751818219635827845, 1.000000000000005551 ) ) ;
#64 = CARTESIAN_POINT ( 'NONE',  ( 2.000000000000000000, 0.000000000000000000, 4.500000000000000000 ) ) ;
#65 = ORIENTED_EDGE ( 'NONE', *, *, #115, .F. ) ;
#66 = FACE_OUTER_BOUND ( 'NONE', #311, .T. ) ;
#67 = ORIENTED_EDGE ( 'NONE', *, *, #318, .T. ) ;
#68 = EDGE_CURVE ( 'NONE', #477, #83, #173, .T. ) ;
#69 = ADVANCED_FACE ( 'NONE', ( #181 ), #465, .T. ) ;
#70 = CARTESIAN_POINT ( 'NONE',  ( 2.000000000000000000, 4.751818219635827845, -2.499999999999998668 ) ) ;
#71 = ORIENTED_EDGE ( 'NONE', *, *, #238, .F. ) ;
#72 = DIRECTION ( 'NONE',  ( 0.000000000000000000, 0.000000000000000000, 1.000000000000000000 ) ) ;
#73 = AXIS2_PLACEMENT_3D ( 'NONE', #80, #210, #461 ) ;
#74 = ORIENTED_EDGE ( 'NONE', *, *, #262, .F. ) ;
#75 = CARTESIAN_POINT ( 'NONE',  ( 10.00000000000000000, 4.751818219635827845, -2.499999999999998668 ) ) ;
#76 = UNCERTAINTY_MEASURE_WITH_UNIT (LENGTH_MEASURE( 1.000000000000000082E-05 ), #356, 'distance_accuracy_value', 'NONE');
#77 = DIRECTION ( 'NONE',  ( -1.000000000000000000, -0.000000000000000000, 0.000000000000000000 ) ) ;
#78 = ORIENTED_EDGE ( 'NONE', *, *, #148, .T. ) ;
#79 = PRODUCT_RELATED_PRODUCT_CATEGORY ( 'part', '', ( #214 ) ) ;
#80 = CARTESIAN_POINT ( 'NONE',  ( 0.000000000000000000, 4.751818219635827845, 2.500000000000001332 ) ) ;
#81 = AXIS2_PLACEMENT_3D ( 'NONE', #495, #297, #164 ) ;
#82 = UNCERTAINTY_MEASURE_WITH_UNIT (LENGTH_MEASURE( 1.000000000000000082E-05 ), #325, 'distance_accuracy_value', 'NONE');
#83 = VERTEX_POINT ( 'NONE', #179 ) ;
#84 = SURFACE_SIDE_STYLE ('',( #41 ) ) ;
#85 = PLANE ( 'NONE',  #246 ) ;
#86 = EDGE_LOOP ( 'NONE', ( #522, #331 ) ) ;
#87 = DIRECTION ( 'NONE',  ( 0.000000000000000000, 1.000000000000000000, 0.000000000000000000 ) ) ;
#88 = AXIS2_PLACEMENT_3D ( 'NONE', #529, #110, #23 ) ;
#89 = CARTESIAN_POINT ( 'NONE',  ( 2.000000000000000000, 0.000000000000000000, 4.500000000000000000 ) ) ;
#90 = DIRECTION ( 'NONE',  ( 0.000000000000000000, 1.000000000000000000, 0.000000000000000000 ) ) ;
#91 = CARTESIAN_POINT ( 'NONE',  ( 2.000000000000000000, 0.000000000000000000, -4.500000000000000000 ) ) ;
#92 = LINE ( 'NONE', #14, #56 ) ;
#93 = FILL_AREA_STYLE ('',( #512 ) ) ;
#94 = DIRECTION ( 'NONE',  ( 1.000000000000000000, 0.000000000000000000, 0.000000000000000000 ) ) ;
#95 = VECTOR ( 'NONE', #383, 1000.000000000000000 ) ;
#96 = CIRCLE ( 'NONE', #335, 1.499999999999999778 ) ;
#97 = DIRECTION ( 'NONE',  ( 1.000000000000000000, 0.000000000000000000, 0.000000000000000000 ) ) ;
#98 = MANIFOLD_SOLID_BREP ( '切除-拉伸1', #20 ) ;
#99 = VERTEX_POINT ( 'NONE', #271 ) ;
#100 = CARTESIAN_POINT ( 'NONE',  ( 2.000000000000000000, 4.751818219635827845, -0.9999999999999988898 ) ) ;
#101 = ORIENTED_EDGE ( 'NONE', *, *, #535, .F. ) ;
#102 = LINE ( 'NONE', #64, #457 ) ;
#103 = ORIENTED_EDGE ( 'NONE', *, *, #22, .F. ) ;
#104 = CIRCLE ( 'NONE', #81, 2.736600000000000144 ) ;
#105 = LINE ( 'NONE', #147, #369 ) ;
#106 = DIRECTION ( 'NONE',  ( 0.000000000000000000, 0.000000000000000000, 1.000000000000000000 ) ) ;
#107 = EDGE_CURVE ( 'NONE', #445, #58, #9, .T. ) ;
#108 = VERTEX_POINT ( 'NONE', #514 ) ;
#109 = CARTESIAN_POINT ( 'NONE',  ( 2.000000000000000000, 0.000000000000000000, -4.500000000000000000 ) ) ;
#110 = DIRECTION ( 'NONE',  ( -1.000000000000000000, -0.000000000000000000, -0.000000000000000000 ) ) ;
#111 = ORIENTED_EDGE ( 'NONE', *, *, #524, .F. ) ;
#112 =( NAMED_UNIT ( * ) SI_UNIT ( $, .STERADIAN. ) SOLID_ANGLE_UNIT ( ) );
#113 = DIRECTION ( 'NONE',  ( 0.000000000000000000, 1.000000000000000000, 0.000000000000000000 ) ) ;
#114 = VERTEX_POINT ( 'NONE', #145 ) ;
#115 = EDGE_CURVE ( 'NONE', #445, #316, #102, .T. ) ;
#116 = DIRECTION ( 'NONE',  ( -0.000000000000000000, 0.000000000000000000, -1.000000000000000000 ) ) ;
#117 = ORIENTED_EDGE ( 'NONE', *, *, #535, .T. ) ;
#118 = CARTESIAN_POINT ( 'NONE',  ( 2.000000000000000000, 0.000000000000000000, 4.500000000000000000 ) ) ;
#119 = PRODUCT_DEFINITION_CONTEXT ( 'detailed design', #226, 'design' ) ;
#120 = ORIENTED_EDGE ( 'NONE', *, *, #468, .F. ) ;
#121 = LINE ( 'NONE', #288, #415 ) ;
#122 = ORIENTED_EDGE ( 'NONE', *, *, #491, .F. ) ;
#123 = LINE ( 'NONE', #330, #351 ) ;
#124 = AXIS2_PLACEMENT_3D ( 'NONE', #217, #46, #347 ) ;
#125 = ADVANCED_FACE ( 'NONE', ( #363 ), #31, .F. ) ;
#126 = FACE_OUTER_BOUND ( 'NONE', #146, .T. ) ;
#127 = DIRECTION ( 'NONE',  ( -1.000000000000000000, -0.000000000000000000, -0.000000000000000000 ) ) ;
#128 = DIRECTION ( 'NONE',  ( -1.000000000000000000, 0.000000000000000000, 0.000000000000000000 ) ) ;
#129 = DIRECTION ( 'NONE',  ( 0.000000000000000000, 0.000000000000000000, 1.000000000000000000 ) ) ;
#130 = ADVANCED_FACE ( 'NONE', ( #195 ), #314, .F. ) ;
#131 = DIRECTION ( 'NONE',  ( -0.000000000000000000, -0.000000000000000000, -1.000000000000000000 ) ) ;
#132 = CIRCLE ( 'NONE', #55, 1.499999999999996225 ) ;
#133 = FACE_OUTER_BOUND ( 'NONE', #488, .T. ) ;
#134 = FACE_OUTER_BOUND ( 'NONE', #234, .T. ) ;
#135 = DIRECTION ( 'NONE',  ( 0.000000000000000000, -1.000000000000000000, 0.000000000000000000 ) ) ;
#136 = CARTESIAN_POINT ( 'NONE',  ( 2.736600000000000144, 35.00000000000000000, 4.500000000000000000 ) ) ;
#137 = CARTESIAN_POINT ( 'NONE',  ( 10.00000000000000000, 4.751818219635827845, 3.999999999999997335 ) ) ;
#138 = STYLED_ITEM ( 'NONE', ( #503 ), #98 ) ;
#139 = ORIENTED_EDGE ( 'NONE', *, *, #491, .T. ) ;
#140 = VECTOR ( 'NONE', #225, 1000.000000000000000 ) ;
#141 = PRODUCT_DEFINITION ( '未知', '', #158, #119 ) ;
#142 = FACE_OUTER_BOUND ( 'NONE', #35, .T. ) ;
#143 = ORIENTED_EDGE ( 'NONE', *, *, #357, .F. ) ;
#144 = CARTESIAN_POINT ( 'NONE',  ( 0.000000000000000000, 33.00000000000000000, 4.500000000000000000 ) ) ;
#145 = CARTESIAN_POINT ( 'NONE',  ( 0.000000000000000000, 32.26340000000000430, -4.500000000000000000 ) ) ;
#146 = EDGE_LOOP ( 'NONE', ( #163, #67, #284, #65 ) ) ;
#147 = CARTESIAN_POINT ( 'NONE',  ( 2.000000000000000000, 0.000000000000000000, -4.500000000000000000 ) ) ;
#148 = EDGE_CURVE ( 'NONE', #108, #406, #449, .T. ) ;
#149 = COLOUR_RGB ( '',0.7921568627450980005, 0.8196078431372548767, 0.9333333333333333481 ) ;
#150 = ORIENTED_EDGE ( 'NONE', *, *, #423, .F. ) ;
#151 = AXIS2_PLACEMENT_3D ( 'NONE', #7, #337, #460 ) ;
#152 = DIRECTION ( 'NONE',  ( -1.000000000000000000, 0.000000000000000000, 0.000000000000000000 ) ) ;
#153 = EDGE_LOOP ( 'NONE', ( #101, #326, #204, #434 ) ) ;
#154 = CARTESIAN_POINT ( 'NONE',  ( 2.000000000000000000, 32.26340000000000430, 4.500000000000000000 ) ) ;
#155 = EDGE_LOOP ( 'NONE', ( #414, #531, #24, #19 ) ) ;
#156 = CARTESIAN_POINT ( 'NONE',  ( 2.000000000000000000, 4.751818219635827845, 2.500000000000001332 ) ) ;
#157 = ORIENTED_EDGE ( 'NONE', *, *, #385, .T. ) ;
#158 = PRODUCT_DEFINITION_FORMATION_WITH_SPECIFIED_SOURCE ( '任何', '', #214, .NOT_KNOWN. ) ;
#159 = VECTOR ( 'NONE', #42, 1000.000000000000000 ) ;
#160 = LINE ( 'NONE', #285, #159 ) ;
#161 = ORIENTED_EDGE ( 'NONE', *, *, #256, .T. ) ;
#162 = CARTESIAN_POINT ( 'NONE',  ( 2.000000000000000000, 32.26340000000000430, 4.500000000000000000 ) ) ;
#163 = ORIENTED_EDGE ( 'NONE', *, *, #321, .T. ) ;
#164 = DIRECTION ( 'NONE',  ( 1.000000000000000000, 0.000000000000000000, 0.000000000000000000 ) ) ;
#165 = EDGE_CURVE ( 'NONE', #244, #431, #484, .T. ) ;
#166 = EDGE_CURVE ( 'NONE', #518, #83, #519, .T. ) ;
#167 = VERTEX_POINT ( 'NONE', #397 ) ;
#168 = AXIS2_PLACEMENT_3D ( 'NONE', #490, #362, #532 ) ;
#169 = DIRECTION ( 'NONE',  ( 1.000000000000000000, 0.000000000000000000, 0.000000000000000000 ) ) ;
#170 = VECTOR ( 'NONE', #392, 1000.000000000000000 ) ;
#171 = DIRECTION ( 'NONE',  ( 0.000000000000000000, 0.000000000000000000, 1.000000000000000000 ) ) ;
#172 = CARTESIAN_POINT ( 'NONE',  ( 2.000000000000000000, 32.26340000000000430, -4.500000000000000000 ) ) ;
#173 = LINE ( 'NONE', #15, #211 ) ;
#174 = DIRECTION ( 'NONE',  ( 1.000000000000000000, 0.000000000000000000, 0.000000000000000000 ) ) ;
#175 = ORIENTED_EDGE ( 'NONE', *, *, #51, .T. ) ;
#176 = CARTESIAN_POINT ( 'NONE',  ( 10.00000000000000000, 4.751818219635827845, 1.000000000000005551 ) ) ;
#177 = ADVANCED_FACE ( 'NONE', ( #280 ), #274, .T. ) ;
#178 = COLOUR_RGB ( '',0.7921568627450980005, 0.8196078431372548767, 0.9333333333333333481 ) ;
#179 = CARTESIAN_POINT ( 'NONE',  ( 0.000000000000000000, 4.751818219635827845, -0.9999999999999988898 ) ) ;
#180 = DIRECTION ( 'NONE',  ( -1.000000000000000000, -0.000000000000000000, -0.000000000000000000 ) ) ;
#181 = FACE_OUTER_BOUND ( 'NONE', #153, .T. ) ;
#182 = CARTESIAN_POINT ( 'NONE',  ( 0.000000000000000000, 4.751818219635827845, -3.999999999999998224 ) ) ;
#183 = ORIENTED_EDGE ( 'NONE', *, *, #348, .T. ) ;
#184 = DIRECTION ( 'NONE',  ( 1.000000000000000000, 0.000000000000000000, -0.000000000000000000 ) ) ;
#185 = ORIENTED_EDGE ( 'NONE', *, *, #433, .T. ) ;
#186 = ADVANCED_FACE ( 'NONE', ( #66 ), #448, .T. ) ;
#187 =( NAMED_UNIT ( * ) PLANE_ANGLE_UNIT ( ) SI_UNIT ( $, .RADIAN. ) );
#188 = DIRECTION ( 'NONE',  ( 1.000000000000000000, -0.000000000000000000, -0.000000000000000000 ) ) ;
#189 = EDGE_LOOP ( 'NONE', ( #120, #206, #289, #78 ) ) ;
#190 = DIRECTION ( 'NONE',  ( 0.000000000000000000, 0.000000000000000000, 1.000000000000000000 ) ) ;
#191 = ORIENTED_EDGE ( 'NONE', *, *, #34, .T. ) ;
#192 = AXIS2_PLACEMENT_3D ( 'NONE', #197, #152, #277 ) ;
#193 = AXIS2_PLACEMENT_3D ( 'NONE', #472, #343, #94 ) ;
#194 = DIRECTION ( 'NONE',  ( -0.000000000000000000, 1.000000000000000000, 0.000000000000000000 ) ) ;
#195 = FACE_OUTER_BOUND ( 'NONE', #409, .T. ) ;
#196 = ORIENTED_EDGE ( 'NONE', *, *, #498, .T. ) ;
#197 = CARTESIAN_POINT ( 'NONE',  ( 0.000000000000000000, 4.751818219635827845, 2.500000000000001332 ) ) ;
#198 = VERTEX_POINT ( 'NONE', #401 ) ;
#199 = EDGE_CURVE ( 'NONE', #534, #244, #29, .T. ) ;
#200 = CARTESIAN_POINT ( 'NONE',  ( 0.000000000000000000, 0.000000000000000000, 4.500000000000000000 ) ) ;
#201 = ORIENTED_EDGE ( 'NONE', *, *, #499, .T. ) ;
#202 = VECTOR ( 'NONE', #2, 1000.000000000000000 ) ;
#203 = LINE ( 'NONE', #413, #44 ) ;
#204 = ORIENTED_EDGE ( 'NONE', *, *, #115, .T. ) ;
#205 = CARTESIAN_POINT ( 'NONE',  ( 2.736600000000000144, 32.26340000000000430, 4.500000000000000000 ) ) ;
#206 = ORIENTED_EDGE ( 'NONE', *, *, #272, .F. ) ;
#207 = DIRECTION ( 'NONE',  ( -0.000000000000000000, 1.000000000000000000, 0.000000000000000000 ) ) ;
#208 = CARTESIAN_POINT ( 'NONE',  ( 2.736600000000000144, 32.26340000000000430, 4.500000000000000000 ) ) ;
#209 = PRESENTATION_LAYER_ASSIGNMENT (  '', '', ( #517 ) ) ;
#210 = DIRECTION ( 'NONE',  ( -1.000000000000000000, 0.000000000000000000, 0.000000000000000000 ) ) ;
#211 = VECTOR ( 'NONE', #218, 1000.000000000000000 ) ;
#212 = AXIS2_PLACEMENT_3D ( 'NONE', #223, #520, #350 ) ;
#213 = ORIENTED_EDGE ( 'NONE', *, *, #286, .T. ) ;
#214 = PRODUCT ( '翻土', '翻土', '', ( #279 ) ) ;
#215 = CARTESIAN_POINT ( 'NONE',  ( 0.000000000000000000, 0.000000000000000000, -4.500000000000000000 ) ) ;
#216 = CARTESIAN_POINT ( 'NONE',  ( 2.736600000000000144, 35.00000000000000000, 4.500000000000000000 ) ) ;
#217 = CARTESIAN_POINT ( 'NONE',  ( 2.736600000000000144, 32.26340000000000430, -4.500000000000000000 ) ) ;
#218 = DIRECTION ( 'NONE',  ( -1.000000000000000000, -0.000000000000000000, -0.000000000000000000 ) ) ;
#219 = DIRECTION ( 'NONE',  ( 1.000000000000000000, -0.000000000000000000, -0.000000000000000000 ) ) ;
#220 = AXIS2_PLACEMENT_3D ( 'NONE', #89, #257, #250 ) ;
#221 = VECTOR ( 'NONE', #470, 1000.000000000000000 ) ;
#222 = CYLINDRICAL_SURFACE ( 'NONE', #300, 1.499999999999996225 ) ;
#223 = CARTESIAN_POINT ( 'NONE',  ( 2.736600000000000144, 35.00000000000000000, 4.500000000000000000 ) ) ;
#224 = ORIENTED_EDGE ( 'NONE', *, *, #165, .T. ) ;
#225 = DIRECTION ( 'NONE',  ( 0.000000000000000000, -1.000000000000000000, 0.000000000000000000 ) ) ;
#226 = APPLICATION_CONTEXT ( 'automotive_design' ) ;
#227 = ORIENTED_EDGE ( 'NONE', *, *, #544, .F. ) ;
#228 = VECTOR ( 'NONE', #375, 1000.000000000000000 ) ;
#229 = ORIENTED_EDGE ( 'NONE', *, *, #238, .T. ) ;
#230 = APPLICATION_PROTOCOL_DEFINITION ( 'draft international standard', 'automotive_design', 1998, #226 ) ;
#231 = ORIENTED_EDGE ( 'NONE', *, *, #419, .F. ) ;
#232 = SURFACE_SIDE_STYLE ('',( #443 ) ) ;
#233 = DIRECTION ( 'NONE',  ( -0.000000000000000000, 0.000000000000000000, -1.000000000000000000 ) ) ;
#234 = EDGE_LOOP ( 'NONE', ( #74, #494, #507, #196 ) ) ;
#235 = VECTOR ( 'NONE', #299, 1000.000000000000000 ) ;
#236 = SURFACE_STYLE_USAGE ( .BOTH. , #232 ) ;
#237 = DIRECTION ( 'NONE',  ( -0.000000000000000000, -0.000000000000000000, -1.000000000000000000 ) ) ;
#238 = EDGE_CURVE ( 'NONE', #477, #37, #291, .T. ) ;
#239 = ORIENTED_EDGE ( 'NONE', *, *, #348, .F. ) ;
#240 = CARTESIAN_POINT ( 'NONE',  ( 2.736600000000000144, 33.00000000000000000, -4.500000000000000000 ) ) ;
#241 = EDGE_LOOP ( 'NONE', ( #393, #150, #161, #489 ) ) ;
#242 = DIRECTION ( 'NONE',  ( 0.000000000000000000, 0.000000000000000000, 1.000000000000000000 ) ) ;
#243 = UNCERTAINTY_MEASURE_WITH_UNIT (LENGTH_MEASURE( 1.000000000000000082E-05 ), #523, 'distance_accuracy_value', 'NONE');
#244 = VERTEX_POINT ( 'NONE', #410 ) ;
#245 = ADVANCED_FACE ( 'NONE', ( #358 ), #33, .T. ) ;
#246 = AXIS2_PLACEMENT_3D ( 'NONE', #118, #77, #418 ) ;
#247 = FACE_BOUND ( 'NONE', #267, .T. ) ;
#248 = VERTEX_POINT ( 'NONE', #408 ) ;
#249 = PLANE ( 'NONE',  #309 ) ;
#250 = DIRECTION ( 'NONE',  ( 0.000000000000000000, -0.000000000000000000, -1.000000000000000000 ) ) ;
#251 = EDGE_CURVE ( 'NONE', #526, #304, #132, .T. ) ;
#252 = PLANE ( 'NONE',  #344 ) ;
#253 = CARTESIAN_POINT ( 'NONE',  ( 0.000000000000000000, 0.000000000000000000, -4.500000000000000000 ) ) ;
#254 = DIRECTION ( 'NONE',  ( -1.000000000000000000, -0.000000000000000000, 0.000000000000000000 ) ) ;
#255 = AXIS2_PLACEMENT_3D ( 'NONE', #422, #416, #36 ) ;
#256 = EDGE_CURVE ( 'NONE', #316, #248, #203, .T. ) ;
#257 = DIRECTION ( 'NONE',  ( 0.000000000000000000, -1.000000000000000000, 0.000000000000000000 ) ) ;
#258 = CARTESIAN_POINT ( 'NONE',  ( 15.00000000000000000, 35.00000000000000000, -4.500000000000000000 ) ) ;
#259 = FACE_OUTER_BOUND ( 'NONE', #155, .T. ) ;
#260 = DIRECTION ( 'NONE',  ( 0.000000000000000000, -0.000000000000000000, 1.000000000000000000 ) ) ;
#261 = DIRECTION ( 'NONE',  ( -0.000000000000000000, -0.000000000000000000, -1.000000000000000000 ) ) ;
#262 = EDGE_CURVE ( 'NONE', #27, #534, #160, .T. ) ;
#263 = PLANE ( 'NONE',  #5 ) ;
#264 = CIRCLE ( 'NONE', #405, 2.736600000000000144 ) ;
#265 = CARTESIAN_POINT ( 'NONE',  ( 15.00000000000000000, 33.00000000000000000, 4.500000000000000000 ) ) ;
#266 = PRODUCT_DEFINITION_SHAPE ( 'NONE', 'NONE',  #141 ) ;
#267 = EDGE_LOOP ( 'NONE', ( #71, #353 ) ) ;
#268 = LINE ( 'NONE', #137, #292 ) ;
#269 = EDGE_LOOP ( 'NONE', ( #229, #537, #298, #296 ) ) ;
#270 = LINE ( 'NONE', #276, #435 ) ;
#271 = CARTESIAN_POINT ( 'NONE',  ( 15.00000000000000000, 33.00000000000000000, -4.500000000000000000 ) ) ;
#272 = EDGE_CURVE ( 'NONE', #304, #526, #371, .T. ) ;
#273 = ORIENTED_EDGE ( 'NONE', *, *, #34, .F. ) ;
#274 = PLANE ( 'NONE',  #282 ) ;
#275 = EDGE_LOOP ( 'NONE', ( #201, #185, #227, #117 ) ) ;
#276 = CARTESIAN_POINT ( 'NONE',  ( 0.000000000000000000, 32.26340000000000430, 4.500000000000000000 ) ) ;
#277 = DIRECTION ( 'NONE',  ( 0.000000000000000000, 0.000000000000000000, 1.000000000000000000 ) ) ;
#278 = VERTEX_POINT ( 'NONE', #172 ) ;
#279 = PRODUCT_CONTEXT ( 'NONE', #332, 'mechanical' ) ;
#280 = FACE_OUTER_BOUND ( 'NONE', #39, .T. ) ;
#281 = ORIENTED_EDGE ( 'NONE', *, *, #498, .F. ) ;
#282 = AXIS2_PLACEMENT_3D ( 'NONE', #444, #533, #116 ) ;
#283 = DIRECTION ( 'NONE',  ( -1.000000000000000000, 0.000000000000000000, 0.000000000000000000 ) ) ;
#284 = ORIENTED_EDGE ( 'NONE', *, *, #256, .F. ) ;
#285 = CARTESIAN_POINT ( 'NONE',  ( 2.736600000000000144, 35.00000000000000000, 4.500000000000000000 ) ) ;
#286 = EDGE_CURVE ( 'NONE', #114, #431, #104, .T. ) ;
#287 = ORIENTED_EDGE ( 'NONE', *, *, #419, .T. ) ;
#288 = CARTESIAN_POINT ( 'NONE',  ( 0.000000000000000000, 35.00000000000000000, -4.500000000000000000 ) ) ;
#289 = ORIENTED_EDGE ( 'NONE', *, *, #479, .T. ) ;
#290 = MECHANICAL_DESIGN_GEOMETRIC_PRESENTATION_REPRESENTATION (  '', ( #517 ), #538 ) ;
#291 = CIRCLE ( 'NONE', #466, 1.499999999999999778 ) ;
#292 = VECTOR ( 'NONE', #427, 1000.000000000000000 ) ;
#293 = CARTESIAN_POINT ( 'NONE',  ( 15.00000000000000000, 35.00000000000000000, 4.500000000000000000 ) ) ;
#294 = CARTESIAN_POINT ( 'NONE',  ( 2.000000000000000000, 4.751818219635827845, -3.999999999999998224 ) ) ;
#295 = LINE ( 'NONE', #459, #202 ) ;
#296 = ORIENTED_EDGE ( 'NONE', *, *, #68, .F. ) ;
#297 = DIRECTION ( 'NONE',  ( -0.000000000000000000, -0.000000000000000000, -1.000000000000000000 ) ) ;
#298 = ORIENTED_EDGE ( 'NONE', *, *, #412, .F. ) ;
#299 = DIRECTION ( 'NONE',  ( -0.000000000000000000, -0.000000000000000000, -1.000000000000000000 ) ) ;
#300 = AXIS2_PLACEMENT_3D ( 'NONE', #301, #127, #171 ) ;
#301 = CARTESIAN_POINT ( 'NONE',  ( 10.00000000000000000, 4.751818219635827845, 2.500000000000001332 ) ) ;
#302 = CARTESIAN_POINT ( 'NONE',  ( 0.000000000000000000, 35.00000000000000000, 4.500000000000000000 ) ) ;
#303 = ADVANCED_FACE ( 'NONE', ( #333, #453, #247 ), #85, .F. ) ;
#304 = VERTEX_POINT ( 'NONE', #40 ) ;
#305 = ADVANCED_FACE ( 'NONE', ( #373, #455, #504 ), #252, .T. ) ;
#306 = FACE_OUTER_BOUND ( 'NONE', #334, .T. ) ;
#307 = DIRECTION ( 'NONE',  ( 0.000000000000000000, 1.000000000000000000, 0.000000000000000000 ) ) ;
#308 = VECTOR ( 'NONE', #237, 1000.000000000000000 ) ;
#309 = AXIS2_PLACEMENT_3D ( 'NONE', #546, #506, #128 ) ;
#310 = CARTESIAN_POINT ( 'NONE',  ( 2.736600000000000144, 32.26340000000000430, 4.500000000000000000 ) ) ;
#311 = EDGE_LOOP ( 'NONE', ( #417, #213, #374, #122 ) ) ;
#312 = DIRECTION ( 'NONE',  ( 0.000000000000000000, 0.000000000000000000, 1.000000000000000000 ) ) ;
#313 = EDGE_LOOP ( 'NONE', ( #411, #454, #61, #103 ) ) ;
#314 = CYLINDRICAL_SURFACE ( 'NONE', #379, 1.499999999999999778 ) ;
#315 = VECTOR ( 'NONE', #11, 1000.000000000000000 ) ;
#316 = VERTEX_POINT ( 'NONE', #501 ) ;
#317 = DIRECTION ( 'NONE',  ( -1.000000000000000000, 0.000000000000000000, 0.000000000000000000 ) ) ;
#318 = EDGE_CURVE ( 'NONE', #361, #248, #543, .T. ) ;
#319 = ADVANCED_BREP_SHAPE_REPRESENTATION ( '翻土', ( #98, #168 ), #483 ) ;
#320 = ORIENTED_EDGE ( 'NONE', *, *, #544, .T. ) ;
#321 = EDGE_CURVE ( 'NONE', #445, #361, #123, .T. ) ;
#322 = CARTESIAN_POINT ( 'NONE',  ( 2.736600000000000144, 33.00000000000000000, 4.500000000000000000 ) ) ;
#323 = EDGE_LOOP ( 'NONE', ( #456, #395 ) ) ;
#324 = DIRECTION ( 'NONE',  ( -0.000000000000000000, -0.000000000000000000, -1.000000000000000000 ) ) ;
#325 =( LENGTH_UNIT ( ) NAMED_UNIT ( * ) SI_UNIT ( .MILLI., .METRE. ) );
#326 = ORIENTED_EDGE ( 'NONE', *, *, #107, .F. ) ;
#327 = AXIS2_PLACEMENT_3D ( 'NONE', #205, #420, #497 ) ;
#328 = DIRECTION ( 'NONE',  ( 0.000000000000000000, 0.000000000000000000, 1.000000000000000000 ) ) ;
#329 = ORIENTED_EDGE ( 'NONE', *, *, #438, .F. ) ;
#330 = CARTESIAN_POINT ( 'NONE',  ( 2.000000000000000000, 0.000000000000000000, 4.500000000000000000 ) ) ;
#331 = ORIENTED_EDGE ( 'NONE', *, *, #166, .T. ) ;
#332 = APPLICATION_CONTEXT ( 'automotive_design' ) ;
#333 = FACE_BOUND ( 'NONE', #323, .T. ) ;
#334 = EDGE_LOOP ( 'NONE', ( #183, #231, #111, #398 ) ) ;
#335 = AXIS2_PLACEMENT_3D ( 'NONE', #511, #219, #57 ) ;
#336 = CARTESIAN_POINT ( 'NONE',  ( 2.000000000000000000, 32.26340000000000430, 4.500000000000000000 ) ) ;
#337 = DIRECTION ( 'NONE',  ( 1.000000000000000000, 0.000000000000000000, -0.000000000000000000 ) ) ;
#338 = ADVANCED_FACE ( 'NONE', ( #126 ), #38, .T. ) ;
#339 = FACE_OUTER_BOUND ( 'NONE', #275, .T. ) ;
#340 = CYLINDRICAL_SURFACE ( 'NONE', #436, 0.7366000000000000325 ) ;
#341 = PLANE ( 'NONE',  #212 ) ;
#342 = LINE ( 'NONE', #378, #315 ) ;
#343 = DIRECTION ( 'NONE',  ( -0.000000000000000000, -0.000000000000000000, -1.000000000000000000 ) ) ;
#344 = AXIS2_PLACEMENT_3D ( 'NONE', #200, #381, #328 ) ;
#345 = EDGE_CURVE ( 'NONE', #1, #167, #377, .T. ) ;
#346 = DIRECTION ( 'NONE',  ( -1.000000000000000000, 0.000000000000000000, 0.000000000000000000 ) ) ;
#347 = DIRECTION ( 'NONE',  ( 1.000000000000000000, 0.000000000000000000, 0.000000000000000000 ) ) ;
#348 = EDGE_CURVE ( 'NONE', #244, #99, #295, .T. ) ;
#349 = CARTESIAN_POINT ( 'NONE',  ( 0.000000000000000000, 0.000000000000000000, 4.500000000000000000 ) ) ;
#350 = DIRECTION ( 'NONE',  ( 1.000000000000000000, 0.000000000000000000, -0.000000000000000000 ) ) ;
#351 = VECTOR ( 'NONE', #207, 1000.000000000000000 ) ;
#352 = FILL_AREA_STYLE_COLOUR ( '', #149 ) ;
#353 = ORIENTED_EDGE ( 'NONE', *, *, #51, .F. ) ;
#354 = CARTESIAN_POINT ( 'NONE',  ( 2.736600000000000144, 33.00000000000000000, 4.500000000000000000 ) ) ;
#355 = ORIENTED_EDGE ( 'NONE', *, *, #458, .T. ) ;
#356 =( LENGTH_UNIT ( ) NAMED_UNIT ( * ) SI_UNIT ( .MILLI., .METRE. ) );
#357 = EDGE_CURVE ( 'NONE', #431, #167, #121, .T. ) ;
#358 = FACE_OUTER_BOUND ( 'NONE', #313, .T. ) ;
#359 =( GEOMETRIC_REPRESENTATION_CONTEXT ( 3 ) GLOBAL_UNCERTAINTY_ASSIGNED_CONTEXT ( ( #82 ) ) GLOBAL_UNIT_ASSIGNED_CONTEXT ( ( #325, #480, #536 ) ) REPRESENTATION_CONTEXT ( 'NONE', 'WORKASPACE' ) );
#360 = CIRCLE ( 'NONE', #124, 0.7366000000000000325 ) ;
#361 = VERTEX_POINT ( 'NONE', #336 ) ;
#362 = DIRECTION ( 'NONE',  ( 0.000000000000000000, 0.000000000000000000, 1.000000000000000000 ) ) ;
#363 = FACE_OUTER_BOUND ( 'NONE', #269, .T. ) ;
#364 = ORIENTED_EDGE ( 'NONE', *, *, #68, .T. ) ;
#365 = DIRECTION ( 'NONE',  ( 1.000000000000000000, 0.000000000000000000, -0.000000000000000000 ) ) ;
#366 = EDGE_CURVE ( 'NONE', #406, #108, #450, .T. ) ;
#367 = EDGE_LOOP ( 'NONE', ( #320, #273, #402, #509 ) ) ;
#368 = CARTESIAN_POINT ( 'NONE',  ( 0.000000000000000000, 35.00000000000000000, 4.500000000000000000 ) ) ;
#369 = VECTOR ( 'NONE', #194, 1000.000000000000000 ) ;
#370 = ORIENTED_EDGE ( 'NONE', *, *, #515, .F. ) ;
#371 = CIRCLE ( 'NONE', #255, 1.499999999999996225 ) ;
#372 = ADVANCED_FACE ( 'NONE', ( #339 ), #249, .T. ) ;
#373 = FACE_OUTER_BOUND ( 'NONE', #241, .T. ) ;
#374 = ORIENTED_EDGE ( 'NONE', *, *, #165, .F. ) ;
#375 = DIRECTION ( 'NONE',  ( -1.000000000000000000, 0.000000000000000000, 0.000000000000000000 ) ) ;
#376 = ORIENTED_EDGE ( 'NONE', *, *, #22, .T. ) ;
#377 = LINE ( 'NONE', #293, #540 ) ;
#378 = CARTESIAN_POINT ( 'NONE',  ( 2.000000000000000000, 32.26340000000000430, 4.500000000000000000 ) ) ;
#379 = AXIS2_PLACEMENT_3D ( 'NONE', #75, #492, #312 ) ;
#380 = VECTOR ( 'NONE', #539, 1000.000000000000000 ) ;
#381 = DIRECTION ( 'NONE',  ( -1.000000000000000000, 0.000000000000000000, 0.000000000000000000 ) ) ;
#382 = DIRECTION ( 'NONE',  ( -1.000000000000000000, -0.000000000000000000, -0.000000000000000000 ) ) ;
#383 = DIRECTION ( 'NONE',  ( 0.000000000000000000, 1.000000000000000000, 0.000000000000000000 ) ) ;
#384 = CARTESIAN_POINT ( 'NONE',  ( 10.00000000000000000, 4.751818219635827845, 2.500000000000001332 ) ) ;
#385 = EDGE_CURVE ( 'NONE', #27, #1, #464, .T. ) ;
#386 = LINE ( 'NONE', #136, #447 ) ;
#387 = CYLINDRICAL_SURFACE ( 'NONE', #62, 2.736600000000000144 ) ;
#388 = LINE ( 'NONE', #215, #95 ) ;
#389 = VECTOR ( 'NONE', #26, 1000.000000000000000 ) ;
#390 = EDGE_LOOP ( 'NONE', ( #143, #370, #157, #441 ) ) ;
#391 = PLANE ( 'NONE',  #527 ) ;
#392 = DIRECTION ( 'NONE',  ( -0.000000000000000000, -0.000000000000000000, -1.000000000000000000 ) ) ;
#393 = ORIENTED_EDGE ( 'NONE', *, *, #499, .F. ) ;
#394 = AXIS2_PLACEMENT_3D ( 'NONE', #525, #233, #283 ) ;
#395 = ORIENTED_EDGE ( 'NONE', *, *, #251, .T. ) ;
#396 =( NAMED_UNIT ( * ) PLANE_ANGLE_UNIT ( ) SI_UNIT ( $, .RADIAN. ) );
#397 = CARTESIAN_POINT ( 'NONE',  ( 15.00000000000000000, 35.00000000000000000, -4.500000000000000000 ) ) ;
#398 = ORIENTED_EDGE ( 'NONE', *, *, #199, .T. ) ;
#399 = EDGE_CURVE ( 'NONE', #248, #27, #264, .T. ) ;
#400 = SHAPE_DEFINITION_REPRESENTATION ( #266, #319 ) ;
#401 = CARTESIAN_POINT ( 'NONE',  ( 15.00000000000000000, 33.00000000000000000, 4.500000000000000000 ) ) ;
#402 = ORIENTED_EDGE ( 'NONE', *, *, #321, .F. ) ;
#403 = DIRECTION ( 'NONE',  ( 1.000000000000000000, 0.000000000000000000, -0.000000000000000000 ) ) ;
#404 = CIRCLE ( 'NONE', #151, 1.499999999999999778 ) ;
#405 = AXIS2_PLACEMENT_3D ( 'NONE', #310, #131, #174 ) ;
#406 = VERTEX_POINT ( 'NONE', #513 ) ;
#407 = APPLICATION_PROTOCOL_DEFINITION ( 'draft international standard', 'automotive_design', 1998, #332 ) ;
#408 = CARTESIAN_POINT ( 'NONE',  ( 0.000000000000000000, 32.26340000000000430, 4.500000000000000000 ) ) ;
#409 = EDGE_LOOP ( 'NONE', ( #329, #175, #364, #452 ) ) ;
#410 = CARTESIAN_POINT ( 'NONE',  ( 2.736600000000000144, 33.00000000000000000, -4.500000000000000000 ) ) ;
#411 = ORIENTED_EDGE ( 'NONE', *, *, #385, .F. ) ;
#412 = EDGE_CURVE ( 'NONE', #83, #518, #96, .T. ) ;
#413 = CARTESIAN_POINT ( 'NONE',  ( 0.000000000000000000, 0.000000000000000000, 4.500000000000000000 ) ) ;
#414 = ORIENTED_EDGE ( 'NONE', *, *, #286, .F. ) ;
#415 = VECTOR ( 'NONE', #169, 1000.000000000000000 ) ;
#416 = DIRECTION ( 'NONE',  ( -1.000000000000000000, -0.000000000000000000, 0.000000000000000000 ) ) ;
#417 = ORIENTED_EDGE ( 'NONE', *, *, #433, .F. ) ;
#418 = DIRECTION ( 'NONE',  ( 0.000000000000000000, 0.000000000000000000, 1.000000000000000000 ) ) ;
#419 = EDGE_CURVE ( 'NONE', #198, #99, #508, .T. ) ;
#420 = DIRECTION ( 'NONE',  ( 0.000000000000000000, 0.000000000000000000, 1.000000000000000000 ) ) ;
#421 = CARTESIAN_POINT ( 'NONE',  ( 15.00000000000000000, 35.00000000000000000, 4.500000000000000000 ) ) ;
#422 = CARTESIAN_POINT ( 'NONE',  ( 2.000000000000000000, 4.751818219635827845, 2.500000000000001332 ) ) ;
#423 = EDGE_CURVE ( 'NONE', #316, #32, #432, .T. ) ;
#424 = ORIENTED_EDGE ( 'NONE', *, *, #345, .F. ) ;
#425 = PLANE ( 'NONE',  #475 ) ;
#426 = CARTESIAN_POINT ( 'NONE',  ( 2.736600000000000144, 32.26340000000000430, 4.500000000000000000 ) ) ;
#427 = DIRECTION ( 'NONE',  ( -1.000000000000000000, -0.000000000000000000, -0.000000000000000000 ) ) ;
#428 = SURFACE_STYLE_USAGE ( .BOTH. , #84 ) ;
#429 = LINE ( 'NONE', #59, #221 ) ;
#430 = CIRCLE ( 'NONE', #193, 0.7366000000000000325 ) ;
#431 = VERTEX_POINT ( 'NONE', #52 ) ;
#432 = LINE ( 'NONE', #349, #235 ) ;
#433 = EDGE_CURVE ( 'NONE', #114, #278, #92, .T. ) ;
#434 = ORIENTED_EDGE ( 'NONE', *, *, #423, .T. ) ;
#435 = VECTOR ( 'NONE', #324, 1000.000000000000000 ) ;
#436 = AXIS2_PLACEMENT_3D ( 'NONE', #208, #462, #346 ) ;
#437 = ADVANCED_FACE ( 'NONE', ( #467 ), #425, .T. ) ;
#438 = EDGE_CURVE ( 'NONE', #37, #518, #429, .T. ) ;
#439 = DIRECTION ( 'NONE',  ( 1.000000000000000000, 0.000000000000000000, 0.000000000000000000 ) ) ;
#440 = CARTESIAN_POINT ( 'NONE',  ( 0.000000000000000000, 4.751818219635827845, -2.499999999999998668 ) ) ;
#441 = ORIENTED_EDGE ( 'NONE', *, *, #345, .T. ) ;
#442 = ADVANCED_FACE ( 'NONE', ( #142 ), #263, .F. ) ;
#443 = SURFACE_STYLE_FILL_AREA ( #446 ) ;
#444 = CARTESIAN_POINT ( 'NONE',  ( 15.00000000000000000, 35.00000000000000000, 4.500000000000000000 ) ) ;
#445 = VERTEX_POINT ( 'NONE', #516 ) ;
#446 = FILL_AREA_STYLE ('',( #352 ) ) ;
#447 = VECTOR ( 'NONE', #10, 1000.000000000000000 ) ;
#448 = PLANE ( 'NONE',  #394 ) ;
#449 = CIRCLE ( 'NONE', #192, 1.499999999999996225 ) ;
#450 = CIRCLE ( 'NONE', #73, 1.499999999999996225 ) ;
#451 = CARTESIAN_POINT ( 'NONE',  ( 2.000000000000000000, 0.000000000000000000, 4.500000000000000000 ) ) ;
#452 = ORIENTED_EDGE ( 'NONE', *, *, #166, .F. ) ;
#453 = FACE_OUTER_BOUND ( 'NONE', #367, .T. ) ;
#454 = ORIENTED_EDGE ( 'NONE', *, *, #262, .T. ) ;
#455 = FACE_BOUND ( 'NONE', #17, .T. ) ;
#456 = ORIENTED_EDGE ( 'NONE', *, *, #272, .T. ) ;
#457 = VECTOR ( 'NONE', #487, 1000.000000000000000 ) ;
#458 = EDGE_CURVE ( 'NONE', #167, #99, #8, .T. ) ;
#459 = CARTESIAN_POINT ( 'NONE',  ( 0.000000000000000000, 33.00000000000000000, -4.500000000000000000 ) ) ;
#460 = DIRECTION ( 'NONE',  ( 0.000000000000000000, 0.000000000000000000, 1.000000000000000000 ) ) ;
#461 = DIRECTION ( 'NONE',  ( 0.000000000000000000, 0.000000000000000000, 1.000000000000000000 ) ) ;
#462 = DIRECTION ( 'NONE',  ( -0.000000000000000000, -0.000000000000000000, -1.000000000000000000 ) ) ;
#463 = ADVANCED_FACE ( 'NONE', ( #134 ), #341, .T. ) ;
#464 = LINE ( 'NONE', #368, #380 ) ;
#465 = PLANE ( 'NONE',  #220 ) ;
#466 = AXIS2_PLACEMENT_3D ( 'NONE', #70, #403, #190 ) ;
#467 = FACE_OUTER_BOUND ( 'NONE', #390, .T. ) ;
#468 = EDGE_CURVE ( 'NONE', #526, #406, #476, .T. ) ;
#469 = ORIENTED_EDGE ( 'NONE', *, *, #366, .T. ) ;
#470 = DIRECTION ( 'NONE',  ( -1.000000000000000000, -0.000000000000000000, -0.000000000000000000 ) ) ;
#471 = LINE ( 'NONE', #421, #528 ) ;
#472 = CARTESIAN_POINT ( 'NONE',  ( 2.736600000000000144, 32.26340000000000430, 4.500000000000000000 ) ) ;
#473 = VECTOR ( 'NONE', #439, 1000.000000000000000 ) ;
#474 = DIRECTION ( 'NONE',  ( 0.000000000000000000, -0.000000000000000000, 1.000000000000000000 ) ) ;
#475 = AXIS2_PLACEMENT_3D ( 'NONE', #302, #90, #260 ) ;
#476 = LINE ( 'NONE', #176, #530 ) ;
#477 = VERTEX_POINT ( 'NONE', #100 ) ;
#478 = LINE ( 'NONE', #109, #54 ) ;
#479 = EDGE_CURVE ( 'NONE', #304, #108, #268, .T. ) ;
#480 =( NAMED_UNIT ( * ) PLANE_ANGLE_UNIT ( ) SI_UNIT ( $, .RADIAN. ) );
#481 = ORIENTED_EDGE ( 'NONE', *, *, #366, .F. ) ;
#482 =( NAMED_UNIT ( * ) SI_UNIT ( $, .STERADIAN. ) SOLID_ANGLE_UNIT ( ) );
#483 =( GEOMETRIC_REPRESENTATION_CONTEXT ( 3 ) GLOBAL_UNCERTAINTY_ASSIGNED_CONTEXT ( ( #76 ) ) GLOBAL_UNIT_ASSIGNED_CONTEXT ( ( #356, #187, #112 ) ) REPRESENTATION_CONTEXT ( 'NONE', 'WORKASPACE' ) );
#484 = LINE ( 'NONE', #240, #485 ) ;
#485 = VECTOR ( 'NONE', #113, 1000.000000000000000 ) ;
#486 = ORIENTED_EDGE ( 'NONE', *, *, #148, .F. ) ;
#487 = DIRECTION ( 'NONE',  ( -1.000000000000000000, 0.000000000000000000, 0.000000000000000000 ) ) ;
#488 = EDGE_LOOP ( 'NONE', ( #541, #545, #469, #21 ) ) ;
#489 = ORIENTED_EDGE ( 'NONE', *, *, #542, .T. ) ;
#490 = CARTESIAN_POINT ( 'NONE',  ( 0.000000000000000000, 0.000000000000000000, 0.000000000000000000 ) ) ;
#491 = EDGE_CURVE ( 'NONE', #278, #244, #360, .T. ) ;
#492 = DIRECTION ( 'NONE',  ( -1.000000000000000000, -0.000000000000000000, -0.000000000000000000 ) ) ;
#493 = AXIS2_PLACEMENT_3D ( 'NONE', #154, #72, #365 ) ;
#494 = ORIENTED_EDGE ( 'NONE', *, *, #399, .F. ) ;
#495 = CARTESIAN_POINT ( 'NONE',  ( 2.736600000000000144, 32.26340000000000430, -4.500000000000000000 ) ) ;
#496 = ORIENTED_EDGE ( 'NONE', *, *, #357, .T. ) ;
#497 = DIRECTION ( 'NONE',  ( 1.000000000000000000, 0.000000000000000000, -0.000000000000000000 ) ) ;
#498 = EDGE_CURVE ( 'NONE', #361, #534, #430, .T. ) ;
#499 = EDGE_CURVE ( 'NONE', #32, #114, #388, .T. ) ;
#500 = ORIENTED_EDGE ( 'NONE', *, *, #458, .F. ) ;
#501 = CARTESIAN_POINT ( 'NONE',  ( 0.000000000000000000, 0.000000000000000000, 4.500000000000000000 ) ) ;
#502 = PRESENTATION_LAYER_ASSIGNMENT (  '', '', ( #138 ) ) ;
#503 = PRESENTATION_STYLE_ASSIGNMENT (( #428 ) ) ;
#504 = FACE_BOUND ( 'NONE', #86, .T. ) ;
#505 = DIRECTION ( 'NONE',  ( -1.000000000000000000, 0.000000000000000000, 0.000000000000000000 ) ) ;
#506 = DIRECTION ( 'NONE',  ( -0.000000000000000000, 0.000000000000000000, -1.000000000000000000 ) ) ;
#507 = ORIENTED_EDGE ( 'NONE', *, *, #318, .F. ) ;
#508 = LINE ( 'NONE', #265, #170 ) ;
#509 = ORIENTED_EDGE ( 'NONE', *, *, #107, .T. ) ;
#510 = AXIS2_PLACEMENT_3D ( 'NONE', #384, #382, #129 ) ;
#511 = CARTESIAN_POINT ( 'NONE',  ( 0.000000000000000000, 4.751818219635827845, -2.499999999999998668 ) ) ;
#512 = FILL_AREA_STYLE_COLOUR ( '', #178 ) ;
#513 = CARTESIAN_POINT ( 'NONE',  ( 0.000000000000000000, 4.751818219635827845, 1.000000000000005551 ) ) ;
#514 = CARTESIAN_POINT ( 'NONE',  ( 0.000000000000000000, 4.751818219635827845, 3.999999999999997335 ) ) ;
#515 = EDGE_CURVE ( 'NONE', #27, #431, #386, .T. ) ;
#516 = CARTESIAN_POINT ( 'NONE',  ( 2.000000000000000000, 0.000000000000000000, 4.500000000000000000 ) ) ;
#517 = STYLED_ITEM ( 'NONE', ( #25 ), #319 ) ;
#518 = VERTEX_POINT ( 'NONE', #182 ) ;
#519 = CIRCLE ( 'NONE', #12, 1.499999999999999778 ) ;
#520 = DIRECTION ( 'NONE',  ( 0.000000000000000000, 0.000000000000000000, 1.000000000000000000 ) ) ;
#521 = ADVANCED_FACE ( 'NONE', ( #306 ), #391, .F. ) ;
#522 = ORIENTED_EDGE ( 'NONE', *, *, #412, .T. ) ;
#523 =( LENGTH_UNIT ( ) NAMED_UNIT ( * ) SI_UNIT ( .MILLI., .METRE. ) );
#524 = EDGE_CURVE ( 'NONE', #534, #198, #28, .T. ) ;
#525 = CARTESIAN_POINT ( 'NONE',  ( 0.000000000000000000, 32.26340000000000430, -4.500000000000000000 ) ) ;
#526 = VERTEX_POINT ( 'NONE', #63 ) ;
#527 = AXIS2_PLACEMENT_3D ( 'NONE', #16, #307, #474 ) ;
#528 = VECTOR ( 'NONE', #135, 1000.000000000000000 ) ;
#529 = CARTESIAN_POINT ( 'NONE',  ( 10.00000000000000000, 4.751818219635827845, -2.499999999999998668 ) ) ;
#530 = VECTOR ( 'NONE', #180, 1000.000000000000000 ) ;
#531 = ORIENTED_EDGE ( 'NONE', *, *, #542, .F. ) ;
#532 = DIRECTION ( 'NONE',  ( 1.000000000000000000, 0.000000000000000000, 0.000000000000000000 ) ) ;
#533 = DIRECTION ( 'NONE',  ( 1.000000000000000000, 0.000000000000000000, -0.000000000000000000 ) ) ;
#534 = VERTEX_POINT ( 'NONE', #354 ) ;
#535 = EDGE_CURVE ( 'NONE', #58, #32, #478, .T. ) ;
#536 =( NAMED_UNIT ( * ) SI_UNIT ( $, .STERADIAN. ) SOLID_ANGLE_UNIT ( ) );
#537 = ORIENTED_EDGE ( 'NONE', *, *, #438, .T. ) ;
#538 =( GEOMETRIC_REPRESENTATION_CONTEXT ( 3 ) GLOBAL_UNCERTAINTY_ASSIGNED_CONTEXT ( ( #243 ) ) GLOBAL_UNIT_ASSIGNED_CONTEXT ( ( #523, #396, #482 ) ) REPRESENTATION_CONTEXT ( 'NONE', 'WORKASPACE' ) );
#539 = DIRECTION ( 'NONE',  ( 1.000000000000000000, 0.000000000000000000, 0.000000000000000000 ) ) ;
#540 = VECTOR ( 'NONE', #6, 1000.000000000000000 ) ;
#541 = ORIENTED_EDGE ( 'NONE', *, *, #251, .F. ) ;
#542 = EDGE_CURVE ( 'NONE', #248, #114, #270, .T. ) ;
#543 = LINE ( 'NONE', #162, #228 ) ;
#544 = EDGE_CURVE ( 'NONE', #58, #278, #105, .T. ) ;
#545 = ORIENTED_EDGE ( 'NONE', *, *, #468, .T. ) ;
#546 = CARTESIAN_POINT ( 'NONE',  ( 2.736600000000000144, 33.00000000000000000, -4.500000000000000000 ) ) ;
ENDSEC;
END-ISO-10303-21;
