ISO-10303-21;
HEADER;
FILE_DESCRIPTION (( 'STEP AP214' ),
    '1' );
FILE_NAME ('负重轮座.step',
    '2023-08-15T03:04:17',
    ( '' ),
    ( '' ),
    'SwSTEP 2.0',
    'SolidWorks 2022',
    '' );
FILE_SCHEMA (( 'AUTOMOTIVE_DESIGN' ));
ENDSEC;

DATA;
#1 = ORIENTED_EDGE ( 'NONE', *, *, #530, .T. ) ;
#2 = CYLINDRICAL_SURFACE ( 'NONE', #84, 5.000000000000000000 ) ;
#3 = DIRECTION ( 'NONE',  ( 0.6644630243886755494, 0.2418447626479709733, -0.7071067811865482389 ) ) ;
#4 = ORIENTED_EDGE ( 'NONE', *, *, #111, .F. ) ;
#5 = PRODUCT ( '负重轮座', '负重轮座', '', ( #444 ) ) ;
#6 = EDGE_CURVE ( 'NONE', #508, #131, #614, .T. ) ;
#7 = FACE_OUTER_BOUND ( 'NONE', #426, .T. ) ;
#8 = VECTOR ( 'NONE', #388, 1000.000000000000000 ) ;
#9 = ORIENTED_EDGE ( 'NONE', *, *, #87, .T. ) ;
#10 = APPLICATION_PROTOCOL_DEFINITION ( 'draft international standard', 'automotive_design', 1998, #547 ) ;
#11 = CARTESIAN_POINT ( 'NONE',  ( 15.76006652245430217, -27.77485563844210503, 0.6666666666666689611 ) ) ;
#12 = EDGE_CURVE ( 'NONE', #24, #202, #568, .T. ) ;
#13 = EDGE_LOOP ( 'NONE', ( #654, #85, #263, #438, #521, #214, #306, #645 ) ) ;
#14 = CARTESIAN_POINT ( 'NONE',  ( 9.999999999999996447, -9.999999999999996447, 1.000000000000000888 ) ) ;
#15 = EDGE_CURVE ( 'NONE', #691, #310, #450, .T. ) ;
#16 = PRODUCT_DEFINITION_CONTEXT ( 'detailed design', #547, 'design' ) ;
#17 = VERTEX_POINT ( 'NONE', #78 ) ;
#18 = DIRECTION ( 'NONE',  ( -0.3420201433256631063, 0.9396926207859104263, 0.000000000000000000 ) ) ;
#19 = AXIS2_PLACEMENT_3D ( 'NONE', #159, #432, #486 ) ;
#20 = DIRECTION ( 'NONE',  ( 0.7399972093835983644, -0.3450663657489078107, -0.5773502691896210681 ) ) ;
#21 =( NAMED_UNIT ( * ) SI_UNIT ( $, .STERADIAN. ) SOLID_ANGLE_UNIT ( ) );
#22 = VERTEX_POINT ( 'NONE', #293 ) ;
#23 = DIRECTION ( 'NONE',  ( -0.3420201433256631618, 0.9396926207859104263, 0.000000000000000000 ) ) ;
#24 = VERTEX_POINT ( 'NONE', #618 ) ;
#25 = CARTESIAN_POINT ( 'NONE',  ( -9.000000000000008882, 10.00000000000000355, 20.00000000000000000 ) ) ;
#26 = EDGE_CURVE ( 'NONE', #65, #210, #414, .T. ) ;
#27 = CARTESIAN_POINT ( 'NONE',  ( 15.95929068160771891, -27.34761805040490401, 19.33333333333333570 ) ) ;
#28 = DIRECTION ( 'NONE',  ( 0.3420201433256631063, -0.9396926207859104263, 0.000000000000000000 ) ) ;
#29 = VECTOR ( 'NONE', #397, 1000.000000000000000 ) ;
#30 = LINE ( 'NONE', #407, #631 ) ;
#31 = ORIENTED_EDGE ( 'NONE', *, *, #573, .F. ) ;
#32 = DIRECTION ( 'NONE',  ( 0.7071067811865475727, 0.000000000000000000, -0.7071067811865475727 ) ) ;
#33 = CARTESIAN_POINT ( 'NONE',  ( 9.999999999999996447, 10.00000000000000355, 1.000000000000000888 ) ) ;
#34 = EDGE_CURVE ( 'NONE', #481, #637, #37, .T. ) ;
#35 = ORIENTED_EDGE ( 'NONE', *, *, #236, .T. ) ;
#36 = DIRECTION ( 'NONE',  ( 0.9396926207859104263, 0.3420201433256631618, -0.000000000000000000 ) ) ;
#37 = LINE ( 'NONE', #197, #459 ) ;
#38 = EDGE_CURVE ( 'NONE', #210, #508, #677, .T. ) ;
#39 = ORIENTED_EDGE ( 'NONE', *, *, #172, .F. ) ;
#40 = VECTOR ( 'NONE', #18, 1000.000000000000000 ) ;
#41 = VECTOR ( 'NONE', #610, 1000.000000000000000 ) ;
#42 = LINE ( 'NONE', #485, #653 ) ;
#43 = DIRECTION ( 'NONE',  ( -0.3420201433256631063, 0.9396926207859104263, 0.000000000000000000 ) ) ;
#44 = DIRECTION ( 'NONE',  ( -0.7399972093835963660, 0.3450663657489069225, -0.5773502691896240657 ) ) ;
#45 = VERTEX_POINT ( 'NONE', #201 ) ;
#46 = CARTESIAN_POINT ( 'NONE',  ( -10.00000000000000355, 10.00000000000000355, 20.00000000000000000 ) ) ;
#47 = EDGE_CURVE ( 'NONE', #378, #271, #308, .T. ) ;
#48 = DIRECTION ( 'NONE',  ( 0.000000000000000000, 1.000000000000000000, 0.000000000000000000 ) ) ;
#49 = ORIENTED_EDGE ( 'NONE', *, *, #47, .F. ) ;
#50 = DIRECTION ( 'NONE',  ( -0.3420201433256634949, 0.9396926207859103153, 0.000000000000000000 ) ) ;
#51 = CARTESIAN_POINT ( 'NONE',  ( 15.56084236330088899, -28.20209322647929540, 1.000000000000000888 ) ) ;
#52 = ORIENTED_EDGE ( 'NONE', *, *, #60, .F. ) ;
#53 = DIRECTION ( 'NONE',  ( 0.7399972093835952558, -0.3450663657489063674, 0.5773502691896258421 ) ) ;
#54 =( GEOMETRIC_REPRESENTATION_CONTEXT ( 3 ) GLOBAL_UNCERTAINTY_ASSIGNED_CONTEXT ( ( #558 ) ) GLOBAL_UNIT_ASSIGNED_CONTEXT ( ( #73, #222, #66 ) ) REPRESENTATION_CONTEXT ( 'NONE', 'WORKASPACE' ) );
#55 = CARTESIAN_POINT ( 'NONE',  ( 14.96036820867171357, -23.62849964550636628, 10.00000000000000000 ) ) ;
#56 = ORIENTED_EDGE ( 'NONE', *, *, #323, .F. ) ;
#57 = LINE ( 'NONE', #219, #381 ) ;
#58 = DIRECTION ( 'NONE',  ( -0.6644630243886731069, -0.2418447626479700852, -0.7071067811865509034 ) ) ;
#59 = ORIENTED_EDGE ( 'NONE', *, *, #273, .F. ) ;
#60 = EDGE_CURVE ( 'NONE', #112, #22, #351, .T. ) ;
#61 = ORIENTED_EDGE ( 'NONE', *, *, #688, .T. ) ;
#62 = DIRECTION ( 'NONE',  ( 0.000000000000000000, -1.000000000000000000, 0.000000000000000000 ) ) ;
#63 = AXIS2_PLACEMENT_3D ( 'NONE', #578, #470, #416 ) ;
#64 = VECTOR ( 'NONE', #624, 1000.000000000000000 ) ;
#65 = VERTEX_POINT ( 'NONE', #299 ) ;
#66 =( NAMED_UNIT ( * ) SI_UNIT ( $, .STERADIAN. ) SOLID_ANGLE_UNIT ( ) );
#67 = LINE ( 'NONE', #449, #382 ) ;
#68 = EDGE_CURVE ( 'NONE', #131, #394, #572, .T. ) ;
#69 = VERTEX_POINT ( 'NONE', #467 ) ;
#70 = DIRECTION ( 'NONE',  ( -0.3420201433256632728, 0.9396926207859103153, 0.000000000000000000 ) ) ;
#71 = CARTESIAN_POINT ( 'NONE',  ( -0.5622369696428025643, -33.00623641590735957, 0.000000000000000000 ) ) ;
#72 = ORIENTED_EDGE ( 'NONE', *, *, #386, .T. ) ;
#73 =( LENGTH_UNIT ( ) NAMED_UNIT ( * ) SI_UNIT ( .MILLI., .METRE. ) );
#74 = CARTESIAN_POINT ( 'NONE',  ( 8.999999999999989342, -9.999999999999996447, 0.000000000000000000 ) ) ;
#75 = AXIS2_PLACEMENT_3D ( 'NONE', #454, #668, #581 ) ;
#76 = EDGE_LOOP ( 'NONE', ( #142, #284, #148, #583 ) ) ;
#77 = FACE_OUTER_BOUND ( 'NONE', #266, .T. ) ;
#78 = CARTESIAN_POINT ( 'NONE',  ( 15.56084236330088899, -28.20209322647929540, 19.00000000000000000 ) ) ;
#79 = EDGE_CURVE ( 'NONE', #115, #182, #460, .T. ) ;
#80 = SURFACE_SIDE_STYLE ('',( #570 ) ) ;
#81 = CARTESIAN_POINT ( 'NONE',  ( 2.584279997671846463, -26.25850900400050136, -5.264617471906078983 ) ) ;
#82 = CARTESIAN_POINT ( 'NONE',  ( -1.501929590428720651, -33.34825655923303600, 1.000000000000000888 ) ) ;
#83 = FACE_OUTER_BOUND ( 'NONE', #478, .T. ) ;
#84 = AXIS2_PLACEMENT_3D ( 'NONE', #376, #146, #696 ) ;
#85 = ORIENTED_EDGE ( 'NONE', *, *, #162, .T. ) ;
#86 = CARTESIAN_POINT ( 'NONE',  ( -1.501929590428724426, -33.34825655923302890, 0.000000000000000000 ) ) ;
#87 = EDGE_CURVE ( 'NONE', #378, #69, #636, .T. ) ;
#88 = FACE_OUTER_BOUND ( 'NONE', #76, .T. ) ;
#89 = ORIENTED_EDGE ( 'NONE', *, *, #617, .T. ) ;
#90 = CARTESIAN_POINT ( 'NONE',  ( -8.999999999999996447, 10.00000000000000355, 0.000000000000000000 ) ) ;
#91 = PLANE ( 'NONE',  #302 ) ;
#92 = EDGE_LOOP ( 'NONE', ( #374, #199, #606, #669, #250 ) ) ;
#93 = LINE ( 'NONE', #475, #369 ) ;
#94 = CARTESIAN_POINT ( 'NONE',  ( -0.2202168263171488949, -33.94592903669327910, 20.00000000000000000 ) ) ;
#95 = VERTEX_POINT ( 'NONE', #255 ) ;
#96 = ADVANCED_FACE ( 'NONE', ( #360 ), #473, .T. ) ;
#97 = VECTOR ( 'NONE', #651, 1000.000000000000114 ) ;
#98 = VECTOR ( 'NONE', #358, 1000.000000000000000 ) ;
#99 = FACE_OUTER_BOUND ( 'NONE', #13, .T. ) ;
#100 = CARTESIAN_POINT ( 'NONE',  ( 15.21882221997521434, -27.26240060569337942, 0.000000000000000000 ) ) ;
#101 = ORIENTED_EDGE ( 'NONE', *, *, #386, .F. ) ;
#102 = DIRECTION ( 'NONE',  ( -0.3450663657489042024, -0.7399972093835971432, -0.5773502691896247319 ) ) ;
#103 = LINE ( 'NONE', #435, #671 ) ;
#104 = VERTEX_POINT ( 'NONE', #144 ) ;
#105 = CARTESIAN_POINT ( 'NONE',  ( 9.999999999999996447, 10.00000000000000355, 19.00000000000000711 ) ) ;
#106 = LINE ( 'NONE', #163, #186 ) ;
#107 = EDGE_LOOP ( 'NONE', ( #357, #487, #529, #335 ) ) ;
#108 = VECTOR ( 'NONE', #500, 1000.000000000000000 ) ;
#109 = CIRCLE ( 'NONE', #424, 5.000000000000000888 ) ;
#110 = DIRECTION ( 'NONE',  ( -0.3420201433256629953, 0.9396926207859104263, 0.000000000000000000 ) ) ;
#111 = EDGE_CURVE ( 'NONE', #104, #657, #262, .T. ) ;
#112 = VERTEX_POINT ( 'NONE', #33 ) ;
#113 = SURFACE_STYLE_USAGE ( .BOTH. , #329 ) ;
#114 = LINE ( 'NONE', #373, #97 ) ;
#115 = VERTEX_POINT ( 'NONE', #190 ) ;
#116 = LINE ( 'NONE', #548, #402 ) ;
#117 = ORIENTED_EDGE ( 'NONE', *, *, #509, .T. ) ;
#118 = FILL_AREA_STYLE_COLOUR ( '', #670 ) ;
#119 = DIRECTION ( 'NONE',  ( 0.7016738431598659176, 0.1237240302064822051, 0.7016738431598610326 ) ) ;
#120 =( GEOMETRIC_REPRESENTATION_CONTEXT ( 3 ) GLOBAL_UNCERTAINTY_ASSIGNED_CONTEXT ( ( #164 ) ) GLOBAL_UNIT_ASSIGNED_CONTEXT ( ( #554, #229, #21 ) ) REPRESENTATION_CONTEXT ( 'NONE', 'WORKASPACE' ) );
#121 = AXIS2_PLACEMENT_3D ( 'NONE', #417, #352, #312 ) ;
#122 = ORIENTED_EDGE ( 'NONE', *, *, #488, .T. ) ;
#123 = LINE ( 'NONE', #74, #129 ) ;
#124 = ORIENTED_EDGE ( 'NONE', *, *, #683, .T. ) ;
#125 = LINE ( 'NONE', #619, #108 ) ;
#126 = EDGE_LOOP ( 'NONE', ( #345, #662, #192, #496 ) ) ;
#127 = LINE ( 'NONE', #189, #590 ) ;
#128 = VECTOR ( 'NONE', #48, 1000.000000000000000 ) ;
#129 = VECTOR ( 'NONE', #616, 1000.000000000000000 ) ;
#130 = ADVANCED_FACE ( 'NONE', ( #83 ), #405, .F. ) ;
#131 = VERTEX_POINT ( 'NONE', #626 ) ;
#132 = FILL_AREA_STYLE_COLOUR ( '', #622 ) ;
#133 = CARTESIAN_POINT ( 'NONE',  ( -1.501929590428723316, -33.34825655923302179, 1.000000000000001554 ) ) ;
#134 = ADVANCED_FACE ( 'NONE', ( #88 ), #91, .F. ) ;
#135 =( LENGTH_UNIT ( ) NAMED_UNIT ( * ) SI_UNIT ( .MILLI., .METRE. ) );
#136 = CARTESIAN_POINT ( 'NONE',  ( 4.676591546376372754, 1.702140120701918002, 20.00000000000000000 ) ) ;
#137 = ORIENTED_EDGE ( 'NONE', *, *, #12, .T. ) ;
#138 = EDGE_CURVE ( 'NONE', #202, #565, #528, .T. ) ;
#139 = LINE ( 'NONE', #185, #527 ) ;
#140 = DIRECTION ( 'NONE',  ( -0.7016738431598632530, -0.1237240302064853692, -0.7016738431598632530 ) ) ;
#141 = VECTOR ( 'NONE', #692, 1000.000000000000000 ) ;
#142 = ORIENTED_EDGE ( 'NONE', *, *, #15, .T. ) ;
#143 = PLANE ( 'NONE',  #75 ) ;
#144 = CARTESIAN_POINT ( 'NONE',  ( 9.000000000000003553, 10.00000000000000355, 20.00000000000000000 ) ) ;
#145 = EDGE_LOOP ( 'NONE', ( #4, #595, #660, #366 ) ) ;
#146 = DIRECTION ( 'NONE',  ( 0.9396926207859104263, 0.3420201433256631618, -0.000000000000000000 ) ) ;
#147 = DIRECTION ( 'NONE',  ( 0.000000000000000000, 0.000000000000000000, -1.000000000000000000 ) ) ;
#148 = ORIENTED_EDGE ( 'NONE', *, *, #332, .F. ) ;
#149 = CARTESIAN_POINT ( 'NONE',  ( 10.54223067359887267, -28.96454072639529898, 20.00000000000000000 ) ) ;
#150 = LINE ( 'NONE', #532, #603 ) ;
#151 = ADVANCED_FACE ( 'NONE', ( #629 ), #305, .F. ) ;
#152 = ORIENTED_EDGE ( 'NONE', *, *, #530, .F. ) ;
#153 = AXIS2_PLACEMENT_3D ( 'NONE', #664, #181, #396 ) ;
#154 =( NAMED_UNIT ( * ) SI_UNIT ( $, .STERADIAN. ) SOLID_ANGLE_UNIT ( ) );
#155 = VECTOR ( 'NONE', #463, 1000.000000000000000 ) ;
#156 = CARTESIAN_POINT ( 'NONE',  ( 0.000000000000000000, 0.000000000000000000, 20.00000000000000000 ) ) ;
#157 = ORIENTED_EDGE ( 'NONE', *, *, #464, .T. ) ;
#158 = CARTESIAN_POINT ( 'NONE',  ( 16.50053498408679786, -27.86007308315363318, 20.00000000000000000 ) ) ;
#159 = CARTESIAN_POINT ( 'NONE',  ( 9.999999999999996447, -9.999999999999996447, 20.00000000000000000 ) ) ;
#160 = EDGE_LOOP ( 'NONE', ( #101, #608, #611, #39, #474 ) ) ;
#161 = CARTESIAN_POINT ( 'NONE',  ( 9.000000000000003553, 0.000000000000000000, 20.00000000000000000 ) ) ;
#162 = EDGE_CURVE ( 'NONE', #286, #95, #575, .T. ) ;
#163 = CARTESIAN_POINT ( 'NONE',  ( -10.00000000000000355, -9.999999999999996447, 1.000000000000000888 ) ) ;
#164 = UNCERTAINTY_MEASURE_WITH_UNIT (LENGTH_MEASURE( 1.000000000000000082E-05 ), #554, 'distance_accuracy_value', 'NONE');
#165 = EDGE_LOOP ( 'NONE', ( #541, #296, #469, #620 ) ) ;
#166 = AXIS2_PLACEMENT_3D ( 'NONE', #315, #58, #110 ) ;
#167 = CARTESIAN_POINT ( 'NONE',  ( -10.00000000000000355, -9.999999999999996447, 19.00000000000000711 ) ) ;
#168 = EDGE_CURVE ( 'NONE', #637, #65, #30, .T. ) ;
#169 = LINE ( 'NONE', #276, #566 ) ;
#170 = EDGE_LOOP ( 'NONE', ( #328, #695 ) ) ;
#171 = FACE_BOUND ( 'NONE', #418, .T. ) ;
#172 = EDGE_CURVE ( 'NONE', #271, #310, #169, .T. ) ;
#173 = ORIENTED_EDGE ( 'NONE', *, *, #34, .T. ) ;
#174 = FILL_AREA_STYLE ('',( #118 ) ) ;
#175 = ADVANCED_BREP_SHAPE_REPRESENTATION ( '负重轮座', ( #571, #411 ), #120 ) ;
#176 = CARTESIAN_POINT ( 'NONE',  ( 9.999999999999996447, -9.999999999999996447, 1.000000000000000888 ) ) ;
#177 = ORIENTED_EDGE ( 'NONE', *, *, #26, .F. ) ;
#178 = CARTESIAN_POINT ( 'NONE',  ( 16.50053498408679786, -27.86007308315363318, 1.000000000000000888 ) ) ;
#179 = VECTOR ( 'NONE', #314, 1000.000000000000114 ) ;
#180 = VERTEX_POINT ( 'NONE', #268 ) ;
#181 = DIRECTION ( 'NONE',  ( 0.4226182617407073794, 0.9063077870366462729, 0.000000000000000000 ) ) ;
#182 = VERTEX_POINT ( 'NONE', #55 ) ;
#183 = CARTESIAN_POINT ( 'NONE',  ( 8.999999999999989342, -10.17632698070845976, 0.000000000000000000 ) ) ;
#184 = ORIENTED_EDGE ( 'NONE', *, *, #488, .F. ) ;
#185 = CARTESIAN_POINT ( 'NONE',  ( 9.999999999999996447, -9.999999999999996447, 19.00000000000000711 ) ) ;
#186 = VECTOR ( 'NONE', #476, 1000.000000000000000 ) ;
#187 = AXIS2_PLACEMENT_3D ( 'NONE', #457, #628, #466 ) ;
#188 = ORIENTED_EDGE ( 'NONE', *, *, #288, .T. ) ;
#189 = CARTESIAN_POINT ( 'NONE',  ( -1.501929590428720651, -33.34825655923303600, 20.00000000000000000 ) ) ;
#190 = CARTESIAN_POINT ( 'NONE',  ( -2.700076222518146274, -30.05637574237167087, 10.00000000000000000 ) ) ;
#191 = ADVANCED_FACE ( 'NONE', ( #420 ), #639, .F. ) ;
#192 = ORIENTED_EDGE ( 'NONE', *, *, #282, .F. ) ;
#193 = DIRECTION ( 'NONE',  ( 0.000000000000000000, -1.000000000000000000, 0.000000000000000000 ) ) ;
#194 = CARTESIAN_POINT ( 'NONE',  ( 9.000000000000003553, 10.00000000000000355, 20.00000000000000000 ) ) ;
#195 = CARTESIAN_POINT ( 'NONE',  ( -10.00000000000000355, -9.999999999999996447, 20.00000000000000000 ) ) ;
#196 = AXIS2_PLACEMENT_3D ( 'NONE', #596, #638, #687 ) ;
#197 = CARTESIAN_POINT ( 'NONE',  ( -9.000000000000008882, 0.000000000000000000, 20.00000000000000000 ) ) ;
#198 = AXIS2_PLACEMENT_3D ( 'NONE', #195, #510, #239 ) ;
#199 = ORIENTED_EDGE ( 'NONE', *, *, #205, .F. ) ;
#200 = LINE ( 'NONE', #90, #223 ) ;
#201 = CARTESIAN_POINT ( 'NONE',  ( -8.999999999999996447, -9.823673019291527808, 0.000000000000000000 ) ) ;
#202 = VERTEX_POINT ( 'NONE', #217 ) ;
#203 = CARTESIAN_POINT ( 'NONE',  ( 9.000000000000003553, -10.17632698070845265, 20.00000000000000000 ) ) ;
#204 = FACE_OUTER_BOUND ( 'NONE', #700, .T. ) ;
#205 = EDGE_CURVE ( 'NONE', #565, #65, #385, .T. ) ;
#206 = DIRECTION ( 'NONE',  ( 0.000000000000000000, 0.000000000000000000, -1.000000000000000000 ) ) ;
#207 = DIRECTION ( 'NONE',  ( 0.000000000000000000, 0.000000000000000000, 1.000000000000000000 ) ) ;
#208 = CARTESIAN_POINT ( 'NONE',  ( 15.21882221997522322, -27.26240060569338297, 0.000000000000000000 ) ) ;
#209 = EDGE_CURVE ( 'NONE', #180, #218, #150, .T. ) ;
#210 = VERTEX_POINT ( 'NONE', #698 ) ;
#211 = DIRECTION ( 'NONE',  ( 0.000000000000000000, -0.000000000000000000, -1.000000000000000000 ) ) ;
#212 = VECTOR ( 'NONE', #245, 1000.000000000000114 ) ;
#213 = DIRECTION ( 'NONE',  ( 0.9396926207859103153, 0.3420201433256634949, 0.000000000000000000 ) ) ;
#214 = ORIENTED_EDGE ( 'NONE', *, *, #111, .T. ) ;
#215 = ADVANCED_FACE ( 'NONE', ( #204 ), #272, .T. ) ;
#216 = DIRECTION ( 'NONE',  ( -0.000000000000000000, 1.000000000000000000, 0.000000000000000000 ) ) ;
#217 = CARTESIAN_POINT ( 'NONE',  ( -0.8610732083729391029, -33.64709279796314689, 19.50000000000000000 ) ) ;
#218 = VERTEX_POINT ( 'NONE', #51 ) ;
#219 = CARTESIAN_POINT ( 'NONE',  ( 7.381985761664010326, -37.49089432231473040, 6.931284138572720188 ) ) ;
#220 = DIRECTION ( 'NONE',  ( 0.9396926207859106484, 0.3420201433256630508, -0.000000000000000000 ) ) ;
#221 = ORIENTED_EDGE ( 'NONE', *, *, #87, .F. ) ;
#222 =( NAMED_UNIT ( * ) PLANE_ANGLE_UNIT ( ) SI_UNIT ( $, .RADIAN. ) );
#223 = VECTOR ( 'NONE', #251, 1000.000000000000000 ) ;
#224 = DIRECTION ( 'NONE',  ( 0.000000000000000000, -1.000000000000000000, 0.000000000000000000 ) ) ;
#225 = ORIENTED_EDGE ( 'NONE', *, *, #259, .T. ) ;
#226 = CARTESIAN_POINT ( 'NONE',  ( 15.85967860203101054, -27.56123684442350452, 0.4999999999999995559 ) ) ;
#227 = EDGE_CURVE ( 'NONE', #65, #576, #605, .T. ) ;
#228 = ORIENTED_EDGE ( 'NONE', *, *, #403, .T. ) ;
#229 =( NAMED_UNIT ( * ) PLANE_ANGLE_UNIT ( ) SI_UNIT ( $, .RADIAN. ) );
#230 = DIRECTION ( 'NONE',  ( 0.7071067811865451302, 0.000000000000000000, -0.7071067811865500152 ) ) ;
#231 = ORIENTED_EDGE ( 'NONE', *, *, #617, .F. ) ;
#232 = DIRECTION ( 'NONE',  ( 1.000000000000000000, 0.000000000000000000, 0.000000000000000000 ) ) ;
#233 = PLANE ( 'NONE',  #153 ) ;
#234 = CLOSED_SHELL ( 'NONE', ( #550, #134, #656, #564, #318, #609, #269, #309, #663, #625, #130, #468, #96, #455, #591, #215, #364, #569, #646, #151, #540, #191 ) ) ;
#235 = DIRECTION ( 'NONE',  ( -0.7399972093835952558, 0.3450663657489063674, 0.5773502691896258421 ) ) ;
#236 = EDGE_CURVE ( 'NONE', #678, #115, #589, .T. ) ;
#237 = CARTESIAN_POINT ( 'NONE',  ( 9.999999999999996447, -9.999999999999996447, 1.000000000000000888 ) ) ;
#238 = ORIENTED_EDGE ( 'NONE', *, *, #68, .F. ) ;
#239 = DIRECTION ( 'NONE',  ( 0.000000000000000000, 0.000000000000000000, -1.000000000000000000 ) ) ;
#240 = ORIENTED_EDGE ( 'NONE', *, *, #359, .T. ) ;
#241 = CARTESIAN_POINT ( 'NONE',  ( -9.060307379214084023, -9.657979856674330676, 0.000000000000000000 ) ) ;
#242 = STYLED_ITEM ( 'NONE', ( #333 ), #175 ) ;
#243 = EDGE_CURVE ( 'NONE', #104, #481, #103, .T. ) ;
#244 = PRESENTATION_LAYER_ASSIGNMENT (  '', '', ( #506 ) ) ;
#245 = DIRECTION ( 'NONE',  ( 0.7071067811865474617, -0.000000000000000000, -0.7071067811865474617 ) ) ;
#246 = VECTOR ( 'NONE', #579, 1000.000000000000000 ) ;
#247 = ORIENTED_EDGE ( 'NONE', *, *, #297, .T. ) ;
#248 = LINE ( 'NONE', #86, #281 ) ;
#249 = DIRECTION ( 'NONE',  ( -0.9063077870366492705, 0.4226182617407008846, 0.000000000000000000 ) ) ;
#250 = ORIENTED_EDGE ( 'NONE', *, *, #403, .F. ) ;
#251 = DIRECTION ( 'NONE',  ( -0.000000000000000000, 1.000000000000000000, 0.000000000000000000 ) ) ;
#252 = DIRECTION ( 'NONE',  ( -0.3420201433256631063, 0.9396926207859104263, 0.000000000000000000 ) ) ;
#253 = ORIENTED_EDGE ( 'NONE', *, *, #68, .T. ) ;
#254 = DIRECTION ( 'NONE',  ( -0.2418447626479711954, 0.6644630243886751053, -0.7071067811865486830 ) ) ;
#255 = CARTESIAN_POINT ( 'NONE',  ( -10.00000000000000355, 10.00000000000000355, 1.000000000000000888 ) ) ;
#256 = VECTOR ( 'NONE', #601, 1000.000000000000000 ) ;
#257 =( GEOMETRIC_REPRESENTATION_CONTEXT ( 3 ) GLOBAL_UNCERTAINTY_ASSIGNED_CONTEXT ( ( #361 ) ) GLOBAL_UNIT_ASSIGNED_CONTEXT ( ( #135, #482, #154 ) ) REPRESENTATION_CONTEXT ( 'NONE', 'WORKASPACE' ) );
#258 = ORIENTED_EDGE ( 'NONE', *, *, #498, .F. ) ;
#259 = EDGE_CURVE ( 'NONE', #691, #667, #114, .T. ) ;
#260 = PLANE ( 'NONE',  #196 ) ;
#261 = LINE ( 'NONE', #598, #652 ) ;
#262 = LINE ( 'NONE', #194, #212 ) ;
#263 = ORIENTED_EDGE ( 'NONE', *, *, #688, .F. ) ;
#264 = CARTESIAN_POINT ( 'NONE',  ( -9.000000000000008882, -9.823673019291534914, 20.00000000000000000 ) ) ;
#265 = CARTESIAN_POINT ( 'NONE',  ( -4.410176939146460917, -25.35791263844211940, 10.00000000000000000 ) ) ;
#266 = EDGE_LOOP ( 'NONE', ( #152, #430, #117, #387 ) ) ;
#267 = CARTESIAN_POINT ( 'NONE',  ( 15.56084236330088899, -28.20209322647929540, 20.00000000000000000 ) ) ;
#268 = CARTESIAN_POINT ( 'NONE',  ( -0.2202168263171518647, -33.94592903669327910, 1.000000000000000888 ) ) ;
#269 = ADVANCED_FACE ( 'NONE', ( #429, #647 ), #525, .F. ) ;
#270 = MECHANICAL_DESIGN_GEOMETRIC_PRESENTATION_REPRESENTATION (  '', ( #242 ), #54 ) ;
#271 = VERTEX_POINT ( 'NONE', #377 ) ;
#272 = PLANE ( 'NONE',  #166 ) ;
#273 = EDGE_CURVE ( 'NONE', #69, #453, #261, .T. ) ;
#274 = ORIENTED_EDGE ( 'NONE', *, *, #236, .F. ) ;
#275 = DIRECTION ( 'NONE',  ( -0.7071067811865475727, 0.000000000000000000, -0.7071067811865475727 ) ) ;
#276 = CARTESIAN_POINT ( 'NONE',  ( 9.999999999999996447, -9.999999999999996447, 1.000000000000000888 ) ) ;
#277 = EDGE_LOOP ( 'NONE', ( #686, #253, #184, #72, #240, #549 ) ) ;
#278 = CARTESIAN_POINT ( 'NONE',  ( -10.00000000000000355, -9.999999999999996447, 20.00000000000000000 ) ) ;
#279 = ORIENTED_EDGE ( 'NONE', *, *, #516, .T. ) ;
#280 = DIRECTION ( 'NONE',  ( 0.000000000000000000, 0.000000000000000000, 1.000000000000000000 ) ) ;
#281 = VECTOR ( 'NONE', #684, 1000.000000000000114 ) ;
#282 = EDGE_CURVE ( 'NONE', #210, #45, #106, .T. ) ;
#283 = VECTOR ( 'NONE', #20, 1000.000000000000000 ) ;
#284 = ORIENTED_EDGE ( 'NONE', *, *, #392, .T. ) ;
#285 = FACE_OUTER_BOUND ( 'NONE', #165, .T. ) ;
#286 = VERTEX_POINT ( 'NONE', #689 ) ;
#287 = CARTESIAN_POINT ( 'NONE',  ( 15.21882221997523565, -27.26240060569338297, 20.00000000000000000 ) ) ;
#288 = EDGE_CURVE ( 'NONE', #24, #180, #594, .T. ) ;
#289 = ORIENTED_EDGE ( 'NONE', *, *, #371, .F. ) ;
#290 = LINE ( 'NONE', #439, #313 ) ;
#291 = AXIS2_PLACEMENT_3D ( 'NONE', #702, #3, #483 ) ;
#292 = CIRCLE ( 'NONE', #63, 5.000000000000000888 ) ;
#293 = CARTESIAN_POINT ( 'NONE',  ( 8.999999999999989342, 10.00000000000000355, 0.000000000000000000 ) ) ;
#294 = EDGE_CURVE ( 'NONE', #389, #303, #380, .T. ) ;
#295 = CARTESIAN_POINT ( 'NONE',  ( 10.54223067359887089, -28.96454072639529542, 20.00000000000000000 ) ) ;
#296 = ORIENTED_EDGE ( 'NONE', *, *, #38, .T. ) ;
#297 = EDGE_CURVE ( 'NONE', #17, #69, #327, .T. ) ;
#298 = SURFACE_STYLE_USAGE ( .BOTH. , #80 ) ;
#299 = CARTESIAN_POINT ( 'NONE',  ( -10.00000000000000355, -9.999999999999996447, 19.00000000000000711 ) ) ;
#300 = PLANE ( 'NONE',  #552 ) ;
#301 = DIRECTION ( 'NONE',  ( -0.7071067811865500152, 0.000000000000000000, 0.7071067811865451302 ) ) ;
#302 = AXIS2_PLACEMENT_3D ( 'NONE', #365, #517, #585 ) ;
#303 = VERTEX_POINT ( 'NONE', #208 ) ;
#304 = CYLINDRICAL_SURFACE ( 'NONE', #187, 5.000000000000000000 ) ;
#305 = PLANE ( 'NONE',  #539 ) ;
#306 = ORIENTED_EDGE ( 'NONE', *, *, #332, .T. ) ;
#307 = FACE_OUTER_BOUND ( 'NONE', #331, .T. ) ;
#308 = LINE ( 'NONE', #355, #356 ) ;
#309 = ADVANCED_FACE ( 'NONE', ( #423 ), #642, .F. ) ;
#310 = VERTEX_POINT ( 'NONE', #176 ) ;
#311 = FACE_OUTER_BOUND ( 'NONE', #145, .T. ) ;
#312 = DIRECTION ( 'NONE',  ( -0.9396926207859103153, -0.3420201433256634949, 0.000000000000000000 ) ) ;
#313 = VECTOR ( 'NONE', #451, 1000.000000000000000 ) ;
#314 = DIRECTION ( 'NONE',  ( 0.9396926207859103153, 0.3420201433256634949, 0.000000000000000000 ) ) ;
#315 = CARTESIAN_POINT ( 'NONE',  ( -10.00000000000000355, -9.999999999999996447, 1.000000000000000888 ) ) ;
#316 = ORIENTED_EDGE ( 'NONE', *, *, #6, .T. ) ;
#317 = CARTESIAN_POINT ( 'NONE',  ( -10.00000000000000355, -9.999999999999996447, 1.000000000000000888 ) ) ;
#318 = ADVANCED_FACE ( 'NONE', ( #171, #285 ), #607, .F. ) ;
#319 = DIRECTION ( 'NONE',  ( 0.000000000000000000, 0.000000000000000000, -1.000000000000000000 ) ) ;
#320 = EDGE_LOOP ( 'NONE', ( #124, #440, #545, #408, #173, #228 ) ) ;
#321 = FACE_OUTER_BOUND ( 'NONE', #484, .T. ) ;
#322 = DIRECTION ( 'NONE',  ( -0.3420201433256629953, 0.9396926207859104263, 0.000000000000000000 ) ) ;
#323 = EDGE_CURVE ( 'NONE', #389, #310, #390, .T. ) ;
#324 = VECTOR ( 'NONE', #322, 1000.000000000000000 ) ;
#325 = EDGE_LOOP ( 'NONE', ( #599, #274, #157, #634 ) ) ;
#326 = FACE_OUTER_BOUND ( 'NONE', #126, .T. ) ;
#327 = LINE ( 'NONE', #544, #412 ) ;
#328 = ORIENTED_EDGE ( 'NONE', *, *, #694, .F. ) ;
#329 = SURFACE_SIDE_STYLE ('',( #336 ) ) ;
#330 = CARTESIAN_POINT ( 'NONE',  ( 19.94377386467598612, -18.80286628966109319, 7.333333333333235338 ) ) ;
#331 = EDGE_LOOP ( 'NONE', ( #247, #648, #446, #650, #630, #533 ) ) ;
#332 = EDGE_CURVE ( 'NONE', #657, #112, #125, .T. ) ;
#333 = PRESENTATION_STYLE_ASSIGNMENT (( #113 ) ) ;
#334 = DIRECTION ( 'NONE',  ( 0.3450663657489024261, 0.7399972093836005849, 0.5773502691896215122 ) ) ;
#335 = ORIENTED_EDGE ( 'NONE', *, *, #491, .T. ) ;
#336 = SURFACE_STYLE_FILL_AREA ( #174 ) ;
#337 = AXIS2_PLACEMENT_3D ( 'NONE', #673, #32, #193 ) ;
#338 = FACE_OUTER_BOUND ( 'NONE', #511, .T. ) ;
#339 = CARTESIAN_POINT ( 'NONE',  ( -8.764968587060922189, -29.96144585362495860, 6.666666666666565710 ) ) ;
#340 = DIRECTION ( 'NONE',  ( -0.3420201433256629953, 0.9396926207859104263, 0.000000000000000000 ) ) ;
#341 = EDGE_CURVE ( 'NONE', #667, #104, #67, .T. ) ;
#342 = ORIENTED_EDGE ( 'NONE', *, *, #138, .T. ) ;
#343 = DIRECTION ( 'NONE',  ( 0.000000000000000000, 1.000000000000000000, 0.000000000000000000 ) ) ;
#344 = PRODUCT_RELATED_PRODUCT_CATEGORY ( 'part', '', ( #5 ) ) ;
#345 = ORIENTED_EDGE ( 'NONE', *, *, #162, .F. ) ;
#346 = CARTESIAN_POINT ( 'NONE',  ( 11.54016677541508429, -14.23157343764726335, 10.00000000000000000 ) ) ;
#347 = VECTOR ( 'NONE', #557, 1000.000000000000000 ) ;
#348 = AXIS2_PLACEMENT_3D ( 'NONE', #317, #584, #216 ) ;
#349 = EDGE_LOOP ( 'NONE', ( #31, #370, #465, #456 ) ) ;
#350 = FILL_AREA_STYLE ('',( #132 ) ) ;
#351 = LINE ( 'NONE', #633, #555 ) ;
#352 = DIRECTION ( 'NONE',  ( 0.2418447626479711954, -0.6644630243886751053, -0.7071067811865486830 ) ) ;
#353 = ORIENTED_EDGE ( 'NONE', *, *, #602, .T. ) ;
#354 = LINE ( 'NONE', #241, #98 ) ;
#355 = CARTESIAN_POINT ( 'NONE',  ( 16.15851484076113209, -26.92038046236771365, 20.00000000000000000 ) ) ;
#356 = VECTOR ( 'NONE', #206, 1000.000000000000000 ) ;
#357 = ORIENTED_EDGE ( 'NONE', *, *, #47, .T. ) ;
#358 = DIRECTION ( 'NONE',  ( -0.3420201433256629953, 0.9396926207859104263, 0.000000000000000000 ) ) ;
#359 = EDGE_CURVE ( 'NONE', #433, #218, #497, .T. ) ;
#360 = FACE_OUTER_BOUND ( 'NONE', #277, .T. ) ;
#361 = UNCERTAINTY_MEASURE_WITH_UNIT (LENGTH_MEASURE( 1.000000000000000082E-05 ), #135, 'distance_accuracy_value', 'NONE');
#362 = ORIENTED_EDGE ( 'NONE', *, *, #38, .F. ) ;
#363 = DIRECTION ( 'NONE',  ( 0.000000000000000000, -1.000000000000000000, 0.000000000000000000 ) ) ;
#364 = ADVANCED_FACE ( 'NONE', ( #7 ), #561, .T. ) ;
#365 = CARTESIAN_POINT ( 'NONE',  ( 9.999999999999996447, -9.999999999999996447, 20.00000000000000000 ) ) ;
#366 = ORIENTED_EDGE ( 'NONE', *, *, #659, .F. ) ;
#367 = PLANE ( 'NONE',  #447 ) ;
#368 = CARTESIAN_POINT ( 'NONE',  ( -10.00000000000000355, -9.999999999999996447, 19.00000000000000711 ) ) ;
#369 = VECTOR ( 'NONE', #102, 1000.000000000000114 ) ;
#370 = ORIENTED_EDGE ( 'NONE', *, *, #227, .F. ) ;
#371 = EDGE_CURVE ( 'NONE', #453, #667, #445, .T. ) ;
#372 = PLANE ( 'NONE',  #348 ) ;
#373 = CARTESIAN_POINT ( 'NONE',  ( 7.902602596249934663, -10.36982775154899805, 21.09739740375006889 ) ) ;
#374 = ORIENTED_EDGE ( 'NONE', *, *, #168, .T. ) ;
#375 = EDGE_CURVE ( 'NONE', #22, #286, #290, .T. ) ;
#376 = CARTESIAN_POINT ( 'NONE',  ( -5.543584923674811371, -25.77043940809007694, 10.00000000000000000 ) ) ;
#377 = CARTESIAN_POINT ( 'NONE',  ( 16.15851484076113209, -26.92038046236771365, 1.000000000000000888 ) ) ;
#378 = VERTEX_POINT ( 'NONE', #666 ) ;
#379 = DIRECTION ( 'NONE',  ( 0.000000000000000000, -1.000000000000000000, 0.000000000000000000 ) ) ;
#380 = LINE ( 'NONE', #100, #256 ) ;
#381 = VECTOR ( 'NONE', #53, 1000.000000000000000 ) ;
#382 = VECTOR ( 'NONE', #493, 1000.000000000000000 ) ;
#383 = VECTOR ( 'NONE', #334, 1000.000000000000000 ) ;
#384 = ORIENTED_EDGE ( 'NONE', *, *, #6, .F. ) ;
#385 = LINE ( 'NONE', #167, #324 ) ;
#386 = EDGE_CURVE ( 'NONE', #303, #433, #661, .T. ) ;
#387 = ORIENTED_EDGE ( 'NONE', *, *, #464, .F. ) ;
#388 = DIRECTION ( 'NONE',  ( 0.7399972093835981424, -0.3450663657489033143, 0.5773502691896239547 ) ) ;
#389 = VERTEX_POINT ( 'NONE', #183 ) ;
#390 = LINE ( 'NONE', #237, #494 ) ;
#391 = ORIENTED_EDGE ( 'NONE', *, *, #375, .F. ) ;
#392 = EDGE_CURVE ( 'NONE', #310, #112, #507, .T. ) ;
#393 = DIRECTION ( 'NONE',  ( 0.3420201433256629953, -0.9396926207859104263, 0.000000000000000000 ) ) ;
#394 = VERTEX_POINT ( 'NONE', #71 ) ;
#395 = APPLICATION_PROTOCOL_DEFINITION ( 'draft international standard', 'automotive_design', 1998, #399 ) ;
#396 = DIRECTION ( 'NONE',  ( 0.000000000000000000, 0.000000000000000000, -1.000000000000000000 ) ) ;
#397 = DIRECTION ( 'NONE',  ( -0.000000000000000000, -0.000000000000000000, -1.000000000000000000 ) ) ;
#398 = CARTESIAN_POINT ( 'NONE',  ( 9.999999999999996447, 10.00000000000000355, 1.000000000000000888 ) ) ;
#399 = APPLICATION_CONTEXT ( 'automotive_design' ) ;
#400 = ORIENTED_EDGE ( 'NONE', *, *, #556, .F. ) ;
#401 = CARTESIAN_POINT ( 'NONE',  ( -4.410176939146460917, -25.35791263844211940, 10.00000000000000000 ) ) ;
#402 = VECTOR ( 'NONE', #393, 1000.000000000000000 ) ;
#403 = EDGE_CURVE ( 'NONE', #637, #681, #116, .T. ) ;
#404 = ORIENTED_EDGE ( 'NONE', *, *, #491, .F. ) ;
#405 = PLANE ( 'NONE',  #612 ) ;
#406 = FACE_OUTER_BOUND ( 'NONE', #627, .T. ) ;
#407 = CARTESIAN_POINT ( 'NONE',  ( -8.147168477988429913, -9.673295811962223212, 20.85283152201158074 ) ) ;
#408 = ORIENTED_EDGE ( 'NONE', *, *, #243, .T. ) ;
#409 = EDGE_CURVE ( 'NONE', #433, #271, #613, .T. ) ;
#410 = FACE_OUTER_BOUND ( 'NONE', #160, .T. ) ;
#411 = AXIS2_PLACEMENT_3D ( 'NONE', #448, #280, #232 ) ;
#412 = VECTOR ( 'NONE', #693, 1000.000000000000000 ) ;
#413 = PRODUCT_DEFINITION_FORMATION_WITH_SPECIFIED_SOURCE ( '任何', '', #5, .NOT_KNOWN. ) ;
#414 = LINE ( 'NONE', #477, #64 ) ;
#415 = ORIENTED_EDGE ( 'NONE', *, *, #359, .F. ) ;
#416 = DIRECTION ( 'NONE',  ( -0.3420201433256632728, 0.9396926207859103153, 0.000000000000000000 ) ) ;
#417 = CARTESIAN_POINT ( 'NONE',  ( 16.50053498408679786, -27.86007308315363318, 1.000000000000000888 ) ) ;
#418 = EDGE_LOOP ( 'NONE', ( #35, #1 ) ) ;
#419 = CARTESIAN_POINT ( 'NONE',  ( -6.120277655774776449, -20.65944953451256438, 10.00000000000000000 ) ) ;
#420 = FACE_OUTER_BOUND ( 'NONE', #92, .T. ) ;
#421 = EDGE_CURVE ( 'NONE', #95, #210, #563, .T. ) ;
#422 = DIRECTION ( 'NONE',  ( 0.000000000000000000, 1.000000000000000000, 0.000000000000000000 ) ) ;
#423 = FACE_OUTER_BOUND ( 'NONE', #320, .T. ) ;
#424 = AXIS2_PLACEMENT_3D ( 'NONE', #546, #492, #70 ) ;
#425 = PRODUCT_DEFINITION ( '未知', '', #413, #16 ) ;
#426 = EDGE_LOOP ( 'NONE', ( #52, #503, #56, #518 ) ) ;
#427 = VECTOR ( 'NONE', #685, 1000.000000000000114 ) ;
#428 = FACE_OUTER_BOUND ( 'NONE', #325, .T. ) ;
#429 = FACE_BOUND ( 'NONE', #170, .T. ) ;
#430 = ORIENTED_EDGE ( 'NONE', *, *, #79, .T. ) ;
#431 = PLANE ( 'NONE',  #641 ) ;
#432 = DIRECTION ( 'NONE',  ( -0.9396926207859104263, -0.3420201433256631063, 0.000000000000000000 ) ) ;
#433 = VERTEX_POINT ( 'NONE', #226 ) ;
#434 = EDGE_CURVE ( 'NONE', #17, #24, #441, .T. ) ;
#435 = CARTESIAN_POINT ( 'NONE',  ( -10.00000000000000355, 10.00000000000000355, 20.00000000000000000 ) ) ;
#436 = AXIS2_PLACEMENT_3D ( 'NONE', #156, #319, #535 ) ;
#437 = VECTOR ( 'NONE', #36, 1000.000000000000000 ) ;
#438 = ORIENTED_EDGE ( 'NONE', *, *, #573, .T. ) ;
#439 = CARTESIAN_POINT ( 'NONE',  ( -10.00000000000000355, 10.00000000000000355, 0.000000000000000000 ) ) ;
#440 = ORIENTED_EDGE ( 'NONE', *, *, #371, .T. ) ;
#441 = LINE ( 'NONE', #658, #41 ) ;
#442 = EDGE_CURVE ( 'NONE', #22, #389, #123, .T. ) ;
#443 = ORIENTED_EDGE ( 'NONE', *, *, #498, .T. ) ;
#444 = PRODUCT_CONTEXT ( 'NONE', #399, 'mechanical' ) ;
#445 = LINE ( 'NONE', #502, #40 ) ;
#446 = ORIENTED_EDGE ( 'NONE', *, *, #683, .F. ) ;
#447 = AXIS2_PLACEMENT_3D ( 'NONE', #543, #379, #211 ) ;
#448 = CARTESIAN_POINT ( 'NONE',  ( 0.000000000000000000, 0.000000000000000000, 0.000000000000000000 ) ) ;
#449 = CARTESIAN_POINT ( 'NONE',  ( 9.000000000000003553, 0.000000000000000000, 20.00000000000000000 ) ) ;
#450 = LINE ( 'NONE', #665, #29 ) ;
#451 = DIRECTION ( 'NONE',  ( -1.000000000000000000, -0.000000000000000000, -0.000000000000000000 ) ) ;
#452 = PRODUCT_DEFINITION_SHAPE ( 'NONE', 'NONE',  #425 ) ;
#453 = VERTEX_POINT ( 'NONE', #287 ) ;
#454 = CARTESIAN_POINT ( 'NONE',  ( 9.999999999999996447, -9.999999999999996447, 1.000000000000000888 ) ) ;
#455 = ADVANCED_FACE ( 'NONE', ( #338 ), #233, .F. ) ;
#456 = ORIENTED_EDGE ( 'NONE', *, *, #34, .F. ) ;
#457 = CARTESIAN_POINT ( 'NONE',  ( -5.543584923674811371, -25.77043940809007694, 10.00000000000000000 ) ) ;
#458 = VECTOR ( 'NONE', #343, 1000.000000000000000 ) ;
#459 = VECTOR ( 'NONE', #520, 1000.000000000000000 ) ;
#460 = LINE ( 'NONE', #523, #644 ) ;
#461 = VERTEX_POINT ( 'NONE', #346 ) ;
#462 = FACE_OUTER_BOUND ( 'NONE', #349, .T. ) ;
#463 = DIRECTION ( 'NONE',  ( 0.3420201433256629953, -0.9396926207859104263, 0.000000000000000000 ) ) ;
#464 = EDGE_CURVE ( 'NONE', #678, #461, #519, .T. ) ;
#465 = ORIENTED_EDGE ( 'NONE', *, *, #168, .F. ) ;
#466 = DIRECTION ( 'NONE',  ( -0.3420201433256631618, 0.9396926207859104263, 0.000000000000000000 ) ) ;
#467 = CARTESIAN_POINT ( 'NONE',  ( 15.85967860203101409, -27.56123684442350097, 19.50000000000000355 ) ) ;
#468 = ADVANCED_FACE ( 'NONE', ( #307 ), #300, .F. ) ;
#469 = ORIENTED_EDGE ( 'NONE', *, *, #556, .T. ) ;
#470 = DIRECTION ( 'NONE',  ( 0.9396926207859104263, 0.3420201433256631618, 0.000000000000000000 ) ) ;
#471 = VECTOR ( 'NONE', #301, 1000.000000000000114 ) ;
#472 = CIRCLE ( 'NONE', #495, 5.000000000000000000 ) ;
#473 = PLANE ( 'NONE',  #121 ) ;
#474 = ORIENTED_EDGE ( 'NONE', *, *, #409, .F. ) ;
#475 = CARTESIAN_POINT ( 'NONE',  ( 1.792020348267059360, -27.95751530498943893, 23.93904254703858214 ) ) ;
#476 = DIRECTION ( 'NONE',  ( 0.7016738431598655845, 0.1237240302064871594, -0.7016738431598606995 ) ) ;
#477 = CARTESIAN_POINT ( 'NONE',  ( -10.00000000000000355, -9.999999999999996447, 20.00000000000000000 ) ) ;
#478 = EDGE_LOOP ( 'NONE', ( #415, #675, #49, #9, #490, #231 ) ) ;
#479 = LINE ( 'NONE', #635, #577 ) ;
#480 = DIRECTION ( 'NONE',  ( -1.000000000000000000, -0.000000000000000000, -0.000000000000000000 ) ) ;
#481 = VERTEX_POINT ( 'NONE', #25 ) ;
#482 =( NAMED_UNIT ( * ) PLANE_ANGLE_UNIT ( ) SI_UNIT ( $, .RADIAN. ) );
#483 = DIRECTION ( 'NONE',  ( 0.3420201433256629953, -0.9396926207859104263, 0.000000000000000000 ) ) ;
#484 = EDGE_LOOP ( 'NONE', ( #122, #443, #279, #391, #604, #536 ) ) ;
#485 = CARTESIAN_POINT ( 'NONE',  ( -9.000000000000008882, 10.00000000000000355, 20.00000000000000000 ) ) ;
#486 = DIRECTION ( 'NONE',  ( 0.3420201433256631063, -0.9396926207859104263, 0.000000000000000000 ) ) ;
#487 = ORIENTED_EDGE ( 'NONE', *, *, #172, .T. ) ;
#488 = EDGE_CURVE ( 'NONE', #303, #394, #248, .T. ) ;
#489 = DIRECTION ( 'NONE',  ( -0.3420201433256631618, 0.9396926207859104263, 0.000000000000000000 ) ) ;
#490 = ORIENTED_EDGE ( 'NONE', *, *, #297, .F. ) ;
#491 = EDGE_CURVE ( 'NONE', #691, #378, #139, .T. ) ;
#492 = DIRECTION ( 'NONE',  ( 0.9396926207859104263, 0.3420201433256631618, 0.000000000000000000 ) ) ;
#493 = DIRECTION ( 'NONE',  ( 0.000000000000000000, 1.000000000000000000, 0.000000000000000000 ) ) ;
#494 = VECTOR ( 'NONE', #119, 1000.000000000000114 ) ;
#495 = AXIS2_PLACEMENT_3D ( 'NONE', #401, #515, #23 ) ;
#496 = ORIENTED_EDGE ( 'NONE', *, *, #421, .F. ) ;
#497 = LINE ( 'NONE', #11, #347 ) ;
#498 = EDGE_CURVE ( 'NONE', #394, #45, #354, .T. ) ;
#499 = ORIENTED_EDGE ( 'NONE', *, *, #434, .T. ) ;
#500 = DIRECTION ( 'NONE',  ( -0.000000000000000000, -0.000000000000000000, -1.000000000000000000 ) ) ;
#501 = CARTESIAN_POINT ( 'NONE',  ( 3.974029108526359266, -35.90173803629632232, 15.72762411962809459 ) ) ;
#502 = CARTESIAN_POINT ( 'NONE',  ( 4.676591546376372754, 1.702140120701918446, 20.00000000000000000 ) ) ;
#503 = ORIENTED_EDGE ( 'NONE', *, *, #392, .F. ) ;
#504 = AXIS2_PLACEMENT_3D ( 'NONE', #158, #50, #587 ) ;
#505 = VECTOR ( 'NONE', #588, 1000.000000000000000 ) ;
#506 = STYLED_ITEM ( 'NONE', ( #512 ), #571 ) ;
#507 = LINE ( 'NONE', #398, #458 ) ;
#508 = VERTEX_POINT ( 'NONE', #82 ) ;
#509 = EDGE_CURVE ( 'NONE', #182, #461, #292, .T. ) ;
#510 = DIRECTION ( 'NONE',  ( 1.000000000000000000, 0.000000000000000000, 0.000000000000000000 ) ) ;
#511 = EDGE_LOOP ( 'NONE', ( #400, #316, #353, #586, #137, #342 ) ) ;
#512 = PRESENTATION_STYLE_ASSIGNMENT (( #298 ) ) ;
#513 = DIRECTION ( 'NONE',  ( 0.9396926207859104263, 0.3420201433256631618, -0.000000000000000000 ) ) ;
#514 = ORIENTED_EDGE ( 'NONE', *, *, #209, .T. ) ;
#515 = DIRECTION ( 'NONE',  ( 0.9396926207859106484, 0.3420201433256630508, -0.000000000000000000 ) ) ;
#516 = EDGE_CURVE ( 'NONE', #45, #286, #200, .T. ) ;
#517 = DIRECTION ( 'NONE',  ( -1.000000000000000000, 0.000000000000000000, 0.000000000000000000 ) ) ;
#518 = ORIENTED_EDGE ( 'NONE', *, *, #442, .F. ) ;
#519 = LINE ( 'NONE', #522, #437 ) ;
#520 = DIRECTION ( 'NONE',  ( 0.000000000000000000, -1.000000000000000000, 0.000000000000000000 ) ) ;
#521 = ORIENTED_EDGE ( 'NONE', *, *, #243, .F. ) ;
#522 = CARTESIAN_POINT ( 'NONE',  ( -7.253685640303126902, -21.07197630416052547, 10.00000000000000000 ) ) ;
#523 = CARTESIAN_POINT ( 'NONE',  ( -3.833484207046495396, -30.46890251201963196, 10.00000000000000000 ) ) ;
#524 = PRESENTATION_LAYER_ASSIGNMENT (  '', '', ( #242 ) ) ;
#525 = PLANE ( 'NONE',  #19 ) ;
#526 = AXIS2_PLACEMENT_3D ( 'NONE', #265, #220, #489 ) ;
#527 = VECTOR ( 'NONE', #28, 1000.000000000000000 ) ;
#528 = LINE ( 'NONE', #94, #699 ) ;
#529 = ORIENTED_EDGE ( 'NONE', *, *, #15, .F. ) ;
#530 = EDGE_CURVE ( 'NONE', #115, #678, #472, .T. ) ;
#531 = LINE ( 'NONE', #46, #141 ) ;
#532 = CARTESIAN_POINT ( 'NONE',  ( 16.50053498408680142, -27.86007308315363318, 1.000000000000000888 ) ) ;
#533 = ORIENTED_EDGE ( 'NONE', *, *, #434, .F. ) ;
#534 = FACE_OUTER_BOUND ( 'NONE', #559, .T. ) ;
#535 = DIRECTION ( 'NONE',  ( -1.000000000000000000, 0.000000000000000000, -0.000000000000000000 ) ) ;
#536 = ORIENTED_EDGE ( 'NONE', *, *, #294, .T. ) ;
#537 = CARTESIAN_POINT ( 'NONE',  ( -0.5622369696428215491, -33.00623641590737378, 20.00000000000000000 ) ) ;
#538 = CARTESIAN_POINT ( 'NONE',  ( -0.2202168263171558338, -33.94592903669327910, 20.00000000000000000 ) ) ;
#539 = AXIS2_PLACEMENT_3D ( 'NONE', #136, #690, #252 ) ;
#540 = ADVANCED_FACE ( 'NONE', ( #462 ), #676, .F. ) ;
#541 = ORIENTED_EDGE ( 'NONE', *, *, #26, .T. ) ;
#542 = VECTOR ( 'NONE', #235, 1000.000000000000000 ) ;
#543 = CARTESIAN_POINT ( 'NONE',  ( -10.00000000000000355, 10.00000000000000355, 20.00000000000000000 ) ) ;
#544 = CARTESIAN_POINT ( 'NONE',  ( 16.15851484076113209, -26.92038046236771365, 20.00000000000000000 ) ) ;
#545 = ORIENTED_EDGE ( 'NONE', *, *, #341, .T. ) ;
#546 = CARTESIAN_POINT ( 'NONE',  ( 13.25026749204339893, -18.93003654157681481, 10.00000000000000000 ) ) ;
#547 = APPLICATION_CONTEXT ( 'automotive_design' ) ;
#548 = CARTESIAN_POINT ( 'NONE',  ( -11.10446764324167646, -4.041695689512059708, 20.00000000000000000 ) ) ;
#549 = ORIENTED_EDGE ( 'NONE', *, *, #209, .F. ) ;
#550 = ADVANCED_FACE ( 'NONE', ( #77 ), #304, .F. ) ;
#551 = CARTESIAN_POINT ( 'NONE',  ( -10.00000000000000355, -9.999999999999996447, 1.000000000000000888 ) ) ;
#552 = AXIS2_PLACEMENT_3D ( 'NONE', #295, #254, #574 ) ;
#553 = EDGE_LOOP ( 'NONE', ( #221, #404, #225, #289, #59 ) ) ;
#554 =( LENGTH_UNIT ( ) NAMED_UNIT ( * ) SI_UNIT ( .MILLI., .METRE. ) );
#555 = VECTOR ( 'NONE', #674, 1000.000000000000114 ) ;
#556 = EDGE_CURVE ( 'NONE', #508, #565, #127, .T. ) ;
#557 = DIRECTION ( 'NONE',  ( -0.3450663657489009828, -0.7399972093835975873, 0.5773502691896261751 ) ) ;
#558 = UNCERTAINTY_MEASURE_WITH_UNIT (LENGTH_MEASURE( 1.000000000000000082E-05 ), #73, 'distance_accuracy_value', 'NONE');
#559 = EDGE_LOOP ( 'NONE', ( #499, #188, #514, #89 ) ) ;
#560 = CARTESIAN_POINT ( 'NONE',  ( 9.999999999999996447, -9.999999999999996447, 19.00000000000000711 ) ) ;
#561 = PLANE ( 'NONE',  #621 ) ;
#562 = ORIENTED_EDGE ( 'NONE', *, *, #421, .T. ) ;
#563 = LINE ( 'NONE', #551, #643 ) ;
#564 = ADVANCED_FACE ( 'NONE', ( #406 ), #632, .F. ) ;
#565 = VERTEX_POINT ( 'NONE', #679 ) ;
#566 = VECTOR ( 'NONE', #43, 1000.000000000000000 ) ;
#567 = DIRECTION ( 'NONE',  ( 0.000000000000000000, 0.000000000000000000, 1.000000000000000000 ) ) ;
#568 = LINE ( 'NONE', #501, #542 ) ;
#569 = ADVANCED_FACE ( 'NONE', ( #410 ), #143, .T. ) ;
#570 = SURFACE_STYLE_FILL_AREA ( #350 ) ;
#571 = MANIFOLD_SOLID_BREP ( '倒角2', #234 ) ;
#572 = LINE ( 'NONE', #81, #246 ) ;
#573 = EDGE_CURVE ( 'NONE', #576, #481, #42, .T. ) ;
#574 = DIRECTION ( 'NONE',  ( 0.9396926207859103153, 0.3420201433256634949, 0.000000000000000000 ) ) ;
#575 = LINE ( 'NONE', #680, #471 ) ;
#576 = VERTEX_POINT ( 'NONE', #623 ) ;
#577 = VECTOR ( 'NONE', #363, 1000.000000000000000 ) ;
#578 = CARTESIAN_POINT ( 'NONE',  ( 13.25026749204339893, -18.93003654157681481, 10.00000000000000000 ) ) ;
#579 = DIRECTION ( 'NONE',  ( 0.3450663657489074221, 0.7399972093835968101, -0.5773502691896232886 ) ) ;
#580 = ORIENTED_EDGE ( 'NONE', *, *, #282, .T. ) ;
#581 = DIRECTION ( 'NONE',  ( 0.3420201433256631063, -0.9396926207859104263, 0.000000000000000000 ) ) ;
#582 = CARTESIAN_POINT ( 'NONE',  ( 16.15851484076113209, -26.92038046236771365, 20.00000000000000000 ) ) ;
#583 = ORIENTED_EDGE ( 'NONE', *, *, #659, .T. ) ;
#584 = DIRECTION ( 'NONE',  ( -0.7071067811865451302, 0.000000000000000000, -0.7071067811865500152 ) ) ;
#585 = DIRECTION ( 'NONE',  ( 0.000000000000000000, 0.000000000000000000, 1.000000000000000000 ) ) ;
#586 = ORIENTED_EDGE ( 'NONE', *, *, #288, .F. ) ;
#587 = DIRECTION ( 'NONE',  ( -0.9396926207859103153, -0.3420201433256634949, 0.000000000000000000 ) ) ;
#588 = DIRECTION ( 'NONE',  ( 0.000000000000000000, 0.000000000000000000, -1.000000000000000000 ) ) ;
#589 = CIRCLE ( 'NONE', #526, 5.000000000000000000 ) ;
#590 = VECTOR ( 'NONE', #567, 1000.000000000000000 ) ;
#591 = ADVANCED_FACE ( 'NONE', ( #326 ), #372, .T. ) ;
#592 = ORIENTED_EDGE ( 'NONE', *, *, #227, .T. ) ;
#593 = DIRECTION ( 'NONE',  ( 0.7071067811865474617, -0.000000000000000000, 0.7071067811865474617 ) ) ;
#594 = LINE ( 'NONE', #538, #505 ) ;
#595 = ORIENTED_EDGE ( 'NONE', *, *, #341, .F. ) ;
#596 = CARTESIAN_POINT ( 'NONE',  ( 0.000000000000000000, 0.000000000000000000, 0.000000000000000000 ) ) ;
#597 = EDGE_CURVE ( 'NONE', #681, #202, #93, .T. ) ;
#598 = CARTESIAN_POINT ( 'NONE',  ( 13.09257833094914680, -26.27091679713522865, 21.65890825820082100 ) ) ;
#599 = ORIENTED_EDGE ( 'NONE', *, *, #79, .F. ) ;
#600 = LINE ( 'NONE', #149, #179 ) ;
#601 = DIRECTION ( 'NONE',  ( 0.3420201433256631063, -0.9396926207859104263, 0.000000000000000000 ) ) ;
#602 = EDGE_CURVE ( 'NONE', #131, #180, #57, .T. ) ;
#603 = VECTOR ( 'NONE', #213, 1000.000000000000000 ) ;
#604 = ORIENTED_EDGE ( 'NONE', *, *, #442, .T. ) ;
#605 = LINE ( 'NONE', #368, #128 ) ;
#606 = ORIENTED_EDGE ( 'NONE', *, *, #138, .F. ) ;
#607 = PLANE ( 'NONE',  #682 ) ;
#608 = ORIENTED_EDGE ( 'NONE', *, *, #294, .F. ) ;
#609 = ADVANCED_FACE ( 'NONE', ( #534 ), #640, .F. ) ;
#610 = DIRECTION ( 'NONE',  ( -0.9396926207859103153, -0.3420201433256634949, 0.000000000000000000 ) ) ;
#611 = ORIENTED_EDGE ( 'NONE', *, *, #323, .T. ) ;
#612 = AXIS2_PLACEMENT_3D ( 'NONE', #582, #249, #147 ) ;
#613 = LINE ( 'NONE', #330, #383 ) ;
#614 = LINE ( 'NONE', #339, #283 ) ;
#615 = SHAPE_DEFINITION_REPRESENTATION ( #452, #175 ) ;
#616 = DIRECTION ( 'NONE',  ( 0.000000000000000000, -1.000000000000000000, 0.000000000000000000 ) ) ;
#617 = EDGE_CURVE ( 'NONE', #218, #17, #701, .T. ) ;
#618 = CARTESIAN_POINT ( 'NONE',  ( -0.2202168263171518647, -33.94592903669327910, 19.00000000000000000 ) ) ;
#619 = CARTESIAN_POINT ( 'NONE',  ( 9.999999999999996447, 10.00000000000000355, 20.00000000000000000 ) ) ;
#620 = ORIENTED_EDGE ( 'NONE', *, *, #205, .T. ) ;
#621 = AXIS2_PLACEMENT_3D ( 'NONE', #14, #230, #224 ) ;
#622 = COLOUR_RGB ( '',1.000000000000000000, 1.000000000000000000, 1.000000000000000000 ) ;
#623 = CARTESIAN_POINT ( 'NONE',  ( -10.00000000000000355, 10.00000000000000355, 19.00000000000000711 ) ) ;
#624 = DIRECTION ( 'NONE',  ( -0.000000000000000000, -0.000000000000000000, -1.000000000000000000 ) ) ;
#625 = ADVANCED_FACE ( 'NONE', ( #428 ), #2, .F. ) ;
#626 = CARTESIAN_POINT ( 'NONE',  ( -0.8610732083729338848, -33.64709279796315400, 0.5000000000000038858 ) ) ;
#627 = EDGE_LOOP ( 'NONE', ( #61, #562, #177, #592 ) ) ;
#628 = DIRECTION ( 'NONE',  ( 0.9396926207859104263, 0.3420201433256631618, -0.000000000000000000 ) ) ;
#629 = FACE_OUTER_BOUND ( 'NONE', #553, .T. ) ;
#630 = ORIENTED_EDGE ( 'NONE', *, *, #12, .F. ) ;
#631 = VECTOR ( 'NONE', #140, 1000.000000000000114 ) ;
#632 = PLANE ( 'NONE',  #198 ) ;
#633 = CARTESIAN_POINT ( 'NONE',  ( 9.999999999999996447, 10.00000000000000355, 1.000000000000000888 ) ) ;
#634 = ORIENTED_EDGE ( 'NONE', *, *, #694, .T. ) ;
#635 = CARTESIAN_POINT ( 'NONE',  ( 9.999999999999996447, -9.999999999999996447, 19.00000000000000711 ) ) ;
#636 = LINE ( 'NONE', #27, #427 ) ;
#637 = VERTEX_POINT ( 'NONE', #264 ) ;
#638 = DIRECTION ( 'NONE',  ( 0.000000000000000000, 0.000000000000000000, -1.000000000000000000 ) ) ;
#639 = PLANE ( 'NONE',  #291 ) ;
#640 = PLANE ( 'NONE',  #504 ) ;
#641 = AXIS2_PLACEMENT_3D ( 'NONE', #161, #275, #422 ) ;
#642 = PLANE ( 'NONE',  #436 ) ;
#643 = VECTOR ( 'NONE', #62, 1000.000000000000000 ) ;
#644 = VECTOR ( 'NONE', #513, 1000.000000000000000 ) ;
#645 = ORIENTED_EDGE ( 'NONE', *, *, #60, .T. ) ;
#646 = ADVANCED_FACE ( 'NONE', ( #311 ), #431, .F. ) ;
#647 = FACE_OUTER_BOUND ( 'NONE', #107, .T. ) ;
#648 = ORIENTED_EDGE ( 'NONE', *, *, #273, .T. ) ;
#649 = DIRECTION ( 'NONE',  ( -0.7399972093835955889, 0.3450663657489059788, 0.5773502691896256200 ) ) ;
#650 = ORIENTED_EDGE ( 'NONE', *, *, #597, .T. ) ;
#651 = DIRECTION ( 'NONE',  ( -0.7016738431598639192, -0.1237240302064779029, 0.7016738431598639192 ) ) ;
#652 = VECTOR ( 'NONE', #649, 1000.000000000000114 ) ;
#653 = VECTOR ( 'NONE', #593, 1000.000000000000114 ) ;
#654 = ORIENTED_EDGE ( 'NONE', *, *, #375, .T. ) ;
#655 = DIRECTION ( 'NONE',  ( 0.9396926207859105373, 0.3420201433256630508, -0.000000000000000000 ) ) ;
#656 = ADVANCED_FACE ( 'NONE', ( #99 ), #367, .F. ) ;
#657 = VERTEX_POINT ( 'NONE', #105 ) ;
#658 = CARTESIAN_POINT ( 'NONE',  ( 16.50053498408679786, -27.86007308315363318, 19.00000000000000000 ) ) ;
#659 = EDGE_CURVE ( 'NONE', #657, #691, #479, .T. ) ;
#660 = ORIENTED_EDGE ( 'NONE', *, *, #259, .F. ) ;
#661 = LINE ( 'NONE', #178, #8 ) ;
#662 = ORIENTED_EDGE ( 'NONE', *, *, #516, .F. ) ;
#663 = ADVANCED_FACE ( 'NONE', ( #321 ), #260, .T. ) ;
#664 = CARTESIAN_POINT ( 'NONE',  ( -0.2202168263171488949, -33.94592903669327910, 20.00000000000000000 ) ) ;
#665 = CARTESIAN_POINT ( 'NONE',  ( 9.999999999999996447, -9.999999999999996447, 20.00000000000000000 ) ) ;
#666 = CARTESIAN_POINT ( 'NONE',  ( 16.15851484076113209, -26.92038046236771365, 19.00000000000000711 ) ) ;
#667 = VERTEX_POINT ( 'NONE', #203 ) ;
#668 = DIRECTION ( 'NONE',  ( 0.6644630243886738841, 0.2418447626479704737, -0.7071067811865500152 ) ) ;
#669 = ORIENTED_EDGE ( 'NONE', *, *, #597, .F. ) ;
#670 = COLOUR_RGB ( '',1.000000000000000000, 1.000000000000000000, 1.000000000000000000 ) ;
#671 = VECTOR ( 'NONE', #480, 1000.000000000000000 ) ;
#672 = MECHANICAL_DESIGN_GEOMETRIC_PRESENTATION_REPRESENTATION (  '', ( #506 ), #257 ) ;
#673 = CARTESIAN_POINT ( 'NONE',  ( -9.000000000000008882, 0.000000000000000000, 20.00000000000000000 ) ) ;
#674 = DIRECTION ( 'NONE',  ( -0.7071067811865500152, 0.000000000000000000, -0.7071067811865451302 ) ) ;
#675 = ORIENTED_EDGE ( 'NONE', *, *, #409, .T. ) ;
#676 = PLANE ( 'NONE',  #337 ) ;
#677 = LINE ( 'NONE', #133, #155 ) ;
#678 = VERTEX_POINT ( 'NONE', #419 ) ;
#679 = CARTESIAN_POINT ( 'NONE',  ( -1.501929590428720651, -33.34825655923303600, 19.00000000000000711 ) ) ;
#680 = CARTESIAN_POINT ( 'NONE',  ( -10.00000000000000355, 10.00000000000000355, 1.000000000000000888 ) ) ;
#681 = VERTEX_POINT ( 'NONE', #537 ) ;
#682 = AXIS2_PLACEMENT_3D ( 'NONE', #278, #655, #340 ) ;
#683 = EDGE_CURVE ( 'NONE', #681, #453, #600, .T. ) ;
#684 = DIRECTION ( 'NONE',  ( -0.9396926207859103153, -0.3420201433256634949, 0.000000000000000000 ) ) ;
#685 = DIRECTION ( 'NONE',  ( -0.3450663657489013159, -0.7399972093835983644, 0.5773502691896248429 ) ) ;
#686 = ORIENTED_EDGE ( 'NONE', *, *, #602, .F. ) ;
#687 = DIRECTION ( 'NONE',  ( -1.000000000000000000, 0.000000000000000000, -0.000000000000000000 ) ) ;
#688 = EDGE_CURVE ( 'NONE', #576, #95, #531, .T. ) ;
#689 = CARTESIAN_POINT ( 'NONE',  ( -8.999999999999996447, 10.00000000000000355, 0.000000000000000000 ) ) ;
#690 = DIRECTION ( 'NONE',  ( -0.6644630243886767706, -0.2418447626479715284, -0.7071067811865469066 ) ) ;
#691 = VERTEX_POINT ( 'NONE', #560 ) ;
#692 = DIRECTION ( 'NONE',  ( -0.000000000000000000, -0.000000000000000000, -1.000000000000000000 ) ) ;
#693 = DIRECTION ( 'NONE',  ( 0.3450663657489009828, 0.7399972093835975873, 0.5773502691896261751 ) ) ;
#694 = EDGE_CURVE ( 'NONE', #461, #182, #109, .T. ) ;
#695 = ORIENTED_EDGE ( 'NONE', *, *, #509, .F. ) ;
#696 = DIRECTION ( 'NONE',  ( -0.3420201433256631618, 0.9396926207859104263, 0.000000000000000000 ) ) ;
#697 = VECTOR ( 'NONE', #207, 1000.000000000000000 ) ;
#698 = CARTESIAN_POINT ( 'NONE',  ( -10.00000000000000355, -9.999999999999996447, 1.000000000000000888 ) ) ;
#699 = VECTOR ( 'NONE', #44, 1000.000000000000114 ) ;
#700 = EDGE_LOOP ( 'NONE', ( #580, #258, #238, #384, #362 ) ) ;
#701 = LINE ( 'NONE', #267, #697 ) ;
#702 = CARTESIAN_POINT ( 'NONE',  ( -11.10446764324167468, -4.041695689512058820, 20.00000000000000000 ) ) ;
ENDSEC;
END-ISO-10303-21;
