ISO-10303-21;
HEADER;
FILE_DESCRIPTION (( 'STEP AP214' ),
    '1' );
FILE_NAME ('输送带导向滚.step',
    '2023-08-15T03:06:47',
    ( '' ),
    ( '' ),
    'SwSTEP 2.0',
    'SolidWorks 2022',
    '' );
FILE_SCHEMA (( 'AUTOMOTIVE_DESIGN' ));
ENDSEC;

DATA;
#1 = SURFACE_STYLE_FILL_AREA ( #588 ) ;
#2 = CARTESIAN_POINT ( 'NONE',  ( 16.50000000000001066, 2.020667218593134283E-15, -2.020667218593134283E-15 ) ) ;
#3 = ORIENTED_EDGE ( 'NONE', *, *, #432, .F. ) ;
#4 = CARTESIAN_POINT ( 'NONE',  ( 7.347880794884118356E-15, 0.000000000000000000, 60.00000000000000000 ) ) ;
#5 = CIRCLE ( 'NONE', #521, 7.500000000000000000 ) ;
#6 = AXIS2_PLACEMENT_3D ( 'NONE', #309, #511, #172 ) ;
#7 = CARTESIAN_POINT ( 'NONE',  ( 19.00000000000000000, 0.000000000000000000, 56.99999999999999289 ) ) ;
#8 = ORIENTED_EDGE ( 'NONE', *, *, #262, .F. ) ;
#9 = STYLED_ITEM ( 'NONE', ( #564 ), #550 ) ;
#10 = DIRECTION ( 'NONE',  ( -1.224646799147353207E-16, -0.000000000000000000, -1.000000000000000000 ) ) ;
#11 = EDGE_LOOP ( 'NONE', ( #148, #245, #311, #402 ) ) ;
#12 = FACE_OUTER_BOUND ( 'NONE', #501, .T. ) ;
#13 = ADVANCED_FACE ( 'NONE', ( #124 ), #219, .F. ) ;
#14 = ORIENTED_EDGE ( 'NONE', *, *, #371, .F. ) ;
#15 = SHAPE_DEFINITION_REPRESENTATION ( #396, #550 ) ;
#16 = ORIENTED_EDGE ( 'NONE', *, *, #118, .F. ) ;
#17 = AXIS2_PLACEMENT_3D ( 'NONE', #87, #380, #526 ) ;
#18 = DIRECTION ( 'NONE',  ( 1.224646799147353207E-16, 0.000000000000000000, 1.000000000000000000 ) ) ;
#19 = VERTEX_POINT ( 'NONE', #368 ) ;
#20 = DIRECTION ( 'NONE',  ( -1.224646799147353207E-16, -0.000000000000000000, -1.000000000000000000 ) ) ;
#21 = CYLINDRICAL_SURFACE ( 'NONE', #89, 7.500000000000000000 ) ;
#22 = DIRECTION ( 'NONE',  ( 1.224646799147353207E-16, 0.000000000000000000, 1.000000000000000000 ) ) ;
#23 = CARTESIAN_POINT ( 'NONE',  ( 6.980486755139912911E-15, 0.000000000000000000, 56.99999999999999289 ) ) ;
#24 = EDGE_CURVE ( 'NONE', #163, #120, #627, .T. ) ;
#25 = DIRECTION ( 'NONE',  ( -1.000000000000000000, 0.000000000000000000, 1.301042606982605321E-16 ) ) ;
#26 = DIRECTION ( 'NONE',  ( 1.224646799147353207E-16, 0.000000000000000000, 1.000000000000000000 ) ) ;
#27 = CARTESIAN_POINT ( 'NONE',  ( -7.500000000000000000, 0.000000000000000000, 9.184850993605147944E-16 ) ) ;
#28 = AXIS2_PLACEMENT_3D ( 'NONE', #541, #95, #187 ) ;
#29 = TOROIDAL_SURFACE ( 'NONE', #510, 18.99999999999999289, 1.000000000000000000 ) ;
#30 = EDGE_CURVE ( 'NONE', #146, #110, #63, .T. ) ;
#31 = DIRECTION ( 'NONE',  ( 0.000000000000000000, -1.000000000000000000, 0.000000000000000000 ) ) ;
#32 = FACE_OUTER_BOUND ( 'NONE', #549, .T. ) ;
#33 = CARTESIAN_POINT ( 'NONE',  ( 7.500000000000000000, 9.184850993605147944E-16, -2.296212748401287972E-16 ) ) ;
#34 = ADVANCED_FACE ( 'NONE', ( #419 ), #52, .T. ) ;
#35 = DIRECTION ( 'NONE',  ( -1.224646799147353207E-16, -0.000000000000000000, -1.000000000000000000 ) ) ;
#36 = CARTESIAN_POINT ( 'NONE',  ( 2.449293598294708880E-16, 0.000000000000000000, 2.000000000000001776 ) ) ;
#37 = CARTESIAN_POINT ( 'NONE',  ( -19.99999999999998579, 0.000000000000000000, 60.00000000000000000 ) ) ;
#38 = ADVANCED_FACE ( 'NONE', ( #269 ), #574, .T. ) ;
#39 = CIRCLE ( 'NONE', #6, 7.500000000000000000 ) ;
#40 = DIRECTION ( 'NONE',  ( -1.000000000000000000, 0.000000000000000000, 1.224646799147353207E-16 ) ) ;
#41 = FACE_OUTER_BOUND ( 'NONE', #609, .T. ) ;
#42 = EDGE_CURVE ( 'NONE', #57, #167, #273, .T. ) ;
#43 = DIRECTION ( 'NONE',  ( -1.000000000000000000, 0.000000000000000000, 1.224646799147353207E-16 ) ) ;
#44 = ORIENTED_EDGE ( 'NONE', *, *, #364, .T. ) ;
#45 = ADVANCED_FACE ( 'NONE', ( #32 ), #134, .T. ) ;
#46 = CARTESIAN_POINT ( 'NONE',  ( 0.000000000000000000, 0.000000000000000000, 0.000000000000000000 ) ) ;
#47 = EDGE_LOOP ( 'NONE', ( #349, #591, #44, #401 ) ) ;
#48 = AXIS2_PLACEMENT_3D ( 'NONE', #395, #450, #296 ) ;
#49 =( GEOMETRIC_REPRESENTATION_CONTEXT ( 3 ) GLOBAL_UNCERTAINTY_ASSIGNED_CONTEXT ( ( #165 ) ) GLOBAL_UNIT_ASSIGNED_CONTEXT ( ( #468, #366, #111 ) ) REPRESENTATION_CONTEXT ( 'NONE', 'WORKASPACE' ) );
#50 = FACE_OUTER_BOUND ( 'NONE', #441, .T. ) ;
#51 = ORIENTED_EDGE ( 'NONE', *, *, #141, .T. ) ;
#52 = TOROIDAL_SURFACE ( 'NONE', #408, 18.99999999999999289, 1.000000000000000000 ) ;
#53 = CARTESIAN_POINT ( 'NONE',  ( 6.980486755139912911E-15, 0.000000000000000000, 56.99999999999999289 ) ) ;
#54 = ORIENTED_EDGE ( 'NONE', *, *, #465, .T. ) ;
#55 = DIRECTION ( 'NONE',  ( -1.224646799147353207E-16, -0.000000000000000000, -1.000000000000000000 ) ) ;
#56 = DIRECTION ( 'NONE',  ( 1.000000000000000000, 0.000000000000000000, 0.000000000000000000 ) ) ;
#57 = VERTEX_POINT ( 'NONE', #176 ) ;
#58 = DIRECTION ( 'NONE',  ( 1.224646799147353207E-16, 0.000000000000000000, 1.000000000000000000 ) ) ;
#59 = CIRCLE ( 'NONE', #292, 20.00000000000000000 ) ;
#60 = CIRCLE ( 'NONE', #415, 18.99999999999999289 ) ;
#61 = ORIENTED_EDGE ( 'NONE', *, *, #586, .F. ) ;
#62 = DIRECTION ( 'NONE',  ( -1.224646799147353207E-16, -0.000000000000000000, -1.000000000000000000 ) ) ;
#63 = CIRCLE ( 'NONE', #174, 19.00000000000000000 ) ;
#64 = EDGE_LOOP ( 'NONE', ( #406, #237 ) ) ;
#65 = EDGE_CURVE ( 'NONE', #385, #93, #84, .T. ) ;
#66 = ORIENTED_EDGE ( 'NONE', *, *, #543, .F. ) ;
#67 = DIRECTION ( 'NONE',  ( 1.000000000000000000, 0.000000000000000000, 0.000000000000000000 ) ) ;
#68 = CARTESIAN_POINT ( 'NONE',  ( 4.999999999999999112, 6.123233995736765296E-16, -6.123233995736765296E-16 ) ) ;
#69 = VERTEX_POINT ( 'NONE', #266 ) ;
#70 = FILL_AREA_STYLE ('',( #168 ) ) ;
#71 = TOROIDAL_SURFACE ( 'NONE', #424, 19.00000000000000000, 1.000000000000000000 ) ;
#72 = AXIS2_PLACEMENT_3D ( 'NONE', #375, #475, #82 ) ;
#73 = DIRECTION ( 'NONE',  ( -1.224646799147353207E-16, -0.000000000000000000, -1.000000000000000000 ) ) ;
#74 = ORIENTED_EDGE ( 'NONE', *, *, #394, .T. ) ;
#75 = CARTESIAN_POINT ( 'NONE',  ( 1.130048435779182783E-13, 0.000000000000000000, 56.99999999999999289 ) ) ;
#76 = DIRECTION ( 'NONE',  ( -1.000000000000000000, 0.000000000000000000, 1.224646799147352961E-16 ) ) ;
#77 = EDGE_CURVE ( 'NONE', #254, #305, #461, .T. ) ;
#78 = CARTESIAN_POINT ( 'NONE',  ( 7.500000000000007105, 9.184850993605147944E-16, 55.00000000000000000 ) ) ;
#79 = DIRECTION ( 'NONE',  ( -1.224646799147353207E-16, -0.000000000000000000, -1.000000000000000000 ) ) ;
#80 = AXIS2_PLACEMENT_3D ( 'NONE', #75, #457, #268 ) ;
#81 = EDGE_CURVE ( 'NONE', #110, #146, #377, .T. ) ;
#82 = DIRECTION ( 'NONE',  ( -1.000000000000000000, 0.000000000000000000, 0.000000000000000000 ) ) ;
#83 = EDGE_LOOP ( 'NONE', ( #8, #560 ) ) ;
#84 = CIRCLE ( 'NONE', #209, 5.000000000000000000 ) ;
#85 = DIRECTION ( 'NONE',  ( 1.000000000000000000, 0.000000000000000000, 0.000000000000000000 ) ) ;
#86 = DIRECTION ( 'NONE',  ( -1.000000000000000000, 0.000000000000000000, 1.141265444721583511E-16 ) ) ;
#87 = CARTESIAN_POINT ( 'NONE',  ( 0.000000000000000000, 0.000000000000000000, 0.000000000000000000 ) ) ;
#88 = CARTESIAN_POINT ( 'NONE',  ( 6.123233995736770227E-16, 0.000000000000000000, 5.000000000000002665 ) ) ;
#89 = AXIS2_PLACEMENT_3D ( 'NONE', #493, #265, #596 ) ;
#90 = CYLINDRICAL_SURFACE ( 'NONE', #310, 4.999999999999999112 ) ;
#91 = VERTEX_POINT ( 'NONE', #37 ) ;
#92 = PRESENTATION_LAYER_ASSIGNMENT (  '', '', ( #616 ) ) ;
#93 = VERTEX_POINT ( 'NONE', #224 ) ;
#94 = PRODUCT_DEFINITION ( '未知', '', #534, #240 ) ;
#95 = DIRECTION ( 'NONE',  ( -1.224646799147353207E-16, 0.000000000000000000, -1.000000000000000000 ) ) ;
#96 = VERTEX_POINT ( 'NONE', #612 ) ;
#97 = VECTOR ( 'NONE', #350, 1000.000000000000000 ) ;
#98 = AXIS2_PLACEMENT_3D ( 'NONE', #573, #369, #85 ) ;
#99 = FACE_OUTER_BOUND ( 'NONE', #416, .T. ) ;
#100 = ORIENTED_EDGE ( 'NONE', *, *, #374, .T. ) ;
#101 = ADVANCED_FACE ( 'NONE', ( #425 ), #481, .T. ) ;
#102 = DIRECTION ( 'NONE',  ( -1.224646799147353207E-16, -0.000000000000000000, -1.000000000000000000 ) ) ;
#103 = CARTESIAN_POINT ( 'NONE',  ( 20.00000000000000000, 2.449293598294706513E-15, 1.999999999999999112 ) ) ;
#104 = ORIENTED_EDGE ( 'NONE', *, *, #418, .F. ) ;
#105 = LINE ( 'NONE', #299, #119 ) ;
#106 = ORIENTED_EDGE ( 'NONE', *, *, #601, .F. ) ;
#107 = CARTESIAN_POINT ( 'NONE',  ( 6.980486755139912911E-15, 0.000000000000000000, 57.00000000000000000 ) ) ;
#108 = MECHANICAL_DESIGN_GEOMETRIC_PRESENTATION_REPRESENTATION (  '', ( #616 ), #352 ) ;
#109 = AXIS2_PLACEMENT_3D ( 'NONE', #178, #145, #114 ) ;
#110 = VERTEX_POINT ( 'NONE', #316 ) ;
#111 =( NAMED_UNIT ( * ) SI_UNIT ( $, .STERADIAN. ) SOLID_ANGLE_UNIT ( ) );
#112 = EDGE_CURVE ( 'NONE', #91, #434, #537, .T. ) ;
#113 = ORIENTED_EDGE ( 'NONE', *, *, #567, .T. ) ;
#114 = DIRECTION ( 'NONE',  ( -1.000000000000000000, 0.000000000000000000, 0.000000000000000000 ) ) ;
#115 = VERTEX_POINT ( 'NONE', #632 ) ;
#116 = MANIFOLD_SOLID_BREP ( '圆角2', #337 ) ;
#117 = PLANE ( 'NONE',  #80 ) ;
#118 = EDGE_CURVE ( 'NONE', #338, #536, #225, .T. ) ;
#119 = VECTOR ( 'NONE', #500, 1000.000000000000000 ) ;
#120 = VERTEX_POINT ( 'NONE', #147 ) ;
#121 = DIRECTION ( 'NONE',  ( -1.000000000000000000, 0.000000000000000000, 1.224646799147353207E-16 ) ) ;
#122 = SURFACE_SIDE_STYLE ('',( #403 ) ) ;
#123 = DIRECTION ( 'NONE',  ( -1.224646799147353207E-16, 0.000000000000000000, -1.000000000000000000 ) ) ;
#124 = FACE_OUTER_BOUND ( 'NONE', #605, .T. ) ;
#125 = DIRECTION ( 'NONE',  ( 0.000000000000000000, -1.000000000000000000, 0.000000000000000000 ) ) ;
#126 = CARTESIAN_POINT ( 'NONE',  ( 0.000000000000000000, 0.000000000000000000, 0.000000000000000000 ) ) ;
#127 = AXIS2_PLACEMENT_3D ( 'NONE', #88, #290, #241 ) ;
#128 = CIRCLE ( 'NONE', #293, 20.00000000000000000 ) ;
#129 = ADVANCED_FACE ( 'NONE', ( #50 ), #144, .F. ) ;
#130 = DIRECTION ( 'NONE',  ( -1.224646799147353207E-16, -0.000000000000000000, -1.000000000000000000 ) ) ;
#131 = DIRECTION ( 'NONE',  ( -1.000000000000000000, 0.000000000000000000, 1.314184451497580027E-16 ) ) ;
#132 = VECTOR ( 'NONE', #35, 1000.000000000000000 ) ;
#133 = CYLINDRICAL_SURFACE ( 'NONE', #17, 16.50000000000001066 ) ;
#134 = CYLINDRICAL_SURFACE ( 'NONE', #491, 20.00000000000000000 ) ;
#135 = CARTESIAN_POINT ( 'NONE',  ( 0.000000000000000000, 0.000000000000000000, 0.000000000000000000 ) ) ;
#136 = ADVANCED_FACE ( 'NONE', ( #229 ), #152, .F. ) ;
#137 = DIRECTION ( 'NONE',  ( -1.000000000000000000, 0.000000000000000000, 1.224646799147353207E-16 ) ) ;
#138 = ORIENTED_EDGE ( 'NONE', *, *, #271, .T. ) ;
#139 = CYLINDRICAL_SURFACE ( 'NONE', #217, 19.99999999999999289 ) ;
#140 = DIRECTION ( 'NONE',  ( -1.000000000000000000, 0.000000000000000000, 0.000000000000000000 ) ) ;
#141 = EDGE_CURVE ( 'NONE', #536, #338, #59, .T. ) ;
#142 = ORIENTED_EDGE ( 'NONE', *, *, #211, .F. ) ;
#143 = ADVANCED_FACE ( 'NONE', ( #99, #236 ), #439, .F. ) ;
#144 = CYLINDRICAL_SURFACE ( 'NONE', #180, 7.500000000000000000 ) ;
#145 = DIRECTION ( 'NONE',  ( -1.224646799147353207E-16, -0.000000000000000000, -1.000000000000000000 ) ) ;
#146 = VERTEX_POINT ( 'NONE', #344 ) ;
#147 = CARTESIAN_POINT ( 'NONE',  ( 20.00000000000000000, 2.449293598294705724E-15, 57.99999999999999289 ) ) ;
#148 = ORIENTED_EDGE ( 'NONE', *, *, #625, .F. ) ;
#149 = ADVANCED_FACE ( 'NONE', ( #386 ), #288, .T. ) ;
#150 = CIRCLE ( 'NONE', #423, 16.50000000000000711 ) ;
#151 = VECTOR ( 'NONE', #620, 1000.000000000000000 ) ;
#152 = CYLINDRICAL_SURFACE ( 'NONE', #308, 4.999999999999999112 ) ;
#153 = EDGE_LOOP ( 'NONE', ( #494, #162 ) ) ;
#154 = DIRECTION ( 'NONE',  ( -1.000000000000000000, 0.000000000000000000, 0.000000000000000000 ) ) ;
#155 = CARTESIAN_POINT ( 'NONE',  ( -18.99999999999998579, 2.326828918379970182E-15, 57.99999999999999289 ) ) ;
#156 = ORIENTED_EDGE ( 'NONE', *, *, #230, .F. ) ;
#157 = CARTESIAN_POINT ( 'NONE',  ( 0.000000000000000000, 0.000000000000000000, 0.000000000000000000 ) ) ;
#158 = EDGE_CURVE ( 'NONE', #93, #385, #160, .T. ) ;
#159 = ORIENTED_EDGE ( 'NONE', *, *, #24, .T. ) ;
#160 = CIRCLE ( 'NONE', #127, 5.000000000000000000 ) ;
#161 = CIRCLE ( 'NONE', #613, 7.500000000000000000 ) ;
#162 = ORIENTED_EDGE ( 'NONE', *, *, #418, .T. ) ;
#163 = VERTEX_POINT ( 'NONE', #331 ) ;
#164 = EDGE_CURVE ( 'NONE', #382, #19, #392, .T. ) ;
#165 = UNCERTAINTY_MEASURE_WITH_UNIT (LENGTH_MEASURE( 1.000000000000000082E-05 ), #468, 'distance_accuracy_value', 'NONE');
#166 = DIRECTION ( 'NONE',  ( -1.000000000000000000, 0.000000000000000000, 1.224646799147352961E-16 ) ) ;
#167 = VERTEX_POINT ( 'NONE', #489 ) ;
#168 = FILL_AREA_STYLE_COLOUR ( '', #546 ) ;
#169 = ADVANCED_FACE ( 'NONE', ( #479, #41 ), #533, .F. ) ;
#170 = DIRECTION ( 'NONE',  ( -1.224646799147353207E-16, -0.000000000000000000, -1.000000000000000000 ) ) ;
#171 = CIRCLE ( 'NONE', #353, 1.000000000000000888 ) ;
#172 = DIRECTION ( 'NONE',  ( -1.000000000000000000, 0.000000000000000000, 1.156482317317871478E-16 ) ) ;
#173 = EDGE_LOOP ( 'NONE', ( #602, #474, #113, #159 ) ) ;
#174 = AXIS2_PLACEMENT_3D ( 'NONE', #318, #413, #182 ) ;
#175 = DIRECTION ( 'NONE',  ( -1.000000000000000000, 0.000000000000000000, 1.301042606982605321E-16 ) ) ;
#176 = CARTESIAN_POINT ( 'NONE',  ( -7.499999999999999112, 0.000000000000000000, 5.000000000000002665 ) ) ;
#177 = EDGE_CURVE ( 'NONE', #542, #115, #5, .T. ) ;
#178 = CARTESIAN_POINT ( 'NONE',  ( 6.735557395310442615E-15, 0.000000000000000000, 55.00000000000000000 ) ) ;
#179 = DIRECTION ( 'NONE',  ( 1.000000000000000000, 0.000000000000000000, 0.000000000000000000 ) ) ;
#180 = AXIS2_PLACEMENT_3D ( 'NONE', #436, #381, #482 ) ;
#181 = DIRECTION ( 'NONE',  ( -1.224646799147353207E-16, -0.000000000000000000, -1.000000000000000000 ) ) ;
#182 = DIRECTION ( 'NONE',  ( -1.000000000000000000, 0.000000000000000000, 1.141265444721583511E-16 ) ) ;
#183 = LINE ( 'NONE', #378, #198 ) ;
#184 = CARTESIAN_POINT ( 'NONE',  ( 7.347880794884118356E-15, 0.000000000000000000, 60.00000000000000000 ) ) ;
#185 = ORIENTED_EDGE ( 'NONE', *, *, #235, .F. ) ;
#186 = LINE ( 'NONE', #325, #261 ) ;
#187 = DIRECTION ( 'NONE',  ( -1.000000000000000000, 0.000000000000000000, 1.224646799147353207E-16 ) ) ;
#188 = PLANE ( 'NONE',  #239 ) ;
#189 = ORIENTED_EDGE ( 'NONE', *, *, #177, .F. ) ;
#190 = AXIS2_PLACEMENT_3D ( 'NONE', #231, #130, #518 ) ;
#191 = DIRECTION ( 'NONE',  ( -1.224646799147353207E-16, -0.000000000000000000, -1.000000000000000000 ) ) ;
#192 = ORIENTED_EDGE ( 'NONE', *, *, #177, .T. ) ;
#193 =( NAMED_UNIT ( * ) PLANE_ANGLE_UNIT ( ) SI_UNIT ( $, .RADIAN. ) );
#194 = EDGE_LOOP ( 'NONE', ( #258, #398 ) ) ;
#195 = SURFACE_SIDE_STYLE ('',( #1 ) ) ;
#196 = CARTESIAN_POINT ( 'NONE',  ( -16.50000000000001066, 0.000000000000000000, 2.020667218593134283E-15 ) ) ;
#197 = ORIENTED_EDGE ( 'NONE', *, *, #414, .F. ) ;
#198 = VECTOR ( 'NONE', #280, 1000.000000000000000 ) ;
#199 = CARTESIAN_POINT ( 'NONE',  ( 7.347880794884118356E-15, 0.000000000000000000, 60.00000000000000000 ) ) ;
#200 = FACE_BOUND ( 'NONE', #83, .T. ) ;
#201 = ORIENTED_EDGE ( 'NONE', *, *, #465, .F. ) ;
#202 = AXIS2_PLACEMENT_3D ( 'NONE', #516, #485, #538 ) ;
#203 = CARTESIAN_POINT ( 'NONE',  ( 7.500000000000000000, 9.184850993605147944E-16, -9.184850993605147944E-16 ) ) ;
#204 = ORIENTED_EDGE ( 'NONE', *, *, #460, .F. ) ;
#205 = EDGE_LOOP ( 'NONE', ( #156, #326, #300, #453 ) ) ;
#206 = ORIENTED_EDGE ( 'NONE', *, *, #543, .T. ) ;
#207 =( LENGTH_UNIT ( ) NAMED_UNIT ( * ) SI_UNIT ( .MILLI., .METRE. ) );
#208 = DIRECTION ( 'NONE',  ( 1.000000000000000000, 0.000000000000000000, -1.224646799147353207E-16 ) ) ;
#209 = AXIS2_PLACEMENT_3D ( 'NONE', #322, #376, #525 ) ;
#210 = ORIENTED_EDGE ( 'NONE', *, *, #446, .F. ) ;
#211 = EDGE_CURVE ( 'NONE', #638, #57, #238, .T. ) ;
#212 = CARTESIAN_POINT ( 'NONE',  ( -19.99999999999999289, 0.000000000000000000, 2.449293598294705724E-15 ) ) ;
#213 = ORIENTED_EDGE ( 'NONE', *, *, #77, .F. ) ;
#214 = DIRECTION ( 'NONE',  ( 1.000000000000000000, 0.000000000000000000, 0.000000000000000000 ) ) ;
#215 = FACE_OUTER_BOUND ( 'NONE', #64, .T. ) ;
#216 = CARTESIAN_POINT ( 'NONE',  ( -7.500000000000000000, 0.000000000000000000, 9.184850993605147944E-16 ) ) ;
#217 = AXIS2_PLACEMENT_3D ( 'NONE', #135, #181, #40 ) ;
#218 = DIRECTION ( 'NONE',  ( 0.000000000000000000, 0.000000000000000000, -1.000000000000000000 ) ) ;
#219 = CYLINDRICAL_SURFACE ( 'NONE', #327, 7.500000000000000000 ) ;
#220 = AXIS2_PLACEMENT_3D ( 'NONE', #126, #615, #580 ) ;
#221 = CARTESIAN_POINT ( 'NONE',  ( -20.00000000000000000, 0.000000000000000000, 2.449293598294706513E-15 ) ) ;
#222 = CARTESIAN_POINT ( 'NONE',  ( 0.000000000000000000, 0.000000000000000000, 0.000000000000000000 ) ) ;
#223 = DIRECTION ( 'NONE',  ( 1.000000000000000000, 0.000000000000000000, -1.224646799147353207E-16 ) ) ;
#224 = CARTESIAN_POINT ( 'NONE',  ( -4.999999999999999112, 0.000000000000000000, 5.000000000000003553 ) ) ;
#225 = CIRCLE ( 'NONE', #509, 20.00000000000000000 ) ;
#226 = CIRCLE ( 'NONE', #72, 16.50000000000000711 ) ;
#227 = AXIS2_PLACEMENT_3D ( 'NONE', #272, #31, #218 ) ;
#228 = CARTESIAN_POINT ( 'NONE',  ( 1.546626043904521120E-31, 0.000000000000000000, 1.262916005644519228E-15 ) ) ;
#229 = FACE_OUTER_BOUND ( 'NONE', #340, .T. ) ;
#230 = EDGE_CURVE ( 'NONE', #19, #382, #531, .T. ) ;
#231 = CARTESIAN_POINT ( 'NONE',  ( 3.673940397442062333E-16, 0.000000000000000000, 3.000000000000002220 ) ) ;
#232 = EDGE_CURVE ( 'NONE', #115, #431, #492, .T. ) ;
#233 = CARTESIAN_POINT ( 'NONE',  ( 2.249637210061747473E-31, 0.000000000000000000, 1.836968186768652458E-15 ) ) ;
#234 = ORIENTED_EDGE ( 'NONE', *, *, #81, .F. ) ;
#235 = EDGE_CURVE ( 'NONE', #115, #542, #455, .T. ) ;
#236 = FACE_BOUND ( 'NONE', #342, .T. ) ;
#237 = ORIENTED_EDGE ( 'NONE', *, *, #625, .T. ) ;
#238 = CIRCLE ( 'NONE', #321, 7.500000000000000000 ) ;
#239 = AXIS2_PLACEMENT_3D ( 'NONE', #313, #610, #264 ) ;
#240 = PRODUCT_DEFINITION_CONTEXT ( 'detailed design', #483, 'design' ) ;
#241 = DIRECTION ( 'NONE',  ( -1.000000000000000000, 0.000000000000000000, 1.734723475976807094E-16 ) ) ;
#242 = ORIENTED_EDGE ( 'NONE', *, *, #607, .T. ) ;
#243 = DIRECTION ( 'NONE',  ( -1.000000000000000000, 0.000000000000000000, 1.224646799147353207E-16 ) ) ;
#244 = DIRECTION ( 'NONE',  ( -1.224646799147353207E-16, -0.000000000000000000, -1.000000000000000000 ) ) ;
#245 = ORIENTED_EDGE ( 'NONE', *, *, #540, .T. ) ;
#246 = UNCERTAINTY_MEASURE_WITH_UNIT (LENGTH_MEASURE( 1.000000000000000082E-05 ), #336, 'distance_accuracy_value', 'NONE');
#247 = DIRECTION ( 'NONE',  ( 1.000000000000000000, 0.000000000000000000, -1.224646799147353207E-16 ) ) ;
#248 = CARTESIAN_POINT ( 'NONE',  ( -18.99999999999998579, 2.388061258337338150E-15, 56.99999999999999289 ) ) ;
#249 = ORIENTED_EDGE ( 'NONE', *, *, #235, .T. ) ;
#250 = ADVANCED_FACE ( 'NONE', ( #12 ), #71, .T. ) ;
#251 = APPLICATION_CONTEXT ( 'automotive_design' ) ;
#252 = CIRCLE ( 'NONE', #623, 7.500000000000000000 ) ;
#253 = AXIS2_PLACEMENT_3D ( 'NONE', #348, #244, #25 ) ;
#254 = VERTEX_POINT ( 'NONE', #554 ) ;
#255 = CARTESIAN_POINT ( 'NONE',  ( 2.449293598294709373E-16, 0.000000000000000000, 2.000000000000002220 ) ) ;
#256 = VERTEX_POINT ( 'NONE', #448 ) ;
#257 = FACE_BOUND ( 'NONE', #153, .T. ) ;
#258 = ORIENTED_EDGE ( 'NONE', *, *, #164, .T. ) ;
#259 = CARTESIAN_POINT ( 'NONE',  ( -4.999999999999999112, 0.000000000000000000, 6.123233995736765296E-16 ) ) ;
#260 = DIRECTION ( 'NONE',  ( -1.224646799147353207E-16, -0.000000000000000000, -1.000000000000000000 ) ) ;
#261 = VECTOR ( 'NONE', #528, 1000.000000000000000 ) ;
#262 = EDGE_CURVE ( 'NONE', #256, #69, #150, .T. ) ;
#263 = EDGE_LOOP ( 'NONE', ( #286, #333 ) ) ;
#264 = DIRECTION ( 'NONE',  ( -1.000000000000000000, 0.000000000000000000, 1.224646799147353207E-16 ) ) ;
#265 = DIRECTION ( 'NONE',  ( -1.224646799147353207E-16, -0.000000000000000000, -1.000000000000000000 ) ) ;
#266 = CARTESIAN_POINT ( 'NONE',  ( 16.50000000000001421, 2.020667218593134283E-15, 57.00000000000000000 ) ) ;
#267 = FACE_OUTER_BOUND ( 'NONE', #484, .T. ) ;
#268 = DIRECTION ( 'NONE',  ( 1.000000000000000000, 0.000000000000000000, -1.224646799147353207E-16 ) ) ;
#269 = FACE_OUTER_BOUND ( 'NONE', #173, .T. ) ;
#270 =( NAMED_UNIT ( * ) SI_UNIT ( $, .STERADIAN. ) SOLID_ANGLE_UNIT ( ) );
#271 = EDGE_CURVE ( 'NONE', #638, #354, #105, .T. ) ;
#272 = CARTESIAN_POINT ( 'NONE',  ( -19.00000000000000000, 0.000000000000000000, 2.000000000000004441 ) ) ;
#273 = LINE ( 'NONE', #216, #132 ) ;
#274 = AXIS2_PLACEMENT_3D ( 'NONE', #155, #317, #515 ) ;
#275 = CARTESIAN_POINT ( 'NONE',  ( 19.00000000000000000, 2.326828918379970970E-15, 2.000000000000000000 ) ) ;
#276 = DIRECTION ( 'NONE',  ( 1.000000000000000000, 0.000000000000000000, -1.224646799147353207E-16 ) ) ;
#277 = DIRECTION ( 'NONE',  ( -1.224646799147353207E-16, -0.000000000000000000, -1.000000000000000000 ) ) ;
#278 = ADVANCED_FACE ( 'NONE', ( #400 ), #495, .F. ) ;
#279 = DIRECTION ( 'NONE',  ( -1.224646799147353207E-16, -0.000000000000000000, -1.000000000000000000 ) ) ;
#280 = DIRECTION ( 'NONE',  ( -1.224646799147353207E-16, -0.000000000000000000, -1.000000000000000000 ) ) ;
#281 = SURFACE_STYLE_USAGE ( .BOTH. , #195 ) ;
#282 = EDGE_CURVE ( 'NONE', #431, #463, #252, .T. ) ;
#283 = CIRCLE ( 'NONE', #98, 19.99999999999999289 ) ;
#284 = DIRECTION ( 'NONE',  ( -1.224646799147353207E-16, -0.000000000000000000, -1.000000000000000000 ) ) ;
#285 = FILL_AREA_STYLE_COLOUR ( '', #287 ) ;
#286 = ORIENTED_EDGE ( 'NONE', *, *, #469, .F. ) ;
#287 = COLOUR_RGB ( '',1.000000000000000000, 1.000000000000000000, 1.000000000000000000 ) ;
#288 = CYLINDRICAL_SURFACE ( 'NONE', #497, 20.00000000000000000 ) ;
#289 = ORIENTED_EDGE ( 'NONE', *, *, #164, .F. ) ;
#290 = DIRECTION ( 'NONE',  ( -1.224646799147353207E-16, -0.000000000000000000, -1.000000000000000000 ) ) ;
#291 = ORIENTED_EDGE ( 'NONE', *, *, #371, .T. ) ;
#292 = AXIS2_PLACEMENT_3D ( 'NONE', #487, #191, #137 ) ;
#293 = AXIS2_PLACEMENT_3D ( 'NONE', #36, #277, #175 ) ;
#294 = DIRECTION ( 'NONE',  ( -1.000000000000000000, 0.000000000000000000, 0.000000000000000000 ) ) ;
#295 = ORIENTED_EDGE ( 'NONE', *, *, #460, .T. ) ;
#296 = DIRECTION ( 'NONE',  ( -1.000000000000000000, 0.000000000000000000, 0.000000000000000000 ) ) ;
#297 = CARTESIAN_POINT ( 'NONE',  ( 7.102951435054648059E-15, 0.000000000000000000, 57.99999999999999289 ) ) ;
#298 = ORIENTED_EDGE ( 'NONE', *, *, #158, .T. ) ;
#299 = CARTESIAN_POINT ( 'NONE',  ( 7.500000000000000000, 9.184850993605147944E-16, -9.184850993605147944E-16 ) ) ;
#300 = ORIENTED_EDGE ( 'NONE', *, *, #65, .T. ) ;
#301 = CIRCLE ( 'NONE', #556, 7.500000000000000000 ) ;
#302 = DIRECTION ( 'NONE',  ( -1.000000000000000000, 0.000000000000000000, 1.156482317317871478E-16 ) ) ;
#303 = ORIENTED_EDGE ( 'NONE', *, *, #446, .T. ) ;
#304 = AXIS2_PLACEMENT_3D ( 'NONE', #467, #365, #179 ) ;
#305 = VERTEX_POINT ( 'NONE', #420 ) ;
#306 = CARTESIAN_POINT ( 'NONE',  ( -7.499999999999992895, 0.000000000000000000, 55.00000000000000000 ) ) ;
#307 = ORIENTED_EDGE ( 'NONE', *, *, #141, .F. ) ;
#308 = AXIS2_PLACEMENT_3D ( 'NONE', #384, #339, #430 ) ;
#309 = CARTESIAN_POINT ( 'NONE',  ( 6.123233995736768255E-16, 0.000000000000000000, 5.000000000000001776 ) ) ;
#310 = AXIS2_PLACEMENT_3D ( 'NONE', #583, #284, #43 ) ;
#311 = ORIENTED_EDGE ( 'NONE', *, *, #364, .F. ) ;
#312 = DIRECTION ( 'NONE',  ( -1.224646799147353207E-16, -0.000000000000000000, -1.000000000000000000 ) ) ;
#313 = CARTESIAN_POINT ( 'NONE',  ( 3.717264591378890940E-16, 0.000000000000000000, 3.000000000000002220 ) ) ;
#314 = LINE ( 'NONE', #68, #532 ) ;
#315 = AXIS2_PLACEMENT_3D ( 'NONE', #624, #22, #86 ) ;
#316 = CARTESIAN_POINT ( 'NONE',  ( -19.00000000000000000, 0.000000000000000000, 3.000000000000004441 ) ) ;
#317 = DIRECTION ( 'NONE',  ( 1.224646799147353207E-16, 1.000000000000000000, -1.499759782661857608E-32 ) ) ;
#318 = CARTESIAN_POINT ( 'NONE',  ( 3.673940397442061840E-16, 0.000000000000000000, 3.000000000000002220 ) ) ;
#319 = ADVANCED_FACE ( 'NONE', ( #330 ), #139, .T. ) ;
#320 = DIRECTION ( 'NONE',  ( 0.000000000000000000, 0.000000000000000000, -1.000000000000000000 ) ) ;
#321 = AXIS2_PLACEMENT_3D ( 'NONE', #595, #102, #302 ) ;
#322 = CARTESIAN_POINT ( 'NONE',  ( 6.123233995736770227E-16, 0.000000000000000000, 5.000000000000002665 ) ) ;
#323 = CIRCLE ( 'NONE', #577, 19.99999999999999289 ) ;
#324 = ADVANCED_FACE ( 'NONE', ( #427, #422 ), #630, .F. ) ;
#325 = CARTESIAN_POINT ( 'NONE',  ( 19.99999999999999289, 2.449293598294705724E-15, -2.449293598294705724E-15 ) ) ;
#326 = ORIENTED_EDGE ( 'NONE', *, *, #535, .T. ) ;
#327 = AXIS2_PLACEMENT_3D ( 'NONE', #222, #79, #76 ) ;
#328 = CARTESIAN_POINT ( 'NONE',  ( 6.735557395310442615E-15, 0.000000000000000000, 55.00000000000000000 ) ) ;
#329 = ORIENTED_EDGE ( 'NONE', *, *, #42, .T. ) ;
#330 = FACE_OUTER_BOUND ( 'NONE', #47, .T. ) ;
#331 = CARTESIAN_POINT ( 'NONE',  ( -19.99999999999998579, 0.000000000000000000, 57.99999999999999289 ) ) ;
#332 = AXIS2_PLACEMENT_3D ( 'NONE', #157, #429, #581 ) ;
#333 = ORIENTED_EDGE ( 'NONE', *, *, #572, .F. ) ;
#334 = VECTOR ( 'NONE', #548, 1000.000000000000000 ) ;
#335 =( GEOMETRIC_REPRESENTATION_CONTEXT ( 3 ) GLOBAL_UNCERTAINTY_ASSIGNED_CONTEXT ( ( #561 ) ) GLOBAL_UNIT_ASSIGNED_CONTEXT ( ( #207, #355, #270 ) ) REPRESENTATION_CONTEXT ( 'NONE', 'WORKASPACE' ) );
#336 =( LENGTH_UNIT ( ) NAMED_UNIT ( * ) SI_UNIT ( .MILLI., .METRE. ) );
#337 = CLOSED_SHELL ( 'NONE', ( #101, #34, #411, #129, #149, #388, #319, #506, #590, #278, #143, #38, #499, #618, #604, #45, #324, #13, #169, #136, #598, #250 ) ) ;
#338 = VERTEX_POINT ( 'NONE', #372 ) ;
#339 = DIRECTION ( 'NONE',  ( -1.224646799147353207E-16, -0.000000000000000000, -1.000000000000000000 ) ) ;
#340 = EDGE_LOOP ( 'NONE', ( #619, #289, #242, #298 ) ) ;
#341 = DIRECTION ( 'NONE',  ( -1.224646799147353207E-16, -0.000000000000000000, -1.000000000000000000 ) ) ;
#342 = EDGE_LOOP ( 'NONE', ( #192, #249 ) ) ;
#343 = AXIS2_PLACEMENT_3D ( 'NONE', #199, #442, #154 ) ;
#344 = CARTESIAN_POINT ( 'NONE',  ( 19.00000000000000000, 2.388061258337338939E-15, 3.000000000000000000 ) ) ;
#345 = PLANE ( 'NONE',  #498 ) ;
#346 = ORIENTED_EDGE ( 'NONE', *, *, #65, .F. ) ;
#347 = DIRECTION ( 'NONE',  ( -1.000000000000000000, 0.000000000000000000, 1.224646799147353207E-16 ) ) ;
#348 = CARTESIAN_POINT ( 'NONE',  ( 2.449293598294708880E-16, 0.000000000000000000, 2.000000000000001776 ) ) ;
#349 = ORIENTED_EDGE ( 'NONE', *, *, #112, .T. ) ;
#350 = DIRECTION ( 'NONE',  ( -1.224646799147353207E-16, -0.000000000000000000, -1.000000000000000000 ) ) ;
#351 = ORIENTED_EDGE ( 'NONE', *, *, #432, .T. ) ;
#352 =( GEOMETRIC_REPRESENTATION_CONTEXT ( 3 ) GLOBAL_UNCERTAINTY_ASSIGNED_CONTEXT ( ( #246 ) ) GLOBAL_UNIT_ASSIGNED_CONTEXT ( ( #336, #193, #428 ) ) REPRESENTATION_CONTEXT ( 'NONE', 'WORKASPACE' ) );
#353 = AXIS2_PLACEMENT_3D ( 'NONE', #417, #125, #320 ) ;
#354 = VERTEX_POINT ( 'NONE', #33 ) ;
#355 =( NAMED_UNIT ( * ) PLANE_ANGLE_UNIT ( ) SI_UNIT ( $, .RADIAN. ) );
#356 = EDGE_LOOP ( 'NONE', ( #51, #557 ) ) ;
#357 = LINE ( 'NONE', #259, #456 ) ;
#358 = EDGE_CURVE ( 'NONE', #434, #120, #186, .T. ) ;
#359 = DIRECTION ( 'NONE',  ( -1.000000000000000000, 0.000000000000000000, 0.000000000000000000 ) ) ;
#360 = EDGE_LOOP ( 'NONE', ( #370, #346 ) ) ;
#361 = CARTESIAN_POINT ( 'NONE',  ( 7.500000000000001776, 9.184850993605149917E-16, 5.000000000000000888 ) ) ;
#362 = LINE ( 'NONE', #2, #334 ) ;
#363 = VECTOR ( 'NONE', #73, 1000.000000000000000 ) ;
#364 = EDGE_CURVE ( 'NONE', #120, #163, #283, .T. ) ;
#365 = DIRECTION ( 'NONE',  ( 1.224646799147353207E-16, 0.000000000000000000, 1.000000000000000000 ) ) ;
#366 =( NAMED_UNIT ( * ) PLANE_ANGLE_UNIT ( ) SI_UNIT ( $, .RADIAN. ) );
#367 = FACE_BOUND ( 'NONE', #194, .T. ) ;
#368 = CARTESIAN_POINT ( 'NONE',  ( 5.000000000000006217, 6.123233995736769241E-16, 55.00000000000000000 ) ) ;
#369 = DIRECTION ( 'NONE',  ( 1.224646799147353207E-16, 0.000000000000000000, 1.000000000000000000 ) ) ;
#370 = ORIENTED_EDGE ( 'NONE', *, *, #158, .F. ) ;
#371 = EDGE_CURVE ( 'NONE', #96, #486, #128, .T. ) ;
#372 = CARTESIAN_POINT ( 'NONE',  ( 20.00000000000000000, 2.449293598294706513E-15, -6.123254115260540545E-16 ) ) ;
#373 = DIRECTION ( 'NONE',  ( -1.000000000000000000, 0.000000000000000000, 1.224646799147353207E-16 ) ) ;
#374 = EDGE_CURVE ( 'NONE', #69, #256, #226, .T. ) ;
#375 = CARTESIAN_POINT ( 'NONE',  ( 6.980486755139912911E-15, 0.000000000000000000, 57.00000000000000000 ) ) ;
#376 = DIRECTION ( 'NONE',  ( -1.224646799147353207E-16, -0.000000000000000000, -1.000000000000000000 ) ) ;
#377 = CIRCLE ( 'NONE', #315, 19.00000000000000000 ) ;
#378 = CARTESIAN_POINT ( 'NONE',  ( 20.00000000000000000, 2.449293598294706513E-15, -2.449293598294706513E-15 ) ) ;
#379 = ORIENTED_EDGE ( 'NONE', *, *, #30, .F. ) ;
#380 = DIRECTION ( 'NONE',  ( -1.224646799147353207E-16, -0.000000000000000000, -1.000000000000000000 ) ) ;
#381 = DIRECTION ( 'NONE',  ( -1.224646799147353207E-16, -0.000000000000000000, -1.000000000000000000 ) ) ;
#382 = VERTEX_POINT ( 'NONE', #626 ) ;
#383 = AXIS2_PLACEMENT_3D ( 'NONE', #275, #617, #480 ) ;
#384 = CARTESIAN_POINT ( 'NONE',  ( 0.000000000000000000, 0.000000000000000000, 0.000000000000000000 ) ) ;
#385 = VERTEX_POINT ( 'NONE', #576 ) ;
#386 = FACE_OUTER_BOUND ( 'NONE', #444, .T. ) ;
#387 = EDGE_LOOP ( 'NONE', ( #379, #594, #14, #3 ) ) ;
#388 = ADVANCED_FACE ( 'NONE', ( #579 ), #133, .T. ) ;
#389 = PRESENTATION_STYLE_ASSIGNMENT (( #281 ) ) ;
#390 = LINE ( 'NONE', #212, #363 ) ;
#391 = EDGE_LOOP ( 'NONE', ( #519, #189, #633, #295 ) ) ;
#392 = CIRCLE ( 'NONE', #445, 4.999999999999999112 ) ;
#393 = VECTOR ( 'NONE', #170, 1000.000000000000000 ) ;
#394 = EDGE_CURVE ( 'NONE', #486, #338, #183, .T. ) ;
#395 = CARTESIAN_POINT ( 'NONE',  ( 6.735557395310442615E-15, 0.000000000000000000, 55.00000000000000000 ) ) ;
#396 = PRODUCT_DEFINITION_SHAPE ( 'NONE', 'NONE',  #94 ) ;
#397 = FACE_OUTER_BOUND ( 'NONE', #582, .T. ) ;
#398 = ORIENTED_EDGE ( 'NONE', *, *, #230, .T. ) ;
#399 = AXIS2_PLACEMENT_3D ( 'NONE', #578, #279, #131 ) ;
#400 = FACE_OUTER_BOUND ( 'NONE', #391, .T. ) ;
#401 = ORIENTED_EDGE ( 'NONE', *, *, #567, .F. ) ;
#402 = ORIENTED_EDGE ( 'NONE', *, *, #437, .F. ) ;
#403 = SURFACE_STYLE_FILL_AREA ( #70 ) ;
#404 = CIRCLE ( 'NONE', #109, 7.500000000000000000 ) ;
#405 = MECHANICAL_DESIGN_GEOMETRIC_PRESENTATION_REPRESENTATION (  '', ( #9 ), #335 ) ;
#406 = ORIENTED_EDGE ( 'NONE', *, *, #601, .T. ) ;
#407 = DIRECTION ( 'NONE',  ( -1.000000000000000000, 0.000000000000000000, 1.224646799147353207E-16 ) ) ;
#408 = AXIS2_PLACEMENT_3D ( 'NONE', #571, #26, #276 ) ;
#409 = DIRECTION ( 'NONE',  ( -1.224646799147353207E-16, -0.000000000000000000, -1.000000000000000000 ) ) ;
#410 = ORIENTED_EDGE ( 'NONE', *, *, #282, .T. ) ;
#411 = ADVANCED_FACE ( 'NONE', ( #477 ), #90, .F. ) ;
#412 = CARTESIAN_POINT ( 'NONE',  ( 8.436148777472947676E-32, 0.000000000000000000, 6.888638245203859972E-16 ) ) ;
#413 = DIRECTION ( 'NONE',  ( 1.224646799147353207E-16, 0.000000000000000000, 1.000000000000000000 ) ) ;
#414 = EDGE_CURVE ( 'NONE', #146, #486, #426, .T. ) ;
#415 = AXIS2_PLACEMENT_3D ( 'NONE', #23, #454, #214 ) ;
#416 = EDGE_LOOP ( 'NONE', ( #458, #629 ) ) ;
#417 = CARTESIAN_POINT ( 'NONE',  ( 19.00000000000000000, 0.000000000000000000, 57.99999999999999289 ) ) ;
#418 = EDGE_CURVE ( 'NONE', #305, #254, #447, .T. ) ;
#419 = FACE_OUTER_BOUND ( 'NONE', #11, .T. ) ;
#420 = CARTESIAN_POINT ( 'NONE',  ( 16.50000000000001421, 2.020667218593134283E-15, 3.000000000000000000 ) ) ;
#421 = DIRECTION ( 'NONE',  ( -1.224646799147353207E-16, -0.000000000000000000, -1.000000000000000000 ) ) ;
#422 = FACE_OUTER_BOUND ( 'NONE', #356, .T. ) ;
#423 = AXIS2_PLACEMENT_3D ( 'NONE', #107, #10, #551 ) ;
#424 = AXIS2_PLACEMENT_3D ( 'NONE', #255, #55, #347 ) ;
#425 = FACE_OUTER_BOUND ( 'NONE', #387, .T. ) ;
#426 = CIRCLE ( 'NONE', #383, 1.000000000000000888 ) ;
#427 = FACE_BOUND ( 'NONE', #263, .T. ) ;
#428 =( NAMED_UNIT ( * ) SI_UNIT ( $, .STERADIAN. ) SOLID_ANGLE_UNIT ( ) );
#429 = DIRECTION ( 'NONE',  ( -1.224646799147353207E-16, -0.000000000000000000, -1.000000000000000000 ) ) ;
#430 = DIRECTION ( 'NONE',  ( -1.000000000000000000, 0.000000000000000000, 1.224646799147353207E-16 ) ) ;
#431 = VERTEX_POINT ( 'NONE', #78 ) ;
#432 = EDGE_CURVE ( 'NONE', #110, #96, #585, .T. ) ;
#433 = DIRECTION ( 'NONE',  ( -1.224646799147353207E-16, -0.000000000000000000, -1.000000000000000000 ) ) ;
#434 = VERTEX_POINT ( 'NONE', #473 ) ;
#435 = CIRCLE ( 'NONE', #274, 1.000000000000000888 ) ;
#436 = CARTESIAN_POINT ( 'NONE',  ( 0.000000000000000000, 0.000000000000000000, 0.000000000000000000 ) ) ;
#437 = EDGE_CURVE ( 'NONE', #490, #120, #171, .T. ) ;
#438 = ORIENTED_EDGE ( 'NONE', *, *, #271, .F. ) ;
#439 = PLANE ( 'NONE',  #28 ) ;
#440 = DIRECTION ( 'NONE',  ( -1.000000000000000000, 0.000000000000000000, 1.224646799147352961E-16 ) ) ;
#441 = EDGE_LOOP ( 'NONE', ( #142, #138, #563, #539 ) ) ;
#442 = DIRECTION ( 'NONE',  ( -1.224646799147353207E-16, -0.000000000000000000, -1.000000000000000000 ) ) ;
#443 = FACE_OUTER_BOUND ( 'NONE', #545, .T. ) ;
#444 = EDGE_LOOP ( 'NONE', ( #291, #74, #307, #210 ) ) ;
#445 = AXIS2_PLACEMENT_3D ( 'NONE', #635, #341, #294 ) ;
#446 = EDGE_CURVE ( 'NONE', #96, #536, #522, .T. ) ;
#447 = CIRCLE ( 'NONE', #190, 16.50000000000001421 ) ;
#448 = CARTESIAN_POINT ( 'NONE',  ( -16.50000000000000000, 0.000000000000000000, 57.00000000000000000 ) ) ;
#449 = ORIENTED_EDGE ( 'NONE', *, *, #24, .F. ) ;
#450 = DIRECTION ( 'NONE',  ( -1.224646799147353207E-16, -0.000000000000000000, -1.000000000000000000 ) ) ;
#451 = ORIENTED_EDGE ( 'NONE', *, *, #540, .F. ) ;
#452 = CARTESIAN_POINT ( 'NONE',  ( 0.000000000000000000, 0.000000000000000000, 0.000000000000000000 ) ) ;
#453 = ORIENTED_EDGE ( 'NONE', *, *, #607, .F. ) ;
#454 = DIRECTION ( 'NONE',  ( -1.224646799147353207E-16, -0.000000000000000000, -1.000000000000000000 ) ) ;
#455 = CIRCLE ( 'NONE', #343, 7.500000000000000000 ) ;
#456 = VECTOR ( 'NONE', #312, 1000.000000000000000 ) ;
#457 = DIRECTION ( 'NONE',  ( 1.224646799147353207E-16, 0.000000000000000000, 1.000000000000000000 ) ) ;
#458 = ORIENTED_EDGE ( 'NONE', *, *, #112, .F. ) ;
#459 = LINE ( 'NONE', #27, #565 ) ;
#460 = EDGE_CURVE ( 'NONE', #463, #431, #404, .T. ) ;
#461 = CIRCLE ( 'NONE', #399, 16.50000000000001421 ) ;
#462 = CARTESIAN_POINT ( 'NONE',  ( -7.499999999999992895, 0.000000000000000000, 60.00000000000000000 ) ) ;
#463 = VERTEX_POINT ( 'NONE', #306 ) ;
#464 = DIRECTION ( 'NONE',  ( -1.224646799147353207E-16, -0.000000000000000000, -1.000000000000000000 ) ) ;
#465 = EDGE_CURVE ( 'NONE', #69, #305, #362, .T. ) ;
#466 = DIRECTION ( 'NONE',  ( -1.224646799147353207E-16, -0.000000000000000000, -1.000000000000000000 ) ) ;
#467 = CARTESIAN_POINT ( 'NONE',  ( 7.102951435054648059E-15, 0.000000000000000000, 57.99999999999999289 ) ) ;
#468 =( LENGTH_UNIT ( ) NAMED_UNIT ( * ) SI_UNIT ( .MILLI., .METRE. ) );
#469 = EDGE_CURVE ( 'NONE', #167, #354, #301, .T. ) ;
#470 = DIRECTION ( 'NONE',  ( -1.000000000000000000, 0.000000000000000000, 0.000000000000000000 ) ) ;
#471 = AXIS2_PLACEMENT_3D ( 'NONE', #228, #530, #223 ) ;
#472 = ORIENTED_EDGE ( 'NONE', *, *, #211, .T. ) ;
#473 = CARTESIAN_POINT ( 'NONE',  ( 20.00000000000000000, 2.449293598294705724E-15, 60.00000000000000000 ) ) ;
#474 = ORIENTED_EDGE ( 'NONE', *, *, #513, .T. ) ;
#475 = DIRECTION ( 'NONE',  ( -1.224646799147353207E-16, -0.000000000000000000, -1.000000000000000000 ) ) ;
#476 = ORIENTED_EDGE ( 'NONE', *, *, #262, .T. ) ;
#477 = FACE_OUTER_BOUND ( 'NONE', #205, .T. ) ;
#478 = AXIS2_PLACEMENT_3D ( 'NONE', #452, #464, #407 ) ;
#479 = FACE_BOUND ( 'NONE', #360, .T. ) ;
#480 = DIRECTION ( 'NONE',  ( -1.000000000000000000, -1.224646799147353454E-16, 0.000000000000000000 ) ) ;
#481 = TOROIDAL_SURFACE ( 'NONE', #202, 19.00000000000000000, 1.000000000000000000 ) ;
#482 = DIRECTION ( 'NONE',  ( -1.000000000000000000, 0.000000000000000000, 1.224646799147352961E-16 ) ) ;
#483 = APPLICATION_CONTEXT ( 'automotive_design' ) ;
#484 = EDGE_LOOP ( 'NONE', ( #201, #100, #587, #104 ) ) ;
#485 = DIRECTION ( 'NONE',  ( -1.224646799147353207E-16, -0.000000000000000000, -1.000000000000000000 ) ) ;
#486 = VERTEX_POINT ( 'NONE', #103 ) ;
#487 = CARTESIAN_POINT ( 'NONE',  ( 2.249637210061747473E-31, 0.000000000000000000, 1.836968186768652458E-15 ) ) ;
#488 = EDGE_LOOP ( 'NONE', ( #204, #600 ) ) ;
#489 = CARTESIAN_POINT ( 'NONE',  ( -7.500000000000000000, 0.000000000000000000, 1.607348923880900792E-15 ) ) ;
#490 = VERTEX_POINT ( 'NONE', #7 ) ;
#491 = AXIS2_PLACEMENT_3D ( 'NONE', #529, #421, #373 ) ;
#492 = LINE ( 'NONE', #203, #97 ) ;
#493 = CARTESIAN_POINT ( 'NONE',  ( 0.000000000000000000, 0.000000000000000000, 0.000000000000000000 ) ) ;
#494 = ORIENTED_EDGE ( 'NONE', *, *, #77, .T. ) ;
#495 = CYLINDRICAL_SURFACE ( 'NONE', #332, 7.500000000000000000 ) ;
#496 = ORIENTED_EDGE ( 'NONE', *, *, #631, .F. ) ;
#497 = AXIS2_PLACEMENT_3D ( 'NONE', #46, #433, #628 ) ;
#498 = AXIS2_PLACEMENT_3D ( 'NONE', #559, #123, #121 ) ;
#499 = ADVANCED_FACE ( 'NONE', ( #215, #200 ), #117, .F. ) ;
#500 = DIRECTION ( 'NONE',  ( -1.224646799147353207E-16, -0.000000000000000000, -1.000000000000000000 ) ) ;
#501 = EDGE_LOOP ( 'NONE', ( #197, #234, #351, #61 ) ) ;
#502 = APPLICATION_PROTOCOL_DEFINITION ( 'draft international standard', 'automotive_design', 1998, #251 ) ;
#503 = ORIENTED_EDGE ( 'NONE', *, *, #437, .T. ) ;
#504 = DIRECTION ( 'NONE',  ( 0.000000000000000000, 0.000000000000000000, 1.000000000000000000 ) ) ;
#505 = DIRECTION ( 'NONE',  ( -1.224646799147353207E-16, -0.000000000000000000, -1.000000000000000000 ) ) ;
#506 = ADVANCED_FACE ( 'NONE', ( #397 ), #21, .F. ) ;
#507 = VERTEX_POINT ( 'NONE', #248 ) ;
#508 = PRODUCT_CONTEXT ( 'NONE', #251, 'mechanical' ) ;
#509 = AXIS2_PLACEMENT_3D ( 'NONE', #233, #544, #243 ) ;
#510 = AXIS2_PLACEMENT_3D ( 'NONE', #297, #18, #208 ) ;
#511 = DIRECTION ( 'NONE',  ( -1.224646799147353207E-16, -0.000000000000000000, -1.000000000000000000 ) ) ;
#512 = PRESENTATION_LAYER_ASSIGNMENT (  '', '', ( #9 ) ) ;
#513 = EDGE_CURVE ( 'NONE', #434, #91, #323, .T. ) ;
#514 = EDGE_LOOP ( 'NONE', ( #476, #54, #213, #597 ) ) ;
#515 = DIRECTION ( 'NONE',  ( -1.000000000000000000, 1.224646799147353454E-16, 0.000000000000000000 ) ) ;
#516 = CARTESIAN_POINT ( 'NONE',  ( 2.449293598294709373E-16, 0.000000000000000000, 2.000000000000002220 ) ) ;
#517 = CARTESIAN_POINT ( 'NONE',  ( 0.000000000000000000, 0.000000000000000000, 0.000000000000000000 ) ) ;
#518 = DIRECTION ( 'NONE',  ( -1.000000000000000000, 0.000000000000000000, 1.314184451497580027E-16 ) ) ;
#519 = ORIENTED_EDGE ( 'NONE', *, *, #232, .F. ) ;
#520 = EDGE_CURVE ( 'NONE', #256, #254, #566, .T. ) ;
#521 = AXIS2_PLACEMENT_3D ( 'NONE', #4, #62, #547 ) ;
#522 = LINE ( 'NONE', #221, #151 ) ;
#523 = CIRCLE ( 'NONE', #253, 20.00000000000000000 ) ;
#524 = AXIS2_PLACEMENT_3D ( 'NONE', #517, #504, #67 ) ;
#525 = DIRECTION ( 'NONE',  ( -1.000000000000000000, 0.000000000000000000, 1.734723475976807094E-16 ) ) ;
#526 = DIRECTION ( 'NONE',  ( -1.000000000000000000, 0.000000000000000000, 1.224646799147353207E-16 ) ) ;
#527 = ORIENTED_EDGE ( 'NONE', *, *, #394, .F. ) ;
#528 = DIRECTION ( 'NONE',  ( -1.224646799147353207E-16, -0.000000000000000000, -1.000000000000000000 ) ) ;
#529 = CARTESIAN_POINT ( 'NONE',  ( 0.000000000000000000, 0.000000000000000000, 0.000000000000000000 ) ) ;
#530 = DIRECTION ( 'NONE',  ( 1.224646799147353207E-16, 0.000000000000000000, 1.000000000000000000 ) ) ;
#531 = CIRCLE ( 'NONE', #48, 4.999999999999999112 ) ;
#532 = VECTOR ( 'NONE', #466, 1000.000000000000000 ) ;
#533 = PLANE ( 'NONE',  #575 ) ;
#534 = PRODUCT_DEFINITION_FORMATION_WITH_SPECIFIED_SOURCE ( '任何', '', #553, .NOT_KNOWN. ) ;
#535 = EDGE_CURVE ( 'NONE', #19, #385, #314, .T. ) ;
#536 = VERTEX_POINT ( 'NONE', #562 ) ;
#537 = CIRCLE ( 'NONE', #569, 19.99999999999999289 ) ;
#538 = DIRECTION ( 'NONE',  ( -1.000000000000000000, 0.000000000000000000, 1.224646799147353207E-16 ) ) ;
#539 = ORIENTED_EDGE ( 'NONE', *, *, #42, .F. ) ;
#540 = EDGE_CURVE ( 'NONE', #507, #163, #435, .T. ) ;
#541 = CARTESIAN_POINT ( 'NONE',  ( 2.062169701160054703E-31, 0.000000000000000000, 60.00000000000000000 ) ) ;
#542 = VERTEX_POINT ( 'NONE', #462 ) ;
#543 = EDGE_CURVE ( 'NONE', #57, #638, #39, .T. ) ;
#544 = DIRECTION ( 'NONE',  ( -1.224646799147353207E-16, -0.000000000000000000, -1.000000000000000000 ) ) ;
#545 = EDGE_LOOP ( 'NONE', ( #552, #589 ) ) ;
#546 = COLOUR_RGB ( '',1.000000000000000000, 1.000000000000000000, 1.000000000000000000 ) ;
#547 = DIRECTION ( 'NONE',  ( -1.000000000000000000, 0.000000000000000000, 0.000000000000000000 ) ) ;
#548 = DIRECTION ( 'NONE',  ( -1.224646799147353207E-16, -0.000000000000000000, -1.000000000000000000 ) ) ;
#549 = EDGE_LOOP ( 'NONE', ( #527, #568, #303, #16 ) ) ;
#550 = ADVANCED_BREP_SHAPE_REPRESENTATION ( '输送带导向滚', ( #116, #524 ), #49 ) ;
#551 = DIRECTION ( 'NONE',  ( -1.000000000000000000, 0.000000000000000000, 0.000000000000000000 ) ) ;
#552 = ORIENTED_EDGE ( 'NONE', *, *, #81, .T. ) ;
#553 = PRODUCT ( '输送带导向滚', '输送带导向滚', '', ( #508 ) ) ;
#554 = CARTESIAN_POINT ( 'NONE',  ( -16.50000000000001421, 0.000000000000000000, 3.000000000000004441 ) ) ;
#555 = ORIENTED_EDGE ( 'NONE', *, *, #469, .T. ) ;
#556 = AXIS2_PLACEMENT_3D ( 'NONE', #412, #260, #440 ) ;
#557 = ORIENTED_EDGE ( 'NONE', *, *, #118, .T. ) ;
#558 = CYLINDRICAL_SURFACE ( 'NONE', #478, 16.50000000000001066 ) ;
#559 = CARTESIAN_POINT ( 'NONE',  ( 9.373498641636620449E-32, 0.000000000000000000, 55.00000000000000000 ) ) ;
#560 = ORIENTED_EDGE ( 'NONE', *, *, #374, .F. ) ;
#561 = UNCERTAINTY_MEASURE_WITH_UNIT (LENGTH_MEASURE( 1.000000000000000082E-05 ), #207, 'distance_accuracy_value', 'NONE');
#562 = CARTESIAN_POINT ( 'NONE',  ( -20.00000000000000000, 0.000000000000000000, 4.286261785063358971E-15 ) ) ;
#563 = ORIENTED_EDGE ( 'NONE', *, *, #572, .T. ) ;
#564 = PRESENTATION_STYLE_ASSIGNMENT (( #603 ) ) ;
#565 = VECTOR ( 'NONE', #20, 1000.000000000000000 ) ;
#566 = LINE ( 'NONE', #196, #393 ) ;
#567 = EDGE_CURVE ( 'NONE', #91, #163, #390, .T. ) ;
#568 = ORIENTED_EDGE ( 'NONE', *, *, #586, .T. ) ;
#569 = AXIS2_PLACEMENT_3D ( 'NONE', #184, #637, #140 ) ;
#570 = DIRECTION ( 'NONE',  ( -1.224646799147353207E-16, -0.000000000000000000, -1.000000000000000000 ) ) ;
#571 = CARTESIAN_POINT ( 'NONE',  ( 7.102951435054648059E-15, 0.000000000000000000, 57.99999999999999289 ) ) ;
#572 = EDGE_CURVE ( 'NONE', #354, #167, #161, .T. ) ;
#573 = CARTESIAN_POINT ( 'NONE',  ( 7.102951435054648059E-15, 0.000000000000000000, 57.99999999999999289 ) ) ;
#574 = CYLINDRICAL_SURFACE ( 'NONE', #220, 19.99999999999999289 ) ;
#575 = AXIS2_PLACEMENT_3D ( 'NONE', #599, #58, #247 ) ;
#576 = CARTESIAN_POINT ( 'NONE',  ( 5.000000000000000888, 6.123233995736765296E-16, 5.000000000000001776 ) ) ;
#577 = AXIS2_PLACEMENT_3D ( 'NONE', #614, #570, #359 ) ;
#578 = CARTESIAN_POINT ( 'NONE',  ( 3.673940397442062333E-16, 0.000000000000000000, 3.000000000000002220 ) ) ;
#579 = FACE_OUTER_BOUND ( 'NONE', #514, .T. ) ;
#580 = DIRECTION ( 'NONE',  ( -1.000000000000000000, 0.000000000000000000, 1.224646799147353207E-16 ) ) ;
#581 = DIRECTION ( 'NONE',  ( -1.000000000000000000, 0.000000000000000000, 1.224646799147352961E-16 ) ) ;
#582 = EDGE_LOOP ( 'NONE', ( #185, #621, #410, #496 ) ) ;
#583 = CARTESIAN_POINT ( 'NONE',  ( 0.000000000000000000, 0.000000000000000000, 0.000000000000000000 ) ) ;
#584 = PRODUCT_RELATED_PRODUCT_CATEGORY ( 'part', '', ( #553 ) ) ;
#585 = CIRCLE ( 'NONE', #227, 1.000000000000000000 ) ;
#586 = EDGE_CURVE ( 'NONE', #486, #96, #523, .T. ) ;
#587 = ORIENTED_EDGE ( 'NONE', *, *, #520, .T. ) ;
#588 = FILL_AREA_STYLE ('',( #285 ) ) ;
#589 = ORIENTED_EDGE ( 'NONE', *, *, #30, .T. ) ;
#590 = ADVANCED_FACE ( 'NONE', ( #611, #367 ), #345, .F. ) ;
#591 = ORIENTED_EDGE ( 'NONE', *, *, #358, .T. ) ;
#592 = CIRCLE ( 'NONE', #634, 18.99999999999999289 ) ;
#593 = FACE_OUTER_BOUND ( 'NONE', #636, .T. ) ;
#594 = ORIENTED_EDGE ( 'NONE', *, *, #414, .T. ) ;
#595 = CARTESIAN_POINT ( 'NONE',  ( 6.123233995736768255E-16, 0.000000000000000000, 5.000000000000001776 ) ) ;
#596 = DIRECTION ( 'NONE',  ( -1.000000000000000000, 0.000000000000000000, 1.224646799147352961E-16 ) ) ;
#597 = ORIENTED_EDGE ( 'NONE', *, *, #520, .F. ) ;
#598 = ADVANCED_FACE ( 'NONE', ( #593 ), #29, .T. ) ;
#599 = CARTESIAN_POINT ( 'NONE',  ( -1.248619119667225586E-32, 0.000000000000000000, 5.000000000000001776 ) ) ;
#600 = ORIENTED_EDGE ( 'NONE', *, *, #282, .F. ) ;
#601 = EDGE_CURVE ( 'NONE', #490, #507, #592, .T. ) ;
#602 = ORIENTED_EDGE ( 'NONE', *, *, #358, .F. ) ;
#603 = SURFACE_STYLE_USAGE ( .BOTH. , #122 ) ;
#604 = ADVANCED_FACE ( 'NONE', ( #443, #257 ), #188, .F. ) ;
#605 = EDGE_LOOP ( 'NONE', ( #438, #66, #329, #555 ) ) ;
#606 = APPLICATION_PROTOCOL_DEFINITION ( 'draft international standard', 'automotive_design', 1998, #483 ) ;
#607 = EDGE_CURVE ( 'NONE', #382, #93, #357, .T. ) ;
#608 = CARTESIAN_POINT ( 'NONE',  ( 8.436148777472947676E-32, 0.000000000000000000, 6.888638245203859972E-16 ) ) ;
#609 = EDGE_LOOP ( 'NONE', ( #206, #472 ) ) ;
#610 = DIRECTION ( 'NONE',  ( -1.224646799147353207E-16, 0.000000000000000000, -1.000000000000000000 ) ) ;
#611 = FACE_OUTER_BOUND ( 'NONE', #488, .T. ) ;
#612 = CARTESIAN_POINT ( 'NONE',  ( -20.00000000000000000, 0.000000000000000000, 2.000000000000004441 ) ) ;
#613 = AXIS2_PLACEMENT_3D ( 'NONE', #608, #505, #166 ) ;
#614 = CARTESIAN_POINT ( 'NONE',  ( 7.347880794884118356E-15, 0.000000000000000000, 60.00000000000000000 ) ) ;
#615 = DIRECTION ( 'NONE',  ( -1.224646799147353207E-16, -0.000000000000000000, -1.000000000000000000 ) ) ;
#616 = STYLED_ITEM ( 'NONE', ( #389 ), #116 ) ;
#617 = DIRECTION ( 'NONE',  ( -1.224646799147353207E-16, 1.000000000000000000, 1.499759782661857608E-32 ) ) ;
#618 = ADVANCED_FACE ( 'NONE', ( #267 ), #558, .T. ) ;
#619 = ORIENTED_EDGE ( 'NONE', *, *, #535, .F. ) ;
#620 = DIRECTION ( 'NONE',  ( -1.224646799147353207E-16, -0.000000000000000000, -1.000000000000000000 ) ) ;
#621 = ORIENTED_EDGE ( 'NONE', *, *, #232, .T. ) ;
#622 = DIRECTION ( 'NONE',  ( -1.224646799147353207E-16, -0.000000000000000000, -1.000000000000000000 ) ) ;
#623 = AXIS2_PLACEMENT_3D ( 'NONE', #328, #622, #470 ) ;
#624 = CARTESIAN_POINT ( 'NONE',  ( 3.673940397442061840E-16, 0.000000000000000000, 3.000000000000002220 ) ) ;
#625 = EDGE_CURVE ( 'NONE', #507, #490, #60, .T. ) ;
#626 = CARTESIAN_POINT ( 'NONE',  ( -4.999999999999992006, 0.000000000000000000, 55.00000000000000000 ) ) ;
#627 = CIRCLE ( 'NONE', #304, 19.99999999999999289 ) ;
#628 = DIRECTION ( 'NONE',  ( -1.000000000000000000, 0.000000000000000000, 1.224646799147353207E-16 ) ) ;
#629 = ORIENTED_EDGE ( 'NONE', *, *, #513, .F. ) ;
#630 = PLANE ( 'NONE',  #471 ) ;
#631 = EDGE_CURVE ( 'NONE', #542, #463, #459, .T. ) ;
#632 = CARTESIAN_POINT ( 'NONE',  ( 7.500000000000007105, 9.184850993605147944E-16, 60.00000000000000000 ) ) ;
#633 = ORIENTED_EDGE ( 'NONE', *, *, #631, .T. ) ;
#634 = AXIS2_PLACEMENT_3D ( 'NONE', #53, #409, #56 ) ;
#635 = CARTESIAN_POINT ( 'NONE',  ( 6.735557395310442615E-15, 0.000000000000000000, 55.00000000000000000 ) ) ;
#636 = EDGE_LOOP ( 'NONE', ( #451, #106, #503, #449 ) ) ;
#637 = DIRECTION ( 'NONE',  ( -1.224646799147353207E-16, -0.000000000000000000, -1.000000000000000000 ) ) ;
#638 = VERTEX_POINT ( 'NONE', #361 ) ;
ENDSEC;
END-ISO-10303-21;
