ISO-10303-21;
HEADER;
FILE_DESCRIPTION (( 'STEP AP214' ),
    '1' );
FILE_NAME ('输送带导向滚2.step',
    '2023-08-15T03:06:54',
    ( '' ),
    ( '' ),
    'SwSTEP 2.0',
    'SolidWorks 2022',
    '' );
FILE_SCHEMA (( 'AUTOMOTIVE_DESIGN' ));
ENDSEC;

DATA;
#1 = VERTEX_POINT ( 'NONE', #76 ) ;
#2 = FACE_OUTER_BOUND ( 'NONE', #597, .T. ) ;
#3 = CARTESIAN_POINT ( 'NONE',  ( -4.158166159362541402E-15, -5.000000000000006217, 0.000000000000000000 ) ) ;
#4 = ORIENTED_EDGE ( 'NONE', *, *, #277, .F. ) ;
#5 = CARTESIAN_POINT ( 'NONE',  ( -4.999999999999993783, -55.00000000000000000, 0.000000000000000000 ) ) ;
#6 = EDGE_CURVE ( 'NONE', #550, #603, #70, .T. ) ;
#7 = EDGE_LOOP ( 'NONE', ( #296, #352, #209, #409 ) ) ;
#8 = CARTESIAN_POINT ( 'NONE',  ( 7.499999999999996447, -5.000000000000004441, 9.184850993605149917E-16 ) ) ;
#9 = FACE_OUTER_BOUND ( 'NONE', #247, .T. ) ;
#10 = EDGE_CURVE ( 'NONE', #193, #393, #626, .T. ) ;
#11 = ORIENTED_EDGE ( 'NONE', *, *, #211, .T. ) ;
#12 =( NAMED_UNIT ( * ) PLANE_ANGLE_UNIT ( ) SI_UNIT ( $, .RADIAN. ) );
#13 = CIRCLE ( 'NONE', #51, 4.999999999999999112 ) ;
#14 = AXIS2_PLACEMENT_3D ( 'NONE', #174, #424, #327 ) ;
#15 = ORIENTED_EDGE ( 'NONE', *, *, #45, .F. ) ;
#16 = PLANE ( 'NONE',  #85 ) ;
#17 = ORIENTED_EDGE ( 'NONE', *, *, #411, .F. ) ;
#18 = EDGE_CURVE ( 'NONE', #393, #193, #310, .T. ) ;
#19 = CARTESIAN_POINT ( 'NONE',  ( -4.681168293646478582E-15, -2.500000000000012879, 0.000000000000000000 ) ) ;
#20 = DIRECTION ( 'NONE',  ( -2.092008537135757247E-16, 1.000000000000000000, -0.000000000000000000 ) ) ;
#21 = DIRECTION ( 'NONE',  ( -2.092008537135757247E-16, 1.000000000000000000, -0.000000000000000000 ) ) ;
#22 = DIRECTION ( 'NONE',  ( -2.092008537135746401E-16, 1.000000000000000000, -0.000000000000000000 ) ) ;
#23 = AXIS2_PLACEMENT_3D ( 'NONE', #199, #533, #248 ) ;
#24 = EDGE_CURVE ( 'NONE', #285, #337, #93, .T. ) ;
#25 = DIRECTION ( 'NONE',  ( -1.000000000000000000, -2.092008537135757247E-16, 0.000000000000000000 ) ) ;
#26 = PRODUCT_DEFINITION ( '未知', '', #171, #104 ) ;
#27 = DIRECTION ( 'NONE',  ( -1.000000000000000000, 0.000000000000000000, 0.000000000000000000 ) ) ;
#28 = CARTESIAN_POINT ( 'NONE',  ( 14.00000000000000000, -2.500000000000010214, 1.714505518806295032E-15 ) ) ;
#29 = AXIS2_PLACEMENT_3D ( 'NONE', #131, #268, #186 ) ;
#30 = ORIENTED_EDGE ( 'NONE', *, *, #529, .F. ) ;
#31 = CIRCLE ( 'NONE', #460, 13.49999999999999467 ) ;
#32 = EDGE_CURVE ( 'NONE', #110, #113, #321, .T. ) ;
#33 = DIRECTION ( 'NONE',  ( 0.7071067811865476838, -0.7071067811865474617, 0.000000000000000000 ) ) ;
#34 = DIRECTION ( 'NONE',  ( 2.092008537135733582E-16, -1.000000000000000000, 0.000000000000000000 ) ) ;
#35 = EDGE_CURVE ( 'NONE', #513, #241, #470, .T. ) ;
#36 = CARTESIAN_POINT ( 'NONE',  ( 6.301876526316243208E-15, -55.00000000000000000, 0.000000000000000000 ) ) ;
#37 = EDGE_LOOP ( 'NONE', ( #505, #564, #455, #542 ) ) ;
#38 = LINE ( 'NONE', #612, #301 ) ;
#39 = EDGE_LOOP ( 'NONE', ( #61, #94 ) ) ;
#40 = VECTOR ( 'NONE', #230, 1000.000000000000114 ) ;
#41 = FACE_OUTER_BOUND ( 'NONE', #229, .T. ) ;
#42 = EDGE_CURVE ( 'NONE', #550, #163, #459, .T. ) ;
#43 = ORIENTED_EDGE ( 'NONE', *, *, #164, .F. ) ;
#44 = LINE ( 'NONE', #242, #582 ) ;
#45 = EDGE_CURVE ( 'NONE', #500, #110, #83, .T. ) ;
#46 = ORIENTED_EDGE ( 'NONE', *, *, #152, .T. ) ;
#47 = FACE_OUTER_BOUND ( 'NONE', #166, .T. ) ;
#48 = FILL_AREA_STYLE_COLOUR ( '', #548 ) ;
#49 = VERTEX_POINT ( 'NONE', #378 ) ;
#50 = CARTESIAN_POINT ( 'NONE',  ( 5.361212156324893923E-31, -56.99999999999999289, 0.000000000000000000 ) ) ;
#51 = AXIS2_PLACEMENT_3D ( 'NONE', #370, #224, #317 ) ;
#52 = COLOUR_RGB ( '',1.000000000000000000, 1.000000000000000000, 1.000000000000000000 ) ;
#53 = SURFACE_SIDE_STYLE ('',( #404 ) ) ;
#54 = VERTEX_POINT ( 'NONE', #373 ) ;
#55 = DIRECTION ( 'NONE',  ( -2.092008537135757247E-16, 1.000000000000000000, -0.000000000000000000 ) ) ;
#56 = DIRECTION ( 'NONE',  ( -2.092008537135746401E-16, 1.000000000000000000, -0.000000000000000000 ) ) ;
#57 = PRODUCT_DEFINITION_SHAPE ( 'NONE', 'NONE',  #26 ) ;
#58 = ORIENTED_EDGE ( 'NONE', *, *, #521, .F. ) ;
#59 = DIRECTION ( 'NONE',  ( -1.000000000000000000, -2.092008537135757001E-16, 0.000000000000000000 ) ) ;
#60 = DIRECTION ( 'NONE',  ( -1.000000000000000000, -2.092008537135757247E-16, 0.000000000000000000 ) ) ;
#61 = ORIENTED_EDGE ( 'NONE', *, *, #453, .F. ) ;
#62 = SURFACE_SIDE_STYLE ('',( #308 ) ) ;
#63 = AXIS2_PLACEMENT_3D ( 'NONE', #447, #395, #84 ) ;
#64 = AXIS2_PLACEMENT_3D ( 'NONE', #203, #55, #290 ) ;
#65 = VERTEX_POINT ( 'NONE', #179 ) ;
#66 =( NAMED_UNIT ( * ) SI_UNIT ( $, .STERADIAN. ) SOLID_ANGLE_UNIT ( ) );
#67 = CARTESIAN_POINT ( 'NONE',  ( -5.204170427930421283E-15, 0.000000000000000000, 0.000000000000000000 ) ) ;
#68 = DIRECTION ( 'NONE',  ( -1.000000000000000000, -2.168404344971008128E-16, 0.000000000000000000 ) ) ;
#69 = CARTESIAN_POINT ( 'NONE',  ( 7.347880794884121511E-15, -60.00000000000000000, 0.000000000000000000 ) ) ;
#70 = LINE ( 'NONE', #566, #333 ) ;
#71 = EDGE_CURVE ( 'NONE', #1, #65, #271, .T. ) ;
#72 = DIRECTION ( 'NONE',  ( -2.092008537135757247E-16, 1.000000000000000000, -0.000000000000000000 ) ) ;
#73 = AXIS2_PLACEMENT_3D ( 'NONE', #415, #318, #510 ) ;
#74 = CIRCLE ( 'NONE', #616, 13.99999999999999467 ) ;
#75 = AXIS2_PLACEMENT_3D ( 'NONE', #413, #20, #255 ) ;
#76 = CARTESIAN_POINT ( 'NONE',  ( 7.500000000000007105, -60.00000000000000000, 9.184850993605147944E-16 ) ) ;
#77 = DIRECTION ( 'NONE',  ( -2.092008537135757247E-16, 1.000000000000000000, -0.000000000000000000 ) ) ;
#78 = EDGE_CURVE ( 'NONE', #148, #49, #220, .T. ) ;
#79 = CARTESIAN_POINT ( 'NONE',  ( 6.720278233743395002E-15, -56.99999999999999289, 0.000000000000000000 ) ) ;
#80 = CARTESIAN_POINT ( 'NONE',  ( -13.50000000000001421, -3.000000000000006217, 0.000000000000000000 ) ) ;
#81 = DIRECTION ( 'NONE',  ( -1.000000000000000000, 0.000000000000000000, 0.000000000000000000 ) ) ;
#82 = DIRECTION ( 'NONE',  ( -1.000000000000000000, 0.000000000000000000, 0.000000000000000000 ) ) ;
#83 = CIRCLE ( 'NONE', #73, 14.00000000000000533 ) ;
#84 = DIRECTION ( 'NONE',  ( 1.000000000000000000, 0.000000000000000000, 0.000000000000000000 ) ) ;
#85 = AXIS2_PLACEMENT_3D ( 'NONE', #124, #504, #162 ) ;
#86 = ADVANCED_FACE ( 'NONE', ( #273 ), #160, .T. ) ;
#87 = CIRCLE ( 'NONE', #75, 10.50000000000001954 ) ;
#88 = DIRECTION ( 'NONE',  ( 2.092008537135733582E-16, -1.000000000000000000, 0.000000000000000000 ) ) ;
#89 = ORIENTED_EDGE ( 'NONE', *, *, #133, .F. ) ;
#90 = DIRECTION ( 'NONE',  ( -1.000000000000000000, -2.168404344971008128E-16, 0.000000000000000000 ) ) ;
#91 = ORIENTED_EDGE ( 'NONE', *, *, #260, .F. ) ;
#92 = CARTESIAN_POINT ( 'NONE',  ( 6.720278233743395002E-15, -56.99999999999999289, 0.000000000000000000 ) ) ;
#93 = CIRCLE ( 'NONE', #579, 13.50000000000000888 ) ;
#94 = ORIENTED_EDGE ( 'NONE', *, *, #405, .F. ) ;
#95 = DIRECTION ( 'NONE',  ( -1.000000000000000000, 0.000000000000000000, 0.000000000000000000 ) ) ;
#96 = CARTESIAN_POINT ( 'NONE',  ( -5.204170427930421283E-15, 0.000000000000000000, 0.000000000000000000 ) ) ;
#97 = ADVANCED_FACE ( 'NONE', ( #219 ), #610, .F. ) ;
#98 = ORIENTED_EDGE ( 'NONE', *, *, #10, .T. ) ;
#99 = CARTESIAN_POINT ( 'NONE',  ( -10.50000000000001776, -2.196608963992547908E-15, 0.000000000000000000 ) ) ;
#100 =( LENGTH_UNIT ( ) NAMED_UNIT ( * ) SI_UNIT ( .MILLI., .METRE. ) );
#101 = EDGE_CURVE ( 'NONE', #163, #550, #117, .T. ) ;
#102 = ORIENTED_EDGE ( 'NONE', *, *, #405, .T. ) ;
#103 = DIRECTION ( 'NONE',  ( -1.000000000000000000, -2.092008537135757247E-16, 0.000000000000000000 ) ) ;
#104 = PRODUCT_DEFINITION_CONTEXT ( 'detailed design', #391, 'design' ) ;
#105 = CARTESIAN_POINT ( 'NONE',  ( -4.576567866789693986E-15, -3.000000000000003109, 0.000000000000000000 ) ) ;
#106 = ORIENTED_EDGE ( 'NONE', *, *, #323, .T. ) ;
#107 = AXIS2_PLACEMENT_3D ( 'NONE', #234, #400, #256 ) ;
#108 = CARTESIAN_POINT ( 'NONE',  ( -4.158166159362541402E-15, -5.000000000000006217, 0.000000000000000000 ) ) ;
#109 =( NAMED_UNIT ( * ) PLANE_ANGLE_UNIT ( ) SI_UNIT ( $, .RADIAN. ) );
#110 = VERTEX_POINT ( 'NONE', #227 ) ;
#111 = DIRECTION ( 'NONE',  ( -2.092008537135757247E-16, 1.000000000000000000, -0.000000000000000000 ) ) ;
#112 = FACE_OUTER_BOUND ( 'NONE', #361, .T. ) ;
#113 = VERTEX_POINT ( 'NONE', #423 ) ;
#114 = FILL_AREA_STYLE ('',( #167 ) ) ;
#115 = MANIFOLD_SOLID_BREP ( '倒角1', #365 ) ;
#116 = ORIENTED_EDGE ( 'NONE', *, *, #521, .T. ) ;
#117 = CIRCLE ( 'NONE', #589, 13.99999999999999289 ) ;
#118 = CARTESIAN_POINT ( 'NONE',  ( -5.000000000000003553, -5.000000000000006217, 0.000000000000000000 ) ) ;
#119 = AXIS2_PLACEMENT_3D ( 'NONE', #506, #213, #551 ) ;
#120 = EDGE_LOOP ( 'NONE', ( #348, #457 ) ) ;
#121 = LINE ( 'NONE', #266, #240 ) ;
#122 = DIRECTION ( 'NONE',  ( 2.092008537135757247E-16, -1.000000000000000000, 0.000000000000000000 ) ) ;
#123 = CARTESIAN_POINT ( 'NONE',  ( 14.00000000000000178, -57.49999999999999289, 1.714505518806294046E-15 ) ) ;
#124 = CARTESIAN_POINT ( 'NONE',  ( 5.885073851799523676E-31, -2.813121336424843724E-15, 0.000000000000000000 ) ) ;
#125 = DIRECTION ( 'NONE',  ( -1.000000000000000000, -2.092008537135757247E-16, 0.000000000000000000 ) ) ;
#126 = CARTESIAN_POINT ( 'NONE',  ( -14.00000000000000000, -2.928811951990059012E-15, 0.000000000000000000 ) ) ;
#127 = CIRCLE ( 'NONE', #222, 10.50000000000000711 ) ;
#128 = CARTESIAN_POINT ( 'NONE',  ( 7.347880794884121511E-15, -60.00000000000000000, 0.000000000000000000 ) ) ;
#129 = LINE ( 'NONE', #379, #272 ) ;
#130 = ADVANCED_FACE ( 'NONE', ( #596 ), #560, .T. ) ;
#131 = CARTESIAN_POINT ( 'NONE',  ( 7.347880794884121511E-15, -60.00000000000000000, 0.000000000000000000 ) ) ;
#132 = FACE_OUTER_BOUND ( 'NONE', #390, .T. ) ;
#133 = EDGE_CURVE ( 'NONE', #337, #285, #250, .T. ) ;
#134 = CARTESIAN_POINT ( 'NONE',  ( -5.204170427930420494E-15, -1.962642874006323739E-15, 0.000000000000000000 ) ) ;
#135 = CARTESIAN_POINT ( 'NONE',  ( -7.500000000000005329, -3.531649276858141588E-15, 0.000000000000000000 ) ) ;
#136 = VECTOR ( 'NONE', #515, 1000.000000000000000 ) ;
#137 = CARTESIAN_POINT ( 'NONE',  ( -13.99999999999998579, -60.00000000000000000, 0.000000000000000000 ) ) ;
#138 = AXIS2_PLACEMENT_3D ( 'NONE', #607, #267, #320 ) ;
#139 = STYLED_ITEM ( 'NONE', ( #362 ), #482 ) ;
#140 = ORIENTED_EDGE ( 'NONE', *, *, #146, .F. ) ;
#141 = CARTESIAN_POINT ( 'NONE',  ( 13.50000000000000178, -56.99999999999999289, 0.000000000000000000 ) ) ;
#142 = ORIENTED_EDGE ( 'NONE', *, *, #453, .T. ) ;
#143 = ADVANCED_FACE ( 'NONE', ( #9 ), #155, .T. ) ;
#144 = DIRECTION ( 'NONE',  ( -2.092008537135757247E-16, 1.000000000000000000, 0.000000000000000000 ) ) ;
#145 = EDGE_LOOP ( 'NONE', ( #215, #299, #17, #555 ) ) ;
#146 = EDGE_CURVE ( 'NONE', #412, #113, #524, .T. ) ;
#147 = CYLINDRICAL_SURFACE ( 'NONE', #192, 7.500000000000000000 ) ;
#148 = VERTEX_POINT ( 'NONE', #291 ) ;
#149 = AXIS2_PLACEMENT_3D ( 'NONE', #331, #21, #358 ) ;
#150 = LINE ( 'NONE', #99, #345 ) ;
#151 = DIRECTION ( 'NONE',  ( -1.000000000000000000, -2.248715617006970498E-16, 0.000000000000000000 ) ) ;
#152 = EDGE_CURVE ( 'NONE', #249, #603, #74, .T. ) ;
#153 = EDGE_LOOP ( 'NONE', ( #254, #591 ) ) ;
#154 = FACE_BOUND ( 'NONE', #289, .T. ) ;
#155 = CYLINDRICAL_SURFACE ( 'NONE', #425, 10.50000000000001243 ) ;
#156 = ADVANCED_FACE ( 'NONE', ( #502 ), #239, .T. ) ;
#157 = ORIENTED_EDGE ( 'NONE', *, *, #218, .T. ) ;
#158 = CARTESIAN_POINT ( 'NONE',  ( -7.499999999999994671, -55.00000000000000000, 0.000000000000000000 ) ) ;
#159 = ORIENTED_EDGE ( 'NONE', *, *, #42, .F. ) ;
#160 = CONICAL_SURFACE ( 'NONE', #181, 14.00000000000000533, 0.7853981633974552734 ) ;
#161 = CIRCLE ( 'NONE', #344, 5.000000000000000000 ) ;
#162 = DIRECTION ( 'NONE',  ( 1.000000000000000000, 2.092008537135757247E-16, 0.000000000000000000 ) ) ;
#163 = VERTEX_POINT ( 'NONE', #137 ) ;
#164 = EDGE_CURVE ( 'NONE', #479, #587, #386, .T. ) ;
#165 = FACE_OUTER_BOUND ( 'NONE', #287, .T. ) ;
#166 = EDGE_LOOP ( 'NONE', ( #537, #433 ) ) ;
#167 = FILL_AREA_STYLE_COLOUR ( '', #52 ) ;
#168 = ORIENTED_EDGE ( 'NONE', *, *, #78, .T. ) ;
#169 = DIRECTION ( 'NONE',  ( -1.000000000000000000, 0.000000000000000000, 0.000000000000000000 ) ) ;
#170 = MECHANICAL_DESIGN_GEOMETRIC_PRESENTATION_REPRESENTATION (  '', ( #449 ), #375 ) ;
#171 = PRODUCT_DEFINITION_FORMATION_WITH_SPECIFIED_SOURCE ( '任何', '', #558, .NOT_KNOWN. ) ;
#172 = EDGE_CURVE ( 'NONE', #627, #1, #408, .T. ) ;
#173 = DIRECTION ( 'NONE',  ( -2.092008537135757247E-16, 1.000000000000000000, -0.000000000000000000 ) ) ;
#174 = CARTESIAN_POINT ( 'NONE',  ( 0.000000000000000000, 0.000000000000000000, 0.000000000000000000 ) ) ;
#175 = LINE ( 'NONE', #363, #334 ) ;
#176 = ADVANCED_FACE ( 'NONE', ( #634 ), #188, .F. ) ;
#177 = ORIENTED_EDGE ( 'NONE', *, *, #35, .F. ) ;
#178 = CARTESIAN_POINT ( 'NONE',  ( 14.00000000000000000, -7.347878468533046957E-16, 1.714505518806295032E-15 ) ) ;
#179 = CARTESIAN_POINT ( 'NONE',  ( 7.500000000000007105, -55.00000000000000000, 9.184850993605147944E-16 ) ) ;
#180 = DIRECTION ( 'NONE',  ( -0.7071067811865525687, 0.7071067811865425767, 0.000000000000000000 ) ) ;
#181 = AXIS2_PLACEMENT_3D ( 'NONE', #19, #22, #68 ) ;
#182 = ORIENTED_EDGE ( 'NONE', *, *, #283, .T. ) ;
#183 = APPLICATION_CONTEXT ( 'automotive_design' ) ;
#184 = SHAPE_DEFINITION_REPRESENTATION ( #57, #482 ) ;
#185 = DIRECTION ( 'NONE',  ( -2.092008537135757247E-16, 1.000000000000000000, -0.000000000000000000 ) ) ;
#186 = DIRECTION ( 'NONE',  ( -1.000000000000000000, 0.000000000000000000, 0.000000000000000000 ) ) ;
#187 = DIRECTION ( 'NONE',  ( -2.092008537135757247E-16, 1.000000000000000000, -0.000000000000000000 ) ) ;
#188 = CYLINDRICAL_SURFACE ( 'NONE', #436, 4.999999999999999112 ) ;
#189 = EDGE_LOOP ( 'NONE', ( #364, #461 ) ) ;
#190 = CARTESIAN_POINT ( 'NONE',  ( -7.500000000000005329, -1.569006402851817849E-15, 0.000000000000000000 ) ) ;
#191 = CIRCLE ( 'NONE', #498, 5.000000000000000000 ) ;
#192 = AXIS2_PLACEMENT_3D ( 'NONE', #446, #543, #394 ) ;
#193 = VERTEX_POINT ( 'NONE', #210 ) ;
#194 = LINE ( 'NONE', #592, #418 ) ;
#195 = ORIENTED_EDGE ( 'NONE', *, *, #204, .F. ) ;
#196 = CYLINDRICAL_SURFACE ( 'NONE', #611, 4.999999999999999112 ) ;
#197 = ORIENTED_EDGE ( 'NONE', *, *, #360, .T. ) ;
#198 = ADVANCED_FACE ( 'NONE', ( #407 ), #599, .F. ) ;
#199 = CARTESIAN_POINT ( 'NONE',  ( -7.434529182757758214E-16, -3.000000000000003109, 0.000000000000000000 ) ) ;
#200 = ORIENTED_EDGE ( 'NONE', *, *, #343, .T. ) ;
#201 = CONICAL_SURFACE ( 'NONE', #366, 13.49999999999999467, 0.7853981633974482790 ) ;
#202 = AXIS2_PLACEMENT_3D ( 'NONE', #108, #440, #294 ) ;
#203 = CARTESIAN_POINT ( 'NONE',  ( -5.204170427930421283E-15, 0.000000000000000000, 0.000000000000000000 ) ) ;
#204 = EDGE_CURVE ( 'NONE', #500, #412, #175, .T. ) ;
#205 = UNCERTAINTY_MEASURE_WITH_UNIT (LENGTH_MEASURE( 1.000000000000000082E-05 ), #458, 'distance_accuracy_value', 'NONE');
#206 = DIRECTION ( 'NONE',  ( -2.092008537135757247E-16, 1.000000000000000000, -0.000000000000000000 ) ) ;
#207 = ORIENTED_EDGE ( 'NONE', *, *, #429, .T. ) ;
#208 = DIRECTION ( 'NONE',  ( -2.092008537135757247E-16, 1.000000000000000000, -0.000000000000000000 ) ) ;
#209 = ORIENTED_EDGE ( 'NONE', *, *, #302, .T. ) ;
#210 = CARTESIAN_POINT ( 'NONE',  ( 7.499999999999994671, -3.936364711545058404E-16, 9.184850993605147944E-16 ) ) ;
#211 = EDGE_CURVE ( 'NONE', #241, #483, #13, .T. ) ;
#212 = ORIENTED_EDGE ( 'NONE', *, *, #351, .F. ) ;
#213 = DIRECTION ( 'NONE',  ( -2.092008537135757247E-16, 1.000000000000000000, 0.000000000000000000 ) ) ;
#214 = DIRECTION ( 'NONE',  ( 1.000000000000000000, 0.000000000000000000, 0.000000000000000000 ) ) ;
#215 = ORIENTED_EDGE ( 'NONE', *, *, #24, .F. ) ;
#216 = CYLINDRICAL_SURFACE ( 'NONE', #536, 14.00000000000000533 ) ;
#217 = EDGE_LOOP ( 'NONE', ( #258, #159 ) ) ;
#218 = EDGE_CURVE ( 'NONE', #261, #54, #31, .T. ) ;
#219 = FACE_OUTER_BOUND ( 'NONE', #238, .T. ) ;
#220 = CIRCLE ( 'NONE', #434, 10.50000000000000711 ) ;
#221 = PRESENTATION_LAYER_ASSIGNMENT (  '', '', ( #449 ) ) ;
#222 = AXIS2_PLACEMENT_3D ( 'NONE', #92, #347, #633 ) ;
#223 = DIRECTION ( 'NONE',  ( -2.092008537135757247E-16, 1.000000000000000000, -0.000000000000000000 ) ) ;
#224 = DIRECTION ( 'NONE',  ( -2.092008537135757247E-16, 1.000000000000000000, -0.000000000000000000 ) ) ;
#225 = ORIENTED_EDGE ( 'NONE', *, *, #604, .F. ) ;
#226 = CARTESIAN_POINT ( 'NONE',  ( -14.00000000000001066, -2.500000000000015987, 0.000000000000000000 ) ) ;
#227 = CARTESIAN_POINT ( 'NONE',  ( -14.00000000000001066, -2.500000000000015987, 0.000000000000000000 ) ) ;
#228 = ADVANCED_FACE ( 'NONE', ( #419, #112 ), #16, .F. ) ;
#229 = EDGE_LOOP ( 'NONE', ( #490, #406, #200, #4 ) ) ;
#230 = DIRECTION ( 'NONE',  ( 0.7071067811865522357, 0.7071067811865426878, 8.659560562354992023E-17 ) ) ;
#231 = VECTOR ( 'NONE', #383, 1000.000000000000000 ) ;
#232 = DIRECTION ( 'NONE',  ( -2.092008537135757247E-16, 1.000000000000000000, -0.000000000000000000 ) ) ;
#233 = DIRECTION ( 'NONE',  ( -2.092008537135746401E-16, 1.000000000000000000, -0.000000000000000000 ) ) ;
#234 = CARTESIAN_POINT ( 'NONE',  ( 7.347880794884121511E-15, -60.00000000000000000, 0.000000000000000000 ) ) ;
#235 = ORIENTED_EDGE ( 'NONE', *, *, #360, .F. ) ;
#236 = CARTESIAN_POINT ( 'NONE',  ( -4.681168293646478582E-15, -2.500000000000012879, 0.000000000000000000 ) ) ;
#237 = ADVANCED_FACE ( 'NONE', ( #512 ), #216, .T. ) ;
#238 = EDGE_LOOP ( 'NONE', ( #30, #585, #98, #235 ) ) ;
#239 = CONICAL_SURFACE ( 'NONE', #609, 14.00000000000000533, 0.7853981633974552734 ) ;
#240 = VECTOR ( 'NONE', #306, 1000.000000000000000 ) ;
#241 = VERTEX_POINT ( 'NONE', #118 ) ;
#242 = CARTESIAN_POINT ( 'NONE',  ( 7.499999999999994671, 1.569006402851817849E-15, 9.184850993605147944E-16 ) ) ;
#243 = EDGE_CURVE ( 'NONE', #1, #627, #580, .T. ) ;
#244 = ORIENTED_EDGE ( 'NONE', *, *, #204, .T. ) ;
#245 = CARTESIAN_POINT ( 'NONE',  ( -7.500000000000004441, -5.000000000000007994, 0.000000000000000000 ) ) ;
#246 = DIRECTION ( 'NONE',  ( -1.000000000000000000, -2.312964634635742957E-16, 0.000000000000000000 ) ) ;
#247 = EDGE_LOOP ( 'NONE', ( #168, #617, #463, #58 ) ) ;
#248 = DIRECTION ( 'NONE',  ( -1.000000000000000000, -2.092008537135757247E-16, 0.000000000000000000 ) ) ;
#249 = VERTEX_POINT ( 'NONE', #509 ) ;
#250 = CIRCLE ( 'NONE', #485, 13.50000000000000888 ) ;
#251 = AXIS2_PLACEMENT_3D ( 'NONE', #259, #565, #606 ) ;
#252 = DIRECTION ( 'NONE',  ( -2.092008537135757247E-16, 1.000000000000000000, -0.000000000000000000 ) ) ;
#253 =( NAMED_UNIT ( * ) SI_UNIT ( $, .STERADIAN. ) SOLID_ANGLE_UNIT ( ) );
#254 = ORIENTED_EDGE ( 'NONE', *, *, #78, .F. ) ;
#255 = DIRECTION ( 'NONE',  ( -1.000000000000000000, -2.065146995210480751E-16, 0.000000000000000000 ) ) ;
#256 = DIRECTION ( 'NONE',  ( -1.000000000000000000, 0.000000000000000000, 0.000000000000000000 ) ) ;
#257 = EDGE_CURVE ( 'NONE', #398, #594, #280, .T. ) ;
#258 = ORIENTED_EDGE ( 'NONE', *, *, #101, .F. ) ;
#259 = CARTESIAN_POINT ( 'NONE',  ( -5.204170427930420494E-15, -3.663599798843365680E-15, 0.000000000000000000 ) ) ;
#260 = EDGE_CURVE ( 'NONE', #572, #513, #191, .T. ) ;
#261 = VERTEX_POINT ( 'NONE', #274 ) ;
#262 = CIRCLE ( 'NONE', #311, 13.49999999999999467 ) ;
#263 =( NAMED_UNIT ( * ) SI_UNIT ( $, .STERADIAN. ) SOLID_ANGLE_UNIT ( ) );
#264 = EDGE_LOOP ( 'NONE', ( #632, #305, #528, #46 ) ) ;
#265 = ADVANCED_FACE ( 'NONE', ( #328, #571 ), #471, .F. ) ;
#266 = CARTESIAN_POINT ( 'NONE',  ( 4.999999999999993783, 1.046004268567878303E-15, 6.123233995736765296E-16 ) ) ;
#267 = DIRECTION ( 'NONE',  ( -2.092008537135757247E-16, 1.000000000000000000, -0.000000000000000000 ) ) ;
#268 = DIRECTION ( 'NONE',  ( -2.092008537135757247E-16, 1.000000000000000000, -0.000000000000000000 ) ) ;
#269 = SURFACE_STYLE_USAGE ( .BOTH. , #62 ) ;
#270 = DIRECTION ( 'NONE',  ( -2.092008537135757247E-16, 1.000000000000000000, -0.000000000000000000 ) ) ;
#271 = LINE ( 'NONE', #275, #448 ) ;
#272 = VECTOR ( 'NONE', #520, 1000.000000000000000 ) ;
#273 = FACE_OUTER_BOUND ( 'NONE', #309, .T. ) ;
#274 = CARTESIAN_POINT ( 'NONE',  ( -13.49999999999998757, -56.99999999999999289, 1.683889348827610062E-15 ) ) ;
#275 = CARTESIAN_POINT ( 'NONE',  ( 7.499999999999994671, 1.569006402851817849E-15, 9.184850993605147944E-16 ) ) ;
#276 = DIRECTION ( 'NONE',  ( 1.000000000000000000, 0.000000000000000000, 0.000000000000000000 ) ) ;
#277 = EDGE_CURVE ( 'NONE', #163, #249, #478, .T. ) ;
#278 = DIRECTION ( 'NONE',  ( -1.000000000000000000, -2.248715617006970498E-16, 0.000000000000000000 ) ) ;
#279 = CARTESIAN_POINT ( 'NONE',  ( 13.50000000000000355, -3.000000000000000000, 1.683889348827611640E-15 ) ) ;
#280 = CIRCLE ( 'NONE', #138, 10.50000000000001954 ) ;
#281 = AXIS2_PLACEMENT_3D ( 'NONE', #595, #144, #303 ) ;
#282 = DIRECTION ( 'NONE',  ( -1.000000000000000000, -2.092008537135757494E-16, 0.000000000000000000 ) ) ;
#283 = EDGE_CURVE ( 'NONE', #337, #110, #525, .T. ) ;
#284 = CARTESIAN_POINT ( 'NONE',  ( 6.301876526316243208E-15, -55.00000000000000000, 0.000000000000000000 ) ) ;
#285 = VERTEX_POINT ( 'NONE', #279 ) ;
#286 = CYLINDRICAL_SURFACE ( 'NONE', #357, 13.99999999999999467 ) ;
#287 = EDGE_LOOP ( 'NONE', ( #346, #43, #197, #508 ) ) ;
#288 = DIRECTION ( 'NONE',  ( -2.092008537135757247E-16, 1.000000000000000000, -0.000000000000000000 ) ) ;
#289 = EDGE_LOOP ( 'NONE', ( #534, #388 ) ) ;
#290 = DIRECTION ( 'NONE',  ( -1.000000000000000000, -2.092008537135757247E-16, 0.000000000000000000 ) ) ;
#291 = CARTESIAN_POINT ( 'NONE',  ( -10.50000000000000000, -56.99999999999999289, 0.000000000000000000 ) ) ;
#292 = EDGE_CURVE ( 'NONE', #513, #572, #161, .T. ) ;
#293 = ORIENTED_EDGE ( 'NONE', *, *, #541, .F. ) ;
#294 = DIRECTION ( 'NONE',  ( -1.000000000000000000, -2.312964634635742957E-16, 0.000000000000000000 ) ) ;
#295 = DIRECTION ( 'NONE',  ( 1.000000000000000000, 0.000000000000000000, 0.000000000000000000 ) ) ;
#296 = ORIENTED_EDGE ( 'NONE', *, *, #330, .F. ) ;
#297 = DIRECTION ( 'NONE',  ( -2.092008537135757247E-16, 1.000000000000000000, -0.000000000000000000 ) ) ;
#298 = CARTESIAN_POINT ( 'NONE',  ( -5.204170427930420494E-15, -3.663599798843365680E-15, 0.000000000000000000 ) ) ;
#299 = ORIENTED_EDGE ( 'NONE', *, *, #351, .T. ) ;
#300 = AXIS2_PLACEMENT_3D ( 'NONE', #422, #332, #614 ) ;
#301 = VECTOR ( 'NONE', #372, 1000.000000000000000 ) ;
#302 = EDGE_CURVE ( 'NONE', #54, #603, #376, .T. ) ;
#303 = DIRECTION ( 'NONE',  ( -1.000000000000000000, -2.092008537135757247E-16, 0.000000000000000000 ) ) ;
#304 = DIRECTION ( 'NONE',  ( -2.092008537135757247E-16, 1.000000000000000000, -0.000000000000000000 ) ) ;
#305 = ORIENTED_EDGE ( 'NONE', *, *, #42, .T. ) ;
#306 = DIRECTION ( 'NONE',  ( -2.092008537135757247E-16, 1.000000000000000000, -0.000000000000000000 ) ) ;
#307 = ORIENTED_EDGE ( 'NONE', *, *, #32, .T. ) ;
#308 = SURFACE_STYLE_FILL_AREA ( #114 ) ;
#309 = EDGE_LOOP ( 'NONE', ( #212, #89, #182, #15 ) ) ;
#310 = CIRCLE ( 'NONE', #374, 7.500000000000000000 ) ;
#311 = AXIS2_PLACEMENT_3D ( 'NONE', #517, #185, #568 ) ;
#312 = CARTESIAN_POINT ( 'NONE',  ( -7.499999999999992895, -60.00000000000000000, 0.000000000000000000 ) ) ;
#313 = MECHANICAL_DESIGN_GEOMETRIC_PRESENTATION_REPRESENTATION (  '', ( #139 ), #325 ) ;
#314 = DIRECTION ( 'NONE',  ( -1.000000000000000000, 0.000000000000000000, 0.000000000000000000 ) ) ;
#315 = ORIENTED_EDGE ( 'NONE', *, *, #621, .T. ) ;
#316 = DIRECTION ( 'NONE',  ( -1.000000000000000000, -2.092008537135757247E-16, 0.000000000000000000 ) ) ;
#317 = DIRECTION ( 'NONE',  ( -1.000000000000000000, -1.734723475976807341E-16, 0.000000000000000000 ) ) ;
#318 = DIRECTION ( 'NONE',  ( -2.092008537135746401E-16, 1.000000000000000000, -0.000000000000000000 ) ) ;
#319 = CYLINDRICAL_SURFACE ( 'NONE', #335, 7.500000000000000000 ) ;
#320 = DIRECTION ( 'NONE',  ( -1.000000000000000000, -2.065146995210480751E-16, 0.000000000000000000 ) ) ;
#321 = LINE ( 'NONE', #465, #136 ) ;
#322 = CIRCLE ( 'NONE', #507, 13.99999999999999467 ) ;
#323 = EDGE_CURVE ( 'NONE', #54, #261, #262, .T. ) ;
#324 = CARTESIAN_POINT ( 'NONE',  ( 6.720278233743395002E-15, -56.99999999999999289, 0.000000000000000000 ) ) ;
#325 =( GEOMETRIC_REPRESENTATION_CONTEXT ( 3 ) GLOBAL_UNCERTAINTY_ASSIGNED_CONTEXT ( ( #350 ) ) GLOBAL_UNIT_ASSIGNED_CONTEXT ( ( #556, #417, #66 ) ) REPRESENTATION_CONTEXT ( 'NONE', 'WORKASPACE' ) );
#326 = ORIENTED_EDGE ( 'NONE', *, *, #172, .F. ) ;
#327 = DIRECTION ( 'NONE',  ( 1.000000000000000000, 0.000000000000000000, 0.000000000000000000 ) ) ;
#328 = FACE_BOUND ( 'NONE', #474, .T. ) ;
#329 = CARTESIAN_POINT ( 'NONE',  ( -5.204170427930421283E-15, 0.000000000000000000, 0.000000000000000000 ) ) ;
#330 = EDGE_CURVE ( 'NONE', #261, #249, #129, .T. ) ;
#331 = CARTESIAN_POINT ( 'NONE',  ( -5.204170427930421283E-15, 0.000000000000000000, 0.000000000000000000 ) ) ;
#332 = DIRECTION ( 'NONE',  ( 2.092008537135757247E-16, -1.000000000000000000, 0.000000000000000000 ) ) ;
#333 = VECTOR ( 'NONE', #232, 1000.000000000000000 ) ;
#334 = VECTOR ( 'NONE', #602, 1000.000000000000000 ) ;
#335 = AXIS2_PLACEMENT_3D ( 'NONE', #514, #111, #316 ) ;
#336 = PRODUCT_RELATED_PRODUCT_CATEGORY ( 'part', '', ( #558 ) ) ;
#337 = VERTEX_POINT ( 'NONE', #80 ) ;
#338 = DIRECTION ( 'NONE',  ( -2.092008537135757247E-16, 1.000000000000000000, -0.000000000000000000 ) ) ;
#339 = ORIENTED_EDGE ( 'NONE', *, *, #146, .T. ) ;
#340 = PLANE ( 'NONE',  #23 ) ;
#341 = EDGE_LOOP ( 'NONE', ( #486, #451, #431, #11 ) ) ;
#342 = DIRECTION ( 'NONE',  ( -2.092008537135757247E-16, 1.000000000000000000, -0.000000000000000000 ) ) ;
#343 = EDGE_CURVE ( 'NONE', #603, #249, #322, .T. ) ;
#344 = AXIS2_PLACEMENT_3D ( 'NONE', #36, #581, #432 ) ;
#345 = VECTOR ( 'NONE', #208, 1000.000000000000000 ) ;
#346 = ORIENTED_EDGE ( 'NONE', *, *, #489, .F. ) ;
#347 = DIRECTION ( 'NONE',  ( -2.092008537135757247E-16, 1.000000000000000000, -0.000000000000000000 ) ) ;
#348 = ORIENTED_EDGE ( 'NONE', *, *, #18, .F. ) ;
#349 = DIRECTION ( 'NONE',  ( 1.000000000000000000, 2.092008537135757247E-16, 0.000000000000000000 ) ) ;
#350 = UNCERTAINTY_MEASURE_WITH_UNIT (LENGTH_MEASURE( 1.000000000000000082E-05 ), #556, 'distance_accuracy_value', 'NONE');
#351 = EDGE_CURVE ( 'NONE', #285, #500, #473, .T. ) ;
#352 = ORIENTED_EDGE ( 'NONE', *, *, #323, .F. ) ;
#353 = FACE_BOUND ( 'NONE', #153, .T. ) ;
#354 = AXIS2_PLACEMENT_3D ( 'NONE', #428, #574, #125 ) ;
#355 = CIRCLE ( 'NONE', #590, 7.500000000000000888 ) ;
#356 = ORIENTED_EDGE ( 'NONE', *, *, #438, .T. ) ;
#357 = AXIS2_PLACEMENT_3D ( 'NONE', #385, #430, #620 ) ;
#358 = DIRECTION ( 'NONE',  ( -1.000000000000000000, -2.092008537135757247E-16, 0.000000000000000000 ) ) ;
#359 = EDGE_LOOP ( 'NONE', ( #583, #384, #102, #561 ) ) ;
#360 = EDGE_CURVE ( 'NONE', #479, #393, #426, .T. ) ;
#361 = EDGE_LOOP ( 'NONE', ( #503, #339 ) ) ;
#362 = PRESENTATION_STYLE_ASSIGNMENT (( #269 ) ) ;
#363 = CARTESIAN_POINT ( 'NONE',  ( 14.00000000000000000, 2.928811951990061379E-15, 1.714505518806295032E-15 ) ) ;
#364 = ORIENTED_EDGE ( 'NONE', *, *, #292, .T. ) ;
#365 = CLOSED_SHELL ( 'NONE', ( #156, #130, #570, #97, #237, #143, #494, #481, #576, #198, #559, #420, #445, #401, #563, #532, #228, #608, #265, #176, #380, #86 ) ) ;
#366 = AXIS2_PLACEMENT_3D ( 'NONE', #324, #88, #573 ) ;
#367 = CARTESIAN_POINT ( 'NONE',  ( 10.50000000000001243, -3.000000000000000000, 1.285879139104722605E-15 ) ) ;
#368 = ORIENTED_EDGE ( 'NONE', *, *, #45, .T. ) ;
#369 = FACE_BOUND ( 'NONE', #189, .T. ) ;
#370 = CARTESIAN_POINT ( 'NONE',  ( -4.158166159362541402E-15, -5.000000000000005329, 0.000000000000000000 ) ) ;
#371 = ORIENTED_EDGE ( 'NONE', *, *, #71, .F. ) ;
#372 = DIRECTION ( 'NONE',  ( -2.092008537135757247E-16, 1.000000000000000000, -0.000000000000000000 ) ) ;
#373 = CARTESIAN_POINT ( 'NONE',  ( 13.50000000000000178, -56.99999999999999289, 0.000000000000000000 ) ) ;
#374 = AXIS2_PLACEMENT_3D ( 'NONE', #134, #518, #25 ) ;
#375 =( GEOMETRIC_REPRESENTATION_CONTEXT ( 3 ) GLOBAL_UNCERTAINTY_ASSIGNED_CONTEXT ( ( #539 ) ) GLOBAL_UNIT_ASSIGNED_CONTEXT ( ( #100, #109, #253 ) ) REPRESENTATION_CONTEXT ( 'NONE', 'WORKASPACE' ) );
#376 = LINE ( 'NONE', #141, #600 ) ;
#377 = CIRCLE ( 'NONE', #427, 4.999999999999999112 ) ;
#378 = CARTESIAN_POINT ( 'NONE',  ( 10.50000000000001243, -56.99999999999999289, 1.285879139104722605E-15 ) ) ;
#379 = CARTESIAN_POINT ( 'NONE',  ( -13.49999999999998757, -56.99999999999999289, 1.653273178848926275E-15 ) ) ;
#380 = ADVANCED_FACE ( 'NONE', ( #618 ), #201, .T. ) ;
#381 = ORIENTED_EDGE ( 'NONE', *, *, #625, .T. ) ;
#382 = EDGE_LOOP ( 'NONE', ( #371, #326, #207, #142 ) ) ;
#383 = DIRECTION ( 'NONE',  ( -2.092008537135757247E-16, 1.000000000000000000, -0.000000000000000000 ) ) ;
#384 = ORIENTED_EDGE ( 'NONE', *, *, #71, .T. ) ;
#385 = CARTESIAN_POINT ( 'NONE',  ( -5.204170427930421283E-15, 0.000000000000000000, 0.000000000000000000 ) ) ;
#386 = CIRCLE ( 'NONE', #468, 7.500000000000000000 ) ;
#387 = VECTOR ( 'NONE', #180, 1000.000000000000000 ) ;
#388 = ORIENTED_EDGE ( 'NONE', *, *, #243, .T. ) ;
#389 = CARTESIAN_POINT ( 'NONE',  ( 14.00000000000000000, -2.500000000000010214, 1.714505518806295032E-15 ) ) ;
#390 = EDGE_LOOP ( 'NONE', ( #444, #356, #116, #531 ) ) ;
#391 = APPLICATION_CONTEXT ( 'automotive_design' ) ;
#392 = CARTESIAN_POINT ( 'NONE',  ( -5.204170427930421283E-15, 0.000000000000000000, 0.000000000000000000 ) ) ;
#393 = VERTEX_POINT ( 'NONE', #135 ) ;
#394 = DIRECTION ( 'NONE',  ( -1.000000000000000000, -2.092008537135757247E-16, 0.000000000000000000 ) ) ;
#395 = DIRECTION ( 'NONE',  ( 2.092008537135733582E-16, -1.000000000000000000, 0.000000000000000000 ) ) ;
#396 = VECTOR ( 'NONE', #338, 1000.000000000000000 ) ;
#397 = AXIS2_PLACEMENT_3D ( 'NONE', #538, #252, #103 ) ;
#398 = VERTEX_POINT ( 'NONE', #480 ) ;
#399 = FACE_OUTER_BOUND ( 'NONE', #217, .T. ) ;
#400 = DIRECTION ( 'NONE',  ( -2.092008537135757247E-16, 1.000000000000000000, -0.000000000000000000 ) ) ;
#401 = ADVANCED_FACE ( 'NONE', ( #132 ), #624, .T. ) ;
#402 = ORIENTED_EDGE ( 'NONE', *, *, #164, .T. ) ;
#403 = CYLINDRICAL_SURFACE ( 'NONE', #64, 14.00000000000000533 ) ;
#404 = SURFACE_STYLE_FILL_AREA ( #456 ) ;
#405 = EDGE_CURVE ( 'NONE', #65, #441, #355, .T. ) ;
#406 = ORIENTED_EDGE ( 'NONE', *, *, #6, .T. ) ;
#407 = FACE_OUTER_BOUND ( 'NONE', #382, .T. ) ;
#408 = CIRCLE ( 'NONE', #107, 7.500000000000000000 ) ;
#409 = ORIENTED_EDGE ( 'NONE', *, *, #152, .F. ) ;
#410 = EDGE_LOOP ( 'NONE', ( #106, #157 ) ) ;
#411 = EDGE_CURVE ( 'NONE', #110, #500, #628, .T. ) ;
#412 = VERTEX_POINT ( 'NONE', #178 ) ;
#413 = CARTESIAN_POINT ( 'NONE',  ( -4.576567866789693986E-15, -3.000000000000002220, 0.000000000000000000 ) ) ;
#414 = DIRECTION ( 'NONE',  ( -2.092008537135757247E-16, 1.000000000000000000, -0.000000000000000000 ) ) ;
#415 = CARTESIAN_POINT ( 'NONE',  ( -4.681168293646478582E-15, -2.500000000000012879, 0.000000000000000000 ) ) ;
#416 = AXIS2_PLACEMENT_3D ( 'NONE', #69, #270, #314 ) ;
#417 =( NAMED_UNIT ( * ) PLANE_ANGLE_UNIT ( ) SI_UNIT ( $, .RADIAN. ) );
#418 = VECTOR ( 'NONE', #584, 1000.000000000000000 ) ;
#419 = FACE_BOUND ( 'NONE', #120, .T. ) ;
#420 = ADVANCED_FACE ( 'NONE', ( #530 ), #286, .T. ) ;
#421 = CARTESIAN_POINT ( 'NONE',  ( -4.576567866789693986E-15, -3.000000000000003109, 0.000000000000000000 ) ) ;
#422 = CARTESIAN_POINT ( 'NONE',  ( 2.735312324655554505E-31, -5.000000000000006217, 0.000000000000000000 ) ) ;
#423 = CARTESIAN_POINT ( 'NONE',  ( -14.00000000000001066, -6.592411750833427454E-15, 0.000000000000000000 ) ) ;
#424 = DIRECTION ( 'NONE',  ( 0.000000000000000000, 0.000000000000000000, 1.000000000000000000 ) ) ;
#425 = AXIS2_PLACEMENT_3D ( 'NONE', #96, #547, #282 ) ;
#426 = LINE ( 'NONE', #190, #231 ) ;
#427 = AXIS2_PLACEMENT_3D ( 'NONE', #487, #435, #491 ) ;
#428 = CARTESIAN_POINT ( 'NONE',  ( -5.204170427930420494E-15, -1.962642874006323739E-15, 0.000000000000000000 ) ) ;
#429 = EDGE_CURVE ( 'NONE', #627, #441, #38, .T. ) ;
#430 = DIRECTION ( 'NONE',  ( -2.092008537135757247E-16, 1.000000000000000000, -0.000000000000000000 ) ) ;
#431 = ORIENTED_EDGE ( 'NONE', *, *, #35, .T. ) ;
#432 = DIRECTION ( 'NONE',  ( -1.000000000000000000, 0.000000000000000000, 0.000000000000000000 ) ) ;
#433 = ORIENTED_EDGE ( 'NONE', *, *, #24, .T. ) ;
#434 = AXIS2_PLACEMENT_3D ( 'NONE', #79, #223, #81 ) ;
#435 = DIRECTION ( 'NONE',  ( -2.092008537135757247E-16, 1.000000000000000000, -0.000000000000000000 ) ) ;
#436 = AXIS2_PLACEMENT_3D ( 'NONE', #593, #496, #544 ) ;
#437 = AXIS2_PLACEMENT_3D ( 'NONE', #586, #297, #95 ) ;
#438 = EDGE_CURVE ( 'NONE', #49, #148, #127, .T. ) ;
#439 = ORIENTED_EDGE ( 'NONE', *, *, #32, .F. ) ;
#440 = DIRECTION ( 'NONE',  ( -2.092008537135757247E-16, 1.000000000000000000, -0.000000000000000000 ) ) ;
#441 = VERTEX_POINT ( 'NONE', #158 ) ;
#442 = PLANE ( 'NONE',  #281 ) ;
#443 = DIRECTION ( 'NONE',  ( 2.092008537135757247E-16, -1.000000000000000000, 0.000000000000000000 ) ) ;
#444 = ORIENTED_EDGE ( 'NONE', *, *, #511, .F. ) ;
#445 = ADVANCED_FACE ( 'NONE', ( #588, #353 ), #535, .F. ) ;
#446 = CARTESIAN_POINT ( 'NONE',  ( -5.204170427930421283E-15, 0.000000000000000000, 0.000000000000000000 ) ) ;
#447 = CARTESIAN_POINT ( 'NONE',  ( 6.720278233743395002E-15, -56.99999999999999289, 0.000000000000000000 ) ) ;
#448 = VECTOR ( 'NONE', #467, 1000.000000000000000 ) ;
#449 = STYLED_ITEM ( 'NONE', ( #454 ), #115 ) ;
#450 =( GEOMETRIC_REPRESENTATION_CONTEXT ( 3 ) GLOBAL_UNCERTAINTY_ASSIGNED_CONTEXT ( ( #205 ) ) GLOBAL_UNIT_ASSIGNED_CONTEXT ( ( #458, #12, #263 ) ) REPRESENTATION_CONTEXT ( 'NONE', 'WORKASPACE' ) );
#451 = ORIENTED_EDGE ( 'NONE', *, *, #292, .F. ) ;
#452 = CYLINDRICAL_SURFACE ( 'NONE', #397, 13.99999999999999467 ) ;
#453 = EDGE_CURVE ( 'NONE', #441, #65, #469, .T. ) ;
#454 = PRESENTATION_STYLE_ASSIGNMENT (( #527 ) ) ;
#455 = ORIENTED_EDGE ( 'NONE', *, *, #343, .F. ) ;
#456 = FILL_AREA_STYLE ('',( #48 ) ) ;
#457 = ORIENTED_EDGE ( 'NONE', *, *, #10, .F. ) ;
#458 =( LENGTH_UNIT ( ) NAMED_UNIT ( * ) SI_UNIT ( .MILLI., .METRE. ) );
#459 = CIRCLE ( 'NONE', #29, 13.99999999999999289 ) ;
#460 = AXIS2_PLACEMENT_3D ( 'NONE', #554, #72, #214 ) ;
#461 = ORIENTED_EDGE ( 'NONE', *, *, #260, .T. ) ;
#462 = FACE_OUTER_BOUND ( 'NONE', #39, .T. ) ;
#463 = ORIENTED_EDGE ( 'NONE', *, *, #257, .F. ) ;
#464 = CARTESIAN_POINT ( 'NONE',  ( 6.301876526316243208E-15, -55.00000000000000000, 0.000000000000000000 ) ) ;
#465 = CARTESIAN_POINT ( 'NONE',  ( -14.00000000000001066, -2.928811951990061379E-15, 0.000000000000000000 ) ) ;
#466 = CARTESIAN_POINT ( 'NONE',  ( 5.000000000000005329, -55.00000000000000000, 6.123233995736772199E-16 ) ) ;
#467 = DIRECTION ( 'NONE',  ( -2.092008537135757247E-16, 1.000000000000000000, -0.000000000000000000 ) ) ;
#468 = AXIS2_PLACEMENT_3D ( 'NONE', #3, #206, #246 ) ;
#469 = CIRCLE ( 'NONE', #437, 7.500000000000000888 ) ;
#470 = LINE ( 'NONE', #619, #497 ) ;
#471 = PLANE ( 'NONE',  #300 ) ;
#472 = DIRECTION ( 'NONE',  ( -2.092008537135757247E-16, 1.000000000000000000, -0.000000000000000000 ) ) ;
#473 = LINE ( 'NONE', #28, #40 ) ;
#474 = EDGE_LOOP ( 'NONE', ( #545, #293 ) ) ;
#475 = AXIS2_PLACEMENT_3D ( 'NONE', #329, #77, #523 ) ;
#476 = CARTESIAN_POINT ( 'NONE',  ( 6.824878660600181176E-15, -57.49999999999999289, 0.000000000000000000 ) ) ;
#477 = AXIS2_PLACEMENT_3D ( 'NONE', #236, #233, #90 ) ;
#478 = LINE ( 'NONE', #126, #396 ) ;
#479 = VERTEX_POINT ( 'NONE', #245 ) ;
#480 = CARTESIAN_POINT ( 'NONE',  ( -10.50000000000002487, -3.000000000000004441, 0.000000000000000000 ) ) ;
#481 = ADVANCED_FACE ( 'NONE', ( #495 ), #147, .F. ) ;
#482 = ADVANCED_BREP_SHAPE_REPRESENTATION ( '输送带导向滚2', ( #115, #14 ), #450 ) ;
#483 = VERTEX_POINT ( 'NONE', #546 ) ;
#484 = FACE_OUTER_BOUND ( 'NONE', #630, .T. ) ;
#485 = AXIS2_PLACEMENT_3D ( 'NONE', #105, #443, #151 ) ;
#486 = ORIENTED_EDGE ( 'NONE', *, *, #625, .F. ) ;
#487 = CARTESIAN_POINT ( 'NONE',  ( -4.158166159362541402E-15, -5.000000000000005329, 0.000000000000000000 ) ) ;
#488 = DIRECTION ( 'NONE',  ( -1.000000000000000000, -2.168404344971008128E-16, 0.000000000000000000 ) ) ;
#489 = EDGE_CURVE ( 'NONE', #587, #193, #44, .T. ) ;
#490 = ORIENTED_EDGE ( 'NONE', *, *, #101, .T. ) ;
#491 = DIRECTION ( 'NONE',  ( -1.000000000000000000, -1.734723475976807341E-16, 0.000000000000000000 ) ) ;
#492 = CARTESIAN_POINT ( 'NONE',  ( -4.681168293646478582E-15, -2.500000000000012879, 0.000000000000000000 ) ) ;
#493 = ORIENTED_EDGE ( 'NONE', *, *, #541, .T. ) ;
#494 = ADVANCED_FACE ( 'NONE', ( #41 ), #452, .T. ) ;
#495 = FACE_OUTER_BOUND ( 'NONE', #359, .T. ) ;
#496 = DIRECTION ( 'NONE',  ( -2.092008537135757247E-16, 1.000000000000000000, -0.000000000000000000 ) ) ;
#497 = VECTOR ( 'NONE', #522, 1000.000000000000000 ) ;
#498 = AXIS2_PLACEMENT_3D ( 'NONE', #464, #414, #169 ) ;
#499 = PRESENTATION_LAYER_ASSIGNMENT (  '', '', ( #139 ) ) ;
#500 = VERTEX_POINT ( 'NONE', #389 ) ;
#501 = FACE_BOUND ( 'NONE', #615, .T. ) ;
#502 = FACE_OUTER_BOUND ( 'NONE', #145, .T. ) ;
#503 = ORIENTED_EDGE ( 'NONE', *, *, #604, .T. ) ;
#504 = DIRECTION ( 'NONE',  ( 2.092008537135757247E-16, -1.000000000000000000, 0.000000000000000000 ) ) ;
#505 = ORIENTED_EDGE ( 'NONE', *, *, #218, .F. ) ;
#506 = CARTESIAN_POINT ( 'NONE',  ( 2.735312324655559759E-31, -55.00000000000000000, 0.000000000000000000 ) ) ;
#507 = AXIS2_PLACEMENT_3D ( 'NONE', #476, #575, #276 ) ;
#508 = ORIENTED_EDGE ( 'NONE', *, *, #18, .T. ) ;
#509 = CARTESIAN_POINT ( 'NONE',  ( -13.99999999999998757, -57.49999999999999289, 0.000000000000000000 ) ) ;
#510 = DIRECTION ( 'NONE',  ( -1.000000000000000000, -2.168404344971008128E-16, 0.000000000000000000 ) ) ;
#511 = EDGE_CURVE ( 'NONE', #49, #594, #194, .T. ) ;
#512 = FACE_OUTER_BOUND ( 'NONE', #601, .T. ) ;
#513 = VERTEX_POINT ( 'NONE', #5 ) ;
#514 = CARTESIAN_POINT ( 'NONE',  ( -5.204170427930421283E-15, 0.000000000000000000, 0.000000000000000000 ) ) ;
#515 = DIRECTION ( 'NONE',  ( -2.092008537135757247E-16, 1.000000000000000000, -0.000000000000000000 ) ) ;
#516 = AXIS2_PLACEMENT_3D ( 'NONE', #298, #304, #540 ) ;
#517 = CARTESIAN_POINT ( 'NONE',  ( 6.720278233743393425E-15, -56.99999999999999289, 0.000000000000000000 ) ) ;
#518 = DIRECTION ( 'NONE',  ( -2.092008537135757247E-16, 1.000000000000000000, -0.000000000000000000 ) ) ;
#519 = APPLICATION_PROTOCOL_DEFINITION ( 'draft international standard', 'automotive_design', 1998, #391 ) ;
#520 = DIRECTION ( 'NONE',  ( -0.7071067811865474617, -0.7071067811865476838, 8.659560562354934091E-17 ) ) ;
#521 = EDGE_CURVE ( 'NONE', #148, #398, #150, .T. ) ;
#522 = DIRECTION ( 'NONE',  ( -2.092008537135757247E-16, 1.000000000000000000, -0.000000000000000000 ) ) ;
#523 = DIRECTION ( 'NONE',  ( -1.000000000000000000, -2.092008537135757494E-16, 0.000000000000000000 ) ) ;
#524 = CIRCLE ( 'NONE', #516, 14.00000000000000533 ) ;
#525 = LINE ( 'NONE', #226, #387 ) ;
#526 = CIRCLE ( 'NONE', #251, 14.00000000000000533 ) ;
#527 = SURFACE_STYLE_USAGE ( .BOTH. , #53 ) ;
#528 = ORIENTED_EDGE ( 'NONE', *, *, #277, .T. ) ;
#529 = EDGE_CURVE ( 'NONE', #587, #479, #549, .T. ) ;
#530 = FACE_OUTER_BOUND ( 'NONE', #264, .T. ) ;
#531 = ORIENTED_EDGE ( 'NONE', *, *, #621, .F. ) ;
#532 = ADVANCED_FACE ( 'NONE', ( #2 ), #403, .T. ) ;
#533 = DIRECTION ( 'NONE',  ( -2.092008537135757247E-16, 1.000000000000000000, 0.000000000000000000 ) ) ;
#534 = ORIENTED_EDGE ( 'NONE', *, *, #172, .T. ) ;
#535 = PLANE ( 'NONE',  #562 ) ;
#536 = AXIS2_PLACEMENT_3D ( 'NONE', #67, #557, #60 ) ;
#537 = ORIENTED_EDGE ( 'NONE', *, *, #133, .T. ) ;
#538 = CARTESIAN_POINT ( 'NONE',  ( -5.204170427930421283E-15, 0.000000000000000000, 0.000000000000000000 ) ) ;
#539 = UNCERTAINTY_MEASURE_WITH_UNIT (LENGTH_MEASURE( 1.000000000000000082E-05 ), #100, 'distance_accuracy_value', 'NONE');
#540 = DIRECTION ( 'NONE',  ( -1.000000000000000000, -2.092008537135757247E-16, 0.000000000000000000 ) ) ;
#541 = EDGE_CURVE ( 'NONE', #483, #241, #377, .T. ) ;
#542 = ORIENTED_EDGE ( 'NONE', *, *, #302, .F. ) ;
#543 = DIRECTION ( 'NONE',  ( -2.092008537135757247E-16, 1.000000000000000000, -0.000000000000000000 ) ) ;
#544 = DIRECTION ( 'NONE',  ( -1.000000000000000000, -2.092008537135757001E-16, 0.000000000000000000 ) ) ;
#545 = ORIENTED_EDGE ( 'NONE', *, *, #211, .F. ) ;
#546 = CARTESIAN_POINT ( 'NONE',  ( 4.999999999999994671, -5.000000000000004441, 6.123233995736765296E-16 ) ) ;
#547 = DIRECTION ( 'NONE',  ( -2.092008537135757247E-16, 1.000000000000000000, -0.000000000000000000 ) ) ;
#548 = COLOUR_RGB ( '',1.000000000000000000, 1.000000000000000000, 1.000000000000000000 ) ;
#549 = CIRCLE ( 'NONE', #202, 7.500000000000000000 ) ;
#550 = VERTEX_POINT ( 'NONE', #631 ) ;
#551 = DIRECTION ( 'NONE',  ( -1.000000000000000000, -2.092008537135757247E-16, 0.000000000000000000 ) ) ;
#552 = ORIENTED_EDGE ( 'NONE', *, *, #529, .T. ) ;
#553 = APPLICATION_PROTOCOL_DEFINITION ( 'draft international standard', 'automotive_design', 1998, #183 ) ;
#554 = CARTESIAN_POINT ( 'NONE',  ( 6.720278233743393425E-15, -56.99999999999999289, 0.000000000000000000 ) ) ;
#555 = ORIENTED_EDGE ( 'NONE', *, *, #283, .F. ) ;
#556 =( LENGTH_UNIT ( ) NAMED_UNIT ( * ) SI_UNIT ( .MILLI., .METRE. ) );
#557 = DIRECTION ( 'NONE',  ( -2.092008537135757247E-16, 1.000000000000000000, -0.000000000000000000 ) ) ;
#558 = PRODUCT ( '输送带导向滚2', '输送带导向滚2', '', ( #567 ) ) ;
#559 = ADVANCED_FACE ( 'NONE', ( #399, #154 ), #442, .F. ) ;
#560 = CONICAL_SURFACE ( 'NONE', #63, 13.49999999999999467, 0.7853981633974482790 ) ;
#561 = ORIENTED_EDGE ( 'NONE', *, *, #429, .F. ) ;
#562 = AXIS2_PLACEMENT_3D ( 'NONE', #50, #629, #349 ) ;
#563 = ADVANCED_FACE ( 'NONE', ( #47, #501 ), #340, .F. ) ;
#564 = ORIENTED_EDGE ( 'NONE', *, *, #330, .T. ) ;
#565 = DIRECTION ( 'NONE',  ( -2.092008537135757247E-16, 1.000000000000000000, -0.000000000000000000 ) ) ;
#566 = CARTESIAN_POINT ( 'NONE',  ( 13.99999999999998934, 2.928811951990059012E-15, 1.714505518806294046E-15 ) ) ;
#567 = PRODUCT_CONTEXT ( 'NONE', #183, 'mechanical' ) ;
#568 = DIRECTION ( 'NONE',  ( 1.000000000000000000, 0.000000000000000000, 0.000000000000000000 ) ) ;
#569 = DIRECTION ( 'NONE',  ( -1.000000000000000000, -2.092008537135757247E-16, 0.000000000000000000 ) ) ;
#570 = ADVANCED_FACE ( 'NONE', ( #484 ), #196, .F. ) ;
#571 = FACE_OUTER_BOUND ( 'NONE', #605, .T. ) ;
#572 = VERTEX_POINT ( 'NONE', #466 ) ;
#573 = DIRECTION ( 'NONE',  ( 1.000000000000000000, 0.000000000000000000, 0.000000000000000000 ) ) ;
#574 = DIRECTION ( 'NONE',  ( -2.092008537135757247E-16, 1.000000000000000000, -0.000000000000000000 ) ) ;
#575 = DIRECTION ( 'NONE',  ( 2.092008537135733582E-16, -1.000000000000000000, 0.000000000000000000 ) ) ;
#576 = ADVANCED_FACE ( 'NONE', ( #462, #369 ), #598, .F. ) ;
#577 = AXIS2_PLACEMENT_3D ( 'NONE', #613, #173, #569 ) ;
#578 = ORIENTED_EDGE ( 'NONE', *, *, #411, .T. ) ;
#579 = AXIS2_PLACEMENT_3D ( 'NONE', #421, #122, #278 ) ;
#580 = CIRCLE ( 'NONE', #416, 7.500000000000000000 ) ;
#581 = DIRECTION ( 'NONE',  ( -2.092008537135757247E-16, 1.000000000000000000, -0.000000000000000000 ) ) ;
#582 = VECTOR ( 'NONE', #288, 1000.000000000000000 ) ;
#583 = ORIENTED_EDGE ( 'NONE', *, *, #243, .F. ) ;
#584 = DIRECTION ( 'NONE',  ( -2.092008537135757247E-16, 1.000000000000000000, -0.000000000000000000 ) ) ;
#585 = ORIENTED_EDGE ( 'NONE', *, *, #489, .T. ) ;
#586 = CARTESIAN_POINT ( 'NONE',  ( 6.301876526316243208E-15, -55.00000000000000000, 0.000000000000000000 ) ) ;
#587 = VERTEX_POINT ( 'NONE', #8 ) ;
#588 = FACE_OUTER_BOUND ( 'NONE', #410, .T. ) ;
#589 = AXIS2_PLACEMENT_3D ( 'NONE', #128, #472, #27 ) ;
#590 = AXIS2_PLACEMENT_3D ( 'NONE', #284, #187, #82 ) ;
#591 = ORIENTED_EDGE ( 'NONE', *, *, #438, .F. ) ;
#592 = CARTESIAN_POINT ( 'NONE',  ( 10.50000000000000711, 2.196608963992547908E-15, 1.285879139104722408E-15 ) ) ;
#593 = CARTESIAN_POINT ( 'NONE',  ( -5.204170427930421283E-15, 0.000000000000000000, 0.000000000000000000 ) ) ;
#594 = VERTEX_POINT ( 'NONE', #367 ) ;
#595 = CARTESIAN_POINT ( 'NONE',  ( 4.704737198407558740E-31, -60.00000000000000000, 0.000000000000000000 ) ) ;
#596 = FACE_OUTER_BOUND ( 'NONE', #37, .T. ) ;
#597 = EDGE_LOOP ( 'NONE', ( #195, #368, #307, #140 ) ) ;
#598 = PLANE ( 'NONE',  #119 ) ;
#599 = CYLINDRICAL_SURFACE ( 'NONE', #149, 7.500000000000000000 ) ;
#600 = VECTOR ( 'NONE', #33, 1000.000000000000000 ) ;
#601 = EDGE_LOOP ( 'NONE', ( #578, #244, #225, #439 ) ) ;
#602 = DIRECTION ( 'NONE',  ( -2.092008537135757247E-16, 1.000000000000000000, -0.000000000000000000 ) ) ;
#603 = VERTEX_POINT ( 'NONE', #123 ) ;
#604 = EDGE_CURVE ( 'NONE', #113, #412, #526, .T. ) ;
#605 = EDGE_LOOP ( 'NONE', ( #402, #552 ) ) ;
#606 = DIRECTION ( 'NONE',  ( -1.000000000000000000, -2.092008537135757247E-16, 0.000000000000000000 ) ) ;
#607 = CARTESIAN_POINT ( 'NONE',  ( -4.576567866789693986E-15, -3.000000000000002220, 0.000000000000000000 ) ) ;
#608 = ADVANCED_FACE ( 'NONE', ( #165 ), #319, .F. ) ;
#609 = AXIS2_PLACEMENT_3D ( 'NONE', #492, #56, #488 ) ;
#610 = CYLINDRICAL_SURFACE ( 'NONE', #577, 7.500000000000000000 ) ;
#611 = AXIS2_PLACEMENT_3D ( 'NONE', #392, #342, #59 ) ;
#612 = CARTESIAN_POINT ( 'NONE',  ( -7.500000000000005329, -1.569006402851817849E-15, 0.000000000000000000 ) ) ;
#613 = CARTESIAN_POINT ( 'NONE',  ( -5.204170427930421283E-15, 0.000000000000000000, 0.000000000000000000 ) ) ;
#614 = DIRECTION ( 'NONE',  ( 1.000000000000000000, 2.092008537135757247E-16, 0.000000000000000000 ) ) ;
#615 = EDGE_LOOP ( 'NONE', ( #623, #315 ) ) ;
#616 = AXIS2_PLACEMENT_3D ( 'NONE', #622, #34, #295 ) ;
#617 = ORIENTED_EDGE ( 'NONE', *, *, #511, .T. ) ;
#618 = FACE_OUTER_BOUND ( 'NONE', #7, .T. ) ;
#619 = CARTESIAN_POINT ( 'NONE',  ( -5.000000000000004441, -1.046004268567878303E-15, 0.000000000000000000 ) ) ;
#620 = DIRECTION ( 'NONE',  ( -1.000000000000000000, -2.092008537135757247E-16, 0.000000000000000000 ) ) ;
#621 = EDGE_CURVE ( 'NONE', #594, #398, #87, .T. ) ;
#622 = CARTESIAN_POINT ( 'NONE',  ( 6.824878660600181176E-15, -57.49999999999999289, 0.000000000000000000 ) ) ;
#623 = ORIENTED_EDGE ( 'NONE', *, *, #257, .T. ) ;
#624 = CYLINDRICAL_SURFACE ( 'NONE', #475, 10.50000000000001243 ) ;
#625 = EDGE_CURVE ( 'NONE', #572, #483, #121, .T. ) ;
#626 = CIRCLE ( 'NONE', #354, 7.500000000000000000 ) ;
#627 = VERTEX_POINT ( 'NONE', #312 ) ;
#628 = CIRCLE ( 'NONE', #477, 14.00000000000000533 ) ;
#629 = DIRECTION ( 'NONE',  ( 2.092008537135757247E-16, -1.000000000000000000, 0.000000000000000000 ) ) ;
#630 = EDGE_LOOP ( 'NONE', ( #91, #381, #493, #177 ) ) ;
#631 = CARTESIAN_POINT ( 'NONE',  ( 14.00000000000000000, -60.00000000000000000, 1.714505518806293849E-15 ) ) ;
#632 = ORIENTED_EDGE ( 'NONE', *, *, #6, .F. ) ;
#633 = DIRECTION ( 'NONE',  ( -1.000000000000000000, 0.000000000000000000, 0.000000000000000000 ) ) ;
#634 = FACE_OUTER_BOUND ( 'NONE', #341, .T. ) ;
ENDSEC;
END-ISO-10303-21;
