ISO-10303-21;
HEADER;
FILE_DESCRIPTION (( 'STEP AP214' ),
    '1' );
FILE_NAME ('输送带导向滚2固定亚克力板.step',
    '2023-08-15T03:07:00',
    ( '' ),
    ( '' ),
    'SwSTEP 2.0',
    'SolidWorks 2022',
    '' );
FILE_SCHEMA (( 'AUTOMOTIVE_DESIGN' ));
ENDSEC;

DATA;
#1 = DIRECTION ( 'NONE',  ( 0.000000000000000000, -0.000000000000000000, -1.000000000000000000 ) ) ;
#2 = VERTEX_POINT ( 'NONE', #164 ) ;
#3 = EDGE_CURVE ( 'NONE', #943, #402, #825, .T. ) ;
#4 = DIRECTION ( 'NONE',  ( -1.239088197126291063E-16, -1.000000000000000000, 0.000000000000000000 ) ) ;
#5 = DIRECTION ( 'NONE',  ( -0.000000000000000000, -0.000000000000000000, 1.000000000000000000 ) ) ;
#6 = VERTEX_POINT ( 'NONE', #7 ) ;
#7 = CARTESIAN_POINT ( 'NONE',  ( 3.500000000000001776, -16.49999999999999289, 6.000000000000000000 ) ) ;
#8 = VECTOR ( 'NONE', #527, 1000.000000000000000 ) ;
#9 = VECTOR ( 'NONE', #146, 1000.000000000000000 ) ;
#10 = DIRECTION ( 'NONE',  ( -0.000000000000000000, -0.000000000000000000, 1.000000000000000000 ) ) ;
#11 = PLANE ( 'NONE',  #765 ) ;
#12 = EDGE_CURVE ( 'NONE', #496, #6, #85, .T. ) ;
#13 = ORIENTED_EDGE ( 'NONE', *, *, #903, .T. ) ;
#14 = CARTESIAN_POINT ( 'NONE',  ( 3.500000000000001776, -16.49999999999999289, -4.000000000000000000 ) ) ;
#15 = AXIS2_PLACEMENT_3D ( 'NONE', #954, #369, #441 ) ;
#16 = ORIENTED_EDGE ( 'NONE', *, *, #113, .T. ) ;
#17 = DIRECTION ( 'NONE',  ( 1.239088197126291063E-16, -1.000000000000000000, 0.000000000000000000 ) ) ;
#18 = ORIENTED_EDGE ( 'NONE', *, *, #857, .T. ) ;
#19 = EDGE_CURVE ( 'NONE', #39, #586, #525, .T. ) ;
#20 = CARTESIAN_POINT ( 'NONE',  ( 3.500000000000003997, -4.336808689942023652E-16, 0.000000000000000000 ) ) ;
#21 = ORIENTED_EDGE ( 'NONE', *, *, #81, .F. ) ;
#22 = CARTESIAN_POINT ( 'NONE',  ( 9.999999999999996447, 30.00000000000000000, 0.000000000000000000 ) ) ;
#23 = EDGE_CURVE ( 'NONE', #212, #223, #529, .T. ) ;
#24 = SURFACE_STYLE_USAGE ( .BOTH. , #178 ) ;
#25 = VECTOR ( 'NONE', #341, 1000.000000000000000 ) ;
#26 = AXIS2_PLACEMENT_3D ( 'NONE', #510, #655, #145 ) ;
#27 = VERTEX_POINT ( 'NONE', #460 ) ;
#28 = DIRECTION ( 'NONE',  ( 1.239088197126291063E-16, 1.000000000000000000, 0.000000000000000000 ) ) ;
#29 = CARTESIAN_POINT ( 'NONE',  ( 0.000000000000000000, -16.49999999999999289, -4.000000000000000000 ) ) ;
#30 = EDGE_CURVE ( 'NONE', #157, #959, #540, .T. ) ;
#31 = ORIENTED_EDGE ( 'NONE', *, *, #660, .F. ) ;
#32 = APPLICATION_CONTEXT ( 'automotive_design' ) ;
#33 = FACE_OUTER_BOUND ( 'NONE', #754, .T. ) ;
#34 = CARTESIAN_POINT ( 'NONE',  ( 9.549999999999984723, 7.500000000000000888, 5.975000000000003197 ) ) ;
#35 = EDGE_CURVE ( 'NONE', #943, #639, #609, .T. ) ;
#36 = ORIENTED_EDGE ( 'NONE', *, *, #682, .T. ) ;
#37 = DIRECTION ( 'NONE',  ( 0.000000000000000000, 0.000000000000000000, -1.000000000000000000 ) ) ;
#38 = LINE ( 'NONE', #489, #367 ) ;
#39 = VERTEX_POINT ( 'NONE', #22 ) ;
#40 = VECTOR ( 'NONE', #163, 1000.000000000000000 ) ;
#41 = LINE ( 'NONE', #768, #744 ) ;
#42 = CARTESIAN_POINT ( 'NONE',  ( 5.424999999999997158, -7.499999999999999112, 6.000000000000001776 ) ) ;
#43 = CARTESIAN_POINT ( 'NONE',  ( -9.574999999999999289, -7.499999999999999112, 6.000000000000001776 ) ) ;
#44 = ORIENTED_EDGE ( 'NONE', *, *, #721, .T. ) ;
#45 = VECTOR ( 'NONE', #686, 1000.000000000000000 ) ;
#46 = CARTESIAN_POINT ( 'NONE',  ( 9.574999999999999289, 7.500000000000000888, 6.000000000000001776 ) ) ;
#47 = EDGE_CURVE ( 'NONE', #643, #528, #125, .T. ) ;
#48 = ORIENTED_EDGE ( 'NONE', *, *, #613, .T. ) ;
#49 = CARTESIAN_POINT ( 'NONE',  ( 7.499999999999999112, 7.500000000000000888, 0.000000000000000000 ) ) ;
#50 = VERTEX_POINT ( 'NONE', #306 ) ;
#51 = DIRECTION ( 'NONE',  ( -0.000000000000000000, -0.000000000000000000, 1.000000000000000000 ) ) ;
#52 = VERTEX_POINT ( 'NONE', #750 ) ;
#53 = EDGE_CURVE ( 'NONE', #62, #749, #755, .T. ) ;
#54 = VERTEX_POINT ( 'NONE', #390 ) ;
#55 = VECTOR ( 'NONE', #838, 1000.000000000000000 ) ;
#56 = CARTESIAN_POINT ( 'NONE',  ( -7.500000000000000888, 7.500000000000000888, 6.000000000000001776 ) ) ;
#57 = CIRCLE ( 'NONE', #523, 2.049999999999986944 ) ;
#58 = ORIENTED_EDGE ( 'NONE', *, *, #594, .T. ) ;
#59 = PLANE ( 'NONE',  #246 ) ;
#60 = ORIENTED_EDGE ( 'NONE', *, *, #762, .T. ) ;
#61 = DIRECTION ( 'NONE',  ( 1.000000000000000000, 0.000000000000000000, 0.000000000000000000 ) ) ;
#62 = VERTEX_POINT ( 'NONE', #251 ) ;
#63 = VECTOR ( 'NONE', #484, 1000.000000000000000 ) ;
#64 = DIRECTION ( 'NONE',  ( 1.000000000000000000, 0.000000000000000000, 0.000000000000000000 ) ) ;
#65 = CARTESIAN_POINT ( 'NONE',  ( -7.500000000000000888, -7.499999999999999112, 6.000000000000000000 ) ) ;
#66 = CARTESIAN_POINT ( 'NONE',  ( -9.549999999999988276, 7.500000000000000888, 5.975000000000003197 ) ) ;
#67 = EDGE_CURVE ( 'NONE', #496, #215, #680, .T. ) ;
#68 = ORIENTED_EDGE ( 'NONE', *, *, #721, .F. ) ;
#69 = CARTESIAN_POINT ( 'NONE',  ( 5.424999999999997158, -7.499999999999999112, 6.000000000000001776 ) ) ;
#70 = CARTESIAN_POINT ( 'NONE',  ( 5.424999999999997158, 7.500000000000000888, 6.000000000000001776 ) ) ;
#71 = DIRECTION ( 'NONE',  ( -0.000000000000000000, -0.000000000000000000, 1.000000000000000000 ) ) ;
#72 = VERTEX_POINT ( 'NONE', #396 ) ;
#73 = VECTOR ( 'NONE', #482, 1000.000000000000000 ) ;
#74 = AXIS2_PLACEMENT_3D ( 'NONE', #956, #451, #151 ) ;
#75 = CARTESIAN_POINT ( 'NONE',  ( -3.499999999999999112, 23.49999999999999289, -4.000000000000000000 ) ) ;
#76 =( LENGTH_UNIT ( ) NAMED_UNIT ( * ) SI_UNIT ( .MILLI., .METRE. ) );
#77 = ORIENTED_EDGE ( 'NONE', *, *, #351, .F. ) ;
#78 = EDGE_CURVE ( 'NONE', #639, #764, #544, .T. ) ;
#79 = ORIENTED_EDGE ( 'NONE', *, *, #781, .F. ) ;
#80 = AXIS2_PLACEMENT_3D ( 'NONE', #187, #479, #264 ) ;
#81 = EDGE_CURVE ( 'NONE', #157, #764, #201, .T. ) ;
#82 = DIRECTION ( 'NONE',  ( 1.000000000000000000, 0.000000000000000000, 0.000000000000000000 ) ) ;
#83 = CARTESIAN_POINT ( 'NONE',  ( -7.500000000000000888, -7.499999999999999112, 0.000000000000000000 ) ) ;
#84 = ORIENTED_EDGE ( 'NONE', *, *, #671, .F. ) ;
#85 = LINE ( 'NONE', #14, #872 ) ;
#86 = EDGE_CURVE ( 'NONE', #911, #696, #41, .T. ) ;
#87 = CARTESIAN_POINT ( 'NONE',  ( -10.00000000000000000, 30.00000000000000000, 6.000000000000000000 ) ) ;
#88 = VERTEX_POINT ( 'NONE', #46 ) ;
#89 = CONICAL_SURFACE ( 'NONE', #103, 2.075000000000001510, 0.7853981633977604737 ) ;
#90 = VECTOR ( 'NONE', #95, 1000.000000000000000 ) ;
#91 = DIRECTION ( 'NONE',  ( -0.000000000000000000, -0.000000000000000000, 1.000000000000000000 ) ) ;
#92 = LINE ( 'NONE', #316, #40 ) ;
#93 = EDGE_LOOP ( 'NONE', ( #428, #865, #645, #240 ) ) ;
#94 = CARTESIAN_POINT ( 'NONE',  ( -10.00000000000000000, -30.00000000000000000, 6.000000000000000000 ) ) ;
#95 = DIRECTION ( 'NONE',  ( -0.000000000000000000, -0.000000000000000000, 1.000000000000000000 ) ) ;
#96 = ORIENTED_EDGE ( 'NONE', *, *, #78, .T. ) ;
#97 = EDGE_CURVE ( 'NONE', #684, #806, #195, .T. ) ;
#98 = DIRECTION ( 'NONE',  ( -1.239088197126291063E-16, -1.000000000000000000, 0.000000000000000000 ) ) ;
#99 = FILL_AREA_STYLE_COLOUR ( '', #354 ) ;
#100 = VERTEX_POINT ( 'NONE', #487 ) ;
#101 = CARTESIAN_POINT ( 'NONE',  ( 3.500000000000003997, -4.336808689942023652E-16, 6.000000000000000000 ) ) ;
#102 = LINE ( 'NONE', #404, #890 ) ;
#103 = AXIS2_PLACEMENT_3D ( 'NONE', #543, #839, #176 ) ;
#104 = EDGE_LOOP ( 'NONE', ( #353, #317, #416, #408 ) ) ;
#105 = DIRECTION ( 'NONE',  ( -0.000000000000000000, -0.000000000000000000, 1.000000000000000000 ) ) ;
#106 = EDGE_CURVE ( 'NONE', #569, #603, #102, .T. ) ;
#107 = PLANE ( 'NONE',  #447 ) ;
#108 = FACE_BOUND ( 'NONE', #920, .T. ) ;
#109 = ORIENTED_EDGE ( 'NONE', *, *, #424, .T. ) ;
#110 = FACE_BOUND ( 'NONE', #936, .T. ) ;
#111 = PLANE ( 'NONE',  #908 ) ;
#112 = DIRECTION ( 'NONE',  ( 1.000000000000000000, 0.000000000000000000, 0.000000000000000000 ) ) ;
#113 = EDGE_CURVE ( 'NONE', #305, #88, #495, .T. ) ;
#114 = VERTEX_POINT ( 'NONE', #332 ) ;
#115 = CARTESIAN_POINT ( 'NONE',  ( -7.500000000000000888, 7.500000000000000888, 5.975000000000003197 ) ) ;
#116 = FACE_OUTER_BOUND ( 'NONE', #797, .T. ) ;
#117 = ORIENTED_EDGE ( 'NONE', *, *, #613, .F. ) ;
#118 = VECTOR ( 'NONE', #802, 1000.000000000000000 ) ;
#119 = EDGE_CURVE ( 'NONE', #2, #133, #400, .T. ) ;
#120 = VECTOR ( 'NONE', #743, 1000.000000000000000 ) ;
#121 = FACE_BOUND ( 'NONE', #379, .T. ) ;
#122 = ORIENTED_EDGE ( 'NONE', *, *, #924, .T. ) ;
#123 = LINE ( 'NONE', #203, #216 ) ;
#124 = ORIENTED_EDGE ( 'NONE', *, *, #192, .F. ) ;
#125 = CIRCLE ( 'NONE', #437, 2.049999999999986944 ) ;
#126 = CARTESIAN_POINT ( 'NONE',  ( -3.499999999999998224, -16.49999999999999289, 0.000000000000000000 ) ) ;
#127 = ORIENTED_EDGE ( 'NONE', *, *, #903, .F. ) ;
#128 = EDGE_CURVE ( 'NONE', #566, #696, #863, .T. ) ;
#129 = CARTESIAN_POINT ( 'NONE',  ( 3.500000000000003997, -4.336808689942023652E-16, -4.000000000000000000 ) ) ;
#130 = CARTESIAN_POINT ( 'NONE',  ( 3.500000000000003997, 4.336808689942023652E-16, 0.000000000000000000 ) ) ;
#131 = VERTEX_POINT ( 'NONE', #344 ) ;
#132 = DIRECTION ( 'NONE',  ( 1.000000000000000000, 0.000000000000000000, 0.000000000000000000 ) ) ;
#133 = VERTEX_POINT ( 'NONE', #34 ) ;
#134 = DIRECTION ( 'NONE',  ( -0.000000000000000000, -0.000000000000000000, 1.000000000000000000 ) ) ;
#135 = EDGE_LOOP ( 'NONE', ( #124, #851, #122, #358 ) ) ;
#136 = CIRCLE ( 'NONE', #567, 2.049999999999987388 ) ;
#137 = DIRECTION ( 'NONE',  ( -0.7071067811867437491, 8.659560562357336419E-17, 0.7071067811863512853 ) ) ;
#138 = AXIS2_PLACEMENT_3D ( 'NONE', #902, #966, #221 ) ;
#139 = EDGE_LOOP ( 'NONE', ( #955, #486, #717, #249 ) ) ;
#140 = DIRECTION ( 'NONE',  ( -0.000000000000000000, -0.000000000000000000, 1.000000000000000000 ) ) ;
#141 = DIRECTION ( 'NONE',  ( -0.000000000000000000, -0.000000000000000000, 1.000000000000000000 ) ) ;
#142 = FACE_OUTER_BOUND ( 'NONE', #231, .T. ) ;
#143 = ORIENTED_EDGE ( 'NONE', *, *, #794, .F. ) ;
#144 = CONICAL_SURFACE ( 'NONE', #391, 2.075000000000000622, 0.7853981633977258348 ) ;
#145 = DIRECTION ( 'NONE',  ( 1.000000000000000000, 0.000000000000000000, 0.000000000000000000 ) ) ;
#146 = DIRECTION ( 'NONE',  ( -0.000000000000000000, -0.000000000000000000, 1.000000000000000000 ) ) ;
#147 = EDGE_CURVE ( 'NONE', #301, #131, #327, .T. ) ;
#148 = LINE ( 'NONE', #962, #230 ) ;
#149 = ORIENTED_EDGE ( 'NONE', *, *, #896, .T. ) ;
#150 = DIRECTION ( 'NONE',  ( -0.000000000000000000, -1.000000000000000000, -0.000000000000000000 ) ) ;
#151 = DIRECTION ( 'NONE',  ( 1.000000000000000000, 0.000000000000000000, 0.000000000000000000 ) ) ;
#152 = EDGE_CURVE ( 'NONE', #375, #806, #224, .T. ) ;
#153 = DIRECTION ( 'NONE',  ( 0.000000000000000000, -0.000000000000000000, -1.000000000000000000 ) ) ;
#154 = EDGE_LOOP ( 'NONE', ( #197, #756, #338, #493 ) ) ;
#155 = ADVANCED_FACE ( 'NONE', ( #773 ), #938, .T. ) ;
#156 = CONICAL_SURFACE ( 'NONE', #505, 2.075000000000001510, 0.7853981633977604737 ) ;
#157 = VERTEX_POINT ( 'NONE', #625 ) ;
#158 = PLANE ( 'NONE',  #701 ) ;
#159 =( NAMED_UNIT ( * ) PLANE_ANGLE_UNIT ( ) SI_UNIT ( $, .RADIAN. ) );
#160 = VERTEX_POINT ( 'NONE', #259 ) ;
#161 = ADVANCED_FACE ( 'NONE', ( #619 ), #173, .F. ) ;
#162 = DIRECTION ( 'NONE',  ( 0.000000000000000000, -0.000000000000000000, -1.000000000000000000 ) ) ;
#163 = DIRECTION ( 'NONE',  ( 1.239088197126291063E-16, -1.000000000000000000, 0.000000000000000000 ) ) ;
#164 = CARTESIAN_POINT ( 'NONE',  ( 9.549999999999997158, 7.500000000000000888, 0.000000000000000000 ) ) ;
#165 = CARTESIAN_POINT ( 'NONE',  ( -3.499999999999999112, 23.49999999999999289, 6.000000000000000000 ) ) ;
#166 = DIRECTION ( 'NONE',  ( 0.7071067811867682851, 0.000000000000000000, 0.7071067811863266384 ) ) ;
#167 = ORIENTED_EDGE ( 'NONE', *, *, #917, .F. ) ;
#168 = CARTESIAN_POINT ( 'NONE',  ( -3.499999999999998224, -16.49999999999999289, -4.000000000000000000 ) ) ;
#169 = AXIS2_PLACEMENT_3D ( 'NONE', #388, #5, #897 ) ;
#170 = VECTOR ( 'NONE', #4, 1000.000000000000000 ) ;
#171 = CARTESIAN_POINT ( 'NONE',  ( 3.500000000000003997, 4.336808689942023652E-16, -4.000000000000000000 ) ) ;
#172 = LINE ( 'NONE', #522, #640 ) ;
#173 = CONICAL_SURFACE ( 'NONE', #469, 2.075000000000001510, 0.7853981633977604737 ) ;
#174 = VERTEX_POINT ( 'NONE', #551 ) ;
#175 = LINE ( 'NONE', #101, #599 ) ;
#176 = DIRECTION ( 'NONE',  ( 1.000000000000000000, 0.000000000000000000, 0.000000000000000000 ) ) ;
#177 = DIRECTION ( 'NONE',  ( 1.239088197126291063E-16, -1.000000000000000000, 0.000000000000000000 ) ) ;
#178 = SURFACE_SIDE_STYLE ('',( #683 ) ) ;
#179 = EDGE_LOOP ( 'NONE', ( #871, #607, #209, #36 ) ) ;
#180 = EDGE_CURVE ( 'NONE', #528, #643, #252, .T. ) ;
#181 = DIRECTION ( 'NONE',  ( 1.000000000000000000, 0.000000000000000000, 0.000000000000000000 ) ) ;
#182 = CIRCLE ( 'NONE', #718, 2.049999999999987388 ) ;
#183 = VECTOR ( 'NONE', #927, 1000.000000000000000 ) ;
#184 = CARTESIAN_POINT ( 'NONE',  ( -5.450000000000012612, -7.499999999999999112, 5.975000000000003197 ) ) ;
#185 = ORIENTED_EDGE ( 'NONE', *, *, #200, .T. ) ;
#186 = DIRECTION ( 'NONE',  ( -1.000000000000000000, 0.000000000000000000, 0.000000000000000000 ) ) ;
#187 = CARTESIAN_POINT ( 'NONE',  ( 7.499999999999999112, -7.499999999999999112, 5.975000000000003197 ) ) ;
#188 = ADVANCED_FACE ( 'NONE', ( #473, #562, #121, #635, #926, #340, #549 ), #111, .F. ) ;
#189 = CARTESIAN_POINT ( 'NONE',  ( -3.499999999999996003, 4.336808689942013792E-16, -4.000000000000000000 ) ) ;
#190 = DIRECTION ( 'NONE',  ( 0.000000000000000000, -0.000000000000000000, -1.000000000000000000 ) ) ;
#191 = DIRECTION ( 'NONE',  ( -0.000000000000000000, -0.000000000000000000, 1.000000000000000000 ) ) ;
#192 = EDGE_CURVE ( 'NONE', #27, #528, #860, .T. ) ;
#193 = ORIENTED_EDGE ( 'NONE', *, *, #86, .F. ) ;
#194 = FACE_BOUND ( 'NONE', #776, .T. ) ;
#195 = LINE ( 'NONE', #934, #840 ) ;
#196 = CARTESIAN_POINT ( 'NONE',  ( 0.000000000000000000, 23.49999999999999289, -4.000000000000000000 ) ) ;
#197 = ORIENTED_EDGE ( 'NONE', *, *, #815, .F. ) ;
#198 = AXIS2_PLACEMENT_3D ( 'NONE', #568, #710, #628 ) ;
#199 = CIRCLE ( 'NONE', #292, 2.049999999999998934 ) ;
#200 = EDGE_CURVE ( 'NONE', #215, #100, #410, .T. ) ;
#201 = LINE ( 'NONE', #690, #342 ) ;
#202 = VERTEX_POINT ( 'NONE', #348 ) ;
#203 = CARTESIAN_POINT ( 'NONE',  ( -3.499999999999996003, 4.336808689942013792E-16, 6.000000000000000000 ) ) ;
#204 = ORIENTED_EDGE ( 'NONE', *, *, #371, .F. ) ;
#205 = VECTOR ( 'NONE', #823, 1000.000000000000000 ) ;
#206 = EDGE_CURVE ( 'NONE', #375, #52, #363, .T. ) ;
#207 = ORIENTED_EDGE ( 'NONE', *, *, #200, .F. ) ;
#208 = FACE_OUTER_BOUND ( 'NONE', #139, .T. ) ;
#209 = ORIENTED_EDGE ( 'NONE', *, *, #422, .T. ) ;
#210 = DIRECTION ( 'NONE',  ( -0.000000000000000000, -0.000000000000000000, 1.000000000000000000 ) ) ;
#211 = ADVANCED_FACE ( 'NONE', ( #658 ), #297, .F. ) ;
#212 = VERTEX_POINT ( 'NONE', #126 ) ;
#213 = CYLINDRICAL_SURFACE ( 'NONE', #432, 2.049999999999993605 ) ;
#214 = LINE ( 'NONE', #130, #118 ) ;
#215 = VERTEX_POINT ( 'NONE', #893 ) ;
#216 = VECTOR ( 'NONE', #429, 1000.000000000000000 ) ;
#217 = CARTESIAN_POINT ( 'NONE',  ( -3.499999999999998224, 16.49999999999999289, -4.000000000000000000 ) ) ;
#218 = VECTOR ( 'NONE', #515, 1000.000000000000000 ) ;
#219 = ORIENTED_EDGE ( 'NONE', *, *, #815, .T. ) ;
#220 = FACE_OUTER_BOUND ( 'NONE', #135, .T. ) ;
#221 = DIRECTION ( 'NONE',  ( 1.000000000000000000, 0.000000000000000000, 0.000000000000000000 ) ) ;
#222 = CARTESIAN_POINT ( 'NONE',  ( 5.424999999999997158, 7.500000000000000888, 6.000000000000001776 ) ) ;
#223 = VERTEX_POINT ( 'NONE', #948 ) ;
#224 = CIRCLE ( 'NONE', #873, 2.049999999999987388 ) ;
#225 = CARTESIAN_POINT ( 'NONE',  ( -10.00000000000000000, -30.00000000000000000, 0.000000000000000000 ) ) ;
#226 = DIRECTION ( 'NONE',  ( -0.000000000000000000, -0.000000000000000000, 1.000000000000000000 ) ) ;
#227 = ORIENTED_EDGE ( 'NONE', *, *, #53, .T. ) ;
#228 = DIRECTION ( 'NONE',  ( -0.000000000000000000, -0.000000000000000000, 1.000000000000000000 ) ) ;
#229 = CARTESIAN_POINT ( 'NONE',  ( -9.574999999999999289, -7.499999999999999112, 6.000000000000001776 ) ) ;
#230 = VECTOR ( 'NONE', #745, 1000.000000000000000 ) ;
#231 = EDGE_LOOP ( 'NONE', ( #514, #786, #881, #276 ) ) ;
#232 = MECHANICAL_DESIGN_GEOMETRIC_PRESENTATION_REPRESENTATION (  '', ( #626 ), #864 ) ;
#233 = AXIS2_PLACEMENT_3D ( 'NONE', #296, #228, #82 ) ;
#234 = CARTESIAN_POINT ( 'NONE',  ( -5.450000000000007283, -7.499999999999999112, 6.000000000000000000 ) ) ;
#235 = CARTESIAN_POINT ( 'NONE',  ( 9.574999999999999289, -7.499999999999999112, 6.000000000000001776 ) ) ;
#236 = ORIENTED_EDGE ( 'NONE', *, *, #147, .T. ) ;
#237 = AXIS2_PLACEMENT_3D ( 'NONE', #420, #210, #734 ) ;
#238 = CARTESIAN_POINT ( 'NONE',  ( -10.00000000000000000, -30.00000000000000000, 6.000000000000000000 ) ) ;
#239 = LINE ( 'NONE', #827, #949 ) ;
#240 = ORIENTED_EDGE ( 'NONE', *, *, #376, .T. ) ;
#241 = DIRECTION ( 'NONE',  ( 1.000000000000000000, 0.000000000000000000, 0.000000000000000000 ) ) ;
#242 = EDGE_CURVE ( 'NONE', #634, #876, #709, .T. ) ;
#243 = CARTESIAN_POINT ( 'NONE',  ( -3.499999999999998224, 16.49999999999999289, 0.000000000000000000 ) ) ;
#244 = ORIENTED_EDGE ( 'NONE', *, *, #563, .F. ) ;
#245 = LINE ( 'NONE', #468, #8 ) ;
#246 = AXIS2_PLACEMENT_3D ( 'NONE', #196, #425, #407 ) ;
#247 = PRODUCT_DEFINITION_FORMATION_WITH_SPECIFIED_SOURCE ( '任何', '', #458, .NOT_KNOWN. ) ;
#248 = ADVANCED_FACE ( 'NONE', ( #712 ), #726, .F. ) ;
#249 = ORIENTED_EDGE ( 'NONE', *, *, #857, .F. ) ;
#250 = CARTESIAN_POINT ( 'NONE',  ( 5.450000000000011724, -7.499999999999999112, 5.975000000000003197 ) ) ;
#251 = CARTESIAN_POINT ( 'NONE',  ( -10.00000000000000000, 30.00000000000000000, 6.000000000000000000 ) ) ;
#252 = CIRCLE ( 'NONE', #80, 2.049999999999986944 ) ;
#253 =( NAMED_UNIT ( * ) PLANE_ANGLE_UNIT ( ) SI_UNIT ( $, .RADIAN. ) );
#254 = EDGE_CURVE ( 'NONE', #133, #88, #653, .T. ) ;
#255 = EDGE_LOOP ( 'NONE', ( #84, #736 ) ) ;
#256 = DIRECTION ( 'NONE',  ( -0.000000000000000000, -0.000000000000000000, 1.000000000000000000 ) ) ;
#257 = ORIENTED_EDGE ( 'NONE', *, *, #282, .F. ) ;
#258 = EDGE_CURVE ( 'NONE', #27, #483, #969, .T. ) ;
#259 = CARTESIAN_POINT ( 'NONE',  ( -9.549999999999998934, -7.499999999999999112, 0.000000000000000000 ) ) ;
#260 = LINE ( 'NONE', #559, #73 ) ;
#261 = MECHANICAL_DESIGN_GEOMETRIC_PRESENTATION_REPRESENTATION (  '', ( #784 ), #951 ) ;
#262 = ORIENTED_EDGE ( 'NONE', *, *, #282, .T. ) ;
#263 = CYLINDRICAL_SURFACE ( 'NONE', #538, 2.049999999999993605 ) ;
#264 = DIRECTION ( 'NONE',  ( 1.000000000000000000, 0.000000000000000000, 0.000000000000000000 ) ) ;
#265 = DIRECTION ( 'NONE',  ( -0.000000000000000000, -0.000000000000000000, 1.000000000000000000 ) ) ;
#266 = AXIS2_PLACEMENT_3D ( 'NONE', #29, #334, #190 ) ;
#267 = EDGE_LOOP ( 'NONE', ( #109, #271, #591, #894 ) ) ;
#268 = PLANE ( 'NONE',  #641 ) ;
#269 = CARTESIAN_POINT ( 'NONE',  ( 7.499999999999999112, 7.500000000000000888, 6.000000000000001776 ) ) ;
#270 = DIRECTION ( 'NONE',  ( 1.239088197126291063E-16, 1.000000000000000000, 0.000000000000000000 ) ) ;
#271 = ORIENTED_EDGE ( 'NONE', *, *, #620, .F. ) ;
#272 = DIRECTION ( 'NONE',  ( 1.000000000000000000, 0.000000000000000000, 0.000000000000000000 ) ) ;
#273 = EDGE_LOOP ( 'NONE', ( #611, #257 ) ) ;
#274 = FACE_OUTER_BOUND ( 'NONE', #434, .T. ) ;
#275 = EDGE_CURVE ( 'NONE', #223, #6, #291, .T. ) ;
#276 = ORIENTED_EDGE ( 'NONE', *, *, #691, .T. ) ;
#277 = PRESENTATION_LAYER_ASSIGNMENT (  '', '', ( #626 ) ) ;
#278 = DIRECTION ( 'NONE',  ( 1.000000000000000000, 0.000000000000000000, 0.000000000000000000 ) ) ;
#279 = ORIENTED_EDGE ( 'NONE', *, *, #648, .T. ) ;
#280 = CARTESIAN_POINT ( 'NONE',  ( -5.424999999999999822, -7.499999999999999112, 6.000000000000001776 ) ) ;
#281 = ORIENTED_EDGE ( 'NONE', *, *, #67, .F. ) ;
#282 = EDGE_CURVE ( 'NONE', #52, #667, #808, .T. ) ;
#283 = DIRECTION ( 'NONE',  ( -0.000000000000000000, -0.000000000000000000, 1.000000000000000000 ) ) ;
#284 = EDGE_LOOP ( 'NONE', ( #950, #689, #868, #279 ) ) ;
#285 = EDGE_LOOP ( 'NONE', ( #692, #746, #431, #858 ) ) ;
#286 = DIRECTION ( 'NONE',  ( -0.000000000000000000, -0.000000000000000000, 1.000000000000000000 ) ) ;
#287 = ORIENTED_EDGE ( 'NONE', *, *, #503, .T. ) ;
#288 = CARTESIAN_POINT ( 'NONE',  ( 7.499999999999999112, 7.500000000000000888, 0.000000000000000000 ) ) ;
#289 = DIRECTION ( 'NONE',  ( 1.000000000000000000, 0.000000000000000000, 0.000000000000000000 ) ) ;
#290 = VECTOR ( 'NONE', #663, 1000.000000000000000 ) ;
#291 = LINE ( 'NONE', #886, #854 ) ;
#292 = AXIS2_PLACEMENT_3D ( 'NONE', #665, #623, #475 ) ;
#293 = PRODUCT_DEFINITION_CONTEXT ( 'detailed design', #730, 'design' ) ;
#294 = ORIENTED_EDGE ( 'NONE', *, *, #128, .F. ) ;
#295 = DIRECTION ( 'NONE',  ( 1.000000000000000000, 0.000000000000000000, 0.000000000000000000 ) ) ;
#296 = CARTESIAN_POINT ( 'NONE',  ( -7.500000000000000888, -7.499999999999999112, 6.000000000000001776 ) ) ;
#297 = CYLINDRICAL_SURFACE ( 'NONE', #589, 2.049999999999993605 ) ;
#298 = ORIENTED_EDGE ( 'NONE', *, *, #30, .T. ) ;
#299 = VECTOR ( 'NONE', #922, 1000.000000000000000 ) ;
#300 = LINE ( 'NONE', #593, #820 ) ;
#301 = VERTEX_POINT ( 'NONE', #497 ) ;
#302 = LINE ( 'NONE', #234, #9 ) ;
#303 = DIRECTION ( 'NONE',  ( -0.000000000000000000, -0.000000000000000000, 1.000000000000000000 ) ) ;
#304 = AXIS2_PLACEMENT_3D ( 'NONE', #189, #940, #270 ) ;
#305 = VERTEX_POINT ( 'NONE', #222 ) ;
#306 = CARTESIAN_POINT ( 'NONE',  ( -9.549999999999988276, -7.499999999999999112, 5.975000000000003197 ) ) ;
#307 = LINE ( 'NONE', #75, #933 ) ;
#308 = PRODUCT_DEFINITION_SHAPE ( 'NONE', 'NONE',  #541 ) ;
#309 = ADVANCED_FACE ( 'NONE', ( #142 ), #590, .F. ) ;
#310 = CARTESIAN_POINT ( 'NONE',  ( -3.499999999999996003, -4.336808689942013792E-16, -4.000000000000000000 ) ) ;
#311 = ORIENTED_EDGE ( 'NONE', *, *, #23, .F. ) ;
#312 = DIRECTION ( 'NONE',  ( -1.000000000000000000, 0.000000000000000000, 0.000000000000000000 ) ) ;
#313 = VECTOR ( 'NONE', #570, 1000.000000000000114 ) ;
#314 = LINE ( 'NONE', #835, #90 ) ;
#315 = ORIENTED_EDGE ( 'NONE', *, *, #924, .F. ) ;
#316 = CARTESIAN_POINT ( 'NONE',  ( 3.500000000000003997, 4.336808689942023652E-16, 6.000000000000000000 ) ) ;
#317 = ORIENTED_EDGE ( 'NONE', *, *, #836, .T. ) ;
#318 = VERTEX_POINT ( 'NONE', #427 ) ;
#319 = CARTESIAN_POINT ( 'NONE',  ( 9.999999999999996447, -30.00000000000000000, 0.000000000000000000 ) ) ;
#320 = CARTESIAN_POINT ( 'NONE',  ( 7.499999999999999112, -7.499999999999999112, 5.975000000000003197 ) ) ;
#321 = CIRCLE ( 'NONE', #445, 2.049999999999998934 ) ;
#322 = ADVANCED_FACE ( 'NONE', ( #716 ), #144, .F. ) ;
#323 = CIRCLE ( 'NONE', #866, 2.075000000000000622 ) ;
#324 = FACE_OUTER_BOUND ( 'NONE', #968, .T. ) ;
#325 = ORIENTED_EDGE ( 'NONE', *, *, #242, .F. ) ;
#326 = FACE_OUTER_BOUND ( 'NONE', #471, .T. ) ;
#327 = LINE ( 'NONE', #565, #329 ) ;
#328 = VECTOR ( 'NONE', #241, 1000.000000000000000 ) ;
#329 = VECTOR ( 'NONE', #622, 1000.000000000000000 ) ;
#330 =( NAMED_UNIT ( * ) SI_UNIT ( $, .STERADIAN. ) SOLID_ANGLE_UNIT ( ) );
#331 = DIRECTION ( 'NONE',  ( 0.000000000000000000, 0.000000000000000000, -1.000000000000000000 ) ) ;
#332 = CARTESIAN_POINT ( 'NONE',  ( -9.549999999999998934, 7.500000000000000888, 0.000000000000000000 ) ) ;
#333 = EDGE_LOOP ( 'NONE', ( #771, #117 ) ) ;
#334 = DIRECTION ( 'NONE',  ( 0.000000000000000000, -1.000000000000000000, 0.000000000000000000 ) ) ;
#335 = AXIS2_PLACEMENT_3D ( 'NONE', #935, #265, #856 ) ;
#336 = FACE_OUTER_BOUND ( 'NONE', #179, .T. ) ;
#337 = VECTOR ( 'NONE', #150, 1000.000000000000000 ) ;
#338 = ORIENTED_EDGE ( 'NONE', *, *, #119, .T. ) ;
#339 = FACE_OUTER_BOUND ( 'NONE', #629, .T. ) ;
#340 = FACE_OUTER_BOUND ( 'NONE', #916, .T. ) ;
#341 = DIRECTION ( 'NONE',  ( -0.000000000000000000, -0.000000000000000000, -1.000000000000000000 ) ) ;
#342 = VECTOR ( 'NONE', #706, 1000.000000000000000 ) ;
#343 = EDGE_LOOP ( 'NONE', ( #659, #713, #262, #204 ) ) ;
#344 = CARTESIAN_POINT ( 'NONE',  ( -3.499999999999999112, -23.49999999999999289, 6.000000000000000000 ) ) ;
#345 = ORIENTED_EDGE ( 'NONE', *, *, #660, .T. ) ;
#346 = DIRECTION ( 'NONE',  ( 1.000000000000000000, 0.000000000000000000, 0.000000000000000000 ) ) ;
#347 = EDGE_LOOP ( 'NONE', ( #127, #143, #843, #879 ) ) ;
#348 = CARTESIAN_POINT ( 'NONE',  ( -5.450000000000001954, -7.499999999999999112, 0.000000000000000000 ) ) ;
#349 = ORIENTED_EDGE ( 'NONE', *, *, #896, .F. ) ;
#350 = PLANE ( 'NONE',  #304 ) ;
#351 = EDGE_CURVE ( 'NONE', #569, #50, #558, .T. ) ;
#352 = VECTOR ( 'NONE', #668, 1000.000000000000000 ) ;
#353 = ORIENTED_EDGE ( 'NONE', *, *, #491, .T. ) ;
#354 = COLOUR_RGB ( '',1.000000000000000000, 1.000000000000000000, 1.000000000000000000 ) ;
#355 = DIRECTION ( 'NONE',  ( -0.000000000000000000, -0.000000000000000000, 1.000000000000000000 ) ) ;
#356 = ORIENTED_EDGE ( 'NONE', *, *, #442, .F. ) ;
#357 = DIRECTION ( 'NONE',  ( -0.000000000000000000, -0.000000000000000000, -1.000000000000000000 ) ) ;
#358 = ORIENTED_EDGE ( 'NONE', *, *, #47, .T. ) ;
#359 = ADVANCED_FACE ( 'NONE', ( #513 ), #156, .F. ) ;
#360 = LINE ( 'NONE', #810, #700 ) ;
#361 = ORIENTED_EDGE ( 'NONE', *, *, #12, .F. ) ;
#362 = CARTESIAN_POINT ( 'NONE',  ( -9.549999999999993605, 7.500000000000000888, 6.000000000000000000 ) ) ;
#363 = LINE ( 'NONE', #585, #758 ) ;
#364 = ORIENTED_EDGE ( 'NONE', *, *, #119, .F. ) ;
#365 = CARTESIAN_POINT ( 'NONE',  ( 7.499999999999999112, 7.500000000000000888, 5.975000000000003197 ) ) ;
#366 = FACE_OUTER_BOUND ( 'NONE', #443, .T. ) ;
#367 = VECTOR ( 'NONE', #796, 1000.000000000000000 ) ;
#368 = PRODUCT_RELATED_PRODUCT_CATEGORY ( 'part', '', ( #458 ) ) ;
#369 = DIRECTION ( 'NONE',  ( -0.000000000000000000, -0.000000000000000000, 1.000000000000000000 ) ) ;
#370 = ORIENTED_EDGE ( 'NONE', *, *, #97, .T. ) ;
#371 = EDGE_CURVE ( 'NONE', #806, #667, #360, .T. ) ;
#372 = SURFACE_STYLE_FILL_AREA ( #601 ) ;
#373 = ORIENTED_EDGE ( 'NONE', *, *, #78, .F. ) ;
#374 = VECTOR ( 'NONE', #849, 1000.000000000000000 ) ;
#375 = VERTEX_POINT ( 'NONE', #66 ) ;
#376 = EDGE_CURVE ( 'NONE', #667, #52, #964, .T. ) ;
#377 = DIRECTION ( 'NONE',  ( 0.000000000000000000, -1.000000000000000000, 0.000000000000000000 ) ) ;
#378 = PLANE ( 'NONE',  #411 ) ;
#379 = EDGE_LOOP ( 'NONE', ( #783, #325 ) ) ;
#380 = DIRECTION ( 'NONE',  ( -0.000000000000000000, -0.000000000000000000, 1.000000000000000000 ) ) ;
#381 = EDGE_CURVE ( 'NONE', #959, #639, #880, .T. ) ;
#382 = FACE_OUTER_BOUND ( 'NONE', #957, .T. ) ;
#383 = DIRECTION ( 'NONE',  ( 1.000000000000000000, 0.000000000000000000, 0.000000000000000000 ) ) ;
#384 = AXIS2_PLACEMENT_3D ( 'NONE', #720, #774, #112 ) ;
#385 = EDGE_LOOP ( 'NONE', ( #244, #77, #760, #828 ) ) ;
#386 = PRESENTATION_STYLE_ASSIGNMENT (( #24 ) ) ;
#387 = ORIENTED_EDGE ( 'NONE', *, *, #618, .T. ) ;
#388 = CARTESIAN_POINT ( 'NONE',  ( -7.500000000000000888, 7.500000000000000888, 0.000000000000000000 ) ) ;
#389 = ORIENTED_EDGE ( 'NONE', *, *, #844, .F. ) ;
#390 = CARTESIAN_POINT ( 'NONE',  ( 5.450000000000000178, 7.500000000000000888, 0.000000000000000000 ) ) ;
#391 = AXIS2_PLACEMENT_3D ( 'NONE', #56, #355, #723 ) ;
#392 = DIRECTION ( 'NONE',  ( -1.000000000000000000, -1.239088197126291063E-16, 0.000000000000000000 ) ) ;
#393 = ORIENTED_EDGE ( 'NONE', *, *, #35, .F. ) ;
#394 = CARTESIAN_POINT ( 'NONE',  ( 3.500000000000000888, 23.49999999999999289, 6.000000000000000000 ) ) ;
#395 = EDGE_CURVE ( 'NONE', #749, #566, #148, .T. ) ;
#396 = CARTESIAN_POINT ( 'NONE',  ( 5.450000000000011724, 7.500000000000000888, 5.975000000000003197 ) ) ;
#397 = DIRECTION ( 'NONE',  ( 1.000000000000000000, 0.000000000000000000, 0.000000000000000000 ) ) ;
#398 = EDGE_LOOP ( 'NONE', ( #79, #13, #16, #715 ) ) ;
#399 = LINE ( 'NONE', #859, #55 ) ;
#400 = LINE ( 'NONE', #777, #374 ) ;
#401 = AXIS2_PLACEMENT_3D ( 'NONE', #87, #910, #153 ) ;
#402 = VERTEX_POINT ( 'NONE', #394 ) ;
#403 = FACE_BOUND ( 'NONE', #941, .T. ) ;
#404 = CARTESIAN_POINT ( 'NONE',  ( -5.424999999999999822, -7.499999999999999112, 6.000000000000001776 ) ) ;
#405 = ORIENTED_EDGE ( 'NONE', *, *, #395, .T. ) ;
#406 = CARTESIAN_POINT ( 'NONE',  ( 0.000000000000000000, 0.000000000000000000, 6.000000000000000000 ) ) ;
#407 = DIRECTION ( 'NONE',  ( 0.000000000000000000, -0.000000000000000000, -1.000000000000000000 ) ) ;
#408 = ORIENTED_EDGE ( 'NONE', *, *, #381, .F. ) ;
#409 = EDGE_CURVE ( 'NONE', #202, #160, #488, .T. ) ;
#410 = LINE ( 'NONE', #699, #418 ) ;
#411 = AXIS2_PLACEMENT_3D ( 'NONE', #463, #446, #1 ) ;
#412 = CYLINDRICAL_SURFACE ( 'NONE', #553, 2.049999999999993605 ) ;
#413 = CARTESIAN_POINT ( 'NONE',  ( 9.999999999999996447, 30.00000000000000000, 6.000000000000000000 ) ) ;
#414 = ORIENTED_EDGE ( 'NONE', *, *, #521, .F. ) ;
#415 = DIRECTION ( 'NONE',  ( -0.000000000000000000, -0.000000000000000000, 1.000000000000000000 ) ) ;
#416 = ORIENTED_EDGE ( 'NONE', *, *, #35, .T. ) ;
#417 = DIRECTION ( 'NONE',  ( -0.000000000000000000, -0.000000000000000000, 1.000000000000000000 ) ) ;
#418 = VECTOR ( 'NONE', #788, 1000.000000000000000 ) ;
#419 = ORIENTED_EDGE ( 'NONE', *, *, #409, .F. ) ;
#420 = CARTESIAN_POINT ( 'NONE',  ( -7.500000000000000888, 7.500000000000000888, 6.000000000000001776 ) ) ;
#421 = MANIFOLD_SOLID_BREP ( '?4.1 (4.1) 直径', #742 ) ;
#422 = EDGE_CURVE ( 'NONE', #643, #876, #833, .T. ) ;
#423 = EDGE_LOOP ( 'NONE', ( #914, #647, #349, #500 ) ) ;
#424 = EDGE_CURVE ( 'NONE', #696, #39, #905, .T. ) ;
#425 = DIRECTION ( 'NONE',  ( 0.000000000000000000, -1.000000000000000000, 0.000000000000000000 ) ) ;
#426 = ORIENTED_EDGE ( 'NONE', *, *, #30, .F. ) ;
#427 = CARTESIAN_POINT ( 'NONE',  ( 3.500000000000000888, 23.49999999999999289, 0.000000000000000000 ) ) ;
#428 = ORIENTED_EDGE ( 'NONE', *, *, #206, .F. ) ;
#429 = DIRECTION ( 'NONE',  ( 1.239088197126291063E-16, 1.000000000000000000, 0.000000000000000000 ) ) ;
#430 = AXIS2_PLACEMENT_3D ( 'NONE', #83, #303, #605 ) ;
#431 = ORIENTED_EDGE ( 'NONE', *, *, #242, .T. ) ;
#432 = AXIS2_PLACEMENT_3D ( 'NONE', #440, #140, #807 ) ;
#433 = DIRECTION ( 'NONE',  ( 0.000000000000000000, 0.000000000000000000, -1.000000000000000000 ) ) ;
#434 = EDGE_LOOP ( 'NONE', ( #509, #185, #58, #361 ) ) ;
#435 = CARTESIAN_POINT ( 'NONE',  ( -7.500000000000000888, -7.499999999999999112, 6.000000000000001776 ) ) ;
#436 = DIRECTION ( 'NONE',  ( 1.000000000000000000, 0.000000000000000000, 0.000000000000000000 ) ) ;
#437 = AXIS2_PLACEMENT_3D ( 'NONE', #320, #380, #829 ) ;
#438 = DIRECTION ( 'NONE',  ( -0.000000000000000000, -0.000000000000000000, 1.000000000000000000 ) ) ;
#439 = ORIENTED_EDGE ( 'NONE', *, *, #442, .T. ) ;
#440 = CARTESIAN_POINT ( 'NONE',  ( 7.499999999999999112, -7.499999999999999112, 6.000000000000000000 ) ) ;
#441 = DIRECTION ( 'NONE',  ( 1.000000000000000000, 0.000000000000000000, 0.000000000000000000 ) ) ;
#442 = EDGE_CURVE ( 'NONE', #402, #764, #92, .T. ) ;
#443 = EDGE_LOOP ( 'NONE', ( #167, #387, #287, #724 ) ) ;
#444 = CARTESIAN_POINT ( 'NONE',  ( -3.499999999999996003, 4.336808689942013792E-16, -0.000000000000000000 ) ) ;
#445 = AXIS2_PLACEMENT_3D ( 'NONE', #49, #191, #346 ) ;
#446 = DIRECTION ( 'NONE',  ( 0.000000000000000000, -1.000000000000000000, 0.000000000000000000 ) ) ;
#447 = AXIS2_PLACEMENT_3D ( 'NONE', #171, #392, #770 ) ;
#448 = ORIENTED_EDGE ( 'NONE', *, *, #892, .T. ) ;
#449 = ADVANCED_FACE ( 'NONE', ( #595 ), #814, .F. ) ;
#450 = EDGE_LOOP ( 'NONE', ( #439, #373, #393, #564 ) ) ;
#451 = DIRECTION ( 'NONE',  ( -0.000000000000000000, -0.000000000000000000, 1.000000000000000000 ) ) ;
#452 = CARTESIAN_POINT ( 'NONE',  ( 3.500000000000001776, -16.49999999999999289, 0.000000000000000000 ) ) ;
#453 = VECTOR ( 'NONE', #533, 1000.000000000000000 ) ;
#454 = ORIENTED_EDGE ( 'NONE', *, *, #86, .T. ) ;
#455 = ADVANCED_FACE ( 'NONE', ( #915 ), #378, .F. ) ;
#456 = DIRECTION ( 'NONE',  ( 0.000000000000000000, -0.000000000000000000, 1.000000000000000000 ) ) ;
#457 = CARTESIAN_POINT ( 'NONE',  ( -7.500000000000000888, -7.499999999999999112, 5.975000000000003197 ) ) ;
#458 = PRODUCT ( '输送带导向滚2固定亚克力板', '输送带导向滚2固定亚克力板', '', ( #535 ) ) ;
#459 = ORIENTED_EDGE ( 'NONE', *, *, #953, .T. ) ;
#460 = CARTESIAN_POINT ( 'NONE',  ( 5.450000000000000178, -7.499999999999999112, 0.000000000000000000 ) ) ;
#461 = CARTESIAN_POINT ( 'NONE',  ( 9.999999999999996447, -30.00000000000000000, 6.000000000000000000 ) ) ;
#462 = LINE ( 'NONE', #688, #183 ) ;
#463 = CARTESIAN_POINT ( 'NONE',  ( 0.000000000000000000, -23.49999999999999289, -4.000000000000000000 ) ) ;
#464 = CONICAL_SURFACE ( 'NONE', #198, 2.075000000000001510, 0.7853981633977604737 ) ;
#465 = CARTESIAN_POINT ( 'NONE',  ( -3.499999999999996003, -4.336808689942013792E-16, 6.000000000000000000 ) ) ;
#466 = EDGE_CURVE ( 'NONE', #114, #684, #830, .T. ) ;
#467 = ORIENTED_EDGE ( 'NONE', *, *, #853, .T. ) ;
#468 = CARTESIAN_POINT ( 'NONE',  ( 9.999999999999996447, -30.00000000000000000, 6.000000000000000000 ) ) ;
#469 = AXIS2_PLACEMENT_3D ( 'NONE', #269, #782, #181 ) ;
#470 = ORIENTED_EDGE ( 'NONE', *, *, #97, .F. ) ;
#471 = EDGE_LOOP ( 'NONE', ( #674, #621, #779, #414 ) ) ;
#472 = FACE_OUTER_BOUND ( 'NONE', #267, .T. ) ;
#473 = FACE_BOUND ( 'NONE', #273, .T. ) ;
#474 = CONICAL_SURFACE ( 'NONE', #233, 2.075000000000000622, 0.7853981633977258348 ) ;
#475 = DIRECTION ( 'NONE',  ( 1.000000000000000000, 0.000000000000000000, 0.000000000000000000 ) ) ;
#476 = DIRECTION ( 'NONE',  ( 1.000000000000000000, 0.000000000000000000, 0.000000000000000000 ) ) ;
#477 = VERTEX_POINT ( 'NONE', #229 ) ;
#478 = DIRECTION ( 'NONE',  ( 0.000000000000000000, 0.000000000000000000, 1.000000000000000000 ) ) ;
#479 = DIRECTION ( 'NONE',  ( -0.000000000000000000, -0.000000000000000000, 1.000000000000000000 ) ) ;
#480 = EDGE_CURVE ( 'NONE', #566, #556, #245, .T. ) ;
#481 = VECTOR ( 'NONE', #98, 1000.000000000000000 ) ;
#482 = DIRECTION ( 'NONE',  ( -0.000000000000000000, -0.000000000000000000, 1.000000000000000000 ) ) ;
#483 = VERTEX_POINT ( 'NONE', #757 ) ;
#484 = DIRECTION ( 'NONE',  ( -0.000000000000000000, -0.000000000000000000, 1.000000000000000000 ) ) ;
#485 = LINE ( 'NONE', #637, #25 ) ;
#486 = ORIENTED_EDGE ( 'NONE', *, *, #648, .F. ) ;
#487 = CARTESIAN_POINT ( 'NONE',  ( 3.500000000000000888, -23.49999999999999289, 6.000000000000000000 ) ) ;
#488 = CIRCLE ( 'NONE', #430, 2.049999999999998934 ) ;
#489 = CARTESIAN_POINT ( 'NONE',  ( -9.549999999999993605, -7.499999999999999112, 6.000000000000000000 ) ) ;
#490 = EDGE_LOOP ( 'NONE', ( #832, #419, #448, #518 ) ) ;
#491 = EDGE_CURVE ( 'NONE', #959, #174, #172, .T. ) ;
#492 = DIRECTION ( 'NONE',  ( 1.000000000000000000, 0.000000000000000000, 0.000000000000000000 ) ) ;
#493 = ORIENTED_EDGE ( 'NONE', *, *, #794, .T. ) ;
#494 = CARTESIAN_POINT ( 'NONE',  ( -5.424999999999999822, 7.500000000000000888, 6.000000000000001776 ) ) ;
#495 = CIRCLE ( 'NONE', #677, 2.075000000000001510 ) ;
#496 = VERTEX_POINT ( 'NONE', #452 ) ;
#497 = CARTESIAN_POINT ( 'NONE',  ( -3.499999999999999112, -23.49999999999999289, 0.000000000000000000 ) ) ;
#498 = ORIENTED_EDGE ( 'NONE', *, *, #395, .F. ) ;
#499 = DIRECTION ( 'NONE',  ( 1.000000000000000000, 0.000000000000000000, 0.000000000000000000 ) ) ;
#500 = ORIENTED_EDGE ( 'NONE', *, *, #620, .T. ) ;
#501 = DIRECTION ( 'NONE',  ( 1.000000000000000000, 0.000000000000000000, 0.000000000000000000 ) ) ;
#502 = ORIENTED_EDGE ( 'NONE', *, *, #602, .T. ) ;
#503 = EDGE_CURVE ( 'NONE', #50, #569, #136, .T. ) ;
#504 = DIRECTION ( 'NONE',  ( 1.000000000000000000, 0.000000000000000000, 0.000000000000000000 ) ) ;
#505 = AXIS2_PLACEMENT_3D ( 'NONE', #574, #798, #61 ) ;
#506 = ORIENTED_EDGE ( 'NONE', *, *, #381, .T. ) ;
#507 = CONICAL_SURFACE ( 'NONE', #616, 2.075000000000000622, 0.7853981633977258348 ) ;
#508 = DIRECTION ( 'NONE',  ( 1.000000000000000000, 0.000000000000000000, 0.000000000000000000 ) ) ;
#509 = ORIENTED_EDGE ( 'NONE', *, *, #67, .T. ) ;
#510 = CARTESIAN_POINT ( 'NONE',  ( -7.500000000000000888, 7.500000000000000888, 6.000000000000000000 ) ) ;
#511 = DIRECTION ( 'NONE',  ( -1.000000000000000000, 0.000000000000000000, 0.000000000000000000 ) ) ;
#512 = DIRECTION ( 'NONE',  ( -0.000000000000000000, -0.000000000000000000, 1.000000000000000000 ) ) ;
#513 = FACE_OUTER_BOUND ( 'NONE', #347, .T. ) ;
#514 = ORIENTED_EDGE ( 'NONE', *, *, #787, .T. ) ;
#515 = DIRECTION ( 'NONE',  ( -0.000000000000000000, -0.000000000000000000, 1.000000000000000000 ) ) ;
#516 = DIRECTION ( 'NONE',  ( 0.000000000000000000, 1.000000000000000000, 0.000000000000000000 ) ) ;
#517 = ADVANCED_FACE ( 'NONE', ( #673 ), #11, .F. ) ;
#518 = ORIENTED_EDGE ( 'NONE', *, *, #351, .T. ) ;
#519 = CARTESIAN_POINT ( 'NONE',  ( -10.00000000000000000, -30.00000000000000000, 0.000000000000000000 ) ) ;
#520 = AXIS2_PLACEMENT_3D ( 'NONE', #577, #511, #878 ) ;
#521 = EDGE_CURVE ( 'NONE', #318, #174, #239, .T. ) ;
#522 = CARTESIAN_POINT ( 'NONE',  ( -3.499999999999996003, -4.336808689942013792E-16, -0.000000000000000000 ) ) ;
#523 = AXIS2_PLACEMENT_3D ( 'NONE', #365, #965, #295 ) ;
#524 = ORIENTED_EDGE ( 'NONE', *, *, #192, .T. ) ;
#525 = LINE ( 'NONE', #612, #453 ) ;
#526 = CARTESIAN_POINT ( 'NONE',  ( 0.000000000000000000, 16.49999999999999289, -4.000000000000000000 ) ) ;
#527 = DIRECTION ( 'NONE',  ( 0.000000000000000000, 1.000000000000000000, 0.000000000000000000 ) ) ;
#528 = VERTEX_POINT ( 'NONE', #250 ) ;
#529 = LINE ( 'NONE', #168, #205 ) ;
#530 = ADVANCED_FACE ( 'NONE', ( #339 ), #263, .F. ) ;
#531 =( NAMED_UNIT ( * ) SI_UNIT ( $, .STERADIAN. ) SOLID_ANGLE_UNIT ( ) );
#532 = ORIENTED_EDGE ( 'NONE', *, *, #917, .T. ) ;
#533 = DIRECTION ( 'NONE',  ( -1.000000000000000000, -0.000000000000000000, -0.000000000000000000 ) ) ;
#534 = FACE_OUTER_BOUND ( 'NONE', #741, .T. ) ;
#535 = PRODUCT_CONTEXT ( 'NONE', #32, 'mechanical' ) ;
#536 = ORIENTED_EDGE ( 'NONE', *, *, #592, .T. ) ;
#537 = FILL_AREA_STYLE_COLOUR ( '', #931 ) ;
#538 = AXIS2_PLACEMENT_3D ( 'NONE', #780, #705, #547 ) ;
#539 = CIRCLE ( 'NONE', #74, 2.049999999999986944 ) ;
#540 = LINE ( 'NONE', #759, #632 ) ;
#541 = PRODUCT_DEFINITION ( '未知', '', #247, #293 ) ;
#542 = ADVANCED_FACE ( 'NONE', ( #852 ), #89, .F. ) ;
#543 = CARTESIAN_POINT ( 'NONE',  ( 7.499999999999999112, -7.499999999999999112, 6.000000000000001776 ) ) ;
#544 = LINE ( 'NONE', #841, #925 ) ;
#545 = AXIS2_PLACEMENT_3D ( 'NONE', #729, #51, #870 ) ;
#546 =( NAMED_UNIT ( * ) SI_UNIT ( $, .STERADIAN. ) SOLID_ANGLE_UNIT ( ) );
#547 = DIRECTION ( 'NONE',  ( 1.000000000000000000, 0.000000000000000000, 0.000000000000000000 ) ) ;
#548 = ADVANCED_FACE ( 'NONE', ( #472 ), #791, .F. ) ;
#549 = FACE_BOUND ( 'NONE', #450, .T. ) ;
#550 = EDGE_CURVE ( 'NONE', #157, #318, #214, .T. ) ;
#551 = CARTESIAN_POINT ( 'NONE',  ( -3.499999999999999112, 23.49999999999999289, 0.000000000000000000 ) ) ;
#552 = AXIS2_PLACEMENT_3D ( 'NONE', #874, #134, #694 ) ;
#553 = AXIS2_PLACEMENT_3D ( 'NONE', #702, #633, #944 ) ;
#554 = CARTESIAN_POINT ( 'NONE',  ( -7.500000000000000888, 7.500000000000000888, 0.000000000000000000 ) ) ;
#555 = FACE_BOUND ( 'NONE', #799, .T. ) ;
#556 = VERTEX_POINT ( 'NONE', #413 ) ;
#557 = DIRECTION ( 'NONE',  ( -1.000000000000000000, 0.000000000000000000, -0.000000000000000000 ) ) ;
#558 = CIRCLE ( 'NONE', #937, 2.049999999999987388 ) ;
#559 = CARTESIAN_POINT ( 'NONE',  ( 3.500000000000000888, 23.49999999999999289, -4.000000000000000000 ) ) ;
#560 = ORIENTED_EDGE ( 'NONE', *, *, #480, .T. ) ;
#561 = DIRECTION ( 'NONE',  ( -1.000000000000000000, 0.000000000000000000, -0.000000000000000000 ) ) ;
#562 = FACE_BOUND ( 'NONE', #255, .T. ) ;
#563 = EDGE_CURVE ( 'NONE', #50, #477, #703, .T. ) ;
#564 = ORIENTED_EDGE ( 'NONE', *, *, #3, .T. ) ;
#565 = CARTESIAN_POINT ( 'NONE',  ( -3.499999999999999112, -23.49999999999999289, -4.000000000000000000 ) ) ;
#566 = VERTEX_POINT ( 'NONE', #461 ) ;
#567 = AXIS2_PLACEMENT_3D ( 'NONE', #457, #666, #383 ) ;
#568 = CARTESIAN_POINT ( 'NONE',  ( 7.499999999999999112, -7.499999999999999112, 6.000000000000001776 ) ) ;
#569 = VERTEX_POINT ( 'NONE', #184 ) ;
#570 = DIRECTION ( 'NONE',  ( 0.7071067811867682851, 0.000000000000000000, 0.7071067811863266384 ) ) ;
#571 = ORIENTED_EDGE ( 'NONE', *, *, #844, .T. ) ;
#572 = DIRECTION ( 'NONE',  ( -0.000000000000000000, -0.000000000000000000, 1.000000000000000000 ) ) ;
#573 = ORIENTED_EDGE ( 'NONE', *, *, #953, .F. ) ;
#574 = CARTESIAN_POINT ( 'NONE',  ( 7.499999999999999112, 7.500000000000000888, 6.000000000000001776 ) ) ;
#575 = EDGE_LOOP ( 'NONE', ( #707, #795, #48, #822 ) ) ;
#576 = CYLINDRICAL_SURFACE ( 'NONE', #26, 2.049999999999993605 ) ;
#577 = CARTESIAN_POINT ( 'NONE',  ( 9.999999999999996447, -30.00000000000000000, 6.000000000000000000 ) ) ;
#578 = ORIENTED_EDGE ( 'NONE', *, *, #409, .T. ) ;
#579 = DIRECTION ( 'NONE',  ( 1.000000000000000000, 0.000000000000000000, 0.000000000000000000 ) ) ;
#580 = ORIENTED_EDGE ( 'NONE', *, *, #550, .T. ) ;
#581 = ADVANCED_FACE ( 'NONE', ( #108, #555, #834, #403, #110, #33, #194 ), #268, .T. ) ;
#582 = CARTESIAN_POINT ( 'NONE',  ( -10.00000000000000000, -30.00000000000000000, 6.000000000000000000 ) ) ;
#583 = CARTESIAN_POINT ( 'NONE',  ( 5.450000000000006395, 7.500000000000000888, 6.000000000000000000 ) ) ;
#584 = AXIS2_PLACEMENT_3D ( 'NONE', #895, #512, #961 ) ;
#585 = CARTESIAN_POINT ( 'NONE',  ( -9.574999999999999289, 7.500000000000000888, 6.000000000000001776 ) ) ;
#586 = VERTEX_POINT ( 'NONE', #697 ) ;
#587 = LINE ( 'NONE', #225, #337 ) ;
#588 = CYLINDRICAL_SURFACE ( 'NONE', #584, 2.049999999999993605 ) ;
#589 = AXIS2_PLACEMENT_3D ( 'NONE', #967, #71, #638 ) ;
#590 = PLANE ( 'NONE',  #772 ) ;
#591 = ORIENTED_EDGE ( 'NONE', *, *, #480, .F. ) ;
#592 = EDGE_CURVE ( 'NONE', #749, #911, #399, .T. ) ;
#593 = CARTESIAN_POINT ( 'NONE',  ( -10.00000000000000000, 30.00000000000000000, 6.000000000000000000 ) ) ;
#594 = EDGE_CURVE ( 'NONE', #100, #6, #175, .T. ) ;
#595 = FACE_OUTER_BOUND ( 'NONE', #423, .T. ) ;
#596 = EDGE_LOOP ( 'NONE', ( #664, #862, #311, #389 ) ) ;
#597 = ADVANCED_FACE ( 'NONE', ( #326 ), #59, .T. ) ;
#598 = FACE_OUTER_BOUND ( 'NONE', #575, .T. ) ;
#599 = VECTOR ( 'NONE', #28, 1000.000000000000000 ) ;
#600 = CIRCLE ( 'NONE', #138, 2.049999999999998934 ) ;
#601 = FILL_AREA_STYLE ('',( #537 ) ) ;
#602 = EDGE_CURVE ( 'NONE', #806, #375, #182, .T. ) ;
#603 = VERTEX_POINT ( 'NONE', #280 ) ;
#604 = LINE ( 'NONE', #885, #120 ) ;
#605 = DIRECTION ( 'NONE',  ( 1.000000000000000000, 0.000000000000000000, 0.000000000000000000 ) ) ;
#606 = AXIS2_PLACEMENT_3D ( 'NONE', #875, #226, #501 ) ;
#607 = ORIENTED_EDGE ( 'NONE', *, *, #47, .F. ) ;
#608 = ADVANCED_FACE ( 'NONE', ( #208 ), #350, .T. ) ;
#609 = LINE ( 'NONE', #465, #662 ) ;
#610 = CARTESIAN_POINT ( 'NONE',  ( 0.000000000000000000, -23.49999999999999289, 6.000000000000000000 ) ) ;
#611 = ORIENTED_EDGE ( 'NONE', *, *, #376, .F. ) ;
#612 = CARTESIAN_POINT ( 'NONE',  ( -10.00000000000000000, 30.00000000000000000, 0.000000000000000000 ) ) ;
#613 = EDGE_CURVE ( 'NONE', #477, #603, #847, .T. ) ;
#614 = SURFACE_STYLE_USAGE ( .BOTH. , #921 ) ;
#615 = CIRCLE ( 'NONE', #384, 2.075000000000001510 ) ;
#616 = AXIS2_PLACEMENT_3D ( 'NONE', #747, #141, #436 ) ;
#617 =( NAMED_UNIT ( * ) PLANE_ANGLE_UNIT ( ) SI_UNIT ( $, .RADIAN. ) );
#618 = EDGE_CURVE ( 'NONE', #160, #50, #38, .T. ) ;
#619 = FACE_OUTER_BOUND ( 'NONE', #398, .T. ) ;
#620 = EDGE_CURVE ( 'NONE', #556, #39, #714, .T. ) ;
#621 = ORIENTED_EDGE ( 'NONE', *, *, #3, .F. ) ;
#622 = DIRECTION ( 'NONE',  ( -0.000000000000000000, -0.000000000000000000, 1.000000000000000000 ) ) ;
#623 = DIRECTION ( 'NONE',  ( -0.000000000000000000, -0.000000000000000000, 1.000000000000000000 ) ) ;
#624 = ADVANCED_BREP_SHAPE_REPRESENTATION ( '输送带导向滚2固定亚克力板', ( #421, #627 ), #767 ) ;
#625 = CARTESIAN_POINT ( 'NONE',  ( 3.500000000000001776, 16.49999999999999289, 0.000000000000000000 ) ) ;
#626 = STYLED_ITEM ( 'NONE', ( #748 ), #421 ) ;
#627 = AXIS2_PLACEMENT_3D ( 'NONE', #930, #478, #476 ) ;
#628 = DIRECTION ( 'NONE',  ( 1.000000000000000000, 0.000000000000000000, 0.000000000000000000 ) ) ;
#629 = EDGE_LOOP ( 'NONE', ( #68, #219, #928, #364 ) ) ;
#630 = DIRECTION ( 'NONE',  ( 0.7071067811867437491, 0.000000000000000000, 0.7071067811863512853 ) ) ;
#631 = EDGE_CURVE ( 'NONE', #318, #402, #260, .T. ) ;
#632 = VECTOR ( 'NONE', #312, 1000.000000000000000 ) ;
#633 = DIRECTION ( 'NONE',  ( -0.000000000000000000, -0.000000000000000000, 1.000000000000000000 ) ) ;
#634 = VERTEX_POINT ( 'NONE', #42 ) ;
#635 = FACE_BOUND ( 'NONE', #333, .T. ) ;
#636 = EDGE_LOOP ( 'NONE', ( #298, #506, #96, #21 ) ) ;
#637 = CARTESIAN_POINT ( 'NONE',  ( -10.00000000000000000, 30.00000000000000000, 6.000000000000000000 ) ) ;
#638 = DIRECTION ( 'NONE',  ( 1.000000000000000000, 0.000000000000000000, 0.000000000000000000 ) ) ;
#639 = VERTEX_POINT ( 'NONE', #642 ) ;
#640 = VECTOR ( 'NONE', #821, 1000.000000000000000 ) ;
#641 = AXIS2_PLACEMENT_3D ( 'NONE', #932, #331, #561 ) ;
#642 = CARTESIAN_POINT ( 'NONE',  ( -3.499999999999998224, 16.49999999999999289, 6.000000000000000000 ) ) ;
#643 = VERTEX_POINT ( 'NONE', #952 ) ;
#644 = CARTESIAN_POINT ( 'NONE',  ( 9.574999999999999289, 7.500000000000000888, 6.000000000000001776 ) ) ;
#645 = ORIENTED_EDGE ( 'NONE', *, *, #371, .T. ) ;
#646 = CARTESIAN_POINT ( 'NONE',  ( -7.500000000000000888, 7.500000000000000888, 5.975000000000003197 ) ) ;
#647 = ORIENTED_EDGE ( 'NONE', *, *, #691, .F. ) ;
#648 = EDGE_CURVE ( 'NONE', #131, #223, #123, .T. ) ;
#649 = DIRECTION ( 'NONE',  ( 0.7071067811867437491, 0.000000000000000000, 0.7071067811863512853 ) ) ;
#650 = ORIENTED_EDGE ( 'NONE', *, *, #491, .F. ) ;
#651 = DIRECTION ( 'NONE',  ( 1.000000000000000000, -1.239088197126291063E-16, 0.000000000000000000 ) ) ;
#652 = DIRECTION ( 'NONE',  ( -1.000000000000000000, -0.000000000000000000, -0.000000000000000000 ) ) ;
#653 = LINE ( 'NONE', #644, #313 ) ;
#654 = ORIENTED_EDGE ( 'NONE', *, *, #521, .T. ) ;
#655 = DIRECTION ( 'NONE',  ( -0.000000000000000000, -0.000000000000000000, 1.000000000000000000 ) ) ;
#656 = DIRECTION ( 'NONE',  ( -0.7071067811867682851, 8.659560562357635939E-17, 0.7071067811863266384 ) ) ;
#657 = VECTOR ( 'NONE', #656, 1000.000000000000114 ) ;
#658 = FACE_OUTER_BOUND ( 'NONE', #490, .T. ) ;
#659 = ORIENTED_EDGE ( 'NONE', *, *, #152, .F. ) ;
#660 = EDGE_CURVE ( 'NONE', #684, #114, #752, .T. ) ;
#661 = CARTESIAN_POINT ( 'NONE',  ( -5.450000000000012612, 7.500000000000000888, 5.975000000000003197 ) ) ;
#662 = VECTOR ( 'NONE', #177, 1000.000000000000000 ) ;
#663 = DIRECTION ( 'NONE',  ( 0.000000000000000000, 1.000000000000000000, 0.000000000000000000 ) ) ;
#664 = ORIENTED_EDGE ( 'NONE', *, *, #12, .T. ) ;
#665 = CARTESIAN_POINT ( 'NONE',  ( -7.500000000000000888, -7.499999999999999112, 0.000000000000000000 ) ) ;
#666 = DIRECTION ( 'NONE',  ( -0.000000000000000000, -0.000000000000000000, 1.000000000000000000 ) ) ;
#667 = VERTEX_POINT ( 'NONE', #494 ) ;
#668 = DIRECTION ( 'NONE',  ( -0.7071067811867437491, 8.659560562357336419E-17, 0.7071067811863512853 ) ) ;
#669 = DIRECTION ( 'NONE',  ( -0.000000000000000000, -0.000000000000000000, 1.000000000000000000 ) ) ;
#670 = VECTOR ( 'NONE', #357, 1000.000000000000000 ) ;
#671 = EDGE_CURVE ( 'NONE', #88, #305, #615, .T. ) ;
#672 = PRESENTATION_LAYER_ASSIGNMENT (  '', '', ( #784 ) ) ;
#673 = FACE_OUTER_BOUND ( 'NONE', #104, .T. ) ;
#674 = ORIENTED_EDGE ( 'NONE', *, *, #631, .T. ) ;
#675 = CARTESIAN_POINT ( 'NONE',  ( 7.499999999999999112, -7.499999999999999112, 6.000000000000000000 ) ) ;
#676 = DIRECTION ( 'NONE',  ( -1.000000000000000000, -1.239088197126291063E-16, 0.000000000000000000 ) ) ;
#677 = AXIS2_PLACEMENT_3D ( 'NONE', #942, #256, #492 ) ;
#678 = ORIENTED_EDGE ( 'NONE', *, *, #152, .T. ) ;
#679 = ADVANCED_FACE ( 'NONE', ( #336 ), #464, .F. ) ;
#680 = LINE ( 'NONE', #20, #481 ) ;
#681 = ORIENTED_EDGE ( 'NONE', *, *, #424, .F. ) ;
#682 = EDGE_CURVE ( 'NONE', #876, #634, #737, .T. ) ;
#683 = SURFACE_STYLE_FILL_AREA ( #826 ) ;
#684 = VERTEX_POINT ( 'NONE', #867 ) ;
#685 = VECTOR ( 'NONE', #812, 1000.000000000000114 ) ;
#686 = DIRECTION ( 'NONE',  ( -0.000000000000000000, -0.000000000000000000, -1.000000000000000000 ) ) ;
#687 = EDGE_CURVE ( 'NONE', #2, #54, #321, .T. ) ;
#688 = CARTESIAN_POINT ( 'NONE',  ( 0.000000000000000000, -23.49999999999999289, -0.000000000000000000 ) ) ;
#689 = ORIENTED_EDGE ( 'NONE', *, *, #594, .F. ) ;
#690 = CARTESIAN_POINT ( 'NONE',  ( 3.500000000000001776, 16.49999999999999289, -4.000000000000000000 ) ) ;
#691 = EDGE_CURVE ( 'NONE', #62, #586, #485, .T. ) ;
#692 = ORIENTED_EDGE ( 'NONE', *, *, #180, .F. ) ;
#693 = CARTESIAN_POINT ( 'NONE',  ( 9.999999999999996447, -30.00000000000000000, 6.000000000000000000 ) ) ;
#694 = DIRECTION ( 'NONE',  ( 1.000000000000000000, 0.000000000000000000, 0.000000000000000000 ) ) ;
#695 = SHAPE_DEFINITION_REPRESENTATION ( #308, #624 ) ;
#696 = VERTEX_POINT ( 'NONE', #778 ) ;
#697 = CARTESIAN_POINT ( 'NONE',  ( -10.00000000000000000, 30.00000000000000000, 0.000000000000000000 ) ) ;
#698 = ADVANCED_FACE ( 'NONE', ( #116 ), #412, .F. ) ;
#699 = CARTESIAN_POINT ( 'NONE',  ( 3.500000000000000888, -23.49999999999999289, -4.000000000000000000 ) ) ;
#700 = VECTOR ( 'NONE', #649, 1000.000000000000000 ) ;
#701 = AXIS2_PLACEMENT_3D ( 'NONE', #526, #377, #162 ) ;
#702 = CARTESIAN_POINT ( 'NONE',  ( -7.500000000000000888, 7.500000000000000888, 6.000000000000000000 ) ) ;
#703 = LINE ( 'NONE', #43, #352 ) ;
#704 = ORIENTED_EDGE ( 'NONE', *, *, #939, .T. ) ;
#705 = DIRECTION ( 'NONE',  ( -0.000000000000000000, -0.000000000000000000, 1.000000000000000000 ) ) ;
#706 = DIRECTION ( 'NONE',  ( -0.000000000000000000, -0.000000000000000000, 1.000000000000000000 ) ) ;
#707 = ORIENTED_EDGE ( 'NONE', *, *, #503, .F. ) ;
#708 = ADVANCED_FACE ( 'NONE', ( #274 ), #790, .F. ) ;
#709 = CIRCLE ( 'NONE', #606, 2.075000000000001510 ) ;
#710 = DIRECTION ( 'NONE',  ( -0.000000000000000000, -0.000000000000000000, 1.000000000000000000 ) ) ;
#711 = ORIENTED_EDGE ( 'NONE', *, *, #550, .F. ) ;
#712 = FACE_OUTER_BOUND ( 'NONE', #93, .T. ) ;
#713 = ORIENTED_EDGE ( 'NONE', *, *, #206, .T. ) ;
#714 = LINE ( 'NONE', #785, #670 ) ;
#715 = ORIENTED_EDGE ( 'NONE', *, *, #254, .F. ) ;
#716 = FACE_OUTER_BOUND ( 'NONE', #343, .T. ) ;
#717 = ORIENTED_EDGE ( 'NONE', *, *, #147, .F. ) ;
#718 = AXIS2_PLACEMENT_3D ( 'NONE', #646, #572, #850 ) ;
#719 = AXIS2_PLACEMENT_3D ( 'NONE', #238, #516, #456 ) ;
#720 = CARTESIAN_POINT ( 'NONE',  ( 7.499999999999999112, 7.500000000000000888, 6.000000000000001776 ) ) ;
#721 = EDGE_CURVE ( 'NONE', #54, #2, #919, .T. ) ;
#722 = ORIENTED_EDGE ( 'NONE', *, *, #258, .F. ) ;
#723 = DIRECTION ( 'NONE',  ( 1.000000000000000000, 0.000000000000000000, 0.000000000000000000 ) ) ;
#724 = ORIENTED_EDGE ( 'NONE', *, *, #892, .F. ) ;
#725 = DIRECTION ( 'NONE',  ( -0.000000000000000000, -0.000000000000000000, 1.000000000000000000 ) ) ;
#726 = CONICAL_SURFACE ( 'NONE', #237, 2.075000000000000622, 0.7853981633977258348 ) ;
#727 = CYLINDRICAL_SURFACE ( 'NONE', #883, 2.049999999999993605 ) ;
#728 = ADVANCED_FACE ( 'NONE', ( #801 ), #576, .F. ) ;
#729 = CARTESIAN_POINT ( 'NONE',  ( -7.500000000000000888, 7.500000000000000888, 6.000000000000001776 ) ) ;
#730 = APPLICATION_CONTEXT ( 'automotive_design' ) ;
#731 = ORIENTED_EDGE ( 'NONE', *, *, #687, .T. ) ;
#732 = LINE ( 'NONE', #69, #685 ) ;
#733 = LINE ( 'NONE', #70, #657 ) ;
#734 = DIRECTION ( 'NONE',  ( 1.000000000000000000, 0.000000000000000000, 0.000000000000000000 ) ) ;
#735 = UNCERTAINTY_MEASURE_WITH_UNIT (LENGTH_MEASURE( 1.000000000000000082E-05 ), #763, 'distance_accuracy_value', 'NONE');
#736 = ORIENTED_EDGE ( 'NONE', *, *, #113, .F. ) ;
#737 = CIRCLE ( 'NONE', #335, 2.075000000000001510 ) ;
#738 = FACE_OUTER_BOUND ( 'NONE', #154, .T. ) ;
#739 = ORIENTED_EDGE ( 'NONE', *, *, #81, .T. ) ;
#740 = ADVANCED_FACE ( 'NONE', ( #220 ), #213, .F. ) ;
#741 = EDGE_LOOP ( 'NONE', ( #722, #524, #792, #315 ) ) ;
#742 = CLOSED_SHELL ( 'NONE', ( #322, #698, #161, #530, #542, #947, #904, #882, #188, #581, #548, #449, #309, #809, #945, #912, #517, #597, #708, #455, #608, #155, #211, #869, #740, #679, #861, #359, #728, #248 ) ) ;
#743 = DIRECTION ( 'NONE',  ( -1.000000000000000000, 0.000000000000000000, 0.000000000000000000 ) ) ;
#744 = VECTOR ( 'NONE', #272, 1000.000000000000000 ) ;
#745 = DIRECTION ( 'NONE',  ( 1.000000000000000000, 0.000000000000000000, 0.000000000000000000 ) ) ;
#746 = ORIENTED_EDGE ( 'NONE', *, *, #769, .T. ) ;
#747 = CARTESIAN_POINT ( 'NONE',  ( -7.500000000000000888, -7.499999999999999112, 6.000000000000001776 ) ) ;
#748 = PRESENTATION_STYLE_ASSIGNMENT (( #614 ) ) ;
#749 = VERTEX_POINT ( 'NONE', #582 ) ;
#750 = CARTESIAN_POINT ( 'NONE',  ( -9.574999999999999289, 7.500000000000000888, 6.000000000000001776 ) ) ;
#751 = CYLINDRICAL_SURFACE ( 'NONE', #831, 2.049999999999993605 ) ;
#752 = CIRCLE ( 'NONE', #800, 2.049999999999998934 ) ;
#753 = VECTOR ( 'NONE', #669, 1000.000000000000000 ) ;
#754 = EDGE_LOOP ( 'NONE', ( #681, #193, #906, #946 ) ) ;
#755 = LINE ( 'NONE', #94, #299 ) ;
#756 = ORIENTED_EDGE ( 'NONE', *, *, #687, .F. ) ;
#757 = CARTESIAN_POINT ( 'NONE',  ( 9.549999999999997158, -7.499999999999999112, 0.000000000000000000 ) ) ;
#758 = VECTOR ( 'NONE', #137, 1000.000000000000000 ) ;
#759 = CARTESIAN_POINT ( 'NONE',  ( 0.000000000000000000, 16.49999999999999289, 0.000000000000000000 ) ) ;
#760 = ORIENTED_EDGE ( 'NONE', *, *, #106, .T. ) ;
#761 = EDGE_CURVE ( 'NONE', #603, #477, #323, .T. ) ;
#762 = EDGE_CURVE ( 'NONE', #114, #375, #960, .T. ) ;
#763 =( LENGTH_UNIT ( ) NAMED_UNIT ( * ) SI_UNIT ( .MILLI., .METRE. ) );
#764 = VERTEX_POINT ( 'NONE', #884 ) ;
#765 = AXIS2_PLACEMENT_3D ( 'NONE', #310, #676, #17 ) ;
#766 = AXIS2_PLACEMENT_3D ( 'NONE', #288, #889, #504 ) ;
#767 =( GEOMETRIC_REPRESENTATION_CONTEXT ( 3 ) GLOBAL_UNCERTAINTY_ASSIGNED_CONTEXT ( ( #735 ) ) GLOBAL_UNIT_ASSIGNED_CONTEXT ( ( #763, #617, #546 ) ) REPRESENTATION_CONTEXT ( 'NONE', 'WORKASPACE' ) );
#768 = CARTESIAN_POINT ( 'NONE',  ( -10.00000000000000000, -30.00000000000000000, 0.000000000000000000 ) ) ;
#769 = EDGE_CURVE ( 'NONE', #528, #634, #732, .T. ) ;
#770 = DIRECTION ( 'NONE',  ( 1.239088197126291063E-16, -1.000000000000000000, 0.000000000000000000 ) ) ;
#771 = ORIENTED_EDGE ( 'NONE', *, *, #761, .F. ) ;
#772 = AXIS2_PLACEMENT_3D ( 'NONE', #793, #132, #433 ) ;
#773 = FACE_OUTER_BOUND ( 'NONE', #596, .T. ) ;
#774 = DIRECTION ( 'NONE',  ( -0.000000000000000000, -0.000000000000000000, 1.000000000000000000 ) ) ;
#775 = APPLICATION_PROTOCOL_DEFINITION ( 'draft international standard', 'automotive_design', 1998, #32 ) ;
#776 = EDGE_LOOP ( 'NONE', ( #426, #580, #654, #650 ) ) ;
#777 = CARTESIAN_POINT ( 'NONE',  ( 9.549999999999991829, 7.500000000000000888, 6.000000000000000000 ) ) ;
#778 = CARTESIAN_POINT ( 'NONE',  ( 9.999999999999996447, -30.00000000000000000, 0.000000000000000000 ) ) ;
#779 = ORIENTED_EDGE ( 'NONE', *, *, #836, .F. ) ;
#780 = CARTESIAN_POINT ( 'NONE',  ( 7.499999999999999112, 7.500000000000000888, 6.000000000000000000 ) ) ;
#781 = EDGE_CURVE ( 'NONE', #72, #133, #57, .T. ) ;
#782 = DIRECTION ( 'NONE',  ( -0.000000000000000000, -0.000000000000000000, 1.000000000000000000 ) ) ;
#783 = ORIENTED_EDGE ( 'NONE', *, *, #682, .F. ) ;
#784 = STYLED_ITEM ( 'NONE', ( #386 ), #624 ) ;
#785 = CARTESIAN_POINT ( 'NONE',  ( 9.999999999999996447, 30.00000000000000000, 6.000000000000000000 ) ) ;
#786 = ORIENTED_EDGE ( 'NONE', *, *, #592, .F. ) ;
#787 = EDGE_CURVE ( 'NONE', #586, #911, #587, .T. ) ;
#788 = DIRECTION ( 'NONE',  ( -0.000000000000000000, -0.000000000000000000, 1.000000000000000000 ) ) ;
#789 = EDGE_LOOP ( 'NONE', ( #811, #31, #370, #502 ) ) ;
#790 = PLANE ( 'NONE',  #901 ) ;
#791 = PLANE ( 'NONE',  #520 ) ;
#792 = ORIENTED_EDGE ( 'NONE', *, *, #180, .T. ) ;
#793 = CARTESIAN_POINT ( 'NONE',  ( -10.00000000000000000, -30.00000000000000000, 6.000000000000000000 ) ) ;
#794 = EDGE_CURVE ( 'NONE', #133, #72, #539, .T. ) ;
#795 = ORIENTED_EDGE ( 'NONE', *, *, #563, .T. ) ;
#796 = DIRECTION ( 'NONE',  ( -0.000000000000000000, -0.000000000000000000, 1.000000000000000000 ) ) ;
#797 = EDGE_LOOP ( 'NONE', ( #888, #60, #678, #470 ) ) ;
#798 = DIRECTION ( 'NONE',  ( -0.000000000000000000, -0.000000000000000000, 1.000000000000000000 ) ) ;
#799 = EDGE_LOOP ( 'NONE', ( #731, #44 ) ) ;
#800 = AXIS2_PLACEMENT_3D ( 'NONE', #554, #417, #499 ) ;
#801 = FACE_OUTER_BOUND ( 'NONE', #789, .T. ) ;
#802 = DIRECTION ( 'NONE',  ( -1.239088197126291063E-16, 1.000000000000000000, 0.000000000000000000 ) ) ;
#803 = EDGE_LOOP ( 'NONE', ( #459, #236, #704, #207 ) ) ;
#804 = FACE_OUTER_BOUND ( 'NONE', #385, .T. ) ;
#805 = CARTESIAN_POINT ( 'NONE',  ( -7.500000000000000888, -7.499999999999999112, 5.975000000000003197 ) ) ;
#806 = VERTEX_POINT ( 'NONE', #661 ) ;
#807 = DIRECTION ( 'NONE',  ( 1.000000000000000000, 0.000000000000000000, 0.000000000000000000 ) ) ;
#808 = CIRCLE ( 'NONE', #545, 2.075000000000000622 ) ;
#809 = ADVANCED_FACE ( 'NONE', ( #382 ), #891, .F. ) ;
#810 = CARTESIAN_POINT ( 'NONE',  ( -5.424999999999999822, 7.500000000000000888, 6.000000000000001776 ) ) ;
#811 = ORIENTED_EDGE ( 'NONE', *, *, #762, .F. ) ;
#812 = DIRECTION ( 'NONE',  ( -0.7071067811867682851, 8.659560562357635939E-17, 0.7071067811863266384 ) ) ;
#813 = LINE ( 'NONE', #583, #753 ) ;
#814 = PLANE ( 'NONE',  #401 ) ;
#815 = EDGE_CURVE ( 'NONE', #54, #72, #813, .T. ) ;
#816 = UNCERTAINTY_MEASURE_WITH_UNIT (LENGTH_MEASURE( 1.000000000000000082E-05 ), #923, 'distance_accuracy_value', 'NONE');
#817 = ORIENTED_EDGE ( 'NONE', *, *, #466, .T. ) ;
#818 = VECTOR ( 'NONE', #438, 1000.000000000000000 ) ;
#819 = FACE_OUTER_BOUND ( 'NONE', #636, .T. ) ;
#820 = VECTOR ( 'NONE', #652, 1000.000000000000000 ) ;
#821 = DIRECTION ( 'NONE',  ( -1.239088197126291063E-16, 1.000000000000000000, 0.000000000000000000 ) ) ;
#822 = ORIENTED_EDGE ( 'NONE', *, *, #106, .F. ) ;
#823 = DIRECTION ( 'NONE',  ( -0.000000000000000000, -0.000000000000000000, 1.000000000000000000 ) ) ;
#824 = DIRECTION ( 'NONE',  ( -0.000000000000000000, -0.000000000000000000, 1.000000000000000000 ) ) ;
#825 = LINE ( 'NONE', #899, #328 ) ;
#826 = FILL_AREA_STYLE ('',( #99 ) ) ;
#827 = CARTESIAN_POINT ( 'NONE',  ( 0.000000000000000000, 23.49999999999999289, 0.000000000000000000 ) ) ;
#828 = ORIENTED_EDGE ( 'NONE', *, *, #761, .T. ) ;
#829 = DIRECTION ( 'NONE',  ( 1.000000000000000000, 0.000000000000000000, 0.000000000000000000 ) ) ;
#830 = CIRCLE ( 'NONE', #169, 2.049999999999998934 ) ;
#831 = AXIS2_PLACEMENT_3D ( 'NONE', #675, #91, #913 ) ;
#832 = ORIENTED_EDGE ( 'NONE', *, *, #618, .F. ) ;
#833 = LINE ( 'NONE', #235, #900 ) ;
#834 = FACE_BOUND ( 'NONE', #837, .T. ) ;
#835 = CARTESIAN_POINT ( 'NONE',  ( 9.549999999999991829, -7.499999999999999112, 6.000000000000000000 ) ) ;
#836 = EDGE_CURVE ( 'NONE', #174, #943, #307, .T. ) ;
#837 = EDGE_LOOP ( 'NONE', ( #467, #898 ) ) ;
#838 = DIRECTION ( 'NONE',  ( -0.000000000000000000, -0.000000000000000000, -1.000000000000000000 ) ) ;
#839 = DIRECTION ( 'NONE',  ( -0.000000000000000000, -0.000000000000000000, 1.000000000000000000 ) ) ;
#840 = VECTOR ( 'NONE', #105, 1000.000000000000000 ) ;
#841 = CARTESIAN_POINT ( 'NONE',  ( -0.000000000000000000, 16.49999999999999289, 6.000000000000000000 ) ) ;
#842 = APPLICATION_PROTOCOL_DEFINITION ( 'draft international standard', 'automotive_design', 1998, #730 ) ;
#843 = ORIENTED_EDGE ( 'NONE', *, *, #254, .T. ) ;
#844 = EDGE_CURVE ( 'NONE', #496, #212, #604, .T. ) ;
#845 = DIRECTION ( 'NONE',  ( 1.000000000000000000, 0.000000000000000000, 0.000000000000000000 ) ) ;
#846 = LINE ( 'NONE', #610, #848 ) ;
#847 = CIRCLE ( 'NONE', #552, 2.075000000000000622 ) ;
#848 = VECTOR ( 'NONE', #397, 1000.000000000000000 ) ;
#849 = DIRECTION ( 'NONE',  ( -0.000000000000000000, -0.000000000000000000, 1.000000000000000000 ) ) ;
#850 = DIRECTION ( 'NONE',  ( 1.000000000000000000, 0.000000000000000000, 0.000000000000000000 ) ) ;
#851 = ORIENTED_EDGE ( 'NONE', *, *, #853, .F. ) ;
#852 = FACE_OUTER_BOUND ( 'NONE', #285, .T. ) ;
#853 = EDGE_CURVE ( 'NONE', #483, #27, #600, .T. ) ;
#854 = VECTOR ( 'NONE', #278, 1000.000000000000000 ) ;
#855 = CARTESIAN_POINT ( 'NONE',  ( 5.450000000000006395, -7.499999999999999112, 6.000000000000000000 ) ) ;
#856 = DIRECTION ( 'NONE',  ( 1.000000000000000000, 0.000000000000000000, 0.000000000000000000 ) ) ;
#857 = EDGE_CURVE ( 'NONE', #212, #301, #909, .T. ) ;
#858 = ORIENTED_EDGE ( 'NONE', *, *, #422, .F. ) ;
#859 = CARTESIAN_POINT ( 'NONE',  ( -10.00000000000000000, -30.00000000000000000, 6.000000000000000000 ) ) ;
#860 = LINE ( 'NONE', #855, #63 ) ;
#861 = ADVANCED_FACE ( 'NONE', ( #738 ), #588, .F. ) ;
#862 = ORIENTED_EDGE ( 'NONE', *, *, #275, .F. ) ;
#863 = LINE ( 'NONE', #693, #45 ) ;
#864 =( GEOMETRIC_REPRESENTATION_CONTEXT ( 3 ) GLOBAL_UNCERTAINTY_ASSIGNED_CONTEXT ( ( #887 ) ) GLOBAL_UNIT_ASSIGNED_CONTEXT ( ( #76, #159, #531 ) ) REPRESENTATION_CONTEXT ( 'NONE', 'WORKASPACE' ) );
#865 = ORIENTED_EDGE ( 'NONE', *, *, #602, .F. ) ;
#866 = AXIS2_PLACEMENT_3D ( 'NONE', #435, #725, #64 ) ;
#867 = CARTESIAN_POINT ( 'NONE',  ( -5.450000000000001954, 7.500000000000000888, 0.000000000000000000 ) ) ;
#868 = ORIENTED_EDGE ( 'NONE', *, *, #939, .F. ) ;
#869 = ADVANCED_FACE ( 'NONE', ( #804 ), #507, .F. ) ;
#870 = DIRECTION ( 'NONE',  ( 1.000000000000000000, 0.000000000000000000, 0.000000000000000000 ) ) ;
#871 = ORIENTED_EDGE ( 'NONE', *, *, #769, .F. ) ;
#872 = VECTOR ( 'NONE', #907, 1000.000000000000000 ) ;
#873 = AXIS2_PLACEMENT_3D ( 'NONE', #115, #415, #929 ) ;
#874 = CARTESIAN_POINT ( 'NONE',  ( -7.500000000000000888, -7.499999999999999112, 6.000000000000001776 ) ) ;
#875 = CARTESIAN_POINT ( 'NONE',  ( 7.499999999999999112, -7.499999999999999112, 6.000000000000001776 ) ) ;
#876 = VERTEX_POINT ( 'NONE', #970 ) ;
#877 = DIRECTION ( 'NONE',  ( 1.239088197126291063E-16, 1.000000000000000000, 0.000000000000000000 ) ) ;
#878 = DIRECTION ( 'NONE',  ( 0.000000000000000000, 0.000000000000000000, 1.000000000000000000 ) ) ;
#879 = ORIENTED_EDGE ( 'NONE', *, *, #671, .T. ) ;
#880 = LINE ( 'NONE', #217, #818 ) ;
#881 = ORIENTED_EDGE ( 'NONE', *, *, #53, .F. ) ;
#882 = ADVANCED_FACE ( 'NONE', ( #366 ), #727, .F. ) ;
#883 = AXIS2_PLACEMENT_3D ( 'NONE', #65, #824, #289 ) ;
#884 = CARTESIAN_POINT ( 'NONE',  ( 3.500000000000001776, 16.49999999999999289, 6.000000000000000000 ) ) ;
#885 = CARTESIAN_POINT ( 'NONE',  ( 0.000000000000000000, -16.49999999999999289, -0.000000000000000000 ) ) ;
#886 = CARTESIAN_POINT ( 'NONE',  ( 0.000000000000000000, -16.49999999999999289, 6.000000000000000000 ) ) ;
#887 = UNCERTAINTY_MEASURE_WITH_UNIT (LENGTH_MEASURE( 1.000000000000000082E-05 ), #76, 'distance_accuracy_value', 'NONE');
#888 = ORIENTED_EDGE ( 'NONE', *, *, #466, .F. ) ;
#889 = DIRECTION ( 'NONE',  ( -0.000000000000000000, -0.000000000000000000, 1.000000000000000000 ) ) ;
#890 = VECTOR ( 'NONE', #630, 1000.000000000000000 ) ;
#891 = PLANE ( 'NONE',  #719 ) ;
#892 = EDGE_CURVE ( 'NONE', #202, #569, #302, .T. ) ;
#893 = CARTESIAN_POINT ( 'NONE',  ( 3.500000000000000888, -23.49999999999999289, 0.000000000000000000 ) ) ;
#894 = ORIENTED_EDGE ( 'NONE', *, *, #128, .T. ) ;
#895 = CARTESIAN_POINT ( 'NONE',  ( 7.499999999999999112, 7.500000000000000888, 6.000000000000000000 ) ) ;
#896 = EDGE_CURVE ( 'NONE', #556, #62, #300, .T. ) ;
#897 = DIRECTION ( 'NONE',  ( 1.000000000000000000, 0.000000000000000000, 0.000000000000000000 ) ) ;
#898 = ORIENTED_EDGE ( 'NONE', *, *, #258, .T. ) ;
#899 = CARTESIAN_POINT ( 'NONE',  ( -0.000000000000000000, 23.49999999999999289, 6.000000000000000000 ) ) ;
#900 = VECTOR ( 'NONE', #166, 1000.000000000000114 ) ;
#901 = AXIS2_PLACEMENT_3D ( 'NONE', #129, #651, #877 ) ;
#902 = CARTESIAN_POINT ( 'NONE',  ( 7.499999999999999112, -7.499999999999999112, 0.000000000000000000 ) ) ;
#903 = EDGE_CURVE ( 'NONE', #72, #305, #733, .T. ) ;
#904 = ADVANCED_FACE ( 'NONE', ( #598 ), #474, .F. ) ;
#905 = LINE ( 'NONE', #319, #290 ) ;
#906 = ORIENTED_EDGE ( 'NONE', *, *, #787, .F. ) ;
#907 = DIRECTION ( 'NONE',  ( -0.000000000000000000, -0.000000000000000000, 1.000000000000000000 ) ) ;
#908 = AXIS2_PLACEMENT_3D ( 'NONE', #406, #37, #557 ) ;
#909 = LINE ( 'NONE', #444, #170 ) ;
#910 = DIRECTION ( 'NONE',  ( 0.000000000000000000, -1.000000000000000000, 0.000000000000000000 ) ) ;
#911 = VERTEX_POINT ( 'NONE', #519 ) ;
#912 = ADVANCED_FACE ( 'NONE', ( #819 ), #158, .F. ) ;
#913 = DIRECTION ( 'NONE',  ( 1.000000000000000000, 0.000000000000000000, 0.000000000000000000 ) ) ;
#914 = ORIENTED_EDGE ( 'NONE', *, *, #19, .T. ) ;
#915 = FACE_OUTER_BOUND ( 'NONE', #803, .T. ) ;
#916 = EDGE_LOOP ( 'NONE', ( #560, #149, #227, #405 ) ) ;
#917 = EDGE_CURVE ( 'NONE', #160, #202, #199, .T. ) ;
#918 = AXIS2_PLACEMENT_3D ( 'NONE', #958, #286, #579 ) ;
#919 = CIRCLE ( 'NONE', #766, 2.049999999999998934 ) ;
#920 = EDGE_LOOP ( 'NONE', ( #345, #817 ) ) ;
#921 = SURFACE_SIDE_STYLE ('',( #372 ) ) ;
#922 = DIRECTION ( 'NONE',  ( -0.000000000000000000, -1.000000000000000000, -0.000000000000000000 ) ) ;
#923 =( LENGTH_UNIT ( ) NAMED_UNIT ( * ) SI_UNIT ( .MILLI., .METRE. ) );
#924 = EDGE_CURVE ( 'NONE', #483, #643, #314, .T. ) ;
#925 = VECTOR ( 'NONE', #845, 1000.000000000000000 ) ;
#926 = FACE_BOUND ( 'NONE', #284, .T. ) ;
#927 = DIRECTION ( 'NONE',  ( -1.000000000000000000, 0.000000000000000000, 0.000000000000000000 ) ) ;
#928 = ORIENTED_EDGE ( 'NONE', *, *, #781, .T. ) ;
#929 = DIRECTION ( 'NONE',  ( 1.000000000000000000, 0.000000000000000000, 0.000000000000000000 ) ) ;
#930 = CARTESIAN_POINT ( 'NONE',  ( 0.000000000000000000, 0.000000000000000000, 0.000000000000000000 ) ) ;
#931 = COLOUR_RGB ( '',1.000000000000000000, 1.000000000000000000, 1.000000000000000000 ) ;
#932 = CARTESIAN_POINT ( 'NONE',  ( 0.000000000000000000, 0.000000000000000000, 0.000000000000000000 ) ) ;
#933 = VECTOR ( 'NONE', #10, 1000.000000000000000 ) ;
#934 = CARTESIAN_POINT ( 'NONE',  ( -5.450000000000007283, 7.500000000000000888, 6.000000000000000000 ) ) ;
#935 = CARTESIAN_POINT ( 'NONE',  ( 7.499999999999999112, -7.499999999999999112, 6.000000000000001776 ) ) ;
#936 = EDGE_LOOP ( 'NONE', ( #281, #571, #18, #573 ) ) ;
#937 = AXIS2_PLACEMENT_3D ( 'NONE', #805, #283, #508 ) ;
#938 = PLANE ( 'NONE',  #266 ) ;
#939 = EDGE_CURVE ( 'NONE', #131, #100, #846, .T. ) ;
#940 = DIRECTION ( 'NONE',  ( 1.000000000000000000, -1.239088197126291063E-16, 0.000000000000000000 ) ) ;
#941 = EDGE_LOOP ( 'NONE', ( #578, #532 ) ) ;
#942 = CARTESIAN_POINT ( 'NONE',  ( 7.499999999999999112, 7.500000000000000888, 6.000000000000001776 ) ) ;
#943 = VERTEX_POINT ( 'NONE', #165 ) ;
#944 = DIRECTION ( 'NONE',  ( 1.000000000000000000, 0.000000000000000000, 0.000000000000000000 ) ) ;
#945 = ADVANCED_FACE ( 'NONE', ( #324 ), #107, .T. ) ;
#946 = ORIENTED_EDGE ( 'NONE', *, *, #19, .F. ) ;
#947 = ADVANCED_FACE ( 'NONE', ( #534 ), #751, .F. ) ;
#948 = CARTESIAN_POINT ( 'NONE',  ( -3.499999999999998224, -16.49999999999999289, 6.000000000000000000 ) ) ;
#949 = VECTOR ( 'NONE', #186, 1000.000000000000000 ) ;
#950 = ORIENTED_EDGE ( 'NONE', *, *, #275, .T. ) ;
#951 =( GEOMETRIC_REPRESENTATION_CONTEXT ( 3 ) GLOBAL_UNCERTAINTY_ASSIGNED_CONTEXT ( ( #816 ) ) GLOBAL_UNIT_ASSIGNED_CONTEXT ( ( #923, #253, #330 ) ) REPRESENTATION_CONTEXT ( 'NONE', 'WORKASPACE' ) );
#952 = CARTESIAN_POINT ( 'NONE',  ( 9.549999999999984723, -7.499999999999999112, 5.975000000000003197 ) ) ;
#953 = EDGE_CURVE ( 'NONE', #215, #301, #462, .T. ) ;
#954 = CARTESIAN_POINT ( 'NONE',  ( 7.499999999999999112, -7.499999999999999112, 0.000000000000000000 ) ) ;
#955 = ORIENTED_EDGE ( 'NONE', *, *, #23, .T. ) ;
#956 = CARTESIAN_POINT ( 'NONE',  ( 7.499999999999999112, 7.500000000000000888, 5.975000000000003197 ) ) ;
#957 = EDGE_LOOP ( 'NONE', ( #454, #294, #498, #536 ) ) ;
#958 = CARTESIAN_POINT ( 'NONE',  ( -7.500000000000000888, 7.500000000000000888, 6.000000000000001776 ) ) ;
#959 = VERTEX_POINT ( 'NONE', #243 ) ;
#960 = LINE ( 'NONE', #362, #218 ) ;
#961 = DIRECTION ( 'NONE',  ( 1.000000000000000000, 0.000000000000000000, 0.000000000000000000 ) ) ;
#962 = CARTESIAN_POINT ( 'NONE',  ( -10.00000000000000000, -30.00000000000000000, 6.000000000000000000 ) ) ;
#963 = ORIENTED_EDGE ( 'NONE', *, *, #631, .F. ) ;
#964 = CIRCLE ( 'NONE', #918, 2.075000000000000622 ) ;
#965 = DIRECTION ( 'NONE',  ( -0.000000000000000000, -0.000000000000000000, 1.000000000000000000 ) ) ;
#966 = DIRECTION ( 'NONE',  ( -0.000000000000000000, -0.000000000000000000, 1.000000000000000000 ) ) ;
#967 = CARTESIAN_POINT ( 'NONE',  ( -7.500000000000000888, -7.499999999999999112, 6.000000000000000000 ) ) ;
#968 = EDGE_LOOP ( 'NONE', ( #739, #356, #963, #711 ) ) ;
#969 = CIRCLE ( 'NONE', #15, 2.049999999999998934 ) ;
#970 = CARTESIAN_POINT ( 'NONE',  ( 9.574999999999999289, -7.499999999999999112, 6.000000000000001776 ) ) ;
ENDSEC;
END-ISO-10303-21;
