ISO-10303-21;
HEADER;
FILE_DESCRIPTION (( 'STEP AP214' ),
    '1' );
FILE_NAME ('输送带导向滚轴.step',
    '2023-08-15T03:07:06',
    ( '' ),
    ( '' ),
    'SwSTEP 2.0',
    'SolidWorks 2022',
    '' );
FILE_SCHEMA (( 'AUTOMOTIVE_DESIGN' ));
ENDSEC;

DATA;
#1 = CARTESIAN_POINT ( 'NONE',  ( 0.000000000000000000, 0.000000000000000000, 20.00000000000000000 ) ) ;
#2 = CARTESIAN_POINT ( 'NONE',  ( 0.000000000000000000, 0.000000000000000000, 20.00000000000000000 ) ) ;
#3 = PRODUCT_DEFINITION_SHAPE ( 'NONE', 'NONE',  #93 ) ;
#4 = PRODUCT_RELATED_PRODUCT_CATEGORY ( 'part', '', ( #81 ) ) ;
#5 = ORIENTED_EDGE ( 'NONE', *, *, #243, .F. ) ;
#6 = CIRCLE ( 'NONE', #226, 3.000000000000000444 ) ;
#7 = DIRECTION ( 'NONE',  ( 0.000000000000000000, 0.000000000000000000, 1.000000000000000000 ) ) ;
#8 = CARTESIAN_POINT ( 'NONE',  ( 0.000000000000000000, 0.000000000000000000, 20.00000000000000000 ) ) ;
#9 = EDGE_LOOP ( 'NONE', ( #221, #124, #216, #5 ) ) ;
#10 = DIRECTION ( 'NONE',  ( 0.7071067811865490160, 0.000000000000000000, 0.7071067811865460184 ) ) ;
#11 = CIRCLE ( 'NONE', #58, 1.999999999999988232 ) ;
#12 =( LENGTH_UNIT ( ) NAMED_UNIT ( * ) SI_UNIT ( .MILLI., .METRE. ) );
#13 = MECHANICAL_DESIGN_GEOMETRIC_PRESENTATION_REPRESENTATION (  '', ( #262 ), #224 ) ;
#14 = DIRECTION ( 'NONE',  ( 1.000000000000000000, 0.000000000000000000, 0.000000000000000000 ) ) ;
#15 = DIRECTION ( 'NONE',  ( 1.000000000000000000, 0.000000000000000000, 0.000000000000000000 ) ) ;
#16 = MECHANICAL_DESIGN_GEOMETRIC_PRESENTATION_REPRESENTATION (  '', ( #270 ), #70 ) ;
#17 = FACE_OUTER_BOUND ( 'NONE', #22, .T. ) ;
#18 =( NAMED_UNIT ( * ) SI_UNIT ( $, .STERADIAN. ) SOLID_ANGLE_UNIT ( ) );
#19 = CARTESIAN_POINT ( 'NONE',  ( 3.000000000000000444, 3.673940397442060361E-16, 20.00000000000000000 ) ) ;
#20 = CONICAL_SURFACE ( 'NONE', #69, 1.999999999999998224, 0.7853981633974471688 ) ;
#21 = PRESENTATION_STYLE_ASSIGNMENT (( #213 ) ) ;
#22 = EDGE_LOOP ( 'NONE', ( #26, #128, #235, #92 ) ) ;
#23 = EDGE_CURVE ( 'NONE', #25, #104, #109, .T. ) ;
#24 = SURFACE_STYLE_USAGE ( .BOTH. , #110 ) ;
#25 = VERTEX_POINT ( 'NONE', #151 ) ;
#26 = ORIENTED_EDGE ( 'NONE', *, *, #116, .F. ) ;
#27 = CYLINDRICAL_SURFACE ( 'NONE', #99, 3.000000000000000444 ) ;
#28 = DIRECTION ( 'NONE',  ( 1.000000000000000000, 0.000000000000000000, 0.000000000000000000 ) ) ;
#29 = VERTEX_POINT ( 'NONE', #170 ) ;
#30 = VECTOR ( 'NONE', #10, 1000.000000000000114 ) ;
#31 = EDGE_CURVE ( 'NONE', #232, #29, #53, .T. ) ;
#32 =( NAMED_UNIT ( * ) PLANE_ANGLE_UNIT ( ) SI_UNIT ( $, .RADIAN. ) );
#33 = SURFACE_STYLE_FILL_AREA ( #225 ) ;
#34 = VECTOR ( 'NONE', #117, 1000.000000000000000 ) ;
#35 = CARTESIAN_POINT ( 'NONE',  ( 1.999999999999998224, 3.061616997868382155E-16, 20.00000000000000000 ) ) ;
#36 = FILL_AREA_STYLE_COLOUR ( '', #61 ) ;
#37 = PRESENTATION_LAYER_ASSIGNMENT (  '', '', ( #255 ) ) ;
#38 = CARTESIAN_POINT ( 'NONE',  ( -3.000000000000000444, 0.000000000000000000, 20.00000000000000000 ) ) ;
#39 = FACE_OUTER_BOUND ( 'NONE', #249, .T. ) ;
#40 = DIRECTION ( 'NONE',  ( 1.000000000000000000, 0.000000000000000000, 0.000000000000000000 ) ) ;
#41 = UNCERTAINTY_MEASURE_WITH_UNIT (LENGTH_MEASURE( 1.000000000000000082E-05 ), #267, 'distance_accuracy_value', 'NONE');
#42 = FACE_OUTER_BOUND ( 'NONE', #9, .T. ) ;
#43 = EDGE_LOOP ( 'NONE', ( #234, #111 ) ) ;
#44 = EDGE_CURVE ( 'NONE', #108, #29, #112, .T. ) ;
#45 = ADVANCED_BREP_SHAPE_REPRESENTATION ( '输送带导向滚轴', ( #176, #239 ), #135 ) ;
#46 = FILL_AREA_STYLE_COLOUR ( '', #219 ) ;
#47 = APPLICATION_CONTEXT ( 'automotive_design' ) ;
#48 = VERTEX_POINT ( 'NONE', #145 ) ;
#49 =( LENGTH_UNIT ( ) NAMED_UNIT ( * ) SI_UNIT ( .MILLI., .METRE. ) );
#50 = ORIENTED_EDGE ( 'NONE', *, *, #187, .F. ) ;
#51 = CARTESIAN_POINT ( 'NONE',  ( -3.000000000000000444, 0.000000000000000000, -18.99999999999999289 ) ) ;
#52 = DIRECTION ( 'NONE',  ( -0.000000000000000000, -0.000000000000000000, 1.000000000000000000 ) ) ;
#53 = CIRCLE ( 'NONE', #180, 3.000000000000000444 ) ;
#54 = ORIENTED_EDGE ( 'NONE', *, *, #197, .T. ) ;
#55 =( LENGTH_UNIT ( ) NAMED_UNIT ( * ) SI_UNIT ( .MILLI., .METRE. ) );
#56 = EDGE_CURVE ( 'NONE', #29, #232, #246, .T. ) ;
#57 = PRESENTATION_STYLE_ASSIGNMENT (( #223 ) ) ;
#58 = AXIS2_PLACEMENT_3D ( 'NONE', #119, #266, #244 ) ;
#59 = DIRECTION ( 'NONE',  ( 0.000000000000000000, 0.000000000000000000, 1.000000000000000000 ) ) ;
#60 = ADVANCED_FACE ( 'NONE', ( #229 ), #140, .F. ) ;
#61 = COLOUR_RGB ( '',1.000000000000000000, 1.000000000000000000, 1.000000000000000000 ) ;
#62 = CARTESIAN_POINT ( 'NONE',  ( 0.000000000000000000, 0.000000000000000000, 20.00000000000000000 ) ) ;
#63 = COLOUR_RGB ( '',1.000000000000000000, 1.000000000000000000, 1.000000000000000000 ) ;
#64 = DIRECTION ( 'NONE',  ( 1.000000000000000000, 0.000000000000000000, 0.000000000000000000 ) ) ;
#65 = PLANE ( 'NONE',  #256 ) ;
#66 = FACE_OUTER_BOUND ( 'NONE', #193, .T. ) ;
#67 = ORIENTED_EDGE ( 'NONE', *, *, #107, .T. ) ;
#68 = CIRCLE ( 'NONE', #122, 3.000000000000000444 ) ;
#69 = AXIS2_PLACEMENT_3D ( 'NONE', #268, #247, #162 ) ;
#70 =( GEOMETRIC_REPRESENTATION_CONTEXT ( 3 ) GLOBAL_UNCERTAINTY_ASSIGNED_CONTEXT ( ( #143 ) ) GLOBAL_UNIT_ASSIGNED_CONTEXT ( ( #12, #32, #75 ) ) REPRESENTATION_CONTEXT ( 'NONE', 'WORKASPACE' ) );
#71 = LINE ( 'NONE', #19, #191 ) ;
#72 = DIRECTION ( 'NONE',  ( -0.000000000000000000, -0.000000000000000000, -1.000000000000000000 ) ) ;
#73 = ORIENTED_EDGE ( 'NONE', *, *, #44, .T. ) ;
#74 = FACE_OUTER_BOUND ( 'NONE', #43, .T. ) ;
#75 =( NAMED_UNIT ( * ) SI_UNIT ( $, .STERADIAN. ) SOLID_ANGLE_UNIT ( ) );
#76 = EDGE_CURVE ( 'NONE', #188, #232, #228, .T. ) ;
#77 = SHAPE_DEFINITION_REPRESENTATION ( #3, #45 ) ;
#78 = UNCERTAINTY_MEASURE_WITH_UNIT (LENGTH_MEASURE( 1.000000000000000082E-05 ), #55, 'distance_accuracy_value', 'NONE');
#79 = AXIS2_PLACEMENT_3D ( 'NONE', #62, #59, #85 ) ;
#80 = SURFACE_STYLE_USAGE ( .BOTH. , #178 ) ;
#81 = PRODUCT ( '输送带导向滚轴', '输送带导向滚轴', '', ( #175 ) ) ;
#82 = DIRECTION ( 'NONE',  ( -0.000000000000000000, -0.000000000000000000, -1.000000000000000000 ) ) ;
#83 =( NAMED_UNIT ( * ) PLANE_ANGLE_UNIT ( ) SI_UNIT ( $, .RADIAN. ) );
#84 = CONICAL_SURFACE ( 'NONE', #269, 3.000000000000000444, 0.7853981633974504994 ) ;
#85 = DIRECTION ( 'NONE',  ( 1.000000000000000000, 0.000000000000000000, 0.000000000000000000 ) ) ;
#86 = DIRECTION ( 'NONE',  ( -0.000000000000000000, -0.000000000000000000, -1.000000000000000000 ) ) ;
#87 =( NAMED_UNIT ( * ) PLANE_ANGLE_UNIT ( ) SI_UNIT ( $, .RADIAN. ) );
#88 = EDGE_CURVE ( 'NONE', #108, #188, #159, .T. ) ;
#89 = ORIENTED_EDGE ( 'NONE', *, *, #116, .T. ) ;
#90 = DIRECTION ( 'NONE',  ( -0.000000000000000000, -0.000000000000000000, -1.000000000000000000 ) ) ;
#91 = ORIENTED_EDGE ( 'NONE', *, *, #23, .F. ) ;
#92 = ORIENTED_EDGE ( 'NONE', *, *, #44, .F. ) ;
#93 = PRODUCT_DEFINITION ( '未知', '', #131, #204 ) ;
#94 = PRESENTATION_LAYER_ASSIGNMENT (  '', '', ( #270 ) ) ;
#95 = SURFACE_STYLE_FILL_AREA ( #183 ) ;
#96 = LINE ( 'NONE', #179, #34 ) ;
#97 = ADVANCED_FACE ( 'NONE', ( #39 ), #20, .T. ) ;
#98 = VECTOR ( 'NONE', #245, 1000.000000000000114 ) ;
#99 = AXIS2_PLACEMENT_3D ( 'NONE', #8, #90, #248 ) ;
#100 = DIRECTION ( 'NONE',  ( -0.000000000000000000, -0.000000000000000000, -1.000000000000000000 ) ) ;
#101 = DIRECTION ( 'NONE',  ( 1.000000000000000000, 0.000000000000000000, 0.000000000000000000 ) ) ;
#102 = AXIS2_PLACEMENT_3D ( 'NONE', #236, #105, #129 ) ;
#103 =( NAMED_UNIT ( * ) SI_UNIT ( $, .STERADIAN. ) SOLID_ANGLE_UNIT ( ) );
#104 = VERTEX_POINT ( 'NONE', #35 ) ;
#105 = DIRECTION ( 'NONE',  ( 0.000000000000000000, 0.000000000000000000, -1.000000000000000000 ) ) ;
#106 = ORIENTED_EDGE ( 'NONE', *, *, #31, .F. ) ;
#107 = EDGE_CURVE ( 'NONE', #172, #48, #68, .T. ) ;
#108 = VERTEX_POINT ( 'NONE', #142 ) ;
#109 = CIRCLE ( 'NONE', #146, 1.999999999999998224 ) ;
#110 = SURFACE_SIDE_STYLE ('',( #126 ) ) ;
#111 = ORIENTED_EDGE ( 'NONE', *, *, #147, .T. ) ;
#112 = LINE ( 'NONE', #196, #30 ) ;
#113 = VECTOR ( 'NONE', #253, 1000.000000000000000 ) ;
#114 = CARTESIAN_POINT ( 'NONE',  ( 0.000000000000000000, 0.000000000000000000, 18.99999999999999645 ) ) ;
#115 = EDGE_CURVE ( 'NONE', #48, #232, #205, .T. ) ;
#116 = EDGE_CURVE ( 'NONE', #188, #108, #11, .T. ) ;
#117 = DIRECTION ( 'NONE',  ( 0.7071067811865467956, 8.659560562354924230E-17, -0.7071067811865483499 ) ) ;
#118 = PRESENTATION_LAYER_ASSIGNMENT (  '', '', ( #185 ) ) ;
#119 = CARTESIAN_POINT ( 'NONE',  ( 0.000000000000000000, 0.000000000000000000, -20.00000000000000000 ) ) ;
#120 = CARTESIAN_POINT ( 'NONE',  ( 3.000000000000000444, 3.673940397442060361E-16, 18.99999999999999645 ) ) ;
#121 = FACE_OUTER_BOUND ( 'NONE', #240, .T. ) ;
#122 = AXIS2_PLACEMENT_3D ( 'NONE', #114, #181, #64 ) ;
#123 = SURFACE_STYLE_FILL_AREA ( #231 ) ;
#124 = ORIENTED_EDGE ( 'NONE', *, *, #187, .T. ) ;
#125 = UNCERTAINTY_MEASURE_WITH_UNIT (LENGTH_MEASURE( 1.000000000000000082E-05 ), #49, 'distance_accuracy_value', 'NONE');
#126 = SURFACE_STYLE_FILL_AREA ( #150 ) ;
#127 = ORIENTED_EDGE ( 'NONE', *, *, #115, .T. ) ;
#128 = ORIENTED_EDGE ( 'NONE', *, *, #76, .T. ) ;
#129 = DIRECTION ( 'NONE',  ( -1.000000000000000000, 0.000000000000000000, 0.000000000000000000 ) ) ;
#130 = AXIS2_PLACEMENT_3D ( 'NONE', #208, #203, #101 ) ;
#131 = PRODUCT_DEFINITION_FORMATION_WITH_SPECIFIED_SOURCE ( '任何', '', #81, .NOT_KNOWN. ) ;
#132 = CYLINDRICAL_SURFACE ( 'NONE', #201, 3.000000000000000444 ) ;
#133 = EDGE_LOOP ( 'NONE', ( #257, #89 ) ) ;
#134 = CARTESIAN_POINT ( 'NONE',  ( 0.000000000000000000, 0.000000000000000000, 0.000000000000000000 ) ) ;
#135 =( GEOMETRIC_REPRESENTATION_CONTEXT ( 3 ) GLOBAL_UNCERTAINTY_ASSIGNED_CONTEXT ( ( #78 ) ) GLOBAL_UNIT_ASSIGNED_CONTEXT ( ( #55, #137, #258 ) ) REPRESENTATION_CONTEXT ( 'NONE', 'WORKASPACE' ) );
#136 = ADVANCED_FACE ( 'NONE', ( #121 ), #260, .T. ) ;
#137 =( NAMED_UNIT ( * ) PLANE_ANGLE_UNIT ( ) SI_UNIT ( $, .RADIAN. ) );
#138 = MECHANICAL_DESIGN_GEOMETRIC_PRESENTATION_REPRESENTATION (  '', ( #255 ), #160 ) ;
#139 = DIRECTION ( 'NONE',  ( 0.000000000000000000, 0.000000000000000000, -1.000000000000000000 ) ) ;
#140 = PLANE ( 'NONE',  #200 ) ;
#141 = DIRECTION ( 'NONE',  ( 0.000000000000000000, 0.000000000000000000, 1.000000000000000000 ) ) ;
#142 = CARTESIAN_POINT ( 'NONE',  ( 1.999999999999988232, 0.000000000000000000, -20.00000000000000000 ) ) ;
#143 = UNCERTAINTY_MEASURE_WITH_UNIT (LENGTH_MEASURE( 1.000000000000000082E-05 ), #12, 'distance_accuracy_value', 'NONE');
#144 = CARTESIAN_POINT ( 'NONE',  ( 0.000000000000000000, 0.000000000000000000, 20.00000000000000000 ) ) ;
#145 = CARTESIAN_POINT ( 'NONE',  ( -3.000000000000000444, 0.000000000000000000, 18.99999999999999645 ) ) ;
#146 = AXIS2_PLACEMENT_3D ( 'NONE', #2, #7, #28 ) ;
#147 = EDGE_CURVE ( 'NONE', #104, #25, #177, .T. ) ;
#148 = ORIENTED_EDGE ( 'NONE', *, *, #115, .F. ) ;
#149 = ORIENTED_EDGE ( 'NONE', *, *, #107, .F. ) ;
#150 = FILL_AREA_STYLE ('',( #46 ) ) ;
#151 = CARTESIAN_POINT ( 'NONE',  ( -1.999999999999998224, 0.000000000000000000, 20.00000000000000000 ) ) ;
#152 =( NAMED_UNIT ( * ) PLANE_ANGLE_UNIT ( ) SI_UNIT ( $, .RADIAN. ) );
#153 = ORIENTED_EDGE ( 'NONE', *, *, #56, .T. ) ;
#154 = AXIS2_PLACEMENT_3D ( 'NONE', #202, #158, #15 ) ;
#155 = APPLICATION_PROTOCOL_DEFINITION ( 'draft international standard', 'automotive_design', 1998, #169 ) ;
#156 = CONICAL_SURFACE ( 'NONE', #102, 1.999999999999998224, 0.7853981633974471688 ) ;
#157 = SURFACE_SIDE_STYLE ('',( #33 ) ) ;
#158 = DIRECTION ( 'NONE',  ( -0.000000000000000000, -0.000000000000000000, 1.000000000000000000 ) ) ;
#159 = CIRCLE ( 'NONE', #167, 1.999999999999988232 ) ;
#160 =( GEOMETRIC_REPRESENTATION_CONTEXT ( 3 ) GLOBAL_UNCERTAINTY_ASSIGNED_CONTEXT ( ( #211 ) ) GLOBAL_UNIT_ASSIGNED_CONTEXT ( ( #215, #152, #103 ) ) REPRESENTATION_CONTEXT ( 'NONE', 'WORKASPACE' ) );
#161 = PRESENTATION_STYLE_ASSIGNMENT (( #80 ) ) ;
#162 = DIRECTION ( 'NONE',  ( -1.000000000000000000, 0.000000000000000000, 0.000000000000000000 ) ) ;
#163 = CARTESIAN_POINT ( 'NONE',  ( 0.000000000000000000, 0.000000000000000000, -18.99999999999999289 ) ) ;
#164 = CARTESIAN_POINT ( 'NONE',  ( 0.000000000000000000, 0.000000000000000000, -20.00000000000000000 ) ) ;
#165 = ADVANCED_FACE ( 'NONE', ( #17 ), #84, .T. ) ;
#166 = CARTESIAN_POINT ( 'NONE',  ( -1.999999999999988232, 3.061616997868376239E-16, -20.00000000000000000 ) ) ;
#167 = AXIS2_PLACEMENT_3D ( 'NONE', #164, #82, #40 ) ;
#168 = DIRECTION ( 'NONE',  ( -1.000000000000000000, 0.000000000000000000, 0.000000000000000000 ) ) ;
#169 = APPLICATION_CONTEXT ( 'automotive_design' ) ;
#170 = CARTESIAN_POINT ( 'NONE',  ( 3.000000000000000444, 3.673940397442060361E-16, -18.99999999999999289 ) ) ;
#171 = CARTESIAN_POINT ( 'NONE',  ( -1.999999999999998224, 0.000000000000000000, 20.00000000000000000 ) ) ;
#172 = VERTEX_POINT ( 'NONE', #120 ) ;
#173 = ORIENTED_EDGE ( 'NONE', *, *, #243, .T. ) ;
#174 = VECTOR ( 'NONE', #100, 1000.000000000000000 ) ;
#175 = PRODUCT_CONTEXT ( 'NONE', #169, 'mechanical' ) ;
#176 = MANIFOLD_SOLID_BREP ( '倒角1', #212 ) ;
#177 = CIRCLE ( 'NONE', #79, 1.999999999999998224 ) ;
#178 = SURFACE_SIDE_STYLE ('',( #95 ) ) ;
#179 = CARTESIAN_POINT ( 'NONE',  ( 1.999999999999998224, 2.449293598294704442E-16, 20.00000000000000000 ) ) ;
#180 = AXIS2_PLACEMENT_3D ( 'NONE', #237, #52, #222 ) ;
#181 = DIRECTION ( 'NONE',  ( 0.000000000000000000, 0.000000000000000000, -1.000000000000000000 ) ) ;
#182 = EDGE_CURVE ( 'NONE', #48, #172, #6, .T. ) ;
#183 = FILL_AREA_STYLE ('',( #36 ) ) ;
#184 = CARTESIAN_POINT ( 'NONE',  ( -3.000000000000000444, 3.673940397442060361E-16, -18.99999999999999289 ) ) ;
#185 = STYLED_ITEM ( 'NONE', ( #161 ), #176 ) ;
#186 = PRESENTATION_STYLE_ASSIGNMENT (( #24 ) ) ;
#187 = EDGE_CURVE ( 'NONE', #104, #172, #96, .T. ) ;
#188 = VERTEX_POINT ( 'NONE', #166 ) ;
#189 = FILL_AREA_STYLE_COLOUR ( '', #206 ) ;
#190 = EDGE_LOOP ( 'NONE', ( #214, #67, #127, #217 ) ) ;
#191 = VECTOR ( 'NONE', #86, 1000.000000000000000 ) ;
#192 =( NAMED_UNIT ( * ) SI_UNIT ( $, .STERADIAN. ) SOLID_ANGLE_UNIT ( ) );
#193 = EDGE_LOOP ( 'NONE', ( #254, #54, #153, #148 ) ) ;
#194 = ORIENTED_EDGE ( 'NONE', *, *, #88, .F. ) ;
#195 = DIRECTION ( 'NONE',  ( 1.000000000000000000, 0.000000000000000000, -0.000000000000000000 ) ) ;
#196 = CARTESIAN_POINT ( 'NONE',  ( 3.000000000000000444, 0.000000000000000000, -18.99999999999999289 ) ) ;
#197 = EDGE_CURVE ( 'NONE', #172, #29, #71, .T. ) ;
#198 = APPLICATION_PROTOCOL_DEFINITION ( 'draft international standard', 'automotive_design', 1998, #47 ) ;
#199 = DIRECTION ( 'NONE',  ( 0.000000000000000000, 0.000000000000000000, 1.000000000000000000 ) ) ;
#200 = AXIS2_PLACEMENT_3D ( 'NONE', #227, #141, #209 ) ;
#201 = AXIS2_PLACEMENT_3D ( 'NONE', #1, #72, #168 ) ;
#202 = CARTESIAN_POINT ( 'NONE',  ( 0.000000000000000000, 0.000000000000000000, -18.99999999999999289 ) ) ;
#203 = DIRECTION ( 'NONE',  ( -0.000000000000000000, -0.000000000000000000, 1.000000000000000000 ) ) ;
#204 = PRODUCT_DEFINITION_CONTEXT ( 'detailed design', #47, 'design' ) ;
#205 = LINE ( 'NONE', #38, #174 ) ;
#206 = COLOUR_RGB ( '',1.000000000000000000, 1.000000000000000000, 1.000000000000000000 ) ;
#207 = ADVANCED_FACE ( 'NONE', ( #42 ), #156, .T. ) ;
#208 = CARTESIAN_POINT ( 'NONE',  ( 0.000000000000000000, 0.000000000000000000, -18.99999999999999289 ) ) ;
#209 = DIRECTION ( 'NONE',  ( 1.000000000000000000, 0.000000000000000000, -0.000000000000000000 ) ) ;
#210 = CARTESIAN_POINT ( 'NONE',  ( 0.000000000000000000, 0.000000000000000000, 18.99999999999999645 ) ) ;
#211 = UNCERTAINTY_MEASURE_WITH_UNIT (LENGTH_MEASURE( 1.000000000000000082E-05 ), #215, 'distance_accuracy_value', 'NONE');
#212 = CLOSED_SHELL ( 'NONE', ( #207, #165, #241, #251, #264, #60, #136, #97 ) ) ;
#213 = SURFACE_STYLE_USAGE ( .BOTH. , #233 ) ;
#214 = ORIENTED_EDGE ( 'NONE', *, *, #197, .F. ) ;
#215 =( LENGTH_UNIT ( ) NAMED_UNIT ( * ) SI_UNIT ( .MILLI., .METRE. ) );
#216 = ORIENTED_EDGE ( 'NONE', *, *, #182, .F. ) ;
#217 = ORIENTED_EDGE ( 'NONE', *, *, #31, .T. ) ;
#218 = MECHANICAL_DESIGN_GEOMETRIC_PRESENTATION_REPRESENTATION (  '', ( #185 ), #238 ) ;
#219 = COLOUR_RGB ( '',1.000000000000000000, 1.000000000000000000, 1.000000000000000000 ) ;
#220 = FACE_OUTER_BOUND ( 'NONE', #190, .T. ) ;
#221 = ORIENTED_EDGE ( 'NONE', *, *, #147, .F. ) ;
#222 = DIRECTION ( 'NONE',  ( 1.000000000000000000, 0.000000000000000000, 0.000000000000000000 ) ) ;
#223 = SURFACE_STYLE_USAGE ( .BOTH. , #157 ) ;
#224 =( GEOMETRIC_REPRESENTATION_CONTEXT ( 3 ) GLOBAL_UNCERTAINTY_ASSIGNED_CONTEXT ( ( #125 ) ) GLOBAL_UNIT_ASSIGNED_CONTEXT ( ( #49, #87, #192 ) ) REPRESENTATION_CONTEXT ( 'NONE', 'WORKASPACE' ) );
#225 = FILL_AREA_STYLE ('',( #261 ) ) ;
#226 = AXIS2_PLACEMENT_3D ( 'NONE', #210, #139, #14 ) ;
#227 = CARTESIAN_POINT ( 'NONE',  ( 0.000000000000000000, 0.000000000000000000, -20.00000000000000000 ) ) ;
#228 = LINE ( 'NONE', #184, #98 ) ;
#229 = FACE_OUTER_BOUND ( 'NONE', #133, .T. ) ;
#230 = DIRECTION ( 'NONE',  ( 1.000000000000000000, 0.000000000000000000, 0.000000000000000000 ) ) ;
#231 = FILL_AREA_STYLE ('',( #189 ) ) ;
#232 = VERTEX_POINT ( 'NONE', #51 ) ;
#233 = SURFACE_SIDE_STYLE ('',( #123 ) ) ;
#234 = ORIENTED_EDGE ( 'NONE', *, *, #23, .T. ) ;
#235 = ORIENTED_EDGE ( 'NONE', *, *, #56, .F. ) ;
#236 = CARTESIAN_POINT ( 'NONE',  ( 0.000000000000000000, 0.000000000000000000, 20.00000000000000000 ) ) ;
#237 = CARTESIAN_POINT ( 'NONE',  ( 0.000000000000000000, 0.000000000000000000, -18.99999999999999289 ) ) ;
#238 =( GEOMETRIC_REPRESENTATION_CONTEXT ( 3 ) GLOBAL_UNCERTAINTY_ASSIGNED_CONTEXT ( ( #41 ) ) GLOBAL_UNIT_ASSIGNED_CONTEXT ( ( #267, #83, #18 ) ) REPRESENTATION_CONTEXT ( 'NONE', 'WORKASPACE' ) );
#239 = AXIS2_PLACEMENT_3D ( 'NONE', #134, #259, #263 ) ;
#240 = EDGE_LOOP ( 'NONE', ( #252, #194, #73, #106 ) ) ;
#241 = ADVANCED_FACE ( 'NONE', ( #66 ), #132, .T. ) ;
#242 = PRESENTATION_LAYER_ASSIGNMENT (  '', '', ( #262 ) ) ;
#243 = EDGE_CURVE ( 'NONE', #25, #48, #250, .T. ) ;
#244 = DIRECTION ( 'NONE',  ( 1.000000000000000000, 0.000000000000000000, 0.000000000000000000 ) ) ;
#245 = DIRECTION ( 'NONE',  ( -0.7071067811865490160, 8.659560562354953812E-17, 0.7071067811865460184 ) ) ;
#246 = CIRCLE ( 'NONE', #154, 3.000000000000000444 ) ;
#247 = DIRECTION ( 'NONE',  ( 0.000000000000000000, 0.000000000000000000, -1.000000000000000000 ) ) ;
#248 = DIRECTION ( 'NONE',  ( -1.000000000000000000, 0.000000000000000000, 0.000000000000000000 ) ) ;
#249 = EDGE_LOOP ( 'NONE', ( #50, #91, #173, #149 ) ) ;
#250 = LINE ( 'NONE', #171, #113 ) ;
#251 = ADVANCED_FACE ( 'NONE', ( #220 ), #27, .T. ) ;
#252 = ORIENTED_EDGE ( 'NONE', *, *, #76, .F. ) ;
#253 = DIRECTION ( 'NONE',  ( -0.7071067811865467956, 0.000000000000000000, -0.7071067811865483499 ) ) ;
#254 = ORIENTED_EDGE ( 'NONE', *, *, #182, .T. ) ;
#255 = STYLED_ITEM ( 'NONE', ( #21 ), #241 ) ;
#256 = AXIS2_PLACEMENT_3D ( 'NONE', #144, #199, #195 ) ;
#257 = ORIENTED_EDGE ( 'NONE', *, *, #88, .T. ) ;
#258 =( NAMED_UNIT ( * ) SI_UNIT ( $, .STERADIAN. ) SOLID_ANGLE_UNIT ( ) );
#259 = DIRECTION ( 'NONE',  ( 0.000000000000000000, 0.000000000000000000, 1.000000000000000000 ) ) ;
#260 = CONICAL_SURFACE ( 'NONE', #130, 3.000000000000000444, 0.7853981633974504994 ) ;
#261 = FILL_AREA_STYLE_COLOUR ( '', #63 ) ;
#262 = STYLED_ITEM ( 'NONE', ( #186 ), #251 ) ;
#263 = DIRECTION ( 'NONE',  ( 1.000000000000000000, 0.000000000000000000, 0.000000000000000000 ) ) ;
#264 = ADVANCED_FACE ( 'NONE', ( #74 ), #65, .T. ) ;
#265 = DIRECTION ( 'NONE',  ( -0.000000000000000000, -0.000000000000000000, 1.000000000000000000 ) ) ;
#266 = DIRECTION ( 'NONE',  ( -0.000000000000000000, -0.000000000000000000, -1.000000000000000000 ) ) ;
#267 =( LENGTH_UNIT ( ) NAMED_UNIT ( * ) SI_UNIT ( .MILLI., .METRE. ) );
#268 = CARTESIAN_POINT ( 'NONE',  ( 0.000000000000000000, 0.000000000000000000, 20.00000000000000000 ) ) ;
#269 = AXIS2_PLACEMENT_3D ( 'NONE', #163, #265, #230 ) ;
#270 = STYLED_ITEM ( 'NONE', ( #57 ), #45 ) ;
ENDSEC;
END-ISO-10303-21;
