ISO-10303-21;
HEADER;
FILE_DESCRIPTION (( 'STEP AP214' ),
    '1' );
FILE_NAME ('输送带.step',
    '2023-08-15T03:06:27',
    ( '' ),
    ( '' ),
    'SwSTEP 2.0',
    'SolidWorks 2022',
    '' );
FILE_SCHEMA (( 'AUTOMOTIVE_DESIGN' ));
ENDSEC;

DATA;
#1 = ORIENTED_EDGE ( 'NONE', *, *, #73, .F. ) ;
#2 = VECTOR ( 'NONE', #246, 1000.000000000000000 ) ;
#3 = VECTOR ( 'NONE', #595, 1000.000000000000000 ) ;
#4 = DIRECTION ( 'NONE',  ( -0.000000000000000000, -1.000000000000000000, -0.000000000000000000 ) ) ;
#5 = FILL_AREA_STYLE ('',( #279 ) ) ;
#6 = ORIENTED_EDGE ( 'NONE', *, *, #635, .F. ) ;
#7 = ADVANCED_FACE ( 'NONE', ( #658 ), #467, .T. ) ;
#8 = ORIENTED_EDGE ( 'NONE', *, *, #524, .F. ) ;
#9 = CARTESIAN_POINT ( 'NONE',  ( -197.1992570886611986, 0.000000000000000000, -62.40543308509072062 ) ) ;
#10 = ORIENTED_EDGE ( 'NONE', *, *, #323, .T. ) ;
#11 = ORIENTED_EDGE ( 'NONE', *, *, #210, .F. ) ;
#12 = DIRECTION ( 'NONE',  ( -0.8531971257307333634, 0.000000000000000000, 0.5215885971192384396 ) ) ;
#13 = STYLED_ITEM ( 'NONE', ( #659 ), #160 ) ;
#14 = ORIENTED_EDGE ( 'NONE', *, *, #53, .T. ) ;
#15 = VECTOR ( 'NONE', #563, 1000.000000000000000 ) ;
#16 = EDGE_CURVE ( 'NONE', #597, #387, #303, .T. ) ;
#17 = EDGE_LOOP ( 'NONE', ( #8, #311, #129, #62 ) ) ;
#18 = CARTESIAN_POINT ( 'NONE',  ( 222.2467469671534559, 54.00000000000000000, 121.7674064169385844 ) ) ;
#19 = ORIENTED_EDGE ( 'NONE', *, *, #309, .T. ) ;
#20 = ORIENTED_EDGE ( 'NONE', *, *, #125, .F. ) ;
#21 = DIRECTION ( 'NONE',  ( 0.000000000000000000, 0.000000000000000000, 1.000000000000000000 ) ) ;
#22 = CARTESIAN_POINT ( 'NONE',  ( -107.7984739414138602, 0.000000000000000000, 71.17480349444682020 ) ) ;
#23 = VERTEX_POINT ( 'NONE', #37 ) ;
#24 = DIRECTION ( 'NONE',  ( 0.000000000000000000, 0.000000000000000000, 1.000000000000000000 ) ) ;
#25 = AXIS2_PLACEMENT_3D ( 'NONE', #671, #39, #44 ) ;
#26 = DIRECTION ( 'NONE',  ( 0.9131849818173370936, 0.000000000000000000, 0.4075453213855724788 ) ) ;
#27 = LINE ( 'NONE', #355, #657 ) ;
#28 = CARTESIAN_POINT ( 'NONE',  ( 272.7999206702201604, 54.00000000000000000, 59.06321634133549736 ) ) ;
#29 = DIRECTION ( 'NONE',  ( 0.5509921670623422196, 0.000000000000000000, 0.8345104144562510706 ) ) ;
#30 = DIRECTION ( 'NONE',  ( 0.5509524661857190253, 0.000000000000000000, 0.8345366259211599580 ) ) ;
#31 = CIRCLE ( 'NONE', #688, 16.70883451266186270 ) ;
#32 = FACE_OUTER_BOUND ( 'NONE', #229, .T. ) ;
#33 = CYLINDRICAL_SURFACE ( 'NONE', #91, 10.49999999999999467 ) ;
#34 = DIRECTION ( 'NONE',  ( 0.000000000000000000, 0.000000000000000000, 1.000000000000000000 ) ) ;
#35 = CIRCLE ( 'NONE', #560, 16.99999999999997513 ) ;
#36 = CIRCLE ( 'NONE', #601, 11.50000000000004441 ) ;
#37 = CARTESIAN_POINT ( 'NONE',  ( -196.1969028595536884, 54.00000000000000000, -62.70987575075132270 ) ) ;
#38 = LINE ( 'NONE', #627, #379 ) ;
#39 = DIRECTION ( 'NONE',  ( -0.000000000000000000, -1.000000000000000000, -0.000000000000000000 ) ) ;
#40 = DIRECTION ( 'NONE',  ( 0.000000000000000000, 0.000000000000000000, 1.000000000000000000 ) ) ;
#41 = EDGE_CURVE ( 'NONE', #332, #387, #35, .T. ) ;
#42 = AXIS2_PLACEMENT_3D ( 'NONE', #637, #685, #108 ) ;
#43 = CARTESIAN_POINT ( 'NONE',  ( -9.855566887629960249, 54.00000000000000000, 22.08332471706916067 ) ) ;
#44 = DIRECTION ( 'NONE',  ( 0.000000000000000000, 0.000000000000000000, -1.000000000000000000 ) ) ;
#45 = ADVANCED_FACE ( 'NONE', ( #32 ), #308, .T. ) ;
#46 = CARTESIAN_POINT ( 'NONE',  ( -231.2997264095390619, 54.00000000000000000, -162.9090193331464604 ) ) ;
#47 = CARTESIAN_POINT ( 'NONE',  ( -224.4982867405370257, 54.00000000000000000, -161.4620840863180149 ) ) ;
#48 = LINE ( 'NONE', #341, #666 ) ;
#49 = VERTEX_POINT ( 'NONE', #261 ) ;
#50 = CARTESIAN_POINT ( 'NONE',  ( -192.2888570865019346, 0.000000000000000000, -58.23975915532708569 ) ) ;
#51 = VECTOR ( 'NONE', #12, 999.9999999999998863 ) ;
#52 = ORIENTED_EDGE ( 'NONE', *, *, #519, .T. ) ;
#53 = EDGE_CURVE ( 'NONE', #544, #398, #203, .T. ) ;
#54 = AXIS2_PLACEMENT_3D ( 'NONE', #110, #562, #552 ) ;
#55 = ORIENTED_EDGE ( 'NONE', *, *, #505, .T. ) ;
#56 = CIRCLE ( 'NONE', #130, 16.70883451266186270 ) ;
#57 = CARTESIAN_POINT ( 'NONE',  ( -197.1992570886611986, 54.00000000000000000, -62.40543308509072062 ) ) ;
#58 = VERTEX_POINT ( 'NONE', #417 ) ;
#59 = PRODUCT_DEFINITION ( '未知', '', #245, #76 ) ;
#60 = VERTEX_POINT ( 'NONE', #298 ) ;
#61 = LINE ( 'NONE', #640, #290 ) ;
#62 = ORIENTED_EDGE ( 'NONE', *, *, #635, .T. ) ;
#63 = EDGE_CURVE ( 'NONE', #137, #23, #148, .T. ) ;
#64 = DIRECTION ( 'NONE',  ( -0.000000000000000000, -1.000000000000000000, -0.000000000000000000 ) ) ;
#65 =( NAMED_UNIT ( * ) SI_UNIT ( $, .STERADIAN. ) SOLID_ANGLE_UNIT ( ) );
#66 = VERTEX_POINT ( 'NONE', #251 ) ;
#67 = VECTOR ( 'NONE', #348, 1000.000000000000000 ) ;
#68 = DIRECTION ( 'NONE',  ( -0.8538365234809390802, 0.000000000000000000, 0.5205412482887247227 ) ) ;
#69 = ORIENTED_EDGE ( 'NONE', *, *, #686, .T. ) ;
#70 = SURFACE_STYLE_USAGE ( .BOTH. , #449 ) ;
#71 = ORIENTED_EDGE ( 'NONE', *, *, #515, .T. ) ;
#72 = DIRECTION ( 'NONE',  ( 0.000000000000000000, 1.000000000000000000, -0.000000000000000000 ) ) ;
#73 = EDGE_CURVE ( 'NONE', #442, #555, #313, .T. ) ;
#74 = DIRECTION ( 'NONE',  ( -0.4075453213855725343, 0.000000000000000000, 0.9131849818173372046 ) ) ;
#75 = ORIENTED_EDGE ( 'NONE', *, *, #95, .T. ) ;
#76 = PRODUCT_DEFINITION_CONTEXT ( 'detailed design', #276, 'design' ) ;
#77 = DIRECTION ( 'NONE',  ( -0.000000000000000000, -1.000000000000000000, -0.000000000000000000 ) ) ;
#78 = DIRECTION ( 'NONE',  ( 0.000000000000000000, 0.000000000000000000, -1.000000000000000000 ) ) ;
#79 = EDGE_LOOP ( 'NONE', ( #653, #287, #269, #491, #354, #328, #486, #566, #660 ) ) ;
#80 = CARTESIAN_POINT ( 'NONE',  ( 272.7999206702201604, 54.00000000000000000, 59.06321634133549736 ) ) ;
#81 = DIRECTION ( 'NONE',  ( 0.000000000000000000, 1.000000000000000000, -0.000000000000000000 ) ) ;
#82 = CARTESIAN_POINT ( 'NONE',  ( -107.7984739414138602, 54.00000000000000000, 71.17480349444682020 ) ) ;
#83 = DIRECTION ( 'NONE',  ( 0.000000000000000000, 0.000000000000000000, -1.000000000000000000 ) ) ;
#84 = CARTESIAN_POINT ( 'NONE',  ( 114.3410797406453554, 54.00000000000000000, 187.5520726508469807 ) ) ;
#85 = DIRECTION ( 'NONE',  ( -0.000000000000000000, -1.000000000000000000, -0.000000000000000000 ) ) ;
#86 = ADVANCED_FACE ( 'NONE', ( #460 ), #663, .T. ) ;
#87 = LINE ( 'NONE', #312, #485 ) ;
#88 = AXIS2_PLACEMENT_3D ( 'NONE', #220, #543, #576 ) ;
#89 = CARTESIAN_POINT ( 'NONE',  ( -107.7984739414138602, 54.00000000000000000, 71.17480349444682020 ) ) ;
#90 = FACE_OUTER_BOUND ( 'NONE', #292, .T. ) ;
#91 = AXIS2_PLACEMENT_3D ( 'NONE', #564, #258, #83 ) ;
#92 = ORIENTED_EDGE ( 'NONE', *, *, #466, .F. ) ;
#93 = VECTOR ( 'NONE', #315, 1000.000000000000000 ) ;
#94 = DIRECTION ( 'NONE',  ( -0.000000000000000000, -1.000000000000000000, -0.000000000000000000 ) ) ;
#95 = EDGE_CURVE ( 'NONE', #350, #450, #424, .T. ) ;
#96 = CARTESIAN_POINT ( 'NONE',  ( 274.8614984472387164, 0.000000000000000000, 90.86201827642032924 ) ) ;
#97 = CARTESIAN_POINT ( 'NONE',  ( -245.2438607868109273, 54.00000000000000000, -136.9944112386445170 ) ) ;
#98 = CARTESIAN_POINT ( 'NONE',  ( 265.4729036990925124, 0.000000000000000000, 75.50447001326713803 ) ) ;
#99 = EDGE_LOOP ( 'NONE', ( #299, #112, #20, #394 ) ) ;
#100 = ADVANCED_FACE ( 'NONE', ( #357 ), #619, .T. ) ;
#101 = AXIS2_PLACEMENT_3D ( 'NONE', #441, #333, #545 ) ;
#102 = LINE ( 'NONE', #43, #681 ) ;
#103 = DIRECTION ( 'NONE',  ( 0.000000000000000000, 0.000000000000000000, -1.000000000000000000 ) ) ;
#104 = AXIS2_PLACEMENT_3D ( 'NONE', #479, #377, #162 ) ;
#105 = PLANE ( 'NONE',  #104 ) ;
#106 = CARTESIAN_POINT ( 'NONE',  ( -197.1992570886611986, 54.00000000000000000, -62.40543308509072062 ) ) ;
#107 = ORIENTED_EDGE ( 'NONE', *, *, #356, .F. ) ;
#108 = DIRECTION ( 'NONE',  ( 0.000000000000000000, 0.000000000000000000, 1.000000000000000000 ) ) ;
#109 = EDGE_CURVE ( 'NONE', #426, #350, #361, .T. ) ;
#110 = CARTESIAN_POINT ( 'NONE',  ( -187.6020858905677926, 54.00000000000000000, -68.74138644622651384 ) ) ;
#111 = ORIENTED_EDGE ( 'NONE', *, *, #622, .T. ) ;
#112 = ORIENTED_EDGE ( 'NONE', *, *, #622, .F. ) ;
#113 = CARTESIAN_POINT ( 'NONE',  ( 272.3928641718241579, 54.00000000000000000, 59.97661932310950306 ) ) ;
#114 = CIRCLE ( 'NONE', #585, 10.49999999999998224 ) ;
#115 = PRESENTATION_STYLE_ASSIGNMENT (( #124 ) ) ;
#116 = ORIENTED_EDGE ( 'NONE', *, *, #343, .F. ) ;
#117 = ORIENTED_EDGE ( 'NONE', *, *, #252, .T. ) ;
#118 = LINE ( 'NONE', #388, #128 ) ;
#119 = ORIENTED_EDGE ( 'NONE', *, *, #639, .F. ) ;
#120 = ADVANCED_FACE ( 'NONE', ( #197 ), #611, .T. ) ;
#121 = EDGE_LOOP ( 'NONE', ( #439, #382, #667, #577, #448, #228, #444, #363, #571 ) ) ;
#122 = CARTESIAN_POINT ( 'NONE',  ( 0.000000000000000000, 0.000000000000000000, 0.000000000000000000 ) ) ;
#123 = DIRECTION ( 'NONE',  ( -0.000000000000000000, -1.000000000000000000, -0.000000000000000000 ) ) ;
#124 = SURFACE_STYLE_USAGE ( .BOTH. , #437 ) ;
#125 = EDGE_CURVE ( 'NONE', #241, #138, #102, .T. ) ;
#126 = VERTEX_POINT ( 'NONE', #266 ) ;
#127 = CARTESIAN_POINT ( 'NONE',  ( -231.2997264095390619, 0.000000000000000000, -146.2001848204845942 ) ) ;
#128 = VECTOR ( 'NONE', #4, 1000.000000000000000 ) ;
#129 = ORIENTED_EDGE ( 'NONE', *, *, #175, .T. ) ;
#130 = AXIS2_PLACEMENT_3D ( 'NONE', #127, #406, #21 ) ;
#131 = CARTESIAN_POINT ( 'NONE',  ( 213.1902336586031765, 54.00000000000000000, 122.7215024107314605 ) ) ;
#132 = DIRECTION ( 'NONE',  ( -0.000000000000000000, -1.000000000000000000, -0.000000000000000000 ) ) ;
#133 = CARTESIAN_POINT ( 'NONE',  ( -10.26311220901555643, 54.00000000000000000, 22.99650969888657315 ) ) ;
#134 = VERTEX_POINT ( 'NONE', #46 ) ;
#135 = CYLINDRICAL_SURFACE ( 'NONE', #191, 16.70883451266186270 ) ;
#136 = ADVANCED_FACE ( 'NONE', ( #270 ), #105, .F. ) ;
#137 = VERTEX_POINT ( 'NONE', #97 ) ;
#138 = VERTEX_POINT ( 'NONE', #216 ) ;
#139 = DIRECTION ( 'NONE',  ( 0.000000000000000000, 0.000000000000000000, -1.000000000000000000 ) ) ;
#140 = AXIS2_PLACEMENT_3D ( 'NONE', #147, #81, #676 ) ;
#141 = CARTESIAN_POINT ( 'NONE',  ( 23.24148611696373123, 54.00000000000000000, -52.15207914318067139 ) ) ;
#142 = DIRECTION ( 'NONE',  ( 0.000000000000000000, 0.000000000000000000, 1.000000000000000000 ) ) ;
#143 = MECHANICAL_DESIGN_GEOMETRIC_PRESENTATION_REPRESENTATION (  '', ( #281 ), #530 ) ;
#144 = EDGE_CURVE ( 'NONE', #60, #176, #320, .T. ) ;
#145 = ORIENTED_EDGE ( 'NONE', *, *, #505, .F. ) ;
#146 = CARTESIAN_POINT ( 'NONE',  ( -231.2997264095390619, 0.000000000000000000, -146.2001848204845942 ) ) ;
#147 = CARTESIAN_POINT ( 'NONE',  ( 217.8770048545372617, 54.00000000000000000, 112.2198751198320821 ) ) ;
#148 = LINE ( 'NONE', #89, #15 ) ;
#149 = PRODUCT_RELATED_PRODUCT_CATEGORY ( 'part', '', ( #526 ) ) ;
#150 = CARTESIAN_POINT ( 'NONE',  ( 274.3399098501195112, 54.00000000000000000, 90.00882115068959877 ) ) ;
#151 = CYLINDRICAL_SURFACE ( 'NONE', #277, 17.70883451266186270 ) ;
#152 = AXIS2_PLACEMENT_3D ( 'NONE', #305, #347, #614 ) ;
#153 = AXIS2_PLACEMENT_3D ( 'NONE', #122, #683, #221 ) ;
#154 = FACE_OUTER_BOUND ( 'NONE', #330, .T. ) ;
#155 = EDGE_CURVE ( 'NONE', #23, #138, #177, .T. ) ;
#156 = AXIS2_PLACEMENT_3D ( 'NONE', #669, #74, #26 ) ;
#157 = ORIENTED_EDGE ( 'NONE', *, *, #364, .F. ) ;
#158 = VECTOR ( 'NONE', #628, 1000.000000000000114 ) ;
#159 = DIRECTION ( 'NONE',  ( 0.9134029817739821588, 0.000000000000000000, 0.4070564983959826244 ) ) ;
#160 = ADVANCED_BREP_SHAPE_REPRESENTATION ( '输送带', ( #208, #153 ), #174 ) ;
#161 = CARTESIAN_POINT ( 'NONE',  ( -231.2997264095390619, 54.00000000000000000, -163.9090193331464604 ) ) ;
#162 = DIRECTION ( 'NONE',  ( -0.9134029817739820478, 0.000000000000000000, -0.4070564983959827354 ) ) ;
#163 = CARTESIAN_POINT ( 'NONE',  ( 115.2125766088114887, 54.00000000000000000, 188.4608669621627541 ) ) ;
#164 = APPLICATION_PROTOCOL_DEFINITION ( 'draft international standard', 'automotive_design', 1998, #510 ) ;
#165 = CARTESIAN_POINT ( 'NONE',  ( 222.2467469671534559, 0.000000000000000000, 121.7674064169385844 ) ) ;
#166 = VECTOR ( 'NONE', #396, 999.9999999999998863 ) ;
#167 = ADVANCED_FACE ( 'NONE', ( #677 ), #33, .F. ) ;
#168 = CARTESIAN_POINT ( 'NONE',  ( 115.2125766088114887, 54.00000000000000000, 188.4608669621627541 ) ) ;
#169 = ORIENTED_EDGE ( 'NONE', *, *, #672, .F. ) ;
#170 = LINE ( 'NONE', #535, #596 ) ;
#171 = EDGE_LOOP ( 'NONE', ( #119, #145, #339, #404, #584, #495, #116, #224, #680 ) ) ;
#172 = EDGE_LOOP ( 'NONE', ( #10, #178, #92, #588 ) ) ;
#173 = DIRECTION ( 'NONE',  ( 0.000000000000000000, 0.000000000000000000, 1.000000000000000000 ) ) ;
#174 =( GEOMETRIC_REPRESENTATION_CONTEXT ( 3 ) GLOBAL_UNCERTAINTY_ASSIGNED_CONTEXT ( ( #605 ) ) GLOBAL_UNIT_ASSIGNED_CONTEXT ( ( #360, #371, #594 ) ) REPRESENTATION_CONTEXT ( 'NONE', 'WORKASPACE' ) );
#175 = EDGE_CURVE ( 'NONE', #241, #237, #400, .T. ) ;
#176 = VERTEX_POINT ( 'NONE', #423 ) ;
#177 = CIRCLE ( 'NONE', #268, 10.49999999999998224 ) ;
#178 = ORIENTED_EDGE ( 'NONE', *, *, #16, .F. ) ;
#179 = CARTESIAN_POINT ( 'NONE',  ( -187.6020858905677926, 0.000000000000000000, -68.74138644622651384 ) ) ;
#180 = EDGE_CURVE ( 'NONE', #654, #332, #620, .T. ) ;
#181 = VERTEX_POINT ( 'NONE', #572 ) ;
#182 = CARTESIAN_POINT ( 'NONE',  ( -245.2438607868109273, 54.00000000000000000, -136.9944112386445170 ) ) ;
#183 = ORIENTED_EDGE ( 'NONE', *, *, #240, .T. ) ;
#184 = FACE_BOUND ( 'NONE', #280, .T. ) ;
#185 = COLOUR_RGB ( '',0.2862745098039215508, 0.6627450980392156632, 0.3294117647058823484 ) ;
#186 = ORIENTED_EDGE ( 'NONE', *, *, #686, .F. ) ;
#187 = EDGE_CURVE ( 'NONE', #426, #275, #38, .T. ) ;
#188 = AXIS2_PLACEMENT_3D ( 'NONE', #263, #670, #213 ) ;
#189 =( NAMED_UNIT ( * ) PLANE_ANGLE_UNIT ( ) SI_UNIT ( $, .RADIAN. ) );
#190 = ORIENTED_EDGE ( 'NONE', *, *, #524, .T. ) ;
#191 = AXIS2_PLACEMENT_3D ( 'NONE', #351, #609, #139 ) ;
#192 = CARTESIAN_POINT ( 'NONE',  ( 114.3410797406453554, 54.00000000000000000, 187.5520726508469807 ) ) ;
#193 = CARTESIAN_POINT ( 'NONE',  ( 265.4729036990925124, 0.000000000000000000, 75.50447001326713803 ) ) ;
#194 = VERTEX_POINT ( 'NONE', #96 ) ;
#195 = ADVANCED_FACE ( 'NONE', ( #527 ), #664, .F. ) ;
#196 = FACE_OUTER_BOUND ( 'NONE', #284, .T. ) ;
#197 = FACE_OUTER_BOUND ( 'NONE', #649, .T. ) ;
#198 = CARTESIAN_POINT ( 'NONE',  ( -9.855566887629960249, 54.00000000000000000, 22.08332471706916067 ) ) ;
#199 = UNCERTAINTY_MEASURE_WITH_UNIT (LENGTH_MEASURE( 1.000000000000000082E-05 ), #395, 'distance_accuracy_value', 'NONE');
#200 = CARTESIAN_POINT ( 'NONE',  ( 265.4729036990925124, 54.00000000000000000, 75.50447001326713803 ) ) ;
#201 = EDGE_CURVE ( 'NONE', #367, #275, #433, .T. ) ;
#202 = VECTOR ( 'NONE', #481, 1000.000000000000000 ) ;
#203 = LINE ( 'NONE', #22, #335 ) ;
#204 = DIRECTION ( 'NONE',  ( -0.000000000000000000, -1.000000000000000000, -0.000000000000000000 ) ) ;
#205 = DIRECTION ( 'NONE',  ( 0.000000000000000000, 1.000000000000000000, -0.000000000000000000 ) ) ;
#206 = COLOUR_RGB ( '',0.2862745098039215508, 0.6627450980392156632, 0.3294117647058823484 ) ;
#207 = DIRECTION ( 'NONE',  ( -0.000000000000000000, -1.000000000000000000, -0.000000000000000000 ) ) ;
#208 = MANIFOLD_SOLID_BREP ( '凸台-拉伸1', #636 ) ;
#209 = PLANE ( 'NONE',  #567 ) ;
#210 = EDGE_CURVE ( 'NONE', #586, #126, #236, .T. ) ;
#211 = FACE_OUTER_BOUND ( 'NONE', #121, .T. ) ;
#212 = VECTOR ( 'NONE', #484, 1000.000000000000000 ) ;
#213 = DIRECTION ( 'NONE',  ( 0.000000000000000000, 0.000000000000000000, 1.000000000000000000 ) ) ;
#214 = EDGE_CURVE ( 'NONE', #654, #597, #616, .T. ) ;
#215 = DIRECTION ( 'NONE',  ( -0.000000000000000000, -1.000000000000000000, -0.000000000000000000 ) ) ;
#216 = CARTESIAN_POINT ( 'NONE',  ( -191.8813117651162941, 54.00000000000000000, -59.15294413714455857 ) ) ;
#217 = CARTESIAN_POINT ( 'NONE',  ( -10.26311220901555643, 0.000000000000000000, 22.99650969888657315 ) ) ;
#218 = APPLICATION_PROTOCOL_DEFINITION ( 'draft international standard', 'automotive_design', 1998, #276 ) ;
#219 = ORIENTED_EDGE ( 'NONE', *, *, #633, .F. ) ;
#220 = CARTESIAN_POINT ( 'NONE',  ( -108.6462998972459388, 54.00000000000000000, 71.72716572417500913 ) ) ;
#221 = DIRECTION ( 'NONE',  ( 1.000000000000000000, 0.000000000000000000, 0.000000000000000000 ) ) ;
#222 = EDGE_CURVE ( 'NONE', #654, #237, #504, .T. ) ;
#223 = CYLINDRICAL_SURFACE ( 'NONE', #152, 10.49999999999998224 ) ;
#224 = ORIENTED_EDGE ( 'NONE', *, *, #356, .T. ) ;
#225 = CIRCLE ( 'NONE', #401, 17.99999999999997513 ) ;
#226 = DIRECTION ( 'NONE',  ( 0.000000000000000000, 0.000000000000000000, -1.000000000000000000 ) ) ;
#227 = SURFACE_STYLE_FILL_AREA ( #5 ) ;
#228 = ORIENTED_EDGE ( 'NONE', *, *, #201, .T. ) ;
#229 = EDGE_LOOP ( 'NONE', ( #107, #345, #550, #593 ) ) ;
#230 = CARTESIAN_POINT ( 'NONE',  ( -246.0783974127320732, 54.00000000000000000, -136.4434587724587686 ) ) ;
#231 =( LENGTH_UNIT ( ) NAMED_UNIT ( * ) SI_UNIT ( .MILLI., .METRE. ) );
#232 = ORIENTED_EDGE ( 'NONE', *, *, #610, .F. ) ;
#233 = ORIENTED_EDGE ( 'NONE', *, *, #435, .T. ) ;
#234 = DIRECTION ( 'NONE',  ( -0.000000000000000000, -1.000000000000000000, -0.000000000000000000 ) ) ;
#235 = CIRCLE ( 'NONE', #101, 10.49999999999999467 ) ;
#236 = CIRCLE ( 'NONE', #54, 11.50000000000004441 ) ;
#237 = VERTEX_POINT ( 'NONE', #18 ) ;
#238 = ORIENTED_EDGE ( 'NONE', *, *, #63, .T. ) ;
#239 = CARTESIAN_POINT ( 'NONE',  ( 274.8614984472387164, 54.00000000000000000, 90.86201827642032924 ) ) ;
#240 = EDGE_CURVE ( 'NONE', #58, #389, #306, .T. ) ;
#241 = VERTEX_POINT ( 'NONE', #293 ) ;
#242 = ORIENTED_EDGE ( 'NONE', *, *, #476, .T. ) ;
#243 = CARTESIAN_POINT ( 'NONE',  ( -231.2997264095390619, 54.00000000000000000, -146.2001848204845942 ) ) ;
#244 = VECTOR ( 'NONE', #369, 1000.000000000000000 ) ;
#245 = PRODUCT_DEFINITION_FORMATION_WITH_SPECIFIED_SOURCE ( '任何', '', #526, .NOT_KNOWN. ) ;
#246 = DIRECTION ( 'NONE',  ( -0.000000000000000000, -1.000000000000000000, -0.000000000000000000 ) ) ;
#247 = VECTOR ( 'NONE', #68, 1000.000000000000114 ) ;
#248 = ORIENTED_EDGE ( 'NONE', *, *, #180, .T. ) ;
#249 = AXIS2_PLACEMENT_3D ( 'NONE', #428, #673, #419 ) ;
#250 = CARTESIAN_POINT ( 'NONE',  ( 213.5977789799887319, 54.00000000000000000, 121.8083174289141226 ) ) ;
#251 = CARTESIAN_POINT ( 'NONE',  ( -224.4982867405370257, 54.00000000000000000, -161.4620840863180149 ) ) ;
#252 = EDGE_CURVE ( 'NONE', #367, #194, #500, .T. ) ;
#253 = DIRECTION ( 'NONE',  ( 0.9134029817739820478, 0.000000000000000000, 0.4070564983959826799 ) ) ;
#254 = ORIENTED_EDGE ( 'NONE', *, *, #492, .T. ) ;
#255 = LINE ( 'NONE', #182, #3 ) ;
#256 = ADVANCED_FACE ( 'NONE', ( #300 ), #310, .F. ) ;
#257 = CARTESIAN_POINT ( 'NONE',  ( 217.8770048545372617, 54.00000000000000000, 112.2198751198320821 ) ) ;
#258 = DIRECTION ( 'NONE',  ( -0.000000000000000000, -1.000000000000000000, -0.000000000000000000 ) ) ;
#259 = DIRECTION ( 'NONE',  ( 0.9134029817739821588, 0.000000000000000000, 0.4070564983959826244 ) ) ;
#260 = AXIS2_PLACEMENT_3D ( 'NONE', #509, #615, #399 ) ;
#261 = CARTESIAN_POINT ( 'NONE',  ( -224.4982867405370257, 0.000000000000000000, -161.4620840863180149 ) ) ;
#262 = FACE_OUTER_BOUND ( 'NONE', #537, .T. ) ;
#263 = CARTESIAN_POINT ( 'NONE',  ( 217.8770048545372617, 54.00000000000000000, 112.2198751198320821 ) ) ;
#264 = DIRECTION ( 'NONE',  ( 0.9134029817739820478, 0.000000000000000000, 0.4070564983959826799 ) ) ;
#265 = AXIS2_PLACEMENT_3D ( 'NONE', #624, #679, #103 ) ;
#266 = CARTESIAN_POINT ( 'NONE',  ( -192.2888570865019346, 54.00000000000000000, -58.23975915532708569 ) ) ;
#267 = CARTESIAN_POINT ( 'NONE',  ( 265.4729036990925124, 54.00000000000000000, 75.50447001326713803 ) ) ;
#268 = AXIS2_PLACEMENT_3D ( 'NONE', #374, #461, #469 ) ;
#269 = ORIENTED_EDGE ( 'NONE', *, *, #302, .F. ) ;
#270 = FACE_OUTER_BOUND ( 'NONE', #172, .T. ) ;
#271 = CARTESIAN_POINT ( 'NONE',  ( 274.8614984472387164, 54.00000000000000000, 90.86201827642032924 ) ) ;
#272 = EDGE_CURVE ( 'NONE', #194, #555, #451, .T. ) ;
#273 = LINE ( 'NONE', #480, #202 ) ;
#274 = EDGE_CURVE ( 'NONE', #353, #586, #516, .T. ) ;
#275 = VERTEX_POINT ( 'NONE', #80 ) ;
#276 = APPLICATION_CONTEXT ( 'automotive_design' ) ;
#277 = AXIS2_PLACEMENT_3D ( 'NONE', #473, #215, #425 ) ;
#278 = LINE ( 'NONE', #168, #51 ) ;
#279 = FILL_AREA_STYLE_COLOUR ( '', #206 ) ;
#280 = EDGE_LOOP ( 'NONE', ( #625, #642, #190, #157, #604, #289, #19, #242, #14 ) ) ;
#281 = STYLED_ITEM ( 'NONE', ( #115 ), #208 ) ;
#282 = EDGE_CURVE ( 'NONE', #241, #60, #513, .T. ) ;
#283 = VECTOR ( 'NONE', #94, 1000.000000000000000 ) ;
#284 = EDGE_LOOP ( 'NONE', ( #254, #52, #529, #434 ) ) ;
#285 = DIRECTION ( 'NONE',  ( -0.000000000000000000, -1.000000000000000000, -0.000000000000000000 ) ) ;
#286 = ORIENTED_EDGE ( 'NONE', *, *, #201, .F. ) ;
#287 = ORIENTED_EDGE ( 'NONE', *, *, #63, .F. ) ;
#288 = FACE_OUTER_BOUND ( 'NONE', #536, .T. ) ;
#289 = ORIENTED_EDGE ( 'NONE', *, *, #323, .F. ) ;
#290 = VECTOR ( 'NONE', #643, 1000.000000000000000 ) ;
#291 = AXIS2_PLACEMENT_3D ( 'NONE', #200, #72, #559 ) ;
#292 = EDGE_LOOP ( 'NONE', ( #482, #342, #55, #463 ) ) ;
#293 = CARTESIAN_POINT ( 'NONE',  ( 213.5977789799887319, 54.00000000000000000, 121.8083174289141226 ) ) ;
#294 = ADVANCED_FACE ( 'NONE', ( #184, #655 ), #662, .F. ) ;
#295 = ORIENTED_EDGE ( 'NONE', *, *, #343, .T. ) ;
#296 = ORIENTED_EDGE ( 'NONE', *, *, #317, .F. ) ;
#297 = CARTESIAN_POINT ( 'NONE',  ( 115.2125766088114887, 0.000000000000000000, 188.4608669621627541 ) ) ;
#298 = CARTESIAN_POINT ( 'NONE',  ( 213.5977789799887319, 0.000000000000000000, 121.8083174289141226 ) ) ;
#299 = ORIENTED_EDGE ( 'NONE', *, *, #144, .T. ) ;
#300 = FACE_OUTER_BOUND ( 'NONE', #651, .T. ) ;
#301 = CIRCLE ( 'NONE', #140, 11.49999999999999645 ) ;
#302 = EDGE_CURVE ( 'NONE', #134, #137, #600, .T. ) ;
#303 = LINE ( 'NONE', #511, #326 ) ;
#304 = AXIS2_PLACEMENT_3D ( 'NONE', #602, #617, #78 ) ;
#305 = CARTESIAN_POINT ( 'NONE',  ( -187.6020858905677926, 54.00000000000000000, -68.74138644622651384 ) ) ;
#306 = LINE ( 'NONE', #131, #626 ) ;
#307 = LINE ( 'NONE', #28, #678 ) ;
#308 = PLANE ( 'NONE',  #156 ) ;
#309 = EDGE_CURVE ( 'NONE', #49, #181, #56, .T. ) ;
#310 = PLANE ( 'NONE',  #468 ) ;
#311 = ORIENTED_EDGE ( 'NONE', *, *, #282, .F. ) ;
#312 = CARTESIAN_POINT ( 'NONE',  ( 23.24148611696373123, 0.000000000000000000, -52.15207914318067139 ) ) ;
#313 = LINE ( 'NONE', #520, #415 ) ;
#314 = AXIS2_PLACEMENT_3D ( 'NONE', #599, #465, #24 ) ;
#315 = DIRECTION ( 'NONE',  ( -0.9131849818173372046, 0.000000000000000000, -0.4075453213855724788 ) ) ;
#316 = CIRCLE ( 'NONE', #522, 17.70883451266186270 ) ;
#317 = EDGE_CURVE ( 'NONE', #426, #408, #316, .T. ) ;
#318 = CARTESIAN_POINT ( 'NONE',  ( -231.2997264095390619, 0.000000000000000000, -163.9090193331464604 ) ) ;
#319 = ADVANCED_FACE ( 'NONE', ( #196 ), #135, .F. ) ;
#320 = LINE ( 'NONE', #631, #477 ) ;
#321 = PLANE ( 'NONE',  #249 ) ;
#322 = ORIENTED_EDGE ( 'NONE', *, *, #639, .T. ) ;
#323 = EDGE_CURVE ( 'NONE', #49, #387, #27, .T. ) ;
#324 = DIRECTION ( 'NONE',  ( -0.9131849818173370936, 0.000000000000000000, -0.4075453213855728118 ) ) ;
#325 = DIRECTION ( 'NONE',  ( 0.8531971257307333634, 0.000000000000000000, -0.5215885971192383286 ) ) ;
#326 = VECTOR ( 'NONE', #207, 1000.000000000000000 ) ;
#327 = CARTESIAN_POINT ( 'NONE',  ( -231.2997264095390619, 54.00000000000000000, -146.2001848204845942 ) ) ;
#328 = ORIENTED_EDGE ( 'NONE', *, *, #214, .F. ) ;
#329 = FACE_OUTER_BOUND ( 'NONE', #646, .T. ) ;
#330 = EDGE_LOOP ( 'NONE', ( #608, #296, #558, #75 ) ) ;
#331 = AXIS2_PLACEMENT_3D ( 'NONE', #146, #362, #34 ) ;
#332 = VERTEX_POINT ( 'NONE', #412 ) ;
#333 = DIRECTION ( 'NONE',  ( 0.000000000000000000, 1.000000000000000000, -0.000000000000000000 ) ) ;
#334 = ORIENTED_EDGE ( 'NONE', *, *, #274, .F. ) ;
#335 = VECTOR ( 'NONE', #29, 1000.000000000000000 ) ;
#336 = AXIS2_PLACEMENT_3D ( 'NONE', #267, #375, #365 ) ;
#337 = ORIENTED_EDGE ( 'NONE', *, *, #352, .T. ) ;
#338 = PLANE ( 'NONE',  #88 ) ;
#339 = ORIENTED_EDGE ( 'NONE', *, *, #95, .F. ) ;
#340 = ORIENTED_EDGE ( 'NONE', *, *, #373, .T. ) ;
#341 = CARTESIAN_POINT ( 'NONE',  ( 222.2467469671534559, 54.00000000000000000, 121.7674064169385844 ) ) ;
#342 = ORIENTED_EDGE ( 'NONE', *, *, #541, .T. ) ;
#343 = EDGE_CURVE ( 'NONE', #389, #555, #539, .T. ) ;
#344 = CARTESIAN_POINT ( 'NONE',  ( -246.0783974127320732, 54.00000000000000000, -136.4434587724587686 ) ) ;
#345 = ORIENTED_EDGE ( 'NONE', *, *, #240, .F. ) ;
#346 = FILL_AREA_STYLE ('',( #598 ) ) ;
#347 = DIRECTION ( 'NONE',  ( -0.000000000000000000, -1.000000000000000000, -0.000000000000000000 ) ) ;
#348 = DIRECTION ( 'NONE',  ( -0.000000000000000000, -1.000000000000000000, -0.000000000000000000 ) ) ;
#349 = DIRECTION ( 'NONE',  ( 0.8345104144562510706, 0.000000000000000000, -0.5509921670623422196 ) ) ;
#350 = VERTEX_POINT ( 'NONE', #359 ) ;
#351 = CARTESIAN_POINT ( 'NONE',  ( -231.2997264095390619, 54.00000000000000000, -146.2001848204845942 ) ) ;
#352 = EDGE_CURVE ( 'NONE', #137, #544, #255, .T. ) ;
#353 = VERTEX_POINT ( 'NONE', #344 ) ;
#354 = ORIENTED_EDGE ( 'NONE', *, *, #466, .T. ) ;
#355 = CARTESIAN_POINT ( 'NONE',  ( 22.83442961856775710, 0.000000000000000000, -51.23867616140668702 ) ) ;
#356 = EDGE_CURVE ( 'NONE', #389, #507, #548, .T. ) ;
#357 = FACE_OUTER_BOUND ( 'NONE', #557, .T. ) ;
#358 = AXIS2_PLACEMENT_3D ( 'NONE', #381, #580, #592 ) ;
#359 = CARTESIAN_POINT ( 'NONE',  ( -224.0912302421409663, 0.000000000000000000, -162.3754870680919282 ) ) ;
#360 =( LENGTH_UNIT ( ) NAMED_UNIT ( * ) SI_UNIT ( .MILLI., .METRE. ) );
#361 = LINE ( 'NONE', #554, #2 ) ;
#362 = DIRECTION ( 'NONE',  ( 0.000000000000000000, 1.000000000000000000, -0.000000000000000000 ) ) ;
#363 = ORIENTED_EDGE ( 'NONE', *, *, #317, .T. ) ;
#364 = EDGE_CURVE ( 'NONE', #332, #581, #682, .T. ) ;
#365 = DIRECTION ( 'NONE',  ( 0.000000000000000000, 0.000000000000000000, -1.000000000000000000 ) ) ;
#366 = CIRCLE ( 'NONE', #42, 17.70883451266186270 ) ;
#367 = VERTEX_POINT ( 'NONE', #271 ) ;
#368 = FACE_OUTER_BOUND ( 'NONE', #630, .T. ) ;
#369 = DIRECTION ( 'NONE',  ( -0.9131849818173372046, 0.000000000000000000, -0.4075453213855724788 ) ) ;
#370 = CARTESIAN_POINT ( 'NONE',  ( 272.7999206702201604, 0.000000000000000000, 59.06321634133549736 ) ) ;
#371 =( NAMED_UNIT ( * ) PLANE_ANGLE_UNIT ( ) SI_UNIT ( $, .RADIAN. ) );
#372 = ORIENTED_EDGE ( 'NONE', *, *, #589, .F. ) ;
#373 = EDGE_CURVE ( 'NONE', #194, #488, #225, .T. ) ;
#374 = CARTESIAN_POINT ( 'NONE',  ( -187.6020858905677926, 54.00000000000000000, -68.74138644622651384 ) ) ;
#375 = DIRECTION ( 'NONE',  ( -0.000000000000000000, -1.000000000000000000, -0.000000000000000000 ) ) ;
#376 = PRESENTATION_LAYER_ASSIGNMENT (  '', '', ( #13 ) ) ;
#377 = DIRECTION ( 'NONE',  ( 0.4070564983959827354, 0.000000000000000000, -0.9134029817739820478 ) ) ;
#378 = LINE ( 'NONE', #230, #212 ) ;
#379 = VECTOR ( 'NONE', #159, 1000.000000000000000 ) ;
#380 = CYLINDRICAL_SURFACE ( 'NONE', #443, 11.50000000000003730 ) ;
#381 = CARTESIAN_POINT ( 'NONE',  ( 265.4729036990925124, 54.00000000000000000, 75.50447001326713803 ) ) ;
#382 = ORIENTED_EDGE ( 'NONE', *, *, #210, .T. ) ;
#383 = ORIENTED_EDGE ( 'NONE', *, *, #364, .T. ) ;
#384 = DIRECTION ( 'NONE',  ( 0.000000000000000000, 1.000000000000000000, -0.000000000000000000 ) ) ;
#385 = ADVANCED_FACE ( 'NONE', ( #565, #211 ), #321, .T. ) ;
#386 = ORIENTED_EDGE ( 'NONE', *, *, #496, .T. ) ;
#387 = VERTEX_POINT ( 'NONE', #574 ) ;
#388 = CARTESIAN_POINT ( 'NONE',  ( -231.2997264095390619, 54.00000000000000000, -162.9090193331464604 ) ) ;
#389 = VERTEX_POINT ( 'NONE', #528 ) ;
#390 = AXIS2_PLACEMENT_3D ( 'NONE', #402, #561, #607 ) ;
#391 = ORIENTED_EDGE ( 'NONE', *, *, #515, .F. ) ;
#392 = DIRECTION ( 'NONE',  ( 0.000000000000000000, 0.000000000000000000, 1.000000000000000000 ) ) ;
#393 = EDGE_CURVE ( 'NONE', #350, #488, #87, .T. ) ;
#394 = ORIENTED_EDGE ( 'NONE', *, *, #282, .T. ) ;
#395 =( LENGTH_UNIT ( ) NAMED_UNIT ( * ) SI_UNIT ( .MILLI., .METRE. ) );
#396 = DIRECTION ( 'NONE',  ( -0.8531971257307333634, 0.000000000000000000, 0.5215885971192384396 ) ) ;
#397 = ADVANCED_FACE ( 'NONE', ( #154 ), #523, .T. ) ;
#398 = VERTEX_POINT ( 'NONE', #518 ) ;
#399 = DIRECTION ( 'NONE',  ( 0.000000000000000000, 0.000000000000000000, 1.000000000000000000 ) ) ;
#400 = CIRCLE ( 'NONE', #188, 10.49999999999999467 ) ;
#401 = AXIS2_PLACEMENT_3D ( 'NONE', #98, #205, #40 ) ;
#402 = CARTESIAN_POINT ( 'NONE',  ( -231.2997264095390619, 0.000000000000000000, -146.2001848204845942 ) ) ;
#403 =( NAMED_UNIT ( * ) SI_UNIT ( $, .STERADIAN. ) SOLID_ANGLE_UNIT ( ) );
#404 = ORIENTED_EDGE ( 'NONE', *, *, #393, .T. ) ;
#405 = ADVANCED_FACE ( 'NONE', ( #262 ), #570, .F. ) ;
#406 = DIRECTION ( 'NONE',  ( 0.000000000000000000, 1.000000000000000000, -0.000000000000000000 ) ) ;
#407 = DIRECTION ( 'NONE',  ( 0.000000000000000000, 1.000000000000000000, -0.000000000000000000 ) ) ;
#408 = VERTEX_POINT ( 'NONE', #161 ) ;
#409 = DIRECTION ( 'NONE',  ( 0.8538365234809390802, 0.000000000000000000, -0.5205412482887246117 ) ) ;
#410 = DIRECTION ( 'NONE',  ( 0.000000000000000000, 0.000000000000000000, -1.000000000000000000 ) ) ;
#411 = DIRECTION ( 'NONE',  ( -0.4075453213855728674, 0.000000000000000000, 0.9131849818173370936 ) ) ;
#412 = CARTESIAN_POINT ( 'NONE',  ( 274.3399098501195112, 0.000000000000000000, 90.00882115068959877 ) ) ;
#413 = DIRECTION ( 'NONE',  ( -0.000000000000000000, -1.000000000000000000, -0.000000000000000000 ) ) ;
#414 = DIRECTION ( 'NONE',  ( 0.4070564983959826244, 0.000000000000000000, -0.9134029817739821588 ) ) ;
#415 = VECTOR ( 'NONE', #85, 1000.000000000000000 ) ;
#416 = FACE_OUTER_BOUND ( 'NONE', #644, .T. ) ;
#417 = CARTESIAN_POINT ( 'NONE',  ( 213.1902336586031765, 54.00000000000000000, 122.7215024107314605 ) ) ;
#418 = LINE ( 'NONE', #621, #645 ) ;
#419 = DIRECTION ( 'NONE',  ( 0.000000000000000000, 0.000000000000000000, 1.000000000000000000 ) ) ;
#420 = VECTOR ( 'NONE', #234, 1000.000000000000000 ) ;
#421 = ORIENTED_EDGE ( 'NONE', *, *, #187, .T. ) ;
#422 = PRODUCT_DEFINITION_SHAPE ( 'NONE', 'NONE',  #59 ) ;
#423 = CARTESIAN_POINT ( 'NONE',  ( -191.8813117651162941, 0.000000000000000000, -59.15294413714455857 ) ) ;
#424 = CIRCLE ( 'NONE', #390, 17.70883451266186270 ) ;
#425 = DIRECTION ( 'NONE',  ( 0.000000000000000000, 0.000000000000000000, -1.000000000000000000 ) ) ;
#426 = VERTEX_POINT ( 'NONE', #478 ) ;
#427 = DIRECTION ( 'NONE',  ( -0.9134029817739821588, 0.000000000000000000, -0.4070564983959826244 ) ) ;
#428 = CARTESIAN_POINT ( 'NONE',  ( 0.000000000000000000, 54.00000000000000000, 0.000000000000000000 ) ) ;
#429 = EDGE_CURVE ( 'NONE', #66, #49, #470, .T. ) ;
#430 = DIRECTION ( 'NONE',  ( -0.9131849818173370936, 0.000000000000000000, -0.4075453213855728118 ) ) ;
#431 = CARTESIAN_POINT ( 'NONE',  ( -246.0783974127320732, 0.000000000000000000, -136.4434587724587686 ) ) ;
#432 = LINE ( 'NONE', #106, #464 ) ;
#433 = CIRCLE ( 'NONE', #358, 17.99999999999997513 ) ;
#434 = ORIENTED_EDGE ( 'NONE', *, *, #429, .F. ) ;
#435 = EDGE_CURVE ( 'NONE', #501, #507, #36, .T. ) ;
#436 = DIRECTION ( 'NONE',  ( 0.000000000000000000, 1.000000000000000000, -0.000000000000000000 ) ) ;
#437 = SURFACE_SIDE_STYLE ('',( #227 ) ) ;
#438 = ORIENTED_EDGE ( 'NONE', *, *, #41, .F. ) ;
#439 = ORIENTED_EDGE ( 'NONE', *, *, #274, .T. ) ;
#440 = ADVANCED_FACE ( 'NONE', ( #416 ), #668, .F. ) ;
#441 = CARTESIAN_POINT ( 'NONE',  ( 217.8770048545372617, 0.000000000000000000, 112.2198751198320821 ) ) ;
#442 = VERTEX_POINT ( 'NONE', #632 ) ;
#443 = AXIS2_PLACEMENT_3D ( 'NONE', #445, #634, #226 ) ;
#444 = ORIENTED_EDGE ( 'NONE', *, *, #187, .F. ) ;
#445 = CARTESIAN_POINT ( 'NONE',  ( -187.6020858905677926, 54.00000000000000000, -68.74138644622651384 ) ) ;
#446 = ADVANCED_FACE ( 'NONE', ( #368 ), #209, .T. ) ;
#447 = AXIS2_PLACEMENT_3D ( 'NONE', #198, #411, #613 ) ;
#448 = ORIENTED_EDGE ( 'NONE', *, *, #553, .F. ) ;
#449 = SURFACE_SIDE_STYLE ('',( #512 ) ) ;
#450 = VERTEX_POINT ( 'NONE', #318 ) ;
#451 = LINE ( 'NONE', #297, #166 ) ;
#452 = ORIENTED_EDGE ( 'NONE', *, *, #109, .F. ) ;
#453 = VECTOR ( 'NONE', #123, 1000.000000000000000 ) ;
#454 = ORIENTED_EDGE ( 'NONE', *, *, #302, .T. ) ;
#455 = CARTESIAN_POINT ( 'NONE',  ( -108.6462998972459388, 54.00000000000000000, 71.72716572417500913 ) ) ;
#456 = AXIS2_PLACEMENT_3D ( 'NONE', #462, #665, #142 ) ;
#457 = ORIENTED_EDGE ( 'NONE', *, *, #222, .F. ) ;
#458 = ORIENTED_EDGE ( 'NONE', *, *, #553, .T. ) ;
#459 = DIRECTION ( 'NONE',  ( 0.000000000000000000, 1.000000000000000000, -0.000000000000000000 ) ) ;
#460 = FACE_OUTER_BOUND ( 'NONE', #534, .T. ) ;
#461 = DIRECTION ( 'NONE',  ( 0.000000000000000000, 1.000000000000000000, -0.000000000000000000 ) ) ;
#462 = CARTESIAN_POINT ( 'NONE',  ( 217.8770048545372617, 0.000000000000000000, 112.2198751198320821 ) ) ;
#463 = ORIENTED_EDGE ( 'NONE', *, *, #496, .F. ) ;
#464 = VECTOR ( 'NONE', #285, 1000.000000000000000 ) ;
#465 = DIRECTION ( 'NONE',  ( 0.000000000000000000, 1.000000000000000000, -0.000000000000000000 ) ) ;
#466 = EDGE_CURVE ( 'NONE', #66, #597, #418, .T. ) ;
#467 = CYLINDRICAL_SURFACE ( 'NONE', #304, 17.99999999999997513 ) ;
#468 = AXIS2_PLACEMENT_3D ( 'NONE', #84, #556, #409 ) ;
#469 = DIRECTION ( 'NONE',  ( 0.000000000000000000, 0.000000000000000000, 1.000000000000000000 ) ) ;
#470 = LINE ( 'NONE', #47, #283 ) ;
#471 = EDGE_LOOP ( 'NONE', ( #232, #391, #551, #111 ) ) ;
#472 = CARTESIAN_POINT ( 'NONE',  ( -187.6020858905677926, 0.000000000000000000, -68.74138644622651384 ) ) ;
#473 = CARTESIAN_POINT ( 'NONE',  ( -231.2997264095390619, 54.00000000000000000, -146.2001848204845942 ) ) ;
#474 = SHAPE_DEFINITION_REPRESENTATION ( #422, #160 ) ;
#475 = ORIENTED_EDGE ( 'NONE', *, *, #252, .F. ) ;
#476 = EDGE_CURVE ( 'NONE', #181, #544, #494, .T. ) ;
#477 = VECTOR ( 'NONE', #430, 999.9999999999998863 ) ;
#478 = CARTESIAN_POINT ( 'NONE',  ( -224.0912302421409663, 54.00000000000000000, -162.3754870680919282 ) ) ;
#479 = CARTESIAN_POINT ( 'NONE',  ( 22.83442961856775710, 54.00000000000000000, -51.23867616140668702 ) ) ;
#480 = CARTESIAN_POINT ( 'NONE',  ( -108.6462998972459388, 0.000000000000000000, 71.72716572417500913 ) ) ;
#481 = DIRECTION ( 'NONE',  ( 0.5509524661857190253, 0.000000000000000000, 0.8345366259211599580 ) ) ;
#482 = ORIENTED_EDGE ( 'NONE', *, *, #629, .F. ) ;
#483 =( GEOMETRIC_REPRESENTATION_CONTEXT ( 3 ) GLOBAL_UNCERTAINTY_ASSIGNED_CONTEXT ( ( #199 ) ) GLOBAL_UNIT_ASSIGNED_CONTEXT ( ( #395, #189, #403 ) ) REPRESENTATION_CONTEXT ( 'NONE', 'WORKASPACE' ) );
#484 = DIRECTION ( 'NONE',  ( -0.000000000000000000, -1.000000000000000000, -0.000000000000000000 ) ) ;
#485 = VECTOR ( 'NONE', #259, 1000.000000000000000 ) ;
#486 = ORIENTED_EDGE ( 'NONE', *, *, #222, .T. ) ;
#487 = ADVANCED_FACE ( 'NONE', ( #90 ), #151, .T. ) ;
#488 = VERTEX_POINT ( 'NONE', #370 ) ;
#489 = DIRECTION ( 'NONE',  ( 0.000000000000000000, 1.000000000000000000, -0.000000000000000000 ) ) ;
#490 = ORIENTED_EDGE ( 'NONE', *, *, #16, .T. ) ;
#491 = ORIENTED_EDGE ( 'NONE', *, *, #492, .F. ) ;
#492 = EDGE_CURVE ( 'NONE', #66, #134, #31, .T. ) ;
#493 = LINE ( 'NONE', #583, #420 ) ;
#494 = CIRCLE ( 'NONE', #331, 16.70883451266186270 ) ;
#495 = ORIENTED_EDGE ( 'NONE', *, *, #272, .T. ) ;
#496 = EDGE_CURVE ( 'NONE', #353, #499, #378, .T. ) ;
#497 =( NAMED_UNIT ( * ) PLANE_ANGLE_UNIT ( ) SI_UNIT ( $, .RADIAN. ) );
#498 = AXIS2_PLACEMENT_3D ( 'NONE', #257, #132, #410 ) ;
#499 = VERTEX_POINT ( 'NONE', #431 ) ;
#500 = LINE ( 'NONE', #239, #67 ) ;
#501 = VERTEX_POINT ( 'NONE', #9 ) ;
#502 = CARTESIAN_POINT ( 'NONE',  ( 274.3399098501195112, 54.00000000000000000, 90.00882115068959877 ) ) ;
#503 = ORIENTED_EDGE ( 'NONE', *, *, #589, .T. ) ;
#504 = LINE ( 'NONE', #192, #247 ) ;
#505 = EDGE_CURVE ( 'NONE', #450, #499, #366, .T. ) ;
#506 = DIRECTION ( 'NONE',  ( -0.5509921670623422196, 0.000000000000000000, -0.8345104144562510706 ) ) ;
#507 = VERTEX_POINT ( 'NONE', #50 ) ;
#508 = UNCERTAINTY_MEASURE_WITH_UNIT (LENGTH_MEASURE( 1.000000000000000082E-05 ), #231, 'distance_accuracy_value', 'NONE');
#509 = CARTESIAN_POINT ( 'NONE',  ( 0.000000000000000000, 0.000000000000000000, 0.000000000000000000 ) ) ;
#510 = APPLICATION_CONTEXT ( 'automotive_design' ) ;
#511 = CARTESIAN_POINT ( 'NONE',  ( 272.3928641718241579, 54.00000000000000000, 59.97661932310950306 ) ) ;
#512 = SURFACE_STYLE_FILL_AREA ( #346 ) ;
#513 = LINE ( 'NONE', #250, #549 ) ;
#514 = EDGE_LOOP ( 'NONE', ( #340, #186, #286, #117 ) ) ;
#515 = EDGE_CURVE ( 'NONE', #23, #398, #493, .T. ) ;
#516 = LINE ( 'NONE', #455, #521 ) ;
#517 = DIRECTION ( 'NONE',  ( 0.000000000000000000, 0.000000000000000000, 1.000000000000000000 ) ) ;
#518 = CARTESIAN_POINT ( 'NONE',  ( -196.1969028595536884, 0.000000000000000000, -62.70987575075132270 ) ) ;
#519 = EDGE_CURVE ( 'NONE', #134, #181, #118, .T. ) ;
#520 = CARTESIAN_POINT ( 'NONE',  ( 223.8752737214084618, 54.00000000000000000, 122.0316420657355252 ) ) ;
#521 = VECTOR ( 'NONE', #30, 1000.000000000000000 ) ;
#522 = AXIS2_PLACEMENT_3D ( 'NONE', #243, #459, #606 ) ;
#523 = CYLINDRICAL_SURFACE ( 'NONE', #25, 17.70883451266186270 ) ;
#524 = EDGE_CURVE ( 'NONE', #60, #581, #235, .T. ) ;
#525 = DIRECTION ( 'NONE',  ( 0.000000000000000000, 0.000000000000000000, 1.000000000000000000 ) ) ;
#526 = PRODUCT ( '输送带', '输送带', '', ( #674 ) ) ;
#527 = FACE_OUTER_BOUND ( 'NONE', #99, .T. ) ;
#528 = CARTESIAN_POINT ( 'NONE',  ( 213.1902336586031765, 0.000000000000000000, 122.7215024107314605 ) ) ;
#529 = ORIENTED_EDGE ( 'NONE', *, *, #309, .F. ) ;
#530 =( GEOMETRIC_REPRESENTATION_CONTEXT ( 3 ) GLOBAL_UNCERTAINTY_ASSIGNED_CONTEXT ( ( #508 ) ) GLOBAL_UNIT_ASSIGNED_CONTEXT ( ( #231, #497, #65 ) ) REPRESENTATION_CONTEXT ( 'NONE', 'WORKASPACE' ) );
#531 = CARTESIAN_POINT ( 'NONE',  ( 114.3410797406453554, 0.000000000000000000, 187.5520726508469807 ) ) ;
#532 = LINE ( 'NONE', #591, #453 ) ;
#533 = ADVANCED_FACE ( 'NONE', ( #288 ), #338, .F. ) ;
#534 = EDGE_LOOP ( 'NONE', ( #295, #1, #169, #183 ) ) ;
#535 = CARTESIAN_POINT ( 'NONE',  ( -191.8813117651162941, 54.00000000000000000, -59.15294413714455857 ) ) ;
#536 = EDGE_LOOP ( 'NONE', ( #322, #372, #334, #386 ) ) ;
#537 = EDGE_LOOP ( 'NONE', ( #438, #540, #547, #490 ) ) ;
#538 = CARTESIAN_POINT ( 'NONE',  ( 223.8752737214084618, 0.000000000000000000, 122.0316420657355252 ) ) ;
#539 = CIRCLE ( 'NONE', #456, 11.49999999999999645 ) ;
#540 = ORIENTED_EDGE ( 'NONE', *, *, #180, .F. ) ;
#541 = EDGE_CURVE ( 'NONE', #408, #450, #61, .T. ) ;
#542 = ORIENTED_EDGE ( 'NONE', *, *, #352, .F. ) ;
#543 = DIRECTION ( 'NONE',  ( 0.8345366259211599580, 0.000000000000000000, -0.5509524661857190253 ) ) ;
#544 = VERTEX_POINT ( 'NONE', #587 ) ;
#545 = DIRECTION ( 'NONE',  ( 0.000000000000000000, 0.000000000000000000, 1.000000000000000000 ) ) ;
#546 = MECHANICAL_DESIGN_GEOMETRIC_PRESENTATION_REPRESENTATION (  '', ( #13 ), #483 ) ;
#547 = ORIENTED_EDGE ( 'NONE', *, *, #214, .T. ) ;
#548 = LINE ( 'NONE', #217, #93 ) ;
#549 = VECTOR ( 'NONE', #77, 1000.000000000000000 ) ;
#550 = ORIENTED_EDGE ( 'NONE', *, *, #661, .T. ) ;
#551 = ORIENTED_EDGE ( 'NONE', *, *, #155, .T. ) ;
#552 = DIRECTION ( 'NONE',  ( 0.000000000000000000, 0.000000000000000000, 1.000000000000000000 ) ) ;
#553 = EDGE_CURVE ( 'NONE', #367, #442, #278, .T. ) ;
#554 = CARTESIAN_POINT ( 'NONE',  ( -224.0912302421409663, 54.00000000000000000, -162.3754870680919282 ) ) ;
#555 = VERTEX_POINT ( 'NONE', #538 ) ;
#556 = DIRECTION ( 'NONE',  ( 0.5205412482887247227, -0.000000000000000000, 0.8538365234809391913 ) ) ;
#557 = EDGE_LOOP ( 'NONE', ( #638, #542, #238, #71 ) ) ;
#558 = ORIENTED_EDGE ( 'NONE', *, *, #109, .T. ) ;
#559 = DIRECTION ( 'NONE',  ( 0.000000000000000000, 0.000000000000000000, 1.000000000000000000 ) ) ;
#560 = AXIS2_PLACEMENT_3D ( 'NONE', #193, #407, #517 ) ;
#561 = DIRECTION ( 'NONE',  ( 0.000000000000000000, 1.000000000000000000, -0.000000000000000000 ) ) ;
#562 = DIRECTION ( 'NONE',  ( 0.000000000000000000, 1.000000000000000000, -0.000000000000000000 ) ) ;
#563 = DIRECTION ( 'NONE',  ( 0.5509921670623422196, 0.000000000000000000, 0.8345104144562510706 ) ) ;
#564 = CARTESIAN_POINT ( 'NONE',  ( 217.8770048545372617, 54.00000000000000000, 112.2198751198320821 ) ) ;
#565 = FACE_BOUND ( 'NONE', #79, .T. ) ;
#566 = ORIENTED_EDGE ( 'NONE', *, *, #175, .F. ) ;
#567 = AXIS2_PLACEMENT_3D ( 'NONE', #163, #618, #325 ) ;
#568 = DIRECTION ( 'NONE',  ( 0.000000000000000000, 1.000000000000000000, -0.000000000000000000 ) ) ;
#569 = AXIS2_PLACEMENT_3D ( 'NONE', #82, #349, #506 ) ;
#570 = CYLINDRICAL_SURFACE ( 'NONE', #336, 16.99999999999997868 ) ;
#571 = ORIENTED_EDGE ( 'NONE', *, *, #629, .T. ) ;
#572 = CARTESIAN_POINT ( 'NONE',  ( -231.2997264095390619, 0.000000000000000000, -162.9090193331464604 ) ) ;
#573 = CARTESIAN_POINT ( 'NONE',  ( -231.2997264095390619, 54.00000000000000000, -146.2001848204845942 ) ) ;
#574 = CARTESIAN_POINT ( 'NONE',  ( 272.3928641718241579, 0.000000000000000000, 59.97661932310950306 ) ) ;
#575 = PRESENTATION_LAYER_ASSIGNMENT (  '', '', ( #281 ) ) ;
#576 = DIRECTION ( 'NONE',  ( -0.5509524661857190253, 0.000000000000000000, -0.8345366259211599580 ) ) ;
#577 = ORIENTED_EDGE ( 'NONE', *, *, #672, .T. ) ;
#578 = ADVANCED_FACE ( 'NONE', ( #329 ), #380, .T. ) ;
#579 = DIRECTION ( 'NONE',  ( 0.000000000000000000, 0.000000000000000000, 1.000000000000000000 ) ) ;
#580 = DIRECTION ( 'NONE',  ( 0.000000000000000000, 1.000000000000000000, -0.000000000000000000 ) ) ;
#581 = VERTEX_POINT ( 'NONE', #165 ) ;
#582 = ORIENTED_EDGE ( 'NONE', *, *, #393, .F. ) ;
#583 = CARTESIAN_POINT ( 'NONE',  ( -196.1969028595536884, 54.00000000000000000, -62.70987575075132270 ) ) ;
#584 = ORIENTED_EDGE ( 'NONE', *, *, #373, .F. ) ;
#585 = AXIS2_PLACEMENT_3D ( 'NONE', #179, #436, #579 ) ;
#586 = VERTEX_POINT ( 'NONE', #57 ) ;
#587 = CARTESIAN_POINT ( 'NONE',  ( -245.2438607868109273, 0.000000000000000000, -136.9944112386445170 ) ) ;
#588 = ORIENTED_EDGE ( 'NONE', *, *, #429, .T. ) ;
#589 = EDGE_CURVE ( 'NONE', #586, #501, #432, .T. ) ;
#590 = ORIENTED_EDGE ( 'NONE', *, *, #519, .F. ) ;
#591 = CARTESIAN_POINT ( 'NONE',  ( -192.2888570865019346, 54.00000000000000000, -58.23975915532708569 ) ) ;
#592 = DIRECTION ( 'NONE',  ( 0.000000000000000000, 0.000000000000000000, 1.000000000000000000 ) ) ;
#593 = ORIENTED_EDGE ( 'NONE', *, *, #633, .T. ) ;
#594 =( NAMED_UNIT ( * ) SI_UNIT ( $, .STERADIAN. ) SOLID_ANGLE_UNIT ( ) );
#595 = DIRECTION ( 'NONE',  ( -0.000000000000000000, -1.000000000000000000, -0.000000000000000000 ) ) ;
#596 = VECTOR ( 'NONE', #647, 1000.000000000000000 ) ;
#597 = VERTEX_POINT ( 'NONE', #113 ) ;
#598 = FILL_AREA_STYLE_COLOUR ( '', #185 ) ;
#599 = CARTESIAN_POINT ( 'NONE',  ( -231.2997264095390619, 54.00000000000000000, -146.2001848204845942 ) ) ;
#600 = CIRCLE ( 'NONE', #314, 16.70883451266186270 ) ;
#601 = AXIS2_PLACEMENT_3D ( 'NONE', #472, #568, #525 ) ;
#602 = CARTESIAN_POINT ( 'NONE',  ( 265.4729036990925124, 54.00000000000000000, 75.50447001326713803 ) ) ;
#603 = LINE ( 'NONE', #133, #244 ) ;
#604 = ORIENTED_EDGE ( 'NONE', *, *, #41, .T. ) ;
#605 = UNCERTAINTY_MEASURE_WITH_UNIT (LENGTH_MEASURE( 1.000000000000000082E-05 ), #360, 'distance_accuracy_value', 'NONE');
#606 = DIRECTION ( 'NONE',  ( 0.000000000000000000, 0.000000000000000000, 1.000000000000000000 ) ) ;
#607 = DIRECTION ( 'NONE',  ( 0.000000000000000000, 0.000000000000000000, 1.000000000000000000 ) ) ;
#608 = ORIENTED_EDGE ( 'NONE', *, *, #541, .F. ) ;
#609 = DIRECTION ( 'NONE',  ( -0.000000000000000000, -1.000000000000000000, -0.000000000000000000 ) ) ;
#610 = EDGE_CURVE ( 'NONE', #398, #176, #114, .T. ) ;
#611 = PLANE ( 'NONE',  #656 ) ;
#612 = CIRCLE ( 'NONE', #623, 17.70883451266186270 ) ;
#613 = DIRECTION ( 'NONE',  ( 0.9131849818173369826, 0.000000000000000000, 0.4075453213855728118 ) ) ;
#614 = DIRECTION ( 'NONE',  ( 0.000000000000000000, 0.000000000000000000, -1.000000000000000000 ) ) ;
#615 = DIRECTION ( 'NONE',  ( 0.000000000000000000, 1.000000000000000000, -0.000000000000000000 ) ) ;
#616 = CIRCLE ( 'NONE', #291, 16.99999999999997513 ) ;
#617 = DIRECTION ( 'NONE',  ( -0.000000000000000000, -1.000000000000000000, -0.000000000000000000 ) ) ;
#618 = DIRECTION ( 'NONE',  ( 0.5215885971192384396, -0.000000000000000000, 0.8531971257307334744 ) ) ;
#619 = PLANE ( 'NONE',  #569 ) ;
#620 = LINE ( 'NONE', #150, #648 ) ;
#621 = CARTESIAN_POINT ( 'NONE',  ( 22.83442961856775710, 54.00000000000000000, -51.23867616140668702 ) ) ;
#622 = EDGE_CURVE ( 'NONE', #138, #176, #170, .T. ) ;
#623 = AXIS2_PLACEMENT_3D ( 'NONE', #327, #384, #392 ) ;
#624 = CARTESIAN_POINT ( 'NONE',  ( -231.2997264095390619, 54.00000000000000000, -146.2001848204845942 ) ) ;
#625 = ORIENTED_EDGE ( 'NONE', *, *, #610, .T. ) ;
#626 = VECTOR ( 'NONE', #652, 1000.000000000000000 ) ;
#627 = CARTESIAN_POINT ( 'NONE',  ( 23.24148611696373123, 54.00000000000000000, -52.15207914318067139 ) ) ;
#628 = DIRECTION ( 'NONE',  ( -0.8538365234809390802, 0.000000000000000000, 0.5205412482887247227 ) ) ;
#629 = EDGE_CURVE ( 'NONE', #408, #353, #612, .T. ) ;
#630 = EDGE_LOOP ( 'NONE', ( #684, #475, #458, #675 ) ) ;
#631 = CARTESIAN_POINT ( 'NONE',  ( -9.855566887629960249, 0.000000000000000000, 22.08332471706916067 ) ) ;
#632 = CARTESIAN_POINT ( 'NONE',  ( 223.8752737214084618, 54.00000000000000000, 122.0316420657355252 ) ) ;
#633 = EDGE_CURVE ( 'NONE', #126, #507, #532, .T. ) ;
#634 = DIRECTION ( 'NONE',  ( -0.000000000000000000, -1.000000000000000000, -0.000000000000000000 ) ) ;
#635 = EDGE_CURVE ( 'NONE', #237, #581, #48, .T. ) ;
#636 = CLOSED_SHELL ( 'NONE', ( #487, #319, #533, #578, #45, #86, #446, #7, #120, #650, #100, #440, #136, #405, #256, #167, #195, #397, #385, #294 ) ) ;
#637 = CARTESIAN_POINT ( 'NONE',  ( -231.2997264095390619, 0.000000000000000000, -146.2001848204845942 ) ) ;
#638 = ORIENTED_EDGE ( 'NONE', *, *, #53, .F. ) ;
#639 = EDGE_CURVE ( 'NONE', #499, #501, #273, .T. ) ;
#640 = CARTESIAN_POINT ( 'NONE',  ( -231.2997264095390619, 54.00000000000000000, -163.9090193331464604 ) ) ;
#641 = ORIENTED_EDGE ( 'NONE', *, *, #476, .F. ) ;
#642 = ORIENTED_EDGE ( 'NONE', *, *, #144, .F. ) ;
#643 = DIRECTION ( 'NONE',  ( -0.000000000000000000, -1.000000000000000000, -0.000000000000000000 ) ) ;
#644 = EDGE_LOOP ( 'NONE', ( #590, #454, #337, #641 ) ) ;
#645 = VECTOR ( 'NONE', #264, 1000.000000000000114 ) ;
#646 = EDGE_LOOP ( 'NONE', ( #233, #219, #11, #503 ) ) ;
#647 = DIRECTION ( 'NONE',  ( -0.000000000000000000, -1.000000000000000000, -0.000000000000000000 ) ) ;
#648 = VECTOR ( 'NONE', #204, 1000.000000000000000 ) ;
#649 = EDGE_LOOP ( 'NONE', ( #582, #452, #421, #69 ) ) ;
#650 = ADVANCED_FACE ( 'NONE', ( #687 ), #223, .F. ) ;
#651 = EDGE_LOOP ( 'NONE', ( #383, #6, #457, #248 ) ) ;
#652 = DIRECTION ( 'NONE',  ( -0.000000000000000000, -1.000000000000000000, -0.000000000000000000 ) ) ;
#653 = ORIENTED_EDGE ( 'NONE', *, *, #155, .F. ) ;
#654 = VERTEX_POINT ( 'NONE', #502 ) ;
#655 = FACE_OUTER_BOUND ( 'NONE', #171, .T. ) ;
#656 = AXIS2_PLACEMENT_3D ( 'NONE', #141, #414, #427 ) ;
#657 = VECTOR ( 'NONE', #253, 1000.000000000000114 ) ;
#658 = FACE_OUTER_BOUND ( 'NONE', #514, .T. ) ;
#659 = PRESENTATION_STYLE_ASSIGNMENT (( #70 ) ) ;
#660 = ORIENTED_EDGE ( 'NONE', *, *, #125, .T. ) ;
#661 = EDGE_CURVE ( 'NONE', #58, #126, #603, .T. ) ;
#662 = PLANE ( 'NONE',  #260 ) ;
#663 = CYLINDRICAL_SURFACE ( 'NONE', #498, 11.49999999999999645 ) ;
#664 = PLANE ( 'NONE',  #447 ) ;
#665 = DIRECTION ( 'NONE',  ( 0.000000000000000000, 1.000000000000000000, -0.000000000000000000 ) ) ;
#666 = VECTOR ( 'NONE', #64, 1000.000000000000000 ) ;
#667 = ORIENTED_EDGE ( 'NONE', *, *, #661, .F. ) ;
#668 = CYLINDRICAL_SURFACE ( 'NONE', #265, 16.70883451266186270 ) ;
#669 = CARTESIAN_POINT ( 'NONE',  ( -10.26311220901555643, 54.00000000000000000, 22.99650969888657315 ) ) ;
#670 = DIRECTION ( 'NONE',  ( 0.000000000000000000, 1.000000000000000000, -0.000000000000000000 ) ) ;
#671 = CARTESIAN_POINT ( 'NONE',  ( -231.2997264095390619, 54.00000000000000000, -146.2001848204845942 ) ) ;
#672 = EDGE_CURVE ( 'NONE', #58, #442, #301, .T. ) ;
#673 = DIRECTION ( 'NONE',  ( 0.000000000000000000, 1.000000000000000000, -0.000000000000000000 ) ) ;
#674 = PRODUCT_CONTEXT ( 'NONE', #510, 'mechanical' ) ;
#675 = ORIENTED_EDGE ( 'NONE', *, *, #73, .T. ) ;
#676 = DIRECTION ( 'NONE',  ( 0.000000000000000000, 0.000000000000000000, 1.000000000000000000 ) ) ;
#677 = FACE_OUTER_BOUND ( 'NONE', #17, .T. ) ;
#678 = VECTOR ( 'NONE', #413, 1000.000000000000000 ) ;
#679 = DIRECTION ( 'NONE',  ( -0.000000000000000000, -1.000000000000000000, -0.000000000000000000 ) ) ;
#680 = ORIENTED_EDGE ( 'NONE', *, *, #435, .F. ) ;
#681 = VECTOR ( 'NONE', #324, 999.9999999999998863 ) ;
#682 = LINE ( 'NONE', #531, #158 ) ;
#683 = DIRECTION ( 'NONE',  ( 0.000000000000000000, 0.000000000000000000, 1.000000000000000000 ) ) ;
#684 = ORIENTED_EDGE ( 'NONE', *, *, #272, .F. ) ;
#685 = DIRECTION ( 'NONE',  ( 0.000000000000000000, 1.000000000000000000, -0.000000000000000000 ) ) ;
#686 = EDGE_CURVE ( 'NONE', #275, #488, #307, .T. ) ;
#687 = FACE_OUTER_BOUND ( 'NONE', #471, .T. ) ;
#688 = AXIS2_PLACEMENT_3D ( 'NONE', #573, #489, #173 ) ;
ENDSEC;
END-ISO-10303-21;
