ISO-10303-21;
HEADER;
FILE_DESCRIPTION (( 'STEP AP214' ),
    '1' );
FILE_NAME ('镜向GB╱T 6186-2000[2型全金属六角锁紧螺母 9级M6].step',
    '2023-08-15T03:03:05',
    ( '' ),
    ( '' ),
    'SwSTEP 2.0',
    'SolidWorks 2022',
    '' );
FILE_SCHEMA (( 'AUTOMOTIVE_DESIGN' ));
ENDSEC;

DATA;
#1 = CARTESIAN_POINT ( 'NONE',  ( 1.962869199810222565, -4.391736939105543414, -6.395305118895451280 ) ) ;
#2 = ORIENTED_EDGE ( 'NONE', *, *, #559, .F. ) ;
#3 = EDGE_CURVE ( 'NONE', #346, #675, #305, .T. ) ;
#4 = LINE ( 'NONE', #408, #700 ) ;
#5 = CARTESIAN_POINT ( 'NONE',  ( 0.000000000000000000, 0.000000000000000000, -6.700000000000000178 ) ) ;
#6 = ORIENTED_EDGE ( 'NONE', *, *, #648, .T. ) ;
#7 = DIRECTION ( 'NONE',  ( 1.000000000000000000, 0.000000000000000000, 0.000000000000000000 ) ) ;
#8 = CARTESIAN_POINT ( 'NONE',  ( 4.410943242093440908, 2.978340731797192831, -5.890840731797190699 ) ) ;
#9 = PRESENTATION_LAYER_ASSIGNMENT (  '', '', ( #365 ) ) ;
#10 = ORIENTED_EDGE ( 'NONE', *, *, #85, .F. ) ;
#11 = EDGE_CURVE ( 'NONE', #717, #15, #125, .T. ) ;
#12 = SURFACE_STYLE_FILL_AREA ( #714 ) ;
#13 = PRESENTATION_LAYER_ASSIGNMENT (  '', '', ( #233 ) ) ;
#14 = CARTESIAN_POINT ( 'NONE',  ( 4.784790355909024129, -2.333967468300613302, -5.889266265849710358 ) ) ;
#15 = VERTEX_POINT ( 'NONE', #359 ) ;
#16 = CARTESIAN_POINT ( 'NONE',  ( 0.000000000000000000, 0.000000000000000000, -6.700000000000000178 ) ) ;
#17 = ORIENTED_EDGE ( 'NONE', *, *, #219, .F. ) ;
#18 = DIRECTION ( 'NONE',  ( -1.000000000000000000, 0.000000000000000000, 0.000000000000000000 ) ) ;
#19 = COLOUR_RGB ( '',1.000000000000000000, 1.000000000000000000, 1.000000000000000000 ) ;
#20 =( LENGTH_UNIT ( ) NAMED_UNIT ( * ) SI_UNIT ( .MILLI., .METRE. ) );
#21 = DIRECTION ( 'NONE',  ( 1.000000000000000000, 0.000000000000000000, 0.000000000000000000 ) ) ;
#22 = DIRECTION ( 'NONE',  ( -0.000000000000000000, -0.000000000000000000, -1.000000000000000000 ) ) ;
#23 = CARTESIAN_POINT ( 'NONE',  ( -9.659489567768453292E-16, -5.525000000000000355, -5.675000000000003375 ) ) ;
#24 = EDGE_CURVE ( 'NONE', #225, #426, #588, .T. ) ;
#25 = DIRECTION ( 'NONE',  ( -1.000000000000000000, 0.000000000000000000, 0.000000000000000000 ) ) ;
#26 =( NAMED_UNIT ( * ) PLANE_ANGLE_UNIT ( ) SI_UNIT ( $, .RADIAN. ) );
#27 = CARTESIAN_POINT ( 'NONE',  ( 0.000000000000000000, 0.000000000000000000, -6.700000000000000178 ) ) ;
#28 = CARTESIAN_POINT ( 'NONE',  ( -4.784790355909638748, -2.762499999999647127, -0.3031088913241419824 ) ) ;
#29 = ADVANCED_FACE ( 'NONE', ( #673 ), #80, .F. ) ;
#30 = FACE_OUTER_BOUND ( 'NONE', #566, .T. ) ;
#31 = CARTESIAN_POINT ( 'NONE',  ( -4.500000000000000000, 5.510910596163088569E-16, -6.700000000000000178 ) ) ;
#32 = APPLICATION_PROTOCOL_DEFINITION ( 'draft international standard', 'automotive_design', 1998, #393 ) ;
#33 =( GEOMETRIC_REPRESENTATION_CONTEXT ( 3 ) GLOBAL_UNCERTAINTY_ASSIGNED_CONTEXT ( ( #678 ) ) GLOBAL_UNIT_ASSIGNED_CONTEXT ( ( #497, #615, #437 ) ) REPRESENTATION_CONTEXT ( 'NONE', 'WORKASPACE' ) );
#34 = ADVANCED_FACE ( 'NONE', ( #86 ), #154, .T. ) ;
#35 = CARTESIAN_POINT ( 'NONE',  ( 4.032040272927328139, 3.197100463041996576, -0.07409064120277818188 ) ) ;
#36 = SURFACE_STYLE_FILL_AREA ( #150 ) ;
#37 = UNCERTAINTY_MEASURE_WITH_UNIT (LENGTH_MEASURE( 1.000000000000000082E-05 ), #147, 'distance_accuracy_value', 'NONE');
#38 = CONICAL_SURFACE ( 'NONE', #633, 5.000000000000000000, 1.047197551196600074 ) ;
#39 = CIRCLE ( 'NONE', #567, 5.000000000000000000 ) ;
#40 = PRODUCT_DEFINITION_SHAPE ( 'NONE', 'NONE',  #659 ) ;
#41 = ORIENTED_EDGE ( 'NONE', *, *, #589, .F. ) ;
#42 = CARTESIAN_POINT ( 'NONE',  ( 0.000000000000000000, 0.000000000000000000, 0.000000000000000000 ) ) ;
#43 = ORIENTED_EDGE ( 'NONE', *, *, #589, .T. ) ;
#44 = AXIS2_PLACEMENT_3D ( 'NONE', #548, #198, #663 ) ;
#45 = ORIENTED_EDGE ( 'NONE', *, *, #456, .T. ) ;
#46 = CARTESIAN_POINT ( 'NONE',  ( -4.784790355909025017, 2.762500000000002398, 0.000000000000000000 ) ) ;
#47 = EDGE_LOOP ( 'NONE', ( #457, #158, #760, #104 ) ) ;
#48 = ADVANCED_FACE ( 'NONE', ( #142 ), #323, .F. ) ;
#49 = ORIENTED_EDGE ( 'NONE', *, *, #738, .T. ) ;
#50 = DIRECTION ( 'NONE',  ( 1.000000000000000000, 0.000000000000000000, 0.000000000000000000 ) ) ;
#51 = ORIENTED_EDGE ( 'NONE', *, *, #706, .T. ) ;
#52 = VERTEX_POINT ( 'NONE', #552 ) ;
#53 = CARTESIAN_POINT ( 'NONE',  ( 0.000000000000000000, 0.000000000000000000, -6.700000000000000178 ) ) ;
#54 = DIRECTION ( 'NONE',  ( -1.000000000000000000, 0.000000000000000000, 0.000000000000000000 ) ) ;
#55 = ORIENTED_EDGE ( 'NONE', *, *, #385, .F. ) ;
#56 = AXIS2_PLACEMENT_3D ( 'NONE', #504, #319, #666 ) ;
#57 = CARTESIAN_POINT ( 'NONE',  ( 0.000000000000000000, 0.000000000000000000, 0.000000000000000000 ) ) ;
#58 = ADVANCED_FACE ( 'NONE', ( #30 ), #364, .T. ) ;
#59 = CARTESIAN_POINT ( 'NONE',  ( 4.028663370720726000, 3.199050118440005974, -6.074358628812455585 ) ) ;
#60 = EDGE_LOOP ( 'NONE', ( #400, #185, #514, #286 ) ) ;
#61 = FACE_OUTER_BOUND ( 'NONE', #60, .T. ) ;
#62 = DIRECTION ( 'NONE',  ( 0.000000000000000000, 0.000000000000000000, 1.000000000000000000 ) ) ;
#63 = ORIENTED_EDGE ( 'NONE', *, *, #207, .F. ) ;
#64 = DIRECTION ( 'NONE',  ( 1.000000000000000000, 0.000000000000000000, 0.000000000000000000 ) ) ;
#65 = CARTESIAN_POINT ( 'NONE',  ( 1.350057840473108950, -4.745543742381286734, -6.271016443903981497 ) ) ;
#66 = CARTESIAN_POINT ( 'NONE',  ( -2.588214285714286245, 0.000000000000000000, 0.000000000000000000 ) ) ;
#67 = CARTESIAN_POINT ( 'NONE',  ( 0.7527500829815143568, -5.090399536958109650, -0.07409064120281309840 ) ) ;
#68 = AXIS2_PLACEMENT_3D ( 'NONE', #383, #388, #498 ) ;
#69 = ORIENTED_EDGE ( 'NONE', *, *, #456, .F. ) ;
#70 = EDGE_CURVE ( 'NONE', #684, #236, #444, .T. ) ;
#71 = CYLINDRICAL_SURFACE ( 'NONE', #162, 2.458750000000000213 ) ;
#72 = VECTOR ( 'NONE', #194, 1000.000000000000000 ) ;
#73 = CARTESIAN_POINT ( 'NONE',  ( 4.784790355909024129, -0.9587335139312465060, -6.325732381603853760 ) ) ;
#74 = CARTESIAN_POINT ( 'NONE',  ( -1.962869199810221676, 4.391736939105544302, -6.395305118895448615 ) ) ;
#75 = CARTESIAN_POINT ( 'NONE',  ( -4.784790355909025017, -2.762500000000001954, -5.675000000000001599 ) ) ;
#76 = CARTESIAN_POINT ( 'NONE',  ( 4.784790355909023241, 2.548673964397036862, -5.781913017801485921 ) ) ;
#77 = CARTESIAN_POINT ( 'NONE',  ( -4.408741326392751070, 2.979612008419720848, -5.892112008419901237 ) ) ;
#78 = LINE ( 'NONE', #31, #590 ) ;
#79 = FACE_OUTER_BOUND ( 'NONE', #480, .T. ) ;
#80 = PLANE ( 'NONE',  #691 ) ;
#81 = CARTESIAN_POINT ( 'NONE',  ( -4.784790355909638748, -2.762499999999647127, -0.3031088913241419824 ) ) ;
#82 = SURFACE_SIDE_STYLE ('',( #270 ) ) ;
#83 = CARTESIAN_POINT ( 'NONE',  ( -0.7527500829815167993, 5.090399536958108762, -0.07409064120281279309 ) ) ;
#84 = B_SPLINE_CURVE_WITH_KNOTS ( 'NONE', 3,
 ( #642, #412, #299, #535 ),
 .UNSPECIFIED., .F., .F.,
 ( 4, 4 ),
 ( 0.01028983807714323878, 0.01164177538836289744 ),
 .UNSPECIFIED. ) ;
#85 = EDGE_CURVE ( 'NONE', #462, #390, #387, .T. ) ;
#86 = FACE_OUTER_BOUND ( 'NONE', #109, .T. ) ;
#87 = PRODUCT_DEFINITION_FORMATION_WITH_SPECIFIED_SOURCE ( '任何', '', #228, .NOT_KNOWN. ) ;
#88 = VECTOR ( 'NONE', #729, 1000.000000000000000 ) ;
#89 = CARTESIAN_POINT ( 'NONE',  ( 2.458750000000000213, -3.011100317403555149E-16, -0.1294642857142856984 ) ) ;
#90 = PRODUCT_DEFINITION_CONTEXT ( 'detailed design', #393, 'design' ) ;
#91 = ORIENTED_EDGE ( 'NONE', *, *, #739, .T. ) ;
#92 = LINE ( 'NONE', #103, #496 ) ;
#93 = ORIENTED_EDGE ( 'NONE', *, *, #559, .T. ) ;
#94 = AXIS2_PLACEMENT_3D ( 'NONE', #380, #665, #136 ) ;
#95 = ORIENTED_EDGE ( 'NONE', *, *, #97, .T. ) ;
#96 = DIRECTION ( 'NONE',  ( 1.000000000000000000, 0.000000000000000000, 0.000000000000000000 ) ) ;
#97 = EDGE_CURVE ( 'NONE', #390, #462, #302, .T. ) ;
#98 = VERTEX_POINT ( 'NONE', #561 ) ;
#99 = AXIS2_PLACEMENT_3D ( 'NONE', #409, #529, #420 ) ;
#100 = AXIS2_PLACEMENT_3D ( 'NONE', #253, #22, #670 ) ;
#101 = VERTEX_POINT ( 'NONE', #199 ) ;
#102 = CIRCLE ( 'NONE', #269, 5.000000000000000000 ) ;
#103 = CARTESIAN_POINT ( 'NONE',  ( 4.784790355909023241, 2.762500000000001954, -6.700000000000000178 ) ) ;
#104 = ORIENTED_EDGE ( 'NONE', *, *, #24, .F. ) ;
#105 = EDGE_CURVE ( 'NONE', #530, #98, #268, .T. ) ;
#106 = VERTEX_POINT ( 'NONE', #152 ) ;
#107 = DIRECTION ( 'NONE',  ( 1.000000000000000000, 0.000000000000000000, 0.000000000000000000 ) ) ;
#108 = CARTESIAN_POINT ( 'NONE',  ( 1.551489355623014710, -4.629247202886212165, -6.323327676715825518 ) ) ;
#109 = EDGE_LOOP ( 'NONE', ( #755, #682, #176 ) ) ;
#110 = CIRCLE ( 'NONE', #138, 2.588214285714286245 ) ;
#111 = EDGE_CURVE ( 'NONE', #576, #414, #263, .T. ) ;
#112 = DIRECTION ( 'NONE',  ( -0.000000000000000000, -0.000000000000000000, 1.000000000000000000 ) ) ;
#113 = CARTESIAN_POINT ( 'NONE',  ( 0.000000000000000000, 0.000000000000000000, 0.000000000000000000 ) ) ;
#114 = ORIENTED_EDGE ( 'NONE', *, *, #461, .T. ) ;
#115 = FACE_OUTER_BOUND ( 'NONE', #117, .T. ) ;
#116 = CARTESIAN_POINT ( 'NONE',  ( -4.784790355909025017, -2.762500000000001954, -5.675000000000001599 ) ) ;
#117 = EDGE_LOOP ( 'NONE', ( #10, #188 ) ) ;
#118 = CARTESIAN_POINT ( 'NONE',  ( -4.784790355909024129, 2.330727461490386787, -5.881666877067539545 ) ) ;
#119 = CARTESIAN_POINT ( 'NONE',  ( 4.784790355909023241, 2.762500000000001954, -5.675000000000003375 ) ) ;
#120 = ADVANCED_FACE ( 'NONE', ( #203 ), #727, .F. ) ;
#121 = CARTESIAN_POINT ( 'NONE',  ( -4.784790355909025017, 2.762500000000002398, -5.675000000000001599 ) ) ;
#122 = B_SPLINE_CURVE_WITH_KNOTS ( 'NONE', 3,
 ( #419, #485, #370, #492 ),
 .UNSPECIFIED., .F., .F.,
 ( 4, 4 ),
 ( 0.009457679788312774519, 0.01080702142484409913 ),
 .UNSPECIFIED. ) ;
#123 = CARTESIAN_POINT ( 'NONE',  ( -4.784790355909025017, 1.451131024408197856, 0.000000000000000000 ) ) ;
#124 = ORIENTED_EDGE ( 'NONE', *, *, #468, .F. ) ;
#125 = B_SPLINE_CURVE_WITH_KNOTS ( 'NONE', 3,
 ( #130, #710, #416, #367, #598, #74, #543, #650, #372, #604, #77, #121 ),
 .UNSPECIFIED., .F., .F.,
 ( 4, 2, 2, 2, 2, 4 ),
 ( 2.544322442637664005E-07, 0.001427029979755359106, 0.002140417753510906376, 0.002853805527266454079, 0.004280581074777549053, 0.005707356622288646195 ),
 .UNSPECIFIED. ) ;
#126 =( GEOMETRIC_REPRESENTATION_CONTEXT ( 3 ) GLOBAL_UNCERTAINTY_ASSIGNED_CONTEXT ( ( #624 ) ) GLOBAL_UNIT_ASSIGNED_CONTEXT ( ( #328, #510, #451 ) ) REPRESENTATION_CONTEXT ( 'NONE', 'WORKASPACE' ) );
#127 = PRESENTATION_STYLE_ASSIGNMENT (( #312 ) ) ;
#128 = CARTESIAN_POINT ( 'NONE',  ( -4.028663370720726888, -3.199050118440005530, -6.074358628812452920 ) ) ;
#129 = COLOUR_RGB ( '',1.000000000000000000, 1.000000000000000000, 1.000000000000000000 ) ;
#130 = CARTESIAN_POINT ( 'NONE',  ( 3.754448299194687015E-17, 5.525000000000000355, -5.675000000000003375 ) ) ;
#131 = DIRECTION ( 'NONE',  ( -0.000000000000000000, -0.000000000000000000, 1.000000000000000000 ) ) ;
#132 = AXIS2_PLACEMENT_3D ( 'NONE', #505, #267, #260 ) ;
#133 = AXIS2_PLACEMENT_3D ( 'NONE', #347, #704, #64 ) ;
#134 = DIRECTION ( 'NONE',  ( -0.000000000000000000, -0.000000000000000000, 1.000000000000000000 ) ) ;
#135 = ORIENTED_EDGE ( 'NONE', *, *, #490, .T. ) ;
#136 = DIRECTION ( 'NONE',  ( -0.8660254037844388186, -0.4999999999999996114, -0.000000000000000000 ) ) ;
#137 = EDGE_CURVE ( 'NONE', #571, #225, #401, .T. ) ;
#138 = AXIS2_PLACEMENT_3D ( 'NONE', #568, #220, #513 ) ;
#139 =( NAMED_UNIT ( * ) PLANE_ANGLE_UNIT ( ) SI_UNIT ( $, .RADIAN. ) );
#140 = CARTESIAN_POINT ( 'NONE',  ( -4.784790355909025017, -2.328724535956141928, -0.1778887008577781648 ) ) ;
#141 = MANIFOLD_SOLID_BREP ( '<GB╱T 6186-2000[2型全金属六角锁紧螺母 9级M6]>-<切除-拉伸7>', #757 ) ;
#142 = FACE_OUTER_BOUND ( 'NONE', #210, .T. ) ;
#143 = CARTESIAN_POINT ( 'NONE',  ( 0.000000000000000000, 0.000000000000000000, 0.000000000000000000 ) ) ;
#144 = APPLICATION_PROTOCOL_DEFINITION ( 'draft international standard', 'automotive_design', 1998, #341 ) ;
#145 = DIRECTION ( 'NONE',  ( 0.000000000000000000, 0.000000000000000000, -1.000000000000000000 ) ) ;
#146 = DIRECTION ( 'NONE',  ( 0.8660254037844387076, -0.4999999999999997224, 0.000000000000000000 ) ) ;
#147 =( LENGTH_UNIT ( ) NAMED_UNIT ( * ) SI_UNIT ( .MILLI., .METRE. ) );
#148 = EDGE_CURVE ( 'NONE', #530, #512, #338, .T. ) ;
#149 = CARTESIAN_POINT ( 'NONE',  ( -9.284044738807265208E-16, -5.525000000000000355, -0.000000000000000000 ) ) ;
#150 = FILL_AREA_STYLE ('',( #344 ) ) ;
#151 = VERTEX_POINT ( 'NONE', #758 ) ;
#152 = CARTESIAN_POINT ( 'NONE',  ( -2.458750000000000213, 0.000000000000000000, -6.700000000000000178 ) ) ;
#153 = CARTESIAN_POINT ( 'NONE',  ( 4.784790355909023241, 1.892013640721361467, -0.07387525121763335867 ) ) ;
#154 = CONICAL_SURFACE ( 'NONE', #56, 5.000000000000000000, 1.047197551196600074 ) ;
#155 = EDGE_CURVE ( 'NONE', #161, #106, #668, .T. ) ;
#156 = ORIENTED_EDGE ( 'NONE', *, *, #155, .T. ) ;
#157 = SURFACE_SIDE_STYLE ('',( #36 ) ) ;
#158 = ORIENTED_EDGE ( 'NONE', *, *, #292, .T. ) ;
#159 = EDGE_CURVE ( 'NONE', #333, #570, #472, .T. ) ;
#160 = DIRECTION ( 'NONE',  ( -1.000000000000000000, 0.000000000000000000, 0.000000000000000000 ) ) ;
#161 = VERTEX_POINT ( 'NONE', #360 ) ;
#162 = AXIS2_PLACEMENT_3D ( 'NONE', #602, #131, #25 ) ;
#163 = DIRECTION ( 'NONE',  ( 0.000000000000000000, 0.000000000000000000, -1.000000000000000000 ) ) ;
#164 = ORIENTED_EDGE ( 'NONE', *, *, #569, .F. ) ;
#165 = VECTOR ( 'NONE', #348, 1000.000000000000000 ) ;
#166 = ORIENTED_EDGE ( 'NONE', *, *, #184, .T. ) ;
#167 = CONICAL_SURFACE ( 'NONE', #516, 5.000000000000000000, 1.047197551196600074 ) ;
#168 = DIRECTION ( 'NONE',  ( -0.000000000000000000, -0.000000000000000000, 1.000000000000000000 ) ) ;
#169 = CARTESIAN_POINT ( 'NONE',  ( 1.572935393427699724, 4.616865327186628676, -6.343192011274848774 ) ) ;
#170 = ORIENTED_EDGE ( 'NONE', *, *, #595, .F. ) ;
#171 = ADVANCED_FACE ( 'NONE', ( #701 ), #540, .T. ) ;
#172 = AXIS2_PLACEMENT_3D ( 'NONE', #459, #634, #524 ) ;
#173 = ORIENTED_EDGE ( 'NONE', *, *, #631, .T. ) ;
#174 = PLANE ( 'NONE',  #133 ) ;
#175 = CARTESIAN_POINT ( 'NONE',  ( 3.434732515435914291, 3.541956257618716908, -6.271016443903984161 ) ) ;
#176 = ORIENTED_EDGE ( 'NONE', *, *, #482, .F. ) ;
#177 = LINE ( 'NONE', #242, #406 ) ;
#178 = CARTESIAN_POINT ( 'NONE',  ( 2.174737009423299394, -4.269415002192818775, -6.414686214047367940 ) ) ;
#179 = ORIENTED_EDGE ( 'NONE', *, *, #307, .F. ) ;
#180 = CARTESIAN_POINT ( 'NONE',  ( 4.784790355909024129, -2.762500000000002398, -6.700000000000000178 ) ) ;
#181 = CARTESIAN_POINT ( 'NONE',  ( -4.784790355909025017, 2.762500000000002398, -6.700000000000000178 ) ) ;
#182 = EDGE_LOOP ( 'NONE', ( #696, #655, #43 ) ) ;
#183 = CARTESIAN_POINT ( 'NONE',  ( -4.784790355909025017, 1.894008426187638650, -0.07420950181403733470 ) ) ;
#184 = EDGE_CURVE ( 'NONE', #15, #407, #646, .T. ) ;
#185 = ORIENTED_EDGE ( 'NONE', *, *, #137, .T. ) ;
#186 = CARTESIAN_POINT ( 'NONE',  ( 1.135678846597275804, 4.869315512204100749, 0.000000000000000000 ) ) ;
#187 = CARTESIAN_POINT ( 'NONE',  ( 4.784790355909024129, -1.192092695940301983, -6.273890530204613292 ) ) ;
#188 = ORIENTED_EDGE ( 'NONE', *, *, #97, .F. ) ;
#189 = CARTESIAN_POINT ( 'NONE',  ( 4.784790355909023241, 0.9585668929899135993, -6.340383457447053672 ) ) ;
#190 = ORIENTED_EDGE ( 'NONE', *, *, #70, .T. ) ;
#191 = FACE_OUTER_BOUND ( 'NONE', #343, .T. ) ;
#192 = SHAPE_DEFINITION_REPRESENTATION ( #40, #336 ) ;
#193 = ADVANCED_FACE ( 'NONE', ( #591, #115 ), #174, .T. ) ;
#194 = DIRECTION ( 'NONE',  ( -1.569885498621543742E-16, 1.000000000000000000, 0.000000000000000000 ) ) ;
#195 = CARTESIAN_POINT ( 'NONE',  ( -0.3760490295162756680, -5.307887991580280129, -5.892112008419903901 ) ) ;
#196 = DIRECTION ( 'NONE',  ( 0.8660254037844388186, 0.4999999999999996114, 0.000000000000000000 ) ) ;
#197 = DIRECTION ( 'NONE',  ( -1.000000000000000000, -1.569885498621543742E-16, 0.000000000000000000 ) ) ;
#198 = DIRECTION ( 'NONE',  ( -0.000000000000000000, -0.000000000000000000, -1.000000000000000000 ) ) ;
#199 = CARTESIAN_POINT ( 'NONE',  ( 4.784790355909023241, -1.283115457608867402E-19, -6.415209644090977825 ) ) ;
#200 = CARTESIAN_POINT ( 'NONE',  ( -4.409905280215534518, 2.978939999366812419, -0.1781471994267236902 ) ) ;
#201 = CIRCLE ( 'NONE', #471, 5.000000000000000000 ) ;
#202 = AXIS2_PLACEMENT_3D ( 'NONE', #181, #709, #62 ) ;
#203 = FACE_OUTER_BOUND ( 'NONE', #639, .T. ) ;
#204 = DIRECTION ( 'NONE',  ( -0.000000000000000000, -0.000000000000000000, -1.000000000000000000 ) ) ;
#205 = CARTESIAN_POINT ( 'NONE',  ( -0.3748850756937281425, -5.308560000633053555, -0.1781471994266574377 ) ) ;
#206 = VECTOR ( 'NONE', #677, 1000.000000000000000 ) ;
#207 = EDGE_CURVE ( 'NONE', #151, #474, #84, .T. ) ;
#208 =( LENGTH_UNIT ( ) NAMED_UNIT ( * ) SI_UNIT ( .MILLI., .METRE. ) );
#209 = CARTESIAN_POINT ( 'NONE',  ( -4.784790355909025017, 5.858395115959351882E-16, -6.415209644090976049 ) ) ;
#210 = EDGE_LOOP ( 'NONE', ( #627, #345, #661, #285, #239, #740 ) ) ;
#211 = DIRECTION ( 'NONE',  ( -0.8660254037844388186, 0.4999999999999997780, 0.000000000000000000 ) ) ;
#212 = CARTESIAN_POINT ( 'NONE',  ( 4.784790355909023241, 1.451131024408204517, 0.000000000000000000 ) ) ;
#213 = ORIENTED_EDGE ( 'NONE', *, *, #601, .T. ) ;
#214 = EDGE_LOOP ( 'NONE', ( #55, #329, #410 ) ) ;
#215 = EDGE_CURVE ( 'NONE', #684, #675, #224, .T. ) ;
#216 = DIRECTION ( 'NONE',  ( -1.000000000000000000, 0.000000000000000000, 0.000000000000000000 ) ) ;
#217 = ORIENTED_EDGE ( 'NONE', *, *, #11, .F. ) ;
#218 = ORIENTED_EDGE ( 'NONE', *, *, #468, .T. ) ;
#219 = EDGE_CURVE ( 'NONE', #625, #474, #177, .T. ) ;
#220 = DIRECTION ( 'NONE',  ( -0.000000000000000000, -0.000000000000000000, 1.000000000000000000 ) ) ;
#221 = EDGE_LOOP ( 'NONE', ( #392, #232, #276, #217, #749, #402, #394 ) ) ;
#222 = CARTESIAN_POINT ( 'NONE',  ( -4.784790355909026793, 0.9585668960636912761, -6.340383456527521666 ) ) ;
#223 = EDGE_CURVE ( 'NONE', #161, #571, #303, .T. ) ;
#224 = B_SPLINE_CURVE_WITH_KNOTS ( 'NONE', 3,
 ( #403, #67, #578, #294 ),
 .UNSPECIFIED., .F., .F.,
 ( 4, 4 ),
 ( 0.01028983807714324919, 0.01164177538836290091 ),
 .UNSPECIFIED. ) ;
#225 = VERTEX_POINT ( 'NONE', #537 ) ;
#226 = CIRCLE ( 'NONE', #44, 5.000000000000000000 ) ;
#227 = VERTEX_POINT ( 'NONE', #237 ) ;
#228 = PRODUCT ( '镜向GB╱T 6186-2000[2型全金属六角锁紧螺母 9级M6]', '镜向GB╱T 6186-2000[2型全金属六角锁紧螺母 9级M6]', '', ( #257 ) ) ;
#229 = VECTOR ( 'NONE', #146, 1000.000000000000114 ) ;
#230 = LINE ( 'NONE', #464, #443 ) ;
#231 = DIRECTION ( 'NONE',  ( 0.7071067811865487940, 0.000000000000000000, 0.7071067811865463515 ) ) ;
#232 = ORIENTED_EDGE ( 'NONE', *, *, #363, .T. ) ;
#233 = STYLED_ITEM ( 'NONE', ( #127 ), #322 ) ;
#234 = CARTESIAN_POINT ( 'NONE',  ( 6.144038653560839032E-13, 5.525000000000354738, -0.3031088913241409277 ) ) ;
#235 = CARTESIAN_POINT ( 'NONE',  ( 4.784790355909024129, -2.762500000000002398, -5.675000000000002487 ) ) ;
#236 = VERTEX_POINT ( 'NONE', #584 ) ;
#237 = CARTESIAN_POINT ( 'NONE',  ( 4.784790355909024129, -1.451131024408203185, 0.000000000000000000 ) ) ;
#238 = CARTESIAN_POINT ( 'NONE',  ( 3.211854962481323295, -3.670634672813374966, -6.343192011274850550 ) ) ;
#239 = ORIENTED_EDGE ( 'NONE', *, *, #428, .T. ) ;
#240 = ADVANCED_FACE ( 'NONE', ( #61 ), #506, .F. ) ;
#241 = VECTOR ( 'NONE', #581, 1000.000000000000000 ) ;
#242 = CARTESIAN_POINT ( 'NONE',  ( -4.784790355909025017, -2.762500000000001954, -6.700000000000000178 ) ) ;
#243 = CARTESIAN_POINT ( 'NONE',  ( -9.659489567768453292E-16, -5.525000000000000355, -5.675000000000003375 ) ) ;
#244 = CARTESIAN_POINT ( 'NONE',  ( 0.3748850756937273099, 5.308560000633053555, -0.1781471994266576042 ) ) ;
#245 = EDGE_CURVE ( 'NONE', #106, #225, #230, .T. ) ;
#246 = CARTESIAN_POINT ( 'NONE',  ( 4.784790355909023241, -0.2425428170339443690, -6.415209644090984042 ) ) ;
#247 = DIRECTION ( 'NONE',  ( -0.000000000000000000, -0.000000000000000000, 1.000000000000000000 ) ) ;
#248 =( NAMED_UNIT ( * ) SI_UNIT ( $, .STERADIAN. ) SOLID_ANGLE_UNIT ( ) );
#249 = CARTESIAN_POINT ( 'NONE',  ( 4.784790355909023241, 1.883704625898420693, -6.061836921155081548 ) ) ;
#250 = ORIENTED_EDGE ( 'NONE', *, *, #342, .T. ) ;
#251 = CARTESIAN_POINT ( 'NONE',  ( 4.784790355909023241, 2.762500000000001954, -0.3031088913245521543 ) ) ;
#252 = CARTESIAN_POINT ( 'NONE',  ( 4.784790355909024129, -1.883119406163734633, -6.076977405999000048 ) ) ;
#253 = CARTESIAN_POINT ( 'NONE',  ( 0.000000000000000000, 0.000000000000000000, 0.000000000000000000 ) ) ;
#254 = CARTESIAN_POINT ( 'NONE',  ( 4.784790355909024129, -2.762500000000002398, -0.3031088913245527650 ) ) ;
#255 = AXIS2_PLACEMENT_3D ( 'NONE', #449, #391, #96 ) ;
#256 = CARTESIAN_POINT ( 'NONE',  ( -4.784790355909025017, 5.858395115959351882E-16, -6.415209644090976049 ) ) ;
#257 = PRODUCT_CONTEXT ( 'NONE', #341, 'mechanical' ) ;
#258 = PRESENTATION_LAYER_ASSIGNMENT (  '', '', ( #752 ) ) ;
#259 = DIRECTION ( 'NONE',  ( -0.000000000000000000, -0.000000000000000000, 1.000000000000000000 ) ) ;
#260 = DIRECTION ( 'NONE',  ( -1.000000000000000000, 0.000000000000000000, 0.000000000000000000 ) ) ;
#261 = B_SPLINE_CURVE_WITH_KNOTS ( 'NONE', 3,
 ( #553, #200, #722, #501 ),
 .UNSPECIFIED., .F., .F.,
 ( 4, 4 ),
 ( 0.006022350690198339553, 0.007374101037611652601 ),
 .UNSPECIFIED. ) ;
#262 = FILL_AREA_STYLE_COLOUR ( '', #657 ) ;
#263 = B_SPLINE_CURVE_WITH_KNOTS ( 'NONE', 3,
 ( #676, #35, #494, #733 ),
 .UNSPECIFIED., .F., .F.,
 ( 4, 4 ),
 ( 0.01028983807714324052, 0.01164177538836227294 ),
 .UNSPECIFIED. ) ;
#264 = PRODUCT_RELATED_PRODUCT_CATEGORY ( 'part', '', ( #228 ) ) ;
#265 = STYLED_ITEM ( 'NONE', ( #381 ), #336 ) ;
#266 = DIRECTION ( 'NONE',  ( -0.000000000000000000, -0.000000000000000000, 1.000000000000000000 ) ) ;
#267 = DIRECTION ( 'NONE',  ( 0.000000000000000000, 0.000000000000000000, -1.000000000000000000 ) ) ;
#268 = CIRCLE ( 'NONE', #100, 5.000000000000000000 ) ;
#269 = AXIS2_PLACEMENT_3D ( 'NONE', #495, #204, #18 ) ;
#270 = SURFACE_STYLE_FILL_AREA ( #613 ) ;
#271 = FACE_OUTER_BOUND ( 'NONE', #214, .T. ) ;
#272 = EDGE_CURVE ( 'NONE', #717, #630, #4, .T. ) ;
#273 = AXIS2_PLACEMENT_3D ( 'NONE', #708, #651, #7 ) ;
#274 = ORIENTED_EDGE ( 'NONE', *, *, #515, .F. ) ;
#275 = ADVANCED_FACE ( 'NONE', ( #351 ), #38, .T. ) ;
#276 = ORIENTED_EDGE ( 'NONE', *, *, #184, .F. ) ;
#277 = CARTESIAN_POINT ( 'NONE',  ( 4.784790355909024129, -2.762500000000002398, -0.3031088913245527650 ) ) ;
#278 = ORIENTED_EDGE ( 'NONE', *, *, #137, .F. ) ;
#279 = ORIENTED_EDGE ( 'NONE', *, *, #272, .T. ) ;
#280 = CARTESIAN_POINT ( 'NONE',  ( -1.135678846597278024, -4.869315512204100749, -0.000000000000000000 ) ) ;
#281 = ORIENTED_EDGE ( 'NONE', *, *, #750, .T. ) ;
#282 = EDGE_CURVE ( 'NONE', #630, #577, #672, .T. ) ;
#283 = EDGE_LOOP ( 'NONE', ( #745, #522, #533, #509 ) ) ;
#284 = LINE ( 'NONE', #46, #447 ) ;
#285 = ORIENTED_EDGE ( 'NONE', *, *, #490, .F. ) ;
#286 = ORIENTED_EDGE ( 'NONE', *, *, #515, .T. ) ;
#287 = DIRECTION ( 'NONE',  ( -0.000000000000000000, -0.000000000000000000, 1.000000000000000000 ) ) ;
#288 = CARTESIAN_POINT ( 'NONE',  ( 3.754448299194687015E-17, 5.525000000000000355, -5.675000000000003375 ) ) ;
#289 = ORIENTED_EDGE ( 'NONE', *, *, #215, .T. ) ;
#290 = DIRECTION ( 'NONE',  ( 0.000000000000000000, 0.000000000000000000, -1.000000000000000000 ) ) ;
#291 = CARTESIAN_POINT ( 'NONE',  ( 1.135678846597270919, -4.869315512204102525, 0.000000000000000000 ) ) ;
#292 = EDGE_CURVE ( 'NONE', #571, #52, #761, .T. ) ;
#293 = ORIENTED_EDGE ( 'NONE', *, *, #245, .T. ) ;
#294 = CARTESIAN_POINT ( 'NONE',  ( -6.153322697145562700E-13, -5.525000000000354738, -0.3031088913241409277 ) ) ;
#295 = DIRECTION ( 'NONE',  ( 1.000000000000000000, 0.000000000000000000, 0.000000000000000000 ) ) ;
#296 = ORIENTED_EDGE ( 'NONE', *, *, #282, .T. ) ;
#297 = EDGE_CURVE ( 'NONE', #227, #570, #122, .T. ) ;
#298 = B_SPLINE_CURVE_WITH_KNOTS ( 'NONE', 3,
 ( #28, #140, #547, #442 ),
 .UNSPECIFIED., .F., .F.,
 ( 4, 4 ),
 ( 0.005193472794864787030, 0.006542303227970890610 ),
 .UNSPECIFIED. ) ;
#299 = CARTESIAN_POINT ( 'NONE',  ( -4.410099657343209856, -2.978827775679823819, -0.1782119918025951710 ) ) ;
#300 = CARTESIAN_POINT ( 'NONE',  ( -6.153322697145562700E-13, -5.525000000000354738, -0.3031088913241409277 ) ) ;
#301 = DIRECTION ( 'NONE',  ( -0.7071067811865474617, 0.000000000000000000, 0.7071067811865474617 ) ) ;
#302 = CIRCLE ( 'NONE', #594, 4.500000000000000000 ) ;
#303 = LINE ( 'NONE', #693, #332 ) ;
#304 = CARTESIAN_POINT ( 'NONE',  ( 4.784790355909024129, -2.762500000000002398, -5.675000000000002487 ) ) ;
#305 = LINE ( 'NONE', #539, #723 ) ;
#306 = VECTOR ( 'NONE', #429, 1000.000000000000114 ) ;
#307 = EDGE_CURVE ( 'NONE', #227, #463, #424, .T. ) ;
#308 = FILL_AREA_STYLE_COLOUR ( '', #467 ) ;
#309 = CARTESIAN_POINT ( 'NONE',  ( -2.821921156098803340, -3.895763060894457563, -6.395305118895449503 ) ) ;
#310 = ORIENTED_EDGE ( 'NONE', *, *, #219, .T. ) ;
#311 = CARTESIAN_POINT ( 'NONE',  ( 4.500000000000000000, 0.000000000000000000, -6.700000000000000178 ) ) ;
#312 = SURFACE_STYLE_USAGE ( .BOTH. , #653 ) ;
#313 = CARTESIAN_POINT ( 'NONE',  ( 4.784790355909023241, 2.762500000000001954, -5.675000000000003375 ) ) ;
#314 = CARTESIAN_POINT ( 'NONE',  ( 4.784790355909024129, -2.762500000000002398, -5.675000000000002487 ) ) ;
#315 = CARTESIAN_POINT ( 'NONE',  ( -0.7529741707400220418, -5.090270159830414975, -0.07404728377633858216 ) ) ;
#316 = CIRCLE ( 'NONE', #377, 2.458750000000000213 ) ;
#317 = CARTESIAN_POINT ( 'NONE',  ( -0.3746906985658129963, 5.308672224320179822, -0.1782119918025948935 ) ) ;
#318 = SURFACE_SIDE_STYLE ('',( #433 ) ) ;
#319 = DIRECTION ( 'NONE',  ( 0.000000000000000000, 0.000000000000000000, -1.000000000000000000 ) ) ;
#320 = CARTESIAN_POINT ( 'NONE',  ( -4.784790355909025017, -2.762500000000001954, -0.000000000000000000 ) ) ;
#321 = SURFACE_STYLE_USAGE ( .BOTH. , #318 ) ;
#322 = ADVANCED_FACE ( 'NONE', ( #481 ), #71, .F. ) ;
#323 = PLANE ( 'NONE',  #399 ) ;
#324 = DIRECTION ( 'NONE',  ( -0.000000000000000000, -0.000000000000000000, -1.000000000000000000 ) ) ;
#325 = CARTESIAN_POINT ( 'NONE',  ( 0.000000000000000000, 0.000000000000000000, 0.000000000000000000 ) ) ;
#326 = PRESENTATION_LAYER_ASSIGNMENT (  '', '', ( #265 ) ) ;
#327 = CARTESIAN_POINT ( 'NONE',  ( 0.000000000000000000, 0.000000000000000000, 0.000000000000000000 ) ) ;
#328 =( LENGTH_UNIT ( ) NAMED_UNIT ( * ) SI_UNIT ( .MILLI., .METRE. ) );
#329 = ORIENTED_EDGE ( 'NONE', *, *, #148, .F. ) ;
#330 = ADVANCED_FACE ( 'NONE', ( #191 ), #614, .F. ) ;
#331 = DIRECTION ( 'NONE',  ( -1.000000000000000000, 0.000000000000000000, 0.000000000000000000 ) ) ;
#332 = VECTOR ( 'NONE', #477, 1000.000000000000000 ) ;
#333 = VERTEX_POINT ( 'NONE', #314 ) ;
#334 = DIRECTION ( 'NONE',  ( -0.000000000000000000, -0.000000000000000000, -1.000000000000000000 ) ) ;
#335 = ORIENTED_EDGE ( 'NONE', *, *, #695, .F. ) ;
#336 = ADVANCED_BREP_SHAPE_REPRESENTATION ( '镜向GB╱T 6186-2000[2型全金属六角锁紧螺母 9级M6]', ( #141, #549 ), #525 ) ;
#337 = ORIENTED_EDGE ( 'NONE', *, *, #511, .T. ) ;
#338 = B_SPLINE_CURVE_WITH_KNOTS ( 'NONE', 3,
 ( #123, #183, #415, #417 ),
 .UNSPECIFIED., .F., .F.,
 ( 4, 4 ),
 ( 0.009457679788312767580, 0.01080702142484409739 ),
 .UNSPECIFIED. ) ;
#339 = CARTESIAN_POINT ( 'NONE',  ( -4.784790355909025017, 1.451131024408197856, 0.000000000000000000 ) ) ;
#340 = EDGE_LOOP ( 'NONE', ( #583, #644, #281, #69, #386, #17 ) ) ;
#341 = APPLICATION_CONTEXT ( 'automotive_design' ) ;
#342 = EDGE_CURVE ( 'NONE', #474, #623, #298, .T. ) ;
#343 = EDGE_LOOP ( 'NONE', ( #6, #632, #218, #628, #289, #466 ) ) ;
#344 = FILL_AREA_STYLE_COLOUR ( '', #19 ) ;
#345 = ORIENTED_EDGE ( 'NONE', *, *, #695, .T. ) ;
#346 = VERTEX_POINT ( 'NONE', #23 ) ;
#347 = CARTESIAN_POINT ( 'NONE',  ( -4.784790355909025017, 8.287499999999999645, -6.700000000000000178 ) ) ;
#348 = DIRECTION ( 'NONE',  ( -0.000000000000000000, -0.000000000000000000, 1.000000000000000000 ) ) ;
#349 = ORIENTED_EDGE ( 'NONE', *, *, #732, .T. ) ;
#350 = EDGE_CURVE ( 'NONE', #151, #623, #201, .T. ) ;
#351 = FACE_OUTER_BOUND ( 'NONE', #182, .T. ) ;
#352 = CARTESIAN_POINT ( 'NONE',  ( 0.7561269851882977955, -5.088449881559996335, -6.074358628812457361 ) ) ;
#353 = ORIENTED_EDGE ( 'NONE', *, *, #297, .T. ) ;
#354 = CARTESIAN_POINT ( 'NONE',  ( -4.784790355909025017, 2.548673964207035958, -5.781913017896486373 ) ) ;
#355 = AXIS2_PLACEMENT_3D ( 'NONE', #508, #572, #50 ) ;
#356 = DIRECTION ( 'NONE',  ( 0.000000000000000000, 0.000000000000000000, -1.000000000000000000 ) ) ;
#357 = ORIENTED_EDGE ( 'NONE', *, *, #601, .F. ) ;
#358 = CARTESIAN_POINT ( 'NONE',  ( -4.784790355909025905, 1.653455527914350798, -6.142447740346020701 ) ) ;
#359 = CARTESIAN_POINT ( 'NONE',  ( -4.784790355909025017, 2.762500000000002398, -5.675000000000001599 ) ) ;
#360 = CARTESIAN_POINT ( 'NONE',  ( 2.458750000000000213, -3.011100317403555149E-16, -6.700000000000000178 ) ) ;
#361 = CARTESIAN_POINT ( 'NONE',  ( 0.000000000000000000, 0.000000000000000000, -0.1294642857142856984 ) ) ;
#362 = ORIENTED_EDGE ( 'NONE', *, *, #363, .F. ) ;
#363 = EDGE_CURVE ( 'NONE', #390, #407, #78, .T. ) ;
#364 = CONICAL_SURFACE ( 'NONE', #423, 5.000000000000000000, 1.047197551196600074 ) ;
#365 = STYLED_ITEM ( 'NONE', ( #617 ), #141 ) ;
#366 = CARTESIAN_POINT ( 'NONE',  ( -1.983503397538567414, -4.379823779492572733, -6.416224074734373950 ) ) ;
#367 = CARTESIAN_POINT ( 'NONE',  ( -1.350057840473109838, 4.745543742381286734, -6.271016443903981497 ) ) ;
#368 = CARTESIAN_POINT ( 'NONE',  ( -4.784790355909025905, -1.192092693361817224, -6.273890530841016222 ) ) ;
#369 = CARTESIAN_POINT ( 'NONE',  ( -6.153322697145562700E-13, -5.525000000000354738, -0.3031088913241409277 ) ) ;
#370 = CARTESIAN_POINT ( 'NONE',  ( 4.784790355909024129, -2.330457219127782142, -0.1783888834055476491 ) ) ;
#371 = CARTESIAN_POINT ( 'NONE',  ( 4.784790355909023241, -1.283115457608867402E-19, -6.415209644090977825 ) ) ;
#372 = CARTESIAN_POINT ( 'NONE',  ( -3.211854962481325959, 3.670634672813375854, -6.343192011274849662 ) ) ;
#373 = DIRECTION ( 'NONE',  ( -0.7071067811865487940, 8.659560562354948882E-17, 0.7071067811865463515 ) ) ;
#374 = AXIS2_PLACEMENT_3D ( 'NONE', #42, #334, #331 ) ;
#375 = DIRECTION ( 'NONE',  ( 0.4999999999999996114, -0.8660254037844388186, 0.000000000000000000 ) ) ;
#376 = CARTESIAN_POINT ( 'NONE',  ( -1.135678846597274472, 4.869315512204100749, 0.000000000000000000 ) ) ;
#377 = AXIS2_PLACEMENT_3D ( 'NONE', #361, #592, #295 ) ;
#378 = ADVANCED_FACE ( 'NONE', ( #427 ), #731, .T. ) ;
#379 = DIRECTION ( 'NONE',  ( 0.000000000000000000, 0.000000000000000000, -1.000000000000000000 ) ) ;
#380 = CARTESIAN_POINT ( 'NONE',  ( -9.284044738807265208E-16, -5.525000000000000355, -6.700000000000000178 ) ) ;
#381 = PRESENTATION_STYLE_ASSIGNMENT (( #321 ) ) ;
#382 = CARTESIAN_POINT ( 'NONE',  ( -4.784790355909024129, -0.2425428198459759765, -6.415209644090982266 ) ) ;
#383 = CARTESIAN_POINT ( 'NONE',  ( 4.784790355909023241, 2.762500000000001954, -6.700000000000000178 ) ) ;
#384 = SURFACE_STYLE_USAGE ( .BOTH. , #157 ) ;
#385 = EDGE_CURVE ( 'NONE', #512, #98, #261, .T. ) ;
#386 = ORIENTED_EDGE ( 'NONE', *, *, #207, .T. ) ;
#387 = CIRCLE ( 'NONE', #440, 4.500000000000000000 ) ;
#388 = DIRECTION ( 'NONE',  ( -0.4999999999999998335, -0.8660254037844388186, 0.000000000000000000 ) ) ;
#389 = CARTESIAN_POINT ( 'NONE',  ( -4.784790355909025017, 2.762500000000002398, -0.3031088913245532646 ) ) ;
#390 = VERTEX_POINT ( 'NONE', #607 ) ;
#391 = DIRECTION ( 'NONE',  ( -0.000000000000000000, -0.000000000000000000, 1.000000000000000000 ) ) ;
#392 = ORIENTED_EDGE ( 'NONE', *, *, #85, .T. ) ;
#393 = APPLICATION_CONTEXT ( 'automotive_design' ) ;
#394 = ORIENTED_EDGE ( 'NONE', *, *, #631, .F. ) ;
#395 = DIRECTION ( 'NONE',  ( -0.000000000000000000, -0.000000000000000000, 1.000000000000000000 ) ) ;
#396 = VERTEX_POINT ( 'NONE', #499 ) ;
#397 = B_SPLINE_CURVE_WITH_KNOTS ( 'NONE', 3,
 ( #376, #83, #317, #557 ),
 .UNSPECIFIED., .F., .F.,
 ( 4, 4 ),
 ( 0.01028983807714324399, 0.01164177538836289744 ),
 .UNSPECIFIED. ) ;
#398 = CARTESIAN_POINT ( 'NONE',  ( 1.135678846597275804, 4.869315512204100749, 0.000000000000000000 ) ) ;
#399 = AXIS2_PLACEMENT_3D ( 'NONE', #441, #375, #196 ) ;
#400 = ORIENTED_EDGE ( 'NONE', *, *, #292, .F. ) ;
#401 = CIRCLE ( 'NONE', #692, 2.458750000000000213 ) ;
#402 = ORIENTED_EDGE ( 'NONE', *, *, #739, .F. ) ;
#403 = CARTESIAN_POINT ( 'NONE',  ( 1.135678846597270919, -4.869315512204102525, 0.000000000000000000 ) ) ;
#404 = CARTESIAN_POINT ( 'NONE',  ( 3.233301000286008531, 3.658252797113788368, -6.323327676715827295 ) ) ;
#405 = EDGE_LOOP ( 'NONE', ( #124, #679, #536 ) ) ;
#406 = VECTOR ( 'NONE', #287, 1000.000000000000000 ) ;
#407 = VERTEX_POINT ( 'NONE', #256 ) ;
#408 = CARTESIAN_POINT ( 'NONE',  ( 0.000000000000000000, 5.525000000000000355, -6.700000000000000178 ) ) ;
#409 = CARTESIAN_POINT ( 'NONE',  ( 0.000000000000000000, 0.000000000000000000, 0.000000000000000000 ) ) ;
#410 = ORIENTED_EDGE ( 'NONE', *, *, #105, .T. ) ;
#411 = CIRCLE ( 'NONE', #374, 5.000000000000000000 ) ;
#412 = CARTESIAN_POINT ( 'NONE',  ( -4.032040272927504887, -3.197100463041895768, -0.07409064120281244614 ) ) ;
#413 = PLANE ( 'NONE',  #202 ) ;
#414 = VERTEX_POINT ( 'NONE', #251 ) ;
#415 = CARTESIAN_POINT ( 'NONE',  ( -4.784790355909025017, 2.330457219127779922, -0.1783888834055481487 ) ) ;
#416 = CARTESIAN_POINT ( 'NONE',  ( -0.7561269851882990167, 5.088449881559997223, -6.074358628812455585 ) ) ;
#417 = CARTESIAN_POINT ( 'NONE',  ( -4.784790355909025017, 2.762500000000002398, -0.3031088913245532646 ) ) ;
#418 = ADVANCED_FACE ( 'NONE', ( #79 ), #737, .F. ) ;
#419 = CARTESIAN_POINT ( 'NONE',  ( 4.784790355909024129, -1.451131024408203185, 0.000000000000000000 ) ) ;
#420 = DIRECTION ( 'NONE',  ( -1.000000000000000000, 0.000000000000000000, 0.000000000000000000 ) ) ;
#421 = ORIENTED_EDGE ( 'NONE', *, *, #350, .T. ) ;
#422 = CARTESIAN_POINT ( 'NONE',  ( -1.135678846597278024, -4.869315512204100749, -0.000000000000000000 ) ) ;
#423 = AXIS2_PLACEMENT_3D ( 'NONE', #327, #379, #546 ) ;
#424 = LINE ( 'NONE', #541, #72 ) ;
#425 = CARTESIAN_POINT ( 'NONE',  ( -2.610053346485725623, -4.018084997807184422, -6.414686214047365276 ) ) ;
#426 = VERTEX_POINT ( 'NONE', #734 ) ;
#427 = FACE_OUTER_BOUND ( 'NONE', #487, .T. ) ;
#428 = EDGE_CURVE ( 'NONE', #396, #630, #397, .T. ) ;
#429 = DIRECTION ( 'NONE',  ( 0.7071067811865474617, -8.659560562354932858E-17, 0.7071067811865474617 ) ) ;
#430 = CARTESIAN_POINT ( 'NONE',  ( 3.754448299194687015E-17, 5.525000000000000355, -5.675000000000003375 ) ) ;
#431 = DIRECTION ( 'NONE',  ( 1.000000000000000000, 0.000000000000000000, 0.000000000000000000 ) ) ;
#432 = CARTESIAN_POINT ( 'NONE',  ( 4.784790355909023241, 2.762500000000001954, -0.3031088913245521543 ) ) ;
#433 = SURFACE_STYLE_FILL_AREA ( #600 ) ;
#434 = EDGE_CURVE ( 'NONE', #227, #236, #102, .T. ) ;
#435 = CARTESIAN_POINT ( 'NONE',  ( -4.784790355909025017, -2.762500000000001954, -6.700000000000000178 ) ) ;
#436 = CARTESIAN_POINT ( 'NONE',  ( -4.784790355909025905, -2.333967467660403639, -5.889266266169813413 ) ) ;
#437 =( NAMED_UNIT ( * ) SI_UNIT ( $, .STERADIAN. ) SOLID_ANGLE_UNIT ( ) );
#438 = CONICAL_SURFACE ( 'NONE', #99, 2.588214285714286245, 0.7853981633974482790 ) ;
#439 = B_SPLINE_CURVE_WITH_KNOTS ( 'NONE', 3,
 ( #483, #603, #189, #597, #249, #660, #76, #313 ),
 .UNSPECIFIED., .F., .F.,
 ( 4, 2, 2, 4 ),
 ( 0.006530761189642047236, 0.007963721768137926524, 0.008680202057385864867, 0.009396682346633804944 ),
 .UNSPECIFIED. ) ;
#440 = AXIS2_PLACEMENT_3D ( 'NONE', #27, #266, #609 ) ;
#441 = CARTESIAN_POINT ( 'NONE',  ( 0.000000000000000000, 5.525000000000000355, -6.700000000000000178 ) ) ;
#442 = CARTESIAN_POINT ( 'NONE',  ( -4.784790355909025017, -1.451131024408197856, -0.000000000000000000 ) ) ;
#443 = VECTOR ( 'NONE', #531, 1000.000000000000000 ) ;
#444 = LINE ( 'NONE', #149, #88 ) ;
#445 = CARTESIAN_POINT ( 'NONE',  ( 4.784790355909023241, 2.328724535956409269, -0.1778887008578410034 ) ) ;
#446 = UNCERTAINTY_MEASURE_WITH_UNIT (LENGTH_MEASURE( 1.000000000000000082E-05 ), #20, 'distance_accuracy_value', 'NONE');
#447 = VECTOR ( 'NONE', #565, 1000.000000000000000 ) ;
#448 = DIRECTION ( 'NONE',  ( 0.4999999999999997780, 0.8660254037844388186, 0.000000000000000000 ) ) ;
#449 = CARTESIAN_POINT ( 'NONE',  ( 0.000000000000000000, 0.000000000000000000, 0.000000000000000000 ) ) ;
#450 = B_SPLINE_CURVE_WITH_KNOTS ( 'NONE', 3,
 ( #432, #445, #153, #212 ),
 .UNSPECIFIED., .F., .F.,
 ( 4, 4 ),
 ( 0.005193472794864375901, 0.006542303227970883671 ),
 .UNSPECIFIED. ) ;
#451 =( NAMED_UNIT ( * ) SI_UNIT ( $, .STERADIAN. ) SOLID_ANGLE_UNIT ( ) );
#452 = ORIENTED_EDGE ( 'NONE', *, *, #105, .F. ) ;
#453 = CARTESIAN_POINT ( 'NONE',  ( 3.649111509311747437, 3.418184487795903781, 0.000000000000000000 ) ) ;
#454 = ORIENTED_EDGE ( 'NONE', *, *, #511, .F. ) ;
#455 = ORIENTED_EDGE ( 'NONE', *, *, #746, .F. ) ;
#456 = EDGE_CURVE ( 'NONE', #151, #573, #730, .T. ) ;
#457 = ORIENTED_EDGE ( 'NONE', *, *, #688, .T. ) ;
#458 = EDGE_LOOP ( 'NONE', ( #274, #170 ) ) ;
#459 = CARTESIAN_POINT ( 'NONE',  ( 0.000000000000000000, 0.000000000000000000, 0.000000000000000000 ) ) ;
#460 = CARTESIAN_POINT ( 'NONE',  ( 1.983503397538566526, 4.379823779492571845, -6.416224074734373950 ) ) ;
#461 = EDGE_CURVE ( 'NONE', #407, #625, #762, .T. ) ;
#462 = VERTEX_POINT ( 'NONE', #311 ) ;
#463 = VERTEX_POINT ( 'NONE', #544 ) ;
#464 = CARTESIAN_POINT ( 'NONE',  ( -2.458750000000000213, 0.000000000000000000, -6.700000000000000178 ) ) ;
#465 = FACE_OUTER_BOUND ( 'NONE', #405, .T. ) ;
#466 = ORIENTED_EDGE ( 'NONE', *, *, #3, .F. ) ;
#467 = COLOUR_RGB ( '',1.000000000000000000, 1.000000000000000000, 1.000000000000000000 ) ;
#468 = EDGE_CURVE ( 'NONE', #570, #236, #491, .T. ) ;
#469 = CARTESIAN_POINT ( 'NONE',  ( -4.784790355909025017, 1.883704622867437228, -6.061836922308967424 ) ) ;
#470 = CARTESIAN_POINT ( 'NONE',  ( 4.500000000000000000, 0.000000000000000000, -6.700000000000000178 ) ) ;
#471 = AXIS2_PLACEMENT_3D ( 'NONE', #143, #324, #667 ) ;
#472 = LINE ( 'NONE', #180, #241 ) ;
#473 = CYLINDRICAL_SURFACE ( 'NONE', #756, 2.458750000000000213 ) ;
#474 = VERTEX_POINT ( 'NONE', #81 ) ;
#475 = VECTOR ( 'NONE', #231, 1000.000000000000000 ) ;
#476 = B_SPLINE_CURVE_WITH_KNOTS ( 'NONE', 3,
 ( #720, #654, #128, #545, #493, #309, #425, #366, #726, #538, #195, #542 ),
 .UNSPECIFIED., .F., .F.,
 ( 4, 2, 2, 2, 2, 4 ),
 ( 2.544322442628414405E-07, 0.001427029979755359322, 0.002140417753510907677, 0.002853805527266455814, 0.004280581074777550787, 0.005707356622288645327 ),
 .UNSPECIFIED. ) ;
#477 = DIRECTION ( 'NONE',  ( -0.000000000000000000, -0.000000000000000000, 1.000000000000000000 ) ) ;
#478 = CIRCLE ( 'NONE', #255, 2.588214285714286245 ) ;
#479 = CARTESIAN_POINT ( 'NONE',  ( 2.821921156098802896, 3.895763060894459784, -6.395305118895453056 ) ) ;
#480 = EDGE_LOOP ( 'NONE', ( #49, #91, #93, #586, #179, #353, #686 ) ) ;
#481 = FACE_OUTER_BOUND ( 'NONE', #283, .T. ) ;
#482 = EDGE_CURVE ( 'NONE', #414, #463, #450, .T. ) ;
#483 = CARTESIAN_POINT ( 'NONE',  ( 4.784790355909023241, -1.283115457608867402E-19, -6.415209644090977825 ) ) ;
#484 = ORIENTED_EDGE ( 'NONE', *, *, #148, .T. ) ;
#485 = CARTESIAN_POINT ( 'NONE',  ( 4.784790355909024129, -1.894008426187641980, -0.07420950181403770940 ) ) ;
#486 = CARTESIAN_POINT ( 'NONE',  ( 4.784790355909023241, 2.762500000000001954, -5.675000000000003375 ) ) ;
#487 = EDGE_LOOP ( 'NONE', ( #743, #703, #213 ) ) ;
#488 = CARTESIAN_POINT ( 'NONE',  ( -4.784790355909025905, -1.883119404361265126, -6.076977406709334950 ) ) ;
#489 = DIRECTION ( 'NONE',  ( 0.000000000000000000, 0.000000000000000000, 1.000000000000000000 ) ) ;
#490 = EDGE_CURVE ( 'NONE', #396, #98, #662, .T. ) ;
#491 = B_SPLINE_CURVE_WITH_KNOTS ( 'NONE', 3,
 ( #254, #728, #610, #551 ),
 .UNSPECIFIED., .F., .F.,
 ( 4, 4 ),
 ( 0.006022350690198338685, 0.007374101037611648264 ),
 .UNSPECIFIED. ) ;
#492 = CARTESIAN_POINT ( 'NONE',  ( 4.784790355909024129, -2.762500000000002398, -0.3031088913245527650 ) ) ;
#493 = CARTESIAN_POINT ( 'NONE',  ( -3.233301000286011639, -3.658252797113789256, -6.323327676715828183 ) ) ;
#494 = CARTESIAN_POINT ( 'NONE',  ( 4.410099657342860802, 2.978827775680025436, -0.1782119918024986926 ) ) ;
#495 = CARTESIAN_POINT ( 'NONE',  ( 0.000000000000000000, 0.000000000000000000, 0.000000000000000000 ) ) ;
#496 = VECTOR ( 'NONE', #395, 1000.000000000000000 ) ;
#497 =( LENGTH_UNIT ( ) NAMED_UNIT ( * ) SI_UNIT ( .MILLI., .METRE. ) );
#498 = DIRECTION ( 'NONE',  ( 0.8660254037844387076, -0.4999999999999997780, 0.000000000000000000 ) ) ;
#499 = CARTESIAN_POINT ( 'NONE',  ( -1.135678846597274472, 4.869315512204100749, 0.000000000000000000 ) ) ;
#500 = CARTESIAN_POINT ( 'NONE',  ( 0.000000000000000000, 0.000000000000000000, -0.1294642857142856984 ) ) ;
#501 = CARTESIAN_POINT ( 'NONE',  ( -3.649111509311746993, 3.418184487795903781, 0.000000000000000000 ) ) ;
#502 = AXIS2_PLACEMENT_3D ( 'NONE', #53, #168, #107 ) ;
#503 = ADVANCED_FACE ( 'NONE', ( #271 ), #167, .T. ) ;
#504 = CARTESIAN_POINT ( 'NONE',  ( 0.000000000000000000, 0.000000000000000000, 0.000000000000000000 ) ) ;
#505 = CARTESIAN_POINT ( 'NONE',  ( 0.000000000000000000, 0.000000000000000000, 0.000000000000000000 ) ) ;
#506 = CONICAL_SURFACE ( 'NONE', #172, 2.588214285714286245, 0.7853981633974482790 ) ;
#507 = CARTESIAN_POINT ( 'NONE',  ( 0.000000000000000000, 0.000000000000000000, -6.700000000000000178 ) ) ;
#508 = CARTESIAN_POINT ( 'NONE',  ( 0.000000000000000000, 0.000000000000000000, -6.700000000000000178 ) ) ;
#509 = ORIENTED_EDGE ( 'NONE', *, *, #245, .F. ) ;
#510 =( NAMED_UNIT ( * ) PLANE_ANGLE_UNIT ( ) SI_UNIT ( $, .RADIAN. ) );
#511 = EDGE_CURVE ( 'NONE', #576, #577, #621, .T. ) ;
#512 = VERTEX_POINT ( 'NONE', #389 ) ;
#513 = DIRECTION ( 'NONE',  ( 1.000000000000000000, 0.000000000000000000, 0.000000000000000000 ) ) ;
#514 = ORIENTED_EDGE ( 'NONE', *, *, #24, .T. ) ;
#515 = EDGE_CURVE ( 'NONE', #426, #52, #478, .T. ) ;
#516 = AXIS2_PLACEMENT_3D ( 'NONE', #575, #163, #216 ) ;
#517 = EDGE_LOOP ( 'NONE', ( #349, #156 ) ) ;
#518 = CARTESIAN_POINT ( 'NONE',  ( -4.784790355909025017, 8.287499999999999645, 0.000000000000000000 ) ) ;
#519 = ORIENTED_EDGE ( 'NONE', *, *, #350, .F. ) ;
#520 = FACE_OUTER_BOUND ( 'NONE', #705, .T. ) ;
#521 = LINE ( 'NONE', #470, #475 ) ;
#522 = ORIENTED_EDGE ( 'NONE', *, *, #223, .T. ) ;
#523 = ORIENTED_EDGE ( 'NONE', *, *, #738, .F. ) ;
#524 = DIRECTION ( 'NONE',  ( -1.000000000000000000, 0.000000000000000000, 0.000000000000000000 ) ) ;
#525 =( GEOMETRIC_REPRESENTATION_CONTEXT ( 3 ) GLOBAL_UNCERTAINTY_ASSIGNED_CONTEXT ( ( #37 ) ) GLOBAL_UNIT_ASSIGNED_CONTEXT ( ( #147, #26, #658 ) ) REPRESENTATION_CONTEXT ( 'NONE', 'WORKASPACE' ) );
#526 = FACE_OUTER_BOUND ( 'NONE', #47, .T. ) ;
#527 = ORIENTED_EDGE ( 'NONE', *, *, #716, .F. ) ;
#528 = DIRECTION ( 'NONE',  ( -1.000000000000000000, 0.000000000000000000, 0.000000000000000000 ) ) ;
#529 = DIRECTION ( 'NONE',  ( -0.000000000000000000, -0.000000000000000000, 1.000000000000000000 ) ) ;
#530 = VERTEX_POINT ( 'NONE', #339 ) ;
#531 = DIRECTION ( 'NONE',  ( -0.000000000000000000, -0.000000000000000000, 1.000000000000000000 ) ) ;
#532 = CARTESIAN_POINT ( 'NONE',  ( -4.784790355909025017, 2.762500000000002398, -6.700000000000000178 ) ) ;
#533 = ORIENTED_EDGE ( 'NONE', *, *, #688, .F. ) ;
#534 =( GEOMETRIC_REPRESENTATION_CONTEXT ( 3 ) GLOBAL_UNCERTAINTY_ASSIGNED_CONTEXT ( ( #446 ) ) GLOBAL_UNIT_ASSIGNED_CONTEXT ( ( #20, #719, #248 ) ) REPRESENTATION_CONTEXT ( 'NONE', 'WORKASPACE' ) );
#535 = CARTESIAN_POINT ( 'NONE',  ( -4.784790355909638748, -2.762499999999647127, -0.3031088913241419824 ) ) ;
#536 = ORIENTED_EDGE ( 'NONE', *, *, #434, .T. ) ;
#537 = CARTESIAN_POINT ( 'NONE',  ( -2.458750000000000213, 0.000000000000000000, -0.1294642857142856984 ) ) ;
#538 = CARTESIAN_POINT ( 'NONE',  ( -0.7632453401171405138, -5.084340097425645411, -6.078274674138655520 ) ) ;
#539 = CARTESIAN_POINT ( 'NONE',  ( -9.284044738807265208E-16, -5.525000000000000355, -6.700000000000000178 ) ) ;
#540 = CONICAL_SURFACE ( 'NONE', #273, 4.500000000000000000, 0.7853981633974500554 ) ;
#541 = CARTESIAN_POINT ( 'NONE',  ( 4.784790355909024129, -2.762500000000002398, 0.000000000000000000 ) ) ;
#542 = CARTESIAN_POINT ( 'NONE',  ( -9.659489567768453292E-16, -5.525000000000000355, -5.675000000000003375 ) ) ;
#543 = CARTESIAN_POINT ( 'NONE',  ( -2.174737009423299394, 4.269415002192817887, -6.414686214047366164 ) ) ;
#544 = CARTESIAN_POINT ( 'NONE',  ( 4.784790355909023241, 1.451131024408204517, 0.000000000000000000 ) ) ;
#545 = CARTESIAN_POINT ( 'NONE',  ( -3.434732515435916511, -3.541956257618716020, -6.271016443903981497 ) ) ;
#546 = DIRECTION ( 'NONE',  ( -1.000000000000000000, 0.000000000000000000, 0.000000000000000000 ) ) ;
#547 = CARTESIAN_POINT ( 'NONE',  ( -4.784790355909025017, -1.892013640721222911, -0.07387525121761086278 ) ) ;
#548 = CARTESIAN_POINT ( 'NONE',  ( 0.000000000000000000, 0.000000000000000000, 0.000000000000000000 ) ) ;
#549 = AXIS2_PLACEMENT_3D ( 'NONE', #325, #489, #724 ) ;
#550 = B_SPLINE_CURVE_WITH_KNOTS ( 'NONE', 3,
 ( #243, #652, #352, #65, #108, #1, #178, #582, #238, #753, #585, #235 ),
 .UNSPECIFIED., .F., .F.,
 ( 4, 2, 2, 2, 2, 4 ),
 ( 2.544322442637664005E-07, 0.001427029979755361708, 0.002140417753510910279, 0.002853805527266458416, 0.004280581074777553389, 0.005707356622288647062 ),
 .UNSPECIFIED. ) ;
#551 = CARTESIAN_POINT ( 'NONE',  ( 3.649111509311750101, -3.418184487795901116, 0.000000000000000000 ) ) ;
#552 = CARTESIAN_POINT ( 'NONE',  ( 2.588214285714286245, -3.169648340507453261E-16, 0.000000000000000000 ) ) ;
#553 = CARTESIAN_POINT ( 'NONE',  ( -4.784790355909025017, 2.762500000000002398, -0.3031088913245532646 ) ) ;
#554 = MECHANICAL_DESIGN_GEOMETRIC_PRESENTATION_REPRESENTATION (  '', ( #752 ), #126 ) ;
#555 = ADVANCED_FACE ( 'NONE', ( #622 ), #683, .T. ) ;
#556 =( NAMED_UNIT ( * ) SI_UNIT ( $, .STERADIAN. ) SOLID_ANGLE_UNIT ( ) );
#557 = CARTESIAN_POINT ( 'NONE',  ( 6.144038653560839032E-13, 5.525000000000354738, -0.3031088913241409277 ) ) ;
#558 = CONICAL_SURFACE ( 'NONE', #707, 5.000000000000000000, 1.047197551196600074 ) ;
#559 = EDGE_CURVE ( 'NONE', #713, #414, #92, .T. ) ;
#560 =( GEOMETRIC_REPRESENTATION_CONTEXT ( 3 ) GLOBAL_UNCERTAINTY_ASSIGNED_CONTEXT ( ( #698 ) ) GLOBAL_UNIT_ASSIGNED_CONTEXT ( ( #208, #139, #556 ) ) REPRESENTATION_CONTEXT ( 'NONE', 'WORKASPACE' ) );
#561 = CARTESIAN_POINT ( 'NONE',  ( -3.649111509311746993, 3.418184487795903781, 0.000000000000000000 ) ) ;
#562 = CARTESIAN_POINT ( 'NONE',  ( 4.784790355909023241, 2.762500000000001954, 0.000000000000000000 ) ) ;
#563 = MECHANICAL_DESIGN_GEOMETRIC_PRESENTATION_REPRESENTATION (  '', ( #233 ), #534 ) ;
#564 = ORIENTED_EDGE ( 'NONE', *, *, #111, .T. ) ;
#565 = DIRECTION ( 'NONE',  ( 0.000000000000000000, -1.000000000000000000, 0.000000000000000000 ) ) ;
#566 = EDGE_LOOP ( 'NONE', ( #580, #63, #421 ) ) ;
#567 = AXIS2_PLACEMENT_3D ( 'NONE', #687, #680, #160 ) ;
#568 = CARTESIAN_POINT ( 'NONE',  ( 0.000000000000000000, 0.000000000000000000, 0.000000000000000000 ) ) ;
#569 = EDGE_CURVE ( 'NONE', #530, #623, #284, .T. ) ;
#570 = VERTEX_POINT ( 'NONE', #277 ) ;
#571 = VERTEX_POINT ( 'NONE', #89 ) ;
#572 = DIRECTION ( 'NONE',  ( 0.000000000000000000, 0.000000000000000000, 1.000000000000000000 ) ) ;
#573 = VERTEX_POINT ( 'NONE', #280 ) ;
#574 = ORIENTED_EDGE ( 'NONE', *, *, #307, .T. ) ;
#575 = CARTESIAN_POINT ( 'NONE',  ( 0.000000000000000000, 0.000000000000000000, 0.000000000000000000 ) ) ;
#576 = VERTEX_POINT ( 'NONE', #453 ) ;
#577 = VERTEX_POINT ( 'NONE', #398 ) ;
#578 = CARTESIAN_POINT ( 'NONE',  ( 0.3746906985658109424, -5.308672224320179822, -0.1782119918025952265 ) ) ;
#579 = CARTESIAN_POINT ( 'NONE',  ( 0.3760490295162741692, 5.307887991580281906, -5.892112008419904789 ) ) ;
#580 = ORIENTED_EDGE ( 'NONE', *, *, #342, .F. ) ;
#581 = DIRECTION ( 'NONE',  ( -0.000000000000000000, -0.000000000000000000, 1.000000000000000000 ) ) ;
#582 = CARTESIAN_POINT ( 'NONE',  ( 2.801286958370458269, -3.907676220507429576, -6.416224074734375726 ) ) ;
#583 = ORIENTED_EDGE ( 'NONE', *, *, #716, .T. ) ;
#584 = CARTESIAN_POINT ( 'NONE',  ( 3.649111509311750101, -3.418184487795901116, 0.000000000000000000 ) ) ;
#585 = CARTESIAN_POINT ( 'NONE',  ( 4.408741326392750182, -2.979612008419721292, -5.892112008419902125 ) ) ;
#586 = ORIENTED_EDGE ( 'NONE', *, *, #482, .T. ) ;
#587 = CARTESIAN_POINT ( 'NONE',  ( -4.784790355909025017, 0.4856246285316987432, -6.415209644090981378 ) ) ;
#588 = LINE ( 'NONE', #66, #619 ) ;
#589 = EDGE_CURVE ( 'NONE', #396, #577, #411, .T. ) ;
#590 = VECTOR ( 'NONE', #373, 1000.000000000000000 ) ;
#591 = FACE_BOUND ( 'NONE', #517, .T. ) ;
#592 = DIRECTION ( 'NONE',  ( 0.000000000000000000, 0.000000000000000000, -1.000000000000000000 ) ) ;
#593 = EDGE_LOOP ( 'NONE', ( #689, #721, #293, #278 ) ) ;
#594 = AXIS2_PLACEMENT_3D ( 'NONE', #507, #259, #606 ) ;
#595 = EDGE_CURVE ( 'NONE', #52, #426, #110, .T. ) ;
#596 = CARTESIAN_POINT ( 'NONE',  ( 2.588214285714286245, -3.169648340507453261E-16, 0.000000000000000000 ) ) ;
#597 = CARTESIAN_POINT ( 'NONE',  ( 4.784790355909023241, 1.653455530224851255, -6.142447739665894524 ) ) ;
#598 = CARTESIAN_POINT ( 'NONE',  ( -1.551489355623015154, 4.629247202886215717, -6.323327676715826406 ) ) ;
#599 = CARTESIAN_POINT ( 'NONE',  ( -4.784790355909025017, -0.9587335115107060712, -6.325732382047206670 ) ) ;
#600 = FILL_AREA_STYLE ('',( #262 ) ) ;
#601 = EDGE_CURVE ( 'NONE', #684, #573, #39, .T. ) ;
#602 = CARTESIAN_POINT ( 'NONE',  ( 0.000000000000000000, 0.000000000000000000, -6.700000000000000178 ) ) ;
#603 = CARTESIAN_POINT ( 'NONE',  ( 4.784790355909023241, 0.4856246247858903575, -6.415209644090984042 ) ) ;
#604 = CARTESIAN_POINT ( 'NONE',  ( -4.021545015791887501, 3.203159902574359119, -6.078274674138651967 ) ) ;
#605 = DIRECTION ( 'NONE',  ( 1.569885498621543742E-16, -1.000000000000000000, 0.000000000000000000 ) ) ;
#606 = DIRECTION ( 'NONE',  ( 1.000000000000000000, 0.000000000000000000, 0.000000000000000000 ) ) ;
#607 = CARTESIAN_POINT ( 'NONE',  ( -4.500000000000000000, 6.142307869633487533E-16, -6.700000000000000178 ) ) ;
#608 = B_SPLINE_CURVE_WITH_KNOTS ( 'NONE', 3,
 ( #304, #14, #252, #187, #73, #715, #246, #371 ),
 .UNSPECIFIED., .F., .F.,
 ( 4, 2, 2, 4 ),
 ( 0.003668020894623297019, 0.005099391042132672344, 0.005815076115887359356, 0.006530761189642047236 ),
 .UNSPECIFIED. ) ;
#609 = DIRECTION ( 'NONE',  ( 1.000000000000000000, 0.000000000000000000, 0.000000000000000000 ) ) ;
#610 = CARTESIAN_POINT ( 'NONE',  ( 4.031816185169124545, -3.197229840169518500, -0.07404728377636260461 ) ) ;
#611 = VECTOR ( 'NONE', #629, 1000.000000000000227 ) ;
#612 = ADVANCED_FACE ( 'NONE', ( #744, #520 ), #674, .F. ) ;
#613 = FILL_AREA_STYLE ('',( #736 ) ) ;
#614 = PLANE ( 'NONE',  #94 ) ;
#615 =( NAMED_UNIT ( * ) PLANE_ANGLE_UNIT ( ) SI_UNIT ( $, .RADIAN. ) );
#616 = ADVANCED_FACE ( 'NONE', ( #751 ), #473, .F. ) ;
#617 = PRESENTATION_STYLE_ASSIGNMENT (( #664 ) ) ;
#618 = PRESENTATION_STYLE_ASSIGNMENT (( #384 ) ) ;
#619 = VECTOR ( 'NONE', #301, 1000.000000000000114 ) ;
#620 = ORIENTED_EDGE ( 'NONE', *, *, #461, .F. ) ;
#621 = LINE ( 'NONE', #562, #611 ) ;
#622 = FACE_OUTER_BOUND ( 'NONE', #754, .T. ) ;
#623 = VERTEX_POINT ( 'NONE', #643 ) ;
#624 = UNCERTAINTY_MEASURE_WITH_UNIT (LENGTH_MEASURE( 1.000000000000000082E-05 ), #328, 'distance_accuracy_value', 'NONE');
#625 = VERTEX_POINT ( 'NONE', #116 ) ;
#626 = CARTESIAN_POINT ( 'NONE',  ( 0.000000000000000000, 5.525000000000000355, 0.000000000000000000 ) ) ;
#627 = ORIENTED_EDGE ( 'NONE', *, *, #11, .T. ) ;
#628 = ORIENTED_EDGE ( 'NONE', *, *, #70, .F. ) ;
#629 = DIRECTION ( 'NONE',  ( -0.8660254037844387076, 0.4999999999999997780, 0.000000000000000000 ) ) ;
#630 = VERTEX_POINT ( 'NONE', #638 ) ;
#631 = EDGE_CURVE ( 'NONE', #462, #101, #521, .T. ) ;
#632 = ORIENTED_EDGE ( 'NONE', *, *, #159, .T. ) ;
#633 = AXIS2_PLACEMENT_3D ( 'NONE', #57, #290, #528 ) ;
#634 = DIRECTION ( 'NONE',  ( -0.000000000000000000, -0.000000000000000000, 1.000000000000000000 ) ) ;
#635 = DIRECTION ( 'NONE',  ( -1.000000000000000000, 0.000000000000000000, 0.000000000000000000 ) ) ;
#636 = ORIENTED_EDGE ( 'NONE', *, *, #434, .F. ) ;
#637 = CARTESIAN_POINT ( 'NONE',  ( -4.784790355909025017, 5.858395115959351882E-16, -6.415209644090976049 ) ) ;
#638 = CARTESIAN_POINT ( 'NONE',  ( 6.144038653560839032E-13, 5.525000000000354738, -0.3031088913241409277 ) ) ;
#639 = EDGE_LOOP ( 'NONE', ( #51, #279, #296, #454, #564, #2 ) ) ;
#640 = ADVANCED_FACE ( 'NONE', ( #465 ), #558, .T. ) ;
#641 = AXIS2_PLACEMENT_3D ( 'NONE', #16, #134, #21 ) ;
#642 = CARTESIAN_POINT ( 'NONE',  ( -3.649111509311745660, -3.418184487795904225, -0.000000000000000000 ) ) ;
#643 = CARTESIAN_POINT ( 'NONE',  ( -4.784790355909025017, -1.451131024408197856, -0.000000000000000000 ) ) ;
#644 = ORIENTED_EDGE ( 'NONE', *, *, #3, .T. ) ;
#645 = B_SPLINE_CURVE_WITH_KNOTS ( 'NONE', 3,
 ( #369, #205, #315, #422 ),
 .UNSPECIFIED., .F., .F.,
 ( 4, 4 ),
 ( 0.006022350690198762825, 0.007374101037611650866 ),
 .UNSPECIFIED. ) ;
#646 = B_SPLINE_CURVE_WITH_KNOTS ( 'NONE', 3,
 ( #647, #354, #118, #469, #358, #222, #587, #637 ),
 .UNSPECIFIED., .F., .F.,
 ( 4, 2, 2, 4 ),
 ( 0.002925838180386472736, 0.003641801397372416288, 0.004357764614358360274, 0.005789691048330248245 ),
 .UNSPECIFIED. ) ;
#647 = CARTESIAN_POINT ( 'NONE',  ( -4.784790355909025017, 2.762500000000002398, -5.675000000000001599 ) ) ;
#648 = EDGE_CURVE ( 'NONE', #346, #333, #550, .T. ) ;
#649 = LINE ( 'NONE', #532, #165 ) ;
#650 = CARTESIAN_POINT ( 'NONE',  ( -2.801286958370458713, 3.907676220507431353, -6.416224074734374838 ) ) ;
#651 = DIRECTION ( 'NONE',  ( 0.000000000000000000, 0.000000000000000000, 1.000000000000000000 ) ) ;
#652 = CARTESIAN_POINT ( 'NONE',  ( 0.3738471138155817775, -5.309159268202809479, -5.890840731797194252 ) ) ;
#653 = SURFACE_SIDE_STYLE ('',( #12 ) ) ;
#654 = CARTESIAN_POINT ( 'NONE',  ( -4.410943242093443573, -2.978340731797192831, -5.890840731797190699 ) ) ;
#655 = ORIENTED_EDGE ( 'NONE', *, *, #428, .F. ) ;
#656 = CARTESIAN_POINT ( 'NONE',  ( -4.784790355909024129, -0.4848001944820705122, -6.396423614232889854 ) ) ;
#657 = COLOUR_RGB ( '',1.000000000000000000, 1.000000000000000000, 1.000000000000000000 ) ;
#658 =( NAMED_UNIT ( * ) SI_UNIT ( $, .STERADIAN. ) SOLID_ANGLE_UNIT ( ) );
#659 = PRODUCT_DEFINITION ( '未知', '', #87, #90 ) ;
#660 = CARTESIAN_POINT ( 'NONE',  ( 4.784790355909023241, 2.330727462242712988, -5.881666876696587387 ) ) ;
#661 = ORIENTED_EDGE ( 'NONE', *, *, #385, .T. ) ;
#662 = LINE ( 'NONE', #626, #206 ) ;
#663 = DIRECTION ( 'NONE',  ( -1.000000000000000000, 0.000000000000000000, 0.000000000000000000 ) ) ;
#664 = SURFACE_STYLE_USAGE ( .BOTH. , #82 ) ;
#665 = DIRECTION ( 'NONE',  ( -0.4999999999999996114, 0.8660254037844388186, 0.000000000000000000 ) ) ;
#666 = DIRECTION ( 'NONE',  ( -1.000000000000000000, 0.000000000000000000, 0.000000000000000000 ) ) ;
#667 = DIRECTION ( 'NONE',  ( -1.000000000000000000, 0.000000000000000000, 0.000000000000000000 ) ) ;
#668 = CIRCLE ( 'NONE', #502, 2.458750000000000213 ) ;
#669 = ADVANCED_FACE ( 'NONE', ( #702 ), #413, .F. ) ;
#670 = DIRECTION ( 'NONE',  ( -1.000000000000000000, 0.000000000000000000, 0.000000000000000000 ) ) ;
#671 = CARTESIAN_POINT ( 'NONE',  ( 4.784790355909024129, -2.762500000000002398, -6.700000000000000178 ) ) ;
#672 = B_SPLINE_CURVE_WITH_KNOTS ( 'NONE', 3,
 ( #234, #244, #725, #186 ),
 .UNSPECIFIED., .F., .F.,
 ( 4, 4 ),
 ( 0.006022350690198761958, 0.007374101037611649131 ),
 .UNSPECIFIED. ) ;
#673 = FACE_OUTER_BOUND ( 'NONE', #340, .T. ) ;
#674 = PLANE ( 'NONE',  #718 ) ;
#675 = VERTEX_POINT ( 'NONE', #300 ) ;
#676 = CARTESIAN_POINT ( 'NONE',  ( 3.649111509311747437, 3.418184487795903781, 0.000000000000000000 ) ) ;
#677 = DIRECTION ( 'NONE',  ( -0.8660254037844388186, -0.4999999999999996114, -0.000000000000000000 ) ) ;
#678 = UNCERTAINTY_MEASURE_WITH_UNIT (LENGTH_MEASURE( 1.000000000000000082E-05 ), #497, 'distance_accuracy_value', 'NONE');
#679 = ORIENTED_EDGE ( 'NONE', *, *, #297, .F. ) ;
#680 = DIRECTION ( 'NONE',  ( -0.000000000000000000, -0.000000000000000000, -1.000000000000000000 ) ) ;
#681 = B_SPLINE_CURVE_WITH_KNOTS ( 'NONE', 3,
 ( #119, #8, #59, #175, #404, #479, #712, #460, #169, #694, #579, #288 ),
 .UNSPECIFIED., .F., .F.,
 ( 4, 2, 2, 2, 2, 4 ),
 ( 2.544322442628414405E-07, 0.001427029979755357371, 0.002140417753510905075, 0.002853805527266453212, 0.004280581074777548185, 0.005707356622288644460 ),
 .UNSPECIFIED. ) ;
#682 = ORIENTED_EDGE ( 'NONE', *, *, #746, .T. ) ;
#683 = CONICAL_SURFACE ( 'NONE', #355, 4.500000000000000000, 0.7853981633974500554 ) ;
#684 = VERTEX_POINT ( 'NONE', #291 ) ;
#685 = DIRECTION ( 'NONE',  ( 0.000000000000000000, 0.000000000000000000, -1.000000000000000000 ) ) ;
#686 = ORIENTED_EDGE ( 'NONE', *, *, #159, .F. ) ;
#687 = CARTESIAN_POINT ( 'NONE',  ( 0.000000000000000000, 0.000000000000000000, 0.000000000000000000 ) ) ;
#688 = EDGE_CURVE ( 'NONE', #225, #571, #316, .T. ) ;
#689 = ORIENTED_EDGE ( 'NONE', *, *, #223, .F. ) ;
#690 = MECHANICAL_DESIGN_GEOMETRIC_PRESENTATION_REPRESENTATION (  '', ( #265 ), #33 ) ;
#691 = AXIS2_PLACEMENT_3D ( 'NONE', #435, #448, #211 ) ;
#692 = AXIS2_PLACEMENT_3D ( 'NONE', #500, #145, #431 ) ;
#693 = CARTESIAN_POINT ( 'NONE',  ( 2.458750000000000213, -3.011100317403555149E-16, -6.700000000000000178 ) ) ;
#694 = CARTESIAN_POINT ( 'NONE',  ( 0.7632453401171387375, 5.084340097425643634, -6.078274674138654632 ) ) ;
#695 = EDGE_CURVE ( 'NONE', #15, #512, #649, .T. ) ;
#696 = ORIENTED_EDGE ( 'NONE', *, *, #282, .F. ) ;
#697 = AXIS2_PLACEMENT_3D ( 'NONE', #671, #197, #605 ) ;
#698 = UNCERTAINTY_MEASURE_WITH_UNIT (LENGTH_MEASURE( 1.000000000000000082E-05 ), #208, 'distance_accuracy_value', 'NONE');
#699 = ORIENTED_EDGE ( 'NONE', *, *, #648, .F. ) ;
#700 = VECTOR ( 'NONE', #112, 1000.000000000000000 ) ;
#701 = FACE_OUTER_BOUND ( 'NONE', #221, .T. ) ;
#702 = FACE_OUTER_BOUND ( 'NONE', #741, .T. ) ;
#703 = ORIENTED_EDGE ( 'NONE', *, *, #215, .F. ) ;
#704 = DIRECTION ( 'NONE',  ( 0.000000000000000000, 0.000000000000000000, -1.000000000000000000 ) ) ;
#705 = EDGE_LOOP ( 'NONE', ( #455, #337, #41, #135, #452, #747, #519, #45, #357, #190, #636, #574 ) ) ;
#706 = EDGE_CURVE ( 'NONE', #713, #717, #681, .T. ) ;
#707 = AXIS2_PLACEMENT_3D ( 'NONE', #113, #356, #54 ) ;
#708 = CARTESIAN_POINT ( 'NONE',  ( 0.000000000000000000, 0.000000000000000000, -6.700000000000000178 ) ) ;
#709 = DIRECTION ( 'NONE',  ( 1.000000000000000000, 0.000000000000000000, -0.000000000000000000 ) ) ;
#710 = CARTESIAN_POINT ( 'NONE',  ( -0.3738471138155823881, 5.309159268202811255, -5.890840731797193364 ) ) ;
#711 = ADVANCED_FACE ( 'NONE', ( #526 ), #438, .F. ) ;
#712 = CARTESIAN_POINT ( 'NONE',  ( 2.610053346485726511, 4.018084997807185310, -6.414686214047368829 ) ) ;
#713 = VERTEX_POINT ( 'NONE', #486 ) ;
#714 = FILL_AREA_STYLE ('',( #308 ) ) ;
#715 = CARTESIAN_POINT ( 'NONE',  ( 4.784790355909025017, -0.4848001954996514762, -6.396423614163424531 ) ) ;
#716 = EDGE_CURVE ( 'NONE', #625, #346, #476, .T. ) ;
#717 = VERTEX_POINT ( 'NONE', #430 ) ;
#718 = AXIS2_PLACEMENT_3D ( 'NONE', #518, #685, #748 ) ;
#719 =( NAMED_UNIT ( * ) PLANE_ANGLE_UNIT ( ) SI_UNIT ( $, .RADIAN. ) );
#720 = CARTESIAN_POINT ( 'NONE',  ( -4.784790355909025017, -2.762500000000001954, -5.675000000000001599 ) ) ;
#721 = ORIENTED_EDGE ( 'NONE', *, *, #732, .F. ) ;
#722 = CARTESIAN_POINT ( 'NONE',  ( -4.031816185169122768, 3.197229840169519832, -0.07404728377636267400 ) ) ;
#723 = VECTOR ( 'NONE', #247, 1000.000000000000000 ) ;
#724 = DIRECTION ( 'NONE',  ( 1.000000000000000000, 0.000000000000000000, 0.000000000000000000 ) ) ;
#725 = CARTESIAN_POINT ( 'NONE',  ( 0.7529741707400204875, 5.090270159830414975, -0.07404728377633881808 ) ) ;
#726 = CARTESIAN_POINT ( 'NONE',  ( -1.572935393427701056, -4.616865327186630452, -6.343192011274848774 ) ) ;
#727 = PLANE ( 'NONE',  #68 ) ;
#728 = CARTESIAN_POINT ( 'NONE',  ( 4.409905280215534518, -2.978939999366811975, -0.1781471994267231629 ) ) ;
#729 = DIRECTION ( 'NONE',  ( 0.8660254037844388186, 0.4999999999999996114, 0.000000000000000000 ) ) ;
#730 = LINE ( 'NONE', #320, #229 ) ;
#731 = CONICAL_SURFACE ( 'NONE', #132, 5.000000000000000000, 1.047197551196600074 ) ;
#732 = EDGE_CURVE ( 'NONE', #106, #161, #742, .T. ) ;
#733 = CARTESIAN_POINT ( 'NONE',  ( 4.784790355909023241, 2.762500000000001954, -0.3031088913245521543 ) ) ;
#734 = CARTESIAN_POINT ( 'NONE',  ( -2.588214285714286245, 0.000000000000000000, 0.000000000000000000 ) ) ;
#735 = MECHANICAL_DESIGN_GEOMETRIC_PRESENTATION_REPRESENTATION (  '', ( #365 ), #560 ) ;
#736 = FILL_AREA_STYLE_COLOUR ( '', #129 ) ;
#737 = PLANE ( 'NONE',  #697 ) ;
#738 = EDGE_CURVE ( 'NONE', #333, #101, #608, .T. ) ;
#739 = EDGE_CURVE ( 'NONE', #101, #713, #439, .T. ) ;
#740 = ORIENTED_EDGE ( 'NONE', *, *, #272, .F. ) ;
#741 = EDGE_LOOP ( 'NONE', ( #166, #114, #310, #250, #164, #484, #335 ) ) ;
#742 = CIRCLE ( 'NONE', #641, 2.458750000000000213 ) ;
#743 = ORIENTED_EDGE ( 'NONE', *, *, #750, .F. ) ;
#744 = FACE_BOUND ( 'NONE', #458, .T. ) ;
#745 = ORIENTED_EDGE ( 'NONE', *, *, #155, .F. ) ;
#746 = EDGE_CURVE ( 'NONE', #576, #463, #226, .T. ) ;
#747 = ORIENTED_EDGE ( 'NONE', *, *, #569, .T. ) ;
#748 = DIRECTION ( 'NONE',  ( 1.000000000000000000, 0.000000000000000000, 0.000000000000000000 ) ) ;
#749 = ORIENTED_EDGE ( 'NONE', *, *, #706, .F. ) ;
#750 = EDGE_CURVE ( 'NONE', #675, #573, #645, .T. ) ;
#751 = FACE_OUTER_BOUND ( 'NONE', #593, .T. ) ;
#752 = STYLED_ITEM ( 'NONE', ( #618 ), #616 ) ;
#753 = CARTESIAN_POINT ( 'NONE',  ( 4.021545015791883948, -3.203159902574360451, -6.078274674138651967 ) ) ;
#754 = EDGE_LOOP ( 'NONE', ( #362, #95, #173, #523, #699, #527, #620 ) ) ;
#755 = ORIENTED_EDGE ( 'NONE', *, *, #111, .F. ) ;
#756 = AXIS2_PLACEMENT_3D ( 'NONE', #5, #759, #635 ) ;
#757 = CLOSED_SHELL ( 'NONE', ( #171, #711, #322, #120, #48, #669, #29, #330, #418, #193, #612, #616, #640, #34, #378, #58, #503, #275, #240, #555 ) ) ;
#758 = CARTESIAN_POINT ( 'NONE',  ( -3.649111509311745660, -3.418184487795904225, -0.000000000000000000 ) ) ;
#759 = DIRECTION ( 'NONE',  ( -0.000000000000000000, -0.000000000000000000, 1.000000000000000000 ) ) ;
#760 = ORIENTED_EDGE ( 'NONE', *, *, #595, .T. ) ;
#761 = LINE ( 'NONE', #596, #306 ) ;
#762 = B_SPLINE_CURVE_WITH_KNOTS ( 'NONE', 3,
 ( #209, #382, #656, #599, #368, #488, #436, #75 ),
 .UNSPECIFIED., .F., .F.,
 ( 4, 2, 2, 4 ),
 ( 0.005789691048330248245, 0.006504859626492402215, 0.007220028204654557052, 0.008650365360978864993 ),
 .UNSPECIFIED. ) ;
ENDSEC;
END-ISO-10303-21;
