ISO-10303-21;
HEADER;
FILE_DESCRIPTION (( 'STEP AP214' ),
    '1' );
FILE_NAME ('¾µÏò·ö´Ð.step',
    '2023-08-15T03:07:25',
    ( '' ),
    ( '' ),
    'SwSTEP 2.0',
    'SolidWorks 2022',
    '' );
FILE_SCHEMA (( 'AUTOMOTIVE_DESIGN' ));
ENDSEC;

DATA;
#1 = ORIENTED_EDGE ( 'NONE', *, *, #747, .T. ) ;
#2 = CARTESIAN_POINT ( 'NONE',  ( -82.21306779787954611, -4.251631097572422746, -4.969925394954037401 ) ) ;
#3 = CARTESIAN_POINT ( 'NONE',  ( 29.99999999999998934, -10.00000000000001599, -8.263400000000169499 ) ) ;
#4 = DIRECTION ( 'NONE',  ( 0.000000000000000000, 0.000000000000000000, 1.000000000000000000 ) ) ;
#5 = ORIENTED_EDGE ( 'NONE', *, *, #754, .F. ) ;
#6 = CARTESIAN_POINT ( 'NONE',  ( -73.93830074584424494, -7.263400000000030055, -8.263400000000062917 ) ) ;
#7 = DIRECTION ( 'NONE',  ( 0.000000000000000000, -7.065124121545599355E-15, -1.000000000000000000 ) ) ;
#8 = VECTOR ( 'NONE', #968, 1000.000000000000000 ) ;
#9 = ADVANCED_FACE ( 'NONE', ( #366 ), #669, .F. ) ;
#10 = VECTOR ( 'NONE', #736, 999.9999999999998863 ) ;
#11 = CARTESIAN_POINT ( 'NONE',  ( 29.99999999999999289, 3.556992370228188705, -11.00000000000008527 ) ) ;
#12 = ORIENTED_EDGE ( 'NONE', *, *, #933, .F. ) ;
#13 = DIRECTION ( 'NONE',  ( 0.3420201433256723211, 0.9396926207859072067, -2.304090018050247374E-15 ) ) ;
#14 = EDGE_LOOP ( 'NONE', ( #931, #148, #522, #283 ) ) ;
#15 = DIRECTION ( 'NONE',  ( -3.469446951953614189E-16, 1.000000000000000000, 0.000000000000000000 ) ) ;
#16 = DIRECTION ( 'NONE',  ( 0.000000000000000000, 0.000000000000000000, 1.000000000000000000 ) ) ;
#17 = ORIENTED_EDGE ( 'NONE', *, *, #953, .F. ) ;
#18 = ADVANCED_FACE ( 'NONE', ( #78 ), #680, .T. ) ;
#19 =( NAMED_UNIT ( * ) SI_UNIT ( $, .STERADIAN. ) SOLID_ANGLE_UNIT ( ) );
#20 = DIRECTION ( 'NONE',  ( 0.9396926207859067626, -0.3420201433256729873, 0.000000000000000000 ) ) ;
#21 = ORIENTED_EDGE ( 'NONE', *, *, #287, .T. ) ;
#22 = DIRECTION ( 'NONE',  ( 0.3420201433256723211, 0.9396926207859072067, -2.304090018050247374E-15 ) ) ;
#23 = ADVANCED_FACE ( 'NONE', ( #758 ), #344, .F. ) ;
#24 = CARTESIAN_POINT ( 'NONE',  ( -161.8225469307032540, 24.20753301780523259, 7.295694712533217441 ) ) ;
#25 = CARTESIAN_POINT ( 'NONE',  ( -78.27476705200196250, 6.568761272643672378, -4.969925394971535404 ) ) ;
#26 = FACE_OUTER_BOUND ( 'NONE', #624, .T. ) ;
#27 = EDGE_LOOP ( 'NONE', ( #336, #44, #658, #955 ) ) ;
#28 = PLANE ( 'NONE',  #915 ) ;
#29 = CARTESIAN_POINT ( 'NONE',  ( 29.99999999999998934, -7.263400000000031831, -8.999999999999939604 ) ) ;
#30 = ORIENTED_EDGE ( 'NONE', *, *, #519, .F. ) ;
#31 = CARTESIAN_POINT ( 'NONE',  ( -162.0912167992056538, 24.30532085278434096, 9.275152729539135166 ) ) ;
#32 = CARTESIAN_POINT ( 'NONE',  ( -30.00000000000000355, -8.000000000000000000, -0.7365999999999970349 ) ) ;
#33 = DIRECTION ( 'NONE',  ( 9.195367821350247611E-31, 6.904675311588638925E-15, 1.000000000000000000 ) ) ;
#34 = ADVANCED_FACE ( 'NONE', ( #221 ), #990, .T. ) ;
#35 = AXIS2_PLACEMENT_3D ( 'NONE', #356, #449, #653 ) ;
#36 = ORIENTED_EDGE ( 'NONE', *, *, #698, .T. ) ;
#37 = CARTESIAN_POINT ( 'NONE',  ( -157.7183052107951653, 35.48384446723611774, 7.295694712533140169 ) ) ;
#38 = AXIS2_PLACEMENT_3D ( 'NONE', #991, #162, #444 ) ;
#39 = CARTESIAN_POINT ( 'NONE',  ( -82.88854234709104674, -4.005778467655057185, -6.403491816067846010 ) ) ;
#40 = DIRECTION ( 'NONE',  ( -3.002032744168973188E-16, 1.000000000000000000, 0.000000000000000000 ) ) ;
#41 = ORIENTED_EDGE ( 'NONE', *, *, #227, .T. ) ;
#42 = CARTESIAN_POINT ( 'NONE',  ( -70.29252688756497491, 3.663463450024384560, -8.930986315931288999 ) ) ;
#43 = DIRECTION ( 'NONE',  ( -1.267794691205739560E-15, 0.000000000000000000, 1.000000000000000000 ) ) ;
#44 = ORIENTED_EDGE ( 'NONE', *, *, #92, .T. ) ;
#45 = FACE_OUTER_BOUND ( 'NONE', #256, .T. ) ;
#46 = ORIENTED_EDGE ( 'NONE', *, *, #395, .F. ) ;
#47 = LINE ( 'NONE', #585, #964 ) ;
#48 = ADVANCED_FACE ( 'NONE', ( #661 ), #671, .F. ) ;
#49 = PLANE ( 'NONE',  #511 ) ;
#50 = ORIENTED_EDGE ( 'NONE', *, *, #602, .T. ) ;
#51 = CARTESIAN_POINT ( 'NONE',  ( -115.8886773448041367, 20.25910501358314519, 15.74418468931948212 ) ) ;
#52 = VECTOR ( 'NONE', #361, 1000.000000000000114 ) ;
#53 = CIRCLE ( 'NONE', #186, 2.736600000000000588 ) ;
#54 = AXIS2_PLACEMENT_3D ( 'NONE', #236, #458, #160 ) ;
#55 = ORIENTED_EDGE ( 'NONE', *, *, #982, .T. ) ;
#56 = ADVANCED_FACE ( 'NONE', ( #289 ), #150, .T. ) ;
#57 = DIRECTION ( 'NONE',  ( 0.000000000000000000, -1.000000000000000000, 3.486435400815770477E-15 ) ) ;
#58 = AXIS2_PLACEMENT_3D ( 'NONE', #647, #562, #43 ) ;
#59 = FACE_OUTER_BOUND ( 'NONE', #180, .T. ) ;
#60 = VERTEX_POINT ( 'NONE', #745 ) ;
#61 = CARTESIAN_POINT ( 'NONE',  ( -74.23082763340920565, -7.156928920203849742, -8.930986315931225050 ) ) ;
#62 = ORIENTED_EDGE ( 'NONE', *, *, #916, .F. ) ;
#63 = DIRECTION ( 'NONE',  ( -0.9396926207859072067, 0.3420201433256719326, 0.000000000000000000 ) ) ;
#64 = EDGE_CURVE ( 'NONE', #360, #260, #587, .T. ) ;
#65 = ORIENTED_EDGE ( 'NONE', *, *, #202, .T. ) ;
#66 = ORIENTED_EDGE ( 'NONE', *, *, #446, .F. ) ;
#67 = CARTESIAN_POINT ( 'NONE',  ( -30.00000000000000355, -8.000000000000017764, -8.263400000000080681 ) ) ;
#68 = DIRECTION ( 'NONE',  ( -0.3420201433256721546, -0.9396926207859070956, 6.033938902194580853E-15 ) ) ;
#69 = CARTESIAN_POINT ( 'NONE',  ( 0.000000000000000000, 0.000000000000000000, 0.000000000000000000 ) ) ;
#70 = ORIENTED_EDGE ( 'NONE', *, *, #633, .T. ) ;
#71 = EDGE_LOOP ( 'NONE', ( #815, #965, #668, #429 ) ) ;
#72 = EDGE_CURVE ( 'NONE', #407, #402, #966, .T. ) ;
#73 = STYLED_ITEM ( 'NONE', ( #678 ), #91 ) ;
#74 = DIRECTION ( 'NONE',  ( 0.3971312619670972488, -0.1445439584525927412, 0.9063077870366534894 ) ) ;
#75 = VECTOR ( 'NONE', #412, 1000.000000000000000 ) ;
#76 = CARTESIAN_POINT ( 'NONE',  ( -72.04135997040630457, 26.22091066528493641, -6.773817382593312786 ) ) ;
#77 = VECTOR ( 'NONE', #588, 1000.000000000000000 ) ;
#78 = FACE_OUTER_BOUND ( 'NONE', #597, .T. ) ;
#79 = CARTESIAN_POINT ( 'NONE',  ( -30.00000000000001066, 10.00000000000000178, 0.000000000000000000 ) ) ;
#80 = PRODUCT ( '¾µÏò·ö´Ð', '¾µÏò·ö´Ð', '', ( #396 ) ) ;
#81 = ORIENTED_EDGE ( 'NONE', *, *, #803, .F. ) ;
#82 = CARTESIAN_POINT ( 'NONE',  ( -22.47638068709882120, -13.74019048426669976, -34.86575135976867301 ) ) ;
#83 = ADVANCED_FACE ( 'NONE', ( #370 ), #582, .T. ) ;
#84 = B_SPLINE_CURVE_WITH_KNOTS ( 'NONE', 2,
 ( #118, #51, #131 ),
 .UNSPECIFIED., .F., .F.,
 ( 3, 3 ),
 ( 0.0002303585414737796923, 1.000000000000000000 ),
 .UNSPECIFIED. ) ;
#85 = ORIENTED_EDGE ( 'NONE', *, *, #373, .T. ) ;
#86 = PLANE ( 'NONE',  #330 ) ;
#87 = VECTOR ( 'NONE', #252, 1000.000000000000000 ) ;
#88 = VECTOR ( 'NONE', #706, 1000.000000000000000 ) ;
#89 = ORIENTED_EDGE ( 'NONE', *, *, #446, .T. ) ;
#90 =( NAMED_UNIT ( * ) PLANE_ANGLE_UNIT ( ) SI_UNIT ( $, .RADIAN. ) );
#91 = MANIFOLD_SOLID_BREP ( '<·ö´Ð>-<Í¹Ì¨-À­Éì1>', #567 ) ;
#92 = EDGE_CURVE ( 'NONE', #265, #360, #896, .T. ) ;
#93 = ORIENTED_EDGE ( 'NONE', *, *, #544, .T. ) ;
#94 =( LENGTH_UNIT ( ) NAMED_UNIT ( * ) SI_UNIT ( .MILLI., .METRE. ) );
#95 = LINE ( 'NONE', #934, #570 ) ;
#96 = LINE ( 'NONE', #627, #307 ) ;
#97 = ORIENTED_EDGE ( 'NONE', *, *, #713, .T. ) ;
#98 = EDGE_CURVE ( 'NONE', #163, #316, #816, .T. ) ;
#99 = DIRECTION ( 'NONE',  ( -1.000000000000000000, -0.000000000000000000, 0.000000000000000000 ) ) ;
#100 = CARTESIAN_POINT ( 'NONE',  ( 29.99999999999999645, -8.000000000000000000, -0.7365999999999970349 ) ) ;
#101 = PLANE ( 'NONE',  #870 ) ;
#102 = DIRECTION ( 'NONE',  ( 1.000000000000000000, -1.251745119601279247E-16, 0.000000000000000000 ) ) ;
#103 = VECTOR ( 'NONE', #828, 1000.000000000000227 ) ;
#104 = B_SPLINE_SURFACE_WITH_KNOTS ( 'NONE', 2, 1, ( 
 ( #728, #577 ),
 ( #974, #514 ),
 ( #206, #438 ) ),
 .UNSPECIFIED., .F., .F., .F.,
 ( 3, 3 ),
 ( 2, 2 ),
 ( 0.000000000000000000, 1.000000000000000000 ),
 ( 0.000000000000000000, 1.000000000000000000 ),
 .UNSPECIFIED. ) ;
#105 = VECTOR ( 'NONE', #800, 1000.000000000000227 ) ;
#106 = EDGE_LOOP ( 'NONE', ( #600, #935, #479, #65 ) ) ;
#107 = VECTOR ( 'NONE', #623, 1000.000000000000000 ) ;
#108 = CARTESIAN_POINT ( 'NONE',  ( -119.9832191277842384, 8.979263075836222185, 15.74567522944520626 ) ) ;
#109 = CARTESIAN_POINT ( 'NONE',  ( 29.99999999999999645, -7.263399999999999856, 0.000000000000000000 ) ) ;
#110 = CARTESIAN_POINT ( 'NONE',  ( -162.0912167992056538, 24.30532085278434096, 9.275152729539135166 ) ) ;
#111 = CARTESIAN_POINT ( 'NONE',  ( -82.19573467200339678, -4.257939839458139808, -4.979472381382584523 ) ) ;
#112 = EDGE_LOOP ( 'NONE', ( #5, #232, #46, #892, #237 ) ) ;
#113 = CARTESIAN_POINT ( 'NONE',  ( -82.62777863345317542, -4.100688697595956000, -5.867509595556145818 ) ) ;
#114 = CARTESIAN_POINT ( 'NONE',  ( -30.00000000000000355, -7.263399999999999856, 8.673617379884035472E-16 ) ) ;
#115 = ADVANCED_FACE ( 'NONE', ( #832 ), #154, .T. ) ;
#116 = FACE_OUTER_BOUND ( 'NONE', #857, .T. ) ;
#117 = ORIENTED_EDGE ( 'NONE', *, *, #809, .T. ) ;
#118 = CARTESIAN_POINT ( 'NONE',  ( -78.27476705200196250, 6.568761272643672378, -4.969925394971535404 ) ) ;
#119 = DIRECTION ( 'NONE',  ( -1.000000000000000000, -0.000000000000000000, -1.177520686924250585E-15 ) ) ;
#120 = DIRECTION ( 'NONE',  ( 0.000000000000000000, 0.000000000000000000, 1.000000000000000000 ) ) ;
#121 = EDGE_LOOP ( 'NONE', ( #778, #157, #388, #799, #919, #70 ) ) ;
#122 = DIRECTION ( 'NONE',  ( -0.3971312619670971933, 0.1445439584525928245, -0.9063077870366533784 ) ) ;
#123 = AXIS2_PLACEMENT_3D ( 'NONE', #273, #962, #720 ) ;
#124 = ORIENTED_EDGE ( 'NONE', *, *, #727, .T. ) ;
#125 = LINE ( 'NONE', #902, #231 ) ;
#126 = VERTEX_POINT ( 'NONE', #113 ) ;
#127 = LINE ( 'NONE', #650, #348 ) ;
#128 = VERTEX_POINT ( 'NONE', #31 ) ;
#129 = CARTESIAN_POINT ( 'NONE',  ( -74.88601534585673392, -6.918460095015998235, -10.81261557407332496 ) ) ;
#130 = ORIENTED_EDGE ( 'NONE', *, *, #320, .F. ) ;
#131 = CARTESIAN_POINT ( 'NONE',  ( -157.9869750792975651, 35.58163230221522610, 9.275152729539058782 ) ) ;
#132 = EDGE_CURVE ( 'NONE', #353, #765, #246, .T. ) ;
#133 = ORIENTED_EDGE ( 'NONE', *, *, #846, .T. ) ;
#134 = CARTESIAN_POINT ( 'NONE',  ( 29.99999999999999645, -7.263399999999999856, -0.7365999999999995884 ) ) ;
#135 = CARTESIAN_POINT ( 'NONE',  ( -157.9869750792975651, 35.58163230221522610, 9.275152729539058782 ) ) ;
#136 = ORIENTED_EDGE ( 'NONE', *, *, #215, .T. ) ;
#137 = DIRECTION ( 'NONE',  ( 0.000000000000000000, -1.000000000000000000, 3.491481338843133355E-15 ) ) ;
#138 = AXIS2_PLACEMENT_3D ( 'NONE', #270, #345, #418 ) ;
#139 = VECTOR ( 'NONE', #481, 1000.000000000000000 ) ;
#140 = ORIENTED_EDGE ( 'NONE', *, *, #905, .T. ) ;
#141 = CARTESIAN_POINT ( 'NONE',  ( -14.63686898399480185, 5.327384633028147576, -33.05313578569550259 ) ) ;
#142 = CARTESIAN_POINT ( 'NONE',  ( -78.25743392615913763, 6.562452530770092274, -4.979472381382658241 ) ) ;
#143 = ORIENTED_EDGE ( 'NONE', *, *, #559, .F. ) ;
#144 = ORIENTED_EDGE ( 'NONE', *, *, #926, .F. ) ;
#145 = DIRECTION ( 'NONE',  ( 0.3971312619670972488, -0.1445439584525927412, 0.9063077870366534894 ) ) ;
#146 = CARTESIAN_POINT ( 'NONE',  ( -70.00000000000000000, 3.556992370228197586, -8.263400000000089562 ) ) ;
#147 = ADVANCED_FACE ( 'NONE', ( #686 ), #716, .T. ) ;
#148 = ORIENTED_EDGE ( 'NONE', *, *, #463, .T. ) ;
#149 = VERTEX_POINT ( 'NONE', #323 ) ;
#150 = PLANE ( 'NONE',  #35 ) ;
#151 = LINE ( 'NONE', #226, #475 ) ;
#152 = VERTEX_POINT ( 'NONE', #326 ) ;
#153 = VECTOR ( 'NONE', #890, 1000.000000000000000 ) ;
#154 = PLANE ( 'NONE',  #654 ) ;
#155 = AXIS2_PLACEMENT_3D ( 'NONE', #628, #872, #102 ) ;
#156 = CARTESIAN_POINT ( 'NONE',  ( 29.99999999999999645, -9.999999999999998224, 6.982962677686266711E-15 ) ) ;
#157 = ORIENTED_EDGE ( 'NONE', *, *, #620, .F. ) ;
#158 = EDGE_CURVE ( 'NONE', #617, #422, #635, .T. ) ;
#159 = CARTESIAN_POINT ( 'NONE',  ( -70.00000000000000000, 3.556992370228202471, -9.000000000000085265 ) ) ;
#160 = DIRECTION ( 'NONE',  ( -0.3420201433256722101, -0.9396926207859069846, -0.000000000000000000 ) ) ;
#161 = ADVANCED_FACE ( 'NONE', ( #471 ), #28, .F. ) ;
#162 = DIRECTION ( 'NONE',  ( 1.000000000000000000, 3.469446951953614189E-16, 0.000000000000000000 ) ) ;
#163 = VERTEX_POINT ( 'NONE', #936 ) ;
#164 = EDGE_CURVE ( 'NONE', #360, #715, #941, .T. ) ;
#165 = DIRECTION ( 'NONE',  ( 1.000000000000000000, 0.000000000000000000, 0.000000000000000000 ) ) ;
#166 = VECTOR ( 'NONE', #99, 1000.000000000000000 ) ;
#167 = DIRECTION ( 'NONE',  ( -1.000000000000000000, -0.000000000000000000, -0.000000000000000000 ) ) ;
#168 = VECTOR ( 'NONE', #7, 1000.000000000000000 ) ;
#169 = AXIS2_PLACEMENT_3D ( 'NONE', #288, #478, #616 ) ;
#170 = ORIENTED_EDGE ( 'NONE', *, *, #463, .F. ) ;
#171 = SURFACE_STYLE_USAGE ( .BOTH. , #759 ) ;
#172 = DIRECTION ( 'NONE',  ( -0.3420201433256730428, -0.9396926207859067626, 6.423897871976612983E-15 ) ) ;
#173 = DIRECTION ( 'NONE',  ( 0.9396926207859067626, -0.3420201433256730428, 0.000000000000000000 ) ) ;
#174 = EDGE_CURVE ( 'NONE', #804, #715, #473, .T. ) ;
#175 = ORIENTED_EDGE ( 'NONE', *, *, #64, .F. ) ;
#176 = PLANE ( 'NONE',  #456 ) ;
#177 = LINE ( 'NONE', #318, #274 ) ;
#178 = LINE ( 'NONE', #949, #775 ) ;
#179 = PLANE ( 'NONE',  #840 ) ;
#180 = EDGE_LOOP ( 'NONE', ( #419, #830, #309, #945, #970, #862 ) ) ;
#181 = DIRECTION ( 'NONE',  ( 0.000000000000000000, 0.000000000000000000, -1.000000000000000000 ) ) ;
#182 = LINE ( 'NONE', #391, #214 ) ;
#183 = PLANE ( 'NONE',  #349 ) ;
#184 = AXIS2_PLACEMENT_3D ( 'NONE', #676, #445, #761 ) ;
#185 = DIRECTION ( 'NONE',  ( 0.000000000000000000, 0.000000000000000000, -1.000000000000000000 ) ) ;
#186 = AXIS2_PLACEMENT_3D ( 'NONE', #410, #563, #718 ) ;
#187 = ORIENTED_EDGE ( 'NONE', *, *, #682, .F. ) ;
#188 = DIRECTION ( 'NONE',  ( -1.000000000000000000, 1.251745119601279247E-16, 5.524741976377271179E-32 ) ) ;
#189 = EDGE_CURVE ( 'NONE', #268, #765, #524, .T. ) ;
#190 = LINE ( 'NONE', #548, #723 ) ;
#191 = ORIENTED_EDGE ( 'NONE', *, *, #485, .T. ) ;
#192 = FACE_OUTER_BOUND ( 'NONE', #106, .T. ) ;
#193 = ORIENTED_EDGE ( 'NONE', *, *, #789, .T. ) ;
#194 = CARTESIAN_POINT ( 'NONE',  ( -83.22576356896708205, -4.399356634936334665, -6.755546809730303082 ) ) ;
#195 = ORIENTED_EDGE ( 'NONE', *, *, #338, .T. ) ;
#196 = PLANE ( 'NONE',  #722 ) ;
#197 = ORIENTED_EDGE ( 'NONE', *, *, #250, .F. ) ;
#198 = CARTESIAN_POINT ( 'NONE',  ( -82.36167564606721214, -4.713858918660789321, -4.979472381382580970 ) ) ;
#199 = CIRCLE ( 'NONE', #605, 2.736600000000000588 ) ;
#200 = DIRECTION ( 'NONE',  ( 1.177520686924250585E-15, 0.000000000000000000, -1.000000000000000000 ) ) ;
#201 = DIRECTION ( 'NONE',  ( 0.000000000000000000, 0.000000000000000000, 1.000000000000000000 ) ) ;
#202 = EDGE_CURVE ( 'NONE', #464, #360, #367, .T. ) ;
#203 = DIRECTION ( 'NONE',  ( 0.000000000000000000, 0.000000000000000000, 1.000000000000000000 ) ) ;
#204 = DIRECTION ( 'NONE',  ( -0.000000000000000000, -3.469446951953612611E-15, -1.000000000000000000 ) ) ;
#205 = DIRECTION ( 'NONE',  ( 0.000000000000000000, -1.000000000000000000, 3.469446951953612611E-15 ) ) ;
#206 = CARTESIAN_POINT ( 'NONE',  ( -83.22576356896708205, -4.399356634936334665, -6.755546809730303082 ) ) ;
#207 = ORIENTED_EDGE ( 'NONE', *, *, #953, .T. ) ;
#208 = CARTESIAN_POINT ( 'NONE',  ( -30.00000000000001066, 10.00000000000000178, 2.000000000000000000 ) ) ;
#209 = CARTESIAN_POINT ( 'NONE',  ( -30.00000000000000355, -7.999999999999998224, 3.469446951953612296E-14 ) ) ;
#210 = SURFACE_STYLE_FILL_AREA ( #517 ) ;
#211 = LINE ( 'NONE', #667, #8 ) ;
#212 = ORIENTED_EDGE ( 'NONE', *, *, #926, .T. ) ;
#213 = CARTESIAN_POINT ( 'NONE',  ( -30.00000000000000355, -8.000000000000017764, -8.263400000000080681 ) ) ;
#214 = VECTOR ( 'NONE', #472, 1000.000000000000000 ) ;
#215 = EDGE_CURVE ( 'NONE', #385, #128, #586, .T. ) ;
#216 =( LENGTH_UNIT ( ) NAMED_UNIT ( * ) SI_UNIT ( .MILLI., .METRE. ) );
#217 = CARTESIAN_POINT ( 'NONE',  ( -30.00000000000000355, -10.00000000000000000, -0.7365999999999900405 ) ) ;
#218 = ORIENTED_EDGE ( 'NONE', *, *, #989, .T. ) ;
#219 = ORIENTED_EDGE ( 'NONE', *, *, #512, .T. ) ;
#220 = ADVANCED_FACE ( 'NONE', ( #192 ), #710, .T. ) ;
#221 = FACE_OUTER_BOUND ( 'NONE', #545, .T. ) ;
#222 = CARTESIAN_POINT ( 'NONE',  ( 29.99999999999999645, -7.263400000000031831, -8.999999999999939604 ) ) ;
#223 = EDGE_LOOP ( 'NONE', ( #207, #773, #36, #411 ) ) ;
#224 = EDGE_LOOP ( 'NONE', ( #496, #972, #175, #887 ) ) ;
#225 = DIRECTION ( 'NONE',  ( -0.9159264990534696782, 0.000000000000000000, 0.4013460456160672374 ) ) ;
#226 = CARTESIAN_POINT ( 'NONE',  ( -78.29234662564195446, 6.575159714179719117, -4.961201808519861700 ) ) ;
#227 = EDGE_CURVE ( 'NONE', #881, #804, #868, .T. ) ;
#228 = VECTOR ( 'NONE', #767, 1000.000000000000000 ) ;
#229 = LINE ( 'NONE', #79, #166 ) ;
#230 = CARTESIAN_POINT ( 'NONE',  ( -73.93830074584427337, -7.263400000000019396, -11.00000000000001066 ) ) ;
#231 = VECTOR ( 'NONE', #421, 1000.000000000000000 ) ;
#232 = ORIENTED_EDGE ( 'NONE', *, *, #189, .F. ) ;
#233 = FACE_OUTER_BOUND ( 'NONE', #359, .T. ) ;
#234 = CARTESIAN_POINT ( 'NONE',  ( 29.99999999999999289, 3.556992370228188705, -11.00000000000008527 ) ) ;
#235 = ORIENTED_EDGE ( 'NONE', *, *, #453, .F. ) ;
#236 = CARTESIAN_POINT ( 'NONE',  ( -162.0912167992056538, 24.30532085278434096, 9.275152729539135166 ) ) ;
#237 = ORIENTED_EDGE ( 'NONE', *, *, #820, .T. ) ;
#238 = ADVANCED_FACE ( 'NONE', ( #374 ), #176, .T. ) ;
#239 = CYLINDRICAL_SURFACE ( 'NONE', #619, 0.7366000000000004766 ) ;
#240 = VECTOR ( 'NONE', #450, 1000.000000000000114 ) ;
#241 = ORIENTED_EDGE ( 'NONE', *, *, #578, .F. ) ;
#242 = CARTESIAN_POINT ( 'NONE',  ( -30.00000000000001066, 10.00000000000000178, 0.000000000000000000 ) ) ;
#243 = FACE_OUTER_BOUND ( 'NONE', #845, .T. ) ;
#244 = CARTESIAN_POINT ( 'NONE',  ( -161.8225469307032540, 24.20753301780523259, 7.295694712533217441 ) ) ;
#245 = ORIENTED_EDGE ( 'NONE', *, *, #453, .T. ) ;
#246 = LINE ( 'NONE', #408, #228 ) ;
#247 = LINE ( 'NONE', #466, #807 ) ;
#248 = DIRECTION ( 'NONE',  ( 1.000000000000000000, -1.251745119601279247E-16, -5.524741976377271179E-32 ) ) ;
#249 = PLANE ( 'NONE',  #457 ) ;
#250 = EDGE_CURVE ( 'NONE', #149, #533, #229, .T. ) ;
#251 = ORIENTED_EDGE ( 'NONE', *, *, #519, .T. ) ;
#252 = DIRECTION ( 'NONE',  ( 1.000000000000000000, -6.400829601191897214E-45, -9.195367821350247611E-31 ) ) ;
#253 = CARTESIAN_POINT ( 'NONE',  ( -82.62777863345317542, -4.100688697595959553, -5.867509595556144930 ) ) ;
#254 = CIRCLE ( 'NONE', #592, 0.7366000000000004766 ) ;
#255 = VECTOR ( 'NONE', #16, 1000.000000000000000 ) ;
#256 = EDGE_LOOP ( 'NONE', ( #89, #455, #30, #133 ) ) ;
#257 = CARTESIAN_POINT ( 'NONE',  ( 29.99999999999998934, -7.263400000000026502, -8.263399999999951007 ) ) ;
#258 = DIRECTION ( 'NONE',  ( 1.000000000000000000, -6.400829601191897214E-45, -9.195367821350247611E-31 ) ) ;
#259 = B_SPLINE_CURVE_WITH_KNOTS ( 'NONE', 2,
 ( #712, #324, #784 ),
 .UNSPECIFIED., .F., .F.,
 ( 3, 3 ),
 ( 0.000000000000000000, 1.000000000000000000 ),
 .UNSPECIFIED. ) ;
#260 = VERTEX_POINT ( 'NONE', #607 ) ;
#261 = DIRECTION ( 'NONE',  ( 0.3420201433256730428, 0.9396926207859067626, -6.423897871976612983E-15 ) ) ;
#262 = EDGE_CURVE ( 'NONE', #60, #715, #625, .T. ) ;
#263 = PLANE ( 'NONE',  #791 ) ;
#264 = LINE ( 'NONE', #794, #790 ) ;
#265 = VERTEX_POINT ( 'NONE', #2 ) ;
#266 = DIRECTION ( 'NONE',  ( 0.3420201433256723211, 0.9396926207859072067, -2.304090018050247374E-15 ) ) ;
#267 = DIRECTION ( 'NONE',  ( -1.267794691205739560E-15, 0.000000000000000000, 1.000000000000000000 ) ) ;
#268 = VERTEX_POINT ( 'NONE', #159 ) ;
#269 = ADVANCED_FACE ( 'NONE', ( #233 ), #528, .T. ) ;
#270 = CARTESIAN_POINT ( 'NONE',  ( 29.99999999999998934, -7.263400000000026502, -8.263399999999951007 ) ) ;
#271 = COLOUR_RGB ( '',0.2862745098039215508, 0.6627450980392156632, 0.3294117647058823484 ) ;
#272 = ORIENTED_EDGE ( 'NONE', *, *, #262, .F. ) ;
#273 = CARTESIAN_POINT ( 'NONE',  ( -70.00000000000000000, 3.556992370228197586, -8.263400000000089562 ) ) ;
#274 = VECTOR ( 'NONE', #172, 1000.000000000000227 ) ;
#275 = AXIS2_PLACEMENT_3D ( 'NONE', #829, #434, #284 ) ;
#276 = ORIENTED_EDGE ( 'NONE', *, *, #620, .T. ) ;
#277 = DIRECTION ( 'NONE',  ( 1.000000000000000000, 0.000000000000000000, 0.000000000000000000 ) ) ;
#278 = CARTESIAN_POINT ( 'NONE',  ( -78.68947788760884521, 6.719703672632240554, -5.867509595556052560 ) ) ;
#279 = EDGE_CURVE ( 'NONE', #903, #575, #702, .T. ) ;
#280 = EDGE_LOOP ( 'NONE', ( #219, #298, #940, #757 ) ) ;
#281 = CARTESIAN_POINT ( 'NONE',  ( -83.22576356896708205, -4.399356634936334665, -6.755546809730303082 ) ) ;
#282 = CARTESIAN_POINT ( 'NONE',  ( -30.00000000000000000, -7.263400000000024725, -11.00000000000001066 ) ) ;
#283 = ORIENTED_EDGE ( 'NONE', *, *, #331, .T. ) ;
#284 = DIRECTION ( 'NONE',  ( 1.267794691205739560E-15, -6.972870801631567776E-15, -1.000000000000000000 ) ) ;
#285 = ORIENTED_EDGE ( 'NONE', *, *, #834, .F. ) ;
#286 = DIRECTION ( 'NONE',  ( -0.3420201433256723211, -0.9396926207859070956, 2.304090018050247374E-15 ) ) ;
#287 = EDGE_CURVE ( 'NONE', #575, #372, #659, .T. ) ;
#288 = CARTESIAN_POINT ( 'NONE',  ( 0.000000000000000000, 0.000000000000000000, 2.000000000000000000 ) ) ;
#289 = FACE_OUTER_BOUND ( 'NONE', #71, .T. ) ;
#290 = CARTESIAN_POINT ( 'NONE',  ( -82.36167564606721214, -4.713858918660789321, -4.979472381382580970 ) ) ;
#291 = VERTEX_POINT ( 'NONE', #347 ) ;
#292 = ORIENTED_EDGE ( 'NONE', *, *, #754, .T. ) ;
#293 = AXIS2_PLACEMENT_3D ( 'NONE', #465, #394, #181 ) ;
#294 = VECTOR ( 'NONE', #185, 1000.000000000000000 ) ;
#295 = VECTOR ( 'NONE', #958, 1000.000000000000000 ) ;
#296 = CARTESIAN_POINT ( 'NONE',  ( 29.99999999999999645, -9.999999999999998224, 6.982962677686266711E-15 ) ) ;
#297 = ORIENTED_EDGE ( 'NONE', *, *, #820, .F. ) ;
#298 = ORIENTED_EDGE ( 'NONE', *, *, #886, .F. ) ;
#299 = CARTESIAN_POINT ( 'NONE',  ( 29.99999999999999289, -7.263400000000046042, -10.99999999999993960 ) ) ;
#300 = VERTEX_POINT ( 'NONE', #899 ) ;
#301 = CARTESIAN_POINT ( 'NONE',  ( -1.011490460348532912E-29, 3.556992370228202471, -9.000000000000085265 ) ) ;
#302 = EDGE_CURVE ( 'NONE', #260, #617, #971, .T. ) ;
#303 = APPLICATION_CONTEXT ( 'automotive_design' ) ;
#304 = ORIENTED_EDGE ( 'NONE', *, *, #424, .T. ) ;
#305 = AXIS2_PLACEMENT_3D ( 'NONE', #146, #824, #63 ) ;
#306 = CARTESIAN_POINT ( 'NONE',  ( -73.93830074584427337, -7.263400000000019396, -11.00000000000001066 ) ) ;
#307 = VECTOR ( 'NONE', #938, 1000.000000000000114 ) ;
#308 = DIRECTION ( 'NONE',  ( 0.8344820171424508493, -0.3037266152702784994, -0.4597715805074586437 ) ) ;
#309 = ORIENTED_EDGE ( 'NONE', *, *, #164, .F. ) ;
#310 = LINE ( 'NONE', #531, #168 ) ;
#311 = EDGE_CURVE ( 'NONE', #300, #530, #774, .T. ) ;
#312 = CYLINDRICAL_SURFACE ( 'NONE', #589, 0.7365999999999625070 ) ;
#313 = VERTEX_POINT ( 'NONE', #645 ) ;
#314 = CARTESIAN_POINT ( 'NONE',  ( 29.99999999999999645, -7.999999999999998224, 3.469446951953612296E-14 ) ) ;
#315 = AXIS2_PLACEMENT_3D ( 'NONE', #724, #325, #40 ) ;
#316 = VERTEX_POINT ( 'NONE', #37 ) ;
#317 = DIRECTION ( 'NONE',  ( -1.000000000000000000, -3.469446951953614189E-16, 0.000000000000000000 ) ) ;
#318 = CARTESIAN_POINT ( 'NONE',  ( -82.37900877194303462, -4.707550176775202821, -4.969925394953301101 ) ) ;
#319 = CARTESIAN_POINT ( 'NONE',  ( -82.19573467200339678, -4.257939839458139808, -4.979472381382584523 ) ) ;
#320 = EDGE_CURVE ( 'NONE', #300, #291, #494, .T. ) ;
#321 = DIRECTION ( 'NONE',  ( 0.8516507396391473916, -0.3099755192194525444, -0.4226182617406920583 ) ) ;
#322 = ORIENTED_EDGE ( 'NONE', *, *, #512, .F. ) ;
#323 = CARTESIAN_POINT ( 'NONE',  ( 29.99999999999998934, 10.00000000000000178, 0.000000000000000000 ) ) ;
#324 = CARTESIAN_POINT ( 'NONE',  ( -116.2040145803548796, 20.37387838107938975, 13.67872195315669615 ) ) ;
#325 = DIRECTION ( 'NONE',  ( 1.000000000000000000, 3.002032744168973188E-16, -2.089693465878399717E-30 ) ) ;
#326 = CARTESIAN_POINT ( 'NONE',  ( -30.00000000000000355, -7.263399999999985646, 2.000000000000000000 ) ) ;
#327 = CARTESIAN_POINT ( 'NONE',  ( -30.00000000000001066, 10.00000000000000178, 0.000000000000000000 ) ) ;
#328 = AXIS2_PLACEMENT_3D ( 'NONE', #6, #558, #874 ) ;
#329 = LINE ( 'NONE', #954, #930 ) ;
#330 = AXIS2_PLACEMENT_3D ( 'NONE', #156, #764, #375 ) ;
#331 = EDGE_CURVE ( 'NONE', #380, #152, #641, .T. ) ;
#332 = EDGE_LOOP ( 'NONE', ( #876, #975, #297, #376 ) ) ;
#333 = DIRECTION ( 'NONE',  ( 1.000000000000000000, -0.000000000000000000, -0.000000000000000000 ) ) ;
#334 = EDGE_CURVE ( 'NONE', #313, #380, #893, .T. ) ;
#335 = CARTESIAN_POINT ( 'NONE',  ( 29.99999999999999645, -7.263400000000026502, -8.263399999999951007 ) ) ;
#336 = ORIENTED_EDGE ( 'NONE', *, *, #540, .T. ) ;
#337 = CARTESIAN_POINT ( 'NONE',  ( 29.99999999999999289, 3.556992370228188705, -11.00000000000008527 ) ) ;
#338 = EDGE_CURVE ( 'NONE', #300, #385, #952, .T. ) ;
#339 = CARTESIAN_POINT ( 'NONE',  ( 29.99999999999998934, -7.263400000000026502, -8.263399999999951007 ) ) ;
#340 = CARTESIAN_POINT ( 'NONE',  ( -73.93830074584425915, -7.263400000000018508, -11.00000000000001066 ) ) ;
#341 = ORIENTED_EDGE ( 'NONE', *, *, #916, .T. ) ;
#342 = DIRECTION ( 'NONE',  ( 0.9396926207859069846, -0.3420201433256722656, 0.000000000000000000 ) ) ;
#343 = PRODUCT_RELATED_PRODUCT_CATEGORY ( 'part', '', ( #80 ) ) ;
#344 = PLANE ( 'NONE',  #534 ) ;
#345 = DIRECTION ( 'NONE',  ( -1.000000000000000000, -0.000000000000000000, -1.177520686924250585E-15 ) ) ;
#346 = ORIENTED_EDGE ( 'NONE', *, *, #358, .F. ) ;
#347 = CARTESIAN_POINT ( 'NONE',  ( -79.12152184905900754, 6.876954814494549595, -6.755546809730380353 ) ) ;
#348 = VECTOR ( 'NONE', #503, 1000.000000000000114 ) ;
#349 = AXIS2_PLACEMENT_3D ( 'NONE', #942, #697, #780 ) ;
#350 = CARTESIAN_POINT ( 'NONE',  ( 0.000000000000000000, -9.999999999999998224, 4.167743219722238967E-14 ) ) ;
#351 = DIRECTION ( 'NONE',  ( 0.000000000000000000, -6.960928290796745966E-15, -1.000000000000000000 ) ) ;
#352 = EDGE_CURVE ( 'NONE', #617, #469, #636, .T. ) ;
#353 = VERTEX_POINT ( 'NONE', #337 ) ;
#354 = CARTESIAN_POINT ( 'NONE',  ( -161.8225469307032540, 24.20753301780523259, 7.295694712533217441 ) ) ;
#355 = ORIENTED_EDGE ( 'NONE', *, *, #287, .F. ) ;
#356 = CARTESIAN_POINT ( 'NONE',  ( -30.00000000000000355, -10.00000000000003730, -11.00000000000000000 ) ) ;
#357 = DIRECTION ( 'NONE',  ( -1.000000000000000000, -0.000000000000000000, -0.000000000000000000 ) ) ;
#358 = EDGE_CURVE ( 'NONE', #128, #163, #730, .T. ) ;
#359 = EDGE_LOOP ( 'NONE', ( #416, #729, #17, #191 ) ) ;
#360 = VERTEX_POINT ( 'NONE', #61 ) ;
#361 = DIRECTION ( 'NONE',  ( 0.1343349342512038802, -0.04889391748955428108, -0.9897290085029585294 ) ) ;
#362 = CARTESIAN_POINT ( 'NONE',  ( -79.08660914957614807, 6.864247631084906764, -6.773817382593170677 ) ) ;
#363 = APPLICATION_PROTOCOL_DEFINITION ( 'draft international standard', 'automotive_design', 1998, #303 ) ;
#364 = ORIENTED_EDGE ( 'NONE', *, *, #569, .T. ) ;
#365 = UNCERTAINTY_MEASURE_WITH_UNIT (LENGTH_MEASURE( 1.000000000000000082E-05 ), #94, 'distance_accuracy_value', 'NONE');
#366 = FACE_OUTER_BOUND ( 'NONE', #526, .T. ) ;
#367 = CIRCLE ( 'NONE', #328, 0.7365999999999611747 ) ;
#368 = ADVANCED_FACE ( 'NONE', ( #976 ), #665, .F. ) ;
#369 = VECTOR ( 'NONE', #461, 1000.000000000000000 ) ;
#370 = FACE_OUTER_BOUND ( 'NONE', #27, .T. ) ;
#371 = APPLICATION_PROTOCOL_DEFINITION ( 'draft international standard', 'automotive_design', 1998, #889 ) ;
#372 = VERTEX_POINT ( 'NONE', #956 ) ;
#373 = EDGE_CURVE ( 'NONE', #634, #452, #47, .T. ) ;
#374 = FACE_OUTER_BOUND ( 'NONE', #223, .T. ) ;
#375 = DIRECTION ( 'NONE',  ( 0.000000000000000000, 0.000000000000000000, 1.000000000000000000 ) ) ;
#376 = ORIENTED_EDGE ( 'NONE', *, *, #415, .F. ) ;
#377 = DIRECTION ( 'NONE',  ( 1.177520686924250585E-15, 0.000000000000000000, -1.000000000000000000 ) ) ;
#378 = FACE_OUTER_BOUND ( 'NONE', #224, .T. ) ;
#379 = CYLINDRICAL_SURFACE ( 'NONE', #492, 0.7365999999999900405 ) ;
#380 = VERTEX_POINT ( 'NONE', #208 ) ;
#381 =( GEOMETRIC_REPRESENTATION_CONTEXT ( 3 ) GLOBAL_UNCERTAINTY_ASSIGNED_CONTEXT ( ( #756 ) ) GLOBAL_UNIT_ASSIGNED_CONTEXT ( ( #216, #837, #909 ) ) REPRESENTATION_CONTEXT ( 'NONE', 'WORKASPACE' ) );
#382 = CIRCLE ( 'NONE', #414, 0.7366000000000004766 ) ;
#383 = LINE ( 'NONE', #76, #772 ) ;
#384 = ADVANCED_FACE ( 'NONE', ( #423 ), #726, .T. ) ;
#385 = VERTEX_POINT ( 'NONE', #198 ) ;
#386 = DIRECTION ( 'NONE',  ( -1.000000000000000000, 1.251745119601279247E-16, 5.524741976377271179E-32 ) ) ;
#387 = PLANE ( 'NONE',  #169 ) ;
#388 = ORIENTED_EDGE ( 'NONE', *, *, #338, .F. ) ;
#389 = SURFACE_STYLE_FILL_AREA ( #927 ) ;
#390 = ADVANCED_BREP_SHAPE_REPRESENTATION ( '¾µÏò·ö´Ð', ( #91, #401 ), #948 ) ;
#391 = CARTESIAN_POINT ( 'NONE',  ( -70.00000000000000000, 3.556992370228188705, -11.00000000000008527 ) ) ;
#392 = DIRECTION ( 'NONE',  ( 0.1343349342512038802, -0.04889391748955428108, -0.9897290085029585294 ) ) ;
#393 = ORIENTED_EDGE ( 'NONE', *, *, #250, .T. ) ;
#394 = DIRECTION ( 'NONE',  ( -1.000000000000000000, 0.000000000000000000, 0.000000000000000000 ) ) ;
#395 = EDGE_CURVE ( 'NONE', #464, #268, #127, .T. ) ;
#396 = PRODUCT_CONTEXT ( 'NONE', #889, 'mechanical' ) ;
#397 = LINE ( 'NONE', #404, #947 ) ;
#398 = CARTESIAN_POINT ( 'NONE',  ( -30.00000000000000355, -10.00000000000000000, -0.7365999999999899295 ) ) ;
#399 = VECTOR ( 'NONE', #882, 1000.000000000000114 ) ;
#400 = CARTESIAN_POINT ( 'NONE',  ( -71.08678941149918273, 3.952551366929564214, -10.74360189000459620 ) ) ;
#401 = AXIS2_PLACEMENT_3D ( 'NONE', #69, #4, #684 ) ;
#402 = VERTEX_POINT ( 'NONE', #819 ) ;
#403 = DIRECTION ( 'NONE',  ( 3.469446951953614189E-16, -1.000000000000000000, 0.000000000000000000 ) ) ;
#404 = CARTESIAN_POINT ( 'NONE',  ( 29.99999999999998934, -8.000000000000017764, -8.263400000000009626 ) ) ;
#405 = DIRECTION ( 'NONE',  ( 3.469446951953614189E-16, -1.000000000000000000, 0.000000000000000000 ) ) ;
#406 = CARTESIAN_POINT ( 'NONE',  ( -82.20440111590431798, -4.254785511841265411, -4.974698166598043869 ) ) ;
#407 = VERTEX_POINT ( 'NONE', #213 ) ;
#408 = CARTESIAN_POINT ( 'NONE',  ( 29.99999999999999289, 3.556992370228188705, -11.00000000000008527 ) ) ;
#409 = CARTESIAN_POINT ( 'NONE',  ( 29.99999999999998934, 10.00000000000000178, 2.000000000000000000 ) ) ;
#410 = CARTESIAN_POINT ( 'NONE',  ( 29.99999999999999645, -7.263399999999999856, -0.7365999999999995884 ) ) ;
#411 = ORIENTED_EDGE ( 'NONE', *, *, #933, .T. ) ;
#412 = DIRECTION ( 'NONE',  ( 3.469446951953614189E-16, -1.000000000000000000, 0.000000000000000000 ) ) ;
#413 = DIRECTION ( 'NONE',  ( 0.000000000000000000, 1.000000000000000000, -6.904675311588638925E-15 ) ) ;
#414 = AXIS2_PLACEMENT_3D ( 'NONE', #521, #914, #683 ) ;
#415 = EDGE_CURVE ( 'NONE', #407, #509, #853, .T. ) ;
#416 = ORIENTED_EDGE ( 'NONE', *, *, #841, .T. ) ;
#417 = CARTESIAN_POINT ( 'NONE',  ( -30.00000000000001066, 10.00000000000000178, 2.000000000000000000 ) ) ;
#418 = DIRECTION ( 'NONE',  ( 0.000000000000000000, 0.000000000000000000, 1.000000000000000000 ) ) ;
#419 = ORIENTED_EDGE ( 'NONE', *, *, #566, .F. ) ;
#420 = CARTESIAN_POINT ( 'NONE',  ( -83.22576356896708205, -4.399356634936334665, -6.755546809730303082 ) ) ;
#421 = DIRECTION ( 'NONE',  ( -3.469446951953614189E-16, 1.000000000000000000, 0.000000000000000000 ) ) ;
#422 = VERTEX_POINT ( 'NONE', #814 ) ;
#423 = FACE_OUTER_BOUND ( 'NONE', #435, .T. ) ;
#424 = EDGE_CURVE ( 'NONE', #895, #163, #84, .T. ) ;
#425 = LINE ( 'NONE', #39, #10 ) ;
#426 = ORIENTED_EDGE ( 'NONE', *, *, #989, .F. ) ;
#427 = CYLINDRICAL_SURFACE ( 'NONE', #275, 2.736599999999989929 ) ;
#428 = AXIS2_PLACEMENT_3D ( 'NONE', #811, #286, #342 ) ;
#429 = ORIENTED_EDGE ( 'NONE', *, *, #849, .T. ) ;
#430 = DIRECTION ( 'NONE',  ( -1.000000000000000000, -0.000000000000000000, 0.000000000000000000 ) ) ;
#431 = AXIS2_PLACEMENT_3D ( 'NONE', #129, #518, #885 ) ;
#432 = ORIENTED_EDGE ( 'NONE', *, *, #424, .F. ) ;
#433 = FILL_AREA_STYLE_COLOUR ( '', #271 ) ;
#434 = DIRECTION ( 'NONE',  ( 1.000000000000000000, 0.000000000000000000, 1.177520686924250585E-15 ) ) ;
#435 = EDGE_LOOP ( 'NONE', ( #62, #769, #81, #795 ) ) ;
#436 = VERTEX_POINT ( 'NONE', #735 ) ;
#437 = CARTESIAN_POINT ( 'NONE',  ( -157.9869750792975651, 35.58163230221522610, 9.275152729539058782 ) ) ;
#438 = CARTESIAN_POINT ( 'NONE',  ( -79.12152184905900754, 6.876954814494544266, -6.755546809730380353 ) ) ;
#439 = EDGE_CURVE ( 'NONE', #422, #60, #383, .T. ) ;
#440 = ADVANCED_FACE ( 'NONE', ( #611 ), #850, .T. ) ;
#441 = ORIENTED_EDGE ( 'NONE', *, *, #311, .T. ) ;
#442 = ORIENTED_EDGE ( 'NONE', *, *, #789, .F. ) ;
#443 = SURFACE_STYLE_USAGE ( .BOTH. , #505 ) ;
#444 = DIRECTION ( 'NONE',  ( -3.469446951953614189E-16, 1.000000000000000000, 0.000000000000000000 ) ) ;
#445 = DIRECTION ( 'NONE',  ( 0.000000000000000000, -1.000000000000000000, 3.469446951953612611E-15 ) ) ;
#446 = EDGE_CURVE ( 'NONE', #515, #402, #608, .T. ) ;
#447 = VECTOR ( 'NONE', #15, 1000.000000000000000 ) ;
#448 = VECTOR ( 'NONE', #392, 1000.000000000000114 ) ;
#449 = DIRECTION ( 'NONE',  ( -1.000000000000000000, 0.000000000000000000, 0.000000000000000000 ) ) ;
#450 = DIRECTION ( 'NONE',  ( -0.3971312619670971378, 0.1445439584525927967, -0.9063077870366533784 ) ) ;
#451 = DIRECTION ( 'NONE',  ( -1.000000000000000000, -0.000000000000000000, -1.177520686924250585E-15 ) ) ;
#452 = VERTEX_POINT ( 'NONE', #299 ) ;
#453 = EDGE_CURVE ( 'NONE', #353, #452, #615, .T. ) ;
#454 = DIRECTION ( 'NONE',  ( -0.3971312619671032440, 0.1445439584525956278, -0.9063077870366503808 ) ) ;
#455 = ORIENTED_EDGE ( 'NONE', *, *, #886, .T. ) ;
#456 = AXIS2_PLACEMENT_3D ( 'NONE', #480, #317, #403 ) ;
#457 = AXIS2_PLACEMENT_3D ( 'NONE', #802, #33, #413 ) ;
#458 = DIRECTION ( 'NONE',  ( -0.9300410458679825298, 0.3385072573417574060, -0.1429562510971472133 ) ) ;
#459 = ADVANCED_FACE ( 'NONE', ( #696 ), #239, .F. ) ;
#460 = EDGE_LOOP ( 'NONE', ( #867, #364, #187, #355 ) ) ;
#461 = DIRECTION ( 'NONE',  ( -0.000000000000000000, 3.469446951953612611E-15, 1.000000000000000000 ) ) ;
#462 = FILL_AREA_STYLE_COLOUR ( '', #638 ) ;
#463 = EDGE_CURVE ( 'NONE', #436, #313, #847, .T. ) ;
#464 = VERTEX_POINT ( 'NONE', #770 ) ;
#465 = CARTESIAN_POINT ( 'NONE',  ( -30.00000000000000355, -7.263399999999999856, -0.7365999999999995884 ) ) ;
#466 = CARTESIAN_POINT ( 'NONE',  ( -79.12152184905900754, 6.876954814494549595, -6.755546809730380353 ) ) ;
#467 = CARTESIAN_POINT ( 'NONE',  ( -73.93830074584425915, -7.263400000000018508, -11.00000000000009592 ) ) ;
#468 = CARTESIAN_POINT ( 'NONE',  ( -83.02490989542039301, -3.956144739143315991, -6.773817382593096070 ) ) ;
#469 = VERTEX_POINT ( 'NONE', #924 ) ;
#470 = ADVANCED_FACE ( 'NONE', ( #378 ), #312, .F. ) ;
#471 = FACE_OUTER_BOUND ( 'NONE', #695, .T. ) ;
#472 = DIRECTION ( 'NONE',  ( -3.944304526105059027E-31, 6.960928290796745966E-15, 1.000000000000000000 ) ) ;
#473 = CIRCLE ( 'NONE', #507, 2.736599999999961952 ) ;
#474 = LINE ( 'NONE', #114, #255 ) ;
#475 = VECTOR ( 'NONE', #692, 1000.000000000000227 ) ;
#476 = CARTESIAN_POINT ( 'NONE',  ( -30.00000000000000355, -7.263399999999999856, -0.7365999999999995884 ) ) ;
#477 = VECTOR ( 'NONE', #405, 1000.000000000000000 ) ;
#478 = DIRECTION ( 'NONE',  ( 0.000000000000000000, 0.000000000000000000, -1.000000000000000000 ) ) ;
#479 = ORIENTED_EDGE ( 'NONE', *, *, #905, .F. ) ;
#480 = CARTESIAN_POINT ( 'NONE',  ( -30.00000000000001066, 10.00000000000000178, 2.000000000000000000 ) ) ;
#481 = DIRECTION ( 'NONE',  ( 0.000000000000000000, 0.000000000000000000, -1.000000000000000000 ) ) ;
#482 = PLANE ( 'NONE',  #315 ) ;
#483 = ORIENTED_EDGE ( 'NONE', *, *, #803, .T. ) ;
#484 = DIRECTION ( 'NONE',  ( 0.9396926207859069846, -0.3420201433256722656, 0.000000000000000000 ) ) ;
#485 = EDGE_CURVE ( 'NONE', #541, #903, #382, .T. ) ;
#486 = FACE_OUTER_BOUND ( 'NONE', #332, .T. ) ;
#487 = ORIENTED_EDGE ( 'NONE', *, *, #969, .T. ) ;
#488 = CARTESIAN_POINT ( 'NONE',  ( -70.00000000000000000, 3.556992370228198030, -8.263400000000089562 ) ) ;
#489 = CARTESIAN_POINT ( 'NONE',  ( -30.00000000000000355, -7.263400000000026502, -8.263400000000022061 ) ) ;
#490 = ORIENTED_EDGE ( 'NONE', *, *, #698, .F. ) ;
#491 = CARTESIAN_POINT ( 'NONE',  ( -83.22576356896708205, -4.399356634936334665, -6.755546809730303082 ) ) ;
#492 = AXIS2_PLACEMENT_3D ( 'NONE', #335, #798, #688 ) ;
#493 = ORIENTED_EDGE ( 'NONE', *, *, #614, .F. ) ;
#494 = LINE ( 'NONE', #281, #105 ) ;
#495 = DIRECTION ( 'NONE',  ( 0.3971312619670972488, -0.1445439584525928522, 0.9063077870366533784 ) ) ;
#496 = ORIENTED_EDGE ( 'NONE', *, *, #395, .T. ) ;
#497 = DIRECTION ( 'NONE',  ( 1.000000000000000000, 0.000000000000000000, 1.177520686924250585E-15 ) ) ;
#498 = EDGE_CURVE ( 'NONE', #260, #895, #151, .T. ) ;
#499 = EDGE_LOOP ( 'NONE', ( #195, #136, #218, #640 ) ) ;
#500 = DIRECTION ( 'NONE',  ( -0.9159264990534696782, 0.000000000000000000, 0.4013460456160672374 ) ) ;
#501 = CARTESIAN_POINT ( 'NONE',  ( -162.0912167992056538, 24.30532085278434096, 9.275152729539135166 ) ) ;
#502 = EDGE_LOOP ( 'NONE', ( #842, #130, #441, #591 ) ) ;
#503 = DIRECTION ( 'NONE',  ( 0.3420201433256737644, 0.9396926207859064295, -6.488272439222473026E-15 ) ) ;
#504 = PRODUCT_DEFINITION ( 'Î´Öª', '', #967, #572 ) ;
#505 = SURFACE_SIDE_STYLE ('',( #210 ) ) ;
#506 = LINE ( 'NONE', #891, #689 ) ;
#507 = AXIS2_PLACEMENT_3D ( 'NONE', #946, #22, #681 ) ;
#508 = VECTOR ( 'NONE', #261, 1000.000000000000227 ) ;
#509 = VERTEX_POINT ( 'NONE', #687 ) ;
#510 = ORIENTED_EDGE ( 'NONE', *, *, #485, .F. ) ;
#511 = AXIS2_PLACEMENT_3D ( 'NONE', #662, #655, #351 ) ;
#512 = EDGE_CURVE ( 'NONE', #509, #881, #310, .T. ) ;
#513 = ADVANCED_FACE ( 'NONE', ( #838 ), #86, .T. ) ;
#514 = CARTESIAN_POINT ( 'NONE',  ( -116.2040145803548796, 20.37387838107938265, 13.67872195315669615 ) ) ;
#515 = VERTEX_POINT ( 'NONE', #3 ) ;
#516 = ORIENTED_EDGE ( 'NONE', *, *, #677, .F. ) ;
#517 = FILL_AREA_STYLE ('',( #433 ) ) ;
#518 = DIRECTION ( 'NONE',  ( 0.3420201433256737089, 0.9396926207859066515, -6.722053469410129069E-15 ) ) ;
#519 = EDGE_CURVE ( 'NONE', #452, #881, #776, .T. ) ;
#520 = ORIENTED_EDGE ( 'NONE', *, *, #982, .F. ) ;
#521 = CARTESIAN_POINT ( 'NONE',  ( -30.00000000000000355, -7.263399999999999856, -0.7365999999999995884 ) ) ;
#522 = ORIENTED_EDGE ( 'NONE', *, *, #334, .T. ) ;
#523 = VECTOR ( 'NONE', #928, 1000.000000000000000 ) ;
#524 = LINE ( 'NONE', #301, #87 ) ;
#525 = FACE_OUTER_BOUND ( 'NONE', #571, .T. ) ;
#526 = EDGE_LOOP ( 'NONE', ( #854, #581, #651, #701 ) ) ;
#527 = ADVANCED_FACE ( 'NONE', ( #525 ), #844, .T. ) ;
#528 = PLANE ( 'NONE',  #293 ) ;
#529 = CARTESIAN_POINT ( 'NONE',  ( 29.99999999999999645, -10.00000000000001599, -8.263400000000167722 ) ) ;
#530 = VERTEX_POINT ( 'NONE', #24 ) ;
#531 = CARTESIAN_POINT ( 'NONE',  ( -30.00000000000000355, -7.263400000000031831, -9.000000000000010658 ) ) ;
#532 = LINE ( 'NONE', #793, #606 ) ;
#533 = VERTEX_POINT ( 'NONE', #242 ) ;
#534 = AXIS2_PLACEMENT_3D ( 'NONE', #134, #977, #666 ) ;
#535 = VECTOR ( 'NONE', #122, 1000.000000000000227 ) ;
#536 = EDGE_CURVE ( 'NONE', #291, #744, #247, .T. ) ;
#537 = PRESENTATION_LAYER_ASSIGNMENT (  '', '', ( #855 ) ) ;
#538 = PLANE ( 'NONE',  #656 ) ;
#539 = LINE ( 'NONE', #467, #107 ) ;
#540 = EDGE_CURVE ( 'NONE', #895, #265, #177, .T. ) ;
#541 = VERTEX_POINT ( 'NONE', #699 ) ;
#542 = DIRECTION ( 'NONE',  ( -1.000000000000000000, -0.000000000000000000, -1.177520686924250585E-15 ) ) ;
#543 = DIRECTION ( 'NONE',  ( 0.4825684893382677920, 0.000000000000000000, 0.8758582380144530610 ) ) ;
#544 = EDGE_CURVE ( 'NONE', #912, #575, #859, .T. ) ;
#545 = EDGE_LOOP ( 'NONE', ( #117, #825, #644, #66 ) ) ;
#546 = CARTESIAN_POINT ( 'NONE',  ( -162.0912167992056538, 24.30532085278434096, 9.275152729539135166 ) ) ;
#547 = LINE ( 'NONE', #864, #88 ) ;
#548 = CARTESIAN_POINT ( 'NONE',  ( -30.00000000000000355, -10.00000000000003730, -11.00000000000000000 ) ) ;
#549 = LINE ( 'NONE', #866, #294 ) ;
#550 = ORIENTED_EDGE ( 'NONE', *, *, #682, .T. ) ;
#551 = DIRECTION ( 'NONE',  ( 0.000000000000000000, 1.000000000000000000, -6.904675311588638925E-15 ) ) ;
#552 = CIRCLE ( 'NONE', #138, 0.7365999999999900405 ) ;
#553 = FACE_OUTER_BOUND ( 'NONE', #988, .T. ) ;
#554 = PRODUCT_DEFINITION_SHAPE ( 'NONE', 'NONE',  #504 ) ;
#555 = AXIS2_PLACEMENT_3D ( 'NONE', #339, #119, #267 ) ;
#556 = FACE_OUTER_BOUND ( 'NONE', #725, .T. ) ;
#557 = EDGE_LOOP ( 'NONE', ( #124, #241, #981, #810 ) ) ;
#558 = DIRECTION ( 'NONE',  ( 0.3420201433256723211, 0.9396926207859072067, -2.304090018050247374E-15 ) ) ;
#559 = EDGE_CURVE ( 'NONE', #912, #515, #397, .T. ) ;
#560 = ORIENTED_EDGE ( 'NONE', *, *, #957, .F. ) ;
#561 = DIRECTION ( 'NONE',  ( -2.089693465878399717E-30, 2.615763597375969083E-46, -1.000000000000000000 ) ) ;
#562 = DIRECTION ( 'NONE',  ( 1.000000000000000000, 0.000000000000000000, 1.177520686924250585E-15 ) ) ;
#563 = DIRECTION ( 'NONE',  ( -1.000000000000000000, -0.000000000000000000, -0.000000000000000000 ) ) ;
#564 = ORIENTED_EDGE ( 'NONE', *, *, #334, .F. ) ;
#565 = DIRECTION ( 'NONE',  ( -0.3971312619670979704, 0.1445439584525957388, -0.9063077870366527122 ) ) ;
#566 = EDGE_CURVE ( 'NONE', #60, #126, #626, .T. ) ;
#567 = CLOSED_SHELL ( 'NONE', ( #513, #34, #9, #440, #894, #911, #238, #115, #269, #23, #18, #459, #56, #879, #161, #801, #613, #670, #646, #147, #835, #652, #220, #368, #384, #470, #923, #827, #48, #83, #694, #777, #693, #762, #527, #593 ) ) ;
#568 = PLANE ( 'NONE',  #431 ) ;
#569 = EDGE_CURVE ( 'NONE', #584, #436, #547, .T. ) ;
#570 = VECTOR ( 'NONE', #542, 1000.000000000000000 ) ;
#571 = EDGE_LOOP ( 'NONE', ( #709, #516, #426, #719 ) ) ;
#572 = PRODUCT_DEFINITION_CONTEXT ( 'detailed design', #303, 'design' ) ;
#573 = CARTESIAN_POINT ( 'NONE',  ( -30.00000000000000355, -8.000000000000000000, -0.7365999999999970349 ) ) ;
#574 = LINE ( 'NONE', #209, #621 ) ;
#575 = VERTEX_POINT ( 'NONE', #100 ) ;
#576 = DIRECTION ( 'NONE',  ( 0.000000000000000000, 3.469446951953612611E-15, 1.000000000000000000 ) ) ;
#577 = CARTESIAN_POINT ( 'NONE',  ( -157.7183052107951653, 35.48384446723611063, 7.295694712533140169 ) ) ;
#578 = EDGE_CURVE ( 'NONE', #469, #268, #182, .T. ) ;
#579 = EDGE_LOOP ( 'NONE', ( #393, #490, #564, #212 ) ) ;
#580 = CARTESIAN_POINT ( 'NONE',  ( -30.00000000000001066, 10.00000000000000178, 2.000000000000000000 ) ) ;
#581 = ORIENTED_EDGE ( 'NONE', *, *, #849, .F. ) ;
#582 = PLANE ( 'NONE',  #673 ) ;
#583 = FACE_OUTER_BOUND ( 'NONE', #925, .T. ) ;
#584 = VERTEX_POINT ( 'NONE', #109 ) ;
#585 = CARTESIAN_POINT ( 'NONE',  ( 29.99999999999998579, -7.263400000000032719, -9.000000000000010658 ) ) ;
#586 = B_SPLINE_CURVE_WITH_KNOTS ( 'NONE', 2,
 ( #796, #108, #546 ),
 .UNSPECIFIED., .F., .F.,
 ( 3, 3 ),
 ( 0.000000000000000000, 1.000000000000000000 ),
 .UNSPECIFIED. ) ;
#587 = LINE ( 'NONE', #983, #153 ) ;
#588 = DIRECTION ( 'NONE',  ( 0.000000000000000000, 3.469446951953612611E-15, 1.000000000000000000 ) ) ;
#589 = AXIS2_PLACEMENT_3D ( 'NONE', #833, #13, #454 ) ;
#590 = ORIENTED_EDGE ( 'NONE', *, *, #158, .F. ) ;
#591 = ORIENTED_EDGE ( 'NONE', *, *, #677, .T. ) ;
#592 = AXIS2_PLACEMENT_3D ( 'NONE', #752, #357, #201 ) ;
#593 = ADVANCED_FACE ( 'NONE', ( #711 ), #538, .T. ) ;
#594 = CARTESIAN_POINT ( 'NONE',  ( -15.43113150792899724, 5.616472549933333447, -34.86575135976880802 ) ) ;
#595 = CARTESIAN_POINT ( 'NONE',  ( -119.9832191277842384, 8.979263075836222185, 15.74567522944520626 ) ) ;
#596 = ORIENTED_EDGE ( 'NONE', *, *, #540, .F. ) ;
#597 = EDGE_LOOP ( 'NONE', ( #836, #755, #50, #550 ) ) ;
#598 = EDGE_CURVE ( 'NONE', #912, #407, #95, .T. ) ;
#599 = CARTESIAN_POINT ( 'NONE',  ( 29.99999999999999645, -7.263399999999999856, -0.7365999999999995884 ) ) ;
#600 = ORIENTED_EDGE ( 'NONE', *, *, #164, .T. ) ;
#601 = DIRECTION ( 'NONE',  ( -0.8516507396391473916, 0.3099755192194523223, 0.4226182617406918918 ) ) ;
#602 = EDGE_CURVE ( 'NONE', #961, #372, #329, .T. ) ;
#603 = UNCERTAINTY_MEASURE_WITH_UNIT (LENGTH_MEASURE( 1.000000000000000082E-05 ), #631, 'distance_accuracy_value', 'NONE');
#604 = AXIS2_PLACEMENT_3D ( 'NONE', #488, #266, #565 ) ;
#605 = AXIS2_PLACEMENT_3D ( 'NONE', #476, #808, #120 ) ;
#606 = VECTOR ( 'NONE', #167, 1000.000000000000000 ) ;
#607 = CARTESIAN_POINT ( 'NONE',  ( -70.29252688756496070, 3.663463450024376122, -8.930986315931251696 ) ) ;
#608 = LINE ( 'NONE', #529, #674 ) ;
#609 = LINE ( 'NONE', #253, #869 ) ;
#610 = ORIENTED_EDGE ( 'NONE', *, *, #132, .T. ) ;
#611 = FACE_OUTER_BOUND ( 'NONE', #951, .T. ) ;
#612 = ORIENTED_EDGE ( 'NONE', *, *, #215, .F. ) ;
#613 = ADVANCED_FACE ( 'NONE', ( #486 ), #379, .F. ) ;
#614 = EDGE_CURVE ( 'NONE', #469, #353, #643, .T. ) ;
#615 = LINE ( 'NONE', #234, #523 ) ;
#616 = DIRECTION ( 'NONE',  ( 1.000000000000000000, 0.000000000000000000, 0.000000000000000000 ) ) ;
#617 = VERTEX_POINT ( 'NONE', #400 ) ;
#618 = AXIS2_PLACEMENT_3D ( 'NONE', #594, #74, #225 ) ;
#619 = AXIS2_PLACEMENT_3D ( 'NONE', #599, #165, #910 ) ;
#620 = EDGE_CURVE ( 'NONE', #385, #898, #264, .T. ) ;
#621 = VECTOR ( 'NONE', #204, 1000.000000000000000 ) ;
#622 = DIRECTION ( 'NONE',  ( 9.412636165889404214E-29, -1.000000000000000000, -8.007140671085006450E-14 ) ) ;
#623 = DIRECTION ( 'NONE',  ( 2.533570700711570030E-15, -3.171384759780501079E-31, -1.000000000000000000 ) ) ;
#624 = EDGE_LOOP ( 'NONE', ( #235, #610, #292, #85 ) ) ;
#625 = LINE ( 'NONE', #843, #721 ) ;
#626 = LINE ( 'NONE', #783, #760 ) ;
#627 = CARTESIAN_POINT ( 'NONE',  ( -70.00000000000000000, 3.556992370228188705, -11.00000000000008527 ) ) ;
#628 = CARTESIAN_POINT ( 'NONE',  ( -73.93830074584427337, -7.263400000000019396, -9.000000000000010658 ) ) ;
#629 = ORIENTED_EDGE ( 'NONE', *, *, #373, .F. ) ;
#630 = DIRECTION ( 'NONE',  ( -1.000000000000000000, 0.000000000000000000, -1.177520686924250585E-15 ) ) ;
#631 =( LENGTH_UNIT ( ) NAMED_UNIT ( * ) SI_UNIT ( .MILLI., .METRE. ) );
#632 = CARTESIAN_POINT ( 'NONE',  ( -75.02509015734338504, -6.867841003298652325, -10.74360189000452692 ) ) ;
#633 = EDGE_CURVE ( 'NONE', #744, #126, #609, .T. ) ;
#634 = VERTEX_POINT ( 'NONE', #29 ) ;
#635 = LINE ( 'NONE', #82, #944 ) ;
#636 = CIRCLE ( 'NONE', #123, 2.736599999999961952 ) ;
#637 = CARTESIAN_POINT ( 'NONE',  ( -79.08660914957614807, 6.864247631084904988, -6.773817382593170677 ) ) ;
#638 = COLOUR_RGB ( '',0.2862745098039215508, 0.6627450980392156632, 0.3294117647058823484 ) ;
#639 = DIRECTION ( 'NONE',  ( 1.000000000000000000, 0.000000000000000000, 0.000000000000000000 ) ) ;
#640 = ORIENTED_EDGE ( 'NONE', *, *, #311, .F. ) ;
#641 = LINE ( 'NONE', #580, #75 ) ;
#642 = FACE_OUTER_BOUND ( 'NONE', #280, .T. ) ;
#643 = LINE ( 'NONE', #11, #901 ) ;
#644 = ORIENTED_EDGE ( 'NONE', *, *, #980, .T. ) ;
#645 = CARTESIAN_POINT ( 'NONE',  ( 29.99999999999998934, 10.00000000000000178, 2.000000000000000000 ) ) ;
#646 = ADVANCED_FACE ( 'NONE', ( #556 ), #249, .F. ) ;
#647 = CARTESIAN_POINT ( 'NONE',  ( -30.00000000000000355, -7.263400000000026502, -8.263400000000022061 ) ) ;
#648 = DIRECTION ( 'NONE',  ( 1.000000000000000000, 0.000000000000000000, 1.177520686924250585E-15 ) ) ;
#649 = ORIENTED_EDGE ( 'NONE', *, *, #279, .F. ) ;
#650 = CARTESIAN_POINT ( 'NONE',  ( -62.95475082083015650, 22.91365540442826187, -9.000000000000220268 ) ) ;
#651 = ORIENTED_EDGE ( 'NONE', *, *, #279, .T. ) ;
#652 = ADVANCED_FACE ( 'NONE', ( #116 ), #875, .T. ) ;
#653 = DIRECTION ( 'NONE',  ( 0.000000000000000000, 0.000000000000000000, -1.000000000000000000 ) ) ;
#654 = AXIS2_PLACEMENT_3D ( 'NONE', #763, #738, #973 ) ;
#655 = DIRECTION ( 'NONE',  ( 0.000000000000000000, 1.000000000000000000, -6.960928290796745966E-15 ) ) ;
#656 = AXIS2_PLACEMENT_3D ( 'NONE', #856, #779, #20 ) ;
#657 = VECTOR ( 'NONE', #68, 1000.000000000000000 ) ;
#658 = ORIENTED_EDGE ( 'NONE', *, *, #64, .T. ) ;
#659 = LINE ( 'NONE', #805, #929 ) ;
#660 = DIRECTION ( 'NONE',  ( -1.000000000000000000, 0.000000000000000000, -1.177520686924250585E-15 ) ) ;
#661 = FACE_OUTER_BOUND ( 'NONE', #831, .T. ) ;
#662 = CARTESIAN_POINT ( 'NONE',  ( 29.99999999999999289, 3.556992370228188705, -11.00000000000008527 ) ) ;
#663 = EDGE_CURVE ( 'NONE', #152, #961, #199, .T. ) ;
#664 = ORIENTED_EDGE ( 'NONE', *, *, #498, .F. ) ;
#665 = PLANE ( 'NONE',  #428 ) ;
#666 = DIRECTION ( 'NONE',  ( 0.000000000000000000, 0.000000000000000000, -1.000000000000000000 ) ) ;
#667 = CARTESIAN_POINT ( 'NONE',  ( 29.99999999999999645, -7.263399999999999856, 2.000000000000000888 ) ) ;
#668 = ORIENTED_EDGE ( 'NONE', *, *, #841, .F. ) ;
#669 = PLANE ( 'NONE',  #184 ) ;
#670 = ADVANCED_FACE ( 'NONE', ( #26 ), #482, .T. ) ;
#671 = PLANE ( 'NONE',  #618 ) ;
#672 = LINE ( 'NONE', #960, #657 ) ;
#673 = AXIS2_PLACEMENT_3D ( 'NONE', #141, #145, #500 ) ;
#674 = VECTOR ( 'NONE', #451, 1000.000000000000000 ) ;
#675 = ORIENTED_EDGE ( 'NONE', *, *, #566, .T. ) ;
#676 = CARTESIAN_POINT ( 'NONE',  ( 0.000000000000000000, -7.999999999999998224, 3.469446951953612296E-14 ) ) ;
#677 = EDGE_CURVE ( 'NONE', #530, #316, #950, .T. ) ;
#678 = PRESENTATION_STYLE_ASSIGNMENT (( #443 ) ) ;
#679 = DIRECTION ( 'NONE',  ( -0.3420201433256731538, -0.9396926207859067626, 6.554929328128280303E-15 ) ) ;
#680 = CYLINDRICAL_SURFACE ( 'NONE', #771, 2.736600000000000588 ) ;
#681 = DIRECTION ( 'NONE',  ( -0.9396926207859072067, 0.3420201433256720991, 6.338973456028762880E-15 ) ) ;
#682 = EDGE_CURVE ( 'NONE', #372, #436, #53, .T. ) ;
#683 = DIRECTION ( 'NONE',  ( 0.000000000000000000, 0.000000000000000000, 1.000000000000000000 ) ) ;
#684 = DIRECTION ( 'NONE',  ( 1.000000000000000000, 0.000000000000000000, 0.000000000000000000 ) ) ;
#685 = ORIENTED_EDGE ( 'NONE', *, *, #132, .F. ) ;
#686 = FACE_OUTER_BOUND ( 'NONE', #112, .T. ) ;
#687 = CARTESIAN_POINT ( 'NONE',  ( -30.00000000000000355, -7.263400000000031831, -9.000000000000010658 ) ) ;
#688 = DIRECTION ( 'NONE',  ( 0.000000000000000000, -7.065124121545603300E-15, -1.000000000000000000 ) ) ;
#689 = VECTOR ( 'NONE', #746, 1000.000000000000000 ) ;
#690 = ORIENTED_EDGE ( 'NONE', *, *, #766, .F. ) ;
#691 = VECTOR ( 'NONE', #648, 1000.000000000000000 ) ;
#692 = DIRECTION ( 'NONE',  ( -0.8516507396391473916, 0.3099755192194523223, 0.4226182617406918918 ) ) ;
#693 = ADVANCED_FACE ( 'NONE', ( #880 ), #196, .T. ) ;
#694 = ADVANCED_FACE ( 'NONE', ( #860 ), #179, .F. ) ;
#695 = EDGE_LOOP ( 'NONE', ( #1, #821, #750, #629 ) ) ;
#696 = FACE_OUTER_BOUND ( 'NONE', #781, .T. ) ;
#697 = DIRECTION ( 'NONE',  ( 0.000000000000000000, 0.000000000000000000, -1.000000000000000000 ) ) ;
#698 = EDGE_CURVE ( 'NONE', #380, #533, #549, .T. ) ;
#699 = CARTESIAN_POINT ( 'NONE',  ( -30.00000000000000355, -7.263399999999999856, 8.673617379884035472E-16 ) ) ;
#700 = DIRECTION ( 'NONE',  ( -0.3420201433256730983, -0.9396926207859068736, 6.423897871976612983E-15 ) ) ;
#701 = ORIENTED_EDGE ( 'NONE', *, *, #544, .F. ) ;
#702 = LINE ( 'NONE', #573, #852 ) ;
#703 = VECTOR ( 'NONE', #751, 1000.000000000000000 ) ;
#704 = VECTOR ( 'NONE', #708, 1000.000000000000227 ) ;
#705 =( GEOMETRIC_REPRESENTATION_CONTEXT ( 3 ) GLOBAL_UNCERTAINTY_ASSIGNED_CONTEXT ( ( #365 ) ) GLOBAL_UNIT_ASSIGNED_CONTEXT ( ( #94, #753, #19 ) ) REPRESENTATION_CONTEXT ( 'NONE', 'WORKASPACE' ) );
#706 = DIRECTION ( 'NONE',  ( 0.000000000000000000, 0.000000000000000000, 1.000000000000000000 ) ) ;
#707 = LINE ( 'NONE', #110, #448 ) ;
#708 = DIRECTION ( 'NONE',  ( 0.3420201433256730428, 0.9396926207859067626, -6.423897871976612983E-15 ) ) ;
#709 = ORIENTED_EDGE ( 'NONE', *, *, #98, .T. ) ;
#710 = PLANE ( 'NONE',  #737 ) ;
#711 = FACE_OUTER_BOUND ( 'NONE', #499, .T. ) ;
#712 = CARTESIAN_POINT ( 'NONE',  ( -79.12152184905900754, 6.876954814494549595, -6.755546809730380353 ) ) ;
#713 = EDGE_CURVE ( 'NONE', #898, #265, #748, .T. ) ;
#714 = CARTESIAN_POINT ( 'NONE',  ( -82.21306779787954611, -4.251631097572422746, -4.969925394954037401 ) ) ;
#715 = VERTEX_POINT ( 'NONE', #632 ) ;
#716 = PLANE ( 'NONE',  #787 ) ;
#717 = LINE ( 'NONE', #327, #477 ) ;
#718 = DIRECTION ( 'NONE',  ( 0.000000000000000000, 0.000000000000000000, 1.000000000000000000 ) ) ;
#719 = ORIENTED_EDGE ( 'NONE', *, *, #358, .T. ) ;
#720 = DIRECTION ( 'NONE',  ( -0.9396926207859072067, 0.3420201433256719326, 0.000000000000000000 ) ) ;
#721 = VECTOR ( 'NONE', #920, 1000.000000000000227 ) ;
#722 = AXIS2_PLACEMENT_3D ( 'NONE', #491, #308, #543 ) ;
#723 = VECTOR ( 'NONE', #865, 1000.000000000000000 ) ;
#724 = CARTESIAN_POINT ( 'NONE',  ( 29.99999999999999289, 3.556992370228188705, -11.00000000000008527 ) ) ;
#725 = EDGE_LOOP ( 'NONE', ( #251, #41, #341, #848, #245 ) ) ;
#726 = CYLINDRICAL_SURFACE ( 'NONE', #604, 2.736599999999961508 ) ;
#727 = EDGE_CURVE ( 'NONE', #260, #268, #739, .T. ) ;
#728 = CARTESIAN_POINT ( 'NONE',  ( -161.8225469307032540, 24.20753301780523259, 7.295694712533217441 ) ) ;
#729 = ORIENTED_EDGE ( 'NONE', *, *, #663, .F. ) ;
#730 = LINE ( 'NONE', #877, #508 ) ;
#731 = EDGE_CURVE ( 'NONE', #436, #152, #211, .T. ) ;
#732 = EDGE_LOOP ( 'NONE', ( #442, #749, #675, #907 ) ) ;
#733 = FACE_OUTER_BOUND ( 'NONE', #873, .T. ) ;
#734 = ORIENTED_EDGE ( 'NONE', *, *, #302, .T. ) ;
#735 = CARTESIAN_POINT ( 'NONE',  ( 29.99999999999999645, -7.263399999999999856, 2.000000000000000888 ) ) ;
#736 = DIRECTION ( 'NONE',  ( 0.4320439614499344549, -0.1572511418622269674, 0.8880372141738619440 ) ) ;
#737 = AXIS2_PLACEMENT_3D ( 'NONE', #863, #782, #484 ) ;
#738 = DIRECTION ( 'NONE',  ( 0.000000000000000000, 1.000000000000000000, 0.000000000000000000 ) ) ;
#739 = CIRCLE ( 'NONE', #305, 0.7365999999999611747 ) ;
#740 = LINE ( 'NONE', #362, #884 ) ;
#741 = MECHANICAL_DESIGN_GEOMETRIC_PRESENTATION_REPRESENTATION (  '', ( #855 ), #705 ) ;
#742 = ORIENTED_EDGE ( 'NONE', *, *, #578, .T. ) ;
#743 = CARTESIAN_POINT ( 'NONE',  ( -120.3082563002629541, 9.097566931648504607, 13.67872195315677253 ) ) ;
#744 = VERTEX_POINT ( 'NONE', #278 ) ;
#745 = CARTESIAN_POINT ( 'NONE',  ( -83.02490989542039301, -3.956144739143315991, -6.773817382593097847 ) ) ;
#746 = DIRECTION ( 'NONE',  ( 3.002032744168973188E-16, -1.000000000000000000, 6.904675311588638925E-15 ) ) ;
#747 = EDGE_CURVE ( 'NONE', #634, #912, #552, .T. ) ;
#748 = B_SPLINE_CURVE_WITH_KNOTS ( 'NONE', 2,
 ( #111, #406, #714 ),
 .UNSPECIFIED., .F., .F.,
 ( 3, 3 ),
 ( 0.000000000000000000, 0.0002303585419119676440 ),
 .UNSPECIFIED. ) ;
#749 = ORIENTED_EDGE ( 'NONE', *, *, #439, .T. ) ;
#750 = ORIENTED_EDGE ( 'NONE', *, *, #846, .F. ) ;
#751 = DIRECTION ( 'NONE',  ( 0.000000000000000000, -1.000000000000000000, -8.071276063373097835E-14 ) ) ;
#752 = CARTESIAN_POINT ( 'NONE',  ( 29.99999999999999645, -7.263399999999999856, -0.7365999999999995884 ) ) ;
#753 =( NAMED_UNIT ( * ) PLANE_ANGLE_UNIT ( ) SI_UNIT ( $, .RADIAN. ) );
#754 = EDGE_CURVE ( 'NONE', #765, #634, #506, .T. ) ;
#755 = ORIENTED_EDGE ( 'NONE', *, *, #663, .T. ) ;
#756 = UNCERTAINTY_MEASURE_WITH_UNIT (LENGTH_MEASURE( 1.000000000000000082E-05 ), #216, 'distance_accuracy_value', 'NONE');
#757 = ORIENTED_EDGE ( 'NONE', *, *, #415, .T. ) ;
#758 = FACE_OUTER_BOUND ( 'NONE', #460, .T. ) ;
#759 = SURFACE_SIDE_STYLE ('',( #389 ) ) ;
#760 = VECTOR ( 'NONE', #937, 1000.000000000000000 ) ;
#761 = DIRECTION ( 'NONE',  ( 0.000000000000000000, 3.469446951953612611E-15, 1.000000000000000000 ) ) ;
#762 = ADVANCED_FACE ( 'NONE', ( #985 ), #104, .T. ) ;
#763 = CARTESIAN_POINT ( 'NONE',  ( -30.00000000000001066, 10.00000000000000178, 2.000000000000000000 ) ) ;
#764 = DIRECTION ( 'NONE',  ( 1.000000000000000000, 0.000000000000000000, -0.000000000000000000 ) ) ;
#765 = VERTEX_POINT ( 'NONE', #817 ) ;
#766 = EDGE_CURVE ( 'NONE', #575, #584, #254, .T. ) ;
#767 = DIRECTION ( 'NONE',  ( 0.000000000000000000, 6.960928290796745966E-15, 1.000000000000000000 ) ) ;
#768 = CARTESIAN_POINT ( 'NONE',  ( 29.99999999999998934, 10.00000000000000178, 2.000000000000000000 ) ) ;
#769 = ORIENTED_EDGE ( 'NONE', *, *, #174, .T. ) ;
#770 = CARTESIAN_POINT ( 'NONE',  ( -73.93830074584425915, -7.263400000000021173, -9.000000000000010658 ) ) ;
#771 = AXIS2_PLACEMENT_3D ( 'NONE', #826, #277, #57 ) ;
#772 = VECTOR ( 'NONE', #679, 1000.000000000000114 ) ;
#773 = ORIENTED_EDGE ( 'NONE', *, *, #331, .F. ) ;
#774 = B_SPLINE_CURVE_WITH_KNOTS ( 'NONE', 2,
 ( #420, #743, #354 ),
 .UNSPECIFIED., .F., .F.,
 ( 3, 3 ),
 ( 0.000000000000000000, 1.000000000000000000 ),
 .UNSPECIFIED. ) ;
#775 = VECTOR ( 'NONE', #248, 1000.000000000000000 ) ;
#776 = LINE ( 'NONE', #230, #984 ) ;
#777 = ADVANCED_FACE ( 'NONE', ( #583 ), #788, .F. ) ;
#778 = ORIENTED_EDGE ( 'NONE', *, *, #861, .T. ) ;
#779 = DIRECTION ( 'NONE',  ( -0.3420201433256730428, -0.9396926207859068736, 6.715978296608006412E-15 ) ) ;
#780 = DIRECTION ( 'NONE',  ( 1.000000000000000000, 0.000000000000000000, 0.000000000000000000 ) ) ;
#781 = EDGE_LOOP ( 'NONE', ( #520, #690, #649, #510 ) ) ;
#782 = DIRECTION ( 'NONE',  ( -0.3420201433256723211, -0.9396926207859070956, 2.304090018050247374E-15 ) ) ;
#783 = CARTESIAN_POINT ( 'NONE',  ( -83.02490989542039301, -3.956144739143315991, -6.773817382593092518 ) ) ;
#784 = CARTESIAN_POINT ( 'NONE',  ( -157.7183052107951653, 35.48384446723611774, 7.295694712533140169 ) ) ;
#785 = ORIENTED_EDGE ( 'NONE', *, *, #809, .F. ) ;
#786 = CARTESIAN_POINT ( 'NONE',  ( -1.011490460348532912E-29, -6.901253452356823130E-14, -9.000000000000062172 ) ) ;
#787 = AXIS2_PLACEMENT_3D ( 'NONE', #786, #858, #551 ) ;
#788 = B_SPLINE_SURFACE_WITH_KNOTS ( 'NONE', 2, 1, ( 
 ( #501, #135 ),
 ( #595, #906 ),
 ( #290, #142 ) ),
 .UNSPECIFIED., .F., .F., .F.,
 ( 3, 3 ),
 ( 2, 2 ),
 ( 0.000000000000000000, 1.000000000000000000 ),
 ( 0.000000000000000000, 1.000000000000000000 ),
 .UNSPECIFIED. ) ;
#789 = EDGE_CURVE ( 'NONE', #422, #744, #740, .T. ) ;
#790 = VECTOR ( 'NONE', #943, 1000.000000000000227 ) ;
#791 = AXIS2_PLACEMENT_3D ( 'NONE', #489, #660, #200 ) ;
#792 = DIRECTION ( 'NONE',  ( 0.4320439614499340664, -0.1572511418622276058, 0.8880372141738618330 ) ) ;
#793 = CARTESIAN_POINT ( 'NONE',  ( 29.99999999999999645, -7.263399999999999856, 8.673617379884035472E-16 ) ) ;
#794 = CARTESIAN_POINT ( 'NONE',  ( -82.36167564606721214, -4.713858918660789321, -4.979472381382580970 ) ) ;
#795 = ORIENTED_EDGE ( 'NONE', *, *, #352, .T. ) ;
#796 = CARTESIAN_POINT ( 'NONE',  ( -82.36167564606721214, -4.713858918660789321, -4.979472381382580970 ) ) ;
#797 =( NAMED_UNIT ( * ) SI_UNIT ( $, .STERADIAN. ) SOLID_ANGLE_UNIT ( ) );
#798 = DIRECTION ( 'NONE',  ( 1.000000000000000000, 0.000000000000000000, 1.177520686924250585E-15 ) ) ;
#799 = ORIENTED_EDGE ( 'NONE', *, *, #320, .T. ) ;
#800 = DIRECTION ( 'NONE',  ( 0.3420201433256730428, 0.9396926207859067626, -6.423897871976612983E-15 ) ) ;
#801 = ADVANCED_FACE ( 'NONE', ( #45 ), #427, .T. ) ;
#802 = CARTESIAN_POINT ( 'NONE',  ( -1.011490460348532912E-29, -8.293439110516172639E-14, -11.00000000000006217 ) ) ;
#803 = EDGE_CURVE ( 'NONE', #617, #715, #672, .T. ) ;
#804 = VERTEX_POINT ( 'NONE', #340 ) ;
#805 = CARTESIAN_POINT ( 'NONE',  ( 29.99999999999999645, -8.000000000000000000, -0.7365999999999970349 ) ) ;
#806 = PRESENTATION_LAYER_ASSIGNMENT (  '', '', ( #73 ) ) ;
#807 = VECTOR ( 'NONE', #792, 1000.000000000000114 ) ;
#808 = DIRECTION ( 'NONE',  ( 1.000000000000000000, 0.000000000000000000, 0.000000000000000000 ) ) ;
#809 = EDGE_CURVE ( 'NONE', #515, #372, #978, .T. ) ;
#810 = ORIENTED_EDGE ( 'NONE', *, *, #302, .F. ) ;
#811 = CARTESIAN_POINT ( 'NONE',  ( -70.00000000000000000, 3.556992370228197586, -8.263400000000089562 ) ) ;
#812 = LINE ( 'NONE', #222, #691 ) ;
#813 = ORIENTED_EDGE ( 'NONE', *, *, #98, .F. ) ;
#814 = CARTESIAN_POINT ( 'NONE',  ( -79.08660914957613386, 6.864247631084896106, -6.773817382593178671 ) ) ;
#815 = ORIENTED_EDGE ( 'NONE', *, *, #72, .T. ) ;
#816 = LINE ( 'NONE', #437, #52 ) ;
#817 = CARTESIAN_POINT ( 'NONE',  ( 29.99999999999999289, 3.556992370228202471, -9.000000000000085265 ) ) ;
#818 = ORIENTED_EDGE ( 'NONE', *, *, #227, .F. ) ;
#819 = CARTESIAN_POINT ( 'NONE',  ( -30.00000000000000355, -10.00000000000002842, -8.263400000000073575 ) ) ;
#820 = EDGE_CURVE ( 'NONE', #509, #634, #812, .T. ) ;
#821 = ORIENTED_EDGE ( 'NONE', *, *, #559, .T. ) ;
#822 = CARTESIAN_POINT ( 'NONE',  ( -74.09175282192254031, -7.207548011921184106, -9.000000000000017764 ) ) ;
#823 = VECTOR ( 'NONE', #430, 1000.000000000000000 ) ;
#824 = DIRECTION ( 'NONE',  ( -0.3420201433256723211, -0.9396926207859072067, 2.304090018050247374E-15 ) ) ;
#825 = ORIENTED_EDGE ( 'NONE', *, *, #602, .F. ) ;
#826 = CARTESIAN_POINT ( 'NONE',  ( 29.99999999999999645, -7.263399999999999856, -0.7365999999999995884 ) ) ;
#827 = ADVANCED_FACE ( 'NONE', ( #59 ), #568, .F. ) ;
#828 = DIRECTION ( 'NONE',  ( 0.8516507396391471696, -0.3099755192194529330, -0.4226182617406918918 ) ) ;
#829 = CARTESIAN_POINT ( 'NONE',  ( 29.99999999999999645, -7.263400000000026502, -8.263399999999951007 ) ) ;
#830 = ORIENTED_EDGE ( 'NONE', *, *, #262, .T. ) ;
#831 = EDGE_LOOP ( 'NONE', ( #483, #272, #979, #590 ) ) ;
#832 = FACE_OUTER_BOUND ( 'NONE', #579, .T. ) ;
#833 = CARTESIAN_POINT ( 'NONE',  ( -70.00000000000000000, 3.556992370228198030, -8.263400000000089562 ) ) ;
#834 = EDGE_CURVE ( 'NONE', #584, #149, #125, .T. ) ;
#835 = ADVANCED_FACE ( 'NONE', ( #733 ), #49, .T. ) ;
#836 = ORIENTED_EDGE ( 'NONE', *, *, #731, .T. ) ;
#837 =( NAMED_UNIT ( * ) PLANE_ANGLE_UNIT ( ) SI_UNIT ( $, .RADIAN. ) );
#838 = FACE_OUTER_BOUND ( 'NONE', #904, .T. ) ;
#839 = MECHANICAL_DESIGN_GEOMETRIC_PRESENTATION_REPRESENTATION (  '', ( #73 ), #381 ) ;
#840 = AXIS2_PLACEMENT_3D ( 'NONE', #468, #321, #939 ) ;
#841 = EDGE_CURVE ( 'NONE', #903, #961, #897, .T. ) ;
#842 = ORIENTED_EDGE ( 'NONE', *, *, #969, .F. ) ;
#843 = CARTESIAN_POINT ( 'NONE',  ( -26.41468143294310877, -24.56058285449495315, -34.86575135976858775 ) ) ;
#844 = PLANE ( 'NONE',  #54 ) ;
#845 = EDGE_LOOP ( 'NONE', ( #12, #197, #285, #55 ) ) ;
#846 = EDGE_CURVE ( 'NONE', #452, #515, #932, .T. ) ;
#847 = LINE ( 'NONE', #768, #447 ) ;
#848 = ORIENTED_EDGE ( 'NONE', *, *, #614, .T. ) ;
#849 = EDGE_CURVE ( 'NONE', #903, #407, #574, .T. ) ;
#850 = PLANE ( 'NONE',  #38 ) ;
#851 = LINE ( 'NONE', #409, #139 ) ;
#852 = VECTOR ( 'NONE', #333, 1000.000000000000000 ) ;
#853 = CIRCLE ( 'NONE', #917, 0.7365999999999900405 ) ;
#854 = ORIENTED_EDGE ( 'NONE', *, *, #598, .T. ) ;
#855 = STYLED_ITEM ( 'NONE', ( #986 ), #390 ) ;
#856 = CARTESIAN_POINT ( 'NONE',  ( -121.1048326752103321, 9.387497021448998780, 8.946757701761741899 ) ) ;
#857 = EDGE_LOOP ( 'NONE', ( #560, #140, #818, #322 ) ) ;
#858 = DIRECTION ( 'NONE',  ( 9.195367821350247611E-31, 6.904675311588638925E-15, 1.000000000000000000 ) ) ;
#859 = LINE ( 'NONE', #314, #369 ) ;
#860 = FACE_OUTER_BOUND ( 'NONE', #732, .T. ) ;
#861 = EDGE_CURVE ( 'NONE', #126, #898, #425, .T. ) ;
#862 = ORIENTED_EDGE ( 'NONE', *, *, #861, .F. ) ;
#863 = CARTESIAN_POINT ( 'NONE',  ( -73.93830074584424494, -7.263400000000030055, -8.263400000000062917 ) ) ;
#864 = CARTESIAN_POINT ( 'NONE',  ( 29.99999999999999645, -7.263399999999999856, 8.673617379884035472E-16 ) ) ;
#865 = DIRECTION ( 'NONE',  ( 0.000000000000000000, -3.469446951953612611E-15, -1.000000000000000000 ) ) ;
#866 = CARTESIAN_POINT ( 'NONE',  ( -30.00000000000001066, 10.00000000000000178, 2.000000000000000000 ) ) ;
#867 = ORIENTED_EDGE ( 'NONE', *, *, #766, .T. ) ;
#868 = LINE ( 'NONE', #306, #900 ) ;
#869 = VECTOR ( 'NONE', #921, 1000.000000000000114 ) ;
#870 = AXIS2_PLACEMENT_3D ( 'NONE', #637, #700, #173 ) ;
#871 = CARTESIAN_POINT ( 'NONE',  ( 29.99999999999998934, -8.000000000000017764, -8.263400000000009626 ) ) ;
#872 = DIRECTION ( 'NONE',  ( -1.251745119601279247E-16, -1.000000000000000000, 0.000000000000000000 ) ) ;
#873 = EDGE_LOOP ( 'NONE', ( #959, #685, #493, #742 ) ) ;
#874 = DIRECTION ( 'NONE',  ( -0.9396926207859072067, 0.3420201433256719326, 4.239074472927528272E-14 ) ) ;
#875 = PLANE ( 'NONE',  #155 ) ;
#876 = ORIENTED_EDGE ( 'NONE', *, *, #598, .F. ) ;
#877 = CARTESIAN_POINT ( 'NONE',  ( -162.0912167992056538, 24.30532085278434096, 9.275152729539135166 ) ) ;
#878 = FACE_OUTER_BOUND ( 'NONE', #14, .T. ) ;
#879 = ADVANCED_FACE ( 'NONE', ( #642 ), #263, .T. ) ;
#880 = FACE_OUTER_BOUND ( 'NONE', #121, .T. ) ;
#881 = VERTEX_POINT ( 'NONE', #282 ) ;
#882 = DIRECTION ( 'NONE',  ( 0.4320439614499340664, -0.1572511418622276058, 0.8880372141738618330 ) ) ;
#883 = ORIENTED_EDGE ( 'NONE', *, *, #569, .F. ) ;
#884 = VECTOR ( 'NONE', #495, 1000.000000000000000 ) ;
#885 = DIRECTION ( 'NONE',  ( -0.9396926207859065405, 0.3420201433256736534, 0.000000000000000000 ) ) ;
#886 = EDGE_CURVE ( 'NONE', #402, #881, #918, .T. ) ;
#887 = ORIENTED_EDGE ( 'NONE', *, *, #202, .F. ) ;
#888 = CARTESIAN_POINT ( 'NONE',  ( -30.00000000000000355, -7.263400000000026502, -8.263400000000022061 ) ) ;
#889 = APPLICATION_CONTEXT ( 'automotive_design' ) ;
#890 = DIRECTION ( 'NONE',  ( 0.3420201433256721546, 0.9396926207859070956, -6.033938902194580853E-15 ) ) ;
#891 = CARTESIAN_POINT ( 'NONE',  ( 29.99999999999999289, -6.000643629106131213E-14, -9.000000000000062172 ) ) ;
#892 = ORIENTED_EDGE ( 'NONE', *, *, #957, .T. ) ;
#893 = LINE ( 'NONE', #417, #823 ) ;
#894 = ADVANCED_FACE ( 'NONE', ( #878 ), #387, .F. ) ;
#895 = VERTEX_POINT ( 'NONE', #25 ) ;
#896 = LINE ( 'NONE', #822, #103 ) ;
#897 = LINE ( 'NONE', #217, #295 ) ;
#898 = VERTEX_POINT ( 'NONE', #319 ) ;
#899 = CARTESIAN_POINT ( 'NONE',  ( -83.22576356896708205, -4.399356634936334665, -6.755546809730303082 ) ) ;
#900 = VECTOR ( 'NONE', #188, 1000.000000000000000 ) ;
#901 = VECTOR ( 'NONE', #258, 1000.000000000000000 ) ;
#902 = CARTESIAN_POINT ( 'NONE',  ( 29.99999999999998934, 10.00000000000000178, 0.000000000000000000 ) ) ;
#903 = VERTEX_POINT ( 'NONE', #32 ) ;
#904 = EDGE_LOOP ( 'NONE', ( #93, #21, #785, #143 ) ) ;
#905 = EDGE_CURVE ( 'NONE', #464, #804, #539, .T. ) ;
#906 = CARTESIAN_POINT ( 'NONE',  ( -115.8789774078761781, 20.25557452526710733, 15.74567522944512987 ) ) ;
#907 = ORIENTED_EDGE ( 'NONE', *, *, #633, .F. ) ;
#908 = ORIENTED_EDGE ( 'NONE', *, *, #536, .F. ) ;
#909 =( NAMED_UNIT ( * ) SI_UNIT ( $, .STERADIAN. ) SOLID_ANGLE_UNIT ( ) );
#910 = DIRECTION ( 'NONE',  ( 0.000000000000000000, -1.000000000000000000, 3.532562060772751952E-15 ) ) ;
#911 = ADVANCED_FACE ( 'NONE', ( #243 ), #183, .T. ) ;
#912 = VERTEX_POINT ( 'NONE', #871 ) ;
#913 = CARTESIAN_POINT ( 'NONE',  ( -75.02509015734339926, -6.867841003298662983, -10.74360189000452692 ) ) ;
#914 = DIRECTION ( 'NONE',  ( 1.000000000000000000, 0.000000000000000000, 0.000000000000000000 ) ) ;
#915 = AXIS2_PLACEMENT_3D ( 'NONE', #257, #630, #377 ) ;
#916 = EDGE_CURVE ( 'NONE', #804, #469, #96, .T. ) ;
#917 = AXIS2_PLACEMENT_3D ( 'NONE', #888, #497, #203 ) ;
#918 = CIRCLE ( 'NONE', #58, 2.736599999999989929 ) ;
#919 = ORIENTED_EDGE ( 'NONE', *, *, #536, .T. ) ;
#920 = DIRECTION ( 'NONE',  ( 0.8516507396391471696, -0.3099755192194529330, -0.4226182617406918918 ) ) ;
#921 = DIRECTION ( 'NONE',  ( -0.3420201433256743195, -0.9396926207859063185, 3.884867877709783697E-15 ) ) ;
#922 = ORIENTED_EDGE ( 'NONE', *, *, #834, .T. ) ;
#923 = ADVANCED_FACE ( 'NONE', ( #553 ), #101, .F. ) ;
#924 = CARTESIAN_POINT ( 'NONE',  ( -70.00000000000000000, 3.556992370228190481, -11.00000000000004796 ) ) ;
#925 = EDGE_LOOP ( 'NONE', ( #97, #596, #304, #346, #612, #276 ) ) ;
#926 = EDGE_CURVE ( 'NONE', #313, #149, #851, .T. ) ;
#927 = FILL_AREA_STYLE ('',( #462 ) ) ;
#928 = DIRECTION ( 'NONE',  ( 3.002032744168973188E-16, -1.000000000000000000, 6.904675311588638925E-15 ) ) ;
#929 = VECTOR ( 'NONE', #137, 1000.000000000000000 ) ;
#930 = VECTOR ( 'NONE', #639, 1000.000000000000000 ) ;
#931 = ORIENTED_EDGE ( 'NONE', *, *, #731, .F. ) ;
#932 = CIRCLE ( 'NONE', #555, 2.736599999999989929 ) ;
#933 = EDGE_CURVE ( 'NONE', #533, #541, #717, .T. ) ;
#934 = CARTESIAN_POINT ( 'NONE',  ( 29.99999999999999645, -8.000000000000017764, -8.263400000000009626 ) ) ;
#935 = ORIENTED_EDGE ( 'NONE', *, *, #174, .F. ) ;
#936 = CARTESIAN_POINT ( 'NONE',  ( -157.9869750792975651, 35.58163230221522610, 9.275152729539058782 ) ) ;
#937 = DIRECTION ( 'NONE',  ( 0.3971312619670972488, -0.1445439584525928245, 0.9063077870366533784 ) ) ;
#938 = DIRECTION ( 'NONE',  ( 0.3420201433256737644, 0.9396926207859064295, -6.488272439222473026E-15 ) ) ;
#939 = DIRECTION ( 'NONE',  ( 0.4445129523522169945, 0.000000000000000000, 0.8957724237724198346 ) ) ;
#940 = ORIENTED_EDGE ( 'NONE', *, *, #72, .F. ) ;
#941 = LINE ( 'NONE', #913, #240 ) ;
#942 = CARTESIAN_POINT ( 'NONE',  ( 0.000000000000000000, 0.000000000000000000, 0.000000000000000000 ) ) ;
#943 = DIRECTION ( 'NONE',  ( 0.3420201433256730428, 0.9396926207859067626, -6.423897871976612983E-15 ) ) ;
#944 = VECTOR ( 'NONE', #601, 1000.000000000000227 ) ;
#945 = ORIENTED_EDGE ( 'NONE', *, *, #92, .F. ) ;
#946 = CARTESIAN_POINT ( 'NONE',  ( -73.93830074584424494, -7.263400000000024725, -8.263400000000062917 ) ) ;
#947 = VECTOR ( 'NONE', #622, 1000.000000000000000 ) ;
#948 =( GEOMETRIC_REPRESENTATION_CONTEXT ( 3 ) GLOBAL_UNCERTAINTY_ASSIGNED_CONTEXT ( ( #603 ) ) GLOBAL_UNIT_ASSIGNED_CONTEXT ( ( #631, #90, #797 ) ) REPRESENTATION_CONTEXT ( 'NONE', 'WORKASPACE' ) );
#949 = CARTESIAN_POINT ( 'NONE',  ( -73.93830074584427337, -7.263400000000019396, -9.000000000000010658 ) ) ;
#950 = LINE ( 'NONE', #244, #704 ) ;
#951 = EDGE_LOOP ( 'NONE', ( #922, #144, #170, #883 ) ) ;
#952 = LINE ( 'NONE', #194, #399 ) ;
#953 = EDGE_CURVE ( 'NONE', #541, #152, #474, .T. ) ;
#954 = CARTESIAN_POINT ( 'NONE',  ( 0.000000000000000000, -10.00000000000000000, -0.7365999999999900405 ) ) ;
#955 = ORIENTED_EDGE ( 'NONE', *, *, #498, .T. ) ;
#956 = CARTESIAN_POINT ( 'NONE',  ( 29.99999999999999645, -10.00000000000000000, -0.7365999999999900405 ) ) ;
#957 = EDGE_CURVE ( 'NONE', #464, #509, #178, .T. ) ;
#958 = DIRECTION ( 'NONE',  ( 0.000000000000000000, -1.000000000000000000, 3.491481338843133355E-15 ) ) ;
#959 = ORIENTED_EDGE ( 'NONE', *, *, #189, .T. ) ;
#960 = CARTESIAN_POINT ( 'NONE',  ( -75.02509015734339926, -6.867841003298661207, -10.74360189000452692 ) ) ;
#961 = VERTEX_POINT ( 'NONE', #398 ) ;
#962 = DIRECTION ( 'NONE',  ( -0.3420201433256723211, -0.9396926207859072067, 2.304090018050247374E-15 ) ) ;
#963 = AXIS2_PLACEMENT_3D ( 'NONE', #350, #205, #576 ) ;
#964 = VECTOR ( 'NONE', #561, 1000.000000000000000 ) ;
#965 = ORIENTED_EDGE ( 'NONE', *, *, #980, .F. ) ;
#966 = LINE ( 'NONE', #67, #703 ) ;
#967 = PRODUCT_DEFINITION_FORMATION_WITH_SPECIFIED_SOURCE ( 'ÈÎºÎ', '', #80, .NOT_KNOWN. ) ;
#968 = DIRECTION ( 'NONE',  ( -1.000000000000000000, -0.000000000000000000, -0.000000000000000000 ) ) ;
#969 = EDGE_CURVE ( 'NONE', #291, #316, #259, .T. ) ;
#970 = ORIENTED_EDGE ( 'NONE', *, *, #713, .F. ) ;
#971 = LINE ( 'NONE', #42, #535 ) ;
#972 = ORIENTED_EDGE ( 'NONE', *, *, #727, .F. ) ;
#973 = DIRECTION ( 'NONE',  ( 0.000000000000000000, 0.000000000000000000, -1.000000000000000000 ) ) ;
#974 = CARTESIAN_POINT ( 'NONE',  ( -120.3082563002629541, 9.097566931648504607, 13.67872195315677253 ) ) ;
#975 = ORIENTED_EDGE ( 'NONE', *, *, #747, .F. ) ;
#976 = FACE_OUTER_BOUND ( 'NONE', #557, .T. ) ;
#977 = DIRECTION ( 'NONE',  ( -1.000000000000000000, 0.000000000000000000, 0.000000000000000000 ) ) ;
#978 = LINE ( 'NONE', #296, #77 ) ;
#979 = ORIENTED_EDGE ( 'NONE', *, *, #439, .F. ) ;
#980 = EDGE_CURVE ( 'NONE', #961, #402, #190, .T. ) ;
#981 = ORIENTED_EDGE ( 'NONE', *, *, #352, .F. ) ;
#982 = EDGE_CURVE ( 'NONE', #584, #541, #532, .T. ) ;
#983 = CARTESIAN_POINT ( 'NONE',  ( -74.23082763340921986, -7.156928920203847078, -8.930986315931217945 ) ) ;
#984 = VECTOR ( 'NONE', #386, 1000.000000000000000 ) ;
#985 = FACE_OUTER_BOUND ( 'NONE', #502, .T. ) ;
#986 = PRESENTATION_STYLE_ASSIGNMENT (( #171 ) ) ;
#987 = ORIENTED_EDGE ( 'NONE', *, *, #158, .T. ) ;
#988 = EDGE_LOOP ( 'NONE', ( #908, #487, #813, #432, #664, #734, #987, #193 ) ) ;
#989 = EDGE_CURVE ( 'NONE', #128, #530, #707, .T. ) ;
#990 = PLANE ( 'NONE',  #963 ) ;
#991 = CARTESIAN_POINT ( 'NONE',  ( 29.99999999999998934, 10.00000000000000178, 2.000000000000000000 ) ) ;
#992 = SHAPE_DEFINITION_REPRESENTATION ( #554, #390 ) ;
ENDSEC;
END-ISO-10303-21;
