ISO-10303-21;
HEADER;
FILE_DESCRIPTION (( 'STEP AP214' ),
    '1' );
FILE_NAME ('镜向GB╱T 70.2-2015[内六角平圆头螺钉M4×12].step',
    '2023-08-15T03:03:11',
    ( '' ),
    ( '' ),
    'SwSTEP 2.0',
    'SolidWorks 2022',
    '' );
FILE_SCHEMA (( 'AUTOMOTIVE_DESIGN' ));
ENDSEC;

DATA;
#1 = DIRECTION ( 'NONE',  ( 1.000000000000000000, 0.000000000000000000, -0.000000000000000000 ) ) ;
#2 = CARTESIAN_POINT ( 'NONE',  ( 0.000000000000000000, 0.000000000000000000, -1.393782217350892916 ) ) ;
#3 = FILL_AREA_STYLE_COLOUR ( '', #620 ) ;
#4 = DIRECTION ( 'NONE',  ( 1.000000000000000000, 5.998083099822123814E-17, -0.000000000000000000 ) ) ;
#5 = EDGE_CURVE ( 'NONE', #177, #607, #682, .T. ) ;
#6 = AXIS2_PLACEMENT_3D ( 'NONE', #627, #680, #337 ) ;
#7 = ORIENTED_EDGE ( 'NONE', *, *, #389, .T. ) ;
#8 = EDGE_LOOP ( 'NONE', ( #631, #291, #534, #421 ) ) ;
#9 = CARTESIAN_POINT ( 'NONE',  ( -12.00000000000000000, -0.7216878364870332740, -1.249999999999999778 ) ) ;
#10 = AXIS2_PLACEMENT_3D ( 'NONE', #122, #710, #361 ) ;
#11 =( LENGTH_UNIT ( ) NAMED_UNIT ( * ) SI_UNIT ( .MILLI., .METRE. ) );
#12 = CIRCLE ( 'NONE', #229, 1.443375672974064328 ) ;
#13 = EDGE_LOOP ( 'NONE', ( #312, #58, #402, #299 ) ) ;
#14 = STYLED_ITEM ( 'NONE', ( #326 ), #153 ) ;
#15 = EDGE_LOOP ( 'NONE', ( #230, #242, #101, #186 ) ) ;
#16 = AXIS2_PLACEMENT_3D ( 'NONE', #129, #537, #73 ) ;
#17 = DIRECTION ( 'NONE',  ( 1.000000000000000000, 0.000000000000000000, -0.000000000000000000 ) ) ;
#18 = COLOUR_RGB ( '',1.000000000000000000, 1.000000000000000000, 1.000000000000000000 ) ;
#19 = CARTESIAN_POINT ( 'NONE',  ( -12.77942286340599587, -4.330491382256005356E-23, -1.249999999999999778 ) ) ;
#20 = ORIENTED_EDGE ( 'NONE', *, *, #574, .T. ) ;
#21 = ADVANCED_FACE ( 'NONE', ( #715 ), #313, .F. ) ;
#22 = ORIENTED_EDGE ( 'NONE', *, *, #347, .F. ) ;
#23 = CARTESIAN_POINT ( 'NONE',  ( -12.77919874466209471, 1.204657989547419428, -0.4134711563600914630 ) ) ;
#24 = LINE ( 'NONE', #239, #103 ) ;
#25 = CARTESIAN_POINT ( 'NONE',  ( -14.16916666666574010, 0.8419691425682042096, 1.041666666666666741 ) ) ;
#26 = EDGE_LOOP ( 'NONE', ( #541, #427 ) ) ;
#27 = EDGE_CURVE ( 'NONE', #351, #696, #708, .T. ) ;
#28 = FACE_OUTER_BOUND ( 'NONE', #411, .T. ) ;
#29 = DIRECTION ( 'NONE',  ( 5.691969551695359369E-17, -1.000000000000000000, 0.000000000000000000 ) ) ;
#30 = CARTESIAN_POINT ( 'NONE',  ( -0.3500000000000000333, 0.000000000000000000, 0.000000000000000000 ) ) ;
#31 = ORIENTED_EDGE ( 'NONE', *, *, #87, .F. ) ;
#32 = CARTESIAN_POINT ( 'NONE',  ( -12.00000000000000000, 2.199999999999998845, 0.000000000000000000 ) ) ;
#33 = ORIENTED_EDGE ( 'NONE', *, *, #276, .F. ) ;
#34 = CARTESIAN_POINT ( 'NONE',  ( -14.16916666666574010, 1.323094366892892060, -0.2083333333333338422 ) ) ;
#35 = EDGE_CURVE ( 'NONE', #570, #459, #730, .T. ) ;
#36 = CARTESIAN_POINT ( 'NONE',  ( -14.20000000000000107, 2.219290746934189176E-17, 3.599228117386048901E-16 ) ) ;
#37 = DIRECTION ( 'NONE',  ( 0.000000000000000000, 0.000000000000000000, -1.000000000000000000 ) ) ;
#38 = PRESENTATION_STYLE_ASSIGNMENT (( #509 ) ) ;
#39 = CARTESIAN_POINT ( 'NONE',  ( -14.15048909679995504, 0.2418642655271375785, -1.249999999999999778 ) ) ;
#40 = CARTESIAN_POINT ( 'NONE',  ( -12.90000000000000213, -0.7216878364870332740, -1.249999999999999778 ) ) ;
#41 = EDGE_CURVE ( 'NONE', #128, #386, #357, .T. ) ;
#42 = CARTESIAN_POINT ( 'NONE',  ( -12.90000000000000213, -1.767625397874844201E-16, 1.443375672974064106 ) ) ;
#43 = EDGE_CURVE ( 'NONE', #386, #128, #392, .T. ) ;
#44 = SURFACE_SIDE_STYLE ('',( #716 ) ) ;
#45 = FACE_OUTER_BOUND ( 'NONE', #376, .T. ) ;
#46 = DIRECTION ( 'NONE',  ( -0.5291067161269960017, 0.000000000000000000, -0.8485552916276619673 ) ) ;
#47 = AXIS2_PLACEMENT_3D ( 'NONE', #290, #57, #224 ) ;
#48 = AXIS2_PLACEMENT_3D ( 'NONE', #32, #489, #188 ) ;
#49 = EDGE_LOOP ( 'NONE', ( #124, #218, #659, #33 ) ) ;
#50 = CIRCLE ( 'NONE', #573, 1.999999999999998668 ) ;
#51 = LINE ( 'NONE', #406, #468 ) ;
#52 = CARTESIAN_POINT ( 'NONE',  ( -12.00000000000000000, -1.443375672974065216, 5.870030462665943960E-16 ) ) ;
#53 = DIRECTION ( 'NONE',  ( 0.000000000000000000, 0.5000000000000002220, 0.8660254037844384856 ) ) ;
#54 = ADVANCED_FACE ( 'NONE', ( #382 ), #296, .T. ) ;
#55 = ADVANCED_FACE ( 'NONE', ( #711 ), #247, .F. ) ;
#56 = FACE_OUTER_BOUND ( 'NONE', #346, .T. ) ;
#57 = DIRECTION ( 'NONE',  ( -0.000000000000000000, 0.000000000000000000, -1.000000000000000000 ) ) ;
#58 = ORIENTED_EDGE ( 'NONE', *, *, #603, .T. ) ;
#59 = EDGE_LOOP ( 'NONE', ( #119, #444, #655, #471, #589, #642 ) ) ;
#60 = CARTESIAN_POINT ( 'NONE',  ( -14.20000000000000107, -2.449293598294705428E-16, 1.999999999999999112 ) ) ;
#61 =( NAMED_UNIT ( * ) SI_UNIT ( $, .STERADIAN. ) SOLID_ANGLE_UNIT ( ) );
#62 = DIRECTION ( 'NONE',  ( 0.000000000000000000, 1.000000000000000000, 1.224646799147353207E-16 ) ) ;
#63 = ORIENTED_EDGE ( 'NONE', *, *, #654, .T. ) ;
#64 = ORIENTED_EDGE ( 'NONE', *, *, #379, .F. ) ;
#65 = DIRECTION ( 'NONE',  ( 0.000000000000000000, 0.000000000000000000, -1.000000000000000000 ) ) ;
#66 = DIRECTION ( 'NONE',  ( 0.000000000000000000, 0.000000000000000000, 1.000000000000000000 ) ) ;
#67 = DIRECTION ( 'NONE',  ( 1.000000000000000000, 0.000000000000000000, -0.000000000000000000 ) ) ;
#68 = CONICAL_SURFACE ( 'NONE', #163, 3901.015332362329445, 1.319856261027561928 ) ;
#69 = ORIENTED_EDGE ( 'NONE', *, *, #445, .F. ) ;
#70 = AXIS2_PLACEMENT_3D ( 'NONE', #387, #92, #262 ) ;
#71 = ORIENTED_EDGE ( 'NONE', *, *, #327, .T. ) ;
#72 = CONICAL_SURFACE ( 'NONE', #176, 3901.015332362329445, 1.319856261027561928 ) ;
#73 = DIRECTION ( 'NONE',  ( 0.000000000000000000, 0.4999999999999998335, -0.8660254037844387076 ) ) ;
#74 = PRODUCT_DEFINITION_FORMATION_WITH_SPECIFIED_SOURCE ( '任何', '', #258, .NOT_KNOWN. ) ;
#75 = EDGE_LOOP ( 'NONE', ( #602, #399, #178, #117, #197 ) ) ;
#76 = EDGE_LOOP ( 'NONE', ( #560, #123, #22, #283, #274, #31 ) ) ;
#77 = CARTESIAN_POINT ( 'NONE',  ( -14.20000000000000107, 0.7216878364870321638, 1.250000000000000222 ) ) ;
#78 = FACE_OUTER_BOUND ( 'NONE', #369, .T. ) ;
#79 = CARTESIAN_POINT ( 'NONE',  ( -14.16921124011832944, -0.4814729877613859732, -1.249999999999999778 ) ) ;
#80 = AXIS2_PLACEMENT_3D ( 'NONE', #526, #579, #53 ) ;
#81 = ORIENTED_EDGE ( 'NONE', *, *, #539, .F. ) ;
#82 = CARTESIAN_POINT ( 'NONE',  ( -14.15037000055573557, -0.2394511050528685403, 1.250000000000000222 ) ) ;
#83 = FACE_OUTER_BOUND ( 'NONE', #586, .T. ) ;
#84 = CARTESIAN_POINT ( 'NONE',  ( -12.90000000000000213, 0.000000000000000000, 0.000000000000000000 ) ) ;
#85 = ORIENTED_EDGE ( 'NONE', *, *, #403, .T. ) ;
#86 = CARTESIAN_POINT ( 'NONE',  ( -12.00000000000000000, 0.7216878364870323859, -1.249999999999999778 ) ) ;
#87 = EDGE_CURVE ( 'NONE', #734, #105, #634, .T. ) ;
#88 = DIRECTION ( 'NONE',  ( 0.000000000000000000, 0.8660254037844387076, -0.4999999999999998335 ) ) ;
#89 = CARTESIAN_POINT ( 'NONE',  ( -14.20000000000000107, 0.7216878364870323859, -1.250000000000000000 ) ) ;
#90 = DIRECTION ( 'NONE',  ( 0.000000000000000000, 0.000000000000000000, -1.000000000000000000 ) ) ;
#91 = CARTESIAN_POINT ( 'NONE',  ( -12.82715765887601655, -0.4880459183963061776, 1.250000000000000222 ) ) ;
#92 = DIRECTION ( 'NONE',  ( -1.000000000000000000, -0.000000000000000000, 0.000000000000000000 ) ) ;
#93 = ADVANCED_FACE ( 'NONE', ( #718 ), #179, .F. ) ;
#94 = CARTESIAN_POINT ( 'NONE',  ( -12.00000000000000000, -1.443375672974065216, 5.870030462665943960E-16 ) ) ;
#95 = CARTESIAN_POINT ( 'NONE',  ( -12.82677104533570400, -1.325934682174327417, -0.2034137629563736172 ) ) ;
#96 = DIRECTION ( 'NONE',  ( -1.000000000000000000, 0.000000000000000000, 0.000000000000000000 ) ) ;
#97 = CARTESIAN_POINT ( 'NONE',  ( -12.77942286340599587, -4.330491382256005356E-23, -1.249999999999999778 ) ) ;
#98 = CARTESIAN_POINT ( 'NONE',  ( -12.90000000000000213, -0.7216878364870332740, -1.249999999999999778 ) ) ;
#99 = CIRCLE ( 'NONE', #565, 1.999999999999997780 ) ;
#100 = CARTESIAN_POINT ( 'NONE',  ( -12.79105228766682956, 0.2457778558553066761, -1.249999999999999778 ) ) ;
#101 = ORIENTED_EDGE ( 'NONE', *, *, #193, .T. ) ;
#102 = EDGE_CURVE ( 'NONE', #416, #691, #694, .T. ) ;
#103 = VECTOR ( 'NONE', #481, 1000.000000000000000 ) ;
#104 = CONICAL_SURFACE ( 'NONE', #538, 2.000000000000000000, 1.047197551196597631 ) ;
#105 = VERTEX_POINT ( 'NONE', #209 ) ;
#106 = DIRECTION ( 'NONE',  ( 0.000000000000000000, 1.776356839400250465E-15, 1.000000000000000000 ) ) ;
#107 = CARTESIAN_POINT ( 'NONE',  ( -14.20000000000000107, 2.219290746934189176E-17, 3.599228117386048901E-16 ) ) ;
#108 = ADVANCED_FACE ( 'NONE', ( #323 ), #562, .F. ) ;
#109 = DIRECTION ( 'NONE',  ( 1.000000000000000000, 0.000000000000000000, 0.000000000000000000 ) ) ;
#110 = EDGE_CURVE ( 'NONE', #689, #734, #329, .T. ) ;
#111 = FACE_OUTER_BOUND ( 'NONE', #535, .T. ) ;
#112 = LINE ( 'NONE', #641, #220 ) ;
#113 = CARTESIAN_POINT ( 'NONE',  ( -14.13169213213474507, -1.082531754730549078, -0.6249999999999997780 ) ) ;
#114 = PRODUCT_CONTEXT ( 'NONE', #251, 'mechanical' ) ;
#115 = DIRECTION ( 'NONE',  ( 5.691969551695359369E-17, -1.000000000000000000, 0.000000000000000000 ) ) ;
#116 = ORIENTED_EDGE ( 'NONE', *, *, #466, .F. ) ;
#117 = ORIENTED_EDGE ( 'NONE', *, *, #214, .T. ) ;
#118 = CARTESIAN_POINT ( 'NONE',  ( -0.3500000000000000333, -2.449293598294706414E-16, 2.000000000000000000 ) ) ;
#119 = ORIENTED_EDGE ( 'NONE', *, *, #133, .F. ) ;
#120 = EDGE_LOOP ( 'NONE', ( #474, #585 ) ) ;
#121 = DIRECTION ( 'NONE',  ( 1.000000000000000000, 0.000000000000000000, -0.000000000000000000 ) ) ;
#122 = CARTESIAN_POINT ( 'NONE',  ( -11.79999999999999893, 0.000000000000000000, 0.000000000000000000 ) ) ;
#123 = ORIENTED_EDGE ( 'NONE', *, *, #133, .T. ) ;
#124 = ORIENTED_EDGE ( 'NONE', *, *, #601, .F. ) ;
#125 = DIRECTION ( 'NONE',  ( -1.000000000000000000, -0.000000000000000000, 0.000000000000000000 ) ) ;
#126 = CARTESIAN_POINT ( 'NONE',  ( -14.20000000000000107, 2.219290746934189176E-17, 3.599228117386048901E-16 ) ) ;
#127 = ORIENTED_EDGE ( 'NONE', *, *, #552, .F. ) ;
#128 = VERTEX_POINT ( 'NONE', #212 ) ;
#129 = CARTESIAN_POINT ( 'NONE',  ( -12.00000000000000000, 1.443375672974064328, 3.128943976826325424E-17 ) ) ;
#130 = CARTESIAN_POINT ( 'NONE',  ( -11.99999999999999645, 0.000000000000000000, 0.000000000000000000 ) ) ;
#131 = UNCERTAINTY_MEASURE_WITH_UNIT (LENGTH_MEASURE( 1.000000000000000082E-05 ), #456, 'distance_accuracy_value', 'NONE');
#132 = DIRECTION ( 'NONE',  ( 0.000000000000000000, 0.000000000000000000, -1.000000000000000000 ) ) ;
#133 = EDGE_CURVE ( 'NONE', #689, #161, #566, .T. ) ;
#134 = ORIENTED_EDGE ( 'NONE', *, *, #359, .T. ) ;
#135 =( LENGTH_UNIT ( ) NAMED_UNIT ( * ) SI_UNIT ( .MILLI., .METRE. ) );
#136 = CARTESIAN_POINT ( 'NONE',  ( -14.16916666666574187, 1.323094366892892948, 0.2083333333333324544 ) ) ;
#137 = COLOUR_RGB ( '',1.000000000000000000, 1.000000000000000000, 1.000000000000000000 ) ;
#138 = CARTESIAN_POINT ( 'NONE',  ( -12.00000000000000000, 0.7216878364870321638, 1.250000000000000222 ) ) ;
#139 = CIRCLE ( 'NONE', #683, 1.443375672974063884 ) ;
#140 = VECTOR ( 'NONE', #46, 1000.000000000000000 ) ;
#141 = CARTESIAN_POINT ( 'NONE',  ( -3.061616997868386099E-17, 2.000000000000000000, 0.000000000000000000 ) ) ;
#142 = UNCERTAINTY_MEASURE_WITH_UNIT (LENGTH_MEASURE( 1.000000000000000082E-05 ), #146, 'distance_accuracy_value', 'NONE');
#143 = EDGE_LOOP ( 'NONE', ( #475, #478, #309, #160 ) ) ;
#144 = CARTESIAN_POINT ( 'NONE',  ( -12.90000000000000213, 1.443375672974064328, 3.128943976826325424E-17 ) ) ;
#145 = ADVANCED_BREP_SHAPE_REPRESENTATION ( '镜向GB╱T 70.2-2015[内六角平圆头螺钉M4×12]', ( #168, #636 ), #521 ) ;
#146 =( LENGTH_UNIT ( ) NAMED_UNIT ( * ) SI_UNIT ( .MILLI., .METRE. ) );
#147 = ADVANCED_FACE ( 'NONE', ( #215 ), #408, .F. ) ;
#148 = DIRECTION ( 'NONE',  ( 1.000000000000000000, 0.000000000000000000, -0.000000000000000000 ) ) ;
#149 = AXIS2_PLACEMENT_3D ( 'NONE', #52, #171, #404 ) ;
#150 = DIRECTION ( 'NONE',  ( 1.000000000000000000, 0.000000000000000000, 0.000000000000000000 ) ) ;
#151 = B_SPLINE_CURVE_WITH_KNOTS ( 'NONE', 3,
 ( #263, #331, #394, #453, #674, #623 ),
 .UNSPECIFIED., .F., .F.,
 ( 4, 2, 4 ),
 ( 2.391904125716502264E-07, 0.0007300545202770521809, 0.001459869850141532832 ),
 .UNSPECIFIED. ) ;
#152 = CARTESIAN_POINT ( 'NONE',  ( -12.86374379380171007, 0.6053960008849357255, 1.250000000000000000 ) ) ;
#153 = ADVANCED_FACE ( 'NONE', ( #506 ), #622, .T. ) ;
#154 = UNCERTAINTY_MEASURE_WITH_UNIT (LENGTH_MEASURE( 1.000000000000000082E-05 ), #135, 'distance_accuracy_value', 'NONE');
#155 = SURFACE_SIDE_STYLE ('',( #723 ) ) ;
#156 = CARTESIAN_POINT ( 'NONE',  ( 0.000000000000000000, 0.000000000000000000, 0.000000000000000000 ) ) ;
#157 = CARTESIAN_POINT ( 'NONE',  ( -14.20000000000000107, 0.000000000000000000, 0.000000000000000000 ) ) ;
#158 = DIRECTION ( 'NONE',  ( 5.691969551695359369E-17, -1.000000000000000000, 0.000000000000000000 ) ) ;
#159 = ADVANCED_FACE ( 'NONE', ( #45 ), #672, .T. ) ;
#160 = ORIENTED_EDGE ( 'NONE', *, *, #170, .T. ) ;
#161 = VERTEX_POINT ( 'NONE', #320 ) ;
#162 = ORIENTED_EDGE ( 'NONE', *, *, #568, .F. ) ;
#163 = AXIS2_PLACEMENT_3D ( 'NONE', #365, #548, #29 ) ;
#164 = PRESENTATION_LAYER_ASSIGNMENT (  '', '', ( #501 ) ) ;
#165 = DIRECTION ( 'NONE',  ( -1.000000000000000000, -0.000000000000000000, 0.000000000000000000 ) ) ;
#166 = PRESENTATION_STYLE_ASSIGNMENT (( #527 ) ) ;
#167 = AXIS2_PLACEMENT_3D ( 'NONE', #447, #150, #663 ) ;
#168 = MANIFOLD_SOLID_BREP ( '<GB╱T 70.2-2015[内六角平圆头螺钉M4×12]>-<切除-旋转1>', #342 ) ;
#169 = EDGE_CURVE ( 'NONE', #370, #734, #256, .T. ) ;
#170 = EDGE_CURVE ( 'NONE', #370, #128, #436, .T. ) ;
#171 = DIRECTION ( 'NONE',  ( 0.000000000000000000, -0.8660254037844388186, -0.4999999999999996669 ) ) ;
#172 = CIRCLE ( 'NONE', #628, 1.999999999999998668 ) ;
#173 = CARTESIAN_POINT ( 'NONE',  ( -0.3500000000000000333, -2.449293598294706414E-16, 2.000000000000000000 ) ) ;
#174 = CIRCLE ( 'NONE', #532, 4.007472359323742239 ) ;
#175 = FACE_OUTER_BOUND ( 'NONE', #15, .T. ) ;
#176 = AXIS2_PLACEMENT_3D ( 'NONE', #432, #661, #366 ) ;
#177 = VERTEX_POINT ( 'NONE', #89 ) ;
#178 = ORIENTED_EDGE ( 'NONE', *, *, #347, .T. ) ;
#179 = CONICAL_SURFACE ( 'NONE', #690, 1.443375672974064106, 1.013248818828625719 ) ;
#180 = CARTESIAN_POINT ( 'NONE',  ( -14.20000000000000107, -0.7216878364870324969, 1.249999999999999556 ) ) ;
#181 = PLANE ( 'NONE',  #470 ) ;
#182 = ORIENTED_EDGE ( 'NONE', *, *, #418, .T. ) ;
#183 = ORIENTED_EDGE ( 'NONE', *, *, #243, .T. ) ;
#184 = CARTESIAN_POINT ( 'NONE',  ( -14.20000000000000107, -1.443375672974064328, 3.035766082959413993E-15 ) ) ;
#185 =( GEOMETRIC_REPRESENTATION_CONTEXT ( 3 ) GLOBAL_UNCERTAINTY_ASSIGNED_CONTEXT ( ( #142 ) ) GLOBAL_UNIT_ASSIGNED_CONTEXT ( ( #146, #317, #448 ) ) REPRESENTATION_CONTEXT ( 'NONE', 'WORKASPACE' ) );
#186 = ORIENTED_EDGE ( 'NONE', *, *, #675, .T. ) ;
#187 = ORIENTED_EDGE ( 'NONE', *, *, #43, .F. ) ;
#188 = DIRECTION ( 'NONE',  ( 0.000000000000000000, 0.000000000000000000, -1.000000000000000000 ) ) ;
#189 = DIRECTION ( 'NONE',  ( -1.000000000000000000, -0.000000000000000000, 0.000000000000000000 ) ) ;
#190 = ORIENTED_EDGE ( 'NONE', *, *, #250, .F. ) ;
#191 = PLANE ( 'NONE',  #48 ) ;
#192 = EDGE_CURVE ( 'NONE', #459, #363, #547, .T. ) ;
#193 = EDGE_CURVE ( 'NONE', #105, #416, #151, .T. ) ;
#194 = DIRECTION ( 'NONE',  ( 0.000000000000000000, 0.000000000000000000, 1.000000000000000000 ) ) ;
#195 = CARTESIAN_POINT ( 'NONE',  ( 0.000000000000000000, 0.000000000000000000, 0.000000000000000000 ) ) ;
#196 = CARTESIAN_POINT ( 'NONE',  ( -12.90000000000000213, 0.000000000000000000, 0.000000000000000000 ) ) ;
#197 = ORIENTED_EDGE ( 'NONE', *, *, #568, .T. ) ;
#198 = DIRECTION ( 'NONE',  ( 1.000000000000000000, 0.000000000000000000, 0.000000000000000000 ) ) ;
#199 = CARTESIAN_POINT ( 'NONE',  ( -12.00000000000000000, -3.800000000000000266, -4.653657836759942730E-16 ) ) ;
#200 = CARTESIAN_POINT ( 'NONE',  ( -11.79999999999999893, 0.000000000000000000, 0.000000000000000000 ) ) ;
#201 = CIRCLE ( 'NONE', #384, 2.000000000000000000 ) ;
#202 = CARTESIAN_POINT ( 'NONE',  ( -14.16916666666574187, 0.8419691425682040986, -1.041666666666667407 ) ) ;
#203 = CARTESIAN_POINT ( 'NONE',  ( -12.77942286340599587, 0.1219527981751487716, 1.250000000000000222 ) ) ;
#204 = DIRECTION ( 'NONE',  ( 1.000000000000000000, 0.000000000000000000, 0.000000000000000000 ) ) ;
#205 = CARTESIAN_POINT ( 'NONE',  ( -14.20000000000000107, -0.7216878364870309426, -1.250000000000000444 ) ) ;
#206 = DIRECTION ( 'NONE',  ( -1.000000000000000000, -0.000000000000000000, 0.000000000000000000 ) ) ;
#207 = DIRECTION ( 'NONE',  ( -1.000000000000000000, -5.998083099822123814E-17, 0.000000000000000000 ) ) ;
#208 = CARTESIAN_POINT ( 'NONE',  ( -14.16927320067241958, 0.4819564059043958681, -1.249999999999999778 ) ) ;
#209 = CARTESIAN_POINT ( 'NONE',  ( -12.90000000000000213, -0.7216878364870328300, 1.250000000000000222 ) ) ;
#210 = CARTESIAN_POINT ( 'NONE',  ( -12.00000000000000000, -2.694222958124175527E-16, 2.199999999999998845 ) ) ;
#211 =( NAMED_UNIT ( * ) PLANE_ANGLE_UNIT ( ) SI_UNIT ( $, .RADIAN. ) );
#212 = CARTESIAN_POINT ( 'NONE',  ( -14.20000000000000107, 0.7216878364870321638, 1.250000000000000222 ) ) ;
#213 = CARTESIAN_POINT ( 'NONE',  ( -12.77964865737705225, 1.206490558868565710, 0.4102970531874744475 ) ) ;
#214 = EDGE_CURVE ( 'NONE', #161, #678, #219, .T. ) ;
#215 = FACE_OUTER_BOUND ( 'NONE', #697, .T. ) ;
#216 = ORIENTED_EDGE ( 'NONE', *, *, #27, .T. ) ;
#217 = DIRECTION ( 'NONE',  ( 5.691969551695359369E-17, -1.000000000000000000, 0.000000000000000000 ) ) ;
#218 = ORIENTED_EDGE ( 'NONE', *, *, #524, .T. ) ;
#219 = B_SPLINE_CURVE_WITH_KNOTS ( 'NONE', 3,
 ( #97, #520, #100, #729, #275, #733 ),
 .UNSPECIFIED., .F., .F.,
 ( 4, 2, 4 ),
 ( 0.001876385854435920399, 0.002242080329067761349, 0.002607774803699601865 ),
 .UNSPECIFIED. ) ;
#220 = VECTOR ( 'NONE', #345, 1000.000000000000000 ) ;
#221 = ADVANCED_FACE ( 'NONE', ( #328 ), #510, .F. ) ;
#222 = LINE ( 'NONE', #681, #725 ) ;
#223 = CARTESIAN_POINT ( 'NONE',  ( -1013.830000000000041, -5.995863809075189324E-14, 0.000000000000000000 ) ) ;
#224 = DIRECTION ( 'NONE',  ( 0.000000000000000000, 1.000000000000000000, 0.000000000000000000 ) ) ;
#225 = ORIENTED_EDGE ( 'NONE', *, *, #601, .T. ) ;
#226 = ORIENTED_EDGE ( 'NONE', *, *, #389, .F. ) ;
#227 = CARTESIAN_POINT ( 'NONE',  ( -14.20000000000000107, 0.000000000000000000, -1.999999999999999112 ) ) ;
#228 = EDGE_CURVE ( 'NONE', #459, #570, #277, .T. ) ;
#229 = AXIS2_PLACEMENT_3D ( 'NONE', #575, #4, #639 ) ;
#230 = ORIENTED_EDGE ( 'NONE', *, *, #552, .T. ) ;
#231 = EDGE_LOOP ( 'NONE', ( #515, #542 ) ) ;
#232 = CARTESIAN_POINT ( 'NONE',  ( -14.16916666666574187, -1.323094366892894280, -0.2083333333333315940 ) ) ;
#233 = FACE_OUTER_BOUND ( 'NONE', #8, .T. ) ;
#234 = ORIENTED_EDGE ( 'NONE', *, *, #169, .T. ) ;
#235 = VERTEX_POINT ( 'NONE', #2 ) ;
#236 = APPLICATION_CONTEXT ( 'automotive_design' ) ;
#237 = CARTESIAN_POINT ( 'NONE',  ( -11.79999999999999893, 0.000000000000000000, 0.000000000000000000 ) ) ;
#238 = AXIS2_PLACEMENT_3D ( 'NONE', #157, #206, #499 ) ;
#239 = CARTESIAN_POINT ( 'NONE',  ( -12.00000000000000000, -0.7216878364870328300, 1.250000000000000222 ) ) ;
#240 = CARTESIAN_POINT ( 'NONE',  ( -10.72727272727272840, 0.000000000000000000, 0.000000000000000000 ) ) ;
#241 = CARTESIAN_POINT ( 'NONE',  ( -14.20000000000000107, 0.7216878364870323859, -1.250000000000000000 ) ) ;
#242 = ORIENTED_EDGE ( 'NONE', *, *, #390, .F. ) ;
#243 = EDGE_CURVE ( 'NONE', #422, #386, #222, .T. ) ;
#244 = FACE_OUTER_BOUND ( 'NONE', #75, .T. ) ;
#245 = ADVANCED_FACE ( 'NONE', ( #111 ), #464, .F. ) ;
#246 = CARTESIAN_POINT ( 'NONE',  ( -14.20000000000000107, 2.219290746934189176E-17, 3.599228117386048901E-16 ) ) ;
#247 = PLANE ( 'NONE',  #514 ) ;
#248 = VERTEX_POINT ( 'NONE', #633 ) ;
#249 = CARTESIAN_POINT ( 'NONE',  ( -14.20000000000000107, -0.7216878364870324969, 1.249999999999999556 ) ) ;
#250 = EDGE_CURVE ( 'NONE', #607, #177, #372, .T. ) ;
#251 = APPLICATION_CONTEXT ( 'automotive_design' ) ;
#252 = DIRECTION ( 'NONE',  ( 0.000000000000000000, 0.000000000000000000, -1.000000000000000000 ) ) ;
#253 = DIRECTION ( 'NONE',  ( -1.000000000000000000, -0.000000000000000000, 0.000000000000000000 ) ) ;
#254 = VERTEX_POINT ( 'NONE', #173 ) ;
#255 = CARTESIAN_POINT ( 'NONE',  ( -12.00000000000000000, 0.7216878364870323859, -1.249999999999999778 ) ) ;
#256 = B_SPLINE_CURVE_WITH_KNOTS ( 'NONE', 3,
 ( #330, #152, #512, #677, #203, #380 ),
 .UNSPECIFIED., .F., .F.,
 ( 4, 2, 4 ),
 ( 0.003836159553464219343, 0.004202463752521878176, 0.004568767951579537009 ),
 .UNSPECIFIED. ) ;
#257 = CARTESIAN_POINT ( 'NONE',  ( -11.79999999999999893, -2.694222958124175527E-16, 2.199999999999998845 ) ) ;
#258 = PRODUCT ( '镜向GB╱T 70.2-2015[内六角平圆头螺钉M4×12]', '镜向GB╱T 70.2-2015[内六角平圆头螺钉M4×12]', '', ( #114 ) ) ;
#259 = DIRECTION ( 'NONE',  ( 0.000000000000000000, 0.000000000000000000, -1.000000000000000000 ) ) ;
#260 = VECTOR ( 'NONE', #563, 1000.000000000000000 ) ;
#261 = CARTESIAN_POINT ( 'NONE',  ( -12.90000000000000213, -1.443375672974065216, 5.870030462665943960E-16 ) ) ;
#262 = DIRECTION ( 'NONE',  ( 0.000000000000000000, 0.000000000000000000, -1.000000000000000000 ) ) ;
#263 = CARTESIAN_POINT ( 'NONE',  ( -12.90000000000000213, -0.7216878364870328300, 1.250000000000000222 ) ) ;
#264 = CARTESIAN_POINT ( 'NONE',  ( -12.90000000000000213, 0.000000000000000000, -1.443375672974064106 ) ) ;
#265 = AXIS2_PLACEMENT_3D ( 'NONE', #223, #467, #115 ) ;
#266 =( NAMED_UNIT ( * ) PLANE_ANGLE_UNIT ( ) SI_UNIT ( $, .RADIAN. ) );
#267 = EDGE_CURVE ( 'NONE', #254, #700, #201, .T. ) ;
#268 = CARTESIAN_POINT ( 'NONE',  ( -1013.830000000000041, -5.995863809075189324E-14, 0.000000000000000000 ) ) ;
#269 = AXIS2_PLACEMENT_3D ( 'NONE', #257, #498, #719 ) ;
#270 = FILL_AREA_STYLE ('',( #450 ) ) ;
#271 = PRESENTATION_LAYER_ASSIGNMENT (  '', '', ( #14 ) ) ;
#272 = FILL_AREA_STYLE_COLOUR ( '', #617 ) ;
#273 = AXIS2_PLACEMENT_3D ( 'NONE', #237, #121, #479 ) ;
#274 = ORIENTED_EDGE ( 'NONE', *, *, #193, .F. ) ;
#275 = CARTESIAN_POINT ( 'NONE',  ( -12.86374379380171185, 0.6053960008849365027, -1.249999999999999778 ) ) ;
#276 = EDGE_CURVE ( 'NONE', #235, #700, #51, .T. ) ;
#277 = CIRCLE ( 'NONE', #6, 2.199999999999998845 ) ;
#278 = DIRECTION ( 'NONE',  ( 0.000000000000000000, 0.000000000000000000, -1.000000000000000000 ) ) ;
#279 = STYLED_ITEM ( 'NONE', ( #166 ), #145 ) ;
#280 = EDGE_CURVE ( 'NONE', #696, #248, #50, .T. ) ;
#281 = CARTESIAN_POINT ( 'NONE',  ( -11.79999999999999893, -2.449293598294704935E-16, 1.999999999999997780 ) ) ;
#282 = CARTESIAN_POINT ( 'NONE',  ( -14.20000000000000107, -0.7216878364870324969, 1.249999999999999556 ) ) ;
#283 = ORIENTED_EDGE ( 'NONE', *, *, #102, .F. ) ;
#284 = ORIENTED_EDGE ( 'NONE', *, *, #523, .T. ) ;
#285 = LINE ( 'NONE', #118, #720 ) ;
#286 = STYLED_ITEM ( 'NONE', ( #38 ), #168 ) ;
#287 = ADVANCED_FACE ( 'NONE', ( #56, #578 ), #522, .F. ) ;
#288 = DIRECTION ( 'NONE',  ( 1.000000000000000000, 0.000000000000000000, -0.000000000000000000 ) ) ;
#289 = CARTESIAN_POINT ( 'NONE',  ( -12.82677104533570400, 1.325934682174326973, 0.2034137629563741723 ) ) ;
#290 = CARTESIAN_POINT ( 'NONE',  ( -10.72727272727272840, 0.000000000000000000, 0.000000000000000000 ) ) ;
#291 = ORIENTED_EDGE ( 'NONE', *, *, #35, .T. ) ;
#292 = VERTEX_POINT ( 'NONE', #281 ) ;
#293 = CONICAL_SURFACE ( 'NONE', #728, 3901.015332362329445, 1.319856261027561928 ) ;
#294 = CARTESIAN_POINT ( 'NONE',  ( -14.15048909679995681, 0.2418642655271367736, 1.250000000000000000 ) ) ;
#295 = APPLICATION_PROTOCOL_DEFINITION ( 'draft international standard', 'automotive_design', 1998, #236 ) ;
#296 = CONICAL_SURFACE ( 'NONE', #536, 2.000000000000000000, 1.047197551196597631 ) ;
#297 = AXIS2_PLACEMENT_3D ( 'NONE', #9, #698, #310 ) ;
#298 = ORIENTED_EDGE ( 'NONE', *, *, #465, .F. ) ;
#299 = ORIENTED_EDGE ( 'NONE', *, *, #192, .F. ) ;
#300 = CARTESIAN_POINT ( 'NONE',  ( -14.16927320067241958, 0.4819564059043952020, 1.250000000000000222 ) ) ;
#301 = ADVANCED_FACE ( 'NONE', ( #525 ), #431, .F. ) ;
#302 = DIRECTION ( 'NONE',  ( 1.000000000000000000, 0.000000000000000000, -0.000000000000000000 ) ) ;
#303 = CARTESIAN_POINT ( 'NONE',  ( -14.20000000000000107, -1.443375672974064328, 3.035766082959413993E-15 ) ) ;
#304 = ADVANCED_FACE ( 'NONE', ( #175 ), #469, .F. ) ;
#305 = EDGE_LOOP ( 'NONE', ( #557, #298, #216, #488 ) ) ;
#306 = DIRECTION ( 'NONE',  ( -1.000000000000000000, -0.000000000000000000, 0.000000000000000000 ) ) ;
#307 = VECTOR ( 'NONE', #613, 1000.000000000000000 ) ;
#308 = EDGE_LOOP ( 'NONE', ( #519, #626, #646, #528 ) ) ;
#309 = ORIENTED_EDGE ( 'NONE', *, *, #625, .T. ) ;
#310 = DIRECTION ( 'NONE',  ( 1.000000000000000000, 0.000000000000000000, 0.000000000000000000 ) ) ;
#311 = DIRECTION ( 'NONE',  ( 0.000000000000000000, 0.000000000000000000, -1.000000000000000000 ) ) ;
#312 = ORIENTED_EDGE ( 'NONE', *, *, #228, .T. ) ;
#313 = TOROIDAL_SURFACE ( 'NONE', #455, 2.199999999999998845, 0.2000000000000009548 ) ;
#314 = CARTESIAN_POINT ( 'NONE',  ( -14.20000000000000107, 1.443375672974064328, -9.757819552369541878E-16 ) ) ;
#315 = FACE_OUTER_BOUND ( 'NONE', #305, .T. ) ;
#316 = ORIENTED_EDGE ( 'NONE', *, *, #325, .T. ) ;
#317 =( NAMED_UNIT ( * ) PLANE_ANGLE_UNIT ( ) SI_UNIT ( $, .RADIAN. ) );
#318 = CARTESIAN_POINT ( 'NONE',  ( -0.3500000000000000333, 0.000000000000000000, -2.000000000000000000 ) ) ;
#319 = CARTESIAN_POINT ( 'NONE',  ( -12.77942286340599587, -0.2440392103072525354, 1.250000000000000222 ) ) ;
#320 = CARTESIAN_POINT ( 'NONE',  ( -12.77942286340599587, -4.330491382256005356E-23, -1.249999999999999778 ) ) ;
#321 = CONICAL_SURFACE ( 'NONE', #388, 1.443375672974064106, 1.013248818828625719 ) ;
#322 = DIRECTION ( 'NONE',  ( 5.691969551695359369E-17, -1.000000000000000000, 0.000000000000000000 ) ) ;
#323 = FACE_OUTER_BOUND ( 'NONE', #355, .T. ) ;
#324 = LINE ( 'NONE', #86, #260 ) ;
#325 = EDGE_CURVE ( 'NONE', #363, #292, #99, .T. ) ;
#326 = PRESENTATION_STYLE_ASSIGNMENT (( #391 ) ) ;
#327 = EDGE_CURVE ( 'NONE', #248, #696, #172, .T. ) ;
#328 = FACE_OUTER_BOUND ( 'NONE', #551, .T. ) ;
#329 = LINE ( 'NONE', #42, #401 ) ;
#330 = CARTESIAN_POINT ( 'NONE',  ( -12.90000000000000213, 0.7216878364870328300, 1.249999999999999112 ) ) ;
#331 = CARTESIAN_POINT ( 'NONE',  ( -12.82677104533570400, -0.8391288272867704068, 1.046586237043626300 ) ) ;
#332 = TOROIDAL_SURFACE ( 'NONE', #10, 2.199999999999998845, 0.2000000000000009548 ) ;
#333 = VECTOR ( 'NONE', #306, 1000.000000000000000 ) ;
#334 = VERTEX_POINT ( 'NONE', #282 ) ;
#335 = ORIENTED_EDGE ( 'NONE', *, *, #379, .T. ) ;
#336 = AXIS2_PLACEMENT_3D ( 'NONE', #605, #348, #65 ) ;
#337 = DIRECTION ( 'NONE',  ( 0.000000000000000000, 0.000000000000000000, -1.000000000000000000 ) ) ;
#338 = SURFACE_SIDE_STYLE ('',( #592 ) ) ;
#339 = AXIS2_PLACEMENT_3D ( 'NONE', #405, #635, #340 ) ;
#340 = DIRECTION ( 'NONE',  ( 0.000000000000000000, 0.000000000000000000, 1.000000000000000000 ) ) ;
#341 = FILL_AREA_STYLE ('',( #3 ) ) ;
#342 = CLOSED_SHELL ( 'NONE', ( #54, #93, #21, #653, #153, #159, #287, #687, #449, #632, #396, #301, #704, #147, #407, #221, #726, #490, #108, #304, #245, #518, #55, #504, #673 ) ) ;
#343 = DIRECTION ( 'NONE',  ( 1.000000000000000000, 0.000000000000000000, -0.000000000000000000 ) ) ;
#344 = CARTESIAN_POINT ( 'NONE',  ( -11.79999999999999893, 0.000000000000000000, 0.000000000000000000 ) ) ;
#345 = DIRECTION ( 'NONE',  ( -1.000000000000000000, -0.000000000000000000, 0.000000000000000000 ) ) ;
#346 = EDGE_LOOP ( 'NONE', ( #430, #656 ) ) ;
#347 = EDGE_CURVE ( 'NONE', #691, #161, #576, .T. ) ;
#348 = DIRECTION ( 'NONE',  ( 1.000000000000000000, 0.000000000000000000, -0.000000000000000000 ) ) ;
#349 = DIRECTION ( 'NONE',  ( 0.000000000000000000, 0.000000000000000000, -1.000000000000000000 ) ) ;
#350 = DIRECTION ( 'NONE',  ( -0.000000000000000000, 1.224646799147353207E-16, -1.000000000000000000 ) ) ;
#351 = VERTEX_POINT ( 'NONE', #419 ) ;
#352 = ORIENTED_EDGE ( 'NONE', *, *, #170, .F. ) ;
#353 = FACE_OUTER_BOUND ( 'NONE', #308, .T. ) ;
#354 = CARTESIAN_POINT ( 'NONE',  ( -12.77942286340599587, -0.2440392103072532015, -1.249999999999999778 ) ) ;
#355 = EDGE_LOOP ( 'NONE', ( #721, #352, #234, #679, #356 ) ) ;
#356 = ORIENTED_EDGE ( 'NONE', *, *, #390, .T. ) ;
#357 = B_SPLINE_CURVE_WITH_KNOTS ( 'NONE', 3,
 ( #544, #25, #482, #136, #612 ),
 .UNSPECIFIED., .F., .F.,
 ( 4, 1, 4 ),
 ( 2.309401076757153916E-07, 0.0007219187765947085661, 0.001443606613081741463 ),
 .UNSPECIFIED. ) ;
#358 = CARTESIAN_POINT ( 'NONE',  ( -12.00000000000000000, 0.000000000000000000, -2.199999999999998845 ) ) ;
#359 = EDGE_CURVE ( 'NONE', #643, #607, #12, .T. ) ;
#360 = CARTESIAN_POINT ( 'NONE',  ( -12.00000000000000000, 0.000000000000000000, 0.000000000000000000 ) ) ;
#361 = DIRECTION ( 'NONE',  ( 0.000000000000000000, 0.000000000000000000, -1.000000000000000000 ) ) ;
#362 = ORIENTED_EDGE ( 'NONE', *, *, #359, .F. ) ;
#363 = VERTEX_POINT ( 'NONE', #583 ) ;
#364 = DIRECTION ( 'NONE',  ( -1.000000000000000000, -0.000000000000000000, 0.000000000000000000 ) ) ;
#365 = CARTESIAN_POINT ( 'NONE',  ( -1013.830000000000041, -5.995863809075189324E-14, 0.000000000000000000 ) ) ;
#366 = DIRECTION ( 'NONE',  ( 5.691969551695359369E-17, -1.000000000000000000, 0.000000000000000000 ) ) ;
#367 = CARTESIAN_POINT ( 'NONE',  ( -12.82664516406750366, 0.8393307094615335417, 1.046236566859792605 ) ) ;
#368 = PRODUCT_DEFINITION_CONTEXT ( 'detailed design', #236, 'design' ) ;
#369 = EDGE_LOOP ( 'NONE', ( #64, #63, #71, #477 ) ) ;
#370 = VERTEX_POINT ( 'NONE', #668 ) ;
#371 = CARTESIAN_POINT ( 'NONE',  ( -0.3500000000000000333, 0.000000000000000000, 0.000000000000000000 ) ) ;
#372 = CIRCLE ( 'NONE', #701, 1.443375672974063884 ) ;
#373 = DIRECTION ( 'NONE',  ( 0.000000000000000000, 0.000000000000000000, -1.000000000000000000 ) ) ;
#374 =( GEOMETRIC_REPRESENTATION_CONTEXT ( 3 ) GLOBAL_UNCERTAINTY_ASSIGNED_CONTEXT ( ( #440 ) ) GLOBAL_UNIT_ASSIGNED_CONTEXT ( ( #511, #266, #505 ) ) REPRESENTATION_CONTEXT ( 'NONE', 'WORKASPACE' ) );
#375 = B_SPLINE_CURVE_WITH_KNOTS ( 'NONE', 3,
 ( #428, #543, #113, #232, #587 ),
 .UNSPECIFIED., .F., .F.,
 ( 4, 1, 4 ),
 ( 2.309401076739671950E-07, 0.0007219187765947080240, 0.001443606613081742113 ),
 .UNSPECIFIED. ) ;
#376 = EDGE_LOOP ( 'NONE', ( #69, #116, #284, #316 ) ) ;
#377 = CIRCLE ( 'NONE', #400, 3.800000000000000266 ) ;
#378 = DIRECTION ( 'NONE',  ( 1.000000000000000000, 0.000000000000000000, -0.000000000000000000 ) ) ;
#379 = EDGE_CURVE ( 'NONE', #732, #351, #377, .T. ) ;
#380 = CARTESIAN_POINT ( 'NONE',  ( -12.77942286340599587, -1.530808931984589755E-16, 1.250000000000000222 ) ) ;
#381 = DIRECTION ( 'NONE',  ( -1.000000000000000000, -0.000000000000000000, -0.000000000000000000 ) ) ;
#382 = FACE_OUTER_BOUND ( 'NONE', #49, .T. ) ;
#383 = SURFACE_STYLE_USAGE ( .BOTH. , #567 ) ;
#384 = AXIS2_PLACEMENT_3D ( 'NONE', #571, #343, #580 ) ;
#385 = DIRECTION ( 'NONE',  ( -0.000000000000000000, 0.000000000000000000, -1.000000000000000000 ) ) ;
#386 = VERTEX_POINT ( 'NONE', #314 ) ;
#387 = CARTESIAN_POINT ( 'NONE',  ( -14.20000000000000107, 0.000000000000000000, 0.000000000000000000 ) ) ;
#388 = AXIS2_PLACEMENT_3D ( 'NONE', #84, #443, #311 ) ;
#389 = EDGE_CURVE ( 'NONE', #334, #643, #139, .T. ) ;
#390 = EDGE_CURVE ( 'NONE', #105, #334, #24, .T. ) ;
#391 = SURFACE_STYLE_USAGE ( .BOTH. , #155 ) ;
#392 = CIRCLE ( 'NONE', #485, 1.443375672974063884 ) ;
#393 =( NAMED_UNIT ( * ) SI_UNIT ( $, .STERADIAN. ) SOLID_ANGLE_UNIT ( ) );
#394 = CARTESIAN_POINT ( 'NONE',  ( -12.77964865737705225, -0.9585729505925316696, 0.8397029468125257745 ) ) ;
#395 = DIRECTION ( 'NONE',  ( -1.000000000000000000, -5.998083099822123814E-17, 0.000000000000000000 ) ) ;
#396 = ADVANCED_FACE ( 'NONE', ( #425 ), #68, .F. ) ;
#397 = FILL_AREA_STYLE_COLOUR ( '', #137 ) ;
#398 = CARTESIAN_POINT ( 'NONE',  ( -11.79999999999999893, 0.000000000000000000, -2.199999999999998845 ) ) ;
#399 = ORIENTED_EDGE ( 'NONE', *, *, #644, .F. ) ;
#400 = AXIS2_PLACEMENT_3D ( 'NONE', #360, #302, #252 ) ;
#401 = VECTOR ( 'NONE', #727, 1000.000000000000000 ) ;
#402 = ORIENTED_EDGE ( 'NONE', *, *, #325, .F. ) ;
#403 = EDGE_CURVE ( 'NONE', #177, #386, #500, .T. ) ;
#404 = DIRECTION ( 'NONE',  ( 0.000000000000000000, -0.4999999999999996669, 0.8660254037844388186 ) ) ;
#405 = CARTESIAN_POINT ( 'NONE',  ( -14.20000000000000107, 0.000000000000000000, 0.000000000000000000 ) ) ;
#406 = CARTESIAN_POINT ( 'NONE',  ( -0.3500000000000000333, 0.000000000000000000, -2.000000000000000000 ) ) ;
#407 = ADVANCED_FACE ( 'NONE', ( #83 ), #72, .F. ) ;
#408 = CONICAL_SURFACE ( 'NONE', #438, 3901.015332362329445, 1.319856261027561928 ) ;
#409 = LINE ( 'NONE', #227, #333 ) ;
#410 = AXIS2_PLACEMENT_3D ( 'NONE', #441, #148, #549 ) ;
#411 = EDGE_LOOP ( 'NONE', ( #593, #335 ) ) ;
#412 = ORIENTED_EDGE ( 'NONE', *, *, #644, .T. ) ;
#413 = CARTESIAN_POINT ( 'NONE',  ( -14.16921124011832589, -0.4814729877613865838, 1.250000000000000000 ) ) ;
#414 = CARTESIAN_POINT ( 'NONE',  ( -12.90000000000000213, -0.7216878364870332740, -1.249999999999999778 ) ) ;
#415 = ORIENTED_EDGE ( 'NONE', *, *, #539, .T. ) ;
#416 = VERTEX_POINT ( 'NONE', #600 ) ;
#417 = CARTESIAN_POINT ( 'NONE',  ( -12.82677104533570400, 0.8391288272867697406, -1.046586237043625411 ) ) ;
#418 = EDGE_CURVE ( 'NONE', #678, #422, #446, .T. ) ;
#419 = CARTESIAN_POINT ( 'NONE',  ( -12.00000000000000000, 3.800000000000000266, 0.000000000000000000 ) ) ;
#420 = SPHERICAL_SURFACE ( 'NONE', #47, 4.007472359323742239 ) ;
#421 = ORIENTED_EDGE ( 'NONE', *, *, #434, .F. ) ;
#422 = VERTEX_POINT ( 'NONE', #648 ) ;
#423 = CARTESIAN_POINT ( 'NONE',  ( -12.00000000000000000, 0.000000000000000000, 0.000000000000000000 ) ) ;
#424 = PRODUCT_DEFINITION ( '未知', '', #74, #368 ) ;
#425 = FACE_OUTER_BOUND ( 'NONE', #120, .T. ) ;
#426 = DIRECTION ( 'NONE',  ( 0.000000000000000000, 0.000000000000000000, -1.000000000000000000 ) ) ;
#427 = ORIENTED_EDGE ( 'NONE', *, *, #403, .F. ) ;
#428 = CARTESIAN_POINT ( 'NONE',  ( -14.20000000000000107, -0.7216878364870309426, -1.250000000000000444 ) ) ;
#429 = DIRECTION ( 'NONE',  ( -1.000000000000000000, -0.000000000000000000, 0.000000000000000000 ) ) ;
#430 = ORIENTED_EDGE ( 'NONE', *, *, #280, .F. ) ;
#431 = CONICAL_SURFACE ( 'NONE', #265, 3901.015332362329445, 1.319856261027561928 ) ;
#432 = CARTESIAN_POINT ( 'NONE',  ( -1013.830000000000041, -5.995863809075189324E-14, 0.000000000000000000 ) ) ;
#433 = DIRECTION ( 'NONE',  ( 0.000000000000000000, -0.000000000000000000, 1.000000000000000000 ) ) ;
#434 = EDGE_CURVE ( 'NONE', #292, #363, #609, .T. ) ;
#435 = CARTESIAN_POINT ( 'NONE',  ( -14.20000000000000107, 0.7216878364870323859, -1.250000000000000000 ) ) ;
#436 = LINE ( 'NONE', #138, #307 ) ;
#437 = AXIS2_PLACEMENT_3D ( 'NONE', #156, #378, #37 ) ;
#438 = AXIS2_PLACEMENT_3D ( 'NONE', #454, #395, #158 ) ;
#439 = CARTESIAN_POINT ( 'NONE',  ( -12.90000000000000213, 0.7216878364870323859, -1.249999999999999778 ) ) ;
#440 = UNCERTAINTY_MEASURE_WITH_UNIT (LENGTH_MEASURE( 1.000000000000000082E-05 ), #511, 'distance_accuracy_value', 'NONE');
#441 = CARTESIAN_POINT ( 'NONE',  ( -12.00000000000000178, 0.000000000000000000, 0.000000000000000000 ) ) ;
#442 = PRESENTATION_STYLE_ASSIGNMENT (( #383 ) ) ;
#443 = DIRECTION ( 'NONE',  ( -1.000000000000000000, -0.000000000000000000, 0.000000000000000000 ) ) ;
#444 = ORIENTED_EDGE ( 'NONE', *, *, #110, .T. ) ;
#445 = EDGE_CURVE ( 'NONE', #254, #292, #703, .T. ) ;
#446 = B_SPLINE_CURVE_WITH_KNOTS ( 'NONE', 3,
 ( #546, #417, #591, #23, #476, #713 ),
 .UNSPECIFIED., .F., .F.,
 ( 4, 2, 4 ),
 ( 2.391904125708790558E-07, 0.0007300545202770514219, 0.001459869850141531965 ),
 .UNSPECIFIED. ) ;
#447 = CARTESIAN_POINT ( 'NONE',  ( -14.20000000000000107, 2.219290746934189176E-17, 3.599228117386048901E-16 ) ) ;
#448 =( NAMED_UNIT ( * ) SI_UNIT ( $, .STERADIAN. ) SOLID_ANGLE_UNIT ( ) );
#449 = ADVANCED_FACE ( 'NONE', ( #28, #553 ), #191, .F. ) ;
#450 = FILL_AREA_STYLE_COLOUR ( '', #18 ) ;
#451 =( GEOMETRIC_REPRESENTATION_CONTEXT ( 3 ) GLOBAL_UNCERTAINTY_ASSIGNED_CONTEXT ( ( #615 ) ) GLOBAL_UNIT_ASSIGNED_CONTEXT ( ( #11, #581, #61 ) ) REPRESENTATION_CONTEXT ( 'NONE', 'WORKASPACE' ) );
#452 = PRODUCT_RELATED_PRODUCT_CATEGORY ( 'part', '', ( #258 ) ) ;
#453 = CARTESIAN_POINT ( 'NONE',  ( -12.77919874466209471, -1.204657989547420316, 0.4134711563600920181 ) ) ;
#454 = CARTESIAN_POINT ( 'NONE',  ( -1013.830000000000041, -5.995863809075189324E-14, 0.000000000000000000 ) ) ;
#455 = AXIS2_PLACEMENT_3D ( 'NONE', #200, #429, #259 ) ;
#456 =( LENGTH_UNIT ( ) NAMED_UNIT ( * ) SI_UNIT ( .MILLI., .METRE. ) );
#457 = DIRECTION ( 'NONE',  ( -1.000000000000000000, -5.998083099822123814E-17, 0.000000000000000000 ) ) ;
#458 = EDGE_LOOP ( 'NONE', ( #545, #187 ) ) ;
#459 = VERTEX_POINT ( 'NONE', #358 ) ;
#460 = B_SPLINE_CURVE_WITH_KNOTS ( 'NONE', 3,
 ( #507, #34, #494, #202, #435 ),
 .UNSPECIFIED., .F., .F.,
 ( 4, 1, 4 ),
 ( 2.309401076766420986E-07, 0.0007219187765947084577, 0.001443606613081740162 ),
 .UNSPECIFIED. ) ;
#461 = PRODUCT_DEFINITION_SHAPE ( 'NONE', 'NONE',  #424 ) ;
#462 = VERTEX_POINT ( 'NONE', #484 ) ;
#463 = CIRCLE ( 'NONE', #437, 1.393782217350892916 ) ;
#464 = PLANE ( 'NONE',  #149 ) ;
#465 = EDGE_CURVE ( 'NONE', #351, #732, #569, .T. ) ;
#466 = EDGE_CURVE ( 'NONE', #700, #254, #630, .T. ) ;
#467 = DIRECTION ( 'NONE',  ( -1.000000000000000000, -5.998083099822123814E-17, 0.000000000000000000 ) ) ;
#468 = VECTOR ( 'NONE', #684, 1000.000000000000000 ) ;
#469 = PLANE ( 'NONE',  #80 ) ;
#470 = AXIS2_PLACEMENT_3D ( 'NONE', #141, #381, #90 ) ;
#471 = ORIENTED_EDGE ( 'NONE', *, *, #625, .F. ) ;
#472 = ORIENTED_EDGE ( 'NONE', *, *, #250, .T. ) ;
#473 = CARTESIAN_POINT ( 'NONE',  ( -14.13169213213474507, -1.082531754730548856, 0.6250000000000016653 ) ) ;
#474 = ORIENTED_EDGE ( 'NONE', *, *, #508, .F. ) ;
#475 = ORIENTED_EDGE ( 'NONE', *, *, #41, .T. ) ;
#476 = CARTESIAN_POINT ( 'NONE',  ( -12.82664516406750366, 1.325732799999563616, -0.2037634331402067567 ) ) ;
#477 = ORIENTED_EDGE ( 'NONE', *, *, #27, .F. ) ;
#478 = ORIENTED_EDGE ( 'NONE', *, *, #243, .F. ) ;
#479 = DIRECTION ( 'NONE',  ( 0.000000000000000000, 0.000000000000000000, -1.000000000000000000 ) ) ;
#480 =( GEOMETRIC_REPRESENTATION_CONTEXT ( 3 ) GLOBAL_UNCERTAINTY_ASSIGNED_CONTEXT ( ( #131 ) ) GLOBAL_UNIT_ASSIGNED_CONTEXT ( ( #456, #211, #393 ) ) REPRESENTATION_CONTEXT ( 'NONE', 'WORKASPACE' ) );
#481 = DIRECTION ( 'NONE',  ( -1.000000000000000000, -0.000000000000000000, 0.000000000000000000 ) ) ;
#482 = CARTESIAN_POINT ( 'NONE',  ( -14.13169213213474507, 1.082531754730548856, 0.6250000000000000000 ) ) ;
#483 = CIRCLE ( 'NONE', #269, 0.2000000000000009548 ) ;
#484 = CARTESIAN_POINT ( 'NONE',  ( 0.000000000000000000, -2.078092264740989006E-16, 1.393782217350892916 ) ) ;
#485 = AXIS2_PLACEMENT_3D ( 'NONE', #36, #204, #706 ) ;
#486 = DIRECTION ( 'NONE',  ( 1.000000000000000000, 0.000000000000000000, 0.000000000000000000 ) ) ;
#487 = CARTESIAN_POINT ( 'NONE',  ( -12.90000000000000213, -0.7216878364870328300, 1.250000000000000222 ) ) ;
#488 = ORIENTED_EDGE ( 'NONE', *, *, #280, .T. ) ;
#489 = DIRECTION ( 'NONE',  ( -1.000000000000000000, -0.000000000000000000, -0.000000000000000000 ) ) ;
#490 = ADVANCED_FACE ( 'NONE', ( #657 ), #597, .F. ) ;
#491 = DIRECTION ( 'NONE',  ( 0.000000000000000000, 0.000000000000000000, 1.000000000000000000 ) ) ;
#492 = FACE_OUTER_BOUND ( 'NONE', #26, .T. ) ;
#493 = CARTESIAN_POINT ( 'NONE',  ( -14.20000000000000107, -0.7216878364870309426, -1.250000000000000444 ) ) ;
#494 = CARTESIAN_POINT ( 'NONE',  ( -14.13169213213474507, 1.082531754730547968, -0.6250000000000007772 ) ) ;
#495 = AXIS2_PLACEMENT_3D ( 'NONE', #268, #457, #217 ) ;
#496 =( NAMED_UNIT ( * ) SI_UNIT ( $, .STERADIAN. ) SOLID_ANGLE_UNIT ( ) );
#497 = ORIENTED_EDGE ( 'NONE', *, *, #675, .F. ) ;
#498 = DIRECTION ( 'NONE',  ( 0.000000000000000000, -1.000000000000000000, -1.224646799147353207E-16 ) ) ;
#499 = DIRECTION ( 'NONE',  ( 0.000000000000000000, 0.000000000000000000, -1.000000000000000000 ) ) ;
#500 = CIRCLE ( 'NONE', #595, 1.443375672974063884 ) ;
#501 = STYLED_ITEM ( 'NONE', ( #442 ), #159 ) ;
#502 = CARTESIAN_POINT ( 'NONE',  ( -1013.830000000000041, -5.995863809075189324E-14, 0.000000000000000000 ) ) ;
#503 = CIRCLE ( 'NONE', #167, 1.443375672974063884 ) ;
#504 = ADVANCED_FACE ( 'NONE', ( #353 ), #104, .T. ) ;
#505 =( NAMED_UNIT ( * ) SI_UNIT ( $, .STERADIAN. ) SOLID_ANGLE_UNIT ( ) );
#506 = FACE_OUTER_BOUND ( 'NONE', #707, .T. ) ;
#507 = CARTESIAN_POINT ( 'NONE',  ( -14.20000000000000107, 1.443375672974064328, -9.757819552369541878E-16 ) ) ;
#508 = EDGE_CURVE ( 'NONE', #334, #128, #516, .T. ) ;
#509 = SURFACE_STYLE_USAGE ( .BOTH. , #44 ) ;
#510 = CONICAL_SURFACE ( 'NONE', #495, 3901.015332362329445, 1.319856261027561928 ) ;
#511 =( LENGTH_UNIT ( ) NAMED_UNIT ( * ) SI_UNIT ( .MILLI., .METRE. ) );
#512 = CARTESIAN_POINT ( 'NONE',  ( -12.83343568050244698, 0.4873330088410962047, 1.250000000000000222 ) ) ;
#513 = DIRECTION ( 'NONE',  ( 0.000000000000000000, 0.000000000000000000, 1.000000000000000000 ) ) ;
#514 = AXIS2_PLACEMENT_3D ( 'NONE', #255, #88, #616 ) ;
#515 = ORIENTED_EDGE ( 'NONE', *, *, #228, .F. ) ;
#516 = B_SPLINE_CURVE_WITH_KNOTS ( 'NONE', 3,
 ( #249, #413, #82, #294, #300, #77 ),
 .UNSPECIFIED., .F., .F.,
 ( 4, 2, 4 ),
 ( 0.001182686314803312391, 0.001908595411696192238, 0.002634504508589072085 ),
 .UNSPECIFIED. ) ;
#517 = DIRECTION ( 'NONE',  ( 0.000000000000000000, 0.000000000000000000, 1.000000000000000000 ) ) ;
#518 = ADVANCED_FACE ( 'NONE', ( #244 ), #709, .F. ) ;
#519 = ORIENTED_EDGE ( 'NONE', *, *, #524, .F. ) ;
#520 = CARTESIAN_POINT ( 'NONE',  ( -12.77942286340599409, 0.1219527981751485218, -1.249999999999999778 ) ) ;
#521 =( GEOMETRIC_REPRESENTATION_CONTEXT ( 3 ) GLOBAL_UNCERTAINTY_ASSIGNED_CONTEXT ( ( #154 ) ) GLOBAL_UNIT_ASSIGNED_CONTEXT ( ( #135, #558, #496 ) ) REPRESENTATION_CONTEXT ( 'NONE', 'WORKASPACE' ) );
#522 = PLANE ( 'NONE',  #339 ) ;
#523 = EDGE_CURVE ( 'NONE', #700, #363, #409, .T. ) ;
#524 = EDGE_CURVE ( 'NONE', #462, #254, #285, .T. ) ;
#525 = FACE_OUTER_BOUND ( 'NONE', #458, .T. ) ;
#526 = CARTESIAN_POINT ( 'NONE',  ( -12.00000000000000000, -0.7216878364870328300, 1.250000000000000222 ) ) ;
#527 = SURFACE_STYLE_USAGE ( .BOTH. , #338 ) ;
#528 = ORIENTED_EDGE ( 'NONE', *, *, #466, .T. ) ;
#529 = ORIENTED_EDGE ( 'NONE', *, *, #523, .F. ) ;
#530 = MECHANICAL_DESIGN_GEOMETRIC_PRESENTATION_REPRESENTATION (  '', ( #286 ), #480 ) ;
#531 = CARTESIAN_POINT ( 'NONE',  ( -14.16916666666574010, -1.323094366892892060, 0.2083333333333356741 ) ) ;
#532 = AXIS2_PLACEMENT_3D ( 'NONE', #240, #350, #62 ) ;
#533 = FACE_OUTER_BOUND ( 'NONE', #712, .T. ) ;
#534 = ORIENTED_EDGE ( 'NONE', *, *, #192, .T. ) ;
#535 = EDGE_LOOP ( 'NONE', ( #415, #497, #594, #412 ) ) ;
#536 = AXIS2_PLACEMENT_3D ( 'NONE', #30, #189, #426 ) ;
#537 = DIRECTION ( 'NONE',  ( 0.000000000000000000, 0.8660254037844387076, 0.4999999999999998335 ) ) ;
#538 = AXIS2_PLACEMENT_3D ( 'NONE', #371, #364, #652 ) ;
#539 = EDGE_CURVE ( 'NONE', #607, #643, #375, .T. ) ;
#540 = CARTESIAN_POINT ( 'NONE',  ( -12.77919874466209471, 0.9604055199136772858, 0.8365288436399075378 ) ) ;
#541 = ORIENTED_EDGE ( 'NONE', *, *, #574, .F. ) ;
#542 = ORIENTED_EDGE ( 'NONE', *, *, #35, .F. ) ;
#543 = CARTESIAN_POINT ( 'NONE',  ( -14.16916666666574010, -0.8419691425682047647, -1.041666666666667407 ) ) ;
#544 = CARTESIAN_POINT ( 'NONE',  ( -14.20000000000000107, 0.7216878364870321638, 1.250000000000000222 ) ) ;
#545 = ORIENTED_EDGE ( 'NONE', *, *, #41, .F. ) ;
#546 = CARTESIAN_POINT ( 'NONE',  ( -12.90000000000000213, 0.7216878364870323859, -1.249999999999999778 ) ) ;
#547 = CIRCLE ( 'NONE', #670, 0.2000000000000009548 ) ;
#548 = DIRECTION ( 'NONE',  ( -1.000000000000000000, -5.998083099822123814E-17, 0.000000000000000000 ) ) ;
#549 = DIRECTION ( 'NONE',  ( 0.000000000000000000, 0.000000000000000000, -1.000000000000000000 ) ) ;
#550 = AXIS2_PLACEMENT_3D ( 'NONE', #195, #556, #373 ) ;
#551 = EDGE_LOOP ( 'NONE', ( #127, #226 ) ) ;
#552 = EDGE_CURVE ( 'NONE', #643, #334, #561, .T. ) ;
#553 = FACE_BOUND ( 'NONE', #231, .T. ) ;
#554 = EDGE_CURVE ( 'NONE', #128, #334, #503, .T. ) ;
#555 = AXIS2_PLACEMENT_3D ( 'NONE', #619, #433, #669 ) ;
#556 = DIRECTION ( 'NONE',  ( 1.000000000000000000, 0.000000000000000000, -0.000000000000000000 ) ) ;
#557 = ORIENTED_EDGE ( 'NONE', *, *, #654, .F. ) ;
#558 =( NAMED_UNIT ( * ) PLANE_ANGLE_UNIT ( ) SI_UNIT ( $, .RADIAN. ) );
#559 = CARTESIAN_POINT ( 'NONE',  ( -14.15037000055573380, -0.2394511050528674578, -1.249999999999999334 ) ) ;
#560 = ORIENTED_EDGE ( 'NONE', *, *, #110, .F. ) ;
#561 = B_SPLINE_CURVE_WITH_KNOTS ( 'NONE', 3,
 ( #184, #531, #473, #693, #180 ),
 .UNSPECIFIED., .F., .F.,
 ( 4, 1, 4 ),
 ( 2.309401076786084856E-07, 0.0007219187765947091082, 0.001443606613081739728 ),
 .UNSPECIFIED. ) ;
#562 = PLANE ( 'NONE',  #611 ) ;
#563 = DIRECTION ( 'NONE',  ( -1.000000000000000000, -0.000000000000000000, 0.000000000000000000 ) ) ;
#564 = FILL_AREA_STYLE ('',( #272 ) ) ;
#565 = AXIS2_PLACEMENT_3D ( 'NONE', #344, #288, #349 ) ;
#566 = LINE ( 'NONE', #264, #140 ) ;
#567 = SURFACE_SIDE_STYLE ('',( #664 ) ) ;
#568 = EDGE_CURVE ( 'NONE', #678, #177, #324, .T. ) ;
#569 = CIRCLE ( 'NONE', #665, 3.800000000000000266 ) ;
#570 = VERTEX_POINT ( 'NONE', #210 ) ;
#571 = CARTESIAN_POINT ( 'NONE',  ( -0.3500000000000000333, 0.000000000000000000, 0.000000000000000000 ) ) ;
#572 = CARTESIAN_POINT ( 'NONE',  ( 0.000000000000000000, 0.000000000000000000, 0.000000000000000000 ) ) ;
#573 = AXIS2_PLACEMENT_3D ( 'NONE', #637, #1, #278 ) ;
#574 = EDGE_CURVE ( 'NONE', #386, #177, #460, .T. ) ;
#575 = CARTESIAN_POINT ( 'NONE',  ( -14.20000000000000107, 5.192832784574810899E-33, 0.000000000000000000 ) ) ;
#576 = B_SPLINE_CURVE_WITH_KNOTS ( 'NONE', 3,
 ( #414, #688, #354, #19 ),
 .UNSPECIFIED., .F., .F.,
 ( 4, 4 ),
 ( 0.001144596242895329829, 0.001876385854435920399 ),
 .UNSPECIFIED. ) ;
#577 = MECHANICAL_DESIGN_GEOMETRIC_PRESENTATION_REPRESENTATION (  '', ( #279 ), #451 ) ;
#578 = FACE_BOUND ( 'NONE', #662, .T. ) ;
#579 = DIRECTION ( 'NONE',  ( 0.000000000000000000, -0.8660254037844385966, 0.5000000000000003331 ) ) ;
#580 = DIRECTION ( 'NONE',  ( 0.000000000000000000, 0.000000000000000000, -1.000000000000000000 ) ) ;
#581 =( NAMED_UNIT ( * ) PLANE_ANGLE_UNIT ( ) SI_UNIT ( $, .RADIAN. ) );
#582 = B_SPLINE_CURVE_WITH_KNOTS ( 'NONE', 3,
 ( #144, #289, #213, #540, #367, #584 ),
 .UNSPECIFIED., .F., .F.,
 ( 4, 2, 4 ),
 ( 2.391904125709705354E-07, 0.0007300545202770512051, 0.001459869850141531315 ),
 .UNSPECIFIED. ) ;
#583 = CARTESIAN_POINT ( 'NONE',  ( -11.79999999999999893, 0.000000000000000000, -1.999999999999997780 ) ) ;
#584 = CARTESIAN_POINT ( 'NONE',  ( -12.90000000000000213, 0.7216878364870328300, 1.249999999999999112 ) ) ;
#585 = ORIENTED_EDGE ( 'NONE', *, *, #554, .F. ) ;
#586 = EDGE_LOOP ( 'NONE', ( #81, #362 ) ) ;
#587 = CARTESIAN_POINT ( 'NONE',  ( -14.20000000000000107, -1.443375672974064328, 3.035766082959413993E-15 ) ) ;
#588 = SHAPE_DEFINITION_REPRESENTATION ( #461, #145 ) ;
#589 = ORIENTED_EDGE ( 'NONE', *, *, #418, .F. ) ;
#590 = ORIENTED_EDGE ( 'NONE', *, *, #5, .F. ) ;
#591 = CARTESIAN_POINT ( 'NONE',  ( -12.77964865737705225, 0.9585729505925310034, -0.8397029468125251084 ) ) ;
#592 = SURFACE_STYLE_FILL_AREA ( #341 ) ;
#593 = ORIENTED_EDGE ( 'NONE', *, *, #465, .T. ) ;
#594 = ORIENTED_EDGE ( 'NONE', *, *, #102, .T. ) ;
#595 = AXIS2_PLACEMENT_3D ( 'NONE', #246, #486, #194 ) ;
#596 = MECHANICAL_DESIGN_GEOMETRIC_PRESENTATION_REPRESENTATION (  '', ( #501 ), #185 ) ;
#597 = PLANE ( 'NONE',  #16 ) ;
#598 = ORIENTED_EDGE ( 'NONE', *, *, #43, .T. ) ;
#599 = ORIENTED_EDGE ( 'NONE', *, *, #267, .F. ) ;
#600 = CARTESIAN_POINT ( 'NONE',  ( -12.90000000000000213, -1.443375672974065216, 5.870030462665943960E-16 ) ) ;
#601 = EDGE_CURVE ( 'NONE', #462, #235, #463, .T. ) ;
#602 = ORIENTED_EDGE ( 'NONE', *, *, #5, .T. ) ;
#603 = EDGE_CURVE ( 'NONE', #570, #292, #483, .T. ) ;
#604 = ORIENTED_EDGE ( 'NONE', *, *, #445, .T. ) ;
#605 = CARTESIAN_POINT ( 'NONE',  ( -0.3500000000000000333, 0.000000000000000000, 0.000000000000000000 ) ) ;
#606 = FACE_OUTER_BOUND ( 'NONE', #76, .T. ) ;
#607 = VERTEX_POINT ( 'NONE', #205 ) ;
#608 = VECTOR ( 'NONE', #253, 1000.000000000000000 ) ;
#609 = CIRCLE ( 'NONE', #273, 1.999999999999997780 ) ;
#610 = CARTESIAN_POINT ( 'NONE',  ( -14.20000000000000107, 1.999999999999998668, 0.000000000000000000 ) ) ;
#611 = AXIS2_PLACEMENT_3D ( 'NONE', #671, #513, #96 ) ;
#612 = CARTESIAN_POINT ( 'NONE',  ( -14.20000000000000107, 1.443375672974064328, -9.757819552369541878E-16 ) ) ;
#613 = DIRECTION ( 'NONE',  ( -1.000000000000000000, -0.000000000000000000, 0.000000000000000000 ) ) ;
#614 = DIRECTION ( 'NONE',  ( 0.000000000000000000, 1.000000000000000000, 0.000000000000000000 ) ) ;
#615 = UNCERTAINTY_MEASURE_WITH_UNIT (LENGTH_MEASURE( 1.000000000000000082E-05 ), #11, 'distance_accuracy_value', 'NONE');
#616 = DIRECTION ( 'NONE',  ( 0.000000000000000000, -0.4999999999999998335, -0.8660254037844387076 ) ) ;
#617 = COLOUR_RGB ( '',1.000000000000000000, 1.000000000000000000, 1.000000000000000000 ) ;
#618 = SPHERICAL_SURFACE ( 'NONE', #686, 4.007472359323742239 ) ;
#619 = CARTESIAN_POINT ( 'NONE',  ( -10.72727272727272840, 0.000000000000000000, 0.000000000000000000 ) ) ;
#620 = COLOUR_RGB ( '',1.000000000000000000, 1.000000000000000000, 1.000000000000000000 ) ;
#621 = DIRECTION ( 'NONE',  ( 0.000000000000000000, 1.000000000000000000, 0.000000000000000000 ) ) ;
#622 = CYLINDRICAL_SURFACE ( 'NONE', #70, 1.999999999999999112 ) ;
#623 = CARTESIAN_POINT ( 'NONE',  ( -12.90000000000000213, -1.443375672974065216, 5.870030462665943960E-16 ) ) ;
#624 = CARTESIAN_POINT ( 'NONE',  ( -12.77919874466209471, -0.9604055199136780629, -0.8365288436399078709 ) ) ;
#625 = EDGE_CURVE ( 'NONE', #422, #370, #582, .T. ) ;
#626 = ORIENTED_EDGE ( 'NONE', *, *, #724, .F. ) ;
#627 = CARTESIAN_POINT ( 'NONE',  ( -12.00000000000000178, 0.000000000000000000, 0.000000000000000000 ) ) ;
#628 = AXIS2_PLACEMENT_3D ( 'NONE', #699, #67, #695 ) ;
#629 = MECHANICAL_DESIGN_GEOMETRIC_PRESENTATION_REPRESENTATION (  '', ( #14 ), #374 ) ;
#630 = CIRCLE ( 'NONE', #336, 2.000000000000000000 ) ;
#631 = ORIENTED_EDGE ( 'NONE', *, *, #603, .F. ) ;
#632 = ADVANCED_FACE ( 'NONE', ( #233 ), #332, .F. ) ;
#633 = CARTESIAN_POINT ( 'NONE',  ( -14.20000000000000107, -1.999999999999998668, -3.551475717527323339E-16 ) ) ;
#634 = B_SPLINE_CURVE_WITH_KNOTS ( 'NONE', 3,
 ( #667, #319, #91, #487 ),
 .UNSPECIFIED., .F., .F.,
 ( 4, 4 ),
 ( 0.004568767951579537009, 0.005301777679998200682 ),
 .UNSPECIFIED. ) ;
#635 = DIRECTION ( 'NONE',  ( 1.000000000000000000, 0.000000000000000000, -0.000000000000000000 ) ) ;
#636 = AXIS2_PLACEMENT_3D ( 'NONE', #572, #66, #109 ) ;
#637 = CARTESIAN_POINT ( 'NONE',  ( -14.20000000000000107, 0.000000000000000000, 0.000000000000000000 ) ) ;
#638 = APPLICATION_PROTOCOL_DEFINITION ( 'draft international standard', 'automotive_design', 1998, #251 ) ;
#639 = DIRECTION ( 'NONE',  ( 0.000000000000000000, -1.000000000000000000, 0.000000000000000000 ) ) ;
#640 = DIRECTION ( 'NONE',  ( -0.5000000000000001110, -1.060575238724906792E-16, 0.8660254037844385966 ) ) ;
#641 = CARTESIAN_POINT ( 'NONE',  ( -12.00000000000000000, -0.7216878364870332740, -1.249999999999999778 ) ) ;
#642 = ORIENTED_EDGE ( 'NONE', *, *, #214, .F. ) ;
#643 = VERTEX_POINT ( 'NONE', #303 ) ;
#644 = EDGE_CURVE ( 'NONE', #691, #607, #112, .T. ) ;
#645 = DIRECTION ( 'NONE',  ( 0.000000000000000000, 0.000000000000000000, -1.000000000000000000 ) ) ;
#646 = ORIENTED_EDGE ( 'NONE', *, *, #276, .T. ) ;
#647 = ORIENTED_EDGE ( 'NONE', *, *, #724, .T. ) ;
#648 = CARTESIAN_POINT ( 'NONE',  ( -12.90000000000000213, 1.443375672974064328, 3.128943976826325424E-17 ) ) ;
#649 = CIRCLE ( 'NONE', #550, 1.393782217350892916 ) ;
#650 = ORIENTED_EDGE ( 'NONE', *, *, #554, .T. ) ;
#651 = ORIENTED_EDGE ( 'NONE', *, *, #434, .T. ) ;
#652 = DIRECTION ( 'NONE',  ( 0.000000000000000000, 0.000000000000000000, -1.000000000000000000 ) ) ;
#653 = ADVANCED_FACE ( 'NONE', ( #78 ), #420, .T. ) ;
#654 = EDGE_CURVE ( 'NONE', #732, #248, #174, .T. ) ;
#655 = ORIENTED_EDGE ( 'NONE', *, *, #169, .F. ) ;
#656 = ORIENTED_EDGE ( 'NONE', *, *, #327, .F. ) ;
#657 = FACE_OUTER_BOUND ( 'NONE', #143, .T. ) ;
#658 = DIRECTION ( 'NONE',  ( -1.000000000000000000, -0.000000000000000000, 0.000000000000000000 ) ) ;
#659 = ORIENTED_EDGE ( 'NONE', *, *, #267, .T. ) ;
#660 = PRESENTATION_LAYER_ASSIGNMENT (  '', '', ( #286 ) ) ;
#661 = DIRECTION ( 'NONE',  ( -1.000000000000000000, -5.998083099822123814E-17, 0.000000000000000000 ) ) ;
#662 = EDGE_LOOP ( 'NONE', ( #7, #134, #472, #85, #598, #650 ) ) ;
#663 = DIRECTION ( 'NONE',  ( 0.000000000000000000, 0.000000000000000000, 1.000000000000000000 ) ) ;
#664 = SURFACE_STYLE_FILL_AREA ( #722 ) ;
#665 = AXIS2_PLACEMENT_3D ( 'NONE', #423, #17, #645 ) ;
#666 = CARTESIAN_POINT ( 'NONE',  ( -10.72727272727272840, 0.000000000000000000, 0.000000000000000000 ) ) ;
#667 = CARTESIAN_POINT ( 'NONE',  ( -12.77942286340599587, -1.530808931984589755E-16, 1.250000000000000222 ) ) ;
#668 = CARTESIAN_POINT ( 'NONE',  ( -12.90000000000000213, 0.7216878364870328300, 1.249999999999999112 ) ) ;
#669 = DIRECTION ( 'NONE',  ( 1.000000000000000000, 0.000000000000000000, 0.000000000000000000 ) ) ;
#670 = AXIS2_PLACEMENT_3D ( 'NONE', #398, #621, #517 ) ;
#671 = CARTESIAN_POINT ( 'NONE',  ( -12.00000000000000000, 0.7216878364870321638, 1.250000000000000222 ) ) ;
#672 = CYLINDRICAL_SURFACE ( 'NONE', #238, 1.999999999999999112 ) ;
#673 = ADVANCED_FACE ( 'NONE', ( #533 ), #181, .F. ) ;
#674 = CARTESIAN_POINT ( 'NONE',  ( -12.82664516406750366, -1.325732799999564504, 0.2037634331402072840 ) ) ;
#675 = EDGE_CURVE ( 'NONE', #416, #643, #714, .T. ) ;
#676 = CARTESIAN_POINT ( 'NONE',  ( -12.77964865737705225, -1.206490558868566598, -0.4102970531874742810 ) ) ;
#677 = CARTESIAN_POINT ( 'NONE',  ( -12.79105228766683311, 0.2457778558553070092, 1.250000000000000000 ) ) ;
#678 = VERTEX_POINT ( 'NONE', #439 ) ;
#679 = ORIENTED_EDGE ( 'NONE', *, *, #87, .T. ) ;
#680 = DIRECTION ( 'NONE',  ( 1.000000000000000000, 0.000000000000000000, -0.000000000000000000 ) ) ;
#681 = CARTESIAN_POINT ( 'NONE',  ( -12.00000000000000000, 1.443375672974064328, 3.128943976826325424E-17 ) ) ;
#682 = B_SPLINE_CURVE_WITH_KNOTS ( 'NONE', 3,
 ( #241, #208, #39, #559, #79, #493 ),
 .UNSPECIFIED., .F., .F.,
 ( 4, 2, 4 ),
 ( 0.002974540139219453583, 0.003699310320131258233, 0.004424080501043063315 ),
 .UNSPECIFIED. ) ;
#683 = AXIS2_PLACEMENT_3D ( 'NONE', #126, #198, #491 ) ;
#684 = DIRECTION ( 'NONE',  ( -0.5000000000000001110, 0.000000000000000000, -0.8660254037844385966 ) ) ;
#685 = DIRECTION ( 'NONE',  ( 1.000000000000000000, 0.000000000000000000, 0.000000000000000000 ) ) ;
#686 = AXIS2_PLACEMENT_3D ( 'NONE', #666, #385, #614 ) ;
#687 = ADVANCED_FACE ( 'NONE', ( #315 ), #618, .T. ) ;
#688 = CARTESIAN_POINT ( 'NONE',  ( -12.82715765887601655, -0.4880459183963068992, -1.249999999999999778 ) ) ;
#689 = VERTEX_POINT ( 'NONE', #130 ) ;
#690 = AXIS2_PLACEMENT_3D ( 'NONE', #196, #658, #132 ) ;
#691 = VERTEX_POINT ( 'NONE', #40 ) ;
#692 = VECTOR ( 'NONE', #125, 1000.000000000000000 ) ;
#693 = CARTESIAN_POINT ( 'NONE',  ( -14.16916666666574187, -0.8419691425682048758, 1.041666666666667185 ) ) ;
#694 = B_SPLINE_CURVE_WITH_KNOTS ( 'NONE', 3,
 ( #261, #95, #676, #624, #731, #98 ),
 .UNSPECIFIED., .F., .F.,
 ( 4, 2, 4 ),
 ( 2.391904125715334417E-07, 0.0007300545202770522893, 0.001459869850141533049 ),
 .UNSPECIFIED. ) ;
#695 = DIRECTION ( 'NONE',  ( 0.000000000000000000, 0.000000000000000000, -1.000000000000000000 ) ) ;
#696 = VERTEX_POINT ( 'NONE', #610 ) ;
#697 = EDGE_LOOP ( 'NONE', ( #590, #190 ) ) ;
#698 = DIRECTION ( 'NONE',  ( 0.000000000000000000, 0.000000000000000000, -1.000000000000000000 ) ) ;
#699 = CARTESIAN_POINT ( 'NONE',  ( -14.20000000000000107, 0.000000000000000000, 0.000000000000000000 ) ) ;
#700 = VERTEX_POINT ( 'NONE', #318 ) ;
#701 = AXIS2_PLACEMENT_3D ( 'NONE', #107, #685, #106 ) ;
#702 = EDGE_LOOP ( 'NONE', ( #20, #162, #182, #183 ) ) ;
#703 = LINE ( 'NONE', #60, #692 ) ;
#704 = ADVANCED_FACE ( 'NONE', ( #492 ), #293, .F. ) ;
#705 = PRESENTATION_LAYER_ASSIGNMENT (  '', '', ( #279 ) ) ;
#706 = DIRECTION ( 'NONE',  ( 0.000000000000000000, 8.881784197001252323E-16, 1.000000000000000000 ) ) ;
#707 = EDGE_LOOP ( 'NONE', ( #599, #604, #651, #529 ) ) ;
#708 = CIRCLE ( 'NONE', #555, 4.007472359323742239 ) ;
#709 = PLANE ( 'NONE',  #297 ) ;
#710 = DIRECTION ( 'NONE',  ( -1.000000000000000000, -0.000000000000000000, 0.000000000000000000 ) ) ;
#711 = FACE_OUTER_BOUND ( 'NONE', #702, .T. ) ;
#712 = EDGE_LOOP ( 'NONE', ( #647, #225 ) ) ;
#713 = CARTESIAN_POINT ( 'NONE',  ( -12.90000000000000213, 1.443375672974064328, 3.128943976826325424E-17 ) ) ;
#714 = LINE ( 'NONE', #94, #608 ) ;
#715 = FACE_OUTER_BOUND ( 'NONE', #13, .T. ) ;
#716 = SURFACE_STYLE_FILL_AREA ( #564 ) ;
#717 = CARTESIAN_POINT ( 'NONE',  ( -12.77942286340599587, -1.530808931984589755E-16, 1.250000000000000222 ) ) ;
#718 = FACE_OUTER_BOUND ( 'NONE', #59, .T. ) ;
#719 = DIRECTION ( 'NONE',  ( 0.000000000000000000, 1.224646799147352714E-16, -1.000000000000000000 ) ) ;
#720 = VECTOR ( 'NONE', #640, 1000.000000000000000 ) ;
#721 = ORIENTED_EDGE ( 'NONE', *, *, #508, .T. ) ;
#722 = FILL_AREA_STYLE ('',( #397 ) ) ;
#723 = SURFACE_STYLE_FILL_AREA ( #270 ) ;
#724 = EDGE_CURVE ( 'NONE', #235, #462, #649, .T. ) ;
#725 = VECTOR ( 'NONE', #165, 1000.000000000000000 ) ;
#726 = ADVANCED_FACE ( 'NONE', ( #606 ), #321, .F. ) ;
#727 = DIRECTION ( 'NONE',  ( -0.5291067161269960017, -1.039180521791365101E-16, 0.8485552916276619673 ) ) ;
#728 = AXIS2_PLACEMENT_3D ( 'NONE', #502, #207, #322 ) ;
#729 = CARTESIAN_POINT ( 'NONE',  ( -12.83343568050244521, 0.4873330088410962047, -1.249999999999999334 ) ) ;
#730 = CIRCLE ( 'NONE', #410, 2.199999999999998845 ) ;
#731 = CARTESIAN_POINT ( 'NONE',  ( -12.82664516406750366, -0.8393307094615339858, -1.046236566859793049 ) ) ;
#732 = VERTEX_POINT ( 'NONE', #199 ) ;
#733 = CARTESIAN_POINT ( 'NONE',  ( -12.90000000000000213, 0.7216878364870323859, -1.249999999999999778 ) ) ;
#734 = VERTEX_POINT ( 'NONE', #717 ) ;
ENDSEC;
END-ISO-10303-21;
