ISO-10303-21;
HEADER;
FILE_DESCRIPTION (( 'STEP AP214' ),
    '1' );
FILE_NAME ('11x5t5.step',
    '2023-08-15T02:53:14',
    ( '' ),
    ( '' ),
    'SwSTEP 2.0',
    'SolidWorks 2022',
    '' );
FILE_SCHEMA (( 'AUTOMOTIVE_DESIGN' ));
ENDSEC;

DATA;
#1 = DIRECTION ( 'NONE',  ( -0.000000000000000000, -0.000000000000000000, -1.000000000000000000 ) ) ;
#2 = AXIS2_PLACEMENT_3D ( 'NONE', #302, #307, #82 ) ;
#3 = CIRCLE ( 'NONE', #349, 2.500000000000000000 ) ;
#4 = CARTESIAN_POINT ( 'NONE',  ( 0.000000000000000000, 0.000000000000000000, 0.000000000000000000 ) ) ;
#5 = COLOUR_RGB ( '',0.8666666666666666963, 0.3215686274509803599, 0.3333333333333333148 ) ;
#6 = ORIENTED_EDGE ( 'NONE', *, *, #341, .F. ) ;
#7 = EDGE_LOOP ( 'NONE', ( #353, #204 ) ) ;
#8 = CIRCLE ( 'NONE', #392, 0.5000000000000004441 ) ;
#9 = CARTESIAN_POINT ( 'NONE',  ( 0.000000000000000000, 0.000000000000000000, 4.500000000000000888 ) ) ;
#10 =( GEOMETRIC_REPRESENTATION_CONTEXT ( 3 ) GLOBAL_UNCERTAINTY_ASSIGNED_CONTEXT ( ( #382 ) ) GLOBAL_UNIT_ASSIGNED_CONTEXT ( ( #70, #199, #38 ) ) REPRESENTATION_CONTEXT ( 'NONE', 'WORKASPACE' ) );
#11 = CARTESIAN_POINT ( 'NONE',  ( 4.999999999999999112, 0.000000000000000000, 0.4999999999999995559 ) ) ;
#12 = DIRECTION ( 'NONE',  ( 0.000000000000000000, -1.000000000000000000, 0.000000000000000000 ) ) ;
#13 = CIRCLE ( 'NONE', #249, 0.5000000000000004441 ) ;
#14 = EDGE_CURVE ( 'NONE', #99, #260, #108, .T. ) ;
#15 = DIRECTION ( 'NONE',  ( 0.000000000000000000, 0.000000000000000000, 1.000000000000000000 ) ) ;
#16 = ORIENTED_EDGE ( 'NONE', *, *, #26, .F. ) ;
#17 = DIRECTION ( 'NONE',  ( 1.000000000000000000, 0.000000000000000000, 0.000000000000000000 ) ) ;
#18 = EDGE_LOOP ( 'NONE', ( #329, #421, #226, #276 ) ) ;
#19 = DIRECTION ( 'NONE',  ( -0.000000000000000000, -0.000000000000000000, -1.000000000000000000 ) ) ;
#20 = CIRCLE ( 'NONE', #407, 3.000000000000000000 ) ;
#22 = ORIENTED_EDGE ( 'NONE', *, *, #161, .T. ) ;
#21 = TOROIDAL_SURFACE ( 'NONE', #81, 4.999999999999999112, 0.5000000000000000000 ) ;
#23 =( LENGTH_UNIT ( ) NAMED_UNIT ( * ) SI_UNIT ( .MILLI., .METRE. ) );
#24 = DIRECTION ( 'NONE',  ( 1.000000000000000000, 0.000000000000000000, 0.000000000000000000 ) ) ;
#25 = DIRECTION ( 'NONE',  ( 0.000000000000000000, 0.000000000000000000, 1.000000000000000000 ) ) ;
#26 = EDGE_CURVE ( 'NONE', #355, #88, #8, .T. ) ;
#27 = AXIS2_PLACEMENT_3D ( 'NONE', #150, #311, #188 ) ;
#28 =( NAMED_UNIT ( * ) SI_UNIT ( $, .STERADIAN. ) SOLID_ANGLE_UNIT ( ) );
#29 = ORIENTED_EDGE ( 'NONE', *, *, #146, .F. ) ;
#30 = VERTEX_POINT ( 'NONE', #37 ) ;
#31 = CARTESIAN_POINT ( 'NONE',  ( 0.000000000000000000, 0.000000000000000000, 4.500000000000000888 ) ) ;
#32 = FACE_OUTER_BOUND ( 'NONE', #274, .T. ) ;
#33 = AXIS2_PLACEMENT_3D ( 'NONE', #237, #406, #300 ) ;
#34 = APPLICATION_PROTOCOL_DEFINITION ( 'draft international standard', 'automotive_design', 1998, #49 ) ;
#35 = CARTESIAN_POINT ( 'NONE',  ( 0.000000000000000000, 0.000000000000000000, 0.000000000000000000 ) ) ;
#36 = APPLICATION_PROTOCOL_DEFINITION ( 'draft international standard', 'automotive_design', 1998, #202 ) ;
#37 = CARTESIAN_POINT ( 'NONE',  ( 4.999999999999999112, 0.000000000000000000, 0.000000000000000000 ) ) ;
#38 =( NAMED_UNIT ( * ) SI_UNIT ( $, .STERADIAN. ) SOLID_ANGLE_UNIT ( ) );
#39 = DIRECTION ( 'NONE',  ( 1.000000000000000000, 0.000000000000000000, 0.000000000000000000 ) ) ;
#40 = ADVANCED_FACE ( 'NONE', ( #232, #32 ), #175, .F. ) ;
#41 = AXIS2_PLACEMENT_3D ( 'NONE', #243, #180, #275 ) ;
#42 = CIRCLE ( 'NONE', #265, 4.999999999999999112 ) ;
#43 = ORIENTED_EDGE ( 'NONE', *, *, #330, .F. ) ;
#44 = DIRECTION ( 'NONE',  ( 1.000000000000000000, 0.000000000000000000, 0.000000000000000000 ) ) ;
#45 = ADVANCED_FACE ( 'NONE', ( #172 ), #389, .T. ) ;
#46 = CARTESIAN_POINT ( 'NONE',  ( 0.000000000000000000, 0.000000000000000000, 4.500000000000000888 ) ) ;
#47 = DIRECTION ( 'NONE',  ( 1.000000000000000000, 0.000000000000000000, 0.000000000000000000 ) ) ;
#48 = PRESENTATION_LAYER_ASSIGNMENT (  '', '', ( #230 ) ) ;
#49 = APPLICATION_CONTEXT ( 'automotive_design' ) ;
#50 = ORIENTED_EDGE ( 'NONE', *, *, #207, .T. ) ;
#51 = DIRECTION ( 'NONE',  ( 1.224646799147353207E-16, 1.000000000000000000, -0.000000000000000000 ) ) ;
#52 = ORIENTED_EDGE ( 'NONE', *, *, #266, .T. ) ;
#53 = DIRECTION ( 'NONE',  ( 1.000000000000000000, 0.000000000000000000, 0.000000000000000000 ) ) ;
#54 = CARTESIAN_POINT ( 'NONE',  ( 0.000000000000000000, 0.000000000000000000, 4.500000000000000888 ) ) ;
#55 = ORIENTED_EDGE ( 'NONE', *, *, #56, .T. ) ;
#56 = EDGE_CURVE ( 'NONE', #322, #367, #166, .T. ) ;
#57 = PLANE ( 'NONE',  #167 ) ;
#58 = DIRECTION ( 'NONE',  ( -1.000000000000000000, 1.224646799147353454E-16, 0.000000000000000000 ) ) ;
#59 = AXIS2_PLACEMENT_3D ( 'NONE', #399, #369, #402 ) ;
#60 = VECTOR ( 'NONE', #97, 1000.000000000000000 ) ;
#61 = CARTESIAN_POINT ( 'NONE',  ( 2.500000000000000000, 3.061616997868383141E-16, 5.000000000000000000 ) ) ;
#62 = FACE_OUTER_BOUND ( 'NONE', #244, .T. ) ;
#63 = EDGE_CURVE ( 'NONE', #342, #260, #165, .T. ) ;
#64 = CARTESIAN_POINT ( 'NONE',  ( 4.999999999999999112, 0.000000000000000000, 5.000000000000000000 ) ) ;
#65 = ORIENTED_EDGE ( 'NONE', *, *, #198, .F. ) ;
#66 = AXIS2_PLACEMENT_3D ( 'NONE', #214, #272, #109 ) ;
#67 = FILL_AREA_STYLE ('',( #255 ) ) ;
#68 =( GEOMETRIC_REPRESENTATION_CONTEXT ( 3 ) GLOBAL_UNCERTAINTY_ASSIGNED_CONTEXT ( ( #287 ) ) GLOBAL_UNIT_ASSIGNED_CONTEXT ( ( #103, #290, #171 ) ) REPRESENTATION_CONTEXT ( 'NONE', 'WORKASPACE' ) );
#69 = ORIENTED_EDGE ( 'NONE', *, *, #403, .T. ) ;
#70 =( LENGTH_UNIT ( ) NAMED_UNIT ( * ) SI_UNIT ( .MILLI., .METRE. ) );
#71 = DIRECTION ( 'NONE',  ( 0.000000000000000000, -1.000000000000000000, 0.000000000000000000 ) ) ;
#72 = EDGE_CURVE ( 'NONE', #355, #381, #20, .T. ) ;
#73 = DIRECTION ( 'NONE',  ( 1.000000000000000000, 0.000000000000000000, 0.000000000000000000 ) ) ;
#74 = AXIS2_PLACEMENT_3D ( 'NONE', #54, #299, #44 ) ;
#75 = ORIENTED_EDGE ( 'NONE', *, *, #341, .T. ) ;
#76 = SURFACE_STYLE_FILL_AREA ( #67 ) ;
#77 = DIRECTION ( 'NONE',  ( 0.000000000000000000, 0.000000000000000000, 1.000000000000000000 ) ) ;
#78 = ADVANCED_FACE ( 'NONE', ( #360 ), #94, .T. ) ;
#79 = DIRECTION ( 'NONE',  ( 0.000000000000000000, 0.000000000000000000, 1.000000000000000000 ) ) ;
#80 = TOROIDAL_SURFACE ( 'NONE', #138, 3.000000000000000000, 0.5000000000000000000 ) ;
#81 = AXIS2_PLACEMENT_3D ( 'NONE', #156, #125, #53 ) ;
#82 = DIRECTION ( 'NONE',  ( 1.000000000000000000, 0.000000000000000000, 0.000000000000000000 ) ) ;
#83 = DIRECTION ( 'NONE',  ( 1.000000000000000000, 0.000000000000000000, 0.000000000000000000 ) ) ;
#84 = CARTESIAN_POINT ( 'NONE',  ( -4.999999999999999112, 6.429395695523603167E-16, 0.000000000000000000 ) ) ;
#85 = ORIENTED_EDGE ( 'NONE', *, *, #296, .F. ) ;
#86 = CARTESIAN_POINT ( 'NONE',  ( 5.500000000000000000, 6.735557395310442023E-16, 4.500000000000000888 ) ) ;
#87 = COLOUR_RGB ( '',0.8666666666666666963, 0.3215686274509803599, 0.3333333333333333148 ) ;
#88 = VERTEX_POINT ( 'NONE', #328 ) ;
#89 = DIRECTION ( 'NONE',  ( 1.000000000000000000, 0.000000000000000000, -0.000000000000000000 ) ) ;
#90 = CARTESIAN_POINT ( 'NONE',  ( 0.000000000000000000, 0.000000000000000000, 5.000000000000000000 ) ) ;
#91 = ORIENTED_EDGE ( 'NONE', *, *, #323, .F. ) ;
#92 = PRESENTATION_STYLE_ASSIGNMENT (( #185 ) ) ;
#93 = CARTESIAN_POINT ( 'NONE',  ( -4.999999999999999112, 6.123233995736765296E-16, 0.4999999999999995559 ) ) ;
#94 = TOROIDAL_SURFACE ( 'NONE', #225, 4.999999999999999112, 0.5000000000000000000 ) ;
#95 = TOROIDAL_SURFACE ( 'NONE', #379, 3.000000000000000000, 0.5000000000000000000 ) ;
#96 = CARTESIAN_POINT ( 'NONE',  ( -4.999999999999999112, 6.429395695523603167E-16, 5.000000000000000000 ) ) ;
#97 = DIRECTION ( 'NONE',  ( -0.000000000000000000, -0.000000000000000000, -1.000000000000000000 ) ) ;
#98 = ORIENTED_EDGE ( 'NONE', *, *, #279, .F. ) ;
#99 = VERTEX_POINT ( 'NONE', #297 ) ;
#100 = CLOSED_SHELL ( 'NONE', ( #419, #141, #354, #169, #210, #45, #398, #40, #384, #414, #318, #303, #270, #78 ) ) ;
#101 = DIRECTION ( 'NONE',  ( 1.000000000000000000, 0.000000000000000000, 0.000000000000000000 ) ) ;
#102 = EDGE_CURVE ( 'NONE', #227, #385, #298, .T. ) ;
#103 =( LENGTH_UNIT ( ) NAMED_UNIT ( * ) SI_UNIT ( .MILLI., .METRE. ) );
#104 = DIRECTION ( 'NONE',  ( -0.000000000000000000, -0.000000000000000000, -1.000000000000000000 ) ) ;
#105 = ORIENTED_EDGE ( 'NONE', *, *, #117, .F. ) ;
#106 = CIRCLE ( 'NONE', #293, 0.5000000000000004441 ) ;
#107 = DIRECTION ( 'NONE',  ( -0.000000000000000000, -0.000000000000000000, -1.000000000000000000 ) ) ;
#108 = LINE ( 'NONE', #168, #352 ) ;
#109 = DIRECTION ( 'NONE',  ( 0.000000000000000000, 0.000000000000000000, -1.000000000000000000 ) ) ;
#110 = CIRCLE ( 'NONE', #59, 3.000000000000000000 ) ;
#111 =( NAMED_UNIT ( * ) PLANE_ANGLE_UNIT ( ) SI_UNIT ( $, .RADIAN. ) );
#112 = DIRECTION ( 'NONE',  ( -0.000000000000000000, -0.000000000000000000, -1.000000000000000000 ) ) ;
#113 = CARTESIAN_POINT ( 'NONE',  ( 0.000000000000000000, 0.000000000000000000, 0.000000000000000000 ) ) ;
#114 = ORIENTED_EDGE ( 'NONE', *, *, #207, .F. ) ;
#115 = DIRECTION ( 'NONE',  ( -0.000000000000000000, -0.000000000000000000, -1.000000000000000000 ) ) ;
#116 = ORIENTED_EDGE ( 'NONE', *, *, #146, .T. ) ;
#117 = EDGE_CURVE ( 'NONE', #219, #129, #241, .T. ) ;
#118 = CARTESIAN_POINT ( 'NONE',  ( 0.000000000000000000, 0.000000000000000000, 5.000000000000000000 ) ) ;
#119 = CYLINDRICAL_SURFACE ( 'NONE', #277, 2.500000000000000000 ) ;
#120 = AXIS2_PLACEMENT_3D ( 'NONE', #211, #115, #366 ) ;
#121 = ORIENTED_EDGE ( 'NONE', *, *, #323, .T. ) ;
#122 = PRODUCT_DEFINITION_CONTEXT ( 'detailed design', #49, 'design' ) ;
#123 = CARTESIAN_POINT ( 'NONE',  ( 0.000000000000000000, 0.000000000000000000, 0.000000000000000000 ) ) ;
#124 = LINE ( 'NONE', #61, #60 ) ;
#125 = DIRECTION ( 'NONE',  ( 0.000000000000000000, 0.000000000000000000, 1.000000000000000000 ) ) ;
#126 = AXIS2_PLACEMENT_3D ( 'NONE', #333, #112, #268 ) ;
#127 = CARTESIAN_POINT ( 'NONE',  ( 0.000000000000000000, 0.000000000000000000, 5.000000000000000000 ) ) ;
#128 = ORIENTED_EDGE ( 'NONE', *, *, #176, .T. ) ;
#129 = VERTEX_POINT ( 'NONE', #335 ) ;
#130 = EDGE_CURVE ( 'NONE', #231, #88, #264, .T. ) ;
#131 = PRODUCT_DEFINITION_SHAPE ( 'NONE', 'NONE',  #363 ) ;
#132 = EDGE_LOOP ( 'NONE', ( #91, #43, #22, #98 ) ) ;
#133 = AXIS2_PLACEMENT_3D ( 'NONE', #177, #365, #209 ) ;
#134 = DIRECTION ( 'NONE',  ( 1.000000000000000000, 0.000000000000000000, -0.000000000000000000 ) ) ;
#135 = CARTESIAN_POINT ( 'NONE',  ( 0.000000000000000000, 0.000000000000000000, 5.000000000000000000 ) ) ;
#136 = EDGE_CURVE ( 'NONE', #385, #227, #400, .T. ) ;
#137 = CARTESIAN_POINT ( 'NONE',  ( 0.000000000000000000, 0.000000000000000000, 0.4999999999999995559 ) ) ;
#138 = AXIS2_PLACEMENT_3D ( 'NONE', #46, #144, #239 ) ;
#139 = ORIENTED_EDGE ( 'NONE', *, *, #309, .F. ) ;
#140 = CARTESIAN_POINT ( 'NONE',  ( -3.000000000000000000, 3.673940397442059868E-16, -2.168404344971008868E-16 ) ) ;
#141 = ADVANCED_FACE ( 'NONE', ( #373 ), #80, .T. ) ;
#142 = AXIS2_PLACEMENT_3D ( 'NONE', #11, #12, #273 ) ;
#143 = FACE_OUTER_BOUND ( 'NONE', #325, .T. ) ;
#144 = DIRECTION ( 'NONE',  ( 0.000000000000000000, 0.000000000000000000, 1.000000000000000000 ) ) ;
#145 = ORIENTED_EDGE ( 'NONE', *, *, #247, .T. ) ;
#146 = EDGE_CURVE ( 'NONE', #367, #322, #203, .T. ) ;
#147 = DIRECTION ( 'NONE',  ( -0.000000000000000000, -0.000000000000000000, -1.000000000000000000 ) ) ;
#148 = ORIENTED_EDGE ( 'NONE', *, *, #136, .T. ) ;
#149 = FACE_OUTER_BOUND ( 'NONE', #197, .T. ) ;
#150 = CARTESIAN_POINT ( 'NONE',  ( 4.999999999999999112, 0.000000000000000000, 4.500000000000000888 ) ) ;
#151 = CIRCLE ( 'NONE', #74, 5.500000000000000000 ) ;
#152 = ORIENTED_EDGE ( 'NONE', *, *, #117, .T. ) ;
#153 = DIRECTION ( 'NONE',  ( -1.000000000000000000, 1.224646799147351482E-16, 0.000000000000000000 ) ) ;
#154 = SURFACE_STYLE_FILL_AREA ( #246 ) ;
#155 = PRODUCT ( '11x5t5', '11x5t5', '', ( #422 ) ) ;
#156 = CARTESIAN_POINT ( 'NONE',  ( 0.000000000000000000, 0.000000000000000000, 0.4999999999999995559 ) ) ;
#157 = FACE_OUTER_BOUND ( 'NONE', #391, .T. ) ;
#158 = PRODUCT_DEFINITION_FORMATION_WITH_SPECIFIED_SOURCE ( 'ÈÎºÎ', '', #155, .NOT_KNOWN. ) ;
#159 = CARTESIAN_POINT ( 'NONE',  ( 3.000000000000000000, 0.000000000000000000, 5.000000000000000888 ) ) ;
#160 = VERTEX_POINT ( 'NONE', #84 ) ;
#161 = EDGE_CURVE ( 'NONE', #30, #342, #304, .T. ) ;
#162 = DIRECTION ( 'NONE',  ( 0.000000000000000000, 0.000000000000000000, 1.000000000000000000 ) ) ;
#163 = EDGE_LOOP ( 'NONE', ( #116, #55 ) ) ;
#164 = CARTESIAN_POINT ( 'NONE',  ( 3.000000000000000000, 0.000000000000000000, 4.500000000000000888 ) ) ;
#165 = CIRCLE ( 'NONE', #370, 5.500000000000000000 ) ;
#166 = CIRCLE ( 'NONE', #173, 4.999999999999999112 ) ;
#167 = AXIS2_PLACEMENT_3D ( 'NONE', #118, #372, #89 ) ;
#168 = CARTESIAN_POINT ( 'NONE',  ( -5.500000000000000000, 0.000000000000000000, 5.000000000000000000 ) ) ;
#169 = ADVANCED_FACE ( 'NONE', ( #143 ), #327, .T. ) ;
#170 = CARTESIAN_POINT ( 'NONE',  ( 0.000000000000000000, 0.000000000000000000, 5.000000000000000000 ) ) ;
#171 =( NAMED_UNIT ( * ) SI_UNIT ( $, .STERADIAN. ) SOLID_ANGLE_UNIT ( ) );
#172 = FACE_OUTER_BOUND ( 'NONE', #212, .T. ) ;
#173 = AXIS2_PLACEMENT_3D ( 'NONE', #205, #295, #356 ) ;
#174 = TOROIDAL_SURFACE ( 'NONE', #408, 4.999999999999999112, 0.5000000000000000000 ) ;
#175 = PLANE ( 'NONE',  #234 ) ;
#176 = EDGE_CURVE ( 'NONE', #219, #385, #378, .T. ) ;
#177 = CARTESIAN_POINT ( 'NONE',  ( 0.000000000000000000, 0.000000000000000000, 4.500000000000000888 ) ) ;
#178 = FACE_OUTER_BOUND ( 'NONE', #18, .T. ) ;
#179 = AXIS2_PLACEMENT_3D ( 'NONE', #411, #347, #58 ) ;
#180 = DIRECTION ( 'NONE',  ( 0.000000000000000000, 0.000000000000000000, 1.000000000000000000 ) ) ;
#181 = ORIENTED_EDGE ( 'NONE', *, *, #279, .T. ) ;
#182 = DIRECTION ( 'NONE',  ( 0.000000000000000000, 0.000000000000000000, 1.000000000000000000 ) ) ;
#183 = ORIENTED_EDGE ( 'NONE', *, *, #368, .T. ) ;
#184 = CARTESIAN_POINT ( 'NONE',  ( 5.500000000000000000, 6.735557395310442023E-16, 5.000000000000000000 ) ) ;
#185 = SURFACE_STYLE_USAGE ( .BOTH. , #281 ) ;
#186 = ORIENTED_EDGE ( 'NONE', *, *, #266, .F. ) ;
#187 = DIRECTION ( 'NONE',  ( -1.000000000000000000, 0.000000000000000000, 0.000000000000000000 ) ) ;
#188 = DIRECTION ( 'NONE',  ( 0.000000000000000000, 0.000000000000000000, -1.000000000000000000 ) ) ;
#189 = AXIS2_PLACEMENT_3D ( 'NONE', #170, #104, #258 ) ;
#190 = ADVANCED_BREP_SHAPE_REPRESENTATION ( '11x5t5', ( #301, #215 ), #68 ) ;
#191 =( GEOMETRIC_REPRESENTATION_CONTEXT ( 3 ) GLOBAL_UNCERTAINTY_ASSIGNED_CONTEXT ( ( #195 ) ) GLOBAL_UNIT_ASSIGNED_CONTEXT ( ( #23, #111, #28 ) ) REPRESENTATION_CONTEXT ( 'NONE', 'WORKASPACE' ) );
#192 = AXIS2_PLACEMENT_3D ( 'NONE', #31, #387, #331 ) ;
#193 = CARTESIAN_POINT ( 'NONE',  ( 0.000000000000000000, 0.000000000000000000, 0.4999999999999995559 ) ) ;
#194 = DIRECTION ( 'NONE',  ( -0.000000000000000000, -0.000000000000000000, -1.000000000000000000 ) ) ;
#195 = UNCERTAINTY_MEASURE_WITH_UNIT (LENGTH_MEASURE( 1.000000000000000082E-05 ), #23, 'distance_accuracy_value', 'NONE');
#196 = FACE_BOUND ( 'NONE', #7, .T. ) ;
#197 = EDGE_LOOP ( 'NONE', ( #139, #183, #75, #321 ) ) ;
#198 = EDGE_CURVE ( 'NONE', #129, #219, #334, .T. ) ;
#199 =( NAMED_UNIT ( * ) PLANE_ANGLE_UNIT ( ) SI_UNIT ( $, .RADIAN. ) );
#200 = ORIENTED_EDGE ( 'NONE', *, *, #102, .T. ) ;
#201 = ORIENTED_EDGE ( 'NONE', *, *, #357, .F. ) ;
#202 = APPLICATION_CONTEXT ( 'automotive_design' ) ;
#203 = CIRCLE ( 'NONE', #348, 4.999999999999999112 ) ;
#204 = ORIENTED_EDGE ( 'NONE', *, *, #233, .T. ) ;
#205 = CARTESIAN_POINT ( 'NONE',  ( 0.000000000000000000, 0.000000000000000000, 5.000000000000000000 ) ) ;
#206 = DIRECTION ( 'NONE',  ( 1.000000000000000000, 0.000000000000000000, 0.000000000000000000 ) ) ;
#207 = EDGE_CURVE ( 'NONE', #160, #30, #271, .T. ) ;
#208 = CARTESIAN_POINT ( 'NONE',  ( 2.500000000000000000, 3.061616997868383141E-16, 0.4999999999999995559 ) ) ;
#209 = DIRECTION ( 'NONE',  ( 1.000000000000000000, 0.000000000000000000, 0.000000000000000000 ) ) ;
#210 = ADVANCED_FACE ( 'NONE', ( #337 ), #119, .F. ) ;
#211 = CARTESIAN_POINT ( 'NONE',  ( 0.000000000000000000, 0.000000000000000000, 0.000000000000000000 ) ) ;
#212 = EDGE_LOOP ( 'NONE', ( #52, #69, #394, #409 ) ) ;
#213 = AXIS2_PLACEMENT_3D ( 'NONE', #35, #388, #101 ) ;
#214 = CARTESIAN_POINT ( 'NONE',  ( 3.000000000000000000, 0.000000000000000000, 0.4999999999999995559 ) ) ;
#215 = AXIS2_PLACEMENT_3D ( 'NONE', #390, #162, #326 ) ;
#216 = ORIENTED_EDGE ( 'NONE', *, *, #56, .F. ) ;
#217 = LINE ( 'NONE', #184, #251 ) ;
#218 = DIRECTION ( 'NONE',  ( -1.000000000000000000, 1.224646799147351482E-16, 0.000000000000000000 ) ) ;
#219 = VERTEX_POINT ( 'NONE', #208 ) ;
#220 = DIRECTION ( 'NONE',  ( -1.000000000000000000, 1.224646799147353454E-16, 0.000000000000000000 ) ) ;
#221 = LINE ( 'NONE', #343, #278 ) ;
#222 = DIRECTION ( 'NONE',  ( 1.224646799147353207E-16, 1.000000000000000000, -0.000000000000000000 ) ) ;
#223 = DIRECTION ( 'NONE',  ( 1.000000000000000000, 0.000000000000000000, 0.000000000000000000 ) ) ;
#224 = FACE_OUTER_BOUND ( 'NONE', #229, .T. ) ;
#225 = AXIS2_PLACEMENT_3D ( 'NONE', #9, #79, #206 ) ;
#226 = ORIENTED_EDGE ( 'NONE', *, *, #26, .T. ) ;
#227 = VERTEX_POINT ( 'NONE', #140 ) ;
#228 = ORIENTED_EDGE ( 'NONE', *, *, #330, .T. ) ;
#229 = EDGE_LOOP ( 'NONE', ( #186, #145, #29, #85 ) ) ;
#230 = STYLED_ITEM ( 'NONE', ( #92 ), #301 ) ;
#231 = VERTEX_POINT ( 'NONE', #404 ) ;
#232 = FACE_BOUND ( 'NONE', #292, .T. ) ;
#233 = EDGE_CURVE ( 'NONE', #381, #355, #110, .T. ) ;
#234 = AXIS2_PLACEMENT_3D ( 'NONE', #4, #77, #134 ) ;
#235 = AXIS2_PLACEMENT_3D ( 'NONE', #127, #253, #380 ) ;
#236 = CARTESIAN_POINT ( 'NONE',  ( 0.000000000000000000, 0.000000000000000000, 5.000000000000000000 ) ) ;
#237 = CARTESIAN_POINT ( 'NONE',  ( 0.000000000000000000, 0.000000000000000000, 0.4999999999999995559 ) ) ;
#238 = EDGE_LOOP ( 'NONE', ( #114, #121, #262, #294 ) ) ;
#239 = DIRECTION ( 'NONE',  ( 1.000000000000000000, 0.000000000000000000, 0.000000000000000000 ) ) ;
#240 = VERTEX_POINT ( 'NONE', #86 ) ;
#241 = CIRCLE ( 'NONE', #257, 2.500000000000000000 ) ;
#242 = CARTESIAN_POINT ( 'NONE',  ( 3.000000000000000000, 0.000000000000000000, -2.168404344971008868E-16 ) ) ;
#243 = CARTESIAN_POINT ( 'NONE',  ( 0.000000000000000000, 0.000000000000000000, 0.4999999999999995559 ) ) ;
#244 = EDGE_LOOP ( 'NONE', ( #267, #396, #345, #181 ) ) ;
#245 = DIRECTION ( 'NONE',  ( -0.000000000000000000, -0.000000000000000000, -1.000000000000000000 ) ) ;
#246 = FILL_AREA_STYLE ('',( #413 ) ) ;
#247 = EDGE_CURVE ( 'NONE', #99, #322, #13, .T. ) ;
#248 = CARTESIAN_POINT ( 'NONE',  ( -3.000000000000000000, 3.673940397442059868E-16, 0.4999999999999995559 ) ) ;
#249 = AXIS2_PLACEMENT_3D ( 'NONE', #340, #51, #218 ) ;
#250 = CARTESIAN_POINT ( 'NONE',  ( 0.000000000000000000, 0.000000000000000000, 4.500000000000000888 ) ) ;
#251 = VECTOR ( 'NONE', #19, 1000.000000000000000 ) ;
#252 = PRODUCT_RELATED_PRODUCT_CATEGORY ( 'part', '', ( #155 ) ) ;
#253 = DIRECTION ( 'NONE',  ( -0.000000000000000000, -0.000000000000000000, -1.000000000000000000 ) ) ;
#254 = ORIENTED_EDGE ( 'NONE', *, *, #309, .T. ) ;
#255 = FILL_AREA_STYLE_COLOUR ( '', #5 ) ;
#256 = ORIENTED_EDGE ( 'NONE', *, *, #136, .F. ) ;
#257 = AXIS2_PLACEMENT_3D ( 'NONE', #397, #147, #17 ) ;
#258 = DIRECTION ( 'NONE',  ( -1.000000000000000000, 0.000000000000000000, 0.000000000000000000 ) ) ;
#259 = PRESENTATION_STYLE_ASSIGNMENT (( #324 ) ) ;
#260 = VERTEX_POINT ( 'NONE', #344 ) ;
#261 = EDGE_CURVE ( 'NONE', #240, #99, #151, .T. ) ;
#262 = ORIENTED_EDGE ( 'NONE', *, *, #63, .F. ) ;
#263 = ORIENTED_EDGE ( 'NONE', *, *, #233, .F. ) ;
#264 = CIRCLE ( 'NONE', #2, 2.500000000000000000 ) ;
#265 = AXIS2_PLACEMENT_3D ( 'NONE', #123, #317, #24 ) ;
#266 = EDGE_CURVE ( 'NONE', #99, #240, #386, .T. ) ;
#267 = ORIENTED_EDGE ( 'NONE', *, *, #403, .F. ) ;
#268 = DIRECTION ( 'NONE',  ( 1.000000000000000000, 0.000000000000000000, 0.000000000000000000 ) ) ;
#269 = DIRECTION ( 'NONE',  ( -1.000000000000000000, 0.000000000000000000, 0.000000000000000000 ) ) ;
#270 = ADVANCED_FACE ( 'NONE', ( #178 ), #313, .T. ) ;
#271 = CIRCLE ( 'NONE', #120, 4.999999999999999112 ) ;
#272 = DIRECTION ( 'NONE',  ( 0.000000000000000000, -1.000000000000000000, 0.000000000000000000 ) ) ;
#273 = DIRECTION ( 'NONE',  ( 0.000000000000000000, 0.000000000000000000, -1.000000000000000000 ) ) ;
#274 = EDGE_LOOP ( 'NONE', ( #228, #50 ) ) ;
#275 = DIRECTION ( 'NONE',  ( 1.000000000000000000, 0.000000000000000000, 0.000000000000000000 ) ) ;
#276 = ORIENTED_EDGE ( 'NONE', *, *, #130, .F. ) ;
#277 = AXIS2_PLACEMENT_3D ( 'NONE', #90, #305, #269 ) ;
#278 = VECTOR ( 'NONE', #194, 1000.000000000000000 ) ;
#279 = EDGE_CURVE ( 'NONE', #260, #342, #338, .T. ) ;
#280 = CYLINDRICAL_SURFACE ( 'NONE', #417, 2.500000000000000000 ) ;
#281 = SURFACE_SIDE_STYLE ('',( #154 ) ) ;
#282 = STYLED_ITEM ( 'NONE', ( #259 ), #190 ) ;
#283 = ORIENTED_EDGE ( 'NONE', *, *, #176, .F. ) ;
#284 = CARTESIAN_POINT ( 'NONE',  ( 5.500000000000000000, 6.735557395310442023E-16, 0.4999999999999995559 ) ) ;
#285 = EDGE_CURVE ( 'NONE', #381, #231, #291, .T. ) ;
#286 = CYLINDRICAL_SURFACE ( 'NONE', #235, 5.500000000000000000 ) ;
#287 = UNCERTAINTY_MEASURE_WITH_UNIT (LENGTH_MEASURE( 1.000000000000000082E-05 ), #103, 'distance_accuracy_value', 'NONE');
#288 = DIRECTION ( 'NONE',  ( 0.000000000000000000, 0.000000000000000000, 1.000000000000000000 ) ) ;
#289 = EDGE_LOOP ( 'NONE', ( #358, #374, #308, #216 ) ) ;
#290 =( NAMED_UNIT ( * ) PLANE_ANGLE_UNIT ( ) SI_UNIT ( $, .RADIAN. ) );
#291 = CIRCLE ( 'NONE', #179, 0.5000000000000000000 ) ;
#292 = EDGE_LOOP ( 'NONE', ( #148, #200 ) ) ;
#293 = AXIS2_PLACEMENT_3D ( 'NONE', #93, #222, #153 ) ;
#294 = ORIENTED_EDGE ( 'NONE', *, *, #161, .F. ) ;
#295 = DIRECTION ( 'NONE',  ( 0.000000000000000000, 0.000000000000000000, 1.000000000000000000 ) ) ;
#296 = EDGE_CURVE ( 'NONE', #240, #367, #415, .T. ) ;
#297 = CARTESIAN_POINT ( 'NONE',  ( -5.500000000000000000, 0.000000000000000000, 4.500000000000000888 ) ) ;
#298 = CIRCLE ( 'NONE', #213, 3.000000000000000000 ) ;
#299 = DIRECTION ( 'NONE',  ( -0.000000000000000000, -0.000000000000000000, -1.000000000000000000 ) ) ;
#300 = DIRECTION ( 'NONE',  ( 1.000000000000000000, 0.000000000000000000, 0.000000000000000000 ) ) ;
#301 = MANIFOLD_SOLID_BREP ( 'Ô²½Ç1', #100 ) ;
#302 = CARTESIAN_POINT ( 'NONE',  ( 0.000000000000000000, 0.000000000000000000, 4.500000000000000888 ) ) ;
#303 = ADVANCED_FACE ( 'NONE', ( #350 ), #174, .T. ) ;
#304 = CIRCLE ( 'NONE', #142, 0.5000000000000000000 ) ;
#305 = DIRECTION ( 'NONE',  ( -0.000000000000000000, -0.000000000000000000, -1.000000000000000000 ) ) ;
#306 = ORIENTED_EDGE ( 'NONE', *, *, #285, .T. ) ;
#307 = DIRECTION ( 'NONE',  ( 0.000000000000000000, 0.000000000000000000, 1.000000000000000000 ) ) ;
#308 = ORIENTED_EDGE ( 'NONE', *, *, #296, .T. ) ;
#309 = EDGE_CURVE ( 'NONE', #88, #219, #124, .T. ) ;
#310 = CARTESIAN_POINT ( 'NONE',  ( 0.000000000000000000, 0.000000000000000000, 0.4999999999999995559 ) ) ;
#311 = DIRECTION ( 'NONE',  ( 0.000000000000000000, -1.000000000000000000, 0.000000000000000000 ) ) ;
#312 = ORIENTED_EDGE ( 'NONE', *, *, #357, .T. ) ;
#313 = TOROIDAL_SURFACE ( 'NONE', #133, 3.000000000000000000, 0.5000000000000000000 ) ;
#314 = AXIS2_PLACEMENT_3D ( 'NONE', #248, #375, #220 ) ;
#315 = DIRECTION ( 'NONE',  ( 1.000000000000000000, 0.000000000000000000, 0.000000000000000000 ) ) ;
#316 = MECHANICAL_DESIGN_GEOMETRIC_PRESENTATION_REPRESENTATION (  '', ( #282 ), #10 ) ;
#317 = DIRECTION ( 'NONE',  ( -0.000000000000000000, -0.000000000000000000, -1.000000000000000000 ) ) ;
#318 = ADVANCED_FACE ( 'NONE', ( #157 ), #95, .T. ) ;
#319 = CARTESIAN_POINT ( 'NONE',  ( -3.000000000000000000, 3.673940397442059868E-16, 5.000000000000000888 ) ) ;
#320 = MECHANICAL_DESIGN_GEOMETRIC_PRESENTATION_REPRESENTATION (  '', ( #230 ), #191 ) ;
#321 = ORIENTED_EDGE ( 'NONE', *, *, #198, .T. ) ;
#322 = VERTEX_POINT ( 'NONE', #96 ) ;
#323 = EDGE_CURVE ( 'NONE', #160, #260, #106, .T. ) ;
#324 = SURFACE_STYLE_USAGE ( .BOTH. , #383 ) ;
#325 = EDGE_LOOP ( 'NONE', ( #65, #312, #256, #283 ) ) ;
#326 = DIRECTION ( 'NONE',  ( 1.000000000000000000, 0.000000000000000000, 0.000000000000000000 ) ) ;
#327 = TOROIDAL_SURFACE ( 'NONE', #41, 3.000000000000000000, 0.5000000000000000000 ) ;
#328 = CARTESIAN_POINT ( 'NONE',  ( 2.500000000000000000, 3.061616997868383141E-16, 4.500000000000000888 ) ) ;
#329 = ORIENTED_EDGE ( 'NONE', *, *, #285, .F. ) ;
#330 = EDGE_CURVE ( 'NONE', #30, #160, #42, .T. ) ;
#331 = DIRECTION ( 'NONE',  ( 1.000000000000000000, 0.000000000000000000, 0.000000000000000000 ) ) ;
#332 = DIRECTION ( 'NONE',  ( 0.000000000000000000, 0.000000000000000000, 1.000000000000000000 ) ) ;
#333 = CARTESIAN_POINT ( 'NONE',  ( 0.000000000000000000, 0.000000000000000000, 4.500000000000000888 ) ) ;
#334 = CIRCLE ( 'NONE', #33, 2.500000000000000000 ) ;
#335 = CARTESIAN_POINT ( 'NONE',  ( -2.500000000000000000, 0.000000000000000000, 0.4999999999999995559 ) ) ;
#336 = DIRECTION ( 'NONE',  ( 0.000000000000000000, 0.000000000000000000, 1.000000000000000000 ) ) ;
#337 = FACE_OUTER_BOUND ( 'NONE', #351, .T. ) ;
#338 = CIRCLE ( 'NONE', #362, 5.500000000000000000 ) ;
#339 = ORIENTED_EDGE ( 'NONE', *, *, #102, .F. ) ;
#340 = CARTESIAN_POINT ( 'NONE',  ( -4.999999999999999112, 6.123233995736765296E-16, 4.500000000000000888 ) ) ;
#341 = EDGE_CURVE ( 'NONE', #231, #129, #221, .T. ) ;
#342 = VERTEX_POINT ( 'NONE', #284 ) ;
#343 = CARTESIAN_POINT ( 'NONE',  ( -2.500000000000000000, 0.000000000000000000, 5.000000000000000000 ) ) ;
#344 = CARTESIAN_POINT ( 'NONE',  ( -5.500000000000000000, 0.000000000000000000, 0.4999999999999995559 ) ) ;
#345 = ORIENTED_EDGE ( 'NONE', *, *, #14, .T. ) ;
#346 = FACE_OUTER_BOUND ( 'NONE', #163, .T. ) ;
#347 = DIRECTION ( 'NONE',  ( 1.224646799147353207E-16, 1.000000000000000000, -0.000000000000000000 ) ) ;
#348 = AXIS2_PLACEMENT_3D ( 'NONE', #236, #15, #47 ) ;
#349 = AXIS2_PLACEMENT_3D ( 'NONE', #250, #288, #223 ) ;
#350 = FACE_OUTER_BOUND ( 'NONE', #132, .T. ) ;
#351 = EDGE_LOOP ( 'NONE', ( #371, #254, #152, #6 ) ) ;
#352 = VECTOR ( 'NONE', #107, 1000.000000000000000 ) ;
#353 = ORIENTED_EDGE ( 'NONE', *, *, #72, .T. ) ;
#354 = ADVANCED_FACE ( 'NONE', ( #412 ), #21, .T. ) ;
#355 = VERTEX_POINT ( 'NONE', #159 ) ;
#356 = DIRECTION ( 'NONE',  ( 1.000000000000000000, 0.000000000000000000, 0.000000000000000000 ) ) ;
#357 = EDGE_CURVE ( 'NONE', #129, #227, #393, .T. ) ;
#358 = ORIENTED_EDGE ( 'NONE', *, *, #247, .F. ) ;
#359 = DIRECTION ( 'NONE',  ( 0.000000000000000000, 0.000000000000000000, -1.000000000000000000 ) ) ;
#360 = FACE_OUTER_BOUND ( 'NONE', #289, .T. ) ;
#361 = CARTESIAN_POINT ( 'NONE',  ( 0.000000000000000000, 0.000000000000000000, 0.4999999999999995559 ) ) ;
#362 = AXIS2_PLACEMENT_3D ( 'NONE', #361, #336, #376 ) ;
#363 = PRODUCT_DEFINITION ( 'Î´Öª', '', #158, #122 ) ;
#364 = TOROIDAL_SURFACE ( 'NONE', #192, 4.999999999999999112, 0.5000000000000000000 ) ;
#365 = DIRECTION ( 'NONE',  ( 0.000000000000000000, 0.000000000000000000, 1.000000000000000000 ) ) ;
#366 = DIRECTION ( 'NONE',  ( 1.000000000000000000, 0.000000000000000000, 0.000000000000000000 ) ) ;
#367 = VERTEX_POINT ( 'NONE', #64 ) ;
#368 = EDGE_CURVE ( 'NONE', #88, #231, #3, .T. ) ;
#369 = DIRECTION ( 'NONE',  ( -0.000000000000000000, -0.000000000000000000, -1.000000000000000000 ) ) ;
#370 = AXIS2_PLACEMENT_3D ( 'NONE', #137, #332, #39 ) ;
#371 = ORIENTED_EDGE ( 'NONE', *, *, #130, .T. ) ;
#372 = DIRECTION ( 'NONE',  ( 0.000000000000000000, 0.000000000000000000, 1.000000000000000000 ) ) ;
#373 = FACE_OUTER_BOUND ( 'NONE', #405, .T. ) ;
#374 = ORIENTED_EDGE ( 'NONE', *, *, #261, .F. ) ;
#375 = DIRECTION ( 'NONE',  ( 1.224646799147353207E-16, 1.000000000000000000, -0.000000000000000000 ) ) ;
#376 = DIRECTION ( 'NONE',  ( 1.000000000000000000, 0.000000000000000000, 0.000000000000000000 ) ) ;
#377 = DIRECTION ( 'NONE',  ( 1.000000000000000000, 0.000000000000000000, 0.000000000000000000 ) ) ;
#378 = CIRCLE ( 'NONE', #66, 0.5000000000000000000 ) ;
#379 = AXIS2_PLACEMENT_3D ( 'NONE', #193, #416, #315 ) ;
#380 = DIRECTION ( 'NONE',  ( -1.000000000000000000, 0.000000000000000000, 0.000000000000000000 ) ) ;
#381 = VERTEX_POINT ( 'NONE', #319 ) ;
#382 = UNCERTAINTY_MEASURE_WITH_UNIT (LENGTH_MEASURE( 1.000000000000000082E-05 ), #70, 'distance_accuracy_value', 'NONE');
#383 = SURFACE_SIDE_STYLE ('',( #76 ) ) ;
#384 = ADVANCED_FACE ( 'NONE', ( #62 ), #286, .T. ) ;
#385 = VERTEX_POINT ( 'NONE', #242 ) ;
#386 = CIRCLE ( 'NONE', #126, 5.500000000000000000 ) ;
#387 = DIRECTION ( 'NONE',  ( 0.000000000000000000, 0.000000000000000000, 1.000000000000000000 ) ) ;
#388 = DIRECTION ( 'NONE',  ( 0.000000000000000000, 0.000000000000000000, 1.000000000000000000 ) ) ;
#389 = CYLINDRICAL_SURFACE ( 'NONE', #189, 5.500000000000000000 ) ;
#390 = CARTESIAN_POINT ( 'NONE',  ( 0.000000000000000000, 0.000000000000000000, 0.000000000000000000 ) ) ;
#391 = EDGE_LOOP ( 'NONE', ( #201, #105, #128, #339 ) ) ;
#392 = AXIS2_PLACEMENT_3D ( 'NONE', #164, #71, #359 ) ;
#393 = CIRCLE ( 'NONE', #314, 0.5000000000000000000 ) ;
#394 = ORIENTED_EDGE ( 'NONE', *, *, #63, .T. ) ;
#395 = PRESENTATION_LAYER_ASSIGNMENT (  '', '', ( #282 ) ) ;
#396 = ORIENTED_EDGE ( 'NONE', *, *, #261, .T. ) ;
#397 = CARTESIAN_POINT ( 'NONE',  ( 0.000000000000000000, 0.000000000000000000, 0.4999999999999995559 ) ) ;
#398 = ADVANCED_FACE ( 'NONE', ( #196, #346 ), #57, .T. ) ;
#399 = CARTESIAN_POINT ( 'NONE',  ( 0.000000000000000000, 0.000000000000000000, 5.000000000000000000 ) ) ;
#400 = CIRCLE ( 'NONE', #401, 3.000000000000000000 ) ;
#401 = AXIS2_PLACEMENT_3D ( 'NONE', #113, #182, #83 ) ;
#402 = DIRECTION ( 'NONE',  ( 1.000000000000000000, 0.000000000000000000, 0.000000000000000000 ) ) ;
#403 = EDGE_CURVE ( 'NONE', #240, #342, #217, .T. ) ;
#404 = CARTESIAN_POINT ( 'NONE',  ( -2.500000000000000000, 0.000000000000000000, 4.500000000000000888 ) ) ;
#405 = EDGE_LOOP ( 'NONE', ( #263, #306, #418, #16 ) ) ;
#406 = DIRECTION ( 'NONE',  ( -0.000000000000000000, -0.000000000000000000, -1.000000000000000000 ) ) ;
#407 = AXIS2_PLACEMENT_3D ( 'NONE', #135, #1, #73 ) ;
#409 = ORIENTED_EDGE ( 'NONE', *, *, #14, .F. ) ;
#408 = AXIS2_PLACEMENT_3D ( 'NONE', #310, #25, #377 ) ;
#410 = CARTESIAN_POINT ( 'NONE',  ( 0.000000000000000000, 0.000000000000000000, 5.000000000000000000 ) ) ;
#411 = CARTESIAN_POINT ( 'NONE',  ( -3.000000000000000000, 3.673940397442059868E-16, 4.500000000000000888 ) ) ;
#412 = FACE_OUTER_BOUND ( 'NONE', #238, .T. ) ;
#413 = FILL_AREA_STYLE_COLOUR ( '', #87 ) ;
#414 = ADVANCED_FACE ( 'NONE', ( #149 ), #280, .F. ) ;
#415 = CIRCLE ( 'NONE', #27, 0.5000000000000004441 ) ;
#416 = DIRECTION ( 'NONE',  ( 0.000000000000000000, 0.000000000000000000, 1.000000000000000000 ) ) ;
#417 = AXIS2_PLACEMENT_3D ( 'NONE', #410, #245, #187 ) ;
#418 = ORIENTED_EDGE ( 'NONE', *, *, #368, .F. ) ;
#419 = ADVANCED_FACE ( 'NONE', ( #224 ), #364, .T. ) ;
#420 = SHAPE_DEFINITION_REPRESENTATION ( #131, #190 ) ;
#421 = ORIENTED_EDGE ( 'NONE', *, *, #72, .F. ) ;
#422 = PRODUCT_CONTEXT ( 'NONE', #202, 'mechanical' ) ;
ENDSEC;
END-ISO-10303-21;
