ISO-10303-21;
HEADER;
FILE_DESCRIPTION (( 'STEP AP214' ),
    '1' );
FILE_NAME ('17x26t5.step',
    '2023-08-15T02:53:20',
    ( '' ),
    ( '' ),
    'SwSTEP 2.0',
    'SolidWorks 2022',
    '' );
FILE_SCHEMA (( 'AUTOMOTIVE_DESIGN' ));
ENDSEC;

DATA;
#1 = ADVANCED_FACE ( 'NONE', ( #23 ), #278, .T. ) ;
#2 = PRODUCT_DEFINITION ( 'Î´Öª', '', #152, #377 ) ;
#3 = VERTEX_POINT ( 'NONE', #380 ) ;
#4 = DIRECTION ( 'NONE',  ( 0.000000000000000000, 0.000000000000000000, 1.000000000000000000 ) ) ;
#5 = ORIENTED_EDGE ( 'NONE', *, *, #37, .T. ) ;
#6 = ORIENTED_EDGE ( 'NONE', *, *, #402, .T. ) ;
#7 = ORIENTED_EDGE ( 'NONE', *, *, #249, .F. ) ;
#8 = CARTESIAN_POINT ( 'NONE',  ( -8.500000000000001776, 0.000000000000000000, 0.5000000000000038858 ) ) ;
#9 = UNCERTAINTY_MEASURE_WITH_UNIT (LENGTH_MEASURE( 1.000000000000000082E-05 ), #289, 'distance_accuracy_value', 'NONE');
#10 = ORIENTED_EDGE ( 'NONE', *, *, #207, .T. ) ;
#11 = DIRECTION ( 'NONE',  ( -1.000000000000000000, 0.000000000000000000, 0.000000000000000000 ) ) ;
#12 = VECTOR ( 'NONE', #358, 999.9999999999998863 ) ;
#13 = CARTESIAN_POINT ( 'NONE',  ( 13.00000000000000178, 0.000000000000000000, 0.5000000000000056621 ) ) ;
#14 = PRESENTATION_LAYER_ASSIGNMENT (  '', '', ( #274 ) ) ;
#15 = CARTESIAN_POINT ( 'NONE',  ( -13.00000000000000178, 0.000000000000000000, 5.000000000000000000 ) ) ;
#16 = CIRCLE ( 'NONE', #413, 12.50000000000001066 ) ;
#17 = VERTEX_POINT ( 'NONE', #220 ) ;
#18 = EDGE_LOOP ( 'NONE', ( #370, #108, #171, #341 ) ) ;
#19 = LINE ( 'NONE', #146, #297 ) ;
#20 = DIRECTION ( 'NONE',  ( -0.7071067811865426878, 0.000000000000000000, -0.7071067811865524577 ) ) ;
#21 =( NAMED_UNIT ( * ) SI_UNIT ( $, .STERADIAN. ) SOLID_ANGLE_UNIT ( ) );
#22 = DIRECTION ( 'NONE',  ( 0.7071067811865439090, 8.659560562354888485E-17, -0.7071067811865512365 ) ) ;
#23 = FACE_OUTER_BOUND ( 'NONE', #394, .T. ) ;
#24 = DIRECTION ( 'NONE',  ( 1.000000000000000000, 0.000000000000000000, 0.000000000000000000 ) ) ;
#25 = SURFACE_STYLE_FILL_AREA ( #322 ) ;
#26 = AXIS2_PLACEMENT_3D ( 'NONE', #355, #57, #226 ) ;
#27 = EDGE_CURVE ( 'NONE', #366, #375, #214, .T. ) ;
#28 = CIRCLE ( 'NONE', #71, 8.500000000000001776 ) ;
#29 = APPLICATION_PROTOCOL_DEFINITION ( 'draft international standard', 'automotive_design', 1998, #174 ) ;
#30 = AXIS2_PLACEMENT_3D ( 'NONE', #339, #211, #49 ) ;
#31 = EDGE_CURVE ( 'NONE', #263, #129, #344, .T. ) ;
#32 =( GEOMETRIC_REPRESENTATION_CONTEXT ( 3 ) GLOBAL_UNCERTAINTY_ASSIGNED_CONTEXT ( ( #9 ) ) GLOBAL_UNIT_ASSIGNED_CONTEXT ( ( #289, #352, #21 ) ) REPRESENTATION_CONTEXT ( 'NONE', 'WORKASPACE' ) );
#33 = DIRECTION ( 'NONE',  ( 0.000000000000000000, 0.000000000000000000, 1.000000000000000000 ) ) ;
#34 = AXIS2_PLACEMENT_3D ( 'NONE', #327, #334, #172 ) ;
#35 = ORIENTED_EDGE ( 'NONE', *, *, #373, .T. ) ;
#36 = ORIENTED_EDGE ( 'NONE', *, *, #185, .F. ) ;
#37 = EDGE_CURVE ( 'NONE', #406, #212, #287, .T. ) ;
#38 = EDGE_LOOP ( 'NONE', ( #155, #238, #210, #280 ) ) ;
#39 = AXIS2_PLACEMENT_3D ( 'NONE', #379, #271, #245 ) ;
#40 = LINE ( 'NONE', #179, #105 ) ;
#41 = EDGE_LOOP ( 'NONE', ( #246, #396, #392, #96 ) ) ;
#42 = EDGE_CURVE ( 'NONE', #366, #222, #291, .T. ) ;
#43 = DIRECTION ( 'NONE',  ( 0.000000000000000000, 0.000000000000000000, 1.000000000000000000 ) ) ;
#44 = ORIENTED_EDGE ( 'NONE', *, *, #254, .F. ) ;
#45 = CIRCLE ( 'NONE', #160, 8.500000000000001776 ) ;
#46 = DIRECTION ( 'NONE',  ( -0.000000000000000000, -0.000000000000000000, 1.000000000000000000 ) ) ;
#47 = ORIENTED_EDGE ( 'NONE', *, *, #91, .T. ) ;
#48 = MECHANICAL_DESIGN_GEOMETRIC_PRESENTATION_REPRESENTATION (  '', ( #274 ), #331 ) ;
#49 = DIRECTION ( 'NONE',  ( 1.000000000000000000, 0.000000000000000000, 0.000000000000000000 ) ) ;
#50 = PLANE ( 'NONE',  #343 ) ;
#51 = DIRECTION ( 'NONE',  ( -0.000000000000000000, -0.000000000000000000, -1.000000000000000000 ) ) ;
#52 = EDGE_CURVE ( 'NONE', #406, #67, #136, .T. ) ;
#53 = DIRECTION ( 'NONE',  ( -0.7071067811865439090, 0.000000000000000000, -0.7071067811865512365 ) ) ;
#54 = LINE ( 'NONE', #190, #357 ) ;
#55 = FACE_OUTER_BOUND ( 'NONE', #169, .T. ) ;
#56 = CONICAL_SURFACE ( 'NONE', #184, 13.00000000000000178, 0.7853981633974500554 ) ;
#57 = DIRECTION ( 'NONE',  ( -0.000000000000000000, -0.000000000000000000, -1.000000000000000000 ) ) ;
#58 = AXIS2_PLACEMENT_3D ( 'NONE', #204, #391, #336 ) ;
#59 = ADVANCED_FACE ( 'NONE', ( #345, #55 ), #50, .T. ) ;
#60 = DIRECTION ( 'NONE',  ( 1.000000000000000000, 0.000000000000000000, 0.000000000000000000 ) ) ;
#61 = PRODUCT_CONTEXT ( 'NONE', #148, 'mechanical' ) ;
#62 = ADVANCED_FACE ( 'NONE', ( #316 ), #329, .F. ) ;
#63 = UNCERTAINTY_MEASURE_WITH_UNIT (LENGTH_MEASURE( 1.000000000000000082E-05 ), #340, 'distance_accuracy_value', 'NONE');
#64 = FACE_OUTER_BOUND ( 'NONE', #303, .T. ) ;
#65 = EDGE_CURVE ( 'NONE', #267, #129, #284, .T. ) ;
#66 = CIRCLE ( 'NONE', #231, 9.000000000000007105 ) ;
#67 = VERTEX_POINT ( 'NONE', #386 ) ;
#68 = EDGE_LOOP ( 'NONE', ( #298, #135, #6, #300 ) ) ;
#69 = PLANE ( 'NONE',  #360 ) ;
#70 = ORIENTED_EDGE ( 'NONE', *, *, #281, .T. ) ;
#71 = AXIS2_PLACEMENT_3D ( 'NONE', #217, #51, #346 ) ;
#72 = EDGE_CURVE ( 'NONE', #337, #145, #66, .T. ) ;
#73 = EDGE_LOOP ( 'NONE', ( #35, #275 ) ) ;
#74 = AXIS2_PLACEMENT_3D ( 'NONE', #342, #279, #11 ) ;
#75 = DIRECTION ( 'NONE',  ( 0.7071067811865426878, 8.659560562354873694E-17, -0.7071067811865524577 ) ) ;
#76 = DIRECTION ( 'NONE',  ( -0.000000000000000000, -0.000000000000000000, -1.000000000000000000 ) ) ;
#77 = AXIS2_PLACEMENT_3D ( 'NONE', #350, #410, #218 ) ;
#78 = DIRECTION ( 'NONE',  ( 1.000000000000000000, 0.000000000000000000, 0.000000000000000000 ) ) ;
#79 = FILL_AREA_STYLE ('',( #405 ) ) ;
#80 = UNCERTAINTY_MEASURE_WITH_UNIT (LENGTH_MEASURE( 1.000000000000000082E-05 ), #178, 'distance_accuracy_value', 'NONE');
#81 = EDGE_LOOP ( 'NONE', ( #225, #70 ) ) ;
#82 = DIRECTION ( 'NONE',  ( 0.000000000000000000, 0.000000000000000000, 1.000000000000000000 ) ) ;
#83 = CARTESIAN_POINT ( 'NONE',  ( -12.50000000000001066, 0.000000000000000000, 5.000000000000000000 ) ) ;
#84 = COLOUR_RGB ( '',0.5215686274509804266, 0.2431372549019607809, 0.9137254901960784048 ) ;
#85 = LINE ( 'NONE', #258, #387 ) ;
#86 = ORIENTED_EDGE ( 'NONE', *, *, #31, .T. ) ;
#87 = AXIS2_PLACEMENT_3D ( 'NONE', #409, #122, #154 ) ;
#88 = AXIS2_PLACEMENT_3D ( 'NONE', #283, #407, #110 ) ;
#89 = CARTESIAN_POINT ( 'NONE',  ( 0.000000000000000000, 0.000000000000000000, 0.5000000000000056621 ) ) ;
#90 = CARTESIAN_POINT ( 'NONE',  ( 0.000000000000000000, 0.000000000000000000, 0.5000000000000056621 ) ) ;
#91 = EDGE_CURVE ( 'NONE', #17, #272, #45, .T. ) ;
#92 = CARTESIAN_POINT ( 'NONE',  ( -12.49999999999999289, 1.561424668912874914E-15, 0.000000000000000000 ) ) ;
#93 = EDGE_LOOP ( 'NONE', ( #47, #203, #244, #94 ) ) ;
#94 = ORIENTED_EDGE ( 'NONE', *, *, #216, .F. ) ;
#95 = AXIS2_PLACEMENT_3D ( 'NONE', #90, #230, #359 ) ;
#96 = ORIENTED_EDGE ( 'NONE', *, *, #281, .F. ) ;
#97 = CLOSED_SHELL ( 'NONE', ( #206, #127, #144, #117, #140, #1, #59, #328, #282, #112, #62, #304, #229, #132 ) ) ;
#98 = SURFACE_STYLE_FILL_AREA ( #79 ) ;
#99 = ORIENTED_EDGE ( 'NONE', *, *, #192, .F. ) ;
#100 = CARTESIAN_POINT ( 'NONE',  ( -9.000000000000001776, 0.000000000000000000, 0.000000000000000000 ) ) ;
#101 = CONICAL_SURFACE ( 'NONE', #351, 8.500000000000001776, 0.7853981633974536081 ) ;
#102 = ORIENTED_EDGE ( 'NONE', *, *, #185, .T. ) ;
#103 = CONICAL_SURFACE ( 'NONE', #167, 12.50000000000001066, 0.7853981633974415066 ) ;
#104 = ORIENTED_EDGE ( 'NONE', *, *, #254, .T. ) ;
#105 = VECTOR ( 'NONE', #75, 1000.000000000000000 ) ;
#106 = EDGE_LOOP ( 'NONE', ( #126, #374, #310, #251 ) ) ;
#107 = DIRECTION ( 'NONE',  ( -0.7071067811865487940, 8.659560562354948882E-17, 0.7071067811865463515 ) ) ;
#108 = ORIENTED_EDGE ( 'NONE', *, *, #326, .T. ) ;
#109 = EDGE_CURVE ( 'NONE', #242, #267, #393, .T. ) ;
#110 = DIRECTION ( 'NONE',  ( 1.000000000000000000, 0.000000000000000000, 0.000000000000000000 ) ) ;
#111 = CARTESIAN_POINT ( 'NONE',  ( 0.000000000000000000, 0.000000000000000000, 5.000000000000000000 ) ) ;
#112 = ADVANCED_FACE ( 'NONE', ( #153 ), #142, .F. ) ;
#113 = CARTESIAN_POINT ( 'NONE',  ( -13.00000000000000178, 0.000000000000000000, 4.500000000000003553 ) ) ;
#114 = CARTESIAN_POINT ( 'NONE',  ( 0.000000000000000000, 0.000000000000000000, 5.000000000000000000 ) ) ;
#115 = MANIFOLD_SOLID_BREP ( 'µ¹½Ç1', #97 ) ;
#116 = DIRECTION ( 'NONE',  ( -0.000000000000000000, -0.000000000000000000, 1.000000000000000000 ) ) ;
#117 = ADVANCED_FACE ( 'NONE', ( #252 ), #224, .F. ) ;
#118 = CONICAL_SURFACE ( 'NONE', #364, 12.50000000000001066, 0.7853981633974415066 ) ;
#119 = DIRECTION ( 'NONE',  ( -1.000000000000000000, 0.000000000000000000, 0.000000000000000000 ) ) ;
#120 = DIRECTION ( 'NONE',  ( 1.000000000000000000, 0.000000000000000000, 0.000000000000000000 ) ) ;
#121 = DIRECTION ( 'NONE',  ( 1.000000000000000000, 0.000000000000000000, 0.000000000000000000 ) ) ;
#122 = DIRECTION ( 'NONE',  ( -0.000000000000000000, -0.000000000000000000, -1.000000000000000000 ) ) ;
#123 = EDGE_CURVE ( 'NONE', #17, #337, #19, .T. ) ;
#124 = CIRCLE ( 'NONE', #371, 9.000000000000001776 ) ;
#125 = EDGE_CURVE ( 'NONE', #272, #222, #85, .T. ) ;
#126 = ORIENTED_EDGE ( 'NONE', *, *, #91, .F. ) ;
#127 = ADVANCED_FACE ( 'NONE', ( #381 ), #101, .F. ) ;
#128 = ORIENTED_EDGE ( 'NONE', *, *, #125, .F. ) ;
#129 = VERTEX_POINT ( 'NONE', #194 ) ;
#130 = ORIENTED_EDGE ( 'NONE', *, *, #109, .T. ) ;
#131 = EDGE_CURVE ( 'NONE', #272, #145, #290, .T. ) ;
#132 = ADVANCED_FACE ( 'NONE', ( #414 ), #118, .T. ) ;
#133 = SURFACE_SIDE_STYLE ('',( #98 ) ) ;
#134 = LINE ( 'NONE', #311, #262 ) ;
#135 = ORIENTED_EDGE ( 'NONE', *, *, #236, .T. ) ;
#136 = CIRCLE ( 'NONE', #77, 12.50000000000001066 ) ;
#137 = DIRECTION ( 'NONE',  ( 0.000000000000000000, 0.000000000000000000, 1.000000000000000000 ) ) ;
#138 = ORIENTED_EDGE ( 'NONE', *, *, #199, .T. ) ;
#139 = CIRCLE ( 'NONE', #201, 13.00000000000000178 ) ;
#140 = ADVANCED_FACE ( 'NONE', ( #227 ), #162, .F. ) ;
#141 = DIRECTION ( 'NONE',  ( -1.000000000000000000, 0.000000000000000000, 0.000000000000000000 ) ) ;
#142 = CYLINDRICAL_SURFACE ( 'NONE', #256, 8.500000000000001776 ) ;
#143 = DIRECTION ( 'NONE',  ( 1.000000000000000000, 0.000000000000000000, -0.000000000000000000 ) ) ;
#144 = ADVANCED_FACE ( 'NONE', ( #411 ), #56, .T. ) ;
#145 = VERTEX_POINT ( 'NONE', #260 ) ;
#146 = CARTESIAN_POINT ( 'NONE',  ( -8.500000000000001776, 1.040949779275250337E-15, 4.500000000000000000 ) ) ;
#147 = DIRECTION ( 'NONE',  ( 0.000000000000000000, 0.000000000000000000, -1.000000000000000000 ) ) ;
#148 = APPLICATION_CONTEXT ( 'automotive_design' ) ;
#149 = CARTESIAN_POINT ( 'NONE',  ( 0.000000000000000000, 0.000000000000000000, 0.000000000000000000 ) ) ;
#150 = AXIS2_PLACEMENT_3D ( 'NONE', #198, #361, #237 ) ;
#151 = PRODUCT ( '17x26t5', '17x26t5', '', ( #61 ) ) ;
#152 = PRODUCT_DEFINITION_FORMATION_WITH_SPECIFIED_SOURCE ( 'ÈÎºÎ', '', #151, .NOT_KNOWN. ) ;
#153 = FACE_OUTER_BOUND ( 'NONE', #365, .T. ) ;
#154 = DIRECTION ( 'NONE',  ( -1.000000000000000000, 0.000000000000000000, 0.000000000000000000 ) ) ;
#155 = ORIENTED_EDGE ( 'NONE', *, *, #384, .F. ) ;
#156 = CARTESIAN_POINT ( 'NONE',  ( 0.000000000000000000, 0.000000000000000000, 0.000000000000000000 ) ) ;
#157 = DIRECTION ( 'NONE',  ( -0.000000000000000000, -0.000000000000000000, -1.000000000000000000 ) ) ;
#158 = CARTESIAN_POINT ( 'NONE',  ( 0.000000000000000000, 0.000000000000000000, 4.500000000000000000 ) ) ;
#159 = SURFACE_SIDE_STYLE ('',( #25 ) ) ;
#160 = AXIS2_PLACEMENT_3D ( 'NONE', #158, #321, #24 ) ;
#161 = CARTESIAN_POINT ( 'NONE',  ( 9.000000000000001776, 1.102182119232617911E-15, 0.000000000000000000 ) ) ;
#162 = CYLINDRICAL_SURFACE ( 'NONE', #87, 8.500000000000001776 ) ;
#163 = PRODUCT_RELATED_PRODUCT_CATEGORY ( 'part', '', ( #151 ) ) ;
#164 = ADVANCED_BREP_SHAPE_REPRESENTATION ( '17x26t5', ( #115, #338 ), #400 ) ;
#165 = VECTOR ( 'NONE', #183, 1000.000000000000000 ) ;
#166 = CONICAL_SURFACE ( 'NONE', #356, 13.00000000000000178, 0.7853981633974500554 ) ;
#167 = AXIS2_PLACEMENT_3D ( 'NONE', #196, #147, #325 ) ;
#168 = AXIS2_PLACEMENT_3D ( 'NONE', #367, #4, #296 ) ;
#169 = EDGE_LOOP ( 'NONE', ( #235, #102 ) ) ;
#170 = EDGE_LOOP ( 'NONE', ( #318, #270, #5, #301 ) ) ;
#171 = ORIENTED_EDGE ( 'NONE', *, *, #199, .F. ) ;
#172 = DIRECTION ( 'NONE',  ( 1.000000000000000000, 0.000000000000000000, 0.000000000000000000 ) ) ;
#173 = EDGE_LOOP ( 'NONE', ( #180, #7, #266, #99 ) ) ;
#174 = APPLICATION_CONTEXT ( 'automotive_design' ) ;
#175 = CARTESIAN_POINT ( 'NONE',  ( -9.000000000000007105, 1.102182119232618700E-15, 5.000000000000000000 ) ) ;
#176 = EDGE_CURVE ( 'NONE', #222, #208, #323, .T. ) ;
#177 = ORIENTED_EDGE ( 'NONE', *, *, #249, .T. ) ;
#178 =( LENGTH_UNIT ( ) NAMED_UNIT ( * ) SI_UNIT ( .MILLI., .METRE. ) );
#179 = CARTESIAN_POINT ( 'NONE',  ( 12.50000000000001066, 1.530808498934192902E-15, 5.000000000000000000 ) ) ;
#180 = ORIENTED_EDGE ( 'NONE', *, *, #326, .F. ) ;
#181 = VECTOR ( 'NONE', #408, 1000.000000000000000 ) ;
#182 = CARTESIAN_POINT ( 'NONE',  ( 0.000000000000000000, 0.000000000000000000, 0.000000000000000000 ) ) ;
#183 = DIRECTION ( 'NONE',  ( -0.000000000000000000, -0.000000000000000000, -1.000000000000000000 ) ) ;
#184 = AXIS2_PLACEMENT_3D ( 'NONE', #223, #116, #60 ) ;
#185 = EDGE_CURVE ( 'NONE', #67, #406, #16, .T. ) ;
#186 = DIRECTION ( 'NONE',  ( -0.000000000000000000, -0.000000000000000000, -1.000000000000000000 ) ) ;
#187 = DIRECTION ( 'NONE',  ( -0.000000000000000000, -0.000000000000000000, -1.000000000000000000 ) ) ;
#188 = CARTESIAN_POINT ( 'NONE',  ( 13.00000000000000178, 1.592040838891559293E-15, 5.000000000000000000 ) ) ;
#189 = FILL_AREA_STYLE_COLOUR ( '', #84 ) ;
#190 = CARTESIAN_POINT ( 'NONE',  ( -8.500000000000001776, 0.000000000000000000, 5.000000000000000000 ) ) ;
#191 = DIRECTION ( 'NONE',  ( -0.000000000000000000, -0.000000000000000000, -1.000000000000000000 ) ) ;
#192 = EDGE_CURVE ( 'NONE', #3, #129, #139, .T. ) ;
#193 = DIRECTION ( 'NONE',  ( 1.000000000000000000, 0.000000000000000000, 0.000000000000000000 ) ) ;
#194 = CARTESIAN_POINT ( 'NONE',  ( 13.00000000000000178, 1.592040838891559293E-15, 0.5000000000000056621 ) ) ;
#195 = COLOUR_RGB ( '',0.5215686274509804266, 0.2431372549019607809, 0.9137254901960784048 ) ;
#196 = CARTESIAN_POINT ( 'NONE',  ( 0.000000000000000000, 0.000000000000000000, 5.000000000000000000 ) ) ;
#197 = APPLICATION_PROTOCOL_DEFINITION ( 'draft international standard', 'automotive_design', 1998, #148 ) ;
#198 = CARTESIAN_POINT ( 'NONE',  ( 0.000000000000000000, 0.000000000000000000, 4.500000000000003553 ) ) ;
#199 = EDGE_CURVE ( 'NONE', #129, #3, #233, .T. ) ;
#200 = MECHANICAL_DESIGN_GEOMETRIC_PRESENTATION_REPRESENTATION (  '', ( #307 ), #32 ) ;
#201 = AXIS2_PLACEMENT_3D ( 'NONE', #89, #294, #390 ) ;
#202 = CONICAL_SURFACE ( 'NONE', #168, 8.500000000000001776, 0.7853981633974536081 ) ;
#203 = ORIENTED_EDGE ( 'NONE', *, *, #125, .T. ) ;
#204 = CARTESIAN_POINT ( 'NONE',  ( 0.000000000000000000, 0.000000000000000000, 4.500000000000003553 ) ) ;
#205 = ORIENTED_EDGE ( 'NONE', *, *, #207, .F. ) ;
#206 = ADVANCED_FACE ( 'NONE', ( #64 ), #103, .T. ) ;
#207 = EDGE_CURVE ( 'NONE', #272, #17, #276, .T. ) ;
#208 = VERTEX_POINT ( 'NONE', #250 ) ;
#209 = DIRECTION ( 'NONE',  ( 1.000000000000000000, 0.000000000000000000, 0.000000000000000000 ) ) ;
#210 = ORIENTED_EDGE ( 'NONE', *, *, #265, .F. ) ;
#211 = DIRECTION ( 'NONE',  ( 0.000000000000000000, 0.000000000000000000, 1.000000000000000000 ) ) ;
#212 = VERTEX_POINT ( 'NONE', #113 ) ;
#213 = CARTESIAN_POINT ( 'NONE',  ( 0.000000000000000000, 0.000000000000000000, 0.000000000000000000 ) ) ;
#214 = LINE ( 'NONE', #248, #295 ) ;
#215 = VECTOR ( 'NONE', #20, 1000.000000000000000 ) ;
#216 = EDGE_CURVE ( 'NONE', #17, #366, #54, .T. ) ;
#217 = CARTESIAN_POINT ( 'NONE',  ( 0.000000000000000000, 0.000000000000000000, 0.5000000000000038858 ) ) ;
#218 = DIRECTION ( 'NONE',  ( 1.000000000000000000, 0.000000000000000000, 0.000000000000000000 ) ) ;
#219 = DIRECTION ( 'NONE',  ( 1.000000000000000000, 0.000000000000000000, 0.000000000000000000 ) ) ;
#220 = CARTESIAN_POINT ( 'NONE',  ( -8.500000000000001776, 0.000000000000000000, 4.500000000000000000 ) ) ;
#221 = DIRECTION ( 'NONE',  ( 1.000000000000000000, 0.000000000000000000, 0.000000000000000000 ) ) ;
#222 = VERTEX_POINT ( 'NONE', #286 ) ;
#223 = CARTESIAN_POINT ( 'NONE',  ( 0.000000000000000000, 0.000000000000000000, 0.5000000000000056621 ) ) ;
#224 = CONICAL_SURFACE ( 'NONE', #239, 9.000000000000001776, 0.7853981633974431720 ) ;
#225 = ORIENTED_EDGE ( 'NONE', *, *, #265, .T. ) ;
#226 = DIRECTION ( 'NONE',  ( 1.000000000000000000, 0.000000000000000000, 0.000000000000000000 ) ) ;
#227 = FACE_OUTER_BOUND ( 'NONE', #93, .T. ) ;
#228 = CIRCLE ( 'NONE', #34, 12.49999999999999289 ) ;
#229 = ADVANCED_FACE ( 'NONE', ( #383 ), #202, .F. ) ;
#230 = DIRECTION ( 'NONE',  ( -0.000000000000000000, -0.000000000000000000, 1.000000000000000000 ) ) ;
#231 = AXIS2_PLACEMENT_3D ( 'NONE', #111, #191, #193 ) ;
#232 = ORIENTED_EDGE ( 'NONE', *, *, #293, .T. ) ;
#233 = CIRCLE ( 'NONE', #95, 13.00000000000000178 ) ;
#234 = ORIENTED_EDGE ( 'NONE', *, *, #72, .F. ) ;
#235 = ORIENTED_EDGE ( 'NONE', *, *, #52, .T. ) ;
#236 = EDGE_CURVE ( 'NONE', #263, #212, #243, .T. ) ;
#237 = DIRECTION ( 'NONE',  ( 1.000000000000000000, 0.000000000000000000, 0.000000000000000000 ) ) ;
#238 = ORIENTED_EDGE ( 'NONE', *, *, #176, .T. ) ;
#239 = AXIS2_PLACEMENT_3D ( 'NONE', #156, #313, #404 ) ;
#240 = FACE_OUTER_BOUND ( 'NONE', #68, .T. ) ;
#241 = CIRCLE ( 'NONE', #39, 9.000000000000007105 ) ;
#242 = VERTEX_POINT ( 'NONE', #92 ) ;
#243 = CIRCLE ( 'NONE', #58, 13.00000000000000178 ) ;
#244 = ORIENTED_EDGE ( 'NONE', *, *, #384, .T. ) ;
#245 = DIRECTION ( 'NONE',  ( 1.000000000000000000, 0.000000000000000000, 0.000000000000000000 ) ) ;
#246 = ORIENTED_EDGE ( 'NONE', *, *, #176, .F. ) ;
#247 = CYLINDRICAL_SURFACE ( 'NONE', #74, 13.00000000000000178 ) ;
#248 = CARTESIAN_POINT ( 'NONE',  ( -9.000000000000001776, 0.000000000000000000, 0.000000000000000000 ) ) ;
#249 = EDGE_CURVE ( 'NONE', #267, #242, #228, .T. ) ;
#250 = CARTESIAN_POINT ( 'NONE',  ( 9.000000000000001776, 1.102182119232617911E-15, 0.000000000000000000 ) ) ;
#251 = ORIENTED_EDGE ( 'NONE', *, *, #131, .F. ) ;
#252 = FACE_OUTER_BOUND ( 'NONE', #38, .T. ) ;
#253 = CARTESIAN_POINT ( 'NONE',  ( 0.000000000000000000, 0.000000000000000000, 5.000000000000000000 ) ) ;
#254 = EDGE_CURVE ( 'NONE', #212, #263, #354, .T. ) ;
#255 = DIRECTION ( 'NONE',  ( 1.000000000000000000, 0.000000000000000000, -0.000000000000000000 ) ) ;
#256 = AXIS2_PLACEMENT_3D ( 'NONE', #285, #388, #119 ) ;
#257 = SURFACE_STYLE_USAGE ( .BOTH. , #159 ) ;
#258 = CARTESIAN_POINT ( 'NONE',  ( 8.500000000000001776, 1.040949779275250337E-15, 5.000000000000000000 ) ) ;
#259 = PRODUCT_DEFINITION_SHAPE ( 'NONE', 'NONE',  #2 ) ;
#260 = CARTESIAN_POINT ( 'NONE',  ( 9.000000000000007105, 0.000000000000000000, 5.000000000000000000 ) ) ;
#261 = SHAPE_DEFINITION_REPRESENTATION ( #259, #164 ) ;
#262 = VECTOR ( 'NONE', #107, 1000.000000000000000 ) ;
#263 = VERTEX_POINT ( 'NONE', #302 ) ;
#264 = PRESENTATION_LAYER_ASSIGNMENT (  '', '', ( #307 ) ) ;
#265 = EDGE_CURVE ( 'NONE', #375, #208, #124, .T. ) ;
#266 = ORIENTED_EDGE ( 'NONE', *, *, #65, .T. ) ;
#267 = VERTEX_POINT ( 'NONE', #369 ) ;
#268 = PRESENTATION_STYLE_ASSIGNMENT (( #305 ) ) ;
#269 = CARTESIAN_POINT ( 'NONE',  ( 0.000000000000000000, 0.000000000000000000, 0.5000000000000056621 ) ) ;
#270 = ORIENTED_EDGE ( 'NONE', *, *, #52, .F. ) ;
#271 = DIRECTION ( 'NONE',  ( -0.000000000000000000, -0.000000000000000000, -1.000000000000000000 ) ) ;
#272 = VERTEX_POINT ( 'NONE', #314 ) ;
#273 =( NAMED_UNIT ( * ) PLANE_ANGLE_UNIT ( ) SI_UNIT ( $, .RADIAN. ) );
#274 = STYLED_ITEM ( 'NONE', ( #268 ), #164 ) ;
#275 = ORIENTED_EDGE ( 'NONE', *, *, #72, .T. ) ;
#276 = CIRCLE ( 'NONE', #88, 8.500000000000001776 ) ;
#277 = CARTESIAN_POINT ( 'NONE',  ( -12.50000000000001066, 0.000000000000000000, 5.000000000000000000 ) ) ;
#278 = CYLINDRICAL_SURFACE ( 'NONE', #348, 13.00000000000000178 ) ;
#279 = DIRECTION ( 'NONE',  ( -0.000000000000000000, -0.000000000000000000, -1.000000000000000000 ) ) ;
#280 = ORIENTED_EDGE ( 'NONE', *, *, #27, .F. ) ;
#281 = EDGE_CURVE ( 'NONE', #208, #375, #315, .T. ) ;
#282 = ADVANCED_FACE ( 'NONE', ( #240 ), #247, .T. ) ;
#283 = CARTESIAN_POINT ( 'NONE',  ( 0.000000000000000000, 0.000000000000000000, 4.500000000000000000 ) ) ;
#284 = LINE ( 'NONE', #13, #181 ) ;
#285 = CARTESIAN_POINT ( 'NONE',  ( 0.000000000000000000, 0.000000000000000000, 5.000000000000000000 ) ) ;
#286 = CARTESIAN_POINT ( 'NONE',  ( 8.500000000000001776, 1.040949779275250337E-15, 0.5000000000000038858 ) ) ;
#287 = LINE ( 'NONE', #83, #215 ) ;
#288 = DIRECTION ( 'NONE',  ( -0.7071067811865512365, 8.659560562354979697E-17, 0.7071067811865439090 ) ) ;
#289 =( LENGTH_UNIT ( ) NAMED_UNIT ( * ) SI_UNIT ( .MILLI., .METRE. ) );
#290 = LINE ( 'NONE', #353, #12 ) ;
#291 = CIRCLE ( 'NONE', #362, 8.500000000000001776 ) ;
#292 = PRESENTATION_STYLE_ASSIGNMENT (( #257 ) ) ;
#293 = EDGE_CURVE ( 'NONE', #67, #263, #40, .T. ) ;
#294 = DIRECTION ( 'NONE',  ( -0.000000000000000000, -0.000000000000000000, 1.000000000000000000 ) ) ;
#295 = VECTOR ( 'NONE', #53, 1000.000000000000000 ) ;
#296 = DIRECTION ( 'NONE',  ( 1.000000000000000000, 0.000000000000000000, 0.000000000000000000 ) ) ;
#297 = VECTOR ( 'NONE', #288, 999.9999999999998863 ) ;
#298 = ORIENTED_EDGE ( 'NONE', *, *, #31, .F. ) ;
#299 = ORIENTED_EDGE ( 'NONE', *, *, #37, .F. ) ;
#300 = ORIENTED_EDGE ( 'NONE', *, *, #192, .T. ) ;
#301 = ORIENTED_EDGE ( 'NONE', *, *, #236, .F. ) ;
#302 = CARTESIAN_POINT ( 'NONE',  ( 13.00000000000000178, 1.592040838891559293E-15, 4.500000000000003553 ) ) ;
#303 = EDGE_LOOP ( 'NONE', ( #36, #232, #44, #299 ) ) ;
#304 = ADVANCED_FACE ( 'NONE', ( #309 ), #166, .T. ) ;
#305 = SURFACE_STYLE_USAGE ( .BOTH. , #133 ) ;
#306 = FACE_BOUND ( 'NONE', #81, .T. ) ;
#307 = STYLED_ITEM ( 'NONE', ( #292 ), #115 ) ;
#308 = DIRECTION ( 'NONE',  ( 0.000000000000000000, 0.000000000000000000, 1.000000000000000000 ) ) ;
#309 = FACE_OUTER_BOUND ( 'NONE', #173, .T. ) ;
#310 = ORIENTED_EDGE ( 'NONE', *, *, #373, .F. ) ;
#311 = CARTESIAN_POINT ( 'NONE',  ( -13.00000000000000178, 1.592040838891559293E-15, 0.5000000000000056621 ) ) ;
#312 = DIRECTION ( 'NONE',  ( -1.000000000000000000, 0.000000000000000000, 0.000000000000000000 ) ) ;
#313 = DIRECTION ( 'NONE',  ( -0.000000000000000000, -0.000000000000000000, -1.000000000000000000 ) ) ;
#314 = CARTESIAN_POINT ( 'NONE',  ( 8.500000000000001776, 1.040949779275250337E-15, 4.500000000000000000 ) ) ;
#315 = CIRCLE ( 'NONE', #30, 9.000000000000001776 ) ;
#316 = FACE_OUTER_BOUND ( 'NONE', #41, .T. ) ;
#317 = DIRECTION ( 'NONE',  ( -0.000000000000000000, -0.000000000000000000, -1.000000000000000000 ) ) ;
#318 = ORIENTED_EDGE ( 'NONE', *, *, #293, .F. ) ;
#319 = VECTOR ( 'NONE', #187, 1000.000000000000000 ) ;
#320 = CARTESIAN_POINT ( 'NONE',  ( 0.000000000000000000, 0.000000000000000000, 5.000000000000000000 ) ) ;
#321 = DIRECTION ( 'NONE',  ( 0.000000000000000000, 0.000000000000000000, 1.000000000000000000 ) ) ;
#322 = FILL_AREA_STYLE ('',( #189 ) ) ;
#323 = LINE ( 'NONE', #161, #332 ) ;
#324 = DIRECTION ( 'NONE',  ( -1.000000000000000000, 0.000000000000000000, 0.000000000000000000 ) ) ;
#325 = DIRECTION ( 'NONE',  ( -1.000000000000000000, 0.000000000000000000, 0.000000000000000000 ) ) ;
#326 = EDGE_CURVE ( 'NONE', #242, #3, #134, .T. ) ;
#327 = CARTESIAN_POINT ( 'NONE',  ( 0.000000000000000000, 0.000000000000000000, 0.000000000000000000 ) ) ;
#328 = ADVANCED_FACE ( 'NONE', ( #306, #372 ), #69, .F. ) ;
#329 = CONICAL_SURFACE ( 'NONE', #385, 9.000000000000001776, 0.7853981633974431720 ) ;
#330 = CARTESIAN_POINT ( 'NONE',  ( 0.000000000000000000, 0.000000000000000000, 0.000000000000000000 ) ) ;
#331 =( GEOMETRIC_REPRESENTATION_CONTEXT ( 3 ) GLOBAL_UNCERTAINTY_ASSIGNED_CONTEXT ( ( #80 ) ) GLOBAL_UNIT_ASSIGNED_CONTEXT ( ( #178, #397, #363 ) ) REPRESENTATION_CONTEXT ( 'NONE', 'WORKASPACE' ) );
#332 = VECTOR ( 'NONE', #22, 1000.000000000000000 ) ;
#333 = ORIENTED_EDGE ( 'NONE', *, *, #123, .F. ) ;
#334 = DIRECTION ( 'NONE',  ( -0.000000000000000000, -0.000000000000000000, -1.000000000000000000 ) ) ;
#335 = ORIENTED_EDGE ( 'NONE', *, *, #42, .T. ) ;
#336 = DIRECTION ( 'NONE',  ( 1.000000000000000000, 0.000000000000000000, 0.000000000000000000 ) ) ;
#337 = VERTEX_POINT ( 'NONE', #175 ) ;
#338 = AXIS2_PLACEMENT_3D ( 'NONE', #330, #33, #121 ) ;
#339 = CARTESIAN_POINT ( 'NONE',  ( 0.000000000000000000, 0.000000000000000000, 0.000000000000000000 ) ) ;
#340 =( LENGTH_UNIT ( ) NAMED_UNIT ( * ) SI_UNIT ( .MILLI., .METRE. ) );
#341 = ORIENTED_EDGE ( 'NONE', *, *, #65, .F. ) ;
#342 = CARTESIAN_POINT ( 'NONE',  ( 0.000000000000000000, 0.000000000000000000, 5.000000000000000000 ) ) ;
#343 = AXIS2_PLACEMENT_3D ( 'NONE', #114, #308, #255 ) ;
#344 = LINE ( 'NONE', #188, #165 ) ;
#345 = FACE_BOUND ( 'NONE', #73, .T. ) ;
#346 = DIRECTION ( 'NONE',  ( 1.000000000000000000, 0.000000000000000000, 0.000000000000000000 ) ) ;
#347 = ORIENTED_EDGE ( 'NONE', *, *, #216, .T. ) ;
#348 = AXIS2_PLACEMENT_3D ( 'NONE', #378, #76, #141 ) ;
#349 = DIRECTION ( 'NONE',  ( 0.000000000000000000, 0.000000000000000000, -1.000000000000000000 ) ) ;
#350 = CARTESIAN_POINT ( 'NONE',  ( 0.000000000000000000, 0.000000000000000000, 5.000000000000000000 ) ) ;
#351 = AXIS2_PLACEMENT_3D ( 'NONE', #389, #82, #221 ) ;
#352 =( NAMED_UNIT ( * ) PLANE_ANGLE_UNIT ( ) SI_UNIT ( $, .RADIAN. ) );
#353 = CARTESIAN_POINT ( 'NONE',  ( 8.500000000000001776, 0.000000000000000000, 4.500000000000000000 ) ) ;
#354 = CIRCLE ( 'NONE', #150, 13.00000000000000178 ) ;
#355 = CARTESIAN_POINT ( 'NONE',  ( 0.000000000000000000, 0.000000000000000000, 0.000000000000000000 ) ) ;
#356 = AXIS2_PLACEMENT_3D ( 'NONE', #269, #46, #219 ) ;
#357 = VECTOR ( 'NONE', #317, 1000.000000000000000 ) ;
#358 = DIRECTION ( 'NONE',  ( 0.7071067811865512365, 0.000000000000000000, 0.7071067811865439090 ) ) ;
#359 = DIRECTION ( 'NONE',  ( 1.000000000000000000, 0.000000000000000000, 0.000000000000000000 ) ) ;
#360 = AXIS2_PLACEMENT_3D ( 'NONE', #182, #137, #143 ) ;
#361 = DIRECTION ( 'NONE',  ( 0.000000000000000000, 0.000000000000000000, -1.000000000000000000 ) ) ;
#362 = AXIS2_PLACEMENT_3D ( 'NONE', #401, #403, #78 ) ;
#363 =( NAMED_UNIT ( * ) SI_UNIT ( $, .STERADIAN. ) SOLID_ANGLE_UNIT ( ) );
#364 = AXIS2_PLACEMENT_3D ( 'NONE', #320, #349, #324 ) ;
#365 = EDGE_LOOP ( 'NONE', ( #128, #10, #347, #335 ) ) ;
#366 = VERTEX_POINT ( 'NONE', #8 ) ;
#367 = CARTESIAN_POINT ( 'NONE',  ( 0.000000000000000000, 0.000000000000000000, 4.500000000000000000 ) ) ;
#368 = ORIENTED_EDGE ( 'NONE', *, *, #131, .T. ) ;
#369 = CARTESIAN_POINT ( 'NONE',  ( 12.49999999999999289, 0.000000000000000000, 0.000000000000000000 ) ) ;
#370 = ORIENTED_EDGE ( 'NONE', *, *, #109, .F. ) ;
#371 = AXIS2_PLACEMENT_3D ( 'NONE', #213, #43, #209 ) ;
#372 = FACE_OUTER_BOUND ( 'NONE', #399, .T. ) ;
#373 = EDGE_CURVE ( 'NONE', #145, #337, #241, .T. ) ;
#374 = ORIENTED_EDGE ( 'NONE', *, *, #123, .T. ) ;
#375 = VERTEX_POINT ( 'NONE', #100 ) ;
#376 = LINE ( 'NONE', #15, #319 ) ;
#377 = PRODUCT_DEFINITION_CONTEXT ( 'detailed design', #174, 'design' ) ;
#378 = CARTESIAN_POINT ( 'NONE',  ( 0.000000000000000000, 0.000000000000000000, 5.000000000000000000 ) ) ;
#379 = CARTESIAN_POINT ( 'NONE',  ( 0.000000000000000000, 0.000000000000000000, 5.000000000000000000 ) ) ;
#380 = CARTESIAN_POINT ( 'NONE',  ( -13.00000000000000178, 0.000000000000000000, 0.5000000000000056621 ) ) ;
#381 = FACE_OUTER_BOUND ( 'NONE', #106, .T. ) ;
#382 = EDGE_LOOP ( 'NONE', ( #333, #205, #368, #234 ) ) ;
#383 = FACE_OUTER_BOUND ( 'NONE', #382, .T. ) ;
#384 = EDGE_CURVE ( 'NONE', #222, #366, #28, .T. ) ;
#385 = AXIS2_PLACEMENT_3D ( 'NONE', #149, #186, #312 ) ;
#386 = CARTESIAN_POINT ( 'NONE',  ( 12.50000000000001066, 1.561424668912876097E-15, 5.000000000000000000 ) ) ;
#387 = VECTOR ( 'NONE', #157, 1000.000000000000000 ) ;
#388 = DIRECTION ( 'NONE',  ( -0.000000000000000000, -0.000000000000000000, -1.000000000000000000 ) ) ;
#389 = CARTESIAN_POINT ( 'NONE',  ( 0.000000000000000000, 0.000000000000000000, 4.500000000000000000 ) ) ;
#390 = DIRECTION ( 'NONE',  ( 1.000000000000000000, 0.000000000000000000, 0.000000000000000000 ) ) ;
#391 = DIRECTION ( 'NONE',  ( 0.000000000000000000, 0.000000000000000000, -1.000000000000000000 ) ) ;
#392 = ORIENTED_EDGE ( 'NONE', *, *, #27, .T. ) ;
#393 = CIRCLE ( 'NONE', #26, 12.49999999999999289 ) ;
#394 = EDGE_LOOP ( 'NONE', ( #104, #86, #138, #395 ) ) ;
#395 = ORIENTED_EDGE ( 'NONE', *, *, #402, .F. ) ;
#396 = ORIENTED_EDGE ( 'NONE', *, *, #42, .F. ) ;
#397 =( NAMED_UNIT ( * ) PLANE_ANGLE_UNIT ( ) SI_UNIT ( $, .RADIAN. ) );
#398 =( NAMED_UNIT ( * ) SI_UNIT ( $, .STERADIAN. ) SOLID_ANGLE_UNIT ( ) );
#399 = EDGE_LOOP ( 'NONE', ( #177, #130 ) ) ;
#400 =( GEOMETRIC_REPRESENTATION_CONTEXT ( 3 ) GLOBAL_UNCERTAINTY_ASSIGNED_CONTEXT ( ( #63 ) ) GLOBAL_UNIT_ASSIGNED_CONTEXT ( ( #340, #273, #398 ) ) REPRESENTATION_CONTEXT ( 'NONE', 'WORKASPACE' ) );
#401 = CARTESIAN_POINT ( 'NONE',  ( 0.000000000000000000, 0.000000000000000000, 0.5000000000000038858 ) ) ;
#402 = EDGE_CURVE ( 'NONE', #212, #3, #376, .T. ) ;
#403 = DIRECTION ( 'NONE',  ( -0.000000000000000000, -0.000000000000000000, -1.000000000000000000 ) ) ;
#404 = DIRECTION ( 'NONE',  ( -1.000000000000000000, 0.000000000000000000, 0.000000000000000000 ) ) ;
#405 = FILL_AREA_STYLE_COLOUR ( '', #195 ) ;
#406 = VERTEX_POINT ( 'NONE', #277 ) ;
#407 = DIRECTION ( 'NONE',  ( 0.000000000000000000, 0.000000000000000000, 1.000000000000000000 ) ) ;
#408 = DIRECTION ( 'NONE',  ( 0.7071067811865487940, 0.000000000000000000, 0.7071067811865463515 ) ) ;
#409 = CARTESIAN_POINT ( 'NONE',  ( 0.000000000000000000, 0.000000000000000000, 5.000000000000000000 ) ) ;
#410 = DIRECTION ( 'NONE',  ( 0.000000000000000000, 0.000000000000000000, 1.000000000000000000 ) ) ;
#411 = FACE_OUTER_BOUND ( 'NONE', #18, .T. ) ;
#412 = DIRECTION ( 'NONE',  ( 0.000000000000000000, 0.000000000000000000, 1.000000000000000000 ) ) ;
#413 = AXIS2_PLACEMENT_3D ( 'NONE', #253, #412, #120 ) ;
#414 = FACE_OUTER_BOUND ( 'NONE', #170, .T. ) ;
ENDSEC;
END-ISO-10303-21;
