ISO-10303-21;
HEADER;
FILE_DESCRIPTION (( 'STEP AP214' ),
    '1' );
FILE_NAME ('GB╱T 70.2-2015[内六角平圆头螺钉M4×30].step',
    '2023-08-15T02:54:07',
    ( '' ),
    ( '' ),
    'SwSTEP 2.0',
    'SolidWorks 2022',
    '' );
FILE_SCHEMA (( 'AUTOMOTIVE_DESIGN' ));
ENDSEC;

DATA;
#1 = CARTESIAN_POINT ( 'NONE',  ( -30.90000000000000213, 1.443375672974064328, -3.128943976826325424E-17 ) ) ;
#2 = CARTESIAN_POINT ( 'NONE',  ( -1031.829999999999927, -5.995863809075160294E-14, 0.000000000000000000 ) ) ;
#3 = AXIS2_PLACEMENT_3D ( 'NONE', #561, #57, #381 ) ;
#4 = DIRECTION ( 'NONE',  ( 5.691969551695385253E-17, -1.000000000000000000, 0.000000000000000000 ) ) ;
#5 = CARTESIAN_POINT ( 'NONE',  ( -30.00000000000000000, 0.000000000000000000, 0.000000000000000000 ) ) ;
#6 = EDGE_CURVE ( 'NONE', #633, #692, #402, .T. ) ;
#7 = LINE ( 'NONE', #331, #574 ) ;
#8 = ORIENTED_EDGE ( 'NONE', *, *, #537, .F. ) ;
#9 = CARTESIAN_POINT ( 'NONE',  ( -30.82715765887601478, -0.4880459183963074543, -1.250000000000000222 ) ) ;
#10 = CARTESIAN_POINT ( 'NONE',  ( -30.00000000000000000, 0.7216878364870321638, -1.250000000000000222 ) ) ;
#11 = EDGE_CURVE ( 'NONE', #243, #668, #200, .T. ) ;
#12 = VECTOR ( 'NONE', #509, 1000.000000000000000 ) ;
#13 = CARTESIAN_POINT ( 'NONE',  ( -32.20000000000000284, 0.000000000000000000, 0.000000000000000000 ) ) ;
#14 = PRESENTATION_LAYER_ASSIGNMENT (  '', '', ( #19 ) ) ;
#15 = CARTESIAN_POINT ( 'NONE',  ( -30.00000000000000000, -0.7216878364870332740, 1.249999999999999778 ) ) ;
#16 =( NAMED_UNIT ( * ) PLANE_ANGLE_UNIT ( ) SI_UNIT ( $, .RADIAN. ) );
#17 = ORIENTED_EDGE ( 'NONE', *, *, #459, .F. ) ;
#18 =( LENGTH_UNIT ( ) NAMED_UNIT ( * ) SI_UNIT ( .MILLI., .METRE. ) );
#19 = STYLED_ITEM ( 'NONE', ( #295 ), #608 ) ;
#20 = EDGE_LOOP ( 'NONE', ( #421, #645, #571, #618, #317, #105 ) ) ;
#21 = EDGE_CURVE ( 'NONE', #350, #357, #458, .T. ) ;
#22 = FACE_OUTER_BOUND ( 'NONE', #137, .T. ) ;
#23 = CIRCLE ( 'NONE', #110, 4.007472359323742239 ) ;
#24 = ORIENTED_EDGE ( 'NONE', *, *, #594, .F. ) ;
#25 = CARTESIAN_POINT ( 'NONE',  ( -30.90000000000000213, -1.443375672974065216, -5.870030462665943960E-16 ) ) ;
#27 = VERTEX_POINT ( 'NONE', #676 ) ;
#26 = AXIS2_PLACEMENT_3D ( 'NONE', #655, #135, #310 ) ;
#28 = B_SPLINE_CURVE_WITH_KNOTS ( 'NONE', 3,
 ( #166, #334, #338, #149, #445 ),
 .UNSPECIFIED., .F., .F.,
 ( 4, 1, 4 ),
 ( 2.309401076754733784E-07, 0.0007219187765947081325, 0.001443606613081740596 ),
 .UNSPECIFIED. ) ;
#29 = DIRECTION ( 'NONE',  ( -0.000000000000000000, 0.8660254037844387076, 0.4999999999999998335 ) ) ;
#30 = AXIS2_PLACEMENT_3D ( 'NONE', #415, #636, #465 ) ;
#31 = ORIENTED_EDGE ( 'NONE', *, *, #400, .F. ) ;
#32 = DIRECTION ( 'NONE',  ( 0.000000000000000000, 0.4999999999999998335, 0.8660254037844387076 ) ) ;
#33 = ADVANCED_FACE ( 'NONE', ( #278 ), #500, .F. ) ;
#34 = AXIS2_PLACEMENT_3D ( 'NONE', #55, #277, #452 ) ;
#35 = EDGE_LOOP ( 'NONE', ( #206, #95 ) ) ;
#36 =( NAMED_UNIT ( * ) SI_UNIT ( $, .STERADIAN. ) SOLID_ANGLE_UNIT ( ) );
#37 = FACE_OUTER_BOUND ( 'NONE', #121, .T. ) ;
#38 = ORIENTED_EDGE ( 'NONE', *, *, #678, .F. ) ;
#39 = CARTESIAN_POINT ( 'NONE',  ( -29.80000000000000071, 0.000000000000000000, 1.999999999999995781 ) ) ;
#40 = CARTESIAN_POINT ( 'NONE',  ( -30.00000000000000000, 0.7216878364870323859, 1.249999999999999778 ) ) ;
#41 = ORIENTED_EDGE ( 'NONE', *, *, #188, .T. ) ;
#42 = ADVANCED_FACE ( 'NONE', ( #218 ), #732, .T. ) ;
#43 = CARTESIAN_POINT ( 'NONE',  ( -30.00000000000000000, -3.800000000000000266, -4.653657836759942730E-16 ) ) ;
#44 = CARTESIAN_POINT ( 'NONE',  ( -32.20000000000000284, 0.000000000000000000, 0.000000000000000000 ) ) ;
#45 = DIRECTION ( 'NONE',  ( -1.000000000000000000, 0.000000000000000000, -0.000000000000000000 ) ) ;
#46 = CARTESIAN_POINT ( 'NONE',  ( -30.77964865737705935, -0.9585729505925318916, -0.8397029468125255525 ) ) ;
#47 = CARTESIAN_POINT ( 'NONE',  ( -30.00000000000000355, 0.000000000000000000, 0.000000000000000000 ) ) ;
#48 = AXIS2_PLACEMENT_3D ( 'NONE', #47, #726, #450 ) ;
#49 = ADVANCED_FACE ( 'NONE', ( #392 ), #475, .F. ) ;
#50 = DIRECTION ( 'NONE',  ( 0.000000000000000000, 0.000000000000000000, 1.000000000000000000 ) ) ;
#51 = CARTESIAN_POINT ( 'NONE',  ( -30.79105228766682956, 0.2457778558553065651, -1.250000000000000000 ) ) ;
#52 = EDGE_LOOP ( 'NONE', ( #614, #532 ) ) ;
#53 = CARTESIAN_POINT ( 'NONE',  ( -30.77942286340599765, -4.330215280939178002E-23, 1.249999999999999778 ) ) ;
#54 = PLANE ( 'NONE',  #124 ) ;
#55 = CARTESIAN_POINT ( 'NONE',  ( -28.72727272727272663, 0.000000000000000000, 0.000000000000000000 ) ) ;
#56 = ORIENTED_EDGE ( 'NONE', *, *, #683, .F. ) ;
#57 = DIRECTION ( 'NONE',  ( -1.000000000000000000, -0.000000000000000000, -0.000000000000000000 ) ) ;
#58 = CARTESIAN_POINT ( 'NONE',  ( -29.80000000000000071, 0.000000000000000000, 0.000000000000000000 ) ) ;
#59 = AXIS2_PLACEMENT_3D ( 'NONE', #13, #175, #62 ) ;
#60 = LINE ( 'NONE', #266, #595 ) ;
#61 = EDGE_CURVE ( 'NONE', #357, #360, #602, .T. ) ;
#62 = DIRECTION ( 'NONE',  ( 0.000000000000000000, 0.000000000000000000, 1.000000000000000000 ) ) ;
#63 = FACE_BOUND ( 'NONE', #85, .T. ) ;
#64 = ORIENTED_EDGE ( 'NONE', *, *, #305, .T. ) ;
#65 = AXIS2_PLACEMENT_3D ( 'NONE', #397, #104, #233 ) ;
#66 = DIRECTION ( 'NONE',  ( -1.000000000000000000, -0.000000000000000000, -0.000000000000000000 ) ) ;
#67 = ORIENTED_EDGE ( 'NONE', *, *, #723, .F. ) ;
#68 = UNCERTAINTY_MEASURE_WITH_UNIT (LENGTH_MEASURE( 1.000000000000000082E-05 ), #128, 'distance_accuracy_value', 'NONE');
#69 = SPHERICAL_SURFACE ( 'NONE', #30, 4.007472359323742239 ) ;
#70 = COLOUR_RGB ( '',0.7960784313725489669, 0.8235294117647058432, 0.9372549019607843146 ) ;
#71 = B_SPLINE_CURVE_WITH_KNOTS ( 'NONE', 3,
 ( #164, #396, #118, #572, #719, #300 ),
 .UNSPECIFIED., .F., .F.,
 ( 4, 2, 4 ),
 ( 0.001182686314803305669, 0.001908595411696186166, 0.002634504508589066447 ),
 .UNSPECIFIED. ) ;
#72 = ORIENTED_EDGE ( 'NONE', *, *, #248, .T. ) ;
#73 = EDGE_CURVE ( 'NONE', #194, #449, #635, .T. ) ;
#74 = CARTESIAN_POINT ( 'NONE',  ( -1031.829999999999927, -5.995863809075160294E-14, 0.000000000000000000 ) ) ;
#75 = AXIS2_PLACEMENT_3D ( 'NONE', #207, #545, #32 ) ;
#76 = CARTESIAN_POINT ( 'NONE',  ( -32.20000000000000284, -0.7216878364870326079, -1.249999999999999778 ) ) ;
#77 = LINE ( 'NONE', #10, #519 ) ;
#78 = APPLICATION_CONTEXT ( 'automotive_design' ) ;
#79 = EDGE_CURVE ( 'NONE', #716, #337, #351, .T. ) ;
#80 = B_SPLINE_CURVE_WITH_KNOTS ( 'NONE', 3,
 ( #591, #311, #96, #139, #653 ),
 .UNSPECIFIED., .F., .F.,
 ( 4, 1, 4 ),
 ( 2.309401076742092082E-07, 0.0007219187765947082409, 0.001443606613081742113 ),
 .UNSPECIFIED. ) ;
#81 = VERTEX_POINT ( 'NONE', #168 ) ;
#82 = DIRECTION ( 'NONE',  ( -1.000000000000000000, -0.000000000000000000, -0.000000000000000000 ) ) ;
#83 = CARTESIAN_POINT ( 'NONE',  ( -30.77942286340599765, 1.530808065902090522E-16, -1.250000000000000222 ) ) ;
#84 = EDGE_CURVE ( 'NONE', #151, #357, #216, .T. ) ;
#85 = EDGE_LOOP ( 'NONE', ( #72, #587 ) ) ;
#86 = SURFACE_SIDE_STYLE ('',( #600 ) ) ;
#87 = DIRECTION ( 'NONE',  ( -0.000000000000000000, 1.000000000000000000, 1.224646799147353207E-16 ) ) ;
#88 = ORIENTED_EDGE ( 'NONE', *, *, #284, .T. ) ;
#89 = DIRECTION ( 'NONE',  ( 0.000000000000000000, 0.000000000000000000, 1.000000000000000000 ) ) ;
#91 = ORIENTED_EDGE ( 'NONE', *, *, #21, .T. ) ;
#90 = MECHANICAL_DESIGN_GEOMETRIC_PRESENTATION_REPRESENTATION (  '', ( #728 ), #152 ) ;
#92 = ADVANCED_FACE ( 'NONE', ( #440 ), #384, .F. ) ;
#93 = SPHERICAL_SURFACE ( 'NONE', #540, 4.007472359323742239 ) ;
#94 = AXIS2_PLACEMENT_3D ( 'NONE', #125, #564, #283 ) ;
#95 = ORIENTED_EDGE ( 'NONE', *, *, #528, .T. ) ;
#96 = CARTESIAN_POINT ( 'NONE',  ( -32.13169213213475217, -1.082531754730549078, 0.6249999999999993339 ) ) ;
#97 = CIRCLE ( 'NONE', #48, 2.199999999999997069 ) ;
#98 = ORIENTED_EDGE ( 'NONE', *, *, #683, .T. ) ;
#99 = SURFACE_STYLE_USAGE ( .BOTH. , #280 ) ;
#100 = DIRECTION ( 'NONE',  ( 0.000000000000000000, 0.000000000000000000, 1.000000000000000000 ) ) ;
#101 = ADVANCED_FACE ( 'NONE', ( #627, #624 ), #54, .F. ) ;
#102 = CARTESIAN_POINT ( 'NONE',  ( -30.90000000000000213, 0.7216878364870323859, 1.249999999999999778 ) ) ;
#103 = CARTESIAN_POINT ( 'NONE',  ( -30.90000000000000213, -0.7216878364870332740, 1.249999999999999778 ) ) ;
#104 = DIRECTION ( 'NONE',  ( -1.000000000000000000, -0.000000000000000000, -0.000000000000000000 ) ) ;
#105 = ORIENTED_EDGE ( 'NONE', *, *, #320, .T. ) ;
#106 = CARTESIAN_POINT ( 'NONE',  ( -30.00000000000000355, 0.000000000000000000, 0.000000000000000000 ) ) ;
#107 = CARTESIAN_POINT ( 'NONE',  ( -28.72727272727272663, 0.000000000000000000, 0.000000000000000000 ) ) ;
#108 = ORIENTED_EDGE ( 'NONE', *, *, #220, .T. ) ;
#109 = LINE ( 'NONE', #566, #722 ) ;
#110 = AXIS2_PLACEMENT_3D ( 'NONE', #107, #271, #501 ) ;
#111 = SURFACE_STYLE_FILL_AREA ( #393 ) ;
#112 = ORIENTED_EDGE ( 'NONE', *, *, #699, .T. ) ;
#113 = SURFACE_STYLE_FILL_AREA ( #261 ) ;
#114 = EDGE_CURVE ( 'NONE', #542, #439, #71, .T. ) ;
#115 = DIRECTION ( 'NONE',  ( -1.000000000000000000, -0.000000000000000000, -0.000000000000000000 ) ) ;
#116 = CARTESIAN_POINT ( 'NONE',  ( -30.00000000000000000, -0.7216878364870328300, -1.250000000000000222 ) ) ;
#117 = CARTESIAN_POINT ( 'NONE',  ( -30.90000000000000213, 1.767625397874844201E-16, -1.443375672974064106 ) ) ;
#118 = CARTESIAN_POINT ( 'NONE',  ( -32.15037000055572491, -0.2394511050528690954, -1.250000000000000222 ) ) ;
#119 = TOROIDAL_SURFACE ( 'NONE', #279, 2.199999999999997069, 0.2000000000000013989 ) ;
#120 = FACE_OUTER_BOUND ( 'NONE', #314, .T. ) ;
#121 = EDGE_LOOP ( 'NONE', ( #251, #599, #353, #201 ) ) ;
#122 = MECHANICAL_DESIGN_GEOMETRIC_PRESENTATION_REPRESENTATION (  '', ( #319 ), #368 ) ;
#123 = DIRECTION ( 'NONE',  ( -1.000000000000000000, -0.000000000000000000, -0.000000000000000000 ) ) ;
#124 = AXIS2_PLACEMENT_3D ( 'NONE', #44, #276, #731 ) ;
#125 = CARTESIAN_POINT ( 'NONE',  ( -32.20000000000000284, 2.219290746934188868E-17, -3.599228117386017840E-16 ) ) ;
#126 = FACE_OUTER_BOUND ( 'NONE', #686, .T. ) ;
#127 = CIRCLE ( 'NONE', #671, 0.2000000000000013989 ) ;
#128 =( LENGTH_UNIT ( ) NAMED_UNIT ( * ) SI_UNIT ( .MILLI., .METRE. ) );
#129 = ORIENTED_EDGE ( 'NONE', *, *, #362, .F. ) ;
#130 = ADVANCED_FACE ( 'Bface2', ( #543 ), #705, .T. ) ;
#131 = ORIENTED_EDGE ( 'NONE', *, *, #678, .T. ) ;
#132 = CARTESIAN_POINT ( 'NONE',  ( -32.16916666666573832, 0.8419691425682045427, 1.041666666666666741 ) ) ;
#133 =( NAMED_UNIT ( * ) SI_UNIT ( $, .STERADIAN. ) SOLID_ANGLE_UNIT ( ) );
#134 = VERTEX_POINT ( 'NONE', #141 ) ;
#135 = DIRECTION ( 'NONE',  ( 0.000000000000000000, -1.000000000000000000, 0.000000000000000000 ) ) ;
#136 = LINE ( 'NONE', #307, #453 ) ;
#137 = EDGE_LOOP ( 'NONE', ( #192, #204, #234, #695 ) ) ;
#138 = EDGE_CURVE ( 'NONE', #134, #210, #274, .T. ) ;
#139 = CARTESIAN_POINT ( 'NONE',  ( -32.16916666666573832, -1.323094366892894280, 0.2083333333333315940 ) ) ;
#140 = ORIENTED_EDGE ( 'NONE', *, *, #320, .F. ) ;
#141 = CARTESIAN_POINT ( 'NONE',  ( -30.00000000000000355, 0.000000000000000000, 2.199999999999997069 ) ) ;
#142 = CARTESIAN_POINT ( 'NONE',  ( -30.00000000000000000, -1.443375672974065216, -5.870030462665943960E-16 ) ) ;
#143 =( GEOMETRIC_REPRESENTATION_CONTEXT ( 3 ) GLOBAL_UNCERTAINTY_ASSIGNED_CONTEXT ( ( #679 ) ) GLOBAL_UNIT_ASSIGNED_CONTEXT ( ( #356, #16, #312 ) ) REPRESENTATION_CONTEXT ( 'NONE', 'WORKASPACE' ) );
#144 = CARTESIAN_POINT ( 'NONE',  ( -30.77919874466208938, -1.204657989547420760, -0.4134711563600916850 ) ) ;
#145 = DIRECTION ( 'NONE',  ( -1.000000000000000000, -0.000000000000000000, -0.000000000000000000 ) ) ;
#146 = ADVANCED_FACE ( 'Bface2', ( #202 ), #371, .T. ) ;
#147 = MECHANICAL_DESIGN_GEOMETRIC_PRESENTATION_REPRESENTATION (  '', ( #578 ), #496 ) ;
#148 = ORIENTED_EDGE ( 'NONE', *, *, #220, .F. ) ;
#149 = CARTESIAN_POINT ( 'NONE',  ( -32.16916666666573121, 1.323094366892892060, -0.2083333333333330095 ) ) ;
#150 = DIRECTION ( 'NONE',  ( 5.691969551695385253E-17, -1.000000000000000000, 0.000000000000000000 ) ) ;
#151 = VERTEX_POINT ( 'NONE', #661 ) ;
#152 =( GEOMETRIC_REPRESENTATION_CONTEXT ( 3 ) GLOBAL_UNCERTAINTY_ASSIGNED_CONTEXT ( ( #391 ) ) GLOBAL_UNIT_ASSIGNED_CONTEXT ( ( #534, #247, #36 ) ) REPRESENTATION_CONTEXT ( 'NONE', 'WORKASPACE' ) );
#153 = FACE_OUTER_BOUND ( 'NONE', #527, .T. ) ;
#154 = CARTESIAN_POINT ( 'NONE',  ( -1031.829999999999927, -5.995863809075160294E-14, 0.000000000000000000 ) ) ;
#155 = DIRECTION ( 'NONE',  ( 0.000000000000000000, 0.000000000000000000, -1.000000000000000000 ) ) ;
#156 = ORIENTED_EDGE ( 'NONE', *, *, #619, .T. ) ;
#157 = VECTOR ( 'NONE', #123, 1000.000000000000000 ) ;
#158 =( NAMED_UNIT ( * ) PLANE_ANGLE_UNIT ( ) SI_UNIT ( $, .RADIAN. ) );
#159 = B_SPLINE_CURVE_WITH_KNOTS ( 'NONE', 3,
 ( #103, #387, #674, #53 ),
 .UNSPECIFIED., .F., .F.,
 ( 4, 4 ),
 ( 0.001144596242895333299, 0.001876385854435923869 ),
 .UNSPECIFIED. ) ;
#160 = FILL_AREA_STYLE_COLOUR ( '', #641 ) ;
#161 = EDGE_LOOP ( 'NONE', ( #221, #704 ) ) ;
#162 = ADVANCED_FACE ( 'NONE', ( #153 ), #228, .F. ) ;
#163 = CARTESIAN_POINT ( 'NONE',  ( -30.82664516406750366, 0.8393307094615334307, -1.046236566859792605 ) ) ;
#164 = CARTESIAN_POINT ( 'NONE',  ( -32.20000000000000284, -0.7216878364870326079, -1.249999999999999778 ) ) ;
#165 = CARTESIAN_POINT ( 'NONE',  ( -30.00000000000000355, 2.694222958124173555E-16, -2.199999999999997069 ) ) ;
#166 = CARTESIAN_POINT ( 'NONE',  ( -32.20000000000000284, 0.7216878364870321638, -1.250000000000000222 ) ) ;
#167 = ORIENTED_EDGE ( 'NONE', *, *, #699, .F. ) ;
#168 = CARTESIAN_POINT ( 'NONE',  ( 0.000000000000000000, 0.000000000000000000, 1.393782217350892916 ) ) ;
#169 = CARTESIAN_POINT ( 'NONE',  ( -30.90000000000000213, 0.000000000000000000, 0.000000000000000000 ) ) ;
#170 = ORIENTED_EDGE ( 'NONE', *, *, #594, .T. ) ;
#171 = B_SPLINE_CURVE_WITH_KNOTS ( 'NONE', 3,
 ( #513, #214, #568, #51, #729, #231 ),
 .UNSPECIFIED., .F., .F.,
 ( 4, 2, 4 ),
 ( 0.003836159553464221945, 0.004202463752521881646, 0.004568767951579540479 ),
 .UNSPECIFIED. ) ;
#172 = CONICAL_SURFACE ( 'NONE', #505, 3901.015332362311256, 1.319856261027560818 ) ;
#173 = DIRECTION ( 'NONE',  ( -1.000000000000000000, -5.998083099822095465E-17, -0.000000000000000000 ) ) ;
#174 = EDGE_CURVE ( 'NONE', #439, #367, #28, .T. ) ;
#175 = DIRECTION ( 'NONE',  ( -1.000000000000000000, -0.000000000000000000, -0.000000000000000000 ) ) ;
#176 = ORIENTED_EDGE ( 'NONE', *, *, #419, .F. ) ;
#177 = AXIS2_PLACEMENT_3D ( 'NONE', #724, #66, #625 ) ;
#178 = EDGE_CURVE ( 'NONE', #243, #360, #109, .T. ) ;
#179 = DIRECTION ( 'NONE',  ( 0.000000000000000000, -0.8660254037844385966, -0.5000000000000003331 ) ) ;
#180 = AXIS2_PLACEMENT_3D ( 'NONE', #58, #224, #230 ) ;
#181 = UNCERTAINTY_MEASURE_WITH_UNIT (LENGTH_MEASURE( 1.000000000000000082E-05 ), #18, 'distance_accuracy_value', 'NONE');
#182 = CARTESIAN_POINT ( 'NONE',  ( -30.00000000000000000, -0.7216878364870328300, -1.250000000000000222 ) ) ;
#183 = PRESENTATION_LAYER_ASSIGNMENT (  '', '', ( #728 ) ) ;
#184 = DIRECTION ( 'NONE',  ( 5.691969551695385253E-17, -1.000000000000000000, 0.000000000000000000 ) ) ;
#185 = AXIS2_PLACEMENT_3D ( 'NONE', #672, #476, #472 ) ;
#186 = AXIS2_PLACEMENT_3D ( 'NONE', #154, #670, #4 ) ;
#187 = EDGE_LOOP ( 'NONE', ( #651, #631, #148, #17, #524, #394 ) ) ;
#188 = EDGE_CURVE ( 'NONE', #210, #642, #405, .T. ) ;
#189 = CIRCLE ( 'NONE', #177, 1.393782217350892916 ) ;
#190 = DIRECTION ( 'NONE',  ( 5.691969551695385253E-17, -1.000000000000000000, 0.000000000000000000 ) ) ;
#191 = PRODUCT_CONTEXT ( 'NONE', #613, 'mechanical' ) ;
#192 = ORIENTED_EDGE ( 'NONE', *, *, #328, .F. ) ;
#193 = DIRECTION ( 'NONE',  ( 0.000000000000000000, -0.4999999999999996669, -0.8660254037844388186 ) ) ;
#194 = VERTEX_POINT ( 'NONE', #43 ) ;
#195 = CARTESIAN_POINT ( 'NONE',  ( -32.20000000000000284, 0.000000000000000000, 0.000000000000000000 ) ) ;
#196 = CARTESIAN_POINT ( 'NONE',  ( -29.80000000000000071, 0.000000000000000000, 0.000000000000000000 ) ) ;
#197 = AXIS2_PLACEMENT_3D ( 'NONE', #643, #173, #190 ) ;
#198 = CARTESIAN_POINT ( 'NONE',  ( -32.20000000000000284, -0.7216878364870326079, -1.249999999999999778 ) ) ;
#199 = EDGE_CURVE ( 'NONE', #350, #27, #159, .T. ) ;
#200 = B_SPLINE_CURVE_WITH_KNOTS ( 'NONE', 3,
 ( #102, #268, #327, #555, #390, #1 ),
 .UNSPECIFIED., .F., .F.,
 ( 4, 2, 4 ),
 ( 2.391904125708790558E-07, 0.0007300545202770515303, 0.001459869850141532182 ),
 .UNSPECIFIED. ) ;
#201 = ORIENTED_EDGE ( 'NONE', *, *, #178, .T. ) ;
#202 = FACE_OUTER_BOUND ( 'NONE', #299, .T. ) ;
#203 = CARTESIAN_POINT ( 'NONE',  ( -32.20000000000000284, 1.443375672974064328, 6.505213034913026604E-16 ) ) ;
#204 = ORIENTED_EDGE ( 'NONE', *, *, #385, .T. ) ;
#205 = PLANE ( 'NONE',  #75 ) ;
#206 = ORIENTED_EDGE ( 'NONE', *, *, #114, .T. ) ;
#207 = CARTESIAN_POINT ( 'NONE',  ( -30.00000000000000000, 1.443375672974064328, -3.128943976826325424E-17 ) ) ;
#208 = B_SPLINE_CURVE_WITH_KNOTS ( 'NONE', 3,
 ( #535, #541, #436, #706, #369, #426 ),
 .UNSPECIFIED., .F., .F.,
 ( 4, 2, 4 ),
 ( 0.002974540139219449680, 0.003699310320131254329, 0.004424080501043058979 ),
 .UNSPECIFIED. ) ;
#209 = AXIS2_PLACEMENT_3D ( 'NONE', #355, #404, #688 ) ;
#210 = VERTEX_POINT ( 'NONE', #39 ) ;
#211 = PLANE ( 'NONE',  #468 ) ;
#212 = EDGE_CURVE ( 'NONE', #273, #134, #478, .T. ) ;
#213 = VERTEX_POINT ( 'NONE', #395 ) ;
#214 = CARTESIAN_POINT ( 'NONE',  ( -30.86374379380171362, 0.6053960008849368357, -1.250000000000000000 ) ) ;
#215 = ORIENTED_EDGE ( 'NONE', *, *, #199, .T. ) ;
#216 = CIRCLE ( 'NONE', #448, 1.443375672974064328 ) ;
#217 = CARTESIAN_POINT ( 'NONE',  ( -30.90000000000000213, 1.443375672974064328, -3.128943976826325424E-17 ) ) ;
#218 = FACE_OUTER_BOUND ( 'NONE', #264, .T. ) ;
#219 = CARTESIAN_POINT ( 'NONE',  ( -32.20000000000000284, -0.7216878364870312756, 1.250000000000000444 ) ) ;
#220 = EDGE_CURVE ( 'NONE', #367, #439, #544, .T. ) ;
#221 = ORIENTED_EDGE ( 'NONE', *, *, #305, .F. ) ;
#222 = VECTOR ( 'NONE', #226, 1000.000000000000000 ) ;
#223 = PRESENTATION_STYLE_ASSIGNMENT (( #99 ) ) ;
#224 = DIRECTION ( 'NONE',  ( -1.000000000000000000, -0.000000000000000000, -0.000000000000000000 ) ) ;
#225 = PRESENTATION_STYLE_ASSIGNMENT (( #733 ) ) ;
#226 = DIRECTION ( 'NONE',  ( -1.000000000000000000, -0.000000000000000000, -0.000000000000000000 ) ) ;
#227 = CARTESIAN_POINT ( 'NONE',  ( -30.00000000000000000, -0.7216878364870332740, 1.249999999999999778 ) ) ;
#228 = CONICAL_SURFACE ( 'NONE', #558, 3901.015332362311256, 1.319856261027560818 ) ;
#229 = DIRECTION ( 'NONE',  ( -1.000000000000000000, -0.000000000000000000, -0.000000000000000000 ) ) ;
#230 = DIRECTION ( 'NONE',  ( 0.000000000000000000, 0.000000000000000000, 1.000000000000000000 ) ) ;
#231 = CARTESIAN_POINT ( 'NONE',  ( -30.77942286340599765, 1.530808065902090522E-16, -1.250000000000000222 ) ) ;
#232 = EDGE_CURVE ( 'NONE', #668, #660, #345, .T. ) ;
#233 = DIRECTION ( 'NONE',  ( 0.000000000000000000, 0.000000000000000000, 1.000000000000000000 ) ) ;
#234 = ORIENTED_EDGE ( 'NONE', *, *, #562, .T. ) ;
#235 = LINE ( 'NONE', #182, #157 ) ;
#236 = AXIS2_PLACEMENT_3D ( 'NONE', #336, #447, #675 ) ;
#237 = DIRECTION ( 'NONE',  ( -1.000000000000000000, -0.000000000000000000, -0.000000000000000000 ) ) ;
#238 =( NAMED_UNIT ( * ) PLANE_ANGLE_UNIT ( ) SI_UNIT ( $, .RADIAN. ) );
#239 = SURFACE_STYLE_FILL_AREA ( #644 ) ;
#240 = ADVANCED_FACE ( 'Bface3', ( #717 ), #211, .F. ) ;
#241 = ORIENTED_EDGE ( 'NONE', *, *, #639, .F. ) ;
#242 = B_SPLINE_CURVE_WITH_KNOTS ( 'NONE', 3,
 ( #203, #376, #603, #132, #423 ),
 .UNSPECIFIED., .F., .F.,
 ( 4, 1, 4 ),
 ( 2.309401076761101354E-07, 0.0007219187765947079156, 0.001443606613081739728 ),
 .UNSPECIFIED. ) ;
#243 = VERTEX_POINT ( 'NONE', #556 ) ;
#244 = AXIS2_PLACEMENT_3D ( 'NONE', #554, #155, #45 ) ;
#245 = CARTESIAN_POINT ( 'NONE',  ( -0.3500000000000000333, 0.000000000000000000, 0.000000000000000000 ) ) ;
#246 = ORIENTED_EDGE ( 'NONE', *, *, #199, .F. ) ;
#247 =( NAMED_UNIT ( * ) PLANE_ANGLE_UNIT ( ) SI_UNIT ( $, .RADIAN. ) );
#248 = EDGE_CURVE ( 'NONE', #134, #273, #97, .T. ) ;
#249 = CARTESIAN_POINT ( 'NONE',  ( -29.80000000000000071, 2.694222958124173555E-16, -2.199999999999997069 ) ) ;
#250 = COLOUR_RGB ( '',0.7960784313725489669, 0.8235294117647058432, 0.9372549019607843146 ) ;
#251 = ORIENTED_EDGE ( 'NONE', *, *, #579, .F. ) ;
#252 = CARTESIAN_POINT ( 'NONE',  ( -30.77964865737705225, -1.206490558868566820, 0.4102970531874744475 ) ) ;
#253 = CONICAL_SURFACE ( 'NONE', #493, 1.443375672974064106, 1.013248818828627273 ) ;
#254 = SURFACE_STYLE_USAGE ( .BOTH. , #303 ) ;
#255 = EDGE_LOOP ( 'NONE', ( #539, #550, #444, #246, #91 ) ) ;
#256 = CARTESIAN_POINT ( 'NONE',  ( -30.82677104533571111, -1.325934682174327861, 0.2034137629563737282 ) ) ;
#257 = EDGE_LOOP ( 'NONE', ( #24, #424, #370, #711 ) ) ;
#258 = CARTESIAN_POINT ( 'NONE',  ( -30.77919874466208938, -0.9604055199136780629, 0.8365288436399083150 ) ) ;
#259 = CARTESIAN_POINT ( 'NONE',  ( -30.82677104533570400, -0.8391288272867705178, -1.046586237043626300 ) ) ;
#260 = EDGE_CURVE ( 'NONE', #324, #725, #398, .T. ) ;
#261 = FILL_AREA_STYLE ('',( #374 ) ) ;
#262 = DIRECTION ( 'NONE',  ( 1.000000000000000000, 0.000000000000000000, -0.000000000000000000 ) ) ;
#263 = AXIS2_PLACEMENT_3D ( 'NONE', #74, #352, #184 ) ;
#264 = EDGE_LOOP ( 'NONE', ( #529, #713, #176, #428 ) ) ;
#265 = CARTESIAN_POINT ( 'NONE',  ( -30.82677104533570400, 1.325934682174326973, -0.2034137629563742278 ) ) ;
#266 = CARTESIAN_POINT ( 'NONE',  ( -30.00000000000000000, 1.443375672974064328, -3.128943976826325424E-17 ) ) ;
#267 = CIRCLE ( 'NONE', #34, 4.007472359323742239 ) ;
#268 = CARTESIAN_POINT ( 'NONE',  ( -30.82677104533570400, 0.8391288272867697406, 1.046586237043625411 ) ) ;
#269 =( LENGTH_UNIT ( ) NAMED_UNIT ( * ) SI_UNIT ( .MILLI., .METRE. ) );
#270 = ADVANCED_FACE ( 'Bface1', ( #570, #63 ), #626, .F. ) ;
#271 = DIRECTION ( 'NONE',  ( 0.000000000000000000, 1.224646799147353207E-16, -1.000000000000000000 ) ) ;
#272 = VECTOR ( 'NONE', #508, 1000.000000000000000 ) ;
#273 = VERTEX_POINT ( 'NONE', #165 ) ;
#274 = CIRCLE ( 'NONE', #26, 0.2000000000000013989 ) ;
#275 = CARTESIAN_POINT ( 'NONE',  ( -30.77919874466208938, 0.9604055199136772858, -0.8365288436399078709 ) ) ;
#276 = DIRECTION ( 'NONE',  ( 1.000000000000000000, 0.000000000000000000, 0.000000000000000000 ) ) ;
#277 = DIRECTION ( 'NONE',  ( -0.000000000000000000, 0.000000000000000000, 1.000000000000000000 ) ) ;
#278 = FACE_OUTER_BOUND ( 'NONE', #698, .T. ) ;
#279 = AXIS2_PLACEMENT_3D ( 'NONE', #196, #145, #100 ) ;
#280 = SURFACE_SIDE_STYLE ('',( #113 ) ) ;
#281 = DIRECTION ( 'NONE',  ( 0.000000000000000000, 0.000000000000000000, 1.000000000000000000 ) ) ;
#282 = DIRECTION ( 'NONE',  ( -1.000000000000000000, -0.000000000000000000, -0.000000000000000000 ) ) ;
#283 = DIRECTION ( 'NONE',  ( 0.000000000000000000, 0.000000000000000000, -1.000000000000000000 ) ) ;
#284 = EDGE_CURVE ( 'NONE', #213, #486, #652, .T. ) ;
#285 = CARTESIAN_POINT ( 'NONE',  ( 0.000000000000000000, 2.078092264740989006E-16, -1.393782217350892916 ) ) ;
#286 = PRODUCT_RELATED_PRODUCT_CATEGORY ( 'part', '', ( #431 ) ) ;
#287 = CARTESIAN_POINT ( 'NONE',  ( -1031.829999999999927, -5.995863809075160294E-14, 0.000000000000000000 ) ) ;
#288 = DIRECTION ( 'NONE',  ( 0.000000000000000000, 1.000000000000000000, 0.000000000000000000 ) ) ;
#289 = ORIENTED_EDGE ( 'NONE', *, *, #506, .F. ) ;
#290 = VECTOR ( 'NONE', #479, 1000.000000000000114 ) ;
#291 = DIRECTION ( 'NONE',  ( -1.000000000000000000, -0.000000000000000000, -0.000000000000000000 ) ) ;
#292 = CARTESIAN_POINT ( 'NONE',  ( -0.3500000000000000333, 2.449293598294706907E-16, -2.000000000000000000 ) ) ;
#293 = FACE_OUTER_BOUND ( 'NONE', #255, .T. ) ;
#294 = EDGE_CURVE ( 'NONE', #81, #304, #189, .T. ) ;
#295 = PRESENTATION_STYLE_ASSIGNMENT (( #254 ) ) ;
#296 = AXIS2_PLACEMENT_3D ( 'NONE', #616, #325, #330 ) ;
#297 = EDGE_LOOP ( 'NONE', ( #241, #649, #589, #41 ) ) ;
#298 = DIRECTION ( 'NONE',  ( 5.691969551695385253E-17, -1.000000000000000000, 0.000000000000000000 ) ) ;
#299 = EDGE_LOOP ( 'NONE', ( #477, #131, #593, #129 ) ) ;
#300 = CARTESIAN_POINT ( 'NONE',  ( -32.20000000000000284, 0.7216878364870321638, -1.250000000000000222 ) ) ;
#301 = CARTESIAN_POINT ( 'NONE',  ( -30.90000000000000213, 0.000000000000000000, 1.443375672974064106 ) ) ;
#302 = AXIS2_PLACEMENT_3D ( 'NONE', #349, #358, #577 ) ;
#303 = SURFACE_SIDE_STYLE ('',( #239 ) ) ;
#304 = VERTEX_POINT ( 'NONE', #285 ) ;
#305 = EDGE_CURVE ( 'NONE', #449, #194, #697, .T. ) ;
#306 = VECTOR ( 'NONE', #342, 1000.000000000000114 ) ;
#307 = CARTESIAN_POINT ( 'NONE',  ( -0.3500000000000000333, 0.000000000000000000, 2.000000000000000000 ) ) ;
#308 = ORIENTED_EDGE ( 'NONE', *, *, #639, .T. ) ;
#309 = EDGE_CURVE ( 'NONE', #668, #367, #60, .T. ) ;
#310 = DIRECTION ( 'NONE',  ( 0.000000000000000000, 0.000000000000000000, -1.000000000000000000 ) ) ;
#311 = CARTESIAN_POINT ( 'NONE',  ( -32.16916666666573832, -0.8419691425682047647, 1.041666666666667407 ) ) ;
#312 =( NAMED_UNIT ( * ) SI_UNIT ( $, .STERADIAN. ) SOLID_ANGLE_UNIT ( ) );
#313 = AXIS2_PLACEMENT_3D ( 'NONE', #344, #557, #461 ) ;
#314 = EDGE_LOOP ( 'NONE', ( #474, #343, #98, #483, #156, #215 ) ) ;
#315 = CARTESIAN_POINT ( 'NONE',  ( -28.72727272727272663, 0.000000000000000000, 0.000000000000000000 ) ) ;
#316 = CIRCLE ( 'NONE', #94, 1.443375672974064106 ) ;
#317 = ORIENTED_EDGE ( 'NONE', *, *, #232, .T. ) ;
#318 = DIRECTION ( 'NONE',  ( 0.000000000000000000, -0.4999999999999998335, 0.8660254037844387076 ) ) ;
#319 = STYLED_ITEM ( 'NONE', ( #225 ), #414 ) ;
#320 = EDGE_CURVE ( 'NONE', #660, #725, #171, .T. ) ;
#321 = EDGE_LOOP ( 'NONE', ( #565, #289, #604, #488 ) ) ;
#322 = CARTESIAN_POINT ( 'NONE',  ( -30.77942286340600120, 0.1219527981751487578, 1.249999999999999778 ) ) ;
#323 = PRODUCT_DEFINITION_FORMATION_WITH_SPECIFIED_SOURCE ( '任何', '', #431, .NOT_KNOWN. ) ;
#324 = VERTEX_POINT ( 'NONE', #5 ) ;
#325 = DIRECTION ( 'NONE',  ( -1.000000000000000000, -0.000000000000000000, -0.000000000000000000 ) ) ;
#326 = DIRECTION ( 'NONE',  ( -1.000000000000000000, -0.000000000000000000, -0.000000000000000000 ) ) ;
#327 = CARTESIAN_POINT ( 'NONE',  ( -30.77964865737705935, 0.9585729505925310034, 0.8397029468125249974 ) ) ;
#328 = EDGE_CURVE ( 'NONE', #304, #716, #401, .T. ) ;
#329 =( NAMED_UNIT ( * ) SI_UNIT ( $, .STERADIAN. ) SOLID_ANGLE_UNIT ( ) );
#330 = DIRECTION ( 'NONE',  ( 0.000000000000000000, 1.776356839400250465E-15, -1.000000000000000000 ) ) ;
#331 = CARTESIAN_POINT ( 'NONE',  ( -30.00000000000000000, -1.443375672974065216, -5.870030462665943960E-16 ) ) ;
#332 = VECTOR ( 'NONE', #612, 1000.000000000000000 ) ;
#333 = ORIENTED_EDGE ( 'NONE', *, *, #400, .T. ) ;
#334 = CARTESIAN_POINT ( 'NONE',  ( -32.16916666666574542, 0.8419691425682045427, -1.041666666666667185 ) ) ;
#335 = CARTESIAN_POINT ( 'NONE',  ( -1031.829999999999927, -5.995863809075160294E-14, 0.000000000000000000 ) ) ;
#336 = CARTESIAN_POINT ( 'NONE',  ( -30.00000000000000000, 2.199999999999997069, 0.000000000000000000 ) ) ;
#337 = VERTEX_POINT ( 'NONE', #463 ) ;
#338 = CARTESIAN_POINT ( 'NONE',  ( -32.13169213213475217, 1.082531754730548190, -0.6249999999999998890 ) ) ;
#339 = DIRECTION ( 'NONE',  ( -1.000000000000000000, -0.000000000000000000, -0.000000000000000000 ) ) ;
#340 = CARTESIAN_POINT ( 'NONE',  ( -30.90000000000000213, -1.443375672974065216, -5.870030462665943960E-16 ) ) ;
#341 = COLOUR_RGB ( '',0.7960784313725489669, 0.8235294117647058432, 0.9372549019607843146 ) ;
#342 = DIRECTION ( 'NONE',  ( -0.5291067161269946695, 1.039180521791366210E-16, -0.8485552916276627444 ) ) ;
#343 = ORIENTED_EDGE ( 'NONE', *, *, #260, .T. ) ;
#344 = CARTESIAN_POINT ( 'NONE',  ( -30.00000000000000000, 0.000000000000000000, 0.000000000000000000 ) ) ;
#345 = B_SPLINE_CURVE_WITH_KNOTS ( 'NONE', 3,
 ( #217, #265, #499, #275, #163, #495 ),
 .UNSPECIFIED., .F., .F.,
 ( 4, 2, 4 ),
 ( 2.391904125709706413E-07, 0.0007300545202770510967, 0.001459869850141531098 ),
 .UNSPECIFIED. ) ;
#346 = FACE_OUTER_BOUND ( 'NONE', #654, .T. ) ;
#347 = EDGE_CURVE ( 'NONE', #692, #151, #7, .T. ) ;
#348 = CIRCLE ( 'NONE', #430, 1.393782217350892916 ) ;
#349 = CARTESIAN_POINT ( 'NONE',  ( -29.80000000000000071, 0.000000000000000000, 0.000000000000000000 ) ) ;
#350 = VERTEX_POINT ( 'NONE', #684 ) ;
#351 = CIRCLE ( 'NONE', #703, 2.000000000000000000 ) ;
#352 = DIRECTION ( 'NONE',  ( -1.000000000000000000, -5.998083099822095465E-17, -0.000000000000000000 ) ) ;
#353 = ORIENTED_EDGE ( 'NONE', *, *, #11, .F. ) ;
#354 = ADVANCED_FACE ( 'NONE', ( #120 ), #533, .F. ) ;
#355 = CARTESIAN_POINT ( 'NONE',  ( -32.20000000000000284, 2.219290746934188868E-17, -3.599228117386017840E-16 ) ) ;
#356 =( LENGTH_UNIT ( ) NAMED_UNIT ( * ) SI_UNIT ( .MILLI., .METRE. ) );
#357 = VERTEX_POINT ( 'NONE', #219 ) ;
#358 = DIRECTION ( 'NONE',  ( -1.000000000000000000, -0.000000000000000000, -0.000000000000000000 ) ) ;
#359 = SHAPE_DEFINITION_REPRESENTATION ( #708, #608 ) ;
#360 = VERTEX_POINT ( 'NONE', #383 ) ;
#361 = CARTESIAN_POINT ( 'NONE',  ( -30.90000000000000213, 0.000000000000000000, 0.000000000000000000 ) ) ;
#362 = EDGE_CURVE ( 'NONE', #337, #210, #462, .T. ) ;
#363 = ORIENTED_EDGE ( 'NONE', *, *, #61, .T. ) ;
#364 = FILL_AREA_STYLE ('',( #429 ) ) ;
#365 = CARTESIAN_POINT ( 'NONE',  ( -30.90000000000000213, -0.7216878364870328300, -1.250000000000000222 ) ) ;
#366 = CARTESIAN_POINT ( 'NONE',  ( 0.000000000000000000, 0.000000000000000000, 0.000000000000000000 ) ) ;
#367 = VERTEX_POINT ( 'NONE', #628 ) ;
#368 =( GEOMETRIC_REPRESENTATION_CONTEXT ( 3 ) GLOBAL_UNCERTAINTY_ASSIGNED_CONTEXT ( ( #181 ) ) GLOBAL_UNIT_ASSIGNED_CONTEXT ( ( #18, #238, #581 ) ) REPRESENTATION_CONTEXT ( 'NONE', 'WORKASPACE' ) );
#369 = CARTESIAN_POINT ( 'NONE',  ( -32.16921124011833655, -0.4814729877613845854, 1.249999999999999778 ) ) ;
#370 = ORIENTED_EDGE ( 'NONE', *, *, #619, .F. ) ;
#371 = CYLINDRICAL_SURFACE ( 'NONE', #510, 1.999999999999997780 ) ;
#372 = PLANE ( 'NONE',  #582 ) ;
#373 = ORIENTED_EDGE ( 'NONE', *, *, #629, .T. ) ;
#374 = FILL_AREA_STYLE_COLOUR ( '', #250 ) ;
#375 = ADVANCED_FACE ( 'NONE', ( #346 ), #573, .F. ) ;
#376 = CARTESIAN_POINT ( 'NONE',  ( -32.16916666666573832, 1.323094366892891838, 0.2083333333333336479 ) ) ;
#377 = CIRCLE ( 'NONE', #302, 1.999999999999995781 ) ;
#378 = CARTESIAN_POINT ( 'NONE',  ( -30.90000000000000213, -1.443375672974065216, -5.870030462665943960E-16 ) ) ;
#379 = DIRECTION ( 'NONE',  ( 0.000000000000000000, -1.224646799147352468E-16, 1.000000000000000000 ) ) ;
#380 = EDGE_LOOP ( 'NONE', ( #386, #547 ) ) ;
#381 = DIRECTION ( 'NONE',  ( 0.000000000000000000, 0.000000000000000000, 1.000000000000000000 ) ) ;
#382 = MECHANICAL_DESIGN_GEOMETRIC_PRESENTATION_REPRESENTATION (  '', ( #19 ), #410 ) ;
#383 = CARTESIAN_POINT ( 'NONE',  ( -32.20000000000000284, 0.7216878364870323859, 1.249999999999999778 ) ) ;
#384 = CONICAL_SURFACE ( 'NONE', #411, 3901.015332362311256, 1.319856261027560818 ) ;
#385 = EDGE_CURVE ( 'NONE', #304, #81, #348, .T. ) ;
#386 = ORIENTED_EDGE ( 'NONE', *, *, #294, .F. ) ;
#387 = CARTESIAN_POINT ( 'NONE',  ( -30.82715765887601478, -0.4880459183963075653, 1.249999999999999778 ) ) ;
#388 = CARTESIAN_POINT ( 'NONE',  ( 0.000000000000000000, 0.000000000000000000, 0.000000000000000000 ) ) ;
#389 = AXIS2_PLACEMENT_3D ( 'NONE', #142, #647, #193 ) ;
#390 = CARTESIAN_POINT ( 'NONE',  ( -30.82664516406750366, 1.325732799999563838, 0.2037634331402067567 ) ) ;
#391 = UNCERTAINTY_MEASURE_WITH_UNIT (LENGTH_MEASURE( 1.000000000000000082E-05 ), #534, 'distance_accuracy_value', 'NONE');
#392 = FACE_OUTER_BOUND ( 'NONE', #52, .T. ) ;
#393 = FILL_AREA_STYLE ('',( #160 ) ) ;
#394 = ORIENTED_EDGE ( 'NONE', *, *, #84, .F. ) ;
#395 = CARTESIAN_POINT ( 'NONE',  ( -32.20000000000000284, 1.999999999999998668, 0.000000000000000000 ) ) ;
#396 = CARTESIAN_POINT ( 'NONE',  ( -32.16921124011832944, -0.4814729877613876941, -1.250000000000000000 ) ) ;
#397 = CARTESIAN_POINT ( 'NONE',  ( -30.00000000000000000, 0.000000000000000000, 0.000000000000000000 ) ) ;
#398 = LINE ( 'NONE', #117, #306 ) ;
#399 = DIRECTION ( 'NONE',  ( 0.000000000000000000, -1.000000000000000000, 0.000000000000000000 ) ) ;
#400 = EDGE_CURVE ( 'NONE', #194, #486, #23, .T. ) ;
#401 = LINE ( 'NONE', #666, #12 ) ;
#402 = B_SPLINE_CURVE_WITH_KNOTS ( 'NONE', 3,
 ( #657, #259, #46, #144, #609, #378 ),
 .UNSPECIFIED., .F., .F.,
 ( 4, 2, 4 ),
 ( 2.391904125708790558E-07, 0.0007300545202770516388, 0.001459869850141532399 ),
 .UNSPECIFIED. ) ;
#403 = CIRCLE ( 'NONE', #185, 2.000000000000000000 ) ;
#404 = DIRECTION ( 'NONE',  ( -1.000000000000000000, -0.000000000000000000, -0.000000000000000000 ) ) ;
#405 = CIRCLE ( 'NONE', #3, 1.999999999999995781 ) ;
#406 = PRODUCT_DEFINITION_CONTEXT ( 'detailed design', #78, 'design' ) ;
#407 = CARTESIAN_POINT ( 'NONE',  ( -32.20000000000000284, 2.219290746934188868E-17, -3.599228117386017840E-16 ) ) ;
#408 = CARTESIAN_POINT ( 'NONE',  ( -30.90000000000000213, -0.7216878364870328300, -1.250000000000000222 ) ) ;
#409 = EDGE_CURVE ( 'NONE', #449, #213, #267, .T. ) ;
#410 =( GEOMETRIC_REPRESENTATION_CONTEXT ( 3 ) GLOBAL_UNCERTAINTY_ASSIGNED_CONTEXT ( ( #68 ) ) GLOBAL_UNIT_ASSIGNED_CONTEXT ( ( #128, #482, #133 ) ) REPRESENTATION_CONTEXT ( 'NONE', 'WORKASPACE' ) );
#411 = AXIS2_PLACEMENT_3D ( 'NONE', #335, #451, #150 ) ;
#412 = DIRECTION ( 'NONE',  ( 0.000000000000000000, 0.000000000000000000, 1.000000000000000000 ) ) ;
#413 = AXIS2_PLACEMENT_3D ( 'NONE', #567, #446, #281 ) ;
#414 = MANIFOLD_SOLID_BREP ( '切除-旋转1', #435 ) ;
#415 = CARTESIAN_POINT ( 'NONE',  ( -28.72727272727272663, 0.000000000000000000, 0.000000000000000000 ) ) ;
#416 = DIRECTION ( 'NONE',  ( 1.000000000000000000, 0.000000000000000000, 0.000000000000000000 ) ) ;
#417 = EDGE_LOOP ( 'NONE', ( #38, #437, #730, #480 ) ) ;
#418 = AXIS2_PLACEMENT_3D ( 'NONE', #677, #492, #669 ) ;
#419 = EDGE_CURVE ( 'NONE', #337, #716, #403, .T. ) ;
#420 = FACE_OUTER_BOUND ( 'NONE', #494, .T. ) ;
#421 = ORIENTED_EDGE ( 'NONE', *, *, #260, .F. ) ;
#422 = SURFACE_STYLE_USAGE ( .BOTH. , #86 ) ;
#423 = CARTESIAN_POINT ( 'NONE',  ( -32.20000000000000284, 0.7216878364870323859, 1.249999999999999778 ) ) ;
#424 = ORIENTED_EDGE ( 'NONE', *, *, #21, .F. ) ;
#425 = DIRECTION ( 'NONE',  ( 0.000000000000000000, 0.000000000000000000, 1.000000000000000000 ) ) ;
#426 = CARTESIAN_POINT ( 'NONE',  ( -32.20000000000000284, -0.7216878364870312756, 1.250000000000000444 ) ) ;
#427 = APPLICATION_PROTOCOL_DEFINITION ( 'draft international standard', 'automotive_design', 1998, #613 ) ;
#428 = ORIENTED_EDGE ( 'NONE', *, *, #562, .F. ) ;
#429 = FILL_AREA_STYLE_COLOUR ( '', #70 ) ;
#430 = AXIS2_PLACEMENT_3D ( 'NONE', #388, #617, #620 ) ;
#431 = PRODUCT ( 'GB╱T 70.2-2015[内六角平圆头螺钉M4×30]', 'GB╱T 70.2-2015[内六角平圆头螺钉M4×30]', '', ( #191 ) ) ;
#432 = EDGE_LOOP ( 'NONE', ( #67, #583, #471, #515 ) ) ;
#433 = ADVANCED_FACE ( 'NONE', ( #521 ), #590, .F. ) ;
#434 = DIRECTION ( 'NONE',  ( -1.000000000000000000, -0.000000000000000000, -0.000000000000000000 ) ) ;
#435 = CLOSED_SHELL ( 'NONE', ( #42, #354, #33, #466, #146, #130, #101, #667, #270, #648, #92, #441, #485, #162, #433, #49, #491, #586, #375, #691, #575, #551, #607, #516, #240 ) ) ;
#436 = CARTESIAN_POINT ( 'NONE',  ( -32.15048909679995148, 0.2418642655271377451, 1.249999999999999778 ) ) ;
#437 = ORIENTED_EDGE ( 'NONE', *, *, #79, .T. ) ;
#438 = CONICAL_SURFACE ( 'NONE', #197, 3901.015332362311256, 1.319856261027560818 ) ;
#439 = VERTEX_POINT ( 'NONE', #696 ) ;
#440 = FACE_OUTER_BOUND ( 'NONE', #35, .T. ) ;
#441 = ADVANCED_FACE ( 'NONE', ( #420 ), #438, .F. ) ;
#442 = PRESENTATION_LAYER_ASSIGNMENT (  '', '', ( #319 ) ) ;
#443 = B_SPLINE_CURVE_WITH_KNOTS ( 'NONE', 3,
 ( #659, #322, #549, #700, #487, #650 ),
 .UNSPECIFIED., .F., .F.,
 ( 4, 2, 4 ),
 ( 0.001876385854435923869, 0.002242080329067764385, 0.002607774803699604901 ),
 .UNSPECIFIED. ) ;
#444 = ORIENTED_EDGE ( 'NONE', *, *, #658, .F. ) ;
#445 = CARTESIAN_POINT ( 'NONE',  ( -32.20000000000000284, 1.443375672974064328, 6.505213034913026604E-16 ) ) ;
#446 = DIRECTION ( 'NONE',  ( -1.000000000000000000, -0.000000000000000000, -0.000000000000000000 ) ) ;
#447 = DIRECTION ( 'NONE',  ( -1.000000000000000000, 0.000000000000000000, -0.000000000000000000 ) ) ;
#448 = AXIS2_PLACEMENT_3D ( 'NONE', #553, #727, #399 ) ;
#449 = VERTEX_POINT ( 'NONE', #531 ) ;
#450 = DIRECTION ( 'NONE',  ( 0.000000000000000000, 0.000000000000000000, 1.000000000000000000 ) ) ;
#451 = DIRECTION ( 'NONE',  ( -1.000000000000000000, -5.998083099822095465E-17, -0.000000000000000000 ) ) ;
#452 = DIRECTION ( 'NONE',  ( 1.000000000000000000, 0.000000000000000000, 0.000000000000000000 ) ) ;
#453 = VECTOR ( 'NONE', #606, 1000.000000000000000 ) ;
#454 = B_SPLINE_CURVE_WITH_KNOTS ( 'NONE', 3,
 ( #522, #526, #637, #588, #198 ),
 .UNSPECIFIED., .F., .F.,
 ( 4, 1, 4 ),
 ( 2.309401076781758106E-07, 0.0007219187765947087830, 0.001443606613081739511 ),
 .UNSPECIFIED. ) ;
#455 = ORIENTED_EDGE ( 'NONE', *, *, #284, .F. ) ;
#456 = DIRECTION ( 'NONE',  ( -1.000000000000000000, -5.998083099822095465E-17, -0.000000000000000000 ) ) ;
#457 = DIRECTION ( 'NONE',  ( -1.000000000000000000, -0.000000000000000000, -0.000000000000000000 ) ) ;
#458 = LINE ( 'NONE', #227, #272 ) ;
#459 = EDGE_CURVE ( 'NONE', #360, #367, #569, .T. ) ;
#460 = DIRECTION ( 'NONE',  ( -1.000000000000000000, -0.000000000000000000, -0.000000000000000000 ) ) ;
#461 = DIRECTION ( 'NONE',  ( 0.000000000000000000, 0.000000000000000000, 1.000000000000000000 ) ) ;
#462 = LINE ( 'NONE', #681, #332 ) ;
#463 = CARTESIAN_POINT ( 'NONE',  ( -0.3500000000000000333, 0.000000000000000000, 2.000000000000000000 ) ) ;
#464 = LINE ( 'NONE', #685, #222 ) ;
#465 = DIRECTION ( 'NONE',  ( 0.000000000000000000, 1.000000000000000000, 0.000000000000000000 ) ) ;
#466 = ADVANCED_FACE ( 'NONE', ( #126 ), #69, .T. ) ;
#467 = PLANE ( 'NONE',  #638 ) ;
#468 = AXIS2_PLACEMENT_3D ( 'NONE', #503, #552, #615 ) ;
#469 = EDGE_LOOP ( 'NONE', ( #170, #597 ) ) ;
#470 = LINE ( 'NONE', #301, #290 ) ;
#471 = ORIENTED_EDGE ( 'NONE', *, *, #6, .F. ) ;
#472 = DIRECTION ( 'NONE',  ( 0.000000000000000000, 0.000000000000000000, 1.000000000000000000 ) ) ;
#473 = FILL_AREA_STYLE_COLOUR ( '', #341 ) ;
#474 = ORIENTED_EDGE ( 'NONE', *, *, #520, .F. ) ;
#475 = CONICAL_SURFACE ( 'NONE', #186, 3901.015332362311256, 1.319856261027560818 ) ;
#476 = DIRECTION ( 'NONE',  ( -1.000000000000000000, -0.000000000000000000, -0.000000000000000000 ) ) ;
#477 = ORIENTED_EDGE ( 'NONE', *, *, #419, .T. ) ;
#478 = CIRCLE ( 'NONE', #523, 2.199999999999997069 ) ;
#479 = DIRECTION ( 'NONE',  ( -0.5291067161269946695, 0.000000000000000000, 0.8485552916276627444 ) ) ;
#480 = ORIENTED_EDGE ( 'NONE', *, *, #546, .F. ) ;
#481 = CARTESIAN_POINT ( 'NONE',  ( -29.80000000000000071, 2.449293598294702963E-16, -1.999999999999995781 ) ) ;
#482 =( NAMED_UNIT ( * ) PLANE_ANGLE_UNIT ( ) SI_UNIT ( $, .RADIAN. ) );
#483 = ORIENTED_EDGE ( 'NONE', *, *, #6, .T. ) ;
#484 = FACE_OUTER_BOUND ( 'NONE', #720, .T. ) ;
#485 = ADVANCED_FACE ( 'NONE', ( #584 ), #172, .F. ) ;
#486 = VERTEX_POINT ( 'NONE', #687 ) ;
#487 = CARTESIAN_POINT ( 'NONE',  ( -30.86374379380171362, 0.6053960008849370578, 1.249999999999999778 ) ) ;
#488 = ORIENTED_EDGE ( 'NONE', *, *, #309, .T. ) ;
#489 = CARTESIAN_POINT ( 'NONE',  ( -30.82664516406750010, -0.8393307094615340969, 1.046236566859792383 ) ) ;
#490 = EDGE_LOOP ( 'NONE', ( #88, #112 ) ) ;
#491 = ADVANCED_FACE ( 'NONE', ( #585 ), #253, .F. ) ;
#492 = DIRECTION ( 'NONE',  ( -1.000000000000000000, -0.000000000000000000, -0.000000000000000000 ) ) ;
#493 = AXIS2_PLACEMENT_3D ( 'NONE', #361, #82, #412 ) ;
#494 = EDGE_LOOP ( 'NONE', ( #576, #108 ) ) ;
#495 = CARTESIAN_POINT ( 'NONE',  ( -30.90000000000000213, 0.7216878364870328300, -1.249999999999999112 ) ) ;
#496 =( GEOMETRIC_REPRESENTATION_CONTEXT ( 3 ) GLOBAL_UNCERTAINTY_ASSIGNED_CONTEXT ( ( #623 ) ) GLOBAL_UNIT_ASSIGNED_CONTEXT ( ( #269, #158, #329 ) ) REPRESENTATION_CONTEXT ( 'NONE', 'WORKASPACE' ) );
#497 = CARTESIAN_POINT ( 'NONE',  ( -32.20000000000000284, 0.000000000000000000, 0.000000000000000000 ) ) ;
#498 = ORIENTED_EDGE ( 'NONE', *, *, #73, .T. ) ;
#499 = CARTESIAN_POINT ( 'NONE',  ( -30.77964865737705935, 1.206490558868565710, -0.4102970531874746696 ) ) ;
#500 = TOROIDAL_SURFACE ( 'NONE', #180, 2.199999999999997069, 0.2000000000000013989 ) ;
#501 = DIRECTION ( 'NONE',  ( 0.000000000000000000, 1.000000000000000000, 1.224646799147353207E-16 ) ) ;
#502 = ORIENTED_EDGE ( 'NONE', *, *, #579, .T. ) ;
#503 = CARTESIAN_POINT ( 'NONE',  ( -3.061616997868386099E-17, 2.000000000000000000, 0.000000000000000000 ) ) ;
#504 = SURFACE_SIDE_STYLE ('',( #111 ) ) ;
#505 = AXIS2_PLACEMENT_3D ( 'NONE', #287, #693, #298 ) ;
#506 = EDGE_CURVE ( 'NONE', #660, #439, #77, .T. ) ;
#507 = DIRECTION ( 'NONE',  ( 0.000000000000000000, 0.5000000000000002220, -0.8660254037844384856 ) ) ;
#508 = DIRECTION ( 'NONE',  ( -1.000000000000000000, -0.000000000000000000, -0.000000000000000000 ) ) ;
#509 = DIRECTION ( 'NONE',  ( -0.5000000000000001110, 1.060575238724906792E-16, -0.8660254037844385966 ) ) ;
#510 = AXIS2_PLACEMENT_3D ( 'NONE', #611, #548, #622 ) ;
#511 = DIRECTION ( 'NONE',  ( -0.000000000000000000, 0.000000000000000000, -1.000000000000000000 ) ) ;
#512 = EDGE_LOOP ( 'NONE', ( #502, #710 ) ) ;
#513 = CARTESIAN_POINT ( 'NONE',  ( -30.90000000000000213, 0.7216878364870328300, -1.249999999999999112 ) ) ;
#514 = AXIS2_PLACEMENT_3D ( 'NONE', #366, #592, #416 ) ;
#515 = ORIENTED_EDGE ( 'NONE', *, *, #537, .T. ) ;
#516 = ADVANCED_FACE ( 'NONE', ( #22 ), #601, .T. ) ;
#517 = DIRECTION ( 'NONE',  ( -1.000000000000000000, -0.000000000000000000, -0.000000000000000000 ) ) ;
#518 = CARTESIAN_POINT ( 'NONE',  ( -30.77942286340599765, -0.2440392103072528129, -1.250000000000000222 ) ) ;
#519 = VECTOR ( 'NONE', #237, 1000.000000000000000 ) ;
#520 = EDGE_CURVE ( 'NONE', #324, #27, #470, .T. ) ;
#521 = FACE_OUTER_BOUND ( 'NONE', #469, .T. ) ;
#522 = CARTESIAN_POINT ( 'NONE',  ( -32.20000000000000284, -1.443375672974064328, -2.818925648462312317E-15 ) ) ;
#523 = AXIS2_PLACEMENT_3D ( 'NONE', #106, #229, #664 ) ;
#524 = ORIENTED_EDGE ( 'NONE', *, *, #61, .F. ) ;
#525 = PLANE ( 'NONE',  #718 ) ;
#526 = CARTESIAN_POINT ( 'NONE',  ( -32.16916666666573832, -1.323094366892892060, -0.2083333333333355908 ) ) ;
#527 = EDGE_LOOP ( 'NONE', ( #373, #363 ) ) ;
#528 = EDGE_CURVE ( 'NONE', #439, #542, #709, .T. ) ;
#529 = ORIENTED_EDGE ( 'NONE', *, *, #294, .T. ) ;
#530 = AXIS2_PLACEMENT_3D ( 'NONE', #245, #517, #640 ) ;
#531 = CARTESIAN_POINT ( 'NONE',  ( -30.00000000000000000, 3.800000000000000266, 0.000000000000000000 ) ) ;
#532 = ORIENTED_EDGE ( 'NONE', *, *, #714, .T. ) ;
#533 = CONICAL_SURFACE ( 'NONE', #662, 1.443375672974064106, 1.013248818828627273 ) ;
#534 =( LENGTH_UNIT ( ) NAMED_UNIT ( * ) SI_UNIT ( .MILLI., .METRE. ) );
#535 = CARTESIAN_POINT ( 'NONE',  ( -32.20000000000000284, 0.7216878364870323859, 1.249999999999999778 ) ) ;
#536 = ORIENTED_EDGE ( 'NONE', *, *, #546, .T. ) ;
#537 = EDGE_CURVE ( 'NONE', #633, #542, #235, .T. ) ;
#538 = FACE_OUTER_BOUND ( 'NONE', #257, .T. ) ;
#539 = ORIENTED_EDGE ( 'NONE', *, *, #629, .F. ) ;
#540 = AXIS2_PLACEMENT_3D ( 'NONE', #315, #511, #288 ) ;
#541 = CARTESIAN_POINT ( 'NONE',  ( -32.16927320067241425, 0.4819564059043958681, 1.249999999999999778 ) ) ;
#542 = VERTEX_POINT ( 'NONE', #76 ) ;
#543 = FACE_OUTER_BOUND ( 'NONE', #417, .T. ) ;
#544 = CIRCLE ( 'NONE', #418, 1.443375672974064106 ) ;
#545 = DIRECTION ( 'NONE',  ( 0.000000000000000000, 0.8660254037844387076, -0.4999999999999998335 ) ) ;
#546 = EDGE_CURVE ( 'NONE', #642, #210, #377, .T. ) ;
#547 = ORIENTED_EDGE ( 'NONE', *, *, #385, .F. ) ;
#548 = DIRECTION ( 'NONE',  ( -1.000000000000000000, -0.000000000000000000, -0.000000000000000000 ) ) ;
#549 = CARTESIAN_POINT ( 'NONE',  ( -30.79105228766683311, 0.2457778558553071202, 1.249999999999999778 ) ) ;
#550 = ORIENTED_EDGE ( 'NONE', *, *, #178, .F. ) ;
#551 = ADVANCED_FACE ( 'NONE', ( #293 ), #525, .F. ) ;
#552 = DIRECTION ( 'NONE',  ( -1.000000000000000000, 0.000000000000000000, -0.000000000000000000 ) ) ;
#553 = CARTESIAN_POINT ( 'NONE',  ( -32.20000000000000284, 5.192832784574761635E-33, 0.000000000000000000 ) ) ;
#554 = CARTESIAN_POINT ( 'NONE',  ( -30.00000000000000000, 0.7216878364870321638, -1.250000000000000222 ) ) ;
#555 = CARTESIAN_POINT ( 'NONE',  ( -30.77919874466208938, 1.204657989547419428, 0.4134711563600912410 ) ) ;
#556 = CARTESIAN_POINT ( 'NONE',  ( -30.90000000000000213, 0.7216878364870323859, 1.249999999999999778 ) ) ;
#557 = DIRECTION ( 'NONE',  ( -1.000000000000000000, -0.000000000000000000, -0.000000000000000000 ) ) ;
#558 = AXIS2_PLACEMENT_3D ( 'NONE', #2, #456, #721 ) ;
#559 = DIRECTION ( 'NONE',  ( 0.000000000000000000, 0.000000000000000000, 1.000000000000000000 ) ) ;
#560 = ORIENTED_EDGE ( 'NONE', *, *, #409, .T. ) ;
#561 = CARTESIAN_POINT ( 'NONE',  ( -29.80000000000000071, 0.000000000000000000, 0.000000000000000000 ) ) ;
#562 = EDGE_CURVE ( 'NONE', #81, #337, #136, .T. ) ;
#563 = DIRECTION ( 'NONE',  ( 0.000000000000000000, 0.000000000000000000, 1.000000000000000000 ) ) ;
#564 = DIRECTION ( 'NONE',  ( -1.000000000000000000, -0.000000000000000000, -0.000000000000000000 ) ) ;
#565 = ORIENTED_EDGE ( 'NONE', *, *, #174, .F. ) ;
#566 = CARTESIAN_POINT ( 'NONE',  ( -30.00000000000000000, 0.7216878364870323859, 1.249999999999999778 ) ) ;
#567 = CARTESIAN_POINT ( 'NONE',  ( -0.3500000000000000333, 0.000000000000000000, 0.000000000000000000 ) ) ;
#568 = CARTESIAN_POINT ( 'NONE',  ( -30.83343568050244698, 0.4873330088410959826, -1.250000000000000222 ) ) ;
#569 = CIRCLE ( 'NONE', #630, 1.443375672974064106 ) ;
#570 = FACE_OUTER_BOUND ( 'NONE', #161, .T. ) ;
#571 = ORIENTED_EDGE ( 'NONE', *, *, #658, .T. ) ;
#572 = CARTESIAN_POINT ( 'NONE',  ( -32.15048909679994438, 0.2418642655271366626, -1.250000000000000000 ) ) ;
#573 = PLANE ( 'NONE',  #244 ) ;
#574 = VECTOR ( 'NONE', #282, 1000.000000000000000 ) ;
#575 = ADVANCED_FACE ( 'NONE', ( #538 ), #656, .F. ) ;
#576 = ORIENTED_EDGE ( 'NONE', *, *, #174, .T. ) ;
#577 = DIRECTION ( 'NONE',  ( 0.000000000000000000, 0.000000000000000000, 1.000000000000000000 ) ) ;
#578 = STYLED_ITEM ( 'NONE', ( #223 ), #146 ) ;
#579 = EDGE_CURVE ( 'NONE', #367, #360, #242, .T. ) ;
#580 = ORIENTED_EDGE ( 'NONE', *, *, #138, .F. ) ;
#581 =( NAMED_UNIT ( * ) SI_UNIT ( $, .STERADIAN. ) SOLID_ANGLE_UNIT ( ) );
#582 = AXIS2_PLACEMENT_3D ( 'NONE', #40, #29, #318 ) ;
#583 = ORIENTED_EDGE ( 'NONE', *, *, #347, .F. ) ;
#584 = FACE_OUTER_BOUND ( 'NONE', #512, .T. ) ;
#585 = FACE_OUTER_BOUND ( 'NONE', #20, .T. ) ;
#586 = ADVANCED_FACE ( 'NONE', ( #712 ), #205, .F. ) ;
#587 = ORIENTED_EDGE ( 'NONE', *, *, #212, .T. ) ;
#588 = CARTESIAN_POINT ( 'NONE',  ( -32.16916666666573832, -0.8419691425682048758, -1.041666666666667185 ) ) ;
#589 = ORIENTED_EDGE ( 'NONE', *, *, #138, .T. ) ;
#590 = CONICAL_SURFACE ( 'NONE', #263, 3901.015332362311256, 1.319856261027560818 ) ;
#591 = CARTESIAN_POINT ( 'NONE',  ( -32.20000000000000284, -0.7216878364870312756, 1.250000000000000444 ) ) ;
#592 = DIRECTION ( 'NONE',  ( 0.000000000000000000, 0.000000000000000000, 1.000000000000000000 ) ) ;
#593 = ORIENTED_EDGE ( 'NONE', *, *, #188, .F. ) ;
#594 = EDGE_CURVE ( 'NONE', #357, #151, #80, .T. ) ;
#595 = VECTOR ( 'NONE', #115, 1000.000000000000000 ) ;
#596 = CARTESIAN_POINT ( 'NONE',  ( -30.90000000000000213, 0.7216878364870328300, -1.249999999999999112 ) ) ;
#597 = ORIENTED_EDGE ( 'NONE', *, *, #84, .T. ) ;
#598 = CARTESIAN_POINT ( 'NONE',  ( -30.90000000000000213, -0.7216878364870332740, 1.249999999999999778 ) ) ;
#599 = ORIENTED_EDGE ( 'NONE', *, *, #309, .F. ) ;
#600 = SURFACE_STYLE_FILL_AREA ( #364 ) ;
#601 = CONICAL_SURFACE ( 'NONE', #530, 2.000000000000000000, 1.047197551196597631 ) ;
#602 = CIRCLE ( 'NONE', #296, 1.443375672974064106 ) ;
#603 = CARTESIAN_POINT ( 'NONE',  ( -32.13169213213475217, 1.082531754730548190, 0.6250000000000003331 ) ) ;
#604 = ORIENTED_EDGE ( 'NONE', *, *, #232, .F. ) ;
#605 = AXIS2_PLACEMENT_3D ( 'NONE', #497, #339, #559 ) ;
#606 = DIRECTION ( 'NONE',  ( -0.5000000000000001110, 0.000000000000000000, 0.8660254037844385966 ) ) ;
#607 = ADVANCED_FACE ( 'NONE', ( #37 ), #372, .F. ) ;
#608 = ADVANCED_BREP_SHAPE_REPRESENTATION ( 'GB╱T 70.2-2015[内六角平圆头螺钉M4×30]', ( #414, #514 ), #143 ) ;
#609 = CARTESIAN_POINT ( 'NONE',  ( -30.82664516406750366, -1.325732799999564726, -0.2037634331402073951 ) ) ;
#610 = B_SPLINE_CURVE_WITH_KNOTS ( 'NONE', 3,
 ( #25, #256, #252, #258, #489, #598 ),
 .UNSPECIFIED., .F., .F.,
 ( 4, 2, 4 ),
 ( 2.391904125710969021E-07, 0.0007300545202770521809, 0.001459869850141533049 ),
 .UNSPECIFIED. ) ;
#611 = CARTESIAN_POINT ( 'NONE',  ( -32.20000000000000284, 0.000000000000000000, 0.000000000000000000 ) ) ;
#612 = DIRECTION ( 'NONE',  ( -1.000000000000000000, -0.000000000000000000, -0.000000000000000000 ) ) ;
#613 = APPLICATION_CONTEXT ( 'automotive_design' ) ;
#614 = ORIENTED_EDGE ( 'NONE', *, *, #723, .T. ) ;
#615 = DIRECTION ( 'NONE',  ( -0.000000000000000000, 0.000000000000000000, 1.000000000000000000 ) ) ;
#616 = CARTESIAN_POINT ( 'NONE',  ( -32.20000000000000284, 2.219290746934188868E-17, -3.599228117386017840E-16 ) ) ;
#617 = DIRECTION ( 'NONE',  ( -1.000000000000000000, -0.000000000000000000, -0.000000000000000000 ) ) ;
#618 = ORIENTED_EDGE ( 'NONE', *, *, #11, .T. ) ;
#619 = EDGE_CURVE ( 'NONE', #692, #350, #610, .T. ) ;
#620 = DIRECTION ( 'NONE',  ( 0.000000000000000000, 0.000000000000000000, 1.000000000000000000 ) ) ;
#621 = ORIENTED_EDGE ( 'NONE', *, *, #212, .F. ) ;
#622 = DIRECTION ( 'NONE',  ( 0.000000000000000000, 0.000000000000000000, 1.000000000000000000 ) ) ;
#623 = UNCERTAINTY_MEASURE_WITH_UNIT (LENGTH_MEASURE( 1.000000000000000082E-05 ), #269, 'distance_accuracy_value', 'NONE');
#624 = FACE_BOUND ( 'NONE', #187, .T. ) ;
#625 = DIRECTION ( 'NONE',  ( 0.000000000000000000, 0.000000000000000000, 1.000000000000000000 ) ) ;
#626 = PLANE ( 'NONE',  #236 ) ;
#627 = FACE_OUTER_BOUND ( 'NONE', #490, .T. ) ;
#628 = CARTESIAN_POINT ( 'NONE',  ( -32.20000000000000284, 1.443375672974064328, 6.505213034913026604E-16 ) ) ;
#629 = EDGE_CURVE ( 'NONE', #360, #357, #208, .T. ) ;
#630 = AXIS2_PLACEMENT_3D ( 'NONE', #407, #291, #634 ) ;
#631 = ORIENTED_EDGE ( 'NONE', *, *, #528, .F. ) ;
#632 = CARTESIAN_POINT ( 'NONE',  ( -30.77942286340599765, 1.530808065902090522E-16, -1.250000000000000222 ) ) ;
#633 = VERTEX_POINT ( 'NONE', #365 ) ;
#634 = DIRECTION ( 'NONE',  ( 0.000000000000000000, 0.000000000000000000, -1.000000000000000000 ) ) ;
#635 = CIRCLE ( 'NONE', #313, 3.800000000000000266 ) ;
#636 = DIRECTION ( 'NONE',  ( -0.000000000000000000, 0.000000000000000000, -1.000000000000000000 ) ) ;
#637 = CARTESIAN_POINT ( 'NONE',  ( -32.13169213213475217, -1.082531754730548856, -0.6250000000000009992 ) ) ;
#638 = AXIS2_PLACEMENT_3D ( 'NONE', #116, #179, #507 ) ;
#639 = EDGE_CURVE ( 'NONE', #273, #642, #127, .T. ) ;
#640 = DIRECTION ( 'NONE',  ( 0.000000000000000000, 0.000000000000000000, 1.000000000000000000 ) ) ;
#641 = COLOUR_RGB ( '',0.6470588235294117974, 0.6196078431372549211, 0.5882352941176470784 ) ;
#642 = VERTEX_POINT ( 'NONE', #481 ) ;
#643 = CARTESIAN_POINT ( 'NONE',  ( -1031.829999999999927, -5.995863809075160294E-14, 0.000000000000000000 ) ) ;
#644 = FILL_AREA_STYLE ('',( #473 ) ) ;
#645 = ORIENTED_EDGE ( 'NONE', *, *, #520, .T. ) ;
#646 = PRESENTATION_STYLE_ASSIGNMENT (( #422 ) ) ;
#647 = DIRECTION ( 'NONE',  ( 0.000000000000000000, -0.8660254037844388186, 0.4999999999999996669 ) ) ;
#648 = ADVANCED_FACE ( 'NONE', ( #715 ), #119, .F. ) ;
#649 = ORIENTED_EDGE ( 'NONE', *, *, #248, .F. ) ;
#650 = CARTESIAN_POINT ( 'NONE',  ( -30.90000000000000213, 0.7216878364870323859, 1.249999999999999778 ) ) ;
#651 = ORIENTED_EDGE ( 'NONE', *, *, #714, .F. ) ;
#652 = CIRCLE ( 'NONE', #605, 1.999999999999998668 ) ;
#653 = CARTESIAN_POINT ( 'NONE',  ( -32.20000000000000284, -1.443375672974064328, -2.818925648462312317E-15 ) ) ;
#654 = EDGE_LOOP ( 'NONE', ( #682, #8, #56, #140, #663 ) ) ;
#655 = CARTESIAN_POINT ( 'NONE',  ( -29.80000000000000071, 0.000000000000000000, 2.199999999999997069 ) ) ;
#656 = PLANE ( 'NONE',  #389 ) ;
#657 = CARTESIAN_POINT ( 'NONE',  ( -30.90000000000000213, -0.7216878364870328300, -1.250000000000000222 ) ) ;
#658 = EDGE_CURVE ( 'NONE', #27, #243, #443, .T. ) ;
#659 = CARTESIAN_POINT ( 'NONE',  ( -30.77942286340599765, -4.330215280939178002E-23, 1.249999999999999778 ) ) ;
#660 = VERTEX_POINT ( 'NONE', #596 ) ;
#661 = CARTESIAN_POINT ( 'NONE',  ( -32.20000000000000284, -1.443375672974064328, -2.818925648462312317E-15 ) ) ;
#662 = AXIS2_PLACEMENT_3D ( 'NONE', #169, #326, #563 ) ;
#663 = ORIENTED_EDGE ( 'NONE', *, *, #506, .T. ) ;
#664 = DIRECTION ( 'NONE',  ( 0.000000000000000000, 0.000000000000000000, 1.000000000000000000 ) ) ;
#665 = PRESENTATION_LAYER_ASSIGNMENT (  '', '', ( #578 ) ) ;
#666 = CARTESIAN_POINT ( 'NONE',  ( -0.3500000000000000333, 2.449293598294706414E-16, -2.000000000000000000 ) ) ;
#667 = ADVANCED_FACE ( 'NONE', ( #484 ), #93, .T. ) ;
#668 = VERTEX_POINT ( 'NONE', #734 ) ;
#669 = DIRECTION ( 'NONE',  ( 0.000000000000000000, 0.000000000000000000, -1.000000000000000000 ) ) ;
#670 = DIRECTION ( 'NONE',  ( -1.000000000000000000, -5.998083099822095465E-17, -0.000000000000000000 ) ) ;
#671 = AXIS2_PLACEMENT_3D ( 'NONE', #249, #87, #379 ) ;
#672 = CARTESIAN_POINT ( 'NONE',  ( -0.3500000000000000333, 0.000000000000000000, 0.000000000000000000 ) ) ;
#673 = ORIENTED_EDGE ( 'NONE', *, *, #409, .F. ) ;
#674 = CARTESIAN_POINT ( 'NONE',  ( -30.77942286340599765, -0.2440392103072530072, 1.249999999999999778 ) ) ;
#675 = DIRECTION ( 'NONE',  ( -0.000000000000000000, 0.000000000000000000, 1.000000000000000000 ) ) ;
#676 = CARTESIAN_POINT ( 'NONE',  ( -30.77942286340599765, -4.330215280939178002E-23, 1.249999999999999778 ) ) ;
#677 = CARTESIAN_POINT ( 'NONE',  ( -32.20000000000000284, 2.219290746934188868E-17, -3.599228117386017840E-16 ) ) ;
#678 = EDGE_CURVE ( 'NONE', #716, #642, #464, .T. ) ;
#679 = UNCERTAINTY_MEASURE_WITH_UNIT (LENGTH_MEASURE( 1.000000000000000082E-05 ), #356, 'distance_accuracy_value', 'NONE');
#680 = CARTESIAN_POINT ( 'NONE',  ( -0.3500000000000000333, 0.000000000000000000, 0.000000000000000000 ) ) ;
#681 = CARTESIAN_POINT ( 'NONE',  ( -32.20000000000000284, 0.000000000000000000, 1.999999999999997780 ) ) ;
#682 = ORIENTED_EDGE ( 'NONE', *, *, #114, .F. ) ;
#683 = EDGE_CURVE ( 'NONE', #725, #633, #702, .T. ) ;
#684 = CARTESIAN_POINT ( 'NONE',  ( -30.90000000000000213, -0.7216878364870332740, 1.249999999999999778 ) ) ;
#685 = CARTESIAN_POINT ( 'NONE',  ( -32.20000000000000284, 2.449293598294703949E-16, -1.999999999999997780 ) ) ;
#686 = EDGE_LOOP ( 'NONE', ( #64, #333, #455, #673 ) ) ;
#687 = CARTESIAN_POINT ( 'NONE',  ( -32.20000000000000284, -1.999999999999998668, -3.551475717527323339E-16 ) ) ;
#688 = DIRECTION ( 'NONE',  ( 0.000000000000000000, 0.000000000000000000, -1.000000000000000000 ) ) ;
#689 = FACE_OUTER_BOUND ( 'NONE', #432, .T. ) ;
#690 = AXIS2_PLACEMENT_3D ( 'NONE', #195, #434, #425 ) ;
#691 = ADVANCED_FACE ( 'NONE', ( #689 ), #467, .F. ) ;
#692 = VERTEX_POINT ( 'NONE', #340 ) ;
#693 = DIRECTION ( 'NONE',  ( -1.000000000000000000, -5.998083099822095465E-17, -0.000000000000000000 ) ) ;
#694 = CIRCLE ( 'NONE', #59, 1.999999999999998668 ) ;
#695 = ORIENTED_EDGE ( 'NONE', *, *, #79, .F. ) ;
#696 = CARTESIAN_POINT ( 'NONE',  ( -32.20000000000000284, 0.7216878364870321638, -1.250000000000000222 ) ) ;
#697 = CIRCLE ( 'NONE', #65, 3.800000000000000266 ) ;
#698 = EDGE_LOOP ( 'NONE', ( #621, #308, #536, #580 ) ) ;
#699 = EDGE_CURVE ( 'NONE', #486, #213, #694, .T. ) ;
#700 = CARTESIAN_POINT ( 'NONE',  ( -30.83343568050243988, 0.4873330088410964822, 1.249999999999999334 ) ) ;
#701 = APPLICATION_PROTOCOL_DEFINITION ( 'draft international standard', 'automotive_design', 1998, #78 ) ;
#702 = B_SPLINE_CURVE_WITH_KNOTS ( 'NONE', 3,
 ( #632, #518, #9, #408 ),
 .UNSPECIFIED., .F., .F.,
 ( 4, 4 ),
 ( 0.004568767951579540479, 0.005301777679998205886 ),
 .UNSPECIFIED. ) ;
#704 = ORIENTED_EDGE ( 'NONE', *, *, #73, .F. ) ;
#703 = AXIS2_PLACEMENT_3D ( 'NONE', #680, #457, #50 ) ;
#705 = CYLINDRICAL_SURFACE ( 'NONE', #690, 1.999999999999997780 ) ;
#706 = CARTESIAN_POINT ( 'NONE',  ( -32.15037000055571781, -0.2394511050528673191, 1.249999999999999334 ) ) ;
#707 = PRODUCT_DEFINITION ( '未知', '', #323, #406 ) ;
#708 = PRODUCT_DEFINITION_SHAPE ( 'NONE', 'NONE',  #707 ) ;
#709 = CIRCLE ( 'NONE', #209, 1.443375672974064106 ) ;
#710 = ORIENTED_EDGE ( 'NONE', *, *, #459, .T. ) ;
#711 = ORIENTED_EDGE ( 'NONE', *, *, #347, .T. ) ;
#712 = FACE_OUTER_BOUND ( 'NONE', #321, .T. ) ;
#713 = ORIENTED_EDGE ( 'NONE', *, *, #328, .T. ) ;
#714 = EDGE_CURVE ( 'NONE', #542, #151, #316, .T. ) ;
#715 = FACE_OUTER_BOUND ( 'NONE', #297, .T. ) ;
#716 = VERTEX_POINT ( 'NONE', #292 ) ;
#717 = FACE_OUTER_BOUND ( 'NONE', #380, .T. ) ;
#718 = AXIS2_PLACEMENT_3D ( 'NONE', #15, #89, #262 ) ;
#719 = CARTESIAN_POINT ( 'NONE',  ( -32.16927320067242846, 0.4819564059043950355, -1.250000000000000222 ) ) ;
#720 = EDGE_LOOP ( 'NONE', ( #31, #498, #560, #167 ) ) ;
#721 = DIRECTION ( 'NONE',  ( 5.691969551695385253E-17, -1.000000000000000000, 0.000000000000000000 ) ) ;
#722 = VECTOR ( 'NONE', #460, 1000.000000000000000 ) ;
#723 = EDGE_CURVE ( 'NONE', #151, #542, #454, .T. ) ;
#724 = CARTESIAN_POINT ( 'NONE',  ( 0.000000000000000000, 0.000000000000000000, 0.000000000000000000 ) ) ;
#725 = VERTEX_POINT ( 'NONE', #83 ) ;
#726 = DIRECTION ( 'NONE',  ( -1.000000000000000000, -0.000000000000000000, -0.000000000000000000 ) ) ;
#727 = DIRECTION ( 'NONE',  ( -1.000000000000000000, -5.998083099822095465E-17, -0.000000000000000000 ) ) ;
#728 = STYLED_ITEM ( 'NONE', ( #646 ), #130 ) ;
#729 = CARTESIAN_POINT ( 'NONE',  ( -30.77942286340599765, 0.1219527981751488688, -1.250000000000000222 ) ) ;
#730 = ORIENTED_EDGE ( 'NONE', *, *, #362, .T. ) ;
#731 = DIRECTION ( 'NONE',  ( 0.000000000000000000, 0.000000000000000000, -1.000000000000000000 ) ) ;
#732 = CONICAL_SURFACE ( 'NONE', #413, 2.000000000000000000, 1.047197551196597631 ) ;
#733 = SURFACE_STYLE_USAGE ( .BOTH. , #504 ) ;
#734 = CARTESIAN_POINT ( 'NONE',  ( -30.90000000000000213, 1.443375672974064328, -3.128943976826325424E-17 ) ) ;
ENDSEC;
END-ISO-10303-21;
