ISO-10303-21;
HEADER;
FILE_DESCRIPTION (( 'STEP AP214' ),
    '1' );
FILE_NAME ('GB╱T 9074.1-2002[十字槽盘头螺钉（S3）和平垫圈组合件M3×8 10.9 S3 N].step',
    '2023-08-15T02:54:26',
    ( '' ),
    ( '' ),
    'SwSTEP 2.0',
    'SolidWorks 2022',
    '' );
FILE_SCHEMA (( 'AUTOMOTIVE_DESIGN' ));
ENDSEC;

DATA;
#1 = CIRCLE ( 'NONE', #685, 1.328289321881344742 ) ;
#2 = ORIENTED_EDGE ( 'NONE', *, *, #354, .F. ) ;
#3 = CARTESIAN_POINT ( 'NONE',  ( 0.8750000000000002220, -0.5576685299944311724, -0.9573203475728214729 ) ) ;
#4 = SURFACE_SIDE_STYLE ('',( #87 ) ) ;
#5 = AXIS2_PLACEMENT_3D ( 'NONE', #460, #1209, #835 ) ;
#6 = AXIS2_PLACEMENT_3D ( 'NONE', #528, #1198, #350 ) ;
#7 = CARTESIAN_POINT ( 'NONE',  ( 1.750000000000000000, -5.421010862427522170E-17, -0.4849999999999998757 ) ) ;
#8 = ADVANCED_FACE ( 'Bface2', ( #1184 ), #705, .T. ) ;
#9 = ORIENTED_EDGE ( 'NONE', *, *, #632, .F. ) ;
#10 = EDGE_CURVE ( 'NONE', #507, #25, #1188, .T. ) ;
#11 = CARTESIAN_POINT ( 'NONE',  ( 0.2122292933583076746, 0.7540079504585242010, -1.228301132161428999 ) ) ;
#12 = DIRECTION ( 'NONE',  ( 0.1138834974989065968, -0.9275066560604727783, -0.3560364475175772925 ) ) ;
#13 = SURFACE_STYLE_FILL_AREA ( #195 ) ;
#14 = ORIENTED_EDGE ( 'NONE', *, *, #242, .T. ) ;
#15 = DIRECTION ( 'NONE',  ( -1.000000000000000000, -0.000000000000000000, -0.000000000000000000 ) ) ;
#16 = DIRECTION ( 'NONE',  ( -1.000000000000000000, -0.000000000000000000, -0.000000000000000000 ) ) ;
#17 = ORIENTED_EDGE ( 'NONE', *, *, #436, .F. ) ;
#18 = DIRECTION ( 'NONE',  ( 0.000000000000000000, 0.000000000000000000, 1.000000000000000000 ) ) ;
#19 = ORIENTED_EDGE ( 'NONE', *, *, #214, .T. ) ;
#20 = DIRECTION ( 'NONE',  ( 0.000000000000000000, -0.7193398003386520800, -0.6946583704589963659 ) ) ;
#21 = DIRECTION ( 'NONE',  ( 0.000000000000000000, 0.7071067811865479058, 0.7071067811865471286 ) ) ;
#22 = CARTESIAN_POINT ( 'NONE',  ( 0.07431333771314231618, -0.8053158319546457333, -0.2984582311920159770 ) ) ;
#23 = EDGE_CURVE ( 'NONE', #805, #330, #643, .T. ) ;
#24 = VERTEX_POINT ( 'NONE', #366 ) ;
#25 = VERTEX_POINT ( 'NONE', #1012 ) ;
#26 = CARTESIAN_POINT ( 'NONE',  ( 0.8275411632120673877, 3.401518966611321359E-16, 2.755102040816326703 ) ) ;
#27 = ORIENTED_EDGE ( 'NONE', *, *, #450, .F. ) ;
#28 = DIRECTION ( 'NONE',  ( 0.08798131281535091774, -0.6919645723680251104, 0.7165502907562201207 ) ) ;
#29 = LINE ( 'NONE', #1156, #418 ) ;
#30 = EDGE_LOOP ( 'NONE', ( #500, #1081, #278 ) ) ;
#31 = ORIENTED_EDGE ( 'NONE', *, *, #488, .F. ) ;
#32 = FACE_OUTER_BOUND ( 'NONE', #290, .T. ) ;
#33 = FACE_OUTER_BOUND ( 'NONE', #928, .T. ) ;
#34 = FACE_OUTER_BOUND ( 'NONE', #464, .T. ) ;
#35 = EDGE_CURVE ( 'NONE', #487, #1022, #276, .T. ) ;
#36 = CIRCLE ( 'NONE', #877, 4.999605077635991712 ) ;
#37 = CARTESIAN_POINT ( 'NONE',  ( 0.8275411632120673877, -2.755102040816327147, -3.374026895610055907E-16 ) ) ;
#38 = CARTESIAN_POINT ( 'NONE',  ( 1.750000000000000000, 0.4849999999999999867, 0.000000000000000000 ) ) ;
#39 = UNCERTAINTY_MEASURE_WITH_UNIT (LENGTH_MEASURE( 1.000000000000000082E-05 ), #364, 'distance_accuracy_value', 'NONE');
#40 = ORIENTED_EDGE ( 'NONE', *, *, #443, .F. ) ;
#41 = ORIENTED_EDGE ( 'NONE', *, *, #1131, .F. ) ;
#42 = EDGE_CURVE ( 'NONE', #447, #114, #660, .T. ) ;
#43 = DIRECTION ( 'NONE',  ( 0.1138834974989063470, 0.3560364475175780141, -0.9275066560604725563 ) ) ;
#44 = DIRECTION ( 'NONE',  ( 0.000000000000000000, 0.9335804264972020761, -0.3583679495452993802 ) ) ;
#45 = AXIS2_PLACEMENT_3D ( 'NONE', #117, #485, #860 ) ;
#46 = ORIENTED_EDGE ( 'NONE', *, *, #748, .T. ) ;
#47 = ORIENTED_EDGE ( 'NONE', *, *, #1016, .F. ) ;
#48 = VECTOR ( 'NONE', #66, 1000.000000000000000 ) ;
#49 = APPLICATION_CONTEXT ( 'automotive_design' ) ;
#50 = CARTESIAN_POINT ( 'NONE',  ( 0.2122292933583083130, -1.228301132161429221, -0.7540079504585245340 ) ) ;
#51 = LINE ( 'NONE', #233, #311 ) ;
#52 = EDGE_CURVE ( 'NONE', #148, #1020, #381, .T. ) ;
#53 = AXIS2_PLACEMENT_3D ( 'NONE', #606, #1078, #1059 ) ;
#54 = FACE_OUTER_BOUND ( 'NONE', #422, .T. ) ;
#55 = CARTESIAN_POINT ( 'NONE',  ( 0.000000000000000000, -0.6998729815800832643, -1.714194413403527111E-16 ) ) ;
#56 = ORIENTED_EDGE ( 'NONE', *, *, #504, .T. ) ;
#57 = DIRECTION ( 'NONE',  ( -0.4461978145050308209, -0.6328141553137596187, 0.6328141553137597297 ) ) ;
#58 = CARTESIAN_POINT ( 'NONE',  ( 0.000000000000000000, 0.2984582311920158659, -0.8144403624949829723 ) ) ;
#59 = AXIS2_PLACEMENT_3D ( 'NONE', #1034, #758, #106 ) ;
#60 = AXIS2_PLACEMENT_3D ( 'NONE', #1001, #1180, #704 ) ;
#61 = ORIENTED_EDGE ( 'NONE', *, *, #604, .T. ) ;
#62 = CARTESIAN_POINT ( 'NONE',  ( 1.750000000000000000, -0.4849999999999999867, -1.187907395172932446E-16 ) ) ;
#63 = CARTESIAN_POINT ( 'NONE',  ( 1.750000000000000000, -5.421010862427522170E-17, -0.4849999999999998757 ) ) ;
#64 = VECTOR ( 'NONE', #1010, 1000.000000000000114 ) ;
#65 = EDGE_CURVE ( 'NONE', #180, #569, #1206, .T. ) ;
#66 = DIRECTION ( 'NONE',  ( -1.000000000000000000, -0.000000000000000000, -0.000000000000000000 ) ) ;
#67 = ORIENTED_EDGE ( 'NONE', *, *, #1069, .T. ) ;
#68 = DIRECTION ( 'NONE',  ( -1.000000000000000000, -0.000000000000000000, -0.000000000000000000 ) ) ;
#69 = DIRECTION ( 'NONE',  ( 0.08798131281535088999, 0.6919645723680253324, -0.7165502907562198986 ) ) ;
#70 = EDGE_CURVE ( 'NONE', #25, #83, #452, .T. ) ;
#71 = CARTESIAN_POINT ( 'NONE',  ( -3.442001378349206053, 1.590816192092411868E-16, -1.298999999999999932 ) ) ;
#72 =( GEOMETRIC_REPRESENTATION_CONTEXT ( 3 ) GLOBAL_UNCERTAINTY_ASSIGNED_CONTEXT ( ( #1170 ) ) GLOBAL_UNIT_ASSIGNED_CONTEXT ( ( #363, #842, #1019 ) ) REPRESENTATION_CONTEXT ( 'NONE', 'WORKASPACE' ) );
#73 = DIRECTION ( 'NONE',  ( 0.1138834974989065829, 0.9275066560604725563, 0.3560364475175776255 ) ) ;
#74 = VERTEX_POINT ( 'NONE', #1128 ) ;
#75 = CARTESIAN_POINT ( 'NONE',  ( 82.40000000000000568, 0.000000000000000000, 0.000000000000000000 ) ) ;
#76 = ORIENTED_EDGE ( 'NONE', *, *, #761, .T. ) ;
#77 = EDGE_CURVE ( 'NONE', #771, #571, #980, .T. ) ;
#78 = VECTOR ( 'NONE', #1026, 1000.000000000000114 ) ;
#79 = CARTESIAN_POINT ( 'NONE',  ( 1.750000000000000000, -5.421010862427522170E-17, -0.4849999999999998757 ) ) ;
#80 = DIRECTION ( 'NONE',  ( 0.000000000000000000, 0.3583679495452990471, -0.9335804264972021871 ) ) ;
#81 = CARTESIAN_POINT ( 'NONE',  ( 3.400000000000000355, 0.000000000000000000, 0.000000000000000000 ) ) ;
#82 = PRESENTATION_STYLE_ASSIGNMENT (( #1124 ) ) ;
#83 = VERTEX_POINT ( 'NONE', #188 ) ;
#84 = EDGE_CURVE ( 'NONE', #398, #559, #1214, .T. ) ;
#85 = LINE ( 'NONE', #79, #466 ) ;
#86 = AXIS2_PLACEMENT_3D ( 'NONE', #124, #391, #213 ) ;
#87 = SURFACE_STYLE_FILL_AREA ( #1005 ) ;
#88 = ORIENTED_EDGE ( 'NONE', *, *, #431, .F. ) ;
#89 = DIRECTION ( 'NONE',  ( 0.000000000000000000, 0.000000000000000000, -1.000000000000000000 ) ) ;
#90 = CIRCLE ( 'NONE', #1210, 4.999605077635991712 ) ;
#91 = ORIENTED_EDGE ( 'NONE', *, *, #10, .T. ) ;
#92 = CARTESIAN_POINT ( 'NONE',  ( 0.000000000000000000, -0.6998729815800832643, -1.714194413403527111E-16 ) ) ;
#93 = PRESENTATION_LAYER_ASSIGNMENT (  '', '', ( #314 ) ) ;
#94 = VERTEX_POINT ( 'NONE', #757 ) ;
#95 = DIRECTION ( 'NONE',  ( -0.4461978145050307654, -0.6328141553137596187, -0.6328141553137597297 ) ) ;
#96 = EDGE_CURVE ( 'NONE', #666, #330, #687, .T. ) ;
#97 = EDGE_CURVE ( 'NONE', #345, #447, #844, .T. ) ;
#98 = CARTESIAN_POINT ( 'NONE',  ( 4.994471112842468585, 0.04348416629860508281, 0.04502917237211596230 ) ) ;
#99 = EDGE_CURVE ( 'NONE', #486, #207, #1169, .T. ) ;
#100 = AXIS2_PLACEMENT_3D ( 'NONE', #809, #438, #432 ) ;
#101 = ORIENTED_EDGE ( 'NONE', *, *, #339, .T. ) ;
#102 = DIRECTION ( 'NONE',  ( 0.000000000000000000, 0.000000000000000000, -1.000000000000000000 ) ) ;
#103 = DIRECTION ( 'NONE',  ( 0.000000000000000000, 0.9335804264972020761, 0.3583679495452997688 ) ) ;
#104 =( NAMED_UNIT ( * ) SI_UNIT ( $, .STERADIAN. ) SOLID_ANGLE_UNIT ( ) );
#105 = MANIFOLD_SOLID_BREP ( '切除-放样2', #865 ) ;
#106 = DIRECTION ( 'NONE',  ( 0.000000000000000000, 0.000000000000000000, 1.000000000000000000 ) ) ;
#107 = EDGE_CURVE ( 'NONE', #881, #1158, #130, .T. ) ;
#108 = ORIENTED_EDGE ( 'NONE', *, *, #1177, .T. ) ;
#109 = CARTESIAN_POINT ( 'NONE',  ( 0.000000000000000000, 0.8144403624949831944, 0.2984582311920156994 ) ) ;
#110 = EDGE_LOOP ( 'NONE', ( #958, #373, #623 ) ) ;
#111 = SURFACE_STYLE_USAGE ( .BOTH. , #856 ) ;
#112 = AXIS2_PLACEMENT_3D ( 'NONE', #794, #1174, #332 ) ;
#113 = EDGE_CURVE ( 'NONE', #689, #559, #731, .T. ) ;
#114 = VERTEX_POINT ( 'NONE', #637 ) ;
#115 = CIRCLE ( 'NONE', #212, 4.999605077635991712 ) ;
#116 = DIRECTION ( 'NONE',  ( -1.000000000000000000, -0.000000000000000000, -0.000000000000000000 ) ) ;
#117 = CARTESIAN_POINT ( 'NONE',  ( 0.8275411632120673877, 0.000000000000000000, 0.000000000000000000 ) ) ;
#118 = ORIENTED_EDGE ( 'NONE', *, *, #35, .T. ) ;
#119 = ORIENTED_EDGE ( 'NONE', *, *, #419, .F. ) ;
#120 = ADVANCED_FACE ( 'NONE', ( #1073 ), #896, .F. ) ;
#121 = DIRECTION ( 'NONE',  ( 0.000000000000000000, 0.000000000000000000, -1.000000000000000000 ) ) ;
#122 = ORIENTED_EDGE ( 'NONE', *, *, #280, .F. ) ;
#123 = CARTESIAN_POINT ( 'NONE',  ( 4.606516183611335968, 0.5580532239357697266, -0.5580532239357702817 ) ) ;
#124 = CARTESIAN_POINT ( 'NONE',  ( 0.000000000000000000, -0.2984582311920156439, 0.8144403624949831944 ) ) ;
#125 = ORIENTED_EDGE ( 'NONE', *, *, #761, .F. ) ;
#126 = EDGE_LOOP ( 'NONE', ( #215, #132, #674 ) ) ;
#127 = AXIS2_PLACEMENT_3D ( 'NONE', #1195, #716, #828 ) ;
#128 = PLANE ( 'NONE',  #173 ) ;
#129 = PLANE ( 'NONE',  #479 ) ;
#130 = CIRCLE ( 'NONE', #1142, 4.999364441949703419 ) ;
#131 = DIRECTION ( 'NONE',  ( -0.000000000000000000, 0.000000000000000000, 1.000000000000000000 ) ) ;
#132 = ORIENTED_EDGE ( 'NONE', *, *, #113, .F. ) ;
#133 = ORIENTED_EDGE ( 'NONE', *, *, #804, .F. ) ;
#134 = PLANE ( 'NONE',  #1008 ) ;
#135 = DIRECTION ( 'NONE',  ( -1.000000000000000000, 0.000000000000000000, -0.000000000000000000 ) ) ;
#136 = VECTOR ( 'NONE', #601, 1000.000000000000227 ) ;
#137 = LINE ( 'NONE', #475, #627 ) ;
#138 = CARTESIAN_POINT ( 'NONE',  ( 0.8750000000000002220, -0.9573203475728212508, 0.5576685299944317276 ) ) ;
#139 = PRODUCT_DEFINITION_CONTEXT ( 'detailed design', #208, 'design' ) ;
#140 = EDGE_LOOP ( 'NONE', ( #40, #583, #1216, #1172, #387, #914, #641, #383, #682, #133, #611, #839 ) ) ;
#141 = ORIENTED_EDGE ( 'NONE', *, *, #720, .T. ) ;
#142 = CARTESIAN_POINT ( 'NONE',  ( 0.000000000000000000, 1.084202172485504434E-16, 0.6998729815800831533 ) ) ;
#143 = ADVANCED_FACE ( 'NONE', ( #1215 ), #1159, .F. ) ;
#144 = ADVANCED_FACE ( 'NONE', ( #331 ), #1173, .F. ) ;
#145 = CARTESIAN_POINT ( 'NONE',  ( 0.8275411632120673877, 0.000000000000000000, 0.000000000000000000 ) ) ;
#146 = CONICAL_SURFACE ( 'NONE', #1074, 1.499999999999990230, 0.7853981633974418397 ) ;
#147 = DIRECTION ( 'NONE',  ( 0.1138834974989063470, 0.3560364475175780141, 0.9275066560604725563 ) ) ;
#148 = VERTEX_POINT ( 'NONE', #421 ) ;
#149 = CARTESIAN_POINT ( 'NONE',  ( 4.994471112842468585, 0.04502917237211651741, 0.04348416629860558935 ) ) ;
#150 = AXIS2_PLACEMENT_3D ( 'NONE', #246, #1085, #162 ) ;
#151 = AXIS2_PLACEMENT_3D ( 'NONE', #671, #498, #21 ) ;
#152 = EDGE_CURVE ( 'NONE', #782, #83, #765, .T. ) ;
#153 = ORIENTED_EDGE ( 'NONE', *, *, #42, .T. ) ;
#154 = CARTESIAN_POINT ( 'NONE',  ( 1.750000000000000000, 0.2984582311920154774, -0.5995673809149001388 ) ) ;
#155 = CYLINDRICAL_SURFACE ( 'NONE', #602, 2.799999999999999378 ) ;
#156 = DIRECTION ( 'NONE',  ( 0.000000000000000000, -0.7071067811865477948, 0.7071067811865472397 ) ) ;
#157 = AXIS2_PLACEMENT_3D ( 'NONE', #1161, #596, #974 ) ;
#158 = ORIENTED_EDGE ( 'NONE', *, *, #1016, .T. ) ;
#159 = CARTESIAN_POINT ( 'NONE',  ( 5.009078719685259529, 0.07394023823922611649, -0.02838299820198920617 ) ) ;
#160 = VERTEX_POINT ( 'NONE', #872 ) ;
#161 = CARTESIAN_POINT ( 'NONE',  ( 3.400000000000000355, 1.836970198721017855E-16, 1.499999999999990230 ) ) ;
#162 = DIRECTION ( 'NONE',  ( 0.000000000000000000, 0.000000000000000000, 1.000000000000000000 ) ) ;
#163 = CARTESIAN_POINT ( 'NONE',  ( 2.399999999999999467, 0.000000000000000000, 1.649999999999999911 ) ) ;
#164 = AXIS2_PLACEMENT_3D ( 'NONE', #912, #545, #715 ) ;
#165 = VECTOR ( 'NONE', #1133, 1000.000000000000114 ) ;
#166 = PLANE ( 'NONE',  #554 ) ;
#167 = CIRCLE ( 'NONE', #845, 1.298999999999999932 ) ;
#168 = FACE_OUTER_BOUND ( 'NONE', #1164, .T. ) ;
#169 = ORIENTED_EDGE ( 'NONE', *, *, #655, .T. ) ;
#170 = DIRECTION ( 'NONE',  ( 0.000000000000000000, 0.000000000000000000, 1.000000000000000000 ) ) ;
#171 = FACE_OUTER_BOUND ( 'NONE', #309, .T. ) ;
#172 = AXIS2_PLACEMENT_3D ( 'NONE', #1051, #247, #352 ) ;
#173 = AXIS2_PLACEMENT_3D ( 'NONE', #1185, #43, #1064 ) ;
#174 = ADVANCED_FACE ( 'NONE', ( #32 ), #470, .T. ) ;
#175 = ORIENTED_EDGE ( 'NONE', *, *, #851, .F. ) ;
#176 = PRODUCT ( 'GB╱T 9074.1-2002[十字槽盘头螺钉（S3）和平垫圈组合件M3×8 10.9 S3 N]', 'GB╱T 9074.1-2002[十字槽盘头螺钉（S3）和平垫圈组合件M3×8 10.9 S3 N]', '', ( #182 ) ) ;
#177 = DIRECTION ( 'NONE',  ( 0.9925461516413219831, -2.152241387803296250E-16, -0.1218693434051473928 ) ) ;
#178 = CARTESIAN_POINT ( 'NONE',  ( 0.8750000000000002220, 0.9573203475728210288, -0.5576685299944313945 ) ) ;
#179 = LINE ( 'NONE', #547, #524 ) ;
#180 = VERTEX_POINT ( 'NONE', #1167 ) ;
#181 = CARTESIAN_POINT ( 'NONE',  ( 1.750000000000000000, 0.5995673809148999167, -0.2984582311920157549 ) ) ;
#182 = PRODUCT_CONTEXT ( 'NONE', #49, 'mechanical' ) ;
#183 = ORIENTED_EDGE ( 'NONE', *, *, #581, .F. ) ;
#184 = CARTESIAN_POINT ( 'NONE',  ( 3.400000000000000355, 1.836970198721023771E-16, -1.499999999999990230 ) ) ;
#185 = EDGE_LOOP ( 'NONE', ( #199, #766, #855, #318 ) ) ;
#186 = ADVANCED_FACE ( 'NONE', ( #400 ), #1063, .F. ) ;
#187 = DIRECTION ( 'NONE',  ( -0.000000000000000000, 0.000000000000000000, -1.000000000000000000 ) ) ;
#188 = CARTESIAN_POINT ( 'NONE',  ( 82.15270800287211728, 0.000000000000000000, 1.499999999999989120 ) ) ;
#189 = AXIS2_PLACEMENT_3D ( 'NONE', #816, #957, #18 ) ;
#190 = FILL_AREA_STYLE_COLOUR ( '', #615 ) ;
#191 = ORIENTED_EDGE ( 'NONE', *, *, #441, .T. ) ;
#192 = DIRECTION ( 'NONE',  ( 0.8926702611364459861, -0.3649776390501308643, -0.2644449429956667874 ) ) ;
#193 = CARTESIAN_POINT ( 'NONE',  ( 3.228289321881351981, 0.000000000000000000, 0.000000000000000000 ) ) ;
#194 = STYLED_ITEM ( 'NONE', ( #610 ), #493 ) ;
#195 = FILL_AREA_STYLE ('',( #190 ) ) ;
#196 = VECTOR ( 'NONE', #1030, 999.9999999999998863 ) ;
#197 = ORIENTED_EDGE ( 'NONE', *, *, #582, .T. ) ;
#198 = DIRECTION ( 'NONE',  ( -0.000000000000000000, 0.3583679495452994357, -0.9335804264972020761 ) ) ;
#199 = ORIENTED_EDGE ( 'NONE', *, *, #822, .F. ) ;
#200 = TOROIDAL_SURFACE ( 'NONE', #1035, 1.649999999999999911, 0.3509999999999999787 ) ;
#201 = ADVANCED_FACE ( 'NONE', ( #171 ), #533, .F. ) ;
#202 = DIRECTION ( 'NONE',  ( 0.9925461516413219831, -1.844778332402824935E-16, -0.1218693434051472402 ) ) ;
#203 = EDGE_LOOP ( 'NONE', ( #56, #1130, #825, #265 ) ) ;
#204 = DIRECTION ( 'NONE',  ( -1.000000000000000000, -0.000000000000000000, -0.000000000000000000 ) ) ;
#205 = CARTESIAN_POINT ( 'NONE',  ( 0.07431333771310642822, 0.2984582311920158104, 0.8053158319546499522 ) ) ;
#206 = VERTEX_POINT ( 'NONE', #446 ) ;
#207 = VERTEX_POINT ( 'NONE', #269 ) ;
#208 = APPLICATION_CONTEXT ( 'automotive_design' ) ;
#209 = DIRECTION ( 'NONE',  ( 0.000000000000000000, 0.6946583704589959218, -0.7193398003386524131 ) ) ;
#210 = AXIS2_PLACEMENT_3D ( 'NONE', #75, #444, #648 ) ;
#211 = VERTEX_POINT ( 'NONE', #1084 ) ;
#212 = AXIS2_PLACEMENT_3D ( 'NONE', #377, #1023, #754 ) ;
#213 = DIRECTION ( 'NONE',  ( 0.000000000000000000, -0.7193398003386518580, 0.6946583704589965880 ) ) ;
#214 = EDGE_CURVE ( 'NONE', #793, #211, #167, .T. ) ;
#215 = ORIENTED_EDGE ( 'NONE', *, *, #84, .T. ) ;
#216 = ORIENTED_EDGE ( 'NONE', *, *, #23, .T. ) ;
#217 = DIRECTION ( 'NONE',  ( 0.9925461516413219831, 1.844778332402824935E-16, 0.1218693434051474345 ) ) ;
#218 = PLANE ( 'NONE',  #157 ) ;
#219 = PLANE ( 'NONE',  #580 ) ;
#220 = CARTESIAN_POINT ( 'NONE',  ( 0.07431333771314212189, 0.2984582311920157549, -0.8053158319546456223 ) ) ;
#221 = EDGE_LOOP ( 'NONE', ( #122, #1061, #494 ) ) ;
#222 = EDGE_LOOP ( 'NONE', ( #183, #593, #191, #141 ) ) ;
#223 = DIRECTION ( 'NONE',  ( 0.08798131281535119530, 0.7165502907562202317, 0.6919645723680248883 ) ) ;
#224 = AXIS2_PLACEMENT_3D ( 'NONE', #142, #147, #514 ) ;
#225 = DIRECTION ( 'NONE',  ( -1.000000000000000000, -0.000000000000000000, -0.000000000000000000 ) ) ;
#226 = FACE_OUTER_BOUND ( 'NONE', #337, .T. ) ;
#227 = DIRECTION ( 'NONE',  ( -0.8926702611364460971, -0.3649776390501308088, 0.2644449429956671205 ) ) ;
#228 = EDGE_CURVE ( 'NONE', #567, #535, #1000, .T. ) ;
#229 = ORIENTED_EDGE ( 'NONE', *, *, #339, .F. ) ;
#230 = ORIENTED_EDGE ( 'NONE', *, *, #965, .F. ) ;
#231 = CARTESIAN_POINT ( 'NONE',  ( 82.15270800287211728, 0.000000000000000000, 0.000000000000000000 ) ) ;
#232 = CARTESIAN_POINT ( 'NONE',  ( 2.399999999999999467, 3.429011037612589276E-16, -2.799999999999999822 ) ) ;
#233 = CARTESIAN_POINT ( 'NONE',  ( -3.442001378349206053, 0.000000000000000000, 1.298999999999999932 ) ) ;
#234 = ORIENTED_EDGE ( 'NONE', *, *, #291, .F. ) ;
#235 = DIRECTION ( 'NONE',  ( 0.000000000000000000, 0.000000000000000000, 1.000000000000000000 ) ) ;
#236 = CARTESIAN_POINT ( 'NONE',  ( 1.750000000000000000, 0.2984582311920154774, 0.5995673809149001388 ) ) ;
#237 = MECHANICAL_DESIGN_GEOMETRIC_PRESENTATION_REPRESENTATION (  '', ( #194 ), #244 ) ;
#238 = EDGE_LOOP ( 'NONE', ( #776, #286, #870 ) ) ;
#239 = DIRECTION ( 'NONE',  ( 0.1138834974989063331, 0.3560364475175780141, 0.9275066560604725563 ) ) ;
#240 = FILL_AREA_STYLE_COLOUR ( '', #1112 ) ;
#241 = CARTESIAN_POINT ( 'NONE',  ( 4.606516183611335968, 0.5580532239357698376, 0.5580532239357703927 ) ) ;
#242 = EDGE_CURVE ( 'NONE', #114, #837, #1189, .T. ) ;
#243 = EDGE_CURVE ( 'NONE', #1022, #415, #888, .T. ) ;
#244 =( GEOMETRIC_REPRESENTATION_CONTEXT ( 3 ) GLOBAL_UNCERTAINTY_ASSIGNED_CONTEXT ( ( #880 ) ) GLOBAL_UNIT_ASSIGNED_CONTEXT ( ( #990, #248, #984 ) ) REPRESENTATION_CONTEXT ( 'NONE', 'WORKASPACE' ) );
#245 = DIRECTION ( 'NONE',  ( 0.000000000000000000, 0.3583679495452990471, -0.9335804264972021871 ) ) ;
#246 = CARTESIAN_POINT ( 'NONE',  ( -3.442001378349206053, 0.000000000000000000, 0.000000000000000000 ) ) ;
#247 = DIRECTION ( 'NONE',  ( 0.1138834974989065690, 0.9275066560604725563, 0.3560364475175776255 ) ) ;
#248 =( NAMED_UNIT ( * ) PLANE_ANGLE_UNIT ( ) SI_UNIT ( $, .RADIAN. ) );
#249 = CIRCLE ( 'NONE', #1044, 5.000000000000000000 ) ;
#250 = AXIS2_PLACEMENT_3D ( 'NONE', #448, #536, #718 ) ;
#251 = CARTESIAN_POINT ( 'NONE',  ( 0.8750000000000002220, 0.5576685299944312835, 0.9573203475728212508 ) ) ;
#252 = ORIENTED_EDGE ( 'NONE', *, *, #1131, .T. ) ;
#253 = LINE ( 'NONE', #272, #271 ) ;
#254 = DIRECTION ( 'NONE',  ( 0.000000000000000000, 1.000000000000000000, 0.000000000000000000 ) ) ;
#255 = CIRCLE ( 'NONE', #482, 4.921617994597914603 ) ;
#256 = LINE ( 'NONE', #347, #734 ) ;
#257 = CARTESIAN_POINT ( 'NONE',  ( 0.9109903399478264108, 0.000000000000000000, 0.000000000000000000 ) ) ;
#258 = ORIENTED_EDGE ( 'NONE', *, *, #70, .F. ) ;
#259 = CARTESIAN_POINT ( 'NONE',  ( 2.399999999999999467, 0.000000000000000000, 0.000000000000000000 ) ) ;
#260 = DIRECTION ( 'NONE',  ( -0.000000000000000000, 0.7071067811865475727, 0.7071067811865474617 ) ) ;
#261 = VECTOR ( 'NONE', #289, 1000.000000000000000 ) ;
#262 = MECHANICAL_DESIGN_GEOMETRIC_PRESENTATION_REPRESENTATION (  '', ( #939 ), #72 ) ;
#263 = CARTESIAN_POINT ( 'NONE',  ( 1.750000000000000000, -5.421010862427522170E-17, 0.4849999999999998757 ) ) ;
#264 = CARTESIAN_POINT ( 'NONE',  ( 2.399999999999999467, 2.799999999999999822, 0.000000000000000000 ) ) ;
#265 = ORIENTED_EDGE ( 'NONE', *, *, #450, .T. ) ;
#266 = CARTESIAN_POINT ( 'NONE',  ( 3.228289321881351981, 1.731827732552307586E-16, 1.328289321881344520 ) ) ;
#267 = CARTESIAN_POINT ( 'NONE',  ( 5.000000000000000000, 0.000000000000000000, 0.000000000000000000 ) ) ;
#268 = CIRCLE ( 'NONE', #328, 4.999364441949703419 ) ;
#269 = CARTESIAN_POINT ( 'NONE',  ( 0.04838825593254968138, 1.065143931172282676E-16, -0.6939316508225477076 ) ) ;
#270 = DIRECTION ( 'NONE',  ( -0.8926702611364462081, 0.3649776390501308088, -0.2644449429956667319 ) ) ;
#271 = VECTOR ( 'NONE', #1013, 1000.000000000000114 ) ;
#272 = CARTESIAN_POINT ( 'NONE',  ( 0.000000000000000000, 1.084202172485504434E-16, -0.6998729815800831533 ) ) ;
#273 = ORIENTED_EDGE ( 'NONE', *, *, #152, .F. ) ;
#274 = CIRCLE ( 'NONE', #523, 4.999605077635992600 ) ;
#275 = DIRECTION ( 'NONE',  ( 0.000000000000000000, 0.000000000000000000, -1.000000000000000000 ) ) ;
#276 = LINE ( 'NONE', #178, #281 ) ;
#277 = DIRECTION ( 'NONE',  ( 1.000000000000000000, 0.000000000000000000, 0.000000000000000000 ) ) ;
#278 = ORIENTED_EDGE ( 'NONE', *, *, #1069, .F. ) ;
#279 = CARTESIAN_POINT ( 'NONE',  ( 0.07431333771310691394, -0.8053158319546499522, 0.2984582311920158659 ) ) ;
#280 = EDGE_CURVE ( 'NONE', #1020, #345, #1011, .T. ) ;
#281 = VECTOR ( 'NONE', #270, 1000.000000000000227 ) ;
#282 = ORIENTED_EDGE ( 'NONE', *, *, #747, .F. ) ;
#283 = ADVANCED_FACE ( 'NONE', ( #355, #168 ), #723, .F. ) ;
#284 = CARTESIAN_POINT ( 'NONE',  ( 1.750000000000000000, -0.5995673809148999167, 0.2984582311920159214 ) ) ;
#285 = DIRECTION ( 'NONE',  ( 0.000000000000000000, 0.000000000000000000, -1.000000000000000000 ) ) ;
#286 = ORIENTED_EDGE ( 'NONE', *, *, #582, .F. ) ;
#287 = LINE ( 'NONE', #473, #1087 ) ;
#288 = EDGE_LOOP ( 'NONE', ( #1096, #638, #88, #9 ) ) ;
#289 = DIRECTION ( 'NONE',  ( -0.4959324508974817802, 0.000000000000000000, 0.8683611023916356642 ) ) ;
#290 = EDGE_LOOP ( 'NONE', ( #759, #76, #399, #258 ) ) ;
#291 = EDGE_CURVE ( 'NONE', #1158, #398, #995, .T. ) ;
#292 = CARTESIAN_POINT ( 'NONE',  ( 0.8275411632120673877, 0.000000000000000000, 0.000000000000000000 ) ) ;
#293 = ADVANCED_FACE ( 'NONE', ( #534 ), #629, .F. ) ;
#294 = SURFACE_STYLE_USAGE ( .BOTH. , #4 ) ;
#295 = DIRECTION ( 'NONE',  ( 0.1138834974989063192, -0.3560364475175776255, -0.9275066560604725563 ) ) ;
#296 = EDGE_CURVE ( 'NONE', #1199, #688, #85, .T. ) ;
#297 = ORIENTED_EDGE ( 'NONE', *, *, #384, .T. ) ;
#298 = CYLINDRICAL_SURFACE ( 'NONE', #926, 1.298999999999999932 ) ;
#299 = AXIS2_PLACEMENT_3D ( 'NONE', #529, #439, #814 ) ;
#300 = CARTESIAN_POINT ( 'NONE',  ( -3.442001378349206053, 0.000000000000000000, 2.799999999999999378 ) ) ;
#301 = ORIENTED_EDGE ( 'NONE', *, *, #504, .F. ) ;
#302 = EDGE_CURVE ( 'NONE', #211, #793, #527, .T. ) ;
#303 = PLANE ( 'NONE',  #1196 ) ;
#304 = ADVANCED_FACE ( 'NONE', ( #1208 ), #841, .T. ) ;
#305 = EDGE_LOOP ( 'NONE', ( #1040, #871, #658, #683 ) ) ;
#306 = CARTESIAN_POINT ( 'NONE',  ( 0.04838825593254938995, 0.6939316508225478186, 0.000000000000000000 ) ) ;
#307 = LINE ( 'NONE', #1122, #784 ) ;
#308 = EDGE_LOOP ( 'NONE', ( #945, #340, #522, #656 ) ) ;
#309 = EDGE_LOOP ( 'NONE', ( #882, #457, #108, #861 ) ) ;
#310 = CARTESIAN_POINT ( 'NONE',  ( 82.40000000000000568, 0.000000000000000000, 0.000000000000000000 ) ) ;
#311 = VECTOR ( 'NONE', #509, 1000.000000000000000 ) ;
#312 = AXIS2_PLACEMENT_3D ( 'NONE', #159, #1088, #819 ) ;
#313 = CIRCLE ( 'NONE', #801, 1.499999999999990230 ) ;
#314 = STYLED_ITEM ( 'NONE', ( #714 ), #890 ) ;
#315 = CARTESIAN_POINT ( 'NONE',  ( 82.15270800287211728, 0.000000000000000000, 0.000000000000000000 ) ) ;
#316 = DIRECTION ( 'NONE',  ( -1.000000000000000000, -0.000000000000000000, -0.000000000000000000 ) ) ;
#317 = ORIENTED_EDGE ( 'NONE', *, *, #1107, .F. ) ;
#318 = ORIENTED_EDGE ( 'NONE', *, *, #1177, .F. ) ;
#319 = PLANE ( 'NONE',  #700 ) ;
#320 = CARTESIAN_POINT ( 'NONE',  ( 4.994471112842468585, -0.04348416629860526322, 0.04502917237211609414 ) ) ;
#321 = EDGE_CURVE ( 'NONE', #1041, #992, #721, .T. ) ;
#322 = AXIS2_PLACEMENT_3D ( 'NONE', #710, #1094, #1204 ) ;
#323 = CARTESIAN_POINT ( 'NONE',  ( -3.442001378349206053, 0.000000000000000000, 0.000000000000000000 ) ) ;
#324 = ORIENTED_EDGE ( 'NONE', *, *, #336, .T. ) ;
#325 = EDGE_LOOP ( 'NONE', ( #619, #1025, #537, #886 ) ) ;
#326 = CARTESIAN_POINT ( 'NONE',  ( 0.000000000000000000, 0.8144403624949831944, 0.2984582311920157549 ) ) ;
#327 = DIRECTION ( 'NONE',  ( -0.4461978145050307654, 0.6328141553137592856, 0.6328141553137598407 ) ) ;
#328 = AXIS2_PLACEMENT_3D ( 'NONE', #588, #239, #385 ) ;
#329 = PLANE ( 'NONE',  #86 ) ;
#330 = VERTEX_POINT ( 'NONE', #736 ) ;
#331 = FACE_OUTER_BOUND ( 'NONE', #858, .T. ) ;
#332 = DIRECTION ( 'NONE',  ( 0.000000000000000000, 0.000000000000000000, -1.000000000000000000 ) ) ;
#333 = CARTESIAN_POINT ( 'NONE',  ( 0.9109903399478264108, 0.000000000000000000, 2.799999999999999378 ) ) ;
#334 = CIRCLE ( 'NONE', #478, 1.298999999999999932 ) ;
#335 = PRODUCT_DEFINITION ( '未知', '', #1007, #139 ) ;
#336 = EDGE_CURVE ( 'NONE', #771, #535, #621, .T. ) ;
#337 = EDGE_LOOP ( 'NONE', ( #125, #91, #361, #273 ) ) ;
#338 = DIRECTION ( 'NONE',  ( 0.000000000000000000, 0.000000000000000000, -1.000000000000000000 ) ) ;
#339 = EDGE_CURVE ( 'NONE', #74, #992, #413, .T. ) ;
#340 = ORIENTED_EDGE ( 'NONE', *, *, #804, .T. ) ;
#341 = DIRECTION ( 'NONE',  ( -1.000000000000000000, -0.000000000000000000, -0.000000000000000000 ) ) ;
#342 = DIRECTION ( 'NONE',  ( 0.000000000000000000, 0.000000000000000000, 1.000000000000000000 ) ) ;
#343 = CARTESIAN_POINT ( 'NONE',  ( 0.000000000000000000, 1.084202172485504434E-16, -0.6998729815800831533 ) ) ;
#344 = DIRECTION ( 'NONE',  ( 0.000000000000000000, 1.000000000000000000, -1.224646799147353207E-16 ) ) ;
#345 = VERTEX_POINT ( 'NONE', #730 ) ;
#346 = FACE_OUTER_BOUND ( 'NONE', #960, .T. ) ;
#347 = CARTESIAN_POINT ( 'NONE',  ( 0.000000000000000000, 0.2984582311920158104, -0.8144403624949830833 ) ) ;
#348 = AXIS2_PLACEMENT_3D ( 'NONE', #315, #15, #964 ) ;
#349 = AXIS2_PLACEMENT_3D ( 'NONE', #149, #668, #209 ) ;
#350 = DIRECTION ( 'NONE',  ( 0.000000000000000000, 0.000000000000000000, 1.000000000000000000 ) ) ;
#351 = ORIENTED_EDGE ( 'NONE', *, *, #1009, .F. ) ;
#352 = DIRECTION ( 'NONE',  ( 0.000000000000000000, -0.3583679495452994357, 0.9335804264972020761 ) ) ;
#353 = ORIENTED_EDGE ( 'NONE', *, *, #1086, .T. ) ;
#354 = EDGE_CURVE ( 'NONE', #782, #898, #908, .T. ) ;
#355 = FACE_BOUND ( 'NONE', #453, .T. ) ;
#356 = EDGE_LOOP ( 'NONE', ( #158, #673, #574, #234 ) ) ;
#357 = EDGE_CURVE ( 'NONE', #666, #24, #991, .T. ) ;
#358 = DIRECTION ( 'NONE',  ( 0.000000000000000000, 0.000000000000000000, 1.000000000000000000 ) ) ;
#359 = DIRECTION ( 'NONE',  ( 0.08798131281535091774, -0.6919645723680251104, -0.7165502907562201207 ) ) ;
#360 = AXIS2_PLACEMENT_3D ( 'NONE', #622, #344, #813 ) ;
#361 = ORIENTED_EDGE ( 'NONE', *, *, #70, .T. ) ;
#362 = DIRECTION ( 'NONE',  ( 1.000000000000000000, 0.000000000000000000, 0.000000000000000000 ) ) ;
#363 =( LENGTH_UNIT ( ) NAMED_UNIT ( * ) SI_UNIT ( .MILLI., .METRE. ) );
#364 =( LENGTH_UNIT ( ) NAMED_UNIT ( * ) SI_UNIT ( .MILLI., .METRE. ) );
#365 = CIRCLE ( 'NONE', #636, 4.999364441949703419 ) ;
#366 = CARTESIAN_POINT ( 'NONE',  ( 3.400000000000000355, 0.000000000000000000, 1.499999999999990230 ) ) ;
#367 = SHAPE_DEFINITION_REPRESENTATION ( #740, #741 ) ;
#368 = EDGE_CURVE ( 'NONE', #630, #805, #885, .T. ) ;
#369 = VERTEX_POINT ( 'NONE', #284 ) ;
#370 = DIRECTION ( 'NONE',  ( 0.000000000000000000, -0.3583679495452993802, -0.9335804264972020761 ) ) ;
#371 = CARTESIAN_POINT ( 'NONE',  ( 5.000000000000000000, 0.000000000000000000, 0.000000000000000000 ) ) ;
#372 = CARTESIAN_POINT ( 'NONE',  ( 1.750000000000000000, 0.5995673809148999167, 0.2984582311920157549 ) ) ;
#373 = ORIENTED_EDGE ( 'NONE', *, *, #1192, .F. ) ;
#374 = DIRECTION ( 'NONE',  ( 0.000000000000000000, 0.000000000000000000, 1.000000000000000000 ) ) ;
#375 = EDGE_LOOP ( 'NONE', ( #644, #31, #1068, #252, #792 ) ) ;
#376 = SURFACE_STYLE_FILL_AREA ( #922 ) ;
#377 = CARTESIAN_POINT ( 'NONE',  ( 4.994471112842468585, 0.04502917237211653823, -0.04348416629860561711 ) ) ;
#378 = ORIENTED_EDGE ( 'NONE', *, *, #431, .T. ) ;
#379 = AXIS2_PLACEMENT_3D ( 'NONE', #1071, #1179, #338 ) ;
#380 = CARTESIAN_POINT ( 'NONE',  ( 1.750000000000000000, -0.4849999999999999867, -1.187907395172932446E-16 ) ) ;
#381 = LINE ( 'NONE', #372, #591 ) ;
#382 = MECHANICAL_DESIGN_GEOMETRIC_PRESENTATION_REPRESENTATION (  '', ( #927 ), #651 ) ;
#383 = ORIENTED_EDGE ( 'NONE', *, *, #764, .F. ) ;
#384 = EDGE_CURVE ( 'NONE', #369, #206, #645, .T. ) ;
#385 = DIRECTION ( 'NONE',  ( 0.000000000000000000, -0.9335804264972020761, 0.3583679495452997688 ) ) ;
#386 = FACE_OUTER_BOUND ( 'NONE', #1103, .T. ) ;
#387 = ORIENTED_EDGE ( 'NONE', *, *, #631, .F. ) ;
#388 = DIRECTION ( 'NONE',  ( 0.000000000000000000, 1.224646799147353207E-16, -1.000000000000000000 ) ) ;
#389 = ORIENTED_EDGE ( 'NONE', *, *, #851, .T. ) ;
#390 = FACE_OUTER_BOUND ( 'NONE', #394, .T. ) ;
#391 = DIRECTION ( 'NONE',  ( 0.08798131281535084836, 0.6919645723680253324, 0.7165502907562198986 ) ) ;
#392 = LINE ( 'NONE', #7, #403 ) ;
#393 = ORIENTED_EDGE ( 'NONE', *, *, #836, .F. ) ;
#394 = EDGE_LOOP ( 'NONE', ( #175, #811, #724, #19 ) ) ;
#395 = DIRECTION ( 'NONE',  ( 0.08798131281535090387, 0.6919645723680254434, -0.7165502907562198986 ) ) ;
#396 = DIRECTION ( 'NONE',  ( -0.000000000000000000, -0.9335804264972015210, -0.3583679495453008235 ) ) ;
#397 = DIRECTION ( 'NONE',  ( 0.000000000000000000, 0.000000000000000000, 1.000000000000000000 ) ) ;
#398 = VERTEX_POINT ( 'NONE', #22 ) ;
#399 = ORIENTED_EDGE ( 'NONE', *, *, #650, .F. ) ;
#400 = FACE_OUTER_BOUND ( 'NONE', #495, .T. ) ;
#401 = EDGE_CURVE ( 'NONE', #330, #666, #1, .T. ) ;
#402 = CARTESIAN_POINT ( 'NONE',  ( 5.000000000000000000, 0.000000000000000000, 0.000000000000000000 ) ) ;
#403 = VECTOR ( 'NONE', #1129, 1000.000000000000227 ) ;
#404 = AXIS2_PLACEMENT_3D ( 'NONE', #1082, #69, #531 ) ;
#405 = AXIS2_PLACEMENT_3D ( 'NONE', #1126, #552, #374 ) ;
#406 = CARTESIAN_POINT ( 'NONE',  ( 0.000000000000000000, 0.8168788287968471451, 1.315073314230742252 ) ) ;
#407 = DIRECTION ( 'NONE',  ( 0.08798131281535118142, 0.7165502907562203427, 0.6919645723680247773 ) ) ;
#408 = ORIENTED_EDGE ( 'NONE', *, *, #1002, .T. ) ;
#409 = ORIENTED_EDGE ( 'NONE', *, *, #443, .T. ) ;
#410 = CARTESIAN_POINT ( 'NONE',  ( 0.000000000000000000, 0.6998729815800832643, 0.000000000000000000 ) ) ;
#411 = DIRECTION ( 'NONE',  ( 0.000000000000000000, -0.7193398003386518580, 0.6946583704589964769 ) ) ;
#412 = CIRCLE ( 'NONE', #544, 4.921617994597914603 ) ;
#413 = CIRCLE ( 'NONE', #1098, 2.799999999999999378 ) ;
#414 = ORIENTED_EDGE ( 'NONE', *, *, #65, .F. ) ;
#415 = VERTEX_POINT ( 'NONE', #11 ) ;
#416 = PLANE ( 'NONE',  #480 ) ;
#417 = DIRECTION ( 'NONE',  ( 0.08798131281535122306, 0.7165502907562202317, -0.6919645723680248883 ) ) ;
#418 = VECTOR ( 'NONE', #316, 1000.000000000000000 ) ;
#419 = EDGE_CURVE ( 'NONE', #94, #148, #307, .T. ) ;
#420 = CARTESIAN_POINT ( 'NONE',  ( 1.750000000000000000, -0.2984582311920153663, 0.5995673809149002498 ) ) ;
#421 = CARTESIAN_POINT ( 'NONE',  ( 1.750000000000000000, 0.5995673809148999167, 0.2984582311920157549 ) ) ;
#422 = EDGE_LOOP ( 'NONE', ( #46, #414, #351 ) ) ;
#423 = FACE_OUTER_BOUND ( 'NONE', #30, .T. ) ;
#424 = DIRECTION ( 'NONE',  ( -0.000000000000000000, 0.000000000000000000, -1.000000000000000000 ) ) ;
#425 = AXIS2_PLACEMENT_3D ( 'NONE', #259, #1200, #358 ) ;
#426 = AXIS2_PLACEMENT_3D ( 'NONE', #58, #359, #1089 ) ;
#427 = AXIS2_PLACEMENT_3D ( 'NONE', #1021, #564, #481 ) ;
#428 = DIRECTION ( 'NONE',  ( 0.000000000000000000, 0.3583679495452994357, 0.9335804264972020761 ) ) ;
#429 = ORIENTED_EDGE ( 'NONE', *, *, #1009, .T. ) ;
#430 = DIRECTION ( 'NONE',  ( 0.000000000000000000, 0.6946583704589960329, -0.7193398003386524131 ) ) ;
#431 = EDGE_CURVE ( 'NONE', #469, #148, #1138, .T. ) ;
#432 = DIRECTION ( 'NONE',  ( 0.000000000000000000, -0.3583679495452993802, -0.9335804264972020761 ) ) ;
#433 = ORIENTED_EDGE ( 'NONE', *, *, #513, .T. ) ;
#434 = CARTESIAN_POINT ( 'NONE',  ( 1.750000000000000000, 0.4849999999999999867, 0.000000000000000000 ) ) ;
#435 = AXIS2_PLACEMENT_3D ( 'NONE', #193, #1123, #285 ) ;
#436 = EDGE_CURVE ( 'NONE', #345, #94, #412, .T. ) ;
#437 = UNCERTAINTY_MEASURE_WITH_UNIT (LENGTH_MEASURE( 1.000000000000000082E-05 ), #1201, 'distance_accuracy_value', 'NONE');
#438 = DIRECTION ( 'NONE',  ( 0.1138834974989065829, -0.9275066560604726673, 0.3560364475175776255 ) ) ;
#439 = DIRECTION ( 'NONE',  ( -1.000000000000000000, -0.000000000000000000, -0.000000000000000000 ) ) ;
#440 =( NAMED_UNIT ( * ) PLANE_ANGLE_UNIT ( ) SI_UNIT ( $, .RADIAN. ) );
#441 = EDGE_CURVE ( 'NONE', #160, #992, #465, .T. ) ;
#442 = CIRCLE ( 'NONE', #379, 0.1000000000000000472 ) ;
#443 = EDGE_CURVE ( 'NONE', #487, #1121, #664, .T. ) ;
#444 = DIRECTION ( 'NONE',  ( -1.000000000000000000, -0.000000000000000000, -0.000000000000000000 ) ) ;
#445 = ADVANCED_FACE ( 'NONE', ( #1039 ), #568, .T. ) ;
#446 = CARTESIAN_POINT ( 'NONE',  ( 1.750000000000000000, -0.4849999999999999867, -1.187907395172932446E-16 ) ) ;
#447 = VERTEX_POINT ( 'NONE', #205 ) ;
#448 = CARTESIAN_POINT ( 'NONE',  ( 0.9109903399478264108, 0.000000000000000000, -2.699999999999999734 ) ) ;
#449 = CIRCLE ( 'NONE', #45, 2.755102040816326703 ) ;
#450 = EDGE_CURVE ( 'NONE', #1211, #1118, #944, .T. ) ;
#451 = DIRECTION ( 'NONE',  ( 1.000000000000000000, 0.000000000000000000, 0.000000000000000000 ) ) ;
#452 = LINE ( 'NONE', #938, #261 ) ;
#453 = EDGE_LOOP ( 'NONE', ( #169, #739 ) ) ;
#454 = EDGE_CURVE ( 'NONE', #571, #755, #1095, .T. ) ;
#455 = CARTESIAN_POINT ( 'NONE',  ( 2.750999999999999002, 0.000000000000000000, 0.000000000000000000 ) ) ;
#456 = FILL_AREA_STYLE ('',( #240 ) ) ;
#457 = ORIENTED_EDGE ( 'NONE', *, *, #655, .F. ) ;
#458 = CIRCLE ( 'NONE', #1049, 2.799999999999999822 ) ;
#459 = SURFACE_SIDE_STYLE ('',( #376 ) ) ;
#460 = CARTESIAN_POINT ( 'NONE',  ( 0.8275411632120673877, 0.000000000000000000, 0.000000000000000000 ) ) ;
#461 = AXIS2_PLACEMENT_3D ( 'NONE', #145, #1175, #121 ) ;
#462 = ORIENTED_EDGE ( 'NONE', *, *, #96, .T. ) ;
#463 = AXIS2_PLACEMENT_3D ( 'NONE', #907, #940, #659 ) ;
#464 = EDGE_LOOP ( 'NONE', ( #378, #119, #592 ) ) ;
#465 = LINE ( 'NONE', #300, #857 ) ;
#466 = VECTOR ( 'NONE', #526, 1000.000000000000114 ) ;
#467 = FACE_OUTER_BOUND ( 'NONE', #777, .T. ) ;
#468 = COLOUR_RGB ( '',0.6470588235294117974, 0.6196078431372549211, 0.5882352941176470784 ) ;
#469 = VERTEX_POINT ( 'NONE', #854 ) ;
#470 = CONICAL_SURFACE ( 'NONE', #904, 1.499999999999989120, 1.051888018552857407 ) ;
#471 = ADVANCED_FACE ( 'NONE', ( #386 ), #146, .T. ) ;
#472 = CARTESIAN_POINT ( 'NONE',  ( 0.000000000000000000, 0.000000000000000000, 0.000000000000000000 ) ) ;
#473 = CARTESIAN_POINT ( 'NONE',  ( 0.8750000000000002220, 0.2984582311920156439, 0.7070038717049416110 ) ) ;
#474 = ORIENTED_EDGE ( 'NONE', *, *, #733, .T. ) ;
#475 = CARTESIAN_POINT ( 'NONE',  ( 0.000000000000000000, -0.2984582311920156439, 0.8144403624949831944 ) ) ;
#476 = DIRECTION ( 'NONE',  ( -0.8926702611364459861, -0.2644449429956668984, -0.3649776390501311418 ) ) ;
#477 = ORIENTED_EDGE ( 'NONE', *, *, #52, .T. ) ;
#478 = AXIS2_PLACEMENT_3D ( 'NONE', #717, #68, #530 ) ;
#479 = AXIS2_PLACEMENT_3D ( 'NONE', #326, #417, #970 ) ;
#480 = AXIS2_PLACEMENT_3D ( 'NONE', #798, #57, #883 ) ;
#481 = DIRECTION ( 'NONE',  ( 0.000000000000000000, 0.000000000000000000, 1.000000000000000000 ) ) ;
#482 = AXIS2_PLACEMENT_3D ( 'NONE', #123, #663, #859 ) ;
#483 = ORIENTED_EDGE ( 'NONE', *, *, #228, .F. ) ;
#484 = LINE ( 'NONE', #1045, #737 ) ;
#485 = DIRECTION ( 'NONE',  ( -1.000000000000000000, -0.000000000000000000, -0.000000000000000000 ) ) ;
#486 = VERTEX_POINT ( 'NONE', #770 ) ;
#487 = VERTEX_POINT ( 'NONE', #181 ) ;
#488 = EDGE_CURVE ( 'NONE', #755, #1041, #449, .T. ) ;
#489 = DIRECTION ( 'NONE',  ( 0.000000000000000000, -1.224646799147352961E-16, 1.000000000000000000 ) ) ;
#490 = ORIENTED_EDGE ( 'NONE', *, *, #10, .F. ) ;
#491 = CARTESIAN_POINT ( 'NONE',  ( 2.399999999999999467, 0.000000000000000000, 0.000000000000000000 ) ) ;
#492 = CARTESIAN_POINT ( 'NONE',  ( 0.8275411632120673877, 0.000000000000000000, -2.755102040816326703 ) ) ;
#493 = ADVANCED_FACE ( 'NONE', ( #743 ), #1083, .T. ) ;
#494 = ORIENTED_EDGE ( 'NONE', *, *, #97, .F. ) ;
#495 = EDGE_LOOP ( 'NONE', ( #14, #353, #1055, #282 ) ) ;
#496 = AXIS2_PLACEMENT_3D ( 'NONE', #696, #968, #985 ) ;
#497 = FACE_OUTER_BOUND ( 'NONE', #742, .T. ) ;
#498 = DIRECTION ( 'NONE',  ( -0.4461978145050307099, 0.6328141553137592856, -0.6328141553137599518 ) ) ;
#499 = ORIENTED_EDGE ( 'NONE', *, *, #1002, .F. ) ;
#500 = ORIENTED_EDGE ( 'NONE', *, *, #604, .F. ) ;
#501 = DIRECTION ( 'NONE',  ( -0.4461978145050307654, 0.6328141553137592856, 0.6328141553137599518 ) ) ;
#502 = CARTESIAN_POINT ( 'NONE',  ( 1.750000000000000000, -5.421010862427522170E-17, 0.4849999999999998757 ) ) ;
#503 = CIRCLE ( 'NONE', #463, 4.999605077635992600 ) ;
#504 = EDGE_CURVE ( 'NONE', #1118, #689, #1102, .T. ) ;
#505 = CARTESIAN_POINT ( 'NONE',  ( 82.15270800287211728, 1.836970198721023031E-16, -1.499999999999989120 ) ) ;
#506 = PLANE ( 'NONE',  #676 ) ;
#507 = VERTEX_POINT ( 'NONE', #1182 ) ;
#508 = ORIENTED_EDGE ( 'NONE', *, *, #336, .F. ) ;
#509 = DIRECTION ( 'NONE',  ( -1.000000000000000000, -0.000000000000000000, -0.000000000000000000 ) ) ;
#510 = ADVANCED_FACE ( 'NONE', ( #978 ), #200, .F. ) ;
#511 = AXIS2_PLACEMENT_3D ( 'NONE', #652, #847, #840 ) ;
#512 = FACE_OUTER_BOUND ( 'NONE', #762, .T. ) ;
#513 = EDGE_CURVE ( 'NONE', #898, #24, #662, .T. ) ;
#514 = DIRECTION ( 'NONE',  ( 0.000000000000000000, -0.9335804264972018540, 0.3583679495452997132 ) ) ;
#515 = ORIENTED_EDGE ( 'NONE', *, *, #1192, .T. ) ;
#516 = CARTESIAN_POINT ( 'NONE',  ( 0.2122292933583081187, 1.228301132161429221, -0.7540079504585240899 ) ) ;
#517 = VECTOR ( 'NONE', #952, 1000.000000000000114 ) ;
#518 = EDGE_CURVE ( 'NONE', #1121, #148, #790, .T. ) ;
#519 = EDGE_LOOP ( 'NONE', ( #1037, #976, #866, #61 ) ) ;
#520 = DIRECTION ( 'NONE',  ( 0.08798131281535116754, -0.7165502907562204538, -0.6919645723680247773 ) ) ;
#521 = DIRECTION ( 'NONE',  ( 0.9925461516413219831, -0.1218693434051474345, 0.000000000000000000 ) ) ;
#522 = ORIENTED_EDGE ( 'NONE', *, *, #242, .F. ) ;
#523 = AXIS2_PLACEMENT_3D ( 'NONE', #879, #684, #411 ) ;
#524 = VECTOR ( 'NONE', #540, 999.9999999999998863 ) ;
#525 = CIRCLE ( 'NONE', #1213, 1.649999999999999911 ) ;
#526 = DIRECTION ( 'NONE',  ( 0.000000000000000000, 0.9335804264972015210, -0.3583679495453008235 ) ) ;
#527 = CIRCLE ( 'NONE', #1166, 1.298999999999999932 ) ;
#528 = CARTESIAN_POINT ( 'NONE',  ( 2.750999999999999002, 0.000000000000000000, 0.000000000000000000 ) ) ;
#529 = CARTESIAN_POINT ( 'NONE',  ( 82.40000000000000568, 0.000000000000000000, 0.000000000000000000 ) ) ;
#530 = DIRECTION ( 'NONE',  ( 0.000000000000000000, 0.000000000000000000, 1.000000000000000000 ) ) ;
#531 = DIRECTION ( 'NONE',  ( 0.000000000000000000, 0.7193398003386518580, 0.6946583704589965880 ) ) ;
#532 = ORIENTED_EDGE ( 'NONE', *, *, #419, .T. ) ;
#533 = TOROIDAL_SURFACE ( 'NONE', #6, 1.649999999999999911, 0.3509999999999999787 ) ;
#534 = FACE_OUTER_BOUND ( 'NONE', #308, .T. ) ;
#535 = VERTEX_POINT ( 'NONE', #306 ) ;
#536 = DIRECTION ( 'NONE',  ( 0.000000000000000000, -1.000000000000000000, 0.000000000000000000 ) ) ;
#537 = ORIENTED_EDGE ( 'NONE', *, *, #1203, .F. ) ;
#538 = ADVANCED_FACE ( 'NONE', ( #1060 ), #1067, .T. ) ;
#539 = DIRECTION ( 'NONE',  ( -0.000000000000000000, 0.000000000000000000, 1.000000000000000000 ) ) ;
#540 = DIRECTION ( 'NONE',  ( 0.000000000000000000, 0.7071067811865479058, -0.7071067811865472397 ) ) ;
#541 = APPLICATION_PROTOCOL_DEFINITION ( 'draft international standard', 'automotive_design', 1998, #208 ) ;
#542 = ORIENTED_EDGE ( 'NONE', *, *, #107, .F. ) ;
#543 = ADVANCED_FACE ( 'NONE', ( #54 ), #329, .F. ) ;
#544 = AXIS2_PLACEMENT_3D ( 'NONE', #657, #95, #756 ) ;
#545 = DIRECTION ( 'NONE',  ( 0.1138834974989063192, -0.3560364475175776255, 0.9275066560604725563 ) ) ;
#546 = CARTESIAN_POINT ( 'NONE',  ( 4.994471112842468585, 0.04348416629860508281, -0.04502917237211594842 ) ) ;
#547 = CARTESIAN_POINT ( 'NONE',  ( 1.750000000000000000, -0.5995673809148999167, -0.2984582311920159214 ) ) ;
#548 = ORIENTED_EDGE ( 'NONE', *, *, #436, .T. ) ;
#549 = DIRECTION ( 'NONE',  ( -1.000000000000000000, -0.000000000000000000, -0.000000000000000000 ) ) ;
#550 = FILL_AREA_STYLE_COLOUR ( '', #468 ) ;
#551 = ORIENTED_EDGE ( 'NONE', *, *, #97, .T. ) ;
#552 = DIRECTION ( 'NONE',  ( -1.000000000000000000, -0.000000000000000000, -0.000000000000000000 ) ) ;
#553 = EDGE_LOOP ( 'NONE', ( #499, #1054, #909, #324, #1029, #876, #17, #551, #153, #892, #429, #920, #67, #955 ) ) ;
#554 = AXIS2_PLACEMENT_3D ( 'NONE', #92, #849, #370 ) ;
#555 = CARTESIAN_POINT ( 'NONE',  ( 3.400000000000000355, 0.000000000000000000, 0.000000000000000000 ) ) ;
#556 = DIRECTION ( 'NONE',  ( 0.000000000000000000, -0.7193398003386520800, -0.6946583704589962549 ) ) ;
#557 = AXIS2_PLACEMENT_3D ( 'NONE', #472, #732, #277 ) ;
#558 = FACE_OUTER_BOUND ( 'NONE', #599, .T. ) ;
#559 = VERTEX_POINT ( 'NONE', #874 ) ;
#560 = DIRECTION ( 'NONE',  ( 0.1138834974989063331, 0.3560364475175780141, -0.9275066560604725563 ) ) ;
#561 = ADVANCED_FACE ( 'NONE', ( #512 ), #1205, .T. ) ;
#562 = EDGE_CURVE ( 'NONE', #1022, #567, #791, .T. ) ;
#563 = VECTOR ( 'NONE', #1004, 1000.000000000000227 ) ;
#564 = DIRECTION ( 'NONE',  ( -1.000000000000000000, -0.000000000000000000, -0.000000000000000000 ) ) ;
#565 = AXIS2_PLACEMENT_3D ( 'NONE', #1117, #560, #103 ) ;
#566 = AXIS2_PLACEMENT_3D ( 'NONE', #55, #1080, #245 ) ;
#567 = VERTEX_POINT ( 'NONE', #585 ) ;
#568 = SPHERICAL_SURFACE ( 'NONE', #719, 5.000000000000000000 ) ;
#569 = VERTEX_POINT ( 'NONE', #420 ) ;
#570 = EDGE_CURVE ( 'NONE', #330, #898, #796, .T. ) ;
#571 = VERTEX_POINT ( 'NONE', #492 ) ;
#572 = FACE_OUTER_BOUND ( 'NONE', #221, .T. ) ;
#573 = DIRECTION ( 'NONE',  ( 1.000000000000000000, 0.000000000000000000, 0.000000000000000000 ) ) ;
#574 = ORIENTED_EDGE ( 'NONE', *, *, #84, .F. ) ;
#575 = EDGE_LOOP ( 'NONE', ( #649, #197, #967, #118 ) ) ;
#576 = DIRECTION ( 'NONE',  ( 0.000000000000000000, 0.9335804264972020761, -0.3583679495452994357 ) ) ;
#577 = AXIS2_PLACEMENT_3D ( 'NONE', #815, #812, #1191 ) ;
#578 = AXIS2_PLACEMENT_3D ( 'NONE', #81, #919, #595 ) ;
#579 = CARTESIAN_POINT ( 'NONE',  ( 2.750999999999999002, 2.020667218593132755E-16, -1.649999999999999911 ) ) ;
#580 = AXIS2_PLACEMENT_3D ( 'NONE', #406, #28, #20 ) ;
#581 = EDGE_CURVE ( 'NONE', #711, #74, #29, .T. ) ;
#582 = EDGE_CURVE ( 'NONE', #415, #688, #781, .T. ) ;
#583 = ORIENTED_EDGE ( 'NONE', *, *, #1151, .F. ) ;
#584 = DIRECTION ( 'NONE',  ( -1.000000000000000000, -0.000000000000000000, -0.000000000000000000 ) ) ;
#585 = CARTESIAN_POINT ( 'NONE',  ( 0.07431333771310691394, 0.8053158319546501742, -0.2984582311920156994 ) ) ;
#586 = VERTEX_POINT ( 'NONE', #220 ) ;
#587 = ORIENTED_EDGE ( 'NONE', *, *, #1036, .F. ) ;
#588 = CARTESIAN_POINT ( 'NONE',  ( 5.009078719685259529, 0.02838299820198966414, 0.07394023823922721284 ) ) ;
#589 = CARTESIAN_POINT ( 'NONE',  ( 5.009078719685259529, -0.02838299820198962944, -0.07394023823922721284 ) ) ;
#591 = VECTOR ( 'NONE', #744, 1000.000000000000000 ) ;
#590 = CARTESIAN_POINT ( 'NONE',  ( 3.400000000000000355, 0.000000000000000000, -1.499999999999990230 ) ) ;
#592 = ORIENTED_EDGE ( 'NONE', *, *, #902, .F. ) ;
#593 = ORIENTED_EDGE ( 'NONE', *, *, #750, .T. ) ;
#594 = DIRECTION ( 'NONE',  ( 0.1138834974989065690, 0.9275066560604725563, -0.3560364475175776255 ) ) ;
#595 = DIRECTION ( 'NONE',  ( 0.000000000000000000, 0.000000000000000000, -1.000000000000000000 ) ) ;
#596 = DIRECTION ( 'NONE',  ( -0.4461978145050308209, -0.6328141553137596187, -0.6328141553137597297 ) ) ;
#597 = DIRECTION ( 'NONE',  ( 0.000000000000000000, 0.000000000000000000, 1.000000000000000000 ) ) ;
#598 = FACE_OUTER_BOUND ( 'NONE', #126, .T. ) ;
#599 = EDGE_LOOP ( 'NONE', ( #1062, #216, #1136, #818 ) ) ;
#600 = ORIENTED_EDGE ( 'NONE', *, *, #77, .F. ) ;
#601 = DIRECTION ( 'NONE',  ( 0.000000000000000000, -0.9335804264972012989, 0.3583679495453013231 ) ) ;
#602 = AXIS2_PLACEMENT_3D ( 'NONE', #1097, #341, #170 ) ;
#603 = ORIENTED_EDGE ( 'NONE', *, *, #99, .T. ) ;
#604 = EDGE_CURVE ( 'NONE', #369, #1127, #1163, .T. ) ;
#605 = LINE ( 'NONE', #502, #136 ) ;
#606 = CARTESIAN_POINT ( 'NONE',  ( -3.442001378349206053, 0.000000000000000000, 0.000000000000000000 ) ) ;
#607 = ORIENTED_EDGE ( 'NONE', *, *, #152, .T. ) ;
#608 = CARTESIAN_POINT ( 'NONE',  ( 0.2122292944384881197, -0.7540079501385310579, -1.228301131719786277 ) ) ;
#609 = AXIS2_PLACEMENT_3D ( 'NONE', #707, #225, #397 ) ;
#610 = PRESENTATION_STYLE_ASSIGNMENT (( #833 ) ) ;
#611 = ORIENTED_EDGE ( 'NONE', *, *, #52, .F. ) ;
#612 = CARTESIAN_POINT ( 'NONE',  ( 1.750000000000000000, 0.5995673809148999167, -0.2984582311920157549 ) ) ;
#613 = AXIS2_PLACEMENT_3D ( 'NONE', #267, #424, #254 ) ;
#614 = ADVANCED_FACE ( 'NONE', ( #598 ), #506, .F. ) ;
#615 = COLOUR_RGB ( '',0.6470588235294117974, 0.6196078431372549211, 0.5882352941176470784 ) ;
#616 = CARTESIAN_POINT ( 'NONE',  ( 0.9109903399478264108, 0.000000000000000000, 0.000000000000000000 ) ) ;
#617 = EDGE_CURVE ( 'NONE', #207, #1199, #253, .T. ) ;
#618 = PLANE ( 'NONE',  #404 ) ;
#619 = ORIENTED_EDGE ( 'NONE', *, *, #650, .T. ) ;
#620 =( LENGTH_UNIT ( ) NAMED_UNIT ( * ) SI_UNIT ( .MILLI., .METRE. ) );
#621 = CIRCLE ( 'NONE', #787, 5.000000000000000000 ) ;
#622 = CARTESIAN_POINT ( 'NONE',  ( 0.9109903399478264108, 3.306546357697853240E-16, 2.699999999999999734 ) ) ;
#623 = ORIENTED_EDGE ( 'NONE', *, *, #562, .F. ) ;
#624 = AXIS2_PLACEMENT_3D ( 'NONE', #546, #646, #556 ) ;
#625 = DIRECTION ( 'NONE',  ( -1.000000000000000000, -0.000000000000000000, -0.000000000000000000 ) ) ;
#626 = AXIS2_PLACEMENT_3D ( 'NONE', #903, #73, #817 ) ;
#627 = VECTOR ( 'NONE', #853, 1000.000000000000114 ) ;
#628 = LINE ( 'NONE', #729, #64 ) ;
#629 = PLANE ( 'NONE',  #164 ) ;
#630 = VERTEX_POINT ( 'NONE', #829 ) ;
#631 = EDGE_CURVE ( 'NONE', #559, #1211, #179, .T. ) ;
#632 = EDGE_CURVE ( 'NONE', #535, #469, #1212, .T. ) ;
#633 = VECTOR ( 'NONE', #260, 1000.000000000000000 ) ;
#634 = CIRCLE ( 'NONE', #112, 2.799999999999999378 ) ;
#635 = DIRECTION ( 'NONE',  ( 1.000000000000000000, 0.000000000000000000, 0.000000000000000000 ) ) ;
#636 = AXIS2_PLACEMENT_3D ( 'NONE', #589, #692, #44 ) ;
#637 = CARTESIAN_POINT ( 'NONE',  ( 0.04838825593254971608, 1.067261513540418427E-16, 0.6939316508225477076 ) ) ;
#638 = ORIENTED_EDGE ( 'NONE', *, *, #518, .T. ) ;
#639 = DIRECTION ( 'NONE',  ( 1.000000000000000000, 0.000000000000000000, 0.000000000000000000 ) ) ;
#640 = CARTESIAN_POINT ( 'NONE',  ( 5.009078719685259529, -0.02838299820198962944, 0.07394023823922721284 ) ) ;
#641 = ORIENTED_EDGE ( 'NONE', *, *, #384, .F. ) ;
#642 =( NAMED_UNIT ( * ) SI_UNIT ( $, .STERADIAN. ) SOLID_ANGLE_UNIT ( ) );
#643 = CIRCLE ( 'NONE', #127, 0.1000000000000000472 ) ;
#644 = ORIENTED_EDGE ( 'NONE', *, *, #321, .F. ) ;
#645 = LINE ( 'NONE', #380, #1057 ) ;
#646 = DIRECTION ( 'NONE',  ( 0.08798131281535090387, -0.6919645723680249993, 0.7165502907562201207 ) ) ;
#647 = EDGE_CURVE ( 'NONE', #805, #630, #334, .T. ) ;
#648 = DIRECTION ( 'NONE',  ( 0.000000000000000000, 0.000000000000000000, 1.000000000000000000 ) ) ;
#649 = ORIENTED_EDGE ( 'NONE', *, *, #243, .T. ) ;
#650 = EDGE_CURVE ( 'NONE', #83, #782, #1111, .T. ) ;
#651 =( GEOMETRIC_REPRESENTATION_CONTEXT ( 3 ) GLOBAL_UNCERTAINTY_ASSIGNED_CONTEXT ( ( #39 ) ) GLOBAL_UNIT_ASSIGNED_CONTEXT ( ( #364, #932, #104 ) ) REPRESENTATION_CONTEXT ( 'NONE', 'WORKASPACE' ) );
#652 = CARTESIAN_POINT ( 'NONE',  ( 3.157578643762697812, 0.000000000000000000, 0.000000000000000000 ) ) ;
#653 = DIRECTION ( 'NONE',  ( 0.1138834974989063192, -0.3560364475175776255, 0.9275066560604725563 ) ) ;
#654 = CIRCLE ( 'NONE', #60, 0.3509999999999999787 ) ;
#655 = EDGE_CURVE ( 'NONE', #1110, #665, #949, .T. ) ;
#656 = ORIENTED_EDGE ( 'NONE', *, *, #42, .F. ) ;
#657 = CARTESIAN_POINT ( 'NONE',  ( 4.606516183611335968, -0.5580532239357700597, -0.5580532239357701707 ) ) ;
#658 = ORIENTED_EDGE ( 'NONE', *, *, #1203, .T. ) ;
#659 = DIRECTION ( 'NONE',  ( 0.000000000000000000, 0.6946583704589960329, 0.7193398003386524131 ) ) ;
#660 = CIRCLE ( 'NONE', #963, 4.999364441949703419 ) ;
#661 = ORIENTED_EDGE ( 'NONE', *, *, #321, .T. ) ;
#662 = CIRCLE ( 'NONE', #609, 1.499999999999990230 ) ;
#663 = DIRECTION ( 'NONE',  ( -0.4461978145050308209, 0.6328141553137593966, -0.6328141553137599518 ) ) ;
#664 = LINE ( 'NONE', #1132, #78 ) ;
#665 = VERTEX_POINT ( 'NONE', #725 ) ;
#666 = VERTEX_POINT ( 'NONE', #266 ) ;
#667 = ADVANCED_FACE ( 'NONE', ( #913 ), #1113, .T. ) ;
#668 = DIRECTION ( 'NONE',  ( 0.08798131281535115367, -0.7165502907562204538, -0.6919645723680246663 ) ) ;
#669 = EDGE_LOOP ( 'NONE', ( #994, #942, #408, #954, #1202, #301, #745, #603, #852, #1144, #935, #831, #901, #508 ) ) ;
#670 = DIRECTION ( 'NONE',  ( -0.4959324508974817802, 1.063435644547983638E-16, -0.8683611023916356642 ) ) ;
#671 = CARTESIAN_POINT ( 'NONE',  ( 1.750000000000000000, -0.5995673809148999167, 0.2984582311920159214 ) ) ;
#672 = DIRECTION ( 'NONE',  ( 0.000000000000000000, 1.000000000000000000, 0.000000000000000000 ) ) ;
#673 = ORIENTED_EDGE ( 'NONE', *, *, #728, .T. ) ;
#674 = ORIENTED_EDGE ( 'NONE', *, *, #889, .F. ) ;
#675 = AXIS2_PLACEMENT_3D ( 'NONE', #786, #223, #1168 ) ;
#676 = AXIS2_PLACEMENT_3D ( 'NONE', #1207, #1006, #712 ) ;
#677 = DIRECTION ( 'NONE',  ( 0.000000000000000000, -0.3583679495452996577, -0.9335804264972018540 ) ) ;
#678 = FACE_OUTER_BOUND ( 'NONE', #1047, .T. ) ;
#679 = TOROIDAL_SURFACE ( 'NONE', #1153, 1.399000000000000021, 0.1000000000000000056 ) ;
#680 = PLANE ( 'NONE',  #834 ) ;
#681 = CARTESIAN_POINT ( 'NONE',  ( 0.8750000000000001110, 0.5576685299944312835, -0.9573203475728212508 ) ) ;
#682 = ORIENTED_EDGE ( 'NONE', *, *, #1086, .F. ) ;
#683 = ORIENTED_EDGE ( 'NONE', *, *, #570, .F. ) ;
#684 = DIRECTION ( 'NONE',  ( 0.08798131281535087611, 0.6919645723680253324, 0.7165502907562200097 ) ) ;
#685 = AXIS2_PLACEMENT_3D ( 'NONE', #1147, #751, #89 ) ;
#686 = CARTESIAN_POINT ( 'NONE',  ( 3.157578643762697812, 1.590816192092411868E-16, -1.298999999999999932 ) ) ;
#687 = CIRCLE ( 'NONE', #435, 1.328289321881344742 ) ;
#688 = VERTEX_POINT ( 'NONE', #154 ) ;
#689 = VERTEX_POINT ( 'NONE', #50 ) ;
#690 = AXIS2_PLACEMENT_3D ( 'NONE', #343, #295, #576 ) ;
#691 = CARTESIAN_POINT ( 'NONE',  ( 0.000000000000000000, -1.315073314230742252, 0.8168788287968474782 ) ) ;
#692 = DIRECTION ( 'NONE',  ( 0.1138834974989063192, -0.3560364475175776255, -0.9275066560604725563 ) ) ;
#693 = ADVANCED_FACE ( 'NONE', ( #423 ), #319, .F. ) ;
#694 = ADVANCED_FACE ( 'NONE', ( #969 ), #134, .T. ) ;
#695 = ORIENTED_EDGE ( 'NONE', *, *, #368, .F. ) ;
#696 = CARTESIAN_POINT ( 'NONE',  ( 82.15270800287211728, 0.000000000000000000, 0.000000000000000000 ) ) ;
#697 = FACE_OUTER_BOUND ( 'NONE', #575, .T. ) ;
#698 = LINE ( 'NONE', #1058, #802 ) ;
#699 = VECTOR ( 'NONE', #521, 1000.000000000000114 ) ;
#700 = AXIS2_PLACEMENT_3D ( 'NONE', #691, #520, #430 ) ;
#701 = VECTOR ( 'NONE', #476, 1000.000000000000000 ) ;
#702 = EDGE_LOOP ( 'NONE', ( #1148, #961, #1190, #1125 ) ) ;
#703 = LINE ( 'NONE', #62, #1066 ) ;
#704 = DIRECTION ( 'NONE',  ( 0.000000000000000000, 0.000000000000000000, -1.000000000000000000 ) ) ;
#705 = CYLINDRICAL_SURFACE ( 'NONE', #150, 1.298999999999999932 ) ;
#706 = LINE ( 'NONE', #612, #633 ) ;
#707 = CARTESIAN_POINT ( 'NONE',  ( 3.400000000000000355, 0.000000000000000000, 0.000000000000000000 ) ) ;
#708 = ADVANCED_FACE ( 'NONE', ( #33 ), #128, .F. ) ;
#709 = ADVANCED_FACE ( 'NONE', ( #697 ), #416, .T. ) ;
#710 = CARTESIAN_POINT ( 'NONE',  ( 4.606516183611335968, -0.5580532239357700597, 0.5580532239357701707 ) ) ;
#711 = VERTEX_POINT ( 'NONE', #232 ) ;
#712 = DIRECTION ( 'NONE',  ( 0.000000000000000000, -0.6946583704589960329, -0.7193398003386524131 ) ) ;
#713 = CARTESIAN_POINT ( 'NONE',  ( 0.04838825593254940383, -0.6939316508225478186, -1.715241718189958187E-16 ) ) ;
#714 = PRESENTATION_STYLE_ASSIGNMENT (( #111 ) ) ;
#715 = DIRECTION ( 'NONE',  ( 0.000000000000000000, -0.9335804264972020761, -0.3583679495452994357 ) ) ;
#716 = DIRECTION ( 'NONE',  ( -0.000000000000000000, 1.000000000000000000, 1.224646799147353207E-16 ) ) ;
#717 = CARTESIAN_POINT ( 'NONE',  ( 3.157578643762697812, 0.000000000000000000, 0.000000000000000000 ) ) ;
#718 = DIRECTION ( 'NONE',  ( 0.000000000000000000, 0.000000000000000000, -1.000000000000000000 ) ) ;
#719 = AXIS2_PLACEMENT_3D ( 'NONE', #371, #187, #672 ) ;
#720 = EDGE_CURVE ( 'NONE', #992, #74, #634, .T. ) ;
#721 = CIRCLE ( 'NONE', #360, 0.09999999999999982514 ) ;
#722 = EDGE_CURVE ( 'NONE', #630, #666, #442, .T. ) ;
#723 = PLANE ( 'NONE',  #1031 ) ;
#724 = ORIENTED_EDGE ( 'NONE', *, *, #1036, .T. ) ;
#725 = CARTESIAN_POINT ( 'NONE',  ( 2.399999999999999467, 2.020667218593132755E-16, -1.649999999999999911 ) ) ;
#726 = CARTESIAN_POINT ( 'NONE',  ( 0.8750000000000002220, 0.7070038717049416110, -0.2984582311920157549 ) ) ;
#727 = VECTOR ( 'NONE', #971, 1000.000000000000000 ) ;
#728 = EDGE_CURVE ( 'NONE', #206, #559, #703, .T. ) ;
#729 = CARTESIAN_POINT ( 'NONE',  ( 0.8750000000000002220, -0.7070038717049416110, 0.2984582311920159770 ) ) ;
#730 = CARTESIAN_POINT ( 'NONE',  ( 0.2122292944384882030, 0.7540079501385311689, 1.228301131719786277 ) ) ;
#731 = LINE ( 'NONE', #923, #1099 ) ;
#732 = DIRECTION ( 'NONE',  ( 0.000000000000000000, 0.000000000000000000, 1.000000000000000000 ) ) ;
#733 = EDGE_CURVE ( 'NONE', #486, #1211, #1050, .T. ) ;
#734 = VECTOR ( 'NONE', #838, 1000.000000000000114 ) ;
#735 = CIRCLE ( 'NONE', #778, 0.3509999999999999787 ) ;
#736 = CARTESIAN_POINT ( 'NONE',  ( 3.228289321881351981, 0.000000000000000000, -1.328289321881344742 ) ) ;
#737 = VECTOR ( 'NONE', #1038, 999.9999999999998863 ) ;
#738 = DIRECTION ( 'NONE',  ( 0.9925461516413219831, 0.1218693434051475871, 3.074630554004708841E-17 ) ) ;
#739 = ORIENTED_EDGE ( 'NONE', *, *, #822, .T. ) ;
#740 = PRODUCT_DEFINITION_SHAPE ( 'NONE', 'NONE',  #335 ) ;
#741 = ADVANCED_BREP_SHAPE_REPRESENTATION ( 'GB╱T 9074.1-2002[十字槽盘头螺钉（S3）和平垫圈组合件M3×8 10.9 S3 N]', ( #105, #557 ), #1090 ) ;
#742 = EDGE_LOOP ( 'NONE', ( #548, #532, #477, #1139 ) ) ;
#743 = FACE_OUTER_BOUND ( 'NONE', #325, .T. ) ;
#744 = DIRECTION ( 'NONE',  ( 0.000000000000000000, -0.7071067811865475727, 0.7071067811865474617 ) ) ;
#745 = ORIENTED_EDGE ( 'NONE', *, *, #1052, .T. ) ;
#746 =( NAMED_UNIT ( * ) PLANE_ANGLE_UNIT ( ) SI_UNIT ( $, .RADIAN. ) );
#747 = EDGE_CURVE ( 'NONE', #114, #1149, #268, .T. ) ;
#748 = EDGE_CURVE ( 'NONE', #1149, #569, #137, .T. ) ;
#749 = ORIENTED_EDGE ( 'NONE', *, *, #441, .F. ) ;
#750 = EDGE_CURVE ( 'Bline2', #711, #160, #458, .T. ) ;
#751 = DIRECTION ( 'NONE',  ( 1.000000000000000000, 0.000000000000000000, 0.000000000000000000 ) ) ;
#752 = DIRECTION ( 'NONE',  ( 0.000000000000000000, -0.9335804264972020761, -0.3583679495452993802 ) ) ;
#753 = SURFACE_STYLE_FILL_AREA ( #456 ) ;
#754 = DIRECTION ( 'NONE',  ( 0.000000000000000000, -0.6946583704589960329, -0.7193398003386524131 ) ) ;
#755 = VERTEX_POINT ( 'NONE', #37 ) ;
#756 = DIRECTION ( 'NONE',  ( 0.000000000000000000, 0.7071067811865476838, -0.7071067811865473507 ) ) ;
#757 = CARTESIAN_POINT ( 'NONE',  ( 0.2122292933583078134, 1.228301132161429221, 0.7540079504585240899 ) ) ;
#758 = DIRECTION ( 'NONE',  ( -1.000000000000000000, -0.000000000000000000, -0.000000000000000000 ) ) ;
#759 = ORIENTED_EDGE ( 'NONE', *, *, #965, .T. ) ;
#760 = FACE_OUTER_BOUND ( 'NONE', #140, .T. ) ;
#761 = EDGE_CURVE ( 'NONE', #507, #782, #780, .T. ) ;
#762 = EDGE_LOOP ( 'NONE', ( #317, #661, #229, #41, #600 ) ) ;
#763 = DIRECTION ( 'NONE',  ( 0.9925461516413219831, 0.1218693434051475871, -3.074630554004708841E-17 ) ) ;
#764 = EDGE_CURVE ( 'NONE', #569, #369, #484, .T. ) ;
#765 = CIRCLE ( 'NONE', #496, 1.499999999999989120 ) ;
#766 = ORIENTED_EDGE ( 'NONE', *, *, #1070, .T. ) ;
#767 = VECTOR ( 'NONE', #1176, 999.9999999999998863 ) ;
#768 = LINE ( 'NONE', #1197, #899 ) ;
#769 = CARTESIAN_POINT ( 'NONE',  ( 0.9109903399478264108, 0.000000000000000000, 0.000000000000000000 ) ) ;
#770 = CARTESIAN_POINT ( 'NONE',  ( 0.07431333771310640046, -0.2984582311920156994, -0.8053158319546501742 ) ) ;
#771 = VERTEX_POINT ( 'NONE', #959 ) ;
#772 = ORIENTED_EDGE ( 'NONE', *, *, #863, .T. ) ;
#773 = PLANE ( 'NONE',  #172 ) ;
#774 = CARTESIAN_POINT ( 'NONE',  ( 1.750000000000000000, -5.421010862427522170E-17, 0.4849999999999998757 ) ) ;
#775 = DIRECTION ( 'NONE',  ( 1.000000000000000000, 0.000000000000000000, 0.000000000000000000 ) ) ;
#776 = ORIENTED_EDGE ( 'NONE', *, *, #921, .T. ) ;
#777 = EDGE_LOOP ( 'NONE', ( #1165, #695, #924, #982 ) ) ;
#778 = AXIS2_PLACEMENT_3D ( 'NONE', #579, #962, #489 ) ;
#779 = FACE_OUTER_BOUND ( 'NONE', #110, .T. ) ;
#780 = LINE ( 'NONE', #943, #1181 ) ;
#781 = LINE ( 'NONE', #681, #727 ) ;
#782 = VERTEX_POINT ( 'NONE', #505 ) ;
#783 = EDGE_LOOP ( 'NONE', ( #973, #389, #986, #587 ) ) ;
#784 = VECTOR ( 'NONE', #192, 1000.000000000000114 ) ;
#785 = DIRECTION ( 'NONE',  ( -1.000000000000000000, -0.000000000000000000, -0.000000000000000000 ) ) ;
#786 = CARTESIAN_POINT ( 'NONE',  ( 0.000000000000000000, 1.315073314230742030, -0.8168788287968468120 ) ) ;
#787 = AXIS2_PLACEMENT_3D ( 'NONE', #823, #1116, #639 ) ;
#788 = ADVANCED_FACE ( 'NONE', ( #226 ), #1091, .T. ) ;
#789 = ADVANCED_FACE ( 'NONE', ( #760 ), #680, .T. ) ;
#790 = LINE ( 'NONE', #38, #517 ) ;
#791 = CIRCLE ( 'NONE', #826, 4.999605077635992600 ) ;
#792 = ORIENTED_EDGE ( 'NONE', *, *, #720, .F. ) ;
#793 = VERTEX_POINT ( 'NONE', #1137 ) ;
#794 = CARTESIAN_POINT ( 'NONE',  ( 0.9109903399478264108, 0.000000000000000000, 0.000000000000000000 ) ) ;
#795 = DIRECTION ( 'NONE',  ( -0.000000000000000000, 0.000000000000000000, 1.000000000000000000 ) ) ;
#796 = LINE ( 'NONE', #590, #767 ) ;
#797 = ORIENTED_EDGE ( 'NONE', *, *, #750, .F. ) ;
#798 = CARTESIAN_POINT ( 'NONE',  ( 1.750000000000000000, 0.5995673809148999167, -0.2984582311920157549 ) ) ;
#799 = CARTESIAN_POINT ( 'NONE',  ( 1.750000000000000000, -0.2984582311920153663, -0.5995673809149002498 ) ) ;
#800 = VECTOR ( 'NONE', #227, 1000.000000000000114 ) ;
#801 = AXIS2_PLACEMENT_3D ( 'NONE', #988, #625, #820 ) ;
#802 = VECTOR ( 'NONE', #864, 1000.000000000000000 ) ;
#803 = ADVANCED_FACE ( 'Bface2', ( #390 ), #298, .T. ) ;
#804 = EDGE_CURVE ( 'NONE', #1020, #837, #1154, .T. ) ;
#805 = VERTEX_POINT ( 'NONE', #686 ) ;
#806 = DIRECTION ( 'NONE',  ( 0.000000000000000000, -0.7071067811865479058, 0.7071067811865471286 ) ) ;
#807 = SPHERICAL_SURFACE ( 'NONE', #613, 5.000000000000000000 ) ;
#808 = CARTESIAN_POINT ( 'NONE',  ( 2.750999999999999002, 0.000000000000000000, 0.000000000000000000 ) ) ;
#809 = CARTESIAN_POINT ( 'NONE',  ( 5.009078719685259529, -0.07394023823922615812, 0.02838299820198922005 ) ) ;
#810 = AXIS2_PLACEMENT_3D ( 'NONE', #410, #594, #428 ) ;
#811 = ORIENTED_EDGE ( 'NONE', *, *, #647, .T. ) ;
#812 = DIRECTION ( 'NONE',  ( -1.000000000000000000, -0.000000000000000000, -0.000000000000000000 ) ) ;
#813 = DIRECTION ( 'NONE',  ( 0.000000000000000000, 1.224646799147353454E-16, 1.000000000000000000 ) ) ;
#814 = DIRECTION ( 'NONE',  ( 0.000000000000000000, 0.000000000000000000, 1.000000000000000000 ) ) ;
#815 = CARTESIAN_POINT ( 'NONE',  ( 82.15270800287211728, 0.000000000000000000, 0.000000000000000000 ) ) ;
#816 = CARTESIAN_POINT ( 'NONE',  ( 3.157578643762697812, 0.000000000000000000, 0.000000000000000000 ) ) ;
#817 = DIRECTION ( 'NONE',  ( 0.000000000000000000, -0.3583679495452993802, 0.9335804264972020761 ) ) ;
#818 = ORIENTED_EDGE ( 'NONE', *, *, #722, .F. ) ;
#819 = DIRECTION ( 'NONE',  ( 0.000000000000000000, 0.3583679495452993802, 0.9335804264972020761 ) ) ;
#820 = DIRECTION ( 'NONE',  ( 0.000000000000000000, 0.000000000000000000, 1.000000000000000000 ) ) ;
#821 = EDGE_CURVE ( 'NONE', #1127, #180, #255, .T. ) ;
#822 = EDGE_CURVE ( 'NONE', #665, #1110, #525, .T. ) ;
#823 = CARTESIAN_POINT ( 'NONE',  ( 5.000000000000000000, 0.000000000000000000, 0.000000000000000000 ) ) ;
#824 = CARTESIAN_POINT ( 'NONE',  ( 0.8749999999999998890, -0.5576685299944311724, 0.9573203475728215839 ) ) ;
#825 = ORIENTED_EDGE ( 'NONE', *, *, #631, .T. ) ;
#826 = AXIS2_PLACEMENT_3D ( 'NONE', #1046, #407, #868 ) ;
#827 = DIRECTION ( 'NONE',  ( 1.000000000000000000, 0.000000000000000000, 0.000000000000000000 ) ) ;
#828 = DIRECTION ( 'NONE',  ( 0.000000000000000000, -1.224646799147353207E-16, 1.000000000000000000 ) ) ;
#829 = CARTESIAN_POINT ( 'NONE',  ( 3.157578643762697812, 0.000000000000000000, 1.298999999999999932 ) ) ;
#830 = ADVANCED_FACE ( 'NONE', ( #572 ), #219, .F. ) ;
#831 = ORIENTED_EDGE ( 'NONE', *, *, #562, .T. ) ;
#832 = CIRCLE ( 'NONE', #210, 1.066999999999999504 ) ;
#833 = SURFACE_STYLE_USAGE ( .BOTH. , #459 ) ;
#834 = AXIS2_PLACEMENT_3D ( 'NONE', #1162, #1145, #131 ) ;
#835 = DIRECTION ( 'NONE',  ( 0.000000000000000000, 0.000000000000000000, -1.000000000000000000 ) ) ;
#836 = EDGE_CURVE ( 'NONE', #535, #1121, #768, .T. ) ;
#837 = VERTEX_POINT ( 'NONE', #263 ) ;
#838 = DIRECTION ( 'NONE',  ( 0.9925461516413219831, -2.152241387803296250E-16, 0.1218693434051473928 ) ) ;
#839 = ORIENTED_EDGE ( 'NONE', *, *, #518, .F. ) ;
#840 = DIRECTION ( 'NONE',  ( 0.000000000000000000, 0.000000000000000000, 1.000000000000000000 ) ) ;
#841 = TOROIDAL_SURFACE ( 'NONE', #937, 2.699999999999999734, 0.1000000000000000056 ) ;
#842 =( NAMED_UNIT ( * ) PLANE_ANGLE_UNIT ( ) SI_UNIT ( $, .RADIAN. ) );
#843 = CYLINDRICAL_SURFACE ( 'NONE', #59, 2.799999999999999378 ) ;
#844 = CIRCLE ( 'NONE', #624, 4.999605077635992600 ) ;
#845 = AXIS2_PLACEMENT_3D ( 'NONE', #1101, #635, #1105 ) ;
#846 = ORIENTED_EDGE ( 'NONE', *, *, #99, .F. ) ;
#847 = DIRECTION ( 'NONE',  ( -1.000000000000000000, -0.000000000000000000, -0.000000000000000000 ) ) ;
#848 = CARTESIAN_POINT ( 'NONE',  ( 5.009078719685259529, -0.07394023823922619976, -0.02838299820198920270 ) ) ;
#849 = DIRECTION ( 'NONE',  ( 0.1138834974989065829, -0.9275066560604725563, 0.3560364475175776255 ) ) ;
#850 = EDGE_CURVE ( 'NONE', #881, #369, #628, .T. ) ;
#851 = EDGE_CURVE ( 'NONE', #805, #211, #916, .T. ) ;
#852 = ORIENTED_EDGE ( 'NONE', *, *, #997, .T. ) ;
#853 = DIRECTION ( 'NONE',  ( 0.9925461516413219831, 1.537315277002354605E-16, -0.1218693434051473928 ) ) ;
#854 = CARTESIAN_POINT ( 'NONE',  ( 0.07431333771314230230, 0.8053158319546457333, 0.2984582311920156994 ) ) ;
#855 = ORIENTED_EDGE ( 'NONE', *, *, #214, .F. ) ;
#856 = SURFACE_SIDE_STYLE ('',( #13 ) ) ;
#857 = VECTOR ( 'NONE', #16, 1000.000000000000000 ) ;
#858 = EDGE_LOOP ( 'NONE', ( #1171, #297, #47, #542 ) ) ;
#859 = DIRECTION ( 'NONE',  ( 0.000000000000000000, 0.7071067811865477948, 0.7071067811865471286 ) ) ;
#860 = DIRECTION ( 'NONE',  ( 0.000000000000000000, 0.000000000000000000, -1.000000000000000000 ) ) ;
#861 = ORIENTED_EDGE ( 'NONE', *, *, #302, .F. ) ;
#862 = EDGE_LOOP ( 'NONE', ( #2, #607, #948, #1032 ) ) ;
#863 = EDGE_CURVE ( 'NONE', #1211, #1199, #392, .T. ) ;
#864 = DIRECTION ( 'NONE',  ( -1.000000000000000000, -0.000000000000000000, -0.000000000000000000 ) ) ;
#865 = CLOSED_SHELL ( 'NONE', ( #174, #979, #561, #510, #667, #8, #1119, #1114, #493, #890, #445, #915, #283, #803, #471, #201, #304, #878, #788, #1056, #1017, #1109, #709, #143, #1079, #1033, #830, #293, #186, #543, #538, #693, #144, #869, #614, #694, #1183, #708, #120, #1120, #789 ) ) ;
#866 = ORIENTED_EDGE ( 'NONE', *, *, #764, .T. ) ;
#867 = DIRECTION ( 'NONE',  ( 0.000000000000000000, 0.000000000000000000, 1.000000000000000000 ) ) ;
#868 = DIRECTION ( 'NONE',  ( 0.000000000000000000, -0.6946583704589960329, 0.7193398003386524131 ) ) ;
#869 = ADVANCED_FACE ( 'NONE', ( #996 ), #166, .F. ) ;
#870 = ORIENTED_EDGE ( 'NONE', *, *, #981, .F. ) ;
#871 = ORIENTED_EDGE ( 'NONE', *, *, #357, .T. ) ;
#872 = CARTESIAN_POINT ( 'NONE',  ( 2.399999999999999467, 0.000000000000000000, 2.799999999999999822 ) ) ;
#873 = DIRECTION ( 'NONE',  ( 0.000000000000000000, 0.7193398003386517470, 0.6946583704589966990 ) ) ;
#874 = CARTESIAN_POINT ( 'NONE',  ( 1.750000000000000000, -0.5995673809148999167, -0.2984582311920159214 ) ) ;
#875 = ORIENTED_EDGE ( 'NONE', *, *, #581, .T. ) ;
#876 = ORIENTED_EDGE ( 'NONE', *, *, #902, .T. ) ;
#877 = AXIS2_PLACEMENT_3D ( 'NONE', #320, #395, #873 ) ;
#878 = ADVANCED_FACE ( 'NONE', ( #467 ), #679, .F. ) ;
#879 = CARTESIAN_POINT ( 'NONE',  ( 4.994471112842468585, -0.04348416629860495097, -0.04502917237211579576 ) ) ;
#880 = UNCERTAINTY_MEASURE_WITH_UNIT (LENGTH_MEASURE( 1.000000000000000082E-05 ), #990, 'distance_accuracy_value', 'NONE');
#881 = VERTEX_POINT ( 'NONE', #279 ) ;
#882 = ORIENTED_EDGE ( 'NONE', *, *, #1070, .F. ) ;
#883 = DIRECTION ( 'NONE',  ( 0.000000000000000000, -0.7071067811865475727, -0.7071067811865474617 ) ) ;
#884 = CARTESIAN_POINT ( 'NONE',  ( 0.000000000000000000, -0.6998729815800832643, -1.714194413403527111E-16 ) ) ;
#885 = CIRCLE ( 'NONE', #511, 1.298999999999999932 ) ;
#886 = ORIENTED_EDGE ( 'NONE', *, *, #998, .F. ) ;
#887 = FACE_OUTER_BOUND ( 'NONE', #905, .T. ) ;
#888 = CIRCLE ( 'NONE', #322, 4.921617994597914603 ) ;
#889 = EDGE_CURVE ( 'NONE', #398, #689, #115, .T. ) ;
#890 = ADVANCED_FACE ( 'NONE', ( #1135 ), #1028, .T. ) ;
#891 = UNCERTAINTY_MEASURE_WITH_UNIT (LENGTH_MEASURE( 1.000000000000000082E-05 ), #620, 'distance_accuracy_value', 'NONE');
#892 = ORIENTED_EDGE ( 'NONE', *, *, #747, .T. ) ;
#893 = TOROIDAL_SURFACE ( 'NONE', #189, 1.399000000000000021, 0.1000000000000000056 ) ;
#894 = CARTESIAN_POINT ( 'NONE',  ( 1.750000000000000000, -0.2984582311920153663, -0.5995673809149002498 ) ) ;
#895 = CARTESIAN_POINT ( 'NONE',  ( 0.07431333771314195535, -0.2984582311920156439, 0.8053158319546458443 ) ) ;
#896 = PLANE ( 'NONE',  #690 ) ;
#897 = PRESENTATION_LAYER_ASSIGNMENT (  '', '', ( #927 ) ) ;
#898 = VERTEX_POINT ( 'NONE', #184 ) ;
#899 = VECTOR ( 'NONE', #1100, 1000.000000000000114 ) ;
#900 = CARTESIAN_POINT ( 'NONE',  ( -3.442001378349206053, 1.836970198721029441E-16, -1.499999999999999556 ) ) ;
#901 = ORIENTED_EDGE ( 'NONE', *, *, #228, .T. ) ;
#902 = EDGE_CURVE ( 'NONE', #469, #94, #503, .T. ) ;
#903 = CARTESIAN_POINT ( 'NONE',  ( 5.009078719685259529, 0.07394023823922611649, 0.02838299820198920617 ) ) ;
#904 = AXIS2_PLACEMENT_3D ( 'NONE', #231, #785, #235 ) ;
#905 = EDGE_LOOP ( 'NONE', ( #966, #875, #101, #749 ) ) ;
#906 = LINE ( 'NONE', #726, #699 ) ;
#907 = CARTESIAN_POINT ( 'NONE',  ( 4.994471112842468585, -0.04502917237211678109, 0.04348416629860585997 ) ) ;
#908 = LINE ( 'NONE', #900, #48 ) ;
#909 = ORIENTED_EDGE ( 'NONE', *, *, #1107, .T. ) ;
#910 = FACE_OUTER_BOUND ( 'NONE', #238, .T. ) ;
#911 = EDGE_CURVE ( 'Bline2', #160, #711, #930, .T. ) ;
#912 = CARTESIAN_POINT ( 'NONE',  ( 0.000000000000000000, 1.084202172485504434E-16, 0.6998729815800831533 ) ) ;
#913 = FACE_OUTER_BOUND ( 'NONE', #305, .T. ) ;
#914 = ORIENTED_EDGE ( 'NONE', *, *, #728, .F. ) ;
#915 = ADVANCED_FACE ( 'NONE', ( #925 ), #843, .T. ) ;
#916 = LINE ( 'NONE', #71, #1160 ) ;
#917 = DIRECTION ( 'NONE',  ( -1.000000000000000000, 0.000000000000000000, -0.000000000000000000 ) ) ;
#918 = PRESENTATION_LAYER_ASSIGNMENT (  '', '', ( #939 ) ) ;
#919 = DIRECTION ( 'NONE',  ( 1.000000000000000000, 0.000000000000000000, 0.000000000000000000 ) ) ;
#920 = ORIENTED_EDGE ( 'NONE', *, *, #821, .F. ) ;
#921 = EDGE_CURVE ( 'NONE', #586, #688, #256, .T. ) ;
#922 = FILL_AREA_STYLE ('',( #929 ) ) ;
#923 = CARTESIAN_POINT ( 'NONE',  ( 0.8749999999999998890, -0.9573203475728212508, -0.5576685299944317276 ) ) ;
#924 = ORIENTED_EDGE ( 'NONE', *, *, #722, .T. ) ;
#925 = FACE_OUTER_BOUND ( 'NONE', #222, .T. ) ;
#926 = AXIS2_PLACEMENT_3D ( 'NONE', #323, #584, #1053 ) ;
#927 = STYLED_ITEM ( 'NONE', ( #82 ), #741 ) ;
#928 = EDGE_LOOP ( 'NONE', ( #474, #772, #1178, #846 ) ) ;
#929 = FILL_AREA_STYLE_COLOUR ( '', #975 ) ;
#930 = CIRCLE ( 'NONE', #405, 2.799999999999999822 ) ;
#931 = PRESENTATION_STYLE_ASSIGNMENT (( #294 ) ) ;
#932 =( NAMED_UNIT ( * ) PLANE_ANGLE_UNIT ( ) SI_UNIT ( $, .RADIAN. ) );
#933 = DIRECTION ( 'NONE',  ( 0.000000000000000000, 0.000000000000000000, 1.000000000000000000 ) ) ;
#934 = VECTOR ( 'NONE', #936, 1000.000000000000114 ) ;
#935 = ORIENTED_EDGE ( 'NONE', *, *, #243, .F. ) ;
#936 = DIRECTION ( 'NONE',  ( 0.9925461516413219831, -0.1218693434051475871, 0.000000000000000000 ) ) ;
#937 = AXIS2_PLACEMENT_3D ( 'NONE', #257, #451, #275 ) ;
#938 = CARTESIAN_POINT ( 'NONE',  ( 82.15270800287211728, 0.000000000000000000, 1.499999999999989120 ) ) ;
#939 = STYLED_ITEM ( 'NONE', ( #931 ), #105 ) ;
#940 = DIRECTION ( 'NONE',  ( 0.08798131281535120918, 0.7165502907562203427, -0.6919645723680247773 ) ) ;
#941 = AXIS2_PLACEMENT_3D ( 'NONE', #241, #327, #156 ) ;
#942 = ORIENTED_EDGE ( 'NONE', *, *, #454, .T. ) ;
#943 = CARTESIAN_POINT ( 'NONE',  ( 82.15270800287211728, 1.836970198721016622E-16, -1.499999999999989120 ) ) ;
#944 = LINE ( 'NONE', #3, #701 ) ;
#945 = ORIENTED_EDGE ( 'NONE', *, *, #947, .T. ) ;
#946 = CARTESIAN_POINT ( 'NONE',  ( 3.157578643762697812, 0.000000000000000000, 0.000000000000000000 ) ) ;
#947 = EDGE_CURVE ( 'NONE', #447, #1020, #287, .T. ) ;
#948 = ORIENTED_EDGE ( 'NONE', *, *, #998, .T. ) ;
#949 = CIRCLE ( 'NONE', #425, 1.649999999999999911 ) ;
#950 = CARTESIAN_POINT ( 'NONE',  ( 2.399999999999999467, 0.000000000000000000, 0.000000000000000000 ) ) ;
#951 = CIRCLE ( 'NONE', #461, 2.755102040816326703 ) ;
#952 = DIRECTION ( 'NONE',  ( 0.000000000000000000, 0.3583679495452997132, 0.9335804264972018540 ) ) ;
#953 = DIRECTION ( 'NONE',  ( 0.000000000000000000, 0.000000000000000000, -1.000000000000000000 ) ) ;
#954 = ORIENTED_EDGE ( 'NONE', *, *, #291, .T. ) ;
#955 = ORIENTED_EDGE ( 'NONE', *, *, #107, .T. ) ;
#956 = CIRCLE ( 'NONE', #349, 4.999605077635992600 ) ;
#957 = DIRECTION ( 'NONE',  ( -1.000000000000000000, -0.000000000000000000, -0.000000000000000000 ) ) ;
#958 = ORIENTED_EDGE ( 'NONE', *, *, #35, .F. ) ;
#959 = CARTESIAN_POINT ( 'NONE',  ( 0.8275411632120673877, 2.755102040816327147, 0.000000000000000000 ) ) ;
#960 = EDGE_LOOP ( 'NONE', ( #27, #1075, #1015 ) ) ;
#961 = ORIENTED_EDGE ( 'NONE', *, *, #296, .T. ) ;
#962 = DIRECTION ( 'NONE',  ( -0.000000000000000000, 1.000000000000000000, 1.224646799147353207E-16 ) ) ;
#963 = AXIS2_PLACEMENT_3D ( 'NONE', #640, #653, #752 ) ;
#964 = DIRECTION ( 'NONE',  ( 0.000000000000000000, 0.000000000000000000, 1.000000000000000000 ) ) ;
#965 = EDGE_CURVE ( 'NONE', #25, #507, #832, .T. ) ;
#966 = ORIENTED_EDGE ( 'NONE', *, *, #911, .T. ) ;
#967 = ORIENTED_EDGE ( 'NONE', *, *, #1151, .T. ) ;
#968 = DIRECTION ( 'NONE',  ( -1.000000000000000000, -0.000000000000000000, -0.000000000000000000 ) ) ;
#969 = FACE_OUTER_BOUND ( 'NONE', #203, .T. ) ;
#970 = DIRECTION ( 'NONE',  ( 0.000000000000000000, 0.6946583704589961439, 0.7193398003386521911 ) ) ;
#971 = DIRECTION ( 'NONE',  ( 0.8926702611364459861, -0.2644449429956672315, 0.3649776390501308643 ) ) ;
#972 = ORIENTED_EDGE ( 'NONE', *, *, #570, .T. ) ;
#973 = ORIENTED_EDGE ( 'NONE', *, *, #368, .T. ) ;
#974 = DIRECTION ( 'NONE',  ( 0.000000000000000000, 0.7071067811865475727, -0.7071067811865474617 ) ) ;
#975 = COLOUR_RGB ( '',0.6470588235294117974, 0.6196078431372549211, 0.5882352941176470784 ) ;
#976 = ORIENTED_EDGE ( 'NONE', *, *, #65, .T. ) ;
#977 = FACE_OUTER_BOUND ( 'NONE', #1043, .T. ) ;
#978 = FACE_OUTER_BOUND ( 'NONE', #185, .T. ) ;
#979 = ADVANCED_FACE ( 'NONE', ( #558 ), #893, .F. ) ;
#980 = CIRCLE ( 'NONE', #5, 2.755102040816326703 ) ;
#981 = EDGE_CURVE ( 'NONE', #586, #415, #90, .T. ) ;
#982 = ORIENTED_EDGE ( 'NONE', *, *, #401, .F. ) ;
#983 = PLANE ( 'NONE',  #426 ) ;
#984 =( NAMED_UNIT ( * ) SI_UNIT ( $, .STERADIAN. ) SOLID_ANGLE_UNIT ( ) );
#985 = DIRECTION ( 'NONE',  ( 0.000000000000000000, 0.000000000000000000, 1.000000000000000000 ) ) ;
#986 = ORIENTED_EDGE ( 'NONE', *, *, #302, .T. ) ;
#987 = MECHANICAL_DESIGN_GEOMETRIC_PRESENTATION_REPRESENTATION (  '', ( #314 ), #989 ) ;
#988 = CARTESIAN_POINT ( 'NONE',  ( 3.400000000000000355, 0.000000000000000000, 0.000000000000000000 ) ) ;
#989 =( GEOMETRIC_REPRESENTATION_CONTEXT ( 3 ) GLOBAL_UNCERTAINTY_ASSIGNED_CONTEXT ( ( #891 ) ) GLOBAL_UNIT_ASSIGNED_CONTEXT ( ( #620, #746, #642 ) ) REPRESENTATION_CONTEXT ( 'NONE', 'WORKASPACE' ) );
#990 =( LENGTH_UNIT ( ) NAMED_UNIT ( * ) SI_UNIT ( .MILLI., .METRE. ) );
#991 = LINE ( 'NONE', #161, #196 ) ;
#992 = VERTEX_POINT ( 'NONE', #333 ) ;
#993 = FACE_OUTER_BOUND ( 'NONE', #669, .T. ) ;
#994 = ORIENTED_EDGE ( 'NONE', *, *, #77, .T. ) ;
#995 = CIRCLE ( 'NONE', #100, 4.999364441949703419 ) ;
#996 = FACE_OUTER_BOUND ( 'NONE', #356, .T. ) ;
#997 = EDGE_CURVE ( 'NONE', #207, #586, #365, .T. ) ;
#998 = EDGE_CURVE ( 'NONE', #83, #24, #698, .T. ) ;
#999 = CARTESIAN_POINT ( 'NONE',  ( 0.000000000000000000, 1.084202172485504434E-16, 0.6998729815800831533 ) ) ;
#1000 = CIRCLE ( 'NONE', #626, 4.999364441949703419 ) ;
#1001 = CARTESIAN_POINT ( 'NONE',  ( 2.750999999999999002, 0.000000000000000000, 1.649999999999999911 ) ) ;
#1002 = EDGE_CURVE ( 'NONE', #755, #1158, #249, .T. ) ;
#1003 = VECTOR ( 'NONE', #217, 1000.000000000000114 ) ;
#1004 = DIRECTION ( 'NONE',  ( -0.8926702611364459861, 0.2644449429956672315, 0.3649776390501307533 ) ) ;
#1005 = FILL_AREA_STYLE ('',( #550 ) ) ;
#1006 = DIRECTION ( 'NONE',  ( 0.08798131281535113979, -0.7165502907562204538, 0.6919645723680247773 ) ) ;
#1007 = PRODUCT_DEFINITION_FORMATION_WITH_SPECIFIED_SOURCE ( '任何', '', #176, .NOT_KNOWN. ) ;
#1008 = AXIS2_PLACEMENT_3D ( 'NONE', #894, #501, #806 ) ;
#1009 = EDGE_CURVE ( 'NONE', #1149, #180, #274, .T. ) ;
#1010 = DIRECTION ( 'NONE',  ( 0.9925461516413219831, 0.1218693434051474345, 0.000000000000000000 ) ) ;
#1011 = LINE ( 'NONE', #251, #563 ) ;
#1012 = CARTESIAN_POINT ( 'NONE',  ( 82.40000000000000568, 0.000000000000000000, 1.066999999999999504 ) ) ;
#1013 = DIRECTION ( 'NONE',  ( 0.9925461516413219831, 1.537315277002354605E-16, 0.1218693434051473928 ) ) ;
#1014 = PRESENTATION_LAYER_ASSIGNMENT (  '', '', ( #194 ) ) ;
#1015 = ORIENTED_EDGE ( 'NONE', *, *, #1052, .F. ) ;
#1016 = EDGE_CURVE ( 'NONE', #1158, #206, #1065, .T. ) ;
#1017 = ADVANCED_FACE ( 'NONE', ( #779 ), #1141, .F. ) ;
#1018 = DIRECTION ( 'NONE',  ( 0.000000000000000000, 0.000000000000000000, -1.000000000000000000 ) ) ;
#1019 =( NAMED_UNIT ( * ) SI_UNIT ( $, .STERADIAN. ) SOLID_ANGLE_UNIT ( ) );
#1020 = VERTEX_POINT ( 'NONE', #236 ) ;
#1021 = CARTESIAN_POINT ( 'NONE',  ( -3.442001378349206053, 0.000000000000000000, 0.000000000000000000 ) ) ;
#1022 = VERTEX_POINT ( 'NONE', #516 ) ;
#1023 = DIRECTION ( 'NONE',  ( 0.08798131281535113979, -0.7165502907562204538, 0.6919645723680247773 ) ) ;
#1024 = VECTOR ( 'NONE', #763, 1000.000000000000114 ) ;
#1025 = ORIENTED_EDGE ( 'NONE', *, *, #354, .T. ) ;
#1026 = DIRECTION ( 'NONE',  ( -0.000000000000000000, -0.3583679495452997132, 0.9335804264972018540 ) ) ;
#1027 = CARTESIAN_POINT ( 'NONE',  ( 0.000000000000000000, -0.8144403624949831944, -0.2984582311920159770 ) ) ;
#1028 = CYLINDRICAL_SURFACE ( 'NONE', #427, 1.499999999999999556 ) ;
#1029 = ORIENTED_EDGE ( 'NONE', *, *, #632, .T. ) ;
#1030 = DIRECTION ( 'NONE',  ( 0.7071067811865521247, 8.659560562354877391E-17, 0.7071067811865430208 ) ) ;
#1031 = AXIS2_PLACEMENT_3D ( 'NONE', #264, #917, #539 ) ;
#1032 = ORIENTED_EDGE ( 'NONE', *, *, #513, .F. ) ;
#1033 = ADVANCED_FACE ( 'NONE', ( #497 ), #218, .T. ) ;
#1034 = CARTESIAN_POINT ( 'NONE',  ( -3.442001378349206053, 0.000000000000000000, 0.000000000000000000 ) ) ;
#1035 = AXIS2_PLACEMENT_3D ( 'NONE', #808, #1187, #342 ) ;
#1036 = EDGE_CURVE ( 'NONE', #630, #793, #51, .T. ) ;
#1037 = ORIENTED_EDGE ( 'NONE', *, *, #821, .T. ) ;
#1038 = DIRECTION ( 'NONE',  ( -0.000000000000000000, -0.7071067811865479058, -0.7071067811865472397 ) ) ;
#1039 = FACE_OUTER_BOUND ( 'NONE', #553, .T. ) ;
#1040 = ORIENTED_EDGE ( 'NONE', *, *, #401, .T. ) ;
#1041 = VERTEX_POINT ( 'NONE', #26 ) ;
#1042 = DIRECTION ( 'NONE',  ( 0.08798131281535090387, -0.6919645723680249993, -0.7165502907562202317 ) ) ;
#1043 = EDGE_LOOP ( 'NONE', ( #515, #409, #393, #483 ) ) ;
#1044 = AXIS2_PLACEMENT_3D ( 'NONE', #402, #388, #1152 ) ;
#1045 = CARTESIAN_POINT ( 'NONE',  ( 1.750000000000000000, -0.5995673809148999167, 0.2984582311920159214 ) ) ;
#1046 = CARTESIAN_POINT ( 'NONE',  ( 4.994471112842468585, -0.04502917237211658680, -0.04348416629860567262 ) ) ;
#1047 = EDGE_LOOP ( 'NONE', ( #230, #490 ) ) ;
#1048 = ORIENTED_EDGE ( 'NONE', *, *, #911, .F. ) ;
#1049 = AXIS2_PLACEMENT_3D ( 'NONE', #950, #116, #597 ) ;
#1050 = LINE ( 'NONE', #1076, #1003 ) ;
#1051 = CARTESIAN_POINT ( 'NONE',  ( 0.000000000000000000, 0.6998729815800832643, 0.000000000000000000 ) ) ;
#1052 = EDGE_CURVE ( 'NONE', #1118, #486, #36, .T. ) ;
#1053 = DIRECTION ( 'NONE',  ( 0.000000000000000000, 0.000000000000000000, 1.000000000000000000 ) ) ;
#1054 = ORIENTED_EDGE ( 'NONE', *, *, #488, .T. ) ;
#1055 = ORIENTED_EDGE ( 'NONE', *, *, #748, .F. ) ;
#1056 = ADVANCED_FACE ( 'Bface3', ( #678 ), #303, .F. ) ;
#1057 = VECTOR ( 'NONE', #198, 1000.000000000000114 ) ;
#1058 = CARTESIAN_POINT ( 'NONE',  ( -3.442001378349206053, 0.000000000000000000, 1.499999999999999556 ) ) ;
#1059 = DIRECTION ( 'NONE',  ( 0.000000000000000000, 0.000000000000000000, 1.000000000000000000 ) ) ;
#1060 = FACE_OUTER_BOUND ( 'NONE', #519, .T. ) ;
#1061 = ORIENTED_EDGE ( 'NONE', *, *, #947, .F. ) ;
#1062 = ORIENTED_EDGE ( 'NONE', *, *, #647, .F. ) ;
#1063 = PLANE ( 'NONE',  #224 ) ;
#1064 = DIRECTION ( 'NONE',  ( 0.000000000000000000, 0.9335804264972018540, 0.3583679495452997132 ) ) ;
#1065 = LINE ( 'NONE', #884, #1024 ) ;
#1066 = VECTOR ( 'NONE', #677, 1000.000000000000114 ) ;
#1067 = PLANE ( 'NONE',  #151 ) ;
#1068 = ORIENTED_EDGE ( 'NONE', *, *, #454, .F. ) ;
#1069 = EDGE_CURVE ( 'NONE', #1127, #881, #956, .T. ) ;
#1070 = EDGE_CURVE ( 'NONE', #665, #211, #735, .T. ) ;
#1071 = CARTESIAN_POINT ( 'NONE',  ( 3.157578643762697812, 0.000000000000000000, 1.399000000000000021 ) ) ;
#1072 = DIRECTION ( 'NONE',  ( 0.000000000000000000, 0.7193398003386520800, -0.6946583704589962549 ) ) ;
#1073 = FACE_OUTER_BOUND ( 'NONE', #702, .T. ) ;
#1074 = AXIS2_PLACEMENT_3D ( 'NONE', #555, #573, #953 ) ;
#1075 = ORIENTED_EDGE ( 'NONE', *, *, #733, .F. ) ;
#1076 = CARTESIAN_POINT ( 'NONE',  ( 0.8750000000000002220, -0.2984582311920155329, -0.7070038717049417221 ) ) ;
#1077 =( NAMED_UNIT ( * ) SI_UNIT ( $, .STERADIAN. ) SOLID_ANGLE_UNIT ( ) );
#1078 = DIRECTION ( 'NONE',  ( -1.000000000000000000, -0.000000000000000000, -0.000000000000000000 ) ) ;
#1079 = ADVANCED_FACE ( 'NONE', ( #34 ), #129, .F. ) ;
#1080 = DIRECTION ( 'NONE',  ( 0.1138834974989065968, -0.9275066560604726673, -0.3560364475175772925 ) ) ;
#1081 = ORIENTED_EDGE ( 'NONE', *, *, #850, .F. ) ;
#1082 = CARTESIAN_POINT ( 'NONE',  ( 0.000000000000000000, -0.8168788287968468120, -1.315073314230742696 ) ) ;
#1083 = CYLINDRICAL_SURFACE ( 'NONE', #53, 1.499999999999999556 ) ;
#1084 = CARTESIAN_POINT ( 'NONE',  ( 2.750999999999999002, 1.590816192092411868E-16, -1.298999999999999932 ) ) ;
#1085 = DIRECTION ( 'NONE',  ( -1.000000000000000000, -0.000000000000000000, -0.000000000000000000 ) ) ;
#1086 = EDGE_CURVE ( 'NONE', #837, #569, #605, .T. ) ;
#1087 = VECTOR ( 'NONE', #202, 1000.000000000000114 ) ;
#1088 = DIRECTION ( 'NONE',  ( 0.1138834974989065829, 0.9275066560604725563, -0.3560364475175776255 ) ) ;
#1089 = DIRECTION ( 'NONE',  ( 0.000000000000000000, 0.7193398003386520800, -0.6946583704589963659 ) ) ;
#1090 =( GEOMETRIC_REPRESENTATION_CONTEXT ( 3 ) GLOBAL_UNCERTAINTY_ASSIGNED_CONTEXT ( ( #437 ) ) GLOBAL_UNIT_ASSIGNED_CONTEXT ( ( #1201, #440, #1077 ) ) REPRESENTATION_CONTEXT ( 'NONE', 'WORKASPACE' ) );
#1091 = CONICAL_SURFACE ( 'NONE', #348, 1.499999999999989120, 1.051888018552857407 ) ;
#1092 = DIRECTION ( 'NONE',  ( -1.000000000000000000, -0.000000000000000000, -0.000000000000000000 ) ) ;
#1093 = AXIS2_PLACEMENT_3D ( 'NONE', #292, #549, #102 ) ;
#1094 = DIRECTION ( 'NONE',  ( -0.4461978145050307654, -0.6328141553137596187, 0.6328141553137597297 ) ) ;
#1095 = CIRCLE ( 'NONE', #1093, 2.755102040816326703 ) ;
#1096 = ORIENTED_EDGE ( 'NONE', *, *, #836, .T. ) ;
#1097 = CARTESIAN_POINT ( 'NONE',  ( -3.442001378349206053, 0.000000000000000000, 0.000000000000000000 ) ) ;
#1098 = AXIS2_PLACEMENT_3D ( 'NONE', #616, #362, #1018 ) ;
#1099 = VECTOR ( 'NONE', #1106, 1000.000000000000000 ) ;
#1100 = DIRECTION ( 'NONE',  ( 0.9925461516413219831, -0.1218693434051475871, 0.000000000000000000 ) ) ;
#1101 = CARTESIAN_POINT ( 'NONE',  ( 2.750999999999999002, 0.000000000000000000, 0.000000000000000000 ) ) ;
#1102 = CIRCLE ( 'NONE', #941, 4.921617994597914603 ) ;
#1103 = EDGE_LOOP ( 'NONE', ( #1157, #462, #972, #433 ) ) ;
#1104 = VECTOR ( 'NONE', #177, 1000.000000000000114 ) ;
#1105 = DIRECTION ( 'NONE',  ( 0.000000000000000000, 0.000000000000000000, 1.000000000000000000 ) ) ;
#1106 = DIRECTION ( 'NONE',  ( 0.8926702611364459861, 0.3649776390501309198, 0.2644449429956671205 ) ) ;
#1107 = EDGE_CURVE ( 'NONE', #1041, #771, #951, .T. ) ;
#1108 = APPLICATION_PROTOCOL_DEFINITION ( 'draft international standard', 'automotive_design', 1998, #49 ) ;
#1109 = ADVANCED_FACE ( 'NONE', ( #977 ), #773, .F. ) ;
#1110 = VERTEX_POINT ( 'NONE', #163 ) ;
#1111 = CIRCLE ( 'NONE', #577, 1.499999999999989120 ) ;
#1112 = COLOUR_RGB ( '',0.9921568627450980671, 0.5921568627450980449, 0.9607843137254902244 ) ;
#1113 = CONICAL_SURFACE ( 'NONE', #578, 1.499999999999990230, 0.7853981633974418397 ) ;
#1114 = ADVANCED_FACE ( 'NONE', ( #993 ), #807, .T. ) ;
#1115 = VECTOR ( 'NONE', #396, 1000.000000000000114 ) ;
#1116 = DIRECTION ( 'NONE',  ( -0.000000000000000000, 0.000000000000000000, 1.000000000000000000 ) ) ;
#1117 = CARTESIAN_POINT ( 'NONE',  ( 5.009078719685259529, 0.02838299820198966414, -0.07394023823922721284 ) ) ;
#1118 = VERTEX_POINT ( 'NONE', #608 ) ;
#1119 = ADVANCED_FACE ( 'NONE', ( #887 ), #155, .T. ) ;
#1120 = ADVANCED_FACE ( 'NONE', ( #910 ), #983, .F. ) ;
#1121 = VERTEX_POINT ( 'NONE', #434 ) ;
#1122 = CARTESIAN_POINT ( 'NONE',  ( 0.8750000000000001110, 0.9573203475728210288, 0.5576685299944313945 ) ) ;
#1123 = DIRECTION ( 'NONE',  ( 1.000000000000000000, 0.000000000000000000, 0.000000000000000000 ) ) ;
#1124 = SURFACE_STYLE_USAGE ( .BOTH. , #1134 ) ;
#1125 = ORIENTED_EDGE ( 'NONE', *, *, #997, .F. ) ;
#1126 = CARTESIAN_POINT ( 'NONE',  ( 2.399999999999999467, 0.000000000000000000, 0.000000000000000000 ) ) ;
#1127 = VERTEX_POINT ( 'NONE', #1186 ) ;
#1128 = CARTESIAN_POINT ( 'NONE',  ( 0.9109903399478264108, 3.429011037612588290E-16, -2.799999999999999378 ) ) ;
#1129 = DIRECTION ( 'NONE',  ( -0.000000000000000000, 0.9335804264972012989, 0.3583679495453013231 ) ) ;
#1130 = ORIENTED_EDGE ( 'NONE', *, *, #113, .T. ) ;
#1131 = EDGE_CURVE ( 'NONE', #571, #74, #1155, .T. ) ;
#1132 = CARTESIAN_POINT ( 'NONE',  ( 1.750000000000000000, 0.4849999999999999867, 0.000000000000000000 ) ) ;
#1133 = DIRECTION ( 'NONE',  ( 0.8926702611364458750, 0.2644449429956669539, -0.3649776390501311973 ) ) ;
#1134 = SURFACE_SIDE_STYLE ('',( #753 ) ) ;
#1135 = FACE_OUTER_BOUND ( 'NONE', #862, .T. ) ;
#1136 = ORIENTED_EDGE ( 'NONE', *, *, #96, .F. ) ;
#1137 = CARTESIAN_POINT ( 'NONE',  ( 2.750999999999999002, 0.000000000000000000, 1.298999999999999932 ) ) ;
#1138 = LINE ( 'NONE', #109, #934 ) ;
#1139 = ORIENTED_EDGE ( 'NONE', *, *, #280, .T. ) ;
#1140 = VECTOR ( 'NONE', #738, 1000.000000000000114 ) ;
#1141 = PLANE ( 'NONE',  #675 ) ;
#1142 = AXIS2_PLACEMENT_3D ( 'NONE', #848, #12, #80 ) ;
#1143 = AXIS2_PLACEMENT_3D ( 'NONE', #769, #775, #1146 ) ;
#1144 = ORIENTED_EDGE ( 'NONE', *, *, #981, .T. ) ;
#1145 = DIRECTION ( 'NONE',  ( -1.000000000000000000, 0.000000000000000000, -0.000000000000000000 ) ) ;
#1146 = DIRECTION ( 'NONE',  ( 0.000000000000000000, 0.000000000000000000, -1.000000000000000000 ) ) ;
#1147 = CARTESIAN_POINT ( 'NONE',  ( 3.228289321881351981, 0.000000000000000000, 0.000000000000000000 ) ) ;
#1148 = ORIENTED_EDGE ( 'NONE', *, *, #617, .T. ) ;
#1149 = VERTEX_POINT ( 'NONE', #895 ) ;
#1150 = PRODUCT_RELATED_PRODUCT_CATEGORY ( 'part', '', ( #176 ) ) ;
#1151 = EDGE_CURVE ( 'NONE', #688, #487, #706, .T. ) ;
#1152 = DIRECTION ( 'NONE',  ( 0.000000000000000000, 1.000000000000000000, 1.224646799147353207E-16 ) ) ;
#1153 = AXIS2_PLACEMENT_3D ( 'NONE', #946, #1092, #933 ) ;
#1154 = LINE ( 'NONE', #774, #1115 ) ;
#1155 = CIRCLE ( 'NONE', #250, 0.09999999999999982514 ) ;
#1156 = CARTESIAN_POINT ( 'NONE',  ( -3.442001378349206053, 3.429011037612588290E-16, -2.799999999999999378 ) ) ;
#1157 = ORIENTED_EDGE ( 'NONE', *, *, #357, .F. ) ;
#1158 = VERTEX_POINT ( 'NONE', #713 ) ;
#1159 = PLANE ( 'NONE',  #810 ) ;
#1160 = VECTOR ( 'NONE', #1193, 1000.000000000000000 ) ;
#1161 = CARTESIAN_POINT ( 'NONE',  ( 1.750000000000000000, 0.2984582311920155329, 0.5995673809149001388 ) ) ;
#1162 = CARTESIAN_POINT ( 'NONE',  ( 1.750000000000000000, 0.5849767922202905313, -0.2604484481362442372 ) ) ;
#1163 = LINE ( 'NONE', #138, #800 ) ;
#1164 = EDGE_LOOP ( 'NONE', ( #1048, #797 ) ) ;
#1165 = ORIENTED_EDGE ( 'NONE', *, *, #23, .F. ) ;
#1166 = AXIS2_PLACEMENT_3D ( 'NONE', #455, #827, #1194 ) ;
#1167 = CARTESIAN_POINT ( 'NONE',  ( 0.2122292933583078134, -0.7540079504585238679, 1.228301132161429665 ) ) ;
#1168 = DIRECTION ( 'NONE',  ( 0.000000000000000000, -0.6946583704589961439, 0.7193398003386521911 ) ) ;
#1169 = CIRCLE ( 'NONE', #565, 4.999364441949703419 ) ;
#1170 = UNCERTAINTY_MEASURE_WITH_UNIT (LENGTH_MEASURE( 1.000000000000000082E-05 ), #363, 'distance_accuracy_value', 'NONE');
#1171 = ORIENTED_EDGE ( 'NONE', *, *, #850, .T. ) ;
#1172 = ORIENTED_EDGE ( 'NONE', *, *, #863, .F. ) ;
#1173 = PLANE ( 'NONE',  #566 ) ;
#1174 = DIRECTION ( 'NONE',  ( 1.000000000000000000, 0.000000000000000000, 0.000000000000000000 ) ) ;
#1175 = DIRECTION ( 'NONE',  ( -1.000000000000000000, -0.000000000000000000, -0.000000000000000000 ) ) ;
#1176 = DIRECTION ( 'NONE',  ( 0.7071067811865521247, 0.000000000000000000, -0.7071067811865430208 ) ) ;
#1177 = EDGE_CURVE ( 'NONE', #1110, #793, #654, .T. ) ;
#1178 = ORIENTED_EDGE ( 'NONE', *, *, #617, .F. ) ;
#1179 = DIRECTION ( 'NONE',  ( 0.000000000000000000, -1.000000000000000000, 0.000000000000000000 ) ) ;
#1180 = DIRECTION ( 'NONE',  ( 0.000000000000000000, -1.000000000000000000, 0.000000000000000000 ) ) ;
#1181 = VECTOR ( 'NONE', #670, 1000.000000000000000 ) ;
#1182 = CARTESIAN_POINT ( 'NONE',  ( 82.40000000000000568, 1.571834166705621095E-16, -1.066999999999999504 ) ) ;
#1183 = ADVANCED_FACE ( 'NONE', ( #346 ), #618, .F. ) ;
#1184 = FACE_OUTER_BOUND ( 'NONE', #783, .T. ) ;
#1185 = CARTESIAN_POINT ( 'NONE',  ( 0.000000000000000000, 1.084202172485504434E-16, -0.6998729815800831533 ) ) ;
#1186 = CARTESIAN_POINT ( 'NONE',  ( 0.2122292944384884805, -1.228301131719785833, 0.7540079501385315019 ) ) ;
#1187 = DIRECTION ( 'NONE',  ( -1.000000000000000000, -0.000000000000000000, -0.000000000000000000 ) ) ;
#1188 = CIRCLE ( 'NONE', #299, 1.066999999999999504 ) ;
#1189 = LINE ( 'NONE', #999, #1104 ) ;
#1190 = ORIENTED_EDGE ( 'NONE', *, *, #921, .F. ) ;
#1191 = DIRECTION ( 'NONE',  ( 0.000000000000000000, 0.000000000000000000, 1.000000000000000000 ) ) ;
#1192 = EDGE_CURVE ( 'NONE', #567, #487, #906, .T. ) ;
#1193 = DIRECTION ( 'NONE',  ( -1.000000000000000000, -0.000000000000000000, -0.000000000000000000 ) ) ;
#1194 = DIRECTION ( 'NONE',  ( 0.000000000000000000, 0.000000000000000000, 1.000000000000000000 ) ) ;
#1195 = CARTESIAN_POINT ( 'NONE',  ( 3.157578643762697812, 1.713280872007147164E-16, -1.399000000000000021 ) ) ;
#1196 = AXIS2_PLACEMENT_3D ( 'NONE', #310, #135, #795 ) ;
#1197 = CARTESIAN_POINT ( 'NONE',  ( 0.000000000000000000, 0.6998729815800832643, 0.000000000000000000 ) ) ;
#1198 = DIRECTION ( 'NONE',  ( -1.000000000000000000, -0.000000000000000000, -0.000000000000000000 ) ) ;
#1199 = VERTEX_POINT ( 'NONE', #63 ) ;
#1200 = DIRECTION ( 'NONE',  ( -1.000000000000000000, -0.000000000000000000, -0.000000000000000000 ) ) ;
#1201 =( LENGTH_UNIT ( ) NAMED_UNIT ( * ) SI_UNIT ( .MILLI., .METRE. ) );
#1202 = ORIENTED_EDGE ( 'NONE', *, *, #889, .T. ) ;
#1203 = EDGE_CURVE ( 'NONE', #24, #898, #313, .T. ) ;
#1204 = DIRECTION ( 'NONE',  ( 0.000000000000000000, -0.7071067811865475727, -0.7071067811865474617 ) ) ;
#1205 = TOROIDAL_SURFACE ( 'NONE', #1143, 2.699999999999999734, 0.1000000000000000056 ) ;
#1206 = LINE ( 'NONE', #824, #165 ) ;
#1207 = CARTESIAN_POINT ( 'NONE',  ( 0.000000000000000000, -0.8144403624949831944, -0.2984582311920159770 ) ) ;
#1208 = FACE_OUTER_BOUND ( 'NONE', #375, .T. ) ;
#1209 = DIRECTION ( 'NONE',  ( -1.000000000000000000, -0.000000000000000000, -0.000000000000000000 ) ) ;
#1210 = AXIS2_PLACEMENT_3D ( 'NONE', #98, #1042, #1072 ) ;
#1211 = VERTEX_POINT ( 'NONE', #799 ) ;
#1212 = CIRCLE ( 'NONE', #312, 4.999364441949703419 ) ;
#1213 = AXIS2_PLACEMENT_3D ( 'NONE', #491, #204, #867 ) ;
#1214 = LINE ( 'NONE', #1027, #1140 ) ;
#1215 = FACE_OUTER_BOUND ( 'NONE', #288, .T. ) ;
#1216 = ORIENTED_EDGE ( 'NONE', *, *, #296, .F. ) ;
ENDSEC;
END-ISO-10303-21;
