ISO-10303-21;
HEADER;
FILE_DESCRIPTION (( 'STEP AP214' ),
    '1' );
FILE_NAME ('GB╱T 70.2-2015[内六角平圆头螺钉M4×12].step',
    '2023-08-15T02:53:54',
    ( '' ),
    ( '' ),
    'SwSTEP 2.0',
    'SolidWorks 2022',
    '' );
FILE_SCHEMA (( 'AUTOMOTIVE_DESIGN' ));
ENDSEC;

DATA;
#1 = CARTESIAN_POINT ( 'NONE',  ( -0.3500000000000000333, 2.449293598294706414E-16, -2.000000000000000000 ) ) ;
#2 = AXIS2_PLACEMENT_3D ( 'NONE', #325, #269, #667 ) ;
#3 = FILL_AREA_STYLE_COLOUR ( '', #294 ) ;
#4 = CARTESIAN_POINT ( 'NONE',  ( -12.90000000000000213, -0.7216878364870328300, -1.250000000000000222 ) ) ;
#5 = CARTESIAN_POINT ( 'NONE',  ( -12.00000000000000000, 0.000000000000000000, 0.000000000000000000 ) ) ;
#6 = MECHANICAL_DESIGN_GEOMETRIC_PRESENTATION_REPRESENTATION (  '', ( #608 ), #359 ) ;
#7 = CARTESIAN_POINT ( 'NONE',  ( -14.20000000000000107, 5.192832784574810899E-33, 0.000000000000000000 ) ) ;
#8 = PLANE ( 'NONE',  #511 ) ;
#9 = DIRECTION ( 'NONE',  ( 0.000000000000000000, 0.000000000000000000, 1.000000000000000000 ) ) ;
#10 = EDGE_CURVE ( 'NONE', #729, #37, #562, .T. ) ;
#11 = DIRECTION ( 'NONE',  ( 0.000000000000000000, 0.000000000000000000, -1.000000000000000000 ) ) ;
#12 = CARTESIAN_POINT ( 'NONE',  ( -12.00000000000000000, -0.7216878364870332740, 1.249999999999999778 ) ) ;
#13 = CARTESIAN_POINT ( 'NONE',  ( -12.90000000000000213, -1.443375672974065216, -5.870030462665943960E-16 ) ) ;
#14 = DIRECTION ( 'NONE',  ( -1.000000000000000000, 0.000000000000000000, -0.000000000000000000 ) ) ;
#15 = CARTESIAN_POINT ( 'NONE',  ( -12.77964865737705225, -0.9585729505925316696, -0.8397029468125257745 ) ) ;
#16 = FACE_OUTER_BOUND ( 'NONE', #486, .T. ) ;
#17 = PRODUCT_RELATED_PRODUCT_CATEGORY ( 'part', '', ( #597 ) ) ;
#18 = ORIENTED_EDGE ( 'NONE', *, *, #336, .T. ) ;
#19 = DIRECTION ( 'NONE',  ( 5.691969551695359369E-17, -1.000000000000000000, 0.000000000000000000 ) ) ;
#20 = CARTESIAN_POINT ( 'NONE',  ( -12.82677104533570400, -0.8391288272867704068, -1.046586237043626300 ) ) ;
#21 = CARTESIAN_POINT ( 'NONE',  ( -12.77942286340599587, 1.530808065882368999E-16, -1.250000000000000222 ) ) ;
#22 = CONICAL_SURFACE ( 'NONE', #2, 3901.015332362329445, 1.319856261027561928 ) ;
#23 = FACE_OUTER_BOUND ( 'NONE', #373, .T. ) ;
#24 = CARTESIAN_POINT ( 'NONE',  ( -12.90000000000000213, 1.767625397874844201E-16, -1.443375672974064106 ) ) ;
#25 = ORIENTED_EDGE ( 'NONE', *, *, #560, .T. ) ;
#26 = EDGE_CURVE ( 'NONE', #537, #600, #465, .T. ) ;
#27 = ORIENTED_EDGE ( 'NONE', *, *, #146, .F. ) ;
#28 = CIRCLE ( 'NONE', #634, 2.000000000000000000 ) ;
#29 = ORIENTED_EDGE ( 'NONE', *, *, #82, .T. ) ;
#30 = DIRECTION ( 'NONE',  ( 0.000000000000000000, -0.4999999999999998335, 0.8660254037844387076 ) ) ;
#31 = CARTESIAN_POINT ( 'NONE',  ( -12.90000000000000213, -0.7216878364870332740, 1.249999999999999778 ) ) ;
#32 = ORIENTED_EDGE ( 'NONE', *, *, #107, .F. ) ;
#33 = EDGE_CURVE ( 'NONE', #88, #154, #293, .T. ) ;
#34 = DIRECTION ( 'NONE',  ( 1.000000000000000000, 0.000000000000000000, 0.000000000000000000 ) ) ;
#35 = CIRCLE ( 'NONE', #137, 2.199999999999998845 ) ;
#36 = DIRECTION ( 'NONE',  ( 0.000000000000000000, 0.000000000000000000, -1.000000000000000000 ) ) ;
#37 = VERTEX_POINT ( 'NONE', #330 ) ;
#38 =( NAMED_UNIT ( * ) SI_UNIT ( $, .STERADIAN. ) SOLID_ANGLE_UNIT ( ) );
#39 = ADVANCED_FACE ( 'NONE', ( #57 ), #462, .F. ) ;
#40 = ORIENTED_EDGE ( 'NONE', *, *, #336, .F. ) ;
#41 = APPLICATION_CONTEXT ( 'automotive_design' ) ;
#42 = ORIENTED_EDGE ( 'NONE', *, *, #693, .T. ) ;
#43 = PLANE ( 'NONE',  #625 ) ;
#44 = UNCERTAINTY_MEASURE_WITH_UNIT (LENGTH_MEASURE( 1.000000000000000082E-05 ), #483, 'distance_accuracy_value', 'NONE');
#45 = ADVANCED_FACE ( 'NONE', ( #49 ), #8, .F. ) ;
#46 = EDGE_LOOP ( 'NONE', ( #62, #718, #150, #215 ) ) ;
#47 = ORIENTED_EDGE ( 'NONE', *, *, #231, .T. ) ;
#48 = DIRECTION ( 'NONE',  ( 0.000000000000000000, 8.881784197001252323E-16, -1.000000000000000000 ) ) ;
#49 = FACE_OUTER_BOUND ( 'NONE', #105, .T. ) ;
#50 = EDGE_CURVE ( 'NONE', #204, #489, #199, .T. ) ;
#51 = ORIENTED_EDGE ( 'NONE', *, *, #644, .F. ) ;
#52 = CARTESIAN_POINT ( 'NONE',  ( -14.16927320067241958, 0.4819564059043958681, 1.249999999999999778 ) ) ;
#53 = DIRECTION ( 'NONE',  ( -1.000000000000000000, -0.000000000000000000, -0.000000000000000000 ) ) ;
#54 = DIRECTION ( 'NONE',  ( 1.000000000000000000, 0.000000000000000000, -0.000000000000000000 ) ) ;
#55 = CARTESIAN_POINT ( 'NONE',  ( -14.20000000000000107, -1.999999999999998668, -3.551475717527323339E-16 ) ) ;
#56 = CARTESIAN_POINT ( 'NONE',  ( -14.20000000000000107, -1.443375672974064328, -3.035766082959413993E-15 ) ) ;
#57 = FACE_OUTER_BOUND ( 'NONE', #434, .T. ) ;
#58 = CIRCLE ( 'NONE', #392, 1.443375672974064328 ) ;
#59 = CARTESIAN_POINT ( 'NONE',  ( 0.000000000000000000, 0.000000000000000000, 0.000000000000000000 ) ) ;
#60 = CARTESIAN_POINT ( 'NONE',  ( -12.90000000000000213, 0.7216878364870328300, -1.249999999999999112 ) ) ;
#61 = CIRCLE ( 'NONE', #417, 1.999999999999998668 ) ;
#62 = ORIENTED_EDGE ( 'NONE', *, *, #438, .T. ) ;
#63 = CARTESIAN_POINT ( 'NONE',  ( 0.000000000000000000, 0.000000000000000000, 1.393782217350892916 ) ) ;
#64 = AXIS2_PLACEMENT_3D ( 'NONE', #122, #132, #11 ) ;
#65 = DIRECTION ( 'NONE',  ( -1.000000000000000000, -0.000000000000000000, -0.000000000000000000 ) ) ;
#66 = MECHANICAL_DESIGN_GEOMETRIC_PRESENTATION_REPRESENTATION (  '', ( #702 ), #226 ) ;
#67 = DIRECTION ( 'NONE',  ( 0.000000000000000000, 1.000000000000000000, 0.000000000000000000 ) ) ;
#68 = EDGE_CURVE ( 'NONE', #494, #384, #272, .T. ) ;
#69 = CARTESIAN_POINT ( 'NONE',  ( -12.00000000000000000, 2.199999999999998845, 0.000000000000000000 ) ) ;
#70 = MECHANICAL_DESIGN_GEOMETRIC_PRESENTATION_REPRESENTATION (  '', ( #157 ), #256 ) ;
#71 = ORIENTED_EDGE ( 'NONE', *, *, #386, .F. ) ;
#72 = PLANE ( 'NONE',  #83 ) ;
#73 = PRESENTATION_STYLE_ASSIGNMENT (( #76 ) ) ;
#74 = ADVANCED_FACE ( 'Bface2', ( #679 ), #450, .T. ) ;
#75 = CIRCLE ( 'NONE', #482, 1.443375672974063884 ) ;
#76 = SURFACE_STYLE_USAGE ( .BOTH. , #194 ) ;
#77 = CARTESIAN_POINT ( 'NONE',  ( -14.20000000000000107, -1.443375672974064328, -3.035766082959413993E-15 ) ) ;
#78 = DIRECTION ( 'NONE',  ( -0.000000000000000000, 0.000000000000000000, 1.000000000000000000 ) ) ;
#79 = DIRECTION ( 'NONE',  ( 0.000000000000000000, 0.000000000000000000, 1.000000000000000000 ) ) ;
#80 = ORIENTED_EDGE ( 'NONE', *, *, #261, .T. ) ;
#81 =( NAMED_UNIT ( * ) SI_UNIT ( $, .STERADIAN. ) SOLID_ANGLE_UNIT ( ) );
#82 = EDGE_CURVE ( 'NONE', #104, #607, #111, .T. ) ;
#83 = AXIS2_PLACEMENT_3D ( 'NONE', #190, #416, #574 ) ;
#84 = CARTESIAN_POINT ( 'NONE',  ( -12.00000000000000000, 2.694222958124175527E-16, -2.199999999999998845 ) ) ;
#85 = ORIENTED_EDGE ( 'NONE', *, *, #33, .T. ) ;
#86 = B_SPLINE_CURVE_WITH_KNOTS ( 'NONE', 3,
 ( #451, #178, #495, #730, #224, #686 ),
 .UNSPECIFIED., .F., .F.,
 ( 4, 2, 4 ),
 ( 2.391904125715334417E-07, 0.0007300545202770522893, 0.001459869850141533049 ),
 .UNSPECIFIED. ) ;
#87 = DIRECTION ( 'NONE',  ( 0.000000000000000000, 0.000000000000000000, 1.000000000000000000 ) ) ;
#88 = VERTEX_POINT ( 'NONE', #63 ) ;
#89 = CLOSED_SHELL ( 'NONE', ( #367, #163, #463, #329, #513, #74, #519, #277, #313, #39, #529, #548, #391, #650, #703, #348, #356, #503, #697, #375, #706, #45, #566, #244, #458 ) ) ;
#90 = CIRCLE ( 'NONE', #374, 1.393782217350892916 ) ;
#91 = CARTESIAN_POINT ( 'NONE',  ( -14.20000000000000107, -1.443375672974064328, -3.035766082959413993E-15 ) ) ;
#92 = VECTOR ( 'NONE', #575, 1000.000000000000000 ) ;
#93 = FACE_OUTER_BOUND ( 'NONE', #265, .T. ) ;
#94 = EDGE_LOOP ( 'NONE', ( #100, #326 ) ) ;
#95 =( GEOMETRIC_REPRESENTATION_CONTEXT ( 3 ) GLOBAL_UNCERTAINTY_ASSIGNED_CONTEXT ( ( #44 ) ) GLOBAL_UNIT_ASSIGNED_CONTEXT ( ( #483, #535, #38 ) ) REPRESENTATION_CONTEXT ( 'NONE', 'WORKASPACE' ) );
#96 = ORIENTED_EDGE ( 'NONE', *, *, #653, .T. ) ;
#97 = EDGE_CURVE ( 'NONE', #666, #337, #621, .T. ) ;
#98 = CARTESIAN_POINT ( 'NONE',  ( -12.77964865737705225, 1.206490558868565710, -0.4102970531874744475 ) ) ;
#99 = AXIS2_PLACEMENT_3D ( 'NONE', #694, #587, #247 ) ;
#100 = ORIENTED_EDGE ( 'NONE', *, *, #50, .T. ) ;
#101 = ORIENTED_EDGE ( 'NONE', *, *, #185, .T. ) ;
#102 = FACE_OUTER_BOUND ( 'NONE', #602, .T. ) ;
#103 = COLOUR_RGB ( '',0.6470588235294117974, 0.6196078431372549211, 0.5882352941176470784 ) ;
#104 = VERTEX_POINT ( 'NONE', #115 ) ;
#105 = EDGE_LOOP ( 'NONE', ( #147, #673, #159, #331, #18 ) ) ;
#106 = PLANE ( 'NONE',  #342 ) ;
#107 = EDGE_CURVE ( 'NONE', #581, #705, #670, .T. ) ;
#108 = DIRECTION ( 'NONE',  ( 0.000000000000000000, 0.000000000000000000, 1.000000000000000000 ) ) ;
#109 = ORIENTED_EDGE ( 'NONE', *, *, #665, .F. ) ;
#110 = CARTESIAN_POINT ( 'NONE',  ( -12.77942286340599587, -4.330491382256005356E-23, 1.249999999999999778 ) ) ;
#111 = LINE ( 'NONE', #499, #570 ) ;
#112 = ORIENTED_EDGE ( 'NONE', *, *, #33, .F. ) ;
#113 = CARTESIAN_POINT ( 'NONE',  ( -12.90000000000000213, 1.443375672974064328, -3.128943976826325424E-17 ) ) ;
#114 = CARTESIAN_POINT ( 'NONE',  ( -14.15037000055573557, -0.2394511050528685403, -1.250000000000000222 ) ) ;
#115 = CARTESIAN_POINT ( 'NONE',  ( 0.000000000000000000, 2.078092264740989006E-16, -1.393782217350892916 ) ) ;
#116 = EDGE_CURVE ( 'NONE', #607, #154, #28, .T. ) ;
#117 = CARTESIAN_POINT ( 'NONE',  ( -14.20000000000000107, -0.7216878364870324969, -1.249999999999999556 ) ) ;
#118 = AXIS2_PLACEMENT_3D ( 'NONE', #629, #508, #124 ) ;
#119 = FILL_AREA_STYLE ('',( #3 ) ) ;
#120 = EDGE_CURVE ( 'NONE', #607, #282, #440, .T. ) ;
#121 = CARTESIAN_POINT ( 'NONE',  ( -0.3500000000000000333, 0.000000000000000000, 0.000000000000000000 ) ) ;
#122 = CARTESIAN_POINT ( 'NONE',  ( -11.79999999999999893, 0.000000000000000000, 2.199999999999998845 ) ) ;
#123 = SPHERICAL_SURFACE ( 'NONE', #568, 4.007472359323742239 ) ;
#124 = DIRECTION ( 'NONE',  ( 0.000000000000000000, 0.000000000000000000, -1.000000000000000000 ) ) ;
#125 = ORIENTED_EDGE ( 'NONE', *, *, #266, .F. ) ;
#126 = CARTESIAN_POINT ( 'NONE',  ( -12.90000000000000213, 1.443375672974064328, -3.128943976826325424E-17 ) ) ;
#127 = AXIS2_PLACEMENT_3D ( 'NONE', #678, #53, #230 ) ;
#128 = DIRECTION ( 'NONE',  ( -1.000000000000000000, -5.998083099822123814E-17, -0.000000000000000000 ) ) ;
#129 = APPLICATION_PROTOCOL_DEFINITION ( 'draft international standard', 'automotive_design', 1998, #684 ) ;
#130 = DIRECTION ( 'NONE',  ( 0.000000000000000000, 0.000000000000000000, 1.000000000000000000 ) ) ;
#131 = CARTESIAN_POINT ( 'NONE',  ( -12.77942286340599587, -0.2440392103072525354, -1.250000000000000222 ) ) ;
#132 = DIRECTION ( 'NONE',  ( 0.000000000000000000, -1.000000000000000000, 0.000000000000000000 ) ) ;
#133 = ORIENTED_EDGE ( 'NONE', *, *, #622, .F. ) ;
#134 = DIRECTION ( 'NONE',  ( 0.000000000000000000, -0.8660254037844388186, 0.4999999999999996669 ) ) ;
#135 = CARTESIAN_POINT ( 'NONE',  ( -10.72727272727272840, 0.000000000000000000, 0.000000000000000000 ) ) ;
#136 = CARTESIAN_POINT ( 'NONE',  ( 0.000000000000000000, 0.000000000000000000, 0.000000000000000000 ) ) ;
#137 = AXIS2_PLACEMENT_3D ( 'NONE', #518, #521, #79 ) ;
#138 = ORIENTED_EDGE ( 'NONE', *, *, #206, .T. ) ;
#139 = SURFACE_STYLE_FILL_AREA ( #413 ) ;
#140 = AXIS2_PLACEMENT_3D ( 'NONE', #558, #563, #237 ) ;
#141 = DIRECTION ( 'NONE',  ( -0.5291067161269960017, 1.039180521791365101E-16, -0.8485552916276619673 ) ) ;
#142 = CARTESIAN_POINT ( 'NONE',  ( -3.061616997868386099E-17, 2.000000000000000000, 0.000000000000000000 ) ) ;
#143 = ORIENTED_EDGE ( 'NONE', *, *, #628, .T. ) ;
#144 = SURFACE_STYLE_USAGE ( .BOTH. , #360 ) ;
#145 = CARTESIAN_POINT ( 'NONE',  ( -11.99999999999999645, 0.000000000000000000, 0.000000000000000000 ) ) ;
#146 = EDGE_CURVE ( 'NONE', #197, #186, #445, .T. ) ;
#147 = ORIENTED_EDGE ( 'NONE', *, *, #595, .F. ) ;
#148 = VERTEX_POINT ( 'NONE', #145 ) ;
#149 = FACE_OUTER_BOUND ( 'NONE', #94, .T. ) ;
#150 = ORIENTED_EDGE ( 'NONE', *, *, #50, .F. ) ;
#151 = DIRECTION ( 'NONE',  ( 0.000000000000000000, 0.8660254037844387076, -0.4999999999999998335 ) ) ;
#152 = DIRECTION ( 'NONE',  ( -1.000000000000000000, -0.000000000000000000, -0.000000000000000000 ) ) ;
#153 = EDGE_CURVE ( 'NONE', #148, #384, #200, .T. ) ;
#154 = VERTEX_POINT ( 'NONE', #700 ) ;
#155 = CONICAL_SURFACE ( 'NONE', #559, 3901.015332362329445, 1.319856261027561928 ) ;
#156 = CARTESIAN_POINT ( 'NONE',  ( -14.13169213213474507, -1.082531754730549078, 0.6249999999999997780 ) ) ;
#157 = STYLED_ITEM ( 'NONE', ( #692 ), #515 ) ;
#158 = EDGE_LOOP ( 'NONE', ( #109, #362, #528, #101, #42, #143 ) ) ;
#159 = ORIENTED_EDGE ( 'NONE', *, *, #10, .F. ) ;
#160 = DIRECTION ( 'NONE',  ( -1.000000000000000000, -5.998083099822123814E-17, -0.000000000000000000 ) ) ;
#161 = ORIENTED_EDGE ( 'NONE', *, *, #285, .F. ) ;
#162 = ORIENTED_EDGE ( 'NONE', *, *, #665, .T. ) ;
#163 = ADVANCED_FACE ( 'NONE', ( #409 ), #297, .F. ) ;
#164 = FILL_AREA_STYLE ('',( #217 ) ) ;
#165 = AXIS2_PLACEMENT_3D ( 'NONE', #681, #617, #505 ) ;
#166 = DIRECTION ( 'NONE',  ( -1.000000000000000000, -0.000000000000000000, -0.000000000000000000 ) ) ;
#167 = EDGE_LOOP ( 'NONE', ( #27, #472, #651, #71 ) ) ;
#168 = CARTESIAN_POINT ( 'NONE',  ( -14.16921124011832944, -0.4814729877613859732, 1.249999999999999778 ) ) ;
#169 = CARTESIAN_POINT ( 'NONE',  ( -14.15048909679995681, 0.2418642655271367736, -1.250000000000000000 ) ) ;
#170 = ORIENTED_EDGE ( 'NONE', *, *, #443, .T. ) ;
#171 = DIRECTION ( 'NONE',  ( -1.000000000000000000, -0.000000000000000000, -0.000000000000000000 ) ) ;
#172 = CARTESIAN_POINT ( 'NONE',  ( -14.20000000000000107, -0.7216878364870324969, -1.249999999999999556 ) ) ;
#173 = AXIS2_PLACEMENT_3D ( 'NONE', #594, #260, #36 ) ;
#174 = EDGE_CURVE ( 'NONE', #337, #447, #316, .T. ) ;
#175 = CARTESIAN_POINT ( 'NONE',  ( -14.15048909679995504, 0.2418642655271375785, 1.249999999999999778 ) ) ;
#176 = DIRECTION ( 'NONE',  ( -0.5000000000000001110, 1.060575238724906792E-16, -0.8660254037844385966 ) ) ;
#177 = EDGE_CURVE ( 'NONE', #154, #264, #355, .T. ) ;
#178 = CARTESIAN_POINT ( 'NONE',  ( -12.82677104533570400, -1.325934682174327417, 0.2034137629563736172 ) ) ;
#179 = SURFACE_SIDE_STYLE ('',( #340 ) ) ;
#180 = MANIFOLD_SOLID_BREP ( '切除-旋转1', #89 ) ;
#181 = EDGE_CURVE ( 'NONE', #186, #197, #35, .T. ) ;
#182 = ORIENTED_EDGE ( 'NONE', *, *, #572, .T. ) ;
#183 = CARTESIAN_POINT ( 'NONE',  ( -12.77919874466209471, 1.204657989547419428, 0.4134711563600914630 ) ) ;
#184 = DIRECTION ( 'NONE',  ( -0.000000000000000000, 0.000000000000000000, -1.000000000000000000 ) ) ;
#185 = EDGE_CURVE ( 'NONE', #666, #485, #255, .T. ) ;
#186 = VERTEX_POINT ( 'NONE', #460 ) ;
#187 = SURFACE_STYLE_FILL_AREA ( #683 ) ;
#188 = VECTOR ( 'NONE', #245, 1000.000000000000000 ) ;
#189 = PLANE ( 'NONE',  #668 ) ;
#190 = CARTESIAN_POINT ( 'NONE',  ( -12.00000000000000000, 0.7216878364870321638, -1.250000000000000222 ) ) ;
#191 = CARTESIAN_POINT ( 'NONE',  ( -14.20000000000000107, 0.000000000000000000, 0.000000000000000000 ) ) ;
#192 = STYLED_ITEM ( 'NONE', ( #601 ), #513 ) ;
#193 = EDGE_LOOP ( 'NONE', ( #211, #162, #248, #47, #723, #522 ) ) ;
#194 = SURFACE_SIDE_STYLE ('',( #187 ) ) ;
#195 = CARTESIAN_POINT ( 'NONE',  ( -0.3500000000000000333, 0.000000000000000000, 0.000000000000000000 ) ) ;
#196 = CIRCLE ( 'NONE', #292, 0.2000000000000009548 ) ;
#197 = VERTEX_POINT ( 'NONE', #84 ) ;
#198 = FILL_AREA_STYLE_COLOUR ( '', #467 ) ;
#199 = CIRCLE ( 'NONE', #606, 1.999999999999998668 ) ;
#200 = LINE ( 'NONE', #24, #421 ) ;
#201 = DIRECTION ( 'NONE',  ( -1.000000000000000000, -0.000000000000000000, -0.000000000000000000 ) ) ;
#202 = PLANE ( 'NONE',  #412 ) ;
#203 = AXIS2_PLACEMENT_3D ( 'NONE', #299, #699, #130 ) ;
#204 = VERTEX_POINT ( 'NONE', #363 ) ;
#205 = CARTESIAN_POINT ( 'NONE',  ( -14.16916666666574010, 0.8419691425682042096, -1.041666666666666741 ) ) ;
#206 = EDGE_CURVE ( 'NONE', #705, #204, #380, .T. ) ;
#207 = LINE ( 'NONE', #263, #709 ) ;
#208 = ORIENTED_EDGE ( 'NONE', *, *, #235, .F. ) ;
#209 = EDGE_CURVE ( 'NONE', #489, #204, #61, .T. ) ;
#210 = CARTESIAN_POINT ( 'NONE',  ( -14.13169213213474507, 1.082531754730548856, -0.6250000000000000000 ) ) ;
#211 = ORIENTED_EDGE ( 'NONE', *, *, #153, .F. ) ;
#212 = DIRECTION ( 'NONE',  ( 0.000000000000000000, 0.000000000000000000, 1.000000000000000000 ) ) ;
#213 = DIRECTION ( 'NONE',  ( 0.000000000000000000, -1.224646799147352714E-16, 1.000000000000000000 ) ) ;
#214 = ORIENTED_EDGE ( 'NONE', *, *, #120, .T. ) ;
#215 = ORIENTED_EDGE ( 'NONE', *, *, #206, .F. ) ;
#216 = CIRCLE ( 'NONE', #118, 1.443375672974063884 ) ;
#217 = FILL_AREA_STYLE_COLOUR ( '', #500 ) ;
#218 =( GEOMETRIC_REPRESENTATION_CONTEXT ( 3 ) GLOBAL_UNCERTAINTY_ASSIGNED_CONTEXT ( ( #643 ) ) GLOBAL_UNIT_ASSIGNED_CONTEXT ( ( #354, #523, #81 ) ) REPRESENTATION_CONTEXT ( 'NONE', 'WORKASPACE' ) );
#219 = CARTESIAN_POINT ( 'NONE',  ( -12.77942286340599409, 0.1219527981751485218, 1.249999999999999778 ) ) ;
#220 = ORIENTED_EDGE ( 'NONE', *, *, #120, .F. ) ;
#221 = CARTESIAN_POINT ( 'NONE',  ( -12.77919874466209471, 0.9604055199136772858, -0.8365288436399075378 ) ) ;
#222 = CARTESIAN_POINT ( 'NONE',  ( -14.20000000000000107, 1.443375672974064328, 9.757819552369541878E-16 ) ) ;
#223 = ORIENTED_EDGE ( 'NONE', *, *, #682, .T. ) ;
#224 = CARTESIAN_POINT ( 'NONE',  ( -12.82664516406750366, -0.8393307094615339858, 1.046236566859793049 ) ) ;
#225 = CIRCLE ( 'NONE', #127, 1.999999999999997780 ) ;
#226 =( GEOMETRIC_REPRESENTATION_CONTEXT ( 3 ) GLOBAL_UNCERTAINTY_ASSIGNED_CONTEXT ( ( #715 ) ) GLOBAL_UNIT_ASSIGNED_CONTEXT ( ( #446, #232, #553 ) ) REPRESENTATION_CONTEXT ( 'NONE', 'WORKASPACE' ) );
#227 = CARTESIAN_POINT ( 'NONE',  ( -12.79105228766683311, 0.2457778558553070092, -1.250000000000000000 ) ) ;
#228 = ORIENTED_EDGE ( 'NONE', *, *, #97, .F. ) ;
#229 = CARTESIAN_POINT ( 'NONE',  ( -12.00000000000000000, 1.443375672974064328, -3.128943976826325424E-17 ) ) ;
#230 = DIRECTION ( 'NONE',  ( 0.000000000000000000, 0.000000000000000000, 1.000000000000000000 ) ) ;
#231 = EDGE_CURVE ( 'NONE', #37, #604, #289, .T. ) ;
#232 =( NAMED_UNIT ( * ) PLANE_ANGLE_UNIT ( ) SI_UNIT ( $, .RADIAN. ) );
#233 = AXIS2_PLACEMENT_3D ( 'NONE', #557, #238, #389 ) ;
#234 = CARTESIAN_POINT ( 'NONE',  ( -14.20000000000000107, 2.219290746934189176E-17, -3.599228117386048901E-16 ) ) ;
#235 = EDGE_CURVE ( 'NONE', #581, #489, #543, .T. ) ;
#236 = CONICAL_SURFACE ( 'NONE', #603, 2.000000000000000000, 1.047197551196597631 ) ;
#237 = DIRECTION ( 'NONE',  ( 0.000000000000000000, 0.000000000000000000, 1.000000000000000000 ) ) ;
#238 = DIRECTION ( 'NONE',  ( -1.000000000000000000, -5.998083099822123814E-17, -0.000000000000000000 ) ) ;
#239 = DIRECTION ( 'NONE',  ( 0.000000000000000000, 0.000000000000000000, 1.000000000000000000 ) ) ;
#240 = CARTESIAN_POINT ( 'NONE',  ( -11.79999999999999893, 0.000000000000000000, 0.000000000000000000 ) ) ;
#241 = DIRECTION ( 'NONE',  ( 0.000000000000000000, 0.000000000000000000, 1.000000000000000000 ) ) ;
#242 = B_SPLINE_CURVE_WITH_KNOTS ( 'NONE', 3,
 ( #385, #610, #156, #592, #91 ),
 .UNSPECIFIED., .F., .F.,
 ( 4, 1, 4 ),
 ( 2.309401076739671950E-07, 0.0007219187765947080240, 0.001443606613081742113 ),
 .UNSPECIFIED. ) ;
#243 = FACE_OUTER_BOUND ( 'NONE', #719, .T. ) ;
#244 = ADVANCED_FACE ( 'NONE', ( #579 ), #236, .T. ) ;
#245 = DIRECTION ( 'NONE',  ( -1.000000000000000000, -0.000000000000000000, -0.000000000000000000 ) ) ;
#246 = DIRECTION ( 'NONE',  ( 1.000000000000000000, 0.000000000000000000, 0.000000000000000000 ) ) ;
#247 = DIRECTION ( 'NONE',  ( 1.000000000000000000, 0.000000000000000000, 0.000000000000000000 ) ) ;
#248 = ORIENTED_EDGE ( 'NONE', *, *, #10, .T. ) ;
#249 = CARTESIAN_POINT ( 'NONE',  ( -12.82664516406750366, -1.325732799999564504, -0.2037634331402072840 ) ) ;
#250 = ORIENTED_EDGE ( 'NONE', *, *, #675, .F. ) ;
#251 = SHAPE_DEFINITION_REPRESENTATION ( #720, #515 ) ;
#252 = CARTESIAN_POINT ( 'NONE',  ( -14.20000000000000107, 0.000000000000000000, 1.999999999999999112 ) ) ;
#253 = DIRECTION ( 'NONE',  ( -1.000000000000000000, -0.000000000000000000, -0.000000000000000000 ) ) ;
#254 = PLANE ( 'NONE',  #689 ) ;
#255 = B_SPLINE_CURVE_WITH_KNOTS ( 'NONE', 3,
 ( #406, #20, #15, #309, #249, #13 ),
 .UNSPECIFIED., .F., .F.,
 ( 4, 2, 4 ),
 ( 2.391904125716502264E-07, 0.0007300545202770521809, 0.001459869850141532832 ),
 .UNSPECIFIED. ) ;
#256 =( GEOMETRIC_REPRESENTATION_CONTEXT ( 3 ) GLOBAL_UNCERTAINTY_ASSIGNED_CONTEXT ( ( #273 ) ) GLOBAL_UNIT_ASSIGNED_CONTEXT ( ( #257, #641, #635 ) ) REPRESENTATION_CONTEXT ( 'NONE', 'WORKASPACE' ) );
#257 =( LENGTH_UNIT ( ) NAMED_UNIT ( * ) SI_UNIT ( .MILLI., .METRE. ) );
#258 = DIRECTION ( 'NONE',  ( -1.000000000000000000, -0.000000000000000000, -0.000000000000000000 ) ) ;
#259 = ORIENTED_EDGE ( 'NONE', *, *, #682, .F. ) ;
#260 = DIRECTION ( 'NONE',  ( -1.000000000000000000, -0.000000000000000000, -0.000000000000000000 ) ) ;
#261 = EDGE_CURVE ( 'NONE', #279, #600, #75, .T. ) ;
#262 = VECTOR ( 'NONE', #296, 1000.000000000000000 ) ;
#263 = CARTESIAN_POINT ( 'NONE',  ( -12.00000000000000000, 0.7216878364870323859, 1.249999999999999778 ) ) ;
#264 = VERTEX_POINT ( 'NONE', #530 ) ;
#265 = EDGE_LOOP ( 'NONE', ( #208, #427, #138, #640 ) ) ;
#266 = EDGE_CURVE ( 'NONE', #600, #537, #322, .T. ) ;
#267 = FACE_OUTER_BOUND ( 'NONE', #307, .T. ) ;
#268 = ORIENTED_EDGE ( 'NONE', *, *, #181, .F. ) ;
#269 = DIRECTION ( 'NONE',  ( -1.000000000000000000, -5.998083099822123814E-17, -0.000000000000000000 ) ) ;
#270 = CARTESIAN_POINT ( 'NONE',  ( -14.20000000000000107, -0.7216878364870309426, 1.250000000000000444 ) ) ;
#271 = ORIENTED_EDGE ( 'NONE', *, *, #26, .F. ) ;
#272 = B_SPLINE_CURVE_WITH_KNOTS ( 'NONE', 3,
 ( #60, #452, #393, #227, #284, #510 ),
 .UNSPECIFIED., .F., .F.,
 ( 4, 2, 4 ),
 ( 0.003836159553464219343, 0.004202463752521878176, 0.004568767951579537009 ),
 .UNSPECIFIED. ) ;
#273 = UNCERTAINTY_MEASURE_WITH_UNIT (LENGTH_MEASURE( 1.000000000000000082E-05 ), #257, 'distance_accuracy_value', 'NONE');
#274 = EDGE_LOOP ( 'NONE', ( #96, #661 ) ) ;
#275 = ORIENTED_EDGE ( 'NONE', *, *, #266, .T. ) ;
#276 = PLANE ( 'NONE',  #464 ) ;
#277 = ADVANCED_FACE ( 'NONE', ( #93 ), #426, .T. ) ;
#278 = CIRCLE ( 'NONE', #306, 1.999999999999997780 ) ;
#279 = VERTEX_POINT ( 'NONE', #270 ) ;
#280 = VERTEX_POINT ( 'NONE', #31 ) ;
#281 = CARTESIAN_POINT ( 'NONE',  ( -12.00000000000000000, -1.443375672974065216, -5.870030462665943960E-16 ) ) ;
#282 = VERTEX_POINT ( 'NONE', #713 ) ;
#283 = DIRECTION ( 'NONE',  ( -0.5291067161269960017, 0.000000000000000000, 0.8485552916276619673 ) ) ;
#284 = CARTESIAN_POINT ( 'NONE',  ( -12.77942286340599587, 0.1219527981751487716, -1.250000000000000222 ) ) ;
#285 = EDGE_CURVE ( 'NONE', #345, #537, #544, .T. ) ;
#286 = DIRECTION ( 'NONE',  ( 0.000000000000000000, 0.000000000000000000, 1.000000000000000000 ) ) ;
#287 = TOROIDAL_SURFACE ( 'NONE', #695, 2.199999999999998845, 0.2000000000000009548 ) ;
#288 = CARTESIAN_POINT ( 'NONE',  ( -0.3500000000000000333, 0.000000000000000000, 0.000000000000000000 ) ) ;
#289 = B_SPLINE_CURVE_WITH_KNOTS ( 'NONE', 3,
 ( #361, #583, #470, #183, #630, #126 ),
 .UNSPECIFIED., .F., .F.,
 ( 4, 2, 4 ),
 ( 2.391904125708790558E-07, 0.0007300545202770514219, 0.001459869850141531965 ),
 .UNSPECIFIED. ) ;
#290 = CIRCLE ( 'NONE', #402, 1.443375672974063884 ) ;
#291 = LINE ( 'NONE', #623, #377 ) ;
#292 = AXIS2_PLACEMENT_3D ( 'NONE', #717, #364, #213 ) ;
#293 = LINE ( 'NONE', #612, #688 ) ;
#294 = COLOUR_RGB ( '',0.7960784313725489669, 0.8235294117647058432, 0.9372549019607843146 ) ;
#295 = ORIENTED_EDGE ( 'NONE', *, *, #653, .F. ) ;
#296 = DIRECTION ( 'NONE',  ( -1.000000000000000000, -0.000000000000000000, -0.000000000000000000 ) ) ;
#297 = CONICAL_SURFACE ( 'NONE', #203, 1.443375672974064106, 1.013248818828625719 ) ;
#298 = FACE_OUTER_BOUND ( 'NONE', #423, .T. ) ;
#299 = CARTESIAN_POINT ( 'NONE',  ( -12.90000000000000213, 0.000000000000000000, 0.000000000000000000 ) ) ;
#300 = DIRECTION ( 'NONE',  ( -1.000000000000000000, -5.998083099822123814E-17, -0.000000000000000000 ) ) ;
#301 = ORIENTED_EDGE ( 'NONE', *, *, #285, .T. ) ;
#302 = FACE_OUTER_BOUND ( 'NONE', #477, .T. ) ;
#303 = FACE_OUTER_BOUND ( 'NONE', #167, .T. ) ;
#304 = CARTESIAN_POINT ( 'NONE',  ( -12.77942286340599587, 1.530808065882368999E-16, -1.250000000000000222 ) ) ;
#305 = EDGE_CURVE ( 'NONE', #197, #282, #196, .T. ) ;
#306 = AXIS2_PLACEMENT_3D ( 'NONE', #338, #677, #286 ) ;
#307 = EDGE_LOOP ( 'NONE', ( #481, #214, #133, #590 ) ) ;
#308 = FACE_OUTER_BOUND ( 'NONE', #379, .T. ) ;
#309 = CARTESIAN_POINT ( 'NONE',  ( -12.77919874466209471, -1.204657989547420316, -0.4134711563600920181 ) ) ;
#310 = EDGE_CURVE ( 'NONE', #494, #345, #431, .T. ) ;
#311 = CARTESIAN_POINT ( 'NONE',  ( -14.20000000000000107, 2.219290746934189176E-17, -3.599228117386048901E-16 ) ) ;
#312 = ORIENTED_EDGE ( 'NONE', *, *, #616, .T. ) ;
#313 = ADVANCED_FACE ( 'Bface1', ( #588, #424 ), #189, .F. ) ;
#314 = EDGE_LOOP ( 'NONE', ( #433, #170, #85, #609 ) ) ;
#315 = AXIS2_PLACEMENT_3D ( 'NONE', #457, #300, #334 ) ;
#316 = CIRCLE ( 'NONE', #410, 1.443375672974063884 ) ;
#317 = SURFACE_STYLE_FILL_AREA ( #164 ) ;
#318 = CARTESIAN_POINT ( 'NONE',  ( -10.72727272727272840, 0.000000000000000000, 0.000000000000000000 ) ) ;
#319 = ORIENTED_EDGE ( 'NONE', *, *, #305, .F. ) ;
#320 = CARTESIAN_POINT ( 'NONE',  ( -14.20000000000000107, 0.000000000000000000, 0.000000000000000000 ) ) ;
#321 = ORIENTED_EDGE ( 'NONE', *, *, #185, .F. ) ;
#322 = CIRCLE ( 'NONE', #173, 1.443375672974063884 ) ;
#323 = ORIENTED_EDGE ( 'NONE', *, *, #443, .F. ) ;
#324 = ORIENTED_EDGE ( 'NONE', *, *, #116, .T. ) ;
#325 = CARTESIAN_POINT ( 'NONE',  ( -1013.830000000000041, -5.995863809075189324E-14, 0.000000000000000000 ) ) ;
#326 = ORIENTED_EDGE ( 'NONE', *, *, #209, .T. ) ;
#327 = ORIENTED_EDGE ( 'NONE', *, *, #560, .F. ) ;
#328 = CARTESIAN_POINT ( 'NONE',  ( -12.00000000000000000, 0.7216878364870323859, 1.249999999999999778 ) ) ;
#329 = ADVANCED_FACE ( 'NONE', ( #690 ), #123, .T. ) ;
#330 = CARTESIAN_POINT ( 'NONE',  ( -12.90000000000000213, 0.7216878364870323859, 1.249999999999999778 ) ) ;
#331 = ORIENTED_EDGE ( 'NONE', *, *, #628, .F. ) ;
#332 = B_SPLINE_CURVE_WITH_KNOTS ( 'NONE', 3,
 ( #372, #721, #98, #221, #439, #598 ),
 .UNSPECIFIED., .F., .F.,
 ( 4, 2, 4 ),
 ( 2.391904125709705354E-07, 0.0007300545202770512051, 0.001459869850141531315 ),
 .UNSPECIFIED. ) ;
#333 = CARTESIAN_POINT ( 'NONE',  ( -14.20000000000000107, 0.7216878364870323859, 1.250000000000000000 ) ) ;
#334 = DIRECTION ( 'NONE',  ( 5.691969551695359369E-17, -1.000000000000000000, 0.000000000000000000 ) ) ;
#335 = DIRECTION ( 'NONE',  ( -0.5000000000000001110, 0.000000000000000000, 0.8660254037844385966 ) ) ;
#336 = EDGE_CURVE ( 'NONE', #280, #279, #569, .T. ) ;
#337 = VERTEX_POINT ( 'NONE', #459 ) ;
#338 = CARTESIAN_POINT ( 'NONE',  ( -11.79999999999999893, 0.000000000000000000, 0.000000000000000000 ) ) ;
#339 = DIRECTION ( 'NONE',  ( -1.000000000000000000, -0.000000000000000000, -0.000000000000000000 ) ) ;
#340 = SURFACE_STYLE_FILL_AREA ( #119 ) ;
#341 = DIRECTION ( 'NONE',  ( 0.000000000000000000, -1.000000000000000000, 0.000000000000000000 ) ) ;
#342 = AXIS2_PLACEMENT_3D ( 'NONE', #328, #552, #30 ) ;
#343 = DIRECTION ( 'NONE',  ( -1.000000000000000000, -0.000000000000000000, -0.000000000000000000 ) ) ;
#344 = VECTOR ( 'NONE', #448, 1000.000000000000000 ) ;
#345 = VERTEX_POINT ( 'NONE', #685 ) ;
#346 = CARTESIAN_POINT ( 'NONE',  ( -10.72727272727272840, 0.000000000000000000, 0.000000000000000000 ) ) ;
#347 = AXIS2_PLACEMENT_3D ( 'NONE', #195, #352, #638 ) ;
#348 = ADVANCED_FACE ( 'NONE', ( #407 ), #473, .F. ) ;
#349 = APPLICATION_PROTOCOL_DEFINITION ( 'draft international standard', 'automotive_design', 1998, #41 ) ;
#350 = DIRECTION ( 'NONE',  ( 0.000000000000000000, 1.224646799147353207E-16, -1.000000000000000000 ) ) ;
#351 = AXIS2_PLACEMENT_3D ( 'NONE', #5, #343, #239 ) ;
#352 = DIRECTION ( 'NONE',  ( -1.000000000000000000, -0.000000000000000000, -0.000000000000000000 ) ) ;
#353 = DIRECTION ( 'NONE',  ( 5.691969551695359369E-17, -1.000000000000000000, 0.000000000000000000 ) ) ;
#354 =( LENGTH_UNIT ( ) NAMED_UNIT ( * ) SI_UNIT ( .MILLI., .METRE. ) );
#355 = LINE ( 'NONE', #252, #92 ) ;
#356 = ADVANCED_FACE ( 'NONE', ( #573 ), #441, .F. ) ;
#357 = CARTESIAN_POINT ( 'NONE',  ( -12.82715765887601655, -0.4880459183963061776, -1.250000000000000222 ) ) ;
#358 = CARTESIAN_POINT ( 'NONE',  ( -12.77942286340599587, -4.330491382256005356E-23, 1.249999999999999778 ) ) ;
#359 =( GEOMETRIC_REPRESENTATION_CONTEXT ( 3 ) GLOBAL_UNCERTAINTY_ASSIGNED_CONTEXT ( ( #712 ) ) GLOBAL_UNIT_ASSIGNED_CONTEXT ( ( #636, #415, #649 ) ) REPRESENTATION_CONTEXT ( 'NONE', 'WORKASPACE' ) );
#360 = SURFACE_SIDE_STYLE ('',( #139 ) ) ;
#361 = CARTESIAN_POINT ( 'NONE',  ( -12.90000000000000213, 0.7216878364870323859, 1.249999999999999778 ) ) ;
#362 = ORIENTED_EDGE ( 'NONE', *, *, #153, .T. ) ;
#363 = CARTESIAN_POINT ( 'NONE',  ( -14.20000000000000107, 1.999999999999998668, 0.000000000000000000 ) ) ;
#364 = DIRECTION ( 'NONE',  ( -0.000000000000000000, 1.000000000000000000, 1.224646799147353207E-16 ) ) ;
#365 = AXIS2_PLACEMENT_3D ( 'NONE', #571, #469, #246 ) ;
#366 = EDGE_LOOP ( 'NONE', ( #710, #468 ) ) ;
#367 = ADVANCED_FACE ( 'NONE', ( #298 ), #383, .T. ) ;
#368 = CARTESIAN_POINT ( 'NONE',  ( -14.16916666666574187, 0.8419691425682040986, 1.041666666666667407 ) ) ;
#369 = DIRECTION ( 'NONE',  ( -1.000000000000000000, -0.000000000000000000, -0.000000000000000000 ) ) ;
#370 = ORIENTED_EDGE ( 'NONE', *, *, #432, .F. ) ;
#371 = CIRCLE ( 'NONE', #64, 0.2000000000000009548 ) ;
#372 = CARTESIAN_POINT ( 'NONE',  ( -12.90000000000000213, 1.443375672974064328, -3.128943976826325424E-17 ) ) ;
#373 = EDGE_LOOP ( 'NONE', ( #25, #223 ) ) ;
#374 = AXIS2_PLACEMENT_3D ( 'NONE', #136, #411, #637 ) ;
#375 = ADVANCED_FACE ( 'NONE', ( #525 ), #254, .F. ) ;
#376 = CARTESIAN_POINT ( 'NONE',  ( -14.20000000000000107, 0.000000000000000000, 0.000000000000000000 ) ) ;
#377 = VECTOR ( 'NONE', #283, 1000.000000000000000 ) ;
#378 = EDGE_LOOP ( 'NONE', ( #220, #324, #734, #542 ) ) ;
#379 = EDGE_LOOP ( 'NONE', ( #527, #228, #618, #388, #382 ) ) ;
#380 = CIRCLE ( 'NONE', #99, 4.007472359323742239 ) ;
#381 = CARTESIAN_POINT ( 'NONE',  ( -12.90000000000000213, 0.7216878364870328300, -1.249999999999999112 ) ) ;
#382 = ORIENTED_EDGE ( 'NONE', *, *, #310, .T. ) ;
#383 = CONICAL_SURFACE ( 'NONE', #347, 2.000000000000000000, 1.047197551196597631 ) ;
#384 = VERTEX_POINT ( 'NONE', #304 ) ;
#385 = CARTESIAN_POINT ( 'NONE',  ( -14.20000000000000107, -0.7216878364870309426, 1.250000000000000444 ) ) ;
#386 = EDGE_CURVE ( 'NONE', #186, #264, #371, .T. ) ;
#387 = CARTESIAN_POINT ( 'NONE',  ( -12.00000000000000178, 0.000000000000000000, 0.000000000000000000 ) ) ;
#388 = ORIENTED_EDGE ( 'NONE', *, *, #68, .F. ) ;
#389 = DIRECTION ( 'NONE',  ( 5.691969551695359369E-17, -1.000000000000000000, 0.000000000000000000 ) ) ;
#390 = DIRECTION ( 'NONE',  ( 0.000000000000000000, 0.000000000000000000, 1.000000000000000000 ) ) ;
#391 = ADVANCED_FACE ( 'NONE', ( #243 ), #532, .F. ) ;
#392 = AXIS2_PLACEMENT_3D ( 'NONE', #7, #449, #341 ) ;
#393 = CARTESIAN_POINT ( 'NONE',  ( -12.83343568050244698, 0.4873330088410962047, -1.250000000000000222 ) ) ;
#394 = ORIENTED_EDGE ( 'NONE', *, *, #97, .T. ) ;
#395 = LINE ( 'NONE', #229, #344 ) ;
#396 = CARTESIAN_POINT ( 'NONE',  ( -14.16921124011832589, -0.4814729877613865838, -1.250000000000000000 ) ) ;
#397 = CARTESIAN_POINT ( 'NONE',  ( -14.13169213213474507, -1.082531754730548856, -0.6250000000000016653 ) ) ;
#398 = DIRECTION ( 'NONE',  ( 0.000000000000000000, 0.000000000000000000, 1.000000000000000000 ) ) ;
#399 = DIRECTION ( 'NONE',  ( -1.000000000000000000, -0.000000000000000000, -0.000000000000000000 ) ) ;
#400 = DIRECTION ( 'NONE',  ( 0.000000000000000000, 0.000000000000000000, 1.000000000000000000 ) ) ;
#401 = SURFACE_STYLE_USAGE ( .BOTH. , #179 ) ;
#402 = AXIS2_PLACEMENT_3D ( 'NONE', #234, #444, #48 ) ;
#403 = DIRECTION ( 'NONE',  ( 0.000000000000000000, 0.5000000000000002220, -0.8660254037844384856 ) ) ;
#404 = EDGE_CURVE ( 'NONE', #282, #264, #225, .T. ) ;
#405 = ORIENTED_EDGE ( 'NONE', *, *, #26, .T. ) ;
#406 = CARTESIAN_POINT ( 'NONE',  ( -12.90000000000000213, -0.7216878364870328300, -1.250000000000000222 ) ) ;
#407 = FACE_OUTER_BOUND ( 'NONE', #274, .T. ) ;
#408 = AXIS2_PLACEMENT_3D ( 'NONE', #502, #253, #461 ) ;
#409 = FACE_OUTER_BOUND ( 'NONE', #158, .T. ) ;
#410 = AXIS2_PLACEMENT_3D ( 'NONE', #524, #258, #455 ) ;
#411 = DIRECTION ( 'NONE',  ( -1.000000000000000000, -0.000000000000000000, -0.000000000000000000 ) ) ;
#412 = AXIS2_PLACEMENT_3D ( 'NONE', #142, #422, #78 ) ;
#413 = FILL_AREA_STYLE ('',( #198 ) ) ;
#414 = EDGE_CURVE ( 'NONE', #337, #345, #567, .T. ) ;
#415 =( NAMED_UNIT ( * ) PLANE_ANGLE_UNIT ( ) SI_UNIT ( $, .RADIAN. ) );
#416 = DIRECTION ( 'NONE',  ( 0.000000000000000000, 0.000000000000000000, -1.000000000000000000 ) ) ;
#417 = AXIS2_PLACEMENT_3D ( 'NONE', #191, #687, #241 ) ;
#418 = ORIENTED_EDGE ( 'NONE', *, *, #693, .F. ) ;
#419 = DIRECTION ( 'NONE',  ( -1.000000000000000000, -5.998083099822123814E-17, -0.000000000000000000 ) ) ;
#420 = DIRECTION ( 'NONE',  ( 0.000000000000000000, 0.000000000000000000, 1.000000000000000000 ) ) ;
#421 = VECTOR ( 'NONE', #141, 1000.000000000000000 ) ;
#422 = DIRECTION ( 'NONE',  ( -1.000000000000000000, 0.000000000000000000, -0.000000000000000000 ) ) ;
#423 = EDGE_LOOP ( 'NONE', ( #312, #29, #370, #112 ) ) ;
#424 = FACE_BOUND ( 'NONE', #366, .T. ) ;
#425 = FACE_OUTER_BOUND ( 'NONE', #546, .T. ) ;
#426 = SPHERICAL_SURFACE ( 'NONE', #646, 4.007472359323742239 ) ;
#427 = ORIENTED_EDGE ( 'NONE', *, *, #107, .T. ) ;
#428 = CARTESIAN_POINT ( 'NONE',  ( -14.16916666666574187, 1.323094366892892948, -0.2083333333333324544 ) ) ;
#429 = CARTESIAN_POINT ( 'NONE',  ( -12.90000000000000213, 0.7216878364870323859, 1.249999999999999778 ) ) ;
#430 = DIRECTION ( 'NONE',  ( 0.000000000000000000, 0.4999999999999998335, 0.8660254037844387076 ) ) ;
#431 = LINE ( 'NONE', #701, #577 ) ;
#432 = EDGE_CURVE ( 'NONE', #154, #607, #704, .T. ) ;
#433 = ORIENTED_EDGE ( 'NONE', *, *, #82, .F. ) ;
#434 = EDGE_LOOP ( 'NONE', ( #319, #268, #613, #659 ) ) ;
#435 = DIRECTION ( 'NONE',  ( -1.000000000000000000, -0.000000000000000000, -0.000000000000000000 ) ) ;
#436 = CARTESIAN_POINT ( 'NONE',  ( -12.79105228766682956, 0.2457778558553066761, 1.249999999999999778 ) ) ;
#437 = ORIENTED_EDGE ( 'NONE', *, *, #509, .F. ) ;
#438 = EDGE_CURVE ( 'NONE', #705, #581, #731, .T. ) ;
#439 = CARTESIAN_POINT ( 'NONE',  ( -12.82664516406750366, 0.8393307094615335417, -1.046236566859792605 ) ) ;
#440 = LINE ( 'NONE', #669, #733 ) ;
#441 = CONICAL_SURFACE ( 'NONE', #496, 1.443375672974064106, 1.013248818828625719 ) ;
#442 = ORIENTED_EDGE ( 'NONE', *, *, #475, .F. ) ;
#443 = EDGE_CURVE ( 'NONE', #104, #88, #90, .T. ) ;
#444 = DIRECTION ( 'NONE',  ( -1.000000000000000000, -0.000000000000000000, -0.000000000000000000 ) ) ;
#445 = CIRCLE ( 'NONE', #533, 2.199999999999998845 ) ;
#446 =( LENGTH_UNIT ( ) NAMED_UNIT ( * ) SI_UNIT ( .MILLI., .METRE. ) );
#447 = VERTEX_POINT ( 'NONE', #77 ) ;
#448 = DIRECTION ( 'NONE',  ( -1.000000000000000000, -0.000000000000000000, -0.000000000000000000 ) ) ;
#449 = DIRECTION ( 'NONE',  ( -1.000000000000000000, -5.998083099822123814E-17, -0.000000000000000000 ) ) ;
#450 = CYLINDRICAL_SURFACE ( 'NONE', #165, 1.999999999999999112 ) ;
#451 = CARTESIAN_POINT ( 'NONE',  ( -12.90000000000000213, -1.443375672974065216, -5.870030462665943960E-16 ) ) ;
#452 = CARTESIAN_POINT ( 'NONE',  ( -12.86374379380171007, 0.6053960008849357255, -1.250000000000000000 ) ) ;
#453 = EDGE_CURVE ( 'NONE', #384, #666, #632, .T. ) ;
#454 = DIRECTION ( 'NONE',  ( 0.000000000000000000, 0.000000000000000000, 1.000000000000000000 ) ) ;
#455 = DIRECTION ( 'NONE',  ( 0.000000000000000000, 0.000000000000000000, -1.000000000000000000 ) ) ;
#456 = VECTOR ( 'NONE', #399, 1000.000000000000000 ) ;
#457 = CARTESIAN_POINT ( 'NONE',  ( -1013.830000000000041, -5.995863809075189324E-14, 0.000000000000000000 ) ) ;
#458 = ADVANCED_FACE ( 'Bface3', ( #16 ), #202, .F. ) ;
#459 = CARTESIAN_POINT ( 'NONE',  ( -14.20000000000000107, -0.7216878364870324969, -1.249999999999999556 ) ) ;
#460 = CARTESIAN_POINT ( 'NONE',  ( -12.00000000000000000, 0.000000000000000000, 2.199999999999998845 ) ) ;
#461 = DIRECTION ( 'NONE',  ( 0.000000000000000000, 0.000000000000000000, 1.000000000000000000 ) ) ;
#462 = TOROIDAL_SURFACE ( 'NONE', #140, 2.199999999999998845, 0.2000000000000009548 ) ;
#463 = ADVANCED_FACE ( 'NONE', ( #303 ), #287, .F. ) ;
#464 = AXIS2_PLACEMENT_3D ( 'NONE', #376, #34, #711 ) ;
#465 = B_SPLINE_CURVE_WITH_KNOTS ( 'NONE', 3,
 ( #222, #655, #658, #368, #591 ),
 .UNSPECIFIED., .F., .F.,
 ( 4, 1, 4 ),
 ( 2.309401076766420986E-07, 0.0007219187765947084577, 0.001443606613081740162 ),
 .UNSPECIFIED. ) ;
#466 = DIRECTION ( 'NONE',  ( -1.000000000000000000, -0.000000000000000000, -0.000000000000000000 ) ) ;
#467 = COLOUR_RGB ( '',0.7960784313725489669, 0.8235294117647058432, 0.9372549019607843146 ) ;
#468 = ORIENTED_EDGE ( 'NONE', *, *, #146, .T. ) ;
#469 = DIRECTION ( 'NONE',  ( 0.000000000000000000, 0.000000000000000000, 1.000000000000000000 ) ) ;
#470 = CARTESIAN_POINT ( 'NONE',  ( -12.77964865737705225, 0.9585729505925310034, 0.8397029468125251084 ) ) ;
#471 = PRESENTATION_LAYER_ASSIGNMENT (  '', '', ( #608 ) ) ;
#472 = ORIENTED_EDGE ( 'NONE', *, *, #305, .T. ) ;
#473 = CONICAL_SURFACE ( 'NONE', #593, 3901.015332362329445, 1.319856261027561928 ) ;
#474 = DIRECTION ( 'NONE',  ( 0.000000000000000000, 1.000000000000000000, 0.000000000000000000 ) ) ;
#475 = EDGE_CURVE ( 'NONE', #345, #337, #216, .T. ) ;
#476 = FACE_OUTER_BOUND ( 'NONE', #696, .T. ) ;
#477 = EDGE_LOOP ( 'NONE', ( #327, #40, #418, #497 ) ) ;
#478 = PRODUCT_DEFINITION_FORMATION_WITH_SPECIFIED_SOURCE ( '任何', '', #597, .NOT_KNOWN. ) ;
#479 = CARTESIAN_POINT ( 'NONE',  ( -12.00000000000000000, -3.800000000000000266, -4.653657836759942730E-16 ) ) ;
#480 = DIRECTION ( 'NONE',  ( -1.000000000000000000, -0.000000000000000000, -0.000000000000000000 ) ) ;
#481 = ORIENTED_EDGE ( 'NONE', *, *, #432, .T. ) ;
#482 = AXIS2_PLACEMENT_3D ( 'NONE', #311, #480, #708 ) ;
#483 =( LENGTH_UNIT ( ) NAMED_UNIT ( * ) SI_UNIT ( .MILLI., .METRE. ) );
#484 = CARTESIAN_POINT ( 'NONE',  ( -14.20000000000000107, 0.7216878364870321638, -1.250000000000000222 ) ) ;
#485 = VERTEX_POINT ( 'NONE', #660 ) ;
#486 = EDGE_LOOP ( 'NONE', ( #714, #323 ) ) ;
#487 = CYLINDRICAL_SURFACE ( 'NONE', #526, 1.999999999999999112 ) ;
#488 = CARTESIAN_POINT ( 'NONE',  ( -12.77942286340599587, -4.330491382256005356E-23, 1.249999999999999778 ) ) ;
#489 = VERTEX_POINT ( 'NONE', #55 ) ;
#490 = SURFACE_STYLE_USAGE ( .BOTH. , #716 ) ;
#491 = CONICAL_SURFACE ( 'NONE', #504, 3901.015332362329445, 1.319856261027561928 ) ;
#492 = PRODUCT_DEFINITION_CONTEXT ( 'detailed design', #41, 'design' ) ;
#493 = CARTESIAN_POINT ( 'NONE',  ( -12.83343568050244521, 0.4873330088410962047, 1.249999999999999334 ) ) ;
#494 = VERTEX_POINT ( 'NONE', #381 ) ;
#495 = CARTESIAN_POINT ( 'NONE',  ( -12.77964865737705225, -1.206490558868566598, 0.4102970531874742810 ) ) ;
#496 = AXIS2_PLACEMENT_3D ( 'NONE', #645, #65, #454 ) ;
#497 = ORIENTED_EDGE ( 'NONE', *, *, #644, .T. ) ;
#498 = FACE_OUTER_BOUND ( 'NONE', #596, .T. ) ;
#499 = CARTESIAN_POINT ( 'NONE',  ( -0.3500000000000000333, 2.449293598294706414E-16, -2.000000000000000000 ) ) ;
#500 = COLOUR_RGB ( '',0.7960784313725489669, 0.8235294117647058432, 0.9372549019607843146 ) ;
#501 = CARTESIAN_POINT ( 'NONE',  ( -12.77942286340599587, -0.2440392103072532015, 1.249999999999999778 ) ) ;
#502 = CARTESIAN_POINT ( 'NONE',  ( -12.00000000000000000, 0.000000000000000000, 0.000000000000000000 ) ) ;
#503 = ADVANCED_FACE ( 'NONE', ( #425 ), #43, .F. ) ;
#504 = AXIS2_PLACEMENT_3D ( 'NONE', #648, #419, #19 ) ;
#505 = DIRECTION ( 'NONE',  ( 0.000000000000000000, 0.000000000000000000, 1.000000000000000000 ) ) ;
#506 = LINE ( 'NONE', #281, #456 ) ;
#507 = AXIS2_PLACEMENT_3D ( 'NONE', #135, #350, #642 ) ;
#508 = DIRECTION ( 'NONE',  ( -1.000000000000000000, -0.000000000000000000, -0.000000000000000000 ) ) ;
#509 = EDGE_CURVE ( 'NONE', #604, #494, #332, .T. ) ;
#510 = CARTESIAN_POINT ( 'NONE',  ( -12.77942286340599587, 1.530808065882368999E-16, -1.250000000000000222 ) ) ;
#511 = AXIS2_PLACEMENT_3D ( 'NONE', #556, #108, #54 ) ;
#512 = DIRECTION ( 'NONE',  ( -1.000000000000000000, -0.000000000000000000, -0.000000000000000000 ) ) ;
#513 = ADVANCED_FACE ( 'Bface2', ( #267 ), #487, .T. ) ;
#514 = CARTESIAN_POINT ( 'NONE',  ( -12.00000000000000000, -0.7216878364870328300, -1.250000000000000222 ) ) ;
#515 = ADVANCED_BREP_SHAPE_REPRESENTATION ( 'GB╱T 70.2-2015[内六角平圆头螺钉M4×12]', ( #180, #365 ), #218 ) ;
#516 = DIRECTION ( 'NONE',  ( -0.000000000000000000, 0.000000000000000000, 1.000000000000000000 ) ) ;
#517 = CARTESIAN_POINT ( 'NONE',  ( -12.00000000000000000, -1.443375672974065216, -5.870030462665943960E-16 ) ) ;
#518 = CARTESIAN_POINT ( 'NONE',  ( -12.00000000000000178, 0.000000000000000000, 0.000000000000000000 ) ) ;
#519 = ADVANCED_FACE ( 'NONE', ( #149, #663 ), #276, .F. ) ;
#520 = PLANE ( 'NONE',  #698 ) ;
#521 = DIRECTION ( 'NONE',  ( -1.000000000000000000, -0.000000000000000000, -0.000000000000000000 ) ) ;
#522 = ORIENTED_EDGE ( 'NONE', *, *, #68, .T. ) ;
#523 =( NAMED_UNIT ( * ) PLANE_ANGLE_UNIT ( ) SI_UNIT ( $, .RADIAN. ) );
#524 = CARTESIAN_POINT ( 'NONE',  ( -14.20000000000000107, 2.219290746934189176E-17, -3.599228117386048901E-16 ) ) ;
#525 = FACE_OUTER_BOUND ( 'NONE', #691, .T. ) ;
#526 = AXIS2_PLACEMENT_3D ( 'NONE', #320, #435, #212 ) ;
#527 = ORIENTED_EDGE ( 'NONE', *, *, #414, .F. ) ;
#528 = ORIENTED_EDGE ( 'NONE', *, *, #453, .T. ) ;
#529 = ADVANCED_FACE ( 'NONE', ( #102 ), #155, .F. ) ;
#530 = CARTESIAN_POINT ( 'NONE',  ( -11.79999999999999893, 0.000000000000000000, 1.999999999999997780 ) ) ;
#531 = ORIENTED_EDGE ( 'NONE', *, *, #475, .T. ) ;
#532 = CONICAL_SURFACE ( 'NONE', #315, 3901.015332362329445, 1.319856261027561928 ) ;
#533 = AXIS2_PLACEMENT_3D ( 'NONE', #387, #466, #420 ) ;
#534 = ORIENTED_EDGE ( 'NONE', *, *, #231, .F. ) ;
#535 =( NAMED_UNIT ( * ) PLANE_ANGLE_UNIT ( ) SI_UNIT ( $, .RADIAN. ) );
#536 = DIRECTION ( 'NONE',  ( -0.000000000000000000, 0.000000000000000000, -1.000000000000000000 ) ) ;
#537 = VERTEX_POINT ( 'NONE', #726 ) ;
#538 = PRODUCT_DEFINITION ( '未知', '', #478, #492 ) ;
#539 = CIRCLE ( 'NONE', #662, 1.393782217350892916 ) ;
#540 = CARTESIAN_POINT ( 'NONE',  ( -1013.830000000000041, -5.995863809075189324E-14, 0.000000000000000000 ) ) ;
#541 = CARTESIAN_POINT ( 'NONE',  ( -0.3500000000000000333, 0.000000000000000000, 0.000000000000000000 ) ) ;
#542 = ORIENTED_EDGE ( 'NONE', *, *, #404, .F. ) ;
#543 = CIRCLE ( 'NONE', #507, 4.007472359323742239 ) ;
#544 = B_SPLINE_CURVE_WITH_KNOTS ( 'NONE', 3,
 ( #484, #205, #210, #428, #657 ),
 .UNSPECIFIED., .F., .F.,
 ( 4, 1, 4 ),
 ( 2.309401076757153916E-07, 0.0007219187765947085661, 0.001443606613081741463 ),
 .UNSPECIFIED. ) ;
#545 = FACE_OUTER_BOUND ( 'NONE', #671, .T. ) ;
#546 = EDGE_LOOP ( 'NONE', ( #161, #554, #437, #549 ) ) ;
#547 = ORIENTED_EDGE ( 'NONE', *, *, #438, .F. ) ;
#548 = ADVANCED_FACE ( 'NONE', ( #476 ), #22, .F. ) ;
#549 = ORIENTED_EDGE ( 'NONE', *, *, #675, .T. ) ;
#550 = B_SPLINE_CURVE_WITH_KNOTS ( 'NONE', 3,
 ( #680, #619, #501, #110 ),
 .UNSPECIFIED., .F., .F.,
 ( 4, 4 ),
 ( 0.001144596242895329829, 0.001876385854435920399 ),
 .UNSPECIFIED. ) ;
#551 = EDGE_LOOP ( 'NONE', ( #547, #32 ) ) ;
#552 = DIRECTION ( 'NONE',  ( -0.000000000000000000, 0.8660254037844387076, 0.4999999999999998335 ) ) ;
#553 =( NAMED_UNIT ( * ) SI_UNIT ( $, .STERADIAN. ) SOLID_ANGLE_UNIT ( ) );
#554 = ORIENTED_EDGE ( 'NONE', *, *, #310, .F. ) ;
#555 = DIRECTION ( 'NONE',  ( 0.000000000000000000, 0.000000000000000000, 1.000000000000000000 ) ) ;
#556 = CARTESIAN_POINT ( 'NONE',  ( -12.00000000000000000, -0.7216878364870332740, 1.249999999999999778 ) ) ;
#557 = CARTESIAN_POINT ( 'NONE',  ( -1013.830000000000041, -5.995863809075189324E-14, 0.000000000000000000 ) ) ;
#558 = CARTESIAN_POINT ( 'NONE',  ( -11.79999999999999893, 0.000000000000000000, 0.000000000000000000 ) ) ;
#559 = AXIS2_PLACEMENT_3D ( 'NONE', #540, #160, #605 ) ;
#560 = EDGE_CURVE ( 'NONE', #279, #447, #242, .T. ) ;
#561 = CARTESIAN_POINT ( 'NONE',  ( -14.20000000000000107, -0.7216878364870309426, 1.250000000000000444 ) ) ;
#562 = B_SPLINE_CURVE_WITH_KNOTS ( 'NONE', 3,
 ( #488, #219, #436, #493, #727, #429 ),
 .UNSPECIFIED., .F., .F.,
 ( 4, 2, 4 ),
 ( 0.001876385854435920399, 0.002242080329067761349, 0.002607774803699601865 ),
 .UNSPECIFIED. ) ;
#563 = DIRECTION ( 'NONE',  ( -1.000000000000000000, -0.000000000000000000, -0.000000000000000000 ) ) ;
#564 = DIRECTION ( 'NONE',  ( -1.000000000000000000, -0.000000000000000000, -0.000000000000000000 ) ) ;
#565 = ORIENTED_EDGE ( 'NONE', *, *, #595, .T. ) ;
#566 = ADVANCED_FACE ( 'NONE', ( #545 ), #106, .F. ) ;
#567 = B_SPLINE_CURVE_WITH_KNOTS ( 'NONE', 3,
 ( #172, #396, #114, #169, #620, #615 ),
 .UNSPECIFIED., .F., .F.,
 ( 4, 2, 4 ),
 ( 0.001182686314803312391, 0.001908595411696192238, 0.002634504508589072085 ),
 .UNSPECIFIED. ) ;
#568 = AXIS2_PLACEMENT_3D ( 'NONE', #346, #184, #67 ) ;
#569 = LINE ( 'NONE', #12, #188 ) ;
#570 = VECTOR ( 'NONE', #176, 1000.000000000000000 ) ;
#571 = CARTESIAN_POINT ( 'NONE',  ( 0.000000000000000000, 0.000000000000000000, 0.000000000000000000 ) ) ;
#572 = EDGE_CURVE ( 'NONE', #37, #600, #207, .T. ) ;
#573 = FACE_OUTER_BOUND ( 'NONE', #193, .T. ) ;
#574 = DIRECTION ( 'NONE',  ( -1.000000000000000000, 0.000000000000000000, -0.000000000000000000 ) ) ;
#575 = DIRECTION ( 'NONE',  ( -1.000000000000000000, -0.000000000000000000, -0.000000000000000000 ) ) ;
#576 = CARTESIAN_POINT ( 'NONE',  ( -12.90000000000000213, -0.7216878364870328300, -1.250000000000000222 ) ) ;
#577 = VECTOR ( 'NONE', #201, 1000.000000000000000 ) ;
#578 = PRODUCT_CONTEXT ( 'NONE', #684, 'mechanical' ) ;
#579 = FACE_OUTER_BOUND ( 'NONE', #314, .T. ) ;
#580 = DIRECTION ( 'NONE',  ( 0.000000000000000000, -0.8660254037844385966, -0.5000000000000003331 ) ) ;
#581 = VERTEX_POINT ( 'NONE', #479 ) ;
#582 = CARTESIAN_POINT ( 'NONE',  ( -12.00000000000000000, 3.800000000000000266, 0.000000000000000000 ) ) ;
#583 = CARTESIAN_POINT ( 'NONE',  ( -12.82677104533570400, 0.8391288272867697406, 1.046586237043625411 ) ) ;
#584 = ORIENTED_EDGE ( 'NONE', *, *, #414, .T. ) ;
#585 = B_SPLINE_CURVE_WITH_KNOTS ( 'NONE', 3,
 ( #614, #52, #175, #674, #168, #561 ),
 .UNSPECIFIED., .F., .F.,
 ( 4, 2, 4 ),
 ( 0.002974540139219453583, 0.003699310320131258233, 0.004424080501043063315 ),
 .UNSPECIFIED. ) ;
#586 = DIRECTION ( 'NONE',  ( 0.000000000000000000, -0.4999999999999996669, -0.8660254037844388186 ) ) ;
#587 = DIRECTION ( 'NONE',  ( -0.000000000000000000, 0.000000000000000000, 1.000000000000000000 ) ) ;
#588 = FACE_OUTER_BOUND ( 'NONE', #551, .T. ) ;
#589 = PRESENTATION_LAYER_ASSIGNMENT (  '', '', ( #157 ) ) ;
#590 = ORIENTED_EDGE ( 'NONE', *, *, #177, .F. ) ;
#591 = CARTESIAN_POINT ( 'NONE',  ( -14.20000000000000107, 0.7216878364870323859, 1.250000000000000000 ) ) ;
#592 = CARTESIAN_POINT ( 'NONE',  ( -14.16916666666574187, -1.323094366892894280, 0.2083333333333315940 ) ) ;
#593 = AXIS2_PLACEMENT_3D ( 'NONE', #633, #128, #353 ) ;
#594 = CARTESIAN_POINT ( 'NONE',  ( -14.20000000000000107, 2.219290746934189176E-17, -3.599228117386048901E-16 ) ) ;
#595 = EDGE_CURVE ( 'NONE', #600, #279, #585, .T. ) ;
#596 = EDGE_LOOP ( 'NONE', ( #565, #80 ) ) ;
#597 = PRODUCT ( 'GB╱T 70.2-2015[内六角平圆头螺钉M4×12]', 'GB╱T 70.2-2015[内六角平圆头螺钉M4×12]', '', ( #578 ) ) ;
#598 = CARTESIAN_POINT ( 'NONE',  ( -12.90000000000000213, 0.7216878364870328300, -1.249999999999999112 ) ) ;
#599 = PRESENTATION_LAYER_ASSIGNMENT (  '', '', ( #192 ) ) ;
#600 = VERTEX_POINT ( 'NONE', #333 ) ;
#601 = PRESENTATION_STYLE_ASSIGNMENT (( #490 ) ) ;
#602 = EDGE_LOOP ( 'NONE', ( #584, #531 ) ) ;
#603 = AXIS2_PLACEMENT_3D ( 'NONE', #541, #152, #87 ) ;
#604 = VERTEX_POINT ( 'NONE', #113 ) ;
#605 = DIRECTION ( 'NONE',  ( 5.691969551695359369E-17, -1.000000000000000000, 0.000000000000000000 ) ) ;
#606 = AXIS2_PLACEMENT_3D ( 'NONE', #732, #676, #398 ) ;
#607 = VERTEX_POINT ( 'NONE', #1 ) ;
#608 = STYLED_ITEM ( 'NONE', ( #73 ), #180 ) ;
#609 = ORIENTED_EDGE ( 'NONE', *, *, #116, .F. ) ;
#610 = CARTESIAN_POINT ( 'NONE',  ( -14.16916666666574010, -0.8419691425682047647, 1.041666666666667407 ) ) ;
#611 = EDGE_CURVE ( 'NONE', #537, #345, #290, .T. ) ;
#612 = CARTESIAN_POINT ( 'NONE',  ( -0.3500000000000000333, 0.000000000000000000, 2.000000000000000000 ) ) ;
#613 = ORIENTED_EDGE ( 'NONE', *, *, #386, .T. ) ;
#614 = CARTESIAN_POINT ( 'NONE',  ( -14.20000000000000107, 0.7216878364870323859, 1.250000000000000000 ) ) ;
#615 = CARTESIAN_POINT ( 'NONE',  ( -14.20000000000000107, 0.7216878364870321638, -1.250000000000000222 ) ) ;
#616 = EDGE_CURVE ( 'NONE', #88, #104, #539, .T. ) ;
#617 = DIRECTION ( 'NONE',  ( -1.000000000000000000, -0.000000000000000000, -0.000000000000000000 ) ) ;
#618 = ORIENTED_EDGE ( 'NONE', *, *, #453, .F. ) ;
#619 = CARTESIAN_POINT ( 'NONE',  ( -12.82715765887601655, -0.4880459183963068992, 1.249999999999999778 ) ) ;
#620 = CARTESIAN_POINT ( 'NONE',  ( -14.16927320067241958, 0.4819564059043952020, -1.250000000000000222 ) ) ;
#621 = LINE ( 'NONE', #624, #262 ) ;
#622 = EDGE_CURVE ( 'NONE', #264, #282, #278, .T. ) ;
#623 = CARTESIAN_POINT ( 'NONE',  ( -12.90000000000000213, 0.000000000000000000, 1.443375672974064106 ) ) ;
#624 = CARTESIAN_POINT ( 'NONE',  ( -12.00000000000000000, -0.7216878364870328300, -1.250000000000000222 ) ) ;
#625 = AXIS2_PLACEMENT_3D ( 'NONE', #707, #151, #430 ) ;
#626 = CARTESIAN_POINT ( 'NONE',  ( -14.16916666666574187, -0.8419691425682048758, -1.041666666666667185 ) ) ;
#627 = PRESENTATION_STYLE_ASSIGNMENT (( #401 ) ) ;
#628 = EDGE_CURVE ( 'NONE', #280, #729, #550, .T. ) ;
#629 = CARTESIAN_POINT ( 'NONE',  ( -14.20000000000000107, 2.219290746934189176E-17, -3.599228117386048901E-16 ) ) ;
#630 = CARTESIAN_POINT ( 'NONE',  ( -12.82664516406750366, 1.325732799999563616, 0.2037634331402067567 ) ) ;
#631 = AXIS2_PLACEMENT_3D ( 'NONE', #288, #339, #390 ) ;
#632 = B_SPLINE_CURVE_WITH_KNOTS ( 'NONE', 3,
 ( #21, #131, #357, #576 ),
 .UNSPECIFIED., .F., .F.,
 ( 4, 4 ),
 ( 0.004568767951579537009, 0.005301777679998200682 ),
 .UNSPECIFIED. ) ;
#633 = CARTESIAN_POINT ( 'NONE',  ( -1013.830000000000041, -5.995863809075189324E-14, 0.000000000000000000 ) ) ;
#634 = AXIS2_PLACEMENT_3D ( 'NONE', #121, #512, #9 ) ;
#635 =( NAMED_UNIT ( * ) SI_UNIT ( $, .STERADIAN. ) SOLID_ANGLE_UNIT ( ) );
#636 =( LENGTH_UNIT ( ) NAMED_UNIT ( * ) SI_UNIT ( .MILLI., .METRE. ) );
#637 = DIRECTION ( 'NONE',  ( 0.000000000000000000, 0.000000000000000000, 1.000000000000000000 ) ) ;
#638 = DIRECTION ( 'NONE',  ( 0.000000000000000000, 0.000000000000000000, 1.000000000000000000 ) ) ;
#639 = MECHANICAL_DESIGN_GEOMETRIC_PRESENTATION_REPRESENTATION (  '', ( #192 ), #95 ) ;
#640 = ORIENTED_EDGE ( 'NONE', *, *, #209, .F. ) ;
#641 =( NAMED_UNIT ( * ) PLANE_ANGLE_UNIT ( ) SI_UNIT ( $, .RADIAN. ) );
#642 = DIRECTION ( 'NONE',  ( 0.000000000000000000, 1.000000000000000000, 1.224646799147353207E-16 ) ) ;
#643 = UNCERTAINTY_MEASURE_WITH_UNIT (LENGTH_MEASURE( 1.000000000000000082E-05 ), #354, 'distance_accuracy_value', 'NONE');
#644 = EDGE_CURVE ( 'NONE', #485, #447, #506, .T. ) ;
#645 = CARTESIAN_POINT ( 'NONE',  ( -12.90000000000000213, 0.000000000000000000, 0.000000000000000000 ) ) ;
#646 = AXIS2_PLACEMENT_3D ( 'NONE', #318, #536, #474 ) ;
#647 = ORIENTED_EDGE ( 'NONE', *, *, #611, .T. ) ;
#648 = CARTESIAN_POINT ( 'NONE',  ( -1013.830000000000041, -5.995863809075189324E-14, 0.000000000000000000 ) ) ;
#649 =( NAMED_UNIT ( * ) SI_UNIT ( $, .STERADIAN. ) SOLID_ANGLE_UNIT ( ) );
#650 = ADVANCED_FACE ( 'NONE', ( #498 ), #724, .F. ) ;
#651 = ORIENTED_EDGE ( 'NONE', *, *, #404, .T. ) ;
#652 = FILL_AREA_STYLE_COLOUR ( '', #103 ) ;
#653 = EDGE_CURVE ( 'NONE', #447, #337, #725, .T. ) ;
#654 = EDGE_LOOP ( 'NONE', ( #656, #442, #722, #125, #664, #259 ) ) ;
#655 = CARTESIAN_POINT ( 'NONE',  ( -14.16916666666574010, 1.323094366892892060, 0.2083333333333338422 ) ) ;
#656 = ORIENTED_EDGE ( 'NONE', *, *, #174, .F. ) ;
#657 = CARTESIAN_POINT ( 'NONE',  ( -14.20000000000000107, 1.443375672974064328, 9.757819552369541878E-16 ) ) ;
#658 = CARTESIAN_POINT ( 'NONE',  ( -14.13169213213474507, 1.082531754730547968, 0.6250000000000007772 ) ) ;
#659 = ORIENTED_EDGE ( 'NONE', *, *, #622, .T. ) ;
#660 = CARTESIAN_POINT ( 'NONE',  ( -12.90000000000000213, -1.443375672974065216, -5.870030462665943960E-16 ) ) ;
#661 = ORIENTED_EDGE ( 'NONE', *, *, #174, .T. ) ;
#662 = AXIS2_PLACEMENT_3D ( 'NONE', #59, #171, #555 ) ;
#663 = FACE_BOUND ( 'NONE', #654, .T. ) ;
#664 = ORIENTED_EDGE ( 'NONE', *, *, #261, .F. ) ;
#665 = EDGE_CURVE ( 'NONE', #148, #729, #291, .T. ) ;
#666 = VERTEX_POINT ( 'NONE', #4 ) ;
#667 = DIRECTION ( 'NONE',  ( 5.691969551695359369E-17, -1.000000000000000000, 0.000000000000000000 ) ) ;
#668 = AXIS2_PLACEMENT_3D ( 'NONE', #69, #14, #516 ) ;
#669 = CARTESIAN_POINT ( 'NONE',  ( -14.20000000000000107, 2.449293598294705428E-16, -1.999999999999999112 ) ) ;
#670 = CIRCLE ( 'NONE', #351, 3.800000000000000266 ) ;
#671 = EDGE_LOOP ( 'NONE', ( #271, #250, #534, #182 ) ) ;
#672 = CARTESIAN_POINT ( 'NONE',  ( -14.16916666666574010, -1.323094366892892060, -0.2083333333333356741 ) ) ;
#673 = ORIENTED_EDGE ( 'NONE', *, *, #572, .F. ) ;
#674 = CARTESIAN_POINT ( 'NONE',  ( -14.15037000055573380, -0.2394511050528674578, 1.249999999999999334 ) ) ;
#675 = EDGE_CURVE ( 'NONE', #604, #537, #395, .T. ) ;
#676 = DIRECTION ( 'NONE',  ( -1.000000000000000000, -0.000000000000000000, -0.000000000000000000 ) ) ;
#677 = DIRECTION ( 'NONE',  ( -1.000000000000000000, -0.000000000000000000, -0.000000000000000000 ) ) ;
#678 = CARTESIAN_POINT ( 'NONE',  ( -11.79999999999999893, 0.000000000000000000, 0.000000000000000000 ) ) ;
#679 = FACE_OUTER_BOUND ( 'NONE', #378, .T. ) ;
#680 = CARTESIAN_POINT ( 'NONE',  ( -12.90000000000000213, -0.7216878364870332740, 1.249999999999999778 ) ) ;
#681 = CARTESIAN_POINT ( 'NONE',  ( -14.20000000000000107, 0.000000000000000000, 0.000000000000000000 ) ) ;
#682 = EDGE_CURVE ( 'NONE', #447, #279, #58, .T. ) ;
#683 = FILL_AREA_STYLE ('',( #652 ) ) ;
#684 = APPLICATION_CONTEXT ( 'automotive_design' ) ;
#685 = CARTESIAN_POINT ( 'NONE',  ( -14.20000000000000107, 0.7216878364870321638, -1.250000000000000222 ) ) ;
#686 = CARTESIAN_POINT ( 'NONE',  ( -12.90000000000000213, -0.7216878364870332740, 1.249999999999999778 ) ) ;
#687 = DIRECTION ( 'NONE',  ( -1.000000000000000000, -0.000000000000000000, -0.000000000000000000 ) ) ;
#688 = VECTOR ( 'NONE', #335, 1000.000000000000000 ) ;
#689 = AXIS2_PLACEMENT_3D ( 'NONE', #514, #580, #403 ) ;
#690 = FACE_OUTER_BOUND ( 'NONE', #46, .T. ) ;
#691 = EDGE_LOOP ( 'NONE', ( #295, #51, #321, #394 ) ) ;
#692 = PRESENTATION_STYLE_ASSIGNMENT (( #144 ) ) ;
#693 = EDGE_CURVE ( 'NONE', #485, #280, #86, .T. ) ;
#694 = CARTESIAN_POINT ( 'NONE',  ( -10.72727272727272840, 0.000000000000000000, 0.000000000000000000 ) ) ;
#695 = AXIS2_PLACEMENT_3D ( 'NONE', #240, #564, #400 ) ;
#696 = EDGE_LOOP ( 'NONE', ( #301, #647 ) ) ;
#697 = ADVANCED_FACE ( 'NONE', ( #308 ), #72, .F. ) ;
#698 = AXIS2_PLACEMENT_3D ( 'NONE', #517, #134, #586 ) ;
#699 = DIRECTION ( 'NONE',  ( -1.000000000000000000, -0.000000000000000000, -0.000000000000000000 ) ) ;
#700 = CARTESIAN_POINT ( 'NONE',  ( -0.3500000000000000333, 0.000000000000000000, 2.000000000000000000 ) ) ;
#701 = CARTESIAN_POINT ( 'NONE',  ( -12.00000000000000000, 0.7216878364870321638, -1.250000000000000222 ) ) ;
#702 = STYLED_ITEM ( 'NONE', ( #627 ), #74 ) ;
#703 = ADVANCED_FACE ( 'NONE', ( #23 ), #491, .F. ) ;
#704 = CIRCLE ( 'NONE', #631, 2.000000000000000000 ) ;
#705 = VERTEX_POINT ( 'NONE', #582 ) ;
#706 = ADVANCED_FACE ( 'NONE', ( #302 ), #520, .F. ) ;
#707 = CARTESIAN_POINT ( 'NONE',  ( -12.00000000000000000, 1.443375672974064328, -3.128943976826325424E-17 ) ) ;
#708 = DIRECTION ( 'NONE',  ( 0.000000000000000000, 1.776356839400250465E-15, -1.000000000000000000 ) ) ;
#709 = VECTOR ( 'NONE', #369, 1000.000000000000000 ) ;
#710 = ORIENTED_EDGE ( 'NONE', *, *, #181, .T. ) ;
#711 = DIRECTION ( 'NONE',  ( 0.000000000000000000, 0.000000000000000000, -1.000000000000000000 ) ) ;
#712 = UNCERTAINTY_MEASURE_WITH_UNIT (LENGTH_MEASURE( 1.000000000000000082E-05 ), #636, 'distance_accuracy_value', 'NONE');
#713 = CARTESIAN_POINT ( 'NONE',  ( -11.79999999999999893, 2.449293598294704935E-16, -1.999999999999997780 ) ) ;
#714 = ORIENTED_EDGE ( 'NONE', *, *, #616, .F. ) ;
#715 = UNCERTAINTY_MEASURE_WITH_UNIT (LENGTH_MEASURE( 1.000000000000000082E-05 ), #446, 'distance_accuracy_value', 'NONE');
#716 = SURFACE_SIDE_STYLE ('',( #317 ) ) ;
#717 = CARTESIAN_POINT ( 'NONE',  ( -11.79999999999999893, 2.694222958124175527E-16, -2.199999999999998845 ) ) ;
#718 = ORIENTED_EDGE ( 'NONE', *, *, #235, .T. ) ;
#719 = EDGE_LOOP ( 'NONE', ( #405, #275 ) ) ;
#720 = PRODUCT_DEFINITION_SHAPE ( 'NONE', 'NONE',  #538 ) ;
#721 = CARTESIAN_POINT ( 'NONE',  ( -12.82677104533570400, 1.325934682174326973, -0.2034137629563741723 ) ) ;
#722 = ORIENTED_EDGE ( 'NONE', *, *, #611, .F. ) ;
#723 = ORIENTED_EDGE ( 'NONE', *, *, #509, .T. ) ;
#724 = CONICAL_SURFACE ( 'NONE', #233, 3901.015332362329445, 1.319856261027561928 ) ;
#725 = B_SPLINE_CURVE_WITH_KNOTS ( 'NONE', 3,
 ( #56, #672, #397, #626, #117 ),
 .UNSPECIFIED., .F., .F.,
 ( 4, 1, 4 ),
 ( 2.309401076786084856E-07, 0.0007219187765947091082, 0.001443606613081739728 ),
 .UNSPECIFIED. ) ;
#726 = CARTESIAN_POINT ( 'NONE',  ( -14.20000000000000107, 1.443375672974064328, 9.757819552369541878E-16 ) ) ;
#727 = CARTESIAN_POINT ( 'NONE',  ( -12.86374379380171185, 0.6053960008849365027, 1.249999999999999778 ) ) ;
#728 = PRESENTATION_LAYER_ASSIGNMENT (  '', '', ( #702 ) ) ;
#729 = VERTEX_POINT ( 'NONE', #358 ) ;
#730 = CARTESIAN_POINT ( 'NONE',  ( -12.77919874466209471, -0.9604055199136780629, 0.8365288436399078709 ) ) ;
#731 = CIRCLE ( 'NONE', #408, 3.800000000000000266 ) ;
#732 = CARTESIAN_POINT ( 'NONE',  ( -14.20000000000000107, 0.000000000000000000, 0.000000000000000000 ) ) ;
#733 = VECTOR ( 'NONE', #166, 1000.000000000000000 ) ;
#734 = ORIENTED_EDGE ( 'NONE', *, *, #177, .T. ) ;
ENDSEC;
END-ISO-10303-21;
