ISO-10303-21;
HEADER;
FILE_DESCRIPTION (( 'STEP AP214' ),
    '1' );
FILE_NAME ('GB╱T 70.2-2015[内六角平圆头螺钉M4×20].step',
    '2023-08-15T02:54:00',
    ( '' ),
    ( '' ),
    'SwSTEP 2.0',
    'SolidWorks 2022',
    '' );
FILE_SCHEMA (( 'AUTOMOTIVE_DESIGN' ));
ENDSEC;

DATA;
#1 =( GEOMETRIC_REPRESENTATION_CONTEXT ( 3 ) GLOBAL_UNCERTAINTY_ASSIGNED_CONTEXT ( ( #552 ) ) GLOBAL_UNIT_ASSIGNED_CONTEXT ( ( #568, #6, #398 ) ) REPRESENTATION_CONTEXT ( 'NONE', 'WORKASPACE' ) );
#2 = ORIENTED_EDGE ( 'NONE', *, *, #69, .F. ) ;
#3 = EDGE_CURVE ( 'NONE', #682, #377, #47, .T. ) ;
#4 = CARTESIAN_POINT ( 'NONE',  ( -22.19999999999999929, -0.7216878364870304985, 1.250000000000000888 ) ) ;
#5 = CARTESIAN_POINT ( 'NONE',  ( -20.00000000000000000, -0.7216878364870328300, -1.250000000000000222 ) ) ;
#6 =( NAMED_UNIT ( * ) PLANE_ANGLE_UNIT ( ) SI_UNIT ( $, .RADIAN. ) );
#7 = ORIENTED_EDGE ( 'NONE', *, *, #125, .T. ) ;
#8 = FACE_OUTER_BOUND ( 'NONE', #713, .T. ) ;
#9 = CARTESIAN_POINT ( 'NONE',  ( -22.19999999999999929, 1.443375672974064328, 1.517883041479706996E-15 ) ) ;
#10 = CYLINDRICAL_SURFACE ( 'NONE', #440, 2.000000000000000000 ) ;
#11 = B_SPLINE_CURVE_WITH_KNOTS ( 'NONE', 3,
 ( #700, #201, #264, #32 ),
 .UNSPECIFIED., .F., .F.,
 ( 4, 4 ),
 ( 0.001144596242895333299, 0.001876385854435923869 ),
 .UNSPECIFIED. ) ;
#12 = VERTEX_POINT ( 'NONE', #565 ) ;
#13 = CARTESIAN_POINT ( 'NONE',  ( -22.19999999999999929, 1.999999999999998668, 0.000000000000000000 ) ) ;
#14 = VERTEX_POINT ( 'NONE', #588 ) ;
#15 = PLANE ( 'NONE',  #408 ) ;
#16 = COLOUR_RGB ( '',0.6470588235294117974, 0.6196078431372549211, 0.5882352941176470784 ) ;
#17 = CARTESIAN_POINT ( 'NONE',  ( -20.77942286340599765, 0.1219527981751487578, 1.249999999999999778 ) ) ;
#18 = FACE_OUTER_BOUND ( 'NONE', #346, .T. ) ;
#19 = DIRECTION ( 'NONE',  ( -1.000000000000000000, -0.000000000000000000, -0.000000000000000000 ) ) ;
#20 = CARTESIAN_POINT ( 'NONE',  ( -20.90000000000000213, 1.443375672974064328, -3.128943976826325424E-17 ) ) ;
#21 = CLOSED_SHELL ( 'NONE', ( #136, #690, #463, #497, #620, #549, #527, #658, #630, #726, #579, #719, #237, #430, #509, #31, #144, #518, #348, #680, #604, #182, #670, #361, #376 ) ) ;
#22 = FACE_OUTER_BOUND ( 'NONE', #720, .T. ) ;
#23 = CARTESIAN_POINT ( 'NONE',  ( -22.19999999999999929, 0.7216878364870323859, 1.250000000000000000 ) ) ;
#24 = DIRECTION ( 'NONE',  ( 0.000000000000000000, 0.000000000000000000, -1.000000000000000000 ) ) ;
#25 = AXIS2_PLACEMENT_3D ( 'NONE', #505, #677, #402 ) ;
#26 = DIRECTION ( 'NONE',  ( -1.000000000000000000, -0.000000000000000000, -0.000000000000000000 ) ) ;
#27 = CARTESIAN_POINT ( 'NONE',  ( -20.90000000000000213, 0.000000000000000000, 0.000000000000000000 ) ) ;
#28 = CIRCLE ( 'NONE', #535, 3.800000000000000266 ) ;
#29 = DIRECTION ( 'NONE',  ( 0.000000000000000000, 0.000000000000000000, 1.000000000000000000 ) ) ;
#30 = VERTEX_POINT ( 'NONE', #191 ) ;
#31 = ADVANCED_FACE ( 'NONE', ( #85 ), #314, .F. ) ;
#32 = CARTESIAN_POINT ( 'NONE',  ( -20.77942286340599765, -4.330215280939178002E-23, 1.249999999999999778 ) ) ;
#33 = AXIS2_PLACEMENT_3D ( 'NONE', #135, #355, #581 ) ;
#34 = VERTEX_POINT ( 'NONE', #134 ) ;
#35 = FACE_OUTER_BOUND ( 'NONE', #513, .T. ) ;
#36 = DIRECTION ( 'NONE',  ( 0.000000000000000000, 0.000000000000000000, 1.000000000000000000 ) ) ;
#37 = ORIENTED_EDGE ( 'NONE', *, *, #287, .F. ) ;
#38 = SURFACE_SIDE_STYLE ('',( #91 ) ) ;
#39 = CIRCLE ( 'NONE', #298, 1.443375672974063662 ) ;
#40 = DIRECTION ( 'NONE',  ( 0.000000000000000000, 0.000000000000000000, 1.000000000000000000 ) ) ;
#41 = ORIENTED_EDGE ( 'NONE', *, *, #184, .F. ) ;
#42 =( NAMED_UNIT ( * ) PLANE_ANGLE_UNIT ( ) SI_UNIT ( $, .RADIAN. ) );
#43 = EDGE_LOOP ( 'NONE', ( #373, #369, #685, #211 ) ) ;
#44 = EDGE_CURVE ( 'NONE', #294, #333, #640, .T. ) ;
#45 = ORIENTED_EDGE ( 'NONE', *, *, #647, .F. ) ;
#46 = DIRECTION ( 'NONE',  ( -1.000000000000000000, -0.000000000000000000, -0.000000000000000000 ) ) ;
#47 = LINE ( 'NONE', #561, #225 ) ;
#48 = DIRECTION ( 'NONE',  ( -1.000000000000000000, -0.000000000000000000, -0.000000000000000000 ) ) ;
#49 = FACE_OUTER_BOUND ( 'NONE', #108, .T. ) ;
#50 = DIRECTION ( 'NONE',  ( -1.000000000000000000, -0.000000000000000000, -0.000000000000000000 ) ) ;
#51 = DIRECTION ( 'NONE',  ( -1.000000000000000000, -0.000000000000000000, -0.000000000000000000 ) ) ;
#52 = CIRCLE ( 'NONE', #495, 0.1999999999999979294 ) ;
#53 = PLANE ( 'NONE',  #479 ) ;
#54 = TOROIDAL_SURFACE ( 'NONE', #316, 2.199999999999997957, 0.1999999999999977074 ) ;
#55 = DIRECTION ( 'NONE',  ( -1.000000000000000000, -0.000000000000000000, -0.000000000000000000 ) ) ;
#56 = SURFACE_SIDE_STYLE ('',( #629 ) ) ;
#57 = AXIS2_PLACEMENT_3D ( 'NONE', #165, #675, #679 ) ;
#58 = ORIENTED_EDGE ( 'NONE', *, *, #265, .T. ) ;
#59 = CARTESIAN_POINT ( 'NONE',  ( -22.16916666666574187, 1.323094366892892948, -0.2083333333333323989 ) ) ;
#60 = CIRCLE ( 'NONE', #593, 4.007472359323742239 ) ;
#61 = CARTESIAN_POINT ( 'NONE',  ( -22.16927320067241780, 0.4819564059043954241, 1.249999999999999778 ) ) ;
#62 = ORIENTED_EDGE ( 'NONE', *, *, #64, .T. ) ;
#63 = CARTESIAN_POINT ( 'NONE',  ( -20.90000000000000213, -1.443375672974065216, -5.870030462665943960E-16 ) ) ;
#64 = EDGE_CURVE ( 'NONE', #34, #406, #563, .T. ) ;
#65 = PRODUCT ( 'GB╱T 70.2-2015[内六角平圆头螺钉M4×20]', 'GB╱T 70.2-2015[内六角平圆头螺钉M4×20]', '', ( #323 ) ) ;
#66 = ORIENTED_EDGE ( 'NONE', *, *, #247, .T. ) ;
#67 = CARTESIAN_POINT ( 'NONE',  ( -19.80000000000000071, 0.000000000000000000, 0.000000000000000000 ) ) ;
#68 = DIRECTION ( 'NONE',  ( 0.000000000000000000, 0.000000000000000000, 1.000000000000000000 ) ) ;
#69 = EDGE_CURVE ( 'NONE', #333, #294, #80, .T. ) ;
#70 = CARTESIAN_POINT ( 'NONE',  ( -19.99999999999999645, 2.694222958124174541E-16, -2.199999999999997957 ) ) ;
#71 = CARTESIAN_POINT ( 'NONE',  ( -22.16916666666574542, -1.323094366892892060, -0.2083333333333360349 ) ) ;
#72 = CARTESIAN_POINT ( 'NONE',  ( -20.00000000000000000, 0.7216878364870321638, -1.250000000000000222 ) ) ;
#73 = AXIS2_PLACEMENT_3D ( 'NONE', #176, #628, #116 ) ;
#74 = DIRECTION ( 'NONE',  ( 0.000000000000000000, 0.000000000000000000, -1.000000000000000000 ) ) ;
#75 = APPLICATION_CONTEXT ( 'automotive_design' ) ;
#76 = CARTESIAN_POINT ( 'NONE',  ( -22.16916666666573832, -0.8419691425682045427, 1.041666666666667851 ) ) ;
#77 = CARTESIAN_POINT ( 'NONE',  ( -20.86374379380171717, 0.6053960008849370578, 1.249999999999999778 ) ) ;
#78 = DIRECTION ( 'NONE',  ( -1.000000000000000000, -0.000000000000000000, -0.000000000000000000 ) ) ;
#79 = CARTESIAN_POINT ( 'NONE',  ( -20.77919874466209293, 0.9604055199136772858, -0.8365288436399078709 ) ) ;
#80 = CIRCLE ( 'NONE', #374, 1.393782217350892916 ) ;
#81 = DIRECTION ( 'NONE',  ( 0.000000000000000000, 0.000000000000000000, 1.000000000000000000 ) ) ;
#82 = VERTEX_POINT ( 'NONE', #241 ) ;
#83 = CARTESIAN_POINT ( 'NONE',  ( -22.19999999999999929, 0.000000000000000000, 0.000000000000000000 ) ) ;
#84 = PRESENTATION_LAYER_ASSIGNMENT (  '', '', ( #272 ) ) ;
#85 = FACE_OUTER_BOUND ( 'NONE', #178, .T. ) ;
#86 = CONICAL_SURFACE ( 'NONE', #501, 1.443375672974064106, 1.013248818828627273 ) ;
#87 = EDGE_CURVE ( 'NONE', #155, #406, #52, .T. ) ;
#88 = CARTESIAN_POINT ( 'NONE',  ( -20.82664516406750366, -1.325732799999564726, -0.2037634331402073951 ) ) ;
#89 = CARTESIAN_POINT ( 'NONE',  ( -22.15037000055573913, -0.2394511050528692342, -1.250000000000000222 ) ) ;
#90 = EDGE_LOOP ( 'NONE', ( #58, #460 ) ) ;
#91 = SURFACE_STYLE_FILL_AREA ( #547 ) ;
#92 = PLANE ( 'NONE',  #226 ) ;
#93 = AXIS2_PLACEMENT_3D ( 'NONE', #129, #26, #207 ) ;
#94 = CARTESIAN_POINT ( 'NONE',  ( -22.19999999999999929, -0.7216878364870324969, -1.249999999999999778 ) ) ;
#95 = ORIENTED_EDGE ( 'NONE', *, *, #325, .F. ) ;
#96 = AXIS2_PLACEMENT_3D ( 'NONE', #625, #229, #114 ) ;
#97 = ORIENTED_EDGE ( 'NONE', *, *, #271, .T. ) ;
#98 = B_SPLINE_CURVE_WITH_KNOTS ( 'NONE', 3,
 ( #20, #204, #427, #79, #142, #303 ),
 .UNSPECIFIED., .F., .F.,
 ( 4, 2, 4 ),
 ( 2.391904125709706413E-07, 0.0007300545202770510967, 0.001459869850141531098 ),
 .UNSPECIFIED. ) ;
#99 = CARTESIAN_POINT ( 'NONE',  ( -19.80000000000000071, 0.000000000000000000, 0.000000000000000000 ) ) ;
#100 = B_SPLINE_CURVE_WITH_KNOTS ( 'NONE', 3,
 ( #94, #267, #89, #548, #716, #599 ),
 .UNSPECIFIED., .F., .F.,
 ( 4, 2, 4 ),
 ( 0.001182686314803305019, 0.001908595411696185082, 0.002634504508589065146 ),
 .UNSPECIFIED. ) ;
#101 = EDGE_CURVE ( 'NONE', #455, #682, #388, .T. ) ;
#102 = ORIENTED_EDGE ( 'NONE', *, *, #557, .F. ) ;
#103 = SURFACE_STYLE_USAGE ( .BOTH. , #38 ) ;
#104 = ORIENTED_EDGE ( 'NONE', *, *, #257, .F. ) ;
#105 = CARTESIAN_POINT ( 'NONE',  ( -0.3500000000000000333, 0.000000000000000000, 2.000000000000000000 ) ) ;
#106 = ORIENTED_EDGE ( 'NONE', *, *, #296, .T. ) ;
#107 = CARTESIAN_POINT ( 'NONE',  ( -22.13169213213475217, 1.082531754730548856, -0.6249999999999996669 ) ) ;
#108 = EDGE_LOOP ( 'NONE', ( #273, #95 ) ) ;
#109 = EDGE_CURVE ( 'NONE', #594, #110, #350, .T. ) ;
#110 = VERTEX_POINT ( 'NONE', #297 ) ;
#111 = LINE ( 'NONE', #683, #725 ) ;
#112 = DIRECTION ( 'NONE',  ( 0.000000000000000000, 1.000000000000000000, 0.000000000000000000 ) ) ;
#113 = EDGE_LOOP ( 'NONE', ( #434, #227, #660, #727 ) ) ;
#114 = DIRECTION ( 'NONE',  ( 5.691969551695333484E-17, -1.000000000000000000, 0.000000000000000000 ) ) ;
#115 = ORIENTED_EDGE ( 'NONE', *, *, #444, .F. ) ;
#116 = DIRECTION ( 'NONE',  ( 0.000000000000000000, 0.000000000000000000, 1.000000000000000000 ) ) ;
#117 = DIRECTION ( 'NONE',  ( 0.000000000000000000, 0.000000000000000000, -1.000000000000000000 ) ) ;
#118 = AXIS2_PLACEMENT_3D ( 'NONE', #671, #223, #112 ) ;
#119 = ORIENTED_EDGE ( 'NONE', *, *, #699, .F. ) ;
#120 = EDGE_CURVE ( 'NONE', #30, #390, #162, .T. ) ;
#121 = CARTESIAN_POINT ( 'NONE',  ( -22.16916666666573832, -0.8419691425682047647, -1.041666666666667407 ) ) ;
#122 = DIRECTION ( 'NONE',  ( -1.000000000000000000, -5.998083099822152164E-17, -0.000000000000000000 ) ) ;
#123 = AXIS2_PLACEMENT_3D ( 'NONE', #203, #366, #589 ) ;
#124 = ORIENTED_EDGE ( 'NONE', *, *, #652, .T. ) ;
#125 = EDGE_CURVE ( 'NONE', #654, #30, #476, .T. ) ;
#126 = CARTESIAN_POINT ( 'NONE',  ( -0.3500000000000000333, 0.000000000000000000, 2.000000000000000000 ) ) ;
#127 = PRESENTATION_STYLE_ASSIGNMENT (( #530 ) ) ;
#128 = DIRECTION ( 'NONE',  ( 0.000000000000000000, 0.000000000000000000, 1.000000000000000000 ) ) ;
#129 = CARTESIAN_POINT ( 'NONE',  ( -0.3500000000000000333, 0.000000000000000000, 0.000000000000000000 ) ) ;
#130 = CARTESIAN_POINT ( 'NONE',  ( -20.82715765887601478, -0.4880459183963076208, -1.250000000000000222 ) ) ;
#131 = DIRECTION ( 'NONE',  ( -1.000000000000000000, -0.000000000000000000, -0.000000000000000000 ) ) ;
#132 = AXIS2_PLACEMENT_3D ( 'NONE', #161, #384, #541 ) ;
#133 = CARTESIAN_POINT ( 'NONE',  ( -0.3500000000000000333, 2.449293598294706414E-16, -2.000000000000000000 ) ) ;
#134 = CARTESIAN_POINT ( 'NONE',  ( -19.80000000000000426, 2.449293598294706414E-16, -2.000000000000000000 ) ) ;
#135 = CARTESIAN_POINT ( 'NONE',  ( -0.3500000000000000333, 0.000000000000000000, 0.000000000000000000 ) ) ;
#136 = ADVANCED_FACE ( 'NONE', ( #688 ), #705, .T. ) ;
#137 = CARTESIAN_POINT ( 'NONE',  ( -22.19999999999999929, 0.7216878364870321638, -1.250000000000000222 ) ) ;
#138 = CARTESIAN_POINT ( 'NONE',  ( -22.19999999999999929, 2.219290746934189176E-17, -3.599228117386079962E-16 ) ) ;
#139 = FACE_OUTER_BOUND ( 'NONE', #631, .T. ) ;
#140 = VECTOR ( 'NONE', #412, 1000.000000000000114 ) ;
#141 = CARTESIAN_POINT ( 'NONE',  ( -20.90000000000000213, 1.443375672974064328, -3.128943976826325424E-17 ) ) ;
#142 = CARTESIAN_POINT ( 'NONE',  ( -20.82664516406750366, 0.8393307094615334307, -1.046236566859792605 ) ) ;
#143 = CARTESIAN_POINT ( 'NONE',  ( 0.000000000000000000, 0.000000000000000000, 0.000000000000000000 ) ) ;
#144 = ADVANCED_FACE ( 'NONE', ( #576 ), #86, .F. ) ;
#145 = CARTESIAN_POINT ( 'NONE',  ( -22.19999999999999929, 0.000000000000000000, 0.000000000000000000 ) ) ;
#146 = AXIS2_PLACEMENT_3D ( 'NONE', #410, #649, #242 ) ;
#147 = UNCERTAINTY_MEASURE_WITH_UNIT (LENGTH_MEASURE( 1.000000000000000082E-05 ), #149, 'distance_accuracy_value', 'NONE');
#148 = VERTEX_POINT ( 'NONE', #70 ) ;
#149 =( LENGTH_UNIT ( ) NAMED_UNIT ( * ) SI_UNIT ( .MILLI., .METRE. ) );
#150 = CARTESIAN_POINT ( 'NONE',  ( -22.19999999999999929, -0.7216878364870304985, 1.250000000000000888 ) ) ;
#151 = ORIENTED_EDGE ( 'NONE', *, *, #666, .T. ) ;
#152 = DIRECTION ( 'NONE',  ( -1.000000000000000000, -0.000000000000000000, -0.000000000000000000 ) ) ;
#153 = EDGE_LOOP ( 'NONE', ( #263, #555, #102, #678 ) ) ;
#154 = AXIS2_PLACEMENT_3D ( 'NONE', #336, #46, #117 ) ;
#155 = VERTEX_POINT ( 'NONE', #648 ) ;
#156 = AXIS2_PLACEMENT_3D ( 'NONE', #702, #491, #436 ) ;
#157 = DIRECTION ( 'NONE',  ( 0.000000000000000000, 0.000000000000000000, 1.000000000000000000 ) ) ;
#158 = VERTEX_POINT ( 'NONE', #137 ) ;
#159 = ORIENTED_EDGE ( 'NONE', *, *, #306, .T. ) ;
#160 = CARTESIAN_POINT ( 'NONE',  ( 0.000000000000000000, 0.000000000000000000, 0.000000000000000000 ) ) ;
#161 = CARTESIAN_POINT ( 'NONE',  ( -1021.830000000000041, -5.995863809075217092E-14, 0.000000000000000000 ) ) ;
#162 = B_SPLINE_CURVE_WITH_KNOTS ( 'NONE', 3,
 ( #426, #538, #130, #359 ),
 .UNSPECIFIED., .F., .F.,
 ( 4, 4 ),
 ( 0.004568767951579540479, 0.005301777679998205019 ),
 .UNSPECIFIED. ) ;
#163 = ORIENTED_EDGE ( 'NONE', *, *, #382, .T. ) ;
#164 = EDGE_CURVE ( 'NONE', #155, #148, #290, .T. ) ;
#165 = CARTESIAN_POINT ( 'NONE',  ( -20.00000000000000000, 0.7216878364870323859, 1.249999999999999778 ) ) ;
#166 = ORIENTED_EDGE ( 'NONE', *, *, #64, .F. ) ;
#167 = CARTESIAN_POINT ( 'NONE',  ( -20.90000000000000213, -0.7216878364870332740, 1.249999999999999778 ) ) ;
#168 = CARTESIAN_POINT ( 'NONE',  ( -19.80000000000000426, 0.000000000000000000, 2.000000000000000000 ) ) ;
#169 = ORIENTED_EDGE ( 'NONE', *, *, #710, .T. ) ;
#170 = DIRECTION ( 'NONE',  ( 0.000000000000000000, 0.5000000000000002220, -0.8660254037844384856 ) ) ;
#171 = EDGE_LOOP ( 'NONE', ( #676, #490, #622, #439, #624, #106 ) ) ;
#172 = FACE_OUTER_BOUND ( 'NONE', #322, .T. ) ;
#173 = PRODUCT_DEFINITION ( '未知', '', #724, #326 ) ;
#174 = ORIENTED_EDGE ( 'NONE', *, *, #382, .F. ) ;
#175 = DIRECTION ( 'NONE',  ( -0.5291067161269946695, 0.000000000000000000, 0.8485552916276627444 ) ) ;
#176 = CARTESIAN_POINT ( 'NONE',  ( -20.90000000000000213, 0.000000000000000000, 0.000000000000000000 ) ) ;
#177 = CARTESIAN_POINT ( 'NONE',  ( -22.16916666666573832, 1.323094366892892060, 0.2083333333333341753 ) ) ;
#178 = EDGE_LOOP ( 'NONE', ( #672, #657 ) ) ;
#179 = VECTOR ( 'NONE', #19, 1000.000000000000000 ) ;
#180 = CARTESIAN_POINT ( 'NONE',  ( -1021.830000000000041, -5.995863809075217092E-14, 0.000000000000000000 ) ) ;
#181 = CARTESIAN_POINT ( 'NONE',  ( -1021.830000000000041, -5.995863809075217092E-14, 0.000000000000000000 ) ) ;
#182 = ADVANCED_FACE ( 'NONE', ( #250 ), #524, .F. ) ;
#183 = EDGE_LOOP ( 'NONE', ( #553, #268, #66, #269 ) ) ;
#184 = EDGE_CURVE ( 'NONE', #82, #455, #362, .T. ) ;
#185 = CARTESIAN_POINT ( 'NONE',  ( -20.77919874466209293, -0.9604055199136780629, 0.8365288436399083150 ) ) ;
#186 = AXIS2_PLACEMENT_3D ( 'NONE', #353, #472, #128 ) ;
#187 = CARTESIAN_POINT ( 'NONE',  ( -20.90000000000000213, 1.767625397874844201E-16, -1.443375672974064106 ) ) ;
#188 = DIRECTION ( 'NONE',  ( 0.000000000000000000, 0.000000000000000000, 1.000000000000000000 ) ) ;
#189 = LINE ( 'NONE', #133, #525 ) ;
#190 = AXIS2_PLACEMENT_3D ( 'NONE', #643, #532, #195 ) ;
#191 = CARTESIAN_POINT ( 'NONE',  ( -20.77942286340599765, 1.530808065902090522E-16, -1.250000000000000222 ) ) ;
#192 = EDGE_CURVE ( 'NONE', #498, #110, #664, .T. ) ;
#193 = MECHANICAL_DESIGN_GEOMETRIC_PRESENTATION_REPRESENTATION (  '', ( #733 ), #575 ) ;
#194 = FACE_OUTER_BOUND ( 'NONE', #183, .T. ) ;
#195 = DIRECTION ( 'NONE',  ( 5.691969551695333484E-17, -1.000000000000000000, 0.000000000000000000 ) ) ;
#196 = CIRCLE ( 'NONE', #154, 1.443375672974063662 ) ;
#197 =( LENGTH_UNIT ( ) NAMED_UNIT ( * ) SI_UNIT ( .MILLI., .METRE. ) );
#198 = DIRECTION ( 'NONE',  ( -1.000000000000000000, -0.000000000000000000, -0.000000000000000000 ) ) ;
#199 = SURFACE_STYLE_FILL_AREA ( #645 ) ;
#200 = EDGE_CURVE ( 'NONE', #654, #82, #111, .T. ) ;
#201 = CARTESIAN_POINT ( 'NONE',  ( -20.82715765887601478, -0.4880459183963075653, 1.249999999999999778 ) ) ;
#202 = DIRECTION ( 'NONE',  ( 0.000000000000000000, 0.000000000000000000, 1.000000000000000000 ) ) ;
#203 = CARTESIAN_POINT ( 'NONE',  ( -19.80000000000000426, 0.000000000000000000, 0.000000000000000000 ) ) ;
#204 = CARTESIAN_POINT ( 'NONE',  ( -20.82677104533570756, 1.325934682174326973, -0.2034137629563742278 ) ) ;
#205 = DIRECTION ( 'NONE',  ( 1.000000000000000000, 0.000000000000000000, 0.000000000000000000 ) ) ;
#206 = DIRECTION ( 'NONE',  ( -0.000000000000000000, 0.000000000000000000, 1.000000000000000000 ) ) ;
#207 = DIRECTION ( 'NONE',  ( 0.000000000000000000, 0.000000000000000000, 1.000000000000000000 ) ) ;
#208 = CIRCLE ( 'NONE', #146, 1.443375672974063662 ) ;
#209 = EDGE_LOOP ( 'NONE', ( #558, #543, #174, #502, #258, #215 ) ) ;
#210 = CARTESIAN_POINT ( 'NONE',  ( -20.79105228766682600, 0.2457778558553064541, -1.250000000000000000 ) ) ;
#211 = ORIENTED_EDGE ( 'NONE', *, *, #652, .F. ) ;
#212 = EDGE_CURVE ( 'NONE', #281, #600, #275, .T. ) ;
#213 = DIRECTION ( 'NONE',  ( 1.000000000000000000, 0.000000000000000000, 0.000000000000000000 ) ) ;
#214 = ORIENTED_EDGE ( 'NONE', *, *, #296, .F. ) ;
#215 = ORIENTED_EDGE ( 'NONE', *, *, #666, .F. ) ;
#216 = PRESENTATION_LAYER_ASSIGNMENT (  '', '', ( #284 ) ) ;
#217 = VECTOR ( 'NONE', #512, 1000.000000000000000 ) ;
#218 = ORIENTED_EDGE ( 'NONE', *, *, #681, .F. ) ;
#219 = AXIS2_PLACEMENT_3D ( 'NONE', #180, #465, #577 ) ;
#220 = ORIENTED_EDGE ( 'NONE', *, *, #453, .F. ) ;
#221 = EDGE_CURVE ( 'NONE', #319, #12, #697, .T. ) ;
#222 = VERTEX_POINT ( 'NONE', #13 ) ;
#223 = DIRECTION ( 'NONE',  ( -0.000000000000000000, 0.000000000000000000, -1.000000000000000000 ) ) ;
#224 = PRESENTATION_STYLE_ASSIGNMENT (( #233 ) ) ;
#225 = VECTOR ( 'NONE', #51, 1000.000000000000000 ) ;
#226 = AXIS2_PLACEMENT_3D ( 'NONE', #145, #205, #668 ) ;
#227 = ORIENTED_EDGE ( 'NONE', *, *, #360, .T. ) ;
#228 = LINE ( 'NONE', #232, #646 ) ;
#229 = DIRECTION ( 'NONE',  ( -1.000000000000000000, -5.998083099822152164E-17, -0.000000000000000000 ) ) ;
#230 = ORIENTED_EDGE ( 'NONE', *, *, #257, .T. ) ;
#231 = CARTESIAN_POINT ( 'NONE',  ( -22.19999999999999929, -1.443375672974064328, -3.577867169202166210E-15 ) ) ;
#232 = CARTESIAN_POINT ( 'NONE',  ( -20.00000000000000000, 0.7216878364870323859, 1.249999999999999778 ) ) ;
#233 = SURFACE_STYLE_USAGE ( .BOTH. , #56 ) ;
#234 = EDGE_LOOP ( 'NONE', ( #711, #230, #706, #338 ) ) ;
#235 = CARTESIAN_POINT ( 'NONE',  ( -22.19999999999999929, 2.219290746934189176E-17, -3.599228117386079962E-16 ) ) ;
#236 = CARTESIAN_POINT ( 'NONE',  ( -22.13169213213474862, 1.082531754730547968, 0.6250000000000005551 ) ) ;
#237 = ADVANCED_FACE ( 'NONE', ( #8 ), #570, .F. ) ;
#238 = EDGE_CURVE ( 'NONE', #14, #594, #603, .T. ) ;
#239 = EDGE_LOOP ( 'NONE', ( #550, #400 ) ) ;
#240 = CARTESIAN_POINT ( 'NONE',  ( -20.90000000000000213, 0.7216878364870323859, 1.249999999999999778 ) ) ;
#241 = CARTESIAN_POINT ( 'NONE',  ( -20.77942286340599765, -4.330215280939178002E-23, 1.249999999999999778 ) ) ;
#242 = DIRECTION ( 'NONE',  ( 0.000000000000000000, -1.776356839400250465E-15, -1.000000000000000000 ) ) ;
#243 = VECTOR ( 'NONE', #50, 1000.000000000000000 ) ;
#244 = DIRECTION ( 'NONE',  ( 0.000000000000000000, 0.000000000000000000, -1.000000000000000000 ) ) ;
#245 =( GEOMETRIC_REPRESENTATION_CONTEXT ( 3 ) GLOBAL_UNCERTAINTY_ASSIGNED_CONTEXT ( ( #539 ) ) GLOBAL_UNIT_ASSIGNED_CONTEXT ( ( #551, #42, #435 ) ) REPRESENTATION_CONTEXT ( 'NONE', 'WORKASPACE' ) );
#246 = CARTESIAN_POINT ( 'NONE',  ( -19.80000000000000071, 0.000000000000000000, 2.199999999999997957 ) ) ;
#247 = EDGE_CURVE ( 'NONE', #294, #616, #636, .T. ) ;
#248 = CARTESIAN_POINT ( 'NONE',  ( -20.90000000000000213, 0.7216878364870323859, 1.249999999999999778 ) ) ;
#249 = PRESENTATION_STYLE_ASSIGNMENT (( #480 ) ) ;
#250 = FACE_OUTER_BOUND ( 'NONE', #266, .T. ) ;
#251 = CIRCLE ( 'NONE', #661, 0.1999999999999979294 ) ;
#252 = CARTESIAN_POINT ( 'NONE',  ( -1021.830000000000041, -5.995863809075217092E-14, 0.000000000000000000 ) ) ;
#253 = DIRECTION ( 'NONE',  ( -0.000000000000000000, 0.000000000000000000, 1.000000000000000000 ) ) ;
#254 = AXIS2_PLACEMENT_3D ( 'NONE', #583, #356, #302 ) ;
#255 = CARTESIAN_POINT ( 'NONE',  ( -22.19999999999999929, -1.443375672974064328, -3.577867169202166210E-15 ) ) ;
#256 = DIRECTION ( 'NONE',  ( -1.000000000000000000, -0.000000000000000000, -0.000000000000000000 ) ) ;
#257 = EDGE_CURVE ( 'NONE', #600, #277, #308, .T. ) ;
#258 = ORIENTED_EDGE ( 'NONE', *, *, #710, .F. ) ;
#259 = CARTESIAN_POINT ( 'NONE',  ( -20.82677104533570756, -0.8391288272867705178, -1.046586237043626300 ) ) ;
#260 = CARTESIAN_POINT ( 'NONE',  ( -20.90000000000000213, 0.7216878364870328300, -1.249999999999999112 ) ) ;
#261 = AXIS2_PLACEMENT_3D ( 'NONE', #312, #432, #656 ) ;
#262 =( NAMED_UNIT ( * ) SI_UNIT ( $, .STERADIAN. ) SOLID_ANGLE_UNIT ( ) );
#263 = ORIENTED_EDGE ( 'NONE', *, *, #221, .F. ) ;
#264 = CARTESIAN_POINT ( 'NONE',  ( -20.77942286340599765, -0.2440392103072530072, 1.249999999999999778 ) ) ;
#265 = EDGE_CURVE ( 'NONE', #222, #277, #698, .T. ) ;
#266 = EDGE_LOOP ( 'NONE', ( #729, #45, #41, #486, #634 ) ) ;
#267 = CARTESIAN_POINT ( 'NONE',  ( -22.16921124011832944, -0.4814729877613868614, -1.250000000000000000 ) ) ;
#268 = ORIENTED_EDGE ( 'NONE', *, *, #69, .T. ) ;
#269 = ORIENTED_EDGE ( 'NONE', *, *, #478, .F. ) ;
#270 = B_SPLINE_CURVE_WITH_KNOTS ( 'NONE', 3,
 ( #487, #259, #653, #595, #88, #619 ),
 .UNSPECIFIED., .F., .F.,
 ( 4, 2, 4 ),
 ( 2.391904125708790558E-07, 0.0007300545202770516388, 0.001459869850141532399 ),
 .UNSPECIFIED. ) ;
#271 = EDGE_CURVE ( 'NONE', #281, #222, #60, .T. ) ;
#272 = STYLED_ITEM ( 'NONE', ( #127 ), #404 ) ;
#273 = ORIENTED_EDGE ( 'NONE', *, *, #212, .F. ) ;
#274 = COLOUR_RGB ( '',0.7960784313725489669, 0.8235294117647058432, 0.9372549019607843146 ) ;
#275 = CIRCLE ( 'NONE', #665, 3.800000000000000266 ) ;
#276 = CARTESIAN_POINT ( 'NONE',  ( -22.19999999999999929, 1.443375672974064328, 1.517883041479706996E-15 ) ) ;
#277 = VERTEX_POINT ( 'NONE', #429 ) ;
#278 = DIRECTION ( 'NONE',  ( -1.000000000000000000, -0.000000000000000000, -0.000000000000000000 ) ) ;
#279 = FACE_BOUND ( 'NONE', #674, .T. ) ;
#280 = CIRCLE ( 'NONE', #33, 2.000000000000000000 ) ;
#281 = VERTEX_POINT ( 'NONE', #488 ) ;
#282 = DIRECTION ( 'NONE',  ( 0.000000000000000000, -0.8660254037844385966, -0.5000000000000003331 ) ) ;
#283 = CARTESIAN_POINT ( 'NONE',  ( -20.00000000000000000, -3.800000000000000266, -4.653657836759942730E-16 ) ) ;
#284 = STYLED_ITEM ( 'NONE', ( #224 ), #620 ) ;
#285 =( NAMED_UNIT ( * ) PLANE_ANGLE_UNIT ( ) SI_UNIT ( $, .RADIAN. ) );
#286 = EDGE_LOOP ( 'NONE', ( #445, #163 ) ) ;
#287 = EDGE_CURVE ( 'NONE', #12, #158, #100, .T. ) ;
#288 = CARTESIAN_POINT ( 'NONE',  ( -22.15037000055572847, -0.2394511050528680685, 1.249999999999999334 ) ) ;
#289 = CARTESIAN_POINT ( 'NONE',  ( -22.19999999999999929, 0.000000000000000000, 2.000000000000000000 ) ) ;
#290 = CIRCLE ( 'NONE', #254, 2.199999999999997957 ) ;
#291 = APPLICATION_CONTEXT ( 'automotive_design' ) ;
#292 = ORIENTED_EDGE ( 'NONE', *, *, #200, .F. ) ;
#293 = AXIS2_PLACEMENT_3D ( 'NONE', #638, #585, #81 ) ;
#294 = VERTEX_POINT ( 'NONE', #311 ) ;
#295 = CARTESIAN_POINT ( 'NONE',  ( -18.72727272727272663, 0.000000000000000000, 0.000000000000000000 ) ) ;
#296 = EDGE_CURVE ( 'NONE', #385, #30, #358, .T. ) ;
#297 = CARTESIAN_POINT ( 'NONE',  ( -22.19999999999999929, -0.7216878364870304985, 1.250000000000000888 ) ) ;
#298 = AXIS2_PLACEMENT_3D ( 'NONE', #235, #48, #571 ) ;
#299 = CARTESIAN_POINT ( 'NONE',  ( -20.82677104533570756, 0.8391288272867697406, 1.046586237043625411 ) ) ;
#300 = EDGE_CURVE ( 'NONE', #498, #377, #483, .T. ) ;
#301 = CARTESIAN_POINT ( 'NONE',  ( -22.16916666666573477, -1.323094366892893836, 0.2083333333333313164 ) ) ;
#302 = DIRECTION ( 'NONE',  ( 0.000000000000000000, 0.000000000000000000, 1.000000000000000000 ) ) ;
#303 = CARTESIAN_POINT ( 'NONE',  ( -20.90000000000000213, 0.7216878364870328300, -1.249999999999999112 ) ) ;
#304 = CARTESIAN_POINT ( 'NONE',  ( -20.90000000000000213, -0.7216878364870328300, -1.250000000000000222 ) ) ;
#305 = B_SPLINE_CURVE_WITH_KNOTS ( 'NONE', 3,
 ( #344, #339, #107, #59, #9 ),
 .UNSPECIFIED., .F., .F.,
 ( 4, 1, 4 ),
 ( 2.309401076757153916E-07, 0.0007219187765947087830, 0.001443606613081741897 ),
 .UNSPECIFIED. ) ;
#306 = EDGE_CURVE ( 'NONE', #406, #34, #379, .T. ) ;
#307 =( GEOMETRIC_REPRESENTATION_CONTEXT ( 3 ) GLOBAL_UNCERTAINTY_ASSIGNED_CONTEXT ( ( #596 ) ) GLOBAL_UNIT_ASSIGNED_CONTEXT ( ( #521, #285, #394 ) ) REPRESENTATION_CONTEXT ( 'NONE', 'WORKASPACE' ) );
#308 = CIRCLE ( 'NONE', #345, 4.007472359323742239 ) ;
#309 = FACE_OUTER_BOUND ( 'NONE', #234, .T. ) ;
#310 = CARTESIAN_POINT ( 'NONE',  ( 0.000000000000000000, 0.000000000000000000, 0.000000000000000000 ) ) ;
#311 = CARTESIAN_POINT ( 'NONE',  ( 0.000000000000000000, 0.000000000000000000, 1.393782217350892916 ) ) ;
#312 = CARTESIAN_POINT ( 'NONE',  ( -20.00000000000000000, 1.443375672974064328, -3.128943976826325424E-17 ) ) ;
#313 = CARTESIAN_POINT ( 'NONE',  ( -20.86374379380171717, 0.6053960008849367247, -1.250000000000000000 ) ) ;
#314 = CONICAL_SURFACE ( 'NONE', #190, 3901.015332362347181, 1.319856261027563038 ) ;
#315 = ORIENTED_EDGE ( 'NONE', *, *, #421, .T. ) ;
#316 = AXIS2_PLACEMENT_3D ( 'NONE', #67, #55, #663 ) ;
#317 = CYLINDRICAL_SURFACE ( 'NONE', #590, 2.000000000000000000 ) ;
#318 = CARTESIAN_POINT ( 'NONE',  ( -20.83343568050245409, 0.4873330088410963712, -1.250000000000000222 ) ) ;
#319 = VERTEX_POINT ( 'NONE', #540 ) ;
#320 = VECTOR ( 'NONE', #278, 1000.000000000000000 ) ;
#321 = FILL_AREA_STYLE_COLOUR ( '', #274 ) ;
#322 = EDGE_LOOP ( 'NONE', ( #731, #572, #395, #315 ) ) ;
#323 = PRODUCT_CONTEXT ( 'NONE', #75, 'mechanical' ) ;
#324 = ORIENTED_EDGE ( 'NONE', *, *, #536, .T. ) ;
#325 = EDGE_CURVE ( 'NONE', #600, #281, #28, .T. ) ;
#326 = PRODUCT_DEFINITION_CONTEXT ( 'detailed design', #291, 'design' ) ;
#327 = ORIENTED_EDGE ( 'NONE', *, *, #164, .T. ) ;
#328 = MECHANICAL_DESIGN_GEOMETRIC_PRESENTATION_REPRESENTATION (  '', ( #272 ), #307 ) ;
#329 = EDGE_LOOP ( 'NONE', ( #218, #342, #597, #159 ) ) ;
#330 = STYLED_ITEM ( 'NONE', ( #370 ), #704 ) ;
#331 = LINE ( 'NONE', #289, #320 ) ;
#332 = CARTESIAN_POINT ( 'NONE',  ( -20.00000000000000000, -1.443375672974065216, -5.870030462665943960E-16 ) ) ;
#333 = VERTEX_POINT ( 'NONE', #712 ) ;
#334 = FACE_OUTER_BOUND ( 'NONE', #517, .T. ) ;
#335 = ORIENTED_EDGE ( 'NONE', *, *, #478, .T. ) ;
#336 = CARTESIAN_POINT ( 'NONE',  ( -22.19999999999999929, 2.219290746934189176E-17, -3.599228117386079962E-16 ) ) ;
#337 = EDGE_CURVE ( 'NONE', #148, #155, #443, .T. ) ;
#338 = ORIENTED_EDGE ( 'NONE', *, *, #271, .F. ) ;
#339 = CARTESIAN_POINT ( 'NONE',  ( -22.16916666666573477, 0.8419691425682042096, -1.041666666666666741 ) ) ;
#340 = FACE_OUTER_BOUND ( 'NONE', #239, .T. ) ;
#341 = MECHANICAL_DESIGN_GEOMETRIC_PRESENTATION_REPRESENTATION (  '', ( #284 ), #1 ) ;
#342 = ORIENTED_EDGE ( 'NONE', *, *, #164, .F. ) ;
#343 = CARTESIAN_POINT ( 'NONE',  ( -22.16921124011832944, -0.4814729877613855846, 1.249999999999999778 ) ) ;
#344 = CARTESIAN_POINT ( 'NONE',  ( -22.19999999999999929, 0.7216878364870321638, -1.250000000000000222 ) ) ;
#345 = AXIS2_PLACEMENT_3D ( 'NONE', #295, #639, #520 ) ;
#346 = EDGE_LOOP ( 'NONE', ( #37, #608, #507, #214, #363 ) ) ;
#347 = CARTESIAN_POINT ( 'NONE',  ( -22.15048909679995859, 0.2418642655271370789, 1.249999999999999778 ) ) ;
#348 = ADVANCED_FACE ( 'NONE', ( #18 ), #578, .F. ) ;
#349 = CARTESIAN_POINT ( 'NONE',  ( -22.19999999999999929, 0.000000000000000000, 0.000000000000000000 ) ) ;
#350 = LINE ( 'NONE', #416, #179 ) ;
#351 = CARTESIAN_POINT ( 'NONE',  ( -20.90000000000000213, -0.7216878364870332740, 1.249999999999999778 ) ) ;
#352 = SURFACE_SIDE_STYLE ('',( #199 ) ) ;
#353 = CARTESIAN_POINT ( 'NONE',  ( -0.3500000000000000333, 0.000000000000000000, 0.000000000000000000 ) ) ;
#354 = DIRECTION ( 'NONE',  ( 0.000000000000000000, 0.000000000000000000, 1.000000000000000000 ) ) ;
#355 = DIRECTION ( 'NONE',  ( -1.000000000000000000, -0.000000000000000000, -0.000000000000000000 ) ) ;
#356 = DIRECTION ( 'NONE',  ( -1.000000000000000000, -0.000000000000000000, -0.000000000000000000 ) ) ;
#357 =( NAMED_UNIT ( * ) PLANE_ANGLE_UNIT ( ) SI_UNIT ( $, .RADIAN. ) );
#358 = B_SPLINE_CURVE_WITH_KNOTS ( 'NONE', 3,
 ( #260, #313, #318, #210, #438, #545 ),
 .UNSPECIFIED., .F., .F.,
 ( 4, 2, 4 ),
 ( 0.003836159553464221078, 0.004202463752521880778, 0.004568767951579540479 ),
 .UNSPECIFIED. ) ;
#359 = CARTESIAN_POINT ( 'NONE',  ( -20.90000000000000213, -0.7216878364870328300, -1.250000000000000222 ) ) ;
#360 = EDGE_CURVE ( 'NONE', #333, #667, #189, .T. ) ;
#361 = ADVANCED_FACE ( 'NONE', ( #194 ), #533, .T. ) ;
#362 = B_SPLINE_CURVE_WITH_KNOTS ( 'NONE', 3,
 ( #701, #17, #473, #692, #77, #529 ),
 .UNSPECIFIED., .F., .F.,
 ( 4, 2, 4 ),
 ( 0.001876385854435923869, 0.002242080329067764385, 0.002607774803699604901 ),
 .UNSPECIFIED. ) ;
#363 = ORIENTED_EDGE ( 'NONE', *, *, #453, .T. ) ;
#364 = CARTESIAN_POINT ( 'NONE',  ( -22.13169213213475572, -1.082531754730549967, 0.6249999999999995559 ) ) ;
#365 = CARTESIAN_POINT ( 'NONE',  ( -20.77919874466209293, 1.204657989547419428, 0.4134711563600912410 ) ) ;
#366 = DIRECTION ( 'NONE',  ( -1.000000000000000000, -0.000000000000000000, -0.000000000000000000 ) ) ;
#367 = CIRCLE ( 'NONE', #655, 1.999999999999998668 ) ;
#368 = FILL_AREA_STYLE ('',( #428 ) ) ;
#369 = ORIENTED_EDGE ( 'NONE', *, *, #496, .T. ) ;
#370 = PRESENTATION_STYLE_ASSIGNMENT (( #103 ) ) ;
#371 = EDGE_CURVE ( 'NONE', #277, #222, #367, .T. ) ;
#372 = FACE_BOUND ( 'NONE', #209, .T. ) ;
#373 = ORIENTED_EDGE ( 'NONE', *, *, #441, .T. ) ;
#374 = AXIS2_PLACEMENT_3D ( 'NONE', #143, #198, #650 ) ;
#375 = CONICAL_SURFACE ( 'NONE', #132, 3901.015332362347181, 1.319856261027563038 ) ;
#376 = ADVANCED_FACE ( 'Bface3', ( #522 ), #15, .F. ) ;
#377 = VERTEX_POINT ( 'NONE', #584 ) ;
#378 = PRESENTATION_LAYER_ASSIGNMENT (  '', '', ( #330 ) ) ;
#379 = CIRCLE ( 'NONE', #123, 2.000000000000000000 ) ;
#380 = ORIENTED_EDGE ( 'NONE', *, *, #238, .T. ) ;
#381 = SHAPE_DEFINITION_REPRESENTATION ( #523, #704 ) ;
#382 = EDGE_CURVE ( 'NONE', #377, #158, #208, .T. ) ;
#383 = ORIENTED_EDGE ( 'NONE', *, *, #496, .F. ) ;
#384 = DIRECTION ( 'NONE',  ( -1.000000000000000000, -5.998083099822152164E-17, -0.000000000000000000 ) ) ;
#385 = VERTEX_POINT ( 'NONE', #466 ) ;
#386 = FACE_OUTER_BOUND ( 'NONE', #329, .T. ) ;
#387 = DIRECTION ( 'NONE',  ( 0.000000000000000000, -0.4999999999999996669, -0.8660254037844388186 ) ) ;
#388 = B_SPLINE_CURVE_WITH_KNOTS ( 'NONE', 3,
 ( #248, #299, #696, #365, #467, #141 ),
 .UNSPECIFIED., .F., .F.,
 ( 4, 2, 4 ),
 ( 2.391904125708790558E-07, 0.0007300545202770515303, 0.001459869850141532182 ),
 .UNSPECIFIED. ) ;
#389 = LINE ( 'NONE', #626, #217 ) ;
#390 = VERTEX_POINT ( 'NONE', #304 ) ;
#391 = FACE_OUTER_BOUND ( 'NONE', #153, .T. ) ;
#392 = ORIENTED_EDGE ( 'NONE', *, *, #337, .T. ) ;
#393 = DIRECTION ( 'NONE',  ( 0.000000000000000000, -0.8660254037844388186, 0.4999999999999996669 ) ) ;
#394 =( NAMED_UNIT ( * ) SI_UNIT ( $, .STERADIAN. ) SOLID_ANGLE_UNIT ( ) );
#395 = ORIENTED_EDGE ( 'NONE', *, *, #238, .F. ) ;
#396 = CARTESIAN_POINT ( 'NONE',  ( -20.00000000000000000, 0.000000000000000000, 0.000000000000000000 ) ) ;
#397 = FACE_OUTER_BOUND ( 'NONE', #546, .T. ) ;
#398 =( NAMED_UNIT ( * ) SI_UNIT ( $, .STERADIAN. ) SOLID_ANGLE_UNIT ( ) );
#399 = AXIS2_PLACEMENT_3D ( 'NONE', #526, #256, #202 ) ;
#400 = ORIENTED_EDGE ( 'NONE', *, *, #422, .T. ) ;
#401 = CARTESIAN_POINT ( 'NONE',  ( -20.77964865737705580, -1.206490558868566820, 0.4102970531874744475 ) ) ;
#402 = DIRECTION ( 'NONE',  ( -0.000000000000000000, 0.000000000000000000, 1.000000000000000000 ) ) ;
#403 = DIRECTION ( 'NONE',  ( -1.000000000000000000, -0.000000000000000000, -0.000000000000000000 ) ) ;
#404 = MANIFOLD_SOLID_BREP ( '切除-旋转1', #21 ) ;
#405 = B_SPLINE_CURVE_WITH_KNOTS ( 'NONE', 3,
 ( #150, #76, #364, #301, #255 ),
 .UNSPECIFIED., .F., .F.,
 ( 4, 1, 4 ),
 ( 2.309401076736709717E-07, 0.0007219187765947082409, 0.001443606613081742981 ),
 .UNSPECIFIED. ) ;
#406 = VERTEX_POINT ( 'NONE', #168 ) ;
#407 = EDGE_CURVE ( 'NONE', #390, #12, #389, .T. ) ;
#408 = AXIS2_PLACEMENT_3D ( 'NONE', #415, #641, #253 ) ;
#409 = CARTESIAN_POINT ( 'NONE',  ( -20.82664516406750010, -0.8393307094615340969, 1.046236566859792383 ) ) ;
#410 = CARTESIAN_POINT ( 'NONE',  ( -22.19999999999999929, 2.219290746934189176E-17, -3.599228117386079962E-16 ) ) ;
#411 = AXIS2_PLACEMENT_3D ( 'NONE', #469, #131, #40 ) ;
#412 = DIRECTION ( 'NONE',  ( -0.5291067161269946695, 1.039180521791366210E-16, -0.8485552916276627444 ) ) ;
#413 = DIRECTION ( 'NONE',  ( -0.5000000000000001110, 0.000000000000000000, 0.8660254037844385966 ) ) ;
#414 = PRODUCT_RELATED_PRODUCT_CATEGORY ( 'part', '', ( #65 ) ) ;
#415 = CARTESIAN_POINT ( 'NONE',  ( -3.061616997868386099E-17, 2.000000000000000000, 0.000000000000000000 ) ) ;
#416 = CARTESIAN_POINT ( 'NONE',  ( -20.00000000000000000, -0.7216878364870332740, 1.249999999999999778 ) ) ;
#417 = FACE_OUTER_BOUND ( 'NONE', #627, .T. ) ;
#418 = VECTOR ( 'NONE', #403, 1000.000000000000000 ) ;
#419 = AXIS2_PLACEMENT_3D ( 'NONE', #617, #122, #559 ) ;
#420 = DIRECTION ( 'NONE',  ( 0.000000000000000000, 0.000000000000000000, 1.000000000000000000 ) ) ;
#421 = EDGE_CURVE ( 'NONE', #14, #319, #621, .T. ) ;
#422 = EDGE_CURVE ( 'NONE', #158, #12, #633, .T. ) ;
#423 = DIRECTION ( 'NONE',  ( -1.000000000000000000, -0.000000000000000000, -0.000000000000000000 ) ) ;
#424 = LINE ( 'NONE', #516, #418 ) ;
#425 = LINE ( 'NONE', #544, #506 ) ;
#426 = CARTESIAN_POINT ( 'NONE',  ( -20.77942286340599765, 1.530808065902090522E-16, -1.250000000000000222 ) ) ;
#427 = CARTESIAN_POINT ( 'NONE',  ( -20.77964865737705580, 1.206490558868565710, -0.4102970531874746696 ) ) ;
#428 = FILL_AREA_STYLE_COLOUR ( '', #601 ) ;
#429 = CARTESIAN_POINT ( 'NONE',  ( -22.19999999999999929, -1.999999999999998668, -3.551475717527323339E-16 ) ) ;
#430 = ADVANCED_FACE ( 'NONE', ( #417 ), #687, .F. ) ;
#431 = CONICAL_SURFACE ( 'NONE', #73, 1.443375672974064106, 1.013248818828627273 ) ;
#432 = DIRECTION ( 'NONE',  ( 0.000000000000000000, 0.8660254037844387076, -0.4999999999999998335 ) ) ;
#433 = DIRECTION ( 'NONE',  ( -1.000000000000000000, -0.000000000000000000, -0.000000000000000000 ) ) ;
#434 = ORIENTED_EDGE ( 'NONE', *, *, #44, .T. ) ;
#435 =( NAMED_UNIT ( * ) SI_UNIT ( $, .STERADIAN. ) SOLID_ANGLE_UNIT ( ) );
#436 = DIRECTION ( 'NONE',  ( 0.000000000000000000, 1.776356839400250465E-15, -1.000000000000000000 ) ) ;
#437 = ORIENTED_EDGE ( 'NONE', *, *, #101, .F. ) ;
#438 = CARTESIAN_POINT ( 'NONE',  ( -20.77942286340599765, 0.1219527981751481333, -1.250000000000000222 ) ) ;
#439 = ORIENTED_EDGE ( 'NONE', *, *, #101, .T. ) ;
#440 = AXIS2_PLACEMENT_3D ( 'NONE', #734, #730, #450 ) ;
#441 = EDGE_CURVE ( 'NONE', #616, #667, #280, .T. ) ;
#442 = AXIS2_PLACEMENT_3D ( 'NONE', #99, #602, #613 ) ;
#443 = CIRCLE ( 'NONE', #609, 2.199999999999997957 ) ;
#444 = EDGE_CURVE ( 'NONE', #682, #385, #98, .T. ) ;
#445 = ORIENTED_EDGE ( 'NONE', *, *, #699, .T. ) ;
#446 = FACE_OUTER_BOUND ( 'NONE', #90, .T. ) ;
#447 = ORIENTED_EDGE ( 'NONE', *, *, #337, .F. ) ;
#448 = DIRECTION ( 'NONE',  ( 5.691969551695333484E-17, -1.000000000000000000, 0.000000000000000000 ) ) ;
#449 = ORIENTED_EDGE ( 'NONE', *, *, #647, .T. ) ;
#450 = DIRECTION ( 'NONE',  ( 0.000000000000000000, 0.000000000000000000, 1.000000000000000000 ) ) ;
#451 = AXIS2_PLACEMENT_3D ( 'NONE', #707, #484, #499 ) ;
#452 = EDGE_LOOP ( 'NONE', ( #447, #614, #62, #611 ) ) ;
#453 = EDGE_CURVE ( 'NONE', #385, #158, #424, .T. ) ;
#454 = DIRECTION ( 'NONE',  ( -1.000000000000000000, -0.000000000000000000, -0.000000000000000000 ) ) ;
#455 = VERTEX_POINT ( 'NONE', #240 ) ;
#456 = CARTESIAN_POINT ( 'NONE',  ( -22.16916666666574542, 0.8419691425682039876, 1.041666666666667629 ) ) ;
#457 = EDGE_LOOP ( 'NONE', ( #662, #2 ) ) ;
#458 = FACE_OUTER_BOUND ( 'NONE', #717, .T. ) ;
#459 = FACE_OUTER_BOUND ( 'NONE', #43, .T. ) ;
#460 = ORIENTED_EDGE ( 'NONE', *, *, #371, .T. ) ;
#461 = FACE_OUTER_BOUND ( 'NONE', #286, .T. ) ;
#462 = PLANE ( 'NONE',  #605 ) ;
#463 = ADVANCED_FACE ( 'NONE', ( #637 ), #54, .F. ) ;
#464 = ORIENTED_EDGE ( 'NONE', *, *, #591, .F. ) ;
#465 = DIRECTION ( 'NONE',  ( -1.000000000000000000, -5.998083099822152164E-17, -0.000000000000000000 ) ) ;
#466 = CARTESIAN_POINT ( 'NONE',  ( -20.90000000000000213, 0.7216878364870328300, -1.249999999999999112 ) ) ;
#467 = CARTESIAN_POINT ( 'NONE',  ( -20.82664516406750366, 1.325732799999563838, 0.2037634331402067567 ) ) ;
#468 = AXIS2_PLACEMENT_3D ( 'NONE', #72, #244, #475 ) ;
#469 = CARTESIAN_POINT ( 'NONE',  ( -22.19999999999999929, 0.000000000000000000, 0.000000000000000000 ) ) ;
#470 = FILL_AREA_STYLE_COLOUR ( '', #16 ) ;
#471 = AXIS2_PLACEMENT_3D ( 'NONE', #160, #157, #607 ) ;
#472 = DIRECTION ( 'NONE',  ( -1.000000000000000000, -0.000000000000000000, -0.000000000000000000 ) ) ;
#473 = CARTESIAN_POINT ( 'NONE',  ( -20.79105228766683666, 0.2457778558553071202, 1.249999999999999778 ) ) ;
#474 = DIRECTION ( 'NONE',  ( -1.000000000000000000, -5.998083099822152164E-17, -0.000000000000000000 ) ) ;
#475 = DIRECTION ( 'NONE',  ( -1.000000000000000000, 0.000000000000000000, -0.000000000000000000 ) ) ;
#476 = LINE ( 'NONE', #187, #140 ) ;
#477 = CIRCLE ( 'NONE', #93, 2.000000000000000000 ) ;
#478 = EDGE_CURVE ( 'NONE', #667, #616, #477, .T. ) ;
#479 = AXIS2_PLACEMENT_3D ( 'NONE', #5, #282, #170 ) ;
#480 = SURFACE_STYLE_USAGE ( .BOTH. , #598 ) ;
#481 = CARTESIAN_POINT ( 'NONE',  ( -20.00000000000000000, -0.7216878364870332740, 1.249999999999999778 ) ) ;
#482 =( GEOMETRIC_REPRESENTATION_CONTEXT ( 3 ) GLOBAL_UNCERTAINTY_ASSIGNED_CONTEXT ( ( #147 ) ) GLOBAL_UNIT_ASSIGNED_CONTEXT ( ( #149, #554, #714 ) ) REPRESENTATION_CONTEXT ( 'NONE', 'WORKASPACE' ) );
#483 = CIRCLE ( 'NONE', #156, 1.443375672974063662 ) ;
#484 = DIRECTION ( 'NONE',  ( -0.000000000000000000, 0.000000000000000000, -1.000000000000000000 ) ) ;
#485 = DIRECTION ( 'NONE',  ( 1.000000000000000000, 0.000000000000000000, -0.000000000000000000 ) ) ;
#486 = ORIENTED_EDGE ( 'NONE', *, *, #542, .F. ) ;
#487 = CARTESIAN_POINT ( 'NONE',  ( -20.90000000000000213, -0.7216878364870328300, -1.250000000000000222 ) ) ;
#488 = CARTESIAN_POINT ( 'NONE',  ( -20.00000000000000000, 3.800000000000000266, 0.000000000000000000 ) ) ;
#489 = CARTESIAN_POINT ( 'NONE',  ( -22.19999999999999929, 0.7216878364870323859, 1.250000000000000000 ) ) ;
#490 = ORIENTED_EDGE ( 'NONE', *, *, #200, .T. ) ;
#491 = DIRECTION ( 'NONE',  ( -1.000000000000000000, -0.000000000000000000, -0.000000000000000000 ) ) ;
#492 = ORIENTED_EDGE ( 'NONE', *, *, #325, .T. ) ;
#493 = CARTESIAN_POINT ( 'NONE',  ( -18.72727272727272663, 0.000000000000000000, 0.000000000000000000 ) ) ;
#494 = ORIENTED_EDGE ( 'NONE', *, *, #557, .T. ) ;
#495 = AXIS2_PLACEMENT_3D ( 'NONE', #246, #580, #74 ) ;
#496 = EDGE_CURVE ( 'NONE', #667, #34, #425, .T. ) ;
#497 = ADVANCED_FACE ( 'NONE', ( #309 ), #587, .T. ) ;
#498 = VERTEX_POINT ( 'NONE', #489 ) ;
#499 = DIRECTION ( 'NONE',  ( 0.000000000000000000, 1.000000000000000000, 0.000000000000000000 ) ) ;
#500 = TOROIDAL_SURFACE ( 'NONE', #442, 2.199999999999997957, 0.1999999999999977074 ) ;
#501 = AXIS2_PLACEMENT_3D ( 'NONE', #27, #695, #420 ) ;
#502 = ORIENTED_EDGE ( 'NONE', *, *, #300, .F. ) ;
#503 = ORIENTED_EDGE ( 'NONE', *, *, #192, .T. ) ;
#504 = SPHERICAL_SURFACE ( 'NONE', #118, 4.007472359323742239 ) ;
#505 = CARTESIAN_POINT ( 'NONE',  ( -19.99999999999999645, 2.199999999999997957, 0.000000000000000000 ) ) ;
#506 = VECTOR ( 'NONE', #723, 1000.000000000000000 ) ;
#507 = ORIENTED_EDGE ( 'NONE', *, *, #120, .F. ) ;
#509 = ADVANCED_FACE ( 'NONE', ( #139 ), #375, .F. ) ;
#508 = CONICAL_SURFACE ( 'NONE', #96, 3901.015332362347181, 1.319856261027563038 ) ;
#510 = CARTESIAN_POINT ( 'NONE',  ( -0.3500000000000000333, 2.449293598294706414E-16, -2.000000000000000000 ) ) ;
#511 = CARTESIAN_POINT ( 'NONE',  ( -20.00000000000000000, -1.443375672974065216, -5.870030462665943960E-16 ) ) ;
#512 = DIRECTION ( 'NONE',  ( -1.000000000000000000, -0.000000000000000000, -0.000000000000000000 ) ) ;
#513 = EDGE_LOOP ( 'NONE', ( #119, #220, #115, #519 ) ) ;
#514 = CARTESIAN_POINT ( 'NONE',  ( -22.19999999999999929, -0.7216878364870324969, -1.249999999999999778 ) ) ;
#515 = CARTESIAN_POINT ( 'NONE',  ( -20.90000000000000213, 1.443375672974064328, -3.128943976826325424E-17 ) ) ;
#516 = CARTESIAN_POINT ( 'NONE',  ( -20.00000000000000000, 0.7216878364870321638, -1.250000000000000222 ) ) ;
#517 = EDGE_LOOP ( 'NONE', ( #104, #492, #97, #606 ) ) ;
#518 = ADVANCED_FACE ( 'NONE', ( #35 ), #708, .F. ) ;
#519 = ORIENTED_EDGE ( 'NONE', *, *, #3, .T. ) ;
#520 = DIRECTION ( 'NONE',  ( 0.000000000000000000, 1.000000000000000000, 1.224646799147353207E-16 ) ) ;
#521 =( LENGTH_UNIT ( ) NAMED_UNIT ( * ) SI_UNIT ( .MILLI., .METRE. ) );
#522 = FACE_OUTER_BOUND ( 'NONE', #457, .T. ) ;
#523 = PRODUCT_DEFINITION_SHAPE ( 'NONE', 'NONE',  #173 ) ;
#524 = PLANE ( 'NONE',  #689 ) ;
#525 = VECTOR ( 'NONE', #693, 1000.000000000000000 ) ;
#526 = CARTESIAN_POINT ( 'NONE',  ( -19.80000000000000426, 0.000000000000000000, 0.000000000000000000 ) ) ;
#527 = ADVANCED_FACE ( 'NONE', ( #446, #372 ), #92, .F. ) ;
#528 = SURFACE_STYLE_FILL_AREA ( #368 ) ;
#529 = CARTESIAN_POINT ( 'NONE',  ( -20.90000000000000213, 0.7216878364870323859, 1.249999999999999778 ) ) ;
#530 = SURFACE_STYLE_USAGE ( .BOTH. , #352 ) ;
#531 = COLOUR_RGB ( '',0.7960784313725489669, 0.8235294117647058432, 0.9372549019607843146 ) ;
#532 = DIRECTION ( 'NONE',  ( -1.000000000000000000, -5.998083099822152164E-17, -0.000000000000000000 ) ) ;
#533 = CONICAL_SURFACE ( 'NONE', #186, 2.000000000000000000, 1.047197551196597631 ) ;
#534 = MECHANICAL_DESIGN_GEOMETRIC_PRESENTATION_REPRESENTATION (  '', ( #330 ), #482 ) ;
#535 = AXIS2_PLACEMENT_3D ( 'NONE', #709, #433, #36 ) ;
#536 = EDGE_CURVE ( 'NONE', #110, #319, #405, .T. ) ;
#537 = DIRECTION ( 'NONE',  ( -1.000000000000000000, -0.000000000000000000, -0.000000000000000000 ) ) ;
#538 = CARTESIAN_POINT ( 'NONE',  ( -20.77942286340599765, -0.2440392103072534236, -1.250000000000000222 ) ) ;
#539 = UNCERTAINTY_MEASURE_WITH_UNIT (LENGTH_MEASURE( 1.000000000000000082E-05 ), #551, 'distance_accuracy_value', 'NONE');
#540 = CARTESIAN_POINT ( 'NONE',  ( -22.19999999999999929, -1.443375672974064328, -3.577867169202166210E-15 ) ) ;
#541 = DIRECTION ( 'NONE',  ( 5.691969551695333484E-17, -1.000000000000000000, 0.000000000000000000 ) ) ;
#542 = EDGE_CURVE ( 'NONE', #594, #82, #11, .T. ) ;
#543 = ORIENTED_EDGE ( 'NONE', *, *, #422, .F. ) ;
#544 = CARTESIAN_POINT ( 'NONE',  ( -22.19999999999999929, 2.449293598294706414E-16, -2.000000000000000000 ) ) ;
#545 = CARTESIAN_POINT ( 'NONE',  ( -20.77942286340599765, 1.530808065902090522E-16, -1.250000000000000222 ) ) ;
#546 = EDGE_LOOP ( 'NONE', ( #464, #586, #437, #449 ) ) ;
#547 = FILL_AREA_STYLE ('',( #321 ) ) ;
#548 = CARTESIAN_POINT ( 'NONE',  ( -22.15048909679995148, 0.2418642655271363573, -1.250000000000000000 ) ) ;
#549 = ADVANCED_FACE ( 'Bface2', ( #22 ), #317, .T. ) ;
#550 = ORIENTED_EDGE ( 'NONE', *, *, #287, .T. ) ;
#551 =( LENGTH_UNIT ( ) NAMED_UNIT ( * ) SI_UNIT ( .MILLI., .METRE. ) );
#552 = UNCERTAINTY_MEASURE_WITH_UNIT (LENGTH_MEASURE( 1.000000000000000082E-05 ), #568, 'distance_accuracy_value', 'NONE');
#553 = ORIENTED_EDGE ( 'NONE', *, *, #360, .F. ) ;
#554 =( NAMED_UNIT ( * ) PLANE_ANGLE_UNIT ( ) SI_UNIT ( $, .RADIAN. ) );
#555 = ORIENTED_EDGE ( 'NONE', *, *, #421, .F. ) ;
#556 = APPLICATION_PROTOCOL_DEFINITION ( 'draft international standard', 'automotive_design', 1998, #291 ) ;
#557 = EDGE_CURVE ( 'NONE', #390, #14, #270, .T. ) ;
#558 = ORIENTED_EDGE ( 'NONE', *, *, #612, .F. ) ;
#559 = DIRECTION ( 'NONE',  ( 0.000000000000000000, -1.000000000000000000, 0.000000000000000000 ) ) ;
#560 = FILL_AREA_STYLE_COLOUR ( '', #531 ) ;
#561 = CARTESIAN_POINT ( 'NONE',  ( -20.00000000000000000, 1.443375672974064328, -3.128943976826325424E-17 ) ) ;
#562 = DIRECTION ( 'NONE',  ( -1.000000000000000000, -0.000000000000000000, -0.000000000000000000 ) ) ;
#563 = CIRCLE ( 'NONE', #399, 2.000000000000000000 ) ;
#564 = PLANE ( 'NONE',  #25 ) ;
#565 = CARTESIAN_POINT ( 'NONE',  ( -22.19999999999999929, -0.7216878364870324969, -1.249999999999999778 ) ) ;
#566 = CIRCLE ( 'NONE', #419, 1.443375672974064328 ) ;
#567 = DIRECTION ( 'NONE',  ( 0.000000000000000000, -1.224646799147351975E-16, 1.000000000000000000 ) ) ;
#568 =( LENGTH_UNIT ( ) NAMED_UNIT ( * ) SI_UNIT ( .MILLI., .METRE. ) );
#569 = ORIENTED_EDGE ( 'NONE', *, *, #120, .T. ) ;
#570 = CONICAL_SURFACE ( 'NONE', #219, 3901.015332362347181, 1.319856261027563038 ) ;
#571 = DIRECTION ( 'NONE',  ( 0.000000000000000000, 0.000000000000000000, -1.000000000000000000 ) ) ;
#572 = ORIENTED_EDGE ( 'NONE', *, *, #109, .F. ) ;
#573 = CARTESIAN_POINT ( 'NONE',  ( -20.82677104533571111, -1.325934682174327861, 0.2034137629563737282 ) ) ;
#574 = DIRECTION ( 'NONE',  ( -1.000000000000000000, -0.000000000000000000, -0.000000000000000000 ) ) ;
#575 =( GEOMETRIC_REPRESENTATION_CONTEXT ( 3 ) GLOBAL_UNCERTAINTY_ASSIGNED_CONTEXT ( ( #610 ) ) GLOBAL_UNIT_ASSIGNED_CONTEXT ( ( #197, #357, #262 ) ) REPRESENTATION_CONTEXT ( 'NONE', 'WORKASPACE' ) );
#576 = FACE_OUTER_BOUND ( 'NONE', #171, .T. ) ;
#577 = DIRECTION ( 'NONE',  ( 5.691969551695333484E-17, -1.000000000000000000, 0.000000000000000000 ) ) ;
#578 = PLANE ( 'NONE',  #468 ) ;
#579 = ADVANCED_FACE ( 'NONE', ( #340 ), #508, .F. ) ;
#580 = DIRECTION ( 'NONE',  ( 0.000000000000000000, -1.000000000000000000, 0.000000000000000000 ) ) ;
#581 = DIRECTION ( 'NONE',  ( 0.000000000000000000, 0.000000000000000000, 1.000000000000000000 ) ) ;
#582 = AXIS2_PLACEMENT_3D ( 'NONE', #181, #684, #448 ) ;
#583 = CARTESIAN_POINT ( 'NONE',  ( -19.99999999999999645, 0.000000000000000000, 0.000000000000000000 ) ) ;
#584 = CARTESIAN_POINT ( 'NONE',  ( -22.19999999999999929, 1.443375672974064328, 1.517883041479706996E-15 ) ) ;
#585 = DIRECTION ( 'NONE',  ( -1.000000000000000000, -0.000000000000000000, -0.000000000000000000 ) ) ;
#586 = ORIENTED_EDGE ( 'NONE', *, *, #3, .F. ) ;
#587 = SPHERICAL_SURFACE ( 'NONE', #451, 4.007472359323742239 ) ;
#588 = CARTESIAN_POINT ( 'NONE',  ( -20.90000000000000213, -1.443375672974065216, -5.870030462665943960E-16 ) ) ;
#589 = DIRECTION ( 'NONE',  ( 0.000000000000000000, 0.000000000000000000, 1.000000000000000000 ) ) ;
#590 = AXIS2_PLACEMENT_3D ( 'NONE', #83, #537, #29 ) ;
#591 = EDGE_CURVE ( 'NONE', #377, #498, #703, .T. ) ;
#592 = CONICAL_SURFACE ( 'NONE', #582, 3901.015332362347181, 1.319856261027563038 ) ;
#593 = AXIS2_PLACEMENT_3D ( 'NONE', #493, #206, #213 ) ;
#594 = VERTEX_POINT ( 'NONE', #167 ) ;
#595 = CARTESIAN_POINT ( 'NONE',  ( -20.77919874466209293, -1.204657989547420760, -0.4134711563600916850 ) ) ;
#596 = UNCERTAINTY_MEASURE_WITH_UNIT (LENGTH_MEASURE( 1.000000000000000082E-05 ), #521, 'distance_accuracy_value', 'NONE');
#597 = ORIENTED_EDGE ( 'NONE', *, *, #87, .T. ) ;
#598 = SURFACE_SIDE_STYLE ('',( #528 ) ) ;
#599 = CARTESIAN_POINT ( 'NONE',  ( -22.19999999999999929, 0.7216878364870321638, -1.250000000000000222 ) ) ;
#600 = VERTEX_POINT ( 'NONE', #283 ) ;
#601 = COLOUR_RGB ( '',0.7960784313725489669, 0.8235294117647058432, 0.9372549019607843146 ) ;
#602 = DIRECTION ( 'NONE',  ( -1.000000000000000000, -0.000000000000000000, -0.000000000000000000 ) ) ;
#603 = B_SPLINE_CURVE_WITH_KNOTS ( 'NONE', 3,
 ( #63, #573, #401, #185, #409, #351 ),
 .UNSPECIFIED., .F., .F.,
 ( 4, 2, 4 ),
 ( 2.391904125710969021E-07, 0.0007300545202770521809, 0.001459869850141533049 ),
 .UNSPECIFIED. ) ;
#604 = ADVANCED_FACE ( 'NONE', ( #172 ), #462, .F. ) ;
#605 = AXIS2_PLACEMENT_3D ( 'NONE', #511, #393, #387 ) ;
#606 = ORIENTED_EDGE ( 'NONE', *, *, #371, .F. ) ;
#607 = DIRECTION ( 'NONE',  ( 1.000000000000000000, 0.000000000000000000, 0.000000000000000000 ) ) ;
#608 = ORIENTED_EDGE ( 'NONE', *, *, #407, .F. ) ;
#609 = AXIS2_PLACEMENT_3D ( 'NONE', #659, #152, #68 ) ;
#610 = UNCERTAINTY_MEASURE_WITH_UNIT (LENGTH_MEASURE( 1.000000000000000082E-05 ), #197, 'distance_accuracy_value', 'NONE');
#611 = ORIENTED_EDGE ( 'NONE', *, *, #87, .F. ) ;
#612 = EDGE_CURVE ( 'NONE', #12, #319, #196, .T. ) ;
#613 = DIRECTION ( 'NONE',  ( 0.000000000000000000, 0.000000000000000000, 1.000000000000000000 ) ) ;
#614 = ORIENTED_EDGE ( 'NONE', *, *, #681, .T. ) ;
#615 = FILL_AREA_STYLE ('',( #560 ) ) ;
#616 = VERTEX_POINT ( 'NONE', #105 ) ;
#617 = CARTESIAN_POINT ( 'NONE',  ( -22.19999999999999929, 5.192832784574860163E-33, 0.000000000000000000 ) ) ;
#618 = ORIENTED_EDGE ( 'NONE', *, *, #300, .T. ) ;
#619 = CARTESIAN_POINT ( 'NONE',  ( -20.90000000000000213, -1.443375672974065216, -5.870030462665943960E-16 ) ) ;
#620 = ADVANCED_FACE ( 'Bface2', ( #459 ), #10, .T. ) ;
#621 = LINE ( 'NONE', #332, #243 ) ;
#622 = ORIENTED_EDGE ( 'NONE', *, *, #184, .T. ) ;
#623 = CARTESIAN_POINT ( 'NONE',  ( -19.80000000000000071, 2.694222958124174541E-16, -2.199999999999997957 ) ) ;
#624 = ORIENTED_EDGE ( 'NONE', *, *, #444, .T. ) ;
#625 = CARTESIAN_POINT ( 'NONE',  ( -1021.830000000000041, -5.995863809075217092E-14, 0.000000000000000000 ) ) ;
#626 = CARTESIAN_POINT ( 'NONE',  ( -20.00000000000000000, -0.7216878364870328300, -1.250000000000000222 ) ) ;
#627 = EDGE_LOOP ( 'NONE', ( #503, #169 ) ) ;
#628 = DIRECTION ( 'NONE',  ( -1.000000000000000000, -0.000000000000000000, -0.000000000000000000 ) ) ;
#629 = SURFACE_STYLE_FILL_AREA ( #615 ) ;
#630 = ADVANCED_FACE ( 'Bface1', ( #49, #279 ), #564, .F. ) ;
#631 = EDGE_LOOP ( 'NONE', ( #324, #151 ) ) ;
#632 = PLANE ( 'NONE',  #57 ) ;
#633 = CIRCLE ( 'NONE', #721, 1.443375672974063662 ) ;
#634 = ORIENTED_EDGE ( 'NONE', *, *, #109, .T. ) ;
#635 = VECTOR ( 'NONE', #413, 1000.000000000000000 ) ;
#636 = LINE ( 'NONE', #126, #635 ) ;
#637 = FACE_OUTER_BOUND ( 'NONE', #452, .T. ) ;
#638 = CARTESIAN_POINT ( 'NONE',  ( -0.3500000000000000333, 0.000000000000000000, 0.000000000000000000 ) ) ;
#639 = DIRECTION ( 'NONE',  ( 0.000000000000000000, 1.224646799147353207E-16, -1.000000000000000000 ) ) ;
#640 = CIRCLE ( 'NONE', #715, 1.393782217350892916 ) ;
#641 = DIRECTION ( 'NONE',  ( -1.000000000000000000, 0.000000000000000000, -0.000000000000000000 ) ) ;
#642 = AXIS2_PLACEMENT_3D ( 'NONE', #252, #474, #644 ) ;
#643 = CARTESIAN_POINT ( 'NONE',  ( -1021.830000000000041, -5.995863809075217092E-14, 0.000000000000000000 ) ) ;
#644 = DIRECTION ( 'NONE',  ( 5.691969551695333484E-17, -1.000000000000000000, 0.000000000000000000 ) ) ;
#645 = FILL_AREA_STYLE ('',( #470 ) ) ;
#646 = VECTOR ( 'NONE', #454, 1000.000000000000000 ) ;
#647 = EDGE_CURVE ( 'NONE', #455, #498, #228, .T. ) ;
#648 = CARTESIAN_POINT ( 'NONE',  ( -19.99999999999999645, 0.000000000000000000, 2.199999999999997957 ) ) ;
#649 = DIRECTION ( 'NONE',  ( -1.000000000000000000, -0.000000000000000000, -0.000000000000000000 ) ) ;
#650 = DIRECTION ( 'NONE',  ( 0.000000000000000000, 0.000000000000000000, 1.000000000000000000 ) ) ;
#651 = DIRECTION ( 'NONE',  ( 0.000000000000000000, 0.000000000000000000, 1.000000000000000000 ) ) ;
#652 = EDGE_CURVE ( 'NONE', #616, #406, #331, .T. ) ;
#653 = CARTESIAN_POINT ( 'NONE',  ( -20.77964865737705580, -0.9585729505925318916, -0.8397029468125255525 ) ) ;
#654 = VERTEX_POINT ( 'NONE', #732 ) ;
#655 = AXIS2_PLACEMENT_3D ( 'NONE', #349, #574, #691 ) ;
#656 = DIRECTION ( 'NONE',  ( 0.000000000000000000, 0.4999999999999998335, 0.8660254037844387076 ) ) ;
#657 = ORIENTED_EDGE ( 'NONE', *, *, #612, .T. ) ;
#658 = ADVANCED_FACE ( 'NONE', ( #334 ), #504, .T. ) ;
#659 = CARTESIAN_POINT ( 'NONE',  ( -19.99999999999999645, 0.000000000000000000, 0.000000000000000000 ) ) ;
#660 = ORIENTED_EDGE ( 'NONE', *, *, #441, .F. ) ;
#661 = AXIS2_PLACEMENT_3D ( 'NONE', #623, #728, #567 ) ;
#662 = ORIENTED_EDGE ( 'NONE', *, *, #44, .F. ) ;
#663 = DIRECTION ( 'NONE',  ( 0.000000000000000000, 0.000000000000000000, 1.000000000000000000 ) ) ;
#664 = B_SPLINE_CURVE_WITH_KNOTS ( 'NONE', 3,
 ( #23, #61, #347, #288, #343, #4 ),
 .UNSPECIFIED., .F., .F.,
 ( 4, 2, 4 ),
 ( 0.002974540139219445344, 0.003699310320131249993, 0.004424080501043054642 ),
 .UNSPECIFIED. ) ;
#665 = AXIS2_PLACEMENT_3D ( 'NONE', #396, #562, #188 ) ;
#666 = EDGE_CURVE ( 'NONE', #319, #110, #566, .T. ) ;
#667 = VERTEX_POINT ( 'NONE', #510 ) ;
#668 = DIRECTION ( 'NONE',  ( 0.000000000000000000, 0.000000000000000000, -1.000000000000000000 ) ) ;
#669 = ORIENTED_EDGE ( 'NONE', *, *, #591, .T. ) ;
#670 = ADVANCED_FACE ( 'NONE', ( #397 ), #632, .F. ) ;
#671 = CARTESIAN_POINT ( 'NONE',  ( -18.72727272727272663, 0.000000000000000000, 0.000000000000000000 ) ) ;
#672 = ORIENTED_EDGE ( 'NONE', *, *, #221, .T. ) ;
#673 = CARTESIAN_POINT ( 'NONE',  ( -22.19999999999999929, 0.7216878364870323859, 1.250000000000000000 ) ) ;
#674 = EDGE_LOOP ( 'NONE', ( #327, #392 ) ) ;
#675 = DIRECTION ( 'NONE',  ( -0.000000000000000000, 0.8660254037844387076, 0.4999999999999998335 ) ) ;
#676 = ORIENTED_EDGE ( 'NONE', *, *, #125, .F. ) ;
#677 = DIRECTION ( 'NONE',  ( -1.000000000000000000, 0.000000000000000000, -0.000000000000000000 ) ) ;
#678 = ORIENTED_EDGE ( 'NONE', *, *, #407, .T. ) ;
#679 = DIRECTION ( 'NONE',  ( 0.000000000000000000, -0.4999999999999998335, 0.8660254037844387076 ) ) ;
#680 = ADVANCED_FACE ( 'NONE', ( #391 ), #53, .F. ) ;
#681 = EDGE_CURVE ( 'NONE', #148, #34, #251, .T. ) ;
#682 = VERTEX_POINT ( 'NONE', #515 ) ;
#683 = CARTESIAN_POINT ( 'NONE',  ( -20.90000000000000213, 0.000000000000000000, 1.443375672974064106 ) ) ;
#684 = DIRECTION ( 'NONE',  ( -1.000000000000000000, -5.998083099822152164E-17, -0.000000000000000000 ) ) ;
#685 = ORIENTED_EDGE ( 'NONE', *, *, #306, .F. ) ;
#686 = CARTESIAN_POINT ( 'NONE',  ( -22.13169213213474862, -1.082531754730548412, -0.6250000000000016653 ) ) ;
#687 = CONICAL_SURFACE ( 'NONE', #642, 3901.015332362347181, 1.319856261027563038 ) ;
#688 = FACE_OUTER_BOUND ( 'NONE', #113, .T. ) ;
#689 = AXIS2_PLACEMENT_3D ( 'NONE', #481, #651, #485 ) ;
#690 = ADVANCED_FACE ( 'NONE', ( #458 ), #431, .F. ) ;
#691 = DIRECTION ( 'NONE',  ( 0.000000000000000000, 0.000000000000000000, 1.000000000000000000 ) ) ;
#692 = CARTESIAN_POINT ( 'NONE',  ( -20.83343568050244343, 0.4873330088410964822, 1.249999999999999334 ) ) ;
#693 = DIRECTION ( 'NONE',  ( -0.5000000000000001110, 1.060575238724906792E-16, -0.8660254037844385966 ) ) ;
#694 = PRESENTATION_LAYER_ASSIGNMENT (  '', '', ( #733 ) ) ;
#695 = DIRECTION ( 'NONE',  ( -1.000000000000000000, -0.000000000000000000, -0.000000000000000000 ) ) ;
#696 = CARTESIAN_POINT ( 'NONE',  ( -20.77964865737705580, 0.9585729505925310034, 0.8397029468125249974 ) ) ;
#697 = B_SPLINE_CURVE_WITH_KNOTS ( 'NONE', 3,
 ( #231, #71, #686, #121, #514 ),
 .UNSPECIFIED., .F., .F.,
 ( 4, 1, 4 ),
 ( 2.309401076792091378E-07, 0.0007219187765947098672, 0.001443606613081740162 ),
 .UNSPECIFIED. ) ;
#698 = CIRCLE ( 'NONE', #411, 1.999999999999998668 ) ;
#699 = EDGE_CURVE ( 'NONE', #158, #377, #305, .T. ) ;
#700 = CARTESIAN_POINT ( 'NONE',  ( -20.90000000000000213, -0.7216878364870332740, 1.249999999999999778 ) ) ;
#701 = CARTESIAN_POINT ( 'NONE',  ( -20.77942286340599765, -4.330215280939178002E-23, 1.249999999999999778 ) ) ;
#702 = CARTESIAN_POINT ( 'NONE',  ( -22.19999999999999929, 2.219290746934189176E-17, -3.599228117386079962E-16 ) ) ;
#703 = B_SPLINE_CURVE_WITH_KNOTS ( 'NONE', 3,
 ( #276, #177, #236, #456, #673 ),
 .UNSPECIFIED., .F., .F.,
 ( 4, 1, 4 ),
 ( 2.309401076771026463E-07, 0.0007219187765947085661, 0.001443606613081740162 ),
 .UNSPECIFIED. ) ;
#704 = ADVANCED_BREP_SHAPE_REPRESENTATION ( 'GB╱T 70.2-2015[内六角平圆头螺钉M4×20]', ( #404, #471 ), #245 ) ;
#705 = CONICAL_SURFACE ( 'NONE', #293, 2.000000000000000000, 1.047197551196597631 ) ;
#706 = ORIENTED_EDGE ( 'NONE', *, *, #265, .F. ) ;
#707 = CARTESIAN_POINT ( 'NONE',  ( -18.72727272727272663, 0.000000000000000000, 0.000000000000000000 ) ) ;
#708 = PLANE ( 'NONE',  #261 ) ;
#709 = CARTESIAN_POINT ( 'NONE',  ( -20.00000000000000000, 0.000000000000000000, 0.000000000000000000 ) ) ;
#710 = EDGE_CURVE ( 'NONE', #110, #498, #39, .T. ) ;
#711 = ORIENTED_EDGE ( 'NONE', *, *, #212, .T. ) ;
#712 = CARTESIAN_POINT ( 'NONE',  ( 0.000000000000000000, 2.078092264740989006E-16, -1.393782217350892916 ) ) ;
#713 = EDGE_LOOP ( 'NONE', ( #669, #618 ) ) ;
#714 =( NAMED_UNIT ( * ) SI_UNIT ( $, .STERADIAN. ) SOLID_ANGLE_UNIT ( ) );
#715 = AXIS2_PLACEMENT_3D ( 'NONE', #310, #423, #354 ) ;
#716 = CARTESIAN_POINT ( 'NONE',  ( -22.16927320067241780, 0.4819564059043950355, -1.250000000000000222 ) ) ;
#717 = EDGE_LOOP ( 'NONE', ( #292, #7, #569, #494, #380, #718 ) ) ;
#718 = ORIENTED_EDGE ( 'NONE', *, *, #542, .T. ) ;
#719 = ADVANCED_FACE ( 'NONE', ( #461 ), #592, .F. ) ;
#720 = EDGE_LOOP ( 'NONE', ( #383, #335, #124, #166 ) ) ;
#721 = AXIS2_PLACEMENT_3D ( 'NONE', #138, #78, #24 ) ;
#722 = APPLICATION_PROTOCOL_DEFINITION ( 'draft international standard', 'automotive_design', 1998, #75 ) ;
#723 = DIRECTION ( 'NONE',  ( -1.000000000000000000, -0.000000000000000000, -0.000000000000000000 ) ) ;
#724 = PRODUCT_DEFINITION_FORMATION_WITH_SPECIFIED_SOURCE ( '任何', '', #65, .NOT_KNOWN. ) ;
#725 = VECTOR ( 'NONE', #175, 1000.000000000000114 ) ;
#726 = ADVANCED_FACE ( 'NONE', ( #386 ), #500, .F. ) ;
#727 = ORIENTED_EDGE ( 'NONE', *, *, #247, .F. ) ;
#728 = DIRECTION ( 'NONE',  ( -0.000000000000000000, 1.000000000000000000, 1.224646799147353207E-16 ) ) ;
#729 = ORIENTED_EDGE ( 'NONE', *, *, #192, .F. ) ;
#730 = DIRECTION ( 'NONE',  ( -1.000000000000000000, -0.000000000000000000, -0.000000000000000000 ) ) ;
#731 = ORIENTED_EDGE ( 'NONE', *, *, #536, .F. ) ;
#732 = CARTESIAN_POINT ( 'NONE',  ( -20.00000000000000000, 0.000000000000000000, 0.000000000000000000 ) ) ;
#733 = STYLED_ITEM ( 'NONE', ( #249 ), #549 ) ;
#734 = CARTESIAN_POINT ( 'NONE',  ( -22.19999999999999929, 0.000000000000000000, 0.000000000000000000 ) ) ;
ENDSEC;
END-ISO-10303-21;
