ISO-10303-21;
HEADER;
FILE_DESCRIPTION (( 'STEP AP214' ),
    '1' );
FILE_NAME ('GB╱T 95-2002[平垫圈 C级3].step',
    '2023-08-15T02:54:33',
    ( '' ),
    ( '' ),
    'SwSTEP 2.0',
    'SolidWorks 2022',
    '' );
FILE_SCHEMA (( 'AUTOMOTIVE_DESIGN' ));
ENDSEC;

DATA;
#1 = EDGE_CURVE ( 'NONE', #3, #48, #16, .T. ) ;
#2 = EDGE_CURVE ( 'NONE', #30, #44, #151, .T. ) ;
#3 = VERTEX_POINT ( 'NONE', #25 ) ;
#4 = EDGE_CURVE ( 'NONE', #39, #101, #119, .T. ) ;
#5 = ORIENTED_EDGE ( 'NONE', *, *, #209, .F. ) ;
#6 = AXIS2_PLACEMENT_3D ( 'NONE', #158, #165, #69 ) ;
#7 = ORIENTED_EDGE ( 'NONE', *, *, #2, .F. ) ;
#8 = DIRECTION ( 'NONE',  ( 0.000000000000000000, 0.000000000000000000, -1.000000000000000000 ) ) ;
#9 = EDGE_CURVE ( 'Gline3', #30, #186, #45, .T. ) ;
#10 = DIRECTION ( 'NONE',  ( 0.000000000000000000, 0.000000000000000000, -1.000000000000000000 ) ) ;
#11 = CARTESIAN_POINT ( 'NONE',  ( 0.000000000000000000, 9.144507042253527729, -3.500000000000003109 ) ) ;
#12 = CARTESIAN_POINT ( 'NONE',  ( 4.286263797015740046E-16, 8.644507042253527729, 3.500000000000003109 ) ) ;
#13 = SURFACE_STYLE_USAGE ( .BOTH. , #208 ) ;
#14 = DIRECTION ( 'NONE',  ( 0.000000000000000000, 0.000000000000000000, -1.000000000000000000 ) ) ;
#15 = FACE_OUTER_BOUND ( 'NONE', #198, .T. ) ;
#16 = LINE ( 'NONE', #51, #85 ) ;
#17 = CYLINDRICAL_SURFACE ( 'NONE', #95, 1.700000000000000178 ) ;
#18 = AXIS2_PLACEMENT_3D ( 'NONE', #109, #31, #180 ) ;
#19 = ORIENTED_EDGE ( 'NONE', *, *, #157, .F. ) ;
#20 = DIRECTION ( 'NONE',  ( 1.000000000000000000, 0.000000000000000000, 0.000000000000000000 ) ) ;
#21 = DIRECTION ( 'NONE',  ( -0.000000000000000000, -1.000000000000000000, -0.000000000000000000 ) ) ;
#22 = CIRCLE ( 'NONE', #185, 1.700000000000000178 ) ;
#23 = ORIENTED_EDGE ( 'NONE', *, *, #9, .F. ) ;
#24 = SURFACE_STYLE_FILL_AREA ( #171 ) ;
#25 = CARTESIAN_POINT ( 'NONE',  ( 2.081899558550500526E-16, 9.144507042253529505, 1.700000000000000178 ) ) ;
#26 =( LENGTH_UNIT ( ) NAMED_UNIT ( * ) SI_UNIT ( .MILLI., .METRE. ) );
#27 = DIRECTION ( 'NONE',  ( 0.000000000000000000, 0.000000000000000000, -1.000000000000000000 ) ) ;
#28 = DIRECTION ( 'NONE',  ( 0.000000000000000000, 0.000000000000000000, -1.000000000000000000 ) ) ;
#29 = PRESENTATION_STYLE_ASSIGNMENT (( #13 ) ) ;
#30 = VERTEX_POINT ( 'NONE', #182 ) ;
#31 = DIRECTION ( 'NONE',  ( -0.000000000000000000, -1.000000000000000000, -0.000000000000000000 ) ) ;
#32 = ORIENTED_EDGE ( 'NONE', *, *, #128, .F. ) ;
#33 = DIRECTION ( 'NONE',  ( -0.000000000000000000, -1.000000000000000000, -0.000000000000000000 ) ) ;
#34 = FACE_BOUND ( 'NONE', #130, .T. ) ;
#35 = DIRECTION ( 'NONE',  ( -0.000000000000000000, -1.000000000000000000, -0.000000000000000000 ) ) ;
#36 = DIRECTION ( 'NONE',  ( 0.000000000000000000, 1.000000000000000000, 0.000000000000000000 ) ) ;
#37 = CIRCLE ( 'NONE', #63, 1.700000000000000178 ) ;
#38 = DIRECTION ( 'NONE',  ( 0.000000000000000000, 0.000000000000000000, -1.000000000000000000 ) ) ;
#39 = VERTEX_POINT ( 'NONE', #50 ) ;
#40 = EDGE_CURVE ( 'Gline2', #48, #101, #22, .T. ) ;
#41 = DIRECTION ( 'NONE',  ( 0.000000000000000000, 0.000000000000000000, -1.000000000000000000 ) ) ;
#42 = MECHANICAL_DESIGN_GEOMETRIC_PRESENTATION_REPRESENTATION (  '', ( #59 ), #49 ) ;
#43 = ADVANCED_FACE ( 'Gface1', ( #34, #75 ), #99, .F. ) ;
#44 = VERTEX_POINT ( 'NONE', #12 ) ;
#45 = CIRCLE ( 'NONE', #155, 3.500000000000003109 ) ;
#46 = PRODUCT_DEFINITION_CONTEXT ( 'detailed design', #195, 'design' ) ;
#47 = ORIENTED_EDGE ( 'NONE', *, *, #4, .F. ) ;
#48 = VERTEX_POINT ( 'NONE', #137 ) ;
#49 =( GEOMETRIC_REPRESENTATION_CONTEXT ( 3 ) GLOBAL_UNCERTAINTY_ASSIGNED_CONTEXT ( ( #129 ) ) GLOBAL_UNIT_ASSIGNED_CONTEXT ( ( #26, #161, #131 ) ) REPRESENTATION_CONTEXT ( 'NONE', 'WORKASPACE' ) );
#50 = CARTESIAN_POINT ( 'NONE',  ( 0.000000000000000000, 9.144507042253529505, -1.700000000000000178 ) ) ;
#51 = CARTESIAN_POINT ( 'NONE',  ( 2.081899558550500526E-16, 0.000000000000000000, 1.700000000000000178 ) ) ;
#52 = SHAPE_DEFINITION_REPRESENTATION ( #164, #77 ) ;
#53 = PLANE ( 'NONE',  #144 ) ;
#54 = CARTESIAN_POINT ( 'NONE',  ( 0.000000000000000000, 8.644507042253527729, 0.000000000000000000 ) ) ;
#55 = EDGE_LOOP ( 'NONE', ( #32, #121, #132, #47 ) ) ;
#56 =( LENGTH_UNIT ( ) NAMED_UNIT ( * ) SI_UNIT ( .MILLI., .METRE. ) );
#57 = EDGE_CURVE ( 'NONE', #39, #3, #170, .T. ) ;
#58 = DIRECTION ( 'NONE',  ( -0.000000000000000000, -1.000000000000000000, -0.000000000000000000 ) ) ;
#59 = STYLED_ITEM ( 'NONE', ( #66 ), #77 ) ;
#60 = DIRECTION ( 'NONE',  ( -0.000000000000000000, -1.000000000000000000, -0.000000000000000000 ) ) ;
#61 = PRESENTATION_LAYER_ASSIGNMENT (  '', '', ( #83 ) ) ;
#62 = ORIENTED_EDGE ( 'NONE', *, *, #40, .F. ) ;
#63 = AXIS2_PLACEMENT_3D ( 'NONE', #108, #190, #14 ) ;
#64 = EDGE_LOOP ( 'NONE', ( #71, #196, #166, #176 ) ) ;
#65 = CYLINDRICAL_SURFACE ( 'NONE', #78, 3.500000000000003109 ) ;
#66 = PRESENTATION_STYLE_ASSIGNMENT (( #181 ) ) ;
#67 = VERTEX_POINT ( 'NONE', #126 ) ;
#68 = FILL_AREA_STYLE_COLOUR ( '', #212 ) ;
#69 = DIRECTION ( 'NONE',  ( 0.000000000000000000, 0.000000000000000000, -1.000000000000000000 ) ) ;
#70 = DIRECTION ( 'NONE',  ( 0.000000000000000000, -0.000000000000000000, 1.000000000000000000 ) ) ;
#71 = ORIENTED_EDGE ( 'NONE', *, *, #1, .F. ) ;
#72 =( NAMED_UNIT ( * ) PLANE_ANGLE_UNIT ( ) SI_UNIT ( $, .RADIAN. ) );
#73 = CYLINDRICAL_SURFACE ( 'NONE', #113, 1.700000000000000178 ) ;
#74 = EDGE_CURVE ( 'NONE', #44, #67, #191, .T. ) ;
#75 = FACE_OUTER_BOUND ( 'NONE', #104, .T. ) ;
#76 = DIRECTION ( 'NONE',  ( 0.000000000000000000, 0.000000000000000000, -1.000000000000000000 ) ) ;
#77 = ADVANCED_BREP_SHAPE_REPRESENTATION ( 'GB╱T 95-2002[平垫圈 C级3]', ( #187, #125 ), #106 ) ;
#78 = AXIS2_PLACEMENT_3D ( 'NONE', #117, #33, #76 ) ;
#79 = UNCERTAINTY_MEASURE_WITH_UNIT (LENGTH_MEASURE( 1.000000000000000082E-05 ), #169, 'distance_accuracy_value', 'NONE');
#80 = PRODUCT_DEFINITION_FORMATION_WITH_SPECIFIED_SOURCE ( '任何', '', #111, .NOT_KNOWN. ) ;
#81 = CARTESIAN_POINT ( 'NONE',  ( 0.000000000000000000, 0.000000000000000000, 0.000000000000000000 ) ) ;
#82 = ORIENTED_EDGE ( 'NONE', *, *, #173, .F. ) ;
#83 = STYLED_ITEM ( 'NONE', ( #29 ), #187 ) ;
#84 = DIRECTION ( 'NONE',  ( 0.000000000000000000, 0.000000000000000000, -1.000000000000000000 ) ) ;
#85 = VECTOR ( 'NONE', #21, 1000.000000000000000 ) ;
#86 = ORIENTED_EDGE ( 'NONE', *, *, #57, .T. ) ;
#87 = DIRECTION ( 'NONE',  ( 0.000000000000000000, 0.000000000000000000, -1.000000000000000000 ) ) ;
#88 = DIRECTION ( 'NONE',  ( -0.000000000000000000, -1.000000000000000000, -0.000000000000000000 ) ) ;
#89 =( NAMED_UNIT ( * ) SI_UNIT ( $, .STERADIAN. ) SOLID_ANGLE_UNIT ( ) );
#90 = LINE ( 'NONE', #103, #154 ) ;
#91 = DIRECTION ( 'NONE',  ( -0.000000000000000000, -1.000000000000000000, -0.000000000000000000 ) ) ;
#92 = CARTESIAN_POINT ( 'NONE',  ( 0.000000000000000000, 0.000000000000000000, 0.000000000000000000 ) ) ;
#93 = ADVANCED_FACE ( 'NONE', ( #146 ), #65, .T. ) ;
#94 = CIRCLE ( 'NONE', #6, 1.700000000000000178 ) ;
#95 = AXIS2_PLACEMENT_3D ( 'NONE', #92, #214, #27 ) ;
#96 = COLOUR_RGB ( '',0.6470588235294117974, 0.6196078431372549211, 0.5882352941176470784 ) ;
#97 = SURFACE_STYLE_FILL_AREA ( #202 ) ;
#98 = ORIENTED_EDGE ( 'NONE', *, *, #74, .F. ) ;
#99 = PLANE ( 'NONE',  #177 ) ;
#100 = FILL_AREA_STYLE_COLOUR ( '', #96 ) ;
#101 = VERTEX_POINT ( 'NONE', #160 ) ;
#102 = APPLICATION_PROTOCOL_DEFINITION ( 'draft international standard', 'automotive_design', 1998, #127 ) ;
#103 = CARTESIAN_POINT ( 'NONE',  ( 0.000000000000000000, 0.000000000000000000, -3.500000000000003109 ) ) ;
#104 = EDGE_LOOP ( 'NONE', ( #174, #162 ) ) ;
#105 = CARTESIAN_POINT ( 'NONE',  ( 0.000000000000000000, 0.000000000000000000, 0.000000000000000000 ) ) ;
#106 =( GEOMETRIC_REPRESENTATION_CONTEXT ( 3 ) GLOBAL_UNCERTAINTY_ASSIGNED_CONTEXT ( ( #79 ) ) GLOBAL_UNIT_ASSIGNED_CONTEXT ( ( #169, #167, #89 ) ) REPRESENTATION_CONTEXT ( 'NONE', 'WORKASPACE' ) );
#107 = AXIS2_PLACEMENT_3D ( 'NONE', #163, #60, #84 ) ;
#108 = CARTESIAN_POINT ( 'NONE',  ( 0.000000000000000000, 9.144507042253529505, 0.000000000000000000 ) ) ;
#109 = CARTESIAN_POINT ( 'NONE',  ( 0.000000000000000000, 8.644507042253527729, 0.000000000000000000 ) ) ;
#110 = ADVANCED_FACE ( 'Gface2', ( #141 ), #17, .F. ) ;
#111 = PRODUCT ( 'GB╱T 95-2002[平垫圈 C级3]', 'GB╱T 95-2002[平垫圈 C级3]', '', ( #179 ) ) ;
#112 = VECTOR ( 'NONE', #168, 1000.000000000000000 ) ;
#113 = AXIS2_PLACEMENT_3D ( 'NONE', #188, #172, #38 ) ;
#114 = EDGE_CURVE ( 'NONE', #67, #44, #156, .T. ) ;
#115 = DIRECTION ( 'NONE',  ( 0.000000000000000000, 0.000000000000000000, 1.000000000000000000 ) ) ;
#116 = PRESENTATION_LAYER_ASSIGNMENT (  '', '', ( #59 ) ) ;
#117 = CARTESIAN_POINT ( 'NONE',  ( 0.000000000000000000, 0.000000000000000000, 0.000000000000000000 ) ) ;
#118 = SURFACE_SIDE_STYLE ('',( #97 ) ) ;
#119 = LINE ( 'NONE', #135, #112 ) ;
#120 = DIRECTION ( 'NONE',  ( -0.000000000000000000, -1.000000000000000000, -0.000000000000000000 ) ) ;
#121 = ORIENTED_EDGE ( 'NONE', *, *, #1, .T. ) ;
#122 = FACE_OUTER_BOUND ( 'NONE', #55, .T. ) ;
#123 = ORIENTED_EDGE ( 'NONE', *, *, #209, .T. ) ;
#124 =( NAMED_UNIT ( * ) SI_UNIT ( $, .STERADIAN. ) SOLID_ANGLE_UNIT ( ) );
#125 = AXIS2_PLACEMENT_3D ( 'NONE', #81, #115, #20 ) ;
#126 = CARTESIAN_POINT ( 'NONE',  ( 0.000000000000000000, 8.644507042253527729, -3.500000000000003109 ) ) ;
#127 = APPLICATION_CONTEXT ( 'automotive_design' ) ;
#128 = EDGE_CURVE ( 'NONE', #3, #39, #37, .T. ) ;
#129 = UNCERTAINTY_MEASURE_WITH_UNIT (LENGTH_MEASURE( 1.000000000000000082E-05 ), #26, 'distance_accuracy_value', 'NONE');
#130 = EDGE_LOOP ( 'NONE', ( #19, #62 ) ) ;
#131 =( NAMED_UNIT ( * ) SI_UNIT ( $, .STERADIAN. ) SOLID_ANGLE_UNIT ( ) );
#132 = ORIENTED_EDGE ( 'NONE', *, *, #40, .T. ) ;
#133 = ORIENTED_EDGE ( 'NONE', *, *, #2, .T. ) ;
#134 = FACE_OUTER_BOUND ( 'NONE', #194, .T. ) ;
#135 = CARTESIAN_POINT ( 'NONE',  ( 0.000000000000000000, 0.000000000000000000, -1.700000000000000178 ) ) ;
#136 = CARTESIAN_POINT ( 'NONE',  ( 0.000000000000000000, 8.644507042253527729, 0.000000000000000000 ) ) ;
#137 = CARTESIAN_POINT ( 'NONE',  ( 2.081899558550500526E-16, 8.644507042253527729, 1.700000000000000178 ) ) ;
#138 = CARTESIAN_POINT ( 'NONE',  ( -1.700000000000000178, 9.144507042253529505, 0.000000000000000000 ) ) ;
#139 = DIRECTION ( 'NONE',  ( -0.000000000000000000, -1.000000000000000000, -0.000000000000000000 ) ) ;
#140 = CARTESIAN_POINT ( 'NONE',  ( -1.700000000000000178, 8.644507042253527729, 0.000000000000000000 ) ) ;
#141 = FACE_OUTER_BOUND ( 'NONE', #64, .T. ) ;
#142 = UNCERTAINTY_MEASURE_WITH_UNIT (LENGTH_MEASURE( 1.000000000000000082E-05 ), #56, 'distance_accuracy_value', 'NONE');
#143 = AXIS2_PLACEMENT_3D ( 'NONE', #204, #120, #8 ) ;
#144 = AXIS2_PLACEMENT_3D ( 'NONE', #138, #183, #28 ) ;
#145 = ADVANCED_FACE ( 'NONE', ( #134 ), #150, .T. ) ;
#146 = FACE_OUTER_BOUND ( 'NONE', #203, .T. ) ;
#147 = ADVANCED_FACE ( 'Gface3', ( #15, #153 ), #53, .F. ) ;
#148 = ORIENTED_EDGE ( 'NONE', *, *, #128, .T. ) ;
#149 = AXIS2_PLACEMENT_3D ( 'NONE', #136, #35, #87 ) ;
#150 = CYLINDRICAL_SURFACE ( 'NONE', #199, 3.500000000000003109 ) ;
#151 = LINE ( 'NONE', #189, #211 ) ;
#152 = DIRECTION ( 'NONE',  ( 0.000000000000000000, 0.000000000000000000, -1.000000000000000000 ) ) ;
#153 = FACE_BOUND ( 'NONE', #159, .T. ) ;
#154 = VECTOR ( 'NONE', #58, 1000.000000000000000 ) ;
#155 = AXIS2_PLACEMENT_3D ( 'NONE', #213, #201, #152 ) ;
#156 = CIRCLE ( 'NONE', #149, 3.500000000000003109 ) ;
#157 = EDGE_CURVE ( 'Gline2', #101, #48, #94, .T. ) ;
#158 = CARTESIAN_POINT ( 'NONE',  ( 0.000000000000000000, 8.644507042253527729, 0.000000000000000000 ) ) ;
#159 = EDGE_LOOP ( 'NONE', ( #86, #148 ) ) ;
#160 = CARTESIAN_POINT ( 'NONE',  ( 0.000000000000000000, 8.644507042253527729, -1.700000000000000178 ) ) ;
#161 =( NAMED_UNIT ( * ) PLANE_ANGLE_UNIT ( ) SI_UNIT ( $, .RADIAN. ) );
#162 = ORIENTED_EDGE ( 'NONE', *, *, #74, .T. ) ;
#163 = CARTESIAN_POINT ( 'NONE',  ( 0.000000000000000000, 9.144507042253529505, 0.000000000000000000 ) ) ;
#164 = PRODUCT_DEFINITION_SHAPE ( 'NONE', 'NONE',  #178 ) ;
#165 = DIRECTION ( 'NONE',  ( -0.000000000000000000, -1.000000000000000000, -0.000000000000000000 ) ) ;
#166 = ORIENTED_EDGE ( 'NONE', *, *, #4, .T. ) ;
#167 =( NAMED_UNIT ( * ) PLANE_ANGLE_UNIT ( ) SI_UNIT ( $, .RADIAN. ) );
#168 = DIRECTION ( 'NONE',  ( -0.000000000000000000, -1.000000000000000000, -0.000000000000000000 ) ) ;
#169 =( LENGTH_UNIT ( ) NAMED_UNIT ( * ) SI_UNIT ( .MILLI., .METRE. ) );
#170 = CIRCLE ( 'NONE', #107, 1.700000000000000178 ) ;
#171 = FILL_AREA_STYLE ('',( #100 ) ) ;
#172 = DIRECTION ( 'NONE',  ( -0.000000000000000000, -1.000000000000000000, -0.000000000000000000 ) ) ;
#173 = EDGE_CURVE ( 'Gline3', #186, #30, #184, .T. ) ;
#174 = ORIENTED_EDGE ( 'NONE', *, *, #114, .T. ) ;
#175 = PRODUCT_RELATED_PRODUCT_CATEGORY ( 'part', '', ( #111 ) ) ;
#176 = ORIENTED_EDGE ( 'NONE', *, *, #157, .T. ) ;
#177 = AXIS2_PLACEMENT_3D ( 'NONE', #140, #36, #70 ) ;
#178 = PRODUCT_DEFINITION ( '未知', '', #80, #46 ) ;
#179 = PRODUCT_CONTEXT ( 'NONE', #127, 'mechanical' ) ;
#180 = DIRECTION ( 'NONE',  ( 0.000000000000000000, 0.000000000000000000, -1.000000000000000000 ) ) ;
#181 = SURFACE_STYLE_USAGE ( .BOTH. , #118 ) ;
#182 = CARTESIAN_POINT ( 'NONE',  ( 4.286263797015740046E-16, 9.144507042253527729, 3.500000000000003109 ) ) ;
#183 = DIRECTION ( 'NONE',  ( 0.000000000000000000, -1.000000000000000000, -0.000000000000000000 ) ) ;
#184 = CIRCLE ( 'NONE', #143, 3.500000000000003109 ) ;
#185 = AXIS2_PLACEMENT_3D ( 'NONE', #54, #91, #10 ) ;
#186 = VERTEX_POINT ( 'NONE', #11 ) ;
#187 = MANIFOLD_SOLID_BREP ( '基体-旋转', #192 ) ;
#188 = CARTESIAN_POINT ( 'NONE',  ( 0.000000000000000000, 0.000000000000000000, 0.000000000000000000 ) ) ;
#189 = CARTESIAN_POINT ( 'NONE',  ( 4.286263797015740046E-16, 0.000000000000000000, 3.500000000000003109 ) ) ;
#190 = DIRECTION ( 'NONE',  ( -0.000000000000000000, -1.000000000000000000, -0.000000000000000000 ) ) ;
#191 = CIRCLE ( 'NONE', #18, 3.500000000000003109 ) ;
#192 = CLOSED_SHELL ( 'NONE', ( #93, #193, #110, #147, #145, #43 ) ) ;
#193 = ADVANCED_FACE ( 'Gface2', ( #122 ), #73, .F. ) ;
#194 = EDGE_LOOP ( 'NONE', ( #7, #207, #123, #98 ) ) ;
#195 = APPLICATION_CONTEXT ( 'automotive_design' ) ;
#196 = ORIENTED_EDGE ( 'NONE', *, *, #57, .F. ) ;
#197 = ORIENTED_EDGE ( 'NONE', *, *, #114, .F. ) ;
#198 = EDGE_LOOP ( 'NONE', ( #82, #23 ) ) ;
#199 = AXIS2_PLACEMENT_3D ( 'NONE', #105, #139, #41 ) ;
#200 = APPLICATION_PROTOCOL_DEFINITION ( 'draft international standard', 'automotive_design', 1998, #195 ) ;
#201 = DIRECTION ( 'NONE',  ( -0.000000000000000000, -1.000000000000000000, -0.000000000000000000 ) ) ;
#202 = FILL_AREA_STYLE ('',( #68 ) ) ;
#203 = EDGE_LOOP ( 'NONE', ( #205, #133, #197, #5 ) ) ;
#204 = CARTESIAN_POINT ( 'NONE',  ( 0.000000000000000000, 9.144507042253527729, 0.000000000000000000 ) ) ;
#205 = ORIENTED_EDGE ( 'NONE', *, *, #173, .T. ) ;
#206 =( GEOMETRIC_REPRESENTATION_CONTEXT ( 3 ) GLOBAL_UNCERTAINTY_ASSIGNED_CONTEXT ( ( #142 ) ) GLOBAL_UNIT_ASSIGNED_CONTEXT ( ( #56, #72, #124 ) ) REPRESENTATION_CONTEXT ( 'NONE', 'WORKASPACE' ) );
#207 = ORIENTED_EDGE ( 'NONE', *, *, #9, .T. ) ;
#208 = SURFACE_SIDE_STYLE ('',( #24 ) ) ;
#209 = EDGE_CURVE ( 'NONE', #186, #67, #90, .T. ) ;
#210 = MECHANICAL_DESIGN_GEOMETRIC_PRESENTATION_REPRESENTATION (  '', ( #83 ), #206 ) ;
#211 = VECTOR ( 'NONE', #88, 1000.000000000000000 ) ;
#212 = COLOUR_RGB ( '',0.7921568627450980005, 0.8196078431372548767, 0.9333333333333333481 ) ;
#213 = CARTESIAN_POINT ( 'NONE',  ( 0.000000000000000000, 9.144507042253527729, 0.000000000000000000 ) ) ;
#214 = DIRECTION ( 'NONE',  ( -0.000000000000000000, -1.000000000000000000, -0.000000000000000000 ) ) ;
ENDSEC;
END-ISO-10303-21;
