ISO-10303-21;
HEADER;
FILE_DESCRIPTION (( 'STEP AP214' ),
    '1' );
FILE_NAME ('M3ÂÝÄ¸.step',
    '2023-08-15T02:54:39',
    ( '' ),
    ( '' ),
    'SwSTEP 2.0',
    'SolidWorks 2022',
    '' );
FILE_SCHEMA (( 'AUTOMOTIVE_DESIGN' ));
ENDSEC;

DATA;
#1 = ORIENTED_EDGE ( 'NONE', *, *, #661, .F. ) ;
#2 = DIRECTION ( 'NONE',  ( 1.000000000000000000, 0.000000000000000000, 0.000000000000000000 ) ) ;
#3 = EDGE_CURVE ( 'NONE', #621, #462, #324, .T. ) ;
#4 = AXIS2_PLACEMENT_3D ( 'NONE', #343, #515, #117 ) ;
#5 = ORIENTED_EDGE ( 'NONE', *, *, #675, .T. ) ;
#6 = PLANE ( 'NONE',  #4 ) ;
#7 = EDGE_CURVE ( 'NONE', #59, #466, #612, .T. ) ;
#8 = ORIENTED_EDGE ( 'NONE', *, *, #244, .F. ) ;
#9 = PLANE ( 'NONE',  #522 ) ;
#10 = CARTESIAN_POINT ( 'NONE',  ( -3.730867320654844785E-17, 3.175426480542919982, 2.154379906938152622 ) ) ;
#11 = VERTEX_POINT ( 'NONE', #565 ) ;
#12 = ADVANCED_FACE ( 'NONE', ( #400 ), #488, .T. ) ;
#13 = B_SPLINE_CURVE_WITH_KNOTS ( 'NONE', 3,
 ( #353, #201, #74, #243, #196, #646 ),
 .UNSPECIFIED., .F., .F.,
 ( 4, 2, 4 ),
 ( 0.004580851402316614418, 0.005385276339780759557, 0.006189701277244904695 ),
 .UNSPECIFIED. ) ;
#14 = CIRCLE ( 'NONE', #309, 2.750000000000002665 ) ;
#15 = FACE_OUTER_BOUND ( 'NONE', #395, .T. ) ;
#16 =( GEOMETRIC_REPRESENTATION_CONTEXT ( 3 ) GLOBAL_UNCERTAINTY_ASSIGNED_CONTEXT ( ( #217 ) ) GLOBAL_UNIT_ASSIGNED_CONTEXT ( ( #423, #149, #413 ) ) REPRESENTATION_CONTEXT ( 'NONE', 'WORKASPACE' ) );
#17 = EDGE_LOOP ( 'NONE', ( #164, #640, #81, #300, #20, #540 ) ) ;
#18 = CARTESIAN_POINT ( 'NONE',  ( -4.157796499959112230E-17, 3.175426480542919982, 0.2456200930618471778 ) ) ;
#19 = CARTESIAN_POINT ( 'NONE',  ( 0.000000000000000000, 0.000000000000000000, 2.399999999999999911 ) ) ;
#20 = ORIENTED_EDGE ( 'NONE', *, *, #498, .F. ) ;
#21 = CARTESIAN_POINT ( 'NONE',  ( 1.608385152161837750, 2.246824879981713874, -1.850555231513831877E-15 ) ) ;
#22 = DIRECTION ( 'NONE',  ( 1.000000000000000000, 0.000000000000000000, 0.000000000000000000 ) ) ;
#23 = ADVANCED_FACE ( 'NONE', ( #15 ), #388, .T. ) ;
#24 = CARTESIAN_POINT ( 'NONE',  ( -2.749999999999984013, -1.064861299511078219, 0.1085371485723814061 ) ) ;
#25 = ORIENTED_EDGE ( 'NONE', *, *, #444, .T. ) ;
#26 = FACE_OUTER_BOUND ( 'NONE', #483, .T. ) ;
#27 = CIRCLE ( 'NONE', #366, 2.750000000000002665 ) ;
#28 = CARTESIAN_POINT ( 'NONE',  ( -2.749999999999995559, 1.587713240271480863, 0.2456200930618604727 ) ) ;
#29 = CARTESIAN_POINT ( 'NONE',  ( 0.9085346626517047941, -2.650883748492886216, 0.02351960456806496264 ) ) ;
#30 = ORIENTED_EDGE ( 'NONE', *, *, #675, .F. ) ;
#31 = FACE_OUTER_BOUND ( 'NONE', #96, .T. ) ;
#32 = DIRECTION ( 'NONE',  ( 0.000000000000000000, 0.000000000000000000, -1.000000000000000000 ) ) ;
#33 = EDGE_LOOP ( 'NONE', ( #356, #653, #345, #372, #50, #68 ) ) ;
#34 = CARTESIAN_POINT ( 'NONE',  ( -2.749999999999995559, 1.587713240271480863, 2.154379906938139300 ) ) ;
#35 = CARTESIAN_POINT ( 'NONE',  ( 0.000000000000000000, 0.000000000000000000, 2.399999999999999911 ) ) ;
#36 = VERTEX_POINT ( 'NONE', #461 ) ;
#37 = EDGE_CURVE ( 'NONE', #430, #621, #332, .T. ) ;
#38 = B_SPLINE_CURVE_WITH_KNOTS ( 'NONE', 3,
 ( #707, #83, #154, #481, #202, #306 ),
 .UNSPECIFIED., .F., .F.,
 ( 4, 2, 4 ),
 ( 0.004580851406117032731, 0.005385276343559264843, 0.006189701281001496955 ),
 .UNSPECIFIED. ) ;
#39 = CARTESIAN_POINT ( 'NONE',  ( 0.000000000000000000, 0.000000000000000000, 2.399999999999999911 ) ) ;
#40 = CARTESIAN_POINT ( 'NONE',  ( -2.749999999999981792, -1.587713240271501736, 2.399999999999999911 ) ) ;
#41 = VERTEX_POINT ( 'NONE', #674 ) ;
#42 = EDGE_CURVE ( 'NONE', #466, #376, #623, .T. ) ;
#43 = VECTOR ( 'NONE', #132, 1000.000000000000000 ) ;
#44 = CIRCLE ( 'NONE', #429, 1.229375000000001217 ) ;
#45 = CARTESIAN_POINT ( 'NONE',  ( 2.750000000000023093, -1.587713240271584780, 0.2456200930617989941 ) ) ;
#46 = ORIENTED_EDGE ( 'NONE', *, *, #189, .T. ) ;
#47 = CARTESIAN_POINT ( 'NONE',  ( -0.4506121144344693019, -2.915265454974099057, 2.290910569535889341 ) ) ;
#48 = CARTESIAN_POINT ( 'NONE',  ( 0.4498622899576235623, -2.915698366337657443, 2.304334003592002578 ) ) ;
#49 = COLOUR_RGB ( '',0.7529411764705882248, 0.7529411764705882248, 0.7529411764705882248 ) ;
#50 = ORIENTED_EDGE ( 'NONE', *, *, #244, .T. ) ;
#51 =( NAMED_UNIT ( * ) PLANE_ANGLE_UNIT ( ) SI_UNIT ( $, .RADIAN. ) );
#52 = EDGE_CURVE ( 'NONE', #304, #144, #721, .T. ) ;
#53 = AXIS2_PLACEMENT_3D ( 'NONE', #569, #633, #450 ) ;
#54 = ADVANCED_FACE ( 'NONE', ( #234 ), #170, .F. ) ;
#55 = CARTESIAN_POINT ( 'NONE',  ( 2.300137710042361228, -1.847441354476790698, 0.09566599640799335058 ) ) ;
#56 = EDGE_CURVE ( 'NONE', #144, #704, #421, .T. ) ;
#57 = FACE_OUTER_BOUND ( 'NONE', #700, .T. ) ;
#58 = CARTESIAN_POINT ( 'NONE',  ( 0.9085346626516827007, 2.650883748492882219, 2.376480395431941783 ) ) ;
#59 = VERTEX_POINT ( 'NONE', #572 ) ;
#60 = ADVANCED_FACE ( 'NONE', ( #336 ), #431, .T. ) ;
#61 = FACE_OUTER_BOUND ( 'NONE', #264, .T. ) ;
#62 = VERTEX_POINT ( 'NONE', #396 ) ;
#63 = FACE_OUTER_BOUND ( 'NONE', #33, .T. ) ;
#64 = DIRECTION ( 'NONE',  ( 0.000000000000000000, 0.000000000000000000, 1.000000000000000000 ) ) ;
#65 = ORIENTED_EDGE ( 'NONE', *, *, #137, .T. ) ;
#66 = DIRECTION ( 'NONE',  ( 0.000000000000000000, 0.000000000000000000, 1.000000000000000000 ) ) ;
#67 = CARTESIAN_POINT ( 'NONE',  ( -2.749999999999990230, 0.5411524347875370511, 2.376217812181546485 ) ) ;
#68 = ORIENTED_EDGE ( 'NONE', *, *, #327, .F. ) ;
#69 = DIRECTION ( 'NONE',  ( -1.000000000000000000, 0.000000000000000000, 0.000000000000000000 ) ) ;
#70 = CARTESIAN_POINT ( 'NONE',  ( 0.000000000000000000, 0.000000000000000000, 2.399999999999999911 ) ) ;
#71 = ADVANCED_FACE ( 'NONE', ( #130 ), #112, .T. ) ;
#72 = AXIS2_PLACEMENT_3D ( 'NONE', #315, #95, #547 ) ;
#73 = ORIENTED_EDGE ( 'NONE', *, *, #491, .F. ) ;
#74 = CARTESIAN_POINT ( 'NONE',  ( -2.749999999999991118, 0.5411524347875372731, 0.02378218781845339511 ) ) ;
#75 = DIRECTION ( 'NONE',  ( -1.000000000000000000, 0.000000000000000000, 0.000000000000000000 ) ) ;
#76 = EDGE_LOOP ( 'NONE', ( #186, #424, #475, #439, #555, #587 ) ) ;
#77 = DIRECTION ( 'NONE',  ( -0.000000000000000000, -0.000000000000000000, -1.000000000000000000 ) ) ;
#78 = EDGE_CURVE ( 'NONE', #514, #466, #451, .T. ) ;
#79 = CARTESIAN_POINT ( 'NONE',  ( -2.749999999999981792, -1.587713240271501736, 0.2456200930618595291 ) ) ;
#80 = CARTESIAN_POINT ( 'NONE',  ( 2.750000000000024425, -1.329082474001308745, 2.229040178201532996 ) ) ;
#81 = ORIENTED_EDGE ( 'NONE', *, *, #513, .F. ) ;
#82 = FILL_AREA_STYLE_COLOUR ( '', #296 ) ;
#83 = CARTESIAN_POINT ( 'NONE',  ( 2.750000000000027978, 0.2689487648427820177, 2.399999999999985256 ) ) ;
#84 = ORIENTED_EDGE ( 'NONE', *, *, #479, .T. ) ;
#85 = FACE_OUTER_BOUND ( 'NONE', #352, .T. ) ;
#86 = PRODUCT_DEFINITION_CONTEXT ( 'detailed design', #689, 'design' ) ;
#87 = AXIS2_PLACEMENT_3D ( 'NONE', #473, #302, #412 ) ;
#88 = CARTESIAN_POINT ( 'NONE',  ( 1.374999999999969358, 2.381569860407227068, 2.399999999999999911 ) ) ;
#89 = DIRECTION ( 'NONE',  ( -0.000000000000000000, -0.000000000000000000, -1.000000000000000000 ) ) ;
#90 = ORIENTED_EDGE ( 'NONE', *, *, #263, .F. ) ;
#91 = SURFACE_STYLE_FILL_AREA ( #599 ) ;
#92 = LINE ( 'NONE', #524, #460 ) ;
#93 =( GEOMETRIC_REPRESENTATION_CONTEXT ( 3 ) GLOBAL_UNCERTAINTY_ASSIGNED_CONTEXT ( ( #492 ) ) GLOBAL_UNIT_ASSIGNED_CONTEXT ( ( #502, #663, #161 ) ) REPRESENTATION_CONTEXT ( 'NONE', 'WORKASPACE' ) );
#94 = EDGE_CURVE ( 'NONE', #36, #312, #197, .T. ) ;
#95 = DIRECTION ( 'NONE',  ( 0.000000000000000000, 0.000000000000000000, 1.000000000000000000 ) ) ;
#96 = EDGE_LOOP ( 'NONE', ( #676, #181, #566, #287, #478, #283 ) ) ;
#97 = CARTESIAN_POINT ( 'NONE',  ( 2.750000000000025757, -0.5353163539958726291, 0.02312817098104881161 ) ) ;
#98 = VERTEX_POINT ( 'NONE', #443 ) ;
#99 = ADVANCED_FACE ( 'NONE', ( #293 ), #519, .F. ) ;
#100 = B_SPLINE_CURVE_WITH_KNOTS ( 'NONE', 3,
 ( #134, #529, #24, #199, #249, #470 ),
 .UNSPECIFIED., .F., .F.,
 ( 4, 2, 4 ),
 ( 0.002973311420277513929, 0.003777081411297063956, 0.004580851402316614418 ),
 .UNSPECIFIED. ) ;
#101 = SURFACE_STYLE_USAGE ( .BOTH. , #107 ) ;
#102 = ORIENTED_EDGE ( 'NONE', *, *, #634, .T. ) ;
#103 = CARTESIAN_POINT ( 'NONE',  ( 6.968979911058673333E-15, -3.175426480542947516, 2.154379906938136635 ) ) ;
#104 = EDGE_CURVE ( 'NONE', #457, #414, #493, .T. ) ;
#105 = CARTESIAN_POINT ( 'NONE',  ( -1.229375000000001217, 0.000000000000000000, 2.399999999999999911 ) ) ;
#106 = B_SPLINE_CURVE_WITH_KNOTS ( 'NONE', 3,
 ( #638, #643, #139, #359 ),
 .UNSPECIFIED., .F., .F.,
 ( 4, 4 ),
 ( 2.380742992387570324E-07, 0.001606744326298683396 ),
 .UNSPECIFIED. ) ;
#107 = SURFACE_SIDE_STYLE ('',( #270 ) ) ;
#108 = ORIENTED_EDGE ( 'NONE', *, *, #348, .F. ) ;
#109 = CARTESIAN_POINT ( 'NONE',  ( 1.843520544858939791, -2.111069397712041606, 3.430443927709066943E-15 ) ) ;
#110 = B_SPLINE_CURVE_WITH_KNOTS ( 'NONE', 3,
 ( #178, #21, #705, #295, #138, #310 ),
 .UNSPECIFIED., .F., .F.,
 ( 4, 2, 4 ),
 ( 0.001606744326298638077, 0.002406996759593228816, 0.003207249192887819556 ),
 .UNSPECIFIED. ) ;
#111 = VECTOR ( 'NONE', #567, 1000.000000000000000 ) ;
#112 = CONICAL_SURFACE ( 'NONE', #180, 2.750000000000002665, 1.047197551196600074 ) ;
#113 = CARTESIAN_POINT ( 'NONE',  ( 2.525629923208345673, -1.717253364505244573, 2.229169932536028131 ) ) ;
#114 = ADVANCED_FACE ( 'Nface1', ( #188, #600 ), #314, .T. ) ;
#115 = CARTESIAN_POINT ( 'NONE',  ( -4.157796499959112230E-17, 3.175426480542919982, 0.2456200930618471778 ) ) ;
#116 = CARTESIAN_POINT ( 'NONE',  ( -2.750000000000002665, -1.201851678989713183E-14, 2.399999999999999911 ) ) ;
#117 = DIRECTION ( 'NONE',  ( -2.185184870890404710E-15, -1.000000000000000000, 0.000000000000000000 ) ) ;
#118 = CARTESIAN_POINT ( 'NONE',  ( -2.749999999999984013, -1.064861299511078663, 2.291462851427618297 ) ) ;
#119 = AXIS2_PLACEMENT_3D ( 'NONE', #35, #702, #311 ) ;
#120 = ORIENTED_EDGE ( 'NONE', *, *, #286, .T. ) ;
#121 = DIRECTION ( 'NONE',  ( 1.000000000000000000, 0.000000000000000000, 0.000000000000000000 ) ) ;
#122 = CARTESIAN_POINT ( 'NONE',  ( -2.749999999999988898, 0.2689487648616765147, 2.400000000000007461 ) ) ;
#123 = ORIENTED_EDGE ( 'NONE', *, *, #192, .T. ) ;
#124 = CARTESIAN_POINT ( 'NONE',  ( 0.000000000000000000, 0.000000000000000000, 2.399999999999999911 ) ) ;
#125 = CARTESIAN_POINT ( 'NONE',  ( 0.4506121144344664708, 2.915265454974082626, 2.290910569535899999 ) ) ;
#126 = ORIENTED_EDGE ( 'NONE', *, *, #367, .T. ) ;
#127 = PRESENTATION_LAYER_ASSIGNMENT (  '', '', ( #158 ) ) ;
#128 = CYLINDRICAL_SURFACE ( 'NONE', #209, 1.229375000000001217 ) ;
#129 = EDGE_CURVE ( 'NONE', #430, #98, #38, .T. ) ;
#130 = FACE_OUTER_BOUND ( 'NONE', #150, .T. ) ;
#131 = ORIENTED_EDGE ( 'NONE', *, *, #78, .T. ) ;
#132 = DIRECTION ( 'NONE',  ( -0.000000000000000000, -0.000000000000000000, -1.000000000000000000 ) ) ;
#133 = DIRECTION ( 'NONE',  ( 0.000000000000000000, 0.000000000000000000, 1.000000000000000000 ) ) ;
#134 = CARTESIAN_POINT ( 'NONE',  ( -2.749999999999981792, -1.587713240271501736, 0.2456200930618595291 ) ) ;
#135 = VECTOR ( 'NONE', #358, 1000.000000000000000 ) ;
#136 = ORIENTED_EDGE ( 'NONE', *, *, #469, .F. ) ;
#137 = EDGE_CURVE ( 'NONE', #466, #704, #657, .T. ) ;
#138 = CARTESIAN_POINT ( 'NONE',  ( 2.525629923208394523, 1.717253364505224811, 0.1708300674639876282 ) ) ;
#139 = CARTESIAN_POINT ( 'NONE',  ( -0.9064794551410435552, -2.652070323102402760, 2.338385717951149652E-15 ) ) ;
#140 = DIRECTION ( 'NONE',  ( 0.000000000000000000, 0.000000000000000000, -1.000000000000000000 ) ) ;
#141 = ORIENTED_EDGE ( 'NONE', *, *, #679, .T. ) ;
#142 = CARTESIAN_POINT ( 'NONE',  ( -1.374999999999993117, -2.381569860407221739, 0.000000000000000000 ) ) ;
#143 = CARTESIAN_POINT ( 'NONE',  ( 6.968979911058673333E-15, -3.175426480542947516, 2.154379906938136635 ) ) ;
#144 = VERTEX_POINT ( 'NONE', #589 ) ;
#145 = B_SPLINE_CURVE_WITH_KNOTS ( 'NONE', 3,
 ( #427, #695, #261, #88 ),
 .UNSPECIFIED., .F., .F.,
 ( 4, 4 ),
 ( 2.380742992387856462E-07, 0.001606744326298747798 ),
 .UNSPECIFIED. ) ;
#146 = DIRECTION ( 'NONE',  ( 0.000000000000000000, 0.000000000000000000, -1.000000000000000000 ) ) ;
#147 = CIRCLE ( 'NONE', #711, 2.750000000000002665 ) ;
#148 = SURFACE_STYLE_FILL_AREA ( #692 ) ;
#149 =( NAMED_UNIT ( * ) PLANE_ANGLE_UNIT ( ) SI_UNIT ( $, .RADIAN. ) );
#150 = EDGE_LOOP ( 'NONE', ( #517, #131, #65 ) ) ;
#151 = AXIS2_PLACEMENT_3D ( 'NONE', #476, #698, #260 ) ;
#152 = SURFACE_STYLE_USAGE ( .BOTH. , #317 ) ;
#153 = CIRCLE ( 'NONE', #119, 2.750000000000002665 ) ;
#154 = CARTESIAN_POINT ( 'NONE',  ( 2.750000000000028866, 0.5411524347732046269, 2.376217812183541778 ) ) ;
#155 = CARTESIAN_POINT ( 'NONE',  ( 0.4506121144344809037, -2.915265454974098169, 0.1090894304641104595 ) ) ;
#156 = ORIENTED_EDGE ( 'NONE', *, *, #52, .F. ) ;
#157 = CARTESIAN_POINT ( 'NONE',  ( 1.374999999999969358, 2.381569860407227068, 2.399999999999999911 ) ) ;
#158 = STYLED_ITEM ( 'NONE', ( #614 ), #532 ) ;
#159 = EDGE_LOOP ( 'NONE', ( #693, #173, #471 ) ) ;
#160 = DIRECTION ( 'NONE',  ( -1.000000000000000000, 0.000000000000000000, 0.000000000000000000 ) ) ;
#161 =( NAMED_UNIT ( * ) SI_UNIT ( $, .STERADIAN. ) SOLID_ANGLE_UNIT ( ) );
#162 = CARTESIAN_POINT ( 'NONE',  ( -2.749999999999981792, -1.587713240271501736, 2.154379906938140188 ) ) ;
#163 = CARTESIAN_POINT ( 'NONE',  ( -1.843520544858938237, -2.111069397712042051, 2.399999999999997691 ) ) ;
#164 = ORIENTED_EDGE ( 'NONE', *, *, #56, .F. ) ;
#165 = CARTESIAN_POINT ( 'NONE',  ( 0.000000000000000000, 0.000000000000000000, 2.399999999999999911 ) ) ;
#166 = APPLICATION_PROTOCOL_DEFINITION ( 'draft international standard', 'automotive_design', 1998, #689 ) ;
#167 = EDGE_CURVE ( 'NONE', #177, #62, #656, .T. ) ;
#168 = CONICAL_SURFACE ( 'NONE', #458, 2.750000000000002665, 1.047197551196600074 ) ;
#169 =( GEOMETRIC_REPRESENTATION_CONTEXT ( 3 ) GLOBAL_UNCERTAINTY_ASSIGNED_CONTEXT ( ( #583 ) ) GLOBAL_UNIT_ASSIGNED_CONTEXT ( ( #446, #392, #505 ) ) REPRESENTATION_CONTEXT ( 'NONE', 'WORKASPACE' ) );
#170 = PLANE ( 'NONE',  #53 ) ;
#171 = LINE ( 'NONE', #340, #111 ) ;
#172 = DIRECTION ( 'NONE',  ( 1.000000000000000000, 0.000000000000000000, 0.000000000000000000 ) ) ;
#173 = ORIENTED_EDGE ( 'NONE', *, *, #104, .T. ) ;
#174 = FILL_AREA_STYLE ('',( #335 ) ) ;
#175 = DIRECTION ( 'NONE',  ( 0.000000000000000000, 0.000000000000000000, -1.000000000000000000 ) ) ;
#176 =( GEOMETRIC_REPRESENTATION_CONTEXT ( 3 ) GLOBAL_UNCERTAINTY_ASSIGNED_CONTEXT ( ( #609 ) ) GLOBAL_UNIT_ASSIGNED_CONTEXT ( ( #484, #51, #501 ) ) REPRESENTATION_CONTEXT ( 'NONE', 'WORKASPACE' ) );
#177 = VERTEX_POINT ( 'NONE', #143 ) ;
#178 = CARTESIAN_POINT ( 'NONE',  ( 1.374999999999969802, 2.381569860407227512, 0.000000000000000000 ) ) ;
#179 = CARTESIAN_POINT ( 'NONE',  ( 2.750000000000027534, 0.2689487648427815181, 1.403872406779277382E-14 ) ) ;
#180 = AXIS2_PLACEMENT_3D ( 'NONE', #70, #282, #2 ) ;
#181 = ORIENTED_EDGE ( 'NONE', *, *, #167, .T. ) ;
#182 = EDGE_CURVE ( 'NONE', #98, #304, #145, .T. ) ;
#183 = CARTESIAN_POINT ( 'NONE',  ( -1.229375000000001217, 0.000000000000000000, 2.399999999999999911 ) ) ;
#184 = CARTESIAN_POINT ( 'NONE',  ( 1.141614847838116509, 2.516314840832730493, 2.400000000000001243 ) ) ;
#185 = ADVANCED_FACE ( 'NONE', ( #542 ), #723, .T. ) ;
#186 = ORIENTED_EDGE ( 'NONE', *, *, #469, .T. ) ;
#187 = PLANE ( 'NONE',  #580 ) ;
#188 = FACE_BOUND ( 'NONE', #495, .T. ) ;
#189 = EDGE_CURVE ( 'NONE', #246, #316, #92, .T. ) ;
#190 = ORIENTED_EDGE ( 'NONE', *, *, #215, .F. ) ;
#191 = CARTESIAN_POINT ( 'NONE',  ( -2.749999999999981792, -1.587713240271501736, 2.399999999999999911 ) ) ;
#192 = EDGE_CURVE ( 'NONE', #503, #246, #500, .T. ) ;
#193 = DIRECTION ( 'NONE',  ( 0.8660254037844453689, -0.4999999999999883427, 0.000000000000000000 ) ) ;
#194 = CARTESIAN_POINT ( 'NONE',  ( 2.750000000000025313, -1.064861299499560321, 2.291462851430005276 ) ) ;
#195 = EDGE_LOOP ( 'NONE', ( #607, #397, #598 ) ) ;
#196 = CARTESIAN_POINT ( 'NONE',  ( -2.749999999999994671, 1.330878690270377973, 0.1714783447716932419 ) ) ;
#197 = B_SPLINE_CURVE_WITH_KNOTS ( 'NONE', 3,
 ( #297, #289, #516, #237, #179, #228 ),
 .UNSPECIFIED., .F., .F.,
 ( 4, 2, 4 ),
 ( 0.008546303795402571818, 0.009350274713367958887, 0.01015424563133334596 ),
 .UNSPECIFIED. ) ;
#198 = CARTESIAN_POINT ( 'NONE',  ( -1.843520544858934906, 2.111069397712027840, -6.599388659833460005E-15 ) ) ;
#199 = CARTESIAN_POINT ( 'NONE',  ( -2.749999999999985345, -0.5353163540067306103, 0.02312817098222708784 ) ) ;
#200 = EDGE_LOOP ( 'NONE', ( #680, #5, #232 ) ) ;
#201 = CARTESIAN_POINT ( 'NONE',  ( -2.749999999999990230, 0.2689487648616768478, -8.019707944603712455E-15 ) ) ;
#202 = CARTESIAN_POINT ( 'NONE',  ( 2.750000000000029754, 1.330878690273259890, 2.228521655227456932 ) ) ;
#203 = CLOSED_SHELL ( 'NONE', ( #269, #99, #54, #579, #706, #556, #391, #463, #114, #637, #23, #712, #185, #415, #231, #586, #504, #60, #12, #357, #553, #71 ) ) ;
#204 = ORIENTED_EDGE ( 'NONE', *, *, #42, .F. ) ;
#205 = DIRECTION ( 'NONE',  ( 1.000000000000000000, 0.000000000000000000, 0.000000000000000000 ) ) ;
#206 = CARTESIAN_POINT ( 'NONE',  ( 0.000000000000000000, 0.000000000000000000, 2.399999999999999911 ) ) ;
#207 = CARTESIAN_POINT ( 'NONE',  ( 2.750000000000026645, -6.009258394948671624E-15, 2.399999999999999911 ) ) ;
#208 = ORIENTED_EDGE ( 'NONE', *, *, #605, .F. ) ;
#209 = AXIS2_PLACEMENT_3D ( 'NONE', #585, #89, #254 ) ;
#210 = COLOUR_RGB ( '',0.7529411764705882248, 0.7529411764705882248, 0.7529411764705882248 ) ;
#211 = AXIS2_PLACEMENT_3D ( 'NONE', #19, #133, #22 ) ;
#212 = DIRECTION ( 'NONE',  ( 0.000000000000000000, 0.000000000000000000, -1.000000000000000000 ) ) ;
#213 = ORIENTED_EDGE ( 'NONE', *, *, #367, .F. ) ;
#214 = DIRECTION ( 'NONE',  ( 0.000000000000000000, 0.000000000000000000, -1.000000000000000000 ) ) ;
#215 = EDGE_CURVE ( 'NONE', #62, #625, #106, .T. ) ;
#216 = ORIENTED_EDGE ( 'NONE', *, *, #491, .T. ) ;
#217 = UNCERTAINTY_MEASURE_WITH_UNIT (LENGTH_MEASURE( 1.000000000000000082E-05 ), #423, 'distance_accuracy_value', 'NONE');
#218 = DIRECTION ( 'NONE',  ( -1.000000000000000000, 0.000000000000000000, 0.000000000000000000 ) ) ;
#219 = CONICAL_SURFACE ( 'NONE', #718, 2.750000000000002665, 1.047197551196600074 ) ;
#220 = B_SPLINE_CURVE_WITH_KNOTS ( 'NONE', 3,
 ( #162, #557, #163, #272 ),
 .UNSPECIFIED., .F., .F.,
 ( 4, 4 ),
 ( 2.380742992387856462E-07, 0.001606744326298670169 ),
 .UNSPECIFIED. ) ;
#221 = VERTEX_POINT ( 'NONE', #79 ) ;
#222 = CARTESIAN_POINT ( 'NONE',  ( -0.9085346626516952462, -2.650883748492887992, 2.376480395431935566 ) ) ;
#223 = CARTESIAN_POINT ( 'NONE',  ( 2.750000000000026645, -6.009258394948671624E-15, 0.000000000000000000 ) ) ;
#224 = DIRECTION ( 'NONE',  ( 0.000000000000000000, 0.000000000000000000, 1.000000000000000000 ) ) ;
#225 = AXIS2_PLACEMENT_3D ( 'NONE', #724, #224, #382 ) ;
#226 = CARTESIAN_POINT ( 'NONE',  ( 1.841465337348288100, -2.112255972321556818, 2.376480395431936010 ) ) ;
#227 = CARTESIAN_POINT ( 'NONE',  ( -2.750000000000002665, -1.201851678989713183E-14, 2.399999999999999911 ) ) ;
#228 = CARTESIAN_POINT ( 'NONE',  ( 2.750000000000026645, -6.009258394948671624E-15, 0.000000000000000000 ) ) ;
#229 = CARTESIAN_POINT ( 'NONE',  ( 0.4498622899576086853, 2.915698366337641012, 0.09566599640798716109 ) ) ;
#230 = CARTESIAN_POINT ( 'NONE',  ( -2.749999999999994671, 1.330878690270377751, 2.228521655228306475 ) ) ;
#231 = ADVANCED_FACE ( 'NONE', ( #253 ), #560, .T. ) ;
#232 = ORIENTED_EDGE ( 'NONE', *, *, #37, .T. ) ;
#233 = DIRECTION ( 'NONE',  ( 0.000000000000000000, 0.000000000000000000, -1.000000000000000000 ) ) ;
#234 = FACE_OUTER_BOUND ( 'NONE', #17, .T. ) ;
#235 = VERTEX_POINT ( 'NONE', #647 ) ;
#236 = CARTESIAN_POINT ( 'NONE',  ( 0.000000000000000000, 0.000000000000000000, 2.399999999999999911 ) ) ;
#237 = CARTESIAN_POINT ( 'NONE',  ( 2.750000000000027978, 0.5411524347732042939, 0.02378218781645848393 ) ) ;
#238 = AXIS2_PLACEMENT_3D ( 'NONE', #608, #613, #379 ) ;
#239 = CARTESIAN_POINT ( 'NONE',  ( 2.750000000000023093, -1.587713240271584780, 0.2456200930617989941 ) ) ;
#240 = PRESENTATION_LAYER_ASSIGNMENT (  '', '', ( #671 ) ) ;
#241 = CARTESIAN_POINT ( 'NONE',  ( 0.000000000000000000, 0.000000000000000000, 2.399999999999999911 ) ) ;
#242 = AXIS2_PLACEMENT_3D ( 'NONE', #728, #628, #511 ) ;
#243 = CARTESIAN_POINT ( 'NONE',  ( -2.749999999999993339, 1.070839432838519567, 0.1097950981969674639 ) ) ;
#244 = EDGE_CURVE ( 'NONE', #430, #304, #153, .T. ) ;
#245 = CARTESIAN_POINT ( 'NONE',  ( 0.000000000000000000, 0.000000000000000000, 0.000000000000000000 ) ) ;
#246 = VERTEX_POINT ( 'NONE', #537 ) ;
#247 = CARTESIAN_POINT ( 'NONE',  ( -2.299387885565508327, -1.847874265840347530, 0.1090894304641079060 ) ) ;
#248 = DIRECTION ( 'NONE',  ( 0.000000000000000000, 0.000000000000000000, -1.000000000000000000 ) ) ;
#249 = CARTESIAN_POINT ( 'NONE',  ( -2.749999999999987566, -0.2687297922402410166, -8.006155417447646805E-15 ) ) ;
#250 = ORIENTED_EDGE ( 'NONE', *, *, #78, .F. ) ;
#251 = B_SPLINE_CURVE_WITH_KNOTS ( 'NONE', 3,
 ( #103, #48, #497, #381 ),
 .UNSPECIFIED., .F., .F.,
 ( 4, 4 ),
 ( 2.380742992388539118E-07, 0.001606744326298680360 ),
 .UNSPECIFIED. ) ;
#252 = CARTESIAN_POINT ( 'NONE',  ( -0.9085346626516883628, 2.650883748492871117, 0.02351960456805400612 ) ) ;
#253 = FACE_OUTER_BOUND ( 'NONE', #159, .T. ) ;
#254 = DIRECTION ( 'NONE',  ( -1.000000000000000000, 0.000000000000000000, 0.000000000000000000 ) ) ;
#255 = ORIENTED_EDGE ( 'NONE', *, *, #661, .T. ) ;
#256 = PRODUCT_DEFINITION_SHAPE ( 'NONE', 'NONE',  #626 ) ;
#257 = CARTESIAN_POINT ( 'NONE',  ( 6.938893903907229955E-15, -3.175426480542947516, 2.399999999999999911 ) ) ;
#258 = FACE_OUTER_BOUND ( 'NONE', #659, .T. ) ;
#259 = ORIENTED_EDGE ( 'NONE', *, *, #339, .T. ) ;
#260 = DIRECTION ( 'NONE',  ( -4.370369741780771554E-15, 1.000000000000000000, 0.000000000000000000 ) ) ;
#261 = CARTESIAN_POINT ( 'NONE',  ( 1.843520544858940902, 2.111069397712038054, 2.400000000000001688 ) ) ;
#262 = DIRECTION ( 'NONE',  ( -1.000000000000000000, 0.000000000000000000, 0.000000000000000000 ) ) ;
#263 = EDGE_CURVE ( 'NONE', #235, #625, #27, .T. ) ;
#264 = EDGE_LOOP ( 'NONE', ( #448, #697, #684 ) ) ;
#265 = DIRECTION ( 'NONE',  ( -1.000000000000000000, 0.000000000000000000, 0.000000000000000000 ) ) ;
#266 = ORIENTED_EDGE ( 'NONE', *, *, #385, .T. ) ;
#267 = AXIS2_PLACEMENT_3D ( 'NONE', #279, #233, #442 ) ;
#268 = LINE ( 'NONE', #105, #275 ) ;
#269 = ADVANCED_FACE ( 'Nface2', ( #258 ), #465, .F. ) ;
#270 = SURFACE_STYLE_FILL_AREA ( #438 ) ;
#271 = EDGE_LOOP ( 'NONE', ( #558, #290, #320 ) ) ;
#272 = CARTESIAN_POINT ( 'NONE',  ( -1.374999999999989564, -2.381569860407215078, 2.399999999999999911 ) ) ;
#273 = ORIENTED_EDGE ( 'NONE', *, *, #94, .F. ) ;
#274 = CARTESIAN_POINT ( 'NONE',  ( 0.000000000000000000, 0.000000000000000000, 0.000000000000000000 ) ) ;
#275 = VECTOR ( 'NONE', #435, 1000.000000000000000 ) ;
#276 = AXIS2_PLACEMENT_3D ( 'NONE', #592, #248, #477 ) ;
#277 = DIRECTION ( 'NONE',  ( -0.000000000000000000, -0.000000000000000000, -1.000000000000000000 ) ) ;
#278 = ORIENTED_EDGE ( 'NONE', *, *, #189, .F. ) ;
#279 = CARTESIAN_POINT ( 'NONE',  ( 0.000000000000000000, 0.000000000000000000, 0.000000000000000000 ) ) ;
#280 = AXIS2_PLACEMENT_3D ( 'NONE', #40, #319, #482 ) ;
#281 = FACE_BOUND ( 'NONE', #294, .T. ) ;
#282 = DIRECTION ( 'NONE',  ( 0.000000000000000000, 0.000000000000000000, -1.000000000000000000 ) ) ;
#283 = ORIENTED_EDGE ( 'NONE', *, *, #3, .F. ) ;
#284 = DIRECTION ( 'NONE',  ( 0.000000000000000000, 0.000000000000000000, -1.000000000000000000 ) ) ;
#285 = DIRECTION ( 'NONE',  ( 0.000000000000000000, 0.000000000000000000, -1.000000000000000000 ) ) ;
#286 = EDGE_CURVE ( 'NONE', #462, #602, #720, .T. ) ;
#287 = ORIENTED_EDGE ( 'NONE', *, *, #444, .F. ) ;
#288 = DIRECTION ( 'NONE',  ( 1.000000000000000000, 0.000000000000000000, 0.000000000000000000 ) ) ;
#289 = CARTESIAN_POINT ( 'NONE',  ( 2.750000000000028866, 1.330878690273260334, 0.1714783447725434784 ) ) ;
#290 = ORIENTED_EDGE ( 'NONE', *, *, #56, .T. ) ;
#291 = PRESENTATION_STYLE_ASSIGNMENT (( #518 ) ) ;
#292 = AXIS2_PLACEMENT_3D ( 'NONE', #563, #456, #394 ) ;
#293 = FACE_OUTER_BOUND ( 'NONE', #406, .T. ) ;
#294 = EDGE_LOOP ( 'NONE', ( #709, #73 ) ) ;
#295 = CARTESIAN_POINT ( 'NONE',  ( 2.299387885565534972, 1.847874265840335095, 0.1090894304641145396 ) ) ;
#296 = COLOUR_RGB ( '',0.7529411764705882248, 0.7529411764705882248, 0.7529411764705882248 ) ;
#297 = CARTESIAN_POINT ( 'NONE',  ( 2.750000000000030198, 1.587713240271480863, 0.2456200930618777645 ) ) ;
#298 = CONICAL_SURFACE ( 'NONE', #387, 2.750000000000002665, 1.047197551196600074 ) ;
#299 = AXIS2_PLACEMENT_3D ( 'NONE', #670, #408, #193 ) ;
#300 = ORIENTED_EDGE ( 'NONE', *, *, #104, .F. ) ;
#301 = CARTESIAN_POINT ( 'NONE',  ( -1.374999999999993117, -2.381569860407221739, 0.000000000000000000 ) ) ;
#302 = DIRECTION ( 'NONE',  ( 0.000000000000000000, 0.000000000000000000, 1.000000000000000000 ) ) ;
#303 = CARTESIAN_POINT ( 'NONE',  ( -1.374999999999982458, 2.381569860407219075, 2.399999999999999911 ) ) ;
#304 = VERTEX_POINT ( 'NONE', #157 ) ;
#305 = CARTESIAN_POINT ( 'NONE',  ( -0.2243700767916233796, 3.045886356309181142, 0.1708300674639641747 ) ) ;
#306 = CARTESIAN_POINT ( 'NONE',  ( 2.750000000000030198, 1.587713240271480863, 2.154379906938121980 ) ) ;
#307 = EDGE_CURVE ( 'NONE', #503, #11, #268, .T. ) ;
#308 = EDGE_LOOP ( 'NONE', ( #410, #102, #489, #190, #645, #108 ) ) ;
#309 = AXIS2_PLACEMENT_3D ( 'NONE', #549, #212, #218 ) ;
#310 = CARTESIAN_POINT ( 'NONE',  ( 2.750000000000030198, 1.587713240271480863, 0.2456200930618777645 ) ) ;
#311 = DIRECTION ( 'NONE',  ( 1.000000000000000000, 0.000000000000000000, 0.000000000000000000 ) ) ;
#312 = VERTEX_POINT ( 'NONE', #223 ) ;
#313 = LINE ( 'NONE', #595, #135 ) ;
#314 = PLANE ( 'NONE',  #276 ) ;
#315 = CARTESIAN_POINT ( 'NONE',  ( 0.000000000000000000, 0.000000000000000000, 0.000000000000000000 ) ) ;
#316 = VERTEX_POINT ( 'NONE', #380 ) ;
#317 = SURFACE_SIDE_STYLE ('',( #91 ) ) ;
#318 = CARTESIAN_POINT ( 'NONE',  ( -1.141614847838134494, -2.516314840832730049, 2.399999999999997247 ) ) ;
#319 = DIRECTION ( 'NONE',  ( 0.4999999999999957812, 0.8660254037844411501, -0.000000000000000000 ) ) ;
#320 = ORIENTED_EDGE ( 'NONE', *, *, #327, .T. ) ;
#321 = EDGE_CURVE ( 'NONE', #594, #414, #681, .T. ) ;
#322 = ORIENTED_EDGE ( 'NONE', *, *, #498, .T. ) ;
#323 = AXIS2_PLACEMENT_3D ( 'NONE', #449, #561, #510 ) ;
#324 = B_SPLINE_CURVE_WITH_KNOTS ( 'NONE', 3,
 ( #383, #499, #226, #441, #113, #668 ),
 .UNSPECIFIED., .F., .F.,
 ( 4, 2, 4 ),
 ( 0.001606744326298680360, 0.002406996759593219709, 0.003207249192887758407 ),
 .UNSPECIFIED. ) ;
#325 = DIRECTION ( 'NONE',  ( -0.000000000000000000, -0.000000000000000000, -1.000000000000000000 ) ) ;
#326 = APPLICATION_PROTOCOL_DEFINITION ( 'draft international standard', 'automotive_design', 1998, #554 ) ;
#327 = EDGE_CURVE ( 'NONE', #704, #304, #455, .T. ) ;
#328 = ORIENTED_EDGE ( 'NONE', *, *, #384, .F. ) ;
#329 = DIRECTION ( 'NONE',  ( -1.000000000000000000, 0.000000000000000000, 0.000000000000000000 ) ) ;
#330 = VECTOR ( 'NONE', #277, 1000.000000000000000 ) ;
#331 = AXIS2_PLACEMENT_3D ( 'NONE', #124, #66, #288 ) ;
#332 = CIRCLE ( 'NONE', #242, 2.750000000000002665 ) ;
#333 = SURFACE_SIDE_STYLE ('',( #402 ) ) ;
#334 = SHAPE_DEFINITION_REPRESENTATION ( #256, #532 ) ;
#335 = FILL_AREA_STYLE_COLOUR ( '', #210 ) ;
#336 = FACE_OUTER_BOUND ( 'NONE', #520, .T. ) ;
#337 =( GEOMETRIC_REPRESENTATION_CONTEXT ( 3 ) GLOBAL_UNCERTAINTY_ASSIGNED_CONTEXT ( ( #631 ) ) GLOBAL_UNIT_ASSIGNED_CONTEXT ( ( #360, #593, #474 ) ) REPRESENTATION_CONTEXT ( 'NONE', 'WORKASPACE' ) );
#338 = ORIENTED_EDGE ( 'NONE', *, *, #453, .F. ) ;
#339 = EDGE_CURVE ( 'NONE', #621, #59, #14, .T. ) ;
#340 = CARTESIAN_POINT ( 'NONE',  ( -2.749999999999995559, 1.587713240271480863, 2.399999999999999911 ) ) ;
#341 = CARTESIAN_POINT ( 'NONE',  ( -2.749999999999982681, -1.329082474007968084, 2.229040178199631406 ) ) ;
#342 = ORIENTED_EDGE ( 'NONE', *, *, #307, .T. ) ;
#343 = CARTESIAN_POINT ( 'NONE',  ( 2.750000000000023093, -1.587713240271473758, 2.399999999999999911 ) ) ;
#344 = CARTESIAN_POINT ( 'NONE',  ( -2.750000000000002665, -1.201851678989713183E-14, 2.399999999999999911 ) ) ;
#345 = ORIENTED_EDGE ( 'NONE', *, *, #339, .F. ) ;
#346 = CARTESIAN_POINT ( 'NONE',  ( -2.749999999999995559, 1.587713240271480863, 0.2456200930618604727 ) ) ;
#347 = CARTESIAN_POINT ( 'NONE',  ( -1.374999999999982458, 2.381569860407219075, 2.399999999999999911 ) ) ;
#348 = EDGE_CURVE ( 'NONE', #59, #177, #551, .T. ) ;
#349 = ORIENTED_EDGE ( 'NONE', *, *, #513, .T. ) ;
#350 = CARTESIAN_POINT ( 'NONE',  ( -0.4506121144344695240, 2.915265454974077297, 0.1090894304640973589 ) ) ;
#351 = CARTESIAN_POINT ( 'NONE',  ( -2.749999999999995559, 1.587713240271480863, 2.154379906938139300 ) ) ;
#352 = EDGE_LOOP ( 'NONE', ( #349, #525, #328 ) ) ;
#353 = CARTESIAN_POINT ( 'NONE',  ( -2.749999999999988454, -1.149254302834634700E-14, 0.000000000000000000 ) ) ;
#354 = CARTESIAN_POINT ( 'NONE',  ( -2.300137710042372330, 1.847441354476771380, 0.09566599640799045012 ) ) ;
#355 = CARTESIAN_POINT ( 'NONE',  ( 0.000000000000000000, 0.000000000000000000, 0.000000000000000000 ) ) ;
#356 = ORIENTED_EDGE ( 'NONE', *, *, #137, .F. ) ;
#357 = ADVANCED_FACE ( 'NONE', ( #662 ), #219, .T. ) ;
#358 = DIRECTION ( 'NONE',  ( -0.000000000000000000, -0.000000000000000000, -1.000000000000000000 ) ) ;
#359 = CARTESIAN_POINT ( 'NONE',  ( -1.374999999999993117, -2.381569860407221739, 0.000000000000000000 ) ) ;
#360 =( LENGTH_UNIT ( ) NAMED_UNIT ( * ) SI_UNIT ( .MILLI., .METRE. ) );
#361 = ORIENTED_EDGE ( 'NONE', *, *, #129, .F. ) ;
#362 = FACE_OUTER_BOUND ( 'NONE', #271, .T. ) ;
#363 = DIRECTION ( 'NONE',  ( -0.000000000000000000, -0.000000000000000000, -1.000000000000000000 ) ) ;
#364 = FACE_OUTER_BOUND ( 'NONE', #308, .T. ) ;
#365 = VERTEX_POINT ( 'NONE', #610 ) ;
#366 = AXIS2_PLACEMENT_3D ( 'NONE', #245, #32, #584 ) ;
#367 = EDGE_CURVE ( 'NONE', #312, #602, #512, .T. ) ;
#368 = CARTESIAN_POINT ( 'NONE',  ( -1.374999999999978018, 2.381569860407211525, 0.000000000000000000 ) ) ;
#369 = SURFACE_SIDE_STYLE ('',( #148 ) ) ;
#370 = AXIS2_PLACEMENT_3D ( 'NONE', #642, #701, #69 ) ;
#371 = DIRECTION ( 'NONE',  ( -1.000000000000000000, 0.000000000000000000, 0.000000000000000000 ) ) ;
#372 = ORIENTED_EDGE ( 'NONE', *, *, #37, .F. ) ;
#373 = CARTESIAN_POINT ( 'NONE',  ( -1.374999999999978018, 2.381569860407211525, 0.000000000000000000 ) ) ;
#374 = CARTESIAN_POINT ( 'NONE',  ( 0.2243700767916324834, -3.045886356309206011, 0.1708300674639785244 ) ) ;
#375 = EDGE_CURVE ( 'NONE', #376, #59, #220, .T. ) ;
#376 = VERTEX_POINT ( 'NONE', #716 ) ;
#377 = B_SPLINE_CURVE_WITH_KNOTS ( 'NONE', 3,
 ( #464, #541, #591, #577, #690, #34 ),
 .UNSPECIFIED., .F., .F.,
 ( 4, 2, 4 ),
 ( 0.001606744326298653472, 0.002406996759593220576, 0.003207249192887788765 ),
 .UNSPECIFIED. ) ;
#378 = CARTESIAN_POINT ( 'NONE',  ( 2.750000000000025757, -0.2687297922328603650, 1.401543066174327740E-14 ) ) ;
#379 = DIRECTION ( 'NONE',  ( -1.000000000000000000, 0.000000000000000000, 0.000000000000000000 ) ) ;
#380 = CARTESIAN_POINT ( 'NONE',  ( 1.229375000000001217, 1.505550158701778807E-16, 0.000000000000000000 ) ) ;
#381 = CARTESIAN_POINT ( 'NONE',  ( 1.374999999999997113, -2.381569860407210637, 2.399999999999999911 ) ) ;
#382 = DIRECTION ( 'NONE',  ( 1.000000000000000000, 0.000000000000000000, 0.000000000000000000 ) ) ;
#383 = CARTESIAN_POINT ( 'NONE',  ( 1.374999999999997113, -2.381569860407210637, 2.399999999999999911 ) ) ;
#384 = EDGE_CURVE ( 'NONE', #414, #365, #147, .T. ) ;
#385 = EDGE_CURVE ( 'NONE', #177, #621, #251, .T. ) ;
#386 = CIRCLE ( 'NONE', #72, 1.229375000000001217 ) ;
#387 = AXIS2_PLACEMENT_3D ( 'NONE', #236, #284, #682 ) ;
#388 = CONICAL_SURFACE ( 'NONE', #713, 2.750000000000002665, 1.047197551196600074 ) ;
#389 = CARTESIAN_POINT ( 'NONE',  ( 2.750000000000026645, -6.009258394948671624E-15, 2.399999999999999911 ) ) ;
#390 = CARTESIAN_POINT ( 'NONE',  ( -0.4498622899576108503, 2.915698366337636571, 2.304334003592015012 ) ) ;
#391 = ADVANCED_FACE ( 'NONE', ( #606 ), #6, .F. ) ;
#392 =( NAMED_UNIT ( * ) PLANE_ANGLE_UNIT ( ) SI_UNIT ( $, .RADIAN. ) );
#393 = CARTESIAN_POINT ( 'NONE',  ( -2.749999999999987121, -0.2687297922402416273, 2.400000000000007461 ) ) ;
#394 = DIRECTION ( 'NONE',  ( -1.000000000000000000, 0.000000000000000000, 0.000000000000000000 ) ) ;
#395 = EDGE_LOOP ( 'NONE', ( #25, #715, #126 ) ) ;
#396 = CARTESIAN_POINT ( 'NONE',  ( 6.961238680711578303E-15, -3.175426480542947516, 0.2456200930618632761 ) ) ;
#397 = ORIENTED_EDGE ( 'NONE', *, *, #94, .T. ) ;
#398 = CARTESIAN_POINT ( 'NONE',  ( 0.000000000000000000, 0.000000000000000000, 0.000000000000000000 ) ) ;
#399 = AXIS2_PLACEMENT_3D ( 'NONE', #575, #175, #617 ) ;
#400 = FACE_OUTER_BOUND ( 'NONE', #200, .T. ) ;
#401 = EDGE_LOOP ( 'NONE', ( #576, #90, #141 ) ) ;
#402 = SURFACE_STYLE_FILL_AREA ( #174 ) ;
#403 = CARTESIAN_POINT ( 'NONE',  ( 0.000000000000000000, 0.000000000000000000, 0.000000000000000000 ) ) ;
#404 = B_SPLINE_CURVE_WITH_KNOTS ( 'NONE', 3,
 ( #597, #80, #194, #644, #649, #207 ),
 .UNSPECIFIED., .F., .F.,
 ( 4, 2, 4 ),
 ( 0.002973311424052852911, 0.003777081415084942821, 0.004580851406117032731 ),
 .UNSPECIFIED. ) ;
#405 = PRODUCT_DEFINITION_FORMATION_WITH_SPECIFIED_SOURCE ( 'ÈÎºÎ', '', #539, .NOT_KNOWN. ) ;
#406 = EDGE_LOOP ( 'NONE', ( #535, #570, #548, #338, #433, #156 ) ) ;
#407 = LINE ( 'NONE', #411, #43 ) ;
#408 = DIRECTION ( 'NONE',  ( -0.4999999999999883427, -0.8660254037844453689, 0.000000000000000000 ) ) ;
#409 = DIRECTION ( 'NONE',  ( 0.000000000000000000, 0.000000000000000000, -1.000000000000000000 ) ) ;
#410 = ORIENTED_EDGE ( 'NONE', *, *, #375, .F. ) ;
#411 = CARTESIAN_POINT ( 'NONE',  ( 2.750000000000030198, 1.587713240271480863, 2.399999999999999911 ) ) ;
#412 = DIRECTION ( 'NONE',  ( -1.000000000000000000, 0.000000000000000000, 0.000000000000000000 ) ) ;
#413 =( NAMED_UNIT ( * ) SI_UNIT ( $, .STERADIAN. ) SOLID_ANGLE_UNIT ( ) );
#414 = VERTEX_POINT ( 'NONE', #727 ) ;
#415 = ADVANCED_FACE ( 'NONE', ( #57 ), #550, .T. ) ;
#416 = CARTESIAN_POINT ( 'NONE',  ( -1.608385152161849074, -2.246824879981713430, 2.368939395233463684E-15 ) ) ;
#417 = DIRECTION ( 'NONE',  ( 0.000000000000000000, 0.000000000000000000, 1.000000000000000000 ) ) ;
#418 = CARTESIAN_POINT ( 'NONE',  ( 1.141614847838143820, -2.516314840832729161, 3.510528049895446966E-15 ) ) ;
#419 = ORIENTED_EDGE ( 'NONE', *, *, #726, .F. ) ;
#420 = CARTESIAN_POINT ( 'NONE',  ( -2.749999999999988454, -1.149254302834634700E-14, 0.000000000000000000 ) ) ;
#421 = B_SPLINE_CURVE_WITH_KNOTS ( 'NONE', 3,
 ( #10, #390, #624, #347 ),
 .UNSPECIFIED., .F., .F.,
 ( 4, 4 ),
 ( 2.380742992388550235E-07, 0.001606744326298653472 ),
 .UNSPECIFIED. ) ;
#422 = DIRECTION ( 'NONE',  ( -1.000000000000000000, 0.000000000000000000, 0.000000000000000000 ) ) ;
#423 =( LENGTH_UNIT ( ) NAMED_UNIT ( * ) SI_UNIT ( .MILLI., .METRE. ) );
#424 = ORIENTED_EDGE ( 'NONE', *, *, #321, .T. ) ;
#425 = PRESENTATION_LAYER_ASSIGNMENT (  '', '', ( #436 ) ) ;
#426 = PRESENTATION_STYLE_ASSIGNMENT (( #152 ) ) ;
#427 = CARTESIAN_POINT ( 'NONE',  ( 2.750000000000030198, 1.587713240271480863, 2.154379906938121980 ) ) ;
#428 = CONICAL_SURFACE ( 'NONE', #370, 2.750000000000002665, 1.047197551196600074 ) ;
#429 = AXIS2_PLACEMENT_3D ( 'NONE', #398, #627, #121 ) ;
#430 = VERTEX_POINT ( 'NONE', #389 ) ;
#431 = CONICAL_SURFACE ( 'NONE', #399, 2.750000000000002665, 1.047197551196600074 ) ;
#432 = DIRECTION ( 'NONE',  ( 0.000000000000000000, 0.000000000000000000, -1.000000000000000000 ) ) ;
#433 = ORIENTED_EDGE ( 'NONE', *, *, #527, .F. ) ;
#434 = MECHANICAL_DESIGN_GEOMETRIC_PRESENTATION_REPRESENTATION (  '', ( #158 ), #93 ) ;
#435 = DIRECTION ( 'NONE',  ( -0.000000000000000000, -0.000000000000000000, -1.000000000000000000 ) ) ;
#436 = STYLED_ITEM ( 'NONE', ( #559 ), #269 ) ;
#437 = CARTESIAN_POINT ( 'NONE',  ( 2.750000000000023981, -1.329082474001308745, 0.1709598217984660551 ) ) ;
#438 = FILL_AREA_STYLE ('',( #722 ) ) ;
#439 = ORIENTED_EDGE ( 'NONE', *, *, #696, .T. ) ;
#440 = CARTESIAN_POINT ( 'NONE',  ( 2.750000000000023093, -1.587713240271473758, 2.399999999999999911 ) ) ;
#441 = CARTESIAN_POINT ( 'NONE',  ( 2.299387885565501222, -1.847874265840349750, 2.290910569535893337 ) ) ;
#442 = DIRECTION ( 'NONE',  ( -1.000000000000000000, 0.000000000000000000, 0.000000000000000000 ) ) ;
#443 = CARTESIAN_POINT ( 'NONE',  ( 2.750000000000030198, 1.587713240271480863, 2.154379906938121980 ) ) ;
#444 = EDGE_CURVE ( 'NONE', #602, #235, #677, .T. ) ;
#445 = CIRCLE ( 'NONE', #331, 1.229375000000001217 ) ;
#446 =( LENGTH_UNIT ( ) NAMED_UNIT ( * ) SI_UNIT ( .MILLI., .METRE. ) );
#447 = CARTESIAN_POINT ( 'NONE',  ( -2.749999999999993339, 1.070839432838519345, 2.290204901803032822 ) ) ;
#448 = ORIENTED_EDGE ( 'NONE', *, *, #42, .T. ) ;
#449 = CARTESIAN_POINT ( 'NONE',  ( 0.000000000000000000, 0.000000000000000000, 0.000000000000000000 ) ) ;
#450 = DIRECTION ( 'NONE',  ( 0.8660254037844427044, 0.4999999999999931721, 0.000000000000000000 ) ) ;
#451 = B_SPLINE_CURVE_WITH_KNOTS ( 'NONE', 3,
 ( #351, #230, #447, #67, #122, #344 ),
 .UNSPECIFIED., .F., .F.,
 ( 4, 2, 4 ),
 ( 0.008546303792089657639, 0.009350274710054279695, 0.01015424562801890175 ),
 .UNSPECIFIED. ) ;
#452 = ORIENTED_EDGE ( 'NONE', *, *, #479, .F. ) ;
#453 = EDGE_CURVE ( 'NONE', #41, #365, #648, .T. ) ;
#454 = DIRECTION ( 'NONE',  ( -1.000000000000000000, 0.000000000000000000, -0.000000000000000000 ) ) ;
#455 = CIRCLE ( 'NONE', #238, 2.750000000000002665 ) ;
#456 = DIRECTION ( 'NONE',  ( 0.000000000000000000, 0.000000000000000000, -1.000000000000000000 ) ) ;
#457 = VERTEX_POINT ( 'NONE', #346 ) ;
#458 = AXIS2_PLACEMENT_3D ( 'NONE', #588, #146, #205 ) ;
#459 = DIRECTION ( 'NONE',  ( 0.000000000000000000, 0.000000000000000000, -1.000000000000000000 ) ) ;
#460 = VECTOR ( 'NONE', #363, 1000.000000000000000 ) ;
#461 = CARTESIAN_POINT ( 'NONE',  ( 2.750000000000030198, 1.587713240271480863, 0.2456200930618777645 ) ) ;
#462 = VERTEX_POINT ( 'NONE', #686 ) ;
#463 = ADVANCED_FACE ( 'Nface3', ( #281, #63 ), #9, .F. ) ;
#464 = CARTESIAN_POINT ( 'NONE',  ( -1.374999999999982458, 2.381569860407219075, 2.399999999999999911 ) ) ;
#465 = CYLINDRICAL_SURFACE ( 'NONE', #534, 1.229375000000001217 ) ;
#466 = VERTEX_POINT ( 'NONE', #227 ) ;
#467 = CARTESIAN_POINT ( 'NONE',  ( -2.525629923208357219, -1.717253364505241464, 0.1708300674639754158 ) ) ;
#468 = DIRECTION ( 'NONE',  ( 0.000000000000000000, 0.000000000000000000, -1.000000000000000000 ) ) ;
#469 = EDGE_CURVE ( 'NONE', #625, #594, #581, .T. ) ;
#470 = CARTESIAN_POINT ( 'NONE',  ( -2.749999999999988454, -1.149254302834634700E-14, 0.000000000000000000 ) ) ;
#471 = ORIENTED_EDGE ( 'NONE', *, *, #321, .F. ) ;
#472 = CARTESIAN_POINT ( 'NONE',  ( 2.750000000000023093, -1.587713240271584780, 0.2456200930617989941 ) ) ;
#473 = CARTESIAN_POINT ( 'NONE',  ( 0.000000000000000000, 0.000000000000000000, 0.000000000000000000 ) ) ;
#474 =( NAMED_UNIT ( * ) SI_UNIT ( $, .STERADIAN. ) SOLID_ANGLE_UNIT ( ) );
#475 = ORIENTED_EDGE ( 'NONE', *, *, #384, .T. ) ;
#476 = CARTESIAN_POINT ( 'NONE',  ( -2.749999999999995559, 1.587713240271480863, 2.399999999999999911 ) ) ;
#477 = DIRECTION ( 'NONE',  ( -1.000000000000000000, 0.000000000000000000, -0.000000000000000000 ) ) ;
#478 = ORIENTED_EDGE ( 'NONE', *, *, #286, .F. ) ;
#479 = EDGE_CURVE ( 'NONE', #316, #11, #44, .T. ) ;
#480 = CARTESIAN_POINT ( 'NONE',  ( -2.749999999999981792, -1.587713240271501736, 0.2456200930618595291 ) ) ;
#481 = CARTESIAN_POINT ( 'NONE',  ( 2.750000000000028866, 1.070839432840182015, 2.290204901803054138 ) ) ;
#482 = DIRECTION ( 'NONE',  ( -0.8660254037844411501, 0.4999999999999957812, 0.000000000000000000 ) ) ;
#483 = EDGE_LOOP ( 'NONE', ( #278, #216, #342, #452 ) ) ;
#484 =( LENGTH_UNIT ( ) NAMED_UNIT ( * ) SI_UNIT ( .MILLI., .METRE. ) );
#485 = CIRCLE ( 'NONE', #564, 2.750000000000002665 ) ;
#486 = PRESENTATION_LAYER_ASSIGNMENT (  '', '', ( #672 ) ) ;
#487 = DIRECTION ( 'NONE',  ( 0.000000000000000000, 0.000000000000000000, 1.000000000000000000 ) ) ;
#488 = CONICAL_SURFACE ( 'NONE', #673, 2.750000000000002665, 1.047197551196600074 ) ;
#489 = ORIENTED_EDGE ( 'NONE', *, *, #618, .F. ) ;
#490 = CARTESIAN_POINT ( 'NONE',  ( 2.750000000000023537, -1.064861299499560987, 0.1085371485699952593 ) ) ;
#491 = EDGE_CURVE ( 'NONE', #246, #503, #445, .T. ) ;
#492 = UNCERTAINTY_MEASURE_WITH_UNIT (LENGTH_MEASURE( 1.000000000000000082E-05 ), #502, 'distance_accuracy_value', 'NONE');
#493 = B_SPLINE_CURVE_WITH_KNOTS ( 'NONE', 3,
 ( #28, #354, #198, #373 ),
 .UNSPECIFIED., .F., .F.,
 ( 4, 4 ),
 ( 2.380742992387856462E-07, 0.001606744326298700310 ),
 .UNSPECIFIED. ) ;
#494 = MANIFOLD_SOLID_BREP ( 'Nface2', #203 ) ;
#495 = EDGE_LOOP ( 'NONE', ( #255, #84 ) ) ;
#496 = MECHANICAL_DESIGN_GEOMETRIC_PRESENTATION_REPRESENTATION (  '', ( #436 ), #176 ) ;
#497 = CARTESIAN_POINT ( 'NONE',  ( 0.9064794551410539913, -2.652070323102400984, 2.399999999999996358 ) ) ;
#498 = EDGE_CURVE ( 'NONE', #514, #457, #171, .T. ) ;
#499 = CARTESIAN_POINT ( 'NONE',  ( 1.608385152161854847, -2.246824879981712542, 2.399999999999997247 ) ) ;
#500 = CIRCLE ( 'NONE', #211, 1.229375000000001217 ) ;
#501 =( NAMED_UNIT ( * ) SI_UNIT ( $, .STERADIAN. ) SOLID_ANGLE_UNIT ( ) );
#502 =( LENGTH_UNIT ( ) NAMED_UNIT ( * ) SI_UNIT ( .MILLI., .METRE. ) );
#503 = VERTEX_POINT ( 'NONE', #183 ) ;
#504 = ADVANCED_FACE ( 'NONE', ( #61 ), #298, .T. ) ;
#505 =( NAMED_UNIT ( * ) SI_UNIT ( $, .STERADIAN. ) SOLID_ANGLE_UNIT ( ) );
#506 = B_SPLINE_CURVE_WITH_KNOTS ( 'NONE', 3,
 ( #368, #651, #252, #350, #305, #18 ),
 .UNSPECIFIED., .F., .F.,
 ( 4, 2, 4 ),
 ( 0.001606744326298700310, 0.002406996759593243995, 0.003207249192887787897 ),
 .UNSPECIFIED. ) ;
#507 = EDGE_CURVE ( 'NONE', #365, #36, #110, .T. ) ;
#508 = CARTESIAN_POINT ( 'NONE',  ( -3.730867320654844785E-17, 3.175426480542919982, 2.154379906938152622 ) ) ;
#509 = EDGE_LOOP ( 'NONE', ( #30, #120, #213, #273, #650, #361 ) ) ;
#510 = DIRECTION ( 'NONE',  ( -1.000000000000000000, 0.000000000000000000, 0.000000000000000000 ) ) ;
#511 = DIRECTION ( 'NONE',  ( -1.000000000000000000, 0.000000000000000000, 0.000000000000000000 ) ) ;
#512 = B_SPLINE_CURVE_WITH_KNOTS ( 'NONE', 3,
 ( #660, #378, #97, #490, #437, #45 ),
 .UNSPECIFIED., .F., .F.,
 ( 4, 2, 4 ),
 ( 0.01015424563133334596, 0.01095756197254200634, 0.01176087831375066499 ),
 .UNSPECIFIED. ) ;
#513 = EDGE_CURVE ( 'NONE', #414, #41, #506, .T. ) ;
#514 = VERTEX_POINT ( 'NONE', #536 ) ;
#515 = DIRECTION ( 'NONE',  ( -1.000000000000000000, 2.185184870890404710E-15, 0.000000000000000000 ) ) ;
#516 = CARTESIAN_POINT ( 'NONE',  ( 2.750000000000028866, 1.070839432840182681, 0.1097950981969457451 ) ) ;
#517 = ORIENTED_EDGE ( 'NONE', *, *, #611, .T. ) ;
#518 = SURFACE_STYLE_USAGE ( .BOTH. , #333 ) ;
#519 = PLANE ( 'NONE',  #299 ) ;
#520 = EDGE_LOOP ( 'NONE', ( #725, #266, #259 ) ) ;
#521 = CIRCLE ( 'NONE', #710, 2.750000000000002665 ) ;
#522 = AXIS2_PLACEMENT_3D ( 'NONE', #619, #459, #454 ) ;
#523 = DIRECTION ( 'NONE',  ( -0.8660254037844394848, -0.4999999999999984457, 0.000000000000000000 ) ) ;
#524 = CARTESIAN_POINT ( 'NONE',  ( 1.229375000000001217, 1.505550158701778807E-16, 2.399999999999999911 ) ) ;
#525 = ORIENTED_EDGE ( 'NONE', *, *, #453, .T. ) ;
#526 = CARTESIAN_POINT ( 'NONE',  ( -1.841465337348287656, -2.112255972321557707, 0.02351960456806344996 ) ) ;
#527 = EDGE_CURVE ( 'NONE', #144, #41, #313, .T. ) ;
#528 = CARTESIAN_POINT ( 'NONE',  ( 6.938893903907229955E-15, -3.175426480542947516, 2.399999999999999911 ) ) ;
#529 = CARTESIAN_POINT ( 'NONE',  ( -2.749999999999982681, -1.329082474007967196, 0.1709598218003685610 ) ) ;
#530 = ORIENTED_EDGE ( 'NONE', *, *, #129, .T. ) ;
#531 = FACE_OUTER_BOUND ( 'NONE', #544, .T. ) ;
#532 = ADVANCED_BREP_SHAPE_REPRESENTATION ( 'M3ÂÝÄ¸', ( #494, #225 ), #337 ) ;
#533 = DIRECTION ( 'NONE',  ( -0.000000000000000000, -0.000000000000000000, -1.000000000000000000 ) ) ;
#534 = AXIS2_PLACEMENT_3D ( 'NONE', #165, #325, #329 ) ;
#535 = ORIENTED_EDGE ( 'NONE', *, *, #182, .F. ) ;
#536 = CARTESIAN_POINT ( 'NONE',  ( -2.749999999999995559, 1.587713240271480863, 2.154379906938139300 ) ) ;
#537 = CARTESIAN_POINT ( 'NONE',  ( 1.229375000000001217, 1.505550158701778807E-16, 2.399999999999999911 ) ) ;
#538 = FACE_OUTER_BOUND ( 'NONE', #195, .T. ) ;
#539 = PRODUCT ( 'M3ÂÝÄ¸', 'M3ÂÝÄ¸', '', ( #562 ) ) ;
#540 = ORIENTED_EDGE ( 'NONE', *, *, #611, .F. ) ;
#541 = CARTESIAN_POINT ( 'NONE',  ( -1.608385152161838638, 2.246824879981702772, 2.400000000000006128 ) ) ;
#542 = FACE_OUTER_BOUND ( 'NONE', #401, .T. ) ;
#543 = CARTESIAN_POINT ( 'NONE',  ( 0.000000000000000000, 0.000000000000000000, 0.000000000000000000 ) ) ;
#544 = EDGE_LOOP ( 'NONE', ( #250, #322, #208, #419, #590, #204 ) ) ;
#545 = B_SPLINE_CURVE_WITH_KNOTS ( 'NONE', 3,
 ( #301, #416, #526, #247, #467, #480 ),
 .UNSPECIFIED., .F., .F.,
 ( 4, 2, 4 ),
 ( 0.001606744326298683396, 0.002406996759593234021, 0.003207249192887784862 ),
 .UNSPECIFIED. ) ;
#546 = CARTESIAN_POINT ( 'NONE',  ( -0.2243700767916198546, -3.045886356309206455, 2.229169932536022358 ) ) ;
#547 = DIRECTION ( 'NONE',  ( 1.000000000000000000, 0.000000000000000000, 0.000000000000000000 ) ) ;
#548 = ORIENTED_EDGE ( 'NONE', *, *, #507, .F. ) ;
#549 = CARTESIAN_POINT ( 'NONE',  ( 0.000000000000000000, 0.000000000000000000, 2.399999999999999911 ) ) ;
#550 = CONICAL_SURFACE ( 'NONE', #323, 2.750000000000002665, 1.047197551196600074 ) ;
#551 = B_SPLINE_CURVE_WITH_KNOTS ( 'NONE', 3,
 ( #667, #318, #222, #47, #546, #666 ),
 .UNSPECIFIED., .F., .F.,
 ( 4, 2, 4 ),
 ( 0.001606744326298670169, 0.002406996759593227515, 0.003207249192887785295 ),
 .UNSPECIFIED. ) ;
#552 = DIRECTION ( 'NONE',  ( 0.000000000000000000, 0.000000000000000000, -1.000000000000000000 ) ) ;
#553 = ADVANCED_FACE ( 'NONE', ( #362 ), #168, .T. ) ;
#554 = APPLICATION_CONTEXT ( 'automotive_design' ) ;
#555 = ORIENTED_EDGE ( 'NONE', *, *, #658, .T. ) ;
#556 = ADVANCED_FACE ( 'NONE', ( #31 ), #187, .F. ) ;
#557 = CARTESIAN_POINT ( 'NONE',  ( -2.300137710042366557, -1.847441354476789144, 2.304334003592004798 ) ) ;
#558 = ORIENTED_EDGE ( 'NONE', *, *, #52, .T. ) ;
#559 = PRESENTATION_STYLE_ASSIGNMENT (( #596 ) ) ;
#560 = CONICAL_SURFACE ( 'NONE', #604, 2.750000000000002665, 1.047197551196600074 ) ;
#561 = DIRECTION ( 'NONE',  ( 0.000000000000000000, 0.000000000000000000, 1.000000000000000000 ) ) ;
#562 = PRODUCT_CONTEXT ( 'NONE', #554, 'mechanical' ) ;
#563 = CARTESIAN_POINT ( 'NONE',  ( 0.000000000000000000, 0.000000000000000000, 2.399999999999999911 ) ) ;
#564 = AXIS2_PLACEMENT_3D ( 'NONE', #543, #140, #262 ) ;
#565 = CARTESIAN_POINT ( 'NONE',  ( -1.229375000000001217, 0.000000000000000000, 0.000000000000000000 ) ) ;
#566 = ORIENTED_EDGE ( 'NONE', *, *, #679, .F. ) ;
#567 = DIRECTION ( 'NONE',  ( -0.000000000000000000, -0.000000000000000000, -1.000000000000000000 ) ) ;
#568 = EDGE_CURVE ( 'NONE', #98, #36, #407, .T. ) ;
#569 = CARTESIAN_POINT ( 'NONE',  ( 0.000000000000000000, 3.175426480542919982, 2.399999999999999911 ) ) ;
#570 = ORIENTED_EDGE ( 'NONE', *, *, #568, .T. ) ;
#571 = CARTESIAN_POINT ( 'NONE',  ( 1.375000000000001998, -2.381569860407219519, 0.000000000000000000 ) ) ;
#572 = CARTESIAN_POINT ( 'NONE',  ( -1.374999999999989564, -2.381569860407215078, 2.399999999999999911 ) ) ;
#573 = ORIENTED_EDGE ( 'NONE', *, *, #726, .T. ) ;
#574 = CARTESIAN_POINT ( 'NONE',  ( 0.9064794551410306767, 2.652070323102396543, -1.803559784994511603E-15 ) ) ;
#575 = CARTESIAN_POINT ( 'NONE',  ( 0.000000000000000000, 0.000000000000000000, 2.399999999999999911 ) ) ;
#576 = ORIENTED_EDGE ( 'NONE', *, *, #215, .T. ) ;
#577 = CARTESIAN_POINT ( 'NONE',  ( -2.299387885565513212, 1.847874265840330432, 2.290910569535895558 ) ) ;
#578 = CARTESIAN_POINT ( 'NONE',  ( -2.749999999999981792, -1.587713240271501736, 2.154379906938140188 ) ) ;
#579 = ADVANCED_FACE ( 'NONE', ( #531 ), #582, .F. ) ;
#580 = AXIS2_PLACEMENT_3D ( 'NONE', #257, #636, #523 ) ;
#581 = CIRCLE ( 'NONE', #267, 2.750000000000002665 ) ;
#582 = PLANE ( 'NONE',  #151 ) ;
#583 = UNCERTAINTY_MEASURE_WITH_UNIT (LENGTH_MEASURE( 1.000000000000000082E-05 ), #446, 'distance_accuracy_value', 'NONE');
#584 = DIRECTION ( 'NONE',  ( -1.000000000000000000, 0.000000000000000000, 0.000000000000000000 ) ) ;
#585 = CARTESIAN_POINT ( 'NONE',  ( 0.000000000000000000, 0.000000000000000000, 2.399999999999999911 ) ) ;
#586 = ADVANCED_FACE ( 'NONE', ( #85 ), #428, .T. ) ;
#587 = ORIENTED_EDGE ( 'NONE', *, *, #263, .T. ) ;
#588 = CARTESIAN_POINT ( 'NONE',  ( 0.000000000000000000, 0.000000000000000000, 2.399999999999999911 ) ) ;
#589 = CARTESIAN_POINT ( 'NONE',  ( -3.730867320654844785E-17, 3.175426480542919982, 2.154379906938152622 ) ) ;
#590 = ORIENTED_EDGE ( 'NONE', *, *, #634, .F. ) ;
#591 = CARTESIAN_POINT ( 'NONE',  ( -1.841465337348281439, 2.112255972321543940, 2.376480395431944448 ) ) ;
#592 = CARTESIAN_POINT ( 'NONE',  ( 2.750000000000030198, 1.587713240271480863, 0.000000000000000000 ) ) ;
#593 =( NAMED_UNIT ( * ) PLANE_ANGLE_UNIT ( ) SI_UNIT ( $, .RADIAN. ) );
#594 = VERTEX_POINT ( 'NONE', #420 ) ;
#595 = CARTESIAN_POINT ( 'NONE',  ( 0.000000000000000000, 3.175426480542919982, 2.399999999999999911 ) ) ;
#596 = SURFACE_STYLE_USAGE ( .BOTH. , #369 ) ;
#597 = CARTESIAN_POINT ( 'NONE',  ( 2.750000000000023093, -1.587713240271584780, 2.154379906938201028 ) ) ;
#598 = ORIENTED_EDGE ( 'NONE', *, *, #696, .F. ) ;
#599 = FILL_AREA_STYLE ('',( #82 ) ) ;
#600 = FACE_OUTER_BOUND ( 'NONE', #76, .T. ) ;
#601 = CARTESIAN_POINT ( 'NONE',  ( 6.961238680711578303E-15, -3.175426480542947516, 0.2456200930618632761 ) ) ;
#602 = VERTEX_POINT ( 'NONE', #472 ) ;
#603 = COLOUR_RGB ( '',0.7529411764705882248, 0.7529411764705882248, 0.7529411764705882248 ) ;
#604 = AXIS2_PLACEMENT_3D ( 'NONE', #699, #417, #422 ) ;
#605 = EDGE_CURVE ( 'NONE', #594, #457, #13, .T. ) ;
#606 = FACE_OUTER_BOUND ( 'NONE', #509, .T. ) ;
#607 = ORIENTED_EDGE ( 'NONE', *, *, #507, .T. ) ;
#608 = CARTESIAN_POINT ( 'NONE',  ( 0.000000000000000000, 0.000000000000000000, 2.399999999999999911 ) ) ;
#609 = UNCERTAINTY_MEASURE_WITH_UNIT (LENGTH_MEASURE( 1.000000000000000082E-05 ), #484, 'distance_accuracy_value', 'NONE');
#610 = CARTESIAN_POINT ( 'NONE',  ( 1.374999999999969802, 2.381569860407227512, 0.000000000000000000 ) ) ;
#611 = EDGE_CURVE ( 'NONE', #704, #514, #377, .T. ) ;
#612 = CIRCLE ( 'NONE', #292, 2.750000000000002665 ) ;
#613 = DIRECTION ( 'NONE',  ( 0.000000000000000000, 0.000000000000000000, -1.000000000000000000 ) ) ;
#614 = PRESENTATION_STYLE_ASSIGNMENT (( #101 ) ) ;
#615 = VECTOR ( 'NONE', #77, 1000.000000000000000 ) ;
#616 = VECTOR ( 'NONE', #533, 1000.000000000000000 ) ;
#617 = DIRECTION ( 'NONE',  ( 1.000000000000000000, 0.000000000000000000, 0.000000000000000000 ) ) ;
#618 = EDGE_CURVE ( 'NONE', #625, #221, #545, .T. ) ;
#619 = CARTESIAN_POINT ( 'NONE',  ( 2.750000000000030198, 1.587713240271480863, 2.399999999999999911 ) ) ;
#620 = CARTESIAN_POINT ( 'NONE',  ( -2.749999999999986677, -0.5353163540067308324, 2.376871829017773052 ) ) ;
#621 = VERTEX_POINT ( 'NONE', #630 ) ;
#622 = AXIS2_PLACEMENT_3D ( 'NONE', #274, #552, #265 ) ;
#623 = B_SPLINE_CURVE_WITH_KNOTS ( 'NONE', 3,
 ( #116, #393, #620, #118, #341, #578 ),
 .UNSPECIFIED., .F., .F.,
 ( 4, 2, 4 ),
 ( 0.01015424562801890175, 0.01095756196919238368, 0.01176087831036586560 ),
 .UNSPECIFIED. ) ;
#624 = CARTESIAN_POINT ( 'NONE',  ( -0.9064794551410356727, 2.652070323102387217, 2.400000000000006128 ) ) ;
#625 = VERTEX_POINT ( 'NONE', #142 ) ;
#626 = PRODUCT_DEFINITION ( 'Î´Öª', '', #405, #86 ) ;
#627 = DIRECTION ( 'NONE',  ( 0.000000000000000000, 0.000000000000000000, 1.000000000000000000 ) ) ;
#628 = DIRECTION ( 'NONE',  ( 0.000000000000000000, 0.000000000000000000, -1.000000000000000000 ) ) ;
#629 = ORIENTED_EDGE ( 'NONE', *, *, #182, .T. ) ;
#630 = CARTESIAN_POINT ( 'NONE',  ( 1.374999999999997113, -2.381569860407210637, 2.399999999999999911 ) ) ;
#631 = UNCERTAINTY_MEASURE_WITH_UNIT (LENGTH_MEASURE( 1.000000000000000082E-05 ), #360, 'distance_accuracy_value', 'NONE');
#632 = CONICAL_SURFACE ( 'NONE', #691, 2.750000000000002665, 1.047197551196600074 ) ;
#633 = DIRECTION ( 'NONE',  ( 0.4999999999999931721, -0.8660254037844427044, 0.000000000000000000 ) ) ;
#634 = EDGE_CURVE ( 'NONE', #376, #221, #694, .T. ) ;
#635 = EDGE_LOOP ( 'NONE', ( #629, #8, #530 ) ) ;
#636 = DIRECTION ( 'NONE',  ( -0.4999999999999985012, 0.8660254037844395958, 0.000000000000000000 ) ) ;
#637 = ADVANCED_FACE ( 'Nface2', ( #26 ), #128, .F. ) ;
#638 = CARTESIAN_POINT ( 'NONE',  ( 6.961238680711578303E-15, -3.175426480542947516, 0.2456200930618632761 ) ) ;
#639 = DIRECTION ( 'NONE',  ( -1.000000000000000000, 0.000000000000000000, 0.000000000000000000 ) ) ;
#640 = ORIENTED_EDGE ( 'NONE', *, *, #527, .T. ) ;
#641 = MECHANICAL_DESIGN_GEOMETRIC_PRESENTATION_REPRESENTATION (  '', ( #672 ), #169 ) ;
#642 = CARTESIAN_POINT ( 'NONE',  ( 0.000000000000000000, 0.000000000000000000, 0.000000000000000000 ) ) ;
#643 = CARTESIAN_POINT ( 'NONE',  ( -0.4498622899576112943, -2.915698366337658332, 0.09566599640799676452 ) ) ;
#644 = CARTESIAN_POINT ( 'NONE',  ( 2.750000000000025313, -0.5353163539958712969, 2.376871829018952109 ) ) ;
#645 = ORIENTED_EDGE ( 'NONE', *, *, #167, .F. ) ;
#646 = CARTESIAN_POINT ( 'NONE',  ( -2.749999999999995559, 1.587713240271480863, 0.2456200930618604727 ) ) ;
#647 = CARTESIAN_POINT ( 'NONE',  ( 1.375000000000001998, -2.381569860407219519, 0.000000000000000000 ) ) ;
#648 = B_SPLINE_CURVE_WITH_KNOTS ( 'NONE', 3,
 ( #115, #229, #574, #669 ),
 .UNSPECIFIED., .F., .F.,
 ( 4, 4 ),
 ( 2.380742992384986079E-07, 0.001606744326298638077 ),
 .UNSPECIFIED. ) ;
#649 = CARTESIAN_POINT ( 'NONE',  ( 2.750000000000026201, -0.2687297922328595323, 2.399999999999985700 ) ) ;
#650 = ORIENTED_EDGE ( 'NONE', *, *, #568, .F. ) ;
#651 = CARTESIAN_POINT ( 'NONE',  ( -1.141614847838124502, 2.516314840832716282, -6.779016435112976822E-15 ) ) ;
#652 = FILL_AREA_STYLE_COLOUR ( '', #49 ) ;
#653 = ORIENTED_EDGE ( 'NONE', *, *, #7, .F. ) ;
#654 = PRODUCT_RELATED_PRODUCT_CATEGORY ( 'part', '', ( #539 ) ) ;
#655 = MECHANICAL_DESIGN_GEOMETRIC_PRESENTATION_REPRESENTATION (  '', ( #671 ), #16 ) ;
#656 = LINE ( 'NONE', #528, #616 ) ;
#657 = CIRCLE ( 'NONE', #685, 2.750000000000002665 ) ;
#658 = EDGE_CURVE ( 'NONE', #312, #235, #521, .T. ) ;
#659 = EDGE_LOOP ( 'NONE', ( #123, #46, #1, #688 ) ) ;
#660 = CARTESIAN_POINT ( 'NONE',  ( 2.750000000000026645, -6.009258394948671624E-15, 0.000000000000000000 ) ) ;
#661 = EDGE_CURVE ( 'NONE', #11, #316, #386, .T. ) ;
#662 = FACE_OUTER_BOUND ( 'NONE', #635, .T. ) ;
#663 =( NAMED_UNIT ( * ) PLANE_ANGLE_UNIT ( ) SI_UNIT ( $, .RADIAN. ) );
#664 = B_SPLINE_CURVE_WITH_KNOTS ( 'NONE', 3,
 ( #708, #418, #29, #155, #374, #601 ),
 .UNSPECIFIED., .F., .F.,
 ( 4, 2, 4 ),
 ( 0.001606744326298712670, 0.002406996759593269149, 0.003207249192887825194 ),
 .UNSPECIFIED. ) ;
#665 = DIRECTION ( 'NONE',  ( 1.000000000000000000, 0.000000000000000000, 0.000000000000000000 ) ) ;
#666 = CARTESIAN_POINT ( 'NONE',  ( 6.968979911058673333E-15, -3.175426480542947516, 2.154379906938136635 ) ) ;
#667 = CARTESIAN_POINT ( 'NONE',  ( -1.374999999999989564, -2.381569860407215078, 2.399999999999999911 ) ) ;
#668 = CARTESIAN_POINT ( 'NONE',  ( 2.750000000000023093, -1.587713240271584780, 2.154379906938201028 ) ) ;
#669 = CARTESIAN_POINT ( 'NONE',  ( 1.374999999999969802, 2.381569860407227512, 0.000000000000000000 ) ) ;
#670 = CARTESIAN_POINT ( 'NONE',  ( 2.750000000000030198, 1.587713240271480863, 2.399999999999999911 ) ) ;
#671 = STYLED_ITEM ( 'NONE', ( #426 ), #637 ) ;
#672 = STYLED_ITEM ( 'NONE', ( #291 ), #494 ) ;
#673 = AXIS2_PLACEMENT_3D ( 'NONE', #241, #285, #172 ) ;
#674 = CARTESIAN_POINT ( 'NONE',  ( -4.157796499959112230E-17, 3.175426480542919982, 0.2456200930618471778 ) ) ;
#675 = EDGE_CURVE ( 'NONE', #462, #430, #404, .T. ) ;
#676 = ORIENTED_EDGE ( 'NONE', *, *, #385, .F. ) ;
#677 = B_SPLINE_CURVE_WITH_KNOTS ( 'NONE', 3,
 ( #239, #55, #109, #571 ),
 .UNSPECIFIED., .F., .F.,
 ( 4, 4 ),
 ( 2.380742993044233410E-07, 0.001606744326298712670 ),
 .UNSPECIFIED. ) ;
#678 = CARTESIAN_POINT ( 'NONE',  ( 0.2243700767916220473, 3.045886356309183807, 2.229169932536034349 ) ) ;
#679 = EDGE_CURVE ( 'NONE', #235, #62, #664, .T. ) ;
#680 = ORIENTED_EDGE ( 'NONE', *, *, #3, .T. ) ;
#681 = CIRCLE ( 'NONE', #622, 2.750000000000002665 ) ;
#682 = DIRECTION ( 'NONE',  ( 1.000000000000000000, 0.000000000000000000, 0.000000000000000000 ) ) ;
#683 = DIRECTION ( 'NONE',  ( -1.000000000000000000, 0.000000000000000000, 0.000000000000000000 ) ) ;
#684 = ORIENTED_EDGE ( 'NONE', *, *, #7, .T. ) ;
#685 = AXIS2_PLACEMENT_3D ( 'NONE', #206, #468, #75 ) ;
#686 = CARTESIAN_POINT ( 'NONE',  ( 2.750000000000023093, -1.587713240271584780, 2.154379906938201028 ) ) ;
#687 = CARTESIAN_POINT ( 'NONE',  ( 1.374999999999969358, 2.381569860407227068, 2.399999999999999911 ) ) ;
#688 = ORIENTED_EDGE ( 'NONE', *, *, #307, .F. ) ;
#689 = APPLICATION_CONTEXT ( 'automotive_design' ) ;
#690 = CARTESIAN_POINT ( 'NONE',  ( -2.525629923208366545, 1.717253364505223479, 2.229169932536027243 ) ) ;
#691 = AXIS2_PLACEMENT_3D ( 'NONE', #714, #487, #639 ) ;
#692 = FILL_AREA_STYLE ('',( #652 ) ) ;
#693 = ORIENTED_EDGE ( 'NONE', *, *, #605, .T. ) ;
#694 = LINE ( 'NONE', #191, #615 ) ;
#695 = CARTESIAN_POINT ( 'NONE',  ( 2.300137710042393202, 1.847441354476776043, 2.304334003591999025 ) ) ;
#696 = EDGE_CURVE ( 'NONE', #365, #312, #485, .T. ) ;
#697 = ORIENTED_EDGE ( 'NONE', *, *, #375, .T. ) ;
#698 = DIRECTION ( 'NONE',  ( 1.000000000000000000, 4.370369741780771554E-15, -0.000000000000000000 ) ) ;
#699 = CARTESIAN_POINT ( 'NONE',  ( 0.000000000000000000, 0.000000000000000000, 0.000000000000000000 ) ) ;
#700 = EDGE_LOOP ( 'NONE', ( #573, #136, #719 ) ) ;
#701 = DIRECTION ( 'NONE',  ( 0.000000000000000000, 0.000000000000000000, 1.000000000000000000 ) ) ;
#702 = DIRECTION ( 'NONE',  ( 0.000000000000000000, 0.000000000000000000, 1.000000000000000000 ) ) ;
#703 = PLANE ( 'NONE',  #280 ) ;
#704 = VERTEX_POINT ( 'NONE', #303 ) ;
#705 = CARTESIAN_POINT ( 'NONE',  ( 1.841465337348288989, 2.112255972321553710, 0.02351960456806192687 ) ) ;
#706 = ADVANCED_FACE ( 'NONE', ( #364 ), #703, .F. ) ;
#707 = CARTESIAN_POINT ( 'NONE',  ( 2.750000000000026645, -6.009258394948671624E-15, 2.399999999999999911 ) ) ;
#708 = CARTESIAN_POINT ( 'NONE',  ( 1.375000000000001998, -2.381569860407219519, 0.000000000000000000 ) ) ;
#709 = ORIENTED_EDGE ( 'NONE', *, *, #192, .F. ) ;
#710 = AXIS2_PLACEMENT_3D ( 'NONE', #355, #409, #371 ) ;
#711 = AXIS2_PLACEMENT_3D ( 'NONE', #717, #214, #160 ) ;
#712 = ADVANCED_FACE ( 'NONE', ( #538 ), #632, .T. ) ;
#713 = AXIS2_PLACEMENT_3D ( 'NONE', #403, #64, #683 ) ;
#714 = CARTESIAN_POINT ( 'NONE',  ( 0.000000000000000000, 0.000000000000000000, 0.000000000000000000 ) ) ;
#715 = ORIENTED_EDGE ( 'NONE', *, *, #658, .F. ) ;
#716 = CARTESIAN_POINT ( 'NONE',  ( -2.749999999999981792, -1.587713240271501736, 2.154379906938140188 ) ) ;
#717 = CARTESIAN_POINT ( 'NONE',  ( 0.000000000000000000, 0.000000000000000000, 0.000000000000000000 ) ) ;
#718 = AXIS2_PLACEMENT_3D ( 'NONE', #39, #432, #665 ) ;
#719 = ORIENTED_EDGE ( 'NONE', *, *, #618, .T. ) ;
#720 = LINE ( 'NONE', #440, #330 ) ;
#721 = B_SPLINE_CURVE_WITH_KNOTS ( 'NONE', 3,
 ( #687, #184, #58, #125, #678, #508 ),
 .UNSPECIFIED., .F., .F.,
 ( 4, 2, 4 ),
 ( 0.001606744326298747798, 0.002406996759593283894, 0.003207249192887819990 ),
 .UNSPECIFIED. ) ;
#722 = FILL_AREA_STYLE_COLOUR ( '', #603 ) ;
#723 = CONICAL_SURFACE ( 'NONE', #87, 2.750000000000002665, 1.047197551196600074 ) ;
#724 = CARTESIAN_POINT ( 'NONE',  ( 0.000000000000000000, 0.000000000000000000, 0.000000000000000000 ) ) ;
#725 = ORIENTED_EDGE ( 'NONE', *, *, #348, .T. ) ;
#726 = EDGE_CURVE ( 'NONE', #221, #594, #100, .T. ) ;
#727 = CARTESIAN_POINT ( 'NONE',  ( -1.374999999999978018, 2.381569860407211525, 0.000000000000000000 ) ) ;
#728 = CARTESIAN_POINT ( 'NONE',  ( 0.000000000000000000, 0.000000000000000000, 2.399999999999999911 ) ) ;
ENDSEC;
END-ISO-10303-21;
