ISO-10303-21;
HEADER;
FILE_DESCRIPTION (( 'STEP AP214' ),
    '1' );
FILE_NAME ('M4ÂÝÄ¸.step',
    '2023-08-15T02:54:46',
    ( '' ),
    ( '' ),
    'SwSTEP 2.0',
    'SolidWorks 2022',
    '' );
FILE_SCHEMA (( 'AUTOMOTIVE_DESIGN' ));
ENDSEC;

DATA;
#1 = DIRECTION ( 'NONE',  ( 1.073081856240827210E-16, -1.000000000000000000, 0.000000000000000000 ) ) ;
#2 = CARTESIAN_POINT ( 'NONE',  ( 1.363140381544333257, -3.499999999999996891, -2.843720404309396876 ) ) ;
#3 = VERTEX_POINT ( 'NONE', #634 ) ;
#4 = DIRECTION ( 'NONE',  ( 0.4999999999999988898, 6.123233995736752477E-17, -0.8660254037844392627 ) ) ;
#5 = SURFACE_SIDE_STYLE ('',( #345 ) ) ;
#6 = EDGE_CURVE ( 'NONE', #585, #554, #101, .T. ) ;
#7 = VECTOR ( 'NONE', #4, 1000.000000000000114 ) ;
#8 = CARTESIAN_POINT ( 'NONE',  ( 1.694094396866558716, -3.499999999999997780, -2.765176663185822115 ) ) ;
#9 = FACE_OUTER_BOUND ( 'NONE', #304, .T. ) ;
#10 = CARTESIAN_POINT ( 'NONE',  ( 3.125000000000000000, 0.000000000000000000, -3.200000000000000178 ) ) ;
#11 = CARTESIAN_POINT ( 'NONE',  ( 1.839815752022869955, 2.253124471735688249E-16, -3.200000000000000178 ) ) ;
#12 = CARTESIAN_POINT ( 'NONE',  ( 2.020725942163686728, 3.500000000000002220, -0.5291137421157459109 ) ) ;
#13 = B_SPLINE_CURVE_WITH_KNOTS ( 'NONE', 3,
 ( #342, #444, #49, #497, #340, #298, #446, #252 ),
 .UNSPECIFIED., .F., .F.,
 ( 4, 2, 2, 4 ),
 ( 2.380739282170944336E-07, 0.002041062161438832959, 0.003061474205194140985, 0.004081886248949449444 ),
 .UNSPECIFIED. ) ;
#14 = CARTESIAN_POINT ( 'NONE',  ( 4.041451884327380562, 0.000000000000000000, -2.670886257884255155 ) ) ;
#15 = VERTEX_POINT ( 'NONE', #543 ) ;
#16 = DIRECTION ( 'NONE',  ( -1.000000000000000000, 0.000000000000000000, 0.000000000000000000 ) ) ;
#17 = CARTESIAN_POINT ( 'NONE',  ( 0.000000000000000000, 0.000000000000000000, -3.200000000000000178 ) ) ;
#18 = VECTOR ( 'NONE', #233, 1000.000000000000114 ) ;
#19 = CARTESIAN_POINT ( 'NONE',  ( -1.621000000000000218, 1.985152461417859960E-16, -0.2188157520228695696 ) ) ;
#20 = EDGE_LOOP ( 'NONE', ( #232, #64, #370, #617 ) ) ;
#21 = CARTESIAN_POINT ( 'NONE',  ( -0.3409037357876247287, 3.500000000000000888, -0.2164741201938307213 ) ) ;
#22 = DIRECTION ( 'NONE',  ( 0.000000000000000000, 0.000000000000000000, 1.000000000000000000 ) ) ;
#23 = CLOSED_SHELL ( 'NONE', ( #385, #313, #367, #416, #250, #209, #61, #351, #287, #297, #463, #53, #35, #132, #625, #314, #289, #153 ) ) ;
#24 = CARTESIAN_POINT ( 'NONE',  ( 2.020725942163694278, -3.499999999999996891, -3.200000000000000178 ) ) ;
#25 = ORIENTED_EDGE ( 'NONE', *, *, #6, .F. ) ;
#26 = CARTESIAN_POINT ( 'NONE',  ( 0.6881932994280917093, 3.500000000000000888, -0.2466930940255663285 ) ) ;
#27 = FACE_OUTER_BOUND ( 'NONE', #237, .T. ) ;
#28 = EDGE_CURVE ( 'NONE', #435, #631, #621, .T. ) ;
#29 = CARTESIAN_POINT ( 'NONE',  ( -4.041451884327380562, 1.084202172485504434E-15, -2.670886257884255155 ) ) ;
#30 = ORIENTED_EDGE ( 'NONE', *, *, #548, .T. ) ;
#31 = CARTESIAN_POINT ( 'NONE',  ( -4.041451884327380562, 8.912381510800000806E-16, -3.200000000000000178 ) ) ;
#32 = VERTEX_POINT ( 'NONE', #139 ) ;
#33 =( LENGTH_UNIT ( ) NAMED_UNIT ( * ) SI_UNIT ( .MILLI., .METRE. ) );
#34 = CONICAL_SURFACE ( 'NONE', #249, 4.041451884327380562, 1.047197551196603849 ) ;
#35 = ADVANCED_FACE ( 'NONE', ( #583, #191 ), #395, .T. ) ;
#36 = ORIENTED_EDGE ( 'NONE', *, *, #491, .T. ) ;
#37 = CARTESIAN_POINT ( 'NONE',  ( -1.839815752022869955, 0.000000000000000000, -3.200000000000000178 ) ) ;
#38 = ORIENTED_EDGE ( 'NONE', *, *, #469, .T. ) ;
#39 = CARTESIAN_POINT ( 'NONE',  ( 0.000000000000000000, 0.000000000000000000, -2.670886257884255155 ) ) ;
#40 = ORIENTED_EDGE ( 'NONE', *, *, #82, .F. ) ;
#41 = SHAPE_DEFINITION_REPRESENTATION ( #163, #453 ) ;
#42 = CARTESIAN_POINT ( 'NONE',  ( -4.041451884327380562, 8.912381510800000806E-16, -3.200000000000000178 ) ) ;
#43 = ORIENTED_EDGE ( 'NONE', *, *, #169, .T. ) ;
#44 = PRESENTATION_LAYER_ASSIGNMENT (  '', '', ( #54 ) ) ;
#45 = CARTESIAN_POINT ( 'NONE',  ( 0.000000000000000000, 0.000000000000000000, 0.000000000000000000 ) ) ;
#46 = CARTESIAN_POINT ( 'NONE',  ( 3.709714250909805777, 0.5745864358618988366, -2.844947279000384466 ) ) ;
#47 = ORIENTED_EDGE ( 'NONE', *, *, #169, .F. ) ;
#48 = STYLED_ITEM ( 'NONE', ( #227 ), #381 ) ;
#49 = CARTESIAN_POINT ( 'NONE',  ( 2.685561099688578146, -2.348471728508840783, -0.2169450396288729321 ) ) ;
#50 = B_SPLINE_CURVE_WITH_KNOTS ( 'NONE', 3,
 ( #432, #533, #388, #483, #423, #89, #276, #280, #584, #619 ),
 .UNSPECIFIED., .F., .F.,
 ( 4, 2, 2, 2, 4 ),
 ( 0.003571969567252213009, 0.004594213952253971625, 0.005616458337255731542, 0.006638702722257489724, 0.007660947107259249642 ),
 .UNSPECIFIED. ) ;
#51 = DIRECTION ( 'NONE',  ( 1.000000000000000000, 0.000000000000000000, -0.000000000000000000 ) ) ;
#52 = MECHANICAL_DESIGN_GEOMETRIC_PRESENTATION_REPRESENTATION (  '', ( #328 ), #384 ) ;
#53 = ADVANCED_FACE ( 'NONE', ( #540, #338 ), #131, .F. ) ;
#54 = STYLED_ITEM ( 'NONE', ( #361 ), #250 ) ;
#55 = LINE ( 'NONE', #104, #60 ) ;
#56 = ORIENTED_EDGE ( 'NONE', *, *, #569, .T. ) ;
#57 = LINE ( 'NONE', #11, #7 ) ;
#58 = CARTESIAN_POINT ( 'NONE',  ( -2.689595490723103222, -2.341483958259435116, -0.2461228508920283164 ) ) ;
#59 = FILL_AREA_STYLE_COLOUR ( '', #200 ) ;
#60 = VECTOR ( 'NONE', #500, 1000.000000000000000 ) ;
#61 = ADVANCED_FACE ( 'NONE', ( #241 ), #295, .T. ) ;
#62 = DIRECTION ( 'NONE',  ( 1.000000000000000000, 0.000000000000000000, 0.000000000000000000 ) ) ;
#63 = CARTESIAN_POINT ( 'NONE',  ( 0.000000000000000000, 0.000000000000000000, -3.200000000000000178 ) ) ;
#64 = ORIENTED_EDGE ( 'NONE', *, *, #569, .F. ) ;
#65 = CARTESIAN_POINT ( 'NONE',  ( 3.711506096494206819, -0.5714828682704016227, -2.861380547308761457 ) ) ;
#66 = DIRECTION ( 'NONE',  ( 0.000000000000000000, 1.000000000000000000, -0.000000000000000000 ) ) ;
#67 = DIRECTION ( 'NONE',  ( 1.000000000000000000, 0.000000000000000000, 0.000000000000000000 ) ) ;
#68 = EDGE_LOOP ( 'NONE', ( #332, #485, #325, #56 ) ) ;
#69 = B_SPLINE_CURVE_WITH_KNOTS ( 'NONE', 3,
 ( #194, #239, #592, #291, #246, #399, #454, #495 ),
 .UNSPECIFIED., .F., .F.,
 ( 4, 2, 2, 4 ),
 ( 2.380739282169924720E-07, 0.002041062161438839898, 0.003061474205194151393, 0.004081886248949463322 ),
 .UNSPECIFIED. ) ;
#70 = CARTESIAN_POINT ( 'NONE',  ( -4.041451884327380562, 1.084202172485504434E-15, -2.670886257884255155 ) ) ;
#71 = DIRECTION ( 'NONE',  ( -0.000000000000000000, -0.000000000000000000, -1.000000000000000000 ) ) ;
#72 = DIRECTION ( 'NONE',  ( 1.000000000000000000, 0.000000000000000000, 0.000000000000000000 ) ) ;
#73 = CARTESIAN_POINT ( 'NONE',  ( 1.363140381544374335, 3.500000000000001776, -0.3562795956906182893 ) ) ;
#74 = FILL_AREA_STYLE ('',( #458 ) ) ;
#75 = CIRCLE ( 'NONE', #434, 1.621000000000000218 ) ;
#76 = CARTESIAN_POINT ( 'NONE',  ( -2.861219335805891717, 2.044222738785720139, -2.983711150902363940 ) ) ;
#77 = ORIENTED_EDGE ( 'NONE', *, *, #401, .F. ) ;
#78 = DIRECTION ( 'NONE',  ( 1.000000000000000000, 0.000000000000000000, 0.000000000000000000 ) ) ;
#79 = ORIENTED_EDGE ( 'NONE', *, *, #484, .F. ) ;
#80 = CARTESIAN_POINT ( 'NONE',  ( 0.000000000000000000, 0.000000000000000000, 0.000000000000000000 ) ) ;
#81 = LINE ( 'NONE', #37, #18 ) ;
#82 = EDGE_CURVE ( 'NONE', #270, #471, #499, .T. ) ;
#83 = ORIENTED_EDGE ( 'NONE', *, *, #586, .T. ) ;
#84 = ORIENTED_EDGE ( 'NONE', *, *, #347, .T. ) ;
#85 = APPLICATION_PROTOCOL_DEFINITION ( 'draft international standard', 'automotive_design', 1998, #546 ) ;
#86 = FACE_OUTER_BOUND ( 'NONE', #591, .T. ) ;
#87 = ORIENTED_EDGE ( 'NONE', *, *, #375, .T. ) ;
#88 = PRODUCT_CONTEXT ( 'NONE', #552, 'mechanical' ) ;
#89 = CARTESIAN_POINT ( 'NONE',  ( 0.3420490713162414043, 3.500000000000000888, -2.983461364204165189 ) ) ;
#90 = CARTESIAN_POINT ( 'NONE',  ( 4.041451884327381450, -2.951892231618361876E-15, -3.200000000000000178 ) ) ;
#91 = FILL_AREA_STYLE ('',( #223 ) ) ;
#92 = CONICAL_SURFACE ( 'NONE', #450, 1.621000000000000218, 1.047197551196598742 ) ;
#93 = ORIENTED_EDGE ( 'NONE', *, *, #474, .T. ) ;
#94 =( GEOMETRIC_REPRESENTATION_CONTEXT ( 3 ) GLOBAL_UNCERTAINTY_ASSIGNED_CONTEXT ( ( #608 ) ) GLOBAL_UNIT_ASSIGNED_CONTEXT ( ( #596, #503, #254 ) ) REPRESENTATION_CONTEXT ( 'NONE', 'WORKASPACE' ) );
#95 = ORIENTED_EDGE ( 'NONE', *, *, #145, .T. ) ;
#96 = CARTESIAN_POINT ( 'NONE',  ( -0.3409037357876819607, -3.499999999999997335, -2.983525879806167236 ) ) ;
#97 = EDGE_LOOP ( 'NONE', ( #84, #83 ) ) ;
#98 = CONICAL_SURFACE ( 'NONE', #180, 1.839815752022869955, 0.5235987755982975944 ) ;
#99 = CARTESIAN_POINT ( 'NONE',  ( 2.020725942163694278, -3.499999999999996891, -0.5291137421157459109 ) ) ;
#100 = DIRECTION ( 'NONE',  ( 0.000000000000000000, -0.000000000000000000, 1.000000000000000000 ) ) ;
#101 = CIRCLE ( 'NONE', #498, 2.000000000000003553 ) ;
#102 = CARTESIAN_POINT ( 'NONE',  ( 1.694094396866559160, -3.499999999999997335, -0.4348233368141787847 ) ) ;
#103 = LINE ( 'NONE', #19, #346 ) ;
#104 = CARTESIAN_POINT ( 'NONE',  ( 4.041451884327381450, -2.700270677595210257E-15, -3.200000000000000178 ) ) ;
#105 = PRESENTATION_STYLE_ASSIGNMENT (( #448 ) ) ;
#106 = CARTESIAN_POINT ( 'NONE',  ( -2.685561099688572817, -2.348471728508843004, -2.983054960371130715 ) ) ;
#107 = CARTESIAN_POINT ( 'NONE',  ( -2.185904412049187506, 3.213902497841835348, -2.766252091937507984 ) ) ;
#108 = CIRCLE ( 'NONE', #478, 1.839815752022869955 ) ;
#109 = CARTESIAN_POINT ( 'NONE',  ( -3.876273414441884668, -0.2860975021581668165, -2.766252091937508872 ) ) ;
#110 = SURFACE_STYLE_USAGE ( .BOTH. , #616 ) ;
#111 = CYLINDRICAL_SURFACE ( 'NONE', #329, 1.621000000000000218 ) ;
#112 = VERTEX_POINT ( 'NONE', #10 ) ;
#113 = CARTESIAN_POINT ( 'NONE',  ( -4.041451884327380562, 1.084202172485504434E-15, -2.670886257884255155 ) ) ;
#114 = CARTESIAN_POINT ( 'NONE',  ( 0.000000000000000000, 0.000000000000000000, -3.200000000000000178 ) ) ;
#115 = EDGE_LOOP ( 'NONE', ( #421, #601, #245, #629 ) ) ;
#116 = CARTESIAN_POINT ( 'NONE',  ( -3.709714250909806221, -0.5745864358618972823, -2.844947279000384910 ) ) ;
#117 = DIRECTION ( 'NONE',  ( -0.000000000000000000, -0.000000000000000000, -1.000000000000000000 ) ) ;
#118 = DIRECTION ( 'NONE',  ( 0.000000000000000000, 0.000000000000000000, 1.000000000000000000 ) ) ;
#119 = EDGE_LOOP ( 'NONE', ( #259, #318 ) ) ;
#120 =( LENGTH_UNIT ( ) NAMED_UNIT ( * ) SI_UNIT ( .MILLI., .METRE. ) );
#121 = DIRECTION ( 'NONE',  ( -0.5000000000000001110, -0.8660254037844385966, 0.000000000000000000 ) ) ;
#122 = EDGE_LOOP ( 'NONE', ( #264, #288, #412, #93 ) ) ;
#123 = CARTESIAN_POINT ( 'NONE',  ( 2.861219335805896602, -2.044222738785716587, -2.983711150902362608 ) ) ;
#124 = CARTESIAN_POINT ( 'NONE',  ( -0.3409037357876792407, -3.499999999999997335, -0.2164741201938341353 ) ) ;
#125 = VERTEX_POINT ( 'NONE', #550 ) ;
#126 = B_SPLINE_CURVE_WITH_KNOTS ( 'NONE', 3,
 ( #156, #65, #511, #123, #311, #266, #607, #462 ),
 .UNSPECIFIED., .F., .F.,
 ( 4, 2, 2, 4 ),
 ( 2.380739282151404345E-07, 0.002041062161438832092, 0.003061474205194140551, 0.004081886248949449444 ),
 .UNSPECIFIED. ) ;
#127 = PRESENTATION_LAYER_ASSIGNMENT (  '', '', ( #48 ) ) ;
#128 = ORIENTED_EDGE ( 'NONE', *, *, #493, .T. ) ;
#129 = EDGE_LOOP ( 'NONE', ( #47, #623, #479, #496 ) ) ;
#130 = DIRECTION ( 'NONE',  ( 0.8660254037844415942, 1.060575238724910613E-16, -0.4999999999999949485 ) ) ;
#131 = PLANE ( 'NONE',  #528 ) ;
#132 = ADVANCED_FACE ( 'NONE', ( #203 ), #111, .F. ) ;
#133 = CARTESIAN_POINT ( 'NONE',  ( 1.839815752022869955, 2.253124471735688249E-16, -3.200000000000000178 ) ) ;
#134 = ORIENTED_EDGE ( 'NONE', *, *, #510, .F. ) ;
#135 = MECHANICAL_DESIGN_GEOMETRIC_PRESENTATION_REPRESENTATION (  '', ( #48 ), #424 ) ;
#136 = CARTESIAN_POINT ( 'NONE',  ( 2.350671729996863579, 2.928517131729600376, -2.861380547308765010 ) ) ;
#137 = EDGE_CURVE ( 'NONE', #389, #3, #373, .T. ) ;
#138 = CARTESIAN_POINT ( 'NONE',  ( 2.020725942163694278, -3.499999999999996891, -2.670886257884255155 ) ) ;
#139 = CARTESIAN_POINT ( 'NONE',  ( 1.621000000000000218, 0.000000000000000000, -0.2188157520228695696 ) ) ;
#140 = CARTESIAN_POINT ( 'NONE',  ( 0.000000000000000000, 0.000000000000000000, -4.336808689942017736E-16 ) ) ;
#141 = CARTESIAN_POINT ( 'NONE',  ( 3.200958490685176017, 1.455777261214282525, -2.983711150902363940 ) ) ;
#142 = DIRECTION ( 'NONE',  ( 0.000000000000000000, -0.000000000000000000, 1.000000000000000000 ) ) ;
#143 = EDGE_CURVE ( 'NONE', #211, #15, #466, .T. ) ;
#144 = VECTOR ( 'NONE', #160, 1000.000000000000000 ) ;
#145 = EDGE_CURVE ( 'NONE', #15, #211, #537, .T. ) ;
#146 = CARTESIAN_POINT ( 'NONE',  ( -4.041451884327380562, 0.000000000000000000, -0.5291137421157459109 ) ) ;
#147 = CARTESIAN_POINT ( 'NONE',  ( -3.200958490685178681, -1.455777261214282303, -2.983711150902365716 ) ) ;
#148 = DIRECTION ( 'NONE',  ( 1.000000000000000000, 0.000000000000000000, 0.000000000000000000 ) ) ;
#149 = EDGE_LOOP ( 'NONE', ( #418, #310, #186, #281, #439, #38 ) ) ;
#150 = CARTESIAN_POINT ( 'NONE',  ( -1.692077593331106078, 3.500000000000001332, -0.4342411357821225337 ) ) ;
#151 = PLANE ( 'NONE',  #542 ) ;
#152 = AXIS2_PLACEMENT_3D ( 'NONE', #312, #420, #271 ) ;
#153 = ADVANCED_FACE ( 'NONE', ( #451 ), #184, .F. ) ;
#154 = DIRECTION ( 'NONE',  ( 1.000000000000000000, 0.000000000000000000, 0.000000000000000000 ) ) ;
#155 = ORIENTED_EDGE ( 'NONE', *, *, #285, .T. ) ;
#156 = CARTESIAN_POINT ( 'NONE',  ( 4.041451884327380562, 4.336808689942017736E-16, -2.670886257884255155 ) ) ;
#157 = SURFACE_STYLE_FILL_AREA ( #74 ) ;
#158 = AXIS2_PLACEMENT_3D ( 'NONE', #24, #216, #613 ) ;
#159 = EDGE_CURVE ( 'NONE', #112, #631, #353, .T. ) ;
#160 = DIRECTION ( 'NONE',  ( 0.000000000000000000, 0.000000000000000000, 1.000000000000000000 ) ) ;
#161 = CARTESIAN_POINT ( 'NONE',  ( 0.000000000000000000, 0.000000000000000000, -2.670886257884255155 ) ) ;
#162 = DIRECTION ( 'NONE',  ( 0.000000000000000000, 0.000000000000000000, 1.000000000000000000 ) ) ;
#163 = PRODUCT_DEFINITION_SHAPE ( 'NONE', 'NONE',  #447 ) ;
#164 = CARTESIAN_POINT ( 'NONE',  ( 3.125000000000000000, 4.391553170292665580E-16, -4.336808689942017736E-16 ) ) ;
#165 = VERTEX_POINT ( 'NONE', #407 ) ;
#166 = CARTESIAN_POINT ( 'NONE',  ( -3.200958490685177349, 1.455777261214283413, -0.2162888490976368761 ) ) ;
#167 = EDGE_LOOP ( 'NONE', ( #575, #36, #475, #627 ) ) ;
#168 = CIRCLE ( 'NONE', #391, 3.125000000000000000 ) ;
#169 = EDGE_CURVE ( 'NONE', #185, #554, #103, .T. ) ;
#170 = CARTESIAN_POINT ( 'NONE',  ( -1.355368144264231356, -3.499999999999997335, -0.3546355007543841031 ) ) ;
#171 = EDGE_CURVE ( 'NONE', #181, #176, #357, .T. ) ;
#172 = EDGE_CURVE ( 'NONE', #32, #185, #75, .T. ) ;
#173 = AXIS2_PLACEMENT_3D ( 'NONE', #400, #456, #154 ) ;
#174 = ORIENTED_EDGE ( 'NONE', *, *, #143, .T. ) ;
#175 = DIRECTION ( 'NONE',  ( 0.5000000000000003331, -0.8660254037844384856, 0.000000000000000000 ) ) ;
#176 = VERTEX_POINT ( 'NONE', #563 ) ;
#177 = DIRECTION ( 'NONE',  ( 1.000000000000000000, 0.000000000000000000, 0.000000000000000000 ) ) ;
#178 = UNCERTAINTY_MEASURE_WITH_UNIT (LENGTH_MEASURE( 1.000000000000000082E-05 ), #187, 'distance_accuracy_value', 'NONE');
#179 = EDGE_CURVE ( 'NONE', #125, #165, #258, .T. ) ;
#180 = AXIS2_PLACEMENT_3D ( 'NONE', #253, #261, #566 ) ;
#181 = VERTEX_POINT ( 'NONE', #513 ) ;
#182 = SURFACE_STYLE_USAGE ( .BOTH. , #530 ) ;
#183 = LINE ( 'NONE', #378, #336 ) ;
#184 = CONICAL_SURFACE ( 'NONE', #452, 1.621000000000000218, 1.047197551196598742 ) ;
#185 = VERTEX_POINT ( 'NONE', #263 ) ;
#186 = ORIENTED_EDGE ( 'NONE', *, *, #82, .T. ) ;
#187 =( LENGTH_UNIT ( ) NAMED_UNIT ( * ) SI_UNIT ( .MILLI., .METRE. ) );
#188 = CARTESIAN_POINT ( 'NONE',  ( 3.876273414441882004, 0.2860975021581685374, -2.766252091937508872 ) ) ;
#189 = CIRCLE ( 'NONE', #487, 3.125000000000000000 ) ;
#190 = CIRCLE ( 'NONE', #557, 2.000000000000003553 ) ;
#191 = FACE_OUTER_BOUND ( 'NONE', #224, .T. ) ;
#192 = CARTESIAN_POINT ( 'NONE',  ( -2.861219335805889941, -2.044222738785718363, -0.2162888490976363487 ) ) ;
#193 = DIRECTION ( 'NONE',  ( 1.000000000000000000, 1.073081856240827210E-16, 0.000000000000000000 ) ) ;
#194 = CARTESIAN_POINT ( 'NONE',  ( 4.041451884327381450, -2.700270677595210257E-15, -0.5291137421157459109 ) ) ;
#195 = CARTESIAN_POINT ( 'NONE',  ( 1.621000000000000218, 0.000000000000000000, -3.200000000000000178 ) ) ;
#196 = CARTESIAN_POINT ( 'NONE',  ( 0.6881932994279342797, -3.499999999999996447, -2.953306905974456775 ) ) ;
#197 = VECTOR ( 'NONE', #222, 1000.000000000000114 ) ;
#198 = EDGE_CURVE ( 'NONE', #211, #32, #465, .T. ) ;
#199 = CARTESIAN_POINT ( 'NONE',  ( -3.125000000000000000, 0.000000000000000000, -4.336808689942017736E-16 ) ) ;
#200 = COLOUR_RGB ( '',0.7764705882352941346, 0.7568627450980391913, 0.7372549019607843590 ) ;
#201 = CARTESIAN_POINT ( 'NONE',  ( 0.000000000000000000, 0.000000000000000000, -3.200000000000000178 ) ) ;
#202 = CYLINDRICAL_SURFACE ( 'NONE', #581, 1.621000000000000218 ) ;
#203 = FACE_OUTER_BOUND ( 'NONE', #278, .T. ) ;
#204 = CARTESIAN_POINT ( 'NONE',  ( -4.041451884327380562, 0.000000000000000000, -0.5291137421157459109 ) ) ;
#205 = DIRECTION ( 'NONE',  ( 0.8660254037844417052, 0.000000000000000000, 0.4999999999999947264 ) ) ;
#206 = VERTEX_POINT ( 'NONE', #164 ) ;
#207 = FACE_OUTER_BOUND ( 'NONE', #380, .T. ) ;
#208 = AXIS2_PLACEMENT_3D ( 'NONE', #17, #71, #219 ) ;
#209 = ADVANCED_FACE ( 'NONE', ( #417 ), #220, .T. ) ;
#210 = CARTESIAN_POINT ( 'NONE',  ( 0.000000000000000000, 0.000000000000000000, -2.820999999999996177 ) ) ;
#211 = VERTEX_POINT ( 'NONE', #315 ) ;
#212 = PRESENTATION_LAYER_ASSIGNMENT (  '', '', ( #328 ) ) ;
#213 = CARTESIAN_POINT ( 'NONE',  ( 0.000000000000000000, 0.000000000000000000, -3.200000000000000178 ) ) ;
#214 = FACE_OUTER_BOUND ( 'NONE', #68, .T. ) ;
#215 = VECTOR ( 'NONE', #22, 1000.000000000000000 ) ;
#216 = DIRECTION ( 'NONE',  ( 0.8660254037844385966, -0.5000000000000001110, 0.000000000000000000 ) ) ;
#217 = VERTEX_POINT ( 'NONE', #470 ) ;
#218 = CARTESIAN_POINT ( 'NONE',  ( 4.041451884327380562, 4.336808689942017736E-16, -2.670886257884255155 ) ) ;
#219 = DIRECTION ( 'NONE',  ( -1.000000000000000000, 0.000000000000000000, 0.000000000000000000 ) ) ;
#220 = PLANE ( 'NONE',  #158 ) ;
#221 = ORIENTED_EDGE ( 'NONE', *, *, #172, .T. ) ;
#222 = DIRECTION ( 'NONE',  ( 0.8660254037844390407, 0.000000000000000000, 0.4999999999999991118 ) ) ;
#223 = FILL_AREA_STYLE_COLOUR ( '', #324 ) ;
#224 = EDGE_LOOP ( 'NONE', ( #532, #134 ) ) ;
#225 = FACE_OUTER_BOUND ( 'NONE', #290, .T. ) ;
#226 = ORIENTED_EDGE ( 'NONE', *, *, #387, .T. ) ;
#227 = PRESENTATION_STYLE_ASSIGNMENT (( #427 ) ) ;
#228 = EDGE_CURVE ( 'NONE', #534, #125, #339, .T. ) ;
#229 = ORIENTED_EDGE ( 'NONE', *, *, #28, .F. ) ;
#230 = DIRECTION ( 'NONE',  ( -0.000000000000000000, -0.000000000000000000, -1.000000000000000000 ) ) ;
#231 = UNCERTAINTY_MEASURE_WITH_UNIT (LENGTH_MEASURE( 1.000000000000000082E-05 ), #468, 'distance_accuracy_value', 'NONE');
#232 = ORIENTED_EDGE ( 'NONE', *, *, #527, .F. ) ;
#233 = DIRECTION ( 'NONE',  ( -0.4999999999999988898, 0.000000000000000000, -0.8660254037844392627 ) ) ;
#234 = EDGE_LOOP ( 'NONE', ( #481, #272 ) ) ;
#235 = PRODUCT_DEFINITION_CONTEXT ( 'detailed design', #546, 'design' ) ;
#236 = EDGE_CURVE ( 'NONE', #587, #534, #556, .T. ) ;
#237 = EDGE_LOOP ( 'NONE', ( #330, #494, #77, #614 ) ) ;
#238 = CARTESIAN_POINT ( 'NONE',  ( 2.020725942163686728, 3.500000000000001332, -2.670886257884255599 ) ) ;
#239 = CARTESIAN_POINT ( 'NONE',  ( 3.711506096494204598, 0.5714828682703991802, -0.3386194526912372771 ) ) ;
#240 = AXIS2_PLACEMENT_3D ( 'NONE', #161, #363, #522 ) ;
#241 = FACE_OUTER_BOUND ( 'NONE', #573, .T. ) ;
#242 = COLOUR_RGB ( '',0.7764705882352941346, 0.7568627450980391913, 0.7372549019607843590 ) ;
#243 = AXIS2_PLACEMENT_3D ( 'NONE', #45, #630, #377 ) ;
#244 = CARTESIAN_POINT ( 'NONE',  ( -0.6802644081094617601, -3.499999999999998668, -2.954203104872971331 ) ) ;
#245 = ORIENTED_EDGE ( 'NONE', *, *, #366, .T. ) ;
#246 = CARTESIAN_POINT ( 'NONE',  ( 2.689595490723103666, 2.341483958259434228, -0.2461228508920282609 ) ) ;
#247 = B_SPLINE_CURVE_WITH_KNOTS ( 'NONE', 3,
 ( #612, #273, #73, #26, #307, #21, #507, #414, #150, #565 ),
 .UNSPECIFIED., .F., .F.,
 ( 4, 2, 2, 2, 4 ),
 ( 0.008992347827899076912, 0.01001598420609441098, 0.01103962058428974505, 0.01206325696248507912, 0.01308689334068041318 ),
 .UNSPECIFIED. ) ;
#248 = CARTESIAN_POINT ( 'NONE',  ( -2.350671729996863135, -2.928517131729600820, -2.861380547308764122 ) ) ;
#249 = AXIS2_PLACEMENT_3D ( 'NONE', #39, #331, #282 ) ;
#250 = ADVANCED_FACE ( 'NONE', ( #9 ), #202, .F. ) ;
#251 = DIRECTION ( 'NONE',  ( 1.000000000000000000, 0.000000000000000000, 0.000000000000000000 ) ) ;
#252 = CARTESIAN_POINT ( 'NONE',  ( 4.041451884327381450, -2.700270677595210257E-15, -0.5291137421157459109 ) ) ;
#253 = CARTESIAN_POINT ( 'NONE',  ( 0.000000000000000000, 0.000000000000000000, -3.200000000000000178 ) ) ;
#254 =( NAMED_UNIT ( * ) SI_UNIT ( $, .STERADIAN. ) SOLID_ANGLE_UNIT ( ) );
#255 = PRODUCT_RELATED_PRODUCT_CATEGORY ( 'part', '', ( #265 ) ) ;
#256 = CARTESIAN_POINT ( 'NONE',  ( -2.000000000000003553, 2.449293598294710852E-16, 0.000000000000000000 ) ) ;
#257 = DIRECTION ( 'NONE',  ( -1.000000000000000000, 0.000000000000000000, 0.000000000000000000 ) ) ;
#258 = LINE ( 'NONE', #459, #144 ) ;
#259 = ORIENTED_EDGE ( 'NONE', *, *, #6, .T. ) ;
#260 = DIRECTION ( 'NONE',  ( 0.000000000000000000, 0.000000000000000000, 1.000000000000000000 ) ) ;
#261 = DIRECTION ( 'NONE',  ( -0.000000000000000000, -0.000000000000000000, -1.000000000000000000 ) ) ;
#262 = AXIS2_PLACEMENT_3D ( 'NONE', #599, #505, #121 ) ;
#263 = CARTESIAN_POINT ( 'NONE',  ( -1.621000000000000218, 1.985152461417859960E-16, -0.2188157520228695696 ) ) ;
#264 = ORIENTED_EDGE ( 'NONE', *, *, #469, .F. ) ;
#265 = PRODUCT ( 'M4ÂÝÄ¸', 'M4ÂÝÄ¸', '', ( #88 ) ) ;
#266 = CARTESIAN_POINT ( 'NONE',  ( 2.352463575581269506, -2.925413564138100497, -2.844947279000384022 ) ) ;
#267 = DIRECTION ( 'NONE',  ( 0.000000000000000000, 0.000000000000000000, 1.000000000000000000 ) ) ;
#268 = EDGE_CURVE ( 'NONE', #435, #275, #455, .T. ) ;
#269 = CARTESIAN_POINT ( 'NONE',  ( -2.352463575581264621, 2.925413564138103606, -2.844947279000384910 ) ) ;
#270 = VERTEX_POINT ( 'NONE', #406 ) ;
#271 = DIRECTION ( 'NONE',  ( -1.000000000000000000, 0.000000000000000000, 0.000000000000000000 ) ) ;
#272 = ORIENTED_EDGE ( 'NONE', *, *, #137, .T. ) ;
#273 = CARTESIAN_POINT ( 'NONE',  ( 1.694094396866567154, 3.500000000000002220, -0.4348233368141835031 ) ) ;
#274 = DIRECTION ( 'NONE',  ( -0.8660254037844384856, -0.5000000000000003331, 0.000000000000000000 ) ) ;
#275 = VERTEX_POINT ( 'NONE', #12 ) ;
#276 = CARTESIAN_POINT ( 'NONE',  ( 0.6881932994280912652, 3.500000000000001332, -2.953306905974434127 ) ) ;
#277 = AXIS2_PLACEMENT_3D ( 'NONE', #213, #422, #16 ) ;
#278 = EDGE_LOOP ( 'NONE', ( #425, #95, #408, #221 ) ) ;
#279 = EDGE_CURVE ( 'NONE', #185, #32, #296, .T. ) ;
#280 = CARTESIAN_POINT ( 'NONE',  ( 1.363140381544374558, 3.500000000000001332, -2.843720404309383554 ) ) ;
#281 = ORIENTED_EDGE ( 'NONE', *, *, #527, .T. ) ;
#282 = DIRECTION ( 'NONE',  ( 1.000000000000000000, 0.000000000000000000, 0.000000000000000000 ) ) ;
#283 = CARTESIAN_POINT ( 'NONE',  ( -2.020725942163689837, -3.499999999999997335, -3.200000000000000178 ) ) ;
#284 = CIRCLE ( 'NONE', #277, 3.125000000000000000 ) ;
#285 = EDGE_CURVE ( 'NONE', #15, #185, #369, .T. ) ;
#286 =( GEOMETRIC_REPRESENTATION_CONTEXT ( 3 ) GLOBAL_UNCERTAINTY_ASSIGNED_CONTEXT ( ( #231 ) ) GLOBAL_UNIT_ASSIGNED_CONTEXT ( ( #468, #352, #512 ) ) REPRESENTATION_CONTEXT ( 'NONE', 'WORKASPACE' ) );
#287 = ADVANCED_FACE ( 'NONE', ( #214 ), #519, .T. ) ;
#288 = ORIENTED_EDGE ( 'NONE', *, *, #404, .F. ) ;
#289 = ADVANCED_FACE ( 'NONE', ( #364 ), #98, .F. ) ;
#290 = EDGE_LOOP ( 'NONE', ( #226, #87, #128, #436, #374, #40 ) ) ;
#291 = CARTESIAN_POINT ( 'NONE',  ( 2.861219335805890385, 2.044222738785717919, -0.2162888490976362932 ) ) ;
#292 = DIRECTION ( 'NONE',  ( -0.000000000000000000, 0.000000000000000000, -1.000000000000000000 ) ) ;
#293 = VECTOR ( 'NONE', #130, 999.9999999999998863 ) ;
#294 = CARTESIAN_POINT ( 'NONE',  ( 2.020725942163686728, 3.500000000000001332, -2.670886257884255599 ) ) ;
#295 = PLANE ( 'NONE',  #517 ) ;
#296 = CIRCLE ( 'NONE', #461, 1.621000000000000218 ) ;
#297 = ADVANCED_FACE ( 'NONE', ( #27 ), #151, .T. ) ;
#298 = CARTESIAN_POINT ( 'NONE',  ( 3.709714250909809330, -0.5745864358618996137, -0.3550527209996180433 ) ) ;
#299 = CARTESIAN_POINT ( 'NONE',  ( -2.020725942163689837, -3.499999999999997335, -3.200000000000000178 ) ) ;
#300 = DIRECTION ( 'NONE',  ( -0.5000000000000005551, 0.8660254037844382635, 0.000000000000000000 ) ) ;
#301 = CARTESIAN_POINT ( 'NONE',  ( -1.692077593331102081, -3.499999999999997780, -2.765758864217881641 ) ) ;
#302 = CARTESIAN_POINT ( 'NONE',  ( -1.621000000000000218, 1.985152461417859960E-16, -3.200000000000000178 ) ) ;
#303 = DIRECTION ( 'NONE',  ( 0.000000000000000000, 0.000000000000000000, 1.000000000000000000 ) ) ;
#304 = EDGE_LOOP ( 'NONE', ( #174, #155, #397, #376 ) ) ;
#305 = FACE_OUTER_BOUND ( 'NONE', #149, .T. ) ;
#306 = CARTESIAN_POINT ( 'NONE',  ( 0.000000000000000000, 0.000000000000000000, -0.2188157520228695696 ) ) ;
#307 = CARTESIAN_POINT ( 'NONE',  ( 0.3420490713162419039, 3.500000000000001332, -0.2165386357958357377 ) ) ;
#308 = DIRECTION ( 'NONE',  ( 1.000000000000000000, 0.000000000000000000, 0.000000000000000000 ) ) ;
#309 = DIRECTION ( 'NONE',  ( 1.000000000000000000, 0.000000000000000000, 0.000000000000000000 ) ) ;
#310 = ORIENTED_EDGE ( 'NONE', *, *, #510, .T. ) ;
#311 = CARTESIAN_POINT ( 'NONE',  ( 2.689595490723109439, -2.341483958259432008, -2.953877149107972055 ) ) ;
#312 = CARTESIAN_POINT ( 'NONE',  ( 0.000000000000000000, 0.000000000000000000, -3.200000000000000178 ) ) ;
#313 = ADVANCED_FACE ( 'NONE', ( #356 ), #553, .F. ) ;
#314 = ADVANCED_FACE ( 'NONE', ( #305 ), #525, .T. ) ;
#315 = CARTESIAN_POINT ( 'NONE',  ( 1.621000000000000218, 0.000000000000000000, -2.820999999999996177 ) ) ;
#316 = ORIENTED_EDGE ( 'NONE', *, *, #586, .F. ) ;
#317 = DIRECTION ( 'NONE',  ( 0.000000000000000000, 0.000000000000000000, 1.000000000000000000 ) ) ;
#318 = ORIENTED_EDGE ( 'NONE', *, *, #626, .T. ) ;
#319 = CARTESIAN_POINT ( 'NONE',  ( -3.125000000000000000, 4.391553170292664594E-16, -3.200000000000000178 ) ) ;
#320 = CARTESIAN_POINT ( 'NONE',  ( 0.3420490713160945773, -3.499999999999996447, -0.2165386357958276053 ) ) ;
#321 = ORIENTED_EDGE ( 'NONE', *, *, #236, .F. ) ;
#322 =( NAMED_UNIT ( * ) PLANE_ANGLE_UNIT ( ) SI_UNIT ( $, .RADIAN. ) );
#323 =( NAMED_UNIT ( * ) SI_UNIT ( $, .STERADIAN. ) SOLID_ANGLE_UNIT ( ) );
#324 = COLOUR_RGB ( '',0.7764705882352941346, 0.7568627450980391913, 0.7372549019607843590 ) ;
#325 = ORIENTED_EDGE ( 'NONE', *, *, #228, .F. ) ;
#326 = B_SPLINE_CURVE_WITH_KNOTS ( 'NONE', 3,
 ( #138, #8, #2, #196, #402, #96, #244, #590, #301, #393 ),
 .UNSPECIFIED., .F., .F.,
 ( 4, 2, 2, 2, 4 ),
 ( 0.008992347827912808983, 0.01001598420610820030, 0.01103962058430359161, 0.01206325696249898466, 0.01308689334069437771 ),
 .UNSPECIFIED. ) ;
#327 = FACE_OUTER_BOUND ( 'NONE', #433, .T. ) ;
#328 = STYLED_ITEM ( 'NONE', ( #335 ), #453 ) ;
#329 = AXIS2_PLACEMENT_3D ( 'NONE', #114, #303, #67 ) ;
#330 = ORIENTED_EDGE ( 'NONE', *, *, #602, .F. ) ;
#331 = DIRECTION ( 'NONE',  ( 0.000000000000000000, 0.000000000000000000, 1.000000000000000000 ) ) ;
#332 = ORIENTED_EDGE ( 'NONE', *, *, #640, .F. ) ;
#333 = LINE ( 'NONE', #582, #293 ) ;
#334 = ORIENTED_EDGE ( 'NONE', *, *, #279, .F. ) ;
#335 = PRESENTATION_STYLE_ASSIGNMENT (( #182 ) ) ;
#336 = VECTOR ( 'NONE', #531, 1000.000000000000000 ) ;
#337 = VECTOR ( 'NONE', #515, 1000.000000000000000 ) ;
#338 = FACE_OUTER_BOUND ( 'NONE', #97, .T. ) ;
#339 = B_SPLINE_CURVE_WITH_KNOTS ( 'NONE', 3,
 ( #29, #516, #365, #76, #567, #269, #107, #561 ),
 .UNSPECIFIED., .F., .F.,
 ( 4, 2, 2, 4 ),
 ( 2.380739282170055481E-07, 0.002041062161438836429, 0.003061474205194146189, 0.004081886248949457251 ),
 .UNSPECIFIED. ) ;
#340 = CARTESIAN_POINT ( 'NONE',  ( 3.372582335767967621, -1.158516041740567548, -0.2461228508920304259 ) ) ;
#341 = ORIENTED_EDGE ( 'NONE', *, *, #228, .T. ) ;
#342 = CARTESIAN_POINT ( 'NONE',  ( 2.020725942163694278, -3.499999999999996891, -0.5291137421157459109 ) ) ;
#343 = DIRECTION ( 'NONE',  ( 1.000000000000000000, 0.000000000000000000, 0.000000000000000000 ) ) ;
#344 = DIRECTION ( 'NONE',  ( -1.000000000000000000, 0.000000000000000000, 0.000000000000000000 ) ) ;
#345 = SURFACE_STYLE_FILL_AREA ( #410 ) ;
#346 = VECTOR ( 'NONE', #605, 1000.000000000000114 ) ;
#347 = EDGE_CURVE ( 'NONE', #112, #587, #438, .T. ) ;
#348 = CARTESIAN_POINT ( 'NONE',  ( -3.711506096494203710, -0.5714828682704010676, -0.3386194526912365554 ) ) ;
#349 = DIRECTION ( 'NONE',  ( -0.000000000000000000, -0.000000000000000000, -1.000000000000000000 ) ) ;
#350 = CARTESIAN_POINT ( 'NONE',  ( 1.363140381544335478, -3.499999999999997335, -0.3562795956906046335 ) ) ;
#351 = ADVANCED_FACE ( 'NONE', ( #624 ), #480, .T. ) ;
#352 =( NAMED_UNIT ( * ) PLANE_ANGLE_UNIT ( ) SI_UNIT ( $, .RADIAN. ) );
#353 = LINE ( 'NONE', #14, #545 ) ;
#354 = AXIS2_PLACEMENT_3D ( 'NONE', #508, #117, #257 ) ;
#355 = CARTESIAN_POINT ( 'NONE',  ( -3.709714250909806221, 0.5745864358618990586, -0.3550527209996166000 ) ) ;
#356 = FACE_OUTER_BOUND ( 'NONE', #167, .T. ) ;
#357 = LINE ( 'NONE', #299, #595 ) ;
#358 =( GEOMETRIC_REPRESENTATION_CONTEXT ( 3 ) GLOBAL_UNCERTAINTY_ASSIGNED_CONTEXT ( ( #520 ) ) GLOBAL_UNIT_ASSIGNED_CONTEXT ( ( #120, #371, #555 ) ) REPRESENTATION_CONTEXT ( 'NONE', 'WORKASPACE' ) );
#359 = AXIS2_PLACEMENT_3D ( 'NONE', #547, #349, #72 ) ;
#360 = LINE ( 'NONE', #409, #197 ) ;
#361 = PRESENTATION_STYLE_ASSIGNMENT (( #110 ) ) ;
#362 = ORIENTED_EDGE ( 'NONE', *, *, #159, .T. ) ;
#363 = DIRECTION ( 'NONE',  ( 0.000000000000000000, 0.000000000000000000, 1.000000000000000000 ) ) ;
#364 = FACE_OUTER_BOUND ( 'NONE', #115, .T. ) ;
#365 = CARTESIAN_POINT ( 'NONE',  ( -3.376616726802496693, 1.151528271491159439, -2.983054960371128939 ) ) ;
#366 = EDGE_CURVE ( 'NONE', #15, #3, #81, .T. ) ;
#367 = ADVANCED_FACE ( 'NONE', ( #225 ), #379, .T. ) ;
#368 = CARTESIAN_POINT ( 'NONE',  ( -3.372582335767964068, 1.158516041740567104, -0.2461228508920289271 ) ) ;
#369 = LINE ( 'NONE', #302, #636 ) ;
#370 = ORIENTED_EDGE ( 'NONE', *, *, #529, .F. ) ;
#371 =( NAMED_UNIT ( * ) PLANE_ANGLE_UNIT ( ) SI_UNIT ( $, .RADIAN. ) );
#372 = CARTESIAN_POINT ( 'NONE',  ( 0.000000000000000000, 0.000000000000000000, -0.2188157520228695696 ) ) ;
#373 = CIRCLE ( 'NONE', #173, 1.839815752022869955 ) ;
#374 = ORIENTED_EDGE ( 'NONE', *, *, #640, .T. ) ;
#375 = EDGE_CURVE ( 'NONE', #206, #460, #333, .T. ) ;
#376 = ORIENTED_EDGE ( 'NONE', *, *, #198, .F. ) ;
#377 = DIRECTION ( 'NONE',  ( 1.000000000000000000, 0.000000000000000000, 0.000000000000000000 ) ) ;
#378 = CARTESIAN_POINT ( 'NONE',  ( 2.020725942163694278, -3.499999999999996891, -3.200000000000000178 ) ) ;
#379 = CONICAL_SURFACE ( 'NONE', #604, 3.125000000000000000, 1.047197551196603627 ) ;
#380 = EDGE_LOOP ( 'NONE', ( #321, #589, #362, #30, #524, #536 ) ) ;
#381 = MANIFOLD_SOLID_BREP ( 'EndChamfer', #23 ) ;
#382 = APPLICATION_PROTOCOL_DEFINITION ( 'draft international standard', 'automotive_design', 1998, #552 ) ;
#383 = CARTESIAN_POINT ( 'NONE',  ( 0.000000000000000000, 0.000000000000000000, -4.336808689942017736E-16 ) ) ;
#384 =( GEOMETRIC_REPRESENTATION_CONTEXT ( 3 ) GLOBAL_UNCERTAINTY_ASSIGNED_CONTEXT ( ( #178 ) ) GLOBAL_UNIT_ASSIGNED_CONTEXT ( ( #187, #322, #431 ) ) REPRESENTATION_CONTEXT ( 'NONE', 'WORKASPACE' ) );
#385 = ADVANCED_FACE ( 'NONE', ( #327 ), #92, .F. ) ;
#386 = CARTESIAN_POINT ( 'NONE',  ( 4.041451884327381450, -2.951892231618361876E-15, 0.000000000000000000 ) ) ;
#387 = EDGE_CURVE ( 'NONE', #270, #206, #168, .T. ) ;
#388 = CARTESIAN_POINT ( 'NONE',  ( -1.355368144264248231, 3.500000000000001776, -2.845364499245612855 ) ) ;
#389 = VERTEX_POINT ( 'NONE', #133 ) ;
#390 = CARTESIAN_POINT ( 'NONE',  ( 3.372582335767963624, 1.158516041740567326, -2.953877149107972500 ) ) ;
#391 = AXIS2_PLACEMENT_3D ( 'NONE', #383, #526, #523 ) ;
#392 = B_SPLINE_CURVE_WITH_KNOTS ( 'NONE', 3,
 ( #639, #248, #106, #147, #504, #116, #109, #70 ),
 .UNSPECIFIED., .F., .F.,
 ( 4, 2, 2, 4 ),
 ( 2.380739282122111034E-07, 0.002041062161438832959, 0.003061474205194143587, 0.004081886248949454649 ),
 .UNSPECIFIED. ) ;
#393 = CARTESIAN_POINT ( 'NONE',  ( -2.020725942163687616, -3.500000000000001776, -2.670886257884255155 ) ) ;
#394 = CONICAL_SURFACE ( 'NONE', #240, 4.041451884327380562, 1.047197551196603849 ) ;
#395 = PLANE ( 'NONE',  #610 ) ;
#396 = CARTESIAN_POINT ( 'NONE',  ( 4.041451884327381450, -2.700270677595210257E-15, -3.200000000000000178 ) ) ;
#397 = ORIENTED_EDGE ( 'NONE', *, *, #279, .T. ) ;
#398 = DIRECTION ( 'NONE',  ( 0.8660254037844383745, 0.5000000000000006661, -0.000000000000000000 ) ) ;
#399 = CARTESIAN_POINT ( 'NONE',  ( 2.352463575581261956, 2.925413564138103162, -0.3550527209996161560 ) ) ;
#400 = CARTESIAN_POINT ( 'NONE',  ( 0.000000000000000000, 0.000000000000000000, -3.200000000000000178 ) ) ;
#401 = EDGE_CURVE ( 'NONE', #125, #435, #50, .T. ) ;
#402 = CARTESIAN_POINT ( 'NONE',  ( 0.3420490713160922458, -3.499999999999996891, -2.983461364204173183 ) ) ;
#403 = DIRECTION ( 'NONE',  ( 0.000000000000000000, 0.000000000000000000, 1.000000000000000000 ) ) ;
#404 = EDGE_CURVE ( 'NONE', #217, #430, #183, .T. ) ;
#405 = DIRECTION ( 'NONE',  ( -0.000000000000000000, -0.000000000000000000, -1.000000000000000000 ) ) ;
#406 = CARTESIAN_POINT ( 'NONE',  ( -3.125000000000000000, 0.000000000000000000, -4.336808689942017736E-16 ) ) ;
#407 = CARTESIAN_POINT ( 'NONE',  ( -2.020725942163687616, 3.500000000000001332, -0.5291137421157459109 ) ) ;
#408 = ORIENTED_EDGE ( 'NONE', *, *, #198, .T. ) ;
#409 = CARTESIAN_POINT ( 'NONE',  ( 1.621000000000000218, 0.000000000000000000, -0.2188157520228695696 ) ) ;
#410 = FILL_AREA_STYLE ('',( #59 ) ) ;
#411 = PRESENTATION_LAYER_ASSIGNMENT (  '', '', ( #441 ) ) ;
#412 = ORIENTED_EDGE ( 'NONE', *, *, #548, .F. ) ;
#413 = PRODUCT_DEFINITION_FORMATION_WITH_SPECIFIED_SOURCE ( 'ÈÎºÎ', '', #265, .NOT_KNOWN. ) ;
#414 = CARTESIAN_POINT ( 'NONE',  ( -1.355368144264247565, 3.500000000000001332, -0.3546355007543884885 ) ) ;
#415 = CARTESIAN_POINT ( 'NONE',  ( 0.000000000000000000, 0.000000000000000000, -0.2188157520228695696 ) ) ;
#416 = ADVANCED_FACE ( 'NONE', ( #86 ), #34, .T. ) ;
#417 = FACE_OUTER_BOUND ( 'NONE', #122, .T. ) ;
#418 = ORIENTED_EDGE ( 'NONE', *, *, #375, .F. ) ;
#419 = CARTESIAN_POINT ( 'NONE',  ( -2.350671729996864912, 2.928517131729601708, -0.3386194526912377767 ) ) ;
#420 = DIRECTION ( 'NONE',  ( -0.000000000000000000, -0.000000000000000000, -1.000000000000000000 ) ) ;
#421 = ORIENTED_EDGE ( 'NONE', *, *, #491, .F. ) ;
#422 = DIRECTION ( 'NONE',  ( -0.000000000000000000, -0.000000000000000000, -1.000000000000000000 ) ) ;
#423 = CARTESIAN_POINT ( 'NONE',  ( -0.3409037357876248953, 3.500000000000001332, -2.983525879806169900 ) ) ;
#424 =( GEOMETRIC_REPRESENTATION_CONTEXT ( 3 ) GLOBAL_UNCERTAINTY_ASSIGNED_CONTEXT ( ( #437 ) ) GLOBAL_UNIT_ASSIGNED_CONTEXT ( ( #33, #576, #323 ) ) REPRESENTATION_CONTEXT ( 'NONE', 'WORKASPACE' ) );
#425 = ORIENTED_EDGE ( 'NONE', *, *, #285, .F. ) ;
#426 = EDGE_CURVE ( 'NONE', #176, #430, #443, .T. ) ;
#427 = SURFACE_STYLE_USAGE ( .BOTH. , #477 ) ;
#428 = ORIENTED_EDGE ( 'NONE', *, *, #28, .T. ) ;
#429 = SURFACE_STYLE_FILL_AREA ( #91 ) ;
#430 = VERTEX_POINT ( 'NONE', #539 ) ;
#431 =( NAMED_UNIT ( * ) SI_UNIT ( $, .STERADIAN. ) SOLID_ANGLE_UNIT ( ) );
#432 = CARTESIAN_POINT ( 'NONE',  ( -2.020725942163687616, 3.500000000000001332, -2.670886257884255155 ) ) ;
#433 = EDGE_LOOP ( 'NONE', ( #334, #43, #25, #521 ) ) ;
#434 = AXIS2_PLACEMENT_3D ( 'NONE', #306, #509, #309 ) ;
#435 = VERTEX_POINT ( 'NONE', #294 ) ;
#436 = ORIENTED_EDGE ( 'NONE', *, *, #602, .T. ) ;
#437 = UNCERTAINTY_MEASURE_WITH_UNIT (LENGTH_MEASURE( 1.000000000000000082E-05 ), #33, 'distance_accuracy_value', 'NONE');
#438 = CIRCLE ( 'NONE', #152, 3.125000000000000000 ) ;
#439 = ORIENTED_EDGE ( 'NONE', *, *, #426, .T. ) ;
#440 = CARTESIAN_POINT ( 'NONE',  ( -2.185904412049184398, -3.213902497841834460, -0.4337479080624925820 ) ) ;
#441 = STYLED_ITEM ( 'NONE', ( #105 ), #132 ) ;
#442 = DIRECTION ( 'NONE',  ( 1.000000000000000000, 0.000000000000000000, -0.000000000000000000 ) ) ;
#443 = B_SPLINE_CURVE_WITH_KNOTS ( 'NONE', 3,
 ( #535, #473, #170, #574, #124, #320, #449, #350, #102, #99 ),
 .UNSPECIFIED., .F., .F.,
 ( 4, 2, 2, 2, 4 ),
 ( 0.003571969567266741318, 0.004594213952268487791, 0.005616458337270233830, 0.006638702722271979870, 0.007660947107273725909 ),
 .UNSPECIFIED. ) ;
#444 = CARTESIAN_POINT ( 'NONE',  ( 2.350671729996869352, -2.928517131729596823, -0.3386194526912380542 ) ) ;
#445 = ORIENTED_EDGE ( 'NONE', *, *, #474, .F. ) ;
#446 = CARTESIAN_POINT ( 'NONE',  ( 3.876273414441884668, -0.2860975021581695366, -0.4337479080624940253 ) ) ;
#447 = PRODUCT_DEFINITION ( 'Î´Öª', '', #413, #235 ) ;
#448 = SURFACE_STYLE_USAGE ( .BOTH. , #5 ) ;
#449 = CARTESIAN_POINT ( 'NONE',  ( 0.6881932994279372773, -3.499999999999997335, -0.2466930940255435134 ) ) ;
#450 = AXIS2_PLACEMENT_3D ( 'NONE', #372, #628, #177 ) ;
#451 = FACE_OUTER_BOUND ( 'NONE', #129, .T. ) ;
#452 = AXIS2_PLACEMENT_3D ( 'NONE', #506, #600, #148 ) ;
#453 = ADVANCED_BREP_SHAPE_REPRESENTATION ( 'M4ÂÝÄ¸', ( #381, #243 ), #358 ) ;
#454 = CARTESIAN_POINT ( 'NONE',  ( 2.185904412049184842, 3.213902497841834904, -0.4337479080624925820 ) ) ;
#455 = LINE ( 'NONE', #603, #215 ) ;
#456 = DIRECTION ( 'NONE',  ( 0.000000000000000000, -0.000000000000000000, 1.000000000000000000 ) ) ;
#457 = ORIENTED_EDGE ( 'NONE', *, *, #401, .T. ) ;
#458 = FILL_AREA_STYLE_COLOUR ( '', #242 ) ;
#459 = CARTESIAN_POINT ( 'NONE',  ( -2.020725942163689393, 3.500000000000001332, -3.200000000000000178 ) ) ;
#460 = VERTEX_POINT ( 'NONE', #588 ) ;
#461 = AXIS2_PLACEMENT_3D ( 'NONE', #415, #162, #308 ) ;
#462 = CARTESIAN_POINT ( 'NONE',  ( 2.020725942163694278, -3.499999999999996891, -2.670886257884255155 ) ) ;
#463 = ADVANCED_FACE ( 'NONE', ( #598 ), #549, .T. ) ;
#464 = CARTESIAN_POINT ( 'NONE',  ( -4.041451884327380562, 4.949351114049564452E-16, -2.670886257884255155 ) ) ;
#465 = LINE ( 'NONE', #195, #622 ) ;
#466 = CIRCLE ( 'NONE', #638, 1.621000000000000218 ) ;
#467 = DIRECTION ( 'NONE',  ( -0.000000000000000000, 0.000000000000000000, -1.000000000000000000 ) ) ;
#468 =( LENGTH_UNIT ( ) NAMED_UNIT ( * ) SI_UNIT ( .MILLI., .METRE. ) );
#469 = EDGE_CURVE ( 'NONE', #430, #460, #13, .T. ) ;
#470 = CARTESIAN_POINT ( 'NONE',  ( 2.020725942163694278, -3.499999999999996891, -2.670886257884255155 ) ) ;
#471 = VERTEX_POINT ( 'NONE', #502 ) ;
#472 = DIRECTION ( 'NONE',  ( 1.000000000000000000, 0.000000000000000000, 0.000000000000000000 ) ) ;
#473 = CARTESIAN_POINT ( 'NONE',  ( -1.692077593331099195, -3.499999999999996447, -0.4342411357821182039 ) ) ;
#474 = EDGE_CURVE ( 'NONE', #631, #460, #55, .T. ) ;
#475 = ORIENTED_EDGE ( 'NONE', *, *, #501, .F. ) ;
#476 = CARTESIAN_POINT ( 'NONE',  ( -3.876273414441883780, 0.2860975021581684263, -0.4337479080624926930 ) ) ;
#477 = SURFACE_SIDE_STYLE ('',( #429 ) ) ;
#478 = AXIS2_PLACEMENT_3D ( 'NONE', #201, #142, #62 ) ;
#479 = ORIENTED_EDGE ( 'NONE', *, *, #558, .T. ) ;
#480 = PLANE ( 'NONE',  #578 ) ;
#481 = ORIENTED_EDGE ( 'NONE', *, *, #501, .T. ) ;
#482 = FILL_AREA_STYLE_COLOUR ( '', #609 ) ;
#483 = CARTESIAN_POINT ( 'NONE',  ( -0.6802644081094378903, 3.500000000000000888, -2.954203104872972219 ) ) ;
#484 = EDGE_CURVE ( 'NONE', #217, #181, #326, .T. ) ;
#485 = ORIENTED_EDGE ( 'NONE', *, *, #179, .F. ) ;
#486 = CARTESIAN_POINT ( 'NONE',  ( 0.000000000000000000, 0.000000000000000000, -4.336808689942017736E-16 ) ) ;
#487 = AXIS2_PLACEMENT_3D ( 'NONE', #140, #541, #344 ) ;
#488 = DIRECTION ( 'NONE',  ( 0.000000000000000000, -0.000000000000000000, 1.000000000000000000 ) ) ;
#489 = FILL_AREA_STYLE ('',( #482 ) ) ;
#490 = B_SPLINE_CURVE_WITH_KNOTS ( 'NONE', 3,
 ( #618, #419, #615, #166, #368, #355, #476, #204 ),
 .UNSPECIFIED., .F., .F.,
 ( 4, 2, 2, 4 ),
 ( 2.380739282161208222E-07, 0.002041062161438836862, 0.003061474205194146623, 0.004081886248949457251 ),
 .UNSPECIFIED. ) ;
#491 = EDGE_CURVE ( 'NONE', #211, #389, #57, .T. ) ;
#492 = CARTESIAN_POINT ( 'NONE',  ( 0.000000000000000000, 0.000000000000000000, 0.000000000000000000 ) ) ;
#493 = EDGE_CURVE ( 'NONE', #460, #275, #69, .T. ) ;
#494 = ORIENTED_EDGE ( 'NONE', *, *, #268, .F. ) ;
#495 = CARTESIAN_POINT ( 'NONE',  ( 2.020725942163686728, 3.500000000000002220, -0.5291137421157459109 ) ) ;
#496 = ORIENTED_EDGE ( 'NONE', *, *, #626, .F. ) ;
#497 = CARTESIAN_POINT ( 'NONE',  ( 3.200958490685181346, -1.455777261214282969, -0.2162888490976385691 ) ) ;
#498 = AXIS2_PLACEMENT_3D ( 'NONE', #492, #292, #343 ) ;
#499 = LINE ( 'NONE', #199, #632 ) ;
#500 = DIRECTION ( 'NONE',  ( 0.000000000000000000, 0.000000000000000000, 1.000000000000000000 ) ) ;
#501 = EDGE_CURVE ( 'NONE', #3, #389, #108, .T. ) ;
#502 = CARTESIAN_POINT ( 'NONE',  ( -4.041451884327380562, 0.000000000000000000, -0.5291137421157459109 ) ) ;
#503 =( NAMED_UNIT ( * ) PLANE_ANGLE_UNIT ( ) SI_UNIT ( $, .RADIAN. ) );
#504 = CARTESIAN_POINT ( 'NONE',  ( -3.372582335767963180, -1.158516041740566216, -2.953877149107972500 ) ) ;
#505 = DIRECTION ( 'NONE',  ( -0.8660254037844385966, 0.5000000000000001110, 0.000000000000000000 ) ) ;
#506 = CARTESIAN_POINT ( 'NONE',  ( 0.000000000000000000, 0.000000000000000000, -0.2188157520228695696 ) ) ;
#507 = CARTESIAN_POINT ( 'NONE',  ( -0.6802644081094368911, 3.500000000000001332, -0.2457968951270285418 ) ) ;
#508 = CARTESIAN_POINT ( 'NONE',  ( 0.000000000000000000, 0.000000000000000000, -4.336808689942017736E-16 ) ) ;
#509 = DIRECTION ( 'NONE',  ( 0.000000000000000000, 0.000000000000000000, 1.000000000000000000 ) ) ;
#510 = EDGE_CURVE ( 'NONE', #206, #270, #189, .T. ) ;
#511 = CARTESIAN_POINT ( 'NONE',  ( 3.376616726802499802, -1.151528271491157884, -2.983054960371127606 ) ) ;
#512 =( NAMED_UNIT ( * ) SI_UNIT ( $, .STERADIAN. ) SOLID_ANGLE_UNIT ( ) );
#513 = CARTESIAN_POINT ( 'NONE',  ( -2.020725942163687616, -3.500000000000001776, -2.670886257884255155 ) ) ;
#514 = LINE ( 'NONE', #31, #571 ) ;
#515 = DIRECTION ( 'NONE',  ( -0.8660254037844417052, 1.060575238724910613E-16, 0.4999999999999947264 ) ) ;
#516 = CARTESIAN_POINT ( 'NONE',  ( -3.711506096494204598, 0.5714828682704020668, -2.861380547308763234 ) ) ;
#517 = AXIS2_PLACEMENT_3D ( 'NONE', #283, #1, #193 ) ;
#518 = EDGE_LOOP ( 'NONE', ( #577, #445, #229, #606 ) ) ;
#519 = PLANE ( 'NONE',  #262 ) ;
#520 = UNCERTAINTY_MEASURE_WITH_UNIT (LENGTH_MEASURE( 1.000000000000000082E-05 ), #120, 'distance_accuracy_value', 'NONE');
#521 = ORIENTED_EDGE ( 'NONE', *, *, #558, .F. ) ;
#522 = DIRECTION ( 'NONE',  ( 1.000000000000000000, 0.000000000000000000, 0.000000000000000000 ) ) ;
#523 = DIRECTION ( 'NONE',  ( -1.000000000000000000, 0.000000000000000000, 0.000000000000000000 ) ) ;
#524 = ORIENTED_EDGE ( 'NONE', *, *, #484, .T. ) ;
#525 = CONICAL_SURFACE ( 'NONE', #354, 3.125000000000000000, 1.047197551196603627 ) ;
#526 = DIRECTION ( 'NONE',  ( -0.000000000000000000, -0.000000000000000000, -1.000000000000000000 ) ) ;
#527 = EDGE_CURVE ( 'NONE', #471, #176, #562, .T. ) ;
#528 = AXIS2_PLACEMENT_3D ( 'NONE', #90, #100, #442 ) ;
#529 = EDGE_CURVE ( 'NONE', #181, #534, #392, .T. ) ;
#530 = SURFACE_SIDE_STYLE ('',( #633 ) ) ;
#531 = DIRECTION ( 'NONE',  ( 0.000000000000000000, 0.000000000000000000, 1.000000000000000000 ) ) ;
#532 = ORIENTED_EDGE ( 'NONE', *, *, #387, .F. ) ;
#533 = CARTESIAN_POINT ( 'NONE',  ( -1.692077593331106078, 3.500000000000002220, -2.765758864217878532 ) ) ;
#534 = VERTEX_POINT ( 'NONE', #113 ) ;
#535 = CARTESIAN_POINT ( 'NONE',  ( -2.020725942163685840, -3.500000000000002220, -0.5291137421157459109 ) ) ;
#536 = ORIENTED_EDGE ( 'NONE', *, *, #529, .T. ) ;
#537 = CIRCLE ( 'NONE', #359, 1.621000000000000218 ) ;
#538 = CARTESIAN_POINT ( 'NONE',  ( 4.041451884327380562, 4.336808689942017736E-16, -2.670886257884255155 ) ) ;
#539 = CARTESIAN_POINT ( 'NONE',  ( 2.020725942163694278, -3.499999999999996891, -0.5291137421157459109 ) ) ;
#540 = FACE_BOUND ( 'NONE', #234, .T. ) ;
#541 = DIRECTION ( 'NONE',  ( -0.000000000000000000, -0.000000000000000000, -1.000000000000000000 ) ) ;
#542 = AXIS2_PLACEMENT_3D ( 'NONE', #570, #66, #267 ) ;
#543 = CARTESIAN_POINT ( 'NONE',  ( -1.621000000000000218, 1.985152461417859960E-16, -2.820999999999996177 ) ) ;
#544 = CARTESIAN_POINT ( 'NONE',  ( -3.376616726802494028, -1.151528271491157440, -0.2169450396288710170 ) ) ;
#545 = VECTOR ( 'NONE', #205, 1000.000000000000000 ) ;
#546 = APPLICATION_CONTEXT ( 'automotive_design' ) ;
#547 = CARTESIAN_POINT ( 'NONE',  ( 0.000000000000000000, 0.000000000000000000, -2.820999999999996177 ) ) ;
#548 = EDGE_CURVE ( 'NONE', #631, #217, #126, .T. ) ;
#549 = PLANE ( 'NONE',  #620 ) ;
#550 = CARTESIAN_POINT ( 'NONE',  ( -2.020725942163687616, 3.500000000000001332, -2.670886257884255155 ) ) ;
#551 = CARTESIAN_POINT ( 'NONE',  ( -2.020725942163685840, -3.500000000000002220, -0.5291137421157459109 ) ) ;
#552 = APPLICATION_CONTEXT ( 'automotive_design' ) ;
#553 = CONICAL_SURFACE ( 'NONE', #208, 1.839815752022869955, 0.5235987755982975944 ) ;
#554 = VERTEX_POINT ( 'NONE', #256 ) ;
#555 =( NAMED_UNIT ( * ) SI_UNIT ( $, .STERADIAN. ) SOLID_ANGLE_UNIT ( ) );
#556 = LINE ( 'NONE', #464, #337 ) ;
#557 = AXIS2_PLACEMENT_3D ( 'NONE', #80, #467, #472 ) ;
#558 = EDGE_CURVE ( 'NONE', #32, #585, #360, .T. ) ;
#559 = MECHANICAL_DESIGN_GEOMETRIC_PRESENTATION_REPRESENTATION (  '', ( #441 ), #94 ) ;
#560 = CARTESIAN_POINT ( 'NONE',  ( 2.000000000000003553, 0.000000000000000000, 0.000000000000000000 ) ) ;
#561 = CARTESIAN_POINT ( 'NONE',  ( -2.020725942163687616, 3.500000000000001332, -2.670886257884255155 ) ) ;
#562 = B_SPLINE_CURVE_WITH_KNOTS ( 'NONE', 3,
 ( #146, #348, #544, #192, #58, #594, #440, #551 ),
 .UNSPECIFIED., .F., .F.,
 ( 4, 2, 2, 4 ),
 ( 2.380739282178811949E-07, 0.002041062161438838597, 0.003061474205194149225, 0.004081886248949459853 ),
 .UNSPECIFIED. ) ;
#563 = CARTESIAN_POINT ( 'NONE',  ( -2.020725942163685840, -3.500000000000002220, -0.5291137421157459109 ) ) ;
#564 = ORIENTED_EDGE ( 'NONE', *, *, #159, .F. ) ;
#565 = CARTESIAN_POINT ( 'NONE',  ( -2.020725942163687616, 3.500000000000001332, -0.5291137421157459109 ) ) ;
#566 = DIRECTION ( 'NONE',  ( -1.000000000000000000, 0.000000000000000000, 0.000000000000000000 ) ) ;
#567 = CARTESIAN_POINT ( 'NONE',  ( -2.689595490723104998, 2.341483958259436005, -2.953877149107971167 ) ) ;
#568 = ORIENTED_EDGE ( 'NONE', *, *, #236, .T. ) ;
#569 = EDGE_CURVE ( 'NONE', #534, #471, #514, .T. ) ;
#570 = CARTESIAN_POINT ( 'NONE',  ( 2.020725942163686728, 3.500000000000001332, -3.200000000000000178 ) ) ;
#571 = VECTOR ( 'NONE', #260, 1000.000000000000000 ) ;
#572 = MECHANICAL_DESIGN_GEOMETRIC_PRESENTATION_REPRESENTATION (  '', ( #54 ), #286 ) ;
#573 = EDGE_LOOP ( 'NONE', ( #597, #580, #79, #637 ) ) ;
#574 = CARTESIAN_POINT ( 'NONE',  ( -0.6802644081094602058, -3.499999999999996003, -0.2457968951270298463 ) ) ;
#575 = ORIENTED_EDGE ( 'NONE', *, *, #143, .F. ) ;
#576 =( NAMED_UNIT ( * ) PLANE_ANGLE_UNIT ( ) SI_UNIT ( $, .RADIAN. ) );
#577 = ORIENTED_EDGE ( 'NONE', *, *, #493, .F. ) ;
#578 = AXIS2_PLACEMENT_3D ( 'NONE', #42, #274, #175 ) ;
#579 = DIRECTION ( 'NONE',  ( -1.000000000000000000, 0.000000000000000000, 0.000000000000000000 ) ) ;
#580 = ORIENTED_EDGE ( 'NONE', *, *, #171, .F. ) ;
#581 = AXIS2_PLACEMENT_3D ( 'NONE', #63, #403, #78 ) ;
#582 = CARTESIAN_POINT ( 'NONE',  ( 3.125000000000000000, 3.827021247335478803E-16, -4.336808689942017736E-16 ) ) ;
#583 = FACE_BOUND ( 'NONE', #119, .T. ) ;
#584 = CARTESIAN_POINT ( 'NONE',  ( 1.694094396866567376, 3.500000000000001332, -2.765176663185817230 ) ) ;
#585 = VERTEX_POINT ( 'NONE', #560 ) ;
#586 = EDGE_CURVE ( 'NONE', #587, #112, #284, .T. ) ;
#587 = VERTEX_POINT ( 'NONE', #319 ) ;
#588 = CARTESIAN_POINT ( 'NONE',  ( 4.041451884327381450, -2.700270677595210257E-15, -0.5291137421157459109 ) ) ;
#589 = ORIENTED_EDGE ( 'NONE', *, *, #347, .F. ) ;
#590 = CARTESIAN_POINT ( 'NONE',  ( -1.355368144264234020, -3.499999999999997780, -2.845364499245615519 ) ) ;
#591 = EDGE_LOOP ( 'NONE', ( #316, #568, #341, #457, #428, #564 ) ) ;
#592 = CARTESIAN_POINT ( 'NONE',  ( 3.376616726802495361, 1.151528271491156330, -0.2169450396288712390 ) ) ;
#593 = DIRECTION ( 'NONE',  ( -0.8660254037844415942, 0.000000000000000000, -0.4999999999999949485 ) ) ;
#594 = CARTESIAN_POINT ( 'NONE',  ( -2.352463575581261956, -2.925413564138104050, -0.3550527209996164335 ) ) ;
#595 = VECTOR ( 'NONE', #611, 1000.000000000000000 ) ;
#596 =( LENGTH_UNIT ( ) NAMED_UNIT ( * ) SI_UNIT ( .MILLI., .METRE. ) );
#597 = ORIENTED_EDGE ( 'NONE', *, *, #426, .F. ) ;
#598 = FACE_OUTER_BOUND ( 'NONE', #518, .T. ) ;
#599 = CARTESIAN_POINT ( 'NONE',  ( -2.020725942163689393, 3.500000000000001332, -3.200000000000000178 ) ) ;
#600 = DIRECTION ( 'NONE',  ( 0.000000000000000000, 0.000000000000000000, 1.000000000000000000 ) ) ;
#601 = ORIENTED_EDGE ( 'NONE', *, *, #145, .F. ) ;
#602 = EDGE_CURVE ( 'NONE', #275, #165, #247, .T. ) ;
#603 = CARTESIAN_POINT ( 'NONE',  ( 2.020725942163686728, 3.500000000000001332, -3.200000000000000178 ) ) ;
#604 = AXIS2_PLACEMENT_3D ( 'NONE', #486, #230, #579 ) ;
#605 = DIRECTION ( 'NONE',  ( -0.8660254037844390407, 1.060575238724907408E-16, 0.4999999999999991118 ) ) ;
#606 = ORIENTED_EDGE ( 'NONE', *, *, #268, .T. ) ;
#607 = CARTESIAN_POINT ( 'NONE',  ( 2.185904412049192391, -3.213902497841831352, -2.766252091937508872 ) ) ;
#608 = UNCERTAINTY_MEASURE_WITH_UNIT (LENGTH_MEASURE( 1.000000000000000082E-05 ), #596, 'distance_accuracy_value', 'NONE');
#609 = COLOUR_RGB ( '',0.7764705882352941346, 0.7568627450980391913, 0.7372549019607843590 ) ;
#610 = AXIS2_PLACEMENT_3D ( 'NONE', #386, #488, #51 ) ;
#611 = DIRECTION ( 'NONE',  ( 0.000000000000000000, 0.000000000000000000, 1.000000000000000000 ) ) ;
#612 = CARTESIAN_POINT ( 'NONE',  ( 2.020725942163686728, 3.500000000000002220, -0.5291137421157459109 ) ) ;
#613 = DIRECTION ( 'NONE',  ( 0.5000000000000001110, 0.8660254037844385966, 0.000000000000000000 ) ) ;
#614 = ORIENTED_EDGE ( 'NONE', *, *, #179, .T. ) ;
#615 = CARTESIAN_POINT ( 'NONE',  ( -2.685561099688573261, 2.348471728508843448, -0.2169450396288720440 ) ) ;
#616 = SURFACE_SIDE_STYLE ('',( #157 ) ) ;
#617 = ORIENTED_EDGE ( 'NONE', *, *, #171, .T. ) ;
#618 = CARTESIAN_POINT ( 'NONE',  ( -2.020725942163687616, 3.500000000000001332, -0.5291137421157459109 ) ) ;
#619 = CARTESIAN_POINT ( 'NONE',  ( 2.020725942163686728, 3.500000000000001332, -2.670886257884255599 ) ) ;
#620 = AXIS2_PLACEMENT_3D ( 'NONE', #396, #398, #300 ) ;
#621 = B_SPLINE_CURVE_WITH_KNOTS ( 'NONE', 3,
 ( #238, #136, #635, #141, #390, #46, #188, #538 ),
 .UNSPECIFIED., .F., .F.,
 ( 4, 2, 2, 4 ),
 ( 2.380739282171252445E-07, 0.002041062161438836862, 0.003061474205194147490, 0.004081886248949458118 ),
 .UNSPECIFIED. ) ;
#622 = VECTOR ( 'NONE', #118, 1000.000000000000000 ) ;
#623 = ORIENTED_EDGE ( 'NONE', *, *, #172, .F. ) ;
#624 = FACE_OUTER_BOUND ( 'NONE', #20, .T. ) ;
#625 = ADVANCED_FACE ( 'NONE', ( #207 ), #394, .T. ) ;
#626 = EDGE_CURVE ( 'NONE', #554, #585, #190, .T. ) ;
#627 = ORIENTED_EDGE ( 'NONE', *, *, #366, .F. ) ;
#628 = DIRECTION ( 'NONE',  ( 0.000000000000000000, 0.000000000000000000, 1.000000000000000000 ) ) ;
#629 = ORIENTED_EDGE ( 'NONE', *, *, #137, .F. ) ;
#630 = DIRECTION ( 'NONE',  ( 0.000000000000000000, 0.000000000000000000, 1.000000000000000000 ) ) ;
#631 = VERTEX_POINT ( 'NONE', #218 ) ;
#632 = VECTOR ( 'NONE', #593, 999.9999999999998863 ) ;
#633 = SURFACE_STYLE_FILL_AREA ( #489 ) ;
#634 = CARTESIAN_POINT ( 'NONE',  ( -1.839815752022869955, 0.000000000000000000, -3.200000000000000178 ) ) ;
#635 = CARTESIAN_POINT ( 'NONE',  ( 2.685561099688571485, 2.348471728508843892, -2.983054960371129827 ) ) ;
#636 = VECTOR ( 'NONE', #317, 1000.000000000000000 ) ;
#637 = ORIENTED_EDGE ( 'NONE', *, *, #404, .T. ) ;
#638 = AXIS2_PLACEMENT_3D ( 'NONE', #210, #405, #251 ) ;
#639 = CARTESIAN_POINT ( 'NONE',  ( -2.020725942163687616, -3.500000000000001776, -2.670886257884255155 ) ) ;
#640 = EDGE_CURVE ( 'NONE', #165, #471, #490, .T. ) ;
ENDSEC;
END-ISO-10303-21;
