ISO-10303-21;
HEADER;
FILE_DESCRIPTION (( 'STEP AP214' ),
    '1' );
FILE_NAME ('T型螺母[AENT20-4].step',
    '2023-08-15T02:54:52',
    ( '' ),
    ( '' ),
    'SwSTEP 2.0',
    'SolidWorks 2022',
    '' );
FILE_SCHEMA (( 'AUTOMOTIVE_DESIGN' ));
ENDSEC;

DATA;
#1 = PRESENTATION_STYLE_ASSIGNMENT (( #580 ) ) ;
#2 = APPLICATION_CONTEXT ( 'automotive_design' ) ;
#4 = VECTOR ( 'NONE', #453, 1000.000000000000000 ) ;
#3 =( NAMED_UNIT ( * ) SI_UNIT ( $, .STERADIAN. ) SOLID_ANGLE_UNIT ( ) );
#5 = DIRECTION ( 'NONE',  ( 0.000000000000000000, 0.000000000000000000, -1.000000000000000000 ) ) ;
#6 = ORIENTED_EDGE ( 'NONE', *, *, #184, .T. ) ;
#7 = EDGE_CURVE ( 'NONE', #498, #151, #33, .T. ) ;
#8 = ORIENTED_EDGE ( 'NONE', *, *, #44, .T. ) ;
#9 = VERTEX_POINT ( 'NONE', #478 ) ;
#10 = CARTESIAN_POINT ( 'NONE',  ( 2.500000000000000000, 3.000000000000000000, 0.000000000000000000 ) ) ;
#11 = DIRECTION ( 'NONE',  ( 0.000000000000000000, 1.000000000000000000, 0.000000000000000000 ) ) ;
#12 = ORIENTED_EDGE ( 'NONE', *, *, #299, .T. ) ;
#13 = DIRECTION ( 'NONE',  ( 0.000000000000000000, 0.000000000000000000, 1.000000000000000000 ) ) ;
#14 = PLANE ( 'NONE',  #501 ) ;
#15 = ORIENTED_EDGE ( 'NONE', *, *, #158, .T. ) ;
#16 = FACE_OUTER_BOUND ( 'NONE', #389, .T. ) ;
#17 = CARTESIAN_POINT ( 'NONE',  ( -3.000000000000000000, 0.000000000000000000, -1.000000000000000000 ) ) ;
#18 = VERTEX_POINT ( 'NONE', #62 ) ;
#19 = ADVANCED_BREP_SHAPE_REPRESENTATION ( 'T型螺母[AENT20-4]', ( #48, #178 ), #218 ) ;
#20 = CARTESIAN_POINT ( 'NONE',  ( 3.000000000000000000, -3.000000000000000000, 3.299999999999999822 ) ) ;
#21 = VERTEX_POINT ( 'NONE', #475 ) ;
#22 = LINE ( 'NONE', #223, #356 ) ;
#23 = PRESENTATION_LAYER_ASSIGNMENT (  '', '', ( #558 ) ) ;
#24 = EDGE_LOOP ( 'NONE', ( #603, #126, #277, #310 ) ) ;
#25 = SHAPE_DEFINITION_REPRESENTATION ( #290, #19 ) ;
#26 = VECTOR ( 'NONE', #187, 1000.000000000000000 ) ;
#27 = DIRECTION ( 'NONE',  ( 1.000000000000000000, 0.000000000000000000, 0.000000000000000000 ) ) ;
#28 = CIRCLE ( 'NONE', #43, 1.620999999999999996 ) ;
#29 = ORIENTED_EDGE ( 'NONE', *, *, #100, .T. ) ;
#30 = LINE ( 'NONE', #551, #98 ) ;
#31 = VECTOR ( 'NONE', #596, 1000.000000000000000 ) ;
#32 = ORIENTED_EDGE ( 'NONE', *, *, #7, .T. ) ;
#33 = CIRCLE ( 'NONE', #379, 1.620999999999999996 ) ;
#34 = CARTESIAN_POINT ( 'NONE',  ( -6.505213034913029562E-16, 4.336808689942019708E-16, -1.000000000000000000 ) ) ;
#35 = ADVANCED_FACE ( 'NONE', ( #532 ), #435, .T. ) ;
#36 = CARTESIAN_POINT ( 'NONE',  ( 3.000000000000000000, 5.250000000000000000, 0.000000000000000000 ) ) ;
#37 = ORIENTED_EDGE ( 'NONE', *, *, #559, .T. ) ;
#38 = DIRECTION ( 'NONE',  ( 0.000000000000000000, -0.6992941554637311929, -0.7148340255851473035 ) ) ;
#39 = CARTESIAN_POINT ( 'NONE',  ( 3.000000000000000000, 4.336808689942019708E-16, -1.000000000000000000 ) ) ;
#40 = VERTEX_POINT ( 'NONE', #308 ) ;
#41 = FACE_OUTER_BOUND ( 'NONE', #588, .T. ) ;
#42 = DIRECTION ( 'NONE',  ( 1.000000000000000000, 0.000000000000000000, 0.000000000000000000 ) ) ;
#43 = AXIS2_PLACEMENT_3D ( 'NONE', #470, #419, #97 ) ;
#44 = EDGE_CURVE ( 'NONE', #113, #527, #529, .T. ) ;
#45 = ORIENTED_EDGE ( 'NONE', *, *, #100, .F. ) ;
#46 = CARTESIAN_POINT ( 'NONE',  ( 3.000000000000000000, 3.000000000000000000, 3.299999999999999822 ) ) ;
#47 = APPLICATION_CONTEXT ( 'automotive_design' ) ;
#48 = MANIFOLD_SOLID_BREP ( 'T型螺母[AENT20-4].step<1>', #87 ) ;
#49 = CARTESIAN_POINT ( 'NONE',  ( 2.500000000000000000, 3.000000000000000000, -1.000000000000000000 ) ) ;
#50 = DIRECTION ( 'NONE',  ( -1.000000000000000000, 0.000000000000000000, 0.000000000000000000 ) ) ;
#51 = CARTESIAN_POINT ( 'NONE',  ( 3.000000000000000000, 0.000000000000000000, -1.000000000000000000 ) ) ;
#52 = EDGE_CURVE ( 'NONE', #570, #9, #386, .T. ) ;
#53 = ADVANCED_FACE ( 'NONE', ( #149 ), #569, .F. ) ;
#54 = CARTESIAN_POINT ( 'NONE',  ( -3.000000000000000000, -5.250000000000000000, 0.000000000000000000 ) ) ;
#55 = ADVANCED_FACE ( 'NONE', ( #522 ), #14, .F. ) ;
#56 =( LENGTH_UNIT ( ) NAMED_UNIT ( * ) SI_UNIT ( .MILLI., .METRE. ) );
#57 = AXIS2_PLACEMENT_3D ( 'NONE', #235, #196, #503 ) ;
#58 = EDGE_CURVE ( 'NONE', #523, #533, #482, .T. ) ;
#59 = AXIS2_PLACEMENT_3D ( 'NONE', #276, #462, #605 ) ;
#60 = ORIENTED_EDGE ( 'NONE', *, *, #352, .T. ) ;
#61 = CARTESIAN_POINT ( 'NONE',  ( 2.500000000000000000, 3.000000000000000000, -1.000000000000000000 ) ) ;
#62 = CARTESIAN_POINT ( 'NONE',  ( -3.000000000000000000, 5.250000000000000000, 0.000000000000000000 ) ) ;
#63 = ORIENTED_EDGE ( 'NONE', *, *, #504, .F. ) ;
#64 = CARTESIAN_POINT ( 'NONE',  ( 3.000000000000000000, 5.250000000000000000, 0.000000000000000000 ) ) ;
#65 = ORIENTED_EDGE ( 'NONE', *, *, #249, .T. ) ;
#66 = ORIENTED_EDGE ( 'NONE', *, *, #381, .F. ) ;
#67 = ADVANCED_FACE ( 'NONE', ( #253 ), #349, .T. ) ;
#68 = ORIENTED_EDGE ( 'NONE', *, *, #614, .F. ) ;
#69 = VECTOR ( 'NONE', #236, 1000.000000000000000 ) ;
#70 = DIRECTION ( 'NONE',  ( -0.000000000000000000, 1.000000000000000000, 0.000000000000000000 ) ) ;
#71 = EDGE_CURVE ( 'NONE', #447, #541, #441, .T. ) ;
#72 = VERTEX_POINT ( 'NONE', #214 ) ;
#73 = SURFACE_STYLE_FILL_AREA ( #206 ) ;
#74 = ORIENTED_EDGE ( 'NONE', *, *, #336, .T. ) ;
#75 = DIRECTION ( 'NONE',  ( -1.000000000000000000, 0.000000000000000000, 0.000000000000000000 ) ) ;
#76 = CARTESIAN_POINT ( 'NONE',  ( -1.620999999999999996, 0.000000000000000000, -1.000000000000000000 ) ) ;
#77 = ORIENTED_EDGE ( 'NONE', *, *, #473, .F. ) ;
#78 = FACE_OUTER_BOUND ( 'NONE', #203, .T. ) ;
#79 = ORIENTED_EDGE ( 'NONE', *, *, #71, .F. ) ;
#80 = CARTESIAN_POINT ( 'NONE',  ( -2.500000000000000000, -2.500000000000000000, 0.000000000000000000 ) ) ;
#81 = EDGE_CURVE ( 'NONE', #9, #590, #331, .T. ) ;
#82 = ORIENTED_EDGE ( 'NONE', *, *, #559, .F. ) ;
#83 = CARTESIAN_POINT ( 'NONE',  ( 2.500000000000000000, 3.000000000000000000, 0.000000000000000000 ) ) ;
#84 = AXIS2_PLACEMENT_3D ( 'NONE', #34, #264, #27 ) ;
#85 = CARTESIAN_POINT ( 'NONE',  ( 6.505213034913029562E-16, -4.336808689942019708E-16, -1.000000000000000000 ) ) ;
#86 = ORIENTED_EDGE ( 'NONE', *, *, #592, .T. ) ;
#87 = CLOSED_SHELL ( 'NONE', ( #450, #292, #327, #55, #518, #35, #67, #339, #288, #307, #197, #258, #607, #53, #414, #554, #230, #378 ) ) ;
#88 = CARTESIAN_POINT ( 'NONE',  ( -3.000000000000000000, 5.250000000000000000, 1.000000000000000000 ) ) ;
#89 = EDGE_CURVE ( 'NONE', #606, #533, #536, .T. ) ;
#90 = PLANE ( 'NONE',  #59 ) ;
#91 = ORIENTED_EDGE ( 'NONE', *, *, #102, .T. ) ;
#92 = CARTESIAN_POINT ( 'NONE',  ( 3.000000000000000000, -5.250000000000000000, 0.000000000000000000 ) ) ;
#93 = CARTESIAN_POINT ( 'NONE',  ( -3.000000000000000000, 3.000000000000000000, 3.299999999999999822 ) ) ;
#94 = ORIENTED_EDGE ( 'NONE', *, *, #406, .F. ) ;
#95 = LINE ( 'NONE', #51, #26 ) ;
#96 = VECTOR ( 'NONE', #412, 1000.000000000000000 ) ;
#97 = DIRECTION ( 'NONE',  ( -1.000000000000000000, 0.000000000000000000, 0.000000000000000000 ) ) ;
#98 = VECTOR ( 'NONE', #458, 1000.000000000000000 ) ;
#99 = CARTESIAN_POINT ( 'NONE',  ( 3.000000000000000000, 3.000000000000000000, 3.299999999999999822 ) ) ;
#100 = EDGE_CURVE ( 'NONE', #364, #40, #22, .T. ) ;
#101 = DIRECTION ( 'NONE',  ( 0.000000000000000000, 0.000000000000000000, 1.000000000000000000 ) ) ;
#102 = EDGE_CURVE ( 'NONE', #523, #570, #30, .T. ) ;
#103 = EDGE_CURVE ( 'NONE', #527, #72, #315, .T. ) ;
#104 = ORIENTED_EDGE ( 'NONE', *, *, #114, .F. ) ;
#105 = FACE_OUTER_BOUND ( 'NONE', #319, .T. ) ;
#106 = CARTESIAN_POINT ( 'NONE',  ( -2.500000000000000000, -2.500000000000000000, -1.000000000000000000 ) ) ;
#107 = CIRCLE ( 'NONE', #525, 0.5000000000000000000 ) ;
#108 = CIRCLE ( 'NONE', #195, 3.000000000000000000 ) ;
#109 = ORIENTED_EDGE ( 'NONE', *, *, #299, .F. ) ;
#110 = COLOUR_RGB ( '',0.6862745098039215730, 0.6862745098039215730, 0.6862745098039215730 ) ;
#111 = VERTEX_POINT ( 'NONE', #597 ) ;
#112 = DIRECTION ( 'NONE',  ( 1.000000000000000000, 0.000000000000000000, 0.000000000000000000 ) ) ;
#113 = VERTEX_POINT ( 'NONE', #505 ) ;
#114 = EDGE_CURVE ( 'NONE', #72, #18, #229, .T. ) ;
#115 = DIRECTION ( 'NONE',  ( 1.000000000000000000, 0.000000000000000000, 0.000000000000000000 ) ) ;
#116 = DIRECTION ( 'NONE',  ( 0.000000000000000000, 0.000000000000000000, -1.000000000000000000 ) ) ;
#117 = ORIENTED_EDGE ( 'NONE', *, *, #572, .F. ) ;
#118 = AXIS2_PLACEMENT_3D ( 'NONE', #555, #609, #42 ) ;
#119 = CYLINDRICAL_SURFACE ( 'NONE', #84, 3.000000000000000000 ) ;
#120 = DIRECTION ( 'NONE',  ( 0.000000000000000000, 1.000000000000000000, 0.000000000000000000 ) ) ;
#121 = EDGE_LOOP ( 'NONE', ( #227, #6 ) ) ;
#122 = DIRECTION ( 'NONE',  ( 0.000000000000000000, 0.000000000000000000, 1.000000000000000000 ) ) ;
#123 = LINE ( 'NONE', #168, #31 ) ;
#124 = FACE_OUTER_BOUND ( 'NONE', #481, .T. ) ;
#125 = EDGE_CURVE ( 'NONE', #456, #364, #241, .T. ) ;
#126 = ORIENTED_EDGE ( 'NONE', *, *, #334, .F. ) ;
#127 = DIRECTION ( 'NONE',  ( -1.000000000000000000, 0.000000000000000000, 0.000000000000000000 ) ) ;
#128 = DIRECTION ( 'NONE',  ( -1.000000000000000000, 0.000000000000000000, 0.000000000000000000 ) ) ;
#129 = AXIS2_PLACEMENT_3D ( 'NONE', #64, #521, #295 ) ;
#130 = ORIENTED_EDGE ( 'NONE', *, *, #52, .T. ) ;
#131 = FACE_OUTER_BOUND ( 'NONE', #24, .T. ) ;
#132 = AXIS2_PLACEMENT_3D ( 'NONE', #163, #252, #255 ) ;
#133 = CARTESIAN_POINT ( 'NONE',  ( -1.620999999999999996, 0.000000000000000000, 3.299999999999999822 ) ) ;
#134 = ORIENTED_EDGE ( 'NONE', *, *, #548, .F. ) ;
#135 = AXIS2_PLACEMENT_3D ( 'NONE', #520, #116, #573 ) ;
#136 = CARTESIAN_POINT ( 'NONE',  ( 3.000000000000000000, -5.250000000000000000, 1.000000000000000000 ) ) ;
#137 = CYLINDRICAL_SURFACE ( 'NONE', #561, 0.5000000000000000000 ) ;
#138 = ORIENTED_EDGE ( 'NONE', *, *, #471, .T. ) ;
#139 = DIRECTION ( 'NONE',  ( 0.000000000000000000, -0.7148340255851471925, -0.6992941554637311929 ) ) ;
#140 = DIRECTION ( 'NONE',  ( 1.000000000000000000, 0.000000000000000000, 0.000000000000000000 ) ) ;
#141 = ORIENTED_EDGE ( 'NONE', *, *, #471, .F. ) ;
#142 = DIRECTION ( 'NONE',  ( 1.000000000000000000, 0.000000000000000000, 0.000000000000000000 ) ) ;
#143 = DIRECTION ( 'NONE',  ( -1.000000000000000000, 0.000000000000000000, 0.000000000000000000 ) ) ;
#144 = LINE ( 'NONE', #610, #193 ) ;
#145 =( NAMED_UNIT ( * ) PLANE_ANGLE_UNIT ( ) SI_UNIT ( $, .RADIAN. ) );
#146 = AXIS2_PLACEMENT_3D ( 'NONE', #496, #13, #225 ) ;
#147 = LINE ( 'NONE', #474, #205 ) ;
#148 = EDGE_CURVE ( 'NONE', #541, #347, #402, .T. ) ;
#149 = FACE_OUTER_BOUND ( 'NONE', #581, .T. ) ;
#150 = CARTESIAN_POINT ( 'NONE',  ( 3.000000000000000000, -5.250000000000000000, 0.000000000000000000 ) ) ;
#151 = VERTEX_POINT ( 'NONE', #76 ) ;
#152 = LINE ( 'NONE', #61, #265 ) ;
#153 = CARTESIAN_POINT ( 'NONE',  ( -3.000000000000000000, -5.250000000000000000, 0.000000000000000000 ) ) ;
#154 = ORIENTED_EDGE ( 'NONE', *, *, #565, .T. ) ;
#155 = FILL_AREA_STYLE_COLOUR ( '', #494 ) ;
#156 = CIRCLE ( 'NONE', #602, 1.620999999999999996 ) ;
#157 = PRESENTATION_LAYER_ASSIGNMENT (  '', '', ( #291 ) ) ;
#158 = EDGE_CURVE ( 'NONE', #506, #487, #489, .T. ) ;
#159 = EDGE_LOOP ( 'NONE', ( #552, #322, #29, #370 ) ) ;
#160 = DIRECTION ( 'NONE',  ( 0.000000000000000000, 0.000000000000000000, 1.000000000000000000 ) ) ;
#161 = DIRECTION ( 'NONE',  ( 1.000000000000000000, 0.000000000000000000, 0.000000000000000000 ) ) ;
#162 = ORIENTED_EDGE ( 'NONE', *, *, #103, .F. ) ;
#163 = CARTESIAN_POINT ( 'NONE',  ( 6.505213034913029562E-16, -4.336808689942019708E-16, -1.000000000000000000 ) ) ;
#164 = DIRECTION ( 'NONE',  ( 0.000000000000000000, 0.000000000000000000, 1.000000000000000000 ) ) ;
#165 = VECTOR ( 'NONE', #38, 999.9999999999998863 ) ;
#166 = ORIENTED_EDGE ( 'NONE', *, *, #125, .T. ) ;
#167 = VECTOR ( 'NONE', #363, 1000.000000000000000 ) ;
#168 = CARTESIAN_POINT ( 'NONE',  ( -2.500000000000000000, -3.000000000000000000, 0.000000000000000000 ) ) ;
#169 = EDGE_CURVE ( 'NONE', #480, #367, #262, .T. ) ;
#170 = DIRECTION ( 'NONE',  ( 0.000000000000000000, -0.6992941554637311929, 0.7148340255851473035 ) ) ;
#171 = ORIENTED_EDGE ( 'NONE', *, *, #275, .F. ) ;
#172 = CARTESIAN_POINT ( 'NONE',  ( 3.000000000000000000, 5.250000000000000000, 1.000000000000000000 ) ) ;
#173 = EDGE_LOOP ( 'NONE', ( #357, #392, #544, #68 ) ) ;
#174 = DIRECTION ( 'NONE',  ( 0.000000000000000000, 0.000000000000000000, 1.000000000000000000 ) ) ;
#175 = ORIENTED_EDGE ( 'NONE', *, *, #52, .F. ) ;
#176 = CARTESIAN_POINT ( 'NONE',  ( 3.000000000000000000, 5.250000000000000000, 1.000000000000000000 ) ) ;
#177 = CARTESIAN_POINT ( 'NONE',  ( 2.500000000000000000, 2.500000000000000000, -1.000000000000000000 ) ) ;
#178 = AXIS2_PLACEMENT_3D ( 'NONE', #351, #122, #358 ) ;
#179 = EDGE_CURVE ( 'NONE', #72, #325, #543, .T. ) ;
#180 = EDGE_LOOP ( 'NONE', ( #538, #401, #166, #273 ) ) ;
#181 = DIRECTION ( 'NONE',  ( -1.000000000000000000, 0.000000000000000000, 0.000000000000000000 ) ) ;
#182 = AXIS2_PLACEMENT_3D ( 'NONE', #457, #353, #75 ) ;
#183 = DIRECTION ( 'NONE',  ( 0.000000000000000000, 0.000000000000000000, 1.000000000000000000 ) ) ;
#184 = EDGE_CURVE ( 'NONE', #491, #224, #156, .T. ) ;
#185 = ORIENTED_EDGE ( 'NONE', *, *, #424, .F. ) ;
#186 = UNCERTAINTY_MEASURE_WITH_UNIT (LENGTH_MEASURE( 1.000000000000000082E-05 ), #390, 'distance_accuracy_value', 'NONE');
#187 = DIRECTION ( 'NONE',  ( 0.000000000000000000, 1.000000000000000000, 0.000000000000000000 ) ) ;
#188 = CARTESIAN_POINT ( 'NONE',  ( 1.620999999999999996, -1.985152461417859467E-16, -500.0000000000000000 ) ) ;
#189 = ORIENTED_EDGE ( 'NONE', *, *, #194, .F. ) ;
#190 = CARTESIAN_POINT ( 'NONE',  ( 3.000000000000000000, -3.000000000000000000, 3.299999999999999822 ) ) ;
#191 = EDGE_CURVE ( 'NONE', #325, #212, #318, .T. ) ;
#192 = CARTESIAN_POINT ( 'NONE',  ( -3.000000000000000000, -5.250000000000000000, 0.000000000000000000 ) ) ;
#193 = VECTOR ( 'NONE', #181, 1000.000000000000000 ) ;
#194 = EDGE_CURVE ( 'NONE', #480, #506, #510, .T. ) ;
#195 = AXIS2_PLACEMENT_3D ( 'NONE', #233, #422, #140 ) ;
#196 = DIRECTION ( 'NONE',  ( 1.000000000000000000, 0.000000000000000000, 0.000000000000000000 ) ) ;
#197 = ADVANCED_FACE ( 'NONE', ( #124 ), #137, .T. ) ;
#198 = DIRECTION ( 'NONE',  ( 0.000000000000000000, 0.000000000000000000, 1.000000000000000000 ) ) ;
#199 = AXIS2_PLACEMENT_3D ( 'NONE', #400, #70, #542 ) ;
#200 = ORIENTED_EDGE ( 'NONE', *, *, #466, .T. ) ;
#201 = CARTESIAN_POINT ( 'NONE',  ( 3.000000000000000000, 4.336808689942019708E-16, -1.000000000000000000 ) ) ;
#202 = SURFACE_SIDE_STYLE ('',( #73 ) ) ;
#203 = EDGE_LOOP ( 'NONE', ( #117, #395, #86, #526 ) ) ;
#204 = APPLICATION_PROTOCOL_DEFINITION ( 'draft international standard', 'automotive_design', 1998, #2 ) ;
#205 = VECTOR ( 'NONE', #571, 1000.000000000000000 ) ;
#206 = FILL_AREA_STYLE ('',( #210 ) ) ;
#207 = VECTOR ( 'NONE', #589, 999.9999999999998863 ) ;
#208 = ORIENTED_EDGE ( 'NONE', *, *, #513, .T. ) ;
#209 = DIRECTION ( 'NONE',  ( -1.000000000000000000, 0.000000000000000000, 0.000000000000000000 ) ) ;
#210 = FILL_AREA_STYLE_COLOUR ( '', #110 ) ;
#211 = VECTOR ( 'NONE', #384, 1000.000000000000000 ) ;
#212 = VERTEX_POINT ( 'NONE', #583 ) ;
#213 = LINE ( 'NONE', #20, #486 ) ;
#214 = CARTESIAN_POINT ( 'NONE',  ( 3.000000000000000000, 5.250000000000000000, 0.000000000000000000 ) ) ;
#215 = EDGE_CURVE ( 'NONE', #113, #269, #455, .T. ) ;
#216 = ORIENTED_EDGE ( 'NONE', *, *, #114, .T. ) ;
#217 = CYLINDRICAL_SURFACE ( 'NONE', #182, 1.620999999999999996 ) ;
#218 =( GEOMETRIC_REPRESENTATION_CONTEXT ( 3 ) GLOBAL_UNCERTAINTY_ASSIGNED_CONTEXT ( ( #417 ) ) GLOBAL_UNIT_ASSIGNED_CONTEXT ( ( #519, #145, #3 ) ) REPRESENTATION_CONTEXT ( 'NONE', 'WORKASPACE' ) );
#219 = CARTESIAN_POINT ( 'NONE',  ( 3.000000000000000000, 5.250000000000000000, 1.000000000000000000 ) ) ;
#220 = VECTOR ( 'NONE', #591, 1000.000000000000000 ) ;
#221 = EDGE_LOOP ( 'NONE', ( #109, #387, #251, #15 ) ) ;
#222 = PLANE ( 'NONE',  #534 ) ;
#223 = CARTESIAN_POINT ( 'NONE',  ( -2.500000000000000000, -3.000000000000000000, -1.000000000000000000 ) ) ;
#224 = VERTEX_POINT ( 'NONE', #133 ) ;
#225 = DIRECTION ( 'NONE',  ( 1.000000000000000000, 0.000000000000000000, 0.000000000000000000 ) ) ;
#226 = DIRECTION ( 'NONE',  ( 1.000000000000000000, 0.000000000000000000, 0.000000000000000000 ) ) ;
#227 = ORIENTED_EDGE ( 'NONE', *, *, #246, .T. ) ;
#228 = CARTESIAN_POINT ( 'NONE',  ( -2.500000000000000000, -3.000000000000000000, -1.000000000000000000 ) ) ;
#229 = LINE ( 'NONE', #36, #576 ) ;
#230 = ADVANCED_FACE ( 'NONE', ( #354 ), #90, .F. ) ;
#231 = ORIENTED_EDGE ( 'NONE', *, *, #44, .F. ) ;
#232 = LINE ( 'NONE', #425, #329 ) ;
#233 = CARTESIAN_POINT ( 'NONE',  ( -6.505213034913029562E-16, 4.336808689942019708E-16, 0.000000000000000000 ) ) ;
#234 = ORIENTED_EDGE ( 'NONE', *, *, #424, .T. ) ;
#235 = CARTESIAN_POINT ( 'NONE',  ( 3.000000000000000000, 0.000000000000000000, 0.000000000000000000 ) ) ;
#236 = DIRECTION ( 'NONE',  ( 0.000000000000000000, 0.000000000000000000, 1.000000000000000000 ) ) ;
#237 = EDGE_CURVE ( 'NONE', #498, #491, #372, .T. ) ;
#238 = CARTESIAN_POINT ( 'NONE',  ( 0.000000000000000000, 0.000000000000000000, -500.0000000000000000 ) ) ;
#239 = MECHANICAL_DESIGN_GEOMETRIC_PRESENTATION_REPRESENTATION (  '', ( #558 ), #436 ) ;
#240 = DIRECTION ( 'NONE',  ( 0.000000000000000000, 0.000000000000000000, 1.000000000000000000 ) ) ;
#241 = CIRCLE ( 'NONE', #377, 0.5000000000000000000 ) ;
#242 =( NAMED_UNIT ( * ) PLANE_ANGLE_UNIT ( ) SI_UNIT ( $, .RADIAN. ) );
#243 = VECTOR ( 'NONE', #11, 1000.000000000000000 ) ;
#244 = VECTOR ( 'NONE', #284, 1000.000000000000000 ) ;
#245 = EDGE_LOOP ( 'NONE', ( #60, #141, #77, #578 ) ) ;
#246 = EDGE_CURVE ( 'NONE', #224, #491, #28, .T. ) ;
#247 = ORIENTED_EDGE ( 'NONE', *, *, #71, .T. ) ;
#248 = ORIENTED_EDGE ( 'NONE', *, *, #58, .T. ) ;
#249 = EDGE_CURVE ( 'NONE', #21, #533, #108, .T. ) ;
#250 = CARTESIAN_POINT ( 'NONE',  ( 0.000000000000000000, 0.000000000000000000, -1.000000000000000000 ) ) ;
#251 = ORIENTED_EDGE ( 'NONE', *, *, #194, .T. ) ;
#252 = DIRECTION ( 'NONE',  ( 0.000000000000000000, 0.000000000000000000, 1.000000000000000000 ) ) ;
#253 = FACE_OUTER_BOUND ( 'NONE', #180, .T. ) ;
#254 = ORIENTED_EDGE ( 'NONE', *, *, #249, .F. ) ;
#255 = DIRECTION ( 'NONE',  ( 1.000000000000000000, 0.000000000000000000, 0.000000000000000000 ) ) ;
#256 = EDGE_LOOP ( 'NONE', ( #79, #433, #398, #373, #261, #154, #175, #340, #584, #463 ) ) ;
#257 = DIRECTION ( 'NONE',  ( -1.000000000000000000, 0.000000000000000000, 0.000000000000000000 ) ) ;
#258 = ADVANCED_FACE ( 'NONE', ( #465 ), #283, .F. ) ;
#259 = ORIENTED_EDGE ( 'NONE', *, *, #7, .F. ) ;
#260 = DIRECTION ( 'NONE',  ( 0.000000000000000000, -1.000000000000000000, 0.000000000000000000 ) ) ;
#261 = ORIENTED_EDGE ( 'NONE', *, *, #548, .T. ) ;
#262 = LINE ( 'NONE', #449, #431 ) ;
#263 = ORIENTED_EDGE ( 'NONE', *, *, #429, .T. ) ;
#264 = DIRECTION ( 'NONE',  ( 0.000000000000000000, 0.000000000000000000, -1.000000000000000000 ) ) ;
#265 = VECTOR ( 'NONE', #287, 1000.000000000000000 ) ;
#266 = ORIENTED_EDGE ( 'NONE', *, *, #446, .T. ) ;
#267 = DIRECTION ( 'NONE',  ( 1.000000000000000000, 0.000000000000000000, 0.000000000000000000 ) ) ;
#268 = AXIS2_PLACEMENT_3D ( 'NONE', #320, #160, #115 ) ;
#269 = VERTEX_POINT ( 'NONE', #49 ) ;
#270 = CIRCLE ( 'NONE', #611, 1.620999999999999996 ) ;
#271 = PLANE ( 'NONE',  #268 ) ;
#272 = VECTOR ( 'NONE', #343, 1000.000000000000000 ) ;
#273 = ORIENTED_EDGE ( 'NONE', *, *, #440, .T. ) ;
#274 = LINE ( 'NONE', #228, #585 ) ;
#275 = EDGE_CURVE ( 'NONE', #151, #498, #270, .T. ) ;
#276 = CARTESIAN_POINT ( 'NONE',  ( 3.000000000000000000, -3.000000000000000000, 3.299999999999999822 ) ) ;
#277 = ORIENTED_EDGE ( 'NONE', *, *, #513, .F. ) ;
#278 = CARTESIAN_POINT ( 'NONE',  ( -3.000000000000000000, 0.000000000000000000, -1.000000000000000000 ) ) ;
#279 = CARTESIAN_POINT ( 'NONE',  ( 0.000000000000000000, 0.000000000000000000, -1.000000000000000000 ) ) ;
#280 = ORIENTED_EDGE ( 'NONE', *, *, #215, .T. ) ;
#281 = VECTOR ( 'NONE', #405, 1000.000000000000000 ) ;
#282 = DIRECTION ( 'NONE',  ( 0.000000000000000000, 0.000000000000000000, 1.000000000000000000 ) ) ;
#283 = PLANE ( 'NONE',  #118 ) ;
#284 = DIRECTION ( 'NONE',  ( 0.000000000000000000, -1.000000000000000000, 0.000000000000000000 ) ) ;
#285 = DIRECTION ( 'NONE',  ( 0.000000000000000000, 0.000000000000000000, 1.000000000000000000 ) ) ;
#286 = VECTOR ( 'NONE', #516, 1000.000000000000000 ) ;
#287 = DIRECTION ( 'NONE',  ( -1.000000000000000000, 0.000000000000000000, 0.000000000000000000 ) ) ;
#288 = ADVANCED_FACE ( 'NONE', ( #444 ), #119, .T. ) ;
#289 = DIRECTION ( 'NONE',  ( 0.000000000000000000, 0.000000000000000000, 1.000000000000000000 ) ) ;
#290 = PRODUCT_DEFINITION_SHAPE ( 'NONE', 'NONE',  #490 ) ;
#291 = STYLED_ITEM ( 'NONE', ( #1 ), #48 ) ;
#292 = ADVANCED_FACE ( 'NONE', ( #582 ), #217, .F. ) ;
#293 = LINE ( 'NONE', #335, #286 ) ;
#294 = ORIENTED_EDGE ( 'NONE', *, *, #237, .F. ) ;
#295 = DIRECTION ( 'NONE',  ( 0.000000000000000000, 0.000000000000000000, -1.000000000000000000 ) ) ;
#296 = AXIS2_PLACEMENT_3D ( 'NONE', #306, #101, #460 ) ;
#297 = DIRECTION ( 'NONE',  ( 0.000000000000000000, 0.000000000000000000, -1.000000000000000000 ) ) ;
#298 = AXIS2_PLACEMENT_3D ( 'NONE', #366, #164, #546 ) ;
#299 = EDGE_CURVE ( 'NONE', #367, #487, #416, .T. ) ;
#300 = EDGE_LOOP ( 'NONE', ( #200, #350, #66, #138 ) ) ;
#301 = CARTESIAN_POINT ( 'NONE',  ( -2.500000000000000000, -3.000000000000000000, 0.000000000000000000 ) ) ;
#302 = CARTESIAN_POINT ( 'NONE',  ( 3.000000000000000000, -5.250000000000000000, 0.000000000000000000 ) ) ;
#303 = ORIENTED_EDGE ( 'NONE', *, *, #564, .T. ) ;
#304 = ORIENTED_EDGE ( 'NONE', *, *, #215, .F. ) ;
#305 = PRODUCT_DEFINITION_CONTEXT ( 'detailed design', #47, 'design' ) ;
#306 = CARTESIAN_POINT ( 'NONE',  ( -6.505213034913029562E-16, 4.336808689942019708E-16, -1.000000000000000000 ) ) ;
#307 = ADVANCED_FACE ( 'NONE', ( #78 ), #586, .T. ) ;
#308 = CARTESIAN_POINT ( 'NONE',  ( 0.000000000000000000, -3.000000000000000000, -1.000000000000000000 ) ) ;
#309 = VECTOR ( 'NONE', #312, 1000.000000000000000 ) ;
#310 = ORIENTED_EDGE ( 'NONE', *, *, #504, .T. ) ;
#311 = PLANE ( 'NONE',  #512 ) ;
#312 = DIRECTION ( 'NONE',  ( 0.000000000000000000, -1.000000000000000000, 0.000000000000000000 ) ) ;
#313 = ORIENTED_EDGE ( 'NONE', *, *, #429, .F. ) ;
#314 = DIRECTION ( 'NONE',  ( 0.000000000000000000, 0.000000000000000000, -1.000000000000000000 ) ) ;
#315 = LINE ( 'NONE', #497, #537 ) ;
#316 = ORIENTED_EDGE ( 'NONE', *, *, #81, .T. ) ;
#317 = FACE_OUTER_BOUND ( 'NONE', #595, .T. ) ;
#318 = LINE ( 'NONE', #219, #207 ) ;
#319 = EDGE_LOOP ( 'NONE', ( #303, #94, #341, #216 ) ) ;
#320 = CARTESIAN_POINT ( 'NONE',  ( 3.000000000000000000, -5.250000000000000000, 0.000000000000000000 ) ) ;
#321 = DIRECTION ( 'NONE',  ( 1.000000000000000000, 0.000000000000000000, 0.000000000000000000 ) ) ;
#322 = ORIENTED_EDGE ( 'NONE', *, *, #440, .F. ) ;
#323 = FACE_OUTER_BOUND ( 'NONE', #437, .T. ) ;
#324 = DIRECTION ( 'NONE',  ( 0.000000000000000000, 0.000000000000000000, -1.000000000000000000 ) ) ;
#325 = VERTEX_POINT ( 'NONE', #176 ) ;
#326 = DIRECTION ( 'NONE',  ( 0.000000000000000000, 0.6992941554637311929, -0.7148340255851471925 ) ) ;
#327 = ADVANCED_FACE ( 'NONE', ( #409, #16 ), #393, .F. ) ;
#328 = DIRECTION ( 'NONE',  ( 0.000000000000000000, 0.000000000000000000, -1.000000000000000000 ) ) ;
#329 = VECTOR ( 'NONE', #472, 1000.000000000000000 ) ;
#331 = CIRCLE ( 'NONE', #442, 0.5000000000000000000 ) ;
#330 = CARTESIAN_POINT ( 'NONE',  ( -3.000000000000000000, -5.250000000000000000, 1.000000000000000000 ) ) ;
#332 = CARTESIAN_POINT ( 'NONE',  ( -3.000000000000000000, -5.250000000000000000, 1.000000000000000000 ) ) ;
#333 = DIRECTION ( 'NONE',  ( 0.000000000000000000, -1.000000000000000000, 0.000000000000000000 ) ) ;
#334 = EDGE_CURVE ( 'NONE', #111, #347, #213, .T. ) ;
#335 = CARTESIAN_POINT ( 'NONE',  ( -3.000000000000000000, -2.500000000000000000, -1.000000000000000000 ) ) ;
#336 = EDGE_CURVE ( 'NONE', #590, #21, #123, .T. ) ;
#337 =( NAMED_UNIT ( * ) SI_UNIT ( $, .STERADIAN. ) SOLID_ANGLE_UNIT ( ) );
#338 = DIRECTION ( 'NONE',  ( -1.000000000000000000, 0.000000000000000000, 0.000000000000000000 ) ) ;
#339 = ADVANCED_FACE ( 'NONE', ( #579 ), #311, .T. ) ;
#340 = ORIENTED_EDGE ( 'NONE', *, *, #466, .F. ) ;
#341 = ORIENTED_EDGE ( 'NONE', *, *, #179, .F. ) ;
#342 = CARTESIAN_POINT ( 'NONE',  ( -1.620999999999999996, 0.000000000000000000, -500.0000000000000000 ) ) ;
#343 = DIRECTION ( 'NONE',  ( 0.000000000000000000, 1.000000000000000000, 0.000000000000000000 ) ) ;
#344 = VERTEX_POINT ( 'NONE', #83 ) ;
#345 = MECHANICAL_DESIGN_GEOMETRIC_PRESENTATION_REPRESENTATION (  '', ( #291 ), #528 ) ;
#346 = DIRECTION ( 'NONE',  ( 1.000000000000000000, 0.000000000000000000, 0.000000000000000000 ) ) ;
#347 = VERTEX_POINT ( 'NONE', #484 ) ;
#348 = CARTESIAN_POINT ( 'NONE',  ( -2.500000000000000000, -3.000000000000000000, -1.000000000000000000 ) ) ;
#349 = CYLINDRICAL_SURFACE ( 'NONE', #517, 0.5000000000000000000 ) ;
#350 = ORIENTED_EDGE ( 'NONE', *, *, #102, .F. ) ;
#351 = CARTESIAN_POINT ( 'NONE',  ( 0.000000000000000000, 0.000000000000000000, 0.000000000000000000 ) ) ;
#352 = EDGE_CURVE ( 'NONE', #347, #556, #531, .T. ) ;
#353 = DIRECTION ( 'NONE',  ( 0.000000000000000000, 0.000000000000000000, 1.000000000000000000 ) ) ;
#354 = FACE_OUTER_BOUND ( 'NONE', #245, .T. ) ;
#355 = AXIS2_PLACEMENT_3D ( 'NONE', #238, #285, #143 ) ;
#356 = VECTOR ( 'NONE', #267, 1000.000000000000000 ) ;
#357 = ORIENTED_EDGE ( 'NONE', *, *, #275, .T. ) ;
#358 = DIRECTION ( 'NONE',  ( 1.000000000000000000, 0.000000000000000000, 0.000000000000000000 ) ) ;
#359 = DIRECTION ( 'NONE',  ( 0.000000000000000000, 0.000000000000000000, -1.000000000000000000 ) ) ;
#360 = DIRECTION ( 'NONE',  ( 0.000000000000000000, 0.000000000000000000, 1.000000000000000000 ) ) ;
#361 = ORIENTED_EDGE ( 'NONE', *, *, #89, .T. ) ;
#362 = LINE ( 'NONE', #172, #477 ) ;
#363 = DIRECTION ( 'NONE',  ( 0.000000000000000000, 0.000000000000000000, 1.000000000000000000 ) ) ;
#364 = VERTEX_POINT ( 'NONE', #539 ) ;
#365 = DIRECTION ( 'NONE',  ( 0.000000000000000000, -0.6992941554637311929, -0.7148340255851473035 ) ) ;
#366 = CARTESIAN_POINT ( 'NONE',  ( 2.500000000000000000, 2.500000000000000000, -1.000000000000000000 ) ) ;
#367 = VERTEX_POINT ( 'NONE', #545 ) ;
#368 = CARTESIAN_POINT ( 'NONE',  ( 0.000000000000000000, 3.000000000000000000, -1.000000000000000000 ) ) ;
#369 = CARTESIAN_POINT ( 'NONE',  ( 0.000000000000000000, 0.000000000000000000, 3.299999999999999822 ) ) ;
#370 = ORIENTED_EDGE ( 'NONE', *, *, #461, .T. ) ;
#371 = PLANE ( 'NONE',  #560 ) ;
#372 = LINE ( 'NONE', #188, #69 ) ;
#373 = ORIENTED_EDGE ( 'NONE', *, *, #158, .F. ) ;
#374 = LINE ( 'NONE', #514, #403 ) ;
#375 = VECTOR ( 'NONE', #469, 1000.000000000000000 ) ;
#377 = AXIS2_PLACEMENT_3D ( 'NONE', #601, #407, #226 ) ;
#376 = CARTESIAN_POINT ( 'NONE',  ( -3.000000000000000000, -2.500000000000000000, -1.000000000000000000 ) ) ;
#378 = ADVANCED_FACE ( 'NONE', ( #488, #131 ), #222, .F. ) ;
#379 = AXIS2_PLACEMENT_3D ( 'NONE', #250, #5, #257 ) ;
#380 = CARTESIAN_POINT ( 'NONE',  ( 3.000000000000000000, 4.336808689942019708E-16, 0.000000000000000000 ) ) ;
#381 = EDGE_CURVE ( 'NONE', #485, #523, #499, .T. ) ;
#382 = PRODUCT ( 'T型螺母[AENT20-4]', 'T型螺母[AENT20-4]', '', ( #492 ) ) ;
#383 = PLANE ( 'NONE',  #129 ) ;
#384 = DIRECTION ( 'NONE',  ( 0.000000000000000000, 0.000000000000000000, 1.000000000000000000 ) ) ;
#385 =( NAMED_UNIT ( * ) SI_UNIT ( $, .STERADIAN. ) SOLID_ANGLE_UNIT ( ) );
#386 = LINE ( 'NONE', #153, #272 ) ;
#387 = ORIENTED_EDGE ( 'NONE', *, *, #169, .F. ) ;
#388 = SURFACE_STYLE_FILL_AREA ( #524 ) ;
#389 = EDGE_LOOP ( 'NONE', ( #189, #443, #304, #313, #185, #45, #459, #134 ) ) ;
#390 =( LENGTH_UNIT ( ) NAMED_UNIT ( * ) SI_UNIT ( .MILLI., .METRE. ) );
#391 = CARTESIAN_POINT ( 'NONE',  ( 3.000000000000000000, 2.500000000000000000, -1.000000000000000000 ) ) ;
#392 = ORIENTED_EDGE ( 'NONE', *, *, #237, .T. ) ;
#393 = PLANE ( 'NONE',  #132 ) ;
#394 = EDGE_CURVE ( 'NONE', #269, #344, #493, .T. ) ;
#395 = ORIENTED_EDGE ( 'NONE', *, *, #394, .F. ) ;
#396 = DIRECTION ( 'NONE',  ( 0.000000000000000000, -1.000000000000000000, 0.000000000000000000 ) ) ;
#397 = DIRECTION ( 'NONE',  ( 1.000000000000000000, 0.000000000000000000, 0.000000000000000000 ) ) ;
#398 = ORIENTED_EDGE ( 'NONE', *, *, #446, .F. ) ;
#399 = VECTOR ( 'NONE', #338, 1000.000000000000000 ) ;
#400 = CARTESIAN_POINT ( 'NONE',  ( 2.500000000000000000, 3.000000000000000000, -1.000000000000000000 ) ) ;
#401 = ORIENTED_EDGE ( 'NONE', *, *, #565, .F. ) ;
#402 = LINE ( 'NONE', #93, #309 ) ;
#403 = VECTOR ( 'NONE', #333, 1000.000000000000000 ) ;
#404 = ORIENTED_EDGE ( 'NONE', *, *, #89, .F. ) ;
#405 = DIRECTION ( 'NONE',  ( 0.000000000000000000, 0.000000000000000000, -1.000000000000000000 ) ) ;
#406 = EDGE_CURVE ( 'NONE', #325, #447, #362, .T. ) ;
#407 = DIRECTION ( 'NONE',  ( 0.000000000000000000, 0.000000000000000000, 1.000000000000000000 ) ) ;
#408 = EDGE_LOOP ( 'NONE', ( #254, #549, #234, #361 ) ) ;
#409 = FACE_BOUND ( 'NONE', #530, .T. ) ;
#410 = DIRECTION ( 'NONE',  ( 0.000000000000000000, 0.000000000000000000, -1.000000000000000000 ) ) ;
#411 = ORIENTED_EDGE ( 'NONE', *, *, #103, .T. ) ;
#412 = DIRECTION ( 'NONE',  ( 0.000000000000000000, 0.000000000000000000, -1.000000000000000000 ) ) ;
#413 = DIRECTION ( 'NONE',  ( -1.000000000000000000, 0.000000000000000000, 0.000000000000000000 ) ) ;
#414 = ADVANCED_FACE ( 'NONE', ( #317 ), #271, .F. ) ;
#415 = ORIENTED_EDGE ( 'NONE', *, *, #191, .T. ) ;
#416 = CIRCLE ( 'NONE', #146, 3.000000000000000000 ) ;
#417 = UNCERTAINTY_MEASURE_WITH_UNIT (LENGTH_MEASURE( 1.000000000000000082E-05 ), #519, 'distance_accuracy_value', 'NONE');
#418 = CARTESIAN_POINT ( 'NONE',  ( 3.000000000000000000, 5.250000000000000000, 1.000000000000000000 ) ) ;
#419 = DIRECTION ( 'NONE',  ( 0.000000000000000000, 0.000000000000000000, -1.000000000000000000 ) ) ;
#420 = ORIENTED_EDGE ( 'NONE', *, *, #572, .T. ) ;
#421 = LINE ( 'NONE', #46, #509 ) ;
#422 = DIRECTION ( 'NONE',  ( 0.000000000000000000, 0.000000000000000000, 1.000000000000000000 ) ) ;
#423 = PLANE ( 'NONE',  #57 ) ;
#424 = EDGE_CURVE ( 'NONE', #40, #606, #430, .T. ) ;
#425 = CARTESIAN_POINT ( 'NONE',  ( 0.000000000000000000, -3.000000000000000000, -1.000000000000000000 ) ) ;
#426 = UNCERTAINTY_MEASURE_WITH_UNIT (LENGTH_MEASURE( 1.000000000000000082E-05 ), #56, 'distance_accuracy_value', 'NONE');
#427 = PRESENTATION_STYLE_ASSIGNMENT (( #428 ) ) ;
#428 = SURFACE_STYLE_USAGE ( .BOTH. , #568 ) ;
#429 = EDGE_CURVE ( 'NONE', #606, #113, #95, .T. ) ;
#430 = CIRCLE ( 'NONE', #296, 3.000000000000000000 ) ;
#431 = VECTOR ( 'NONE', #360, 1000.000000000000000 ) ;
#432 =( NAMED_UNIT ( * ) PLANE_ANGLE_UNIT ( ) SI_UNIT ( $, .RADIAN. ) );
#433 = ORIENTED_EDGE ( 'NONE', *, *, #564, .F. ) ;
#434 = ORIENTED_EDGE ( 'NONE', *, *, #381, .T. ) ;
#435 = CYLINDRICAL_SURFACE ( 'NONE', #135, 3.000000000000000000 ) ;
#436 =( GEOMETRIC_REPRESENTATION_CONTEXT ( 3 ) GLOBAL_UNCERTAINTY_ASSIGNED_CONTEXT ( ( #186 ) ) GLOBAL_UNIT_ASSIGNED_CONTEXT ( ( #390, #242, #385 ) ) REPRESENTATION_CONTEXT ( 'NONE', 'WORKASPACE' ) );
#437 = EDGE_LOOP ( 'NONE', ( #415, #208, #599, #434, #248, #404, #263, #8, #411, #574 ) ) ;
#438 = APPLICATION_PROTOCOL_DEFINITION ( 'draft international standard', 'automotive_design', 1998, #47 ) ;
#439 = CARTESIAN_POINT ( 'NONE',  ( -3.000000000000000000, -3.000000000000000000, 3.299999999999999822 ) ) ;
#440 = EDGE_CURVE ( 'NONE', #364, #590, #274, .T. ) ;
#441 = LINE ( 'NONE', #445, #547 ) ;
#442 = AXIS2_PLACEMENT_3D ( 'NONE', #80, #174, #321 ) ;
#443 = ORIENTED_EDGE ( 'NONE', *, *, #592, .F. ) ;
#444 = FACE_OUTER_BOUND ( 'NONE', #408, .T. ) ;
#445 = CARTESIAN_POINT ( 'NONE',  ( -3.000000000000000000, 5.250000000000000000, 1.000000000000000000 ) ) ;
#446 = EDGE_CURVE ( 'NONE', #487, #18, #550, .T. ) ;
#447 = VERTEX_POINT ( 'NONE', #88 ) ;
#448 = CARTESIAN_POINT ( 'NONE',  ( 3.000000000000000000, -5.250000000000000000, 1.000000000000000000 ) ) ;
#449 = CARTESIAN_POINT ( 'NONE',  ( 0.000000000000000000, 3.000000000000000000, -1.000000000000000000 ) ) ;
#450 = ADVANCED_FACE ( 'NONE', ( #553 ), #600, .F. ) ;
#451 = ORIENTED_EDGE ( 'NONE', *, *, #191, .F. ) ;
#452 = CARTESIAN_POINT ( 'NONE',  ( 2.500000000000000000, 3.000000000000000000, -1.000000000000000000 ) ) ;
#453 = DIRECTION ( 'NONE',  ( 0.000000000000000000, 0.000000000000000000, 1.000000000000000000 ) ) ;
#454 = VECTOR ( 'NONE', #365, 999.9999999999998863 ) ;
#455 = CIRCLE ( 'NONE', #298, 0.5000000000000000000 ) ;
#456 = VERTEX_POINT ( 'NONE', #376 ) ;
#457 = CARTESIAN_POINT ( 'NONE',  ( 0.000000000000000000, 0.000000000000000000, -500.0000000000000000 ) ) ;
#458 = DIRECTION ( 'NONE',  ( -1.000000000000000000, 0.000000000000000000, 0.000000000000000000 ) ) ;
#459 = ORIENTED_EDGE ( 'NONE', *, *, #125, .F. ) ;
#460 = DIRECTION ( 'NONE',  ( 1.000000000000000000, 0.000000000000000000, 0.000000000000000000 ) ) ;
#461 = EDGE_CURVE ( 'NONE', #40, #21, #232, .T. ) ;
#462 = DIRECTION ( 'NONE',  ( 0.000000000000000000, 0.7148340255851471925, -0.6992941554637311929 ) ) ;
#463 = ORIENTED_EDGE ( 'NONE', *, *, #148, .F. ) ;
#464 = CARTESIAN_POINT ( 'NONE',  ( 3.000000000000000000, 2.500000000000000000, 0.000000000000000000 ) ) ;
#465 = FACE_OUTER_BOUND ( 'NONE', #300, .T. ) ;
#466 = EDGE_CURVE ( 'NONE', #556, #570, #604, .T. ) ;
#467 = ORIENTED_EDGE ( 'NONE', *, *, #614, .T. ) ;
#468 = VECTOR ( 'NONE', #183, 1000.000000000000000 ) ;
#469 = DIRECTION ( 'NONE',  ( 0.000000000000000000, 1.000000000000000000, 0.000000000000000000 ) ) ;
#470 = CARTESIAN_POINT ( 'NONE',  ( 0.000000000000000000, 0.000000000000000000, 3.299999999999999822 ) ) ;
#471 = EDGE_CURVE ( 'NONE', #485, #556, #144, .T. ) ;
#472 = DIRECTION ( 'NONE',  ( 0.000000000000000000, 0.000000000000000000, 1.000000000000000000 ) ) ;
#473 = EDGE_CURVE ( 'NONE', #111, #485, #557, .T. ) ;
#474 = CARTESIAN_POINT ( 'NONE',  ( -3.000000000000000000, 5.250000000000000000, 0.000000000000000000 ) ) ;
#475 = CARTESIAN_POINT ( 'NONE',  ( 0.000000000000000000, -3.000000000000000000, 0.000000000000000000 ) ) ;
#476 = VECTOR ( 'NONE', #289, 1000.000000000000000 ) ;
#477 = VECTOR ( 'NONE', #127, 1000.000000000000000 ) ;
#478 = CARTESIAN_POINT ( 'NONE',  ( -3.000000000000000000, -2.500000000000000000, 0.000000000000000000 ) ) ;
#479 = ORIENTED_EDGE ( 'NONE', *, *, #394, .T. ) ;
#480 = VERTEX_POINT ( 'NONE', #368 ) ;
#481 = EDGE_LOOP ( 'NONE', ( #82, #231, #280, #479 ) ) ;
#482 = LINE ( 'NONE', #302, #243 ) ;
#483 = EDGE_LOOP ( 'NONE', ( #294, #32, #467, #502 ) ) ;
#484 = CARTESIAN_POINT ( 'NONE',  ( -3.000000000000000000, -3.000000000000000000, 3.299999999999999822 ) ) ;
#485 = VERTEX_POINT ( 'NONE', #136 ) ;
#486 = VECTOR ( 'NONE', #209, 1000.000000000000000 ) ;
#487 = VERTEX_POINT ( 'NONE', #562 ) ;
#488 = FACE_BOUND ( 'NONE', #121, .T. ) ;
#489 = LINE ( 'NONE', #17, #468 ) ;
#490 = PRODUCT_DEFINITION ( '未知', '', #515, #305 ) ;
#491 = VERTEX_POINT ( 'NONE', #511 ) ;
#492 = PRODUCT_CONTEXT ( 'NONE', #2, 'mechanical' ) ;
#493 = LINE ( 'NONE', #452, #220 ) ;
#494 = COLOUR_RGB ( '',0.6862745098039215730, 0.6862745098039215730, 0.6862745098039215730 ) ;
#495 = ORIENTED_EDGE ( 'NONE', *, *, #406, .T. ) ;
#496 = CARTESIAN_POINT ( 'NONE',  ( 6.505213034913029562E-16, -4.336808689942019708E-16, 0.000000000000000000 ) ) ;
#497 = CARTESIAN_POINT ( 'NONE',  ( 3.000000000000000000, -5.250000000000000000, 0.000000000000000000 ) ) ;
#498 = VERTEX_POINT ( 'NONE', #612 ) ;
#499 = LINE ( 'NONE', #448, #281 ) ;
#500 = DIRECTION ( 'NONE',  ( 1.000000000000000000, 0.000000000000000000, 0.000000000000000000 ) ) ;
#501 = AXIS2_PLACEMENT_3D ( 'NONE', #567, #161, #577 ) ;
#502 = ORIENTED_EDGE ( 'NONE', *, *, #184, .F. ) ;
#503 = DIRECTION ( 'NONE',  ( 0.000000000000000000, 1.000000000000000000, 0.000000000000000000 ) ) ;
#504 = EDGE_CURVE ( 'NONE', #212, #541, #421, .T. ) ;
#505 = CARTESIAN_POINT ( 'NONE',  ( 3.000000000000000000, 2.500000000000000000, -1.000000000000000000 ) ) ;
#506 = VERTEX_POINT ( 'NONE', #278 ) ;
#507 = CARTESIAN_POINT ( 'NONE',  ( 2.500000000000000000, 2.500000000000000000, 0.000000000000000000 ) ) ;
#508 = DIRECTION ( 'NONE',  ( -1.000000000000000000, 0.000000000000000000, 0.000000000000000000 ) ) ;
#509 = VECTOR ( 'NONE', #50, 1000.000000000000000 ) ;
#510 = CIRCLE ( 'NONE', #587, 3.000000000000000000 ) ;
#511 = CARTESIAN_POINT ( 'NONE',  ( 1.620999999999999996, -1.985152461417859467E-16, 3.299999999999999822 ) ) ;
#512 = AXIS2_PLACEMENT_3D ( 'NONE', #348, #396, #359 ) ;
#513 = EDGE_CURVE ( 'NONE', #212, #111, #608, .T. ) ;
#514 = CARTESIAN_POINT ( 'NONE',  ( -3.000000000000000000, 0.000000000000000000, -1.000000000000000000 ) ) ;
#515 = PRODUCT_DEFINITION_FORMATION_WITH_SPECIFIED_SOURCE ( '任何', '', #382, .NOT_KNOWN. ) ;
#517 = AXIS2_PLACEMENT_3D ( 'NONE', #106, #297, #346 ) ;
#516 = DIRECTION ( 'NONE',  ( 0.000000000000000000, 0.000000000000000000, 1.000000000000000000 ) ) ;
#518 = ADVANCED_FACE ( 'NONE', ( #323 ), #423, .T. ) ;
#519 =( LENGTH_UNIT ( ) NAMED_UNIT ( * ) SI_UNIT ( .MILLI., .METRE. ) );
#520 = CARTESIAN_POINT ( 'NONE',  ( 6.505213034913029562E-16, -4.336808689942019708E-16, -1.000000000000000000 ) ) ;
#521 = DIRECTION ( 'NONE',  ( 0.000000000000000000, -1.000000000000000000, 0.000000000000000000 ) ) ;
#522 = FACE_OUTER_BOUND ( 'NONE', #256, .T. ) ;
#523 = VERTEX_POINT ( 'NONE', #92 ) ;
#524 = FILL_AREA_STYLE ('',( #155 ) ) ;
#525 = AXIS2_PLACEMENT_3D ( 'NONE', #507, #282, #142 ) ;
#526 = ORIENTED_EDGE ( 'NONE', *, *, #169, .T. ) ;
#527 = VERTEX_POINT ( 'NONE', #464 ) ;
#528 =( GEOMETRIC_REPRESENTATION_CONTEXT ( 3 ) GLOBAL_UNCERTAINTY_ASSIGNED_CONTEXT ( ( #426 ) ) GLOBAL_UNIT_ASSIGNED_CONTEXT ( ( #56, #432, #337 ) ) REPRESENTATION_CONTEXT ( 'NONE', 'WORKASPACE' ) );
#529 = LINE ( 'NONE', #391, #211 ) ;
#530 = EDGE_LOOP ( 'NONE', ( #171, #259 ) ) ;
#531 = LINE ( 'NONE', #439, #454 ) ;
#532 = FACE_OUTER_BOUND ( 'NONE', #221, .T. ) ;
#533 = VERTEX_POINT ( 'NONE', #380 ) ;
#534 = AXIS2_PLACEMENT_3D ( 'NONE', #535, #314, #260 ) ;
#535 = CARTESIAN_POINT ( 'NONE',  ( 3.000000000000000000, 3.000000000000000000, 3.299999999999999822 ) ) ;
#536 = LINE ( 'NONE', #39, #4 ) ;
#537 = VECTOR ( 'NONE', #120, 1000.000000000000000 ) ;
#538 = ORIENTED_EDGE ( 'NONE', *, *, #81, .F. ) ;
#539 = CARTESIAN_POINT ( 'NONE',  ( -2.500000000000000000, -3.000000000000000000, -1.000000000000000000 ) ) ;
#540 = DIRECTION ( 'NONE',  ( 0.000000000000000000, 0.000000000000000000, 1.000000000000000000 ) ) ;
#541 = VERTEX_POINT ( 'NONE', #563 ) ;
#542 = DIRECTION ( 'NONE',  ( 1.000000000000000000, 0.000000000000000000, 0.000000000000000000 ) ) ;
#543 = LINE ( 'NONE', #594, #167 ) ;
#544 = ORIENTED_EDGE ( 'NONE', *, *, #246, .F. ) ;
#545 = CARTESIAN_POINT ( 'NONE',  ( 0.000000000000000000, 3.000000000000000000, 0.000000000000000000 ) ) ;
#546 = DIRECTION ( 'NONE',  ( 1.000000000000000000, 0.000000000000000000, 0.000000000000000000 ) ) ;
#547 = VECTOR ( 'NONE', #170, 999.9999999999998863 ) ;
#548 = EDGE_CURVE ( 'NONE', #506, #456, #374, .T. ) ;
#549 = ORIENTED_EDGE ( 'NONE', *, *, #461, .F. ) ;
#550 = LINE ( 'NONE', #192, #375 ) ;
#551 = CARTESIAN_POINT ( 'NONE',  ( 3.000000000000000000, -5.250000000000000000, 0.000000000000000000 ) ) ;
#552 = ORIENTED_EDGE ( 'NONE', *, *, #336, .F. ) ;
#553 = FACE_OUTER_BOUND ( 'NONE', #173, .T. ) ;
#554 = ADVANCED_FACE ( 'NONE', ( #41 ), #371, .F. ) ;
#555 = CARTESIAN_POINT ( 'NONE',  ( 3.000000000000000000, -5.250000000000000000, 1.000000000000000000 ) ) ;
#556 = VERTEX_POINT ( 'NONE', #330 ) ;
#557 = LINE ( 'NONE', #190, #165 ) ;
#558 = STYLED_ITEM ( 'NONE', ( #427 ), #19 ) ;
#559 = EDGE_CURVE ( 'NONE', #527, #344, #107, .T. ) ;
#560 = AXIS2_PLACEMENT_3D ( 'NONE', #418, #139, #326 ) ;
#561 = AXIS2_PLACEMENT_3D ( 'NONE', #177, #324, #500 ) ;
#562 = CARTESIAN_POINT ( 'NONE',  ( -3.000000000000000000, 0.000000000000000000, 0.000000000000000000 ) ) ;
#563 = CARTESIAN_POINT ( 'NONE',  ( -3.000000000000000000, 3.000000000000000000, 3.299999999999999822 ) ) ;
#564 = EDGE_CURVE ( 'NONE', #18, #447, #147, .T. ) ;
#565 = EDGE_CURVE ( 'NONE', #456, #9, #293, .T. ) ;
#566 = LINE ( 'NONE', #10, #399 ) ;
#567 = CARTESIAN_POINT ( 'NONE',  ( -3.000000000000000000, 0.000000000000000000, 0.000000000000000000 ) ) ;
#568 = SURFACE_SIDE_STYLE ('',( #388 ) ) ;
#569 = PLANE ( 'NONE',  #613 ) ;
#570 = VERTEX_POINT ( 'NONE', #54 ) ;
#571 = DIRECTION ( 'NONE',  ( 0.000000000000000000, 0.000000000000000000, 1.000000000000000000 ) ) ;
#572 = EDGE_CURVE ( 'NONE', #344, #367, #566, .T. ) ;
#573 = DIRECTION ( 'NONE',  ( 1.000000000000000000, 0.000000000000000000, 0.000000000000000000 ) ) ;
#574 = ORIENTED_EDGE ( 'NONE', *, *, #179, .T. ) ;
#575 = LINE ( 'NONE', #342, #476 ) ;
#576 = VECTOR ( 'NONE', #413, 1000.000000000000000 ) ;
#577 = DIRECTION ( 'NONE',  ( 0.000000000000000000, 1.000000000000000000, 0.000000000000000000 ) ) ;
#578 = ORIENTED_EDGE ( 'NONE', *, *, #334, .T. ) ;
#579 = FACE_OUTER_BOUND ( 'NONE', #159, .T. ) ;
#580 = SURFACE_STYLE_USAGE ( .BOTH. , #202 ) ;
#581 = EDGE_LOOP ( 'NONE', ( #420, #12, #266, #104, #162, #37 ) ) ;
#582 = FACE_OUTER_BOUND ( 'NONE', #483, .T. ) ;
#583 = CARTESIAN_POINT ( 'NONE',  ( 3.000000000000000000, 3.000000000000000000, 3.299999999999999822 ) ) ;
#584 = ORIENTED_EDGE ( 'NONE', *, *, #352, .F. ) ;
#585 = VECTOR ( 'NONE', #240, 1000.000000000000000 ) ;
#586 = PLANE ( 'NONE',  #199 ) ;
#587 = AXIS2_PLACEMENT_3D ( 'NONE', #85, #540, #397 ) ;
#588 = EDGE_LOOP ( 'NONE', ( #247, #63, #451, #495 ) ) ;
#589 = DIRECTION ( 'NONE',  ( 0.000000000000000000, -0.6992941554637311929, 0.7148340255851473035 ) ) ;
#590 = VERTEX_POINT ( 'NONE', #301 ) ;
#591 = DIRECTION ( 'NONE',  ( 0.000000000000000000, 0.000000000000000000, 1.000000000000000000 ) ) ;
#592 = EDGE_CURVE ( 'NONE', #269, #480, #152, .T. ) ;
#593 = ORIENTED_EDGE ( 'NONE', *, *, #58, .F. ) ;
#594 = CARTESIAN_POINT ( 'NONE',  ( 3.000000000000000000, 5.250000000000000000, 0.000000000000000000 ) ) ;
#595 = EDGE_LOOP ( 'NONE', ( #130, #316, #74, #65, #593, #91 ) ) ;
#596 = DIRECTION ( 'NONE',  ( 1.000000000000000000, 0.000000000000000000, 0.000000000000000000 ) ) ;
#597 = CARTESIAN_POINT ( 'NONE',  ( 3.000000000000000000, -3.000000000000000000, 3.299999999999999822 ) ) ;
#598 = PRODUCT_RELATED_PRODUCT_CATEGORY ( 'part', '', ( #382 ) ) ;
#599 = ORIENTED_EDGE ( 'NONE', *, *, #473, .T. ) ;
#600 = CYLINDRICAL_SURFACE ( 'NONE', #355, 1.620999999999999996 ) ;
#601 = CARTESIAN_POINT ( 'NONE',  ( -2.500000000000000000, -2.500000000000000000, -1.000000000000000000 ) ) ;
#602 = AXIS2_PLACEMENT_3D ( 'NONE', #369, #410, #128 ) ;
#603 = ORIENTED_EDGE ( 'NONE', *, *, #148, .T. ) ;
#604 = LINE ( 'NONE', #332, #96 ) ;
#605 = DIRECTION ( 'NONE',  ( -1.000000000000000000, 0.000000000000000000, 0.000000000000000000 ) ) ;
#606 = VERTEX_POINT ( 'NONE', #201 ) ;
#607 = ADVANCED_FACE ( 'NONE', ( #105 ), #383, .F. ) ;
#608 = LINE ( 'NONE', #99, #244 ) ;
#609 = DIRECTION ( 'NONE',  ( -0.000000000000000000, 1.000000000000000000, 0.000000000000000000 ) ) ;
#610 = CARTESIAN_POINT ( 'NONE',  ( 3.000000000000000000, -5.250000000000000000, 1.000000000000000000 ) ) ;
#611 = AXIS2_PLACEMENT_3D ( 'NONE', #279, #328, #508 ) ;
#612 = CARTESIAN_POINT ( 'NONE',  ( 1.620999999999999996, -1.985152461417859467E-16, -1.000000000000000000 ) ) ;
#613 = AXIS2_PLACEMENT_3D ( 'NONE', #150, #198, #112 ) ;
#614 = EDGE_CURVE ( 'NONE', #151, #224, #575, .T. ) ;
ENDSEC;
END-ISO-10303-21;
