ISO-10303-21;
HEADER;
FILE_DESCRIPTION (( 'STEP AP214' ),
    '1' );
FILE_NAME ('镜向GB╱T 6186-2000[2型全金属六角锁紧螺母 9级M6].step',
    '2023-08-15T02:55:24',
    ( '' ),
    ( '' ),
    'SwSTEP 2.0',
    'SolidWorks 2022',
    '' );
FILE_SCHEMA (( 'AUTOMOTIVE_DESIGN' ));
ENDSEC;

DATA;
#1 = ORIENTED_EDGE ( 'NONE', *, *, #556, .F. ) ;
#2 = CARTESIAN_POINT ( 'NONE',  ( 0.000000000000000000, 0.000000000000000000, -6.700000000000000178 ) ) ;
#3 = PRESENTATION_LAYER_ASSIGNMENT (  '', '', ( #26 ) ) ;
#4 = CARTESIAN_POINT ( 'NONE',  ( 4.784790355909024129, -2.762500000000002398, -0.3031088913245527650 ) ) ;
#5 = EDGE_CURVE ( 'NONE', #52, #36, #271, .T. ) ;
#6 = ORIENTED_EDGE ( 'NONE', *, *, #477, .T. ) ;
#7 = CARTESIAN_POINT ( 'NONE',  ( 4.784790355909023241, 2.328724535956409269, -0.1778887008578410034 ) ) ;
#8 = CARTESIAN_POINT ( 'NONE',  ( 4.408741326392750182, -2.979612008419721292, -5.892112008419902125 ) ) ;
#9 = EDGE_CURVE ( 'NONE', #308, #676, #385, .T. ) ;
#10 = ORIENTED_EDGE ( 'NONE', *, *, #477, .F. ) ;
#11 = B_SPLINE_CURVE_WITH_KNOTS ( 'NONE', 3,
 ( #368, #470, #752, #585, #382, #244, #547, #116 ),
 .UNSPECIFIED., .F., .F.,
 ( 4, 2, 2, 4 ),
 ( 0.002925838180386472736, 0.003641801397372416288, 0.004357764614358360274, 0.005789691048330248245 ),
 .UNSPECIFIED. ) ;
#12 = DIRECTION ( 'NONE',  ( 0.000000000000000000, 0.000000000000000000, -1.000000000000000000 ) ) ;
#13 = DIRECTION ( 'NONE',  ( -0.000000000000000000, -0.000000000000000000, 1.000000000000000000 ) ) ;
#14 = B_SPLINE_CURVE_WITH_KNOTS ( 'NONE', 3,
 ( #275, #277, #334, #212 ),
 .UNSPECIFIED., .F., .F.,
 ( 4, 4 ),
 ( 0.005193472794864787030, 0.006542303227970890610 ),
 .UNSPECIFIED. ) ;
#15 = DIRECTION ( 'NONE',  ( -0.000000000000000000, -0.000000000000000000, -1.000000000000000000 ) ) ;
#16 = CARTESIAN_POINT ( 'NONE',  ( 4.784790355909024129, -2.762500000000002398, -6.700000000000000178 ) ) ;
#17 = CARTESIAN_POINT ( 'NONE',  ( 2.588214285714286245, -3.169648340507453261E-16, 0.000000000000000000 ) ) ;
#18 = CARTESIAN_POINT ( 'NONE',  ( 0.000000000000000000, 0.000000000000000000, 0.000000000000000000 ) ) ;
#19 = EDGE_LOOP ( 'NONE', ( #123, #448 ) ) ;
#20 = CARTESIAN_POINT ( 'NONE',  ( -4.784790355909025905, -2.333967467660403639, -5.889266266169813413 ) ) ;
#21 = CYLINDRICAL_SURFACE ( 'NONE', #444, 2.458750000000000213 ) ;
#22 = ADVANCED_FACE ( 'NONE', ( #152 ), #21, .F. ) ;
#23 = SURFACE_STYLE_USAGE ( .BOTH. , #259 ) ;
#24 = AXIS2_PLACEMENT_3D ( 'NONE', #513, #464, #519 ) ;
#25 =( NAMED_UNIT ( * ) SI_UNIT ( $, .STERADIAN. ) SOLID_ANGLE_UNIT ( ) );
#26 = STYLED_ITEM ( 'NONE', ( #322 ), #22 ) ;
#27 = EDGE_CURVE ( 'NONE', #575, #237, #142, .T. ) ;
#28 = ORIENTED_EDGE ( 'NONE', *, *, #365, .F. ) ;
#29 = PRODUCT_CONTEXT ( 'NONE', #733, 'mechanical' ) ;
#30 = CONICAL_SURFACE ( 'NONE', #260, 2.588214285714286245, 0.7853981633974482790 ) ;
#31 = CARTESIAN_POINT ( 'NONE',  ( 3.649111509311750101, -3.418184487795901116, 0.000000000000000000 ) ) ;
#32 = EDGE_CURVE ( 'NONE', #224, #135, #346, .T. ) ;
#33 = DIRECTION ( 'NONE',  ( -1.000000000000000000, 0.000000000000000000, 0.000000000000000000 ) ) ;
#34 = VERTEX_POINT ( 'NONE', #613 ) ;
#35 = CARTESIAN_POINT ( 'NONE',  ( 0.000000000000000000, 0.000000000000000000, 0.000000000000000000 ) ) ;
#36 = VERTEX_POINT ( 'NONE', #625 ) ;
#37 = LINE ( 'NONE', #472, #332 ) ;
#38 = CIRCLE ( 'NONE', #479, 2.458750000000000213 ) ;
#39 = AXIS2_PLACEMENT_3D ( 'NONE', #619, #493, #725 ) ;
#40 = CARTESIAN_POINT ( 'NONE',  ( -1.962869199810221676, 4.391736939105544302, -6.395305118895448615 ) ) ;
#41 = FACE_OUTER_BOUND ( 'NONE', #749, .T. ) ;
#42 = ORIENTED_EDGE ( 'NONE', *, *, #106, .T. ) ;
#43 = LINE ( 'NONE', #48, #731 ) ;
#44 = AXIS2_PLACEMENT_3D ( 'NONE', #367, #490, #597 ) ;
#45 = CARTESIAN_POINT ( 'NONE',  ( 4.784790355909023241, -0.2425428170339443690, -6.415209644090984042 ) ) ;
#46 = FILL_AREA_STYLE ('',( #574 ) ) ;
#47 = ORIENTED_EDGE ( 'NONE', *, *, #9, .F. ) ;
#48 = CARTESIAN_POINT ( 'NONE',  ( -4.784790355909025017, -2.762500000000001954, -6.700000000000000178 ) ) ;
#49 = B_SPLINE_CURVE_WITH_KNOTS ( 'NONE', 3,
 ( #726, #7, #480, #63 ),
 .UNSPECIFIED., .F., .F.,
 ( 4, 4 ),
 ( 0.005193472794864375901, 0.006542303227970883671 ),
 .UNSPECIFIED. ) ;
#50 = CARTESIAN_POINT ( 'NONE',  ( -3.649111509311746993, 3.418184487795903781, 0.000000000000000000 ) ) ;
#51 = CARTESIAN_POINT ( 'NONE',  ( 4.784790355909024129, -1.894008426187641980, -0.07420950181403770940 ) ) ;
#52 = VERTEX_POINT ( 'NONE', #79 ) ;
#53 = CARTESIAN_POINT ( 'NONE',  ( 0.3748850756937273099, 5.308560000633053555, -0.1781471994266576042 ) ) ;
#54 = AXIS2_PLACEMENT_3D ( 'NONE', #589, #119, #356 ) ;
#55 = CARTESIAN_POINT ( 'NONE',  ( 4.500000000000000000, 0.000000000000000000, -6.700000000000000178 ) ) ;
#56 = EDGE_LOOP ( 'NONE', ( #581, #685, #521, #593, #458, #354, #660 ) ) ;
#57 = PLANE ( 'NONE',  #600 ) ;
#58 = STYLED_ITEM ( 'NONE', ( #452 ), #511 ) ;
#59 = EDGE_CURVE ( 'NONE', #596, #135, #320, .T. ) ;
#60 = ORIENTED_EDGE ( 'NONE', *, *, #542, .F. ) ;
#61 = PLANE ( 'NONE',  #171 ) ;
#62 = ORIENTED_EDGE ( 'NONE', *, *, #160, .T. ) ;
#63 = CARTESIAN_POINT ( 'NONE',  ( 4.784790355909023241, 1.451131024408204517, 0.000000000000000000 ) ) ;
#64 = ADVANCED_FACE ( 'NONE', ( #622 ), #389, .F. ) ;
#65 = CARTESIAN_POINT ( 'NONE',  ( 0.000000000000000000, 0.000000000000000000, -0.1294642857142856984 ) ) ;
#66 = VECTOR ( 'NONE', #96, 1000.000000000000000 ) ;
#67 = ORIENTED_EDGE ( 'NONE', *, *, #144, .T. ) ;
#68 = DIRECTION ( 'NONE',  ( -0.000000000000000000, -0.000000000000000000, 1.000000000000000000 ) ) ;
#69 = EDGE_CURVE ( 'NONE', #481, #34, #751, .T. ) ;
#70 = DIRECTION ( 'NONE',  ( 0.000000000000000000, 0.000000000000000000, -1.000000000000000000 ) ) ;
#71 = ORIENTED_EDGE ( 'NONE', *, *, #686, .F. ) ;
#72 = AXIS2_PLACEMENT_3D ( 'NONE', #65, #70, #191 ) ;
#73 = DIRECTION ( 'NONE',  ( -1.000000000000000000, 0.000000000000000000, 0.000000000000000000 ) ) ;
#74 = CARTESIAN_POINT ( 'NONE',  ( -4.784790355909025017, 5.858395115959351882E-16, -6.415209644090976049 ) ) ;
#75 = ORIENTED_EDGE ( 'NONE', *, *, #656, .T. ) ;
#76 = DIRECTION ( 'NONE',  ( -1.000000000000000000, -1.569885498621543742E-16, 0.000000000000000000 ) ) ;
#77 = CARTESIAN_POINT ( 'NONE',  ( -9.284044738807265208E-16, -5.525000000000000355, -0.000000000000000000 ) ) ;
#78 = B_SPLINE_CURVE_WITH_KNOTS ( 'NONE', 3,
 ( #435, #193, #665, #126 ),
 .UNSPECIFIED., .F., .F.,
 ( 4, 4 ),
 ( 0.006022350690198762825, 0.007374101037611650866 ),
 .UNSPECIFIED. ) ;
#79 = CARTESIAN_POINT ( 'NONE',  ( -4.784790355909025017, 1.451131024408197856, 0.000000000000000000 ) ) ;
#80 = UNCERTAINTY_MEASURE_WITH_UNIT (LENGTH_MEASURE( 1.000000000000000082E-05 ), #266, 'distance_accuracy_value', 'NONE');
#81 =( NAMED_UNIT ( * ) SI_UNIT ( $, .STERADIAN. ) SOLID_ANGLE_UNIT ( ) );
#82 = CARTESIAN_POINT ( 'NONE',  ( -0.3738471138155823881, 5.309159268202811255, -5.890840731797193364 ) ) ;
#83 = EDGE_CURVE ( 'NONE', #596, #419, #241, .T. ) ;
#84 = EDGE_LOOP ( 'NONE', ( #672, #434, #753, #693, #564, #396, #71 ) ) ;
#85 = DIRECTION ( 'NONE',  ( 1.000000000000000000, 0.000000000000000000, 0.000000000000000000 ) ) ;
#86 = EDGE_LOOP ( 'NONE', ( #1, #707, #424, #630, #560, #568, #405 ) ) ;
#87 = EDGE_CURVE ( 'NONE', #107, #586, #169, .T. ) ;
#88 = CARTESIAN_POINT ( 'NONE',  ( 3.754448299194687015E-17, 5.525000000000000355, -5.675000000000003375 ) ) ;
#89 = DIRECTION ( 'NONE',  ( -1.000000000000000000, 0.000000000000000000, 0.000000000000000000 ) ) ;
#90 = FACE_OUTER_BOUND ( 'NONE', #426, .T. ) ;
#91 = B_SPLINE_CURVE_WITH_KNOTS ( 'NONE', 3,
 ( #631, #566, #339, #569, #628, #226, #45, #283 ),
 .UNSPECIFIED., .F., .F.,
 ( 4, 2, 2, 4 ),
 ( 0.003668020894623297019, 0.005099391042132672344, 0.005815076115887359356, 0.006530761189642047236 ),
 .UNSPECIFIED. ) ;
#92 = ORIENTED_EDGE ( 'NONE', *, *, #450, .F. ) ;
#93 = AXIS2_PLACEMENT_3D ( 'NONE', #309, #12, #370 ) ;
#94 = CARTESIAN_POINT ( 'NONE',  ( 0.000000000000000000, 0.000000000000000000, 0.000000000000000000 ) ) ;
#95 = EDGE_CURVE ( 'NONE', #590, #344, #439, .T. ) ;
#96 = DIRECTION ( 'NONE',  ( -0.8660254037844388186, -0.4999999999999996114, -0.000000000000000000 ) ) ;
#97 = DIRECTION ( 'NONE',  ( -0.000000000000000000, -0.000000000000000000, 1.000000000000000000 ) ) ;
#98 = VERTEX_POINT ( 'NONE', #578 ) ;
#99 = CARTESIAN_POINT ( 'NONE',  ( 4.410943242093440908, 2.978340731797192831, -5.890840731797190699 ) ) ;
#100 = B_SPLINE_CURVE_WITH_KNOTS ( 'NONE', 3,
 ( #74, #315, #550, #491, #141, #697, #20, #262 ),
 .UNSPECIFIED., .F., .F.,
 ( 4, 2, 2, 4 ),
 ( 0.005789691048330248245, 0.006504859626492402215, 0.007220028204654557052, 0.008650365360978864993 ),
 .UNSPECIFIED. ) ;
#101 = VECTOR ( 'NONE', #681, 1000.000000000000000 ) ;
#102 = CARTESIAN_POINT ( 'NONE',  ( -4.784790355909025017, 2.762500000000002398, -5.675000000000001599 ) ) ;
#103 = VERTEX_POINT ( 'NONE', #31 ) ;
#104 = CARTESIAN_POINT ( 'NONE',  ( 0.000000000000000000, 0.000000000000000000, 0.000000000000000000 ) ) ;
#105 = CARTESIAN_POINT ( 'NONE',  ( 3.754448299194687015E-17, 5.525000000000000355, -5.675000000000003375 ) ) ;
#106 = EDGE_CURVE ( 'NONE', #456, #163, #91, .T. ) ;
#107 = VERTEX_POINT ( 'NONE', #584 ) ;
#108 = FACE_BOUND ( 'NONE', #120, .T. ) ;
#109 = AXIS2_PLACEMENT_3D ( 'NONE', #572, #649, #643 ) ;
#110 = LINE ( 'NONE', #347, #614 ) ;
#111 =( LENGTH_UNIT ( ) NAMED_UNIT ( * ) SI_UNIT ( .MILLI., .METRE. ) );
#112 = ORIENTED_EDGE ( 'NONE', *, *, #5, .T. ) ;
#113 = CARTESIAN_POINT ( 'NONE',  ( -0.3760490295162756680, -5.307887991580280129, -5.892112008419903901 ) ) ;
#114 = VECTOR ( 'NONE', #13, 1000.000000000000000 ) ;
#115 = LINE ( 'NONE', #352, #515 ) ;
#116 = CARTESIAN_POINT ( 'NONE',  ( -4.784790355909025017, 5.858395115959351882E-16, -6.415209644090976049 ) ) ;
#117 = ORIENTED_EDGE ( 'NONE', *, *, #256, .F. ) ;
#118 = CARTESIAN_POINT ( 'NONE',  ( 4.784790355909023241, 0.4856246247858903575, -6.415209644090984042 ) ) ;
#119 = DIRECTION ( 'NONE',  ( -0.000000000000000000, -0.000000000000000000, 1.000000000000000000 ) ) ;
#120 = EDGE_LOOP ( 'NONE', ( #255, #537 ) ) ;
#121 = CARTESIAN_POINT ( 'NONE',  ( 0.000000000000000000, 0.000000000000000000, -6.700000000000000178 ) ) ;
#122 = EDGE_CURVE ( 'NONE', #586, #36, #14, .T. ) ;
#123 = ORIENTED_EDGE ( 'NONE', *, *, #324, .T. ) ;
#124 = CARTESIAN_POINT ( 'NONE',  ( -4.784790355909025017, 2.762500000000002398, -0.3031088913245532646 ) ) ;
#125 = ORIENTED_EDGE ( 'NONE', *, *, #59, .T. ) ;
#126 = CARTESIAN_POINT ( 'NONE',  ( -1.135678846597278024, -4.869315512204100749, -0.000000000000000000 ) ) ;
#127 = B_SPLINE_CURVE_WITH_KNOTS ( 'NONE', 3,
 ( #306, #602, #465, #413 ),
 .UNSPECIFIED., .F., .F.,
 ( 4, 4 ),
 ( 0.01028983807714324052, 0.01164177538836227294 ),
 .UNSPECIFIED. ) ;
#128 = CARTESIAN_POINT ( 'NONE',  ( 4.784790355909024129, -1.451131024408203185, 0.000000000000000000 ) ) ;
#129 = B_SPLINE_CURVE_WITH_KNOTS ( 'NONE', 3,
 ( #286, #53, #694, #468 ),
 .UNSPECIFIED., .F., .F.,
 ( 4, 4 ),
 ( 0.006022350690198761958, 0.007374101037611649131 ),
 .UNSPECIFIED. ) ;
#130 = ORIENTED_EDGE ( 'NONE', *, *, #87, .T. ) ;
#131 = EDGE_CURVE ( 'NONE', #741, #402, #501, .T. ) ;
#132 = CARTESIAN_POINT ( 'NONE',  ( 2.458750000000000213, -3.011100317403555149E-16, -6.700000000000000178 ) ) ;
#133 = DIRECTION ( 'NONE',  ( 1.000000000000000000, 0.000000000000000000, 0.000000000000000000 ) ) ;
#134 = CONICAL_SURFACE ( 'NONE', #710, 5.000000000000000000, 1.047197551196600074 ) ;
#135 = VERTEX_POINT ( 'NONE', #50 ) ;
#136 = FACE_OUTER_BOUND ( 'NONE', #86, .T. ) ;
#137 = CARTESIAN_POINT ( 'NONE',  ( -1.135678846597274472, 4.869315512204100749, 0.000000000000000000 ) ) ;
#138 = ORIENTED_EDGE ( 'NONE', *, *, #729, .T. ) ;
#139 = CIRCLE ( 'NONE', #416, 4.500000000000000000 ) ;
#140 = DIRECTION ( 'NONE',  ( -1.000000000000000000, 0.000000000000000000, 0.000000000000000000 ) ) ;
#141 = CARTESIAN_POINT ( 'NONE',  ( -4.784790355909025905, -1.192092693361817224, -6.273890530841016222 ) ) ;
#142 = LINE ( 'NONE', #451, #410 ) ;
#143 = SURFACE_SIDE_STYLE ('',( #202 ) ) ;
#144 = EDGE_CURVE ( 'NONE', #650, #174, #155, .T. ) ;
#145 = FILL_AREA_STYLE ('',( #330 ) ) ;
#146 = AXIS2_PLACEMENT_3D ( 'NONE', #18, #15, #445 ) ;
#147 = CARTESIAN_POINT ( 'NONE',  ( 4.028663370720726000, 3.199050118440005974, -6.074358628812455585 ) ) ;
#148 =( NAMED_UNIT ( * ) SI_UNIT ( $, .STERADIAN. ) SOLID_ANGLE_UNIT ( ) );
#149 = CARTESIAN_POINT ( 'NONE',  ( 0.000000000000000000, 0.000000000000000000, -6.700000000000000178 ) ) ;
#150 = ADVANCED_FACE ( 'NONE', ( #739 ), #696, .F. ) ;
#151 =( LENGTH_UNIT ( ) NAMED_UNIT ( * ) SI_UNIT ( .MILLI., .METRE. ) );
#152 = FACE_OUTER_BOUND ( 'NONE', #317, .T. ) ;
#153 = CARTESIAN_POINT ( 'NONE',  ( 0.000000000000000000, 5.525000000000000355, -6.700000000000000178 ) ) ;
#154 = CARTESIAN_POINT ( 'NONE',  ( 3.434732515435914291, 3.541956257618716908, -6.271016443903984161 ) ) ;
#155 = B_SPLINE_CURVE_WITH_KNOTS ( 'NONE', 3,
 ( #469, #743, #646, #454 ),
 .UNSPECIFIED., .F., .F.,
 ( 4, 4 ),
 ( 0.01028983807714324919, 0.01164177538836290091 ),
 .UNSPECIFIED. ) ;
#156 = FILL_AREA_STYLE ('',( #683 ) ) ;
#157 = PLANE ( 'NONE',  #535 ) ;
#158 = ORIENTED_EDGE ( 'NONE', *, *, #675, .F. ) ;
#159 = AXIS2_PLACEMENT_3D ( 'NONE', #662, #378, #606 ) ;
#160 = EDGE_CURVE ( 'NONE', #308, #402, #172, .T. ) ;
#161 =( NAMED_UNIT ( * ) SI_UNIT ( $, .STERADIAN. ) SOLID_ANGLE_UNIT ( ) );
#162 =( NAMED_UNIT ( * ) SI_UNIT ( $, .STERADIAN. ) SOLID_ANGLE_UNIT ( ) );
#163 = VERTEX_POINT ( 'NONE', #165 ) ;
#164 = FACE_OUTER_BOUND ( 'NONE', #84, .T. ) ;
#165 = CARTESIAN_POINT ( 'NONE',  ( 4.784790355909023241, -1.283115457608867402E-19, -6.415209644090977825 ) ) ;
#166 = EDGE_CURVE ( 'NONE', #478, #174, #110, .T. ) ;
#167 = SURFACE_STYLE_USAGE ( .BOTH. , #284 ) ;
#168 = ORIENTED_EDGE ( 'NONE', *, *, #656, .F. ) ;
#169 = B_SPLINE_CURVE_WITH_KNOTS ( 'NONE', 3,
 ( #728, #441, #671, #386 ),
 .UNSPECIFIED., .F., .F.,
 ( 4, 4 ),
 ( 0.01028983807714323878, 0.01164177538836289744 ),
 .UNSPECIFIED. ) ;
#170 = CARTESIAN_POINT ( 'NONE',  ( 4.784790355909023241, -1.283115457608867402E-19, -6.415209644090977825 ) ) ;
#171 = AXIS2_PLACEMENT_3D ( 'NONE', #16, #76, #304 ) ;
#172 = LINE ( 'NONE', #691, #433 ) ;
#173 = CARTESIAN_POINT ( 'NONE',  ( 0.000000000000000000, 0.000000000000000000, -6.700000000000000178 ) ) ;
#174 = VERTEX_POINT ( 'NONE', #639 ) ;
#175 = DIRECTION ( 'NONE',  ( -0.8660254037844388186, -0.4999999999999996114, -0.000000000000000000 ) ) ;
#176 = CARTESIAN_POINT ( 'NONE',  ( 4.021545015791883948, -3.203159902574360451, -6.078274674138651967 ) ) ;
#177 = ORIENTED_EDGE ( 'NONE', *, *, #450, .T. ) ;
#178 = DIRECTION ( 'NONE',  ( 1.000000000000000000, 0.000000000000000000, 0.000000000000000000 ) ) ;
#179 = EDGE_CURVE ( 'NONE', #676, #741, #115, .T. ) ;
#180 = STYLED_ITEM ( 'NONE', ( #321 ), #399 ) ;
#181 = VERTEX_POINT ( 'NONE', #531 ) ;
#182 = DIRECTION ( 'NONE',  ( -0.4999999999999996114, 0.8660254037844388186, 0.000000000000000000 ) ) ;
#183 = AXIS2_PLACEMENT_3D ( 'NONE', #204, #680, #89 ) ;
#184 = EDGE_LOOP ( 'NONE', ( #138, #289, #192, #648, #229, #510 ) ) ;
#185 = DIRECTION ( 'NONE',  ( -1.000000000000000000, 0.000000000000000000, 0.000000000000000000 ) ) ;
#186 = ORIENTED_EDGE ( 'NONE', *, *, #59, .F. ) ;
#187 = CARTESIAN_POINT ( 'NONE',  ( -4.784790355909025017, 2.330457219127779922, -0.1783888834055481487 ) ) ;
#188 = DIRECTION ( 'NONE',  ( -0.000000000000000000, -0.000000000000000000, -1.000000000000000000 ) ) ;
#189 = ORIENTED_EDGE ( 'NONE', *, *, #365, .T. ) ;
#190 = CARTESIAN_POINT ( 'NONE',  ( -0.3746906985658129963, 5.308672224320179822, -0.1782119918025948935 ) ) ;
#191 = DIRECTION ( 'NONE',  ( 1.000000000000000000, 0.000000000000000000, 0.000000000000000000 ) ) ;
#192 = ORIENTED_EDGE ( 'NONE', *, *, #305, .T. ) ;
#193 = CARTESIAN_POINT ( 'NONE',  ( -0.3748850756937281425, -5.308560000633053555, -0.1781471994266574377 ) ) ;
#194 = LINE ( 'NONE', #77, #666 ) ;
#195 = DIRECTION ( 'NONE',  ( -0.000000000000000000, -0.000000000000000000, 1.000000000000000000 ) ) ;
#196 = AXIS2_PLACEMENT_3D ( 'NONE', #173, #253, #133 ) ;
#197 = CARTESIAN_POINT ( 'NONE',  ( -2.588214285714286245, 0.000000000000000000, 0.000000000000000000 ) ) ;
#198 = EDGE_CURVE ( 'NONE', #402, #741, #540, .T. ) ;
#199 = CARTESIAN_POINT ( 'NONE',  ( 2.610053346485726511, 4.018084997807185310, -6.414686214047368829 ) ) ;
#200 = CARTESIAN_POINT ( 'NONE',  ( -4.784790355909025017, 2.762500000000002398, 0.000000000000000000 ) ) ;
#201 = VERTEX_POINT ( 'NONE', #55 ) ;
#202 = SURFACE_STYLE_FILL_AREA ( #329 ) ;
#203 = EDGE_CURVE ( 'NONE', #717, #308, #238, .T. ) ;
#204 = CARTESIAN_POINT ( 'NONE',  ( 0.000000000000000000, 0.000000000000000000, 0.000000000000000000 ) ) ;
#205 = AXIS2_PLACEMENT_3D ( 'NONE', #518, #534, #582 ) ;
#206 = ORIENTED_EDGE ( 'NONE', *, *, #583, .F. ) ;
#207 = UNCERTAINTY_MEASURE_WITH_UNIT (LENGTH_MEASURE( 1.000000000000000082E-05 ), #258, 'distance_accuracy_value', 'NONE');
#208 =( NAMED_UNIT ( * ) PLANE_ANGLE_UNIT ( ) SI_UNIT ( $, .RADIAN. ) );
#209 = ADVANCED_FACE ( 'NONE', ( #406 ), #134, .T. ) ;
#210 = DIRECTION ( 'NONE',  ( -0.000000000000000000, -0.000000000000000000, 1.000000000000000000 ) ) ;
#211 = SURFACE_STYLE_FILL_AREA ( #46 ) ;
#212 = CARTESIAN_POINT ( 'NONE',  ( -4.784790355909025017, -1.451131024408197856, -0.000000000000000000 ) ) ;
#213 = CARTESIAN_POINT ( 'NONE',  ( -4.784790355909638748, -2.762499999999647127, -0.3031088913241419824 ) ) ;
#214 = ORIENTED_EDGE ( 'NONE', *, *, #667, .F. ) ;
#215 = EDGE_CURVE ( 'NONE', #539, #478, #269, .T. ) ;
#216 = B_SPLINE_CURVE_WITH_KNOTS ( 'NONE', 3,
 ( #358, #592, #187, #124 ),
 .UNSPECIFIED., .F., .F.,
 ( 4, 4 ),
 ( 0.009457679788312767580, 0.01080702142484409739 ),
 .UNSPECIFIED. ) ;
#217 = SURFACE_SIDE_STYLE ('',( #417 ) ) ;
#218 = DIRECTION ( 'NONE',  ( -0.000000000000000000, -0.000000000000000000, 1.000000000000000000 ) ) ;
#219 = EDGE_LOOP ( 'NONE', ( #297, #616, #250, #186, #189, #60 ) ) ;
#220 = DIRECTION ( 'NONE',  ( -1.000000000000000000, 0.000000000000000000, 0.000000000000000000 ) ) ;
#221 = DIRECTION ( 'NONE',  ( -1.000000000000000000, 0.000000000000000000, 0.000000000000000000 ) ) ;
#222 = CARTESIAN_POINT ( 'NONE',  ( 0.000000000000000000, 0.000000000000000000, 0.000000000000000000 ) ) ;
#223 = APPLICATION_CONTEXT ( 'automotive_design' ) ;
#224 = VERTEX_POINT ( 'NONE', #459 ) ;
#225 = CARTESIAN_POINT ( 'NONE',  ( -9.284044738807265208E-16, -5.525000000000000355, -6.700000000000000178 ) ) ;
#226 = CARTESIAN_POINT ( 'NONE',  ( 4.784790355909025017, -0.4848001954996514762, -6.396423614163424531 ) ) ;
#227 = LINE ( 'NONE', #527, #337 ) ;
#228 = ADVANCED_FACE ( 'NONE', ( #164 ), #422, .F. ) ;
#229 = ORIENTED_EDGE ( 'NONE', *, *, #709, .T. ) ;
#230 = DIRECTION ( 'NONE',  ( -0.000000000000000000, -0.000000000000000000, 1.000000000000000000 ) ) ;
#231 = CARTESIAN_POINT ( 'NONE',  ( -1.551489355623015154, 4.629247202886215717, -6.323327676715826406 ) ) ;
#232 = DIRECTION ( 'NONE',  ( -1.000000000000000000, 0.000000000000000000, 0.000000000000000000 ) ) ;
#233 = ADVANCED_FACE ( 'NONE', ( #750 ), #57, .F. ) ;
#234 = ORIENTED_EDGE ( 'NONE', *, *, #144, .F. ) ;
#235 = CARTESIAN_POINT ( 'NONE',  ( 4.784790355909023241, 2.762500000000001954, -5.675000000000003375 ) ) ;
#236 = AXIS2_PLACEMENT_3D ( 'NONE', #35, #567, #33 ) ;
#237 = VERTEX_POINT ( 'NONE', #349 ) ;
#238 = LINE ( 'NONE', #742, #280 ) ;
#239 = ORIENTED_EDGE ( 'NONE', *, *, #667, .T. ) ;
#240 = FACE_BOUND ( 'NONE', #19, .T. ) ;
#241 = CIRCLE ( 'NONE', #146, 5.000000000000000000 ) ;
#242 = ORIENTED_EDGE ( 'NONE', *, *, #27, .T. ) ;
#243 = CARTESIAN_POINT ( 'NONE',  ( 4.784790355909024129, -2.762500000000002398, -5.675000000000002487 ) ) ;
#244 = CARTESIAN_POINT ( 'NONE',  ( -4.784790355909026793, 0.9585668960636912761, -6.340383456527521666 ) ) ;
#245 = CONICAL_SURFACE ( 'NONE', #379, 5.000000000000000000, 1.047197551196600074 ) ;
#246 = CONICAL_SURFACE ( 'NONE', #388, 4.500000000000000000, 0.7853981633974500554 ) ;
#247 = EDGE_LOOP ( 'NONE', ( #409, #348, #500 ) ) ;
#248 = CARTESIAN_POINT ( 'NONE',  ( 0.000000000000000000, 0.000000000000000000, -6.700000000000000178 ) ) ;
#249 = CARTESIAN_POINT ( 'NONE',  ( 2.458750000000000213, -3.011100317403555149E-16, -0.1294642857142856984 ) ) ;
#250 = ORIENTED_EDGE ( 'NONE', *, *, #32, .T. ) ;
#251 = ADVANCED_FACE ( 'NONE', ( #108, #690 ), #345, .F. ) ;
#252 = DIRECTION ( 'NONE',  ( 0.000000000000000000, 0.000000000000000000, 1.000000000000000000 ) ) ;
#253 = DIRECTION ( 'NONE',  ( -0.000000000000000000, -0.000000000000000000, 1.000000000000000000 ) ) ;
#254 = AXIS2_PLACEMENT_3D ( 'NONE', #573, #636, #221 ) ;
#255 = ORIENTED_EDGE ( 'NONE', *, *, #198, .F. ) ;
#256 = EDGE_CURVE ( 'NONE', #107, #328, #37, .T. ) ;
#257 = CARTESIAN_POINT ( 'NONE',  ( 0.000000000000000000, 0.000000000000000000, 0.000000000000000000 ) ) ;
#258 =( LENGTH_UNIT ( ) NAMED_UNIT ( * ) SI_UNIT ( .MILLI., .METRE. ) );
#259 = SURFACE_SIDE_STYLE ('',( #507 ) ) ;
#260 = AXIS2_PLACEMENT_3D ( 'NONE', #692, #744, #407 ) ;
#261 = EDGE_LOOP ( 'NONE', ( #92, #234, #75 ) ) ;
#262 = CARTESIAN_POINT ( 'NONE',  ( -4.784790355909025017, -2.762500000000001954, -5.675000000000001599 ) ) ;
#263 = DIRECTION ( 'NONE',  ( 0.000000000000000000, -1.000000000000000000, 0.000000000000000000 ) ) ;
#264 = ORIENTED_EDGE ( 'NONE', *, *, #324, .F. ) ;
#265 = B_SPLINE_CURVE_WITH_KNOTS ( 'NONE', 3,
 ( #601, #520, #278, #732 ),
 .UNSPECIFIED., .F., .F.,
 ( 4, 4 ),
 ( 0.006022350690198338685, 0.007374101037611648264 ),
 .UNSPECIFIED. ) ;
#266 =( LENGTH_UNIT ( ) NAMED_UNIT ( * ) SI_UNIT ( .MILLI., .METRE. ) );
#267 = AXIS2_PLACEMENT_3D ( 'NONE', #298, #530, #178 ) ;
#268 = ORIENTED_EDGE ( 'NONE', *, *, #256, .T. ) ;
#269 = B_SPLINE_CURVE_WITH_KNOTS ( 'NONE', 3,
 ( #343, #522, #290, #700, #476, #705, #634, #708, #638, #463, #113, #525 ),
 .UNSPECIFIED., .F., .F.,
 ( 4, 2, 2, 2, 2, 4 ),
 ( 2.544322442628414405E-07, 0.001427029979755359322, 0.002140417753510907677, 0.002853805527266455814, 0.004280581074777550787, 0.005707356622288645327 ),
 .UNSPECIFIED. ) ;
#270 = CARTESIAN_POINT ( 'NONE',  ( 0.000000000000000000, 0.000000000000000000, -6.700000000000000178 ) ) ;
#271 = LINE ( 'NONE', #200, #712 ) ;
#272 = CARTESIAN_POINT ( 'NONE',  ( -4.784790355909025017, -2.762500000000001954, -5.675000000000001599 ) ) ;
#273 = ORIENTED_EDGE ( 'NONE', *, *, #316, .F. ) ;
#274 = CONICAL_SURFACE ( 'NONE', #159, 5.000000000000000000, 1.047197551196600074 ) ;
#275 = CARTESIAN_POINT ( 'NONE',  ( -4.784790355909638748, -2.762499999999647127, -0.3031088913241419824 ) ) ;
#276 = LINE ( 'NONE', #514, #677 ) ;
#277 = CARTESIAN_POINT ( 'NONE',  ( -4.784790355909025017, -2.328724535956141928, -0.1778887008577781648 ) ) ;
#278 = CARTESIAN_POINT ( 'NONE',  ( 4.031816185169124545, -3.197229840169518500, -0.07404728377636260461 ) ) ;
#279 = ORIENTED_EDGE ( 'NONE', *, *, #291, .F. ) ;
#280 = VECTOR ( 'NONE', #411, 1000.000000000000000 ) ;
#281 = ADVANCED_FACE ( 'NONE', ( #420 ), #577, .F. ) ;
#282 = DIRECTION ( 'NONE',  ( 0.8660254037844387076, -0.4999999999999997224, 0.000000000000000000 ) ) ;
#283 = CARTESIAN_POINT ( 'NONE',  ( 4.784790355909023241, -1.283115457608867402E-19, -6.415209644090977825 ) ) ;
#284 = SURFACE_SIDE_STYLE ('',( #211 ) ) ;
#285 = ORIENTED_EDGE ( 'NONE', *, *, #653, .T. ) ;
#286 = CARTESIAN_POINT ( 'NONE',  ( 6.144038653560839032E-13, 5.525000000000354738, -0.3031088913241409277 ) ) ;
#287 = AXIS2_PLACEMENT_3D ( 'NONE', #314, #719, #140 ) ;
#288 = DIRECTION ( 'NONE',  ( -0.000000000000000000, -0.000000000000000000, 1.000000000000000000 ) ) ;
#289 = ORIENTED_EDGE ( 'NONE', *, *, #542, .T. ) ;
#290 = CARTESIAN_POINT ( 'NONE',  ( -4.028663370720726888, -3.199050118440005530, -6.074358628812452920 ) ) ;
#291 = EDGE_CURVE ( 'NONE', #539, #586, #43, .T. ) ;
#292 =( LENGTH_UNIT ( ) NAMED_UNIT ( * ) SI_UNIT ( .MILLI., .METRE. ) );
#293 = DIRECTION ( 'NONE',  ( -0.000000000000000000, -0.000000000000000000, 1.000000000000000000 ) ) ;
#294 = ORIENTED_EDGE ( 'NONE', *, *, #453, .T. ) ;
#295 = CARTESIAN_POINT ( 'NONE',  ( 4.784790355909023241, 2.330727462242712988, -5.881666876696587387 ) ) ;
#296 = DIRECTION ( 'NONE',  ( 0.7071067811865474617, -8.659560562354932858E-17, 0.7071067811865474617 ) ) ;
#297 = ORIENTED_EDGE ( 'NONE', *, *, #95, .T. ) ;
#298 = CARTESIAN_POINT ( 'NONE',  ( -4.784790355909025017, 8.287499999999999645, 0.000000000000000000 ) ) ;
#299 = CIRCLE ( 'NONE', #287, 5.000000000000000000 ) ;
#300 = ORIENTED_EDGE ( 'NONE', *, *, #408, .F. ) ;
#301 = DIRECTION ( 'NONE',  ( 1.000000000000000000, 0.000000000000000000, 0.000000000000000000 ) ) ;
#302 = B_SPLINE_CURVE_WITH_KNOTS ( 'NONE', 3,
 ( #338, #99, #147, #154, #512, #325, #199, #397, #734, #443, #627, #88 ),
 .UNSPECIFIED., .F., .F.,
 ( 4, 2, 2, 2, 2, 4 ),
 ( 2.544322442628414405E-07, 0.001427029979755357371, 0.002140417753510905075, 0.002853805527266453212, 0.004280581074777548185, 0.005707356622288644460 ),
 .UNSPECIFIED. ) ;
#303 = ORIENTED_EDGE ( 'NONE', *, *, #408, .T. ) ;
#304 = DIRECTION ( 'NONE',  ( 1.569885498621543742E-16, -1.000000000000000000, 0.000000000000000000 ) ) ;
#305 = EDGE_CURVE ( 'NONE', #517, #419, #129, .T. ) ;
#306 = CARTESIAN_POINT ( 'NONE',  ( 3.649111509311747437, 3.418184487795903781, 0.000000000000000000 ) ) ;
#307 = CONICAL_SURFACE ( 'NONE', #624, 4.500000000000000000, 0.7853981633974500554 ) ;
#308 = VERTEX_POINT ( 'NONE', #415 ) ;
#309 = CARTESIAN_POINT ( 'NONE',  ( -4.784790355909025017, 8.287499999999999645, -6.700000000000000178 ) ) ;
#310 = CARTESIAN_POINT ( 'NONE',  ( -2.458750000000000213, 0.000000000000000000, -6.700000000000000178 ) ) ;
#311 = EDGE_CURVE ( 'NONE', #163, #575, #362, .T. ) ;
#312 = CIRCLE ( 'NONE', #72, 2.458750000000000213 ) ;
#313 = ORIENTED_EDGE ( 'NONE', *, *, #9, .T. ) ;
#314 = CARTESIAN_POINT ( 'NONE',  ( 0.000000000000000000, 0.000000000000000000, 0.000000000000000000 ) ) ;
#315 = CARTESIAN_POINT ( 'NONE',  ( -4.784790355909024129, -0.2425428198459759765, -6.415209644090982266 ) ) ;
#316 = EDGE_CURVE ( 'NONE', #52, #224, #216, .T. ) ;
#317 = EDGE_LOOP ( 'NONE', ( #524, #303, #47, #711 ) ) ;
#318 = DIRECTION ( 'NONE',  ( 0.000000000000000000, 0.000000000000000000, 1.000000000000000000 ) ) ;
#319 = CARTESIAN_POINT ( 'NONE',  ( 1.962869199810222565, -4.391736939105543414, -6.395305118895451280 ) ) ;
#320 = LINE ( 'NONE', #503, #66 ) ;
#321 = PRESENTATION_STYLE_ASSIGNMENT (( #446 ) ) ;
#322 = PRESENTATION_STYLE_ASSIGNMENT (( #23 ) ) ;
#323 = ORIENTED_EDGE ( 'NONE', *, *, #215, .T. ) ;
#324 = EDGE_CURVE ( 'NONE', #717, #557, #38, .T. ) ;
#325 = CARTESIAN_POINT ( 'NONE',  ( 2.821921156098802896, 3.895763060894459784, -6.395305118895453056 ) ) ;
#326 = AXIS2_PLACEMENT_3D ( 'NONE', #94, #673, #558 ) ;
#327 = CARTESIAN_POINT ( 'NONE',  ( -1.350057840473109838, 4.745543742381286734, -6.271016443903981497 ) ) ;
#328 = VERTEX_POINT ( 'NONE', #608 ) ;
#329 = FILL_AREA_STYLE ('',( #440 ) ) ;
#330 = FILL_AREA_STYLE_COLOUR ( '', #663 ) ;
#331 = DIRECTION ( 'NONE',  ( -1.000000000000000000, 0.000000000000000000, 0.000000000000000000 ) ) ;
#332 = VECTOR ( 'NONE', #282, 1000.000000000000114 ) ;
#333 = B_SPLINE_CURVE_WITH_KNOTS ( 'NONE', 3,
 ( #545, #541, #190, #658 ),
 .UNSPECIFIED., .F., .F.,
 ( 4, 4 ),
 ( 0.01028983807714324399, 0.01164177538836289744 ),
 .UNSPECIFIED. ) ;
#334 = CARTESIAN_POINT ( 'NONE',  ( -4.784790355909025017, -1.892013640721222911, -0.07387525121761086278 ) ) ;
#335 = DIRECTION ( 'NONE',  ( 1.000000000000000000, 0.000000000000000000, 0.000000000000000000 ) ) ;
#336 = ORIENTED_EDGE ( 'NONE', *, *, #714, .F. ) ;
#337 = VECTOR ( 'NONE', #372, 1000.000000000000227 ) ;
#338 = CARTESIAN_POINT ( 'NONE',  ( 4.784790355909023241, 2.762500000000001954, -5.675000000000003375 ) ) ;
#339 = CARTESIAN_POINT ( 'NONE',  ( 4.784790355909024129, -1.883119406163734633, -6.076977405999000048 ) ) ;
#340 = ADVANCED_FACE ( 'NONE', ( #431 ), #695, .T. ) ;
#341 = CARTESIAN_POINT ( 'NONE',  ( -4.500000000000000000, 5.510910596163088569E-16, -6.700000000000000178 ) ) ;
#342 = ORIENTED_EDGE ( 'NONE', *, *, #562, .F. ) ;
#343 = CARTESIAN_POINT ( 'NONE',  ( -4.784790355909025017, -2.762500000000001954, -5.675000000000001599 ) ) ;
#344 = VERTEX_POINT ( 'NONE', #494 ) ;
#345 = PLANE ( 'NONE',  #267 ) ;
#346 = B_SPLINE_CURVE_WITH_KNOTS ( 'NONE', 3,
 ( #438, #497, #551, #383 ),
 .UNSPECIFIED., .F., .F.,
 ( 4, 4 ),
 ( 0.006022350690198339553, 0.007374101037611652601 ),
 .UNSPECIFIED. ) ;
#347 = CARTESIAN_POINT ( 'NONE',  ( -9.284044738807265208E-16, -5.525000000000000355, -6.700000000000000178 ) ) ;
#348 = ORIENTED_EDGE ( 'NONE', *, *, #69, .T. ) ;
#349 = CARTESIAN_POINT ( 'NONE',  ( 4.784790355909023241, 2.762500000000001954, -0.3031088913245521543 ) ) ;
#350 = CIRCLE ( 'NONE', #196, 4.500000000000000000 ) ;
#351 = ADVANCED_FACE ( 'NONE', ( #240, #651 ), #427, .T. ) ;
#352 = CARTESIAN_POINT ( 'NONE',  ( 2.588214285714286245, -3.169648340507453261E-16, 0.000000000000000000 ) ) ;
#353 = CARTESIAN_POINT ( 'NONE',  ( 0.3738471138155817775, -5.309159268202809479, -5.890840731797194252 ) ) ;
#354 = ORIENTED_EDGE ( 'NONE', *, *, #311, .F. ) ;
#355 = CARTESIAN_POINT ( 'NONE',  ( 4.784790355909023241, 1.883704625898420693, -6.061836921155081548 ) ) ;
#356 = DIRECTION ( 'NONE',  ( 1.000000000000000000, 0.000000000000000000, 0.000000000000000000 ) ) ;
#357 = EDGE_LOOP ( 'NONE', ( #300, #264, #471, #336 ) ) ;
#358 = CARTESIAN_POINT ( 'NONE',  ( -4.784790355909025017, 1.451131024408197856, 0.000000000000000000 ) ) ;
#359 = MECHANICAL_DESIGN_GEOMETRIC_PRESENTATION_REPRESENTATION (  '', ( #26 ), #652 ) ;
#360 = EDGE_CURVE ( 'NONE', #237, #34, #49, .T. ) ;
#361 = ORIENTED_EDGE ( 'NONE', *, *, #612, .T. ) ;
#362 = B_SPLINE_CURVE_WITH_KNOTS ( 'NONE', 3,
 ( #170, #118, #754, #587, #355, #295, #757, #235 ),
 .UNSPECIFIED., .F., .F.,
 ( 4, 2, 2, 4 ),
 ( 0.006530761189642047236, 0.007963721768137926524, 0.008680202057385864867, 0.009396682346633804944 ),
 .UNSPECIFIED. ) ;
#363 = DIRECTION ( 'NONE',  ( 0.000000000000000000, 0.000000000000000000, -1.000000000000000000 ) ) ;
#364 = PRESENTATION_LAYER_ASSIGNMENT (  '', '', ( #58 ) ) ;
#365 = EDGE_CURVE ( 'NONE', #596, #517, #333, .T. ) ;
#366 = ORIENTED_EDGE ( 'NONE', *, *, #576, .T. ) ;
#367 = CARTESIAN_POINT ( 'NONE',  ( 0.000000000000000000, 0.000000000000000000, 0.000000000000000000 ) ) ;
#368 = CARTESIAN_POINT ( 'NONE',  ( -4.784790355909025017, 2.762500000000002398, -5.675000000000001599 ) ) ;
#369 = ORIENTED_EDGE ( 'NONE', *, *, #714, .T. ) ;
#370 = DIRECTION ( 'NONE',  ( 1.000000000000000000, 0.000000000000000000, 0.000000000000000000 ) ) ;
#371 = ADVANCED_FACE ( 'NONE', ( #594 ), #61, .F. ) ;
#372 = DIRECTION ( 'NONE',  ( -0.8660254037844387076, 0.4999999999999997780, 0.000000000000000000 ) ) ;
#373 = AXIS2_PLACEMENT_3D ( 'NONE', #655, #363, #185 ) ;
#374 = ORIENTED_EDGE ( 'NONE', *, *, #122, .F. ) ;
#375 = CARTESIAN_POINT ( 'NONE',  ( 1.135678846597275804, 4.869315512204100749, 0.000000000000000000 ) ) ;
#376 = PRODUCT_DEFINITION_CONTEXT ( 'detailed design', #223, 'design' ) ;
#377 = ADVANCED_FACE ( 'NONE', ( #713 ), #635, .T. ) ;
#378 = DIRECTION ( 'NONE',  ( 0.000000000000000000, 0.000000000000000000, -1.000000000000000000 ) ) ;
#379 = AXIS2_PLACEMENT_3D ( 'NONE', #222, #404, #461 ) ;
#380 = ORIENTED_EDGE ( 'NONE', *, *, #583, .T. ) ;
#381 = DIRECTION ( 'NONE',  ( -1.000000000000000000, 0.000000000000000000, 0.000000000000000000 ) ) ;
#382 = CARTESIAN_POINT ( 'NONE',  ( -4.784790355909025905, 1.653455527914350798, -6.142447740346020701 ) ) ;
#383 = CARTESIAN_POINT ( 'NONE',  ( -3.649111509311746993, 3.418184487795903781, 0.000000000000000000 ) ) ;
#384 = PRESENTATION_LAYER_ASSIGNMENT (  '', '', ( #492 ) ) ;
#385 = CIRCLE ( 'NONE', #39, 2.458750000000000213 ) ;
#386 = CARTESIAN_POINT ( 'NONE',  ( -4.784790355909638748, -2.762499999999647127, -0.3031088913241419824 ) ) ;
#387 = ADVANCED_FACE ( 'NONE', ( #549 ), #307, .T. ) ;
#388 = AXIS2_PLACEMENT_3D ( 'NONE', #248, #252, #301 ) ;
#389 = PLANE ( 'NONE',  #529 ) ;
#390 = ORIENTED_EDGE ( 'NONE', *, *, #166, .F. ) ;
#391 = CARTESIAN_POINT ( 'NONE',  ( 0.000000000000000000, 0.000000000000000000, -6.700000000000000178 ) ) ;
#392 = FACE_OUTER_BOUND ( 'NONE', #633, .T. ) ;
#393 = DIRECTION ( 'NONE',  ( -1.000000000000000000, 0.000000000000000000, 0.000000000000000000 ) ) ;
#394 = CARTESIAN_POINT ( 'NONE',  ( 0.000000000000000000, 0.000000000000000000, 0.000000000000000000 ) ) ;
#395 = COLOUR_RGB ( '',1.000000000000000000, 1.000000000000000000, 1.000000000000000000 ) ;
#396 = ORIENTED_EDGE ( 'NONE', *, *, #316, .T. ) ;
#397 = CARTESIAN_POINT ( 'NONE',  ( 1.983503397538566526, 4.379823779492571845, -6.416224074734373950 ) ) ;
#398 = ADVANCED_FACE ( 'NONE', ( #136 ), #246, .T. ) ;
#399 = ADVANCED_BREP_SHAPE_REPRESENTATION ( '镜向GB╱T 6186-2000[2型全金属六角锁紧螺母 9级M6]', ( #511, #326 ), #536 ) ;
#400 = CARTESIAN_POINT ( 'NONE',  ( -2.801286958370458713, 3.907676220507431353, -6.416224074734374838 ) ) ;
#401 = CARTESIAN_POINT ( 'NONE',  ( -4.784790355909025017, -2.762500000000001954, -6.700000000000000178 ) ) ;
#402 = VERTEX_POINT ( 'NONE', #197 ) ;
#403 = VECTOR ( 'NONE', #293, 1000.000000000000000 ) ;
#404 = DIRECTION ( 'NONE',  ( 0.000000000000000000, 0.000000000000000000, -1.000000000000000000 ) ) ;
#405 = ORIENTED_EDGE ( 'NONE', *, *, #722, .F. ) ;
#406 = FACE_OUTER_BOUND ( 'NONE', #704, .T. ) ;
#407 = DIRECTION ( 'NONE',  ( -1.000000000000000000, 0.000000000000000000, 0.000000000000000000 ) ) ;
#408 = EDGE_CURVE ( 'NONE', #557, #676, #552, .T. ) ;
#409 = ORIENTED_EDGE ( 'NONE', *, *, #709, .F. ) ;
#410 = VECTOR ( 'NONE', #195, 1000.000000000000000 ) ;
#411 = DIRECTION ( 'NONE',  ( -0.000000000000000000, -0.000000000000000000, 1.000000000000000000 ) ) ;
#412 = DIRECTION ( 'NONE',  ( -0.7071067811865474617, 0.000000000000000000, 0.7071067811865474617 ) ) ;
#413 = CARTESIAN_POINT ( 'NONE',  ( 4.784790355909023241, 2.762500000000001954, -0.3031088913245521543 ) ) ;
#414 = ORIENTED_EDGE ( 'NONE', *, *, #453, .F. ) ;
#415 = CARTESIAN_POINT ( 'NONE',  ( -2.458750000000000213, 0.000000000000000000, -0.1294642857142856984 ) ) ;
#416 = AXIS2_PLACEMENT_3D ( 'NONE', #149, #97, #335 ) ;
#417 = SURFACE_STYLE_FILL_AREA ( #156 ) ;
#418 = CARTESIAN_POINT ( 'NONE',  ( 0.000000000000000000, 0.000000000000000000, 0.000000000000000000 ) ) ;
#419 = VERTEX_POINT ( 'NONE', #375 ) ;
#420 = FACE_OUTER_BOUND ( 'NONE', #219, .T. ) ;
#421 = VERTEX_POINT ( 'NONE', #482 ) ;
#422 = PLANE ( 'NONE',  #109 ) ;
#423 = ADVANCED_FACE ( 'NONE', ( #723 ), #687, .T. ) ;
#424 = ORIENTED_EDGE ( 'NONE', *, *, #532, .T. ) ;
#425 = CARTESIAN_POINT ( 'NONE',  ( 0.000000000000000000, 0.000000000000000000, 0.000000000000000000 ) ) ;
#426 = EDGE_LOOP ( 'NONE', ( #374, #620, #715 ) ) ;
#427 = PLANE ( 'NONE',  #93 ) ;
#428 = CARTESIAN_POINT ( 'NONE',  ( 4.784790355909024129, -2.762500000000002398, -0.3031088913245527650 ) ) ;
#429 = ORIENTED_EDGE ( 'NONE', *, *, #69, .F. ) ;
#430 = EDGE_CURVE ( 'NONE', #107, #36, #299, .T. ) ;
#431 = FACE_OUTER_BOUND ( 'NONE', #247, .T. ) ;
#432 = FACE_OUTER_BOUND ( 'NONE', #261, .T. ) ;
#433 = VECTOR ( 'NONE', #412, 1000.000000000000114 ) ;
#434 = ORIENTED_EDGE ( 'NONE', *, *, #722, .T. ) ;
#435 = CARTESIAN_POINT ( 'NONE',  ( -6.153322697145562700E-13, -5.525000000000354738, -0.3031088913241409277 ) ) ;
#436 = CARTESIAN_POINT ( 'NONE',  ( 4.784790355909024129, -2.330457219127782142, -0.1783888834055476491 ) ) ;
#437 = CIRCLE ( 'NONE', #44, 5.000000000000000000 ) ;
#438 = CARTESIAN_POINT ( 'NONE',  ( -4.784790355909025017, 2.762500000000002398, -0.3031088913245532646 ) ) ;
#439 = B_SPLINE_CURVE_WITH_KNOTS ( 'NONE', 3,
 ( #615, #82, #674, #327, #231, #40, #460, #400, #747, #736, #523, #102 ),
 .UNSPECIFIED., .F., .F.,
 ( 4, 2, 2, 2, 2, 4 ),
 ( 2.544322442637664005E-07, 0.001427029979755359106, 0.002140417753510906376, 0.002853805527266454079, 0.004280581074777549053, 0.005707356622288646195 ),
 .UNSPECIFIED. ) ;
#440 = FILL_AREA_STYLE_COLOUR ( '', #669 ) ;
#441 = CARTESIAN_POINT ( 'NONE',  ( -4.032040272927504887, -3.197100463041895768, -0.07409064120281244614 ) ) ;
#442 = ORIENTED_EDGE ( 'NONE', *, *, #83, .F. ) ;
#443 = CARTESIAN_POINT ( 'NONE',  ( 0.7632453401171387375, 5.084340097425643634, -6.078274674138654632 ) ) ;
#444 = AXIS2_PLACEMENT_3D ( 'NONE', #391, #210, #393 ) ;
#445 = DIRECTION ( 'NONE',  ( -1.000000000000000000, 0.000000000000000000, 0.000000000000000000 ) ) ;
#446 = SURFACE_STYLE_USAGE ( .BOTH. , #143 ) ;
#447 = VECTOR ( 'NONE', #626, 1000.000000000000000 ) ;
#448 = ORIENTED_EDGE ( 'NONE', *, *, #738, .T. ) ;
#449 = CARTESIAN_POINT ( 'NONE',  ( 4.500000000000000000, 0.000000000000000000, -6.700000000000000178 ) ) ;
#450 = EDGE_CURVE ( 'NONE', #174, #328, #78, .T. ) ;
#451 = CARTESIAN_POINT ( 'NONE',  ( 4.784790355909023241, 2.762500000000001954, -6.700000000000000178 ) ) ;
#452 = PRESENTATION_STYLE_ASSIGNMENT (( #167 ) ) ;
#453 = EDGE_CURVE ( 'NONE', #181, #103, #437, .T. ) ;
#454 = CARTESIAN_POINT ( 'NONE',  ( -6.153322697145562700E-13, -5.525000000000354738, -0.3031088913241409277 ) ) ;
#455 = FACE_OUTER_BOUND ( 'NONE', #466, .T. ) ;
#456 = VERTEX_POINT ( 'NONE', #243 ) ;
#457 = SURFACE_STYLE_USAGE ( .BOTH. , #217 ) ;
#458 = ORIENTED_EDGE ( 'NONE', *, *, #729, .F. ) ;
#459 = CARTESIAN_POINT ( 'NONE',  ( -4.784790355909025017, 2.762500000000002398, -0.3031088913245532646 ) ) ;
#460 = CARTESIAN_POINT ( 'NONE',  ( -2.174737009423299394, 4.269415002192817887, -6.414686214047366164 ) ) ;
#461 = DIRECTION ( 'NONE',  ( -1.000000000000000000, 0.000000000000000000, 0.000000000000000000 ) ) ;
#462 = ORIENTED_EDGE ( 'NONE', *, *, #305, .F. ) ;
#463 = CARTESIAN_POINT ( 'NONE',  ( -0.7632453401171405138, -5.084340097425645411, -6.078274674138655520 ) ) ;
#464 = DIRECTION ( 'NONE',  ( -0.000000000000000000, -0.000000000000000000, 1.000000000000000000 ) ) ;
#465 = CARTESIAN_POINT ( 'NONE',  ( 4.410099657342860802, 2.978827775680025436, -0.1782119918024986926 ) ) ;
#466 = EDGE_LOOP ( 'NONE', ( #323, #657, #177, #117, #130, #279 ) ) ;
#467 = AXIS2_PLACEMENT_3D ( 'NONE', #257, #538, #381 ) ;
#468 = CARTESIAN_POINT ( 'NONE',  ( 1.135678846597275804, 4.869315512204100749, 0.000000000000000000 ) ) ;
#469 = CARTESIAN_POINT ( 'NONE',  ( 1.135678846597270919, -4.869315512204102525, 0.000000000000000000 ) ) ;
#470 = CARTESIAN_POINT ( 'NONE',  ( -4.784790355909025017, 2.548673964207035958, -5.781913017896486373 ) ) ;
#471 = ORIENTED_EDGE ( 'NONE', *, *, #203, .T. ) ;
#472 = CARTESIAN_POINT ( 'NONE',  ( -4.784790355909025017, -2.762500000000001954, -0.000000000000000000 ) ) ;
#473 = AXIS2_PLACEMENT_3D ( 'NONE', #394, #218, #331 ) ;
#474 =( GEOMETRIC_REPRESENTATION_CONTEXT ( 3 ) GLOBAL_UNCERTAINTY_ASSIGNED_CONTEXT ( ( #609 ) ) GLOBAL_UNIT_ASSIGNED_CONTEXT ( ( #151, #561, #25 ) ) REPRESENTATION_CONTEXT ( 'NONE', 'WORKASPACE' ) );
#475 = ORIENTED_EDGE ( 'NONE', *, *, #198, .T. ) ;
#476 = CARTESIAN_POINT ( 'NONE',  ( -3.233301000286011639, -3.658252797113789256, -6.323327676715828183 ) ) ;
#477 = EDGE_CURVE ( 'NONE', #603, #103, #265, .T. ) ;
#478 = VERTEX_POINT ( 'NONE', #629 ) ;
#479 = AXIS2_PLACEMENT_3D ( 'NONE', #121, #68, #487 ) ;
#480 = CARTESIAN_POINT ( 'NONE',  ( 4.784790355909023241, 1.892013640721361467, -0.07387525121763335867 ) ) ;
#481 = VERTEX_POINT ( 'NONE', #688 ) ;
#482 = CARTESIAN_POINT ( 'NONE',  ( -4.500000000000000000, 6.142307869633487533E-16, -6.700000000000000178 ) ) ;
#483 = AXIS2_PLACEMENT_3D ( 'NONE', #425, #604, #73 ) ;
#484 = CARTESIAN_POINT ( 'NONE',  ( 2.174737009423299394, -4.269415002192818775, -6.414686214047367940 ) ) ;
#485 = ADVANCED_FACE ( 'NONE', ( #90 ), #245, .T. ) ;
#486 = ORIENTED_EDGE ( 'NONE', *, *, #32, .F. ) ;
#487 = DIRECTION ( 'NONE',  ( 1.000000000000000000, 0.000000000000000000, 0.000000000000000000 ) ) ;
#488 = CARTESIAN_POINT ( 'NONE',  ( 2.801286958370458269, -3.907676220507429576, -6.416224074734375726 ) ) ;
#489 = ORIENTED_EDGE ( 'NONE', *, *, #576, .F. ) ;
#490 = DIRECTION ( 'NONE',  ( -0.000000000000000000, -0.000000000000000000, -1.000000000000000000 ) ) ;
#491 = CARTESIAN_POINT ( 'NONE',  ( -4.784790355909025017, -0.9587335115107060712, -6.325732382047206670 ) ) ;
#492 = STYLED_ITEM ( 'NONE', ( #701 ), #150 ) ;
#493 = DIRECTION ( 'NONE',  ( 0.000000000000000000, 0.000000000000000000, -1.000000000000000000 ) ) ;
#494 = CARTESIAN_POINT ( 'NONE',  ( -4.784790355909025017, 2.762500000000002398, -5.675000000000001599 ) ) ;
#495 = SHAPE_DEFINITION_REPRESENTATION ( #670, #399 ) ;
#496 = CONICAL_SURFACE ( 'NONE', #473, 2.588214285714286245, 0.7853981633974482790 ) ;
#497 = CARTESIAN_POINT ( 'NONE',  ( -4.409905280215534518, 2.978939999366812419, -0.1781471994267236902 ) ) ;
#498 = PRODUCT_DEFINITION ( '未知', '', #758, #376 ) ;
#499 =( NAMED_UNIT ( * ) PLANE_ANGLE_UNIT ( ) SI_UNIT ( $, .RADIAN. ) );
#500 = ORIENTED_EDGE ( 'NONE', *, *, #360, .F. ) ;
#501 = CIRCLE ( 'NONE', #24, 2.588214285714286245 ) ;
#502 = ADVANCED_FACE ( 'NONE', ( #392 ), #496, .F. ) ;
#503 = CARTESIAN_POINT ( 'NONE',  ( 0.000000000000000000, 5.525000000000000355, 0.000000000000000000 ) ) ;
#504 = EDGE_LOOP ( 'NONE', ( #462, #28, #528 ) ) ;
#505 = DIRECTION ( 'NONE',  ( -0.000000000000000000, -0.000000000000000000, 1.000000000000000000 ) ) ;
#506 = CIRCLE ( 'NONE', #703, 2.458750000000000213 ) ;
#507 = SURFACE_STYLE_FILL_AREA ( #145 ) ;
#508 = ADVANCED_FACE ( 'NONE', ( #41 ), #30, .F. ) ;
#509 = LINE ( 'NONE', #341, #580 ) ;
#510 = ORIENTED_EDGE ( 'NONE', *, *, #27, .F. ) ;
#511 = MANIFOLD_SOLID_BREP ( '<GB╱T 6186-2000[2型全金属六角锁紧螺母 9级M6]>-<切除-拉伸7>', #554 ) ;
#512 = CARTESIAN_POINT ( 'NONE',  ( 3.233301000286008531, 3.658252797113788368, -6.323327676715827295 ) ) ;
#513 = CARTESIAN_POINT ( 'NONE',  ( 0.000000000000000000, 0.000000000000000000, 0.000000000000000000 ) ) ;
#514 = CARTESIAN_POINT ( 'NONE',  ( 4.784790355909024129, -2.762500000000002398, 0.000000000000000000 ) ) ;
#515 = VECTOR ( 'NONE', #296, 1000.000000000000114 ) ;
#516 = CARTESIAN_POINT ( 'NONE',  ( 6.144038653560839032E-13, 5.525000000000354738, -0.3031088913241409277 ) ) ;
#517 = VERTEX_POINT ( 'NONE', #516 ) ;
#518 = CARTESIAN_POINT ( 'NONE',  ( 0.000000000000000000, 5.525000000000000355, -6.700000000000000178 ) ) ;
#519 = DIRECTION ( 'NONE',  ( 1.000000000000000000, 0.000000000000000000, 0.000000000000000000 ) ) ;
#520 = CARTESIAN_POINT ( 'NONE',  ( 4.409905280215534518, -2.978939999366811975, -0.1781471994267231629 ) ) ;
#521 = ORIENTED_EDGE ( 'NONE', *, *, #621, .F. ) ;
#522 = CARTESIAN_POINT ( 'NONE',  ( -4.410943242093443573, -2.978340731797192831, -5.890840731797190699 ) ) ;
#523 = CARTESIAN_POINT ( 'NONE',  ( -4.408741326392751070, 2.979612008419720848, -5.892112008419901237 ) ) ;
#524 = ORIENTED_EDGE ( 'NONE', *, *, #738, .F. ) ;
#525 = CARTESIAN_POINT ( 'NONE',  ( -9.659489567768453292E-16, -5.525000000000000355, -5.675000000000003375 ) ) ;
#526 =( NAMED_UNIT ( * ) PLANE_ANGLE_UNIT ( ) SI_UNIT ( $, .RADIAN. ) );
#527 = CARTESIAN_POINT ( 'NONE',  ( 4.784790355909023241, 2.762500000000001954, 0.000000000000000000 ) ) ;
#528 = ORIENTED_EDGE ( 'NONE', *, *, #83, .T. ) ;
#529 = AXIS2_PLACEMENT_3D ( 'NONE', #730, #559, #555 ) ;
#530 = DIRECTION ( 'NONE',  ( 0.000000000000000000, 0.000000000000000000, -1.000000000000000000 ) ) ;
#531 = CARTESIAN_POINT ( 'NONE',  ( 4.784790355909024129, -1.451131024408203185, 0.000000000000000000 ) ) ;
#532 = EDGE_CURVE ( 'NONE', #201, #163, #748, .T. ) ;
#533 = ORIENTED_EDGE ( 'NONE', *, *, #430, .F. ) ;
#534 = DIRECTION ( 'NONE',  ( 0.4999999999999996114, -0.8660254037844388186, 0.000000000000000000 ) ) ;
#535 = AXIS2_PLACEMENT_3D ( 'NONE', #401, #570, #740 ) ;
#536 =( GEOMETRIC_REPRESENTATION_CONTEXT ( 3 ) GLOBAL_UNCERTAINTY_ASSIGNED_CONTEXT ( ( #207 ) ) GLOBAL_UNIT_ASSIGNED_CONTEXT ( ( #258, #499, #81 ) ) REPRESENTATION_CONTEXT ( 'NONE', 'WORKASPACE' ) );
#537 = ORIENTED_EDGE ( 'NONE', *, *, #131, .F. ) ;
#538 = DIRECTION ( 'NONE',  ( 0.000000000000000000, 0.000000000000000000, -1.000000000000000000 ) ) ;
#539 = VERTEX_POINT ( 'NONE', #272 ) ;
#540 = CIRCLE ( 'NONE', #54, 2.588214285714286245 ) ;
#541 = CARTESIAN_POINT ( 'NONE',  ( -0.7527500829815167993, 5.090399536958108762, -0.07409064120281279309 ) ) ;
#542 = EDGE_CURVE ( 'NONE', #590, #517, #737, .T. ) ;
#543 = CARTESIAN_POINT ( 'NONE',  ( 1.350057840473108950, -4.745543742381286734, -6.271016443903981497 ) ) ;
#544 = ORIENTED_EDGE ( 'NONE', *, *, #644, .F. ) ;
#545 = CARTESIAN_POINT ( 'NONE',  ( -1.135678846597274472, 4.869315512204100749, 0.000000000000000000 ) ) ;
#546 = COLOUR_RGB ( '',1.000000000000000000, 1.000000000000000000, 1.000000000000000000 ) ;
#547 = CARTESIAN_POINT ( 'NONE',  ( -4.784790355909025017, 0.4856246285316987432, -6.415209644090981378 ) ) ;
#548 = EDGE_LOOP ( 'NONE', ( #429, #571, #442, #125, #489, #112, #533, #268, #168, #361, #414, #380 ) ) ;
#549 = FACE_OUTER_BOUND ( 'NONE', #56, .T. ) ;
#550 = CARTESIAN_POINT ( 'NONE',  ( -4.784790355909024129, -0.4848001944820705122, -6.396423614232889854 ) ) ;
#551 = CARTESIAN_POINT ( 'NONE',  ( -4.031816185169122768, 3.197229840169519832, -0.07404728377636267400 ) ) ;
#552 = LINE ( 'NONE', #132, #755 ) ;
#553 = CARTESIAN_POINT ( 'NONE',  ( 4.784790355909024129, -2.762500000000002398, -6.700000000000000178 ) ) ;
#554 = CLOSED_SHELL ( 'NONE', ( #387, #508, #22, #64, #281, #228, #588, #233, #371, #351, #251, #150, #209, #340, #718, #485, #423, #377, #502, #398 ) ) ;
#555 = DIRECTION ( 'NONE',  ( 0.8660254037844387076, -0.4999999999999997780, 0.000000000000000000 ) ) ;
#556 = EDGE_CURVE ( 'NONE', #421, #98, #509, .T. ) ;
#557 = VERTEX_POINT ( 'NONE', #632 ) ;
#558 = DIRECTION ( 'NONE',  ( 1.000000000000000000, 0.000000000000000000, 0.000000000000000000 ) ) ;
#559 = DIRECTION ( 'NONE',  ( -0.4999999999999998335, -0.8660254037844388186, 0.000000000000000000 ) ) ;
#560 = ORIENTED_EDGE ( 'NONE', *, *, #653, .F. ) ;
#561 =( NAMED_UNIT ( * ) PLANE_ANGLE_UNIT ( ) SI_UNIT ( $, .RADIAN. ) );
#562 = EDGE_CURVE ( 'NONE', #421, #201, #139, .T. ) ;
#563 =( GEOMETRIC_REPRESENTATION_CONTEXT ( 3 ) GLOBAL_UNCERTAINTY_ASSIGNED_CONTEXT ( ( #761 ) ) GLOBAL_UNIT_ASSIGNED_CONTEXT ( ( #292, #526, #161 ) ) REPRESENTATION_CONTEXT ( 'NONE', 'WORKASPACE' ) );
#564 = ORIENTED_EDGE ( 'NONE', *, *, #5, .F. ) ;
#565 = CIRCLE ( 'NONE', #236, 5.000000000000000000 ) ;
#566 = CARTESIAN_POINT ( 'NONE',  ( 4.784790355909024129, -2.333967468300613302, -5.889266265849710358 ) ) ;
#567 = DIRECTION ( 'NONE',  ( -0.000000000000000000, -0.000000000000000000, -1.000000000000000000 ) ) ;
#568 = ORIENTED_EDGE ( 'NONE', *, *, #215, .F. ) ;
#569 = CARTESIAN_POINT ( 'NONE',  ( 4.784790355909024129, -1.192092695940301983, -6.273890530204613292 ) ) ;
#570 = DIRECTION ( 'NONE',  ( 0.4999999999999997780, 0.8660254037844388186, 0.000000000000000000 ) ) ;
#571 = ORIENTED_EDGE ( 'NONE', *, *, #698, .T. ) ;
#572 = CARTESIAN_POINT ( 'NONE',  ( -4.784790355909025017, 2.762500000000002398, -6.700000000000000178 ) ) ;
#573 = CARTESIAN_POINT ( 'NONE',  ( 0.000000000000000000, 0.000000000000000000, -6.700000000000000178 ) ) ;
#574 = FILL_AREA_STYLE_COLOUR ( '', #546 ) ;
#575 = VERTEX_POINT ( 'NONE', #623 ) ;
#576 = EDGE_CURVE ( 'NONE', #52, #135, #565, .T. ) ;
#577 = PLANE ( 'NONE',  #205 ) ;
#578 = CARTESIAN_POINT ( 'NONE',  ( -4.784790355909025017, 5.858395115959351882E-16, -6.415209644090976049 ) ) ;
#579 =( NAMED_UNIT ( * ) PLANE_ANGLE_UNIT ( ) SI_UNIT ( $, .RADIAN. ) );
#580 = VECTOR ( 'NONE', #678, 1000.000000000000000 ) ;
#581 = ORIENTED_EDGE ( 'NONE', *, *, #644, .T. ) ;
#582 = DIRECTION ( 'NONE',  ( 0.8660254037844388186, 0.4999999999999996114, 0.000000000000000000 ) ) ;
#583 = EDGE_CURVE ( 'NONE', #181, #34, #276, .T. ) ;
#584 = CARTESIAN_POINT ( 'NONE',  ( -3.649111509311745660, -3.418184487795904225, -0.000000000000000000 ) ) ;
#585 = CARTESIAN_POINT ( 'NONE',  ( -4.784790355909025017, 1.883704622867437228, -6.061836922308967424 ) ) ;
#586 = VERTEX_POINT ( 'NONE', #213 ) ;
#587 = CARTESIAN_POINT ( 'NONE',  ( 4.784790355909023241, 1.653455530224851255, -6.142447739665894524 ) ) ;
#588 = ADVANCED_FACE ( 'NONE', ( #455 ), #157, .F. ) ;
#589 = CARTESIAN_POINT ( 'NONE',  ( 0.000000000000000000, 0.000000000000000000, 0.000000000000000000 ) ) ;
#590 = VERTEX_POINT ( 'NONE', #105 ) ;
#591 = MECHANICAL_DESIGN_GEOMETRIC_PRESENTATION_REPRESENTATION (  '', ( #492 ), #563 ) ;
#592 = CARTESIAN_POINT ( 'NONE',  ( -4.784790355909025017, 1.894008426187638650, -0.07420950181403733470 ) ) ;
#593 = ORIENTED_EDGE ( 'NONE', *, *, #95, .F. ) ;
#594 = FACE_OUTER_BOUND ( 'NONE', #759, .T. ) ;
#595 = UNCERTAINTY_MEASURE_WITH_UNIT (LENGTH_MEASURE( 1.000000000000000082E-05 ), #111, 'distance_accuracy_value', 'NONE');
#596 = VERTEX_POINT ( 'NONE', #137 ) ;
#597 = DIRECTION ( 'NONE',  ( -1.000000000000000000, 0.000000000000000000, 0.000000000000000000 ) ) ;
#598 = CARTESIAN_POINT ( 'NONE',  ( -4.784790355909025017, 2.762500000000002398, -6.700000000000000178 ) ) ;
#599 = EDGE_LOOP ( 'NONE', ( #486, #273, #366 ) ) ;
#600 = AXIS2_PLACEMENT_3D ( 'NONE', #225, #182, #175 ) ;
#601 = CARTESIAN_POINT ( 'NONE',  ( 4.784790355909024129, -2.762500000000002398, -0.3031088913245527650 ) ) ;
#602 = CARTESIAN_POINT ( 'NONE',  ( 4.032040272927328139, 3.197100463041996576, -0.07409064120277818188 ) ) ;
#603 = VERTEX_POINT ( 'NONE', #4 ) ;
#604 = DIRECTION ( 'NONE',  ( 0.000000000000000000, 0.000000000000000000, -1.000000000000000000 ) ) ;
#605 = CIRCLE ( 'NONE', #727, 5.000000000000000000 ) ;
#606 = DIRECTION ( 'NONE',  ( -1.000000000000000000, 0.000000000000000000, 0.000000000000000000 ) ) ;
#607 = EDGE_LOOP ( 'NONE', ( #544, #342 ) ) ;
#608 = CARTESIAN_POINT ( 'NONE',  ( -1.135678846597278024, -4.869315512204100749, -0.000000000000000000 ) ) ;
#609 = UNCERTAINTY_MEASURE_WITH_UNIT (LENGTH_MEASURE( 1.000000000000000082E-05 ), #151, 'distance_accuracy_value', 'NONE');
#610 = CARTESIAN_POINT ( 'NONE',  ( -9.659489567768453292E-16, -5.525000000000000355, -5.675000000000003375 ) ) ;
#611 = PRODUCT ( '镜向GB╱T 6186-2000[2型全金属六角锁紧螺母 9级M6]', '镜向GB╱T 6186-2000[2型全金属六角锁紧螺母 9级M6]', '', ( #29 ) ) ;
#612 = EDGE_CURVE ( 'NONE', #650, #103, #194, .T. ) ;
#613 = CARTESIAN_POINT ( 'NONE',  ( 4.784790355909023241, 1.451131024408204517, 0.000000000000000000 ) ) ;
#614 = VECTOR ( 'NONE', #288, 1000.000000000000000 ) ;
#615 = CARTESIAN_POINT ( 'NONE',  ( 3.754448299194687015E-17, 5.525000000000000355, -5.675000000000003375 ) ) ;
#616 = ORIENTED_EDGE ( 'NONE', *, *, #686, .T. ) ;
#617 = APPLICATION_PROTOCOL_DEFINITION ( 'draft international standard', 'automotive_design', 1998, #223 ) ;
#618 =( GEOMETRIC_REPRESENTATION_CONTEXT ( 3 ) GLOBAL_UNCERTAINTY_ASSIGNED_CONTEXT ( ( #595 ) ) GLOBAL_UNIT_ASSIGNED_CONTEXT ( ( #111, #579, #162 ) ) REPRESENTATION_CONTEXT ( 'NONE', 'WORKASPACE' ) );
#619 = CARTESIAN_POINT ( 'NONE',  ( 0.000000000000000000, 0.000000000000000000, -0.1294642857142856984 ) ) ;
#620 = ORIENTED_EDGE ( 'NONE', *, *, #87, .F. ) ;
#621 = EDGE_CURVE ( 'NONE', #344, #98, #11, .T. ) ;
#622 = FACE_OUTER_BOUND ( 'NONE', #184, .T. ) ;
#623 = CARTESIAN_POINT ( 'NONE',  ( 4.784790355909023241, 2.762500000000001954, -5.675000000000003375 ) ) ;
#624 = AXIS2_PLACEMENT_3D ( 'NONE', #2, #318, #661 ) ;
#625 = CARTESIAN_POINT ( 'NONE',  ( -4.784790355909025017, -1.451131024408197856, -0.000000000000000000 ) ) ;
#626 = DIRECTION ( 'NONE',  ( -0.000000000000000000, -0.000000000000000000, 1.000000000000000000 ) ) ;
#627 = CARTESIAN_POINT ( 'NONE',  ( 0.3760490295162741692, 5.307887991580281906, -5.892112008419904789 ) ) ;
#628 = CARTESIAN_POINT ( 'NONE',  ( 4.784790355909024129, -0.9587335139312465060, -6.325732381603853760 ) ) ;
#629 = CARTESIAN_POINT ( 'NONE',  ( -9.659489567768453292E-16, -5.525000000000000355, -5.675000000000003375 ) ) ;
#630 = ORIENTED_EDGE ( 'NONE', *, *, #106, .F. ) ;
#631 = CARTESIAN_POINT ( 'NONE',  ( 4.784790355909024129, -2.762500000000002398, -5.675000000000002487 ) ) ;
#632 = CARTESIAN_POINT ( 'NONE',  ( 2.458750000000000213, -3.011100317403555149E-16, -6.700000000000000178 ) ) ;
#633 = EDGE_LOOP ( 'NONE', ( #745, #369, #62, #475 ) ) ;
#634 = CARTESIAN_POINT ( 'NONE',  ( -2.610053346485725623, -4.018084997807184422, -6.414686214047365276 ) ) ;
#635 = CONICAL_SURFACE ( 'NONE', #373, 5.000000000000000000, 1.047197551196600074 ) ;
#636 = DIRECTION ( 'NONE',  ( -0.000000000000000000, -0.000000000000000000, 1.000000000000000000 ) ) ;
#637 = ORIENTED_EDGE ( 'NONE', *, *, #311, .T. ) ;
#638 = CARTESIAN_POINT ( 'NONE',  ( -1.572935393427701056, -4.616865327186630452, -6.343192011274848774 ) ) ;
#639 = CARTESIAN_POINT ( 'NONE',  ( -6.153322697145562700E-13, -5.525000000000354738, -0.3031088913241409277 ) ) ;
#640 = CARTESIAN_POINT ( 'NONE',  ( 4.784790355909024129, -2.762500000000002398, -5.675000000000002487 ) ) ;
#641 = MECHANICAL_DESIGN_GEOMETRIC_PRESENTATION_REPRESENTATION (  '', ( #58 ), #618 ) ;
#642 = ORIENTED_EDGE ( 'NONE', *, *, #179, .T. ) ;
#643 = DIRECTION ( 'NONE',  ( 0.000000000000000000, 0.000000000000000000, 1.000000000000000000 ) ) ;
#644 = EDGE_CURVE ( 'NONE', #201, #421, #350, .T. ) ;
#645 = MECHANICAL_DESIGN_GEOMETRIC_PRESENTATION_REPRESENTATION (  '', ( #180 ), #474 ) ;
#646 = CARTESIAN_POINT ( 'NONE',  ( 0.3746906985658109424, -5.308672224320179822, -0.1782119918025952265 ) ) ;
#647 = DIRECTION ( 'NONE',  ( 0.8660254037844388186, 0.4999999999999996114, 0.000000000000000000 ) ) ;
#648 = ORIENTED_EDGE ( 'NONE', *, *, #698, .F. ) ;
#649 = DIRECTION ( 'NONE',  ( 1.000000000000000000, 0.000000000000000000, -0.000000000000000000 ) ) ;
#650 = VERTEX_POINT ( 'NONE', #716 ) ;
#651 = FACE_OUTER_BOUND ( 'NONE', #607, .T. ) ;
#652 =( GEOMETRIC_REPRESENTATION_CONTEXT ( 3 ) GLOBAL_UNCERTAINTY_ASSIGNED_CONTEXT ( ( #80 ) ) GLOBAL_UNIT_ASSIGNED_CONTEXT ( ( #266, #208, #148 ) ) REPRESENTATION_CONTEXT ( 'NONE', 'WORKASPACE' ) );
#653 = EDGE_CURVE ( 'NONE', #478, #456, #735, .T. ) ;
#654 = ORIENTED_EDGE ( 'NONE', *, *, #160, .F. ) ;
#655 = CARTESIAN_POINT ( 'NONE',  ( 0.000000000000000000, 0.000000000000000000, 0.000000000000000000 ) ) ;
#656 = EDGE_CURVE ( 'NONE', #650, #328, #605, .T. ) ;
#657 = ORIENTED_EDGE ( 'NONE', *, *, #166, .T. ) ;
#658 = CARTESIAN_POINT ( 'NONE',  ( 6.144038653560839032E-13, 5.525000000000354738, -0.3031088913241409277 ) ) ;
#659 = LINE ( 'NONE', #553, #114 ) ;
#660 = ORIENTED_EDGE ( 'NONE', *, *, #532, .F. ) ;
#661 = DIRECTION ( 'NONE',  ( 1.000000000000000000, 0.000000000000000000, 0.000000000000000000 ) ) ;
#662 = CARTESIAN_POINT ( 'NONE',  ( 0.000000000000000000, 0.000000000000000000, 0.000000000000000000 ) ) ;
#663 = COLOUR_RGB ( '',1.000000000000000000, 1.000000000000000000, 1.000000000000000000 ) ;
#664 = ORIENTED_EDGE ( 'NONE', *, *, #131, .T. ) ;
#665 = CARTESIAN_POINT ( 'NONE',  ( -0.7529741707400220418, -5.090270159830414975, -0.07404728377633858216 ) ) ;
#666 = VECTOR ( 'NONE', #647, 1000.000000000000000 ) ;
#667 = EDGE_CURVE ( 'NONE', #181, #603, #706, .T. ) ;
#668 = CARTESIAN_POINT ( 'NONE',  ( 3.211854962481323295, -3.670634672813374966, -6.343192011274850550 ) ) ;
#669 = COLOUR_RGB ( '',1.000000000000000000, 1.000000000000000000, 1.000000000000000000 ) ;
#670 = PRODUCT_DEFINITION_SHAPE ( 'NONE', 'NONE',  #498 ) ;
#671 = CARTESIAN_POINT ( 'NONE',  ( -4.410099657343209856, -2.978827775679823819, -0.1782119918025951710 ) ) ;
#672 = ORIENTED_EDGE ( 'NONE', *, *, #621, .T. ) ;
#673 = DIRECTION ( 'NONE',  ( 0.000000000000000000, 0.000000000000000000, 1.000000000000000000 ) ) ;
#674 = CARTESIAN_POINT ( 'NONE',  ( -0.7561269851882990167, 5.088449881559997223, -6.074358628812455585 ) ) ;
#675 = EDGE_CURVE ( 'NONE', #456, #603, #659, .T. ) ;
#676 = VERTEX_POINT ( 'NONE', #249 ) ;
#677 = VECTOR ( 'NONE', #684, 1000.000000000000000 ) ;
#678 = DIRECTION ( 'NONE',  ( -0.7071067811865487940, 8.659560562354948882E-17, 0.7071067811865463515 ) ) ;
#679 = PRESENTATION_LAYER_ASSIGNMENT (  '', '', ( #180 ) ) ;
#680 = DIRECTION ( 'NONE',  ( -0.000000000000000000, -0.000000000000000000, -1.000000000000000000 ) ) ;
#681 = DIRECTION ( 'NONE',  ( 0.7071067811865487940, 0.000000000000000000, 0.7071067811865463515 ) ) ;
#682 = APPLICATION_PROTOCOL_DEFINITION ( 'draft international standard', 'automotive_design', 1998, #733 ) ;
#683 = FILL_AREA_STYLE_COLOUR ( '', #395 ) ;
#684 = DIRECTION ( 'NONE',  ( -1.569885498621543742E-16, 1.000000000000000000, 0.000000000000000000 ) ) ;
#685 = ORIENTED_EDGE ( 'NONE', *, *, #556, .T. ) ;
#686 = EDGE_CURVE ( 'NONE', #344, #224, #720, .T. ) ;
#687 = CONICAL_SURFACE ( 'NONE', #483, 5.000000000000000000, 1.047197551196600074 ) ;
#688 = CARTESIAN_POINT ( 'NONE',  ( 3.649111509311747437, 3.418184487795903781, 0.000000000000000000 ) ) ;
#689 = ORIENTED_EDGE ( 'NONE', *, *, #360, .T. ) ;
#690 = FACE_OUTER_BOUND ( 'NONE', #548, .T. ) ;
#691 = CARTESIAN_POINT ( 'NONE',  ( -2.588214285714286245, 0.000000000000000000, 0.000000000000000000 ) ) ;
#692 = CARTESIAN_POINT ( 'NONE',  ( 0.000000000000000000, 0.000000000000000000, 0.000000000000000000 ) ) ;
#693 = ORIENTED_EDGE ( 'NONE', *, *, #122, .T. ) ;
#694 = CARTESIAN_POINT ( 'NONE',  ( 0.7529741707400204875, 5.090270159830414975, -0.07404728377633881808 ) ) ;
#695 = CONICAL_SURFACE ( 'NONE', #467, 5.000000000000000000, 1.047197551196600074 ) ;
#696 = CYLINDRICAL_SURFACE ( 'NONE', #254, 2.458750000000000213 ) ;
#697 = CARTESIAN_POINT ( 'NONE',  ( -4.784790355909025905, -1.883119404361265126, -6.076977406709334950 ) ) ;
#698 = EDGE_CURVE ( 'NONE', #481, #419, #227, .T. ) ;
#699 = ORIENTED_EDGE ( 'NONE', *, *, #612, .F. ) ;
#700 = CARTESIAN_POINT ( 'NONE',  ( -3.434732515435916511, -3.541956257618716020, -6.271016443903981497 ) ) ;
#701 = PRESENTATION_STYLE_ASSIGNMENT (( #457 ) ) ;
#702 = CARTESIAN_POINT ( 'NONE',  ( 1.551489355623014710, -4.629247202886212165, -6.323327676715825518 ) ) ;
#703 = AXIS2_PLACEMENT_3D ( 'NONE', #270, #505, #85 ) ;
#704 = EDGE_LOOP ( 'NONE', ( #10, #214, #294 ) ) ;
#705 = CARTESIAN_POINT ( 'NONE',  ( -2.821921156098803340, -3.895763060894457563, -6.395305118895449503 ) ) ;
#706 = B_SPLINE_CURVE_WITH_KNOTS ( 'NONE', 3,
 ( #128, #51, #436, #428 ),
 .UNSPECIFIED., .F., .F.,
 ( 4, 4 ),
 ( 0.009457679788312774519, 0.01080702142484409913 ),
 .UNSPECIFIED. ) ;
#707 = ORIENTED_EDGE ( 'NONE', *, *, #562, .T. ) ;
#708 = CARTESIAN_POINT ( 'NONE',  ( -1.983503397538567414, -4.379823779492572733, -6.416224074734373950 ) ) ;
#709 = EDGE_CURVE ( 'NONE', #481, #237, #127, .T. ) ;
#710 = AXIS2_PLACEMENT_3D ( 'NONE', #104, #746, #220 ) ;
#711 = ORIENTED_EDGE ( 'NONE', *, *, #203, .F. ) ;
#712 = VECTOR ( 'NONE', #263, 1000.000000000000000 ) ;
#713 = FACE_OUTER_BOUND ( 'NONE', #504, .T. ) ;
#714 = EDGE_CURVE ( 'NONE', #676, #308, #312, .T. ) ;
#715 = ORIENTED_EDGE ( 'NONE', *, *, #430, .T. ) ;
#716 = CARTESIAN_POINT ( 'NONE',  ( 1.135678846597270919, -4.869315512204102525, 0.000000000000000000 ) ) ;
#717 = VERTEX_POINT ( 'NONE', #310 ) ;
#718 = ADVANCED_FACE ( 'NONE', ( #432 ), #274, .T. ) ;
#719 = DIRECTION ( 'NONE',  ( -0.000000000000000000, -0.000000000000000000, -1.000000000000000000 ) ) ;
#720 = LINE ( 'NONE', #598, #403 ) ;
#721 = ORIENTED_EDGE ( 'NONE', *, *, #675, .T. ) ;
#722 = EDGE_CURVE ( 'NONE', #98, #539, #100, .T. ) ;
#723 = FACE_OUTER_BOUND ( 'NONE', #599, .T. ) ;
#724 = CARTESIAN_POINT ( 'NONE',  ( 0.7561269851882977955, -5.088449881559996335, -6.074358628812457361 ) ) ;
#725 = DIRECTION ( 'NONE',  ( 1.000000000000000000, 0.000000000000000000, 0.000000000000000000 ) ) ;
#726 = CARTESIAN_POINT ( 'NONE',  ( 4.784790355909023241, 2.762500000000001954, -0.3031088913245521543 ) ) ;
#727 = AXIS2_PLACEMENT_3D ( 'NONE', #418, #188, #232 ) ;
#728 = CARTESIAN_POINT ( 'NONE',  ( -3.649111509311745660, -3.418184487795904225, -0.000000000000000000 ) ) ;
#729 = EDGE_CURVE ( 'NONE', #575, #590, #302, .T. ) ;
#730 = CARTESIAN_POINT ( 'NONE',  ( 4.784790355909023241, 2.762500000000001954, -6.700000000000000178 ) ) ;
#731 = VECTOR ( 'NONE', #230, 1000.000000000000000 ) ;
#732 = CARTESIAN_POINT ( 'NONE',  ( 3.649111509311750101, -3.418184487795901116, 0.000000000000000000 ) ) ;
#733 = APPLICATION_CONTEXT ( 'automotive_design' ) ;
#734 = CARTESIAN_POINT ( 'NONE',  ( 1.572935393427699724, 4.616865327186628676, -6.343192011274848774 ) ) ;
#735 = B_SPLINE_CURVE_WITH_KNOTS ( 'NONE', 3,
 ( #610, #353, #724, #543, #702, #319, #484, #488, #668, #176, #8, #640 ),
 .UNSPECIFIED., .F., .F.,
 ( 4, 2, 2, 2, 2, 4 ),
 ( 2.544322442637664005E-07, 0.001427029979755361708, 0.002140417753510910279, 0.002853805527266458416, 0.004280581074777553389, 0.005707356622288647062 ),
 .UNSPECIFIED. ) ;
#736 = CARTESIAN_POINT ( 'NONE',  ( -4.021545015791887501, 3.203159902574359119, -6.078274674138651967 ) ) ;
#737 = LINE ( 'NONE', #153, #447 ) ;
#738 = EDGE_CURVE ( 'NONE', #557, #717, #506, .T. ) ;
#739 = FACE_OUTER_BOUND ( 'NONE', #357, .T. ) ;
#740 = DIRECTION ( 'NONE',  ( -0.8660254037844388186, 0.4999999999999997780, 0.000000000000000000 ) ) ;
#741 = VERTEX_POINT ( 'NONE', #17 ) ;
#742 = CARTESIAN_POINT ( 'NONE',  ( -2.458750000000000213, 0.000000000000000000, -6.700000000000000178 ) ) ;
#743 = CARTESIAN_POINT ( 'NONE',  ( 0.7527500829815143568, -5.090399536958109650, -0.07409064120281309840 ) ) ;
#744 = DIRECTION ( 'NONE',  ( -0.000000000000000000, -0.000000000000000000, 1.000000000000000000 ) ) ;
#745 = ORIENTED_EDGE ( 'NONE', *, *, #179, .F. ) ;
#746 = DIRECTION ( 'NONE',  ( 0.000000000000000000, 0.000000000000000000, -1.000000000000000000 ) ) ;
#747 = CARTESIAN_POINT ( 'NONE',  ( -3.211854962481325959, 3.670634672813375854, -6.343192011274849662 ) ) ;
#748 = LINE ( 'NONE', #449, #101 ) ;
#749 = EDGE_LOOP ( 'NONE', ( #313, #642, #664, #654 ) ) ;
#750 = FACE_OUTER_BOUND ( 'NONE', #756, .T. ) ;
#751 = CIRCLE ( 'NONE', #183, 5.000000000000000000 ) ;
#752 = CARTESIAN_POINT ( 'NONE',  ( -4.784790355909024129, 2.330727461490386787, -5.881666877067539545 ) ) ;
#753 = ORIENTED_EDGE ( 'NONE', *, *, #291, .T. ) ;
#754 = CARTESIAN_POINT ( 'NONE',  ( 4.784790355909023241, 0.9585668929899135993, -6.340383457447053672 ) ) ;
#755 = VECTOR ( 'NONE', #760, 1000.000000000000000 ) ;
#756 = EDGE_LOOP ( 'NONE', ( #285, #721, #6, #699, #67, #390 ) ) ;
#757 = CARTESIAN_POINT ( 'NONE',  ( 4.784790355909023241, 2.548673964397036862, -5.781913017801485921 ) ) ;
#758 = PRODUCT_DEFINITION_FORMATION_WITH_SPECIFIED_SOURCE ( '任何', '', #611, .NOT_KNOWN. ) ;
#759 = EDGE_LOOP ( 'NONE', ( #42, #637, #242, #689, #206, #239, #158 ) ) ;
#760 = DIRECTION ( 'NONE',  ( -0.000000000000000000, -0.000000000000000000, 1.000000000000000000 ) ) ;
#761 = UNCERTAINTY_MEASURE_WITH_UNIT (LENGTH_MEASURE( 1.000000000000000082E-05 ), #292, 'distance_accuracy_value', 'NONE');
#762 = PRODUCT_RELATED_PRODUCT_CATEGORY ( 'part', '', ( #611 ) ) ;
ENDSEC;
END-ISO-10303-21;
