ISO-10303-21;
HEADER;
FILE_DESCRIPTION (( 'STEP AP214' ),
    '1' );
FILE_NAME ('镜向GB╱T 70.2-2015[内六角平圆头螺钉M4×12].step',
    '2023-08-15T02:55:31',
    ( '' ),
    ( '' ),
    'SwSTEP 2.0',
    'SolidWorks 2022',
    '' );
FILE_SCHEMA (( 'AUTOMOTIVE_DESIGN' ));
ENDSEC;

DATA;
#1 = SURFACE_STYLE_FILL_AREA ( #679 ) ;
#2 = DIRECTION ( 'NONE',  ( 0.000000000000000000, 1.000000000000000000, 0.000000000000000000 ) ) ;
#3 = VECTOR ( 'NONE', #133, 1000.000000000000000 ) ;
#4 = DIRECTION ( 'NONE',  ( 0.000000000000000000, 0.000000000000000000, 1.000000000000000000 ) ) ;
#5 = ORIENTED_EDGE ( 'NONE', *, *, #23, .T. ) ;
#6 = ADVANCED_FACE ( 'NONE', ( #472, #25 ), #415, .F. ) ;
#7 = CARTESIAN_POINT ( 'NONE',  ( -12.77942286340599587, -1.530808931984589755E-16, 1.250000000000000222 ) ) ;
#8 = CARTESIAN_POINT ( 'NONE',  ( -12.90000000000000213, 0.7216878364870328300, 1.249999999999999112 ) ) ;
#9 = ORIENTED_EDGE ( 'NONE', *, *, #226, .F. ) ;
#10 = EDGE_CURVE ( 'NONE', #157, #683, #526, .T. ) ;
#11 = VECTOR ( 'NONE', #369, 1000.000000000000000 ) ;
#12 = CARTESIAN_POINT ( 'NONE',  ( -14.16916666666574010, 1.323094366892892060, -0.2083333333333338422 ) ) ;
#13 = ADVANCED_FACE ( 'NONE', ( #78 ), #302, .F. ) ;
#14 = DIRECTION ( 'NONE',  ( -1.000000000000000000, -0.000000000000000000, 0.000000000000000000 ) ) ;
#15 = VERTEX_POINT ( 'NONE', #238 ) ;
#16 = CARTESIAN_POINT ( 'NONE',  ( -14.20000000000000107, 0.000000000000000000, -1.999999999999999112 ) ) ;
#17 = AXIS2_PLACEMENT_3D ( 'NONE', #129, #300, #357 ) ;
#18 = CARTESIAN_POINT ( 'NONE',  ( -12.90000000000000213, -0.7216878364870328300, 1.250000000000000222 ) ) ;
#19 = CARTESIAN_POINT ( 'NONE',  ( -12.00000000000000000, -3.800000000000000266, -4.653657836759942730E-16 ) ) ;
#20 = ADVANCED_FACE ( 'NONE', ( #124 ), #456, .F. ) ;
#21 = ORIENTED_EDGE ( 'NONE', *, *, #10, .F. ) ;
#22 = CARTESIAN_POINT ( 'NONE',  ( -12.77942286340599587, -1.530808931984589755E-16, 1.250000000000000222 ) ) ;
#23 = EDGE_CURVE ( 'NONE', #489, #125, #642, .T. ) ;
#24 = DIRECTION ( 'NONE',  ( -1.000000000000000000, -0.000000000000000000, 0.000000000000000000 ) ) ;
#25 = FACE_BOUND ( 'NONE', #434, .T. ) ;
#26 = CARTESIAN_POINT ( 'NONE',  ( -12.90000000000000213, 0.7216878364870328300, 1.249999999999999112 ) ) ;
#27 = PRESENTATION_STYLE_ASSIGNMENT (( #464 ) ) ;
#28 = CONICAL_SURFACE ( 'NONE', #389, 3901.015332362329445, 1.319856261027561928 ) ;
#29 = B_SPLINE_CURVE_WITH_KNOTS ( 'NONE', 3,
 ( #109, #348, #60, #240, #341, #670 ),
 .UNSPECIFIED., .F., .F.,
 ( 4, 2, 4 ),
 ( 2.391904125716502264E-07, 0.0007300545202770521809, 0.001459869850141532832 ),
 .UNSPECIFIED. ) ;
#30 = ORIENTED_EDGE ( 'NONE', *, *, #497, .F. ) ;
#31 = CARTESIAN_POINT ( 'NONE',  ( -12.82664516406750366, 1.325732799999563616, -0.2037634331402067567 ) ) ;
#32 = DIRECTION ( 'NONE',  ( -1.000000000000000000, -0.000000000000000000, 0.000000000000000000 ) ) ;
#33 = AXIS2_PLACEMENT_3D ( 'NONE', #635, #426, #205 ) ;
#34 = ORIENTED_EDGE ( 'NONE', *, *, #558, .T. ) ;
#35 = CARTESIAN_POINT ( 'NONE',  ( -12.00000000000000178, 0.000000000000000000, 0.000000000000000000 ) ) ;
#36 = ORIENTED_EDGE ( 'NONE', *, *, #10, .T. ) ;
#37 = AXIS2_PLACEMENT_3D ( 'NONE', #410, #629, #521 ) ;
#38 =( NAMED_UNIT ( * ) PLANE_ANGLE_UNIT ( ) SI_UNIT ( $, .RADIAN. ) );
#39 = CARTESIAN_POINT ( 'NONE',  ( -14.16916666666574010, 0.8419691425682042096, 1.041666666666666741 ) ) ;
#40 = ORIENTED_EDGE ( 'NONE', *, *, #150, .F. ) ;
#41 = PRESENTATION_STYLE_ASSIGNMENT (( #716 ) ) ;
#42 = AXIS2_PLACEMENT_3D ( 'NONE', #561, #338, #682 ) ;
#43 = DIRECTION ( 'NONE',  ( 5.691969551695359369E-17, -1.000000000000000000, 0.000000000000000000 ) ) ;
#44 = ORIENTED_EDGE ( 'NONE', *, *, #190, .T. ) ;
#45 = CARTESIAN_POINT ( 'NONE',  ( -14.20000000000000107, -1.443375672974064328, 3.035766082959413993E-15 ) ) ;
#46 = ORIENTED_EDGE ( 'NONE', *, *, #449, .T. ) ;
#47 = CARTESIAN_POINT ( 'NONE',  ( 0.000000000000000000, -2.078092264740989006E-16, 1.393782217350892916 ) ) ;
#48 = ORIENTED_EDGE ( 'NONE', *, *, #676, .F. ) ;
#49 = APPLICATION_PROTOCOL_DEFINITION ( 'draft international standard', 'automotive_design', 1998, #194 ) ;
#50 = CARTESIAN_POINT ( 'NONE',  ( -14.13169213213474507, 1.082531754730547968, -0.6250000000000007772 ) ) ;
#51 = DIRECTION ( 'NONE',  ( 1.000000000000000000, 0.000000000000000000, -0.000000000000000000 ) ) ;
#52 = EDGE_CURVE ( 'NONE', #386, #562, #681, .T. ) ;
#53 = ADVANCED_FACE ( 'NONE', ( #276 ), #567, .F. ) ;
#54 = CARTESIAN_POINT ( 'NONE',  ( -12.00000000000000000, 0.7216878364870321638, 1.250000000000000222 ) ) ;
#55 = SURFACE_STYLE_USAGE ( .BOTH. , #108 ) ;
#56 = DIRECTION ( 'NONE',  ( -1.000000000000000000, -5.998083099822123814E-17, 0.000000000000000000 ) ) ;
#57 = VECTOR ( 'NONE', #244, 1000.000000000000000 ) ;
#58 = CARTESIAN_POINT ( 'NONE',  ( -12.77942286340599587, -1.530808931984589755E-16, 1.250000000000000222 ) ) ;
#59 = ORIENTED_EDGE ( 'NONE', *, *, #295, .F. ) ;
#60 = CARTESIAN_POINT ( 'NONE',  ( -12.77964865737705225, -0.9585729505925316696, 0.8397029468125257745 ) ) ;
#61 = AXIS2_PLACEMENT_3D ( 'NONE', #286, #684, #680 ) ;
#62 = AXIS2_PLACEMENT_3D ( 'NONE', #358, #471, #580 ) ;
#63 = AXIS2_PLACEMENT_3D ( 'NONE', #583, #245, #191 ) ;
#64 = CARTESIAN_POINT ( 'NONE',  ( -12.83343568050244698, 0.4873330088410962047, 1.250000000000000222 ) ) ;
#65 = EDGE_LOOP ( 'NONE', ( #254, #298 ) ) ;
#66 = AXIS2_PLACEMENT_3D ( 'NONE', #621, #4, #350 ) ;
#67 = ADVANCED_FACE ( 'NONE', ( #229 ), #266, .T. ) ;
#68 = CARTESIAN_POINT ( 'NONE',  ( -14.16921124011832944, -0.4814729877613859732, -1.249999999999999778 ) ) ;
#69 = DIRECTION ( 'NONE',  ( 5.691969551695359369E-17, -1.000000000000000000, 0.000000000000000000 ) ) ;
#70 = ORIENTED_EDGE ( 'NONE', *, *, #416, .F. ) ;
#71 = FACE_OUTER_BOUND ( 'NONE', #347, .T. ) ;
#72 = FACE_OUTER_BOUND ( 'NONE', #65, .T. ) ;
#73 = VERTEX_POINT ( 'NONE', #501 ) ;
#74 = CIRCLE ( 'NONE', #516, 3.800000000000000266 ) ;
#75 = DIRECTION ( 'NONE',  ( 0.000000000000000000, 0.5000000000000002220, 0.8660254037844384856 ) ) ;
#76 = AXIS2_PLACEMENT_3D ( 'NONE', #332, #268, #376 ) ;
#77 = FILL_AREA_STYLE_COLOUR ( '', #198 ) ;
#78 = FACE_OUTER_BOUND ( 'NONE', #714, .T. ) ;
#79 = PLANE ( 'NONE',  #17 ) ;
#80 = AXIS2_PLACEMENT_3D ( 'NONE', #248, #360, #252 ) ;
#81 = FILL_AREA_STYLE ('',( #77 ) ) ;
#82 = CIRCLE ( 'NONE', #465, 1.443375672974063884 ) ;
#83 = ORIENTED_EDGE ( 'NONE', *, *, #192, .F. ) ;
#84 = CARTESIAN_POINT ( 'NONE',  ( -12.82715765887601655, -0.4880459183963061776, 1.250000000000000222 ) ) ;
#85 = PLANE ( 'NONE',  #509 ) ;
#86 =( GEOMETRIC_REPRESENTATION_CONTEXT ( 3 ) GLOBAL_UNCERTAINTY_ASSIGNED_CONTEXT ( ( #334 ) ) GLOBAL_UNIT_ASSIGNED_CONTEXT ( ( #162, #318, #712 ) ) REPRESENTATION_CONTEXT ( 'NONE', 'WORKASPACE' ) );
#87 = ORIENTED_EDGE ( 'NONE', *, *, #52, .T. ) ;
#88 = CARTESIAN_POINT ( 'NONE',  ( -14.20000000000000107, 0.000000000000000000, 0.000000000000000000 ) ) ;
#89 = CARTESIAN_POINT ( 'NONE',  ( -12.00000000000000000, -0.7216878364870328300, 1.250000000000000222 ) ) ;
#90 = EDGE_CURVE ( 'NONE', #600, #532, #296, .T. ) ;
#91 = ORIENTED_EDGE ( 'NONE', *, *, #316, .F. ) ;
#92 = CARTESIAN_POINT ( 'NONE',  ( -14.20000000000000107, 1.443375672974064328, -9.757819552369541878E-16 ) ) ;
#93 = EDGE_LOOP ( 'NONE', ( #707, #540, #216, #70, #515, #409 ) ) ;
#94 = CARTESIAN_POINT ( 'NONE',  ( -12.00000000000000000, 3.800000000000000266, 0.000000000000000000 ) ) ;
#95 = CARTESIAN_POINT ( 'NONE',  ( -12.90000000000000213, -0.7216878364870332740, -1.249999999999999778 ) ) ;
#96 = EDGE_LOOP ( 'NONE', ( #705, #550, #225, #586 ) ) ;
#97 = DIRECTION ( 'NONE',  ( 0.000000000000000000, -0.4999999999999996669, 0.8660254037844388186 ) ) ;
#98 = FACE_OUTER_BOUND ( 'NONE', #239, .T. ) ;
#99 = AXIS2_PLACEMENT_3D ( 'NONE', #689, #366, #527 ) ;
#100 = VECTOR ( 'NONE', #140, 1000.000000000000000 ) ;
#102 = VERTEX_POINT ( 'NONE', #617 ) ;
#101 = CONICAL_SURFACE ( 'NONE', #63, 3901.015332362329445, 1.319856261027561928 ) ;
#103 = DIRECTION ( 'NONE',  ( -0.000000000000000000, 0.000000000000000000, -1.000000000000000000 ) ) ;
#104 = EDGE_CURVE ( 'NONE', #565, #384, #359, .T. ) ;
#105 = ORIENTED_EDGE ( 'NONE', *, *, #255, .T. ) ;
#106 = CARTESIAN_POINT ( 'NONE',  ( -12.00000000000000000, 0.000000000000000000, -2.199999999999998845 ) ) ;
#107 = ADVANCED_FACE ( 'NONE', ( #671 ), #231, .F. ) ;
#108 = SURFACE_SIDE_STYLE ('',( #1 ) ) ;
#109 = CARTESIAN_POINT ( 'NONE',  ( -12.90000000000000213, -0.7216878364870328300, 1.250000000000000222 ) ) ;
#110 = B_SPLINE_CURVE_WITH_KNOTS ( 'NONE', 3,
 ( #95, #717, #598, #218 ),
 .UNSPECIFIED., .F., .F.,
 ( 4, 4 ),
 ( 0.001144596242895329829, 0.001876385854435920399 ),
 .UNSPECIFIED. ) ;
#111 = CIRCLE ( 'NONE', #123, 1.999999999999997780 ) ;
#112 = UNCERTAINTY_MEASURE_WITH_UNIT (LENGTH_MEASURE( 1.000000000000000082E-05 ), #312, 'distance_accuracy_value', 'NONE');
#113 = SURFACE_STYLE_USAGE ( .BOTH. , #610 ) ;
#114 = PLANE ( 'NONE',  #42 ) ;
#115 = DIRECTION ( 'NONE',  ( 0.000000000000000000, 0.000000000000000000, -1.000000000000000000 ) ) ;
#116 = CARTESIAN_POINT ( 'NONE',  ( -14.13169213213474507, -1.082531754730549078, -0.6249999999999997780 ) ) ;
#117 = ORIENTED_EDGE ( 'NONE', *, *, #319, .F. ) ;
#118 = PRODUCT_CONTEXT ( 'NONE', #367, 'mechanical' ) ;
#119 = DIRECTION ( 'NONE',  ( 1.000000000000000000, 5.998083099822123814E-17, -0.000000000000000000 ) ) ;
#120 = CARTESIAN_POINT ( 'NONE',  ( -14.16916666666574010, -0.8419691425682047647, -1.041666666666667407 ) ) ;
#121 = ORIENTED_EDGE ( 'NONE', *, *, #499, .T. ) ;
#122 = CARTESIAN_POINT ( 'NONE',  ( -0.3500000000000000333, 0.000000000000000000, -2.000000000000000000 ) ) ;
#123 = AXIS2_PLACEMENT_3D ( 'NONE', #445, #259, #709 ) ;
#124 = FACE_OUTER_BOUND ( 'NONE', #469, .T. ) ;
#125 = VERTEX_POINT ( 'NONE', #288 ) ;
#126 = CARTESIAN_POINT ( 'NONE',  ( -12.77919874466209471, 1.204657989547419428, -0.4134711563600914630 ) ) ;
#127 = DIRECTION ( 'NONE',  ( 1.000000000000000000, 0.000000000000000000, 0.000000000000000000 ) ) ;
#128 = ORIENTED_EDGE ( 'NONE', *, *, #416, .T. ) ;
#129 = CARTESIAN_POINT ( 'NONE',  ( -12.00000000000000000, 1.443375672974064328, 3.128943976826325424E-17 ) ) ;
#130 = DIRECTION ( 'NONE',  ( -1.000000000000000000, -0.000000000000000000, 0.000000000000000000 ) ) ;
#131 =( GEOMETRIC_REPRESENTATION_CONTEXT ( 3 ) GLOBAL_UNCERTAINTY_ASSIGNED_CONTEXT ( ( #724 ) ) GLOBAL_UNIT_ASSIGNED_CONTEXT ( ( #505, #669, #344 ) ) REPRESENTATION_CONTEXT ( 'NONE', 'WORKASPACE' ) );
#132 = EDGE_CURVE ( 'NONE', #512, #570, #507, .T. ) ;
#133 = DIRECTION ( 'NONE',  ( -1.000000000000000000, -0.000000000000000000, 0.000000000000000000 ) ) ;
#134 = B_SPLINE_CURVE_WITH_KNOTS ( 'NONE', 3,
 ( #335, #230, #555, #568, #68, #290 ),
 .UNSPECIFIED., .F., .F.,
 ( 4, 2, 4 ),
 ( 0.002974540139219453583, 0.003699310320131258233, 0.004424080501043063315 ),
 .UNSPECIFIED. ) ;
#135 = FACE_BOUND ( 'NONE', #167, .T. ) ;
#136 = ORIENTED_EDGE ( 'NONE', *, *, #678, .F. ) ;
#137 = CONICAL_SURFACE ( 'NONE', #546, 1.443375672974064106, 1.013248818828625719 ) ;
#138 = ADVANCED_FACE ( 'NONE', ( #569 ), #114, .F. ) ;
#139 = DIRECTION ( 'NONE',  ( 0.000000000000000000, 0.000000000000000000, -1.000000000000000000 ) ) ;
#140 = DIRECTION ( 'NONE',  ( -0.5000000000000001110, -1.060575238724906792E-16, 0.8660254037844385966 ) ) ;
#141 = CARTESIAN_POINT ( 'NONE',  ( -12.77919874466209471, -0.9604055199136780629, -0.8365288436399078709 ) ) ;
#142 = ORIENTED_EDGE ( 'NONE', *, *, #444, .F. ) ;
#143 = DIRECTION ( 'NONE',  ( -1.000000000000000000, -0.000000000000000000, 0.000000000000000000 ) ) ;
#144 = ADVANCED_FACE ( 'NONE', ( #346 ), #282, .F. ) ;
#145 = DIRECTION ( 'NONE',  ( 0.000000000000000000, 0.000000000000000000, -1.000000000000000000 ) ) ;
#146 = EDGE_CURVE ( 'NONE', #600, #495, #391, .T. ) ;
#147 = EDGE_LOOP ( 'NONE', ( #257, #381, #36, #687 ) ) ;
#148 = FACE_OUTER_BOUND ( 'NONE', #147, .T. ) ;
#149 = DIRECTION ( 'NONE',  ( 0.000000000000000000, 0.000000000000000000, -1.000000000000000000 ) ) ;
#150 = EDGE_CURVE ( 'NONE', #683, #435, #280, .T. ) ;
#151 = ORIENTED_EDGE ( 'NONE', *, *, #676, .T. ) ;
#152 = CARTESIAN_POINT ( 'NONE',  ( -12.86374379380171185, 0.6053960008849365027, -1.249999999999999778 ) ) ;
#153 = DIRECTION ( 'NONE',  ( 0.000000000000000000, 0.000000000000000000, -1.000000000000000000 ) ) ;
#154 = FILL_AREA_STYLE ('',( #655 ) ) ;
#155 = CARTESIAN_POINT ( 'NONE',  ( -12.90000000000000213, -1.767625397874844201E-16, 1.443375672974064106 ) ) ;
#156 = EDGE_CURVE ( 'NONE', #435, #384, #436, .T. ) ;
#157 = VERTEX_POINT ( 'NONE', #461 ) ;
#158 = MECHANICAL_DESIGN_GEOMETRIC_PRESENTATION_REPRESENTATION (  '', ( #609 ), #321 ) ;
#159 = CARTESIAN_POINT ( 'NONE',  ( -14.16916666666574010, -1.323094366892892060, 0.2083333333333356741 ) ) ;
#160 = CIRCLE ( 'NONE', #76, 1.393782217350892916 ) ;
#161 = ORIENTED_EDGE ( 'NONE', *, *, #385, .T. ) ;
#162 =( LENGTH_UNIT ( ) NAMED_UNIT ( * ) SI_UNIT ( .MILLI., .METRE. ) );
#163 = AXIS2_PLACEMENT_3D ( 'NONE', #187, #51, #451 ) ;
#164 = ADVANCED_FACE ( 'NONE', ( #411 ), #137, .F. ) ;
#165 = CARTESIAN_POINT ( 'NONE',  ( -12.77964865737705225, 1.206490558868565710, 0.4102970531874744475 ) ) ;
#166 = ORIENTED_EDGE ( 'NONE', *, *, #319, .T. ) ;
#167 = EDGE_LOOP ( 'NONE', ( #539, #723, #589, #313, #151, #105 ) ) ;
#168 = CARTESIAN_POINT ( 'NONE',  ( -14.20000000000000107, 0.7216878364870321638, 1.250000000000000222 ) ) ;
#169 = ADVANCED_FACE ( 'NONE', ( #72, #135 ), #85, .F. ) ;
#170 = ORIENTED_EDGE ( 'NONE', *, *, #385, .F. ) ;
#171 = EDGE_CURVE ( 'NONE', #489, #699, #468, .T. ) ;
#172 = CONICAL_SURFACE ( 'NONE', #308, 2.000000000000000000, 1.047197551196597631 ) ;
#173 = SURFACE_STYLE_FILL_AREA ( #608 ) ;
#174 = DIRECTION ( 'NONE',  ( 0.000000000000000000, 0.000000000000000000, -1.000000000000000000 ) ) ;
#175 = AXIS2_PLACEMENT_3D ( 'NONE', #394, #119, #345 ) ;
#176 = B_SPLINE_CURVE_WITH_KNOTS ( 'NONE', 3,
 ( #457, #12, #50, #672, #500 ),
 .UNSPECIFIED., .F., .F.,
 ( 4, 1, 4 ),
 ( 2.309401076766420986E-07, 0.0007219187765947084577, 0.001443606613081740162 ),
 .UNSPECIFIED. ) ;
#177 = CARTESIAN_POINT ( 'NONE',  ( -12.00000000000000000, 0.000000000000000000, 0.000000000000000000 ) ) ;
#178 = DIRECTION ( 'NONE',  ( 0.000000000000000000, 0.000000000000000000, 1.000000000000000000 ) ) ;
#179 = AXIS2_PLACEMENT_3D ( 'NONE', #564, #503, #511 ) ;
#180 = CARTESIAN_POINT ( 'NONE',  ( -14.20000000000000107, 1.443375672974064328, -9.757819552369541878E-16 ) ) ;
#181 = DIRECTION ( 'NONE',  ( -0.5291067161269960017, 0.000000000000000000, -0.8485552916276619673 ) ) ;
#182 = ORIENTED_EDGE ( 'NONE', *, *, #255, .F. ) ;
#183 = CYLINDRICAL_SURFACE ( 'NONE', #650, 1.999999999999999112 ) ;
#184 = DIRECTION ( 'NONE',  ( 1.000000000000000000, 0.000000000000000000, 0.000000000000000000 ) ) ;
#185 = ORIENTED_EDGE ( 'NONE', *, *, #545, .T. ) ;
#186 =( NAMED_UNIT ( * ) PLANE_ANGLE_UNIT ( ) SI_UNIT ( $, .RADIAN. ) );
#187 = CARTESIAN_POINT ( 'NONE',  ( 0.000000000000000000, 0.000000000000000000, 0.000000000000000000 ) ) ;
#188 = ORIENTED_EDGE ( 'NONE', *, *, #488, .T. ) ;
#189 = FACE_OUTER_BOUND ( 'NONE', #584, .T. ) ;
#190 = EDGE_CURVE ( 'NONE', #690, #632, #638, .T. ) ;
#191 = DIRECTION ( 'NONE',  ( 5.691969551695359369E-17, -1.000000000000000000, 0.000000000000000000 ) ) ;
#192 = EDGE_CURVE ( 'NONE', #200, #565, #631, .T. ) ;
#193 = CARTESIAN_POINT ( 'NONE',  ( -12.83343568050244521, 0.4873330088410962047, -1.249999999999999334 ) ) ;
#194 = APPLICATION_CONTEXT ( 'automotive_design' ) ;
#195 = FACE_OUTER_BOUND ( 'NONE', #317, .T. ) ;
#196 = ORIENTED_EDGE ( 'NONE', *, *, #626, .F. ) ;
#197 = CARTESIAN_POINT ( 'NONE',  ( -12.82677104533570400, -1.325934682174327417, -0.2034137629563736172 ) ) ;
#198 = COLOUR_RGB ( '',1.000000000000000000, 1.000000000000000000, 1.000000000000000000 ) ;
#199 =( NAMED_UNIT ( * ) SI_UNIT ( $, .STERADIAN. ) SOLID_ANGLE_UNIT ( ) );
#200 = VERTEX_POINT ( 'NONE', #18 ) ;
#201 = AXIS2_PLACEMENT_3D ( 'NONE', #675, #291, #69 ) ;
#202 = CARTESIAN_POINT ( 'NONE',  ( -14.20000000000000107, 0.000000000000000000, 0.000000000000000000 ) ) ;
#203 = ORIENTED_EDGE ( 'NONE', *, *, #666, .F. ) ;
#204 =( NAMED_UNIT ( * ) SI_UNIT ( $, .STERADIAN. ) SOLID_ANGLE_UNIT ( ) );
#205 = DIRECTION ( 'NONE',  ( 0.000000000000000000, 0.000000000000000000, 1.000000000000000000 ) ) ;
#206 = AXIS2_PLACEMENT_3D ( 'NONE', #267, #314, #533 ) ;
#207 = VECTOR ( 'NONE', #383, 1000.000000000000000 ) ;
#208 = ORIENTED_EDGE ( 'NONE', *, *, #678, .T. ) ;
#209 = CARTESIAN_POINT ( 'NONE',  ( -12.90000000000000213, -0.7216878364870332740, -1.249999999999999778 ) ) ;
#210 = DIRECTION ( 'NONE',  ( 1.000000000000000000, 0.000000000000000000, -0.000000000000000000 ) ) ;
#211 = ORIENTED_EDGE ( 'NONE', *, *, #171, .F. ) ;
#212 = AXIS2_PLACEMENT_3D ( 'NONE', #506, #2, #620 ) ;
#213 = ORIENTED_EDGE ( 'NONE', *, *, #574, .T. ) ;
#214 = CARTESIAN_POINT ( 'NONE',  ( -14.20000000000000107, 0.000000000000000000, 0.000000000000000000 ) ) ;
#215 = ADVANCED_FACE ( 'NONE', ( #195 ), #101, .F. ) ;
#216 = ORIENTED_EDGE ( 'NONE', *, *, #90, .F. ) ;
#217 = LINE ( 'NONE', #258, #439 ) ;
#218 = CARTESIAN_POINT ( 'NONE',  ( -12.77942286340599587, -4.330491382256005356E-23, -1.249999999999999778 ) ) ;
#219 = EDGE_LOOP ( 'NONE', ( #711, #59, #34, #208 ) ) ;
#220 = CARTESIAN_POINT ( 'NONE',  ( -12.00000000000000000, 0.000000000000000000, 0.000000000000000000 ) ) ;
#221 = CARTESIAN_POINT ( 'NONE',  ( -14.16927320067241958, 0.4819564059043952020, 1.250000000000000222 ) ) ;
#222 = EDGE_LOOP ( 'NONE', ( #203, #365 ) ) ;
#223 = ADVANCED_FACE ( 'NONE', ( #528 ), #531, .T. ) ;
#224 = CARTESIAN_POINT ( 'NONE',  ( -14.20000000000000107, 0.7216878364870321638, 1.250000000000000222 ) ) ;
#225 = ORIENTED_EDGE ( 'NONE', *, *, #615, .F. ) ;
#226 = EDGE_CURVE ( 'NONE', #242, #525, #82, .T. ) ;
#227 = CIRCLE ( 'NONE', #62, 0.2000000000000009548 ) ;
#228 = DIRECTION ( 'NONE',  ( -0.5000000000000001110, 0.000000000000000000, -0.8660254037844385966 ) ) ;
#229 = FACE_OUTER_BOUND ( 'NONE', #289, .T. ) ;
#230 = CARTESIAN_POINT ( 'NONE',  ( -14.16927320067241958, 0.4819564059043958681, -1.249999999999999778 ) ) ;
#231 = PLANE ( 'NONE',  #287 ) ;
#232 = CARTESIAN_POINT ( 'NONE',  ( -10.72727272727272840, 0.000000000000000000, 0.000000000000000000 ) ) ;
#233 = VECTOR ( 'NONE', #24, 1000.000000000000000 ) ;
#234 = DIRECTION ( 'NONE',  ( -1.000000000000000000, -0.000000000000000000, 0.000000000000000000 ) ) ;
#235 = ORIENTED_EDGE ( 'NONE', *, *, #278, .T. ) ;
#236 = AXIS2_PLACEMENT_3D ( 'NONE', #729, #14, #458 ) ;
#237 = FACE_OUTER_BOUND ( 'NONE', #96, .T. ) ;
#238 = CARTESIAN_POINT ( 'NONE',  ( -12.90000000000000213, 0.7216878364870323859, -1.249999999999999778 ) ) ;
#239 = EDGE_LOOP ( 'NONE', ( #326, #374 ) ) ;
#240 = CARTESIAN_POINT ( 'NONE',  ( -12.77919874466209471, -1.204657989547420316, 0.4134711563600920181 ) ) ;
#241 = CARTESIAN_POINT ( 'NONE',  ( -14.16916666666574187, -1.323094366892894280, -0.2083333333333315940 ) ) ;
#242 = VERTEX_POINT ( 'NONE', #693 ) ;
#243 = B_SPLINE_CURVE_WITH_KNOTS ( 'NONE', 3,
 ( #22, #361, #84, #306 ),
 .UNSPECIFIED., .F., .F.,
 ( 4, 4 ),
 ( 0.004568767951579537009, 0.005301777679998200682 ),
 .UNSPECIFIED. ) ;
#244 = DIRECTION ( 'NONE',  ( -1.000000000000000000, -0.000000000000000000, 0.000000000000000000 ) ) ;
#245 = DIRECTION ( 'NONE',  ( -1.000000000000000000, -5.998083099822123814E-17, 0.000000000000000000 ) ) ;
#246 = CARTESIAN_POINT ( 'NONE',  ( -12.77942286340599587, -4.330491382256005356E-23, -1.249999999999999778 ) ) ;
#247 = CARTESIAN_POINT ( 'NONE',  ( -12.90000000000000213, 0.000000000000000000, 0.000000000000000000 ) ) ;
#248 = CARTESIAN_POINT ( 'NONE',  ( -12.00000000000000000, 2.199999999999998845, 0.000000000000000000 ) ) ;
#249 =( NAMED_UNIT ( * ) SI_UNIT ( $, .STERADIAN. ) SOLID_ANGLE_UNIT ( ) );
#250 = SURFACE_SIDE_STYLE ('',( #301 ) ) ;
#251 = AXIS2_PLACEMENT_3D ( 'NONE', #474, #625, #352 ) ;
#252 = DIRECTION ( 'NONE',  ( 0.000000000000000000, 0.000000000000000000, -1.000000000000000000 ) ) ;
#253 = CARTESIAN_POINT ( 'NONE',  ( -1013.830000000000041, -5.995863809075189324E-14, 0.000000000000000000 ) ) ;
#254 = ORIENTED_EDGE ( 'NONE', *, *, #420, .F. ) ;
#255 = EDGE_CURVE ( 'NONE', #495, #565, #727, .T. ) ;
#256 = DIRECTION ( 'NONE',  ( 0.000000000000000000, 0.000000000000000000, 1.000000000000000000 ) ) ;
#257 = ORIENTED_EDGE ( 'NONE', *, *, #156, .T. ) ;
#258 = CARTESIAN_POINT ( 'NONE',  ( -12.00000000000000000, 1.443375672974064328, 3.128943976826325424E-17 ) ) ;
#259 = DIRECTION ( 'NONE',  ( 1.000000000000000000, 0.000000000000000000, -0.000000000000000000 ) ) ;
#260 = STYLED_ITEM ( 'NONE', ( #340 ), #486 ) ;
#261 = EDGE_LOOP ( 'NONE', ( #548, #9 ) ) ;
#262 = EDGE_CURVE ( 'NONE', #605, #699, #227, .T. ) ;
#263 = LINE ( 'NONE', #155, #207 ) ;
#264 = AXIS2_PLACEMENT_3D ( 'NONE', #177, #446, #115 ) ;
#265 = ORIENTED_EDGE ( 'NONE', *, *, #626, .T. ) ;
#266 = CONICAL_SURFACE ( 'NONE', #422, 2.000000000000000000, 1.047197551196597631 ) ;
#267 = CARTESIAN_POINT ( 'NONE',  ( -14.20000000000000107, 2.219290746934189176E-17, 3.599228117386048901E-16 ) ) ;
#268 = DIRECTION ( 'NONE',  ( 1.000000000000000000, 0.000000000000000000, -0.000000000000000000 ) ) ;
#269 = AXIS2_PLACEMENT_3D ( 'NONE', #522, #556, #611 ) ;
#270 = EDGE_LOOP ( 'NONE', ( #272, #136, #128, #292 ) ) ;
#271 = CARTESIAN_POINT ( 'NONE',  ( -14.20000000000000107, -0.7216878364870324969, 1.249999999999999556 ) ) ;
#272 = ORIENTED_EDGE ( 'NONE', *, *, #316, .T. ) ;
#273 = CARTESIAN_POINT ( 'NONE',  ( 0.000000000000000000, 0.000000000000000000, 0.000000000000000000 ) ) ;
#274 = EDGE_CURVE ( 'NONE', #102, #632, #701, .T. ) ;
#275 = DIRECTION ( 'NONE',  ( -1.000000000000000000, -0.000000000000000000, 0.000000000000000000 ) ) ;
#276 = FACE_OUTER_BOUND ( 'NONE', #330, .T. ) ;
#277 = PRODUCT_DEFINITION_CONTEXT ( 'detailed design', #194, 'design' ) ;
#278 = EDGE_CURVE ( 'NONE', #386, #489, #524, .T. ) ;
#279 =( LENGTH_UNIT ( ) NAMED_UNIT ( * ) SI_UNIT ( .MILLI., .METRE. ) );
#280 = LINE ( 'NONE', #454, #702 ) ;
#281 = DIRECTION ( 'NONE',  ( 0.000000000000000000, 1.776356839400250465E-15, 1.000000000000000000 ) ) ;
#282 = PLANE ( 'NONE',  #66 ) ;
#283 = ORIENTED_EDGE ( 'NONE', *, *, #295, .T. ) ;
#284 = AXIS2_PLACEMENT_3D ( 'NONE', #379, #103, #327 ) ;
#285 = PRESENTATION_LAYER_ASSIGNMENT (  '', '', ( #624 ) ) ;
#286 = CARTESIAN_POINT ( 'NONE',  ( -1013.830000000000041, -5.995863809075189324E-14, 0.000000000000000000 ) ) ;
#287 = AXIS2_PLACEMENT_3D ( 'NONE', #404, #399, #127 ) ;
#288 = CARTESIAN_POINT ( 'NONE',  ( -0.3500000000000000333, 0.000000000000000000, -2.000000000000000000 ) ) ;
#289 = EDGE_LOOP ( 'NONE', ( #720, #462, #440, #166 ) ) ;
#290 = CARTESIAN_POINT ( 'NONE',  ( -14.20000000000000107, -0.7216878364870309426, -1.250000000000000444 ) ) ;
#291 = DIRECTION ( 'NONE',  ( -1.000000000000000000, -5.998083099822123814E-17, 0.000000000000000000 ) ) ;
#292 = ORIENTED_EDGE ( 'NONE', *, *, #146, .T. ) ;
#293 = FACE_OUTER_BOUND ( 'NONE', #261, .T. ) ;
#294 = PRESENTATION_LAYER_ASSIGNMENT (  '', '', ( #609 ) ) ;
#295 = EDGE_CURVE ( 'NONE', #15, #242, #307, .T. ) ;
#296 = B_SPLINE_CURVE_WITH_KNOTS ( 'NONE', 3,
 ( #8, #557, #64, #733, #686, #58 ),
 .UNSPECIFIED., .F., .F.,
 ( 4, 2, 4 ),
 ( 0.003836159553464219343, 0.004202463752521878176, 0.004568767951579537009 ),
 .UNSPECIFIED. ) ;
#297 = DIRECTION ( 'NONE',  ( 0.000000000000000000, 0.000000000000000000, 1.000000000000000000 ) ) ;
#298 = ORIENTED_EDGE ( 'NONE', *, *, #274, .F. ) ;
#299 = CIRCLE ( 'NONE', #597, 4.007472359323742239 ) ;
#300 = DIRECTION ( 'NONE',  ( 0.000000000000000000, 0.8660254037844387076, 0.4999999999999998335 ) ) ;
#301 = SURFACE_STYLE_FILL_AREA ( #81 ) ;
#302 = PLANE ( 'NONE',  #269 ) ;
#303 = CARTESIAN_POINT ( 'NONE',  ( -12.90000000000000213, 1.443375672974064328, 3.128943976826325424E-17 ) ) ;
#304 = DIRECTION ( 'NONE',  ( 0.000000000000000000, 0.000000000000000000, -1.000000000000000000 ) ) ;
#305 = ORIENTED_EDGE ( 'NONE', *, *, #52, .F. ) ;
#306 = CARTESIAN_POINT ( 'NONE',  ( -12.90000000000000213, -0.7216878364870328300, 1.250000000000000222 ) ) ;
#307 = LINE ( 'NONE', #587, #11 ) ;
#308 = AXIS2_PLACEMENT_3D ( 'NONE', #372, #590, #484 ) ;
#309 = ORIENTED_EDGE ( 'NONE', *, *, #393, .T. ) ;
#310 = CIRCLE ( 'NONE', #264, 3.800000000000000266 ) ;
#311 = MECHANICAL_DESIGN_GEOMETRIC_PRESENTATION_REPRESENTATION (  '', ( #624 ), #413 ) ;
#312 =( LENGTH_UNIT ( ) NAMED_UNIT ( * ) SI_UNIT ( .MILLI., .METRE. ) );
#313 = ORIENTED_EDGE ( 'NONE', *, *, #226, .T. ) ;
#314 = DIRECTION ( 'NONE',  ( 1.000000000000000000, 0.000000000000000000, 0.000000000000000000 ) ) ;
#315 = CARTESIAN_POINT ( 'NONE',  ( -14.15048909679995681, 0.2418642655271367736, 1.250000000000000000 ) ) ;
#316 = EDGE_CURVE ( 'NONE', #495, #525, #606, .T. ) ;
#317 = EDGE_LOOP ( 'NONE', ( #170, #182 ) ) ;
#318 =( NAMED_UNIT ( * ) PLANE_ANGLE_UNIT ( ) SI_UNIT ( $, .RADIAN. ) );
#319 = EDGE_CURVE ( 'NONE', #125, #489, #603, .T. ) ;
#320 = FACE_OUTER_BOUND ( 'NONE', #480, .T. ) ;
#321 =( GEOMETRIC_REPRESENTATION_CONTEXT ( 3 ) GLOBAL_UNCERTAINTY_ASSIGNED_CONTEXT ( ( #551 ) ) GLOBAL_UNIT_ASSIGNED_CONTEXT ( ( #375, #38, #204 ) ) REPRESENTATION_CONTEXT ( 'NONE', 'WORKASPACE' ) );
#322 = ORIENTED_EDGE ( 'NONE', *, *, #402, .F. ) ;
#323 = CARTESIAN_POINT ( 'NONE',  ( -14.15037000055573557, -0.2394511050528685403, 1.250000000000000222 ) ) ;
#324 =( GEOMETRIC_REPRESENTATION_CONTEXT ( 3 ) GLOBAL_UNCERTAINTY_ASSIGNED_CONTEXT ( ( #612 ) ) GLOBAL_UNIT_ASSIGNED_CONTEXT ( ( #279, #186, #249 ) ) REPRESENTATION_CONTEXT ( 'NONE', 'WORKASPACE' ) );
#325 = VECTOR ( 'NONE', #130, 1000.000000000000000 ) ;
#326 = ORIENTED_EDGE ( 'NONE', *, *, #156, .F. ) ;
#327 = DIRECTION ( 'NONE',  ( 0.000000000000000000, 1.000000000000000000, 0.000000000000000000 ) ) ;
#328 = ORIENTED_EDGE ( 'NONE', *, *, #666, .T. ) ;
#329 = B_SPLINE_CURVE_WITH_KNOTS ( 'NONE', 3,
 ( #246, #466, #694, #193, #152, #721 ),
 .UNSPECIFIED., .F., .F.,
 ( 4, 2, 4 ),
 ( 0.001876385854435920399, 0.002242080329067761349, 0.002607774803699601865 ),
 .UNSPECIFIED. ) ;
#330 = EDGE_LOOP ( 'NONE', ( #142, #431 ) ) ;
#331 = SURFACE_SIDE_STYLE ('',( #541 ) ) ;
#332 = CARTESIAN_POINT ( 'NONE',  ( 0.000000000000000000, 0.000000000000000000, 0.000000000000000000 ) ) ;
#333 = AXIS2_PLACEMENT_3D ( 'NONE', #273, #397, #607 ) ;
#334 = UNCERTAINTY_MEASURE_WITH_UNIT (LENGTH_MEASURE( 1.000000000000000082E-05 ), #162, 'distance_accuracy_value', 'NONE');
#335 = CARTESIAN_POINT ( 'NONE',  ( -14.20000000000000107, 0.7216878364870323859, -1.250000000000000000 ) ) ;
#336 = CIRCLE ( 'NONE', #212, 0.2000000000000009548 ) ;
#337 = PRESENTATION_STYLE_ASSIGNMENT (( #113 ) ) ;
#338 = DIRECTION ( 'NONE',  ( 0.000000000000000000, 0.8660254037844387076, -0.4999999999999998335 ) ) ;
#339 = EDGE_CURVE ( 'NONE', #683, #570, #110, .T. ) ;
#340 = PRESENTATION_STYLE_ASSIGNMENT (( #55 ) ) ;
#341 = CARTESIAN_POINT ( 'NONE',  ( -12.82664516406750366, -1.325732799999564504, 0.2037634331402072840 ) ) ;
#342 = CARTESIAN_POINT ( 'NONE',  ( -14.20000000000000107, -1.443375672974064328, 3.035766082959413993E-15 ) ) ;
#343 = ORIENTED_EDGE ( 'NONE', *, *, #146, .F. ) ;
#344 =( NAMED_UNIT ( * ) SI_UNIT ( $, .STERADIAN. ) SOLID_ANGLE_UNIT ( ) );
#345 = DIRECTION ( 'NONE',  ( 0.000000000000000000, -1.000000000000000000, 0.000000000000000000 ) ) ;
#346 = FACE_OUTER_BOUND ( 'NONE', #443, .T. ) ;
#347 = EDGE_LOOP ( 'NONE', ( #328, #83, #581, #185 ) ) ;
#348 = CARTESIAN_POINT ( 'NONE',  ( -12.82677104533570400, -0.8391288272867704068, 1.046586237043626300 ) ) ;
#349 = EDGE_CURVE ( 'NONE', #512, #532, #263, .T. ) ;
#350 = DIRECTION ( 'NONE',  ( -1.000000000000000000, 0.000000000000000000, 0.000000000000000000 ) ) ;
#351 = ORIENTED_EDGE ( 'NONE', *, *, #688, .F. ) ;
#352 = DIRECTION ( 'NONE',  ( 0.000000000000000000, 0.000000000000000000, -1.000000000000000000 ) ) ;
#353 = DIRECTION ( 'NONE',  ( -1.000000000000000000, -0.000000000000000000, 0.000000000000000000 ) ) ;
#354 = ORIENTED_EDGE ( 'NONE', *, *, #428, .T. ) ;
#355 = CONICAL_SURFACE ( 'NONE', #37, 1.443375672974064106, 1.013248818828625719 ) ;
#356 = STYLED_ITEM ( 'NONE', ( #337 ), #543 ) ;
#357 = DIRECTION ( 'NONE',  ( 0.000000000000000000, 0.4999999999999998335, -0.8660254037844387076 ) ) ;
#358 = CARTESIAN_POINT ( 'NONE',  ( -11.79999999999999893, -2.694222958124175527E-16, 2.199999999999998845 ) ) ;
#359 = CIRCLE ( 'NONE', #599, 1.443375672974063884 ) ;
#360 = DIRECTION ( 'NONE',  ( -1.000000000000000000, -0.000000000000000000, -0.000000000000000000 ) ) ;
#361 = CARTESIAN_POINT ( 'NONE',  ( -12.77942286340599587, -0.2440392103072525354, 1.250000000000000222 ) ) ;
#362 = CARTESIAN_POINT ( 'NONE',  ( -10.72727272727272840, 0.000000000000000000, 0.000000000000000000 ) ) ;
#363 = ADVANCED_FACE ( 'NONE', ( #664 ), #726, .T. ) ;
#364 = CARTESIAN_POINT ( 'NONE',  ( -12.82664516406750366, -0.8393307094615339858, -1.046236566859793049 ) ) ;
#365 = ORIENTED_EDGE ( 'NONE', *, *, #104, .F. ) ;
#366 = DIRECTION ( 'NONE',  ( 1.000000000000000000, 0.000000000000000000, -0.000000000000000000 ) ) ;
#367 = APPLICATION_CONTEXT ( 'automotive_design' ) ;
#368 = ORIENTED_EDGE ( 'NONE', *, *, #653, .T. ) ;
#369 = DIRECTION ( 'NONE',  ( -1.000000000000000000, -0.000000000000000000, 0.000000000000000000 ) ) ;
#370 = ADVANCED_FACE ( 'NONE', ( #320 ), #538, .T. ) ;
#371 = ORIENTED_EDGE ( 'NONE', *, *, #171, .T. ) ;
#372 = CARTESIAN_POINT ( 'NONE',  ( -0.3500000000000000333, 0.000000000000000000, 0.000000000000000000 ) ) ;
#373 = CARTESIAN_POINT ( 'NONE',  ( -12.82677104533570400, 1.325934682174326973, 0.2034137629563741723 ) ) ;
#374 = ORIENTED_EDGE ( 'NONE', *, *, #447, .F. ) ;
#375 =( LENGTH_UNIT ( ) NAMED_UNIT ( * ) SI_UNIT ( .MILLI., .METRE. ) );
#376 = DIRECTION ( 'NONE',  ( 0.000000000000000000, 0.000000000000000000, -1.000000000000000000 ) ) ;
#377 = MECHANICAL_DESIGN_GEOMETRIC_PRESENTATION_REPRESENTATION (  '', ( #260 ), #131 ) ;
#378 = CARTESIAN_POINT ( 'NONE',  ( -14.20000000000000107, -0.7216878364870324969, 1.249999999999999556 ) ) ;
#379 = CARTESIAN_POINT ( 'NONE',  ( -10.72727272727272840, 0.000000000000000000, 0.000000000000000000 ) ) ;
#380 = CIRCLE ( 'NONE', #710, 1.443375672974063884 ) ;
#381 = ORIENTED_EDGE ( 'NONE', *, *, #545, .F. ) ;
#382 = AXIS2_PLACEMENT_3D ( 'NONE', #362, #479, #695 ) ;
#383 = DIRECTION ( 'NONE',  ( -0.5291067161269960017, -1.039180521791365101E-16, 0.8485552916276619673 ) ) ;
#384 = VERTEX_POINT ( 'NONE', #45 ) ;
#385 = EDGE_CURVE ( 'NONE', #565, #495, #697, .T. ) ;
#386 = VERTEX_POINT ( 'NONE', #47 ) ;
#387 = SHAPE_DEFINITION_REPRESENTATION ( #685, #486 ) ;
#388 = DIRECTION ( 'NONE',  ( 1.000000000000000000, 0.000000000000000000, 0.000000000000000000 ) ) ;
#389 = AXIS2_PLACEMENT_3D ( 'NONE', #253, #407, #425 ) ;
#390 = FACE_OUTER_BOUND ( 'NONE', #455, .T. ) ;
#391 = LINE ( 'NONE', #54, #453 ) ;
#392 = CIRCLE ( 'NONE', #473, 2.199999999999998845 ) ;
#393 = EDGE_CURVE ( 'NONE', #605, #427, #392, .T. ) ;
#394 = CARTESIAN_POINT ( 'NONE',  ( -14.20000000000000107, 5.192832784574810899E-33, 0.000000000000000000 ) ) ;
#395 = DIRECTION ( 'NONE',  ( -1.000000000000000000, -0.000000000000000000, 0.000000000000000000 ) ) ;
#396 = ADVANCED_FACE ( 'NONE', ( #98 ), #637, .F. ) ;
#397 = DIRECTION ( 'NONE',  ( 0.000000000000000000, 0.000000000000000000, 1.000000000000000000 ) ) ;
#398 = CARTESIAN_POINT ( 'NONE',  ( -11.79999999999999893, 0.000000000000000000, 0.000000000000000000 ) ) ;
#399 = DIRECTION ( 'NONE',  ( 0.000000000000000000, 0.000000000000000000, -1.000000000000000000 ) ) ;
#400 = EDGE_LOOP ( 'NONE', ( #305, #235, #5, #30 ) ) ;
#401 = PRODUCT ( '镜向GB╱T 70.2-2015[内六角平圆头螺钉M4×12]', '镜向GB╱T 70.2-2015[内六角平圆头螺钉M4×12]', '', ( #118 ) ) ;
#402 = EDGE_CURVE ( 'NONE', #699, #73, #111, .T. ) ;
#403 = FILL_AREA_STYLE_COLOUR ( '', #442 ) ;
#404 = CARTESIAN_POINT ( 'NONE',  ( -12.00000000000000000, -0.7216878364870332740, -1.249999999999999778 ) ) ;
#405 = ORIENTED_EDGE ( 'NONE', *, *, #349, .F. ) ;
#406 = AXIS2_PLACEMENT_3D ( 'NONE', #470, #585, #75 ) ;
#407 = DIRECTION ( 'NONE',  ( -1.000000000000000000, -5.998083099822123814E-17, 0.000000000000000000 ) ) ;
#408 = DIRECTION ( 'NONE',  ( -1.000000000000000000, -0.000000000000000000, 0.000000000000000000 ) ) ;
#409 = ORIENTED_EDGE ( 'NONE', *, *, #653, .F. ) ;
#410 = CARTESIAN_POINT ( 'NONE',  ( -12.90000000000000213, 0.000000000000000000, 0.000000000000000000 ) ) ;
#411 = FACE_OUTER_BOUND ( 'NONE', #93, .T. ) ;
#412 = PRODUCT_DEFINITION_FORMATION_WITH_SPECIFIED_SOURCE ( '任何', '', #401, .NOT_KNOWN. ) ;
#413 =( GEOMETRIC_REPRESENTATION_CONTEXT ( 3 ) GLOBAL_UNCERTAINTY_ASSIGNED_CONTEXT ( ( #112 ) ) GLOBAL_UNIT_ASSIGNED_CONTEXT ( ( #312, #421, #199 ) ) REPRESENTATION_CONTEXT ( 'NONE', 'WORKASPACE' ) );
#414 = DIRECTION ( 'NONE',  ( 0.000000000000000000, 0.000000000000000000, -1.000000000000000000 ) ) ;
#415 = PLANE ( 'NONE',  #80 ) ;
#416 = EDGE_CURVE ( 'NONE', #592, #600, #619, .T. ) ;
#417 = CIRCLE ( 'NONE', #99, 2.199999999999998845 ) ;
#418 = AXIS2_PLACEMENT_3D ( 'NONE', #429, #649, #304 ) ;
#419 = CARTESIAN_POINT ( 'NONE',  ( -12.90000000000000213, 1.443375672974064328, 3.128943976826325424E-17 ) ) ;
#420 = EDGE_CURVE ( 'NONE', #632, #102, #519, .T. ) ;
#421 =( NAMED_UNIT ( * ) PLANE_ANGLE_UNIT ( ) SI_UNIT ( $, .RADIAN. ) );
#422 = AXIS2_PLACEMENT_3D ( 'NONE', #514, #408, #174 ) ;
#423 = ORIENTED_EDGE ( 'NONE', *, *, #688, .T. ) ;
#424 = ORIENTED_EDGE ( 'NONE', *, *, #90, .T. ) ;
#425 = DIRECTION ( 'NONE',  ( 5.691969551695359369E-17, -1.000000000000000000, 0.000000000000000000 ) ) ;
#426 = DIRECTION ( 'NONE',  ( 1.000000000000000000, 0.000000000000000000, 0.000000000000000000 ) ) ;
#427 = VERTEX_POINT ( 'NONE', #106 ) ;
#428 = EDGE_CURVE ( 'NONE', #562, #386, #160, .T. ) ;
#429 = CARTESIAN_POINT ( 'NONE',  ( -14.20000000000000107, 0.000000000000000000, 0.000000000000000000 ) ) ;
#430 = ADVANCED_FACE ( 'NONE', ( #553 ), #485, .F. ) ;
#431 = ORIENTED_EDGE ( 'NONE', *, *, #475, .F. ) ;
#432 = FACE_OUTER_BOUND ( 'NONE', #400, .T. ) ;
#433 = AXIS2_PLACEMENT_3D ( 'NONE', #491, #494, #43 ) ;
#434 = EDGE_LOOP ( 'NONE', ( #667, #665 ) ) ;
#435 = VERTEX_POINT ( 'NONE', #450 ) ;
#436 = B_SPLINE_CURVE_WITH_KNOTS ( 'NONE', 3,
 ( #614, #120, #116, #241, #342 ),
 .UNSPECIFIED., .F., .F.,
 ( 4, 1, 4 ),
 ( 2.309401076739671950E-07, 0.0007219187765947080240, 0.001443606613081742113 ),
 .UNSPECIFIED. ) ;
#437 = DIRECTION ( 'NONE',  ( 0.000000000000000000, 0.000000000000000000, -1.000000000000000000 ) ) ;
#438 = ORIENTED_EDGE ( 'NONE', *, *, #449, .F. ) ;
#439 = VECTOR ( 'NONE', #536, 1000.000000000000000 ) ;
#440 = ORIENTED_EDGE ( 'NONE', *, *, #497, .T. ) ;
#441 = CARTESIAN_POINT ( 'NONE',  ( -12.90000000000000213, 1.443375672974064328, 3.128943976826325424E-17 ) ) ;
#442 = COLOUR_RGB ( '',1.000000000000000000, 1.000000000000000000, 1.000000000000000000 ) ;
#443 = EDGE_LOOP ( 'NONE', ( #161, #343, #424, #213, #628 ) ) ;
#444 = EDGE_CURVE ( 'NONE', #242, #435, #134, .T. ) ;
#445 = CARTESIAN_POINT ( 'NONE',  ( -11.79999999999999893, 0.000000000000000000, 0.000000000000000000 ) ) ;
#446 = DIRECTION ( 'NONE',  ( 1.000000000000000000, 0.000000000000000000, -0.000000000000000000 ) ) ;
#447 = EDGE_CURVE ( 'NONE', #384, #435, #566, .T. ) ;
#448 = CARTESIAN_POINT ( 'NONE',  ( -12.90000000000000213, 0.000000000000000000, -1.443375672974064106 ) ) ;
#449 = EDGE_CURVE ( 'NONE', #651, #102, #299, .T. ) ;
#450 = CARTESIAN_POINT ( 'NONE',  ( -14.20000000000000107, -0.7216878364870309426, -1.250000000000000444 ) ) ;
#451 = DIRECTION ( 'NONE',  ( 0.000000000000000000, 0.000000000000000000, -1.000000000000000000 ) ) ;
#452 = MECHANICAL_DESIGN_GEOMETRIC_PRESENTATION_REPRESENTATION (  '', ( #356 ), #324 ) ;
#453 = VECTOR ( 'NONE', #234, 1000.000000000000000 ) ;
#454 = CARTESIAN_POINT ( 'NONE',  ( -12.00000000000000000, -0.7216878364870332740, -1.249999999999999778 ) ) ;
#455 = EDGE_LOOP ( 'NONE', ( #211, #117, #265, #492 ) ) ;
#456 = TOROIDAL_SURFACE ( 'NONE', #236, 2.199999999999998845, 0.2000000000000009548 ) ;
#457 = CARTESIAN_POINT ( 'NONE',  ( -14.20000000000000107, 1.443375672974064328, -9.757819552369541878E-16 ) ) ;
#458 = DIRECTION ( 'NONE',  ( 0.000000000000000000, 0.000000000000000000, -1.000000000000000000 ) ) ;
#459 = EDGE_LOOP ( 'NONE', ( #618, #40, #622, #368, #283 ) ) ;
#460 = CARTESIAN_POINT ( 'NONE',  ( -12.77942286340599587, -4.330491382256005356E-23, -1.249999999999999778 ) ) ;
#461 = CARTESIAN_POINT ( 'NONE',  ( -12.90000000000000213, -1.443375672974065216, 5.870030462665943960E-16 ) ) ;
#462 = ORIENTED_EDGE ( 'NONE', *, *, #428, .F. ) ;
#463 = CARTESIAN_POINT ( 'NONE',  ( -14.20000000000000107, -0.7216878364870324969, 1.249999999999999556 ) ) ;
#464 = SURFACE_STYLE_USAGE ( .BOTH. , #250 ) ;
#465 = AXIS2_PLACEMENT_3D ( 'NONE', #704, #645, #256 ) ;
#466 = CARTESIAN_POINT ( 'NONE',  ( -12.77942286340599409, 0.1219527981751485218, -1.249999999999999778 ) ) ;
#467 = ADVANCED_FACE ( 'NONE', ( #237 ), #725, .F. ) ;
#468 = LINE ( 'NONE', #517, #233 ) ;
#469 = EDGE_LOOP ( 'NONE', ( #654, #309, #188, #322 ) ) ;
#470 = CARTESIAN_POINT ( 'NONE',  ( -12.00000000000000000, -0.7216878364870328300, 1.250000000000000222 ) ) ;
#471 = DIRECTION ( 'NONE',  ( 0.000000000000000000, -1.000000000000000000, -1.224646799147353207E-16 ) ) ;
#472 = FACE_OUTER_BOUND ( 'NONE', #660, .T. ) ;
#473 = AXIS2_PLACEMENT_3D ( 'NONE', #35, #210, #153 ) ;
#474 = CARTESIAN_POINT ( 'NONE',  ( -11.79999999999999893, 0.000000000000000000, 0.000000000000000000 ) ) ;
#475 = EDGE_CURVE ( 'NONE', #435, #242, #380, .T. ) ;
#476 = ORIENTED_EDGE ( 'NONE', *, *, #574, .F. ) ;
#477 = FILL_AREA_STYLE_COLOUR ( '', #481 ) ;
#478 = EDGE_CURVE ( 'NONE', #525, #242, #176, .T. ) ;
#479 = DIRECTION ( 'NONE',  ( 0.000000000000000000, -0.000000000000000000, 1.000000000000000000 ) ) ;
#480 = EDGE_LOOP ( 'NONE', ( #438, #351, #44, #483 ) ) ;
#481 = COLOUR_RGB ( '',1.000000000000000000, 1.000000000000000000, 1.000000000000000000 ) ;
#482 = CARTESIAN_POINT ( 'NONE',  ( -14.13169213213474507, 1.082531754730548856, 0.6250000000000000000 ) ) ;
#483 = ORIENTED_EDGE ( 'NONE', *, *, #420, .T. ) ;
#484 = DIRECTION ( 'NONE',  ( 0.000000000000000000, 0.000000000000000000, -1.000000000000000000 ) ) ;
#485 = CONICAL_SURFACE ( 'NONE', #61, 3901.015332362329445, 1.319856261027561928 ) ;
#486 = ADVANCED_BREP_SHAPE_REPRESENTATION ( '镜向GB╱T 70.2-2015[内六角平圆头螺钉M4×12]', ( #674, #333 ), #86 ) ;
#487 = CARTESIAN_POINT ( 'NONE',  ( -12.90000000000000213, 0.7216878364870328300, 1.249999999999999112 ) ) ;
#488 = EDGE_CURVE ( 'NONE', #427, #73, #336, .T. ) ;
#489 = VERTEX_POINT ( 'NONE', #502 ) ;
#490 = CLOSED_SHELL ( 'NONE', ( #731, #164, #467, #363, #223, #543, #169, #370, #6, #20, #215, #430, #604, #53, #396, #529, #646, #554, #144, #547, #661, #107, #138, #67, #13 ) ) ;
#491 = CARTESIAN_POINT ( 'NONE',  ( -1013.830000000000041, -5.995863809075189324E-14, 0.000000000000000000 ) ) ;
#492 = ORIENTED_EDGE ( 'NONE', *, *, #615, .T. ) ;
#493 = APPLICATION_PROTOCOL_DEFINITION ( 'draft international standard', 'automotive_design', 1998, #367 ) ;
#494 = DIRECTION ( 'NONE',  ( -1.000000000000000000, -5.998083099822123814E-17, 0.000000000000000000 ) ) ;
#495 = VERTEX_POINT ( 'NONE', #168 ) ;
#496 = ORIENTED_EDGE ( 'NONE', *, *, #274, .T. ) ;
#497 = EDGE_CURVE ( 'NONE', #562, #125, #728, .T. ) ;
#498 = DIRECTION ( 'NONE',  ( 1.000000000000000000, 0.000000000000000000, -0.000000000000000000 ) ) ;
#499 = EDGE_CURVE ( 'NONE', #651, #690, #310, .T. ) ;
#500 = CARTESIAN_POINT ( 'NONE',  ( -14.20000000000000107, 0.7216878364870323859, -1.250000000000000000 ) ) ;
#501 = CARTESIAN_POINT ( 'NONE',  ( -11.79999999999999893, 0.000000000000000000, -1.999999999999997780 ) ) ;
#502 = CARTESIAN_POINT ( 'NONE',  ( -0.3500000000000000333, -2.449293598294706414E-16, 2.000000000000000000 ) ) ;
#503 = DIRECTION ( 'NONE',  ( 1.000000000000000000, 0.000000000000000000, -0.000000000000000000 ) ) ;
#504 = CIRCLE ( 'NONE', #251, 1.999999999999997780 ) ;
#505 =( LENGTH_UNIT ( ) NAMED_UNIT ( * ) SI_UNIT ( .MILLI., .METRE. ) );
#506 = CARTESIAN_POINT ( 'NONE',  ( -11.79999999999999893, 0.000000000000000000, -2.199999999999998845 ) ) ;
#507 = LINE ( 'NONE', #448, #677 ) ;
#508 = ORIENTED_EDGE ( 'NONE', *, *, #132, .T. ) ;
#509 = AXIS2_PLACEMENT_3D ( 'NONE', #572, #576, #297 ) ;
#510 = DIRECTION ( 'NONE',  ( 5.691969551695359369E-17, -1.000000000000000000, 0.000000000000000000 ) ) ;
#511 = DIRECTION ( 'NONE',  ( 0.000000000000000000, 0.000000000000000000, -1.000000000000000000 ) ) ;
#512 = VERTEX_POINT ( 'NONE', #730 ) ;
#513 = DIRECTION ( 'NONE',  ( 0.000000000000000000, 0.000000000000000000, -1.000000000000000000 ) ) ;
#514 = CARTESIAN_POINT ( 'NONE',  ( -0.3500000000000000333, 0.000000000000000000, 0.000000000000000000 ) ) ;
#515 = ORIENTED_EDGE ( 'NONE', *, *, #558, .F. ) ;
#516 = AXIS2_PLACEMENT_3D ( 'NONE', #220, #652, #708 ) ;
#517 = CARTESIAN_POINT ( 'NONE',  ( -14.20000000000000107, -2.449293598294705428E-16, 1.999999999999999112 ) ) ;
#518 = ORIENTED_EDGE ( 'NONE', *, *, #190, .F. ) ;
#519 = CIRCLE ( 'NONE', #530, 1.999999999999998668 ) ;
#520 = EDGE_CURVE ( 'NONE', #200, #157, #29, .T. ) ;
#521 = DIRECTION ( 'NONE',  ( 0.000000000000000000, 0.000000000000000000, -1.000000000000000000 ) ) ;
#522 = CARTESIAN_POINT ( 'NONE',  ( -3.061616997868386099E-17, 2.000000000000000000, 0.000000000000000000 ) ) ;
#523 = CARTESIAN_POINT ( 'NONE',  ( -12.82677104533570400, 0.8391288272867697406, -1.046586237043625411 ) ) ;
#524 = LINE ( 'NONE', #640, #100 ) ;
#525 = VERTEX_POINT ( 'NONE', #180 ) ;
#526 = B_SPLINE_CURVE_WITH_KNOTS ( 'NONE', 3,
 ( #641, #197, #636, #141, #364, #696 ),
 .UNSPECIFIED., .F., .F.,
 ( 4, 2, 4 ),
 ( 2.391904125715334417E-07, 0.0007300545202770522893, 0.001459869850141533049 ),
 .UNSPECIFIED. ) ;
#527 = DIRECTION ( 'NONE',  ( 0.000000000000000000, 0.000000000000000000, -1.000000000000000000 ) ) ;
#528 = FACE_OUTER_BOUND ( 'NONE', #657, .T. ) ;
#529 = ADVANCED_FACE ( 'NONE', ( #668 ), #673, .F. ) ;
#530 = AXIS2_PLACEMENT_3D ( 'NONE', #214, #602, #437 ) ;
#531 = CYLINDRICAL_SURFACE ( 'NONE', #715, 1.999999999999999112 ) ;
#532 = VERTEX_POINT ( 'NONE', #7 ) ;
#533 = DIRECTION ( 'NONE',  ( 0.000000000000000000, 8.881784197001252323E-16, 1.000000000000000000 ) ) ;
#534 = CARTESIAN_POINT ( 'NONE',  ( -10.72727272727272840, 0.000000000000000000, 0.000000000000000000 ) ) ;
#535 = ORIENTED_EDGE ( 'NONE', *, *, #520, .F. ) ;
#536 = DIRECTION ( 'NONE',  ( -1.000000000000000000, -0.000000000000000000, 0.000000000000000000 ) ) ;
#537 = AXIS2_PLACEMENT_3D ( 'NONE', #706, #593, #97 ) ;
#538 = SPHERICAL_SURFACE ( 'NONE', #284, 4.007472359323742239 ) ;
#539 = ORIENTED_EDGE ( 'NONE', *, *, #104, .T. ) ;
#540 = ORIENTED_EDGE ( 'NONE', *, *, #349, .T. ) ;
#541 = SURFACE_STYLE_FILL_AREA ( #154 ) ;
#542 = AXIS2_PLACEMENT_3D ( 'NONE', #534, #656, #713 ) ;
#543 = ADVANCED_FACE ( 'NONE', ( #390 ), #183, .T. ) ;
#544 = CARTESIAN_POINT ( 'NONE',  ( -14.16916666666574187, 1.323094366892892948, 0.2083333333333324544 ) ) ;
#545 = EDGE_CURVE ( 'NONE', #157, #384, #634, .T. ) ;
#546 = AXIS2_PLACEMENT_3D ( 'NONE', #247, #353, #145 ) ;
#547 = ADVANCED_FACE ( 'NONE', ( #71 ), #639, .F. ) ;
#548 = ORIENTED_EDGE ( 'NONE', *, *, #478, .F. ) ;
#549 = CARTESIAN_POINT ( 'NONE',  ( -0.3500000000000000333, 0.000000000000000000, 0.000000000000000000 ) ) ;
#550 = ORIENTED_EDGE ( 'NONE', *, *, #262, .T. ) ;
#551 = UNCERTAINTY_MEASURE_WITH_UNIT (LENGTH_MEASURE( 1.000000000000000082E-05 ), #375, 'distance_accuracy_value', 'NONE');
#552 = CARTESIAN_POINT ( 'NONE',  ( -11.79999999999999893, -2.449293598294704935E-16, 1.999999999999997780 ) ) ;
#553 = FACE_OUTER_BOUND ( 'NONE', #643, .T. ) ;
#554 = ADVANCED_FACE ( 'NONE', ( #582 ), #79, .F. ) ;
#555 = CARTESIAN_POINT ( 'NONE',  ( -14.15048909679995504, 0.2418642655271375785, -1.249999999999999778 ) ) ;
#556 = DIRECTION ( 'NONE',  ( -1.000000000000000000, -0.000000000000000000, -0.000000000000000000 ) ) ;
#557 = CARTESIAN_POINT ( 'NONE',  ( -12.86374379380171007, 0.6053960008849357255, 1.250000000000000000 ) ) ;
#558 = EDGE_CURVE ( 'NONE', #15, #592, #560, .T. ) ;
#559 = DIRECTION ( 'NONE',  ( 0.000000000000000000, 1.000000000000000000, 1.224646799147353207E-16 ) ) ;
#560 = B_SPLINE_CURVE_WITH_KNOTS ( 'NONE', 3,
 ( #703, #523, #698, #126, #31, #419 ),
 .UNSPECIFIED., .F., .F.,
 ( 4, 2, 4 ),
 ( 2.391904125708790558E-07, 0.0007300545202770514219, 0.001459869850141531965 ),
 .UNSPECIFIED. ) ;
#561 = CARTESIAN_POINT ( 'NONE',  ( -12.00000000000000000, 0.7216878364870323859, -1.249999999999999778 ) ) ;
#562 = VERTEX_POINT ( 'NONE', #579 ) ;
#563 = CARTESIAN_POINT ( 'NONE',  ( -14.20000000000000107, 2.219290746934189176E-17, 3.599228117386048901E-16 ) ) ;
#564 = CARTESIAN_POINT ( 'NONE',  ( -0.3500000000000000333, 0.000000000000000000, 0.000000000000000000 ) ) ;
#565 = VERTEX_POINT ( 'NONE', #463 ) ;
#566 = CIRCLE ( 'NONE', #175, 1.443375672974064328 ) ;
#567 = CONICAL_SURFACE ( 'NONE', #201, 3901.015332362329445, 1.319856261027561928 ) ;
#568 = CARTESIAN_POINT ( 'NONE',  ( -14.15037000055573380, -0.2394511050528674578, -1.249999999999999334 ) ) ;
#569 = FACE_OUTER_BOUND ( 'NONE', #219, .T. ) ;
#570 = VERTEX_POINT ( 'NONE', #460 ) ;
#571 = LINE ( 'NONE', #16, #57 ) ;
#572 = CARTESIAN_POINT ( 'NONE',  ( -14.20000000000000107, 0.000000000000000000, 0.000000000000000000 ) ) ;
#573 = ORIENTED_EDGE ( 'NONE', *, *, #499, .F. ) ;
#574 = EDGE_CURVE ( 'NONE', #532, #200, #243, .T. ) ;
#575 = CARTESIAN_POINT ( 'NONE',  ( -12.00000000000000000, -1.443375672974065216, 5.870030462665943960E-16 ) ) ;
#576 = DIRECTION ( 'NONE',  ( 1.000000000000000000, 0.000000000000000000, -0.000000000000000000 ) ) ;
#577 = ORIENTED_EDGE ( 'NONE', *, *, #23, .F. ) ;
#578 = VECTOR ( 'NONE', #228, 1000.000000000000000 ) ;
#579 = CARTESIAN_POINT ( 'NONE',  ( 0.000000000000000000, 0.000000000000000000, -1.393782217350892916 ) ) ;
#580 = DIRECTION ( 'NONE',  ( 0.000000000000000000, 1.224646799147352714E-16, -1.000000000000000000 ) ) ;
#581 = ORIENTED_EDGE ( 'NONE', *, *, #520, .T. ) ;
#582 = FACE_OUTER_BOUND ( 'NONE', #270, .T. ) ;
#583 = CARTESIAN_POINT ( 'NONE',  ( -1013.830000000000041, -5.995863809075189324E-14, 0.000000000000000000 ) ) ;
#584 = EDGE_LOOP ( 'NONE', ( #405, #508, #596, #21, #535, #476 ) ) ;
#585 = DIRECTION ( 'NONE',  ( 0.000000000000000000, -0.8660254037844385966, 0.5000000000000003331 ) ) ;
#586 = ORIENTED_EDGE ( 'NONE', *, *, #488, .F. ) ;
#587 = CARTESIAN_POINT ( 'NONE',  ( -12.00000000000000000, 0.7216878364870323859, -1.249999999999999778 ) ) ;
#588 = EDGE_CURVE ( 'NONE', #427, #605, #417, .T. ) ;
#589 = ORIENTED_EDGE ( 'NONE', *, *, #475, .T. ) ;
#590 = DIRECTION ( 'NONE',  ( -1.000000000000000000, -0.000000000000000000, 0.000000000000000000 ) ) ;
#591 = CARTESIAN_POINT ( 'NONE',  ( -12.82664516406750366, 0.8393307094615335417, 1.046236566859792605 ) ) ;
#592 = VERTEX_POINT ( 'NONE', #303 ) ;
#593 = DIRECTION ( 'NONE',  ( 0.000000000000000000, -0.8660254037844388186, -0.4999999999999996669 ) ) ;
#594 = COLOUR_RGB ( '',1.000000000000000000, 1.000000000000000000, 1.000000000000000000 ) ;
#595 = CARTESIAN_POINT ( 'NONE',  ( -12.77919874466209471, 0.9604055199136772858, 0.8365288436399075378 ) ) ;
#596 = ORIENTED_EDGE ( 'NONE', *, *, #339, .F. ) ;
#597 = AXIS2_PLACEMENT_3D ( 'NONE', #232, #613, #559 ) ;
#598 = CARTESIAN_POINT ( 'NONE',  ( -12.77942286340599587, -0.2440392103072532015, -1.249999999999999778 ) ) ;
#599 = AXIS2_PLACEMENT_3D ( 'NONE', #627, #184, #178 ) ;
#600 = VERTEX_POINT ( 'NONE', #26 ) ;
#601 = CARTESIAN_POINT ( 'NONE',  ( -14.13169213213474507, -1.082531754730548856, 0.6250000000000016653 ) ) ;
#602 = DIRECTION ( 'NONE',  ( 1.000000000000000000, 0.000000000000000000, -0.000000000000000000 ) ) ;
#603 = CIRCLE ( 'NONE', #719, 2.000000000000000000 ) ;
#604 = ADVANCED_FACE ( 'NONE', ( #293 ), #28, .F. ) ;
#605 = VERTEX_POINT ( 'NONE', #644 ) ;
#606 = B_SPLINE_CURVE_WITH_KNOTS ( 'NONE', 3,
 ( #659, #39, #482, #544, #92 ),
 .UNSPECIFIED., .F., .F.,
 ( 4, 1, 4 ),
 ( 2.309401076757153916E-07, 0.0007219187765947085661, 0.001443606613081741463 ),
 .UNSPECIFIED. ) ;
#607 = DIRECTION ( 'NONE',  ( 1.000000000000000000, 0.000000000000000000, 0.000000000000000000 ) ) ;
#608 = FILL_AREA_STYLE ('',( #403 ) ) ;
#609 = STYLED_ITEM ( 'NONE', ( #41 ), #674 ) ;
#610 = SURFACE_SIDE_STYLE ('',( #173 ) ) ;
#611 = DIRECTION ( 'NONE',  ( 0.000000000000000000, 0.000000000000000000, -1.000000000000000000 ) ) ;
#612 = UNCERTAINTY_MEASURE_WITH_UNIT (LENGTH_MEASURE( 1.000000000000000082E-05 ), #279, 'distance_accuracy_value', 'NONE');
#613 = DIRECTION ( 'NONE',  ( -0.000000000000000000, 1.224646799147353207E-16, -1.000000000000000000 ) ) ;
#614 = CARTESIAN_POINT ( 'NONE',  ( -14.20000000000000107, -0.7216878364870309426, -1.250000000000000444 ) ) ;
#615 = EDGE_CURVE ( 'NONE', #73, #699, #504, .T. ) ;
#616 = CARTESIAN_POINT ( 'NONE',  ( -1013.830000000000041, -5.995863809075189324E-14, 0.000000000000000000 ) ) ;
#617 = CARTESIAN_POINT ( 'NONE',  ( -14.20000000000000107, -1.999999999999998668, -3.551475717527323339E-16 ) ) ;
#618 = ORIENTED_EDGE ( 'NONE', *, *, #444, .T. ) ;
#619 = B_SPLINE_CURVE_WITH_KNOTS ( 'NONE', 3,
 ( #441, #373, #165, #595, #591, #487 ),
 .UNSPECIFIED., .F., .F.,
 ( 4, 2, 4 ),
 ( 2.391904125709705354E-07, 0.0007300545202770512051, 0.001459869850141531315 ),
 .UNSPECIFIED. ) ;
#620 = DIRECTION ( 'NONE',  ( 0.000000000000000000, 0.000000000000000000, 1.000000000000000000 ) ) ;
#621 = CARTESIAN_POINT ( 'NONE',  ( -12.00000000000000000, 0.7216878364870321638, 1.250000000000000222 ) ) ;
#622 = ORIENTED_EDGE ( 'NONE', *, *, #339, .T. ) ;
#623 = PRESENTATION_LAYER_ASSIGNMENT (  '', '', ( #356 ) ) ;
#624 = STYLED_ITEM ( 'NONE', ( #27 ), #223 ) ;
#625 = DIRECTION ( 'NONE',  ( 1.000000000000000000, 0.000000000000000000, -0.000000000000000000 ) ) ;
#626 = EDGE_CURVE ( 'NONE', #125, #73, #571, .T. ) ;
#627 = CARTESIAN_POINT ( 'NONE',  ( -14.20000000000000107, 2.219290746934189176E-17, 3.599228117386048901E-16 ) ) ;
#628 = ORIENTED_EDGE ( 'NONE', *, *, #192, .T. ) ;
#629 = DIRECTION ( 'NONE',  ( -1.000000000000000000, -0.000000000000000000, 0.000000000000000000 ) ) ;
#630 = B_SPLINE_CURVE_WITH_KNOTS ( 'NONE', 3,
 ( #648, #159, #601, #662, #378 ),
 .UNSPECIFIED., .F., .F.,
 ( 4, 1, 4 ),
 ( 2.309401076786084856E-07, 0.0007219187765947091082, 0.001443606613081739728 ),
 .UNSPECIFIED. ) ;
#631 = LINE ( 'NONE', #89, #325 ) ;
#632 = VERTEX_POINT ( 'NONE', #692 ) ;
#633 = CIRCLE ( 'NONE', #206, 1.443375672974063884 ) ;
#634 = LINE ( 'NONE', #575, #3 ) ;
#635 = CARTESIAN_POINT ( 'NONE',  ( -14.20000000000000107, 2.219290746934189176E-17, 3.599228117386048901E-16 ) ) ;
#636 = CARTESIAN_POINT ( 'NONE',  ( -12.77964865737705225, -1.206490558868566598, -0.4102970531874742810 ) ) ;
#637 = CONICAL_SURFACE ( 'NONE', #433, 3901.015332362329445, 1.319856261027561928 ) ;
#638 = CIRCLE ( 'NONE', #382, 4.007472359323742239 ) ;
#639 = PLANE ( 'NONE',  #406 ) ;
#640 = CARTESIAN_POINT ( 'NONE',  ( -0.3500000000000000333, -2.449293598294706414E-16, 2.000000000000000000 ) ) ;
#641 = CARTESIAN_POINT ( 'NONE',  ( -12.90000000000000213, -1.443375672974065216, 5.870030462665943960E-16 ) ) ;
#642 = CIRCLE ( 'NONE', #179, 2.000000000000000000 ) ;
#643 = EDGE_LOOP ( 'NONE', ( #91, #48 ) ) ;
#644 = CARTESIAN_POINT ( 'NONE',  ( -12.00000000000000000, -2.694222958124175527E-16, 2.199999999999998845 ) ) ;
#645 = DIRECTION ( 'NONE',  ( 1.000000000000000000, 0.000000000000000000, 0.000000000000000000 ) ) ;
#646 = ADVANCED_FACE ( 'NONE', ( #189 ), #355, .F. ) ;
#647 = EDGE_LOOP ( 'NONE', ( #573, #46, #496, #518 ) ) ;
#648 = CARTESIAN_POINT ( 'NONE',  ( -14.20000000000000107, -1.443375672974064328, 3.035766082959413993E-15 ) ) ;
#649 = DIRECTION ( 'NONE',  ( 1.000000000000000000, 0.000000000000000000, -0.000000000000000000 ) ) ;
#650 = AXIS2_PLACEMENT_3D ( 'NONE', #88, #143, #139 ) ;
#651 = VERTEX_POINT ( 'NONE', #19 ) ;
#652 = DIRECTION ( 'NONE',  ( 1.000000000000000000, 0.000000000000000000, -0.000000000000000000 ) ) ;
#653 = EDGE_CURVE ( 'NONE', #570, #15, #329, .T. ) ;
#654 = ORIENTED_EDGE ( 'NONE', *, *, #262, .F. ) ;
#655 = FILL_AREA_STYLE_COLOUR ( '', #594 ) ;
#656 = DIRECTION ( 'NONE',  ( -0.000000000000000000, 0.000000000000000000, -1.000000000000000000 ) ) ;
#657 = EDGE_LOOP ( 'NONE', ( #577, #371, #718, #196 ) ) ;
#658 = PLANE ( 'NONE',  #537 ) ;
#659 = CARTESIAN_POINT ( 'NONE',  ( -14.20000000000000107, 0.7216878364870321638, 1.250000000000000222 ) ) ;
#660 = EDGE_LOOP ( 'NONE', ( #423, #121 ) ) ;
#661 = ADVANCED_FACE ( 'NONE', ( #148 ), #658, .F. ) ;
#662 = CARTESIAN_POINT ( 'NONE',  ( -14.16916666666574187, -0.8419691425682048758, 1.041666666666667185 ) ) ;
#663 = AXIS2_PLACEMENT_3D ( 'NONE', #616, #56, #510 ) ;
#664 = FACE_OUTER_BOUND ( 'NONE', #647, .T. ) ;
#665 = ORIENTED_EDGE ( 'NONE', *, *, #393, .F. ) ;
#666 = EDGE_CURVE ( 'NONE', #384, #565, #630, .T. ) ;
#667 = ORIENTED_EDGE ( 'NONE', *, *, #588, .F. ) ;
#668 = FACE_OUTER_BOUND ( 'NONE', #222, .T. ) ;
#669 =( NAMED_UNIT ( * ) PLANE_ANGLE_UNIT ( ) SI_UNIT ( $, .RADIAN. ) );
#670 = CARTESIAN_POINT ( 'NONE',  ( -12.90000000000000213, -1.443375672974065216, 5.870030462665943960E-16 ) ) ;
#671 = FACE_OUTER_BOUND ( 'NONE', #459, .T. ) ;
#672 = CARTESIAN_POINT ( 'NONE',  ( -14.16916666666574187, 0.8419691425682040986, -1.041666666666667407 ) ) ;
#673 = CONICAL_SURFACE ( 'NONE', #663, 3901.015332362329445, 1.319856261027561928 ) ;
#674 = MANIFOLD_SOLID_BREP ( '<GB╱T 70.2-2015[内六角平圆头螺钉M4×12]>-<切除-旋转1>', #490 ) ;
#675 = CARTESIAN_POINT ( 'NONE',  ( -1013.830000000000041, -5.995863809075189324E-14, 0.000000000000000000 ) ) ;
#676 = EDGE_CURVE ( 'NONE', #525, #495, #633, .T. ) ;
#677 = VECTOR ( 'NONE', #181, 1000.000000000000000 ) ;
#678 = EDGE_CURVE ( 'NONE', #592, #525, #217, .T. ) ;
#679 = FILL_AREA_STYLE ('',( #477 ) ) ;
#680 = DIRECTION ( 'NONE',  ( 5.691969551695359369E-17, -1.000000000000000000, 0.000000000000000000 ) ) ;
#681 = CIRCLE ( 'NONE', #163, 1.393782217350892916 ) ;
#682 = DIRECTION ( 'NONE',  ( 0.000000000000000000, -0.4999999999999998335, -0.8660254037844387076 ) ) ;
#683 = VERTEX_POINT ( 'NONE', #209 ) ;
#684 = DIRECTION ( 'NONE',  ( -1.000000000000000000, -5.998083099822123814E-17, 0.000000000000000000 ) ) ;
#685 = PRODUCT_DEFINITION_SHAPE ( 'NONE', 'NONE',  #691 ) ;
#686 = CARTESIAN_POINT ( 'NONE',  ( -12.77942286340599587, 0.1219527981751487716, 1.250000000000000222 ) ) ;
#687 = ORIENTED_EDGE ( 'NONE', *, *, #150, .T. ) ;
#688 = EDGE_CURVE ( 'NONE', #690, #651, #74, .T. ) ;
#689 = CARTESIAN_POINT ( 'NONE',  ( -12.00000000000000178, 0.000000000000000000, 0.000000000000000000 ) ) ;
#690 = VERTEX_POINT ( 'NONE', #94 ) ;
#691 = PRODUCT_DEFINITION ( '未知', '', #412, #277 ) ;
#692 = CARTESIAN_POINT ( 'NONE',  ( -14.20000000000000107, 1.999999999999998668, 0.000000000000000000 ) ) ;
#693 = CARTESIAN_POINT ( 'NONE',  ( -14.20000000000000107, 0.7216878364870323859, -1.250000000000000000 ) ) ;
#694 = CARTESIAN_POINT ( 'NONE',  ( -12.79105228766682956, 0.2457778558553066761, -1.249999999999999778 ) ) ;
#695 = DIRECTION ( 'NONE',  ( 1.000000000000000000, 0.000000000000000000, 0.000000000000000000 ) ) ;
#696 = CARTESIAN_POINT ( 'NONE',  ( -12.90000000000000213, -0.7216878364870332740, -1.249999999999999778 ) ) ;
#697 = B_SPLINE_CURVE_WITH_KNOTS ( 'NONE', 3,
 ( #271, #722, #323, #315, #221, #224 ),
 .UNSPECIFIED., .F., .F.,
 ( 4, 2, 4 ),
 ( 0.001182686314803312391, 0.001908595411696192238, 0.002634504508589072085 ),
 .UNSPECIFIED. ) ;
#698 = CARTESIAN_POINT ( 'NONE',  ( -12.77964865737705225, 0.9585729505925310034, -0.8397029468125251084 ) ) ;
#699 = VERTEX_POINT ( 'NONE', #552 ) ;
#700 = AXIS2_PLACEMENT_3D ( 'NONE', #398, #275, #513 ) ;
#701 = CIRCLE ( 'NONE', #418, 1.999999999999998668 ) ;
#702 = VECTOR ( 'NONE', #395, 1000.000000000000000 ) ;
#703 = CARTESIAN_POINT ( 'NONE',  ( -12.90000000000000213, 0.7216878364870323859, -1.249999999999999778 ) ) ;
#704 = CARTESIAN_POINT ( 'NONE',  ( -14.20000000000000107, 2.219290746934189176E-17, 3.599228117386048901E-16 ) ) ;
#705 = ORIENTED_EDGE ( 'NONE', *, *, #588, .T. ) ;
#706 = CARTESIAN_POINT ( 'NONE',  ( -12.00000000000000000, -1.443375672974065216, 5.870030462665943960E-16 ) ) ;
#707 = ORIENTED_EDGE ( 'NONE', *, *, #132, .F. ) ;
#708 = DIRECTION ( 'NONE',  ( 0.000000000000000000, 0.000000000000000000, -1.000000000000000000 ) ) ;
#709 = DIRECTION ( 'NONE',  ( 0.000000000000000000, 0.000000000000000000, -1.000000000000000000 ) ) ;
#710 = AXIS2_PLACEMENT_3D ( 'NONE', #563, #388, #281 ) ;
#711 = ORIENTED_EDGE ( 'NONE', *, *, #478, .T. ) ;
#712 =( NAMED_UNIT ( * ) SI_UNIT ( $, .STERADIAN. ) SOLID_ANGLE_UNIT ( ) );
#713 = DIRECTION ( 'NONE',  ( 0.000000000000000000, 1.000000000000000000, 0.000000000000000000 ) ) ;
#714 = EDGE_LOOP ( 'NONE', ( #354, #87 ) ) ;
#715 = AXIS2_PLACEMENT_3D ( 'NONE', #202, #32, #414 ) ;
#716 = SURFACE_STYLE_USAGE ( .BOTH. , #331 ) ;
#717 = CARTESIAN_POINT ( 'NONE',  ( -12.82715765887601655, -0.4880459183963068992, -1.249999999999999778 ) ) ;
#718 = ORIENTED_EDGE ( 'NONE', *, *, #402, .T. ) ;
#719 = AXIS2_PLACEMENT_3D ( 'NONE', #549, #498, #149 ) ;
#720 = ORIENTED_EDGE ( 'NONE', *, *, #278, .F. ) ;
#721 = CARTESIAN_POINT ( 'NONE',  ( -12.90000000000000213, 0.7216878364870323859, -1.249999999999999778 ) ) ;
#722 = CARTESIAN_POINT ( 'NONE',  ( -14.16921124011832589, -0.4814729877613865838, 1.250000000000000000 ) ) ;
#723 = ORIENTED_EDGE ( 'NONE', *, *, #447, .T. ) ;
#724 = UNCERTAINTY_MEASURE_WITH_UNIT (LENGTH_MEASURE( 1.000000000000000082E-05 ), #505, 'distance_accuracy_value', 'NONE');
#725 = TOROIDAL_SURFACE ( 'NONE', #700, 2.199999999999998845, 0.2000000000000009548 ) ;
#726 = SPHERICAL_SURFACE ( 'NONE', #542, 4.007472359323742239 ) ;
#727 = CIRCLE ( 'NONE', #33, 1.443375672974063884 ) ;
#728 = LINE ( 'NONE', #122, #578 ) ;
#729 = CARTESIAN_POINT ( 'NONE',  ( -11.79999999999999893, 0.000000000000000000, 0.000000000000000000 ) ) ;
#730 = CARTESIAN_POINT ( 'NONE',  ( -11.99999999999999645, 0.000000000000000000, 0.000000000000000000 ) ) ;
#731 = ADVANCED_FACE ( 'NONE', ( #432 ), #172, .T. ) ;
#732 = PRESENTATION_LAYER_ASSIGNMENT (  '', '', ( #260 ) ) ;
#733 = CARTESIAN_POINT ( 'NONE',  ( -12.79105228766683311, 0.2457778558553070092, 1.250000000000000000 ) ) ;
#734 = PRODUCT_RELATED_PRODUCT_CATEGORY ( 'part', '', ( #401 ) ) ;
ENDSEC;
END-ISO-10303-21;
